<?xml version="1.0" encoding="UTF-8" standalone="no"?><svg xmlns="http://www.w3.org/2000/svg" xmlns:xlink="http://www.w3.org/1999/xlink" contentScriptType="application/ecmascript" contentStyleType="text/css" height="345.8333px" preserveAspectRatio="none" style="width:898px;height:345px;background:#333333;" version="1.1" viewBox="0 0 898 345" width="898.9583px" zoomAndPan="magnify"><defs/><g><rect fill="#48494B" height="41.2028" rx="8.3333" ry="8.3333" style="stroke:#545454;stroke-width:1.0416666666666667;" width="660.4167" x="111.9792" y="2.0833"/><text fill="#C0C0C0" font-family="Open Sans,Avenir,Nunito,Arial,Helvetica,SansSerif" font-size="20.8333" lengthAdjust="spacing" textLength="637.5" x="123.4375" y="30.5583">org.apache.wicket.extensions.markup.html.repeater.tree.nested</text><!--MD5=[85cb0b10ecfc3d3683a94ecb575d2faf]
cluster Subtree--><polygon fill="#333333" points="16.6667,160.9945,78.125,160.9945,85.4167,188.2161,211.4583,188.2161,211.4583,318.2861,16.6667,318.2861,16.6667,160.9945" style="stroke:#333333;stroke-width:2.0833333333333335;"/><line style="stroke:#333333;stroke-width:2.0833333333333335;" x1="16.6667" x2="85.4167" y1="188.2161" y2="188.2161"/><text fill="#C8AC00" font-family="Open Sans,Avenir,Nunito,Arial,Helvetica,SansSerif" font-size="12.5" font-weight="bold" lengthAdjust="spacing" textLength="48.9583" x="23.9583" y="178.2878">Subtree</text><!--MD5=[4f53e324923e0dc170e6297ebccd2443]
class Subtree.ModelIterator--><rect codeLine="18" fill="#282828" height="83.3781" id="Subtree.ModelIterator" rx="8.3333" ry="8.3333" style="stroke:#5E5E5E;stroke-width:1.0416666666666667;" width="125" x="61.4583" y="209.9528"/><rect fill="#1B1B1A" height="31.3883" rx="8.3333" ry="8.3333" style="stroke:#1B1B1A;stroke-width:1.0416666666666667;" width="125" x="61.4583" y="209.9528"/><rect fill="#1B1B1A" height="8.3333" style="stroke:#1B1B1A;stroke-width:1.0416666666666667;" width="125" x="61.4583" y="233.0078"/><rect codeLine="18" fill="none" height="83.3781" id="Subtree.ModelIterator" rx="8.3333" ry="8.3333" style="stroke:#5E5E5E;stroke-width:1.0416666666666667;" width="125" x="61.4583" y="209.9528"/><ellipse cx="76.0417" cy="225.647" fill="#0066CF" rx="10.4167" ry="10.4167" style="stroke:#0086EF;stroke-width:1.0416666666666667;"/><path d="M77.9521,230.072 Q77.5248,230.2917 77.0549,230.4016 Q76.5849,230.5115 76.0661,230.5115 Q74.2228,230.5115 73.2524,229.2969 Q72.2819,228.0823 72.2819,225.7874 Q72.2819,223.4863 73.2524,222.2717 Q74.2228,221.0571 76.0661,221.0571 Q76.5849,221.0571 77.061,221.167 Q77.537,221.2769 77.9521,221.4966 L77.9521,223.4985 Q77.4882,223.0713 77.0518,222.8729 Q76.6154,222.6746 76.1515,222.6746 Q75.1628,222.6746 74.6592,223.4589 Q74.1557,224.2432 74.1557,225.7874 Q74.1557,227.3254 74.6592,228.1097 Q75.1628,228.894 76.1515,228.894 Q76.6154,228.894 77.0518,228.6957 Q77.4882,228.4973 77.9521,228.0701 Z " fill="#000000"/><text fill="#D8BC00" font-family="Open Sans,Avenir,Nunito,Arial,Helvetica,SansSerif" font-size="12.5" font-weight="bold" lengthAdjust="spacing" textLength="87.5" x="92.7083" y="230.3711">ModelIterator</text><line style="stroke:#5E5E5E;stroke-width:1.5625;" x1="62.5" x2="185.4167" y1="241.3411" y2="241.3411"/><ellipse cx="72.9167" cy="276.711" fill="#84BE84" rx="3.125" ry="3.125" style="stroke:#038048;stroke-width:1.0416666666666667;"/><text fill="#D8BC00" font-family="Open Sans,Avenir,Nunito,Arial,Helvetica,SansSerif" font-size="11.4583" lengthAdjust="spacing" textLength="83.3333" x="84.375" y="283.6222">ModelIterator()</text><line style="stroke:#5E5E5E;stroke-width:1.0416666666666667;" x1="62.5" x2="80.2083" y1="259.5469" y2="259.5469"/><text fill="#D8BC00" font-family="Open Sans,Avenir,Nunito,Arial,Helvetica,SansSerif" font-size="11.4583" lengthAdjust="spacing" textLength="81.25" x="83.3333" y="263.3565">(constructors)</text><line style="stroke:#5E5E5E;stroke-width:1.0416666666666667;" x1="167.7083" x2="185.4167" y1="259.5469" y2="259.5469"/><!--MD5=[023ecf6702e3ca2ce47ae747eafb20f1]
class Iterator--><rect codeLine="6" fill="#282828" height="48.055" id="Iterator" rx="8.3333" ry="8.3333" style="stroke:#5E5E5E;stroke-width:1.0416666666666667;" width="85.4167" x="81.25" y="53.7028"/><rect fill="#1B1B1A" height="31.3883" rx="8.3333" ry="8.3333" style="stroke:#1B1B1A;stroke-width:1.0416666666666667;" width="85.4167" x="81.25" y="53.7028"/><rect fill="#1B1B1A" height="8.3333" style="stroke:#1B1B1A;stroke-width:1.0416666666666667;" width="85.4167" x="81.25" y="76.7578"/><rect codeLine="6" fill="none" height="48.055" id="Iterator" rx="8.3333" ry="8.3333" style="stroke:#5E5E5E;stroke-width:1.0416666666666667;" width="85.4167" x="81.25" y="53.7028"/><ellipse cx="95.8333" cy="69.397" fill="#008400" rx="10.4167" ry="10.4167" style="stroke:#239C23;stroke-width:1.0416666666666667;"/><path d="M93.2373,66.5588 L93.2373,64.9719 L98.6633,64.9719 L98.6633,66.5588 L96.8506,66.5588 L96.8506,72.4976 L98.6633,72.4976 L98.6633,74.0845 L93.2373,74.0845 L93.2373,72.4976 L95.05,72.4976 L95.05,66.5588 Z " fill="#000000"/><text fill="#D8BC00" font-family="Open Sans,Avenir,Nunito,Arial,Helvetica,SansSerif" font-size="12.5" font-style="italic" font-weight="bold" lengthAdjust="spacing" textLength="47.9167" x="112.5" y="74.1211">Iterator</text><line style="stroke:#5E5E5E;stroke-width:1.0416666666666667;" x1="82.2917" x2="165.625" y1="85.0911" y2="85.0911"/><line style="stroke:#5E5E5E;stroke-width:1.0416666666666667;" x1="82.2917" x2="165.625" y1="93.4245" y2="93.4245"/><!--MD5=[44a1b4afaef76c16e6c9ec4990ad0c8d]
class Item--><rect fill="#282828" height="48.055" id="Item" rx="8.3333" ry="8.3333" style="stroke:#5E5E5E;stroke-width:1.0416666666666667;" width="66.6667" x="316.6667" y="53.7028"/><rect fill="#1B1B1A" height="31.3883" rx="8.3333" ry="8.3333" style="stroke:#1B1B1A;stroke-width:1.0416666666666667;" width="66.6667" x="316.6667" y="53.7028"/><rect fill="#1B1B1A" height="8.3333" style="stroke:#1B1B1A;stroke-width:1.0416666666666667;" width="66.6667" x="316.6667" y="76.7578"/><rect fill="none" height="48.055" id="Item" rx="8.3333" ry="8.3333" style="stroke:#5E5E5E;stroke-width:1.0416666666666667;" width="66.6667" x="316.6667" y="53.7028"/><ellipse cx="331.25" cy="69.397" fill="#0066CF" rx="10.4167" ry="10.4167" style="stroke:#0086EF;stroke-width:1.0416666666666667;"/><path d="M333.1604,73.822 Q332.7332,74.0417 332.2632,74.1516 Q331.7932,74.2615 331.2744,74.2615 Q329.4312,74.2615 328.4607,73.0469 Q327.4902,71.8323 327.4902,69.5374 Q327.4902,67.2363 328.4607,66.0217 Q329.4312,64.8071 331.2744,64.8071 Q331.7932,64.8071 332.2693,64.917 Q332.7454,65.0269 333.1604,65.2466 L333.1604,67.2485 Q332.6965,66.8213 332.2601,66.6229 Q331.8237,66.4246 331.3599,66.4246 Q330.3711,66.4246 329.8676,67.2089 Q329.364,67.9932 329.364,69.5374 Q329.364,71.0754 329.8676,71.8597 Q330.3711,72.644 331.3599,72.644 Q331.8237,72.644 332.2601,72.4457 Q332.6965,72.2473 333.1604,71.8201 Z " fill="#000000"/><text fill="#D8BC00" font-family="Open Sans,Avenir,Nunito,Arial,Helvetica,SansSerif" font-size="12.5" font-weight="bold" lengthAdjust="spacing" textLength="29.1667" x="347.9167" y="74.1211">Item</text><line style="stroke:#5E5E5E;stroke-width:1.0416666666666667;" x1="317.7083" x2="382.2917" y1="85.0911" y2="85.0911"/><line style="stroke:#5E5E5E;stroke-width:1.0416666666666667;" x1="317.7083" x2="382.2917" y1="93.4245" y2="93.4245"/><!--MD5=[c08007eb88dbbf9a17cd1e7cc98bd618]
class BranchItem--><rect codeLine="9" fill="#282828" height="127.0345" id="BranchItem" rx="8.3333" ry="8.3333" style="stroke:#5E5E5E;stroke-width:1.0416666666666667;" width="226.0417" x="236.9792" y="188.0778"/><rect fill="#1B1B1A" height="31.3883" rx="8.3333" ry="8.3333" style="stroke:#1B1B1A;stroke-width:1.0416666666666667;" width="226.0417" x="236.9792" y="188.0778"/><rect fill="#1B1B1A" height="8.3333" style="stroke:#1B1B1A;stroke-width:1.0416666666666667;" width="226.0417" x="236.9792" y="211.1328"/><rect codeLine="9" fill="none" height="127.0345" id="BranchItem" rx="8.3333" ry="8.3333" style="stroke:#5E5E5E;stroke-width:1.0416666666666667;" width="226.0417" x="236.9792" y="188.0778"/><ellipse cx="296.875" cy="203.772" fill="#0066CF" rx="10.4167" ry="10.4167" style="stroke:#0086EF;stroke-width:1.0416666666666667;"/><path d="M298.7854,208.197 Q298.3582,208.4167 297.8882,208.5266 Q297.4182,208.6365 296.8994,208.6365 Q295.0562,208.6365 294.0857,207.4219 Q293.1152,206.2073 293.1152,203.9124 Q293.1152,201.6113 294.0857,200.3967 Q295.0562,199.1821 296.8994,199.1821 Q297.4182,199.1821 297.8943,199.292 Q298.3704,199.4019 298.7854,199.6216 L298.7854,201.6235 Q298.3215,201.1963 297.8851,200.9979 Q297.4487,200.7996 296.9849,200.7996 Q295.9961,200.7996 295.4926,201.5839 Q294.989,202.3682 294.989,203.9124 Q294.989,205.4504 295.4926,206.2347 Q295.9961,207.019 296.9849,207.019 Q297.4487,207.019 297.8851,206.8207 Q298.3215,206.6223 298.7854,206.1951 Z " fill="#000000"/><text fill="#D8BC00" font-family="Open Sans,Avenir,Nunito,Arial,Helvetica,SansSerif" font-size="12.5" font-weight="bold" lengthAdjust="spacing" textLength="72.9167" x="319.7917" y="208.4961">BranchItem</text><rect fill="#333333" height="23.055" style="stroke:#A0A0A0;stroke-width:1.0416666666666667;stroke-dasharray:2.0,2.0;" width="16.6667" x="449.4792" y="184.9528"/><text fill="#A0A0A0" font-family="Open Sans,Avenir,Nunito,Arial,Helvetica,SansSerif" font-size="12.5" font-weight="bold" lengthAdjust="spacing" textLength="8.3333" x="453.6458" y="201.2044">T</text><line style="stroke:#5E5E5E;stroke-width:1.5625;" x1="238.0208" x2="461.9792" y1="219.4661" y2="219.4661"/><ellipse cx="248.4375" cy="254.836" fill="#84BE84" rx="3.125" ry="3.125" style="stroke:#038048;stroke-width:1.0416666666666667;"/><text fill="#D8BC00" font-family="Open Sans,Avenir,Nunito,Arial,Helvetica,SansSerif" font-size="11.4583" lengthAdjust="spacing" textLength="193.75" x="259.8958" y="261.7472">BranchItem(String, int, IModel&lt;T&gt;)</text><line style="stroke:#5E5E5E;stroke-width:1.0416666666666667;" x1="238.0208" x2="306.25" y1="237.6719" y2="237.6719"/><text fill="#D8BC00" font-family="Open Sans,Avenir,Nunito,Arial,Helvetica,SansSerif" font-size="11.4583" lengthAdjust="spacing" textLength="81.25" x="309.375" y="241.4815">(constructors)</text><line style="stroke:#5E5E5E;stroke-width:1.0416666666666667;" x1="393.75" x2="461.9792" y1="237.6719" y2="237.6719"/><polygon fill="#FFFF44" points="248.4375,293.2841,252.6042,297.4508,248.4375,301.6174,244.2708,297.4508" style="stroke:#B38D22;stroke-width:1.0416666666666667;"/><text fill="#D8BC00" font-family="Open Sans,Avenir,Nunito,Arial,Helvetica,SansSerif" font-size="11.4583" lengthAdjust="spacing" textLength="88.5417" x="259.8958" y="305.4036">boolean isLast()</text><line style="stroke:#5E5E5E;stroke-width:1.0416666666666667;" x1="238.0208" x2="315.625" y1="281.3283" y2="281.3283"/><text fill="#D8BC00" font-family="Open Sans,Avenir,Nunito,Arial,Helvetica,SansSerif" font-size="11.4583" lengthAdjust="spacing" textLength="62.5" x="318.75" y="285.1379">(collection)</text><line style="stroke:#5E5E5E;stroke-width:1.0416666666666667;" x1="384.375" x2="461.9792" y1="281.3283" y2="281.3283"/><!--MD5=[0174392a0c212c3b3e97bee69152624c]
class Panel--><rect fill="#282828" height="48.055" id="Panel" rx="8.3333" ry="8.3333" style="stroke:#5E5E5E;stroke-width:1.0416666666666667;" width="71.875" x="657.8125" y="53.7028"/><rect fill="#1B1B1A" height="31.3883" rx="8.3333" ry="8.3333" style="stroke:#1B1B1A;stroke-width:1.0416666666666667;" width="71.875" x="657.8125" y="53.7028"/><rect fill="#1B1B1A" height="8.3333" style="stroke:#1B1B1A;stroke-width:1.0416666666666667;" width="71.875" x="657.8125" y="76.7578"/><rect fill="none" height="48.055" id="Panel" rx="8.3333" ry="8.3333" style="stroke:#5E5E5E;stroke-width:1.0416666666666667;" width="71.875" x="657.8125" y="53.7028"/><ellipse cx="672.3958" cy="69.397" fill="#0066CF" rx="10.4167" ry="10.4167" style="stroke:#0086EF;stroke-width:1.0416666666666667;"/><path d="M674.3062,73.822 Q673.879,74.0417 673.409,74.1516 Q672.939,74.2615 672.4202,74.2615 Q670.577,74.2615 669.6065,73.0469 Q668.6361,71.8323 668.6361,69.5374 Q668.6361,67.2363 669.6065,66.0217 Q670.577,64.8071 672.4202,64.8071 Q672.939,64.8071 673.4151,64.917 Q673.8912,65.0269 674.3062,65.2466 L674.3062,67.2485 Q673.8424,66.8213 673.406,66.6229 Q672.9696,66.4246 672.5057,66.4246 Q671.5169,66.4246 671.0134,67.2089 Q670.5098,67.9932 670.5098,69.5374 Q670.5098,71.0754 671.0134,71.8597 Q671.5169,72.644 672.5057,72.644 Q672.9696,72.644 673.406,72.4457 Q673.8424,72.2473 674.3062,71.8201 Z " fill="#000000"/><text fill="#D8BC00" font-family="Open Sans,Avenir,Nunito,Arial,Helvetica,SansSerif" font-size="12.5" font-weight="bold" lengthAdjust="spacing" textLength="34.375" x="689.0625" y="74.1211">Panel</text><line style="stroke:#5E5E5E;stroke-width:1.0416666666666667;" x1="658.8542" x2="728.6458" y1="85.0911" y2="85.0911"/><line style="stroke:#5E5E5E;stroke-width:1.0416666666666667;" x1="658.8542" x2="728.6458" y1="93.4245" y2="93.4245"/><!--MD5=[c74681beaedca64cb3ff7436d19003a2]
class Subtree--><rect codeLine="25" fill="#282828" height="174.8576" id="Subtree" rx="8.3333" ry="8.3333" style="stroke:#5E5E5E;stroke-width:1.0416666666666667;" width="387.5" x="500" y="164.1195"/><rect fill="#1B1B1A" height="31.3883" rx="8.3333" ry="8.3333" style="stroke:#1B1B1A;stroke-width:1.0416666666666667;" width="387.5" x="500" y="164.1195"/><rect fill="#1B1B1A" height="8.3333" style="stroke:#1B1B1A;stroke-width:1.0416666666666667;" width="387.5" x="500" y="187.1745"/><rect codeLine="25" fill="none" height="174.8576" id="Subtree" rx="8.3333" ry="8.3333" style="stroke:#5E5E5E;stroke-width:1.0416666666666667;" width="387.5" x="500" y="164.1195"/><ellipse cx="652.6042" cy="179.8136" fill="#0066CF" rx="10.4167" ry="10.4167" style="stroke:#0086EF;stroke-width:1.0416666666666667;"/><path d="M654.5146,184.2387 Q654.0873,184.4584 653.6174,184.5683 Q653.1474,184.6781 652.6286,184.6781 Q650.7853,184.6781 649.8149,183.4635 Q648.8444,182.2489 648.8444,179.954 Q648.8444,177.653 649.8149,176.4384 Q650.7853,175.2238 652.6286,175.2238 Q653.1474,175.2238 653.6235,175.3337 Q654.0995,175.4435 654.5146,175.6632 L654.5146,177.6652 Q654.0507,177.238 653.6143,177.0396 Q653.1779,176.8412 652.714,176.8412 Q651.7253,176.8412 651.2217,177.6255 Q650.7182,178.4098 650.7182,179.954 Q650.7182,181.4921 651.2217,182.2764 Q651.7253,183.0607 652.714,183.0607 Q653.1779,183.0607 653.6143,182.8623 Q654.0507,182.664 654.5146,182.2367 Z " fill="#000000"/><text fill="#D8BC00" font-family="Open Sans,Avenir,Nunito,Arial,Helvetica,SansSerif" font-size="12.5" font-weight="bold" lengthAdjust="spacing" textLength="48.9583" x="675.5208" y="184.5378">Subtree</text><rect fill="#333333" height="23.055" style="stroke:#A0A0A0;stroke-width:1.0416666666666667;stroke-dasharray:2.0,2.0;" width="16.6667" x="873.9583" y="160.9945"/><text fill="#A0A0A0" font-family="Open Sans,Avenir,Nunito,Arial,Helvetica,SansSerif" font-size="12.5" font-weight="bold" lengthAdjust="spacing" textLength="8.3333" x="878.125" y="177.2461">T</text><line style="stroke:#5E5E5E;stroke-width:1.5625;" x1="501.0417" x2="886.4583" y1="195.5078" y2="195.5078"/><ellipse cx="511.4583" cy="230.8777" fill="#84BE84" rx="3.125" ry="3.125" style="stroke:#038048;stroke-width:1.0416666666666667;"/><text fill="#D8BC00" font-family="Open Sans,Avenir,Nunito,Arial,Helvetica,SansSerif" font-size="11.4583" lengthAdjust="spacing" textLength="248.9583" x="522.9167" y="237.7889">Subtree(String, NestedTree&lt;T&gt;, IModel&lt;T&gt;)</text><line style="stroke:#5E5E5E;stroke-width:1.0416666666666667;" x1="501.0417" x2="650" y1="213.7136" y2="213.7136"/><text fill="#D8BC00" font-family="Open Sans,Avenir,Nunito,Arial,Helvetica,SansSerif" font-size="11.4583" lengthAdjust="spacing" textLength="81.25" x="653.125" y="217.5232">(constructors)</text><line style="stroke:#5E5E5E;stroke-width:1.0416666666666667;" x1="737.5" x2="886.4583" y1="213.7136" y2="213.7136"/><line style="stroke:#5E5E5E;stroke-width:1.0416666666666667;" x1="501.0417" x2="886.4583" y1="247.4976" y2="247.4976"/><ellipse cx="511.4583" cy="258.9559" fill="#84BE84" rx="3.125" ry="3.125" style="stroke:#038048;stroke-width:1.0416666666666667;"/><text fill="#D8BC00" font-family="Open Sans,Avenir,Nunito,Arial,Helvetica,SansSerif" font-size="11.4583" lengthAdjust="spacing" textLength="125" x="522.9167" y="265.8671">IModel&lt;T&gt; getModel()</text><ellipse cx="511.4583" cy="278.7008" fill="#84BE84" rx="3.125" ry="3.125" style="stroke:#038048;stroke-width:1.0416666666666667;"/><text fill="#D8BC00" font-family="Open Sans,Avenir,Nunito,Arial,Helvetica,SansSerif" font-size="11.4583" lengthAdjust="spacing" textLength="106.25" x="522.9167" y="285.612">T getModelObject()</text><polygon fill="#FFFF44" points="511.4583,317.1488,515.625,321.3155,511.4583,325.4822,507.2917,321.3155" style="stroke:#B38D22;stroke-width:1.0416666666666667;"/><text fill="#D8BC00" font-family="Open Sans,Avenir,Nunito,Arial,Helvetica,SansSerif" font-size="11.4583" lengthAdjust="spacing" textLength="355.2083" x="522.9167" y="329.2684">BranchItem&lt;T&gt; newBranchItem(String id, int index, IModel&lt;T&gt;)</text><line style="stroke:#5E5E5E;stroke-width:1.0416666666666667;" x1="501.0417" x2="666.6667" y1="305.1931" y2="305.1931"/><text fill="#D8BC00" font-family="Open Sans,Avenir,Nunito,Arial,Helvetica,SansSerif" font-size="11.4583" lengthAdjust="spacing" textLength="47.9167" x="669.7917" y="309.0027">(factory)</text><line style="stroke:#5E5E5E;stroke-width:1.0416666666666667;" x1="720.8333" x2="886.4583" y1="305.1931" y2="305.1931"/><!--MD5=[71ef9908a94ec2c3916d82deb0e843c5]
reverse link Item to BranchItem--><path codeLine="8" d="M350,122.9424 C350,142.7028 350,166.3486 350,187.8903 " fill="none" id="Item-backto-BranchItem" style="stroke:#545454;stroke-width:1.5625;"/><polygon fill="none" points="342.7083,122.7132,350,101.8799,357.2917,122.7132,342.7083,122.7132" style="stroke:#545454;stroke-width:1.5625;"/><!--MD5=[2bb9401532096e7315ff2f0a509933df]
reverse link Iterator to Subtree.ModelIterator--><path codeLine="17" d="M123.9583,122.7757 C123.9583,149.5465 123.9583,183.5049 123.9583,209.682 " fill="none" id="Iterator-backto-Subtree.ModelIterator" style="stroke:#545454;stroke-width:1.5625;"/><polygon fill="none" points="116.6667,122.7132,123.9583,101.8799,131.25,122.7132,116.6667,122.7132" style="stroke:#545454;stroke-width:1.5625;"/><!--MD5=[eaa598f667b3fdf3e150e8f227c75da4]
reverse link Panel to Subtree--><path codeLine="24" d="M693.75,123.0257 C693.75,135.5465 693.75,149.6299 693.75,163.734 " fill="none" id="Panel-backto-Subtree" style="stroke:#545454;stroke-width:1.5625;"/><polygon fill="none" points="686.4583,122.7132,693.75,101.8799,701.0417,122.7132,686.4583,122.7132" style="stroke:#545454;stroke-width:1.5625;"/><!--MD5=[a246a795df9f3dfad31ef989f1ef2f1e]
@startuml

    !include lexakai.theme
    
    title "org.apache.wicket.extensions.markup.html.repeater.tree.nested"
    
    interface Iterator
    
    Item <|- - BranchItem
    class BranchItem<T>
    {
        - -(constructors)- -
        +BranchItem(String, int, IModel<T>)
        - -(collection)- -
        #boolean isLast()
    }
    
    Iterator <|- - Subtree.ModelIterator
    class Subtree.ModelIterator
    {
        - -(constructors)- -
        +ModelIterator()
    }
    
    Panel <|- - Subtree
    class Subtree<T>
    {
        - -(constructors)- -
        +Subtree(String, NestedTree<T>, IModel<T>)
        - -
        +IModel<T> getModel()
        +T getModelObject()
        - -(factory)- -
        #BranchItem<T> newBranchItem(String id, int index, IModel<T>)
    }
    
@enduml

@startuml









skinparam backgroundColor #333333






skinparam  {
    defaultFontName   "Open Sans,Avenir,Nunito,Arial,Helvetica,SansSerif"
    defaultFontSize   12
    defaultTextAlignment left
    shadowing false
    RoundCorner 10
    TitleFontSize 18
}

skinparam defaultFontName       "Open Sans,Avenir,Nunito,Arial,Helvetica,SansSerif"
skinparam defaultFontSize       12
skinparam dpi                   100
skinparam shadowing             false
skinparam roundcorner           16
skinparam ParticipantPadding    40
skinparam BoxPadding            40
skinparam Padding               3
skinparam ArrowColor            #545454
skinparam stereotype {
    CBackgroundColor #0066cf
    CBorderColor #0086ef
    ABackgroundColor #C8Ac00
    ABorderColor #D8Bc00
    IBackgroundColor #008400
    IBorderColor #239c23
    EBackgroundColor #cf6300
    EBorderColor #ef8300
    NBackgroundColor #3380b9
    NBorderColor #004d86
}
skinparam title {
	FontColor	                 #c0c0c0
 	BorderColor                  #545454
	FontSize	    	         20
	BorderRoundCorner            16
	BorderThickness 	         1
	BackgroundColor              #48494b
}


skinparam legend {
	BackgroundColor #303030
	BorderColor #404040
	FontColor #a0a0a0
}

	skinparam swimlane {
	BorderColor #5e5e5e
	BorderThickness 2
	TitleBackgroundColor  #6d6d6d-#484848
	TitleFontColor #303030
}

skinparam activity {
		FontColor #C8Ac00
	BorderColor #333333
	BackgroundColor #333333-#333333
	BarColor #00FF00
	StartColor #0060a8
	EndColor #0060a8
	DiamondBackgroundColor #6d6d6d-#3a3a3a
  	DiamondBorderColor #3a3a3a
  	DiamondFontColor #fefefe
}


skinparam participant {
		FontColor #C8Ac00
	BorderColor #333333
	BackgroundColor #333333-#333333
	ParticipantBorderThickness 2
}


skinparam actor {
		FontColor #C8Ac00
	BorderColor #333333
	BackgroundColor #333333-#333333
}


skinparam arrow {
	Thickness 1.5
	Color #545454
	FontColor #a0a0a0
    FontStyle bold
    MessageAlignment center
}



skinparam sequence {
	BorderColor #303030
	TitleFontColor #303030
	BackgroundColor #333333
	StartColor #303030
	EndColor #303030
	BoxBackgroundColor #333333
	BoxBorderColor #484848
	BoxFontColor #484848
	LifeLineBorderColor #484848
	LifeLineBorderThickness 2
	LifeLineBackgroundColor #3a3a3a
	GroupBorderColor #484848
	GroupFontColor #484848
	GroupHeaderFontColor #0060a8
	GroupBackgroundColor #484848
	GroupHeaderBackgroundColor #333333
	DividerBackgroundColor #484848
    DividerBorderColor #484848
    DividerBorderThickness 2
    DividerFontColor #D8Bc00
	ReferenceBackgroundColor #333333
	ReferenceBorderColor #484848
	ReferenceFontColor #fefefe
	ReferenceHeaderBackgroundColor #484848
}


skinparam partition {
	BorderColor #303030
	FontColor #333333
	BackgroundColor #333333
}


skinparam collections {
		FontColor #C8Ac00
	BorderColor #333333
	BackgroundColor #333333-#333333
}


skinparam control {
		FontColor #C8Ac00
	BorderColor #333333
	BackgroundColor #333333-#333333
}


skinparam entity {
		FontColor #C8Ac00
	BorderColor #333333
	BackgroundColor #333333-#333333
}


skinparam boundary {
		FontColor #C8Ac00
	BorderColor #333333
	BackgroundColor #333333-#333333
}


skinparam agent {
	BackgroundColor #ff8000
	BorderColor #ff9933
	FontColor #484848
}


skinparam note {
	BorderThickness 1
	BackgroundColor #1b1b1a
	BorderColor #5e5e5e
	FontSize 11
	FontColor #a0a0a0
}


skinparam artifact {
	BorderThickness 10
	BorderColor #5e5e5e
	BackgroundColor #1b1b1a
	FontColor #D8Bc00
}


skinparam component {
		FontColor #C8Ac00
	BorderColor #333333
	BackgroundColor #333333-#333333
}


skinparam interface {
	BackgroundColor  #008400
	BorderColor  #007F00
	FontColor #484848
}


skinparam storage {
	BackgroundColor #ff8000
  	BorderColor #cc6600
	FontColor #222222
}


skinparam node {
	BackgroundColor #333333
	BorderColor #333333
	FontColor #C8Ac00
}


skinparam cloud {
	BackgroundColor #484848-black
	BorderColor #484848
	FontColor #D8Bc00
}


skinparam database {
		FontColor #C8Ac00
	BorderColor #333333
	BackgroundColor #333333-#333333
	BackgroundColor  #333333
}


skinparam class {
		FontColor #C8Ac00
	BorderColor #333333
	BackgroundColor #333333-#333333
	HeaderBackgroundColor #1b1b1a
    BackgroundColor #282828
    BorderColor #5e5e5e
 	StereotypeFontColor #a0a0a0
    StereotypeFontStyle bold
	BorderThickness 1
	AttributeFontColor #D8Bc00
	AttributeFontSize 11
    FontColor #D8Bc00
    FontStyle bold
}


skinparam object {
		FontColor #C8Ac00
	BorderColor #333333
	BackgroundColor #333333-#333333
	StereotypeFontColor #484848
	BorderThickness 1
	AttributeFontColor #fefefe
	AttributeFontSize 11
}


skinparam usecase {
		FontColor #C8Ac00
	BorderColor #333333
	BackgroundColor #333333-#333333
	BorderThickness 2
	StereotypeFontColor #303030
}


skinparam rectangle {
		FontColor #C8Ac00
	BorderColor #333333
	BackgroundColor #333333-#333333
	BackgroundColor #333333
	BorderThickness 2
	StereotypeFontColor #303030
}


skinparam package {
		FontColor #C8Ac00
	BorderColor #333333
	BackgroundColor #333333-#333333
	BackgroundColor #333333
	BorderThickness 2
}


skinparam folder {
	BackgroundColor #6d6d6d
  	BorderColor #ff8000
	FontColor #ff8000
	BorderThickness 2
}


skinparam frame {
	BackgroundColor #6d6d6d
  	BorderColor #0060a8
	FontColor #0060a8
	BorderThickness 2
}


skinparam state {
		FontColor #C8Ac00
	BorderColor #333333
	BackgroundColor #333333-#333333
	StartColor #0060a8
	EndColor #0060a8
	AttributeFontColor #fefefe
	AttributeFontSize 11
}


skinparam queue {
		FontColor #C8Ac00
	BorderColor #333333
	BackgroundColor #333333-#333333
}


skinparam card {
	BackgroundColor #0060a8
	BorderColor #004d86
	FontColor $INFO_TEXT
}


skinparam file {
	BackgroundColor #6d6d6d-#484848
	BorderColor #0060a8
	FontColor #fefefe
}


skinparam stack {
		FontColor #C8Ac00
	BorderColor #333333
	BackgroundColor #333333-#333333
}

    
    title "org.apache.wicket.extensions.markup.html.repeater.tree.nested"
    
    interface Iterator
    
    Item <|- - BranchItem
    class BranchItem<T>
    {
        - -(constructors)- -
        +BranchItem(String, int, IModel<T>)
        - -(collection)- -
        #boolean isLast()
    }
    
    Iterator <|- - Subtree.ModelIterator
    class Subtree.ModelIterator
    {
        - -(constructors)- -
        +ModelIterator()
    }
    
    Panel <|- - Subtree
    class Subtree<T>
    {
        - -(constructors)- -
        +Subtree(String, NestedTree<T>, IModel<T>)
        - -
        +IModel<T> getModel()
        +T getModelObject()
        - -(factory)- -
        #BranchItem<T> newBranchItem(String id, int index, IModel<T>)
    }
    
@enduml

PlantUML version 1.2021.01(Tue Feb 02 00:55:08 MST 2021)
(GPL source distribution)
Java Runtime: Java(TM) SE Runtime Environment
JVM: Java HotSpot(TM) 64-Bit Server VM
Default Encoding: UTF-8
Language: en
Country: US
--></g></svg>