<?xml version="1.0" encoding="UTF-8" standalone="no"?><svg xmlns="http://www.w3.org/2000/svg" xmlns:xlink="http://www.w3.org/1999/xlink" contentScriptType="application/ecmascript" contentStyleType="text/css" height="326.0417px" preserveAspectRatio="none" style="width:1144px;height:326px;background:#333333;" version="1.1" viewBox="0 0 1144 326" width="1144.7917px" zoomAndPan="magnify"><defs/><g><rect fill="#48494B" height="41.2028" rx="8.3333" ry="8.3333" style="stroke:#545454;stroke-width:1.0416666666666667;" width="473.9583" x="328.3854" y="2.0833"/><text fill="#C0C0C0" font-family="Open Sans,Avenir,Nunito,Arial,Helvetica,SansSerif" font-size="20.8333" lengthAdjust="spacing" textLength="451.0417" x="339.8438" y="30.5583">org.apache.wicket.extensions.captcha.kittens</text><!--MD5=[d99ebd0e29c7fe817843882d28b5203c]
cluster KittenCaptchaPanel--><polygon fill="#333333" points="407.2917,158.9111,545.8333,158.9111,553.125,186.1328,784.375,186.1328,784.375,300.5778,407.2917,300.5778,407.2917,158.9111" style="stroke:#333333;stroke-width:2.0833333333333335;"/><line style="stroke:#333333;stroke-width:2.0833333333333335;" x1="407.2917" x2="553.125" y1="186.1328" y2="186.1328"/><text fill="#C8AC00" font-family="Open Sans,Avenir,Nunito,Arial,Helvetica,SansSerif" font-size="12.5" font-weight="bold" lengthAdjust="spacing" textLength="126.0417" x="414.5833" y="176.2044">KittenCaptchaPanel</text><!--MD5=[7d577d80d63b84afad2e24e78ddbe7d5]
class KittenCaptchaPanel.Animal--><rect codeLine="8" fill="#282828" height="48.055" id="KittenCaptchaPanel.Animal" rx="8.3333" ry="8.3333" style="stroke:#5E5E5E;stroke-width:1.0416666666666667;" width="83.3333" x="676.0417" y="217.7653"/><rect fill="#1B1B1A" height="31.3883" rx="8.3333" ry="8.3333" style="stroke:#1B1B1A;stroke-width:1.0416666666666667;" width="83.3333" x="676.0417" y="217.7653"/><rect fill="#1B1B1A" height="8.3333" style="stroke:#1B1B1A;stroke-width:1.0416666666666667;" width="83.3333" x="676.0417" y="240.8203"/><rect codeLine="8" fill="none" height="48.055" id="KittenCaptchaPanel.Animal" rx="8.3333" ry="8.3333" style="stroke:#5E5E5E;stroke-width:1.0416666666666667;" width="83.3333" x="676.0417" y="217.7653"/><ellipse cx="690.625" cy="233.4595" fill="#0066CF" rx="10.4167" ry="10.4167" style="stroke:#0086EF;stroke-width:1.0416666666666667;"/><path d="M692.5354,237.8845 Q692.1082,238.1042 691.6382,238.2141 Q691.1682,238.324 690.6494,238.324 Q688.8062,238.324 687.8357,237.1094 Q686.8652,235.8948 686.8652,233.5999 Q686.8652,231.2988 687.8357,230.0842 Q688.8062,228.8696 690.6494,228.8696 Q691.1682,228.8696 691.6443,228.9795 Q692.1204,229.0894 692.5354,229.3091 L692.5354,231.311 Q692.0715,230.8838 691.6351,230.6854 Q691.1987,230.4871 690.7349,230.4871 Q689.7461,230.4871 689.2426,231.2714 Q688.739,232.0557 688.739,233.5999 Q688.739,235.1379 689.2426,235.9222 Q689.7461,236.7065 690.7349,236.7065 Q691.1987,236.7065 691.6351,236.5082 Q692.0715,236.3098 692.5354,235.8826 Z " fill="#000000"/><text fill="#D8BC00" font-family="Open Sans,Avenir,Nunito,Arial,Helvetica,SansSerif" font-size="12.5" font-weight="bold" lengthAdjust="spacing" textLength="45.8333" x="707.2917" y="238.1836">Animal</text><line style="stroke:#5E5E5E;stroke-width:1.0416666666666667;" x1="677.0833" x2="758.3333" y1="249.1536" y2="249.1536"/><line style="stroke:#5E5E5E;stroke-width:1.0416666666666667;" x1="677.0833" x2="758.3333" y1="257.487" y2="257.487"/><!--MD5=[570e52699e34715cd622e9e63c262c8e]
class KittenCaptchaPanel.CaptchaImageResource--><rect codeLine="13" fill="#282828" height="67.7999" id="KittenCaptchaPanel.CaptchaImageResource" rx="8.3333" ry="8.3333" style="stroke:#5E5E5E;stroke-width:1.0416666666666667;" width="187.5" x="452.0833" y="207.8695"/><rect fill="#1B1B1A" height="31.3883" rx="8.3333" ry="8.3333" style="stroke:#1B1B1A;stroke-width:1.0416666666666667;" width="187.5" x="452.0833" y="207.8695"/><rect fill="#1B1B1A" height="8.3333" style="stroke:#1B1B1A;stroke-width:1.0416666666666667;" width="187.5" x="452.0833" y="230.9245"/><rect codeLine="13" fill="none" height="67.7999" id="KittenCaptchaPanel.CaptchaImageResource" rx="8.3333" ry="8.3333" style="stroke:#5E5E5E;stroke-width:1.0416666666666667;" width="187.5" x="452.0833" y="207.8695"/><ellipse cx="466.6667" cy="223.5636" fill="#0066CF" rx="10.4167" ry="10.4167" style="stroke:#0086EF;stroke-width:1.0416666666666667;"/><path d="M468.5771,227.9887 Q468.1498,228.2084 467.6799,228.3183 Q467.2099,228.4281 466.6911,228.4281 Q464.8478,228.4281 463.8774,227.2135 Q462.9069,225.9989 462.9069,223.704 Q462.9069,221.403 463.8774,220.1884 Q464.8478,218.9738 466.6911,218.9738 Q467.2099,218.9738 467.686,219.0837 Q468.162,219.1935 468.5771,219.4132 L468.5771,221.4152 Q468.1132,220.988 467.6768,220.7896 Q467.2404,220.5912 466.7765,220.5912 Q465.7878,220.5912 465.2842,221.3755 Q464.7807,222.1598 464.7807,223.704 Q464.7807,225.2421 465.2842,226.0264 Q465.7878,226.8107 466.7765,226.8107 Q467.2404,226.8107 467.6768,226.6123 Q468.1132,226.414 468.5771,225.9867 Z " fill="#000000"/><text fill="#D8BC00" font-family="Open Sans,Avenir,Nunito,Arial,Helvetica,SansSerif" font-size="12.5" font-weight="bold" lengthAdjust="spacing" textLength="150" x="483.3333" y="228.2878">CaptchaImageResource</text><line style="stroke:#5E5E5E;stroke-width:1.5625;" x1="453.125" x2="638.5417" y1="239.2578" y2="239.2578"/><line style="stroke:#5E5E5E;stroke-width:1.0416666666666667;" x1="453.125" x2="638.5417" y1="247.5911" y2="247.5911"/><polygon fill="#FFFF44" points="463.5417,253.8411,467.7083,258.0078,463.5417,262.1745,459.375,258.0078" style="stroke:#B38D22;stroke-width:1.0416666666666667;"/><text fill="#D8BC00" font-family="Open Sans,Avenir,Nunito,Arial,Helvetica,SansSerif" font-size="11.4583" lengthAdjust="spacing" textLength="88.5417" x="475" y="265.9607">void invalidate()</text><!--MD5=[cc3de0a176daa3c4ec875deafdf5ddd1]
class Serializable--><rect codeLine="6" fill="#282828" height="48.055" id="Serializable" rx="8.3333" ry="8.3333" style="stroke:#5E5E5E;stroke-width:1.0416666666666667;" width="111.4583" x="147.3958" y="53.7028"/><rect fill="#1B1B1A" height="31.3883" rx="8.3333" ry="8.3333" style="stroke:#1B1B1A;stroke-width:1.0416666666666667;" width="111.4583" x="147.3958" y="53.7028"/><rect fill="#1B1B1A" height="8.3333" style="stroke:#1B1B1A;stroke-width:1.0416666666666667;" width="111.4583" x="147.3958" y="76.7578"/><rect codeLine="6" fill="none" height="48.055" id="Serializable" rx="8.3333" ry="8.3333" style="stroke:#5E5E5E;stroke-width:1.0416666666666667;" width="111.4583" x="147.3958" y="53.7028"/><ellipse cx="161.9792" cy="69.397" fill="#008400" rx="10.4167" ry="10.4167" style="stroke:#239C23;stroke-width:1.0416666666666667;"/><path d="M159.3831,66.5588 L159.3831,64.9719 L164.8092,64.9719 L164.8092,66.5588 L162.9964,66.5588 L162.9964,72.4976 L164.8092,72.4976 L164.8092,74.0845 L159.3831,74.0845 L159.3831,72.4976 L161.1959,72.4976 L161.1959,66.5588 Z " fill="#000000"/><text fill="#D8BC00" font-family="Open Sans,Avenir,Nunito,Arial,Helvetica,SansSerif" font-size="12.5" font-style="italic" font-weight="bold" lengthAdjust="spacing" textLength="73.9583" x="178.6458" y="74.1211">Serializable</text><line style="stroke:#5E5E5E;stroke-width:1.0416666666666667;" x1="148.4375" x2="257.8125" y1="85.0911" y2="85.0911"/><line style="stroke:#5E5E5E;stroke-width:1.0416666666666667;" x1="148.4375" x2="257.8125" y1="93.4245" y2="93.4245"/><!--MD5=[751dec9595dbaddc10fbc8eef99dad13]
class DynamicImageResource--><rect fill="#282828" height="48.055" id="DynamicImageResource" rx="8.3333" ry="8.3333" style="stroke:#5E5E5E;stroke-width:1.0416666666666667;" width="191.6667" x="450" y="53.7028"/><rect fill="#1B1B1A" height="31.3883" rx="8.3333" ry="8.3333" style="stroke:#1B1B1A;stroke-width:1.0416666666666667;" width="191.6667" x="450" y="53.7028"/><rect fill="#1B1B1A" height="8.3333" style="stroke:#1B1B1A;stroke-width:1.0416666666666667;" width="191.6667" x="450" y="76.7578"/><rect fill="none" height="48.055" id="DynamicImageResource" rx="8.3333" ry="8.3333" style="stroke:#5E5E5E;stroke-width:1.0416666666666667;" width="191.6667" x="450" y="53.7028"/><ellipse cx="464.5833" cy="69.397" fill="#0066CF" rx="10.4167" ry="10.4167" style="stroke:#0086EF;stroke-width:1.0416666666666667;"/><path d="M466.4937,73.822 Q466.0665,74.0417 465.5965,74.1516 Q465.1265,74.2615 464.6077,74.2615 Q462.7645,74.2615 461.794,73.0469 Q460.8236,71.8323 460.8236,69.5374 Q460.8236,67.2363 461.794,66.0217 Q462.7645,64.8071 464.6077,64.8071 Q465.1265,64.8071 465.6026,64.917 Q466.0787,65.0269 466.4937,65.2466 L466.4937,67.2485 Q466.0299,66.8213 465.5935,66.6229 Q465.1571,66.4246 464.6932,66.4246 Q463.7044,66.4246 463.2009,67.2089 Q462.6973,67.9932 462.6973,69.5374 Q462.6973,71.0754 463.2009,71.8597 Q463.7044,72.644 464.6932,72.644 Q465.1571,72.644 465.5935,72.4457 Q466.0299,72.2473 466.4937,71.8201 Z " fill="#000000"/><text fill="#D8BC00" font-family="Open Sans,Avenir,Nunito,Arial,Helvetica,SansSerif" font-size="12.5" font-weight="bold" lengthAdjust="spacing" textLength="154.1667" x="481.25" y="74.1211">DynamicImageResource</text><line style="stroke:#5E5E5E;stroke-width:1.0416666666666667;" x1="451.0417" x2="640.625" y1="85.0911" y2="85.0911"/><line style="stroke:#5E5E5E;stroke-width:1.0416666666666667;" x1="451.0417" x2="640.625" y1="93.4245" y2="93.4245"/><!--MD5=[0174392a0c212c3b3e97bee69152624c]
class Panel--><rect fill="#282828" height="48.055" id="Panel" rx="8.3333" ry="8.3333" style="stroke:#5E5E5E;stroke-width:1.0416666666666667;" width="71.875" x="897.3958" y="53.7028"/><rect fill="#1B1B1A" height="31.3883" rx="8.3333" ry="8.3333" style="stroke:#1B1B1A;stroke-width:1.0416666666666667;" width="71.875" x="897.3958" y="53.7028"/><rect fill="#1B1B1A" height="8.3333" style="stroke:#1B1B1A;stroke-width:1.0416666666666667;" width="71.875" x="897.3958" y="76.7578"/><rect fill="none" height="48.055" id="Panel" rx="8.3333" ry="8.3333" style="stroke:#5E5E5E;stroke-width:1.0416666666666667;" width="71.875" x="897.3958" y="53.7028"/><ellipse cx="911.9792" cy="69.397" fill="#0066CF" rx="10.4167" ry="10.4167" style="stroke:#0086EF;stroke-width:1.0416666666666667;"/><path d="M913.8896,73.822 Q913.4623,74.0417 912.9924,74.1516 Q912.5224,74.2615 912.0036,74.2615 Q910.1603,74.2615 909.1899,73.0469 Q908.2194,71.8323 908.2194,69.5374 Q908.2194,67.2363 909.1899,66.0217 Q910.1603,64.8071 912.0036,64.8071 Q912.5224,64.8071 912.9985,64.917 Q913.4745,65.0269 913.8896,65.2466 L913.8896,67.2485 Q913.4257,66.8213 912.9893,66.6229 Q912.5529,66.4246 912.089,66.4246 Q911.1003,66.4246 910.5967,67.2089 Q910.0932,67.9932 910.0932,69.5374 Q910.0932,71.0754 910.5967,71.8597 Q911.1003,72.644 912.089,72.644 Q912.5529,72.644 912.9893,72.4457 Q913.4257,72.2473 913.8896,71.8201 Z " fill="#000000"/><text fill="#D8BC00" font-family="Open Sans,Avenir,Nunito,Arial,Helvetica,SansSerif" font-size="12.5" font-weight="bold" lengthAdjust="spacing" textLength="34.375" x="928.6458" y="74.1211">Panel</text><line style="stroke:#5E5E5E;stroke-width:1.0416666666666667;" x1="898.4375" x2="968.2292" y1="85.0911" y2="85.0911"/><line style="stroke:#5E5E5E;stroke-width:1.0416666666666667;" x1="898.4375" x2="968.2292" y1="93.4245" y2="93.4245"/><!--MD5=[1623da94116de928039ea831160ca442]
class KittenCaptchaPanel--><rect codeLine="20" fill="#282828" height="155.1127" id="KittenCaptchaPanel" rx="8.3333" ry="8.3333" style="stroke:#5E5E5E;stroke-width:1.0416666666666667;" width="246.875" x="809.8958" y="164.1195"/><rect fill="#1B1B1A" height="31.3883" rx="8.3333" ry="8.3333" style="stroke:#1B1B1A;stroke-width:1.0416666666666667;" width="246.875" x="809.8958" y="164.1195"/><rect fill="#1B1B1A" height="8.3333" style="stroke:#1B1B1A;stroke-width:1.0416666666666667;" width="246.875" x="809.8958" y="187.1745"/><rect codeLine="20" fill="none" height="155.1127" id="KittenCaptchaPanel" rx="8.3333" ry="8.3333" style="stroke:#5E5E5E;stroke-width:1.0416666666666667;" width="246.875" x="809.8958" y="164.1195"/><ellipse cx="863.0208" cy="179.8136" fill="#0066CF" rx="10.4167" ry="10.4167" style="stroke:#0086EF;stroke-width:1.0416666666666667;"/><path d="M864.9312,184.2387 Q864.504,184.4584 864.034,184.5683 Q863.564,184.6781 863.0452,184.6781 Q861.202,184.6781 860.2315,183.4635 Q859.2611,182.2489 859.2611,179.954 Q859.2611,177.653 860.2315,176.4384 Q861.202,175.2238 863.0452,175.2238 Q863.564,175.2238 864.0401,175.3337 Q864.5162,175.4435 864.9312,175.6632 L864.9312,177.6652 Q864.4674,177.238 864.031,177.0396 Q863.5946,176.8412 863.1307,176.8412 Q862.1419,176.8412 861.6384,177.6255 Q861.1348,178.4098 861.1348,179.954 Q861.1348,181.4921 861.6384,182.2764 Q862.1419,183.0607 863.1307,183.0607 Q863.5946,183.0607 864.031,182.8623 Q864.4674,182.664 864.9312,182.2367 Z " fill="#000000"/><text fill="#D8BC00" font-family="Open Sans,Avenir,Nunito,Arial,Helvetica,SansSerif" font-size="12.5" font-weight="bold" lengthAdjust="spacing" textLength="126.0417" x="885.9375" y="184.5378">KittenCaptchaPanel</text><line style="stroke:#5E5E5E;stroke-width:1.5625;" x1="810.9375" x2="1055.7292" y1="195.5078" y2="195.5078"/><ellipse cx="821.3542" cy="230.8777" fill="#84BE84" rx="3.125" ry="3.125" style="stroke:#038048;stroke-width:1.0416666666666667;"/><text fill="#D8BC00" font-family="Open Sans,Avenir,Nunito,Arial,Helvetica,SansSerif" font-size="11.4583" lengthAdjust="spacing" textLength="214.5833" x="832.8125" y="237.7889">KittenCaptchaPanel(String, Dimension)</text><line style="stroke:#5E5E5E;stroke-width:1.0416666666666667;" x1="810.9375" x2="889.5833" y1="213.7136" y2="213.7136"/><text fill="#D8BC00" font-family="Open Sans,Avenir,Nunito,Arial,Helvetica,SansSerif" font-size="11.4583" lengthAdjust="spacing" textLength="81.25" x="892.7083" y="217.5232">(constructors)</text><line style="stroke:#5E5E5E;stroke-width:1.0416666666666667;" x1="977.0833" x2="1055.7292" y1="213.7136" y2="213.7136"/><line style="stroke:#5E5E5E;stroke-width:1.0416666666666667;" x1="810.9375" x2="1055.7292" y1="247.4976" y2="247.4976"/><ellipse cx="821.3542" cy="258.9559" fill="#84BE84" rx="3.125" ry="3.125" style="stroke:#038048;stroke-width:1.0416666666666667;"/><text fill="#D8BC00" font-family="Open Sans,Avenir,Nunito,Arial,Helvetica,SansSerif" font-size="11.4583" lengthAdjust="spacing" textLength="153.125" x="832.8125" y="265.8671">boolean allKittensSelected()</text><ellipse cx="821.3542" cy="302.6123" fill="#84BE84" rx="3.125" ry="3.125" style="stroke:#038048;stroke-width:1.0416666666666667;"/><text fill="#D8BC00" font-family="Open Sans,Avenir,Nunito,Arial,Helvetica,SansSerif" font-size="11.4583" lengthAdjust="spacing" textLength="63.5417" x="832.8125" y="309.5235">void reset()</text><line style="stroke:#5E5E5E;stroke-width:1.0416666666666667;" x1="810.9375" x2="903.6458" y1="285.4482" y2="285.4482"/><text fill="#D8BC00" font-family="Open Sans,Avenir,Nunito,Arial,Helvetica,SansSerif" font-size="11.4583" lengthAdjust="spacing" textLength="53.125" x="906.7708" y="289.2578">(lifecycle)</text><line style="stroke:#5E5E5E;stroke-width:1.0416666666666667;" x1="963.0208" x2="1055.7292" y1="285.4482" y2="285.4482"/><!--MD5=[5d60b2df0d9ffd626668ef78ae9e2833]
class OpaqueRegion--><rect codeLine="30" fill="#282828" height="48.055" id="OpaqueRegion" rx="8.3333" ry="8.3333" style="stroke:#5E5E5E;stroke-width:1.0416666666666667;" width="132.2917" x="1005.7292" y="53.7028"/><rect fill="#1B1B1A" height="31.3883" rx="8.3333" ry="8.3333" style="stroke:#1B1B1A;stroke-width:1.0416666666666667;" width="132.2917" x="1005.7292" y="53.7028"/><rect fill="#1B1B1A" height="8.3333" style="stroke:#1B1B1A;stroke-width:1.0416666666666667;" width="132.2917" x="1005.7292" y="76.7578"/><rect codeLine="30" fill="none" height="48.055" id="OpaqueRegion" rx="8.3333" ry="8.3333" style="stroke:#5E5E5E;stroke-width:1.0416666666666667;" width="132.2917" x="1005.7292" y="53.7028"/><ellipse cx="1020.3125" cy="69.397" fill="#0066CF" rx="10.4167" ry="10.4167" style="stroke:#0086EF;stroke-width:1.0416666666666667;"/><path d="M1022.2229,73.822 Q1021.7957,74.0417 1021.3257,74.1516 Q1020.8557,74.2615 1020.3369,74.2615 Q1018.4937,74.2615 1017.5232,73.0469 Q1016.5527,71.8323 1016.5527,69.5374 Q1016.5527,67.2363 1017.5232,66.0217 Q1018.4937,64.8071 1020.3369,64.8071 Q1020.8557,64.8071 1021.3318,64.917 Q1021.8079,65.0269 1022.2229,65.2466 L1022.2229,67.2485 Q1021.759,66.8213 1021.3226,66.6229 Q1020.8862,66.4246 1020.4224,66.4246 Q1019.4336,66.4246 1018.9301,67.2089 Q1018.4265,67.9932 1018.4265,69.5374 Q1018.4265,71.0754 1018.9301,71.8597 Q1019.4336,72.644 1020.4224,72.644 Q1020.8862,72.644 1021.3226,72.4457 Q1021.759,72.2473 1022.2229,71.8201 Z " fill="#000000"/><text fill="#D8BC00" font-family="Open Sans,Avenir,Nunito,Arial,Helvetica,SansSerif" font-size="12.5" font-weight="bold" lengthAdjust="spacing" textLength="94.7917" x="1036.9792" y="74.1211">OpaqueRegion</text><line style="stroke:#5E5E5E;stroke-width:1.0416666666666667;" x1="1006.7708" x2="1136.9792" y1="85.0911" y2="85.0911"/><line style="stroke:#5E5E5E;stroke-width:1.0416666666666667;" x1="1006.7708" x2="1136.9792" y1="93.4245" y2="93.4245"/><!--MD5=[11dfe95d5bdb8ee0499e03e59e8e0b10]
class KittenCaptchaPanel.PlacedAnimal--><rect codeLine="35" fill="#282828" height="83.3781" id="KittenCaptchaPanel.PlacedAnimal" rx="8.3333" ry="8.3333" style="stroke:#5E5E5E;stroke-width:1.0416666666666667;" width="187.5" x="7.2917" y="200.057"/><rect fill="#1B1B1A" height="31.3883" rx="8.3333" ry="8.3333" style="stroke:#1B1B1A;stroke-width:1.0416666666666667;" width="187.5" x="7.2917" y="200.057"/><rect fill="#1B1B1A" height="8.3333" style="stroke:#1B1B1A;stroke-width:1.0416666666666667;" width="187.5" x="7.2917" y="223.112"/><rect codeLine="35" fill="none" height="83.3781" id="KittenCaptchaPanel.PlacedAnimal" rx="8.3333" ry="8.3333" style="stroke:#5E5E5E;stroke-width:1.0416666666666667;" width="187.5" x="7.2917" y="200.057"/><ellipse cx="50.5208" cy="215.7511" fill="#0066CF" rx="10.4167" ry="10.4167" style="stroke:#0086EF;stroke-width:1.0416666666666667;"/><path d="M52.4312,220.1762 Q52.004,220.3959 51.534,220.5058 Q51.064,220.6156 50.5452,220.6156 Q48.702,220.6156 47.7315,219.401 Q46.7611,218.1864 46.7611,215.8915 Q46.7611,213.5905 47.7315,212.3759 Q48.702,211.1613 50.5452,211.1613 Q51.064,211.1613 51.5401,211.2712 Q52.0162,211.381 52.4312,211.6007 L52.4312,213.6027 Q51.9674,213.1755 51.531,212.9771 Q51.0946,212.7787 50.6307,212.7787 Q49.6419,212.7787 49.1384,213.563 Q48.6348,214.3473 48.6348,215.8915 Q48.6348,217.4296 49.1384,218.2139 Q49.6419,218.9982 50.6307,218.9982 Q51.0946,218.9982 51.531,218.7998 Q51.9674,218.6015 52.4312,218.1742 Z " fill="#000000"/><text fill="#D8BC00" font-family="Open Sans,Avenir,Nunito,Arial,Helvetica,SansSerif" font-size="12.5" font-weight="bold" lengthAdjust="spacing" textLength="86.4583" x="73.4375" y="220.4753">PlacedAnimal</text><line style="stroke:#5E5E5E;stroke-width:1.5625;" x1="8.3333" x2="193.75" y1="231.4453" y2="231.4453"/><ellipse cx="18.75" cy="266.8152" fill="#84BE84" rx="3.125" ry="3.125" style="stroke:#038048;stroke-width:1.0416666666666667;"/><text fill="#D8BC00" font-family="Open Sans,Avenir,Nunito,Arial,Helvetica,SansSerif" font-size="11.4583" lengthAdjust="spacing" textLength="155.2083" x="30.2083" y="273.7264">PlacedAnimal(Animal, Point)</text><line style="stroke:#5E5E5E;stroke-width:1.0416666666666667;" x1="8.3333" x2="57.2917" y1="249.6511" y2="249.6511"/><text fill="#D8BC00" font-family="Open Sans,Avenir,Nunito,Arial,Helvetica,SansSerif" font-size="11.4583" lengthAdjust="spacing" textLength="81.25" x="60.4167" y="253.4607">(constructors)</text><line style="stroke:#5E5E5E;stroke-width:1.0416666666666667;" x1="144.7917" x2="193.75" y1="249.6511" y2="249.6511"/><!--MD5=[05b3dfb75324b055f2a7369042065c92]
class KittenCaptchaPanel.PlacedAnimalList--><rect codeLine="42" fill="#282828" height="48.055" id="KittenCaptchaPanel.PlacedAnimalList" rx="8.3333" ry="8.3333" style="stroke:#5E5E5E;stroke-width:1.0416666666666667;" width="147.9167" x="231.25" y="217.7653"/><rect fill="#1B1B1A" height="31.3883" rx="8.3333" ry="8.3333" style="stroke:#1B1B1A;stroke-width:1.0416666666666667;" width="147.9167" x="231.25" y="217.7653"/><rect fill="#1B1B1A" height="8.3333" style="stroke:#1B1B1A;stroke-width:1.0416666666666667;" width="147.9167" x="231.25" y="240.8203"/><rect codeLine="42" fill="none" height="48.055" id="KittenCaptchaPanel.PlacedAnimalList" rx="8.3333" ry="8.3333" style="stroke:#5E5E5E;stroke-width:1.0416666666666667;" width="147.9167" x="231.25" y="217.7653"/><ellipse cx="245.8333" cy="233.4595" fill="#0066CF" rx="10.4167" ry="10.4167" style="stroke:#0086EF;stroke-width:1.0416666666666667;"/><path d="M247.7437,237.8845 Q247.3165,238.1042 246.8465,238.2141 Q246.3765,238.324 245.8577,238.324 Q244.0145,238.324 243.044,237.1094 Q242.0736,235.8948 242.0736,233.5999 Q242.0736,231.2988 243.044,230.0842 Q244.0145,228.8696 245.8577,228.8696 Q246.3765,228.8696 246.8526,228.9795 Q247.3287,229.0894 247.7437,229.3091 L247.7437,231.311 Q247.2799,230.8838 246.8435,230.6854 Q246.4071,230.4871 245.9432,230.4871 Q244.9544,230.4871 244.4509,231.2714 Q243.9473,232.0557 243.9473,233.5999 Q243.9473,235.1379 244.4509,235.9222 Q244.9544,236.7065 245.9432,236.7065 Q246.4071,236.7065 246.8435,236.5082 Q247.2799,236.3098 247.7437,235.8826 Z " fill="#000000"/><text fill="#D8BC00" font-family="Open Sans,Avenir,Nunito,Arial,Helvetica,SansSerif" font-size="12.5" font-weight="bold" lengthAdjust="spacing" textLength="110.4167" x="262.5" y="238.1836">PlacedAnimalList</text><line style="stroke:#5E5E5E;stroke-width:1.0416666666666667;" x1="232.2917" x2="378.125" y1="249.1536" y2="249.1536"/><line style="stroke:#5E5E5E;stroke-width:1.0416666666666667;" x1="232.2917" x2="378.125" y1="257.487" y2="257.487"/><!--MD5=[2d012f855450eb5ab391ca70e66ba527]
reverse link DynamicImageResource to KittenCaptchaPanel.CaptchaImageResource--><path codeLine="12" d="M545.8333,122.859 C545.8333,149.6403 545.8333,183.234 545.8333,207.6924 " fill="none" id="DynamicImageResource-backto-KittenCaptchaPanel.CaptchaImageResource" style="stroke:#545454;stroke-width:1.5625;"/><polygon fill="none" points="538.5417,122.7445,545.8333,101.9111,553.125,122.7445,538.5417,122.7445" style="stroke:#545454;stroke-width:1.5625;"/><!--MD5=[8c8a8bd33d604d3eb8ac2bc5550be71f]
reverse link Panel to KittenCaptchaPanel--><path codeLine="19" d="M933.3333,122.8382 C933.3333,135.5986 933.3333,149.9215 933.3333,164.057 " fill="none" id="Panel-backto-KittenCaptchaPanel" style="stroke:#545454;stroke-width:1.5625;"/><polygon fill="none" points="926.0417,122.7445,933.3333,101.9111,940.625,122.7445,926.0417,122.7445" style="stroke:#545454;stroke-width:1.5625;"/><!--MD5=[56bdafbaec8fb333fd497c73923628ef]
reverse link Serializable to KittenCaptchaPanel.PlacedAnimal--><path codeLine="34" d="M177.3542,119.5986 C161.8438,144.2028 142.1771,175.4111 126.6875,199.984 " fill="none" id="Serializable-backto-KittenCaptchaPanel.PlacedAnimal" style="stroke:#545454;stroke-width:1.5625;"/><polygon fill="none" points="171.2188,115.6507,188.5,101.9111,183.5625,123.4215,171.2188,115.6507" style="stroke:#545454;stroke-width:1.5625;"/><!--MD5=[b1ad6854244cfa3779d5c4b6bed92f72]
reverse link Serializable to KittenCaptchaPanel.PlacedAnimalList--><path codeLine="41" d="M228.9063,119.609 C248.4271,150.5882 274.5521,192.0361 290.6146,217.5153 " fill="none" id="Serializable-backto-KittenCaptchaPanel.PlacedAnimalList" style="stroke:#545454;stroke-width:1.5625;"/><polygon fill="none" points="222.6875,123.4215,217.75,101.9111,235.0313,115.6507,222.6875,123.4215" style="stroke:#545454;stroke-width:1.5625;"/><!--MD5=[041575818aa965d309a9888520bff928]
@startuml

    !include lexakai.theme
    
    title "org.apache.wicket.extensions.captcha.kittens"
    
    interface Serializable
    
    class KittenCaptchaPanel.Animal
    {
    }
    
    DynamicImageResource <|- - KittenCaptchaPanel.CaptchaImageResource
    class KittenCaptchaPanel.CaptchaImageResource
    {
        - -
        #void invalidate()
    }
    
    Panel <|- - KittenCaptchaPanel
    class KittenCaptchaPanel
    {
        - -(constructors)- -
        +KittenCaptchaPanel(String, Dimension)
        - -
        +boolean allKittensSelected()
        - -(lifecycle)- -
        +void reset()
    }
    
    class OpaqueRegion
    {
    }
    
    Serializable <|- - KittenCaptchaPanel.PlacedAnimal
    class KittenCaptchaPanel.PlacedAnimal
    {
        - -(constructors)- -
        +PlacedAnimal(Animal, Point)
    }
    
    Serializable <|- - KittenCaptchaPanel.PlacedAnimalList
    class KittenCaptchaPanel.PlacedAnimalList
    {
    }
    
@enduml

@startuml









skinparam backgroundColor #333333






skinparam  {
    defaultFontName   "Open Sans,Avenir,Nunito,Arial,Helvetica,SansSerif"
    defaultFontSize   12
    defaultTextAlignment left
    shadowing false
    RoundCorner 10
    TitleFontSize 18
}

skinparam defaultFontName       "Open Sans,Avenir,Nunito,Arial,Helvetica,SansSerif"
skinparam defaultFontSize       12
skinparam dpi                   100
skinparam shadowing             false
skinparam roundcorner           16
skinparam ParticipantPadding    40
skinparam BoxPadding            40
skinparam Padding               3
skinparam ArrowColor            #545454
skinparam stereotype {
    CBackgroundColor #0066cf
    CBorderColor #0086ef
    ABackgroundColor #C8Ac00
    ABorderColor #D8Bc00
    IBackgroundColor #008400
    IBorderColor #239c23
    EBackgroundColor #cf6300
    EBorderColor #ef8300
    NBackgroundColor #3380b9
    NBorderColor #004d86
}
skinparam title {
	FontColor	                 #c0c0c0
 	BorderColor                  #545454
	FontSize	    	         20
	BorderRoundCorner            16
	BorderThickness 	         1
	BackgroundColor              #48494b
}


skinparam legend {
	BackgroundColor #303030
	BorderColor #404040
	FontColor #a0a0a0
}

	skinparam swimlane {
	BorderColor #5e5e5e
	BorderThickness 2
	TitleBackgroundColor  #6d6d6d-#484848
	TitleFontColor #303030
}

skinparam activity {
		FontColor #C8Ac00
	BorderColor #333333
	BackgroundColor #333333-#333333
	BarColor #00FF00
	StartColor #0060a8
	EndColor #0060a8
	DiamondBackgroundColor #6d6d6d-#3a3a3a
  	DiamondBorderColor #3a3a3a
  	DiamondFontColor #fefefe
}


skinparam participant {
		FontColor #C8Ac00
	BorderColor #333333
	BackgroundColor #333333-#333333
	ParticipantBorderThickness 2
}


skinparam actor {
		FontColor #C8Ac00
	BorderColor #333333
	BackgroundColor #333333-#333333
}


skinparam arrow {
	Thickness 1.5
	Color #545454
	FontColor #a0a0a0
    FontStyle bold
    MessageAlignment center
}



skinparam sequence {
	BorderColor #303030
	TitleFontColor #303030
	BackgroundColor #333333
	StartColor #303030
	EndColor #303030
	BoxBackgroundColor #333333
	BoxBorderColor #484848
	BoxFontColor #484848
	LifeLineBorderColor #484848
	LifeLineBorderThickness 2
	LifeLineBackgroundColor #3a3a3a
	GroupBorderColor #484848
	GroupFontColor #484848
	GroupHeaderFontColor #0060a8
	GroupBackgroundColor #484848
	GroupHeaderBackgroundColor #333333
	DividerBackgroundColor #484848
    DividerBorderColor #484848
    DividerBorderThickness 2
    DividerFontColor #D8Bc00
	ReferenceBackgroundColor #333333
	ReferenceBorderColor #484848
	ReferenceFontColor #fefefe
	ReferenceHeaderBackgroundColor #484848
}


skinparam partition {
	BorderColor #303030
	FontColor #333333
	BackgroundColor #333333
}


skinparam collections {
		FontColor #C8Ac00
	BorderColor #333333
	BackgroundColor #333333-#333333
}


skinparam control {
		FontColor #C8Ac00
	BorderColor #333333
	BackgroundColor #333333-#333333
}


skinparam entity {
		FontColor #C8Ac00
	BorderColor #333333
	BackgroundColor #333333-#333333
}


skinparam boundary {
		FontColor #C8Ac00
	BorderColor #333333
	BackgroundColor #333333-#333333
}


skinparam agent {
	BackgroundColor #ff8000
	BorderColor #ff9933
	FontColor #484848
}


skinparam note {
	BorderThickness 1
	BackgroundColor #1b1b1a
	BorderColor #5e5e5e
	FontSize 11
	FontColor #a0a0a0
}


skinparam artifact {
	BorderThickness 10
	BorderColor #5e5e5e
	BackgroundColor #1b1b1a
	FontColor #D8Bc00
}


skinparam component {
		FontColor #C8Ac00
	BorderColor #333333
	BackgroundColor #333333-#333333
}


skinparam interface {
	BackgroundColor  #008400
	BorderColor  #007F00
	FontColor #484848
}


skinparam storage {
	BackgroundColor #ff8000
  	BorderColor #cc6600
	FontColor #222222
}


skinparam node {
	BackgroundColor #333333
	BorderColor #333333
	FontColor #C8Ac00
}


skinparam cloud {
	BackgroundColor #484848-black
	BorderColor #484848
	FontColor #D8Bc00
}


skinparam database {
		FontColor #C8Ac00
	BorderColor #333333
	BackgroundColor #333333-#333333
	BackgroundColor  #333333
}


skinparam class {
		FontColor #C8Ac00
	BorderColor #333333
	BackgroundColor #333333-#333333
	HeaderBackgroundColor #1b1b1a
    BackgroundColor #282828
    BorderColor #5e5e5e
 	StereotypeFontColor #a0a0a0
    StereotypeFontStyle bold
	BorderThickness 1
	AttributeFontColor #D8Bc00
	AttributeFontSize 11
    FontColor #D8Bc00
    FontStyle bold
}


skinparam object {
		FontColor #C8Ac00
	BorderColor #333333
	BackgroundColor #333333-#333333
	StereotypeFontColor #484848
	BorderThickness 1
	AttributeFontColor #fefefe
	AttributeFontSize 11
}


skinparam usecase {
		FontColor #C8Ac00
	BorderColor #333333
	BackgroundColor #333333-#333333
	BorderThickness 2
	StereotypeFontColor #303030
}


skinparam rectangle {
		FontColor #C8Ac00
	BorderColor #333333
	BackgroundColor #333333-#333333
	BackgroundColor #333333
	BorderThickness 2
	StereotypeFontColor #303030
}


skinparam package {
		FontColor #C8Ac00
	BorderColor #333333
	BackgroundColor #333333-#333333
	BackgroundColor #333333
	BorderThickness 2
}


skinparam folder {
	BackgroundColor #6d6d6d
  	BorderColor #ff8000
	FontColor #ff8000
	BorderThickness 2
}


skinparam frame {
	BackgroundColor #6d6d6d
  	BorderColor #0060a8
	FontColor #0060a8
	BorderThickness 2
}


skinparam state {
		FontColor #C8Ac00
	BorderColor #333333
	BackgroundColor #333333-#333333
	StartColor #0060a8
	EndColor #0060a8
	AttributeFontColor #fefefe
	AttributeFontSize 11
}


skinparam queue {
		FontColor #C8Ac00
	BorderColor #333333
	BackgroundColor #333333-#333333
}


skinparam card {
	BackgroundColor #0060a8
	BorderColor #004d86
	FontColor $INFO_TEXT
}


skinparam file {
	BackgroundColor #6d6d6d-#484848
	BorderColor #0060a8
	FontColor #fefefe
}


skinparam stack {
		FontColor #C8Ac00
	BorderColor #333333
	BackgroundColor #333333-#333333
}

    
    title "org.apache.wicket.extensions.captcha.kittens"
    
    interface Serializable
    
    class KittenCaptchaPanel.Animal
    {
    }
    
    DynamicImageResource <|- - KittenCaptchaPanel.CaptchaImageResource
    class KittenCaptchaPanel.CaptchaImageResource
    {
        - -
        #void invalidate()
    }
    
    Panel <|- - KittenCaptchaPanel
    class KittenCaptchaPanel
    {
        - -(constructors)- -
        +KittenCaptchaPanel(String, Dimension)
        - -
        +boolean allKittensSelected()
        - -(lifecycle)- -
        +void reset()
    }
    
    class OpaqueRegion
    {
    }
    
    Serializable <|- - KittenCaptchaPanel.PlacedAnimal
    class KittenCaptchaPanel.PlacedAnimal
    {
        - -(constructors)- -
        +PlacedAnimal(Animal, Point)
    }
    
    Serializable <|- - KittenCaptchaPanel.PlacedAnimalList
    class KittenCaptchaPanel.PlacedAnimalList
    {
    }
    
@enduml

PlantUML version 1.2021.01(Tue Feb 02 00:55:08 MST 2021)
(GPL source distribution)
Java Runtime: Java(TM) SE Runtime Environment
JVM: Java HotSpot(TM) 64-Bit Server VM
Default Encoding: UTF-8
Language: en
Country: US
--></g></svg>