<?xml version="1.0" encoding="UTF-8" standalone="no"?><svg xmlns="http://www.w3.org/2000/svg" xmlns:xlink="http://www.w3.org/1999/xlink" contentScriptType="application/ecmascript" contentStyleType="text/css" height="302.0833px" preserveAspectRatio="none" style="width:958px;height:302px;background:#333333;" version="1.1" viewBox="0 0 958 302" width="958.3333px" zoomAndPan="magnify"><defs/><g><rect fill="#48494B" height="41.2028" rx="8.3333" ry="8.3333" style="stroke:#545454;stroke-width:1.0416666666666667;" width="461.4583" x="241.4063" y="2.0833"/><text fill="#C0C0C0" font-family="Open Sans,Avenir,Nunito,Arial,Helvetica,SansSerif" font-size="20.8333" lengthAdjust="spacing" textLength="438.5417" x="252.8646" y="30.5583">org.apache.wicket.extensions.requestlogger</text><!--MD5=[143e7c5350973277ad1f059179565f98]
cluster JsonRequestLogger--><polygon fill="#333333" points="703.125,156.8278,841.6667,156.8278,848.9583,184.0495,939.5833,184.0495,939.5833,278.7028,703.125,278.7028,703.125,156.8278" style="stroke:#333333;stroke-width:2.0833333333333335;"/><line style="stroke:#333333;stroke-width:2.0833333333333335;" x1="703.125" x2="848.9583" y1="184.0495" y2="184.0495"/><text fill="#C8AC00" font-family="Open Sans,Avenir,Nunito,Arial,Helvetica,SansSerif" font-size="12.5" font-weight="bold" lengthAdjust="spacing" textLength="126.0417" x="710.4167" y="174.1211">JsonRequestLogger</text><!--MD5=[27da3a54fa8c57cd64bb404603e44874]
class JsonRequestLogger.FilteredIntrospector--><rect codeLine="11" fill="#282828" height="48.055" id="JsonRequestLogger.FilteredIntrospector" rx="8.3333" ry="8.3333" style="stroke:#5E5E5E;stroke-width:1.0416666666666667;" width="165.625" x="748.4375" y="205.7861"/><rect fill="#1B1B1A" height="31.3883" rx="8.3333" ry="8.3333" style="stroke:#1B1B1A;stroke-width:1.0416666666666667;" width="165.625" x="748.4375" y="205.7861"/><rect fill="#1B1B1A" height="8.3333" style="stroke:#1B1B1A;stroke-width:1.0416666666666667;" width="165.625" x="748.4375" y="228.8411"/><rect codeLine="11" fill="none" height="48.055" id="JsonRequestLogger.FilteredIntrospector" rx="8.3333" ry="8.3333" style="stroke:#5E5E5E;stroke-width:1.0416666666666667;" width="165.625" x="748.4375" y="205.7861"/><ellipse cx="763.0208" cy="221.4803" fill="#0066CF" rx="10.4167" ry="10.4167" style="stroke:#0086EF;stroke-width:1.0416666666666667;"/><path d="M764.9312,225.9054 Q764.504,226.1251 764.034,226.2349 Q763.564,226.3448 763.0452,226.3448 Q761.202,226.3448 760.2315,225.1302 Q759.2611,223.9156 759.2611,221.6207 Q759.2611,219.3197 760.2315,218.1051 Q761.202,216.8905 763.0452,216.8905 Q763.564,216.8905 764.0401,217.0003 Q764.5162,217.1102 764.9312,217.3299 L764.9312,219.3319 Q764.4674,218.9046 764.031,218.7063 Q763.5946,218.5079 763.1307,218.5079 Q762.1419,218.5079 761.6384,219.2922 Q761.1348,220.0765 761.1348,221.6207 Q761.1348,223.1588 761.6384,223.9431 Q762.1419,224.7274 763.1307,224.7274 Q763.5946,224.7274 764.031,224.529 Q764.4674,224.3306 764.9312,223.9034 Z " fill="#000000"/><text fill="#D8BC00" font-family="Open Sans,Avenir,Nunito,Arial,Helvetica,SansSerif" font-size="12.5" font-weight="bold" lengthAdjust="spacing" textLength="128.125" x="779.6875" y="226.2044">FilteredIntrospector</text><line style="stroke:#5E5E5E;stroke-width:1.0416666666666667;" x1="749.4792" x2="913.0208" y1="237.1745" y2="237.1745"/><line style="stroke:#5E5E5E;stroke-width:1.0416666666666667;" x1="749.4792" x2="913.0208" y1="245.5078" y2="245.5078"/><!--MD5=[55cf39d70a20eab63cb7c7ea7ed512fb]
class AbstractRequestLogger--><rect codeLine="6" fill="#282828" height="48.055" id="AbstractRequestLogger" rx="8.3333" ry="8.3333" style="stroke:#5E5E5E;stroke-width:1.0416666666666667;" width="188.5417" x="77.6042" y="53.7028"/><rect fill="#1B1B1A" height="31.3883" rx="8.3333" ry="8.3333" style="stroke:#1B1B1A;stroke-width:1.0416666666666667;" width="188.5417" x="77.6042" y="53.7028"/><rect fill="#1B1B1A" height="8.3333" style="stroke:#1B1B1A;stroke-width:1.0416666666666667;" width="188.5417" x="77.6042" y="76.7578"/><rect codeLine="6" fill="none" height="48.055" id="AbstractRequestLogger" rx="8.3333" ry="8.3333" style="stroke:#5E5E5E;stroke-width:1.0416666666666667;" width="188.5417" x="77.6042" y="53.7028"/><ellipse cx="92.1875" cy="69.397" fill="#C8AC00" rx="10.4167" ry="10.4167" style="stroke:#D8BC00;stroke-width:1.0416666666666667;"/><path d="M91.7806,66.099 L90.9322,69.8283 L92.6351,69.8283 Z M90.682,64.4511 L92.8853,64.4511 L95.3451,73.5636 L93.5445,73.5636 L92.983,71.3114 L90.5721,71.3114 L90.0228,73.5636 L88.2222,73.5636 Z " fill="#000000"/><text fill="#D8BC00" font-family="Open Sans,Avenir,Nunito,Arial,Helvetica,SansSerif" font-size="12.5" font-style="italic" font-weight="bold" lengthAdjust="spacing" textLength="151.0417" x="108.8542" y="74.1211">AbstractRequestLogger</text><line style="stroke:#5E5E5E;stroke-width:1.0416666666666667;" x1="78.6458" x2="265.1042" y1="85.0911" y2="85.0911"/><line style="stroke:#5E5E5E;stroke-width:1.0416666666666667;" x1="78.6458" x2="265.1042" y1="93.4245" y2="93.4245"/><!--MD5=[cc3de0a176daa3c4ec875deafdf5ddd1]
class Serializable--><rect codeLine="8" fill="#282828" height="48.055" id="Serializable" rx="8.3333" ry="8.3333" style="stroke:#5E5E5E;stroke-width:1.0416666666666667;" width="111.4583" x="467.1875" y="53.7028"/><rect fill="#1B1B1A" height="31.3883" rx="8.3333" ry="8.3333" style="stroke:#1B1B1A;stroke-width:1.0416666666666667;" width="111.4583" x="467.1875" y="53.7028"/><rect fill="#1B1B1A" height="8.3333" style="stroke:#1B1B1A;stroke-width:1.0416666666666667;" width="111.4583" x="467.1875" y="76.7578"/><rect codeLine="8" fill="none" height="48.055" id="Serializable" rx="8.3333" ry="8.3333" style="stroke:#5E5E5E;stroke-width:1.0416666666666667;" width="111.4583" x="467.1875" y="53.7028"/><ellipse cx="481.7708" cy="69.397" fill="#008400" rx="10.4167" ry="10.4167" style="stroke:#239C23;stroke-width:1.0416666666666667;"/><path d="M479.1748,66.5588 L479.1748,64.9719 L484.6008,64.9719 L484.6008,66.5588 L482.7881,66.5588 L482.7881,72.4976 L484.6008,72.4976 L484.6008,74.0845 L479.1748,74.0845 L479.1748,72.4976 L480.9875,72.4976 L480.9875,66.5588 Z " fill="#000000"/><text fill="#D8BC00" font-family="Open Sans,Avenir,Nunito,Arial,Helvetica,SansSerif" font-size="12.5" font-style="italic" font-weight="bold" lengthAdjust="spacing" textLength="73.9583" x="498.4375" y="74.1211">Serializable</text><line style="stroke:#5E5E5E;stroke-width:1.0416666666666667;" x1="468.2292" x2="577.6042" y1="85.0911" y2="85.0911"/><line style="stroke:#5E5E5E;stroke-width:1.0416666666666667;" x1="468.2292" x2="577.6042" y1="93.4245" y2="93.4245"/><!--MD5=[1cf33441286292b97c8c888e754feaf6]
class JacksonAnnotationIntrospector--><rect fill="#282828" height="48.055" id="JacksonAnnotationIntrospector" rx="8.3333" ry="8.3333" style="stroke:#5E5E5E;stroke-width:1.0416666666666667;" width="240.625" x="710.9375" y="53.7028"/><rect fill="#1B1B1A" height="31.3883" rx="8.3333" ry="8.3333" style="stroke:#1B1B1A;stroke-width:1.0416666666666667;" width="240.625" x="710.9375" y="53.7028"/><rect fill="#1B1B1A" height="8.3333" style="stroke:#1B1B1A;stroke-width:1.0416666666666667;" width="240.625" x="710.9375" y="76.7578"/><rect fill="none" height="48.055" id="JacksonAnnotationIntrospector" rx="8.3333" ry="8.3333" style="stroke:#5E5E5E;stroke-width:1.0416666666666667;" width="240.625" x="710.9375" y="53.7028"/><ellipse cx="725.5208" cy="69.397" fill="#0066CF" rx="10.4167" ry="10.4167" style="stroke:#0086EF;stroke-width:1.0416666666666667;"/><path d="M727.4312,73.822 Q727.004,74.0417 726.534,74.1516 Q726.064,74.2615 725.5452,74.2615 Q723.702,74.2615 722.7315,73.0469 Q721.7611,71.8323 721.7611,69.5374 Q721.7611,67.2363 722.7315,66.0217 Q723.702,64.8071 725.5452,64.8071 Q726.064,64.8071 726.5401,64.917 Q727.0162,65.0269 727.4312,65.2466 L727.4312,67.2485 Q726.9674,66.8213 726.531,66.6229 Q726.0946,66.4246 725.6307,66.4246 Q724.6419,66.4246 724.1384,67.2089 Q723.6348,67.9932 723.6348,69.5374 Q723.6348,71.0754 724.1384,71.8597 Q724.6419,72.644 725.6307,72.644 Q726.0946,72.644 726.531,72.4457 Q726.9674,72.2473 727.4312,71.8201 Z " fill="#000000"/><text fill="#D8BC00" font-family="Open Sans,Avenir,Nunito,Arial,Helvetica,SansSerif" font-size="12.5" font-weight="bold" lengthAdjust="spacing" textLength="203.125" x="742.1875" y="74.1211">JacksonAnnotationIntrospector</text><line style="stroke:#5E5E5E;stroke-width:1.0416666666666667;" x1="711.9792" x2="950.5208" y1="85.0911" y2="85.0911"/><line style="stroke:#5E5E5E;stroke-width:1.0416666666666667;" x1="711.9792" x2="950.5208" y1="93.4245" y2="93.4245"/><!--MD5=[399b08ed670c3a8f80a7a9d2902ff9fa]
class JsonRequestLogger--><rect codeLine="16" fill="#282828" height="131.2012" id="JsonRequestLogger" rx="8.3333" ry="8.3333" style="stroke:#5E5E5E;stroke-width:1.0416666666666667;" width="325" x="9.375" y="164.1195"/><rect fill="#1B1B1A" height="31.3883" rx="8.3333" ry="8.3333" style="stroke:#1B1B1A;stroke-width:1.0416666666666667;" width="325" x="9.375" y="164.1195"/><rect fill="#1B1B1A" height="8.3333" style="stroke:#1B1B1A;stroke-width:1.0416666666666667;" width="325" x="9.375" y="187.1745"/><rect codeLine="16" fill="none" height="131.2012" id="JsonRequestLogger" rx="8.3333" ry="8.3333" style="stroke:#5E5E5E;stroke-width:1.0416666666666667;" width="325" x="9.375" y="164.1195"/><ellipse cx="101.5625" cy="179.8136" fill="#0066CF" rx="10.4167" ry="10.4167" style="stroke:#0086EF;stroke-width:1.0416666666666667;"/><path d="M103.4729,184.2387 Q103.0457,184.4584 102.5757,184.5683 Q102.1057,184.6781 101.5869,184.6781 Q99.7437,184.6781 98.7732,183.4635 Q97.8027,182.2489 97.8027,179.954 Q97.8027,177.653 98.7732,176.4384 Q99.7437,175.2238 101.5869,175.2238 Q102.1057,175.2238 102.5818,175.3337 Q103.0579,175.4435 103.4729,175.6632 L103.4729,177.6652 Q103.009,177.238 102.5726,177.0396 Q102.1362,176.8412 101.6724,176.8412 Q100.6836,176.8412 100.1801,177.6255 Q99.6765,178.4098 99.6765,179.954 Q99.6765,181.4921 100.1801,182.2764 Q100.6836,183.0607 101.6724,183.0607 Q102.1362,183.0607 102.5726,182.8623 Q103.009,182.664 103.4729,182.2367 Z " fill="#000000"/><text fill="#D8BC00" font-family="Open Sans,Avenir,Nunito,Arial,Helvetica,SansSerif" font-size="12.5" font-weight="bold" lengthAdjust="spacing" textLength="126.0417" x="124.4792" y="184.5378">JsonRequestLogger</text><line style="stroke:#5E5E5E;stroke-width:1.5625;" x1="10.4167" x2="333.3333" y1="195.5078" y2="195.5078"/><ellipse cx="20.8333" cy="230.8777" fill="#84BE84" rx="3.125" ry="3.125" style="stroke:#038048;stroke-width:1.0416666666666667;"/><text fill="#D8BC00" font-family="Open Sans,Avenir,Nunito,Arial,Helvetica,SansSerif" font-size="11.4583" lengthAdjust="spacing" textLength="116.6667" x="32.2917" y="237.7889">JsonRequestLogger()</text><line style="stroke:#5E5E5E;stroke-width:1.0416666666666667;" x1="10.4167" x2="128.125" y1="213.7136" y2="213.7136"/><text fill="#D8BC00" font-family="Open Sans,Avenir,Nunito,Arial,Helvetica,SansSerif" font-size="11.4583" lengthAdjust="spacing" textLength="81.25" x="131.25" y="217.5232">(constructors)</text><line style="stroke:#5E5E5E;stroke-width:1.0416666666666667;" x1="215.625" x2="333.3333" y1="213.7136" y2="213.7136"/><line style="stroke:#5E5E5E;stroke-width:1.0416666666666667;" x1="10.4167" x2="333.3333" y1="247.4976" y2="247.4976"/><polygon fill="#FFFF44" points="20.8333,253.7476,25,257.9142,20.8333,262.0809,16.6667,257.9142" style="stroke:#B38D22;stroke-width:1.0416666666666667;"/><text fill="#D8BC00" font-family="Open Sans,Avenir,Nunito,Arial,Helvetica,SansSerif" font-size="11.4583" lengthAdjust="spacing" textLength="292.7083" x="32.2917" y="265.8671">String getLogString(RequestData rd, SessionData sd)</text><polygon fill="#FFFF44" points="20.8333,273.4924,25,277.6591,20.8333,281.8258,16.6667,277.6591" style="stroke:#B38D22;stroke-width:1.0416666666666667;"/><text fill="#D8BC00" font-family="Open Sans,Avenir,Nunito,Arial,Helvetica,SansSerif" font-size="11.4583" lengthAdjust="spacing" textLength="148.9583" x="32.2917" y="285.612">ObjectMapper getMapper()</text><!--MD5=[f2c57264f9090f090e236b5df7fb3dcc]
class JsonRequestLogger.RequestSessionTuple--><rect codeLine="26" fill="#282828" height="131.2012" id="JsonRequestLogger.RequestSessionTuple" rx="8.3333" ry="8.3333" style="stroke:#5E5E5E;stroke-width:1.0416666666666667;" width="303.125" x="371.3542" y="164.1195"/><rect fill="#1B1B1A" height="31.3883" rx="8.3333" ry="8.3333" style="stroke:#1B1B1A;stroke-width:1.0416666666666667;" width="303.125" x="371.3542" y="164.1195"/><rect fill="#1B1B1A" height="8.3333" style="stroke:#1B1B1A;stroke-width:1.0416666666666667;" width="303.125" x="371.3542" y="187.1745"/><rect codeLine="26" fill="none" height="131.2012" id="JsonRequestLogger.RequestSessionTuple" rx="8.3333" ry="8.3333" style="stroke:#5E5E5E;stroke-width:1.0416666666666667;" width="303.125" x="371.3542" y="164.1195"/><ellipse cx="446.3542" cy="179.8136" fill="#0066CF" rx="10.4167" ry="10.4167" style="stroke:#0086EF;stroke-width:1.0416666666666667;"/><path d="M448.2646,184.2387 Q447.8373,184.4584 447.3674,184.5683 Q446.8974,184.6781 446.3786,184.6781 Q444.5353,184.6781 443.5649,183.4635 Q442.5944,182.2489 442.5944,179.954 Q442.5944,177.653 443.5649,176.4384 Q444.5353,175.2238 446.3786,175.2238 Q446.8974,175.2238 447.3735,175.3337 Q447.8495,175.4435 448.2646,175.6632 L448.2646,177.6652 Q447.8007,177.238 447.3643,177.0396 Q446.9279,176.8412 446.464,176.8412 Q445.4753,176.8412 444.9717,177.6255 Q444.4682,178.4098 444.4682,179.954 Q444.4682,181.4921 444.9717,182.2764 Q445.4753,183.0607 446.464,183.0607 Q446.9279,183.0607 447.3643,182.8623 Q447.8007,182.664 448.2646,182.2367 Z " fill="#000000"/><text fill="#D8BC00" font-family="Open Sans,Avenir,Nunito,Arial,Helvetica,SansSerif" font-size="12.5" font-weight="bold" lengthAdjust="spacing" textLength="138.5417" x="469.2708" y="184.5378">RequestSessionTuple</text><line style="stroke:#5E5E5E;stroke-width:1.5625;" x1="372.3958" x2="673.4375" y1="195.5078" y2="195.5078"/><ellipse cx="382.8125" cy="230.8777" fill="#84BE84" rx="3.125" ry="3.125" style="stroke:#038048;stroke-width:1.0416666666666667;"/><text fill="#D8BC00" font-family="Open Sans,Avenir,Nunito,Arial,Helvetica,SansSerif" font-size="11.4583" lengthAdjust="spacing" textLength="270.8333" x="394.2708" y="237.7889">RequestSessionTuple(RequestData, SessionData)</text><line style="stroke:#5E5E5E;stroke-width:1.0416666666666667;" x1="372.3958" x2="479.1667" y1="213.7136" y2="213.7136"/><text fill="#D8BC00" font-family="Open Sans,Avenir,Nunito,Arial,Helvetica,SansSerif" font-size="11.4583" lengthAdjust="spacing" textLength="81.25" x="482.2917" y="217.5232">(constructors)</text><line style="stroke:#5E5E5E;stroke-width:1.0416666666666667;" x1="566.6667" x2="673.4375" y1="213.7136" y2="213.7136"/><line style="stroke:#5E5E5E;stroke-width:1.0416666666666667;" x1="372.3958" x2="673.4375" y1="247.4976" y2="247.4976"/><ellipse cx="382.8125" cy="258.9559" fill="#84BE84" rx="3.125" ry="3.125" style="stroke:#038048;stroke-width:1.0416666666666667;"/><text fill="#D8BC00" font-family="Open Sans,Avenir,Nunito,Arial,Helvetica,SansSerif" font-size="11.4583" lengthAdjust="spacing" textLength="143.75" x="394.2708" y="265.8671">RequestData getRequest()</text><ellipse cx="382.8125" cy="278.7008" fill="#84BE84" rx="3.125" ry="3.125" style="stroke:#038048;stroke-width:1.0416666666666667;"/><text fill="#D8BC00" font-family="Open Sans,Avenir,Nunito,Arial,Helvetica,SansSerif" font-size="11.4583" lengthAdjust="spacing" textLength="139.5833" x="394.2708" y="285.612">SessionData getSession()</text><!--MD5=[2b8e074b9db6b46e7f4ad4b6fc245a51]
reverse link JacksonAnnotationIntrospector to JsonRequestLogger.FilteredIntrospector--><path codeLine="10" d="M831.25,123.0049 C831.25,149.984 831.25,183.3799 831.25,205.3174 " fill="none" id="JacksonAnnotationIntrospector-backto-JsonRequestLogger.FilteredIntrospector" style="stroke:#545454;stroke-width:1.5625;"/><polygon fill="none" points="823.9583,122.6403,831.25,101.807,838.5417,122.6403,823.9583,122.6403" style="stroke:#545454;stroke-width:1.5625;"/><!--MD5=[f423c10535eebd908b61684488f368fc]
reverse link AbstractRequestLogger to JsonRequestLogger--><path codeLine="15" d="M171.875,122.9945 C171.875,135.8695 171.875,150.2132 171.875,164.0674 " fill="none" id="AbstractRequestLogger-backto-JsonRequestLogger" style="stroke:#545454;stroke-width:1.5625;"/><polygon fill="none" points="164.5833,122.6403,171.875,101.807,179.1667,122.6403,164.5833,122.6403" style="stroke:#545454;stroke-width:1.5625;"/><!--MD5=[bfdb75c80d749dd6474f5378dc4b91e7]
reverse link Serializable to JsonRequestLogger.RequestSessionTuple--><path codeLine="25" d="M522.9167,122.9945 C522.9167,135.8695 522.9167,150.2132 522.9167,164.0674 " fill="none" id="Serializable-backto-JsonRequestLogger.RequestSessionTuple" style="stroke:#545454;stroke-width:1.5625;"/><polygon fill="none" points="515.625,122.6403,522.9167,101.807,530.2083,122.6403,515.625,122.6403" style="stroke:#545454;stroke-width:1.5625;"/><!--MD5=[617b8e0f783520669f4331bb8d31d338]
@startuml

    !include lexakai.theme
    
    title "org.apache.wicket.extensions.requestlogger"
    
    abstract AbstractRequestLogger
    
    interface Serializable
    
    JacksonAnnotationIntrospector <|- - JsonRequestLogger.FilteredIntrospector
    class JsonRequestLogger.FilteredIntrospector
    {
    }
    
    AbstractRequestLogger <|- - JsonRequestLogger
    class JsonRequestLogger
    {
        - -(constructors)- -
        +JsonRequestLogger()
        - -
        #String getLogString(RequestData rd, SessionData sd)
        #ObjectMapper getMapper()
    }
    
    Serializable <|- - JsonRequestLogger.RequestSessionTuple
    class JsonRequestLogger.RequestSessionTuple
    {
        - -(constructors)- -
        +RequestSessionTuple(RequestData, SessionData)
        - -
        +RequestData getRequest()
        +SessionData getSession()
    }
    
@enduml

@startuml









skinparam backgroundColor #333333






skinparam  {
    defaultFontName   "Open Sans,Avenir,Nunito,Arial,Helvetica,SansSerif"
    defaultFontSize   12
    defaultTextAlignment left
    shadowing false
    RoundCorner 10
    TitleFontSize 18
}

skinparam defaultFontName       "Open Sans,Avenir,Nunito,Arial,Helvetica,SansSerif"
skinparam defaultFontSize       12
skinparam dpi                   100
skinparam shadowing             false
skinparam roundcorner           16
skinparam ParticipantPadding    40
skinparam BoxPadding            40
skinparam Padding               3
skinparam ArrowColor            #545454
skinparam stereotype {
    CBackgroundColor #0066cf
    CBorderColor #0086ef
    ABackgroundColor #C8Ac00
    ABorderColor #D8Bc00
    IBackgroundColor #008400
    IBorderColor #239c23
    EBackgroundColor #cf6300
    EBorderColor #ef8300
    NBackgroundColor #3380b9
    NBorderColor #004d86
}
skinparam title {
	FontColor	                 #c0c0c0
 	BorderColor                  #545454
	FontSize	    	         20
	BorderRoundCorner            16
	BorderThickness 	         1
	BackgroundColor              #48494b
}


skinparam legend {
	BackgroundColor #303030
	BorderColor #404040
	FontColor #a0a0a0
}

	skinparam swimlane {
	BorderColor #5e5e5e
	BorderThickness 2
	TitleBackgroundColor  #6d6d6d-#484848
	TitleFontColor #303030
}

skinparam activity {
		FontColor #C8Ac00
	BorderColor #333333
	BackgroundColor #333333-#333333
	BarColor #00FF00
	StartColor #0060a8
	EndColor #0060a8
	DiamondBackgroundColor #6d6d6d-#3a3a3a
  	DiamondBorderColor #3a3a3a
  	DiamondFontColor #fefefe
}


skinparam participant {
		FontColor #C8Ac00
	BorderColor #333333
	BackgroundColor #333333-#333333
	ParticipantBorderThickness 2
}


skinparam actor {
		FontColor #C8Ac00
	BorderColor #333333
	BackgroundColor #333333-#333333
}


skinparam arrow {
	Thickness 1.5
	Color #545454
	FontColor #a0a0a0
    FontStyle bold
    MessageAlignment center
}



skinparam sequence {
	BorderColor #303030
	TitleFontColor #303030
	BackgroundColor #333333
	StartColor #303030
	EndColor #303030
	BoxBackgroundColor #333333
	BoxBorderColor #484848
	BoxFontColor #484848
	LifeLineBorderColor #484848
	LifeLineBorderThickness 2
	LifeLineBackgroundColor #3a3a3a
	GroupBorderColor #484848
	GroupFontColor #484848
	GroupHeaderFontColor #0060a8
	GroupBackgroundColor #484848
	GroupHeaderBackgroundColor #333333
	DividerBackgroundColor #484848
    DividerBorderColor #484848
    DividerBorderThickness 2
    DividerFontColor #D8Bc00
	ReferenceBackgroundColor #333333
	ReferenceBorderColor #484848
	ReferenceFontColor #fefefe
	ReferenceHeaderBackgroundColor #484848
}


skinparam partition {
	BorderColor #303030
	FontColor #333333
	BackgroundColor #333333
}


skinparam collections {
		FontColor #C8Ac00
	BorderColor #333333
	BackgroundColor #333333-#333333
}


skinparam control {
		FontColor #C8Ac00
	BorderColor #333333
	BackgroundColor #333333-#333333
}


skinparam entity {
		FontColor #C8Ac00
	BorderColor #333333
	BackgroundColor #333333-#333333
}


skinparam boundary {
		FontColor #C8Ac00
	BorderColor #333333
	BackgroundColor #333333-#333333
}


skinparam agent {
	BackgroundColor #ff8000
	BorderColor #ff9933
	FontColor #484848
}


skinparam note {
	BorderThickness 1
	BackgroundColor #1b1b1a
	BorderColor #5e5e5e
	FontSize 11
	FontColor #a0a0a0
}


skinparam artifact {
	BorderThickness 10
	BorderColor #5e5e5e
	BackgroundColor #1b1b1a
	FontColor #D8Bc00
}


skinparam component {
		FontColor #C8Ac00
	BorderColor #333333
	BackgroundColor #333333-#333333
}


skinparam interface {
	BackgroundColor  #008400
	BorderColor  #007F00
	FontColor #484848
}


skinparam storage {
	BackgroundColor #ff8000
  	BorderColor #cc6600
	FontColor #222222
}


skinparam node {
	BackgroundColor #333333
	BorderColor #333333
	FontColor #C8Ac00
}


skinparam cloud {
	BackgroundColor #484848-black
	BorderColor #484848
	FontColor #D8Bc00
}


skinparam database {
		FontColor #C8Ac00
	BorderColor #333333
	BackgroundColor #333333-#333333
	BackgroundColor  #333333
}


skinparam class {
		FontColor #C8Ac00
	BorderColor #333333
	BackgroundColor #333333-#333333
	HeaderBackgroundColor #1b1b1a
    BackgroundColor #282828
    BorderColor #5e5e5e
 	StereotypeFontColor #a0a0a0
    StereotypeFontStyle bold
	BorderThickness 1
	AttributeFontColor #D8Bc00
	AttributeFontSize 11
    FontColor #D8Bc00
    FontStyle bold
}


skinparam object {
		FontColor #C8Ac00
	BorderColor #333333
	BackgroundColor #333333-#333333
	StereotypeFontColor #484848
	BorderThickness 1
	AttributeFontColor #fefefe
	AttributeFontSize 11
}


skinparam usecase {
		FontColor #C8Ac00
	BorderColor #333333
	BackgroundColor #333333-#333333
	BorderThickness 2
	StereotypeFontColor #303030
}


skinparam rectangle {
		FontColor #C8Ac00
	BorderColor #333333
	BackgroundColor #333333-#333333
	BackgroundColor #333333
	BorderThickness 2
	StereotypeFontColor #303030
}


skinparam package {
		FontColor #C8Ac00
	BorderColor #333333
	BackgroundColor #333333-#333333
	BackgroundColor #333333
	BorderThickness 2
}


skinparam folder {
	BackgroundColor #6d6d6d
  	BorderColor #ff8000
	FontColor #ff8000
	BorderThickness 2
}


skinparam frame {
	BackgroundColor #6d6d6d
  	BorderColor #0060a8
	FontColor #0060a8
	BorderThickness 2
}


skinparam state {
		FontColor #C8Ac00
	BorderColor #333333
	BackgroundColor #333333-#333333
	StartColor #0060a8
	EndColor #0060a8
	AttributeFontColor #fefefe
	AttributeFontSize 11
}


skinparam queue {
		FontColor #C8Ac00
	BorderColor #333333
	BackgroundColor #333333-#333333
}


skinparam card {
	BackgroundColor #0060a8
	BorderColor #004d86
	FontColor $INFO_TEXT
}


skinparam file {
	BackgroundColor #6d6d6d-#484848
	BorderColor #0060a8
	FontColor #fefefe
}


skinparam stack {
		FontColor #C8Ac00
	BorderColor #333333
	BackgroundColor #333333-#333333
}

    
    title "org.apache.wicket.extensions.requestlogger"
    
    abstract AbstractRequestLogger
    
    interface Serializable
    
    JacksonAnnotationIntrospector <|- - JsonRequestLogger.FilteredIntrospector
    class JsonRequestLogger.FilteredIntrospector
    {
    }
    
    AbstractRequestLogger <|- - JsonRequestLogger
    class JsonRequestLogger
    {
        - -(constructors)- -
        +JsonRequestLogger()
        - -
        #String getLogString(RequestData rd, SessionData sd)
        #ObjectMapper getMapper()
    }
    
    Serializable <|- - JsonRequestLogger.RequestSessionTuple
    class JsonRequestLogger.RequestSessionTuple
    {
        - -(constructors)- -
        +RequestSessionTuple(RequestData, SessionData)
        - -
        +RequestData getRequest()
        +SessionData getSession()
    }
    
@enduml

PlantUML version 1.2021.01(Tue Feb 02 00:55:08 MST 2021)
(GPL source distribution)
Java Runtime: Java(TM) SE Runtime Environment
JVM: Java HotSpot(TM) 64-Bit Server VM
Default Encoding: UTF-8
Language: en
Country: US
--></g></svg>