<?xml version="1.0" encoding="UTF-8" standalone="no"?><svg xmlns="http://www.w3.org/2000/svg" xmlns:xlink="http://www.w3.org/1999/xlink" contentScriptType="application/ecmascript" contentStyleType="text/css" height="318.75px" preserveAspectRatio="none" style="width:2229px;height:318px;background:#333333;" version="1.1" viewBox="0 0 2229 318" width="2229.1667px" zoomAndPan="magnify"><defs/><g><rect fill="#48494B" height="41.2028" rx="8.3333" ry="8.3333" style="stroke:#545454;stroke-width:1.0416666666666667;" width="172.9167" x="1021.0938" y="2.0833"/><text fill="#C0C0C0" font-family="Open Sans,Avenir,Nunito,Arial,Helvetica,SansSerif" font-size="20.8333" lengthAdjust="spacing" textLength="150" x="1032.5521" y="30.5583">wicket-metrics</text><!--MD5=[83364df2ff47e8d52fd75af27391e023]
entity openjson--><rect fill="#1B1B1A" height="44.93" rx="8.3333" ry="8.3333" style="stroke:#5E5E5E;stroke-width:1.5625;" width="92.7083" x="422.9167" y="160.9945"/><polygon fill="#1B1B1A" points="497.9167,166.2028,497.9167,180.7861,510.4167,180.7861,510.4167,172.4528,504.1667,166.2028,497.9167,166.2028" style="stroke:#5E5E5E;stroke-width:1.5625;"/><line style="stroke:#5E5E5E;stroke-width:1.5625;" x1="504.1667" x2="504.1667" y1="166.2028" y2="172.4528"/><line style="stroke:#5E5E5E;stroke-width:1.5625;" x1="510.4167" x2="504.1667" y1="172.4528" y2="172.4528"/><text fill="#D8BC00" font-family="Open Sans,Avenir,Nunito,Arial,Helvetica,SansSerif" font-size="12.5" lengthAdjust="spacing" textLength="55.2083" x="436.4583" y="189.7461">openjson</text><!--MD5=[b8642f4d11f39d368691e95658a70571]
entity commons_fileupload--><rect fill="#1B1B1A" height="44.93" rx="8.3333" ry="8.3333" style="stroke:#5E5E5E;stroke-width:1.5625;" width="160.4167" x="513.0208" y="268.2861"/><polygon fill="#1B1B1A" points="655.7292,273.4945,655.7292,288.0778,668.2292,288.0778,668.2292,279.7445,661.9792,273.4945,655.7292,273.4945" style="stroke:#5E5E5E;stroke-width:1.5625;"/><line style="stroke:#5E5E5E;stroke-width:1.5625;" x1="661.9792" x2="661.9792" y1="273.4945" y2="279.7445"/><line style="stroke:#5E5E5E;stroke-width:1.5625;" x1="668.2292" x2="661.9792" y1="279.7445" y2="279.7445"/><text fill="#D8BC00" font-family="Open Sans,Avenir,Nunito,Arial,Helvetica,SansSerif" font-size="12.5" lengthAdjust="spacing" textLength="122.9167" x="526.5625" y="297.0378">commons_fileupload</text><!--MD5=[26b411a1b4c483916c801c7aad1add62]
entity commons_io--><rect fill="#1B1B1A" height="44.93" rx="8.3333" ry="8.3333" style="stroke:#5E5E5E;stroke-width:1.5625;" width="111.4583" x="710.4167" y="268.2861"/><polygon fill="#1B1B1A" points="804.1667,273.4945,804.1667,288.0778,816.6667,288.0778,816.6667,279.7445,810.4167,273.4945,804.1667,273.4945" style="stroke:#5E5E5E;stroke-width:1.5625;"/><line style="stroke:#5E5E5E;stroke-width:1.5625;" x1="810.4167" x2="810.4167" y1="273.4945" y2="279.7445"/><line style="stroke:#5E5E5E;stroke-width:1.5625;" x1="816.6667" x2="810.4167" y1="279.7445" y2="279.7445"/><text fill="#D8BC00" font-family="Open Sans,Avenir,Nunito,Arial,Helvetica,SansSerif" font-size="12.5" lengthAdjust="spacing" textLength="73.9583" x="723.9583" y="297.0378">commons_io</text><!--MD5=[a5d77f771c2d714f4a28cddd2192d7e8]
entity metrics_core--><rect fill="#1B1B1A" height="44.93" rx="8.3333" ry="8.3333" style="stroke:#5E5E5E;stroke-width:1.5625;" width="113.5417" x="7.2917" y="53.7028"/><polygon fill="#1B1B1A" points="103.125,58.9111,103.125,73.4945,115.625,73.4945,115.625,65.1611,109.375,58.9111,103.125,58.9111" style="stroke:#5E5E5E;stroke-width:1.5625;"/><line style="stroke:#5E5E5E;stroke-width:1.5625;" x1="109.375" x2="109.375" y1="58.9111" y2="65.1611"/><line style="stroke:#5E5E5E;stroke-width:1.5625;" x1="115.625" x2="109.375" y1="65.1611" y2="65.1611"/><text fill="#D8BC00" font-family="Open Sans,Avenir,Nunito,Arial,Helvetica,SansSerif" font-size="12.5" lengthAdjust="spacing" textLength="76.0417" x="20.8333" y="82.4544">metrics_core</text><!--MD5=[14014aca29bd200de177b81cf218d3a1]
entity metrics_jmx--><rect fill="#1B1B1A" height="44.93" rx="8.3333" ry="8.3333" style="stroke:#5E5E5E;stroke-width:1.5625;" width="110.4167" x="157.8125" y="53.7028"/><polygon fill="#1B1B1A" points="250.5208,58.9111,250.5208,73.4945,263.0208,73.4945,263.0208,65.1611,256.7708,58.9111,250.5208,58.9111" style="stroke:#5E5E5E;stroke-width:1.5625;"/><line style="stroke:#5E5E5E;stroke-width:1.5625;" x1="256.7708" x2="256.7708" y1="58.9111" y2="65.1611"/><line style="stroke:#5E5E5E;stroke-width:1.5625;" x1="263.0208" x2="256.7708" y1="65.1611" y2="65.1611"/><text fill="#D8BC00" font-family="Open Sans,Avenir,Nunito,Arial,Helvetica,SansSerif" font-size="12.5" lengthAdjust="spacing" textLength="72.9167" x="171.3542" y="82.4544">metrics_jmx</text><!--MD5=[88a18b84af72aac0baa747f98e10bd90]
entity jakarta_servlet_api--><rect fill="#1B1B1A" height="44.93" rx="8.3333" ry="8.3333" style="stroke:#5E5E5E;stroke-width:1.5625;" width="151.0417" x="305.2083" y="53.7028"/><polygon fill="#1B1B1A" points="438.5417,58.9111,438.5417,73.4945,451.0417,73.4945,451.0417,65.1611,444.7917,58.9111,438.5417,58.9111" style="stroke:#5E5E5E;stroke-width:1.5625;"/><line style="stroke:#5E5E5E;stroke-width:1.5625;" x1="444.7917" x2="444.7917" y1="58.9111" y2="65.1611"/><line style="stroke:#5E5E5E;stroke-width:1.5625;" x1="451.0417" x2="444.7917" y1="65.1611" y2="65.1611"/><text fill="#D8BC00" font-family="Open Sans,Avenir,Nunito,Arial,Helvetica,SansSerif" font-size="12.5" lengthAdjust="spacing" textLength="113.5417" x="318.75" y="82.4544">jakarta_servlet_api</text><!--MD5=[907dfa26722c2bcd0e79bfb32775d5c3]
entity log4j--><rect fill="#1B1B1A" height="44.93" rx="8.3333" ry="8.3333" style="stroke:#5E5E5E;stroke-width:1.5625;" width="67.7083" x="1085.4167" y="160.9945"/><polygon fill="#1B1B1A" points="1135.4167,166.2028,1135.4167,180.7861,1147.9167,180.7861,1147.9167,172.4528,1141.6667,166.2028,1135.4167,166.2028" style="stroke:#5E5E5E;stroke-width:1.5625;"/><line style="stroke:#5E5E5E;stroke-width:1.5625;" x1="1141.6667" x2="1141.6667" y1="166.2028" y2="172.4528"/><line style="stroke:#5E5E5E;stroke-width:1.5625;" x1="1147.9167" x2="1141.6667" y1="172.4528" y2="172.4528"/><text fill="#D8BC00" font-family="Open Sans,Avenir,Nunito,Arial,Helvetica,SansSerif" font-size="12.5" lengthAdjust="spacing" textLength="30.2083" x="1098.9583" y="189.7461">log4j</text><!--MD5=[4ff87df6ca00ec4715fce5605f10cfb8]
entity byte_buddy_agent--><rect fill="#1B1B1A" height="44.93" rx="8.3333" ry="8.3333" style="stroke:#5E5E5E;stroke-width:1.5625;" width="147.9167" x="1190.1042" y="160.9945"/><polygon fill="#1B1B1A" points="1320.3125,166.2028,1320.3125,180.7861,1332.8125,180.7861,1332.8125,172.4528,1326.5625,166.2028,1320.3125,166.2028" style="stroke:#5E5E5E;stroke-width:1.5625;"/><line style="stroke:#5E5E5E;stroke-width:1.5625;" x1="1326.5625" x2="1326.5625" y1="166.2028" y2="172.4528"/><line style="stroke:#5E5E5E;stroke-width:1.5625;" x1="1332.8125" x2="1326.5625" y1="172.4528" y2="172.4528"/><text fill="#D8BC00" font-family="Open Sans,Avenir,Nunito,Arial,Helvetica,SansSerif" font-size="12.5" lengthAdjust="spacing" textLength="110.4167" x="1203.6458" y="189.7461">byte_buddy_agent</text><!--MD5=[4b7412f65198b4c52d4b80fff6e833ea]
entity byte_buddy--><rect fill="#1B1B1A" height="44.93" rx="8.3333" ry="8.3333" style="stroke:#5E5E5E;stroke-width:1.5625;" width="108.3333" x="1374.4792" y="160.9945"/><polygon fill="#1B1B1A" points="1465.1042,166.2028,1465.1042,180.7861,1477.6042,180.7861,1477.6042,172.4528,1471.3542,166.2028,1465.1042,166.2028" style="stroke:#5E5E5E;stroke-width:1.5625;"/><line style="stroke:#5E5E5E;stroke-width:1.5625;" x1="1471.3542" x2="1471.3542" y1="166.2028" y2="172.4528"/><line style="stroke:#5E5E5E;stroke-width:1.5625;" x1="1477.6042" x2="1471.3542" y1="172.4528" y2="172.4528"/><text fill="#D8BC00" font-family="Open Sans,Avenir,Nunito,Arial,Helvetica,SansSerif" font-size="12.5" lengthAdjust="spacing" textLength="70.8333" x="1388.0208" y="189.7461">byte_buddy</text><!--MD5=[798a9de1932ba9fd78d52168f99e5e87]
entity commons_collections4--><rect fill="#1B1B1A" height="44.93" rx="8.3333" ry="8.3333" style="stroke:#5E5E5E;stroke-width:1.5625;" width="170.8333" x="858.8542" y="268.2861"/><polygon fill="#1B1B1A" points="1011.9792,273.4945,1011.9792,288.0778,1024.4792,288.0778,1024.4792,279.7445,1018.2292,273.4945,1011.9792,273.4945" style="stroke:#5E5E5E;stroke-width:1.5625;"/><line style="stroke:#5E5E5E;stroke-width:1.5625;" x1="1018.2292" x2="1018.2292" y1="273.4945" y2="279.7445"/><line style="stroke:#5E5E5E;stroke-width:1.5625;" x1="1024.4792" x2="1018.2292" y1="279.7445" y2="279.7445"/><text fill="#D8BC00" font-family="Open Sans,Avenir,Nunito,Arial,Helvetica,SansSerif" font-size="12.5" lengthAdjust="spacing" textLength="133.3333" x="872.3958" y="297.0378">commons_collections4</text><!--MD5=[1d1f5c096c11f31d2ecce961a8a5207b]
entity wicket_core--><rect fill="#1B1B1A" height="44.93" rx="8.3333" ry="8.3333" style="stroke:#5E5E5E;stroke-width:1.5625;" width="107.2917" x="637.5" y="53.7028"/><polygon fill="#1B1B1A" points="727.0833,58.9111,727.0833,73.4945,739.5833,73.4945,739.5833,65.1611,733.3333,58.9111,727.0833,58.9111" style="stroke:#5E5E5E;stroke-width:1.5625;"/><line style="stroke:#5E5E5E;stroke-width:1.5625;" x1="733.3333" x2="733.3333" y1="58.9111" y2="65.1611"/><line style="stroke:#5E5E5E;stroke-width:1.5625;" x1="739.5833" x2="733.3333" y1="65.1611" y2="65.1611"/><text fill="#D8BC00" font-family="Open Sans,Avenir,Nunito,Arial,Helvetica,SansSerif" font-size="12.5" lengthAdjust="spacing" textLength="69.7917" x="651.0417" y="82.4544">wicket_core</text><!--MD5=[2773ab4f61ea46894756c769c8075295]
entity wicket_request--><rect fill="#1B1B1A" height="44.93" rx="8.3333" ry="8.3333" style="stroke:#5E5E5E;stroke-width:1.5625;" width="127.0833" x="552.6042" y="160.9945"/><polygon fill="#1B1B1A" points="661.9792,166.2028,661.9792,180.7861,674.4792,180.7861,674.4792,172.4528,668.2292,166.2028,661.9792,166.2028" style="stroke:#5E5E5E;stroke-width:1.5625;"/><line style="stroke:#5E5E5E;stroke-width:1.5625;" x1="668.2292" x2="668.2292" y1="166.2028" y2="172.4528"/><line style="stroke:#5E5E5E;stroke-width:1.5625;" x1="674.4792" x2="668.2292" y1="172.4528" y2="172.4528"/><text fill="#D8BC00" font-family="Open Sans,Avenir,Nunito,Arial,Helvetica,SansSerif" font-size="12.5" lengthAdjust="spacing" textLength="89.5833" x="566.1458" y="189.7461">wicket_request</text><!--MD5=[3ac1d6494a45af2432a9a4f3438247e5]
entity wicket_util--><rect fill="#1B1B1A" height="44.93" rx="8.3333" ry="8.3333" style="stroke:#5E5E5E;stroke-width:1.5625;" width="98.9583" x="716.6667" y="160.9945"/><polygon fill="#1B1B1A" points="797.9167,166.2028,797.9167,180.7861,810.4167,180.7861,810.4167,172.4528,804.1667,166.2028,797.9167,166.2028" style="stroke:#5E5E5E;stroke-width:1.5625;"/><line style="stroke:#5E5E5E;stroke-width:1.5625;" x1="804.1667" x2="804.1667" y1="166.2028" y2="172.4528"/><line style="stroke:#5E5E5E;stroke-width:1.5625;" x1="810.4167" x2="804.1667" y1="172.4528" y2="172.4528"/><text fill="#D8BC00" font-family="Open Sans,Avenir,Nunito,Arial,Helvetica,SansSerif" font-size="12.5" lengthAdjust="spacing" textLength="61.4583" x="730.2083" y="189.7461">wicket_util</text><!--MD5=[9ca5736865ad522015f112acaf757dc2]
entity apiguardian_api--><rect fill="#1B1B1A" height="44.93" rx="8.3333" ry="8.3333" style="stroke:#5E5E5E;stroke-width:1.5625;" width="134.375" x="1651.0417" y="160.9945"/><polygon fill="#1B1B1A" points="1767.7083,166.2028,1767.7083,180.7861,1780.2083,180.7861,1780.2083,172.4528,1773.9583,166.2028,1767.7083,166.2028" style="stroke:#5E5E5E;stroke-width:1.5625;"/><line style="stroke:#5E5E5E;stroke-width:1.5625;" x1="1773.9583" x2="1773.9583" y1="166.2028" y2="172.4528"/><line style="stroke:#5E5E5E;stroke-width:1.5625;" x1="1780.2083" x2="1773.9583" y1="172.4528" y2="172.4528"/><text fill="#D8BC00" font-family="Open Sans,Avenir,Nunito,Arial,Helvetica,SansSerif" font-size="12.5" lengthAdjust="spacing" textLength="96.875" x="1664.5833" y="189.7461">apiguardian_api</text><!--MD5=[7dc0a5f42babae69782c436e40ff3776]
entity aspectjrt--><rect fill="#1B1B1A" height="44.93" rx="8.3333" ry="8.3333" style="stroke:#5E5E5E;stroke-width:1.5625;" width="90.625" x="18.75" y="160.9945"/><polygon fill="#1B1B1A" points="91.6667,166.2028,91.6667,180.7861,104.1667,180.7861,104.1667,172.4528,97.9167,166.2028,91.6667,166.2028" style="stroke:#5E5E5E;stroke-width:1.5625;"/><line style="stroke:#5E5E5E;stroke-width:1.5625;" x1="97.9167" x2="97.9167" y1="166.2028" y2="172.4528"/><line style="stroke:#5E5E5E;stroke-width:1.5625;" x1="104.1667" x2="97.9167" y1="172.4528" y2="172.4528"/><text fill="#D8BC00" font-family="Open Sans,Avenir,Nunito,Arial,Helvetica,SansSerif" font-size="12.5" lengthAdjust="spacing" textLength="53.125" x="32.2917" y="189.7461">aspectjrt</text><!--MD5=[36160172b96c05987554ef5157bd1d99]
entity jdk_serializable_functional--><rect fill="#1B1B1A" height="44.93" rx="8.3333" ry="8.3333" style="stroke:#5E5E5E;stroke-width:1.5625;" width="195.8333" x="852.6042" y="160.9945"/><polygon fill="#1B1B1A" points="1030.7292,166.2028,1030.7292,180.7861,1043.2292,180.7861,1043.2292,172.4528,1036.9792,166.2028,1030.7292,166.2028" style="stroke:#5E5E5E;stroke-width:1.5625;"/><line style="stroke:#5E5E5E;stroke-width:1.5625;" x1="1036.9792" x2="1036.9792" y1="166.2028" y2="172.4528"/><line style="stroke:#5E5E5E;stroke-width:1.5625;" x1="1043.2292" x2="1036.9792" y1="172.4528" y2="172.4528"/><text fill="#D8BC00" font-family="Open Sans,Avenir,Nunito,Arial,Helvetica,SansSerif" font-size="12.5" lengthAdjust="spacing" textLength="158.3333" x="866.1458" y="189.7461">jdk_serializable_functional</text><!--MD5=[67ea71966aa57e3ddf5b1acb79bd106c]
entity junit_jupiter_api--><rect fill="#1B1B1A" height="44.93" rx="8.3333" ry="8.3333" style="stroke:#5E5E5E;stroke-width:1.5625;" width="134.375" x="1821.875" y="160.9945"/><polygon fill="#1B1B1A" points="1938.5417,166.2028,1938.5417,180.7861,1951.0417,180.7861,1951.0417,172.4528,1944.7917,166.2028,1938.5417,166.2028" style="stroke:#5E5E5E;stroke-width:1.5625;"/><line style="stroke:#5E5E5E;stroke-width:1.5625;" x1="1944.7917" x2="1944.7917" y1="166.2028" y2="172.4528"/><line style="stroke:#5E5E5E;stroke-width:1.5625;" x1="1951.0417" x2="1944.7917" y1="172.4528" y2="172.4528"/><text fill="#D8BC00" font-family="Open Sans,Avenir,Nunito,Arial,Helvetica,SansSerif" font-size="12.5" lengthAdjust="spacing" textLength="96.875" x="1835.4167" y="189.7461">junit_jupiter_api</text><!--MD5=[def59a02e843c50310240afbb884053d]
entity junit_jupiter_engine--><rect fill="#1B1B1A" height="44.93" rx="8.3333" ry="8.3333" style="stroke:#5E5E5E;stroke-width:1.5625;" width="155.2083" x="1811.4583" y="53.7028"/><polygon fill="#1B1B1A" points="1948.9583,58.9111,1948.9583,73.4945,1961.4583,73.4945,1961.4583,65.1611,1955.2083,58.9111,1948.9583,58.9111" style="stroke:#5E5E5E;stroke-width:1.5625;"/><line style="stroke:#5E5E5E;stroke-width:1.5625;" x1="1955.2083" x2="1955.2083" y1="58.9111" y2="65.1611"/><line style="stroke:#5E5E5E;stroke-width:1.5625;" x1="1961.4583" x2="1955.2083" y1="65.1611" y2="65.1611"/><text fill="#D8BC00" font-family="Open Sans,Avenir,Nunito,Arial,Helvetica,SansSerif" font-size="12.5" lengthAdjust="spacing" textLength="117.7083" x="1825" y="82.4544">junit_jupiter_engine</text><!--MD5=[16ac86175dbfd8781882e642bc1db0bb]
entity junit_platform_commons--><rect fill="#1B1B1A" height="44.93" rx="8.3333" ry="8.3333" style="stroke:#5E5E5E;stroke-width:1.5625;" width="184.375" x="1893.75" y="268.2861"/><polygon fill="#1B1B1A" points="2060.4167,273.4945,2060.4167,288.0778,2072.9167,288.0778,2072.9167,279.7445,2066.6667,273.4945,2060.4167,273.4945" style="stroke:#5E5E5E;stroke-width:1.5625;"/><line style="stroke:#5E5E5E;stroke-width:1.5625;" x1="2066.6667" x2="2066.6667" y1="273.4945" y2="279.7445"/><line style="stroke:#5E5E5E;stroke-width:1.5625;" x1="2072.9167" x2="2066.6667" y1="279.7445" y2="279.7445"/><text fill="#D8BC00" font-family="Open Sans,Avenir,Nunito,Arial,Helvetica,SansSerif" font-size="12.5" lengthAdjust="spacing" textLength="146.875" x="1907.2917" y="297.0378">junit_platform_commons</text><!--MD5=[c94fa6fb52256b56717125d5f4ed3cc6]
entity junit_platform_engine--><rect fill="#1B1B1A" height="44.93" rx="8.3333" ry="8.3333" style="stroke:#5E5E5E;stroke-width:1.5625;" width="166.6667" x="1993.2292" y="160.9945"/><polygon fill="#1B1B1A" points="2142.1875,166.2028,2142.1875,180.7861,2154.6875,180.7861,2154.6875,172.4528,2148.4375,166.2028,2142.1875,166.2028" style="stroke:#5E5E5E;stroke-width:1.5625;"/><line style="stroke:#5E5E5E;stroke-width:1.5625;" x1="2148.4375" x2="2148.4375" y1="166.2028" y2="172.4528"/><line style="stroke:#5E5E5E;stroke-width:1.5625;" x1="2154.6875" x2="2148.4375" y1="172.4528" y2="172.4528"/><text fill="#D8BC00" font-family="Open Sans,Avenir,Nunito,Arial,Helvetica,SansSerif" font-size="12.5" lengthAdjust="spacing" textLength="129.1667" x="2006.7708" y="189.7461">junit_platform_engine</text><!--MD5=[a68d3636c404b547973d4378239fa3aa]
entity mockito_core--><rect fill="#1B1B1A" height="44.93" rx="8.3333" ry="8.3333" style="stroke:#5E5E5E;stroke-width:1.5625;" width="116.6667" x="1370.3125" y="53.7028"/><polygon fill="#1B1B1A" points="1469.2708,58.9111,1469.2708,73.4945,1481.7708,73.4945,1481.7708,65.1611,1475.5208,58.9111,1469.2708,58.9111" style="stroke:#5E5E5E;stroke-width:1.5625;"/><line style="stroke:#5E5E5E;stroke-width:1.5625;" x1="1475.5208" x2="1475.5208" y1="58.9111" y2="65.1611"/><line style="stroke:#5E5E5E;stroke-width:1.5625;" x1="1481.7708" x2="1475.5208" y1="65.1611" y2="65.1611"/><text fill="#D8BC00" font-family="Open Sans,Avenir,Nunito,Arial,Helvetica,SansSerif" font-size="12.5" lengthAdjust="spacing" textLength="79.1667" x="1383.8542" y="82.4544">mockito_core</text><!--MD5=[b3c862d1486667ad9c7edef6529b2202]
entity objenesis--><rect fill="#1B1B1A" height="44.93" rx="8.3333" ry="8.3333" style="stroke:#5E5E5E;stroke-width:1.5625;" width="94.7917" x="1519.7917" y="160.9945"/><polygon fill="#1B1B1A" points="1596.875,166.2028,1596.875,180.7861,1609.375,180.7861,1609.375,172.4528,1603.125,166.2028,1596.875,166.2028" style="stroke:#5E5E5E;stroke-width:1.5625;"/><line style="stroke:#5E5E5E;stroke-width:1.5625;" x1="1603.125" x2="1603.125" y1="166.2028" y2="172.4528"/><line style="stroke:#5E5E5E;stroke-width:1.5625;" x1="1609.375" x2="1603.125" y1="172.4528" y2="172.4528"/><text fill="#D8BC00" font-family="Open Sans,Avenir,Nunito,Arial,Helvetica,SansSerif" font-size="12.5" lengthAdjust="spacing" textLength="57.2917" x="1533.3333" y="189.7461">objenesis</text><!--MD5=[ba030213f11f5a3d5b319bb69903d2f9]
entity opentest4j--><rect fill="#1B1B1A" height="44.93" rx="8.3333" ry="8.3333" style="stroke:#5E5E5E;stroke-width:1.5625;" width="102.0833" x="2115.1042" y="268.2861"/><polygon fill="#1B1B1A" points="2199.4792,273.4945,2199.4792,288.0778,2211.9792,288.0778,2211.9792,279.7445,2205.7292,273.4945,2199.4792,273.4945" style="stroke:#5E5E5E;stroke-width:1.5625;"/><line style="stroke:#5E5E5E;stroke-width:1.5625;" x1="2205.7292" x2="2205.7292" y1="273.4945" y2="279.7445"/><line style="stroke:#5E5E5E;stroke-width:1.5625;" x1="2211.9792" x2="2205.7292" y1="279.7445" y2="279.7445"/><text fill="#D8BC00" font-family="Open Sans,Avenir,Nunito,Arial,Helvetica,SansSerif" font-size="12.5" lengthAdjust="spacing" textLength="64.5833" x="2128.6458" y="297.0378">opentest4j</text><!--MD5=[2158cadba960fc97c965ca71cca36298]
entity jcl_over_slf4j--><rect fill="#1B1B1A" height="44.93" rx="8.3333" ry="8.3333" style="stroke:#5E5E5E;stroke-width:1.5625;" width="115.625" x="145.8333" y="160.9945"/><polygon fill="#1B1B1A" points="243.75,166.2028,243.75,180.7861,256.25,180.7861,256.25,172.4528,250,166.2028,243.75,166.2028" style="stroke:#5E5E5E;stroke-width:1.5625;"/><line style="stroke:#5E5E5E;stroke-width:1.5625;" x1="250" x2="250" y1="166.2028" y2="172.4528"/><line style="stroke:#5E5E5E;stroke-width:1.5625;" x1="256.25" x2="250" y1="172.4528" y2="172.4528"/><text fill="#D8BC00" font-family="Open Sans,Avenir,Nunito,Arial,Helvetica,SansSerif" font-size="12.5" lengthAdjust="spacing" textLength="78.125" x="159.375" y="189.7461">jcl_over_slf4j</text><!--MD5=[44b0a2e1eacfc27a1dd91401467b1b24]
entity slf4j_api--><rect fill="#1B1B1A" height="44.93" rx="8.3333" ry="8.3333" style="stroke:#5E5E5E;stroke-width:1.5625;" width="88.5417" x="297.9167" y="160.9945"/><polygon fill="#1B1B1A" points="368.75,166.2028,368.75,180.7861,381.25,180.7861,381.25,172.4528,375,166.2028,368.75,166.2028" style="stroke:#5E5E5E;stroke-width:1.5625;"/><line style="stroke:#5E5E5E;stroke-width:1.5625;" x1="375" x2="375" y1="166.2028" y2="172.4528"/><line style="stroke:#5E5E5E;stroke-width:1.5625;" x1="381.25" x2="375" y1="172.4528" y2="172.4528"/><text fill="#D8BC00" font-family="Open Sans,Avenir,Nunito,Arial,Helvetica,SansSerif" font-size="12.5" lengthAdjust="spacing" textLength="51.0417" x="311.4583" y="189.7461">slf4j_api</text><!--MD5=[7fbee5ae74c8dd4ba8120faa50c8c743]
entity slf4j_log4j12--><rect fill="#1B1B1A" height="44.93" rx="8.3333" ry="8.3333" style="stroke:#5E5E5E;stroke-width:1.5625;" width="116.6667" x="1060.9375" y="53.7028"/><polygon fill="#1B1B1A" points="1159.8958,58.9111,1159.8958,73.4945,1172.3958,73.4945,1172.3958,65.1611,1166.1458,58.9111,1159.8958,58.9111" style="stroke:#5E5E5E;stroke-width:1.5625;"/><line style="stroke:#5E5E5E;stroke-width:1.5625;" x1="1166.1458" x2="1166.1458" y1="58.9111" y2="65.1611"/><line style="stroke:#5E5E5E;stroke-width:1.5625;" x1="1172.3958" x2="1166.1458" y1="65.1611" y2="65.1611"/><text fill="#D8BC00" font-family="Open Sans,Avenir,Nunito,Arial,Helvetica,SansSerif" font-size="12.5" lengthAdjust="spacing" textLength="79.1667" x="1074.4792" y="82.4544">slf4j_log4j12</text><!--MD5=[387791ceefa6e7ac0048e0d5370dea72]
link junit_jupiter_engine to apiguardian_api--><path d="M1854.0833,98.682 C1826.0938,115.9215 1786.8646,140.0778 1757.75,158.0153 " fill="none" id="junit_jupiter_engine-to-apiguardian_api" style="stroke:#545454;stroke-width:1.5625;"/><polygon fill="#545454" points="1753.1667,160.8382,1763.336,159.4829,1757.6049,158.1127,1758.9751,152.3817,1753.1667,160.8382" style="stroke:#545454;stroke-width:1.5625;"/><!--MD5=[f4b72d10a6cfe7a8a93ab847947f7423]
link junit_jupiter_engine to junit_jupiter_api--><path d="M1889.0625,98.9424 C1889.0625,115.4111 1889.0625,138.109 1889.0625,155.6611 " fill="none" id="junit_jupiter_engine-to-junit_jupiter_api" style="stroke:#545454;stroke-width:1.5625;"/><polygon fill="#545454" points="1889.0625,160.9424,1893.2292,151.5674,1889.0625,155.734,1884.8958,151.5674,1889.0625,160.9424" style="stroke:#545454;stroke-width:1.5625;"/><!--MD5=[06eb6ab5d989baa08de92dee96f24dd7]
link junit_jupiter_engine to junit_platform_engine--><path d="M1927.4583,98.682 C1958.3021,115.984 2001.5833,140.2757 2033.5833,158.234 " fill="none" id="junit_jupiter_engine-to-junit_platform_engine" style="stroke:#545454;stroke-width:1.5625;"/><polygon fill="#545454" points="2038.2188,160.8382,2032.0994,152.6038,2033.6821,158.2798,2028.006,159.8625,2038.2188,160.8382" style="stroke:#545454;stroke-width:1.5625;"/><!--MD5=[ae5ab7164155f4fc79ebb3185a9c5d1c]
link junit_platform_engine to junit_platform_commons--><path d="M2057.7813,206.234 C2043.3542,222.984 2023.375,246.182 2008.1458,263.859 " fill="none" id="junit_platform_engine-to-junit_platform_commons" style="stroke:#545454;stroke-width:1.5625;"/><polygon fill="#545454" points="2004.3854,268.234,2013.6678,263.865,2007.7908,264.2933,2007.3626,258.4163,2004.3854,268.234" style="stroke:#545454;stroke-width:1.5625;"/><!--MD5=[8a9b5fbf88ccec267ebeca0685c2396a]
link junit_platform_engine to opentest4j--><path d="M2095.125,206.234 C2109.3958,222.984 2129.1458,246.182 2144.1979,263.859 " fill="none" id="junit_platform_engine-to-opentest4j" style="stroke:#545454;stroke-width:1.5625;"/><polygon fill="#545454" points="2147.9167,268.234,2145.0186,258.3926,2144.5431,264.266,2138.6697,263.7904,2147.9167,268.234" style="stroke:#545454;stroke-width:1.5625;"/><!--MD5=[ed4318ea9be3443a979b37d4f3399abc]
link mockito_core to byte_buddy--><path d="M1428.6458,98.9424 C1428.6458,115.4111 1428.6458,138.109 1428.6458,155.6611 " fill="none" id="mockito_core-to-byte_buddy" style="stroke:#545454;stroke-width:1.5625;"/><polygon fill="#545454" points="1428.6458,160.9424,1432.8125,151.5674,1428.6458,155.734,1424.4792,151.5674,1428.6458,160.9424" style="stroke:#545454;stroke-width:1.5625;"/><!--MD5=[ca166302077c6e1468853e13a25b2a92]
link mockito_core to byte_buddy_agent--><path d="M1394.9479,98.682 C1367.9792,115.9215 1330.1875,140.0778 1302.1354,158.0153 " fill="none" id="mockito_core-to-byte_buddy_agent" style="stroke:#545454;stroke-width:1.5625;"/><polygon fill="#545454" points="1297.7188,160.8382,1307.8604,159.2892,1302.1042,158.0285,1303.3649,152.2724,1297.7188,160.8382" style="stroke:#545454;stroke-width:1.5625;"/><!--MD5=[eff02feeff1f5c6fac4f7dcff0627abc]
link mockito_core to objenesis--><path d="M1457.0208,98.682 C1479.5208,115.7757 1511,139.682 1534.5521,157.5674 " fill="none" id="mockito_core-to-objenesis" style="stroke:#545454;stroke-width:1.5625;"/><polygon fill="#545454" points="1538.8542,160.8382,1533.9261,151.8401,1534.7127,157.6799,1528.8728,158.4665,1538.8542,160.8382" style="stroke:#545454;stroke-width:1.5625;"/><!--MD5=[546b0a91a22de90019b2ba1c617f48bd]
link slf4j_log4j12 to log4j--><path d="M1119.2708,98.9424 C1119.2708,115.4111 1119.2708,138.109 1119.2708,155.6611 " fill="none" id="slf4j_log4j12-to-log4j" style="stroke:#545454;stroke-width:1.5625;"/><polygon fill="#545454" points="1119.2708,160.9424,1123.4375,151.5674,1119.2708,155.734,1115.1042,151.5674,1119.2708,160.9424" style="stroke:#545454;stroke-width:1.5625;"/><!--MD5=[dc36b239700aa6686811ce309cbe934a]
link wicket_core to jdk_serializable_functional--><path d="M743.9479,98.557 C787.1667,116.0882 848.1979,140.8486 892.7188,158.9007 " fill="none" id="wicket_core-to-jdk_serializable_functional" style="stroke:#545454;stroke-width:1.5625;"/><polygon fill="#545454" points="897.7917,160.9632,890.6816,153.5673,892.9683,158.9981,887.5375,161.2848,897.7917,160.9632" style="stroke:#545454;stroke-width:1.5625;"/><!--MD5=[daa80ab011d61c32df9a875df4862374]
link wicket_core to openjson--><path d="M645.9792,98.557 C609.2396,115.984 557.4271,140.5465 519.4063,158.5778 " fill="none" id="wicket_core-to-openjson" style="stroke:#545454;stroke-width:1.5625;"/><polygon fill="#545454" points="514.375,160.9632,524.6313,160.7197,519.0829,158.7355,521.067,153.1871,514.375,160.9632" style="stroke:#545454;stroke-width:1.5625;"/><!--MD5=[0e84bfe14f25425d2935f9d6ab96c635]
link wicket_core to wicket_request--><path d="M675.6042,98.9424 C663.6563,115.6924 647.125,138.8903 634.5208,156.5674 " fill="none" id="wicket_core-to-wicket_request" style="stroke:#545454;stroke-width:1.5625;"/><polygon fill="#545454" points="631.4063,160.9424,640.239,155.7237,634.4279,156.7002,633.4514,150.8891,631.4063,160.9424" style="stroke:#545454;stroke-width:1.5625;"/><!--MD5=[954cb058695ba1aa4b21e9f88b759e90]
link wicket_core to wicket_util--><path d="M706.6875,98.9424 C718.6354,115.6924 735.1667,138.8903 747.7708,156.5674 " fill="none" id="wicket_core-to-wicket_util" style="stroke:#545454;stroke-width:1.5625;"/><polygon fill="#545454" points="750.8854,160.9424,748.8402,150.8891,747.8638,156.7002,742.0527,155.7237,750.8854,160.9424" style="stroke:#545454;stroke-width:1.5625;"/><!--MD5=[fd484b9bbd7d72f648347b8c2c1c0a52]
link wicket_util to commons_collections4--><path d="M802.625,205.9736 C831.8021,223.2132 872.7083,247.3695 903.0625,265.307 " fill="none" id="wicket_util-to-commons_collections4" style="stroke:#545454;stroke-width:1.5625;"/><polygon fill="#545454" points="907.8438,268.1299,901.8951,259.7714,903.3606,265.4787,897.6533,266.9443,907.8438,268.1299" style="stroke:#545454;stroke-width:1.5625;"/><!--MD5=[04bdba72622389e960a9e360895b6314]
link wicket_util to commons_fileupload--><path d="M730.7396,205.9736 C702.4167,223.2132 662.6979,247.3695 633.2292,265.307 " fill="none" id="wicket_util-to-commons_fileupload" style="stroke:#545454;stroke-width:1.5625;"/><polygon fill="#545454" points="628.5938,268.1299,638.7683,266.8145,633.0427,265.4218,634.4354,259.6962,628.5938,268.1299" style="stroke:#545454;stroke-width:1.5625;"/><!--MD5=[42393529676ae9aeba5f8fc3a130e5ac]
link wicket_util to commons_io--><path d="M766.1458,206.234 C766.1458,222.7028 766.1458,245.4007 766.1458,262.9528 " fill="none" id="wicket_util-to-commons_io" style="stroke:#545454;stroke-width:1.5625;"/><polygon fill="#545454" points="766.1458,268.234,770.3125,258.859,766.1458,263.0257,761.9792,258.859,766.1458,268.234" style="stroke:#545454;stroke-width:1.5625;"/><!--MD5=[62e9e05c7f0dc63010f0680a82b0d5ee]
link metrics_core to metrics_jmx--><!--MD5=[e535a30fc32d0e2b90301abfffbcc378]
link metrics_jmx to jakarta_servlet_api--><!--MD5=[5bd848b0a8397caecd095207bf9182a6]
link metrics_core to aspectjrt--><!--MD5=[9f4ce65a441b16dbb2ef6f4cb91515ec]
link aspectjrt to jcl_over_slf4j--><!--MD5=[a12350f401ee911773c8d1ced77c1754]
link jcl_over_slf4j to slf4j_api--><!--MD5=[102863b999d4fe2916e033aba0ae84dd]
@startuml

    !include lexakai.theme
    
    title "wicket-metrics"
    
    artifact openjson
    artifact commons_fileupload
    artifact commons_io
    artifact metrics_core
    artifact metrics_jmx
    artifact jakarta_servlet_api
    artifact log4j
    artifact byte_buddy_agent
    artifact byte_buddy
    artifact commons_collections4
    artifact wicket_core
    artifact wicket_request
    artifact wicket_util
    artifact apiguardian_api
    artifact aspectjrt
    artifact jdk_serializable_functional
    artifact junit_jupiter_api
    artifact junit_jupiter_engine
    artifact junit_platform_commons
    artifact junit_platform_engine
    artifact mockito_core
    artifact objenesis
    artifact opentest4j
    artifact jcl_over_slf4j
    artifact slf4j_api
    artifact slf4j_log4j12
    junit_jupiter_engine - -> apiguardian_api
    junit_jupiter_engine - -> junit_jupiter_api
    junit_jupiter_engine - -> junit_platform_engine
    junit_platform_engine - -> junit_platform_commons
    junit_platform_engine - -> opentest4j
    mockito_core - -> byte_buddy
    mockito_core - -> byte_buddy_agent
    mockito_core - -> objenesis
    slf4j_log4j12 - -> log4j
    wicket_core - -> jdk_serializable_functional
    wicket_core - -> openjson
    wicket_core - -> wicket_request
    wicket_core - -> wicket_util
    wicket_util - -> commons_collections4
    wicket_util - -> commons_fileupload
    wicket_util - -> commons_io
    
@enduml

@startuml









skinparam backgroundColor #333333






skinparam  {
    defaultFontName   "Open Sans,Avenir,Nunito,Arial,Helvetica,SansSerif"
    defaultFontSize   12
    defaultTextAlignment left
    shadowing false
    RoundCorner 10
    TitleFontSize 18
}

skinparam defaultFontName       "Open Sans,Avenir,Nunito,Arial,Helvetica,SansSerif"
skinparam defaultFontSize       12
skinparam dpi                   100
skinparam shadowing             false
skinparam roundcorner           16
skinparam ParticipantPadding    40
skinparam BoxPadding            40
skinparam Padding               3
skinparam ArrowColor            #545454
skinparam stereotype {
    CBackgroundColor #0066cf
    CBorderColor #0086ef
    ABackgroundColor #C8Ac00
    ABorderColor #D8Bc00
    IBackgroundColor #008400
    IBorderColor #239c23
    EBackgroundColor #cf6300
    EBorderColor #ef8300
    NBackgroundColor #3380b9
    NBorderColor #004d86
}
skinparam title {
	FontColor	                 #c0c0c0
 	BorderColor                  #545454
	FontSize	    	         20
	BorderRoundCorner            16
	BorderThickness 	         1
	BackgroundColor              #48494b
}


skinparam legend {
	BackgroundColor #303030
	BorderColor #404040
	FontColor #a0a0a0
}

	skinparam swimlane {
	BorderColor #5e5e5e
	BorderThickness 2
	TitleBackgroundColor  #6d6d6d-#484848
	TitleFontColor #303030
}

skinparam activity {
		FontColor #C8Ac00
	BorderColor #333333
	BackgroundColor #333333-#333333
	BarColor #00FF00
	StartColor #0060a8
	EndColor #0060a8
	DiamondBackgroundColor #6d6d6d-#3a3a3a
  	DiamondBorderColor #3a3a3a
  	DiamondFontColor #fefefe
}


skinparam participant {
		FontColor #C8Ac00
	BorderColor #333333
	BackgroundColor #333333-#333333
	ParticipantBorderThickness 2
}


skinparam actor {
		FontColor #C8Ac00
	BorderColor #333333
	BackgroundColor #333333-#333333
}


skinparam arrow {
	Thickness 1.5
	Color #545454
	FontColor #a0a0a0
    FontStyle bold
    MessageAlignment center
}



skinparam sequence {
	BorderColor #303030
	TitleFontColor #303030
	BackgroundColor #333333
	StartColor #303030
	EndColor #303030
	BoxBackgroundColor #333333
	BoxBorderColor #484848
	BoxFontColor #484848
	LifeLineBorderColor #484848
	LifeLineBorderThickness 2
	LifeLineBackgroundColor #3a3a3a
	GroupBorderColor #484848
	GroupFontColor #484848
	GroupHeaderFontColor #0060a8
	GroupBackgroundColor #484848
	GroupHeaderBackgroundColor #333333
	DividerBackgroundColor #484848
    DividerBorderColor #484848
    DividerBorderThickness 2
    DividerFontColor #D8Bc00
	ReferenceBackgroundColor #333333
	ReferenceBorderColor #484848
	ReferenceFontColor #fefefe
	ReferenceHeaderBackgroundColor #484848
}


skinparam partition {
	BorderColor #303030
	FontColor #333333
	BackgroundColor #333333
}


skinparam collections {
		FontColor #C8Ac00
	BorderColor #333333
	BackgroundColor #333333-#333333
}


skinparam control {
		FontColor #C8Ac00
	BorderColor #333333
	BackgroundColor #333333-#333333
}


skinparam entity {
		FontColor #C8Ac00
	BorderColor #333333
	BackgroundColor #333333-#333333
}


skinparam boundary {
		FontColor #C8Ac00
	BorderColor #333333
	BackgroundColor #333333-#333333
}


skinparam agent {
	BackgroundColor #ff8000
	BorderColor #ff9933
	FontColor #484848
}


skinparam note {
	BorderThickness 1
	BackgroundColor #1b1b1a
	BorderColor #5e5e5e
	FontSize 11
	FontColor #a0a0a0
}


skinparam artifact {
	BorderThickness 10
	BorderColor #5e5e5e
	BackgroundColor #1b1b1a
	FontColor #D8Bc00
}


skinparam component {
		FontColor #C8Ac00
	BorderColor #333333
	BackgroundColor #333333-#333333
}


skinparam interface {
	BackgroundColor  #008400
	BorderColor  #007F00
	FontColor #484848
}


skinparam storage {
	BackgroundColor #ff8000
  	BorderColor #cc6600
	FontColor #222222
}


skinparam node {
	BackgroundColor #333333
	BorderColor #333333
	FontColor #C8Ac00
}


skinparam cloud {
	BackgroundColor #484848-black
	BorderColor #484848
	FontColor #D8Bc00
}


skinparam database {
		FontColor #C8Ac00
	BorderColor #333333
	BackgroundColor #333333-#333333
	BackgroundColor  #333333
}


skinparam class {
		FontColor #C8Ac00
	BorderColor #333333
	BackgroundColor #333333-#333333
	HeaderBackgroundColor #1b1b1a
    BackgroundColor #282828
    BorderColor #5e5e5e
 	StereotypeFontColor #a0a0a0
    StereotypeFontStyle bold
	BorderThickness 1
	AttributeFontColor #D8Bc00
	AttributeFontSize 11
    FontColor #D8Bc00
    FontStyle bold
}


skinparam object {
		FontColor #C8Ac00
	BorderColor #333333
	BackgroundColor #333333-#333333
	StereotypeFontColor #484848
	BorderThickness 1
	AttributeFontColor #fefefe
	AttributeFontSize 11
}


skinparam usecase {
		FontColor #C8Ac00
	BorderColor #333333
	BackgroundColor #333333-#333333
	BorderThickness 2
	StereotypeFontColor #303030
}


skinparam rectangle {
		FontColor #C8Ac00
	BorderColor #333333
	BackgroundColor #333333-#333333
	BackgroundColor #333333
	BorderThickness 2
	StereotypeFontColor #303030
}


skinparam package {
		FontColor #C8Ac00
	BorderColor #333333
	BackgroundColor #333333-#333333
	BackgroundColor #333333
	BorderThickness 2
}


skinparam folder {
	BackgroundColor #6d6d6d
  	BorderColor #ff8000
	FontColor #ff8000
	BorderThickness 2
}


skinparam frame {
	BackgroundColor #6d6d6d
  	BorderColor #0060a8
	FontColor #0060a8
	BorderThickness 2
}


skinparam state {
		FontColor #C8Ac00
	BorderColor #333333
	BackgroundColor #333333-#333333
	StartColor #0060a8
	EndColor #0060a8
	AttributeFontColor #fefefe
	AttributeFontSize 11
}


skinparam queue {
		FontColor #C8Ac00
	BorderColor #333333
	BackgroundColor #333333-#333333
}


skinparam card {
	BackgroundColor #0060a8
	BorderColor #004d86
	FontColor $INFO_TEXT
}


skinparam file {
	BackgroundColor #6d6d6d-#484848
	BorderColor #0060a8
	FontColor #fefefe
}


skinparam stack {
		FontColor #C8Ac00
	BorderColor #333333
	BackgroundColor #333333-#333333
}

    
    title "wicket-metrics"
    
    artifact openjson
    artifact commons_fileupload
    artifact commons_io
    artifact metrics_core
    artifact metrics_jmx
    artifact jakarta_servlet_api
    artifact log4j
    artifact byte_buddy_agent
    artifact byte_buddy
    artifact commons_collections4
    artifact wicket_core
    artifact wicket_request
    artifact wicket_util
    artifact apiguardian_api
    artifact aspectjrt
    artifact jdk_serializable_functional
    artifact junit_jupiter_api
    artifact junit_jupiter_engine
    artifact junit_platform_commons
    artifact junit_platform_engine
    artifact mockito_core
    artifact objenesis
    artifact opentest4j
    artifact jcl_over_slf4j
    artifact slf4j_api
    artifact slf4j_log4j12
    junit_jupiter_engine - -> apiguardian_api
    junit_jupiter_engine - -> junit_jupiter_api
    junit_jupiter_engine - -> junit_platform_engine
    junit_platform_engine - -> junit_platform_commons
    junit_platform_engine - -> opentest4j
    mockito_core - -> byte_buddy
    mockito_core - -> byte_buddy_agent
    mockito_core - -> objenesis
    slf4j_log4j12 - -> log4j
    wicket_core - -> jdk_serializable_functional
    wicket_core - -> openjson
    wicket_core - -> wicket_request
    wicket_core - -> wicket_util
    wicket_util - -> commons_collections4
    wicket_util - -> commons_fileupload
    wicket_util - -> commons_io
    
@enduml

PlantUML version 1.2021.01(Tue Feb 02 00:55:08 MST 2021)
(GPL source distribution)
Java Runtime: Java(TM) SE Runtime Environment
JVM: Java HotSpot(TM) 64-Bit Server VM
Default Encoding: UTF-8
Language: en
Country: US
--></g></svg>