<?xml version="1.0" encoding="UTF-8" standalone="no"?><svg xmlns="http://www.w3.org/2000/svg" xmlns:xlink="http://www.w3.org/1999/xlink" contentScriptType="application/ecmascript" contentStyleType="text/css" height="321.875px" preserveAspectRatio="none" style="width:1556px;height:321px;background:#333333;" version="1.1" viewBox="0 0 1556 321" width="1556.25px" zoomAndPan="magnify"><defs/><g><rect fill="#48494B" height="41.2028" rx="8.3333" ry="8.3333" style="stroke:#545454;stroke-width:1.0416666666666667;" width="427.0833" x="557.5521" y="2.0833"/><text fill="#C0C0C0" font-family="Open Sans,Avenir,Nunito,Arial,Helvetica,SansSerif" font-size="20.8333" lengthAdjust="spacing" textLength="404.1667" x="569.0104" y="30.5583">org.apache.wicket.spring.injection.annot</text><!--MD5=[ffc14e6a0a49cea36caf55e398c049a9]
cluster SpringComponentInjector--><polygon fill="#333333" points="514.0625,166.7236,693.2292,166.7236,700.5208,193.9453,721.3542,193.9453,721.3542,288.5986,514.0625,288.5986,514.0625,166.7236" style="stroke:#333333;stroke-width:2.0833333333333335;"/><line style="stroke:#333333;stroke-width:2.0833333333333335;" x1="514.0625" x2="700.5208" y1="193.9453" y2="193.9453"/><text fill="#C8AC00" font-family="Open Sans,Avenir,Nunito,Arial,Helvetica,SansSerif" font-size="12.5" font-weight="bold" lengthAdjust="spacing" textLength="166.6667" x="521.3542" y="184.0169">SpringComponentInjector</text><!--MD5=[8e3a3a8aa2d2ea986b1b376f6c0bff7e]
class SpringComponentInjector.ContextLocator--><rect codeLine="22" fill="#282828" height="48.055" id="SpringComponentInjector.ContextLocator" rx="8.3333" ry="8.3333" style="stroke:#5E5E5E;stroke-width:1.0416666666666667;" width="136.4583" x="559.375" y="215.682"/><rect fill="#1B1B1A" height="31.3883" rx="8.3333" ry="8.3333" style="stroke:#1B1B1A;stroke-width:1.0416666666666667;" width="136.4583" x="559.375" y="215.682"/><rect fill="#1B1B1A" height="8.3333" style="stroke:#1B1B1A;stroke-width:1.0416666666666667;" width="136.4583" x="559.375" y="238.737"/><rect codeLine="22" fill="none" height="48.055" id="SpringComponentInjector.ContextLocator" rx="8.3333" ry="8.3333" style="stroke:#5E5E5E;stroke-width:1.0416666666666667;" width="136.4583" x="559.375" y="215.682"/><ellipse cx="573.9583" cy="231.3761" fill="#0066CF" rx="10.4167" ry="10.4167" style="stroke:#0086EF;stroke-width:1.0416666666666667;"/><path d="M575.8687,235.8012 Q575.4415,236.0209 574.9715,236.1308 Q574.5015,236.2406 573.9827,236.2406 Q572.1395,236.2406 571.169,235.026 Q570.1986,233.8114 570.1986,231.5165 Q570.1986,229.2155 571.169,228.0009 Q572.1395,226.7863 573.9827,226.7863 Q574.5015,226.7863 574.9776,226.8962 Q575.4537,227.006 575.8687,227.2257 L575.8687,229.2277 Q575.4049,228.8005 574.9685,228.6021 Q574.5321,228.4037 574.0682,228.4037 Q573.0794,228.4037 572.5759,229.188 Q572.0723,229.9723 572.0723,231.5165 Q572.0723,233.0546 572.5759,233.8389 Q573.0794,234.6232 574.0682,234.6232 Q574.5321,234.6232 574.9685,234.4248 Q575.4049,234.2265 575.8687,233.7992 Z " fill="#000000"/><text fill="#D8BC00" font-family="Open Sans,Avenir,Nunito,Arial,Helvetica,SansSerif" font-size="12.5" font-weight="bold" lengthAdjust="spacing" textLength="98.9583" x="590.625" y="236.1003">ContextLocator</text><line style="stroke:#5E5E5E;stroke-width:1.0416666666666667;" x1="560.4167" x2="694.7917" y1="247.0703" y2="247.0703"/><line style="stroke:#5E5E5E;stroke-width:1.0416666666666667;" x1="560.4167" x2="694.7917" y1="255.4036" y2="255.4036"/><!--MD5=[12726614715adeed2a97f79df58791d3]
class IFieldValueFactory--><rect codeLine="6" fill="#282828" height="48.055" id="IFieldValueFactory" rx="8.3333" ry="8.3333" style="stroke:#5E5E5E;stroke-width:1.0416666666666667;" width="155.2083" x="168.75" y="53.7028"/><rect fill="#1B1B1A" height="31.3883" rx="8.3333" ry="8.3333" style="stroke:#1B1B1A;stroke-width:1.0416666666666667;" width="155.2083" x="168.75" y="53.7028"/><rect fill="#1B1B1A" height="8.3333" style="stroke:#1B1B1A;stroke-width:1.0416666666666667;" width="155.2083" x="168.75" y="76.7578"/><rect codeLine="6" fill="none" height="48.055" id="IFieldValueFactory" rx="8.3333" ry="8.3333" style="stroke:#5E5E5E;stroke-width:1.0416666666666667;" width="155.2083" x="168.75" y="53.7028"/><ellipse cx="183.3333" cy="69.397" fill="#008400" rx="10.4167" ry="10.4167" style="stroke:#239C23;stroke-width:1.0416666666666667;"/><path d="M180.7373,66.5588 L180.7373,64.9719 L186.1633,64.9719 L186.1633,66.5588 L184.3506,66.5588 L184.3506,72.4976 L186.1633,72.4976 L186.1633,74.0845 L180.7373,74.0845 L180.7373,72.4976 L182.55,72.4976 L182.55,66.5588 Z " fill="#000000"/><text fill="#D8BC00" font-family="Open Sans,Avenir,Nunito,Arial,Helvetica,SansSerif" font-size="12.5" font-style="italic" font-weight="bold" lengthAdjust="spacing" textLength="117.7083" x="200" y="74.1211">IFieldValueFactory</text><line style="stroke:#5E5E5E;stroke-width:1.0416666666666667;" x1="169.7917" x2="322.9167" y1="85.0911" y2="85.0911"/><line style="stroke:#5E5E5E;stroke-width:1.0416666666666667;" x1="169.7917" x2="322.9167" y1="93.4245" y2="93.4245"/><!--MD5=[06e9923809158946aa762ffed3bee860]
class ISpringContextLocator--><rect codeLine="7" fill="#282828" height="48.055" id="ISpringContextLocator" rx="8.3333" ry="8.3333" style="stroke:#5E5E5E;stroke-width:1.0416666666666667;" width="182.2917" x="536.4583" y="53.7028"/><rect fill="#1B1B1A" height="31.3883" rx="8.3333" ry="8.3333" style="stroke:#1B1B1A;stroke-width:1.0416666666666667;" width="182.2917" x="536.4583" y="53.7028"/><rect fill="#1B1B1A" height="8.3333" style="stroke:#1B1B1A;stroke-width:1.0416666666666667;" width="182.2917" x="536.4583" y="76.7578"/><rect codeLine="7" fill="none" height="48.055" id="ISpringContextLocator" rx="8.3333" ry="8.3333" style="stroke:#5E5E5E;stroke-width:1.0416666666666667;" width="182.2917" x="536.4583" y="53.7028"/><ellipse cx="551.0417" cy="69.397" fill="#008400" rx="10.4167" ry="10.4167" style="stroke:#239C23;stroke-width:1.0416666666666667;"/><path d="M548.4456,66.5588 L548.4456,64.9719 L553.8717,64.9719 L553.8717,66.5588 L552.0589,66.5588 L552.0589,72.4976 L553.8717,72.4976 L553.8717,74.0845 L548.4456,74.0845 L548.4456,72.4976 L550.2584,72.4976 L550.2584,66.5588 Z " fill="#000000"/><text fill="#D8BC00" font-family="Open Sans,Avenir,Nunito,Arial,Helvetica,SansSerif" font-size="12.5" font-style="italic" font-weight="bold" lengthAdjust="spacing" textLength="144.7917" x="567.7083" y="74.1211">ISpringContextLocator</text><line style="stroke:#5E5E5E;stroke-width:1.0416666666666667;" x1="537.5" x2="717.7083" y1="85.0911" y2="85.0911"/><line style="stroke:#5E5E5E;stroke-width:1.0416666666666667;" x1="537.5" x2="717.7083" y1="93.4245" y2="93.4245"/><!--MD5=[58ab68871b7178f8c4c3ef80265093e5]
class IBehaviorInstantiationListener--><rect codeLine="8" fill="#282828" height="48.055" id="IBehaviorInstantiationListener" rx="8.3333" ry="8.3333" style="stroke:#5E5E5E;stroke-width:1.0416666666666667;" width="233.3333" x="755.7292" y="53.7028"/><rect fill="#1B1B1A" height="31.3883" rx="8.3333" ry="8.3333" style="stroke:#1B1B1A;stroke-width:1.0416666666666667;" width="233.3333" x="755.7292" y="53.7028"/><rect fill="#1B1B1A" height="8.3333" style="stroke:#1B1B1A;stroke-width:1.0416666666666667;" width="233.3333" x="755.7292" y="76.7578"/><rect codeLine="8" fill="none" height="48.055" id="IBehaviorInstantiationListener" rx="8.3333" ry="8.3333" style="stroke:#5E5E5E;stroke-width:1.0416666666666667;" width="233.3333" x="755.7292" y="53.7028"/><ellipse cx="770.3125" cy="69.397" fill="#008400" rx="10.4167" ry="10.4167" style="stroke:#239C23;stroke-width:1.0416666666666667;"/><path d="M767.7165,66.5588 L767.7165,64.9719 L773.1425,64.9719 L773.1425,66.5588 L771.3298,66.5588 L771.3298,72.4976 L773.1425,72.4976 L773.1425,74.0845 L767.7165,74.0845 L767.7165,72.4976 L769.5292,72.4976 L769.5292,66.5588 Z " fill="#000000"/><text fill="#D8BC00" font-family="Open Sans,Avenir,Nunito,Arial,Helvetica,SansSerif" font-size="12.5" font-style="italic" font-weight="bold" lengthAdjust="spacing" textLength="195.8333" x="786.9792" y="74.1211">IBehaviorInstantiationListener</text><line style="stroke:#5E5E5E;stroke-width:1.0416666666666667;" x1="756.7708" x2="988.0208" y1="85.0911" y2="85.0911"/><line style="stroke:#5E5E5E;stroke-width:1.0416666666666667;" x1="756.7708" x2="988.0208" y1="93.4245" y2="93.4245"/><!--MD5=[0c737e2a78041951b1e5606c334549c5]
class IComponentInstantiationListener--><rect codeLine="9" fill="#282828" height="48.055" id="IComponentInstantiationListener" rx="8.3333" ry="8.3333" style="stroke:#5E5E5E;stroke-width:1.0416666666666667;" width="253.125" x="1026.0417" y="53.7028"/><rect fill="#1B1B1A" height="31.3883" rx="8.3333" ry="8.3333" style="stroke:#1B1B1A;stroke-width:1.0416666666666667;" width="253.125" x="1026.0417" y="53.7028"/><rect fill="#1B1B1A" height="8.3333" style="stroke:#1B1B1A;stroke-width:1.0416666666666667;" width="253.125" x="1026.0417" y="76.7578"/><rect codeLine="9" fill="none" height="48.055" id="IComponentInstantiationListener" rx="8.3333" ry="8.3333" style="stroke:#5E5E5E;stroke-width:1.0416666666666667;" width="253.125" x="1026.0417" y="53.7028"/><ellipse cx="1040.625" cy="69.397" fill="#008400" rx="10.4167" ry="10.4167" style="stroke:#239C23;stroke-width:1.0416666666666667;"/><path d="M1038.029,66.5588 L1038.029,64.9719 L1043.455,64.9719 L1043.455,66.5588 L1041.6423,66.5588 L1041.6423,72.4976 L1043.455,72.4976 L1043.455,74.0845 L1038.029,74.0845 L1038.029,72.4976 L1039.8417,72.4976 L1039.8417,66.5588 Z " fill="#000000"/><text fill="#D8BC00" font-family="Open Sans,Avenir,Nunito,Arial,Helvetica,SansSerif" font-size="12.5" font-style="italic" font-weight="bold" lengthAdjust="spacing" textLength="215.625" x="1057.2917" y="74.1211">IComponentInstantiationListener</text><line style="stroke:#5E5E5E;stroke-width:1.0416666666666667;" x1="1027.0833" x2="1278.125" y1="85.0911" y2="85.0911"/><line style="stroke:#5E5E5E;stroke-width:1.0416666666666667;" x1="1027.0833" x2="1278.125" y1="93.4245" y2="93.4245"/><!--MD5=[4008bf5e473ff81751ebd97cbd9c9a6a]
class AnnotProxyFieldValueFactory--><rect codeLine="12" fill="#282828" height="131.2012" id="AnnotProxyFieldValueFactory" rx="8.3333" ry="8.3333" style="stroke:#5E5E5E;stroke-width:1.0416666666666667;" width="478.125" x="7.2917" y="174.0153"/><rect fill="#1B1B1A" height="31.3883" rx="8.3333" ry="8.3333" style="stroke:#1B1B1A;stroke-width:1.0416666666666667;" width="478.125" x="7.2917" y="174.0153"/><rect fill="#1B1B1A" height="8.3333" style="stroke:#1B1B1A;stroke-width:1.0416666666666667;" width="478.125" x="7.2917" y="197.0703"/><rect codeLine="12" fill="none" height="131.2012" id="AnnotProxyFieldValueFactory" rx="8.3333" ry="8.3333" style="stroke:#5E5E5E;stroke-width:1.0416666666666667;" width="478.125" x="7.2917" y="174.0153"/><ellipse cx="144.7917" cy="189.7095" fill="#0066CF" rx="10.4167" ry="10.4167" style="stroke:#0086EF;stroke-width:1.0416666666666667;"/><path d="M146.7021,194.1345 Q146.2748,194.3542 145.8049,194.4641 Q145.3349,194.574 144.8161,194.574 Q142.9728,194.574 142.0024,193.3594 Q141.0319,192.1448 141.0319,189.8499 Q141.0319,187.5488 142.0024,186.3342 Q142.9728,185.1196 144.8161,185.1196 Q145.3349,185.1196 145.811,185.2295 Q146.287,185.3394 146.7021,185.5591 L146.7021,187.561 Q146.2382,187.1338 145.8018,186.9354 Q145.3654,186.7371 144.9015,186.7371 Q143.9128,186.7371 143.4092,187.5214 Q142.9057,188.3057 142.9057,189.8499 Q142.9057,191.3879 143.4092,192.1722 Q143.9128,192.9565 144.9015,192.9565 Q145.3654,192.9565 145.8018,192.7582 Q146.2382,192.5598 146.7021,192.1326 Z " fill="#000000"/><text fill="#D8BC00" font-family="Open Sans,Avenir,Nunito,Arial,Helvetica,SansSerif" font-size="12.5" font-weight="bold" lengthAdjust="spacing" textLength="188.5417" x="167.7083" y="194.4336">AnnotProxyFieldValueFactory</text><line style="stroke:#5E5E5E;stroke-width:1.5625;" x1="8.3333" x2="484.375" y1="205.4036" y2="205.4036"/><ellipse cx="18.75" cy="240.7735" fill="#84BE84" rx="3.125" ry="3.125" style="stroke:#038048;stroke-width:1.0416666666666667;"/><text fill="#D8BC00" font-family="Open Sans,Avenir,Nunito,Arial,Helvetica,SansSerif" font-size="11.4583" lengthAdjust="spacing" textLength="300" x="30.2083" y="247.6847">AnnotProxyFieldValueFactory(ISpringContextLocator)</text><ellipse cx="18.75" cy="260.5184" fill="#84BE84" rx="3.125" ry="3.125" style="stroke:#038048;stroke-width:1.0416666666666667;"/><text fill="#D8BC00" font-family="Open Sans,Avenir,Nunito,Arial,Helvetica,SansSerif" font-size="11.4583" lengthAdjust="spacing" textLength="351.0417" x="30.2083" y="267.4296">AnnotProxyFieldValueFactory(ISpringContextLocator, boolean)</text><line style="stroke:#5E5E5E;stroke-width:1.0416666666666667;" x1="8.3333" x2="202.6042" y1="223.6094" y2="223.6094"/><text fill="#D8BC00" font-family="Open Sans,Avenir,Nunito,Arial,Helvetica,SansSerif" font-size="11.4583" lengthAdjust="spacing" textLength="81.25" x="205.7292" y="227.419">(constructors)</text><line style="stroke:#5E5E5E;stroke-width:1.0416666666666667;" x1="290.1042" x2="484.375" y1="223.6094" y2="223.6094"/><line style="stroke:#5E5E5E;stroke-width:1.0416666666666667;" x1="8.3333" x2="484.375" y1="277.1383" y2="277.1383"/><ellipse cx="18.75" cy="288.5966" fill="#84BE84" rx="3.125" ry="3.125" style="stroke:#038048;stroke-width:1.0416666666666667;"/><text fill="#D8BC00" font-family="Open Sans,Avenir,Nunito,Arial,Helvetica,SansSerif" font-size="11.4583" lengthAdjust="spacing" textLength="445.8333" x="30.2083" y="295.5078">BeanDefinition getBeanDefinition(ConfigurableListableBeanFactory, String name)</text><!--MD5=[90c63ae7be3247772a7738847d19a3ce]
class SpringBean--><rect codeLine="26" fill="#282828" height="48.055" id="SpringBean" rx="8.3333" ry="8.3333" style="stroke:#5E5E5E;stroke-width:1.0416666666666667;" width="110.4167" x="1439.0625" y="53.7028"/><rect fill="#1B1B1A" height="31.3883" rx="8.3333" ry="8.3333" style="stroke:#1B1B1A;stroke-width:1.0416666666666667;" width="110.4167" x="1439.0625" y="53.7028"/><rect fill="#1B1B1A" height="8.3333" style="stroke:#1B1B1A;stroke-width:1.0416666666666667;" width="110.4167" x="1439.0625" y="76.7578"/><rect codeLine="26" fill="none" height="48.055" id="SpringBean" rx="8.3333" ry="8.3333" style="stroke:#5E5E5E;stroke-width:1.0416666666666667;" width="110.4167" x="1439.0625" y="53.7028"/><ellipse cx="1453.6458" cy="69.397" fill="#3380B9" rx="10.4167" ry="10.4167" style="stroke:#004D86;stroke-width:1.0416666666666667;"/><path d="M1455.4179,69.456 Q1455.4179,68.7663 1455.1066,68.3757 Q1454.7953,67.985 1454.2521,67.985 Q1453.7089,67.985 1453.4007,68.3757 Q1453.0924,68.7663 1453.0924,69.456 Q1453.0924,70.1518 1453.4007,70.5424 Q1453.7089,70.933 1454.2521,70.933 Q1454.7953,70.933 1455.1066,70.5424 Q1455.4179,70.1518 1455.4179,69.456 Z M1456.5531,71.9584 L1455.3569,71.9584 L1455.3569,71.4579 Q1455.1249,71.7814 1454.8106,71.9309 Q1454.4963,72.0805 1454.0568,72.0805 Q1453.0558,72.0805 1452.4424,71.3603 Q1451.829,70.6401 1451.829,69.456 Q1451.829,68.278 1452.4394,67.5608 Q1453.0497,66.8437 1454.0568,66.8437 Q1454.4902,66.8437 1454.8197,66.9932 Q1455.1493,67.1427 1455.3569,67.4296 L1455.3569,67.1794 Q1455.3569,66.3493 1454.9021,65.8976 Q1454.4474,65.446 1453.6051,65.446 Q1452.3356,65.446 1451.533,66.5629 Q1450.7304,67.6799 1450.7304,69.4682 Q1450.7304,71.342 1451.6581,72.4497 Q1452.5859,73.5575 1454.13,73.5575 Q1454.6183,73.5575 1455.0761,73.4141 Q1455.5339,73.2707 1455.955,72.9838 L1456.5165,74.058 Q1456.0221,74.3937 1455.4392,74.5616 Q1454.8564,74.7294 1454.1911,74.7294 Q1452.0549,74.7294 1450.7853,73.3073 Q1449.5158,71.8852 1449.5158,69.4682 Q1449.5158,67.1061 1450.6571,65.6871 Q1451.7985,64.268 1453.6784,64.268 Q1455.009,64.268 1455.781,65.0706 Q1456.5531,65.8732 1456.5531,67.2587 Z " fill="#000000"/><text fill="#D8BC00" font-family="Open Sans,Avenir,Nunito,Arial,Helvetica,SansSerif" font-size="12.5" font-weight="bold" lengthAdjust="spacing" textLength="72.9167" x="1470.3125" y="74.1211">SpringBean</text><line style="stroke:#5E5E5E;stroke-width:1.0416666666666667;" x1="1440.1042" x2="1548.4375" y1="85.0911" y2="85.0911"/><line style="stroke:#5E5E5E;stroke-width:1.0416666666666667;" x1="1440.1042" x2="1548.4375" y1="93.4245" y2="93.4245"/><!--MD5=[0b751655c2c1ffbfbd2272aa0ecbc96a]
class Injector--><rect fill="#282828" height="48.055" id="Injector" rx="8.3333" ry="8.3333" style="stroke:#5E5E5E;stroke-width:1.0416666666666667;" width="86.4583" x="1315.625" y="53.7028"/><rect fill="#1B1B1A" height="31.3883" rx="8.3333" ry="8.3333" style="stroke:#1B1B1A;stroke-width:1.0416666666666667;" width="86.4583" x="1315.625" y="53.7028"/><rect fill="#1B1B1A" height="8.3333" style="stroke:#1B1B1A;stroke-width:1.0416666666666667;" width="86.4583" x="1315.625" y="76.7578"/><rect fill="none" height="48.055" id="Injector" rx="8.3333" ry="8.3333" style="stroke:#5E5E5E;stroke-width:1.0416666666666667;" width="86.4583" x="1315.625" y="53.7028"/><ellipse cx="1330.2083" cy="69.397" fill="#0066CF" rx="10.4167" ry="10.4167" style="stroke:#0086EF;stroke-width:1.0416666666666667;"/><path d="M1332.1187,73.822 Q1331.6915,74.0417 1331.2215,74.1516 Q1330.7515,74.2615 1330.2327,74.2615 Q1328.3895,74.2615 1327.419,73.0469 Q1326.4486,71.8323 1326.4486,69.5374 Q1326.4486,67.2363 1327.419,66.0217 Q1328.3895,64.8071 1330.2327,64.8071 Q1330.7515,64.8071 1331.2276,64.917 Q1331.7037,65.0269 1332.1187,65.2466 L1332.1187,67.2485 Q1331.6549,66.8213 1331.2185,66.6229 Q1330.7821,66.4246 1330.3182,66.4246 Q1329.3294,66.4246 1328.8259,67.2089 Q1328.3223,67.9932 1328.3223,69.5374 Q1328.3223,71.0754 1328.8259,71.8597 Q1329.3294,72.644 1330.3182,72.644 Q1330.7821,72.644 1331.2185,72.4457 Q1331.6549,72.2473 1332.1187,71.8201 Z " fill="#000000"/><text fill="#D8BC00" font-family="Open Sans,Avenir,Nunito,Arial,Helvetica,SansSerif" font-size="12.5" font-weight="bold" lengthAdjust="spacing" textLength="48.9583" x="1346.875" y="74.1211">Injector</text><line style="stroke:#5E5E5E;stroke-width:1.0416666666666667;" x1="1316.6667" x2="1401.0417" y1="85.0911" y2="85.0911"/><line style="stroke:#5E5E5E;stroke-width:1.0416666666666667;" x1="1316.6667" x2="1401.0417" y1="93.4245" y2="93.4245"/><!--MD5=[35f1d51213552c1434b7221b7eb710fd]
class SpringComponentInjector--><rect codeLine="31" fill="#282828" height="150.946" id="SpringComponentInjector" rx="8.3333" ry="8.3333" style="stroke:#5E5E5E;stroke-width:1.0416666666666667;" width="437.5" x="933.8542" y="164.1195"/><rect fill="#1B1B1A" height="31.3883" rx="8.3333" ry="8.3333" style="stroke:#1B1B1A;stroke-width:1.0416666666666667;" width="437.5" x="933.8542" y="164.1195"/><rect fill="#1B1B1A" height="8.3333" style="stroke:#1B1B1A;stroke-width:1.0416666666666667;" width="437.5" x="933.8542" y="187.1745"/><rect codeLine="31" fill="none" height="150.946" id="SpringComponentInjector" rx="8.3333" ry="8.3333" style="stroke:#5E5E5E;stroke-width:1.0416666666666667;" width="437.5" x="933.8542" y="164.1195"/><ellipse cx="1061.9792" cy="179.8136" fill="#0066CF" rx="10.4167" ry="10.4167" style="stroke:#0086EF;stroke-width:1.0416666666666667;"/><path d="M1063.8896,184.2387 Q1063.4623,184.4584 1062.9924,184.5683 Q1062.5224,184.6781 1062.0036,184.6781 Q1060.1603,184.6781 1059.1899,183.4635 Q1058.2194,182.2489 1058.2194,179.954 Q1058.2194,177.653 1059.1899,176.4384 Q1060.1603,175.2238 1062.0036,175.2238 Q1062.5224,175.2238 1062.9985,175.3337 Q1063.4745,175.4435 1063.8896,175.6632 L1063.8896,177.6652 Q1063.4257,177.238 1062.9893,177.0396 Q1062.5529,176.8412 1062.089,176.8412 Q1061.1003,176.8412 1060.5967,177.6255 Q1060.0932,178.4098 1060.0932,179.954 Q1060.0932,181.4921 1060.5967,182.2764 Q1061.1003,183.0607 1062.089,183.0607 Q1062.5529,183.0607 1062.9893,182.8623 Q1063.4257,182.664 1063.8896,182.2367 Z " fill="#000000"/><text fill="#D8BC00" font-family="Open Sans,Avenir,Nunito,Arial,Helvetica,SansSerif" font-size="12.5" font-weight="bold" lengthAdjust="spacing" textLength="166.6667" x="1084.8958" y="184.5378">SpringComponentInjector</text><line style="stroke:#5E5E5E;stroke-width:1.5625;" x1="934.8958" x2="1370.3125" y1="195.5078" y2="195.5078"/><ellipse cx="945.3125" cy="230.8777" fill="#84BE84" rx="3.125" ry="3.125" style="stroke:#038048;stroke-width:1.0416666666666667;"/><text fill="#D8BC00" font-family="Open Sans,Avenir,Nunito,Arial,Helvetica,SansSerif" font-size="11.4583" lengthAdjust="spacing" textLength="239.5833" x="956.7708" y="237.7889">SpringComponentInjector(WebApplication)</text><ellipse cx="945.3125" cy="250.6226" fill="#84BE84" rx="3.125" ry="3.125" style="stroke:#038048;stroke-width:1.0416666666666667;"/><text fill="#D8BC00" font-family="Open Sans,Avenir,Nunito,Arial,Helvetica,SansSerif" font-size="11.4583" lengthAdjust="spacing" textLength="354.1667" x="956.7708" y="257.5338">SpringComponentInjector(WebApplication, ApplicationContext)</text><ellipse cx="945.3125" cy="270.3674" fill="#84BE84" rx="3.125" ry="3.125" style="stroke:#038048;stroke-width:1.0416666666666667;"/><text fill="#D8BC00" font-family="Open Sans,Avenir,Nunito,Arial,Helvetica,SansSerif" font-size="11.4583" lengthAdjust="spacing" textLength="405.2083" x="956.7708" y="277.2786">SpringComponentInjector(WebApplication, ApplicationContext, boolean)</text><line style="stroke:#5E5E5E;stroke-width:1.0416666666666667;" x1="934.8958" x2="1108.8542" y1="213.7136" y2="213.7136"/><text fill="#D8BC00" font-family="Open Sans,Avenir,Nunito,Arial,Helvetica,SansSerif" font-size="11.4583" lengthAdjust="spacing" textLength="81.25" x="1111.9792" y="217.5232">(constructors)</text><line style="stroke:#5E5E5E;stroke-width:1.0416666666666667;" x1="1196.3542" x2="1370.3125" y1="213.7136" y2="213.7136"/><line style="stroke:#5E5E5E;stroke-width:1.0416666666666667;" x1="934.8958" x2="1370.3125" y1="286.9873" y2="286.9873"/><ellipse cx="945.3125" cy="298.4456" fill="#84BE84" rx="3.125" ry="3.125" style="stroke:#038048;stroke-width:1.0416666666666667;"/><text fill="#D8BC00" font-family="Open Sans,Avenir,Nunito,Arial,Helvetica,SansSerif" font-size="11.4583" lengthAdjust="spacing" textLength="337.5" x="956.7708" y="305.3569">void setDefaultContext(WebApplication, ApplicationContext)</text><!--MD5=[e84e4a6ee2c473dfa7edb47c5b445048]
reverse link IFieldValueFactory to AnnotProxyFieldValueFactory--><path codeLine="11" d="M246.3542,122.9632 C246.3542,138.7028 246.3542,156.7549 246.3542,173.8486 " fill="none" id="IFieldValueFactory-backto-AnnotProxyFieldValueFactory" style="stroke:#545454;stroke-width:1.5625;"/><polygon fill="none" points="239.0625,122.7861,246.3542,101.9528,253.6458,122.7861,239.0625,122.7861" style="stroke:#545454;stroke-width:1.5625;"/><!--MD5=[1737c69a07528b9c1c11906b5488a76e]
reverse link ISpringContextLocator to SpringComponentInjector.ContextLocator--><path codeLine="21" d="M627.6042,122.8903 C627.6042,152.9215 627.6042,191.4424 627.6042,215.5778 " fill="none" id="ISpringContextLocator-backto-SpringComponentInjector.ContextLocator" style="stroke:#545454;stroke-width:1.5625;"/><polygon fill="none" points="620.3125,122.7861,627.6042,101.9528,634.8958,122.7861,620.3125,122.7861" style="stroke:#545454;stroke-width:1.5625;"/><!--MD5=[3d14f08fb66b6b76b69792f4d2aacac7]
reverse link Injector to SpringComponentInjector--><path codeLine="28" d="M1312.3646,114.7445 C1293.5,129.3695 1270.9792,146.8278 1248.875,163.9632 " fill="none" id="Injector-backto-SpringComponentInjector" style="stroke:#545454;stroke-width:1.5625;"/><polygon fill="none" points="1307.9271,108.9528,1328.8646,101.9528,1316.8646,120.484,1307.9271,108.9528" style="stroke:#545454;stroke-width:1.5625;"/><!--MD5=[78c9d40774a42090e863d71348a48969]
reverse link IComponentInstantiationListener to SpringComponentInjector--><path codeLine="29" d="M1152.6042,122.8799 C1152.6042,135.6299 1152.6042,149.9111 1152.6042,163.9632 " fill="none" id="IComponentInstantiationListener-backto-SpringComponentInjector" style="stroke:#545454;stroke-width:1.5625;"/><polygon fill="none" points="1145.3125,122.7861,1152.6042,101.9528,1159.8958,122.7861,1145.3125,122.7861" style="stroke:#545454;stroke-width:1.5625;"/><!--MD5=[632ae91f7d24ff2fbdbcb7005fcbf7bf]
reverse link IBehaviorInstantiationListener to SpringComponentInjector--><path codeLine="30" d="M931,112.1507 C957.5313,127.2861 990.0208,145.8278 1021.875,163.9945 " fill="none" id="IBehaviorInstantiationListener-backto-SpringComponentInjector" style="stroke:#545454;stroke-width:1.5625;"/><polygon fill="none" points="927.3229,118.4424,912.8438,101.7861,934.5521,105.7757,927.3229,118.4424" style="stroke:#545454;stroke-width:1.5625;"/><!--MD5=[74b99d5e9254d015dc4dcffb8de602c6]
@startuml

    !include lexakai.theme
    
    title "org.apache.wicket.spring.injection.annot"
    
    interface IFieldValueFactory
    interface ISpringContextLocator
    interface IBehaviorInstantiationListener
    interface IComponentInstantiationListener
    
    IFieldValueFactory <|- - AnnotProxyFieldValueFactory
    class AnnotProxyFieldValueFactory
    {
        - -(constructors)- -
        +AnnotProxyFieldValueFactory(ISpringContextLocator)
        +AnnotProxyFieldValueFactory(ISpringContextLocator, boolean)
        - -
        +BeanDefinition getBeanDefinition(ConfigurableListableBeanFactory, String name)
    }
    
    ISpringContextLocator <|- - SpringComponentInjector.ContextLocator
    class SpringComponentInjector.ContextLocator
    {
    }
    
    annotation SpringBean
    
    Injector <|- - SpringComponentInjector
    IComponentInstantiationListener <|- - SpringComponentInjector
    IBehaviorInstantiationListener <|- - SpringComponentInjector
    class SpringComponentInjector
    {
        - -(constructors)- -
        +SpringComponentInjector(WebApplication)
        +SpringComponentInjector(WebApplication, ApplicationContext)
        +SpringComponentInjector(WebApplication, ApplicationContext, boolean)
        - -
        +void setDefaultContext(WebApplication, ApplicationContext)
    }
    
@enduml

@startuml









skinparam backgroundColor #333333






skinparam  {
    defaultFontName   "Open Sans,Avenir,Nunito,Arial,Helvetica,SansSerif"
    defaultFontSize   12
    defaultTextAlignment left
    shadowing false
    RoundCorner 10
    TitleFontSize 18
}

skinparam defaultFontName       "Open Sans,Avenir,Nunito,Arial,Helvetica,SansSerif"
skinparam defaultFontSize       12
skinparam dpi                   100
skinparam shadowing             false
skinparam roundcorner           16
skinparam ParticipantPadding    40
skinparam BoxPadding            40
skinparam Padding               3
skinparam ArrowColor            #545454
skinparam stereotype {
    CBackgroundColor #0066cf
    CBorderColor #0086ef
    ABackgroundColor #C8Ac00
    ABorderColor #D8Bc00
    IBackgroundColor #008400
    IBorderColor #239c23
    EBackgroundColor #cf6300
    EBorderColor #ef8300
    NBackgroundColor #3380b9
    NBorderColor #004d86
}
skinparam title {
	FontColor	                 #c0c0c0
 	BorderColor                  #545454
	FontSize	    	         20
	BorderRoundCorner            16
	BorderThickness 	         1
	BackgroundColor              #48494b
}


skinparam legend {
	BackgroundColor #303030
	BorderColor #404040
	FontColor #a0a0a0
}

	skinparam swimlane {
	BorderColor #5e5e5e
	BorderThickness 2
	TitleBackgroundColor  #6d6d6d-#484848
	TitleFontColor #303030
}

skinparam activity {
		FontColor #C8Ac00
	BorderColor #333333
	BackgroundColor #333333-#333333
	BarColor #00FF00
	StartColor #0060a8
	EndColor #0060a8
	DiamondBackgroundColor #6d6d6d-#3a3a3a
  	DiamondBorderColor #3a3a3a
  	DiamondFontColor #fefefe
}


skinparam participant {
		FontColor #C8Ac00
	BorderColor #333333
	BackgroundColor #333333-#333333
	ParticipantBorderThickness 2
}


skinparam actor {
		FontColor #C8Ac00
	BorderColor #333333
	BackgroundColor #333333-#333333
}


skinparam arrow {
	Thickness 1.5
	Color #545454
	FontColor #a0a0a0
    FontStyle bold
    MessageAlignment center
}



skinparam sequence {
	BorderColor #303030
	TitleFontColor #303030
	BackgroundColor #333333
	StartColor #303030
	EndColor #303030
	BoxBackgroundColor #333333
	BoxBorderColor #484848
	BoxFontColor #484848
	LifeLineBorderColor #484848
	LifeLineBorderThickness 2
	LifeLineBackgroundColor #3a3a3a
	GroupBorderColor #484848
	GroupFontColor #484848
	GroupHeaderFontColor #0060a8
	GroupBackgroundColor #484848
	GroupHeaderBackgroundColor #333333
	DividerBackgroundColor #484848
    DividerBorderColor #484848
    DividerBorderThickness 2
    DividerFontColor #D8Bc00
	ReferenceBackgroundColor #333333
	ReferenceBorderColor #484848
	ReferenceFontColor #fefefe
	ReferenceHeaderBackgroundColor #484848
}


skinparam partition {
	BorderColor #303030
	FontColor #333333
	BackgroundColor #333333
}


skinparam collections {
		FontColor #C8Ac00
	BorderColor #333333
	BackgroundColor #333333-#333333
}


skinparam control {
		FontColor #C8Ac00
	BorderColor #333333
	BackgroundColor #333333-#333333
}


skinparam entity {
		FontColor #C8Ac00
	BorderColor #333333
	BackgroundColor #333333-#333333
}


skinparam boundary {
		FontColor #C8Ac00
	BorderColor #333333
	BackgroundColor #333333-#333333
}


skinparam agent {
	BackgroundColor #ff8000
	BorderColor #ff9933
	FontColor #484848
}


skinparam note {
	BorderThickness 1
	BackgroundColor #1b1b1a
	BorderColor #5e5e5e
	FontSize 11
	FontColor #a0a0a0
}


skinparam artifact {
	BorderThickness 10
	BorderColor #5e5e5e
	BackgroundColor #1b1b1a
	FontColor #D8Bc00
}


skinparam component {
		FontColor #C8Ac00
	BorderColor #333333
	BackgroundColor #333333-#333333
}


skinparam interface {
	BackgroundColor  #008400
	BorderColor  #007F00
	FontColor #484848
}


skinparam storage {
	BackgroundColor #ff8000
  	BorderColor #cc6600
	FontColor #222222
}


skinparam node {
	BackgroundColor #333333
	BorderColor #333333
	FontColor #C8Ac00
}


skinparam cloud {
	BackgroundColor #484848-black
	BorderColor #484848
	FontColor #D8Bc00
}


skinparam database {
		FontColor #C8Ac00
	BorderColor #333333
	BackgroundColor #333333-#333333
	BackgroundColor  #333333
}


skinparam class {
		FontColor #C8Ac00
	BorderColor #333333
	BackgroundColor #333333-#333333
	HeaderBackgroundColor #1b1b1a
    BackgroundColor #282828
    BorderColor #5e5e5e
 	StereotypeFontColor #a0a0a0
    StereotypeFontStyle bold
	BorderThickness 1
	AttributeFontColor #D8Bc00
	AttributeFontSize 11
    FontColor #D8Bc00
    FontStyle bold
}


skinparam object {
		FontColor #C8Ac00
	BorderColor #333333
	BackgroundColor #333333-#333333
	StereotypeFontColor #484848
	BorderThickness 1
	AttributeFontColor #fefefe
	AttributeFontSize 11
}


skinparam usecase {
		FontColor #C8Ac00
	BorderColor #333333
	BackgroundColor #333333-#333333
	BorderThickness 2
	StereotypeFontColor #303030
}


skinparam rectangle {
		FontColor #C8Ac00
	BorderColor #333333
	BackgroundColor #333333-#333333
	BackgroundColor #333333
	BorderThickness 2
	StereotypeFontColor #303030
}


skinparam package {
		FontColor #C8Ac00
	BorderColor #333333
	BackgroundColor #333333-#333333
	BackgroundColor #333333
	BorderThickness 2
}


skinparam folder {
	BackgroundColor #6d6d6d
  	BorderColor #ff8000
	FontColor #ff8000
	BorderThickness 2
}


skinparam frame {
	BackgroundColor #6d6d6d
  	BorderColor #0060a8
	FontColor #0060a8
	BorderThickness 2
}


skinparam state {
		FontColor #C8Ac00
	BorderColor #333333
	BackgroundColor #333333-#333333
	StartColor #0060a8
	EndColor #0060a8
	AttributeFontColor #fefefe
	AttributeFontSize 11
}


skinparam queue {
		FontColor #C8Ac00
	BorderColor #333333
	BackgroundColor #333333-#333333
}


skinparam card {
	BackgroundColor #0060a8
	BorderColor #004d86
	FontColor $INFO_TEXT
}


skinparam file {
	BackgroundColor #6d6d6d-#484848
	BorderColor #0060a8
	FontColor #fefefe
}


skinparam stack {
		FontColor #C8Ac00
	BorderColor #333333
	BackgroundColor #333333-#333333
}

    
    title "org.apache.wicket.spring.injection.annot"
    
    interface IFieldValueFactory
    interface ISpringContextLocator
    interface IBehaviorInstantiationListener
    interface IComponentInstantiationListener
    
    IFieldValueFactory <|- - AnnotProxyFieldValueFactory
    class AnnotProxyFieldValueFactory
    {
        - -(constructors)- -
        +AnnotProxyFieldValueFactory(ISpringContextLocator)
        +AnnotProxyFieldValueFactory(ISpringContextLocator, boolean)
        - -
        +BeanDefinition getBeanDefinition(ConfigurableListableBeanFactory, String name)
    }
    
    ISpringContextLocator <|- - SpringComponentInjector.ContextLocator
    class SpringComponentInjector.ContextLocator
    {
    }
    
    annotation SpringBean
    
    Injector <|- - SpringComponentInjector
    IComponentInstantiationListener <|- - SpringComponentInjector
    IBehaviorInstantiationListener <|- - SpringComponentInjector
    class SpringComponentInjector
    {
        - -(constructors)- -
        +SpringComponentInjector(WebApplication)
        +SpringComponentInjector(WebApplication, ApplicationContext)
        +SpringComponentInjector(WebApplication, ApplicationContext, boolean)
        - -
        +void setDefaultContext(WebApplication, ApplicationContext)
    }
    
@enduml

PlantUML version 1.2021.01(Tue Feb 02 00:55:08 MST 2021)
(GPL source distribution)
Java Runtime: Java(TM) SE Runtime Environment
JVM: Java HotSpot(TM) 64-Bit Server VM
Default Encoding: UTF-8
Language: en
Country: US
--></g></svg>