<?xml version="1.0" encoding="utf-8"?>
<svg viewBox="0 0 500 350" xmlns="http://www.w3.org/2000/svg">
  <path style="fill: rgb(216, 216, 216); stroke: rgb(0, 0, 0);" d="M 234.871 262.317"/>
  <path style="fill: rgb(216, 216, 216); stroke: rgb(0, 0, 0);" d="M 63.616 223.084"/>
  <g id="layer1" transform="matrix(1, 0, 0, 1, 307.395691, 169.272064)">
    <g id="g11262" transform="translate(-279.11 -276.32)">
      <g id="g8610">
        <g transform="matrix(1.256843, 0, 0, 1.256843, -117.002647, -67.69252)" style="">
          <path id="path8590" style="fill-rule: evenodd; fill: rgb(66, 148, 247);" d="M 310.647 394.297 C 310.647 394.297 310.647 370.818 348.354 370.818 C 386.107 370.818 386.107 394.297 386.107 394.297 C 386.107 394.297 386.107 405.613 348.354 405.613 C 310.647 405.613 310.647 395.565 310.647 394.297 Z"/>
          <path id="path8592" style="fill-rule: evenodd; fill: rgb(0, 0, 0);" d="M 344.832 367.86 C 329.336 367.437 319.569 373.824 314.122 380.351 C 308.769 386.784 307.266 393.358 307.266 393.545 L 307.266 393.686 C 307.219 393.827 306.938 395.283 307.407 396.926 C 307.877 398.664 309.051 400.589 311.493 402.373 C 316.376 405.895 325.627 408.806 344.832 408.947 C 363.99 409.088 374.744 406.083 380.895 402.796 C 383.994 401.152 385.919 399.556 387.093 398.1 C 388.22 396.645 388.69 395.142 388.69 395.142 L 388.831 394.438 L 388.831 393.827 C 388.831 393.827 387.751 386.971 381.646 380.491 C 375.542 374.011 364.319 367.907 344.973 367.86 L 344.832 367.86 Z M 344.644 373.73 L 344.832 373.73 C 363.051 373.73 372.255 379.364 377.232 384.624 C 381.505 389.085 382.444 392.747 382.679 393.827 C 382.632 393.921 382.726 393.827 382.398 394.297 C 381.74 395.048 380.566 396.363 378.124 397.678 C 373.194 400.26 363.333 403.078 344.832 402.937 C 326.237 402.796 318.067 399.885 315.014 397.678 C 313.512 396.551 313.23 395.752 313.089 395.33 C 312.995 394.907 312.948 395.001 312.948 395.001 L 312.948 394.86 C 312.948 394.86 314.169 389.554 318.677 384.154 C 323.232 378.754 330.745 373.307 344.644 373.73 Z"/>
          <path id="path8567" style="fill: rgb(66, 148, 247);" d="M 371.41 361.098 C 354.552 390.305 310.788 395.518 293.931 385.798 C 277.12 376.077 338.352 380.116 355.162 350.909 C 372.02 321.748 338.164 271.551 354.975 281.271 C 371.832 290.992 388.267 331.938 371.41 361.098 Z"/>
          <path id="path8594" style="fill: rgb(0, 0, 0);" d="M 353.472 278.219 C 352.439 277.984 351.171 277.891 350.091 278.642 C 349.011 279.393 348.635 280.614 348.495 281.6 C 348.354 282.586 348.307 283.619 348.495 284.652 C 349.105 288.972 351.359 294.983 353.472 302.449 C 357.698 317.287 361.549 336.634 353.754 350.11 C 345.959 363.587 327.129 369.926 311.962 373.73 C 304.355 375.655 297.828 376.829 293.743 378.425 C 292.71 378.848 291.912 379.317 291.113 379.928 C 290.315 380.491 289.47 381.524 289.329 382.839 C 289.188 384.154 289.798 385.281 290.503 386.079 C 291.254 386.878 292.146 387.441 293.32 388.098 C 302.665 393.498 318.207 394.485 333.797 390.634 C 349.434 386.784 365.164 377.909 373.992 362.601 C 382.82 347.293 382.961 329.121 378.688 313.578 C 374.462 298.035 366.057 284.934 356.712 279.534 C 355.538 278.877 354.505 278.454 353.472 278.219 Z M 353.19 283.056 C 353.519 283.197 353.754 283.291 354.364 283.666 C 361.83 287.939 370.189 300.242 374.133 314.893 C 378.124 329.543 378.077 346.354 370.048 360.253 C 362.018 374.105 347.462 382.464 332.764 386.079 C 318.067 389.695 303.134 388.474 295.668 384.154 C 295.058 383.825 294.917 383.544 294.635 383.262 C 294.917 383.121 295.058 383.027 295.527 382.839 C 298.673 381.571 305.388 380.257 313.089 378.284 C 328.538 374.387 347.931 367.297 356.994 351.613 C 366.057 335.882 362.159 316.348 357.886 301.228 C 355.726 293.715 353.66 287.235 353.19 283.948 C 353.096 283.525 353.19 283.338 353.19 283.056 Z"/>
          <path id="path8565" style="fill: rgb(48, 107, 180);" d="M 354.975 350.862 C 338.117 380.022 310.788 395.846 293.931 386.126 C 277.12 376.406 277.12 344.804 293.978 315.644 C 310.835 286.437 338.164 270.659 354.975 280.379 C 371.832 290.099 371.832 321.654 354.975 350.862 Z"/>
          <path id="path8596" style="fill: rgb(0, 0, 0);" d="M 356.712 278.407 C 347.368 273.007 335.347 274.65 323.889 281.318 C 312.385 287.939 301.115 299.632 292.475 314.517 C 283.882 329.449 279.468 344.898 279.468 358.187 C 279.468 371.476 283.976 382.792 293.32 388.192 C 302.712 393.639 314.733 391.808 326.237 385.187 C 337.741 378.566 348.964 367.015 357.557 352.082 C 366.15 337.197 370.611 321.56 370.658 308.319 C 370.658 295.03 366.103 283.807 356.712 278.407 Z M 354.364 282.492 C 361.83 286.765 365.916 296.063 365.916 308.272 C 365.916 320.527 361.736 335.46 353.472 349.735 C 345.255 364.01 334.454 374.997 323.842 381.102 C 313.277 387.206 303.134 388.427 295.668 384.154 C 288.202 379.834 284.211 370.443 284.211 358.187 C 284.211 345.978 288.296 331.14 296.56 316.865 C 304.778 302.59 315.672 291.508 326.237 285.404 C 336.849 279.252 346.898 278.172 354.364 282.492 Z"/>
          <path id="path8563" style="fill: rgb(186, 218, 85);" d="M 315.014 327.665 C 312.432 332.173 308.159 334.568 305.435 333.018 C 302.759 331.421 302.665 326.538 305.294 322.03 C 307.877 317.569 312.15 315.174 314.826 316.724 C 317.55 318.273 317.644 323.204 315.014 327.665 Z"/>
          <path id="path8603" style="fill: rgb(0, 0, 0);" d="M 315.813 315.174 C 313.746 314 311.305 314.423 309.192 315.597 C 307.126 316.771 305.247 318.696 303.792 321.185 C 302.336 323.674 301.538 326.256 301.585 328.651 C 301.632 331.046 302.618 333.488 304.684 334.661 C 306.703 335.882 309.192 335.413 311.258 334.239 C 313.371 333.065 315.249 331.187 316.705 328.651 C 318.16 326.162 318.771 323.58 318.771 321.185 C 318.724 318.79 317.879 316.348 315.813 315.174 Z M 314.075 318.414 C 314.686 318.743 315.202 319.588 315.249 321.185 C 315.249 322.734 314.639 324.754 313.465 326.773 C 312.338 328.745 310.882 330.247 309.52 330.999 C 308.112 331.797 307.079 331.844 306.421 331.468 C 305.811 331.093 305.294 330.247 305.247 328.651 C 305.247 327.101 305.717 324.941 306.844 322.922 C 308.018 320.95 309.614 319.588 310.976 318.837 C 312.338 318.086 313.418 318.039 314.075 318.414 Z"/>
          <path id="path8600" style="fill-rule: evenodd; fill: rgb(0, 0, 0);" d="M 316.94 326.632 L 314.451 330.623 L 352.016 354.102 L 354.505 350.11 L 316.94 326.632 Z"/>
        </g>
        <g id="g21509" transform="matrix(1.431353, 0, 0, 1.431353, -152.953522, 494.862549)" fill="#3d7ca6" style="">
          <path id="path14319" d="m168.85-195.74c-1.13-3.81-3-11.51-9-11.51s-8 7.68-9 11.51l-16 53.73c5 7.68 45 7.68 49.91 0l-15.91-53.73z" style="fill: rgb(66, 148, 247); stroke: rgb(0, 0, 0); stroke-width: 3.00413px;"/>
          <path id="path14333" d="m167.77-225.26c0 4.14-3.35 7.5-7.5 7.5-4.14 0-7.5-3.36-7.5-7.5s3.36-7.5 7.5-7.5c4.15 0 7.5 3.36 7.5 7.5z" style="fill: rgb(66, 148, 247); stroke: rgb(0, 0, 0); stroke-width: 3.00413px;"/>
          <path id="path14345" d="m175.06-236.91s4.07 4.17 4.07 12.1m-4.07 12.05s4.07-4.17 4.07-12.1" fill-rule="evenodd" stroke-linecap="round" stroke-width="6.3702" style="fill: rgb(66, 148, 247); stroke: rgb(186, 218, 85);"/>
          <path id="path14347" d="m188.95-248.99s8.14 8.35 8.14 24.21m-8.14 24.1s8.14-8.34 8.14-24.2" fill-rule="evenodd" stroke-linecap="round" stroke-width="6.3702" style="fill: rgb(66, 148, 247); stroke: rgb(186, 218, 85);"/>
          <path id="path14349" d="m204.09-261.06s12.22 12.51 12.22 36.3m-12.22 36.16s12.22-12.52 12.22-36.31" fill-rule="evenodd" stroke-linecap="round" stroke-width="6.3702" style="fill: rgb(66, 148, 247); stroke: rgb(186, 218, 85);"/>
          <path id="path14351" d="m144.77-236.91s-4.07 4.17-4.07 12.1m4.07 12.05s-4.07-4.17-4.07-12.1" fill-rule="evenodd" stroke-linecap="round" stroke-width="6.3702" style="fill: rgb(66, 148, 247); stroke: rgb(186, 218, 85);"/>
          <path id="path14353" d="m131.31-248.99s-8.15 8.35-8.15 24.21m8.15 24.1s-8.15-8.34-8.15-24.2" fill-rule="evenodd" stroke-linecap="round" stroke-width="6.3702" style="fill: rgb(66, 148, 247); stroke: rgb(186, 218, 85);"/>
          <path id="path14355" d="m116.16-261.06s-12.21 12.51-12.21 36.3m12.21 36.16s-12.21-12.52-12.21-36.31" fill-rule="evenodd" stroke-linecap="round" stroke-width="6.3702" style="fill: rgb(66, 148, 247); stroke: rgb(186, 218, 85);"/>
        </g>
        <g transform="matrix(1.256843, 0, 0, 1.256843, -47.117943, -235.186005)" style="">
          <path id="path-1" style="fill-rule: evenodd; fill: rgb(66, 148, 247);" d="M 310.647 394.297 C 310.647 394.297 310.647 370.818 348.354 370.818 C 386.107 370.818 386.107 394.297 386.107 394.297 C 386.107 394.297 386.107 405.613 348.354 405.613 C 310.647 405.613 310.647 395.565 310.647 394.297 Z"/>
          <path id="path-2" style="fill-rule: evenodd; fill: rgb(0, 0, 0);" d="M 344.832 367.86 C 329.336 367.437 319.569 373.824 314.122 380.351 C 308.769 386.784 307.266 393.358 307.266 393.545 L 307.266 393.686 C 307.219 393.827 306.938 395.283 307.407 396.926 C 307.877 398.664 309.051 400.589 311.493 402.373 C 316.376 405.895 325.627 408.806 344.832 408.947 C 363.99 409.088 374.744 406.083 380.895 402.796 C 383.994 401.152 385.919 399.556 387.093 398.1 C 388.22 396.645 388.69 395.142 388.69 395.142 L 388.831 394.438 L 388.831 393.827 C 388.831 393.827 387.751 386.971 381.646 380.491 C 375.542 374.011 364.319 367.907 344.973 367.86 L 344.832 367.86 Z M 344.644 373.73 L 344.832 373.73 C 363.051 373.73 372.255 379.364 377.232 384.624 C 381.505 389.085 382.444 392.747 382.679 393.827 C 382.632 393.921 382.726 393.827 382.398 394.297 C 381.74 395.048 380.566 396.363 378.124 397.678 C 373.194 400.26 363.333 403.078 344.832 402.937 C 326.237 402.796 318.067 399.885 315.014 397.678 C 313.512 396.551 313.23 395.752 313.089 395.33 C 312.995 394.907 312.948 395.001 312.948 395.001 L 312.948 394.86 C 312.948 394.86 314.169 389.554 318.677 384.154 C 323.232 378.754 330.745 373.307 344.644 373.73 Z"/>
          <path id="path-3" style="fill: rgb(66, 148, 247);" d="M 371.41 361.098 C 354.552 390.305 310.788 395.518 293.931 385.798 C 277.12 376.077 338.352 380.116 355.162 350.909 C 372.02 321.748 338.164 271.551 354.975 281.271 C 371.832 290.992 388.267 331.938 371.41 361.098 Z"/>
          <path id="path-4" style="fill: rgb(0, 0, 0);" d="M 353.472 278.219 C 352.439 277.984 351.171 277.891 350.091 278.642 C 349.011 279.393 348.635 280.614 348.495 281.6 C 348.354 282.586 348.307 283.619 348.495 284.652 C 349.105 288.972 351.359 294.983 353.472 302.449 C 357.698 317.287 361.549 336.634 353.754 350.11 C 345.959 363.587 327.129 369.926 311.962 373.73 C 304.355 375.655 297.828 376.829 293.743 378.425 C 292.71 378.848 291.912 379.317 291.113 379.928 C 290.315 380.491 289.47 381.524 289.329 382.839 C 289.188 384.154 289.798 385.281 290.503 386.079 C 291.254 386.878 292.146 387.441 293.32 388.098 C 302.665 393.498 318.207 394.485 333.797 390.634 C 349.434 386.784 365.164 377.909 373.992 362.601 C 382.82 347.293 382.961 329.121 378.688 313.578 C 374.462 298.035 366.057 284.934 356.712 279.534 C 355.538 278.877 354.505 278.454 353.472 278.219 Z M 353.19 283.056 C 353.519 283.197 353.754 283.291 354.364 283.666 C 361.83 287.939 370.189 300.242 374.133 314.893 C 378.124 329.543 378.077 346.354 370.048 360.253 C 362.018 374.105 347.462 382.464 332.764 386.079 C 318.067 389.695 303.134 388.474 295.668 384.154 C 295.058 383.825 294.917 383.544 294.635 383.262 C 294.917 383.121 295.058 383.027 295.527 382.839 C 298.673 381.571 305.388 380.257 313.089 378.284 C 328.538 374.387 347.931 367.297 356.994 351.613 C 366.057 335.882 362.159 316.348 357.886 301.228 C 355.726 293.715 353.66 287.235 353.19 283.948 C 353.096 283.525 353.19 283.338 353.19 283.056 Z"/>
          <path id="path-5" style="fill: rgb(48, 107, 180);" d="M 354.975 350.862 C 338.117 380.022 310.788 395.846 293.931 386.126 C 277.12 376.406 277.12 344.804 293.978 315.644 C 310.835 286.437 338.164 270.659 354.975 280.379 C 371.832 290.099 371.832 321.654 354.975 350.862 Z"/>
          <path id="path-6" style="fill: rgb(0, 0, 0);" d="M 356.712 278.407 C 347.368 273.007 335.347 274.65 323.889 281.318 C 312.385 287.939 301.115 299.632 292.475 314.517 C 283.882 329.449 279.468 344.898 279.468 358.187 C 279.468 371.476 283.976 382.792 293.32 388.192 C 302.712 393.639 314.733 391.808 326.237 385.187 C 337.741 378.566 348.964 367.015 357.557 352.082 C 366.15 337.197 370.611 321.56 370.658 308.319 C 370.658 295.03 366.103 283.807 356.712 278.407 Z M 354.364 282.492 C 361.83 286.765 365.916 296.063 365.916 308.272 C 365.916 320.527 361.736 335.46 353.472 349.735 C 345.255 364.01 334.454 374.997 323.842 381.102 C 313.277 387.206 303.134 388.427 295.668 384.154 C 288.202 379.834 284.211 370.443 284.211 358.187 C 284.211 345.978 288.296 331.14 296.56 316.865 C 304.778 302.59 315.672 291.508 326.237 285.404 C 336.849 279.252 346.898 278.172 354.364 282.492 Z"/>
          <path id="path-7" style="fill: rgb(186, 218, 85);" d="M 315.014 327.665 C 312.432 332.173 308.159 334.568 305.435 333.018 C 302.759 331.421 302.665 326.538 305.294 322.03 C 307.877 317.569 312.15 315.174 314.826 316.724 C 317.55 318.273 317.644 323.204 315.014 327.665 Z"/>
          <path id="path-8" style="fill: rgb(0, 0, 0);" d="M 315.813 315.174 C 313.746 314 311.305 314.423 309.192 315.597 C 307.126 316.771 305.247 318.696 303.792 321.185 C 302.336 323.674 301.538 326.256 301.585 328.651 C 301.632 331.046 302.618 333.488 304.684 334.661 C 306.703 335.882 309.192 335.413 311.258 334.239 C 313.371 333.065 315.249 331.187 316.705 328.651 C 318.16 326.162 318.771 323.58 318.771 321.185 C 318.724 318.79 317.879 316.348 315.813 315.174 Z M 314.075 318.414 C 314.686 318.743 315.202 319.588 315.249 321.185 C 315.249 322.734 314.639 324.754 313.465 326.773 C 312.338 328.745 310.882 330.247 309.52 330.999 C 308.112 331.797 307.079 331.844 306.421 331.468 C 305.811 331.093 305.294 330.247 305.247 328.651 C 305.247 327.101 305.717 324.941 306.844 322.922 C 308.018 320.95 309.614 319.588 310.976 318.837 C 312.338 318.086 313.418 318.039 314.075 318.414 Z"/>
          <path id="path-9" style="fill-rule: evenodd; fill: rgb(0, 0, 0);" d="M 316.94 326.632 L 314.451 330.623 L 352.016 354.102 L 354.505 350.11 L 316.94 326.632 Z"/>
        </g>
      </g>
    </g>
  </g>
</svg>