<?xml version="1.0" encoding="UTF-8" standalone="no"?><svg xmlns="http://www.w3.org/2000/svg" xmlns:xlink="http://www.w3.org/1999/xlink" contentScriptType="application/ecmascript" contentStyleType="text/css" height="289.5833px" preserveAspectRatio="none" style="width:1343px;height:289px;background:#333333;" version="1.1" viewBox="0 0 1343 289" width="1343.75px" zoomAndPan="magnify"><defs/><g><rect fill="#48494B" height="41.2028" rx="8.3333" ry="8.3333" style="stroke:#545454;stroke-width:1.0416666666666667;" width="484.375" x="422.3958" y="2.0833"/><text fill="#C0C0C0" font-family="Open Sans,Avenir,Nunito,Arial,Helvetica,SansSerif" font-size="20.8333" lengthAdjust="spacing" textLength="461.4583" x="433.8542" y="30.5583">org.apache.wicket.examples.websocket.charts</text><!--MD5=[53ae8b34bebe44116eb8626f99f3fe78]
class Runnable--><rect codeLine="6" fill="#282828" height="48.055" id="Runnable" rx="8.3333" ry="8.3333" style="stroke:#5E5E5E;stroke-width:1.0416666666666667;" width="97.9167" x="15.625" y="71.4111"/><rect fill="#1B1B1A" height="31.3883" rx="8.3333" ry="8.3333" style="stroke:#1B1B1A;stroke-width:1.0416666666666667;" width="97.9167" x="15.625" y="71.4111"/><rect fill="#1B1B1A" height="8.3333" style="stroke:#1B1B1A;stroke-width:1.0416666666666667;" width="97.9167" x="15.625" y="94.4661"/><rect codeLine="6" fill="none" height="48.055" id="Runnable" rx="8.3333" ry="8.3333" style="stroke:#5E5E5E;stroke-width:1.0416666666666667;" width="97.9167" x="15.625" y="71.4111"/><ellipse cx="30.2083" cy="87.1053" fill="#008400" rx="10.4167" ry="10.4167" style="stroke:#239C23;stroke-width:1.0416666666666667;"/><path d="M27.6123,84.2672 L27.6123,82.6803 L33.0383,82.6803 L33.0383,84.2672 L31.2256,84.2672 L31.2256,90.2059 L33.0383,90.2059 L33.0383,91.7928 L27.6123,91.7928 L27.6123,90.2059 L29.425,90.2059 L29.425,84.2672 Z " fill="#000000"/><text fill="#D8BC00" font-family="Open Sans,Avenir,Nunito,Arial,Helvetica,SansSerif" font-size="12.5" font-style="italic" font-weight="bold" lengthAdjust="spacing" textLength="60.4167" x="46.875" y="91.8294">Runnable</text><line style="stroke:#5E5E5E;stroke-width:1.0416666666666667;" x1="16.6667" x2="112.5" y1="102.7995" y2="102.7995"/><line style="stroke:#5E5E5E;stroke-width:1.0416666666666667;" x1="16.6667" x2="112.5" y1="111.1328" y2="111.1328"/><!--MD5=[c91539d24d6fb3d0d450d4b2bb7f31e0]
class ChartUpdater--><rect codeLine="8" fill="#282828" height="83.3781" id="ChartUpdater" rx="8.3333" ry="8.3333" style="stroke:#5E5E5E;stroke-width:1.0416666666666667;" width="355.2083" x="150.5208" y="53.7028"/><rect fill="#1B1B1A" height="31.3883" rx="8.3333" ry="8.3333" style="stroke:#1B1B1A;stroke-width:1.0416666666666667;" width="355.2083" x="150.5208" y="53.7028"/><rect fill="#1B1B1A" height="8.3333" style="stroke:#1B1B1A;stroke-width:1.0416666666666667;" width="355.2083" x="150.5208" y="76.7578"/><rect codeLine="8" fill="none" height="83.3781" id="ChartUpdater" rx="8.3333" ry="8.3333" style="stroke:#5E5E5E;stroke-width:1.0416666666666667;" width="355.2083" x="150.5208" y="53.7028"/><ellipse cx="277.6042" cy="69.397" fill="#0066CF" rx="10.4167" ry="10.4167" style="stroke:#0086EF;stroke-width:1.0416666666666667;"/><path d="M279.5146,73.822 Q279.0873,74.0417 278.6174,74.1516 Q278.1474,74.2615 277.6286,74.2615 Q275.7853,74.2615 274.8149,73.0469 Q273.8444,71.8323 273.8444,69.5374 Q273.8444,67.2363 274.8149,66.0217 Q275.7853,64.8071 277.6286,64.8071 Q278.1474,64.8071 278.6235,64.917 Q279.0995,65.0269 279.5146,65.2466 L279.5146,67.2485 Q279.0507,66.8213 278.6143,66.6229 Q278.1779,66.4246 277.714,66.4246 Q276.7253,66.4246 276.2217,67.2089 Q275.7182,67.9932 275.7182,69.5374 Q275.7182,71.0754 276.2217,71.8597 Q276.7253,72.644 277.714,72.644 Q278.1779,72.644 278.6143,72.4457 Q279.0507,72.2473 279.5146,71.8201 Z " fill="#000000"/><text fill="#D8BC00" font-family="Open Sans,Avenir,Nunito,Arial,Helvetica,SansSerif" font-size="12.5" font-weight="bold" lengthAdjust="spacing" textLength="86.4583" x="300.5208" y="74.1211">ChartUpdater</text><line style="stroke:#5E5E5E;stroke-width:1.5625;" x1="151.5625" x2="504.6875" y1="85.0911" y2="85.0911"/><ellipse cx="161.9792" cy="120.461" fill="#84BE84" rx="3.125" ry="3.125" style="stroke:#038048;stroke-width:1.0416666666666667;"/><text fill="#D8BC00" font-family="Open Sans,Avenir,Nunito,Arial,Helvetica,SansSerif" font-size="11.4583" lengthAdjust="spacing" textLength="322.9167" x="173.4375" y="127.3722">void start(ConnectedMessage, ScheduledExecutorService)</text><line style="stroke:#5E5E5E;stroke-width:1.0416666666666667;" x1="151.5625" x2="298.4375" y1="103.2969" y2="103.2969"/><text fill="#D8BC00" font-family="Open Sans,Avenir,Nunito,Arial,Helvetica,SansSerif" font-size="11.4583" lengthAdjust="spacing" textLength="53.125" x="301.5625" y="107.1065">(lifecycle)</text><line style="stroke:#5E5E5E;stroke-width:1.0416666666666667;" x1="357.8125" x2="504.6875" y1="103.2969" y2="103.2969"/><!--MD5=[ad528df0ee376ca6529d7fcb92fd4a92]
class WebSocketResource--><rect fill="#282828" height="48.055" id="WebSocketResource" rx="8.3333" ry="8.3333" style="stroke:#5E5E5E;stroke-width:1.0416666666666667;" width="165.625" x="542.1875" y="71.4111"/><rect fill="#1B1B1A" height="31.3883" rx="8.3333" ry="8.3333" style="stroke:#1B1B1A;stroke-width:1.0416666666666667;" width="165.625" x="542.1875" y="71.4111"/><rect fill="#1B1B1A" height="8.3333" style="stroke:#1B1B1A;stroke-width:1.0416666666666667;" width="165.625" x="542.1875" y="94.4661"/><rect fill="none" height="48.055" id="WebSocketResource" rx="8.3333" ry="8.3333" style="stroke:#5E5E5E;stroke-width:1.0416666666666667;" width="165.625" x="542.1875" y="71.4111"/><ellipse cx="556.7708" cy="87.1053" fill="#0066CF" rx="10.4167" ry="10.4167" style="stroke:#0086EF;stroke-width:1.0416666666666667;"/><path d="M558.6812,91.5304 Q558.254,91.7501 557.784,91.8599 Q557.314,91.9698 556.7952,91.9698 Q554.952,91.9698 553.9815,90.7552 Q553.0111,89.5406 553.0111,87.2457 Q553.0111,84.9447 553.9815,83.7301 Q554.952,82.5155 556.7952,82.5155 Q557.314,82.5155 557.7901,82.6253 Q558.2662,82.7352 558.6812,82.9549 L558.6812,84.9569 Q558.2174,84.5296 557.781,84.3313 Q557.3446,84.1329 556.8807,84.1329 Q555.8919,84.1329 555.3884,84.9172 Q554.8848,85.7015 554.8848,87.2457 Q554.8848,88.7838 555.3884,89.5681 Q555.8919,90.3524 556.8807,90.3524 Q557.3446,90.3524 557.781,90.154 Q558.2174,89.9556 558.6812,89.5284 Z " fill="#000000"/><text fill="#D8BC00" font-family="Open Sans,Avenir,Nunito,Arial,Helvetica,SansSerif" font-size="12.5" font-weight="bold" lengthAdjust="spacing" textLength="128.125" x="573.4375" y="91.8294">WebSocketResource</text><line style="stroke:#5E5E5E;stroke-width:1.0416666666666667;" x1="543.2292" x2="706.7708" y1="102.7995" y2="102.7995"/><line style="stroke:#5E5E5E;stroke-width:1.0416666666666667;" x1="543.2292" x2="706.7708" y1="111.1328" y2="111.1328"/><!--MD5=[e71304f100c2cabf5442b170e12366e7]
class ChartWebSocketResource--><rect codeLine="15" fill="#282828" height="48.055" id="ChartWebSocketResource" rx="8.3333" ry="8.3333" style="stroke:#5E5E5E;stroke-width:1.0416666666666667;" width="201.0417" x="524.4792" y="217.2445"/><rect fill="#1B1B1A" height="31.3883" rx="8.3333" ry="8.3333" style="stroke:#1B1B1A;stroke-width:1.0416666666666667;" width="201.0417" x="524.4792" y="217.2445"/><rect fill="#1B1B1A" height="8.3333" style="stroke:#1B1B1A;stroke-width:1.0416666666666667;" width="201.0417" x="524.4792" y="240.2995"/><rect codeLine="15" fill="none" height="48.055" id="ChartWebSocketResource" rx="8.3333" ry="8.3333" style="stroke:#5E5E5E;stroke-width:1.0416666666666667;" width="201.0417" x="524.4792" y="217.2445"/><ellipse cx="539.0625" cy="232.9386" fill="#0066CF" rx="10.4167" ry="10.4167" style="stroke:#0086EF;stroke-width:1.0416666666666667;"/><path d="M540.9729,237.3637 Q540.5457,237.5834 540.0757,237.6933 Q539.6057,237.8031 539.0869,237.8031 Q537.2437,237.8031 536.2732,236.5885 Q535.3027,235.3739 535.3027,233.079 Q535.3027,230.778 536.2732,229.5634 Q537.2437,228.3488 539.0869,228.3488 Q539.6057,228.3488 540.0818,228.4587 Q540.5579,228.5685 540.9729,228.7882 L540.9729,230.7902 Q540.509,230.363 540.0726,230.1646 Q539.6362,229.9662 539.1724,229.9662 Q538.1836,229.9662 537.6801,230.7505 Q537.1765,231.5348 537.1765,233.079 Q537.1765,234.6171 537.6801,235.4014 Q538.1836,236.1857 539.1724,236.1857 Q539.6362,236.1857 540.0726,235.9873 Q540.509,235.789 540.9729,235.3617 Z " fill="#000000"/><text fill="#D8BC00" font-family="Open Sans,Avenir,Nunito,Arial,Helvetica,SansSerif" font-size="12.5" font-weight="bold" lengthAdjust="spacing" textLength="163.5417" x="555.7292" y="237.6628">ChartWebSocketResource</text><line style="stroke:#5E5E5E;stroke-width:1.0416666666666667;" x1="525.5208" x2="724.4792" y1="248.6328" y2="248.6328"/><line style="stroke:#5E5E5E;stroke-width:1.0416666666666667;" x1="525.5208" x2="724.4792" y1="256.9661" y2="256.9661"/><!--MD5=[ac0f9b78d95376f07f7716792d2430df]
class JavaScriptResourceReference--><rect fill="#282828" height="48.055" id="JavaScriptResourceReference" rx="8.3333" ry="8.3333" style="stroke:#5E5E5E;stroke-width:1.0416666666666667;" width="221.875" x="751.5625" y="71.4111"/><rect fill="#1B1B1A" height="31.3883" rx="8.3333" ry="8.3333" style="stroke:#1B1B1A;stroke-width:1.0416666666666667;" width="221.875" x="751.5625" y="71.4111"/><rect fill="#1B1B1A" height="8.3333" style="stroke:#1B1B1A;stroke-width:1.0416666666666667;" width="221.875" x="751.5625" y="94.4661"/><rect fill="none" height="48.055" id="JavaScriptResourceReference" rx="8.3333" ry="8.3333" style="stroke:#5E5E5E;stroke-width:1.0416666666666667;" width="221.875" x="751.5625" y="71.4111"/><ellipse cx="766.1458" cy="87.1053" fill="#0066CF" rx="10.4167" ry="10.4167" style="stroke:#0086EF;stroke-width:1.0416666666666667;"/><path d="M768.0562,91.5304 Q767.629,91.7501 767.159,91.8599 Q766.689,91.9698 766.1702,91.9698 Q764.327,91.9698 763.3565,90.7552 Q762.3861,89.5406 762.3861,87.2457 Q762.3861,84.9447 763.3565,83.7301 Q764.327,82.5155 766.1702,82.5155 Q766.689,82.5155 767.1651,82.6253 Q767.6412,82.7352 768.0562,82.9549 L768.0562,84.9569 Q767.5924,84.5296 767.156,84.3313 Q766.7196,84.1329 766.2557,84.1329 Q765.2669,84.1329 764.7634,84.9172 Q764.2598,85.7015 764.2598,87.2457 Q764.2598,88.7838 764.7634,89.5681 Q765.2669,90.3524 766.2557,90.3524 Q766.7196,90.3524 767.156,90.154 Q767.5924,89.9556 768.0562,89.5284 Z " fill="#000000"/><text fill="#D8BC00" font-family="Open Sans,Avenir,Nunito,Arial,Helvetica,SansSerif" font-size="12.5" font-weight="bold" lengthAdjust="spacing" textLength="184.375" x="782.8125" y="91.8294">JavaScriptResourceReference</text><line style="stroke:#5E5E5E;stroke-width:1.0416666666666667;" x1="752.6042" x2="972.3958" y1="102.7995" y2="102.7995"/><line style="stroke:#5E5E5E;stroke-width:1.0416666666666667;" x1="752.6042" x2="972.3958" y1="111.1328" y2="111.1328"/><!--MD5=[80b35c6f5f43b042d06c4d6f3b2541b6]
class ChartsResourceReference--><rect codeLine="20" fill="#282828" height="83.3781" id="ChartsResourceReference" rx="8.3333" ry="8.3333" style="stroke:#5E5E5E;stroke-width:1.0416666666666667;" width="201.0417" x="761.9792" y="199.5361"/><rect fill="#1B1B1A" height="31.3883" rx="8.3333" ry="8.3333" style="stroke:#1B1B1A;stroke-width:1.0416666666666667;" width="201.0417" x="761.9792" y="199.5361"/><rect fill="#1B1B1A" height="8.3333" style="stroke:#1B1B1A;stroke-width:1.0416666666666667;" width="201.0417" x="761.9792" y="222.5911"/><rect codeLine="20" fill="none" height="83.3781" id="ChartsResourceReference" rx="8.3333" ry="8.3333" style="stroke:#5E5E5E;stroke-width:1.0416666666666667;" width="201.0417" x="761.9792" y="199.5361"/><ellipse cx="776.5625" cy="215.2303" fill="#0066CF" rx="10.4167" ry="10.4167" style="stroke:#0086EF;stroke-width:1.0416666666666667;"/><path d="M778.4729,219.6554 Q778.0457,219.8751 777.5757,219.9849 Q777.1057,220.0948 776.5869,220.0948 Q774.7437,220.0948 773.7732,218.8802 Q772.8027,217.6656 772.8027,215.3707 Q772.8027,213.0697 773.7732,211.8551 Q774.7437,210.6405 776.5869,210.6405 Q777.1057,210.6405 777.5818,210.7503 Q778.0579,210.8602 778.4729,211.0799 L778.4729,213.0819 Q778.009,212.6546 777.5726,212.4563 Q777.1362,212.2579 776.6724,212.2579 Q775.6836,212.2579 775.1801,213.0422 Q774.6765,213.8265 774.6765,215.3707 Q774.6765,216.9088 775.1801,217.6931 Q775.6836,218.4774 776.6724,218.4774 Q777.1362,218.4774 777.5726,218.279 Q778.009,218.0806 778.4729,217.6534 Z " fill="#000000"/><text fill="#D8BC00" font-family="Open Sans,Avenir,Nunito,Arial,Helvetica,SansSerif" font-size="12.5" font-weight="bold" lengthAdjust="spacing" textLength="163.5417" x="793.2292" y="219.9544">ChartsResourceReference</text><line style="stroke:#5E5E5E;stroke-width:1.5625;" x1="763.0208" x2="961.9792" y1="230.9245" y2="230.9245"/><ellipse cx="773.4375" cy="266.2944" fill="#84BE84" rx="3.125" ry="3.125" style="stroke:#038048;stroke-width:1.0416666666666667;"/><text fill="#D8BC00" font-family="Open Sans,Avenir,Nunito,Arial,Helvetica,SansSerif" font-size="11.4583" lengthAdjust="spacing" textLength="153.125" x="784.8958" y="273.2056">ChartsResourceReference()</text><line style="stroke:#5E5E5E;stroke-width:1.0416666666666667;" x1="763.0208" x2="818.75" y1="249.1302" y2="249.1302"/><text fill="#D8BC00" font-family="Open Sans,Avenir,Nunito,Arial,Helvetica,SansSerif" font-size="11.4583" lengthAdjust="spacing" textLength="81.25" x="821.875" y="252.9399">(constructors)</text><line style="stroke:#5E5E5E;stroke-width:1.0416666666666667;" x1="906.25" x2="961.9792" y1="249.1302" y2="249.1302"/><!--MD5=[6e66b203472d735e4cad0905cba77197]
class ChartUpdater.Record--><rect codeLine="26" fill="#282828" height="48.055" id="ChartUpdater.Record" rx="8.3333" ry="8.3333" style="stroke:#5E5E5E;stroke-width:1.0416666666666667;" width="170.8333" x="1010.4167" y="71.4111"/><rect fill="#1B1B1A" height="31.3883" rx="8.3333" ry="8.3333" style="stroke:#1B1B1A;stroke-width:1.0416666666666667;" width="170.8333" x="1010.4167" y="71.4111"/><rect fill="#1B1B1A" height="8.3333" style="stroke:#1B1B1A;stroke-width:1.0416666666666667;" width="170.8333" x="1010.4167" y="94.4661"/><rect codeLine="26" fill="none" height="48.055" id="ChartUpdater.Record" rx="8.3333" ry="8.3333" style="stroke:#5E5E5E;stroke-width:1.0416666666666667;" width="170.8333" x="1010.4167" y="71.4111"/><ellipse cx="1025" cy="87.1053" fill="#0066CF" rx="10.4167" ry="10.4167" style="stroke:#0086EF;stroke-width:1.0416666666666667;"/><path d="M1026.9104,91.5304 Q1026.4832,91.7501 1026.0132,91.8599 Q1025.5432,91.9698 1025.0244,91.9698 Q1023.1812,91.9698 1022.2107,90.7552 Q1021.2402,89.5406 1021.2402,87.2457 Q1021.2402,84.9447 1022.2107,83.7301 Q1023.1812,82.5155 1025.0244,82.5155 Q1025.5432,82.5155 1026.0193,82.6253 Q1026.4954,82.7352 1026.9104,82.9549 L1026.9104,84.9569 Q1026.4465,84.5296 1026.0101,84.3313 Q1025.5737,84.1329 1025.1099,84.1329 Q1024.1211,84.1329 1023.6176,84.9172 Q1023.114,85.7015 1023.114,87.2457 Q1023.114,88.7838 1023.6176,89.5681 Q1024.1211,90.3524 1025.1099,90.3524 Q1025.5737,90.3524 1026.0101,90.154 Q1026.4465,89.9556 1026.9104,89.5284 Z " fill="#000000"/><text fill="#D8BC00" font-family="Open Sans,Avenir,Nunito,Arial,Helvetica,SansSerif" font-size="12.5" font-weight="bold" lengthAdjust="spacing" textLength="133.3333" x="1041.6667" y="91.8294">ChartUpdater.Record</text><line style="stroke:#5E5E5E;stroke-width:1.0416666666666667;" x1="1011.4583" x2="1180.2083" y1="102.7995" y2="102.7995"/><line style="stroke:#5E5E5E;stroke-width:1.0416666666666667;" x1="1011.4583" x2="1180.2083" y1="111.1328" y2="111.1328"/><!--MD5=[a69a4656a775dc59e2babc3418ccedbb]
class ChartUpdater.UpdateTask--><rect codeLine="31" fill="#282828" height="48.055" id="ChartUpdater.UpdateTask" rx="8.3333" ry="8.3333" style="stroke:#5E5E5E;stroke-width:1.0416666666666667;" width="114.5833" x="7.2917" y="217.2445"/><rect fill="#1B1B1A" height="31.3883" rx="8.3333" ry="8.3333" style="stroke:#1B1B1A;stroke-width:1.0416666666666667;" width="114.5833" x="7.2917" y="217.2445"/><rect fill="#1B1B1A" height="8.3333" style="stroke:#1B1B1A;stroke-width:1.0416666666666667;" width="114.5833" x="7.2917" y="240.2995"/><rect codeLine="31" fill="none" height="48.055" id="ChartUpdater.UpdateTask" rx="8.3333" ry="8.3333" style="stroke:#5E5E5E;stroke-width:1.0416666666666667;" width="114.5833" x="7.2917" y="217.2445"/><ellipse cx="21.875" cy="232.9386" fill="#0066CF" rx="10.4167" ry="10.4167" style="stroke:#0086EF;stroke-width:1.0416666666666667;"/><path d="M23.7854,237.3637 Q23.3582,237.5834 22.8882,237.6933 Q22.4182,237.8031 21.8994,237.8031 Q20.0562,237.8031 19.0857,236.5885 Q18.1152,235.3739 18.1152,233.079 Q18.1152,230.778 19.0857,229.5634 Q20.0562,228.3488 21.8994,228.3488 Q22.4182,228.3488 22.8943,228.4587 Q23.3704,228.5685 23.7854,228.7882 L23.7854,230.7902 Q23.3215,230.363 22.8851,230.1646 Q22.4487,229.9662 21.9849,229.9662 Q20.9961,229.9662 20.4926,230.7505 Q19.989,231.5348 19.989,233.079 Q19.989,234.6171 20.4926,235.4014 Q20.9961,236.1857 21.9849,236.1857 Q22.4487,236.1857 22.8851,235.9873 Q23.3215,235.789 23.7854,235.3617 Z " fill="#000000"/><text fill="#D8BC00" font-family="Open Sans,Avenir,Nunito,Arial,Helvetica,SansSerif" font-size="12.5" font-weight="bold" lengthAdjust="spacing" textLength="77.0833" x="38.5417" y="237.6628">UpdateTask</text><line style="stroke:#5E5E5E;stroke-width:1.0416666666666667;" x1="8.3333" x2="120.8333" y1="248.6328" y2="248.6328"/><line style="stroke:#5E5E5E;stroke-width:1.0416666666666667;" x1="8.3333" x2="120.8333" y1="256.9661" y2="256.9661"/><!--MD5=[0174392a0c212c3b3e97bee69152624c]
class Panel--><rect fill="#282828" height="48.055" id="Panel" rx="8.3333" ry="8.3333" style="stroke:#5E5E5E;stroke-width:1.0416666666666667;" width="71.875" x="1218.2292" y="71.4111"/><rect fill="#1B1B1A" height="31.3883" rx="8.3333" ry="8.3333" style="stroke:#1B1B1A;stroke-width:1.0416666666666667;" width="71.875" x="1218.2292" y="71.4111"/><rect fill="#1B1B1A" height="8.3333" style="stroke:#1B1B1A;stroke-width:1.0416666666666667;" width="71.875" x="1218.2292" y="94.4661"/><rect fill="none" height="48.055" id="Panel" rx="8.3333" ry="8.3333" style="stroke:#5E5E5E;stroke-width:1.0416666666666667;" width="71.875" x="1218.2292" y="71.4111"/><ellipse cx="1232.8125" cy="87.1053" fill="#0066CF" rx="10.4167" ry="10.4167" style="stroke:#0086EF;stroke-width:1.0416666666666667;"/><path d="M1234.7229,91.5304 Q1234.2957,91.7501 1233.8257,91.8599 Q1233.3557,91.9698 1232.8369,91.9698 Q1230.9937,91.9698 1230.0232,90.7552 Q1229.0527,89.5406 1229.0527,87.2457 Q1229.0527,84.9447 1230.0232,83.7301 Q1230.9937,82.5155 1232.8369,82.5155 Q1233.3557,82.5155 1233.8318,82.6253 Q1234.3079,82.7352 1234.7229,82.9549 L1234.7229,84.9569 Q1234.259,84.5296 1233.8226,84.3313 Q1233.3862,84.1329 1232.9224,84.1329 Q1231.9336,84.1329 1231.4301,84.9172 Q1230.9265,85.7015 1230.9265,87.2457 Q1230.9265,88.7838 1231.4301,89.5681 Q1231.9336,90.3524 1232.9224,90.3524 Q1233.3862,90.3524 1233.8226,90.154 Q1234.259,89.9556 1234.7229,89.5284 Z " fill="#000000"/><text fill="#D8BC00" font-family="Open Sans,Avenir,Nunito,Arial,Helvetica,SansSerif" font-size="12.5" font-weight="bold" lengthAdjust="spacing" textLength="34.375" x="1249.4792" y="91.8294">Panel</text><line style="stroke:#5E5E5E;stroke-width:1.0416666666666667;" x1="1219.2708" x2="1289.0625" y1="102.7995" y2="102.7995"/><line style="stroke:#5E5E5E;stroke-width:1.0416666666666667;" x1="1219.2708" x2="1289.0625" y1="111.1328" y2="111.1328"/><!--MD5=[ab8efbe5e710f2916f84e1fb9bff67b8]
class WebSocketChart--><rect codeLine="36" fill="#282828" height="83.3781" id="WebSocketChart" rx="8.3333" ry="8.3333" style="stroke:#5E5E5E;stroke-width:1.0416666666666667;" width="164.5833" x="1171.875" y="199.5361"/><rect fill="#1B1B1A" height="31.3883" rx="8.3333" ry="8.3333" style="stroke:#1B1B1A;stroke-width:1.0416666666666667;" width="164.5833" x="1171.875" y="199.5361"/><rect fill="#1B1B1A" height="8.3333" style="stroke:#1B1B1A;stroke-width:1.0416666666666667;" width="164.5833" x="1171.875" y="222.5911"/><rect codeLine="36" fill="none" height="83.3781" id="WebSocketChart" rx="8.3333" ry="8.3333" style="stroke:#5E5E5E;stroke-width:1.0416666666666667;" width="164.5833" x="1171.875" y="199.5361"/><ellipse cx="1196.3021" cy="215.2303" fill="#0066CF" rx="10.4167" ry="10.4167" style="stroke:#0086EF;stroke-width:1.0416666666666667;"/><path d="M1198.2125,219.6554 Q1197.7852,219.8751 1197.3153,219.9849 Q1196.8453,220.0948 1196.3265,220.0948 Q1194.4832,220.0948 1193.5128,218.8802 Q1192.5423,217.6656 1192.5423,215.3707 Q1192.5423,213.0697 1193.5128,211.8551 Q1194.4832,210.6405 1196.3265,210.6405 Q1196.8453,210.6405 1197.3214,210.7503 Q1197.7974,210.8602 1198.2125,211.0799 L1198.2125,213.0819 Q1197.7486,212.6546 1197.3122,212.4563 Q1196.8758,212.2579 1196.4119,212.2579 Q1195.4232,212.2579 1194.9196,213.0422 Q1194.4161,213.8265 1194.4161,215.3707 Q1194.4161,216.9088 1194.9196,217.6931 Q1195.4232,218.4774 1196.4119,218.4774 Q1196.8758,218.4774 1197.3122,218.279 Q1197.7486,218.0806 1198.2125,217.6534 Z " fill="#000000"/><text fill="#D8BC00" font-family="Open Sans,Avenir,Nunito,Arial,Helvetica,SansSerif" font-size="12.5" font-weight="bold" lengthAdjust="spacing" textLength="105.2083" x="1215.1563" y="219.9544">WebSocketChart</text><line style="stroke:#5E5E5E;stroke-width:1.5625;" x1="1172.9167" x2="1335.4167" y1="230.9245" y2="230.9245"/><ellipse cx="1183.3333" cy="266.2944" fill="#84BE84" rx="3.125" ry="3.125" style="stroke:#038048;stroke-width:1.0416666666666667;"/><text fill="#D8BC00" font-family="Open Sans,Avenir,Nunito,Arial,Helvetica,SansSerif" font-size="11.4583" lengthAdjust="spacing" textLength="132.2917" x="1194.7917" y="273.2056">WebSocketChart(String)</text><line style="stroke:#5E5E5E;stroke-width:1.0416666666666667;" x1="1172.9167" x2="1210.4167" y1="249.1302" y2="249.1302"/><text fill="#D8BC00" font-family="Open Sans,Avenir,Nunito,Arial,Helvetica,SansSerif" font-size="11.4583" lengthAdjust="spacing" textLength="81.25" x="1213.5417" y="252.9399">(constructors)</text><line style="stroke:#5E5E5E;stroke-width:1.0416666666666667;" x1="1297.9167" x2="1335.4167" y1="249.1302" y2="249.1302"/><!--MD5=[fa6b7ba779acb56ede88fca5c551bcc3]
reverse link WebSocketResource to ChartWebSocketResource--><path codeLine="14" d="M625,140.3695 C625,165.6924 625,196.4945 625,217.1195 " fill="none" id="WebSocketResource-backto-ChartWebSocketResource" style="stroke:#545454;stroke-width:1.5625;"/><polygon fill="none" points="617.7083,140.3382,625,119.5049,632.2917,140.3382,617.7083,140.3382" style="stroke:#545454;stroke-width:1.5625;"/><!--MD5=[a8fe7708fbbca693488e84b6a4e72148]
reverse link JavaScriptResourceReference to ChartsResourceReference--><path codeLine="19" d="M862.5,140.4945 C862.5,159.2757 862.5,181.0361 862.5,199.4215 " fill="none" id="JavaScriptResourceReference-backto-ChartsResourceReference" style="stroke:#545454;stroke-width:1.5625;"/><polygon fill="none" points="855.2083,140.3382,862.5,119.5049,869.7917,140.3382,855.2083,140.3382" style="stroke:#545454;stroke-width:1.5625;"/><!--MD5=[8fa1c4f0cb855f799b42590924c6bfd4]
reverse link Runnable to ChartUpdater.UpdateTask--><path codeLine="30" d="M64.5833,140.3695 C64.5833,165.6924 64.5833,196.4945 64.5833,217.1195 " fill="none" id="Runnable-backto-ChartUpdater.UpdateTask" style="stroke:#545454;stroke-width:1.5625;"/><polygon fill="none" points="57.2917,140.3382,64.5833,119.5049,71.875,140.3382,57.2917,140.3382" style="stroke:#545454;stroke-width:1.5625;"/><!--MD5=[764951c94413a7684de963c004032f09]
reverse link Panel to WebSocketChart--><path codeLine="35" d="M1254.1667,140.4945 C1254.1667,159.2757 1254.1667,181.0361 1254.1667,199.4215 " fill="none" id="Panel-backto-WebSocketChart" style="stroke:#545454;stroke-width:1.5625;"/><polygon fill="none" points="1246.875,140.3382,1254.1667,119.5049,1261.4583,140.3382,1246.875,140.3382" style="stroke:#545454;stroke-width:1.5625;"/><!--MD5=[820b0195650d206f1f014e697a5eee5a]
@startuml

    !include lexakai.theme
    
    title "org.apache.wicket.examples.websocket.charts"
    
    interface Runnable
    
    class ChartUpdater
    {
        - -(lifecycle)- -
        +void start(ConnectedMessage, ScheduledExecutorService)
    }
    
    WebSocketResource <|- - ChartWebSocketResource
    class ChartWebSocketResource
    {
    }
    
    JavaScriptResourceReference <|- - ChartsResourceReference
    class ChartsResourceReference
    {
        - -(constructors)- -
        +ChartsResourceReference()
    }
    
    class ChartUpdater.Record
    {
    }
    
    Runnable <|- - ChartUpdater.UpdateTask
    class ChartUpdater.UpdateTask
    {
    }
    
    Panel <|- - WebSocketChart
    class WebSocketChart
    {
        - -(constructors)- -
        +WebSocketChart(String)
    }
    
@enduml

@startuml









skinparam backgroundColor #333333






skinparam  {
    defaultFontName   "Open Sans,Avenir,Nunito,Arial,Helvetica,SansSerif"
    defaultFontSize   12
    defaultTextAlignment left
    shadowing false
    RoundCorner 10
    TitleFontSize 18
}

skinparam defaultFontName       "Open Sans,Avenir,Nunito,Arial,Helvetica,SansSerif"
skinparam defaultFontSize       12
skinparam dpi                   100
skinparam shadowing             false
skinparam roundcorner           16
skinparam ParticipantPadding    40
skinparam BoxPadding            40
skinparam Padding               3
skinparam ArrowColor            #545454
skinparam stereotype {
    CBackgroundColor #0066cf
    CBorderColor #0086ef
    ABackgroundColor #C8Ac00
    ABorderColor #D8Bc00
    IBackgroundColor #008400
    IBorderColor #239c23
    EBackgroundColor #cf6300
    EBorderColor #ef8300
    NBackgroundColor #3380b9
    NBorderColor #004d86
}
skinparam title {
	FontColor	                 #c0c0c0
 	BorderColor                  #545454
	FontSize	    	         20
	BorderRoundCorner            16
	BorderThickness 	         1
	BackgroundColor              #48494b
}


skinparam legend {
	BackgroundColor #303030
	BorderColor #404040
	FontColor #a0a0a0
}

	skinparam swimlane {
	BorderColor #5e5e5e
	BorderThickness 2
	TitleBackgroundColor  #6d6d6d-#484848
	TitleFontColor #303030
}

skinparam activity {
		FontColor #C8Ac00
	BorderColor #333333
	BackgroundColor #333333-#333333
	BarColor #00FF00
	StartColor #0060a8
	EndColor #0060a8
	DiamondBackgroundColor #6d6d6d-#3a3a3a
  	DiamondBorderColor #3a3a3a
  	DiamondFontColor #fefefe
}


skinparam participant {
		FontColor #C8Ac00
	BorderColor #333333
	BackgroundColor #333333-#333333
	ParticipantBorderThickness 2
}


skinparam actor {
		FontColor #C8Ac00
	BorderColor #333333
	BackgroundColor #333333-#333333
}


skinparam arrow {
	Thickness 1.5
	Color #545454
	FontColor #a0a0a0
    FontStyle bold
    MessageAlignment center
}



skinparam sequence {
	BorderColor #303030
	TitleFontColor #303030
	BackgroundColor #333333
	StartColor #303030
	EndColor #303030
	BoxBackgroundColor #333333
	BoxBorderColor #484848
	BoxFontColor #484848
	LifeLineBorderColor #484848
	LifeLineBorderThickness 2
	LifeLineBackgroundColor #3a3a3a
	GroupBorderColor #484848
	GroupFontColor #484848
	GroupHeaderFontColor #0060a8
	GroupBackgroundColor #484848
	GroupHeaderBackgroundColor #333333
	DividerBackgroundColor #484848
    DividerBorderColor #484848
    DividerBorderThickness 2
    DividerFontColor #D8Bc00
	ReferenceBackgroundColor #333333
	ReferenceBorderColor #484848
	ReferenceFontColor #fefefe
	ReferenceHeaderBackgroundColor #484848
}


skinparam partition {
	BorderColor #303030
	FontColor #333333
	BackgroundColor #333333
}


skinparam collections {
		FontColor #C8Ac00
	BorderColor #333333
	BackgroundColor #333333-#333333
}


skinparam control {
		FontColor #C8Ac00
	BorderColor #333333
	BackgroundColor #333333-#333333
}


skinparam entity {
		FontColor #C8Ac00
	BorderColor #333333
	BackgroundColor #333333-#333333
}


skinparam boundary {
		FontColor #C8Ac00
	BorderColor #333333
	BackgroundColor #333333-#333333
}


skinparam agent {
	BackgroundColor #ff8000
	BorderColor #ff9933
	FontColor #484848
}


skinparam note {
	BorderThickness 1
	BackgroundColor #1b1b1a
	BorderColor #5e5e5e
	FontSize 11
	FontColor #a0a0a0
}


skinparam artifact {
	BorderThickness 10
	BorderColor #5e5e5e
	BackgroundColor #1b1b1a
	FontColor #D8Bc00
}


skinparam component {
		FontColor #C8Ac00
	BorderColor #333333
	BackgroundColor #333333-#333333
}


skinparam interface {
	BackgroundColor  #008400
	BorderColor  #007F00
	FontColor #484848
}


skinparam storage {
	BackgroundColor #ff8000
  	BorderColor #cc6600
	FontColor #222222
}


skinparam node {
	BackgroundColor #333333
	BorderColor #333333
	FontColor #C8Ac00
}


skinparam cloud {
	BackgroundColor #484848-black
	BorderColor #484848
	FontColor #D8Bc00
}


skinparam database {
		FontColor #C8Ac00
	BorderColor #333333
	BackgroundColor #333333-#333333
	BackgroundColor  #333333
}


skinparam class {
		FontColor #C8Ac00
	BorderColor #333333
	BackgroundColor #333333-#333333
	HeaderBackgroundColor #1b1b1a
    BackgroundColor #282828
    BorderColor #5e5e5e
 	StereotypeFontColor #a0a0a0
    StereotypeFontStyle bold
	BorderThickness 1
	AttributeFontColor #D8Bc00
	AttributeFontSize 11
    FontColor #D8Bc00
    FontStyle bold
}


skinparam object {
		FontColor #C8Ac00
	BorderColor #333333
	BackgroundColor #333333-#333333
	StereotypeFontColor #484848
	BorderThickness 1
	AttributeFontColor #fefefe
	AttributeFontSize 11
}


skinparam usecase {
		FontColor #C8Ac00
	BorderColor #333333
	BackgroundColor #333333-#333333
	BorderThickness 2
	StereotypeFontColor #303030
}


skinparam rectangle {
		FontColor #C8Ac00
	BorderColor #333333
	BackgroundColor #333333-#333333
	BackgroundColor #333333
	BorderThickness 2
	StereotypeFontColor #303030
}


skinparam package {
		FontColor #C8Ac00
	BorderColor #333333
	BackgroundColor #333333-#333333
	BackgroundColor #333333
	BorderThickness 2
}


skinparam folder {
	BackgroundColor #6d6d6d
  	BorderColor #ff8000
	FontColor #ff8000
	BorderThickness 2
}


skinparam frame {
	BackgroundColor #6d6d6d
  	BorderColor #0060a8
	FontColor #0060a8
	BorderThickness 2
}


skinparam state {
		FontColor #C8Ac00
	BorderColor #333333
	BackgroundColor #333333-#333333
	StartColor #0060a8
	EndColor #0060a8
	AttributeFontColor #fefefe
	AttributeFontSize 11
}


skinparam queue {
		FontColor #C8Ac00
	BorderColor #333333
	BackgroundColor #333333-#333333
}


skinparam card {
	BackgroundColor #0060a8
	BorderColor #004d86
	FontColor $INFO_TEXT
}


skinparam file {
	BackgroundColor #6d6d6d-#484848
	BorderColor #0060a8
	FontColor #fefefe
}


skinparam stack {
		FontColor #C8Ac00
	BorderColor #333333
	BackgroundColor #333333-#333333
}

    
    title "org.apache.wicket.examples.websocket.charts"
    
    interface Runnable
    
    class ChartUpdater
    {
        - -(lifecycle)- -
        +void start(ConnectedMessage, ScheduledExecutorService)
    }
    
    WebSocketResource <|- - ChartWebSocketResource
    class ChartWebSocketResource
    {
    }
    
    JavaScriptResourceReference <|- - ChartsResourceReference
    class ChartsResourceReference
    {
        - -(constructors)- -
        +ChartsResourceReference()
    }
    
    class ChartUpdater.Record
    {
    }
    
    Runnable <|- - ChartUpdater.UpdateTask
    class ChartUpdater.UpdateTask
    {
    }
    
    Panel <|- - WebSocketChart
    class WebSocketChart
    {
        - -(constructors)- -
        +WebSocketChart(String)
    }
    
@enduml

PlantUML version 1.2021.01(Tue Feb 02 00:55:08 MST 2021)
(GPL source distribution)
Java Runtime: Java(TM) SE Runtime Environment
JVM: Java HotSpot(TM) 64-Bit Server VM
Default Encoding: UTF-8
Language: en
Country: US
--></g></svg>