<?xml version="1.0" encoding="UTF-8" standalone="no"?><svg xmlns="http://www.w3.org/2000/svg" xmlns:xlink="http://www.w3.org/1999/xlink" contentScriptType="application/ecmascript" contentStyleType="text/css" height="428.125px" preserveAspectRatio="none" style="width:839px;height:428px;background:#333333;" version="1.1" viewBox="0 0 839 428" width="839.5833px" zoomAndPan="magnify"><defs/><g><rect fill="#48494B" height="41.2028" rx="8.3333" ry="8.3333" style="stroke:#545454;stroke-width:1.0416666666666667;" width="389.5833" x="217.7083" y="2.0833"/><text fill="#C0C0C0" font-family="Open Sans,Avenir,Nunito,Arial,Helvetica,SansSerif" font-size="20.8333" lengthAdjust="spacing" textLength="366.6667" x="229.1667" y="30.5583">org.apache.wicket.examples.captcha</text><!--MD5=[ef9eaa294f19698199d130f58b97cbda]
class AbstractCaptchaForm--><rect codeLine="9" fill="#282828" height="111.4563" id="AbstractCaptchaForm" rx="8.3333" ry="8.3333" style="stroke:#5E5E5E;stroke-width:1.0416666666666667;" width="340.625" x="79.6875" y="164.1195"/><rect fill="#1B1B1A" height="31.3883" rx="8.3333" ry="8.3333" style="stroke:#1B1B1A;stroke-width:1.0416666666666667;" width="340.625" x="79.6875" y="164.1195"/><rect fill="#1B1B1A" height="8.3333" style="stroke:#1B1B1A;stroke-width:1.0416666666666667;" width="340.625" x="79.6875" y="187.1745"/><rect codeLine="9" fill="none" height="111.4563" id="AbstractCaptchaForm" rx="8.3333" ry="8.3333" style="stroke:#5E5E5E;stroke-width:1.0416666666666667;" width="340.625" x="79.6875" y="164.1195"/><ellipse cx="163.5417" cy="179.8136" fill="#C8AC00" rx="10.4167" ry="10.4167" style="stroke:#D8BC00;stroke-width:1.0416666666666667;"/><path d="M163.1348,176.5157 L162.2864,180.245 L163.9893,180.245 Z M162.0361,174.8678 L164.2395,174.8678 L166.6992,183.9803 L164.8987,183.9803 L164.3372,181.7281 L161.9263,181.7281 L161.377,183.9803 L159.5764,183.9803 Z " fill="#000000"/><text fill="#D8BC00" font-family="Open Sans,Avenir,Nunito,Arial,Helvetica,SansSerif" font-size="12.5" font-style="italic" font-weight="bold" lengthAdjust="spacing" textLength="139.5833" x="186.4583" y="184.5378">AbstractCaptchaForm</text><rect fill="#333333" height="23.055" style="stroke:#A0A0A0;stroke-width:1.0416666666666667;stroke-dasharray:2.0,2.0;" width="16.6667" x="406.7708" y="160.9945"/><text fill="#A0A0A0" font-family="Open Sans,Avenir,Nunito,Arial,Helvetica,SansSerif" font-size="12.5" font-weight="bold" lengthAdjust="spacing" textLength="8.3333" x="410.9375" y="177.2461">T</text><line style="stroke:#5E5E5E;stroke-width:1.5625;" x1="80.7292" x2="419.2708" y1="195.5078" y2="195.5078"/><ellipse cx="91.1458" cy="230.8777" fill="#84BE84" rx="3.125" ry="3.125" style="stroke:#038048;stroke-width:1.0416666666666667;"/><text fill="#D8BC00" font-family="Open Sans,Avenir,Nunito,Arial,Helvetica,SansSerif" font-size="11.4583" lengthAdjust="spacing" textLength="164.5833" x="102.6042" y="237.7889">AbstractCaptchaForm(String)</text><line style="stroke:#5E5E5E;stroke-width:1.0416666666666667;" x1="80.7292" x2="206.25" y1="213.7136" y2="213.7136"/><text fill="#D8BC00" font-family="Open Sans,Avenir,Nunito,Arial,Helvetica,SansSerif" font-size="11.4583" lengthAdjust="spacing" textLength="81.25" x="209.375" y="217.5232">(constructors)</text><line style="stroke:#5E5E5E;stroke-width:1.0416666666666667;" x1="293.75" x2="419.2708" y1="213.7136" y2="213.7136"/><line style="stroke:#5E5E5E;stroke-width:1.0416666666666667;" x1="80.7292" x2="419.2708" y1="247.4976" y2="247.4976"/><polygon fill="#FFFF44" points="91.1458,253.7476,95.3125,257.9142,91.1458,262.0809,86.9792,257.9142" style="stroke:#B38D22;stroke-width:1.0416666666666667;"/><text fill="#D8BC00" font-family="Open Sans,Avenir,Nunito,Arial,Helvetica,SansSerif" font-size="11.4583" lengthAdjust="spacing" textLength="308.3333" x="102.6042" y="265.8671">CaptchaImageResource createCaptchaImageResource()</text><!--MD5=[22a97772e34d25211b0c5684f54f6964]
class GenericPanel--><rect fill="#282828" height="48.055" id="GenericPanel" rx="8.3333" ry="8.3333" style="stroke:#5E5E5E;stroke-width:1.0416666666666667;" width="119.7917" x="190.1042" y="53.7028"/><rect fill="#1B1B1A" height="31.3883" rx="8.3333" ry="8.3333" style="stroke:#1B1B1A;stroke-width:1.0416666666666667;" width="119.7917" x="190.1042" y="53.7028"/><rect fill="#1B1B1A" height="8.3333" style="stroke:#1B1B1A;stroke-width:1.0416666666666667;" width="119.7917" x="190.1042" y="76.7578"/><rect fill="none" height="48.055" id="GenericPanel" rx="8.3333" ry="8.3333" style="stroke:#5E5E5E;stroke-width:1.0416666666666667;" width="119.7917" x="190.1042" y="53.7028"/><ellipse cx="204.6875" cy="69.397" fill="#0066CF" rx="10.4167" ry="10.4167" style="stroke:#0086EF;stroke-width:1.0416666666666667;"/><path d="M206.5979,73.822 Q206.1707,74.0417 205.7007,74.1516 Q205.2307,74.2615 204.7119,74.2615 Q202.8687,74.2615 201.8982,73.0469 Q200.9277,71.8323 200.9277,69.5374 Q200.9277,67.2363 201.8982,66.0217 Q202.8687,64.8071 204.7119,64.8071 Q205.2307,64.8071 205.7068,64.917 Q206.1829,65.0269 206.5979,65.2466 L206.5979,67.2485 Q206.134,66.8213 205.6976,66.6229 Q205.2612,66.4246 204.7974,66.4246 Q203.8086,66.4246 203.3051,67.2089 Q202.8015,67.9932 202.8015,69.5374 Q202.8015,71.0754 203.3051,71.8597 Q203.8086,72.644 204.7974,72.644 Q205.2612,72.644 205.6976,72.4457 Q206.134,72.2473 206.5979,71.8201 Z " fill="#000000"/><text fill="#D8BC00" font-family="Open Sans,Avenir,Nunito,Arial,Helvetica,SansSerif" font-size="12.5" font-weight="bold" lengthAdjust="spacing" textLength="82.2917" x="221.3542" y="74.1211">GenericPanel</text><line style="stroke:#5E5E5E;stroke-width:1.0416666666666667;" x1="191.1458" x2="308.8542" y1="85.0911" y2="85.0911"/><line style="stroke:#5E5E5E;stroke-width:1.0416666666666667;" x1="191.1458" x2="308.8542" y1="93.4245" y2="93.4245"/><!--MD5=[df5ab42c0c32237e224a53f8eb386c79]
class CageForm--><rect codeLine="18" fill="#282828" height="83.3781" id="CageForm" rx="8.3333" ry="8.3333" style="stroke:#5E5E5E;stroke-width:1.0416666666666667;" width="131.25" x="7.2917" y="338.0778"/><rect fill="#1B1B1A" height="31.3883" rx="8.3333" ry="8.3333" style="stroke:#1B1B1A;stroke-width:1.0416666666666667;" width="131.25" x="7.2917" y="338.0778"/><rect fill="#1B1B1A" height="8.3333" style="stroke:#1B1B1A;stroke-width:1.0416666666666667;" width="131.25" x="7.2917" y="361.1328"/><rect codeLine="18" fill="none" height="83.3781" id="CageForm" rx="8.3333" ry="8.3333" style="stroke:#5E5E5E;stroke-width:1.0416666666666667;" width="131.25" x="7.2917" y="338.0778"/><ellipse cx="26.0938" cy="353.772" fill="#0066CF" rx="10.4167" ry="10.4167" style="stroke:#0086EF;stroke-width:1.0416666666666667;"/><path d="M28.0042,358.197 Q27.5769,358.4167 27.1069,358.5266 Q26.637,358.6365 26.1182,358.6365 Q24.2749,358.6365 23.3044,357.4219 Q22.334,356.2073 22.334,353.9124 Q22.334,351.6113 23.3044,350.3967 Q24.2749,349.1821 26.1182,349.1821 Q26.637,349.1821 27.113,349.292 Q27.5891,349.4019 28.0042,349.6216 L28.0042,351.6235 Q27.5403,351.1963 27.1039,350.9979 Q26.6675,350.7996 26.2036,350.7996 Q25.2148,350.7996 24.7113,351.5839 Q24.2078,352.3682 24.2078,353.9124 Q24.2078,355.4504 24.7113,356.2347 Q25.2148,357.019 26.2036,357.019 Q26.6675,357.019 27.1039,356.8207 Q27.5403,356.6223 28.0042,356.1951 Z " fill="#000000"/><text fill="#D8BC00" font-family="Open Sans,Avenir,Nunito,Arial,Helvetica,SansSerif" font-size="12.5" font-weight="bold" lengthAdjust="spacing" textLength="65.625" x="43.6979" y="358.4961">CageForm</text><rect fill="#333333" height="23.055" style="stroke:#A0A0A0;stroke-width:1.0416666666666667;stroke-dasharray:2.0,2.0;" width="16.6667" x="125" y="334.9528"/><text fill="#A0A0A0" font-family="Open Sans,Avenir,Nunito,Arial,Helvetica,SansSerif" font-size="12.5" font-weight="bold" lengthAdjust="spacing" textLength="8.3333" x="129.1667" y="351.2044">T</text><line style="stroke:#5E5E5E;stroke-width:1.5625;" x1="8.3333" x2="137.5" y1="369.4661" y2="369.4661"/><ellipse cx="18.75" cy="404.836" fill="#84BE84" rx="3.125" ry="3.125" style="stroke:#038048;stroke-width:1.0416666666666667;"/><text fill="#D8BC00" font-family="Open Sans,Avenir,Nunito,Arial,Helvetica,SansSerif" font-size="11.4583" lengthAdjust="spacing" textLength="98.9583" x="30.2083" y="411.7472">CageForm(String)</text><line style="stroke:#5E5E5E;stroke-width:1.0416666666666667;" x1="8.3333" x2="29.1667" y1="387.6719" y2="387.6719"/><text fill="#D8BC00" font-family="Open Sans,Avenir,Nunito,Arial,Helvetica,SansSerif" font-size="11.4583" lengthAdjust="spacing" textLength="81.25" x="32.2917" y="391.4815">(constructors)</text><line style="stroke:#5E5E5E;stroke-width:1.0416666666666667;" x1="116.6667" x2="137.5" y1="387.6719" y2="387.6719"/><!--MD5=[8de0e4c819f220f8e0c4c4df41ba59ce]
class WicketExamplePage--><rect fill="#282828" height="48.055" id="WicketExamplePage" rx="8.3333" ry="8.3333" style="stroke:#5E5E5E;stroke-width:1.0416666666666667;" width="164.5833" x="422.9167" y="53.7028"/><rect fill="#1B1B1A" height="31.3883" rx="8.3333" ry="8.3333" style="stroke:#1B1B1A;stroke-width:1.0416666666666667;" width="164.5833" x="422.9167" y="53.7028"/><rect fill="#1B1B1A" height="8.3333" style="stroke:#1B1B1A;stroke-width:1.0416666666666667;" width="164.5833" x="422.9167" y="76.7578"/><rect fill="none" height="48.055" id="WicketExamplePage" rx="8.3333" ry="8.3333" style="stroke:#5E5E5E;stroke-width:1.0416666666666667;" width="164.5833" x="422.9167" y="53.7028"/><ellipse cx="437.5" cy="69.397" fill="#0066CF" rx="10.4167" ry="10.4167" style="stroke:#0086EF;stroke-width:1.0416666666666667;"/><path d="M439.4104,73.822 Q438.9832,74.0417 438.5132,74.1516 Q438.0432,74.2615 437.5244,74.2615 Q435.6812,74.2615 434.7107,73.0469 Q433.7402,71.8323 433.7402,69.5374 Q433.7402,67.2363 434.7107,66.0217 Q435.6812,64.8071 437.5244,64.8071 Q438.0432,64.8071 438.5193,64.917 Q438.9954,65.0269 439.4104,65.2466 L439.4104,67.2485 Q438.9465,66.8213 438.5101,66.6229 Q438.0737,66.4246 437.6099,66.4246 Q436.6211,66.4246 436.1176,67.2089 Q435.614,67.9932 435.614,69.5374 Q435.614,71.0754 436.1176,71.8597 Q436.6211,72.644 437.6099,72.644 Q438.0737,72.644 438.5101,72.4457 Q438.9465,72.2473 439.4104,71.8201 Z " fill="#000000"/><text fill="#D8BC00" font-family="Open Sans,Avenir,Nunito,Arial,Helvetica,SansSerif" font-size="12.5" font-weight="bold" lengthAdjust="spacing" textLength="127.0833" x="454.1667" y="74.1211">WicketExamplePage</text><line style="stroke:#5E5E5E;stroke-width:1.0416666666666667;" x1="423.9583" x2="586.4583" y1="85.0911" y2="85.0911"/><line style="stroke:#5E5E5E;stroke-width:1.0416666666666667;" x1="423.9583" x2="586.4583" y1="93.4245" y2="93.4245"/><!--MD5=[b820b865c5f61cc7e44fec8848f5f237]
class Captcha--><rect codeLine="25" fill="#282828" height="83.3781" id="Captcha" rx="8.3333" ry="8.3333" style="stroke:#5E5E5E;stroke-width:1.0416666666666667;" width="95.8333" x="457.2917" y="178.182"/><rect fill="#1B1B1A" height="31.3883" rx="8.3333" ry="8.3333" style="stroke:#1B1B1A;stroke-width:1.0416666666666667;" width="95.8333" x="457.2917" y="178.182"/><rect fill="#1B1B1A" height="8.3333" style="stroke:#1B1B1A;stroke-width:1.0416666666666667;" width="95.8333" x="457.2917" y="201.237"/><rect codeLine="25" fill="none" height="83.3781" id="Captcha" rx="8.3333" ry="8.3333" style="stroke:#5E5E5E;stroke-width:1.0416666666666667;" width="95.8333" x="457.2917" y="178.182"/><ellipse cx="474.6875" cy="193.8761" fill="#0066CF" rx="10.4167" ry="10.4167" style="stroke:#0086EF;stroke-width:1.0416666666666667;"/><path d="M476.5979,198.3012 Q476.1707,198.5209 475.7007,198.6308 Q475.2307,198.7406 474.7119,198.7406 Q472.8687,198.7406 471.8982,197.526 Q470.9277,196.3114 470.9277,194.0165 Q470.9277,191.7155 471.8982,190.5009 Q472.8687,189.2863 474.7119,189.2863 Q475.2307,189.2863 475.7068,189.3962 Q476.1829,189.506 476.5979,189.7257 L476.5979,191.7277 Q476.134,191.3005 475.6976,191.1021 Q475.2612,190.9037 474.7974,190.9037 Q473.8086,190.9037 473.3051,191.688 Q472.8015,192.4723 472.8015,194.0165 Q472.8015,195.5546 473.3051,196.3389 Q473.8086,197.1232 474.7974,197.1232 Q475.2612,197.1232 475.6976,196.9248 Q476.134,196.7265 476.5979,196.2992 Z " fill="#000000"/><text fill="#D8BC00" font-family="Open Sans,Avenir,Nunito,Arial,Helvetica,SansSerif" font-size="12.5" font-weight="bold" lengthAdjust="spacing" textLength="52.0833" x="491.9792" y="198.6003">Captcha</text><line style="stroke:#5E5E5E;stroke-width:1.5625;" x1="458.3333" x2="552.0833" y1="209.5703" y2="209.5703"/><ellipse cx="468.75" cy="244.9402" fill="#84BE84" rx="3.125" ry="3.125" style="stroke:#038048;stroke-width:1.0416666666666667;"/><text fill="#D8BC00" font-family="Open Sans,Avenir,Nunito,Arial,Helvetica,SansSerif" font-size="11.4583" lengthAdjust="spacing" textLength="54.1667" x="480.2083" y="251.8514">Captcha()</text><line style="stroke:#5E5E5E;stroke-width:1.0416666666666667;" x1="458.3333" x2="461.4583" y1="227.7761" y2="227.7761"/><text fill="#D8BC00" font-family="Open Sans,Avenir,Nunito,Arial,Helvetica,SansSerif" font-size="11.4583" lengthAdjust="spacing" textLength="81.25" x="464.5833" y="231.5857">(constructors)</text><line style="stroke:#5E5E5E;stroke-width:1.0416666666666667;" x1="548.9583" x2="552.0833" y1="227.7761" y2="227.7761"/><!--MD5=[818b680dd029f5404dc253254408b9c3]
class WicketExampleApplication--><rect fill="#282828" height="48.055" id="WicketExampleApplication" rx="8.3333" ry="8.3333" style="stroke:#5E5E5E;stroke-width:1.0416666666666667;" width="208.3333" x="623.9583" y="53.7028"/><rect fill="#1B1B1A" height="31.3883" rx="8.3333" ry="8.3333" style="stroke:#1B1B1A;stroke-width:1.0416666666666667;" width="208.3333" x="623.9583" y="53.7028"/><rect fill="#1B1B1A" height="8.3333" style="stroke:#1B1B1A;stroke-width:1.0416666666666667;" width="208.3333" x="623.9583" y="76.7578"/><rect fill="none" height="48.055" id="WicketExampleApplication" rx="8.3333" ry="8.3333" style="stroke:#5E5E5E;stroke-width:1.0416666666666667;" width="208.3333" x="623.9583" y="53.7028"/><ellipse cx="638.5417" cy="69.397" fill="#0066CF" rx="10.4167" ry="10.4167" style="stroke:#0086EF;stroke-width:1.0416666666666667;"/><path d="M640.4521,73.822 Q640.0248,74.0417 639.5549,74.1516 Q639.0849,74.2615 638.5661,74.2615 Q636.7228,74.2615 635.7524,73.0469 Q634.7819,71.8323 634.7819,69.5374 Q634.7819,67.2363 635.7524,66.0217 Q636.7228,64.8071 638.5661,64.8071 Q639.0849,64.8071 639.561,64.917 Q640.037,65.0269 640.4521,65.2466 L640.4521,67.2485 Q639.9882,66.8213 639.5518,66.6229 Q639.1154,66.4246 638.6515,66.4246 Q637.6628,66.4246 637.1592,67.2089 Q636.6557,67.9932 636.6557,69.5374 Q636.6557,71.0754 637.1592,71.8597 Q637.6628,72.644 638.6515,72.644 Q639.1154,72.644 639.5518,72.4457 Q639.9882,72.2473 640.4521,71.8201 Z " fill="#000000"/><text fill="#D8BC00" font-family="Open Sans,Avenir,Nunito,Arial,Helvetica,SansSerif" font-size="12.5" font-weight="bold" lengthAdjust="spacing" textLength="170.8333" x="655.2083" y="74.1211">WicketExampleApplication</text><line style="stroke:#5E5E5E;stroke-width:1.0416666666666667;" x1="625" x2="831.25" y1="85.0911" y2="85.0911"/><line style="stroke:#5E5E5E;stroke-width:1.0416666666666667;" x1="625" x2="831.25" y1="93.4245" y2="93.4245"/><!--MD5=[4fde3c0f0509db62c52ebc1072112e40]
class CaptchaApplication--><rect codeLine="32" fill="#282828" height="48.055" id="CaptchaApplication" rx="8.3333" ry="8.3333" style="stroke:#5E5E5E;stroke-width:1.0416666666666667;" width="163.5417" x="646.3542" y="195.8903"/><rect fill="#1B1B1A" height="31.3883" rx="8.3333" ry="8.3333" style="stroke:#1B1B1A;stroke-width:1.0416666666666667;" width="163.5417" x="646.3542" y="195.8903"/><rect fill="#1B1B1A" height="8.3333" style="stroke:#1B1B1A;stroke-width:1.0416666666666667;" width="163.5417" x="646.3542" y="218.9453"/><rect codeLine="32" fill="none" height="48.055" id="CaptchaApplication" rx="8.3333" ry="8.3333" style="stroke:#5E5E5E;stroke-width:1.0416666666666667;" width="163.5417" x="646.3542" y="195.8903"/><ellipse cx="660.9375" cy="211.5845" fill="#0066CF" rx="10.4167" ry="10.4167" style="stroke:#0086EF;stroke-width:1.0416666666666667;"/><path d="M662.8479,216.0095 Q662.4207,216.2292 661.9507,216.3391 Q661.4807,216.449 660.9619,216.449 Q659.1187,216.449 658.1482,215.2344 Q657.1777,214.0198 657.1777,211.7249 Q657.1777,209.4238 658.1482,208.2092 Q659.1187,206.9946 660.9619,206.9946 Q661.4807,206.9946 661.9568,207.1045 Q662.4329,207.2144 662.8479,207.4341 L662.8479,209.436 Q662.384,209.0088 661.9476,208.8104 Q661.5112,208.6121 661.0474,208.6121 Q660.0586,208.6121 659.5551,209.3964 Q659.0515,210.1807 659.0515,211.7249 Q659.0515,213.2629 659.5551,214.0472 Q660.0586,214.8315 661.0474,214.8315 Q661.5112,214.8315 661.9476,214.6332 Q662.384,214.4348 662.8479,214.0076 Z " fill="#000000"/><text fill="#D8BC00" font-family="Open Sans,Avenir,Nunito,Arial,Helvetica,SansSerif" font-size="12.5" font-weight="bold" lengthAdjust="spacing" textLength="126.0417" x="677.6042" y="216.3086">CaptchaApplication</text><line style="stroke:#5E5E5E;stroke-width:1.0416666666666667;" x1="647.3958" x2="808.8542" y1="227.2786" y2="227.2786"/><line style="stroke:#5E5E5E;stroke-width:1.0416666666666667;" x1="647.3958" x2="808.8542" y1="235.612" y2="235.612"/><!--MD5=[62b2df9007240da6459420cfc2c6fea8]
class CaptchaForm--><rect codeLine="37" fill="#282828" height="83.3781" id="CaptchaForm" rx="8.3333" ry="8.3333" style="stroke:#5E5E5E;stroke-width:1.0416666666666667;" width="148.9583" x="175.5208" y="338.0778"/><rect fill="#1B1B1A" height="31.3883" rx="8.3333" ry="8.3333" style="stroke:#1B1B1A;stroke-width:1.0416666666666667;" width="148.9583" x="175.5208" y="338.0778"/><rect fill="#1B1B1A" height="8.3333" style="stroke:#1B1B1A;stroke-width:1.0416666666666667;" width="148.9583" x="175.5208" y="361.1328"/><rect codeLine="37" fill="none" height="83.3781" id="CaptchaForm" rx="8.3333" ry="8.3333" style="stroke:#5E5E5E;stroke-width:1.0416666666666667;" width="148.9583" x="175.5208" y="338.0778"/><ellipse cx="193.3854" cy="353.772" fill="#0066CF" rx="10.4167" ry="10.4167" style="stroke:#0086EF;stroke-width:1.0416666666666667;"/><path d="M195.2958,358.197 Q194.8686,358.4167 194.3986,358.5266 Q193.9286,358.6365 193.4098,358.6365 Q191.5666,358.6365 190.5961,357.4219 Q189.6257,356.2073 189.6257,353.9124 Q189.6257,351.6113 190.5961,350.3967 Q191.5666,349.1821 193.4098,349.1821 Q193.9286,349.1821 194.4047,349.292 Q194.8808,349.4019 195.2958,349.6216 L195.2958,351.6235 Q194.8319,351.1963 194.3955,350.9979 Q193.9591,350.7996 193.4953,350.7996 Q192.5065,350.7996 192.003,351.5839 Q191.4994,352.3682 191.4994,353.9124 Q191.4994,355.4504 192.003,356.2347 Q192.5065,357.019 193.4953,357.019 Q193.9591,357.019 194.3955,356.8207 Q194.8319,356.6223 195.2958,356.1951 Z " fill="#000000"/><text fill="#D8BC00" font-family="Open Sans,Avenir,Nunito,Arial,Helvetica,SansSerif" font-size="12.5" font-weight="bold" lengthAdjust="spacing" textLength="85.4167" x="210.7813" y="358.4961">CaptchaForm</text><rect fill="#333333" height="23.055" style="stroke:#A0A0A0;stroke-width:1.0416666666666667;stroke-dasharray:2.0,2.0;" width="16.6667" x="310.9375" y="334.9528"/><text fill="#A0A0A0" font-family="Open Sans,Avenir,Nunito,Arial,Helvetica,SansSerif" font-size="12.5" font-weight="bold" lengthAdjust="spacing" textLength="8.3333" x="315.1042" y="351.2044">T</text><line style="stroke:#5E5E5E;stroke-width:1.5625;" x1="176.5625" x2="323.4375" y1="369.4661" y2="369.4661"/><ellipse cx="186.9792" cy="404.836" fill="#84BE84" rx="3.125" ry="3.125" style="stroke:#038048;stroke-width:1.0416666666666667;"/><text fill="#D8BC00" font-family="Open Sans,Avenir,Nunito,Arial,Helvetica,SansSerif" font-size="11.4583" lengthAdjust="spacing" textLength="116.6667" x="198.4375" y="411.7472">CaptchaForm(String)</text><line style="stroke:#5E5E5E;stroke-width:1.0416666666666667;" x1="176.5625" x2="206.25" y1="387.6719" y2="387.6719"/><text fill="#D8BC00" font-family="Open Sans,Avenir,Nunito,Arial,Helvetica,SansSerif" font-size="11.4583" lengthAdjust="spacing" textLength="81.25" x="209.375" y="391.4815">(constructors)</text><line style="stroke:#5E5E5E;stroke-width:1.0416666666666667;" x1="293.75" x2="323.4375" y1="387.6719" y2="387.6719"/><!--MD5=[d67bc678936e4c2b81df3a9da52ef184]
class KaptchaForm--><rect codeLine="44" fill="#282828" height="83.3781" id="KaptchaForm" rx="8.3333" ry="8.3333" style="stroke:#5E5E5E;stroke-width:1.0416666666666667;" width="147.9167" x="361.4583" y="338.0778"/><rect fill="#1B1B1A" height="31.3883" rx="8.3333" ry="8.3333" style="stroke:#1B1B1A;stroke-width:1.0416666666666667;" width="147.9167" x="361.4583" y="338.0778"/><rect fill="#1B1B1A" height="8.3333" style="stroke:#1B1B1A;stroke-width:1.0416666666666667;" width="147.9167" x="361.4583" y="361.1328"/><rect codeLine="44" fill="none" height="83.3781" id="KaptchaForm" rx="8.3333" ry="8.3333" style="stroke:#5E5E5E;stroke-width:1.0416666666666667;" width="147.9167" x="361.4583" y="338.0778"/><ellipse cx="378.8542" cy="353.772" fill="#0066CF" rx="10.4167" ry="10.4167" style="stroke:#0086EF;stroke-width:1.0416666666666667;"/><path d="M380.7646,358.197 Q380.3373,358.4167 379.8674,358.5266 Q379.3974,358.6365 378.8786,358.6365 Q377.0353,358.6365 376.0649,357.4219 Q375.0944,356.2073 375.0944,353.9124 Q375.0944,351.6113 376.0649,350.3967 Q377.0353,349.1821 378.8786,349.1821 Q379.3974,349.1821 379.8735,349.292 Q380.3495,349.4019 380.7646,349.6216 L380.7646,351.6235 Q380.3007,351.1963 379.8643,350.9979 Q379.4279,350.7996 378.964,350.7996 Q377.9753,350.7996 377.4717,351.5839 Q376.9682,352.3682 376.9682,353.9124 Q376.9682,355.4504 377.4717,356.2347 Q377.9753,357.019 378.964,357.019 Q379.4279,357.019 379.8643,356.8207 Q380.3007,356.6223 380.7646,356.1951 Z " fill="#000000"/><text fill="#D8BC00" font-family="Open Sans,Avenir,Nunito,Arial,Helvetica,SansSerif" font-size="12.5" font-weight="bold" lengthAdjust="spacing" textLength="85.4167" x="396.1458" y="358.4961">KaptchaForm</text><rect fill="#333333" height="23.055" style="stroke:#A0A0A0;stroke-width:1.0416666666666667;stroke-dasharray:2.0,2.0;" width="16.6667" x="495.8333" y="334.9528"/><text fill="#A0A0A0" font-family="Open Sans,Avenir,Nunito,Arial,Helvetica,SansSerif" font-size="12.5" font-weight="bold" lengthAdjust="spacing" textLength="8.3333" x="500" y="351.2044">T</text><line style="stroke:#5E5E5E;stroke-width:1.5625;" x1="362.5" x2="508.3333" y1="369.4661" y2="369.4661"/><ellipse cx="372.9167" cy="404.836" fill="#84BE84" rx="3.125" ry="3.125" style="stroke:#038048;stroke-width:1.0416666666666667;"/><text fill="#D8BC00" font-family="Open Sans,Avenir,Nunito,Arial,Helvetica,SansSerif" font-size="11.4583" lengthAdjust="spacing" textLength="115.625" x="384.375" y="411.7472">KaptchaForm(String)</text><line style="stroke:#5E5E5E;stroke-width:1.0416666666666667;" x1="362.5" x2="391.6667" y1="387.6719" y2="387.6719"/><text fill="#D8BC00" font-family="Open Sans,Avenir,Nunito,Arial,Helvetica,SansSerif" font-size="11.4583" lengthAdjust="spacing" textLength="81.25" x="394.7917" y="391.4815">(constructors)</text><line style="stroke:#5E5E5E;stroke-width:1.0416666666666667;" x1="479.1667" x2="508.3333" y1="387.6719" y2="387.6719"/><!--MD5=[1813b527e2d139b24d665a535b586540]
reverse link GenericPanel to AbstractCaptchaForm--><path codeLine="8" d="M250,122.7028 C250,135.7549 250,150.2028 250,163.859 " fill="none" id="GenericPanel-backto-AbstractCaptchaForm" style="stroke:#545454;stroke-width:1.5625;"/><polygon fill="none" points="242.7083,122.6715,250,101.8382,257.2917,122.6715,242.7083,122.6715" style="stroke:#545454;stroke-width:1.5625;"/><!--MD5=[b5841910e8884ffceec04610f420d003]
reverse link AbstractCaptchaForm to CageForm--><path codeLine="17" d="M172.8958,289.609 C154.375,306.109 135.1667,323.2236 118.6042,337.984 " fill="none" id="AbstractCaptchaForm-backto-CageForm" style="stroke:#545454;stroke-width:1.5625;"/><polygon fill="none" points="168.1563,284.057,188.5625,275.6403,177.8646,294.9424,168.1563,284.057" style="stroke:#545454;stroke-width:1.5625;"/><!--MD5=[f13c57d4db2ca4491971d429649fdff5]
reverse link WicketExamplePage to Captcha--><path codeLine="24" d="M505.2083,122.7965 C505.2083,140.4736 505.2083,160.734 505.2083,178.0674 " fill="none" id="WicketExamplePage-backto-Captcha" style="stroke:#545454;stroke-width:1.5625;"/><polygon fill="none" points="497.9167,122.6715,505.2083,101.8382,512.5,122.6715,497.9167,122.6715" style="stroke:#545454;stroke-width:1.5625;"/><!--MD5=[d4f4daa6a9b21d7275e6f68e4fbf5c45]
reverse link WicketExampleApplication to CaptchaApplication--><path codeLine="31" d="M728.125,122.6715 C728.125,146.8486 728.125,175.8486 728.125,195.6403 " fill="none" id="WicketExampleApplication-backto-CaptchaApplication" style="stroke:#545454;stroke-width:1.5625;"/><polygon fill="none" points="720.8333,122.6715,728.125,101.8382,735.4167,122.6715,720.8333,122.6715" style="stroke:#545454;stroke-width:1.5625;"/><!--MD5=[0baa6b4d2e8ad95e13453faad8600705]
reverse link AbstractCaptchaForm to CaptchaForm--><path codeLine="36" d="M250,296.8486 C250,311.0465 250,325.3695 250,337.984 " fill="none" id="AbstractCaptchaForm-backto-CaptchaForm" style="stroke:#545454;stroke-width:1.5625;"/><polygon fill="none" points="242.7083,296.4736,250,275.6403,257.2917,296.4736,242.7083,296.4736" style="stroke:#545454;stroke-width:1.5625;"/><!--MD5=[dac583914523a1fe203243310c038ac3]
reverse link AbstractCaptchaForm to KaptchaForm--><path codeLine="43" d="M330.4479,289.359 C349.9271,305.9424 370.1458,323.1507 387.5729,337.984 " fill="none" id="AbstractCaptchaForm-backto-KaptchaForm" style="stroke:#545454;stroke-width:1.5625;"/><polygon fill="none" points="325.4688,294.7028,314.3333,275.6403,334.9167,283.5882,325.4688,294.7028" style="stroke:#545454;stroke-width:1.5625;"/><!--MD5=[236c4d8b13dd8249260dcaa6114cd4bc]
@startuml

    !include lexakai.theme
    
    title "org.apache.wicket.examples.captcha"
    
    abstract AbstractCaptchaForm
    
    GenericPanel <|- - AbstractCaptchaForm
    abstract class AbstractCaptchaForm<T>
    {
        - -(constructors)- -
        +AbstractCaptchaForm(String)
        - -
        #CaptchaImageResource createCaptchaImageResource()
    }
    
    AbstractCaptchaForm <|- - CageForm
    class CageForm<T>
    {
        - -(constructors)- -
        +CageForm(String)
    }
    
    WicketExamplePage <|- - Captcha
    class Captcha
    {
        - -(constructors)- -
        +Captcha()
    }
    
    WicketExampleApplication <|- - CaptchaApplication
    class CaptchaApplication
    {
    }
    
    AbstractCaptchaForm <|- - CaptchaForm
    class CaptchaForm<T>
    {
        - -(constructors)- -
        +CaptchaForm(String)
    }
    
    AbstractCaptchaForm <|- - KaptchaForm
    class KaptchaForm<T>
    {
        - -(constructors)- -
        +KaptchaForm(String)
    }
    
@enduml

@startuml









skinparam backgroundColor #333333






skinparam  {
    defaultFontName   "Open Sans,Avenir,Nunito,Arial,Helvetica,SansSerif"
    defaultFontSize   12
    defaultTextAlignment left
    shadowing false
    RoundCorner 10
    TitleFontSize 18
}

skinparam defaultFontName       "Open Sans,Avenir,Nunito,Arial,Helvetica,SansSerif"
skinparam defaultFontSize       12
skinparam dpi                   100
skinparam shadowing             false
skinparam roundcorner           16
skinparam ParticipantPadding    40
skinparam BoxPadding            40
skinparam Padding               3
skinparam ArrowColor            #545454
skinparam stereotype {
    CBackgroundColor #0066cf
    CBorderColor #0086ef
    ABackgroundColor #C8Ac00
    ABorderColor #D8Bc00
    IBackgroundColor #008400
    IBorderColor #239c23
    EBackgroundColor #cf6300
    EBorderColor #ef8300
    NBackgroundColor #3380b9
    NBorderColor #004d86
}
skinparam title {
	FontColor	                 #c0c0c0
 	BorderColor                  #545454
	FontSize	    	         20
	BorderRoundCorner            16
	BorderThickness 	         1
	BackgroundColor              #48494b
}


skinparam legend {
	BackgroundColor #303030
	BorderColor #404040
	FontColor #a0a0a0
}

	skinparam swimlane {
	BorderColor #5e5e5e
	BorderThickness 2
	TitleBackgroundColor  #6d6d6d-#484848
	TitleFontColor #303030
}

skinparam activity {
		FontColor #C8Ac00
	BorderColor #333333
	BackgroundColor #333333-#333333
	BarColor #00FF00
	StartColor #0060a8
	EndColor #0060a8
	DiamondBackgroundColor #6d6d6d-#3a3a3a
  	DiamondBorderColor #3a3a3a
  	DiamondFontColor #fefefe
}


skinparam participant {
		FontColor #C8Ac00
	BorderColor #333333
	BackgroundColor #333333-#333333
	ParticipantBorderThickness 2
}


skinparam actor {
		FontColor #C8Ac00
	BorderColor #333333
	BackgroundColor #333333-#333333
}


skinparam arrow {
	Thickness 1.5
	Color #545454
	FontColor #a0a0a0
    FontStyle bold
    MessageAlignment center
}



skinparam sequence {
	BorderColor #303030
	TitleFontColor #303030
	BackgroundColor #333333
	StartColor #303030
	EndColor #303030
	BoxBackgroundColor #333333
	BoxBorderColor #484848
	BoxFontColor #484848
	LifeLineBorderColor #484848
	LifeLineBorderThickness 2
	LifeLineBackgroundColor #3a3a3a
	GroupBorderColor #484848
	GroupFontColor #484848
	GroupHeaderFontColor #0060a8
	GroupBackgroundColor #484848
	GroupHeaderBackgroundColor #333333
	DividerBackgroundColor #484848
    DividerBorderColor #484848
    DividerBorderThickness 2
    DividerFontColor #D8Bc00
	ReferenceBackgroundColor #333333
	ReferenceBorderColor #484848
	ReferenceFontColor #fefefe
	ReferenceHeaderBackgroundColor #484848
}


skinparam partition {
	BorderColor #303030
	FontColor #333333
	BackgroundColor #333333
}


skinparam collections {
		FontColor #C8Ac00
	BorderColor #333333
	BackgroundColor #333333-#333333
}


skinparam control {
		FontColor #C8Ac00
	BorderColor #333333
	BackgroundColor #333333-#333333
}


skinparam entity {
		FontColor #C8Ac00
	BorderColor #333333
	BackgroundColor #333333-#333333
}


skinparam boundary {
		FontColor #C8Ac00
	BorderColor #333333
	BackgroundColor #333333-#333333
}


skinparam agent {
	BackgroundColor #ff8000
	BorderColor #ff9933
	FontColor #484848
}


skinparam note {
	BorderThickness 1
	BackgroundColor #1b1b1a
	BorderColor #5e5e5e
	FontSize 11
	FontColor #a0a0a0
}


skinparam artifact {
	BorderThickness 10
	BorderColor #5e5e5e
	BackgroundColor #1b1b1a
	FontColor #D8Bc00
}


skinparam component {
		FontColor #C8Ac00
	BorderColor #333333
	BackgroundColor #333333-#333333
}


skinparam interface {
	BackgroundColor  #008400
	BorderColor  #007F00
	FontColor #484848
}


skinparam storage {
	BackgroundColor #ff8000
  	BorderColor #cc6600
	FontColor #222222
}


skinparam node {
	BackgroundColor #333333
	BorderColor #333333
	FontColor #C8Ac00
}


skinparam cloud {
	BackgroundColor #484848-black
	BorderColor #484848
	FontColor #D8Bc00
}


skinparam database {
		FontColor #C8Ac00
	BorderColor #333333
	BackgroundColor #333333-#333333
	BackgroundColor  #333333
}


skinparam class {
		FontColor #C8Ac00
	BorderColor #333333
	BackgroundColor #333333-#333333
	HeaderBackgroundColor #1b1b1a
    BackgroundColor #282828
    BorderColor #5e5e5e
 	StereotypeFontColor #a0a0a0
    StereotypeFontStyle bold
	BorderThickness 1
	AttributeFontColor #D8Bc00
	AttributeFontSize 11
    FontColor #D8Bc00
    FontStyle bold
}


skinparam object {
		FontColor #C8Ac00
	BorderColor #333333
	BackgroundColor #333333-#333333
	StereotypeFontColor #484848
	BorderThickness 1
	AttributeFontColor #fefefe
	AttributeFontSize 11
}


skinparam usecase {
		FontColor #C8Ac00
	BorderColor #333333
	BackgroundColor #333333-#333333
	BorderThickness 2
	StereotypeFontColor #303030
}


skinparam rectangle {
		FontColor #C8Ac00
	BorderColor #333333
	BackgroundColor #333333-#333333
	BackgroundColor #333333
	BorderThickness 2
	StereotypeFontColor #303030
}


skinparam package {
		FontColor #C8Ac00
	BorderColor #333333
	BackgroundColor #333333-#333333
	BackgroundColor #333333
	BorderThickness 2
}


skinparam folder {
	BackgroundColor #6d6d6d
  	BorderColor #ff8000
	FontColor #ff8000
	BorderThickness 2
}


skinparam frame {
	BackgroundColor #6d6d6d
  	BorderColor #0060a8
	FontColor #0060a8
	BorderThickness 2
}


skinparam state {
		FontColor #C8Ac00
	BorderColor #333333
	BackgroundColor #333333-#333333
	StartColor #0060a8
	EndColor #0060a8
	AttributeFontColor #fefefe
	AttributeFontSize 11
}


skinparam queue {
		FontColor #C8Ac00
	BorderColor #333333
	BackgroundColor #333333-#333333
}


skinparam card {
	BackgroundColor #0060a8
	BorderColor #004d86
	FontColor $INFO_TEXT
}


skinparam file {
	BackgroundColor #6d6d6d-#484848
	BorderColor #0060a8
	FontColor #fefefe
}


skinparam stack {
		FontColor #C8Ac00
	BorderColor #333333
	BackgroundColor #333333-#333333
}

    
    title "org.apache.wicket.examples.captcha"
    
    abstract AbstractCaptchaForm
    
    GenericPanel <|- - AbstractCaptchaForm
    abstract class AbstractCaptchaForm<T>
    {
        - -(constructors)- -
        +AbstractCaptchaForm(String)
        - -
        #CaptchaImageResource createCaptchaImageResource()
    }
    
    AbstractCaptchaForm <|- - CageForm
    class CageForm<T>
    {
        - -(constructors)- -
        +CageForm(String)
    }
    
    WicketExamplePage <|- - Captcha
    class Captcha
    {
        - -(constructors)- -
        +Captcha()
    }
    
    WicketExampleApplication <|- - CaptchaApplication
    class CaptchaApplication
    {
    }
    
    AbstractCaptchaForm <|- - CaptchaForm
    class CaptchaForm<T>
    {
        - -(constructors)- -
        +CaptchaForm(String)
    }
    
    AbstractCaptchaForm <|- - KaptchaForm
    class KaptchaForm<T>
    {
        - -(constructors)- -
        +KaptchaForm(String)
    }
    
@enduml

PlantUML version 1.2021.01(Tue Feb 02 00:55:08 MST 2021)
(GPL source distribution)
Java Runtime: Java(TM) SE Runtime Environment
JVM: Java HotSpot(TM) 64-Bit Server VM
Default Encoding: UTF-8
Language: en
Country: US
--></g></svg>