<?xml version="1.0" encoding="UTF-8" standalone="no"?><svg xmlns="http://www.w3.org/2000/svg" xmlns:xlink="http://www.w3.org/1999/xlink" contentScriptType="application/ecmascript" contentStyleType="text/css" height="261.4583px" preserveAspectRatio="none" style="width:747px;height:261px;background:#333333;" version="1.1" viewBox="0 0 747 261" width="747.9167px" zoomAndPan="magnify"><defs/><g><rect fill="#48494B" height="41.2028" rx="8.3333" ry="8.3333" style="stroke:#545454;stroke-width:1.0416666666666667;" width="504.1667" x="114.8438" y="2.0833"/><text fill="#C0C0C0" font-family="Open Sans,Avenir,Nunito,Arial,Helvetica,SansSerif" font-size="20.8333" lengthAdjust="spacing" textLength="481.25" x="126.3021" y="30.5583">org.apache.wicket.examples.resourcedecoration</text><!--MD5=[c7b92a0097228a214bad925eafaa4b71]
cluster HomePage--><polygon fill="#333333" points="16.6667,132.8695,96.875,132.8695,104.1667,160.0911,251.0417,160.0911,251.0417,254.7445,16.6667,254.7445,16.6667,132.8695" style="stroke:#333333;stroke-width:2.0833333333333335;"/><line style="stroke:#333333;stroke-width:2.0833333333333335;" x1="16.6667" x2="104.1667" y1="160.0911" y2="160.0911"/><text fill="#C8AC00" font-family="Open Sans,Avenir,Nunito,Arial,Helvetica,SansSerif" font-size="12.5" font-weight="bold" lengthAdjust="spacing" textLength="67.7083" x="23.9583" y="150.1628">HomePage</text><!--MD5=[f275c3dc70117b6cec060f7d8690db7f]
class HomePage.AjaxProofContainer--><rect codeLine="7" fill="#282828" height="48.055" id="HomePage.AjaxProofContainer" rx="8.3333" ry="8.3333" style="stroke:#5E5E5E;stroke-width:1.0416666666666667;" width="163.5417" x="61.9792" y="181.8278"/><rect fill="#1B1B1A" height="31.3883" rx="8.3333" ry="8.3333" style="stroke:#1B1B1A;stroke-width:1.0416666666666667;" width="163.5417" x="61.9792" y="181.8278"/><rect fill="#1B1B1A" height="8.3333" style="stroke:#1B1B1A;stroke-width:1.0416666666666667;" width="163.5417" x="61.9792" y="204.8828"/><rect codeLine="7" fill="none" height="48.055" id="HomePage.AjaxProofContainer" rx="8.3333" ry="8.3333" style="stroke:#5E5E5E;stroke-width:1.0416666666666667;" width="163.5417" x="61.9792" y="181.8278"/><ellipse cx="76.5625" cy="197.522" fill="#0066CF" rx="10.4167" ry="10.4167" style="stroke:#0086EF;stroke-width:1.0416666666666667;"/><path d="M78.4729,201.947 Q78.0457,202.1667 77.5757,202.2766 Q77.1057,202.3865 76.5869,202.3865 Q74.7437,202.3865 73.7732,201.1719 Q72.8027,199.9573 72.8027,197.6624 Q72.8027,195.3613 73.7732,194.1467 Q74.7437,192.9321 76.5869,192.9321 Q77.1057,192.9321 77.5818,193.042 Q78.0579,193.1519 78.4729,193.3716 L78.4729,195.3735 Q78.009,194.9463 77.5726,194.7479 Q77.1362,194.5496 76.6724,194.5496 Q75.6836,194.5496 75.1801,195.3339 Q74.6765,196.1182 74.6765,197.6624 Q74.6765,199.2004 75.1801,199.9847 Q75.6836,200.769 76.6724,200.769 Q77.1362,200.769 77.5726,200.5707 Q78.009,200.3723 78.4729,199.9451 Z " fill="#000000"/><text fill="#D8BC00" font-family="Open Sans,Avenir,Nunito,Arial,Helvetica,SansSerif" font-size="12.5" font-weight="bold" lengthAdjust="spacing" textLength="126.0417" x="93.2292" y="202.2461">AjaxProofContainer</text><line style="stroke:#5E5E5E;stroke-width:1.0416666666666667;" x1="63.0208" x2="224.4792" y1="213.2161" y2="213.2161"/><line style="stroke:#5E5E5E;stroke-width:1.0416666666666667;" x1="63.0208" x2="224.4792" y1="221.5495" y2="221.5495"/><!--MD5=[48b1bd5d531db141ae627bfe1d3aa0cf]
class WebMarkupContainer--><rect fill="#282828" height="48.055" id="WebMarkupContainer" rx="8.3333" ry="8.3333" style="stroke:#5E5E5E;stroke-width:1.0416666666666667;" width="177.0833" x="55.2083" y="53.7028"/><rect fill="#1B1B1A" height="31.3883" rx="8.3333" ry="8.3333" style="stroke:#1B1B1A;stroke-width:1.0416666666666667;" width="177.0833" x="55.2083" y="53.7028"/><rect fill="#1B1B1A" height="8.3333" style="stroke:#1B1B1A;stroke-width:1.0416666666666667;" width="177.0833" x="55.2083" y="76.7578"/><rect fill="none" height="48.055" id="WebMarkupContainer" rx="8.3333" ry="8.3333" style="stroke:#5E5E5E;stroke-width:1.0416666666666667;" width="177.0833" x="55.2083" y="53.7028"/><ellipse cx="69.7917" cy="69.397" fill="#0066CF" rx="10.4167" ry="10.4167" style="stroke:#0086EF;stroke-width:1.0416666666666667;"/><path d="M71.7021,73.822 Q71.2748,74.0417 70.8049,74.1516 Q70.3349,74.2615 69.8161,74.2615 Q67.9728,74.2615 67.0024,73.0469 Q66.0319,71.8323 66.0319,69.5374 Q66.0319,67.2363 67.0024,66.0217 Q67.9728,64.8071 69.8161,64.8071 Q70.3349,64.8071 70.811,64.917 Q71.287,65.0269 71.7021,65.2466 L71.7021,67.2485 Q71.2382,66.8213 70.8018,66.6229 Q70.3654,66.4246 69.9015,66.4246 Q68.9128,66.4246 68.4092,67.2089 Q67.9057,67.9932 67.9057,69.5374 Q67.9057,71.0754 68.4092,71.8597 Q68.9128,72.644 69.9015,72.644 Q70.3654,72.644 70.8018,72.4457 Q71.2382,72.2473 71.7021,71.8201 Z " fill="#000000"/><text fill="#D8BC00" font-family="Open Sans,Avenir,Nunito,Arial,Helvetica,SansSerif" font-size="12.5" font-weight="bold" lengthAdjust="spacing" textLength="139.5833" x="86.4583" y="74.1211">WebMarkupContainer</text><line style="stroke:#5E5E5E;stroke-width:1.0416666666666667;" x1="56.25" x2="231.25" y1="85.0911" y2="85.0911"/><line style="stroke:#5E5E5E;stroke-width:1.0416666666666667;" x1="56.25" x2="231.25" y1="93.4245" y2="93.4245"/><!--MD5=[8de0e4c819f220f8e0c4c4df41ba59ce]
class WicketExamplePage--><rect fill="#282828" height="48.055" id="WicketExamplePage" rx="8.3333" ry="8.3333" style="stroke:#5E5E5E;stroke-width:1.0416666666666667;" width="164.5833" x="287.5" y="53.7028"/><rect fill="#1B1B1A" height="31.3883" rx="8.3333" ry="8.3333" style="stroke:#1B1B1A;stroke-width:1.0416666666666667;" width="164.5833" x="287.5" y="53.7028"/><rect fill="#1B1B1A" height="8.3333" style="stroke:#1B1B1A;stroke-width:1.0416666666666667;" width="164.5833" x="287.5" y="76.7578"/><rect fill="none" height="48.055" id="WicketExamplePage" rx="8.3333" ry="8.3333" style="stroke:#5E5E5E;stroke-width:1.0416666666666667;" width="164.5833" x="287.5" y="53.7028"/><ellipse cx="302.0833" cy="69.397" fill="#0066CF" rx="10.4167" ry="10.4167" style="stroke:#0086EF;stroke-width:1.0416666666666667;"/><path d="M303.9937,73.822 Q303.5665,74.0417 303.0965,74.1516 Q302.6265,74.2615 302.1077,74.2615 Q300.2645,74.2615 299.294,73.0469 Q298.3236,71.8323 298.3236,69.5374 Q298.3236,67.2363 299.294,66.0217 Q300.2645,64.8071 302.1077,64.8071 Q302.6265,64.8071 303.1026,64.917 Q303.5787,65.0269 303.9937,65.2466 L303.9937,67.2485 Q303.5299,66.8213 303.0935,66.6229 Q302.6571,66.4246 302.1932,66.4246 Q301.2044,66.4246 300.7009,67.2089 Q300.1973,67.9932 300.1973,69.5374 Q300.1973,71.0754 300.7009,71.8597 Q301.2044,72.644 302.1932,72.644 Q302.6571,72.644 303.0935,72.4457 Q303.5299,72.2473 303.9937,71.8201 Z " fill="#000000"/><text fill="#D8BC00" font-family="Open Sans,Avenir,Nunito,Arial,Helvetica,SansSerif" font-size="12.5" font-weight="bold" lengthAdjust="spacing" textLength="127.0833" x="318.75" y="74.1211">WicketExamplePage</text><line style="stroke:#5E5E5E;stroke-width:1.0416666666666667;" x1="288.5417" x2="451.0417" y1="85.0911" y2="85.0911"/><line style="stroke:#5E5E5E;stroke-width:1.0416666666666667;" x1="288.5417" x2="451.0417" y1="93.4245" y2="93.4245"/><!--MD5=[5aff5c50255f67a7089db77a52aaa125]
class HomePage--><rect codeLine="12" fill="#282828" height="83.3781" id="HomePage" rx="8.3333" ry="8.3333" style="stroke:#5E5E5E;stroke-width:1.0416666666666667;" width="187.5" x="276.0417" y="164.1195"/><rect fill="#1B1B1A" height="31.3883" rx="8.3333" ry="8.3333" style="stroke:#1B1B1A;stroke-width:1.0416666666666667;" width="187.5" x="276.0417" y="164.1195"/><rect fill="#1B1B1A" height="8.3333" style="stroke:#1B1B1A;stroke-width:1.0416666666666667;" width="187.5" x="276.0417" y="187.1745"/><rect codeLine="12" fill="none" height="83.3781" id="HomePage" rx="8.3333" ry="8.3333" style="stroke:#5E5E5E;stroke-width:1.0416666666666667;" width="187.5" x="276.0417" y="164.1195"/><ellipse cx="328.6458" cy="179.8136" fill="#0066CF" rx="10.4167" ry="10.4167" style="stroke:#0086EF;stroke-width:1.0416666666666667;"/><path d="M330.5562,184.2387 Q330.129,184.4584 329.659,184.5683 Q329.189,184.6781 328.6702,184.6781 Q326.827,184.6781 325.8565,183.4635 Q324.8861,182.2489 324.8861,179.954 Q324.8861,177.653 325.8565,176.4384 Q326.827,175.2238 328.6702,175.2238 Q329.189,175.2238 329.6651,175.3337 Q330.1412,175.4435 330.5562,175.6632 L330.5562,177.6652 Q330.0924,177.238 329.656,177.0396 Q329.2196,176.8412 328.7557,176.8412 Q327.7669,176.8412 327.2634,177.6255 Q326.7598,178.4098 326.7598,179.954 Q326.7598,181.4921 327.2634,182.2764 Q327.7669,183.0607 328.7557,183.0607 Q329.2196,183.0607 329.656,182.8623 Q330.0924,182.664 330.5562,182.2367 Z " fill="#000000"/><text fill="#D8BC00" font-family="Open Sans,Avenir,Nunito,Arial,Helvetica,SansSerif" font-size="12.5" font-weight="bold" lengthAdjust="spacing" textLength="67.7083" x="351.5625" y="184.5378">HomePage</text><line style="stroke:#5E5E5E;stroke-width:1.5625;" x1="277.0833" x2="462.5" y1="195.5078" y2="195.5078"/><ellipse cx="287.5" cy="230.8777" fill="#84BE84" rx="3.125" ry="3.125" style="stroke:#038048;stroke-width:1.0416666666666667;"/><text fill="#D8BC00" font-family="Open Sans,Avenir,Nunito,Arial,Helvetica,SansSerif" font-size="11.4583" lengthAdjust="spacing" textLength="155.2083" x="298.9583" y="237.7889">HomePage(PageParameters)</text><line style="stroke:#5E5E5E;stroke-width:1.0416666666666667;" x1="277.0833" x2="326.0417" y1="213.7136" y2="213.7136"/><text fill="#D8BC00" font-family="Open Sans,Avenir,Nunito,Arial,Helvetica,SansSerif" font-size="11.4583" lengthAdjust="spacing" textLength="81.25" x="329.1667" y="217.5232">(constructors)</text><line style="stroke:#5E5E5E;stroke-width:1.0416666666666667;" x1="413.5417" x2="462.5" y1="213.7136" y2="213.7136"/><!--MD5=[818b680dd029f5404dc253254408b9c3]
class WicketExampleApplication--><rect fill="#282828" height="48.055" id="WicketExampleApplication" rx="8.3333" ry="8.3333" style="stroke:#5E5E5E;stroke-width:1.0416666666666667;" width="208.3333" x="516.6667" y="53.7028"/><rect fill="#1B1B1A" height="31.3883" rx="8.3333" ry="8.3333" style="stroke:#1B1B1A;stroke-width:1.0416666666666667;" width="208.3333" x="516.6667" y="53.7028"/><rect fill="#1B1B1A" height="8.3333" style="stroke:#1B1B1A;stroke-width:1.0416666666666667;" width="208.3333" x="516.6667" y="76.7578"/><rect fill="none" height="48.055" id="WicketExampleApplication" rx="8.3333" ry="8.3333" style="stroke:#5E5E5E;stroke-width:1.0416666666666667;" width="208.3333" x="516.6667" y="53.7028"/><ellipse cx="531.25" cy="69.397" fill="#0066CF" rx="10.4167" ry="10.4167" style="stroke:#0086EF;stroke-width:1.0416666666666667;"/><path d="M533.1604,73.822 Q532.7332,74.0417 532.2632,74.1516 Q531.7932,74.2615 531.2744,74.2615 Q529.4312,74.2615 528.4607,73.0469 Q527.4902,71.8323 527.4902,69.5374 Q527.4902,67.2363 528.4607,66.0217 Q529.4312,64.8071 531.2744,64.8071 Q531.7932,64.8071 532.2693,64.917 Q532.7454,65.0269 533.1604,65.2466 L533.1604,67.2485 Q532.6965,66.8213 532.2601,66.6229 Q531.8237,66.4246 531.3599,66.4246 Q530.3711,66.4246 529.8676,67.2089 Q529.364,67.9932 529.364,69.5374 Q529.364,71.0754 529.8676,71.8597 Q530.3711,72.644 531.3599,72.644 Q531.8237,72.644 532.2601,72.4457 Q532.6965,72.2473 533.1604,71.8201 Z " fill="#000000"/><text fill="#D8BC00" font-family="Open Sans,Avenir,Nunito,Arial,Helvetica,SansSerif" font-size="12.5" font-weight="bold" lengthAdjust="spacing" textLength="170.8333" x="547.9167" y="74.1211">WicketExampleApplication</text><line style="stroke:#5E5E5E;stroke-width:1.0416666666666667;" x1="517.7083" x2="723.9583" y1="85.0911" y2="85.0911"/><line style="stroke:#5E5E5E;stroke-width:1.0416666666666667;" x1="517.7083" x2="723.9583" y1="93.4245" y2="93.4245"/><!--MD5=[94e8f0fff8ad77822fab37229fb437d8]
class ResourceDecorationApplication--><rect codeLine="19" fill="#282828" height="67.7999" id="ResourceDecorationApplication" rx="8.3333" ry="8.3333" style="stroke:#5E5E5E;stroke-width:1.0416666666666667;" width="240.625" x="500.5208" y="171.932"/><rect fill="#1B1B1A" height="31.3883" rx="8.3333" ry="8.3333" style="stroke:#1B1B1A;stroke-width:1.0416666666666667;" width="240.625" x="500.5208" y="171.932"/><rect fill="#1B1B1A" height="8.3333" style="stroke:#1B1B1A;stroke-width:1.0416666666666667;" width="240.625" x="500.5208" y="194.987"/><rect codeLine="19" fill="none" height="67.7999" id="ResourceDecorationApplication" rx="8.3333" ry="8.3333" style="stroke:#5E5E5E;stroke-width:1.0416666666666667;" width="240.625" x="500.5208" y="171.932"/><ellipse cx="515.1042" cy="187.6261" fill="#0066CF" rx="10.4167" ry="10.4167" style="stroke:#0086EF;stroke-width:1.0416666666666667;"/><path d="M517.0146,192.0512 Q516.5873,192.2709 516.1174,192.3808 Q515.6474,192.4906 515.1286,192.4906 Q513.2853,192.4906 512.3149,191.276 Q511.3444,190.0614 511.3444,187.7665 Q511.3444,185.4655 512.3149,184.2509 Q513.2853,183.0363 515.1286,183.0363 Q515.6474,183.0363 516.1235,183.1462 Q516.5995,183.256 517.0146,183.4757 L517.0146,185.4777 Q516.5507,185.0505 516.1143,184.8521 Q515.6779,184.6537 515.214,184.6537 Q514.2253,184.6537 513.7217,185.438 Q513.2182,186.2223 513.2182,187.7665 Q513.2182,189.3046 513.7217,190.0889 Q514.2253,190.8732 515.214,190.8732 Q515.6779,190.8732 516.1143,190.6748 Q516.5507,190.4765 517.0146,190.0492 Z " fill="#000000"/><text fill="#D8BC00" font-family="Open Sans,Avenir,Nunito,Arial,Helvetica,SansSerif" font-size="12.5" font-weight="bold" lengthAdjust="spacing" textLength="203.125" x="531.7708" y="192.3503">ResourceDecorationApplication</text><line style="stroke:#5E5E5E;stroke-width:1.5625;" x1="501.5625" x2="740.1042" y1="203.3203" y2="203.3203"/><line style="stroke:#5E5E5E;stroke-width:1.0416666666666667;" x1="501.5625" x2="740.1042" y1="211.6536" y2="211.6536"/><ellipse cx="511.9792" cy="223.112" fill="#84BE84" rx="3.125" ry="3.125" style="stroke:#038048;stroke-width:1.0416666666666667;"/><text fill="#D8BC00" font-family="Open Sans,Avenir,Nunito,Arial,Helvetica,SansSerif" font-size="11.4583" lengthAdjust="spacing" textLength="206.25" x="523.4375" y="230.0232">ResourceDecorationApplication get()</text><!--MD5=[d173ac71a2bb4359702124b3272ab257]
reverse link WebMarkupContainer to HomePage.AjaxProofContainer--><path codeLine="6" d="M143.75,122.9528 C143.75,142.7965 143.75,165.3799 143.75,181.7757 " fill="none" id="WebMarkupContainer-backto-HomePage.AjaxProofContainer" style="stroke:#545454;stroke-width:1.5625;"/><polygon fill="none" points="136.4583,122.6507,143.75,101.8174,151.0417,122.6507,136.4583,122.6507" style="stroke:#545454;stroke-width:1.5625;"/><!--MD5=[d101864e95fbdcea1c24ae3939dd4bc8]
reverse link WicketExamplePage to HomePage--><path codeLine="11" d="M369.7917,122.682 C369.7917,136.0778 369.7917,150.7445 369.7917,163.9215 " fill="none" id="WicketExamplePage-backto-HomePage" style="stroke:#545454;stroke-width:1.5625;"/><polygon fill="none" points="362.5,122.6507,369.7917,101.8174,377.0833,122.6507,362.5,122.6507" style="stroke:#545454;stroke-width:1.5625;"/><!--MD5=[1461126ed4650a7704cc670cd9533050]
reverse link WicketExampleApplication to ResourceDecorationApplication--><path codeLine="18" d="M620.8333,122.8695 C620.8333,138.9632 620.8333,156.859 620.8333,171.807 " fill="none" id="WicketExampleApplication-backto-ResourceDecorationApplication" style="stroke:#545454;stroke-width:1.5625;"/><polygon fill="none" points="613.5417,122.6507,620.8333,101.8174,628.125,122.6507,613.5417,122.6507" style="stroke:#545454;stroke-width:1.5625;"/><!--MD5=[4355c6eceb02b6c6cfdb261a70d96ea3]
@startuml

    !include lexakai.theme
    
    title "org.apache.wicket.examples.resourcedecoration"
    
    WebMarkupContainer <|- - HomePage.AjaxProofContainer
    class HomePage.AjaxProofContainer
    {
    }
    
    WicketExamplePage <|- - HomePage
    class HomePage
    {
        - -(constructors)- -
        +HomePage(PageParameters)
    }
    
    WicketExampleApplication <|- - ResourceDecorationApplication
    class ResourceDecorationApplication
    {
        - -
        +ResourceDecorationApplication get()
    }
    
@enduml

@startuml









skinparam backgroundColor #333333






skinparam  {
    defaultFontName   "Open Sans,Avenir,Nunito,Arial,Helvetica,SansSerif"
    defaultFontSize   12
    defaultTextAlignment left
    shadowing false
    RoundCorner 10
    TitleFontSize 18
}

skinparam defaultFontName       "Open Sans,Avenir,Nunito,Arial,Helvetica,SansSerif"
skinparam defaultFontSize       12
skinparam dpi                   100
skinparam shadowing             false
skinparam roundcorner           16
skinparam ParticipantPadding    40
skinparam BoxPadding            40
skinparam Padding               3
skinparam ArrowColor            #545454
skinparam stereotype {
    CBackgroundColor #0066cf
    CBorderColor #0086ef
    ABackgroundColor #C8Ac00
    ABorderColor #D8Bc00
    IBackgroundColor #008400
    IBorderColor #239c23
    EBackgroundColor #cf6300
    EBorderColor #ef8300
    NBackgroundColor #3380b9
    NBorderColor #004d86
}
skinparam title {
	FontColor	                 #c0c0c0
 	BorderColor                  #545454
	FontSize	    	         20
	BorderRoundCorner            16
	BorderThickness 	         1
	BackgroundColor              #48494b
}


skinparam legend {
	BackgroundColor #303030
	BorderColor #404040
	FontColor #a0a0a0
}

	skinparam swimlane {
	BorderColor #5e5e5e
	BorderThickness 2
	TitleBackgroundColor  #6d6d6d-#484848
	TitleFontColor #303030
}

skinparam activity {
		FontColor #C8Ac00
	BorderColor #333333
	BackgroundColor #333333-#333333
	BarColor #00FF00
	StartColor #0060a8
	EndColor #0060a8
	DiamondBackgroundColor #6d6d6d-#3a3a3a
  	DiamondBorderColor #3a3a3a
  	DiamondFontColor #fefefe
}


skinparam participant {
		FontColor #C8Ac00
	BorderColor #333333
	BackgroundColor #333333-#333333
	ParticipantBorderThickness 2
}


skinparam actor {
		FontColor #C8Ac00
	BorderColor #333333
	BackgroundColor #333333-#333333
}


skinparam arrow {
	Thickness 1.5
	Color #545454
	FontColor #a0a0a0
    FontStyle bold
    MessageAlignment center
}



skinparam sequence {
	BorderColor #303030
	TitleFontColor #303030
	BackgroundColor #333333
	StartColor #303030
	EndColor #303030
	BoxBackgroundColor #333333
	BoxBorderColor #484848
	BoxFontColor #484848
	LifeLineBorderColor #484848
	LifeLineBorderThickness 2
	LifeLineBackgroundColor #3a3a3a
	GroupBorderColor #484848
	GroupFontColor #484848
	GroupHeaderFontColor #0060a8
	GroupBackgroundColor #484848
	GroupHeaderBackgroundColor #333333
	DividerBackgroundColor #484848
    DividerBorderColor #484848
    DividerBorderThickness 2
    DividerFontColor #D8Bc00
	ReferenceBackgroundColor #333333
	ReferenceBorderColor #484848
	ReferenceFontColor #fefefe
	ReferenceHeaderBackgroundColor #484848
}


skinparam partition {
	BorderColor #303030
	FontColor #333333
	BackgroundColor #333333
}


skinparam collections {
		FontColor #C8Ac00
	BorderColor #333333
	BackgroundColor #333333-#333333
}


skinparam control {
		FontColor #C8Ac00
	BorderColor #333333
	BackgroundColor #333333-#333333
}


skinparam entity {
		FontColor #C8Ac00
	BorderColor #333333
	BackgroundColor #333333-#333333
}


skinparam boundary {
		FontColor #C8Ac00
	BorderColor #333333
	BackgroundColor #333333-#333333
}


skinparam agent {
	BackgroundColor #ff8000
	BorderColor #ff9933
	FontColor #484848
}


skinparam note {
	BorderThickness 1
	BackgroundColor #1b1b1a
	BorderColor #5e5e5e
	FontSize 11
	FontColor #a0a0a0
}


skinparam artifact {
	BorderThickness 10
	BorderColor #5e5e5e
	BackgroundColor #1b1b1a
	FontColor #D8Bc00
}


skinparam component {
		FontColor #C8Ac00
	BorderColor #333333
	BackgroundColor #333333-#333333
}


skinparam interface {
	BackgroundColor  #008400
	BorderColor  #007F00
	FontColor #484848
}


skinparam storage {
	BackgroundColor #ff8000
  	BorderColor #cc6600
	FontColor #222222
}


skinparam node {
	BackgroundColor #333333
	BorderColor #333333
	FontColor #C8Ac00
}


skinparam cloud {
	BackgroundColor #484848-black
	BorderColor #484848
	FontColor #D8Bc00
}


skinparam database {
		FontColor #C8Ac00
	BorderColor #333333
	BackgroundColor #333333-#333333
	BackgroundColor  #333333
}


skinparam class {
		FontColor #C8Ac00
	BorderColor #333333
	BackgroundColor #333333-#333333
	HeaderBackgroundColor #1b1b1a
    BackgroundColor #282828
    BorderColor #5e5e5e
 	StereotypeFontColor #a0a0a0
    StereotypeFontStyle bold
	BorderThickness 1
	AttributeFontColor #D8Bc00
	AttributeFontSize 11
    FontColor #D8Bc00
    FontStyle bold
}


skinparam object {
		FontColor #C8Ac00
	BorderColor #333333
	BackgroundColor #333333-#333333
	StereotypeFontColor #484848
	BorderThickness 1
	AttributeFontColor #fefefe
	AttributeFontSize 11
}


skinparam usecase {
		FontColor #C8Ac00
	BorderColor #333333
	BackgroundColor #333333-#333333
	BorderThickness 2
	StereotypeFontColor #303030
}


skinparam rectangle {
		FontColor #C8Ac00
	BorderColor #333333
	BackgroundColor #333333-#333333
	BackgroundColor #333333
	BorderThickness 2
	StereotypeFontColor #303030
}


skinparam package {
		FontColor #C8Ac00
	BorderColor #333333
	BackgroundColor #333333-#333333
	BackgroundColor #333333
	BorderThickness 2
}


skinparam folder {
	BackgroundColor #6d6d6d
  	BorderColor #ff8000
	FontColor #ff8000
	BorderThickness 2
}


skinparam frame {
	BackgroundColor #6d6d6d
  	BorderColor #0060a8
	FontColor #0060a8
	BorderThickness 2
}


skinparam state {
		FontColor #C8Ac00
	BorderColor #333333
	BackgroundColor #333333-#333333
	StartColor #0060a8
	EndColor #0060a8
	AttributeFontColor #fefefe
	AttributeFontSize 11
}


skinparam queue {
		FontColor #C8Ac00
	BorderColor #333333
	BackgroundColor #333333-#333333
}


skinparam card {
	BackgroundColor #0060a8
	BorderColor #004d86
	FontColor $INFO_TEXT
}


skinparam file {
	BackgroundColor #6d6d6d-#484848
	BorderColor #0060a8
	FontColor #fefefe
}


skinparam stack {
		FontColor #C8Ac00
	BorderColor #333333
	BackgroundColor #333333-#333333
}

    
    title "org.apache.wicket.examples.resourcedecoration"
    
    WebMarkupContainer <|- - HomePage.AjaxProofContainer
    class HomePage.AjaxProofContainer
    {
    }
    
    WicketExamplePage <|- - HomePage
    class HomePage
    {
        - -(constructors)- -
        +HomePage(PageParameters)
    }
    
    WicketExampleApplication <|- - ResourceDecorationApplication
    class ResourceDecorationApplication
    {
        - -
        +ResourceDecorationApplication get()
    }
    
@enduml

PlantUML version 1.2021.01(Tue Feb 02 00:55:08 MST 2021)
(GPL source distribution)
Java Runtime: Java(TM) SE Runtime Environment
JVM: Java HotSpot(TM) 64-Bit Server VM
Default Encoding: UTF-8
Language: en
Country: US
--></g></svg>