<?xml version="1.0" encoding="UTF-8" standalone="no"?><svg xmlns="http://www.w3.org/2000/svg" xmlns:xlink="http://www.w3.org/1999/xlink" contentScriptType="application/ecmascript" contentStyleType="text/css" height="357.2917px" preserveAspectRatio="none" style="width:1970px;height:357px;background:#333333;" version="1.1" viewBox="0 0 1970 357" width="1970.8333px" zoomAndPan="magnify"><defs/><g><rect fill="#48494B" height="41.2028" rx="8.3333" ry="8.3333" style="stroke:#545454;stroke-width:1.0416666666666667;" width="417.7083" x="769.5313" y="2.0833"/><text fill="#C0C0C0" font-family="Open Sans,Avenir,Nunito,Arial,Helvetica,SansSerif" font-size="20.8333" lengthAdjust="spacing" textLength="394.7917" x="780.9896" y="30.5583">org.apache.wicket.examples.linkomatic</text><!--MD5=[cd6fe5c68cc4750b98a6651e5a9afd2b]
class IClusterable--><rect codeLine="6" fill="#282828" height="48.055" id="IClusterable" rx="8.3333" ry="8.3333" style="stroke:#5E5E5E;stroke-width:1.0416666666666667;" width="115.625" x="32.2917" y="53.7028"/><rect fill="#1B1B1A" height="31.3883" rx="8.3333" ry="8.3333" style="stroke:#1B1B1A;stroke-width:1.0416666666666667;" width="115.625" x="32.2917" y="53.7028"/><rect fill="#1B1B1A" height="8.3333" style="stroke:#1B1B1A;stroke-width:1.0416666666666667;" width="115.625" x="32.2917" y="76.7578"/><rect codeLine="6" fill="none" height="48.055" id="IClusterable" rx="8.3333" ry="8.3333" style="stroke:#5E5E5E;stroke-width:1.0416666666666667;" width="115.625" x="32.2917" y="53.7028"/><ellipse cx="46.875" cy="69.397" fill="#008400" rx="10.4167" ry="10.4167" style="stroke:#239C23;stroke-width:1.0416666666666667;"/><path d="M44.279,66.5588 L44.279,64.9719 L49.705,64.9719 L49.705,66.5588 L47.8923,66.5588 L47.8923,72.4976 L49.705,72.4976 L49.705,74.0845 L44.279,74.0845 L44.279,72.4976 L46.0917,72.4976 L46.0917,66.5588 Z " fill="#000000"/><text fill="#D8BC00" font-family="Open Sans,Avenir,Nunito,Arial,Helvetica,SansSerif" font-size="12.5" font-style="italic" font-weight="bold" lengthAdjust="spacing" textLength="78.125" x="63.5417" y="74.1211">IClusterable</text><line style="stroke:#5E5E5E;stroke-width:1.0416666666666667;" x1="33.3333" x2="146.875" y1="85.0911" y2="85.0911"/><line style="stroke:#5E5E5E;stroke-width:1.0416666666666667;" x1="33.3333" x2="146.875" y1="93.4245" y2="93.4245"/><!--MD5=[84e3a5e42879fb3231104d3c8e592439]
class Book--><rect codeLine="9" fill="#282828" height="131.2012" id="Book" rx="8.3333" ry="8.3333" style="stroke:#5E5E5E;stroke-width:1.0416666666666667;" width="165.625" x="7.2917" y="191.7236"/><rect fill="#1B1B1A" height="31.3883" rx="8.3333" ry="8.3333" style="stroke:#1B1B1A;stroke-width:1.0416666666666667;" width="165.625" x="7.2917" y="191.7236"/><rect fill="#1B1B1A" height="8.3333" style="stroke:#1B1B1A;stroke-width:1.0416666666666667;" width="165.625" x="7.2917" y="214.7786"/><rect codeLine="9" fill="none" height="131.2012" id="Book" rx="8.3333" ry="8.3333" style="stroke:#5E5E5E;stroke-width:1.0416666666666667;" width="165.625" x="7.2917" y="191.7236"/><ellipse cx="66.1458" cy="207.4178" fill="#0066CF" rx="10.4167" ry="10.4167" style="stroke:#0086EF;stroke-width:1.0416666666666667;"/><path d="M68.0562,211.8429 Q67.629,212.0626 67.159,212.1724 Q66.689,212.2823 66.1702,212.2823 Q64.327,212.2823 63.3565,211.0677 Q62.3861,209.8531 62.3861,207.5582 Q62.3861,205.2572 63.3565,204.0426 Q64.327,202.828 66.1702,202.828 Q66.689,202.828 67.1651,202.9378 Q67.6412,203.0477 68.0562,203.2674 L68.0562,205.2694 Q67.5924,204.8421 67.156,204.6438 Q66.7196,204.4454 66.2557,204.4454 Q65.2669,204.4454 64.7634,205.2297 Q64.2598,206.014 64.2598,207.5582 Q64.2598,209.0963 64.7634,209.8806 Q65.2669,210.6649 66.2557,210.6649 Q66.7196,210.6649 67.156,210.4665 Q67.5924,210.2681 68.0562,209.8409 Z " fill="#000000"/><text fill="#D8BC00" font-family="Open Sans,Avenir,Nunito,Arial,Helvetica,SansSerif" font-size="12.5" font-weight="bold" lengthAdjust="spacing" textLength="33.3333" x="89.0625" y="212.1419">Book</text><line style="stroke:#5E5E5E;stroke-width:1.5625;" x1="8.3333" x2="171.875" y1="223.112" y2="223.112"/><ellipse cx="18.75" cy="258.4819" fill="#84BE84" rx="3.125" ry="3.125" style="stroke:#038048;stroke-width:1.0416666666666667;"/><text fill="#D8BC00" font-family="Open Sans,Avenir,Nunito,Arial,Helvetica,SansSerif" font-size="11.4583" lengthAdjust="spacing" textLength="68.75" x="30.2083" y="265.3931">Book(String)</text><line style="stroke:#5E5E5E;stroke-width:1.0416666666666667;" x1="8.3333" x2="46.3542" y1="241.3177" y2="241.3177"/><text fill="#D8BC00" font-family="Open Sans,Avenir,Nunito,Arial,Helvetica,SansSerif" font-size="11.4583" lengthAdjust="spacing" textLength="81.25" x="49.4792" y="245.1274">(constructors)</text><line style="stroke:#5E5E5E;stroke-width:1.0416666666666667;" x1="133.8542" x2="171.875" y1="241.3177" y2="241.3177"/><line style="stroke:#5E5E5E;stroke-width:1.0416666666666667;" x1="8.3333" x2="171.875" y1="275.1017" y2="275.1017"/><ellipse cx="18.75" cy="286.5601" fill="#84BE84" rx="3.125" ry="3.125" style="stroke:#038048;stroke-width:1.0416666666666667;"/><text fill="#D8BC00" font-family="Open Sans,Avenir,Nunito,Arial,Helvetica,SansSerif" font-size="11.4583" lengthAdjust="spacing" textLength="86.4583" x="30.2083" y="293.4713">String getTitle()</text><ellipse cx="18.75" cy="306.3049" fill="#84BE84" rx="3.125" ry="3.125" style="stroke:#038048;stroke-width:1.0416666666666667;"/><text fill="#D8BC00" font-family="Open Sans,Avenir,Nunito,Arial,Helvetica,SansSerif" font-size="11.4583" lengthAdjust="spacing" textLength="133.3333" x="30.2083" y="313.2161">void setTitle(String title)</text><!--MD5=[8de0e4c819f220f8e0c4c4df41ba59ce]
class WicketExamplePage--><rect fill="#282828" height="48.055" id="WicketExamplePage" rx="8.3333" ry="8.3333" style="stroke:#5E5E5E;stroke-width:1.0416666666666667;" width="164.5833" x="869.2708" y="53.7028"/><rect fill="#1B1B1A" height="31.3883" rx="8.3333" ry="8.3333" style="stroke:#1B1B1A;stroke-width:1.0416666666666667;" width="164.5833" x="869.2708" y="53.7028"/><rect fill="#1B1B1A" height="8.3333" style="stroke:#1B1B1A;stroke-width:1.0416666666666667;" width="164.5833" x="869.2708" y="76.7578"/><rect fill="none" height="48.055" id="WicketExamplePage" rx="8.3333" ry="8.3333" style="stroke:#5E5E5E;stroke-width:1.0416666666666667;" width="164.5833" x="869.2708" y="53.7028"/><ellipse cx="883.8542" cy="69.397" fill="#0066CF" rx="10.4167" ry="10.4167" style="stroke:#0086EF;stroke-width:1.0416666666666667;"/><path d="M885.7646,73.822 Q885.3373,74.0417 884.8674,74.1516 Q884.3974,74.2615 883.8786,74.2615 Q882.0353,74.2615 881.0649,73.0469 Q880.0944,71.8323 880.0944,69.5374 Q880.0944,67.2363 881.0649,66.0217 Q882.0353,64.8071 883.8786,64.8071 Q884.3974,64.8071 884.8735,64.917 Q885.3495,65.0269 885.7646,65.2466 L885.7646,67.2485 Q885.3007,66.8213 884.8643,66.6229 Q884.4279,66.4246 883.964,66.4246 Q882.9753,66.4246 882.4717,67.2089 Q881.9682,67.9932 881.9682,69.5374 Q881.9682,71.0754 882.4717,71.8597 Q882.9753,72.644 883.964,72.644 Q884.4279,72.644 884.8643,72.4457 Q885.3007,72.2473 885.7646,71.8201 Z " fill="#000000"/><text fill="#D8BC00" font-family="Open Sans,Avenir,Nunito,Arial,Helvetica,SansSerif" font-size="12.5" font-weight="bold" lengthAdjust="spacing" textLength="127.0833" x="900.5208" y="74.1211">WicketExamplePage</text><line style="stroke:#5E5E5E;stroke-width:1.0416666666666667;" x1="870.3125" x2="1032.8125" y1="85.0911" y2="85.0911"/><line style="stroke:#5E5E5E;stroke-width:1.0416666666666667;" x1="870.3125" x2="1032.8125" y1="93.4245" y2="93.4245"/><!--MD5=[8ad32105782531ed7edf4d36b3f8b9d0]
class BookDetails--><rect codeLine="19" fill="#282828" height="83.3781" id="BookDetails" rx="8.3333" ry="8.3333" style="stroke:#5E5E5E;stroke-width:1.0416666666666667;" width="132.2917" x="209.375" y="215.682"/><rect fill="#1B1B1A" height="31.3883" rx="8.3333" ry="8.3333" style="stroke:#1B1B1A;stroke-width:1.0416666666666667;" width="132.2917" x="209.375" y="215.682"/><rect fill="#1B1B1A" height="8.3333" style="stroke:#1B1B1A;stroke-width:1.0416666666666667;" width="132.2917" x="209.375" y="238.737"/><rect codeLine="19" fill="none" height="83.3781" id="BookDetails" rx="8.3333" ry="8.3333" style="stroke:#5E5E5E;stroke-width:1.0416666666666667;" width="132.2917" x="209.375" y="215.682"/><ellipse cx="230.9896" cy="231.3761" fill="#0066CF" rx="10.4167" ry="10.4167" style="stroke:#0086EF;stroke-width:1.0416666666666667;"/><path d="M232.9,235.8012 Q232.4727,236.0209 232.0028,236.1308 Q231.5328,236.2406 231.014,236.2406 Q229.1707,236.2406 228.2003,235.026 Q227.2298,233.8114 227.2298,231.5165 Q227.2298,229.2155 228.2003,228.0009 Q229.1707,226.7863 231.014,226.7863 Q231.5328,226.7863 232.0089,226.8962 Q232.4849,227.006 232.9,227.2257 L232.9,229.2277 Q232.4361,228.8005 231.9997,228.6021 Q231.5633,228.4037 231.0994,228.4037 Q230.1107,228.4037 229.6071,229.188 Q229.1036,229.9723 229.1036,231.5165 Q229.1036,233.0546 229.6071,233.8389 Q230.1107,234.6232 231.0994,234.6232 Q231.5633,234.6232 231.9997,234.4248 Q232.4361,234.2265 232.9,233.7992 Z " fill="#000000"/><text fill="#D8BC00" font-family="Open Sans,Avenir,Nunito,Arial,Helvetica,SansSerif" font-size="12.5" font-weight="bold" lengthAdjust="spacing" textLength="79.1667" x="249.2188" y="236.1003">BookDetails</text><line style="stroke:#5E5E5E;stroke-width:1.5625;" x1="210.4167" x2="340.625" y1="247.0703" y2="247.0703"/><ellipse cx="220.8333" cy="282.4402" fill="#84BE84" rx="3.125" ry="3.125" style="stroke:#038048;stroke-width:1.0416666666666667;"/><text fill="#D8BC00" font-family="Open Sans,Avenir,Nunito,Arial,Helvetica,SansSerif" font-size="11.4583" lengthAdjust="spacing" textLength="100" x="232.2917" y="289.3514">BookDetails(Book)</text><line style="stroke:#5E5E5E;stroke-width:1.0416666666666667;" x1="210.4167" x2="231.7708" y1="265.2761" y2="265.2761"/><text fill="#D8BC00" font-family="Open Sans,Avenir,Nunito,Arial,Helvetica,SansSerif" font-size="11.4583" lengthAdjust="spacing" textLength="81.25" x="234.8958" y="269.0857">(constructors)</text><line style="stroke:#5E5E5E;stroke-width:1.0416666666666667;" x1="319.2708" x2="340.625" y1="265.2761" y2="265.2761"/><!--MD5=[85bae912d113bb0b86a623a745020199]
class Home--><rect codeLine="26" fill="#282828" height="186.2691" id="Home" rx="8.3333" ry="8.3333" style="stroke:#5E5E5E;stroke-width:1.0416666666666667;" width="356.25" x="378.6458" y="164.1195"/><rect fill="#1B1B1A" height="31.3883" rx="8.3333" ry="8.3333" style="stroke:#1B1B1A;stroke-width:1.0416666666666667;" width="356.25" x="378.6458" y="164.1195"/><rect fill="#1B1B1A" height="8.3333" style="stroke:#1B1B1A;stroke-width:1.0416666666666667;" width="356.25" x="378.6458" y="187.1745"/><rect codeLine="26" fill="none" height="186.2691" id="Home" rx="8.3333" ry="8.3333" style="stroke:#5E5E5E;stroke-width:1.0416666666666667;" width="356.25" x="378.6458" y="164.1195"/><ellipse cx="530.7292" cy="179.8136" fill="#0066CF" rx="10.4167" ry="10.4167" style="stroke:#0086EF;stroke-width:1.0416666666666667;"/><path d="M532.6396,184.2387 Q532.2123,184.4584 531.7424,184.5683 Q531.2724,184.6781 530.7536,184.6781 Q528.9103,184.6781 527.9399,183.4635 Q526.9694,182.2489 526.9694,179.954 Q526.9694,177.653 527.9399,176.4384 Q528.9103,175.2238 530.7536,175.2238 Q531.2724,175.2238 531.7485,175.3337 Q532.2245,175.4435 532.6396,175.6632 L532.6396,177.6652 Q532.1757,177.238 531.7393,177.0396 Q531.3029,176.8412 530.839,176.8412 Q529.8503,176.8412 529.3467,177.6255 Q528.8432,178.4098 528.8432,179.954 Q528.8432,181.4921 529.3467,182.2764 Q529.8503,183.0607 530.839,183.0607 Q531.3029,183.0607 531.7393,182.8623 Q532.1757,182.664 532.6396,182.2367 Z " fill="#000000"/><text fill="#D8BC00" font-family="Open Sans,Avenir,Nunito,Arial,Helvetica,SansSerif" font-size="12.5" font-weight="bold" lengthAdjust="spacing" textLength="37.5" x="553.6458" y="184.5378">Home</text><line style="stroke:#5E5E5E;stroke-width:1.5625;" x1="379.6875" x2="733.8542" y1="195.5078" y2="195.5078"/><ellipse cx="390.1042" cy="230.8777" fill="#84BE84" rx="3.125" ry="3.125" style="stroke:#038048;stroke-width:1.0416666666666667;"/><text fill="#D8BC00" font-family="Open Sans,Avenir,Nunito,Arial,Helvetica,SansSerif" font-size="11.4583" lengthAdjust="spacing" textLength="40.625" x="401.5625" y="237.7889">Home()</text><line style="stroke:#5E5E5E;stroke-width:1.0416666666666667;" x1="379.6875" x2="513.0208" y1="213.7136" y2="213.7136"/><text fill="#D8BC00" font-family="Open Sans,Avenir,Nunito,Arial,Helvetica,SansSerif" font-size="11.4583" lengthAdjust="spacing" textLength="81.25" x="516.1458" y="217.5232">(constructors)</text><line style="stroke:#5E5E5E;stroke-width:1.0416666666666667;" x1="600.5208" x2="733.8542" y1="213.7136" y2="213.7136"/><ellipse cx="390.1042" cy="274.5341" fill="#84BE84" rx="3.125" ry="3.125" style="stroke:#038048;stroke-width:1.0416666666666667;"/><text fill="#D8BC00" font-family="Open Sans,Avenir,Nunito,Arial,Helvetica,SansSerif" font-size="11.4583" lengthAdjust="spacing" textLength="128.125" x="401.5625" y="281.4453">int getLinkClickCount()</text><ellipse cx="390.1042" cy="294.279" fill="#84BE84" rx="3.125" ry="3.125" style="stroke:#038048;stroke-width:1.0416666666666667;"/><text fill="#D8BC00" font-family="Open Sans,Avenir,Nunito,Arial,Helvetica,SansSerif" font-size="11.4583" lengthAdjust="spacing" textLength="171.875" x="401.5625" y="301.1902">int getOnClickLinkClickCount()</text><ellipse cx="390.1042" cy="314.0238" fill="#84BE84" rx="3.125" ry="3.125" style="stroke:#038048;stroke-width:1.0416666666666667;"/><text fill="#D8BC00" font-family="Open Sans,Avenir,Nunito,Arial,Helvetica,SansSerif" font-size="11.4583" lengthAdjust="spacing" textLength="235.4167" x="401.5625" y="320.9351">void setLinkClickCount(int linkClickCount)</text><ellipse cx="390.1042" cy="333.7687" fill="#84BE84" rx="3.125" ry="3.125" style="stroke:#038048;stroke-width:1.0416666666666667;"/><text fill="#D8BC00" font-family="Open Sans,Avenir,Nunito,Arial,Helvetica,SansSerif" font-size="11.4583" lengthAdjust="spacing" textLength="323.9583" x="401.5625" y="340.6799">void setOnClickLinkClickCount(int onClickLinkClickCount)</text><line style="stroke:#5E5E5E;stroke-width:1.0416666666666667;" x1="379.6875" x2="522.3958" y1="257.37" y2="257.37"/><text fill="#D8BC00" font-family="Open Sans,Avenir,Nunito,Arial,Helvetica,SansSerif" font-size="11.4583" lengthAdjust="spacing" textLength="62.5" x="525.5208" y="261.1796">(collection)</text><line style="stroke:#5E5E5E;stroke-width:1.0416666666666667;" x1="591.1458" x2="733.8542" y1="257.37" y2="257.37"/><!--MD5=[818b680dd029f5404dc253254408b9c3]
class WicketExampleApplication--><rect fill="#282828" height="48.055" id="WicketExampleApplication" rx="8.3333" ry="8.3333" style="stroke:#5E5E5E;stroke-width:1.0416666666666667;" width="208.3333" x="1488.0208" y="53.7028"/><rect fill="#1B1B1A" height="31.3883" rx="8.3333" ry="8.3333" style="stroke:#1B1B1A;stroke-width:1.0416666666666667;" width="208.3333" x="1488.0208" y="53.7028"/><rect fill="#1B1B1A" height="8.3333" style="stroke:#1B1B1A;stroke-width:1.0416666666666667;" width="208.3333" x="1488.0208" y="76.7578"/><rect fill="none" height="48.055" id="WicketExampleApplication" rx="8.3333" ry="8.3333" style="stroke:#5E5E5E;stroke-width:1.0416666666666667;" width="208.3333" x="1488.0208" y="53.7028"/><ellipse cx="1502.6042" cy="69.397" fill="#0066CF" rx="10.4167" ry="10.4167" style="stroke:#0086EF;stroke-width:1.0416666666666667;"/><path d="M1504.5146,73.822 Q1504.0873,74.0417 1503.6174,74.1516 Q1503.1474,74.2615 1502.6286,74.2615 Q1500.7853,74.2615 1499.8149,73.0469 Q1498.8444,71.8323 1498.8444,69.5374 Q1498.8444,67.2363 1499.8149,66.0217 Q1500.7853,64.8071 1502.6286,64.8071 Q1503.1474,64.8071 1503.6235,64.917 Q1504.0995,65.0269 1504.5146,65.2466 L1504.5146,67.2485 Q1504.0507,66.8213 1503.6143,66.6229 Q1503.1779,66.4246 1502.714,66.4246 Q1501.7253,66.4246 1501.2217,67.2089 Q1500.7182,67.9932 1500.7182,69.5374 Q1500.7182,71.0754 1501.2217,71.8597 Q1501.7253,72.644 1502.714,72.644 Q1503.1779,72.644 1503.6143,72.4457 Q1504.0507,72.2473 1504.5146,71.8201 Z " fill="#000000"/><text fill="#D8BC00" font-family="Open Sans,Avenir,Nunito,Arial,Helvetica,SansSerif" font-size="12.5" font-weight="bold" lengthAdjust="spacing" textLength="170.8333" x="1519.2708" y="74.1211">WicketExampleApplication</text><line style="stroke:#5E5E5E;stroke-width:1.0416666666666667;" x1="1489.0625" x2="1695.3125" y1="85.0911" y2="85.0911"/><line style="stroke:#5E5E5E;stroke-width:1.0416666666666667;" x1="1489.0625" x2="1695.3125" y1="93.4245" y2="93.4245"/><!--MD5=[4df0f0aeb3ee8026213fecda0800f271]
class LinkomaticApplication--><rect codeLine="38" fill="#282828" height="48.055" id="LinkomaticApplication" rx="8.3333" ry="8.3333" style="stroke:#5E5E5E;stroke-width:1.0416666666666667;" width="183.3333" x="1500.5208" y="233.3903"/><rect fill="#1B1B1A" height="31.3883" rx="8.3333" ry="8.3333" style="stroke:#1B1B1A;stroke-width:1.0416666666666667;" width="183.3333" x="1500.5208" y="233.3903"/><rect fill="#1B1B1A" height="8.3333" style="stroke:#1B1B1A;stroke-width:1.0416666666666667;" width="183.3333" x="1500.5208" y="256.4453"/><rect codeLine="38" fill="none" height="48.055" id="LinkomaticApplication" rx="8.3333" ry="8.3333" style="stroke:#5E5E5E;stroke-width:1.0416666666666667;" width="183.3333" x="1500.5208" y="233.3903"/><ellipse cx="1515.1042" cy="249.0845" fill="#0066CF" rx="10.4167" ry="10.4167" style="stroke:#0086EF;stroke-width:1.0416666666666667;"/><path d="M1517.0146,253.5095 Q1516.5873,253.7292 1516.1174,253.8391 Q1515.6474,253.949 1515.1286,253.949 Q1513.2853,253.949 1512.3149,252.7344 Q1511.3444,251.5198 1511.3444,249.2249 Q1511.3444,246.9238 1512.3149,245.7092 Q1513.2853,244.4946 1515.1286,244.4946 Q1515.6474,244.4946 1516.1235,244.6045 Q1516.5995,244.7144 1517.0146,244.9341 L1517.0146,246.936 Q1516.5507,246.5088 1516.1143,246.3104 Q1515.6779,246.1121 1515.214,246.1121 Q1514.2253,246.1121 1513.7217,246.8964 Q1513.2182,247.6807 1513.2182,249.2249 Q1513.2182,250.7629 1513.7217,251.5472 Q1514.2253,252.3315 1515.214,252.3315 Q1515.6779,252.3315 1516.1143,252.1332 Q1516.5507,251.9348 1517.0146,251.5076 Z " fill="#000000"/><text fill="#D8BC00" font-family="Open Sans,Avenir,Nunito,Arial,Helvetica,SansSerif" font-size="12.5" font-weight="bold" lengthAdjust="spacing" textLength="145.8333" x="1531.7708" y="253.8086">LinkomaticApplication</text><line style="stroke:#5E5E5E;stroke-width:1.0416666666666667;" x1="1501.5625" x2="1682.8125" y1="264.7786" y2="264.7786"/><line style="stroke:#5E5E5E;stroke-width:1.0416666666666667;" x1="1501.5625" x2="1682.8125" y1="273.112" y2="273.112"/><!--MD5=[06b688d0b738e4cac92d287870990ff7]
class Page1--><rect codeLine="43" fill="#282828" height="83.3781" id="Page1" rx="8.3333" ry="8.3333" style="stroke:#5E5E5E;stroke-width:1.0416666666666667;" width="162.5" x="771.3542" y="215.682"/><rect fill="#1B1B1A" height="31.3883" rx="8.3333" ry="8.3333" style="stroke:#1B1B1A;stroke-width:1.0416666666666667;" width="162.5" x="771.3542" y="215.682"/><rect fill="#1B1B1A" height="8.3333" style="stroke:#1B1B1A;stroke-width:1.0416666666666667;" width="162.5" x="771.3542" y="238.737"/><rect codeLine="43" fill="none" height="83.3781" id="Page1" rx="8.3333" ry="8.3333" style="stroke:#5E5E5E;stroke-width:1.0416666666666667;" width="162.5" x="771.3542" y="215.682"/><ellipse cx="826.0417" cy="231.3761" fill="#0066CF" rx="10.4167" ry="10.4167" style="stroke:#0086EF;stroke-width:1.0416666666666667;"/><path d="M827.9521,235.8012 Q827.5248,236.0209 827.0549,236.1308 Q826.5849,236.2406 826.0661,236.2406 Q824.2228,236.2406 823.2524,235.026 Q822.2819,233.8114 822.2819,231.5165 Q822.2819,229.2155 823.2524,228.0009 Q824.2228,226.7863 826.0661,226.7863 Q826.5849,226.7863 827.061,226.8962 Q827.537,227.006 827.9521,227.2257 L827.9521,229.2277 Q827.4882,228.8005 827.0518,228.6021 Q826.6154,228.4037 826.1515,228.4037 Q825.1628,228.4037 824.6592,229.188 Q824.1557,229.9723 824.1557,231.5165 Q824.1557,233.0546 824.6592,233.8389 Q825.1628,234.6232 826.1515,234.6232 Q826.6154,234.6232 827.0518,234.4248 Q827.4882,234.2265 827.9521,233.7992 Z " fill="#000000"/><text fill="#D8BC00" font-family="Open Sans,Avenir,Nunito,Arial,Helvetica,SansSerif" font-size="12.5" font-weight="bold" lengthAdjust="spacing" textLength="38.5417" x="848.9583" y="236.1003">Page1</text><line style="stroke:#5E5E5E;stroke-width:1.5625;" x1="772.3958" x2="932.8125" y1="247.0703" y2="247.0703"/><ellipse cx="782.8125" cy="282.4402" fill="#84BE84" rx="3.125" ry="3.125" style="stroke:#038048;stroke-width:1.0416666666666667;"/><text fill="#D8BC00" font-family="Open Sans,Avenir,Nunito,Arial,Helvetica,SansSerif" font-size="11.4583" lengthAdjust="spacing" textLength="130.2083" x="794.2708" y="289.3514">Page1(PageParameters)</text><line style="stroke:#5E5E5E;stroke-width:1.0416666666666667;" x1="772.3958" x2="808.8542" y1="265.2761" y2="265.2761"/><text fill="#D8BC00" font-family="Open Sans,Avenir,Nunito,Arial,Helvetica,SansSerif" font-size="11.4583" lengthAdjust="spacing" textLength="81.25" x="811.9792" y="269.0857">(constructors)</text><line style="stroke:#5E5E5E;stroke-width:1.0416666666666667;" x1="896.3542" x2="932.8125" y1="265.2761" y2="265.2761"/><!--MD5=[60836b88cd0974e36522c374daade8cb]
class Page2--><rect codeLine="50" fill="#282828" height="83.3781" id="Page2" rx="8.3333" ry="8.3333" style="stroke:#5E5E5E;stroke-width:1.0416666666666667;" width="162.5" x="970.3125" y="215.682"/><rect fill="#1B1B1A" height="31.3883" rx="8.3333" ry="8.3333" style="stroke:#1B1B1A;stroke-width:1.0416666666666667;" width="162.5" x="970.3125" y="215.682"/><rect fill="#1B1B1A" height="8.3333" style="stroke:#1B1B1A;stroke-width:1.0416666666666667;" width="162.5" x="970.3125" y="238.737"/><rect codeLine="50" fill="none" height="83.3781" id="Page2" rx="8.3333" ry="8.3333" style="stroke:#5E5E5E;stroke-width:1.0416666666666667;" width="162.5" x="970.3125" y="215.682"/><ellipse cx="1025" cy="231.3761" fill="#0066CF" rx="10.4167" ry="10.4167" style="stroke:#0086EF;stroke-width:1.0416666666666667;"/><path d="M1026.9104,235.8012 Q1026.4832,236.0209 1026.0132,236.1308 Q1025.5432,236.2406 1025.0244,236.2406 Q1023.1812,236.2406 1022.2107,235.026 Q1021.2402,233.8114 1021.2402,231.5165 Q1021.2402,229.2155 1022.2107,228.0009 Q1023.1812,226.7863 1025.0244,226.7863 Q1025.5432,226.7863 1026.0193,226.8962 Q1026.4954,227.006 1026.9104,227.2257 L1026.9104,229.2277 Q1026.4465,228.8005 1026.0101,228.6021 Q1025.5737,228.4037 1025.1099,228.4037 Q1024.1211,228.4037 1023.6176,229.188 Q1023.114,229.9723 1023.114,231.5165 Q1023.114,233.0546 1023.6176,233.8389 Q1024.1211,234.6232 1025.1099,234.6232 Q1025.5737,234.6232 1026.0101,234.4248 Q1026.4465,234.2265 1026.9104,233.7992 Z " fill="#000000"/><text fill="#D8BC00" font-family="Open Sans,Avenir,Nunito,Arial,Helvetica,SansSerif" font-size="12.5" font-weight="bold" lengthAdjust="spacing" textLength="38.5417" x="1047.9167" y="236.1003">Page2</text><line style="stroke:#5E5E5E;stroke-width:1.5625;" x1="971.3542" x2="1131.7708" y1="247.0703" y2="247.0703"/><ellipse cx="981.7708" cy="282.4402" fill="#84BE84" rx="3.125" ry="3.125" style="stroke:#038048;stroke-width:1.0416666666666667;"/><text fill="#D8BC00" font-family="Open Sans,Avenir,Nunito,Arial,Helvetica,SansSerif" font-size="11.4583" lengthAdjust="spacing" textLength="130.2083" x="993.2292" y="289.3514">Page2(PageParameters)</text><line style="stroke:#5E5E5E;stroke-width:1.0416666666666667;" x1="971.3542" x2="1007.8125" y1="265.2761" y2="265.2761"/><text fill="#D8BC00" font-family="Open Sans,Avenir,Nunito,Arial,Helvetica,SansSerif" font-size="11.4583" lengthAdjust="spacing" textLength="81.25" x="1010.9375" y="269.0857">(constructors)</text><line style="stroke:#5E5E5E;stroke-width:1.0416666666666667;" x1="1095.3125" x2="1131.7708" y1="265.2761" y2="265.2761"/><!--MD5=[c0f4d9499d55e07be2655916658e2aff]
class Page3--><rect codeLine="57" fill="#282828" height="83.3781" id="Page3" rx="8.3333" ry="8.3333" style="stroke:#5E5E5E;stroke-width:1.0416666666666667;" width="162.5" x="1169.2708" y="215.682"/><rect fill="#1B1B1A" height="31.3883" rx="8.3333" ry="8.3333" style="stroke:#1B1B1A;stroke-width:1.0416666666666667;" width="162.5" x="1169.2708" y="215.682"/><rect fill="#1B1B1A" height="8.3333" style="stroke:#1B1B1A;stroke-width:1.0416666666666667;" width="162.5" x="1169.2708" y="238.737"/><rect codeLine="57" fill="none" height="83.3781" id="Page3" rx="8.3333" ry="8.3333" style="stroke:#5E5E5E;stroke-width:1.0416666666666667;" width="162.5" x="1169.2708" y="215.682"/><ellipse cx="1223.9583" cy="231.3761" fill="#0066CF" rx="10.4167" ry="10.4167" style="stroke:#0086EF;stroke-width:1.0416666666666667;"/><path d="M1225.8687,235.8012 Q1225.4415,236.0209 1224.9715,236.1308 Q1224.5015,236.2406 1223.9827,236.2406 Q1222.1395,236.2406 1221.169,235.026 Q1220.1986,233.8114 1220.1986,231.5165 Q1220.1986,229.2155 1221.169,228.0009 Q1222.1395,226.7863 1223.9827,226.7863 Q1224.5015,226.7863 1224.9776,226.8962 Q1225.4537,227.006 1225.8687,227.2257 L1225.8687,229.2277 Q1225.4049,228.8005 1224.9685,228.6021 Q1224.5321,228.4037 1224.0682,228.4037 Q1223.0794,228.4037 1222.5759,229.188 Q1222.0723,229.9723 1222.0723,231.5165 Q1222.0723,233.0546 1222.5759,233.8389 Q1223.0794,234.6232 1224.0682,234.6232 Q1224.5321,234.6232 1224.9685,234.4248 Q1225.4049,234.2265 1225.8687,233.7992 Z " fill="#000000"/><text fill="#D8BC00" font-family="Open Sans,Avenir,Nunito,Arial,Helvetica,SansSerif" font-size="12.5" font-weight="bold" lengthAdjust="spacing" textLength="38.5417" x="1246.875" y="236.1003">Page3</text><line style="stroke:#5E5E5E;stroke-width:1.5625;" x1="1170.3125" x2="1330.7292" y1="247.0703" y2="247.0703"/><ellipse cx="1180.7292" cy="282.4402" fill="#84BE84" rx="3.125" ry="3.125" style="stroke:#038048;stroke-width:1.0416666666666667;"/><text fill="#D8BC00" font-family="Open Sans,Avenir,Nunito,Arial,Helvetica,SansSerif" font-size="11.4583" lengthAdjust="spacing" textLength="130.2083" x="1192.1875" y="289.3514">Page3(PageParameters)</text><line style="stroke:#5E5E5E;stroke-width:1.0416666666666667;" x1="1170.3125" x2="1206.7708" y1="265.2761" y2="265.2761"/><text fill="#D8BC00" font-family="Open Sans,Avenir,Nunito,Arial,Helvetica,SansSerif" font-size="11.4583" lengthAdjust="spacing" textLength="81.25" x="1209.8958" y="269.0857">(constructors)</text><line style="stroke:#5E5E5E;stroke-width:1.0416666666666667;" x1="1294.2708" x2="1330.7292" y1="265.2761" y2="265.2761"/><!--MD5=[b7e3828a92f8e3e535806123e72a16b0]
class Popup--><rect codeLine="64" fill="#282828" height="83.3781" id="Popup" rx="8.3333" ry="8.3333" style="stroke:#5E5E5E;stroke-width:1.0416666666666667;" width="95.8333" x="1368.2292" y="215.682"/><rect fill="#1B1B1A" height="31.3883" rx="8.3333" ry="8.3333" style="stroke:#1B1B1A;stroke-width:1.0416666666666667;" width="95.8333" x="1368.2292" y="215.682"/><rect fill="#1B1B1A" height="8.3333" style="stroke:#1B1B1A;stroke-width:1.0416666666666667;" width="95.8333" x="1368.2292" y="238.737"/><rect codeLine="64" fill="none" height="83.3781" id="Popup" rx="8.3333" ry="8.3333" style="stroke:#5E5E5E;stroke-width:1.0416666666666667;" width="95.8333" x="1368.2292" y="215.682"/><ellipse cx="1390.7813" cy="231.3761" fill="#0066CF" rx="10.4167" ry="10.4167" style="stroke:#0086EF;stroke-width:1.0416666666666667;"/><path d="M1392.6917,235.8012 Q1392.2644,236.0209 1391.7944,236.1308 Q1391.3245,236.2406 1390.8057,236.2406 Q1388.9624,236.2406 1387.9919,235.026 Q1387.0215,233.8114 1387.0215,231.5165 Q1387.0215,229.2155 1387.9919,228.0009 Q1388.9624,226.7863 1390.8057,226.7863 Q1391.3245,226.7863 1391.8005,226.8962 Q1392.2766,227.006 1392.6917,227.2257 L1392.6917,229.2277 Q1392.2278,228.8005 1391.7914,228.6021 Q1391.355,228.4037 1390.8911,228.4037 Q1389.9023,228.4037 1389.3988,229.188 Q1388.8953,229.9723 1388.8953,231.5165 Q1388.8953,233.0546 1389.3988,233.8389 Q1389.9023,234.6232 1390.8911,234.6232 Q1391.355,234.6232 1391.7914,234.4248 Q1392.2278,234.2265 1392.6917,233.7992 Z " fill="#000000"/><text fill="#D8BC00" font-family="Open Sans,Avenir,Nunito,Arial,Helvetica,SansSerif" font-size="12.5" font-weight="bold" lengthAdjust="spacing" textLength="40.625" x="1409.2188" y="236.1003">Popup</text><line style="stroke:#5E5E5E;stroke-width:1.5625;" x1="1369.2708" x2="1463.0208" y1="247.0703" y2="247.0703"/><ellipse cx="1379.6875" cy="282.4402" fill="#84BE84" rx="3.125" ry="3.125" style="stroke:#038048;stroke-width:1.0416666666666667;"/><text fill="#D8BC00" font-family="Open Sans,Avenir,Nunito,Arial,Helvetica,SansSerif" font-size="11.4583" lengthAdjust="spacing" textLength="43.75" x="1391.1458" y="289.3514">Popup()</text><line style="stroke:#5E5E5E;stroke-width:1.0416666666666667;" x1="1369.2708" x2="1372.3958" y1="265.2761" y2="265.2761"/><text fill="#D8BC00" font-family="Open Sans,Avenir,Nunito,Arial,Helvetica,SansSerif" font-size="11.4583" lengthAdjust="spacing" textLength="81.25" x="1375.5208" y="269.0857">(constructors)</text><line style="stroke:#5E5E5E;stroke-width:1.0416666666666667;" x1="1459.8958" x2="1463.0208" y1="265.2761" y2="265.2761"/><!--MD5=[6f29f313cd4199edbf91b9ce3a4faa98]
class Form--><rect fill="#282828" height="48.055" id="Form" rx="8.3333" ry="8.3333" style="stroke:#5E5E5E;stroke-width:1.0416666666666667;" width="70.8333" x="1806.7708" y="53.7028"/><rect fill="#1B1B1A" height="31.3883" rx="8.3333" ry="8.3333" style="stroke:#1B1B1A;stroke-width:1.0416666666666667;" width="70.8333" x="1806.7708" y="53.7028"/><rect fill="#1B1B1A" height="8.3333" style="stroke:#1B1B1A;stroke-width:1.0416666666666667;" width="70.8333" x="1806.7708" y="76.7578"/><rect fill="none" height="48.055" id="Form" rx="8.3333" ry="8.3333" style="stroke:#5E5E5E;stroke-width:1.0416666666666667;" width="70.8333" x="1806.7708" y="53.7028"/><ellipse cx="1821.3542" cy="69.397" fill="#0066CF" rx="10.4167" ry="10.4167" style="stroke:#0086EF;stroke-width:1.0416666666666667;"/><path d="M1823.2646,73.822 Q1822.8373,74.0417 1822.3674,74.1516 Q1821.8974,74.2615 1821.3786,74.2615 Q1819.5353,74.2615 1818.5649,73.0469 Q1817.5944,71.8323 1817.5944,69.5374 Q1817.5944,67.2363 1818.5649,66.0217 Q1819.5353,64.8071 1821.3786,64.8071 Q1821.8974,64.8071 1822.3735,64.917 Q1822.8495,65.0269 1823.2646,65.2466 L1823.2646,67.2485 Q1822.8007,66.8213 1822.3643,66.6229 Q1821.9279,66.4246 1821.464,66.4246 Q1820.4753,66.4246 1819.9717,67.2089 Q1819.4682,67.9932 1819.4682,69.5374 Q1819.4682,71.0754 1819.9717,71.8597 Q1820.4753,72.644 1821.464,72.644 Q1821.9279,72.644 1822.3643,72.4457 Q1822.8007,72.2473 1823.2646,71.8201 Z " fill="#000000"/><text fill="#D8BC00" font-family="Open Sans,Avenir,Nunito,Arial,Helvetica,SansSerif" font-size="12.5" font-weight="bold" lengthAdjust="spacing" textLength="33.3333" x="1838.0208" y="74.1211">Form</text><line style="stroke:#5E5E5E;stroke-width:1.0416666666666667;" x1="1807.8125" x2="1876.5625" y1="85.0911" y2="85.0911"/><line style="stroke:#5E5E5E;stroke-width:1.0416666666666667;" x1="1807.8125" x2="1876.5625" y1="93.4245" y2="93.4245"/><!--MD5=[5eb8da70a9c019852bf9793f4068795e]
class Home.RedirectForm--><rect codeLine="71" fill="#282828" height="146.7794" id="Home.RedirectForm" rx="8.3333" ry="8.3333" style="stroke:#5E5E5E;stroke-width:1.0416666666666667;" width="243.75" x="1720.3125" y="183.9111"/><rect fill="#1B1B1A" height="31.3883" rx="8.3333" ry="8.3333" style="stroke:#1B1B1A;stroke-width:1.0416666666666667;" width="243.75" x="1720.3125" y="183.9111"/><rect fill="#1B1B1A" height="8.3333" style="stroke:#1B1B1A;stroke-width:1.0416666666666667;" width="243.75" x="1720.3125" y="206.9661"/><rect codeLine="71" fill="none" height="146.7794" id="Home.RedirectForm" rx="8.3333" ry="8.3333" style="stroke:#5E5E5E;stroke-width:1.0416666666666667;" width="243.75" x="1720.3125" y="183.9111"/><ellipse cx="1792.1875" cy="199.6053" fill="#0066CF" rx="10.4167" ry="10.4167" style="stroke:#0086EF;stroke-width:1.0416666666666667;"/><path d="M1794.0979,204.0304 Q1793.6707,204.2501 1793.2007,204.3599 Q1792.7307,204.4698 1792.2119,204.4698 Q1790.3687,204.4698 1789.3982,203.2552 Q1788.4277,202.0406 1788.4277,199.7457 Q1788.4277,197.4447 1789.3982,196.2301 Q1790.3687,195.0155 1792.2119,195.0155 Q1792.7307,195.0155 1793.2068,195.1253 Q1793.6829,195.2352 1794.0979,195.4549 L1794.0979,197.4569 Q1793.634,197.0296 1793.1976,196.8313 Q1792.7612,196.6329 1792.2974,196.6329 Q1791.3086,196.6329 1790.8051,197.4172 Q1790.3015,198.2015 1790.3015,199.7457 Q1790.3015,201.2838 1790.8051,202.0681 Q1791.3086,202.8524 1792.2974,202.8524 Q1792.7612,202.8524 1793.1976,202.654 Q1793.634,202.4556 1794.0979,202.0284 Z " fill="#000000"/><text fill="#D8BC00" font-family="Open Sans,Avenir,Nunito,Arial,Helvetica,SansSerif" font-size="12.5" font-weight="bold" lengthAdjust="spacing" textLength="85.4167" x="1815.1042" y="204.3294">RedirectForm</text><line style="stroke:#5E5E5E;stroke-width:1.5625;" x1="1721.3542" x2="1963.0208" y1="215.2995" y2="215.2995"/><ellipse cx="1731.7708" cy="250.6694" fill="#84BE84" rx="3.125" ry="3.125" style="stroke:#038048;stroke-width:1.0416666666666667;"/><text fill="#D8BC00" font-family="Open Sans,Avenir,Nunito,Arial,Helvetica,SansSerif" font-size="11.4583" lengthAdjust="spacing" textLength="116.6667" x="1743.2292" y="257.5806">RedirectForm(String)</text><line style="stroke:#5E5E5E;stroke-width:1.0416666666666667;" x1="1721.3542" x2="1798.4375" y1="233.5052" y2="233.5052"/><text fill="#D8BC00" font-family="Open Sans,Avenir,Nunito,Arial,Helvetica,SansSerif" font-size="11.4583" lengthAdjust="spacing" textLength="81.25" x="1801.5625" y="237.3149">(constructors)</text><line style="stroke:#5E5E5E;stroke-width:1.0416666666666667;" x1="1885.9375" x2="1963.0208" y1="233.5052" y2="233.5052"/><ellipse cx="1731.7708" cy="294.3258" fill="#84BE84" rx="3.125" ry="3.125" style="stroke:#038048;stroke-width:1.0416666666666667;"/><text fill="#D8BC00" font-family="Open Sans,Avenir,Nunito,Arial,Helvetica,SansSerif" font-size="11.4583" lengthAdjust="spacing" textLength="125" x="1743.2292" y="301.237">String getRedirectUrl()</text><ellipse cx="1731.7708" cy="314.0706" fill="#84BE84" rx="3.125" ry="3.125" style="stroke:#038048;stroke-width:1.0416666666666667;"/><text fill="#D8BC00" font-family="Open Sans,Avenir,Nunito,Arial,Helvetica,SansSerif" font-size="11.4583" lengthAdjust="spacing" textLength="211.4583" x="1743.2292" y="320.9819">void setRedirectUrl(String redirectUrl)</text><line style="stroke:#5E5E5E;stroke-width:1.0416666666666667;" x1="1721.3542" x2="1812.5" y1="277.1617" y2="277.1617"/><text fill="#D8BC00" font-family="Open Sans,Avenir,Nunito,Arial,Helvetica,SansSerif" font-size="11.4583" lengthAdjust="spacing" textLength="53.125" x="1815.625" y="280.9713">(network)</text><line style="stroke:#5E5E5E;stroke-width:1.0416666666666667;" x1="1871.875" x2="1963.0208" y1="277.1617" y2="277.1617"/><!--MD5=[d3c11881429c4309bdffd50824d96cb1]
reverse link IClusterable to Book--><path codeLine="8" d="M90.1042,123.0465 C90.1042,143.6924 90.1042,168.6611 90.1042,191.3799 " fill="none" id="IClusterable-backto-Book" style="stroke:#545454;stroke-width:1.5625;"/><polygon fill="none" points="82.8125,122.7549,90.1042,101.9215,97.3958,122.7549,82.8125,122.7549" style="stroke:#545454;stroke-width:1.5625;"/><!--MD5=[8ae928e7523dc3e8fae735988bef7d67]
reverse link WicketExamplePage to BookDetails--><path codeLine="18" d="M847.8125,85.2757 C701.3021,95.9736 442.4479,120.4632 359.8958,164.1195 C337.2604,176.0882 317.5729,196.609 302.9167,215.2549 " fill="none" id="WicketExamplePage-backto-BookDetails" style="stroke:#545454;stroke-width:1.5625;"/><polygon fill="none" points="847.7083,77.9736,869.0104,83.7653,848.75,92.5257,847.7083,77.9736" style="stroke:#545454;stroke-width:1.5625;"/><!--MD5=[b3756feba97c3508453d5d50a0aaead8]
reverse link WicketExamplePage to Home--><path codeLine="25" d="M877.1458,109.932 C839.6563,125.8486 793.5729,145.6924 752.6042,164.1195 C746.8646,166.7028 741.0417,169.3382 735.1563,172.0153 " fill="none" id="WicketExamplePage-backto-Home" style="stroke:#545454;stroke-width:1.5625;"/><polygon fill="none" points="874.4167,103.1715,896.4479,101.7653,880.1042,116.5986,874.4167,103.1715" style="stroke:#545454;stroke-width:1.5625;"/><!--MD5=[30e7fe6f8de3d0182d13942c38d091fe]
reverse link WicketExampleApplication to LinkomaticApplication--><path codeLine="37" d="M1592.1875,122.807 C1592.1875,157.8695 1592.1875,205.4945 1592.1875,233.359 " fill="none" id="WicketExampleApplication-backto-LinkomaticApplication" style="stroke:#545454;stroke-width:1.5625;"/><polygon fill="none" points="1584.8958,122.7549,1592.1875,101.9215,1599.4792,122.7549,1584.8958,122.7549" style="stroke:#545454;stroke-width:1.5625;"/><!--MD5=[4aefba825eb4fe39a2bd9fc05861486b]
reverse link WicketExamplePage to Page1--><path codeLine="42" d="M928.2813,120.4736 C912.3229,149.1299 891.25,186.9528 875.3854,215.4111 " fill="none" id="WicketExamplePage-backto-Page1" style="stroke:#545454;stroke-width:1.5625;"/><polygon fill="none" points="922.1146,116.5674,938.625,101.9215,934.8542,123.6715,922.1146,116.5674" style="stroke:#545454;stroke-width:1.5625;"/><!--MD5=[dc9f7f059f44bf26a1384baaef1aa5af]
reverse link WicketExamplePage to Page2--><path codeLine="49" d="M975.0833,120.4736 C991.2188,149.1299 1012.5104,186.9528 1028.5417,215.4111 " fill="none" id="WicketExamplePage-backto-Page2" style="stroke:#545454;stroke-width:1.5625;"/><polygon fill="none" points="968.5,123.6507,964.6354,101.9215,981.2083,116.4945,968.5,123.6507" style="stroke:#545454;stroke-width:1.5625;"/><!--MD5=[05fb171d8dea036021e0bda60d7dbda8]
reverse link WicketExamplePage to Page3--><path codeLine="56" d="M1040.5104,109.3903 C1076.1042,123.557 1116.6146,142.1403 1150.5208,164.1195 C1172.7083,178.5049 1194.625,197.9528 1212.2604,215.2757 " fill="none" id="WicketExamplePage-backto-Page3" style="stroke:#545454;stroke-width:1.5625;"/><polygon fill="none" points="1037.5729,116.0778,1020.7604,101.7861,1042.8229,102.4736,1037.5729,116.0778" style="stroke:#545454;stroke-width:1.5625;"/><!--MD5=[9ba524ed4874168e8a17ed0170cd1bc4]
reverse link WicketExamplePage to Popup--><path codeLine="63" d="M1054.8021,80.7757 C1140.0417,86.9424 1260.9688,106.3695 1349.4792,164.1195 C1368.8333,176.7445 1384.4167,197.0882 1395.6458,215.4528 " fill="none" id="WicketExamplePage-backto-Popup" style="stroke:#545454;stroke-width:1.5625;"/><polygon fill="none" points="1054.2813,88.0465,1033.9375,79.4736,1055.1875,73.4945,1054.2813,88.0465" style="stroke:#545454;stroke-width:1.5625;"/><!--MD5=[1c1fc5e45d13aca0d9950e1139a7a7fa]
reverse link Form to Home.RedirectForm--><path codeLine="70" d="M1842.1875,122.9424 C1842.1875,141.2549 1842.1875,162.984 1842.1875,183.5153 " fill="none" id="Form-backto-Home.RedirectForm" style="stroke:#545454;stroke-width:1.5625;"/><polygon fill="none" points="1834.8958,122.7549,1842.1875,101.9215,1849.4792,122.7549,1834.8958,122.7549" style="stroke:#545454;stroke-width:1.5625;"/><!--MD5=[6fc233f812cd3a5197a43ef71e08a342]
@startuml

    !include lexakai.theme
    
    title "org.apache.wicket.examples.linkomatic"
    
    interface IClusterable
    
    IClusterable <|- - Book
    class Book
    {
        - -(constructors)- -
        +Book(String)
        - -
        +String getTitle()
        +void setTitle(String title)
    }
    
    WicketExamplePage <|- - BookDetails
    class BookDetails
    {
        - -(constructors)- -
        +BookDetails(Book)
    }
    
    WicketExamplePage <|- - Home
    class Home
    {
        - -(constructors)- -
        +Home()
        - -(collection)- -
        +int getLinkClickCount()
        +int getOnClickLinkClickCount()
        +void setLinkClickCount(int linkClickCount)
        +void setOnClickLinkClickCount(int onClickLinkClickCount)
    }
    
    WicketExampleApplication <|- - LinkomaticApplication
    class LinkomaticApplication
    {
    }
    
    WicketExamplePage <|- - Page1
    class Page1
    {
        - -(constructors)- -
        +Page1(PageParameters)
    }
    
    WicketExamplePage <|- - Page2
    class Page2
    {
        - -(constructors)- -
        +Page2(PageParameters)
    }
    
    WicketExamplePage <|- - Page3
    class Page3
    {
        - -(constructors)- -
        +Page3(PageParameters)
    }
    
    WicketExamplePage <|- - Popup
    class Popup
    {
        - -(constructors)- -
        +Popup()
    }
    
    Form <|- - Home.RedirectForm
    class Home.RedirectForm
    {
        - -(constructors)- -
        +RedirectForm(String)
        - -(network)- -
        +String getRedirectUrl()
        +void setRedirectUrl(String redirectUrl)
    }
    
@enduml

@startuml









skinparam backgroundColor #333333






skinparam  {
    defaultFontName   "Open Sans,Avenir,Nunito,Arial,Helvetica,SansSerif"
    defaultFontSize   12
    defaultTextAlignment left
    shadowing false
    RoundCorner 10
    TitleFontSize 18
}

skinparam defaultFontName       "Open Sans,Avenir,Nunito,Arial,Helvetica,SansSerif"
skinparam defaultFontSize       12
skinparam dpi                   100
skinparam shadowing             false
skinparam roundcorner           16
skinparam ParticipantPadding    40
skinparam BoxPadding            40
skinparam Padding               3
skinparam ArrowColor            #545454
skinparam stereotype {
    CBackgroundColor #0066cf
    CBorderColor #0086ef
    ABackgroundColor #C8Ac00
    ABorderColor #D8Bc00
    IBackgroundColor #008400
    IBorderColor #239c23
    EBackgroundColor #cf6300
    EBorderColor #ef8300
    NBackgroundColor #3380b9
    NBorderColor #004d86
}
skinparam title {
	FontColor	                 #c0c0c0
 	BorderColor                  #545454
	FontSize	    	         20
	BorderRoundCorner            16
	BorderThickness 	         1
	BackgroundColor              #48494b
}


skinparam legend {
	BackgroundColor #303030
	BorderColor #404040
	FontColor #a0a0a0
}

	skinparam swimlane {
	BorderColor #5e5e5e
	BorderThickness 2
	TitleBackgroundColor  #6d6d6d-#484848
	TitleFontColor #303030
}

skinparam activity {
		FontColor #C8Ac00
	BorderColor #333333
	BackgroundColor #333333-#333333
	BarColor #00FF00
	StartColor #0060a8
	EndColor #0060a8
	DiamondBackgroundColor #6d6d6d-#3a3a3a
  	DiamondBorderColor #3a3a3a
  	DiamondFontColor #fefefe
}


skinparam participant {
		FontColor #C8Ac00
	BorderColor #333333
	BackgroundColor #333333-#333333
	ParticipantBorderThickness 2
}


skinparam actor {
		FontColor #C8Ac00
	BorderColor #333333
	BackgroundColor #333333-#333333
}


skinparam arrow {
	Thickness 1.5
	Color #545454
	FontColor #a0a0a0
    FontStyle bold
    MessageAlignment center
}



skinparam sequence {
	BorderColor #303030
	TitleFontColor #303030
	BackgroundColor #333333
	StartColor #303030
	EndColor #303030
	BoxBackgroundColor #333333
	BoxBorderColor #484848
	BoxFontColor #484848
	LifeLineBorderColor #484848
	LifeLineBorderThickness 2
	LifeLineBackgroundColor #3a3a3a
	GroupBorderColor #484848
	GroupFontColor #484848
	GroupHeaderFontColor #0060a8
	GroupBackgroundColor #484848
	GroupHeaderBackgroundColor #333333
	DividerBackgroundColor #484848
    DividerBorderColor #484848
    DividerBorderThickness 2
    DividerFontColor #D8Bc00
	ReferenceBackgroundColor #333333
	ReferenceBorderColor #484848
	ReferenceFontColor #fefefe
	ReferenceHeaderBackgroundColor #484848
}


skinparam partition {
	BorderColor #303030
	FontColor #333333
	BackgroundColor #333333
}


skinparam collections {
		FontColor #C8Ac00
	BorderColor #333333
	BackgroundColor #333333-#333333
}


skinparam control {
		FontColor #C8Ac00
	BorderColor #333333
	BackgroundColor #333333-#333333
}


skinparam entity {
		FontColor #C8Ac00
	BorderColor #333333
	BackgroundColor #333333-#333333
}


skinparam boundary {
		FontColor #C8Ac00
	BorderColor #333333
	BackgroundColor #333333-#333333
}


skinparam agent {
	BackgroundColor #ff8000
	BorderColor #ff9933
	FontColor #484848
}


skinparam note {
	BorderThickness 1
	BackgroundColor #1b1b1a
	BorderColor #5e5e5e
	FontSize 11
	FontColor #a0a0a0
}


skinparam artifact {
	BorderThickness 10
	BorderColor #5e5e5e
	BackgroundColor #1b1b1a
	FontColor #D8Bc00
}


skinparam component {
		FontColor #C8Ac00
	BorderColor #333333
	BackgroundColor #333333-#333333
}


skinparam interface {
	BackgroundColor  #008400
	BorderColor  #007F00
	FontColor #484848
}


skinparam storage {
	BackgroundColor #ff8000
  	BorderColor #cc6600
	FontColor #222222
}


skinparam node {
	BackgroundColor #333333
	BorderColor #333333
	FontColor #C8Ac00
}


skinparam cloud {
	BackgroundColor #484848-black
	BorderColor #484848
	FontColor #D8Bc00
}


skinparam database {
		FontColor #C8Ac00
	BorderColor #333333
	BackgroundColor #333333-#333333
	BackgroundColor  #333333
}


skinparam class {
		FontColor #C8Ac00
	BorderColor #333333
	BackgroundColor #333333-#333333
	HeaderBackgroundColor #1b1b1a
    BackgroundColor #282828
    BorderColor #5e5e5e
 	StereotypeFontColor #a0a0a0
    StereotypeFontStyle bold
	BorderThickness 1
	AttributeFontColor #D8Bc00
	AttributeFontSize 11
    FontColor #D8Bc00
    FontStyle bold
}


skinparam object {
		FontColor #C8Ac00
	BorderColor #333333
	BackgroundColor #333333-#333333
	StereotypeFontColor #484848
	BorderThickness 1
	AttributeFontColor #fefefe
	AttributeFontSize 11
}


skinparam usecase {
		FontColor #C8Ac00
	BorderColor #333333
	BackgroundColor #333333-#333333
	BorderThickness 2
	StereotypeFontColor #303030
}


skinparam rectangle {
		FontColor #C8Ac00
	BorderColor #333333
	BackgroundColor #333333-#333333
	BackgroundColor #333333
	BorderThickness 2
	StereotypeFontColor #303030
}


skinparam package {
		FontColor #C8Ac00
	BorderColor #333333
	BackgroundColor #333333-#333333
	BackgroundColor #333333
	BorderThickness 2
}


skinparam folder {
	BackgroundColor #6d6d6d
  	BorderColor #ff8000
	FontColor #ff8000
	BorderThickness 2
}


skinparam frame {
	BackgroundColor #6d6d6d
  	BorderColor #0060a8
	FontColor #0060a8
	BorderThickness 2
}


skinparam state {
		FontColor #C8Ac00
	BorderColor #333333
	BackgroundColor #333333-#333333
	StartColor #0060a8
	EndColor #0060a8
	AttributeFontColor #fefefe
	AttributeFontSize 11
}


skinparam queue {
		FontColor #C8Ac00
	BorderColor #333333
	BackgroundColor #333333-#333333
}


skinparam card {
	BackgroundColor #0060a8
	BorderColor #004d86
	FontColor $INFO_TEXT
}


skinparam file {
	BackgroundColor #6d6d6d-#484848
	BorderColor #0060a8
	FontColor #fefefe
}


skinparam stack {
		FontColor #C8Ac00
	BorderColor #333333
	BackgroundColor #333333-#333333
}

    
    title "org.apache.wicket.examples.linkomatic"
    
    interface IClusterable
    
    IClusterable <|- - Book
    class Book
    {
        - -(constructors)- -
        +Book(String)
        - -
        +String getTitle()
        +void setTitle(String title)
    }
    
    WicketExamplePage <|- - BookDetails
    class BookDetails
    {
        - -(constructors)- -
        +BookDetails(Book)
    }
    
    WicketExamplePage <|- - Home
    class Home
    {
        - -(constructors)- -
        +Home()
        - -(collection)- -
        +int getLinkClickCount()
        +int getOnClickLinkClickCount()
        +void setLinkClickCount(int linkClickCount)
        +void setOnClickLinkClickCount(int onClickLinkClickCount)
    }
    
    WicketExampleApplication <|- - LinkomaticApplication
    class LinkomaticApplication
    {
    }
    
    WicketExamplePage <|- - Page1
    class Page1
    {
        - -(constructors)- -
        +Page1(PageParameters)
    }
    
    WicketExamplePage <|- - Page2
    class Page2
    {
        - -(constructors)- -
        +Page2(PageParameters)
    }
    
    WicketExamplePage <|- - Page3
    class Page3
    {
        - -(constructors)- -
        +Page3(PageParameters)
    }
    
    WicketExamplePage <|- - Popup
    class Popup
    {
        - -(constructors)- -
        +Popup()
    }
    
    Form <|- - Home.RedirectForm
    class Home.RedirectForm
    {
        - -(constructors)- -
        +RedirectForm(String)
        - -(network)- -
        +String getRedirectUrl()
        +void setRedirectUrl(String redirectUrl)
    }
    
@enduml

PlantUML version 1.2021.01(Tue Feb 02 00:55:08 MST 2021)
(GPL source distribution)
Java Runtime: Java(TM) SE Runtime Environment
JVM: Java HotSpot(TM) 64-Bit Server VM
Default Encoding: UTF-8
Language: en
Country: US
--></g></svg>