<?xml version="1.0" encoding="UTF-8" standalone="no"?><svg xmlns="http://www.w3.org/2000/svg" xmlns:xlink="http://www.w3.org/1999/xlink" contentScriptType="application/ecmascript" contentStyleType="text/css" height="354.1667px" preserveAspectRatio="none" style="width:2103px;height:354px;background:#333333;" version="1.1" viewBox="0 0 2103 354" width="2103.125px" zoomAndPan="magnify"><defs/><g><rect fill="#48494B" height="41.2028" rx="8.3333" ry="8.3333" style="stroke:#545454;stroke-width:1.0416666666666667;" width="435.4167" x="826.5625" y="2.0833"/><text fill="#C0C0C0" font-family="Open Sans,Avenir,Nunito,Arial,Helvetica,SansSerif" font-size="20.8333" lengthAdjust="spacing" textLength="412.5" x="838.0208" y="30.5583">org.apache.wicket.examples.breadcrumb</text><!--MD5=[8e20cac180fe821ae9ecc829e39cbfab]
cluster SecondPanel--><polygon fill="#333333" points="1836.4583,126.6195,1929.1667,126.6195,1936.4583,153.8411,2085.4167,153.8411,2085.4167,347.4528,1836.4583,347.4528,1836.4583,126.6195" style="stroke:#333333;stroke-width:2.0833333333333335;"/><line style="stroke:#333333;stroke-width:2.0833333333333335;" x1="1836.4583" x2="1936.4583" y1="153.8411" y2="153.8411"/><text fill="#C8AC00" font-family="Open Sans,Avenir,Nunito,Arial,Helvetica,SansSerif" font-size="12.5" font-weight="bold" lengthAdjust="spacing" textLength="80.2083" x="1843.75" y="143.9128">SecondPanel</text><!--MD5=[06971eb765dea7918bb9db6254778c1b]
class SecondPanel.InputForm--><rect codeLine="33" fill="#282828" height="146.7794" id="SecondPanel.InputForm" rx="8.3333" ry="8.3333" style="stroke:#5E5E5E;stroke-width:1.0416666666666667;" width="179.1667" x="1881.25" y="175.5778"/><rect fill="#1B1B1A" height="31.3883" rx="8.3333" ry="8.3333" style="stroke:#1B1B1A;stroke-width:1.0416666666666667;" width="179.1667" x="1881.25" y="175.5778"/><rect fill="#1B1B1A" height="8.3333" style="stroke:#1B1B1A;stroke-width:1.0416666666666667;" width="179.1667" x="1881.25" y="198.6328"/><rect codeLine="33" fill="none" height="146.7794" id="SecondPanel.InputForm" rx="8.3333" ry="8.3333" style="stroke:#5E5E5E;stroke-width:1.0416666666666667;" width="179.1667" x="1881.25" y="175.5778"/><ellipse cx="1929.6875" cy="191.272" fill="#0066CF" rx="10.4167" ry="10.4167" style="stroke:#0086EF;stroke-width:1.0416666666666667;"/><path d="M1931.5979,195.697 Q1931.1707,195.9167 1930.7007,196.0266 Q1930.2307,196.1365 1929.7119,196.1365 Q1927.8687,196.1365 1926.8982,194.9219 Q1925.9277,193.7073 1925.9277,191.4124 Q1925.9277,189.1113 1926.8982,187.8967 Q1927.8687,186.6821 1929.7119,186.6821 Q1930.2307,186.6821 1930.7068,186.792 Q1931.1829,186.9019 1931.5979,187.1216 L1931.5979,189.1235 Q1931.134,188.6963 1930.6976,188.4979 Q1930.2612,188.2996 1929.7974,188.2996 Q1928.8086,188.2996 1928.3051,189.0839 Q1927.8015,189.8682 1927.8015,191.4124 Q1927.8015,192.9504 1928.3051,193.7347 Q1928.8086,194.519 1929.7974,194.519 Q1930.2612,194.519 1930.6976,194.3207 Q1931.134,194.1223 1931.5979,193.6951 Z " fill="#000000"/><text fill="#D8BC00" font-family="Open Sans,Avenir,Nunito,Arial,Helvetica,SansSerif" font-size="12.5" font-weight="bold" lengthAdjust="spacing" textLength="67.7083" x="1952.6042" y="195.9961">InputForm</text><line style="stroke:#5E5E5E;stroke-width:1.5625;" x1="1882.2917" x2="2059.375" y1="206.9661" y2="206.9661"/><ellipse cx="1892.7083" cy="242.336" fill="#84BE84" rx="3.125" ry="3.125" style="stroke:#038048;stroke-width:1.0416666666666667;"/><text fill="#D8BC00" font-family="Open Sans,Avenir,Nunito,Arial,Helvetica,SansSerif" font-size="11.4583" lengthAdjust="spacing" textLength="100" x="1904.1667" y="249.2472">InputForm(String)</text><line style="stroke:#5E5E5E;stroke-width:1.0416666666666667;" x1="1882.2917" x2="1927.0833" y1="225.1719" y2="225.1719"/><text fill="#D8BC00" font-family="Open Sans,Avenir,Nunito,Arial,Helvetica,SansSerif" font-size="11.4583" lengthAdjust="spacing" textLength="81.25" x="1930.2083" y="228.9815">(constructors)</text><line style="stroke:#5E5E5E;stroke-width:1.0416666666666667;" x1="2014.5833" x2="2059.375" y1="225.1719" y2="225.1719"/><ellipse cx="1892.7083" cy="285.9924" fill="#84BE84" rx="3.125" ry="3.125" style="stroke:#038048;stroke-width:1.0416666666666667;"/><text fill="#D8BC00" font-family="Open Sans,Avenir,Nunito,Arial,Helvetica,SansSerif" font-size="11.4583" lengthAdjust="spacing" textLength="91.6667" x="1904.1667" y="292.9036">String getInput()</text><ellipse cx="1892.7083" cy="305.7373" fill="#84BE84" rx="3.125" ry="3.125" style="stroke:#038048;stroke-width:1.0416666666666667;"/><text fill="#D8BC00" font-family="Open Sans,Avenir,Nunito,Arial,Helvetica,SansSerif" font-size="11.4583" lengthAdjust="spacing" textLength="146.875" x="1904.1667" y="312.6485">void setInput(String input)</text><line style="stroke:#5E5E5E;stroke-width:1.0416666666666667;" x1="1882.2917" x2="1951.0417" y1="268.8283" y2="268.8283"/><text fill="#D8BC00" font-family="Open Sans,Avenir,Nunito,Arial,Helvetica,SansSerif" font-size="11.4583" lengthAdjust="spacing" textLength="33.3333" x="1954.1667" y="272.6379">(read)</text><line style="stroke:#5E5E5E;stroke-width:1.0416666666666667;" x1="1990.625" x2="2059.375" y1="268.8283" y2="268.8283"/><!--MD5=[818b680dd029f5404dc253254408b9c3]
class WicketExampleApplication--><rect fill="#282828" height="48.055" id="WicketExampleApplication" rx="8.3333" ry="8.3333" style="stroke:#5E5E5E;stroke-width:1.0416666666666667;" width="208.3333" x="7.2917" y="53.7028"/><rect fill="#1B1B1A" height="31.3883" rx="8.3333" ry="8.3333" style="stroke:#1B1B1A;stroke-width:1.0416666666666667;" width="208.3333" x="7.2917" y="53.7028"/><rect fill="#1B1B1A" height="8.3333" style="stroke:#1B1B1A;stroke-width:1.0416666666666667;" width="208.3333" x="7.2917" y="76.7578"/><rect fill="none" height="48.055" id="WicketExampleApplication" rx="8.3333" ry="8.3333" style="stroke:#5E5E5E;stroke-width:1.0416666666666667;" width="208.3333" x="7.2917" y="53.7028"/><ellipse cx="21.875" cy="69.397" fill="#0066CF" rx="10.4167" ry="10.4167" style="stroke:#0086EF;stroke-width:1.0416666666666667;"/><path d="M23.7854,73.822 Q23.3582,74.0417 22.8882,74.1516 Q22.4182,74.2615 21.8994,74.2615 Q20.0562,74.2615 19.0857,73.0469 Q18.1152,71.8323 18.1152,69.5374 Q18.1152,67.2363 19.0857,66.0217 Q20.0562,64.8071 21.8994,64.8071 Q22.4182,64.8071 22.8943,64.917 Q23.3704,65.0269 23.7854,65.2466 L23.7854,67.2485 Q23.3215,66.8213 22.8851,66.6229 Q22.4487,66.4246 21.9849,66.4246 Q20.9961,66.4246 20.4926,67.2089 Q19.989,67.9932 19.989,69.5374 Q19.989,71.0754 20.4926,71.8597 Q20.9961,72.644 21.9849,72.644 Q22.4487,72.644 22.8851,72.4457 Q23.3215,72.2473 23.7854,71.8201 Z " fill="#000000"/><text fill="#D8BC00" font-family="Open Sans,Avenir,Nunito,Arial,Helvetica,SansSerif" font-size="12.5" font-weight="bold" lengthAdjust="spacing" textLength="170.8333" x="38.5417" y="74.1211">WicketExampleApplication</text><line style="stroke:#5E5E5E;stroke-width:1.0416666666666667;" x1="8.3333" x2="214.5833" y1="85.0911" y2="85.0911"/><line style="stroke:#5E5E5E;stroke-width:1.0416666666666667;" x1="8.3333" x2="214.5833" y1="93.4245" y2="93.4245"/><!--MD5=[7cb7f3d301cc24e07439a45108dde290]
class BreadCrumbApplication--><rect codeLine="7" fill="#282828" height="48.055" id="BreadCrumbApplication" rx="8.3333" ry="8.3333" style="stroke:#5E5E5E;stroke-width:1.0416666666666667;" width="191.6667" x="15.625" y="225.057"/><rect fill="#1B1B1A" height="31.3883" rx="8.3333" ry="8.3333" style="stroke:#1B1B1A;stroke-width:1.0416666666666667;" width="191.6667" x="15.625" y="225.057"/><rect fill="#1B1B1A" height="8.3333" style="stroke:#1B1B1A;stroke-width:1.0416666666666667;" width="191.6667" x="15.625" y="248.112"/><rect codeLine="7" fill="none" height="48.055" id="BreadCrumbApplication" rx="8.3333" ry="8.3333" style="stroke:#5E5E5E;stroke-width:1.0416666666666667;" width="191.6667" x="15.625" y="225.057"/><ellipse cx="30.2083" cy="240.7511" fill="#0066CF" rx="10.4167" ry="10.4167" style="stroke:#0086EF;stroke-width:1.0416666666666667;"/><path d="M32.1187,245.1762 Q31.6915,245.3959 31.2215,245.5058 Q30.7515,245.6156 30.2327,245.6156 Q28.3895,245.6156 27.419,244.401 Q26.4486,243.1864 26.4486,240.8915 Q26.4486,238.5905 27.419,237.3759 Q28.3895,236.1613 30.2327,236.1613 Q30.7515,236.1613 31.2276,236.2712 Q31.7037,236.381 32.1187,236.6007 L32.1187,238.6027 Q31.6549,238.1755 31.2185,237.9771 Q30.7821,237.7787 30.3182,237.7787 Q29.3294,237.7787 28.8259,238.563 Q28.3223,239.3473 28.3223,240.8915 Q28.3223,242.4296 28.8259,243.2139 Q29.3294,243.9982 30.3182,243.9982 Q30.7821,243.9982 31.2185,243.7998 Q31.6549,243.6015 32.1187,243.1742 Z " fill="#000000"/><text fill="#D8BC00" font-family="Open Sans,Avenir,Nunito,Arial,Helvetica,SansSerif" font-size="12.5" font-weight="bold" lengthAdjust="spacing" textLength="154.1667" x="46.875" y="245.4753">BreadCrumbApplication</text><line style="stroke:#5E5E5E;stroke-width:1.0416666666666667;" x1="16.6667" x2="206.25" y1="256.4453" y2="256.4453"/><line style="stroke:#5E5E5E;stroke-width:1.0416666666666667;" x1="16.6667" x2="206.25" y1="264.7786" y2="264.7786"/><!--MD5=[08de487c2c2ea5ea6cb494533fd0b87b]
class BreadCrumbPanel--><rect fill="#282828" height="48.055" id="BreadCrumbPanel" rx="8.3333" ry="8.3333" style="stroke:#5E5E5E;stroke-width:1.0416666666666667;" width="152.0833" x="880.2083" y="53.7028"/><rect fill="#1B1B1A" height="31.3883" rx="8.3333" ry="8.3333" style="stroke:#1B1B1A;stroke-width:1.0416666666666667;" width="152.0833" x="880.2083" y="53.7028"/><rect fill="#1B1B1A" height="8.3333" style="stroke:#1B1B1A;stroke-width:1.0416666666666667;" width="152.0833" x="880.2083" y="76.7578"/><rect fill="none" height="48.055" id="BreadCrumbPanel" rx="8.3333" ry="8.3333" style="stroke:#5E5E5E;stroke-width:1.0416666666666667;" width="152.0833" x="880.2083" y="53.7028"/><ellipse cx="894.7917" cy="69.397" fill="#0066CF" rx="10.4167" ry="10.4167" style="stroke:#0086EF;stroke-width:1.0416666666666667;"/><path d="M896.7021,73.822 Q896.2748,74.0417 895.8049,74.1516 Q895.3349,74.2615 894.8161,74.2615 Q892.9728,74.2615 892.0024,73.0469 Q891.0319,71.8323 891.0319,69.5374 Q891.0319,67.2363 892.0024,66.0217 Q892.9728,64.8071 894.8161,64.8071 Q895.3349,64.8071 895.811,64.917 Q896.287,65.0269 896.7021,65.2466 L896.7021,67.2485 Q896.2382,66.8213 895.8018,66.6229 Q895.3654,66.4246 894.9015,66.4246 Q893.9128,66.4246 893.4092,67.2089 Q892.9057,67.9932 892.9057,69.5374 Q892.9057,71.0754 893.4092,71.8597 Q893.9128,72.644 894.9015,72.644 Q895.3654,72.644 895.8018,72.4457 Q896.2382,72.2473 896.7021,71.8201 Z " fill="#000000"/><text fill="#D8BC00" font-family="Open Sans,Avenir,Nunito,Arial,Helvetica,SansSerif" font-size="12.5" font-weight="bold" lengthAdjust="spacing" textLength="114.5833" x="911.4583" y="74.1211">BreadCrumbPanel</text><line style="stroke:#5E5E5E;stroke-width:1.0416666666666667;" x1="881.25" x2="1031.25" y1="85.0911" y2="85.0911"/><line style="stroke:#5E5E5E;stroke-width:1.0416666666666667;" x1="881.25" x2="1031.25" y1="93.4245" y2="93.4245"/><!--MD5=[16604fe9cfd61eecaa4c5b839a1be3d1]
class FirstPanel--><rect codeLine="12" fill="#282828" height="83.3781" id="FirstPanel" rx="8.3333" ry="8.3333" style="stroke:#5E5E5E;stroke-width:1.0416666666666667;" width="240.625" x="244.2708" y="207.3486"/><rect fill="#1B1B1A" height="31.3883" rx="8.3333" ry="8.3333" style="stroke:#1B1B1A;stroke-width:1.0416666666666667;" width="240.625" x="244.2708" y="207.3486"/><rect fill="#1B1B1A" height="8.3333" style="stroke:#1B1B1A;stroke-width:1.0416666666666667;" width="240.625" x="244.2708" y="230.4036"/><rect codeLine="12" fill="none" height="83.3781" id="FirstPanel" rx="8.3333" ry="8.3333" style="stroke:#5E5E5E;stroke-width:1.0416666666666667;" width="240.625" x="244.2708" y="207.3486"/><ellipse cx="325.5208" cy="223.0428" fill="#0066CF" rx="10.4167" ry="10.4167" style="stroke:#0086EF;stroke-width:1.0416666666666667;"/><path d="M327.4312,227.4679 Q327.004,227.6876 326.534,227.7974 Q326.064,227.9073 325.5452,227.9073 Q323.702,227.9073 322.7315,226.6927 Q321.7611,225.4781 321.7611,223.1832 Q321.7611,220.8822 322.7315,219.6676 Q323.702,218.453 325.5452,218.453 Q326.064,218.453 326.5401,218.5628 Q327.0162,218.6727 327.4312,218.8924 L327.4312,220.8944 Q326.9674,220.4671 326.531,220.2688 Q326.0946,220.0704 325.6307,220.0704 Q324.6419,220.0704 324.1384,220.8547 Q323.6348,221.639 323.6348,223.1832 Q323.6348,224.7213 324.1384,225.5056 Q324.6419,226.2899 325.6307,226.2899 Q326.0946,226.2899 326.531,226.0915 Q326.9674,225.8931 327.4312,225.4659 Z " fill="#000000"/><text fill="#D8BC00" font-family="Open Sans,Avenir,Nunito,Arial,Helvetica,SansSerif" font-size="12.5" font-weight="bold" lengthAdjust="spacing" textLength="63.5417" x="348.4375" y="227.7669">FirstPanel</text><line style="stroke:#5E5E5E;stroke-width:1.5625;" x1="245.3125" x2="483.8542" y1="238.737" y2="238.737"/><ellipse cx="255.7292" cy="274.1069" fill="#84BE84" rx="3.125" ry="3.125" style="stroke:#038048;stroke-width:1.0416666666666667;"/><text fill="#D8BC00" font-family="Open Sans,Avenir,Nunito,Arial,Helvetica,SansSerif" font-size="11.4583" lengthAdjust="spacing" textLength="208.3333" x="267.1875" y="281.0181">FirstPanel(String, IBreadCrumbModel)</text><line style="stroke:#5E5E5E;stroke-width:1.0416666666666667;" x1="245.3125" x2="320.8333" y1="256.9427" y2="256.9427"/><text fill="#D8BC00" font-family="Open Sans,Avenir,Nunito,Arial,Helvetica,SansSerif" font-size="11.4583" lengthAdjust="spacing" textLength="81.25" x="323.9583" y="260.7524">(constructors)</text><line style="stroke:#5E5E5E;stroke-width:1.0416666666666667;" x1="408.3333" x2="483.8542" y1="256.9427" y2="256.9427"/><!--MD5=[01e69f96eba1eeb3f95ea72d586b44c0]
class FourthPanel--><rect codeLine="19" fill="#282828" height="83.3781" id="FourthPanel" rx="8.3333" ry="8.3333" style="stroke:#5E5E5E;stroke-width:1.0416666666666667;" width="253.125" x="521.3542" y="207.3486"/><rect fill="#1B1B1A" height="31.3883" rx="8.3333" ry="8.3333" style="stroke:#1B1B1A;stroke-width:1.0416666666666667;" width="253.125" x="521.3542" y="207.3486"/><rect fill="#1B1B1A" height="8.3333" style="stroke:#1B1B1A;stroke-width:1.0416666666666667;" width="253.125" x="521.3542" y="230.4036"/><rect codeLine="19" fill="none" height="83.3781" id="FourthPanel" rx="8.3333" ry="8.3333" style="stroke:#5E5E5E;stroke-width:1.0416666666666667;" width="253.125" x="521.3542" y="207.3486"/><ellipse cx="602.0833" cy="223.0428" fill="#0066CF" rx="10.4167" ry="10.4167" style="stroke:#0086EF;stroke-width:1.0416666666666667;"/><path d="M603.9937,227.4679 Q603.5665,227.6876 603.0965,227.7974 Q602.6265,227.9073 602.1077,227.9073 Q600.2645,227.9073 599.294,226.6927 Q598.3236,225.4781 598.3236,223.1832 Q598.3236,220.8822 599.294,219.6676 Q600.2645,218.453 602.1077,218.453 Q602.6265,218.453 603.1026,218.5628 Q603.5787,218.6727 603.9937,218.8924 L603.9937,220.8944 Q603.5299,220.4671 603.0935,220.2688 Q602.6571,220.0704 602.1932,220.0704 Q601.2044,220.0704 600.7009,220.8547 Q600.1973,221.639 600.1973,223.1832 Q600.1973,224.7213 600.7009,225.5056 Q601.2044,226.2899 602.1932,226.2899 Q602.6571,226.2899 603.0935,226.0915 Q603.5299,225.8931 603.9937,225.4659 Z " fill="#000000"/><text fill="#D8BC00" font-family="Open Sans,Avenir,Nunito,Arial,Helvetica,SansSerif" font-size="12.5" font-weight="bold" lengthAdjust="spacing" textLength="77.0833" x="625" y="227.7669">FourthPanel</text><line style="stroke:#5E5E5E;stroke-width:1.5625;" x1="522.3958" x2="773.4375" y1="238.737" y2="238.737"/><ellipse cx="532.8125" cy="274.1069" fill="#84BE84" rx="3.125" ry="3.125" style="stroke:#038048;stroke-width:1.0416666666666667;"/><text fill="#D8BC00" font-family="Open Sans,Avenir,Nunito,Arial,Helvetica,SansSerif" font-size="11.4583" lengthAdjust="spacing" textLength="220.8333" x="544.2708" y="281.0181">FourthPanel(String, IBreadCrumbModel)</text><line style="stroke:#5E5E5E;stroke-width:1.0416666666666667;" x1="522.3958" x2="604.1667" y1="256.9427" y2="256.9427"/><text fill="#D8BC00" font-family="Open Sans,Avenir,Nunito,Arial,Helvetica,SansSerif" font-size="11.4583" lengthAdjust="spacing" textLength="81.25" x="607.2917" y="260.7524">(constructors)</text><line style="stroke:#5E5E5E;stroke-width:1.0416666666666667;" x1="691.6667" x2="773.4375" y1="256.9427" y2="256.9427"/><!--MD5=[8de0e4c819f220f8e0c4c4df41ba59ce]
class WicketExamplePage--><rect fill="#282828" height="48.055" id="WicketExamplePage" rx="8.3333" ry="8.3333" style="stroke:#5E5E5E;stroke-width:1.0416666666666667;" width="164.5833" x="1678.125" y="53.7028"/><rect fill="#1B1B1A" height="31.3883" rx="8.3333" ry="8.3333" style="stroke:#1B1B1A;stroke-width:1.0416666666666667;" width="164.5833" x="1678.125" y="53.7028"/><rect fill="#1B1B1A" height="8.3333" style="stroke:#1B1B1A;stroke-width:1.0416666666666667;" width="164.5833" x="1678.125" y="76.7578"/><rect fill="none" height="48.055" id="WicketExamplePage" rx="8.3333" ry="8.3333" style="stroke:#5E5E5E;stroke-width:1.0416666666666667;" width="164.5833" x="1678.125" y="53.7028"/><ellipse cx="1692.7083" cy="69.397" fill="#0066CF" rx="10.4167" ry="10.4167" style="stroke:#0086EF;stroke-width:1.0416666666666667;"/><path d="M1694.6187,73.822 Q1694.1915,74.0417 1693.7215,74.1516 Q1693.2515,74.2615 1692.7327,74.2615 Q1690.8895,74.2615 1689.919,73.0469 Q1688.9486,71.8323 1688.9486,69.5374 Q1688.9486,67.2363 1689.919,66.0217 Q1690.8895,64.8071 1692.7327,64.8071 Q1693.2515,64.8071 1693.7276,64.917 Q1694.2037,65.0269 1694.6187,65.2466 L1694.6187,67.2485 Q1694.1549,66.8213 1693.7185,66.6229 Q1693.2821,66.4246 1692.8182,66.4246 Q1691.8294,66.4246 1691.3259,67.2089 Q1690.8223,67.9932 1690.8223,69.5374 Q1690.8223,71.0754 1691.3259,71.8597 Q1691.8294,72.644 1692.8182,72.644 Q1693.2821,72.644 1693.7185,72.4457 Q1694.1549,72.2473 1694.6187,71.8201 Z " fill="#000000"/><text fill="#D8BC00" font-family="Open Sans,Avenir,Nunito,Arial,Helvetica,SansSerif" font-size="12.5" font-weight="bold" lengthAdjust="spacing" textLength="127.0833" x="1709.375" y="74.1211">WicketExamplePage</text><line style="stroke:#5E5E5E;stroke-width:1.0416666666666667;" x1="1679.1667" x2="1841.6667" y1="85.0911" y2="85.0911"/><line style="stroke:#5E5E5E;stroke-width:1.0416666666666667;" x1="1679.1667" x2="1841.6667" y1="93.4245" y2="93.4245"/><!--MD5=[15b9a87b033c6044cf0e9bbdacb18726]
class Index--><rect codeLine="26" fill="#282828" height="83.3781" id="Index" rx="8.3333" ry="8.3333" style="stroke:#5E5E5E;stroke-width:1.0416666666666667;" width="95.8333" x="1712.5" y="207.3486"/><rect fill="#1B1B1A" height="31.3883" rx="8.3333" ry="8.3333" style="stroke:#1B1B1A;stroke-width:1.0416666666666667;" width="95.8333" x="1712.5" y="207.3486"/><rect fill="#1B1B1A" height="8.3333" style="stroke:#1B1B1A;stroke-width:1.0416666666666667;" width="95.8333" x="1712.5" y="230.4036"/><rect codeLine="26" fill="none" height="83.3781" id="Index" rx="8.3333" ry="8.3333" style="stroke:#5E5E5E;stroke-width:1.0416666666666667;" width="95.8333" x="1712.5" y="207.3486"/><ellipse cx="1737.3958" cy="223.0428" fill="#0066CF" rx="10.4167" ry="10.4167" style="stroke:#0086EF;stroke-width:1.0416666666666667;"/><path d="M1739.3062,227.4679 Q1738.879,227.6876 1738.409,227.7974 Q1737.939,227.9073 1737.4202,227.9073 Q1735.577,227.9073 1734.6065,226.6927 Q1733.6361,225.4781 1733.6361,223.1832 Q1733.6361,220.8822 1734.6065,219.6676 Q1735.577,218.453 1737.4202,218.453 Q1737.939,218.453 1738.4151,218.5628 Q1738.8912,218.6727 1739.3062,218.8924 L1739.3062,220.8944 Q1738.8424,220.4671 1738.406,220.2688 Q1737.9696,220.0704 1737.5057,220.0704 Q1736.5169,220.0704 1736.0134,220.8547 Q1735.5098,221.639 1735.5098,223.1832 Q1735.5098,224.7213 1736.0134,225.5056 Q1736.5169,226.2899 1737.5057,226.2899 Q1737.9696,226.2899 1738.406,226.0915 Q1738.8424,225.8931 1739.3062,225.4659 Z " fill="#000000"/><text fill="#D8BC00" font-family="Open Sans,Avenir,Nunito,Arial,Helvetica,SansSerif" font-size="12.5" font-weight="bold" lengthAdjust="spacing" textLength="35.4167" x="1756.3542" y="227.7669">Index</text><line style="stroke:#5E5E5E;stroke-width:1.5625;" x1="1713.5417" x2="1807.2917" y1="238.737" y2="238.737"/><ellipse cx="1723.9583" cy="274.1069" fill="#84BE84" rx="3.125" ry="3.125" style="stroke:#038048;stroke-width:1.0416666666666667;"/><text fill="#D8BC00" font-family="Open Sans,Avenir,Nunito,Arial,Helvetica,SansSerif" font-size="11.4583" lengthAdjust="spacing" textLength="39.5833" x="1735.4167" y="281.0181">Index()</text><line style="stroke:#5E5E5E;stroke-width:1.0416666666666667;" x1="1713.5417" x2="1716.6667" y1="256.9427" y2="256.9427"/><text fill="#D8BC00" font-family="Open Sans,Avenir,Nunito,Arial,Helvetica,SansSerif" font-size="11.4583" lengthAdjust="spacing" textLength="81.25" x="1719.7917" y="260.7524">(constructors)</text><line style="stroke:#5E5E5E;stroke-width:1.0416666666666667;" x1="1804.1667" x2="1807.2917" y1="256.9427" y2="256.9427"/><!--MD5=[6f29f313cd4199edbf91b9ce3a4faa98]
class Form--><rect fill="#282828" height="48.055" id="Form" rx="8.3333" ry="8.3333" style="stroke:#5E5E5E;stroke-width:1.0416666666666667;" width="70.8333" x="1935.4167" y="53.7028"/><rect fill="#1B1B1A" height="31.3883" rx="8.3333" ry="8.3333" style="stroke:#1B1B1A;stroke-width:1.0416666666666667;" width="70.8333" x="1935.4167" y="53.7028"/><rect fill="#1B1B1A" height="8.3333" style="stroke:#1B1B1A;stroke-width:1.0416666666666667;" width="70.8333" x="1935.4167" y="76.7578"/><rect fill="none" height="48.055" id="Form" rx="8.3333" ry="8.3333" style="stroke:#5E5E5E;stroke-width:1.0416666666666667;" width="70.8333" x="1935.4167" y="53.7028"/><ellipse cx="1950" cy="69.397" fill="#0066CF" rx="10.4167" ry="10.4167" style="stroke:#0086EF;stroke-width:1.0416666666666667;"/><path d="M1951.9104,73.822 Q1951.4832,74.0417 1951.0132,74.1516 Q1950.5432,74.2615 1950.0244,74.2615 Q1948.1812,74.2615 1947.2107,73.0469 Q1946.2402,71.8323 1946.2402,69.5374 Q1946.2402,67.2363 1947.2107,66.0217 Q1948.1812,64.8071 1950.0244,64.8071 Q1950.5432,64.8071 1951.0193,64.917 Q1951.4954,65.0269 1951.9104,65.2466 L1951.9104,67.2485 Q1951.4465,66.8213 1951.0101,66.6229 Q1950.5737,66.4246 1950.1099,66.4246 Q1949.1211,66.4246 1948.6176,67.2089 Q1948.114,67.9932 1948.114,69.5374 Q1948.114,71.0754 1948.6176,71.8597 Q1949.1211,72.644 1950.1099,72.644 Q1950.5737,72.644 1951.0101,72.4457 Q1951.4465,72.2473 1951.9104,71.8201 Z " fill="#000000"/><text fill="#D8BC00" font-family="Open Sans,Avenir,Nunito,Arial,Helvetica,SansSerif" font-size="12.5" font-weight="bold" lengthAdjust="spacing" textLength="33.3333" x="1966.6667" y="74.1211">Form</text><line style="stroke:#5E5E5E;stroke-width:1.0416666666666667;" x1="1936.4583" x2="2005.2083" y1="85.0911" y2="85.0911"/><line style="stroke:#5E5E5E;stroke-width:1.0416666666666667;" x1="1936.4583" x2="2005.2083" y1="93.4245" y2="93.4245"/><!--MD5=[42e82fc9a6b0168d2675ac8159b40457]
class ResultPanel--><rect codeLine="43" fill="#282828" height="83.3781" id="ResultPanel" rx="8.3333" ry="8.3333" style="stroke:#5E5E5E;stroke-width:1.0416666666666667;" width="289.5833" x="811.4583" y="207.3486"/><rect fill="#1B1B1A" height="31.3883" rx="8.3333" ry="8.3333" style="stroke:#1B1B1A;stroke-width:1.0416666666666667;" width="289.5833" x="811.4583" y="207.3486"/><rect fill="#1B1B1A" height="8.3333" style="stroke:#1B1B1A;stroke-width:1.0416666666666667;" width="289.5833" x="811.4583" y="230.4036"/><rect codeLine="43" fill="none" height="83.3781" id="ResultPanel" rx="8.3333" ry="8.3333" style="stroke:#5E5E5E;stroke-width:1.0416666666666667;" width="289.5833" x="811.4583" y="207.3486"/><ellipse cx="911.4583" cy="223.0428" fill="#0066CF" rx="10.4167" ry="10.4167" style="stroke:#0086EF;stroke-width:1.0416666666666667;"/><path d="M913.3687,227.4679 Q912.9415,227.6876 912.4715,227.7974 Q912.0015,227.9073 911.4827,227.9073 Q909.6395,227.9073 908.669,226.6927 Q907.6986,225.4781 907.6986,223.1832 Q907.6986,220.8822 908.669,219.6676 Q909.6395,218.453 911.4827,218.453 Q912.0015,218.453 912.4776,218.5628 Q912.9537,218.6727 913.3687,218.8924 L913.3687,220.8944 Q912.9049,220.4671 912.4685,220.2688 Q912.0321,220.0704 911.5682,220.0704 Q910.5794,220.0704 910.0759,220.8547 Q909.5723,221.639 909.5723,223.1832 Q909.5723,224.7213 910.0759,225.5056 Q910.5794,226.2899 911.5682,226.2899 Q912.0321,226.2899 912.4685,226.0915 Q912.9049,225.8931 913.3687,225.4659 Z " fill="#000000"/><text fill="#D8BC00" font-family="Open Sans,Avenir,Nunito,Arial,Helvetica,SansSerif" font-size="12.5" font-weight="bold" lengthAdjust="spacing" textLength="75" x="934.375" y="227.7669">ResultPanel</text><line style="stroke:#5E5E5E;stroke-width:1.5625;" x1="812.5" x2="1100" y1="238.737" y2="238.737"/><ellipse cx="822.9167" cy="274.1069" fill="#84BE84" rx="3.125" ry="3.125" style="stroke:#038048;stroke-width:1.0416666666666667;"/><text fill="#D8BC00" font-family="Open Sans,Avenir,Nunito,Arial,Helvetica,SansSerif" font-size="11.4583" lengthAdjust="spacing" textLength="257.2917" x="834.375" y="281.0181">ResultPanel(String, IBreadCrumbModel, String)</text><line style="stroke:#5E5E5E;stroke-width:1.0416666666666667;" x1="812.5" x2="912.5" y1="256.9427" y2="256.9427"/><text fill="#D8BC00" font-family="Open Sans,Avenir,Nunito,Arial,Helvetica,SansSerif" font-size="11.4583" lengthAdjust="spacing" textLength="81.25" x="915.625" y="260.7524">(constructors)</text><line style="stroke:#5E5E5E;stroke-width:1.0416666666666667;" x1="1000" x2="1100" y1="256.9427" y2="256.9427"/><!--MD5=[531d5c30a54d1bc6a963a0c99d53485b]
class SecondPanel--><rect codeLine="50" fill="#282828" height="83.3781" id="SecondPanel" rx="8.3333" ry="8.3333" style="stroke:#5E5E5E;stroke-width:1.0416666666666667;" width="256.25" x="1137.5" y="207.3486"/><rect fill="#1B1B1A" height="31.3883" rx="8.3333" ry="8.3333" style="stroke:#1B1B1A;stroke-width:1.0416666666666667;" width="256.25" x="1137.5" y="207.3486"/><rect fill="#1B1B1A" height="8.3333" style="stroke:#1B1B1A;stroke-width:1.0416666666666667;" width="256.25" x="1137.5" y="230.4036"/><rect codeLine="50" fill="none" height="83.3781" id="SecondPanel" rx="8.3333" ry="8.3333" style="stroke:#5E5E5E;stroke-width:1.0416666666666667;" width="256.25" x="1137.5" y="207.3486"/><ellipse cx="1218.2292" cy="223.0428" fill="#0066CF" rx="10.4167" ry="10.4167" style="stroke:#0086EF;stroke-width:1.0416666666666667;"/><path d="M1220.1396,227.4679 Q1219.7123,227.6876 1219.2424,227.7974 Q1218.7724,227.9073 1218.2536,227.9073 Q1216.4103,227.9073 1215.4399,226.6927 Q1214.4694,225.4781 1214.4694,223.1832 Q1214.4694,220.8822 1215.4399,219.6676 Q1216.4103,218.453 1218.2536,218.453 Q1218.7724,218.453 1219.2485,218.5628 Q1219.7245,218.6727 1220.1396,218.8924 L1220.1396,220.8944 Q1219.6757,220.4671 1219.2393,220.2688 Q1218.8029,220.0704 1218.339,220.0704 Q1217.3503,220.0704 1216.8467,220.8547 Q1216.3432,221.639 1216.3432,223.1832 Q1216.3432,224.7213 1216.8467,225.5056 Q1217.3503,226.2899 1218.339,226.2899 Q1218.8029,226.2899 1219.2393,226.0915 Q1219.6757,225.8931 1220.1396,225.4659 Z " fill="#000000"/><text fill="#D8BC00" font-family="Open Sans,Avenir,Nunito,Arial,Helvetica,SansSerif" font-size="12.5" font-weight="bold" lengthAdjust="spacing" textLength="80.2083" x="1241.1458" y="227.7669">SecondPanel</text><line style="stroke:#5E5E5E;stroke-width:1.5625;" x1="1138.5417" x2="1392.7083" y1="238.737" y2="238.737"/><ellipse cx="1148.9583" cy="274.1069" fill="#84BE84" rx="3.125" ry="3.125" style="stroke:#038048;stroke-width:1.0416666666666667;"/><text fill="#D8BC00" font-family="Open Sans,Avenir,Nunito,Arial,Helvetica,SansSerif" font-size="11.4583" lengthAdjust="spacing" textLength="223.9583" x="1160.4167" y="281.0181">SecondPanel(String, IBreadCrumbModel)</text><line style="stroke:#5E5E5E;stroke-width:1.0416666666666667;" x1="1138.5417" x2="1221.875" y1="256.9427" y2="256.9427"/><text fill="#D8BC00" font-family="Open Sans,Avenir,Nunito,Arial,Helvetica,SansSerif" font-size="11.4583" lengthAdjust="spacing" textLength="81.25" x="1225" y="260.7524">(constructors)</text><line style="stroke:#5E5E5E;stroke-width:1.0416666666666667;" x1="1309.375" x2="1392.7083" y1="256.9427" y2="256.9427"/><!--MD5=[a0619c841f80398e3fee5682387ad32c]
class ThirdPanel--><rect codeLine="57" fill="#282828" height="83.3781" id="ThirdPanel" rx="8.3333" ry="8.3333" style="stroke:#5E5E5E;stroke-width:1.0416666666666667;" width="245.8333" x="1430.2083" y="207.3486"/><rect fill="#1B1B1A" height="31.3883" rx="8.3333" ry="8.3333" style="stroke:#1B1B1A;stroke-width:1.0416666666666667;" width="245.8333" x="1430.2083" y="207.3486"/><rect fill="#1B1B1A" height="8.3333" style="stroke:#1B1B1A;stroke-width:1.0416666666666667;" width="245.8333" x="1430.2083" y="230.4036"/><rect codeLine="57" fill="none" height="83.3781" id="ThirdPanel" rx="8.3333" ry="8.3333" style="stroke:#5E5E5E;stroke-width:1.0416666666666667;" width="245.8333" x="1430.2083" y="207.3486"/><ellipse cx="1511.4583" cy="223.0428" fill="#0066CF" rx="10.4167" ry="10.4167" style="stroke:#0086EF;stroke-width:1.0416666666666667;"/><path d="M1513.3687,227.4679 Q1512.9415,227.6876 1512.4715,227.7974 Q1512.0015,227.9073 1511.4827,227.9073 Q1509.6395,227.9073 1508.669,226.6927 Q1507.6986,225.4781 1507.6986,223.1832 Q1507.6986,220.8822 1508.669,219.6676 Q1509.6395,218.453 1511.4827,218.453 Q1512.0015,218.453 1512.4776,218.5628 Q1512.9537,218.6727 1513.3687,218.8924 L1513.3687,220.8944 Q1512.9049,220.4671 1512.4685,220.2688 Q1512.0321,220.0704 1511.5682,220.0704 Q1510.5794,220.0704 1510.0759,220.8547 Q1509.5723,221.639 1509.5723,223.1832 Q1509.5723,224.7213 1510.0759,225.5056 Q1510.5794,226.2899 1511.5682,226.2899 Q1512.0321,226.2899 1512.4685,226.0915 Q1512.9049,225.8931 1513.3687,225.4659 Z " fill="#000000"/><text fill="#D8BC00" font-family="Open Sans,Avenir,Nunito,Arial,Helvetica,SansSerif" font-size="12.5" font-weight="bold" lengthAdjust="spacing" textLength="68.75" x="1534.375" y="227.7669">ThirdPanel</text><line style="stroke:#5E5E5E;stroke-width:1.5625;" x1="1431.25" x2="1675" y1="238.737" y2="238.737"/><ellipse cx="1441.6667" cy="274.1069" fill="#84BE84" rx="3.125" ry="3.125" style="stroke:#038048;stroke-width:1.0416666666666667;"/><text fill="#D8BC00" font-family="Open Sans,Avenir,Nunito,Arial,Helvetica,SansSerif" font-size="11.4583" lengthAdjust="spacing" textLength="213.5417" x="1453.125" y="281.0181">ThirdPanel(String, IBreadCrumbModel)</text><line style="stroke:#5E5E5E;stroke-width:1.0416666666666667;" x1="1431.25" x2="1509.375" y1="256.9427" y2="256.9427"/><text fill="#D8BC00" font-family="Open Sans,Avenir,Nunito,Arial,Helvetica,SansSerif" font-size="11.4583" lengthAdjust="spacing" textLength="81.25" x="1512.5" y="260.7524">(constructors)</text><line style="stroke:#5E5E5E;stroke-width:1.0416666666666667;" x1="1596.875" x2="1675" y1="256.9427" y2="256.9427"/><!--MD5=[92fbe878d2b1a80ecd307d5e472abeae]
reverse link WicketExampleApplication to BreadCrumbApplication--><path codeLine="6" d="M111.4583,122.932 C111.4583,155.5674 111.4583,198.6715 111.4583,224.7965 " fill="none" id="WicketExampleApplication-backto-BreadCrumbApplication" style="stroke:#545454;stroke-width:1.5625;"/><polygon fill="none" points="104.1667,122.7132,111.4583,101.8799,118.75,122.7132,104.1667,122.7132" style="stroke:#545454;stroke-width:1.5625;"/><!--MD5=[f34f25b17e5384ef999f4a78ab19790a]
reverse link BreadCrumbPanel to FirstPanel--><path codeLine="11" d="M859.1667,81.7965 C735.6875,86.2757 534.6146,95.6611 503.125,109.9528 C456.9063,130.932 417.4271,174.484 392.5729,207.0778 " fill="none" id="BreadCrumbPanel-backto-FirstPanel" style="stroke:#545454;stroke-width:1.5625;"/><polygon fill="none" points="859.0625,74.5049,880.1458,81.0465,859.5833,89.0778,859.0625,74.5049" style="stroke:#545454;stroke-width:1.5625;"/><!--MD5=[3c15ea1a4296082e5840f6a0dad06edb]
reverse link BreadCrumbPanel to FourthPanel--><path codeLine="18" d="M859.4792,87.7653 C836.7292,92.4215 813.1771,99.4215 792.7083,109.9528 C747.1563,133.3903 706.0313,175.6403 679.3542,207.234 " fill="none" id="BreadCrumbPanel-backto-FourthPanel" style="stroke:#545454;stroke-width:1.5625;"/><polygon fill="none" points="858.2396,80.5882,880.0208,84.1299,860.7813,94.9424,858.2396,80.5882" style="stroke:#545454;stroke-width:1.5625;"/><!--MD5=[c91da0eefb8de17b5450c128c5c2e461]
reverse link WicketExamplePage to Index--><path codeLine="25" d="M1760.4167,122.734 C1760.4167,148.8382 1760.4167,181.7028 1760.4167,207.2132 " fill="none" id="WicketExamplePage-backto-Index" style="stroke:#545454;stroke-width:1.5625;"/><polygon fill="none" points="1753.125,122.7132,1760.4167,101.8799,1767.7083,122.7132,1753.125,122.7132" style="stroke:#545454;stroke-width:1.5625;"/><!--MD5=[1e1e85d03bc179f3784f307112c0b735]
reverse link Form to SecondPanel.InputForm--><path codeLine="32" d="M1970.8333,122.8486 C1970.8333,138.8799 1970.8333,157.4528 1970.8333,175.2965 " fill="none" id="Form-backto-SecondPanel.InputForm" style="stroke:#545454;stroke-width:1.5625;"/><polygon fill="none" points="1963.5417,122.7132,1970.8333,101.8799,1978.125,122.7132,1963.5417,122.7132" style="stroke:#545454;stroke-width:1.5625;"/><!--MD5=[8604c1d40a5b1dc9c1b75a2869f2c52e]
reverse link BreadCrumbPanel to ResultPanel--><path codeLine="42" d="M956.25,122.734 C956.25,148.8382 956.25,181.7028 956.25,207.2132 " fill="none" id="BreadCrumbPanel-backto-ResultPanel" style="stroke:#545454;stroke-width:1.5625;"/><polygon fill="none" points="948.9583,122.7132,956.25,101.8799,963.5417,122.7132,948.9583,122.7132" style="stroke:#545454;stroke-width:1.5625;"/><!--MD5=[423eef1cb6b5eae34fbe06b362307b86]
reverse link BreadCrumbPanel to SecondPanel--><path codeLine="49" d="M1053.0313,88.0882 C1075.4167,92.734 1098.5833,99.6507 1118.75,109.9528 C1164.7188,133.4215 1206.4688,175.6715 1233.6146,207.2653 " fill="none" id="BreadCrumbPanel-backto-SecondPanel" style="stroke:#545454;stroke-width:1.5625;"/><polygon fill="none" points="1051.5625,95.234,1032.3542,84.359,1054.1458,80.8799,1051.5625,95.234" style="stroke:#545454;stroke-width:1.5625;"/><!--MD5=[3e1be89cf69cc9314baeab9ae7ba2b76]
reverse link BreadCrumbPanel to ThirdPanel--><path codeLine="56" d="M1053.75,81.8278 C1177.7708,86.3486 1379.75,95.7757 1411.4583,109.9528 C1458.3229,130.9111 1498.7604,174.4528 1524.3021,207.0674 " fill="none" id="BreadCrumbPanel-backto-ThirdPanel" style="stroke:#545454;stroke-width:1.5625;"/><polygon fill="none" points="1053.25,89.109,1032.6875,81.0778,1053.7708,74.5361,1053.25,89.109" style="stroke:#545454;stroke-width:1.5625;"/><!--MD5=[d2cb544021d89905812cd3aab9250dae]
@startuml

    !include lexakai.theme
    
    title "org.apache.wicket.examples.breadcrumb"
    
    WicketExampleApplication <|- - BreadCrumbApplication
    class BreadCrumbApplication
    {
    }
    
    BreadCrumbPanel <|- - FirstPanel
    class FirstPanel
    {
        - -(constructors)- -
        +FirstPanel(String, IBreadCrumbModel)
    }
    
    BreadCrumbPanel <|- - FourthPanel
    class FourthPanel
    {
        - -(constructors)- -
        +FourthPanel(String, IBreadCrumbModel)
    }
    
    WicketExamplePage <|- - Index
    class Index
    {
        - -(constructors)- -
        +Index()
    }
    
    Form <|- - SecondPanel.InputForm
    class SecondPanel.InputForm
    {
        - -(constructors)- -
        +InputForm(String)
        - -(read)- -
        +String getInput()
        +void setInput(String input)
    }
    
    BreadCrumbPanel <|- - ResultPanel
    class ResultPanel
    {
        - -(constructors)- -
        +ResultPanel(String, IBreadCrumbModel, String)
    }
    
    BreadCrumbPanel <|- - SecondPanel
    class SecondPanel
    {
        - -(constructors)- -
        +SecondPanel(String, IBreadCrumbModel)
    }
    
    BreadCrumbPanel <|- - ThirdPanel
    class ThirdPanel
    {
        - -(constructors)- -
        +ThirdPanel(String, IBreadCrumbModel)
    }
    
@enduml

@startuml









skinparam backgroundColor #333333






skinparam  {
    defaultFontName   "Open Sans,Avenir,Nunito,Arial,Helvetica,SansSerif"
    defaultFontSize   12
    defaultTextAlignment left
    shadowing false
    RoundCorner 10
    TitleFontSize 18
}

skinparam defaultFontName       "Open Sans,Avenir,Nunito,Arial,Helvetica,SansSerif"
skinparam defaultFontSize       12
skinparam dpi                   100
skinparam shadowing             false
skinparam roundcorner           16
skinparam ParticipantPadding    40
skinparam BoxPadding            40
skinparam Padding               3
skinparam ArrowColor            #545454
skinparam stereotype {
    CBackgroundColor #0066cf
    CBorderColor #0086ef
    ABackgroundColor #C8Ac00
    ABorderColor #D8Bc00
    IBackgroundColor #008400
    IBorderColor #239c23
    EBackgroundColor #cf6300
    EBorderColor #ef8300
    NBackgroundColor #3380b9
    NBorderColor #004d86
}
skinparam title {
	FontColor	                 #c0c0c0
 	BorderColor                  #545454
	FontSize	    	         20
	BorderRoundCorner            16
	BorderThickness 	         1
	BackgroundColor              #48494b
}


skinparam legend {
	BackgroundColor #303030
	BorderColor #404040
	FontColor #a0a0a0
}

	skinparam swimlane {
	BorderColor #5e5e5e
	BorderThickness 2
	TitleBackgroundColor  #6d6d6d-#484848
	TitleFontColor #303030
}

skinparam activity {
		FontColor #C8Ac00
	BorderColor #333333
	BackgroundColor #333333-#333333
	BarColor #00FF00
	StartColor #0060a8
	EndColor #0060a8
	DiamondBackgroundColor #6d6d6d-#3a3a3a
  	DiamondBorderColor #3a3a3a
  	DiamondFontColor #fefefe
}


skinparam participant {
		FontColor #C8Ac00
	BorderColor #333333
	BackgroundColor #333333-#333333
	ParticipantBorderThickness 2
}


skinparam actor {
		FontColor #C8Ac00
	BorderColor #333333
	BackgroundColor #333333-#333333
}


skinparam arrow {
	Thickness 1.5
	Color #545454
	FontColor #a0a0a0
    FontStyle bold
    MessageAlignment center
}



skinparam sequence {
	BorderColor #303030
	TitleFontColor #303030
	BackgroundColor #333333
	StartColor #303030
	EndColor #303030
	BoxBackgroundColor #333333
	BoxBorderColor #484848
	BoxFontColor #484848
	LifeLineBorderColor #484848
	LifeLineBorderThickness 2
	LifeLineBackgroundColor #3a3a3a
	GroupBorderColor #484848
	GroupFontColor #484848
	GroupHeaderFontColor #0060a8
	GroupBackgroundColor #484848
	GroupHeaderBackgroundColor #333333
	DividerBackgroundColor #484848
    DividerBorderColor #484848
    DividerBorderThickness 2
    DividerFontColor #D8Bc00
	ReferenceBackgroundColor #333333
	ReferenceBorderColor #484848
	ReferenceFontColor #fefefe
	ReferenceHeaderBackgroundColor #484848
}


skinparam partition {
	BorderColor #303030
	FontColor #333333
	BackgroundColor #333333
}


skinparam collections {
		FontColor #C8Ac00
	BorderColor #333333
	BackgroundColor #333333-#333333
}


skinparam control {
		FontColor #C8Ac00
	BorderColor #333333
	BackgroundColor #333333-#333333
}


skinparam entity {
		FontColor #C8Ac00
	BorderColor #333333
	BackgroundColor #333333-#333333
}


skinparam boundary {
		FontColor #C8Ac00
	BorderColor #333333
	BackgroundColor #333333-#333333
}


skinparam agent {
	BackgroundColor #ff8000
	BorderColor #ff9933
	FontColor #484848
}


skinparam note {
	BorderThickness 1
	BackgroundColor #1b1b1a
	BorderColor #5e5e5e
	FontSize 11
	FontColor #a0a0a0
}


skinparam artifact {
	BorderThickness 10
	BorderColor #5e5e5e
	BackgroundColor #1b1b1a
	FontColor #D8Bc00
}


skinparam component {
		FontColor #C8Ac00
	BorderColor #333333
	BackgroundColor #333333-#333333
}


skinparam interface {
	BackgroundColor  #008400
	BorderColor  #007F00
	FontColor #484848
}


skinparam storage {
	BackgroundColor #ff8000
  	BorderColor #cc6600
	FontColor #222222
}


skinparam node {
	BackgroundColor #333333
	BorderColor #333333
	FontColor #C8Ac00
}


skinparam cloud {
	BackgroundColor #484848-black
	BorderColor #484848
	FontColor #D8Bc00
}


skinparam database {
		FontColor #C8Ac00
	BorderColor #333333
	BackgroundColor #333333-#333333
	BackgroundColor  #333333
}


skinparam class {
		FontColor #C8Ac00
	BorderColor #333333
	BackgroundColor #333333-#333333
	HeaderBackgroundColor #1b1b1a
    BackgroundColor #282828
    BorderColor #5e5e5e
 	StereotypeFontColor #a0a0a0
    StereotypeFontStyle bold
	BorderThickness 1
	AttributeFontColor #D8Bc00
	AttributeFontSize 11
    FontColor #D8Bc00
    FontStyle bold
}


skinparam object {
		FontColor #C8Ac00
	BorderColor #333333
	BackgroundColor #333333-#333333
	StereotypeFontColor #484848
	BorderThickness 1
	AttributeFontColor #fefefe
	AttributeFontSize 11
}


skinparam usecase {
		FontColor #C8Ac00
	BorderColor #333333
	BackgroundColor #333333-#333333
	BorderThickness 2
	StereotypeFontColor #303030
}


skinparam rectangle {
		FontColor #C8Ac00
	BorderColor #333333
	BackgroundColor #333333-#333333
	BackgroundColor #333333
	BorderThickness 2
	StereotypeFontColor #303030
}


skinparam package {
		FontColor #C8Ac00
	BorderColor #333333
	BackgroundColor #333333-#333333
	BackgroundColor #333333
	BorderThickness 2
}


skinparam folder {
	BackgroundColor #6d6d6d
  	BorderColor #ff8000
	FontColor #ff8000
	BorderThickness 2
}


skinparam frame {
	BackgroundColor #6d6d6d
  	BorderColor #0060a8
	FontColor #0060a8
	BorderThickness 2
}


skinparam state {
		FontColor #C8Ac00
	BorderColor #333333
	BackgroundColor #333333-#333333
	StartColor #0060a8
	EndColor #0060a8
	AttributeFontColor #fefefe
	AttributeFontSize 11
}


skinparam queue {
		FontColor #C8Ac00
	BorderColor #333333
	BackgroundColor #333333-#333333
}


skinparam card {
	BackgroundColor #0060a8
	BorderColor #004d86
	FontColor $INFO_TEXT
}


skinparam file {
	BackgroundColor #6d6d6d-#484848
	BorderColor #0060a8
	FontColor #fefefe
}


skinparam stack {
		FontColor #C8Ac00
	BorderColor #333333
	BackgroundColor #333333-#333333
}

    
    title "org.apache.wicket.examples.breadcrumb"
    
    WicketExampleApplication <|- - BreadCrumbApplication
    class BreadCrumbApplication
    {
    }
    
    BreadCrumbPanel <|- - FirstPanel
    class FirstPanel
    {
        - -(constructors)- -
        +FirstPanel(String, IBreadCrumbModel)
    }
    
    BreadCrumbPanel <|- - FourthPanel
    class FourthPanel
    {
        - -(constructors)- -
        +FourthPanel(String, IBreadCrumbModel)
    }
    
    WicketExamplePage <|- - Index
    class Index
    {
        - -(constructors)- -
        +Index()
    }
    
    Form <|- - SecondPanel.InputForm
    class SecondPanel.InputForm
    {
        - -(constructors)- -
        +InputForm(String)
        - -(read)- -
        +String getInput()
        +void setInput(String input)
    }
    
    BreadCrumbPanel <|- - ResultPanel
    class ResultPanel
    {
        - -(constructors)- -
        +ResultPanel(String, IBreadCrumbModel, String)
    }
    
    BreadCrumbPanel <|- - SecondPanel
    class SecondPanel
    {
        - -(constructors)- -
        +SecondPanel(String, IBreadCrumbModel)
    }
    
    BreadCrumbPanel <|- - ThirdPanel
    class ThirdPanel
    {
        - -(constructors)- -
        +ThirdPanel(String, IBreadCrumbModel)
    }
    
@enduml

PlantUML version 1.2021.01(Tue Feb 02 00:55:08 MST 2021)
(GPL source distribution)
Java Runtime: Java(TM) SE Runtime Environment
JVM: Java HotSpot(TM) 64-Bit Server VM
Default Encoding: UTF-8
Language: en
Country: US
--></g></svg>