<?xml version="1.0" encoding="UTF-8" standalone="no"?><svg xmlns="http://www.w3.org/2000/svg" xmlns:xlink="http://www.w3.org/1999/xlink" contentScriptType="application/ecmascript" contentStyleType="text/css" height="317.7083px" preserveAspectRatio="none" style="width:1819px;height:317px;background:#333333;" version="1.1" viewBox="0 0 1819 317" width="1819.7917px" zoomAndPan="magnify"><defs/><g><rect fill="#48494B" height="41.2028" rx="8.3333" ry="8.3333" style="stroke:#545454;stroke-width:1.0416666666666667;" width="398.9583" x="703.125" y="2.0833"/><text fill="#C0C0C0" font-family="Open Sans,Avenir,Nunito,Arial,Helvetica,SansSerif" font-size="20.8333" lengthAdjust="spacing" textLength="376.0417" x="714.5833" y="30.5583">org.apache.wicket.examples.stateless</text><!--MD5=[6ba6ebbfde90f18b91d79409d3fac0bd]
class IModel--><rect codeLine="6" fill="#282828" height="48.055" id="IModel" rx="8.3333" ry="8.3333" style="stroke:#5E5E5E;stroke-width:1.0416666666666667;" width="81.25" x="30.2083" y="53.7028"/><rect fill="#1B1B1A" height="31.3883" rx="8.3333" ry="8.3333" style="stroke:#1B1B1A;stroke-width:1.0416666666666667;" width="81.25" x="30.2083" y="53.7028"/><rect fill="#1B1B1A" height="8.3333" style="stroke:#1B1B1A;stroke-width:1.0416666666666667;" width="81.25" x="30.2083" y="76.7578"/><rect codeLine="6" fill="none" height="48.055" id="IModel" rx="8.3333" ry="8.3333" style="stroke:#5E5E5E;stroke-width:1.0416666666666667;" width="81.25" x="30.2083" y="53.7028"/><ellipse cx="44.7917" cy="69.397" fill="#008400" rx="10.4167" ry="10.4167" style="stroke:#239C23;stroke-width:1.0416666666666667;"/><path d="M42.1956,66.5588 L42.1956,64.9719 L47.6217,64.9719 L47.6217,66.5588 L45.8089,66.5588 L45.8089,72.4976 L47.6217,72.4976 L47.6217,74.0845 L42.1956,74.0845 L42.1956,72.4976 L44.0084,72.4976 L44.0084,66.5588 Z " fill="#000000"/><text fill="#D8BC00" font-family="Open Sans,Avenir,Nunito,Arial,Helvetica,SansSerif" font-size="12.5" font-style="italic" font-weight="bold" lengthAdjust="spacing" textLength="43.75" x="61.4583" y="74.1211">IModel</text><line style="stroke:#5E5E5E;stroke-width:1.0416666666666667;" x1="31.25" x2="110.4167" y1="85.0911" y2="85.0911"/><line style="stroke:#5E5E5E;stroke-width:1.0416666666666667;" x1="31.25" x2="110.4167" y1="93.4245" y2="93.4245"/><!--MD5=[8de0e4c819f220f8e0c4c4df41ba59ce]
class WicketExamplePage--><rect fill="#282828" height="48.055" id="WicketExamplePage" rx="8.3333" ry="8.3333" style="stroke:#5E5E5E;stroke-width:1.0416666666666667;" width="164.5833" x="929.1667" y="53.7028"/><rect fill="#1B1B1A" height="31.3883" rx="8.3333" ry="8.3333" style="stroke:#1B1B1A;stroke-width:1.0416666666666667;" width="164.5833" x="929.1667" y="53.7028"/><rect fill="#1B1B1A" height="8.3333" style="stroke:#1B1B1A;stroke-width:1.0416666666666667;" width="164.5833" x="929.1667" y="76.7578"/><rect fill="none" height="48.055" id="WicketExamplePage" rx="8.3333" ry="8.3333" style="stroke:#5E5E5E;stroke-width:1.0416666666666667;" width="164.5833" x="929.1667" y="53.7028"/><ellipse cx="943.75" cy="69.397" fill="#0066CF" rx="10.4167" ry="10.4167" style="stroke:#0086EF;stroke-width:1.0416666666666667;"/><path d="M945.6604,73.822 Q945.2332,74.0417 944.7632,74.1516 Q944.2932,74.2615 943.7744,74.2615 Q941.9312,74.2615 940.9607,73.0469 Q939.9902,71.8323 939.9902,69.5374 Q939.9902,67.2363 940.9607,66.0217 Q941.9312,64.8071 943.7744,64.8071 Q944.2932,64.8071 944.7693,64.917 Q945.2454,65.0269 945.6604,65.2466 L945.6604,67.2485 Q945.1965,66.8213 944.7601,66.6229 Q944.3237,66.4246 943.8599,66.4246 Q942.8711,66.4246 942.3676,67.2089 Q941.864,67.9932 941.864,69.5374 Q941.864,71.0754 942.3676,71.8597 Q942.8711,72.644 943.8599,72.644 Q944.3237,72.644 944.7601,72.4457 Q945.1965,72.2473 945.6604,71.8201 Z " fill="#000000"/><text fill="#D8BC00" font-family="Open Sans,Avenir,Nunito,Arial,Helvetica,SansSerif" font-size="12.5" font-weight="bold" lengthAdjust="spacing" textLength="127.0833" x="960.4167" y="74.1211">WicketExamplePage</text><line style="stroke:#5E5E5E;stroke-width:1.0416666666666667;" x1="930.2083" x2="1092.7083" y1="85.0911" y2="85.0911"/><line style="stroke:#5E5E5E;stroke-width:1.0416666666666667;" x1="930.2083" x2="1092.7083" y1="93.4245" y2="93.4245"/><!--MD5=[ad20c2212ad31169980dbd070501e5ee]
class AjaxStatelessExample--><rect codeLine="9" fill="#282828" height="111.4563" id="AjaxStatelessExample" rx="8.3333" ry="8.3333" style="stroke:#5E5E5E;stroke-width:1.0416666666666667;" width="303.125" x="171.3542" y="181.8278"/><rect fill="#1B1B1A" height="31.3883" rx="8.3333" ry="8.3333" style="stroke:#1B1B1A;stroke-width:1.0416666666666667;" width="303.125" x="171.3542" y="181.8278"/><rect fill="#1B1B1A" height="8.3333" style="stroke:#1B1B1A;stroke-width:1.0416666666666667;" width="303.125" x="171.3542" y="204.8828"/><rect codeLine="9" fill="none" height="111.4563" id="AjaxStatelessExample" rx="8.3333" ry="8.3333" style="stroke:#5E5E5E;stroke-width:1.0416666666666667;" width="303.125" x="171.3542" y="181.8278"/><ellipse cx="245.3125" cy="197.522" fill="#0066CF" rx="10.4167" ry="10.4167" style="stroke:#0086EF;stroke-width:1.0416666666666667;"/><path d="M247.2229,201.947 Q246.7957,202.1667 246.3257,202.2766 Q245.8557,202.3865 245.3369,202.3865 Q243.4937,202.3865 242.5232,201.1719 Q241.5527,199.9573 241.5527,197.6624 Q241.5527,195.3613 242.5232,194.1467 Q243.4937,192.9321 245.3369,192.9321 Q245.8557,192.9321 246.3318,193.042 Q246.8079,193.1519 247.2229,193.3716 L247.2229,195.3735 Q246.759,194.9463 246.3226,194.7479 Q245.8862,194.5496 245.4224,194.5496 Q244.4336,194.5496 243.9301,195.3339 Q243.4265,196.1182 243.4265,197.6624 Q243.4265,199.2004 243.9301,199.9847 Q244.4336,200.769 245.4224,200.769 Q245.8862,200.769 246.3226,200.5707 Q246.759,200.3723 247.2229,199.9451 Z " fill="#000000"/><text fill="#D8BC00" font-family="Open Sans,Avenir,Nunito,Arial,Helvetica,SansSerif" font-size="12.5" font-weight="bold" lengthAdjust="spacing" textLength="140.625" x="268.2292" y="202.2461">AjaxStatelessExample</text><line style="stroke:#5E5E5E;stroke-width:1.5625;" x1="172.3958" x2="473.4375" y1="213.2161" y2="213.2161"/><ellipse cx="182.8125" cy="248.586" fill="#84BE84" rx="3.125" ry="3.125" style="stroke:#038048;stroke-width:1.0416666666666667;"/><text fill="#D8BC00" font-family="Open Sans,Avenir,Nunito,Arial,Helvetica,SansSerif" font-size="11.4583" lengthAdjust="spacing" textLength="217.7083" x="194.2708" y="255.4972">AjaxStatelessExample(PageParameters)</text><line style="stroke:#5E5E5E;stroke-width:1.0416666666666667;" x1="172.3958" x2="279.1667" y1="231.4219" y2="231.4219"/><text fill="#D8BC00" font-family="Open Sans,Avenir,Nunito,Arial,Helvetica,SansSerif" font-size="11.4583" lengthAdjust="spacing" textLength="81.25" x="282.2917" y="235.2315">(constructors)</text><line style="stroke:#5E5E5E;stroke-width:1.0416666666666667;" x1="366.6667" x2="473.4375" y1="231.4219" y2="231.4219"/><line style="stroke:#5E5E5E;stroke-width:1.0416666666666667;" x1="172.3958" x2="473.4375" y1="265.2059" y2="265.2059"/><polygon fill="#FFFF44" points="182.8125,271.4559,186.9792,275.6226,182.8125,279.7892,178.6458,275.6226" style="stroke:#B38D22;stroke-width:1.0416666666666667;"/><text fill="#D8BC00" font-family="Open Sans,Avenir,Nunito,Arial,Helvetica,SansSerif" font-size="11.4583" lengthAdjust="spacing" textLength="270.8333" x="194.2708" y="283.5754">void updateParams(PageParameters, int counter)</text><!--MD5=[15b9a87b033c6044cf0e9bbdacb18726]
class Index--><rect codeLine="18" fill="#282828" height="83.3781" id="Index" rx="8.3333" ry="8.3333" style="stroke:#5E5E5E;stroke-width:1.0416666666666667;" width="95.8333" x="511.4583" y="195.8903"/><rect fill="#1B1B1A" height="31.3883" rx="8.3333" ry="8.3333" style="stroke:#1B1B1A;stroke-width:1.0416666666666667;" width="95.8333" x="511.4583" y="195.8903"/><rect fill="#1B1B1A" height="8.3333" style="stroke:#1B1B1A;stroke-width:1.0416666666666667;" width="95.8333" x="511.4583" y="218.9453"/><rect codeLine="18" fill="none" height="83.3781" id="Index" rx="8.3333" ry="8.3333" style="stroke:#5E5E5E;stroke-width:1.0416666666666667;" width="95.8333" x="511.4583" y="195.8903"/><ellipse cx="536.3542" cy="211.5845" fill="#0066CF" rx="10.4167" ry="10.4167" style="stroke:#0086EF;stroke-width:1.0416666666666667;"/><path d="M538.2646,216.0095 Q537.8373,216.2292 537.3674,216.3391 Q536.8974,216.449 536.3786,216.449 Q534.5353,216.449 533.5649,215.2344 Q532.5944,214.0198 532.5944,211.7249 Q532.5944,209.4238 533.5649,208.2092 Q534.5353,206.9946 536.3786,206.9946 Q536.8974,206.9946 537.3735,207.1045 Q537.8495,207.2144 538.2646,207.4341 L538.2646,209.436 Q537.8007,209.0088 537.3643,208.8104 Q536.9279,208.6121 536.464,208.6121 Q535.4753,208.6121 534.9717,209.3964 Q534.4682,210.1807 534.4682,211.7249 Q534.4682,213.2629 534.9717,214.0472 Q535.4753,214.8315 536.464,214.8315 Q536.9279,214.8315 537.3643,214.6332 Q537.8007,214.4348 538.2646,214.0076 Z " fill="#000000"/><text fill="#D8BC00" font-family="Open Sans,Avenir,Nunito,Arial,Helvetica,SansSerif" font-size="12.5" font-weight="bold" lengthAdjust="spacing" textLength="35.4167" x="555.3125" y="216.3086">Index</text><line style="stroke:#5E5E5E;stroke-width:1.5625;" x1="512.5" x2="606.25" y1="227.2786" y2="227.2786"/><ellipse cx="522.9167" cy="262.6485" fill="#84BE84" rx="3.125" ry="3.125" style="stroke:#038048;stroke-width:1.0416666666666667;"/><text fill="#D8BC00" font-family="Open Sans,Avenir,Nunito,Arial,Helvetica,SansSerif" font-size="11.4583" lengthAdjust="spacing" textLength="39.5833" x="534.375" y="269.5597">Index()</text><line style="stroke:#5E5E5E;stroke-width:1.0416666666666667;" x1="512.5" x2="515.625" y1="245.4844" y2="245.4844"/><text fill="#D8BC00" font-family="Open Sans,Avenir,Nunito,Arial,Helvetica,SansSerif" font-size="11.4583" lengthAdjust="spacing" textLength="81.25" x="518.75" y="249.294">(constructors)</text><line style="stroke:#5E5E5E;stroke-width:1.0416666666666667;" x1="603.125" x2="606.25" y1="245.4844" y2="245.4844"/><!--MD5=[19f23373fcae26ab84bee5cee043dbad]
class SessionModel--><rect codeLine="25" fill="#282828" height="48.055" id="SessionModel" rx="8.3333" ry="8.3333" style="stroke:#5E5E5E;stroke-width:1.0416666666666667;" width="127.0833" x="7.2917" y="213.5986"/><rect fill="#1B1B1A" height="31.3883" rx="8.3333" ry="8.3333" style="stroke:#1B1B1A;stroke-width:1.0416666666666667;" width="127.0833" x="7.2917" y="213.5986"/><rect fill="#1B1B1A" height="8.3333" style="stroke:#1B1B1A;stroke-width:1.0416666666666667;" width="127.0833" x="7.2917" y="236.6536"/><rect codeLine="25" fill="none" height="48.055" id="SessionModel" rx="8.3333" ry="8.3333" style="stroke:#5E5E5E;stroke-width:1.0416666666666667;" width="127.0833" x="7.2917" y="213.5986"/><ellipse cx="21.875" cy="229.2928" fill="#0066CF" rx="10.4167" ry="10.4167" style="stroke:#0086EF;stroke-width:1.0416666666666667;"/><path d="M23.7854,233.7179 Q23.3582,233.9376 22.8882,234.0474 Q22.4182,234.1573 21.8994,234.1573 Q20.0562,234.1573 19.0857,232.9427 Q18.1152,231.7281 18.1152,229.4332 Q18.1152,227.1322 19.0857,225.9176 Q20.0562,224.703 21.8994,224.703 Q22.4182,224.703 22.8943,224.8128 Q23.3704,224.9227 23.7854,225.1424 L23.7854,227.1444 Q23.3215,226.7171 22.8851,226.5188 Q22.4487,226.3204 21.9849,226.3204 Q20.9961,226.3204 20.4926,227.1047 Q19.989,227.889 19.989,229.4332 Q19.989,230.9713 20.4926,231.7556 Q20.9961,232.5399 21.9849,232.5399 Q22.4487,232.5399 22.8851,232.3415 Q23.3215,232.1431 23.7854,231.7159 Z " fill="#000000"/><text fill="#D8BC00" font-family="Open Sans,Avenir,Nunito,Arial,Helvetica,SansSerif" font-size="12.5" font-weight="bold" lengthAdjust="spacing" textLength="89.5833" x="38.5417" y="234.0169">SessionModel</text><line style="stroke:#5E5E5E;stroke-width:1.0416666666666667;" x1="8.3333" x2="133.3333" y1="244.987" y2="244.987"/><line style="stroke:#5E5E5E;stroke-width:1.0416666666666667;" x1="8.3333" x2="133.3333" y1="253.3203" y2="253.3203"/><!--MD5=[e46a5b3971088c0e23f5be37d7ce8e15]
class StatefulPage--><rect codeLine="30" fill="#282828" height="146.7794" id="StatefulPage" rx="8.3333" ry="8.3333" style="stroke:#5E5E5E;stroke-width:1.0416666666666667;" width="267.7083" x="644.2708" y="164.1195"/><rect fill="#1B1B1A" height="31.3883" rx="8.3333" ry="8.3333" style="stroke:#1B1B1A;stroke-width:1.0416666666666667;" width="267.7083" x="644.2708" y="164.1195"/><rect fill="#1B1B1A" height="8.3333" style="stroke:#1B1B1A;stroke-width:1.0416666666666667;" width="267.7083" x="644.2708" y="187.1745"/><rect codeLine="30" fill="none" height="146.7794" id="StatefulPage" rx="8.3333" ry="8.3333" style="stroke:#5E5E5E;stroke-width:1.0416666666666667;" width="267.7083" x="644.2708" y="164.1195"/><ellipse cx="730.7292" cy="179.8136" fill="#0066CF" rx="10.4167" ry="10.4167" style="stroke:#0086EF;stroke-width:1.0416666666666667;"/><path d="M732.6396,184.2387 Q732.2123,184.4584 731.7424,184.5683 Q731.2724,184.6781 730.7536,184.6781 Q728.9103,184.6781 727.9399,183.4635 Q726.9694,182.2489 726.9694,179.954 Q726.9694,177.653 727.9399,176.4384 Q728.9103,175.2238 730.7536,175.2238 Q731.2724,175.2238 731.7485,175.3337 Q732.2245,175.4435 732.6396,175.6632 L732.6396,177.6652 Q732.1757,177.238 731.7393,177.0396 Q731.3029,176.8412 730.839,176.8412 Q729.8503,176.8412 729.3467,177.6255 Q728.8432,178.4098 728.8432,179.954 Q728.8432,181.4921 729.3467,182.2764 Q729.8503,183.0607 730.839,183.0607 Q731.3029,183.0607 731.7393,182.8623 Q732.1757,182.664 732.6396,182.2367 Z " fill="#000000"/><text fill="#D8BC00" font-family="Open Sans,Avenir,Nunito,Arial,Helvetica,SansSerif" font-size="12.5" font-weight="bold" lengthAdjust="spacing" textLength="80.2083" x="753.6458" y="184.5378">StatefulPage</text><line style="stroke:#5E5E5E;stroke-width:1.5625;" x1="645.3125" x2="910.9375" y1="195.5078" y2="195.5078"/><ellipse cx="655.7292" cy="230.8777" fill="#84BE84" rx="3.125" ry="3.125" style="stroke:#038048;stroke-width:1.0416666666666667;"/><text fill="#D8BC00" font-family="Open Sans,Avenir,Nunito,Arial,Helvetica,SansSerif" font-size="11.4583" lengthAdjust="spacing" textLength="76.0417" x="667.1875" y="237.7889">StatefulPage()</text><line style="stroke:#5E5E5E;stroke-width:1.0416666666666667;" x1="645.3125" x2="734.375" y1="213.7136" y2="213.7136"/><text fill="#D8BC00" font-family="Open Sans,Avenir,Nunito,Arial,Helvetica,SansSerif" font-size="11.4583" lengthAdjust="spacing" textLength="81.25" x="737.5" y="217.5232">(constructors)</text><line style="stroke:#5E5E5E;stroke-width:1.0416666666666667;" x1="821.875" x2="910.9375" y1="213.7136" y2="213.7136"/><ellipse cx="655.7292" cy="274.5341" fill="#84BE84" rx="3.125" ry="3.125" style="stroke:#038048;stroke-width:1.0416666666666667;"/><text fill="#D8BC00" font-family="Open Sans,Avenir,Nunito,Arial,Helvetica,SansSerif" font-size="11.4583" lengthAdjust="spacing" textLength="128.125" x="667.1875" y="281.4453">int getLinkClickCount()</text><ellipse cx="655.7292" cy="294.279" fill="#84BE84" rx="3.125" ry="3.125" style="stroke:#038048;stroke-width:1.0416666666666667;"/><text fill="#D8BC00" font-family="Open Sans,Avenir,Nunito,Arial,Helvetica,SansSerif" font-size="11.4583" lengthAdjust="spacing" textLength="235.4167" x="667.1875" y="301.1902">void setLinkClickCount(int linkClickCount)</text><line style="stroke:#5E5E5E;stroke-width:1.0416666666666667;" x1="645.3125" x2="743.75" y1="257.37" y2="257.37"/><text fill="#D8BC00" font-family="Open Sans,Avenir,Nunito,Arial,Helvetica,SansSerif" font-size="11.4583" lengthAdjust="spacing" textLength="62.5" x="746.875" y="261.1796">(collection)</text><line style="stroke:#5E5E5E;stroke-width:1.0416666666666667;" x1="812.5" x2="910.9375" y1="257.37" y2="257.37"/><!--MD5=[818b680dd029f5404dc253254408b9c3]
class WicketExampleApplication--><rect fill="#282828" height="48.055" id="WicketExampleApplication" rx="8.3333" ry="8.3333" style="stroke:#5E5E5E;stroke-width:1.0416666666666667;" width="208.3333" x="1604.1667" y="53.7028"/><rect fill="#1B1B1A" height="31.3883" rx="8.3333" ry="8.3333" style="stroke:#1B1B1A;stroke-width:1.0416666666666667;" width="208.3333" x="1604.1667" y="53.7028"/><rect fill="#1B1B1A" height="8.3333" style="stroke:#1B1B1A;stroke-width:1.0416666666666667;" width="208.3333" x="1604.1667" y="76.7578"/><rect fill="none" height="48.055" id="WicketExampleApplication" rx="8.3333" ry="8.3333" style="stroke:#5E5E5E;stroke-width:1.0416666666666667;" width="208.3333" x="1604.1667" y="53.7028"/><ellipse cx="1618.75" cy="69.397" fill="#0066CF" rx="10.4167" ry="10.4167" style="stroke:#0086EF;stroke-width:1.0416666666666667;"/><path d="M1620.6604,73.822 Q1620.2332,74.0417 1619.7632,74.1516 Q1619.2932,74.2615 1618.7744,74.2615 Q1616.9312,74.2615 1615.9607,73.0469 Q1614.9902,71.8323 1614.9902,69.5374 Q1614.9902,67.2363 1615.9607,66.0217 Q1616.9312,64.8071 1618.7744,64.8071 Q1619.2932,64.8071 1619.7693,64.917 Q1620.2454,65.0269 1620.6604,65.2466 L1620.6604,67.2485 Q1620.1965,66.8213 1619.7601,66.6229 Q1619.3237,66.4246 1618.8599,66.4246 Q1617.8711,66.4246 1617.3676,67.2089 Q1616.864,67.9932 1616.864,69.5374 Q1616.864,71.0754 1617.3676,71.8597 Q1617.8711,72.644 1618.8599,72.644 Q1619.3237,72.644 1619.7601,72.4457 Q1620.1965,72.2473 1620.6604,71.8201 Z " fill="#000000"/><text fill="#D8BC00" font-family="Open Sans,Avenir,Nunito,Arial,Helvetica,SansSerif" font-size="12.5" font-weight="bold" lengthAdjust="spacing" textLength="170.8333" x="1635.4167" y="74.1211">WicketExampleApplication</text><line style="stroke:#5E5E5E;stroke-width:1.0416666666666667;" x1="1605.2083" x2="1811.4583" y1="85.0911" y2="85.0911"/><line style="stroke:#5E5E5E;stroke-width:1.0416666666666667;" x1="1605.2083" x2="1811.4583" y1="93.4245" y2="93.4245"/><!--MD5=[2b2a37ad2181efa7994436a648dbeaa0]
class StatelessApplication--><rect codeLine="40" fill="#282828" height="48.055" id="StatelessApplication" rx="8.3333" ry="8.3333" style="stroke:#5E5E5E;stroke-width:1.0416666666666667;" width="169.7917" x="1623.4375" y="213.5986"/><rect fill="#1B1B1A" height="31.3883" rx="8.3333" ry="8.3333" style="stroke:#1B1B1A;stroke-width:1.0416666666666667;" width="169.7917" x="1623.4375" y="213.5986"/><rect fill="#1B1B1A" height="8.3333" style="stroke:#1B1B1A;stroke-width:1.0416666666666667;" width="169.7917" x="1623.4375" y="236.6536"/><rect codeLine="40" fill="none" height="48.055" id="StatelessApplication" rx="8.3333" ry="8.3333" style="stroke:#5E5E5E;stroke-width:1.0416666666666667;" width="169.7917" x="1623.4375" y="213.5986"/><ellipse cx="1638.0208" cy="229.2928" fill="#0066CF" rx="10.4167" ry="10.4167" style="stroke:#0086EF;stroke-width:1.0416666666666667;"/><path d="M1639.9312,233.7179 Q1639.504,233.9376 1639.034,234.0474 Q1638.564,234.1573 1638.0452,234.1573 Q1636.202,234.1573 1635.2315,232.9427 Q1634.2611,231.7281 1634.2611,229.4332 Q1634.2611,227.1322 1635.2315,225.9176 Q1636.202,224.703 1638.0452,224.703 Q1638.564,224.703 1639.0401,224.8128 Q1639.5162,224.9227 1639.9312,225.1424 L1639.9312,227.1444 Q1639.4674,226.7171 1639.031,226.5188 Q1638.5946,226.3204 1638.1307,226.3204 Q1637.1419,226.3204 1636.6384,227.1047 Q1636.1348,227.889 1636.1348,229.4332 Q1636.1348,230.9713 1636.6384,231.7556 Q1637.1419,232.5399 1638.1307,232.5399 Q1638.5946,232.5399 1639.031,232.3415 Q1639.4674,232.1431 1639.9312,231.7159 Z " fill="#000000"/><text fill="#D8BC00" font-family="Open Sans,Avenir,Nunito,Arial,Helvetica,SansSerif" font-size="12.5" font-weight="bold" lengthAdjust="spacing" textLength="132.2917" x="1654.6875" y="234.0169">StatelessApplication</text><line style="stroke:#5E5E5E;stroke-width:1.0416666666666667;" x1="1624.4792" x2="1792.1875" y1="244.987" y2="244.987"/><line style="stroke:#5E5E5E;stroke-width:1.0416666666666667;" x1="1624.4792" x2="1792.1875" y1="253.3203" y2="253.3203"/><!--MD5=[871be08f36999c29e5d31b5e7a9870e2]
class StatelessPage--><rect codeLine="45" fill="#282828" height="83.3781" id="StatelessPage" rx="8.3333" ry="8.3333" style="stroke:#5E5E5E;stroke-width:1.0416666666666667;" width="126.0417" x="948.4375" y="195.8903"/><rect fill="#1B1B1A" height="31.3883" rx="8.3333" ry="8.3333" style="stroke:#1B1B1A;stroke-width:1.0416666666666667;" width="126.0417" x="948.4375" y="195.8903"/><rect fill="#1B1B1A" height="8.3333" style="stroke:#1B1B1A;stroke-width:1.0416666666666667;" width="126.0417" x="948.4375" y="218.9453"/><rect codeLine="45" fill="none" height="83.3781" id="StatelessPage" rx="8.3333" ry="8.3333" style="stroke:#5E5E5E;stroke-width:1.0416666666666667;" width="126.0417" x="948.4375" y="195.8903"/><ellipse cx="963.0208" cy="211.5845" fill="#0066CF" rx="10.4167" ry="10.4167" style="stroke:#0086EF;stroke-width:1.0416666666666667;"/><path d="M964.9312,216.0095 Q964.504,216.2292 964.034,216.3391 Q963.564,216.449 963.0452,216.449 Q961.202,216.449 960.2315,215.2344 Q959.2611,214.0198 959.2611,211.7249 Q959.2611,209.4238 960.2315,208.2092 Q961.202,206.9946 963.0452,206.9946 Q963.564,206.9946 964.0401,207.1045 Q964.5162,207.2144 964.9312,207.4341 L964.9312,209.436 Q964.4674,209.0088 964.031,208.8104 Q963.5946,208.6121 963.1307,208.6121 Q962.1419,208.6121 961.6384,209.3964 Q961.1348,210.1807 961.1348,211.7249 Q961.1348,213.2629 961.6384,214.0472 Q962.1419,214.8315 963.1307,214.8315 Q963.5946,214.8315 964.031,214.6332 Q964.4674,214.4348 964.9312,214.0076 Z " fill="#000000"/><text fill="#D8BC00" font-family="Open Sans,Avenir,Nunito,Arial,Helvetica,SansSerif" font-size="12.5" font-weight="bold" lengthAdjust="spacing" textLength="88.5417" x="979.6875" y="216.3086">StatelessPage</text><line style="stroke:#5E5E5E;stroke-width:1.5625;" x1="949.4792" x2="1073.4375" y1="227.2786" y2="227.2786"/><ellipse cx="959.8958" cy="262.6485" fill="#84BE84" rx="3.125" ry="3.125" style="stroke:#038048;stroke-width:1.0416666666666667;"/><text fill="#D8BC00" font-family="Open Sans,Avenir,Nunito,Arial,Helvetica,SansSerif" font-size="11.4583" lengthAdjust="spacing" textLength="83.3333" x="971.3542" y="269.5597">StatelessPage()</text><line style="stroke:#5E5E5E;stroke-width:1.0416666666666667;" x1="949.4792" x2="967.7083" y1="245.4844" y2="245.4844"/><text fill="#D8BC00" font-family="Open Sans,Avenir,Nunito,Arial,Helvetica,SansSerif" font-size="11.4583" lengthAdjust="spacing" textLength="81.25" x="970.8333" y="249.294">(constructors)</text><line style="stroke:#5E5E5E;stroke-width:1.0416666666666667;" x1="1055.2083" x2="1073.4375" y1="245.4844" y2="245.4844"/><!--MD5=[1844e4f73d841e98f94fa3bffc14c978]
class StatelessPage1--><rect codeLine="52" fill="#282828" height="83.3781" id="StatelessPage1" rx="8.3333" ry="8.3333" style="stroke:#5E5E5E;stroke-width:1.0416666666666667;" width="134.375" x="1110.9375" y="195.8903"/><rect fill="#1B1B1A" height="31.3883" rx="8.3333" ry="8.3333" style="stroke:#1B1B1A;stroke-width:1.0416666666666667;" width="134.375" x="1110.9375" y="195.8903"/><rect fill="#1B1B1A" height="8.3333" style="stroke:#1B1B1A;stroke-width:1.0416666666666667;" width="134.375" x="1110.9375" y="218.9453"/><rect codeLine="52" fill="none" height="83.3781" id="StatelessPage1" rx="8.3333" ry="8.3333" style="stroke:#5E5E5E;stroke-width:1.0416666666666667;" width="134.375" x="1110.9375" y="195.8903"/><ellipse cx="1125.5208" cy="211.5845" fill="#0066CF" rx="10.4167" ry="10.4167" style="stroke:#0086EF;stroke-width:1.0416666666666667;"/><path d="M1127.4312,216.0095 Q1127.004,216.2292 1126.534,216.3391 Q1126.064,216.449 1125.5452,216.449 Q1123.702,216.449 1122.7315,215.2344 Q1121.7611,214.0198 1121.7611,211.7249 Q1121.7611,209.4238 1122.7315,208.2092 Q1123.702,206.9946 1125.5452,206.9946 Q1126.064,206.9946 1126.5401,207.1045 Q1127.0162,207.2144 1127.4312,207.4341 L1127.4312,209.436 Q1126.9674,209.0088 1126.531,208.8104 Q1126.0946,208.6121 1125.6307,208.6121 Q1124.6419,208.6121 1124.1384,209.3964 Q1123.6348,210.1807 1123.6348,211.7249 Q1123.6348,213.2629 1124.1384,214.0472 Q1124.6419,214.8315 1125.6307,214.8315 Q1126.0946,214.8315 1126.531,214.6332 Q1126.9674,214.4348 1127.4312,214.0076 Z " fill="#000000"/><text fill="#D8BC00" font-family="Open Sans,Avenir,Nunito,Arial,Helvetica,SansSerif" font-size="12.5" font-weight="bold" lengthAdjust="spacing" textLength="96.875" x="1142.1875" y="216.3086">StatelessPage1</text><line style="stroke:#5E5E5E;stroke-width:1.5625;" x1="1111.9792" x2="1244.2708" y1="227.2786" y2="227.2786"/><ellipse cx="1122.3958" cy="262.6485" fill="#84BE84" rx="3.125" ry="3.125" style="stroke:#038048;stroke-width:1.0416666666666667;"/><text fill="#D8BC00" font-family="Open Sans,Avenir,Nunito,Arial,Helvetica,SansSerif" font-size="11.4583" lengthAdjust="spacing" textLength="90.625" x="1133.8542" y="269.5597">StatelessPage1()</text><line style="stroke:#5E5E5E;stroke-width:1.0416666666666667;" x1="1111.9792" x2="1134.375" y1="245.4844" y2="245.4844"/><text fill="#D8BC00" font-family="Open Sans,Avenir,Nunito,Arial,Helvetica,SansSerif" font-size="11.4583" lengthAdjust="spacing" textLength="81.25" x="1137.5" y="249.294">(constructors)</text><line style="stroke:#5E5E5E;stroke-width:1.0416666666666667;" x1="1221.875" x2="1244.2708" y1="245.4844" y2="245.4844"/><!--MD5=[b0bee4ab65b746b8e74a9aece20728be]
class StatelessPage2--><rect codeLine="59" fill="#282828" height="83.3781" id="StatelessPage2" rx="8.3333" ry="8.3333" style="stroke:#5E5E5E;stroke-width:1.0416666666666667;" width="134.375" x="1281.7708" y="195.8903"/><rect fill="#1B1B1A" height="31.3883" rx="8.3333" ry="8.3333" style="stroke:#1B1B1A;stroke-width:1.0416666666666667;" width="134.375" x="1281.7708" y="195.8903"/><rect fill="#1B1B1A" height="8.3333" style="stroke:#1B1B1A;stroke-width:1.0416666666666667;" width="134.375" x="1281.7708" y="218.9453"/><rect codeLine="59" fill="none" height="83.3781" id="StatelessPage2" rx="8.3333" ry="8.3333" style="stroke:#5E5E5E;stroke-width:1.0416666666666667;" width="134.375" x="1281.7708" y="195.8903"/><ellipse cx="1296.3542" cy="211.5845" fill="#0066CF" rx="10.4167" ry="10.4167" style="stroke:#0086EF;stroke-width:1.0416666666666667;"/><path d="M1298.2646,216.0095 Q1297.8373,216.2292 1297.3674,216.3391 Q1296.8974,216.449 1296.3786,216.449 Q1294.5353,216.449 1293.5649,215.2344 Q1292.5944,214.0198 1292.5944,211.7249 Q1292.5944,209.4238 1293.5649,208.2092 Q1294.5353,206.9946 1296.3786,206.9946 Q1296.8974,206.9946 1297.3735,207.1045 Q1297.8495,207.2144 1298.2646,207.4341 L1298.2646,209.436 Q1297.8007,209.0088 1297.3643,208.8104 Q1296.9279,208.6121 1296.464,208.6121 Q1295.4753,208.6121 1294.9717,209.3964 Q1294.4682,210.1807 1294.4682,211.7249 Q1294.4682,213.2629 1294.9717,214.0472 Q1295.4753,214.8315 1296.464,214.8315 Q1296.9279,214.8315 1297.3643,214.6332 Q1297.8007,214.4348 1298.2646,214.0076 Z " fill="#000000"/><text fill="#D8BC00" font-family="Open Sans,Avenir,Nunito,Arial,Helvetica,SansSerif" font-size="12.5" font-weight="bold" lengthAdjust="spacing" textLength="96.875" x="1313.0208" y="216.3086">StatelessPage2</text><line style="stroke:#5E5E5E;stroke-width:1.5625;" x1="1282.8125" x2="1415.1042" y1="227.2786" y2="227.2786"/><ellipse cx="1293.2292" cy="262.6485" fill="#84BE84" rx="3.125" ry="3.125" style="stroke:#038048;stroke-width:1.0416666666666667;"/><text fill="#D8BC00" font-family="Open Sans,Avenir,Nunito,Arial,Helvetica,SansSerif" font-size="11.4583" lengthAdjust="spacing" textLength="90.625" x="1304.6875" y="269.5597">StatelessPage2()</text><line style="stroke:#5E5E5E;stroke-width:1.0416666666666667;" x1="1282.8125" x2="1305.2083" y1="245.4844" y2="245.4844"/><text fill="#D8BC00" font-family="Open Sans,Avenir,Nunito,Arial,Helvetica,SansSerif" font-size="11.4583" lengthAdjust="spacing" textLength="81.25" x="1308.3333" y="249.294">(constructors)</text><line style="stroke:#5E5E5E;stroke-width:1.0416666666666667;" x1="1392.7083" x2="1415.1042" y1="245.4844" y2="245.4844"/><!--MD5=[2a262623718bee56628cd849d413c1f2]
class StatelessPage3--><rect codeLine="66" fill="#282828" height="83.3781" id="StatelessPage3" rx="8.3333" ry="8.3333" style="stroke:#5E5E5E;stroke-width:1.0416666666666667;" width="134.375" x="1452.6042" y="195.8903"/><rect fill="#1B1B1A" height="31.3883" rx="8.3333" ry="8.3333" style="stroke:#1B1B1A;stroke-width:1.0416666666666667;" width="134.375" x="1452.6042" y="195.8903"/><rect fill="#1B1B1A" height="8.3333" style="stroke:#1B1B1A;stroke-width:1.0416666666666667;" width="134.375" x="1452.6042" y="218.9453"/><rect codeLine="66" fill="none" height="83.3781" id="StatelessPage3" rx="8.3333" ry="8.3333" style="stroke:#5E5E5E;stroke-width:1.0416666666666667;" width="134.375" x="1452.6042" y="195.8903"/><ellipse cx="1467.1875" cy="211.5845" fill="#0066CF" rx="10.4167" ry="10.4167" style="stroke:#0086EF;stroke-width:1.0416666666666667;"/><path d="M1469.0979,216.0095 Q1468.6707,216.2292 1468.2007,216.3391 Q1467.7307,216.449 1467.2119,216.449 Q1465.3687,216.449 1464.3982,215.2344 Q1463.4277,214.0198 1463.4277,211.7249 Q1463.4277,209.4238 1464.3982,208.2092 Q1465.3687,206.9946 1467.2119,206.9946 Q1467.7307,206.9946 1468.2068,207.1045 Q1468.6829,207.2144 1469.0979,207.4341 L1469.0979,209.436 Q1468.634,209.0088 1468.1976,208.8104 Q1467.7612,208.6121 1467.2974,208.6121 Q1466.3086,208.6121 1465.8051,209.3964 Q1465.3015,210.1807 1465.3015,211.7249 Q1465.3015,213.2629 1465.8051,214.0472 Q1466.3086,214.8315 1467.2974,214.8315 Q1467.7612,214.8315 1468.1976,214.6332 Q1468.634,214.4348 1469.0979,214.0076 Z " fill="#000000"/><text fill="#D8BC00" font-family="Open Sans,Avenir,Nunito,Arial,Helvetica,SansSerif" font-size="12.5" font-weight="bold" lengthAdjust="spacing" textLength="96.875" x="1483.8542" y="216.3086">StatelessPage3</text><line style="stroke:#5E5E5E;stroke-width:1.5625;" x1="1453.6458" x2="1585.9375" y1="227.2786" y2="227.2786"/><ellipse cx="1464.0625" cy="262.6485" fill="#84BE84" rx="3.125" ry="3.125" style="stroke:#038048;stroke-width:1.0416666666666667;"/><text fill="#D8BC00" font-family="Open Sans,Avenir,Nunito,Arial,Helvetica,SansSerif" font-size="11.4583" lengthAdjust="spacing" textLength="90.625" x="1475.5208" y="269.5597">StatelessPage3()</text><line style="stroke:#5E5E5E;stroke-width:1.0416666666666667;" x1="1453.6458" x2="1476.0417" y1="245.4844" y2="245.4844"/><text fill="#D8BC00" font-family="Open Sans,Avenir,Nunito,Arial,Helvetica,SansSerif" font-size="11.4583" lengthAdjust="spacing" textLength="81.25" x="1479.1667" y="249.294">(constructors)</text><line style="stroke:#5E5E5E;stroke-width:1.0416666666666667;" x1="1563.5417" x2="1585.9375" y1="245.4844" y2="245.4844"/><!--MD5=[4f471b4b2b5c48d1a069642b70bec72d]
reverse link WicketExamplePage to AjaxStatelessExample--><path codeLine="8" d="M907.8229,88.3695 C801.9375,99.9632 633.5313,123.1507 492.7083,164.1195 C475.7813,169.0465 458.2917,175.1924 441.2708,181.8174 " fill="none" id="WicketExamplePage-backto-AjaxStatelessExample" style="stroke:#545454;stroke-width:1.5625;"/><polygon fill="none" points="907.3021,81.0986,928.7917,86.1403,908.8438,95.5986,907.3021,81.0986" style="stroke:#545454;stroke-width:1.5625;"/><!--MD5=[c91da0eefb8de17b5450c128c5c2e461]
reverse link WicketExamplePage to Index--><path codeLine="17" d="M907.8542,84.734 C826.5729,93.3174 713.0104,114.057 626.0417,164.1195 C612.125,172.1299 599.4375,184.0257 588.9583,195.859 " fill="none" id="WicketExamplePage-backto-Index" style="stroke:#545454;stroke-width:1.5625;"/><polygon fill="none" points="907.3958,77.4528,928.8333,82.7132,908.8021,91.9736,907.3958,77.4528" style="stroke:#545454;stroke-width:1.5625;"/><!--MD5=[f11d3bb0e190550f56cb11160badf5d6]
reverse link IModel to SessionModel--><path codeLine="24" d="M70.8333,122.682 C70.8333,152.1715 70.8333,189.807 70.8333,213.5361 " fill="none" id="IModel-backto-SessionModel" style="stroke:#545454;stroke-width:1.5625;"/><polygon fill="none" points="63.5417,122.484,70.8333,101.6507,78.125,122.484,63.5417,122.484" style="stroke:#545454;stroke-width:1.5625;"/><!--MD5=[39037eed7333490761e0c2d28b239a80]
reverse link WicketExamplePage to StatefulPage--><path codeLine="29" d="M960.2083,113.3695 C938.1667,128.2757 911.5104,146.307 885.4792,163.9111 " fill="none" id="WicketExamplePage-backto-StatefulPage" style="stroke:#545454;stroke-width:1.5625;"/><polygon fill="none" points="956.1875,107.2861,977.5313,101.6507,964.3542,119.359,956.1875,107.2861" style="stroke:#545454;stroke-width:1.5625;"/><!--MD5=[91947e0753aea1d649b7f9bf429f5662]
reverse link WicketExampleApplication to StatelessApplication--><path codeLine="39" d="M1708.3333,122.682 C1708.3333,152.1715 1708.3333,189.807 1708.3333,213.5361 " fill="none" id="WicketExampleApplication-backto-StatelessApplication" style="stroke:#545454;stroke-width:1.5625;"/><polygon fill="none" points="1701.0417,122.484,1708.3333,101.6507,1715.625,122.484,1701.0417,122.484" style="stroke:#545454;stroke-width:1.5625;"/><!--MD5=[2868bd4bb928c8e98f38dc2fc224e544]
reverse link WicketExamplePage to StatelessPage--><path codeLine="44" d="M1011.4583,122.5361 C1011.4583,145.4632 1011.4583,173.3486 1011.4583,195.7965 " fill="none" id="WicketExamplePage-backto-StatelessPage" style="stroke:#545454;stroke-width:1.5625;"/><polygon fill="none" points="1004.1667,122.484,1011.4583,101.6507,1018.75,122.484,1004.1667,122.484" style="stroke:#545454;stroke-width:1.5625;"/><!--MD5=[c36880118d311bd7b843828b9a941824]
reverse link WicketExamplePage to StatelessPage1--><path codeLine="51" d="M1051.0938,116.234 C1076.3958,140.1924 1109.1875,171.2445 1135.125,195.7965 " fill="none" id="WicketExamplePage-backto-StatelessPage1" style="stroke:#545454;stroke-width:1.5625;"/><polygon fill="none" points="1045.8125,121.2653,1035.6979,101.6507,1055.8333,110.682,1045.8125,121.2653" style="stroke:#545454;stroke-width:1.5625;"/><!--MD5=[65f1069b0ca87c4a79aa2cea48c9ebbf]
reverse link WicketExamplePage to StatelessPage2--><path codeLine="58" d="M1113.9792,103.9111 C1161.2813,117.9007 1217.1042,137.8486 1263.5417,164.1195 C1278.7708,172.734 1293.8438,184.2445 1307,195.5361 " fill="none" id="WicketExamplePage-backto-StatelessPage2" style="stroke:#545454;stroke-width:1.5625;"/><polygon fill="none" points="1111.9688,110.9215,1093.9375,98.1924,1115.9688,96.9007,1111.9688,110.9215" style="stroke:#545454;stroke-width:1.5625;"/><!--MD5=[8dd280e6658a1855e715f8dba46af745]
reverse link WicketExamplePage to StatelessPage3--><path codeLine="65" d="M1114.8021,85.0986 C1203.3854,93.8903 1332.4479,114.734 1434.375,164.1195 C1450.8229,172.0882 1466.7083,183.9632 1480.2188,195.807 " fill="none" id="WicketExamplePage-backto-StatelessPage3" style="stroke:#545454;stroke-width:1.5625;"/><polygon fill="none" points="1114.1146,92.359,1094.0313,83.182,1115.4479,77.8382,1114.1146,92.359" style="stroke:#545454;stroke-width:1.5625;"/><!--MD5=[37f41e35833d3b0ae24a03a4c8a8641b]
@startuml

    !include lexakai.theme
    
    title "org.apache.wicket.examples.stateless"
    
    interface IModel
    
    WicketExamplePage <|- - AjaxStatelessExample
    class AjaxStatelessExample
    {
        - -(constructors)- -
        +AjaxStatelessExample(PageParameters)
        - -
        #void updateParams(PageParameters, int counter)
    }
    
    WicketExamplePage <|- - Index
    class Index
    {
        - -(constructors)- -
        +Index()
    }
    
    IModel <|- - SessionModel
    class SessionModel
    {
    }
    
    WicketExamplePage <|- - StatefulPage
    class StatefulPage
    {
        - -(constructors)- -
        +StatefulPage()
        - -(collection)- -
        +int getLinkClickCount()
        +void setLinkClickCount(int linkClickCount)
    }
    
    WicketExampleApplication <|- - StatelessApplication
    class StatelessApplication
    {
    }
    
    WicketExamplePage <|- - StatelessPage
    class StatelessPage
    {
        - -(constructors)- -
        +StatelessPage()
    }
    
    WicketExamplePage <|- - StatelessPage1
    class StatelessPage1
    {
        - -(constructors)- -
        +StatelessPage1()
    }
    
    WicketExamplePage <|- - StatelessPage2
    class StatelessPage2
    {
        - -(constructors)- -
        +StatelessPage2()
    }
    
    WicketExamplePage <|- - StatelessPage3
    class StatelessPage3
    {
        - -(constructors)- -
        +StatelessPage3()
    }
    
@enduml

@startuml









skinparam backgroundColor #333333






skinparam  {
    defaultFontName   "Open Sans,Avenir,Nunito,Arial,Helvetica,SansSerif"
    defaultFontSize   12
    defaultTextAlignment left
    shadowing false
    RoundCorner 10
    TitleFontSize 18
}

skinparam defaultFontName       "Open Sans,Avenir,Nunito,Arial,Helvetica,SansSerif"
skinparam defaultFontSize       12
skinparam dpi                   100
skinparam shadowing             false
skinparam roundcorner           16
skinparam ParticipantPadding    40
skinparam BoxPadding            40
skinparam Padding               3
skinparam ArrowColor            #545454
skinparam stereotype {
    CBackgroundColor #0066cf
    CBorderColor #0086ef
    ABackgroundColor #C8Ac00
    ABorderColor #D8Bc00
    IBackgroundColor #008400
    IBorderColor #239c23
    EBackgroundColor #cf6300
    EBorderColor #ef8300
    NBackgroundColor #3380b9
    NBorderColor #004d86
}
skinparam title {
	FontColor	                 #c0c0c0
 	BorderColor                  #545454
	FontSize	    	         20
	BorderRoundCorner            16
	BorderThickness 	         1
	BackgroundColor              #48494b
}


skinparam legend {
	BackgroundColor #303030
	BorderColor #404040
	FontColor #a0a0a0
}

	skinparam swimlane {
	BorderColor #5e5e5e
	BorderThickness 2
	TitleBackgroundColor  #6d6d6d-#484848
	TitleFontColor #303030
}

skinparam activity {
		FontColor #C8Ac00
	BorderColor #333333
	BackgroundColor #333333-#333333
	BarColor #00FF00
	StartColor #0060a8
	EndColor #0060a8
	DiamondBackgroundColor #6d6d6d-#3a3a3a
  	DiamondBorderColor #3a3a3a
  	DiamondFontColor #fefefe
}


skinparam participant {
		FontColor #C8Ac00
	BorderColor #333333
	BackgroundColor #333333-#333333
	ParticipantBorderThickness 2
}


skinparam actor {
		FontColor #C8Ac00
	BorderColor #333333
	BackgroundColor #333333-#333333
}


skinparam arrow {
	Thickness 1.5
	Color #545454
	FontColor #a0a0a0
    FontStyle bold
    MessageAlignment center
}



skinparam sequence {
	BorderColor #303030
	TitleFontColor #303030
	BackgroundColor #333333
	StartColor #303030
	EndColor #303030
	BoxBackgroundColor #333333
	BoxBorderColor #484848
	BoxFontColor #484848
	LifeLineBorderColor #484848
	LifeLineBorderThickness 2
	LifeLineBackgroundColor #3a3a3a
	GroupBorderColor #484848
	GroupFontColor #484848
	GroupHeaderFontColor #0060a8
	GroupBackgroundColor #484848
	GroupHeaderBackgroundColor #333333
	DividerBackgroundColor #484848
    DividerBorderColor #484848
    DividerBorderThickness 2
    DividerFontColor #D8Bc00
	ReferenceBackgroundColor #333333
	ReferenceBorderColor #484848
	ReferenceFontColor #fefefe
	ReferenceHeaderBackgroundColor #484848
}


skinparam partition {
	BorderColor #303030
	FontColor #333333
	BackgroundColor #333333
}


skinparam collections {
		FontColor #C8Ac00
	BorderColor #333333
	BackgroundColor #333333-#333333
}


skinparam control {
		FontColor #C8Ac00
	BorderColor #333333
	BackgroundColor #333333-#333333
}


skinparam entity {
		FontColor #C8Ac00
	BorderColor #333333
	BackgroundColor #333333-#333333
}


skinparam boundary {
		FontColor #C8Ac00
	BorderColor #333333
	BackgroundColor #333333-#333333
}


skinparam agent {
	BackgroundColor #ff8000
	BorderColor #ff9933
	FontColor #484848
}


skinparam note {
	BorderThickness 1
	BackgroundColor #1b1b1a
	BorderColor #5e5e5e
	FontSize 11
	FontColor #a0a0a0
}


skinparam artifact {
	BorderThickness 10
	BorderColor #5e5e5e
	BackgroundColor #1b1b1a
	FontColor #D8Bc00
}


skinparam component {
		FontColor #C8Ac00
	BorderColor #333333
	BackgroundColor #333333-#333333
}


skinparam interface {
	BackgroundColor  #008400
	BorderColor  #007F00
	FontColor #484848
}


skinparam storage {
	BackgroundColor #ff8000
  	BorderColor #cc6600
	FontColor #222222
}


skinparam node {
	BackgroundColor #333333
	BorderColor #333333
	FontColor #C8Ac00
}


skinparam cloud {
	BackgroundColor #484848-black
	BorderColor #484848
	FontColor #D8Bc00
}


skinparam database {
		FontColor #C8Ac00
	BorderColor #333333
	BackgroundColor #333333-#333333
	BackgroundColor  #333333
}


skinparam class {
		FontColor #C8Ac00
	BorderColor #333333
	BackgroundColor #333333-#333333
	HeaderBackgroundColor #1b1b1a
    BackgroundColor #282828
    BorderColor #5e5e5e
 	StereotypeFontColor #a0a0a0
    StereotypeFontStyle bold
	BorderThickness 1
	AttributeFontColor #D8Bc00
	AttributeFontSize 11
    FontColor #D8Bc00
    FontStyle bold
}


skinparam object {
		FontColor #C8Ac00
	BorderColor #333333
	BackgroundColor #333333-#333333
	StereotypeFontColor #484848
	BorderThickness 1
	AttributeFontColor #fefefe
	AttributeFontSize 11
}


skinparam usecase {
		FontColor #C8Ac00
	BorderColor #333333
	BackgroundColor #333333-#333333
	BorderThickness 2
	StereotypeFontColor #303030
}


skinparam rectangle {
		FontColor #C8Ac00
	BorderColor #333333
	BackgroundColor #333333-#333333
	BackgroundColor #333333
	BorderThickness 2
	StereotypeFontColor #303030
}


skinparam package {
		FontColor #C8Ac00
	BorderColor #333333
	BackgroundColor #333333-#333333
	BackgroundColor #333333
	BorderThickness 2
}


skinparam folder {
	BackgroundColor #6d6d6d
  	BorderColor #ff8000
	FontColor #ff8000
	BorderThickness 2
}


skinparam frame {
	BackgroundColor #6d6d6d
  	BorderColor #0060a8
	FontColor #0060a8
	BorderThickness 2
}


skinparam state {
		FontColor #C8Ac00
	BorderColor #333333
	BackgroundColor #333333-#333333
	StartColor #0060a8
	EndColor #0060a8
	AttributeFontColor #fefefe
	AttributeFontSize 11
}


skinparam queue {
		FontColor #C8Ac00
	BorderColor #333333
	BackgroundColor #333333-#333333
}


skinparam card {
	BackgroundColor #0060a8
	BorderColor #004d86
	FontColor $INFO_TEXT
}


skinparam file {
	BackgroundColor #6d6d6d-#484848
	BorderColor #0060a8
	FontColor #fefefe
}


skinparam stack {
		FontColor #C8Ac00
	BorderColor #333333
	BackgroundColor #333333-#333333
}

    
    title "org.apache.wicket.examples.stateless"
    
    interface IModel
    
    WicketExamplePage <|- - AjaxStatelessExample
    class AjaxStatelessExample
    {
        - -(constructors)- -
        +AjaxStatelessExample(PageParameters)
        - -
        #void updateParams(PageParameters, int counter)
    }
    
    WicketExamplePage <|- - Index
    class Index
    {
        - -(constructors)- -
        +Index()
    }
    
    IModel <|- - SessionModel
    class SessionModel
    {
    }
    
    WicketExamplePage <|- - StatefulPage
    class StatefulPage
    {
        - -(constructors)- -
        +StatefulPage()
        - -(collection)- -
        +int getLinkClickCount()
        +void setLinkClickCount(int linkClickCount)
    }
    
    WicketExampleApplication <|- - StatelessApplication
    class StatelessApplication
    {
    }
    
    WicketExamplePage <|- - StatelessPage
    class StatelessPage
    {
        - -(constructors)- -
        +StatelessPage()
    }
    
    WicketExamplePage <|- - StatelessPage1
    class StatelessPage1
    {
        - -(constructors)- -
        +StatelessPage1()
    }
    
    WicketExamplePage <|- - StatelessPage2
    class StatelessPage2
    {
        - -(constructors)- -
        +StatelessPage2()
    }
    
    WicketExamplePage <|- - StatelessPage3
    class StatelessPage3
    {
        - -(constructors)- -
        +StatelessPage3()
    }
    
@enduml

PlantUML version 1.2021.01(Tue Feb 02 00:55:08 MST 2021)
(GPL source distribution)
Java Runtime: Java(TM) SE Runtime Environment
JVM: Java HotSpot(TM) 64-Bit Server VM
Default Encoding: UTF-8
Language: en
Country: US
--></g></svg>