<?xml version="1.0" encoding="UTF-8" standalone="no"?><svg xmlns="http://www.w3.org/2000/svg" xmlns:xlink="http://www.w3.org/1999/xlink" contentScriptType="application/ecmascript" contentStyleType="text/css" height="254.1667px" preserveAspectRatio="none" style="width:812px;height:254px;background:#333333;" version="1.1" viewBox="0 0 812 254" width="812.5px" zoomAndPan="magnify"><defs/><g><rect fill="#48494B" height="41.2028" rx="8.3333" ry="8.3333" style="stroke:#545454;stroke-width:1.0416666666666667;" width="414.5833" x="191.6667" y="2.0833"/><text fill="#C0C0C0" font-family="Open Sans,Avenir,Nunito,Arial,Helvetica,SansSerif" font-size="20.8333" lengthAdjust="spacing" textLength="391.6667" x="203.125" y="30.5583">org.apache.wicket.examples.navomatic</text><!--MD5=[818b680dd029f5404dc253254408b9c3]
class WicketExampleApplication--><rect fill="#282828" height="48.055" id="WicketExampleApplication" rx="8.3333" ry="8.3333" style="stroke:#5E5E5E;stroke-width:1.0416666666666667;" width="208.3333" x="7.2917" y="53.7028"/><rect fill="#1B1B1A" height="31.3883" rx="8.3333" ry="8.3333" style="stroke:#1B1B1A;stroke-width:1.0416666666666667;" width="208.3333" x="7.2917" y="53.7028"/><rect fill="#1B1B1A" height="8.3333" style="stroke:#1B1B1A;stroke-width:1.0416666666666667;" width="208.3333" x="7.2917" y="76.7578"/><rect fill="none" height="48.055" id="WicketExampleApplication" rx="8.3333" ry="8.3333" style="stroke:#5E5E5E;stroke-width:1.0416666666666667;" width="208.3333" x="7.2917" y="53.7028"/><ellipse cx="21.875" cy="69.397" fill="#0066CF" rx="10.4167" ry="10.4167" style="stroke:#0086EF;stroke-width:1.0416666666666667;"/><path d="M23.7854,73.822 Q23.3582,74.0417 22.8882,74.1516 Q22.4182,74.2615 21.8994,74.2615 Q20.0562,74.2615 19.0857,73.0469 Q18.1152,71.8323 18.1152,69.5374 Q18.1152,67.2363 19.0857,66.0217 Q20.0562,64.8071 21.8994,64.8071 Q22.4182,64.8071 22.8943,64.917 Q23.3704,65.0269 23.7854,65.2466 L23.7854,67.2485 Q23.3215,66.8213 22.8851,66.6229 Q22.4487,66.4246 21.9849,66.4246 Q20.9961,66.4246 20.4926,67.2089 Q19.989,67.9932 19.989,69.5374 Q19.989,71.0754 20.4926,71.8597 Q20.9961,72.644 21.9849,72.644 Q22.4487,72.644 22.8851,72.4457 Q23.3215,72.2473 23.7854,71.8201 Z " fill="#000000"/><text fill="#D8BC00" font-family="Open Sans,Avenir,Nunito,Arial,Helvetica,SansSerif" font-size="12.5" font-weight="bold" lengthAdjust="spacing" textLength="170.8333" x="38.5417" y="74.1211">WicketExampleApplication</text><line style="stroke:#5E5E5E;stroke-width:1.0416666666666667;" x1="8.3333" x2="214.5833" y1="85.0911" y2="85.0911"/><line style="stroke:#5E5E5E;stroke-width:1.0416666666666667;" x1="8.3333" x2="214.5833" y1="93.4245" y2="93.4245"/><!--MD5=[396733ee5c775f41e65088af16b1f81d]
class NavomaticApplication--><rect codeLine="7" fill="#282828" height="48.055" id="NavomaticApplication" rx="8.3333" ry="8.3333" style="stroke:#5E5E5E;stroke-width:1.0416666666666667;" width="179.1667" x="21.875" y="181.8278"/><rect fill="#1B1B1A" height="31.3883" rx="8.3333" ry="8.3333" style="stroke:#1B1B1A;stroke-width:1.0416666666666667;" width="179.1667" x="21.875" y="181.8278"/><rect fill="#1B1B1A" height="8.3333" style="stroke:#1B1B1A;stroke-width:1.0416666666666667;" width="179.1667" x="21.875" y="204.8828"/><rect codeLine="7" fill="none" height="48.055" id="NavomaticApplication" rx="8.3333" ry="8.3333" style="stroke:#5E5E5E;stroke-width:1.0416666666666667;" width="179.1667" x="21.875" y="181.8278"/><ellipse cx="36.4583" cy="197.522" fill="#0066CF" rx="10.4167" ry="10.4167" style="stroke:#0086EF;stroke-width:1.0416666666666667;"/><path d="M38.3687,201.947 Q37.9415,202.1667 37.4715,202.2766 Q37.0015,202.3865 36.4827,202.3865 Q34.6395,202.3865 33.669,201.1719 Q32.6986,199.9573 32.6986,197.6624 Q32.6986,195.3613 33.669,194.1467 Q34.6395,192.9321 36.4827,192.9321 Q37.0015,192.9321 37.4776,193.042 Q37.9537,193.1519 38.3687,193.3716 L38.3687,195.3735 Q37.9049,194.9463 37.4685,194.7479 Q37.0321,194.5496 36.5682,194.5496 Q35.5794,194.5496 35.0759,195.3339 Q34.5723,196.1182 34.5723,197.6624 Q34.5723,199.2004 35.0759,199.9847 Q35.5794,200.769 36.5682,200.769 Q37.0321,200.769 37.4685,200.5707 Q37.9049,200.3723 38.3687,199.9451 Z " fill="#000000"/><text fill="#D8BC00" font-family="Open Sans,Avenir,Nunito,Arial,Helvetica,SansSerif" font-size="12.5" font-weight="bold" lengthAdjust="spacing" textLength="141.6667" x="53.125" y="202.2461">NavomaticApplication</text><line style="stroke:#5E5E5E;stroke-width:1.0416666666666667;" x1="22.9167" x2="200" y1="213.2161" y2="213.2161"/><line style="stroke:#5E5E5E;stroke-width:1.0416666666666667;" x1="22.9167" x2="200" y1="221.5495" y2="221.5495"/><!--MD5=[a0336aaa8110b78d9cacadb9d45e00a3]
class Border--><rect fill="#282828" height="48.055" id="Border" rx="8.3333" ry="8.3333" style="stroke:#5E5E5E;stroke-width:1.0416666666666667;" width="80.2083" x="282.8125" y="53.7028"/><rect fill="#1B1B1A" height="31.3883" rx="8.3333" ry="8.3333" style="stroke:#1B1B1A;stroke-width:1.0416666666666667;" width="80.2083" x="282.8125" y="53.7028"/><rect fill="#1B1B1A" height="8.3333" style="stroke:#1B1B1A;stroke-width:1.0416666666666667;" width="80.2083" x="282.8125" y="76.7578"/><rect fill="none" height="48.055" id="Border" rx="8.3333" ry="8.3333" style="stroke:#5E5E5E;stroke-width:1.0416666666666667;" width="80.2083" x="282.8125" y="53.7028"/><ellipse cx="297.3958" cy="69.397" fill="#0066CF" rx="10.4167" ry="10.4167" style="stroke:#0086EF;stroke-width:1.0416666666666667;"/><path d="M299.3062,73.822 Q298.879,74.0417 298.409,74.1516 Q297.939,74.2615 297.4202,74.2615 Q295.577,74.2615 294.6065,73.0469 Q293.6361,71.8323 293.6361,69.5374 Q293.6361,67.2363 294.6065,66.0217 Q295.577,64.8071 297.4202,64.8071 Q297.939,64.8071 298.4151,64.917 Q298.8912,65.0269 299.3062,65.2466 L299.3062,67.2485 Q298.8424,66.8213 298.406,66.6229 Q297.9696,66.4246 297.5057,66.4246 Q296.5169,66.4246 296.0134,67.2089 Q295.5098,67.9932 295.5098,69.5374 Q295.5098,71.0754 296.0134,71.8597 Q296.5169,72.644 297.5057,72.644 Q297.9696,72.644 298.406,72.4457 Q298.8424,72.2473 299.3062,71.8201 Z " fill="#000000"/><text fill="#D8BC00" font-family="Open Sans,Avenir,Nunito,Arial,Helvetica,SansSerif" font-size="12.5" font-weight="bold" lengthAdjust="spacing" textLength="42.7083" x="314.0625" y="74.1211">Border</text><line style="stroke:#5E5E5E;stroke-width:1.0416666666666667;" x1="283.8542" x2="361.9792" y1="85.0911" y2="85.0911"/><line style="stroke:#5E5E5E;stroke-width:1.0416666666666667;" x1="283.8542" x2="361.9792" y1="93.4245" y2="93.4245"/><!--MD5=[4a239dd2d2aa3c3a84217e702241e646]
class NavomaticBorder--><rect codeLine="12" fill="#282828" height="83.3781" id="NavomaticBorder" rx="8.3333" ry="8.3333" style="stroke:#5E5E5E;stroke-width:1.0416666666666667;" width="169.7917" x="238.0208" y="164.1195"/><rect fill="#1B1B1A" height="31.3883" rx="8.3333" ry="8.3333" style="stroke:#1B1B1A;stroke-width:1.0416666666666667;" width="169.7917" x="238.0208" y="164.1195"/><rect fill="#1B1B1A" height="8.3333" style="stroke:#1B1B1A;stroke-width:1.0416666666666667;" width="169.7917" x="238.0208" y="187.1745"/><rect codeLine="12" fill="none" height="83.3781" id="NavomaticBorder" rx="8.3333" ry="8.3333" style="stroke:#5E5E5E;stroke-width:1.0416666666666667;" width="169.7917" x="238.0208" y="164.1195"/><ellipse cx="262.4479" cy="179.8136" fill="#0066CF" rx="10.4167" ry="10.4167" style="stroke:#0086EF;stroke-width:1.0416666666666667;"/><path d="M264.3583,184.2387 Q263.9311,184.4584 263.4611,184.5683 Q262.9911,184.6781 262.4723,184.6781 Q260.6291,184.6781 259.6586,183.4635 Q258.6882,182.2489 258.6882,179.954 Q258.6882,177.653 259.6586,176.4384 Q260.6291,175.2238 262.4723,175.2238 Q262.9911,175.2238 263.4672,175.3337 Q263.9433,175.4435 264.3583,175.6632 L264.3583,177.6652 Q263.8944,177.238 263.458,177.0396 Q263.0216,176.8412 262.5578,176.8412 Q261.569,176.8412 261.0655,177.6255 Q260.5619,178.4098 260.5619,179.954 Q260.5619,181.4921 261.0655,182.2764 Q261.569,183.0607 262.5578,183.0607 Q263.0216,183.0607 263.458,182.8623 Q263.8944,182.664 264.3583,182.2367 Z " fill="#000000"/><text fill="#D8BC00" font-family="Open Sans,Avenir,Nunito,Arial,Helvetica,SansSerif" font-size="12.5" font-weight="bold" lengthAdjust="spacing" textLength="110.4167" x="281.3021" y="184.5378">NavomaticBorder</text><line style="stroke:#5E5E5E;stroke-width:1.5625;" x1="239.0625" x2="406.7708" y1="195.5078" y2="195.5078"/><ellipse cx="249.4792" cy="230.8777" fill="#84BE84" rx="3.125" ry="3.125" style="stroke:#038048;stroke-width:1.0416666666666667;"/><text fill="#D8BC00" font-family="Open Sans,Avenir,Nunito,Arial,Helvetica,SansSerif" font-size="11.4583" lengthAdjust="spacing" textLength="137.5" x="260.9375" y="237.7889">NavomaticBorder(String)</text><line style="stroke:#5E5E5E;stroke-width:1.0416666666666667;" x1="239.0625" x2="279.1667" y1="213.7136" y2="213.7136"/><text fill="#D8BC00" font-family="Open Sans,Avenir,Nunito,Arial,Helvetica,SansSerif" font-size="11.4583" lengthAdjust="spacing" textLength="81.25" x="282.2917" y="217.5232">(constructors)</text><line style="stroke:#5E5E5E;stroke-width:1.0416666666666667;" x1="366.6667" x2="406.7708" y1="213.7136" y2="213.7136"/><!--MD5=[8de0e4c819f220f8e0c4c4df41ba59ce]
class WicketExamplePage--><rect fill="#282828" height="48.055" id="WicketExamplePage" rx="8.3333" ry="8.3333" style="stroke:#5E5E5E;stroke-width:1.0416666666666667;" width="164.5833" x="542.7083" y="53.7028"/><rect fill="#1B1B1A" height="31.3883" rx="8.3333" ry="8.3333" style="stroke:#1B1B1A;stroke-width:1.0416666666666667;" width="164.5833" x="542.7083" y="53.7028"/><rect fill="#1B1B1A" height="8.3333" style="stroke:#1B1B1A;stroke-width:1.0416666666666667;" width="164.5833" x="542.7083" y="76.7578"/><rect fill="none" height="48.055" id="WicketExamplePage" rx="8.3333" ry="8.3333" style="stroke:#5E5E5E;stroke-width:1.0416666666666667;" width="164.5833" x="542.7083" y="53.7028"/><ellipse cx="557.2917" cy="69.397" fill="#0066CF" rx="10.4167" ry="10.4167" style="stroke:#0086EF;stroke-width:1.0416666666666667;"/><path d="M559.2021,73.822 Q558.7748,74.0417 558.3049,74.1516 Q557.8349,74.2615 557.3161,74.2615 Q555.4728,74.2615 554.5024,73.0469 Q553.5319,71.8323 553.5319,69.5374 Q553.5319,67.2363 554.5024,66.0217 Q555.4728,64.8071 557.3161,64.8071 Q557.8349,64.8071 558.311,64.917 Q558.787,65.0269 559.2021,65.2466 L559.2021,67.2485 Q558.7382,66.8213 558.3018,66.6229 Q557.8654,66.4246 557.4015,66.4246 Q556.4128,66.4246 555.9092,67.2089 Q555.4057,67.9932 555.4057,69.5374 Q555.4057,71.0754 555.9092,71.8597 Q556.4128,72.644 557.4015,72.644 Q557.8654,72.644 558.3018,72.4457 Q558.7382,72.2473 559.2021,71.8201 Z " fill="#000000"/><text fill="#D8BC00" font-family="Open Sans,Avenir,Nunito,Arial,Helvetica,SansSerif" font-size="12.5" font-weight="bold" lengthAdjust="spacing" textLength="127.0833" x="573.9583" y="74.1211">WicketExamplePage</text><line style="stroke:#5E5E5E;stroke-width:1.0416666666666667;" x1="543.75" x2="706.25" y1="85.0911" y2="85.0911"/><line style="stroke:#5E5E5E;stroke-width:1.0416666666666667;" x1="543.75" x2="706.25" y1="93.4245" y2="93.4245"/><!--MD5=[06b688d0b738e4cac92d287870990ff7]
class Page1--><rect codeLine="19" fill="#282828" height="83.3781" id="Page1" rx="8.3333" ry="8.3333" style="stroke:#5E5E5E;stroke-width:1.0416666666666667;" width="95.8333" x="444.7917" y="164.1195"/><rect fill="#1B1B1A" height="31.3883" rx="8.3333" ry="8.3333" style="stroke:#1B1B1A;stroke-width:1.0416666666666667;" width="95.8333" x="444.7917" y="164.1195"/><rect fill="#1B1B1A" height="8.3333" style="stroke:#1B1B1A;stroke-width:1.0416666666666667;" width="95.8333" x="444.7917" y="187.1745"/><rect codeLine="19" fill="none" height="83.3781" id="Page1" rx="8.3333" ry="8.3333" style="stroke:#5E5E5E;stroke-width:1.0416666666666667;" width="95.8333" x="444.7917" y="164.1195"/><ellipse cx="468.2813" cy="179.8136" fill="#0066CF" rx="10.4167" ry="10.4167" style="stroke:#0086EF;stroke-width:1.0416666666666667;"/><path d="M470.1917,184.2387 Q469.7644,184.4584 469.2944,184.5683 Q468.8245,184.6781 468.3057,184.6781 Q466.4624,184.6781 465.4919,183.4635 Q464.5215,182.2489 464.5215,179.954 Q464.5215,177.653 465.4919,176.4384 Q466.4624,175.2238 468.3057,175.2238 Q468.8245,175.2238 469.3005,175.3337 Q469.7766,175.4435 470.1917,175.6632 L470.1917,177.6652 Q469.7278,177.238 469.2914,177.0396 Q468.855,176.8412 468.3911,176.8412 Q467.4023,176.8412 466.8988,177.6255 Q466.3953,178.4098 466.3953,179.954 Q466.3953,181.4921 466.8988,182.2764 Q467.4023,183.0607 468.3911,183.0607 Q468.855,183.0607 469.2914,182.8623 Q469.7278,182.664 470.1917,182.2367 Z " fill="#000000"/><text fill="#D8BC00" font-family="Open Sans,Avenir,Nunito,Arial,Helvetica,SansSerif" font-size="12.5" font-weight="bold" lengthAdjust="spacing" textLength="38.5417" x="486.9271" y="184.5378">Page1</text><line style="stroke:#5E5E5E;stroke-width:1.5625;" x1="445.8333" x2="539.5833" y1="195.5078" y2="195.5078"/><ellipse cx="456.25" cy="230.8777" fill="#84BE84" rx="3.125" ry="3.125" style="stroke:#038048;stroke-width:1.0416666666666667;"/><text fill="#D8BC00" font-family="Open Sans,Avenir,Nunito,Arial,Helvetica,SansSerif" font-size="11.4583" lengthAdjust="spacing" textLength="41.6667" x="467.7083" y="237.7889">Page1()</text><line style="stroke:#5E5E5E;stroke-width:1.0416666666666667;" x1="445.8333" x2="448.9583" y1="213.7136" y2="213.7136"/><text fill="#D8BC00" font-family="Open Sans,Avenir,Nunito,Arial,Helvetica,SansSerif" font-size="11.4583" lengthAdjust="spacing" textLength="81.25" x="452.0833" y="217.5232">(constructors)</text><line style="stroke:#5E5E5E;stroke-width:1.0416666666666667;" x1="536.4583" x2="539.5833" y1="213.7136" y2="213.7136"/><!--MD5=[60836b88cd0974e36522c374daade8cb]
class Page2--><rect codeLine="26" fill="#282828" height="83.3781" id="Page2" rx="8.3333" ry="8.3333" style="stroke:#5E5E5E;stroke-width:1.0416666666666667;" width="95.8333" x="577.0833" y="164.1195"/><rect fill="#1B1B1A" height="31.3883" rx="8.3333" ry="8.3333" style="stroke:#1B1B1A;stroke-width:1.0416666666666667;" width="95.8333" x="577.0833" y="164.1195"/><rect fill="#1B1B1A" height="8.3333" style="stroke:#1B1B1A;stroke-width:1.0416666666666667;" width="95.8333" x="577.0833" y="187.1745"/><rect codeLine="26" fill="none" height="83.3781" id="Page2" rx="8.3333" ry="8.3333" style="stroke:#5E5E5E;stroke-width:1.0416666666666667;" width="95.8333" x="577.0833" y="164.1195"/><ellipse cx="600.5729" cy="179.8136" fill="#0066CF" rx="10.4167" ry="10.4167" style="stroke:#0086EF;stroke-width:1.0416666666666667;"/><path d="M602.4833,184.2387 Q602.0561,184.4584 601.5861,184.5683 Q601.1161,184.6781 600.5973,184.6781 Q598.7541,184.6781 597.7836,183.4635 Q596.8132,182.2489 596.8132,179.954 Q596.8132,177.653 597.7836,176.4384 Q598.7541,175.2238 600.5973,175.2238 Q601.1161,175.2238 601.5922,175.3337 Q602.0683,175.4435 602.4833,175.6632 L602.4833,177.6652 Q602.0194,177.238 601.583,177.0396 Q601.1466,176.8412 600.6828,176.8412 Q599.694,176.8412 599.1905,177.6255 Q598.6869,178.4098 598.6869,179.954 Q598.6869,181.4921 599.1905,182.2764 Q599.694,183.0607 600.6828,183.0607 Q601.1466,183.0607 601.583,182.8623 Q602.0194,182.664 602.4833,182.2367 Z " fill="#000000"/><text fill="#D8BC00" font-family="Open Sans,Avenir,Nunito,Arial,Helvetica,SansSerif" font-size="12.5" font-weight="bold" lengthAdjust="spacing" textLength="38.5417" x="619.2188" y="184.5378">Page2</text><line style="stroke:#5E5E5E;stroke-width:1.5625;" x1="578.125" x2="671.875" y1="195.5078" y2="195.5078"/><ellipse cx="588.5417" cy="230.8777" fill="#84BE84" rx="3.125" ry="3.125" style="stroke:#038048;stroke-width:1.0416666666666667;"/><text fill="#D8BC00" font-family="Open Sans,Avenir,Nunito,Arial,Helvetica,SansSerif" font-size="11.4583" lengthAdjust="spacing" textLength="41.6667" x="600" y="237.7889">Page2()</text><line style="stroke:#5E5E5E;stroke-width:1.0416666666666667;" x1="578.125" x2="581.25" y1="213.7136" y2="213.7136"/><text fill="#D8BC00" font-family="Open Sans,Avenir,Nunito,Arial,Helvetica,SansSerif" font-size="11.4583" lengthAdjust="spacing" textLength="81.25" x="584.375" y="217.5232">(constructors)</text><line style="stroke:#5E5E5E;stroke-width:1.0416666666666667;" x1="668.75" x2="671.875" y1="213.7136" y2="213.7136"/><!--MD5=[c0f4d9499d55e07be2655916658e2aff]
class Page3--><rect codeLine="33" fill="#282828" height="83.3781" id="Page3" rx="8.3333" ry="8.3333" style="stroke:#5E5E5E;stroke-width:1.0416666666666667;" width="95.8333" x="709.375" y="164.1195"/><rect fill="#1B1B1A" height="31.3883" rx="8.3333" ry="8.3333" style="stroke:#1B1B1A;stroke-width:1.0416666666666667;" width="95.8333" x="709.375" y="164.1195"/><rect fill="#1B1B1A" height="8.3333" style="stroke:#1B1B1A;stroke-width:1.0416666666666667;" width="95.8333" x="709.375" y="187.1745"/><rect codeLine="33" fill="none" height="83.3781" id="Page3" rx="8.3333" ry="8.3333" style="stroke:#5E5E5E;stroke-width:1.0416666666666667;" width="95.8333" x="709.375" y="164.1195"/><ellipse cx="732.8646" cy="179.8136" fill="#0066CF" rx="10.4167" ry="10.4167" style="stroke:#0086EF;stroke-width:1.0416666666666667;"/><path d="M734.775,184.2387 Q734.3477,184.4584 733.8778,184.5683 Q733.4078,184.6781 732.889,184.6781 Q731.0457,184.6781 730.0753,183.4635 Q729.1048,182.2489 729.1048,179.954 Q729.1048,177.653 730.0753,176.4384 Q731.0457,175.2238 732.889,175.2238 Q733.4078,175.2238 733.8839,175.3337 Q734.3599,175.4435 734.775,175.6632 L734.775,177.6652 Q734.3111,177.238 733.8747,177.0396 Q733.4383,176.8412 732.9744,176.8412 Q731.9857,176.8412 731.4821,177.6255 Q730.9786,178.4098 730.9786,179.954 Q730.9786,181.4921 731.4821,182.2764 Q731.9857,183.0607 732.9744,183.0607 Q733.4383,183.0607 733.8747,182.8623 Q734.3111,182.664 734.775,182.2367 Z " fill="#000000"/><text fill="#D8BC00" font-family="Open Sans,Avenir,Nunito,Arial,Helvetica,SansSerif" font-size="12.5" font-weight="bold" lengthAdjust="spacing" textLength="38.5417" x="751.5104" y="184.5378">Page3</text><line style="stroke:#5E5E5E;stroke-width:1.5625;" x1="710.4167" x2="804.1667" y1="195.5078" y2="195.5078"/><ellipse cx="720.8333" cy="230.8777" fill="#84BE84" rx="3.125" ry="3.125" style="stroke:#038048;stroke-width:1.0416666666666667;"/><text fill="#D8BC00" font-family="Open Sans,Avenir,Nunito,Arial,Helvetica,SansSerif" font-size="11.4583" lengthAdjust="spacing" textLength="41.6667" x="732.2917" y="237.7889">Page3()</text><line style="stroke:#5E5E5E;stroke-width:1.0416666666666667;" x1="710.4167" x2="713.5417" y1="213.7136" y2="213.7136"/><text fill="#D8BC00" font-family="Open Sans,Avenir,Nunito,Arial,Helvetica,SansSerif" font-size="11.4583" lengthAdjust="spacing" textLength="81.25" x="716.6667" y="217.5232">(constructors)</text><line style="stroke:#5E5E5E;stroke-width:1.0416666666666667;" x1="801.0417" x2="804.1667" y1="213.7136" y2="213.7136"/><!--MD5=[3919352f03c904bc0c617560f634b3bb]
reverse link WicketExampleApplication to NavomaticApplication--><path codeLine="6" d="M111.4583,122.9528 C111.4583,142.7965 111.4583,165.3799 111.4583,181.7757 " fill="none" id="WicketExampleApplication-backto-NavomaticApplication" style="stroke:#545454;stroke-width:1.5625;"/><polygon fill="none" points="104.1667,122.6507,111.4583,101.8174,118.75,122.6507,104.1667,122.6507" style="stroke:#545454;stroke-width:1.5625;"/><!--MD5=[5eccb96b768ab7404009c6c236ef6c3e]
reverse link Border to NavomaticBorder--><path codeLine="11" d="M322.9167,122.682 C322.9167,136.0778 322.9167,150.7445 322.9167,163.9215 " fill="none" id="Border-backto-NavomaticBorder" style="stroke:#545454;stroke-width:1.5625;"/><polygon fill="none" points="315.625,122.6507,322.9167,101.8174,330.2083,122.6507,315.625,122.6507" style="stroke:#545454;stroke-width:1.5625;"/><!--MD5=[4aefba825eb4fe39a2bd9fc05861486b]
reverse link WicketExamplePage to Page1--><path codeLine="18" d="M585.4167,116.4215 C569.6979,131.3903 551.5833,148.6507 535.5521,163.9215 " fill="none" id="WicketExamplePage-backto-Page1" style="stroke:#545454;stroke-width:1.5625;"/><polygon fill="none" points="580.625,110.9111,600.7396,101.8174,590.6771,121.4736,580.625,110.9111" style="stroke:#545454;stroke-width:1.5625;"/><!--MD5=[dc9f7f059f44bf26a1384baaef1aa5af]
reverse link WicketExamplePage to Page2--><path codeLine="25" d="M625,122.682 C625,136.0778 625,150.7445 625,163.9215 " fill="none" id="WicketExamplePage-backto-Page2" style="stroke:#545454;stroke-width:1.5625;"/><polygon fill="none" points="617.7083,122.6507,625,101.8174,632.2917,122.6507,617.7083,122.6507" style="stroke:#545454;stroke-width:1.5625;"/><!--MD5=[05fb171d8dea036021e0bda60d7dbda8]
reverse link WicketExamplePage to Page3--><path codeLine="32" d="M664.5833,116.4215 C680.3021,131.3903 698.4167,148.6507 714.4479,163.9215 " fill="none" id="WicketExamplePage-backto-Page3" style="stroke:#545454;stroke-width:1.5625;"/><polygon fill="none" points="659.3229,121.4736,649.2604,101.8174,669.375,110.9111,659.3229,121.4736" style="stroke:#545454;stroke-width:1.5625;"/><!--MD5=[dccbcdb85cd62c4ec563909fbda16651]
@startuml

    !include lexakai.theme
    
    title "org.apache.wicket.examples.navomatic"
    
    WicketExampleApplication <|- - NavomaticApplication
    class NavomaticApplication
    {
    }
    
    Border <|- - NavomaticBorder
    class NavomaticBorder
    {
        - -(constructors)- -
        +NavomaticBorder(String)
    }
    
    WicketExamplePage <|- - Page1
    class Page1
    {
        - -(constructors)- -
        +Page1()
    }
    
    WicketExamplePage <|- - Page2
    class Page2
    {
        - -(constructors)- -
        +Page2()
    }
    
    WicketExamplePage <|- - Page3
    class Page3
    {
        - -(constructors)- -
        +Page3()
    }
    
@enduml

@startuml









skinparam backgroundColor #333333






skinparam  {
    defaultFontName   "Open Sans,Avenir,Nunito,Arial,Helvetica,SansSerif"
    defaultFontSize   12
    defaultTextAlignment left
    shadowing false
    RoundCorner 10
    TitleFontSize 18
}

skinparam defaultFontName       "Open Sans,Avenir,Nunito,Arial,Helvetica,SansSerif"
skinparam defaultFontSize       12
skinparam dpi                   100
skinparam shadowing             false
skinparam roundcorner           16
skinparam ParticipantPadding    40
skinparam BoxPadding            40
skinparam Padding               3
skinparam ArrowColor            #545454
skinparam stereotype {
    CBackgroundColor #0066cf
    CBorderColor #0086ef
    ABackgroundColor #C8Ac00
    ABorderColor #D8Bc00
    IBackgroundColor #008400
    IBorderColor #239c23
    EBackgroundColor #cf6300
    EBorderColor #ef8300
    NBackgroundColor #3380b9
    NBorderColor #004d86
}
skinparam title {
	FontColor	                 #c0c0c0
 	BorderColor                  #545454
	FontSize	    	         20
	BorderRoundCorner            16
	BorderThickness 	         1
	BackgroundColor              #48494b
}


skinparam legend {
	BackgroundColor #303030
	BorderColor #404040
	FontColor #a0a0a0
}

	skinparam swimlane {
	BorderColor #5e5e5e
	BorderThickness 2
	TitleBackgroundColor  #6d6d6d-#484848
	TitleFontColor #303030
}

skinparam activity {
		FontColor #C8Ac00
	BorderColor #333333
	BackgroundColor #333333-#333333
	BarColor #00FF00
	StartColor #0060a8
	EndColor #0060a8
	DiamondBackgroundColor #6d6d6d-#3a3a3a
  	DiamondBorderColor #3a3a3a
  	DiamondFontColor #fefefe
}


skinparam participant {
		FontColor #C8Ac00
	BorderColor #333333
	BackgroundColor #333333-#333333
	ParticipantBorderThickness 2
}


skinparam actor {
		FontColor #C8Ac00
	BorderColor #333333
	BackgroundColor #333333-#333333
}


skinparam arrow {
	Thickness 1.5
	Color #545454
	FontColor #a0a0a0
    FontStyle bold
    MessageAlignment center
}



skinparam sequence {
	BorderColor #303030
	TitleFontColor #303030
	BackgroundColor #333333
	StartColor #303030
	EndColor #303030
	BoxBackgroundColor #333333
	BoxBorderColor #484848
	BoxFontColor #484848
	LifeLineBorderColor #484848
	LifeLineBorderThickness 2
	LifeLineBackgroundColor #3a3a3a
	GroupBorderColor #484848
	GroupFontColor #484848
	GroupHeaderFontColor #0060a8
	GroupBackgroundColor #484848
	GroupHeaderBackgroundColor #333333
	DividerBackgroundColor #484848
    DividerBorderColor #484848
    DividerBorderThickness 2
    DividerFontColor #D8Bc00
	ReferenceBackgroundColor #333333
	ReferenceBorderColor #484848
	ReferenceFontColor #fefefe
	ReferenceHeaderBackgroundColor #484848
}


skinparam partition {
	BorderColor #303030
	FontColor #333333
	BackgroundColor #333333
}


skinparam collections {
		FontColor #C8Ac00
	BorderColor #333333
	BackgroundColor #333333-#333333
}


skinparam control {
		FontColor #C8Ac00
	BorderColor #333333
	BackgroundColor #333333-#333333
}


skinparam entity {
		FontColor #C8Ac00
	BorderColor #333333
	BackgroundColor #333333-#333333
}


skinparam boundary {
		FontColor #C8Ac00
	BorderColor #333333
	BackgroundColor #333333-#333333
}


skinparam agent {
	BackgroundColor #ff8000
	BorderColor #ff9933
	FontColor #484848
}


skinparam note {
	BorderThickness 1
	BackgroundColor #1b1b1a
	BorderColor #5e5e5e
	FontSize 11
	FontColor #a0a0a0
}


skinparam artifact {
	BorderThickness 10
	BorderColor #5e5e5e
	BackgroundColor #1b1b1a
	FontColor #D8Bc00
}


skinparam component {
		FontColor #C8Ac00
	BorderColor #333333
	BackgroundColor #333333-#333333
}


skinparam interface {
	BackgroundColor  #008400
	BorderColor  #007F00
	FontColor #484848
}


skinparam storage {
	BackgroundColor #ff8000
  	BorderColor #cc6600
	FontColor #222222
}


skinparam node {
	BackgroundColor #333333
	BorderColor #333333
	FontColor #C8Ac00
}


skinparam cloud {
	BackgroundColor #484848-black
	BorderColor #484848
	FontColor #D8Bc00
}


skinparam database {
		FontColor #C8Ac00
	BorderColor #333333
	BackgroundColor #333333-#333333
	BackgroundColor  #333333
}


skinparam class {
		FontColor #C8Ac00
	BorderColor #333333
	BackgroundColor #333333-#333333
	HeaderBackgroundColor #1b1b1a
    BackgroundColor #282828
    BorderColor #5e5e5e
 	StereotypeFontColor #a0a0a0
    StereotypeFontStyle bold
	BorderThickness 1
	AttributeFontColor #D8Bc00
	AttributeFontSize 11
    FontColor #D8Bc00
    FontStyle bold
}


skinparam object {
		FontColor #C8Ac00
	BorderColor #333333
	BackgroundColor #333333-#333333
	StereotypeFontColor #484848
	BorderThickness 1
	AttributeFontColor #fefefe
	AttributeFontSize 11
}


skinparam usecase {
		FontColor #C8Ac00
	BorderColor #333333
	BackgroundColor #333333-#333333
	BorderThickness 2
	StereotypeFontColor #303030
}


skinparam rectangle {
		FontColor #C8Ac00
	BorderColor #333333
	BackgroundColor #333333-#333333
	BackgroundColor #333333
	BorderThickness 2
	StereotypeFontColor #303030
}


skinparam package {
		FontColor #C8Ac00
	BorderColor #333333
	BackgroundColor #333333-#333333
	BackgroundColor #333333
	BorderThickness 2
}


skinparam folder {
	BackgroundColor #6d6d6d
  	BorderColor #ff8000
	FontColor #ff8000
	BorderThickness 2
}


skinparam frame {
	BackgroundColor #6d6d6d
  	BorderColor #0060a8
	FontColor #0060a8
	BorderThickness 2
}


skinparam state {
		FontColor #C8Ac00
	BorderColor #333333
	BackgroundColor #333333-#333333
	StartColor #0060a8
	EndColor #0060a8
	AttributeFontColor #fefefe
	AttributeFontSize 11
}


skinparam queue {
		FontColor #C8Ac00
	BorderColor #333333
	BackgroundColor #333333-#333333
}


skinparam card {
	BackgroundColor #0060a8
	BorderColor #004d86
	FontColor $INFO_TEXT
}


skinparam file {
	BackgroundColor #6d6d6d-#484848
	BorderColor #0060a8
	FontColor #fefefe
}


skinparam stack {
		FontColor #C8Ac00
	BorderColor #333333
	BackgroundColor #333333-#333333
}

    
    title "org.apache.wicket.examples.navomatic"
    
    WicketExampleApplication <|- - NavomaticApplication
    class NavomaticApplication
    {
    }
    
    Border <|- - NavomaticBorder
    class NavomaticBorder
    {
        - -(constructors)- -
        +NavomaticBorder(String)
    }
    
    WicketExamplePage <|- - Page1
    class Page1
    {
        - -(constructors)- -
        +Page1()
    }
    
    WicketExamplePage <|- - Page2
    class Page2
    {
        - -(constructors)- -
        +Page2()
    }
    
    WicketExamplePage <|- - Page3
    class Page3
    {
        - -(constructors)- -
        +Page3()
    }
    
@enduml

PlantUML version 1.2021.01(Tue Feb 02 00:55:08 MST 2021)
(GPL source distribution)
Java Runtime: Java(TM) SE Runtime Environment
JVM: Java HotSpot(TM) 64-Bit Server VM
Default Encoding: UTF-8
Language: en
Country: US
--></g></svg>