<?xml version="1.0" encoding="UTF-8" standalone="no"?><svg xmlns="http://www.w3.org/2000/svg" xmlns:xlink="http://www.w3.org/1999/xlink" contentScriptType="application/ecmascript" contentStyleType="text/css" height="254.1667px" preserveAspectRatio="none" style="width:423px;height:254px;background:#333333;" version="1.1" viewBox="0 0 423 254" width="423.9583px" zoomAndPan="magnify"><defs/><g><rect fill="#48494B" height="41.2028" rx="8.3333" ry="8.3333" style="stroke:#545454;stroke-width:1.0416666666666667;" width="346.875" x="31.25" y="2.0833"/><text fill="#C0C0C0" font-family="Open Sans,Avenir,Nunito,Arial,Helvetica,SansSerif" font-size="20.8333" lengthAdjust="spacing" textLength="323.9583" x="42.7083" y="30.5583">org.apache.wicket.examples.csp</text><!--MD5=[818b680dd029f5404dc253254408b9c3]
class WicketExampleApplication--><rect fill="#282828" height="48.055" id="WicketExampleApplication" rx="8.3333" ry="8.3333" style="stroke:#5E5E5E;stroke-width:1.0416666666666667;" width="208.3333" x="7.2917" y="53.7028"/><rect fill="#1B1B1A" height="31.3883" rx="8.3333" ry="8.3333" style="stroke:#1B1B1A;stroke-width:1.0416666666666667;" width="208.3333" x="7.2917" y="53.7028"/><rect fill="#1B1B1A" height="8.3333" style="stroke:#1B1B1A;stroke-width:1.0416666666666667;" width="208.3333" x="7.2917" y="76.7578"/><rect fill="none" height="48.055" id="WicketExampleApplication" rx="8.3333" ry="8.3333" style="stroke:#5E5E5E;stroke-width:1.0416666666666667;" width="208.3333" x="7.2917" y="53.7028"/><ellipse cx="21.875" cy="69.397" fill="#0066CF" rx="10.4167" ry="10.4167" style="stroke:#0086EF;stroke-width:1.0416666666666667;"/><path d="M23.7854,73.822 Q23.3582,74.0417 22.8882,74.1516 Q22.4182,74.2615 21.8994,74.2615 Q20.0562,74.2615 19.0857,73.0469 Q18.1152,71.8323 18.1152,69.5374 Q18.1152,67.2363 19.0857,66.0217 Q20.0562,64.8071 21.8994,64.8071 Q22.4182,64.8071 22.8943,64.917 Q23.3704,65.0269 23.7854,65.2466 L23.7854,67.2485 Q23.3215,66.8213 22.8851,66.6229 Q22.4487,66.4246 21.9849,66.4246 Q20.9961,66.4246 20.4926,67.2089 Q19.989,67.9932 19.989,69.5374 Q19.989,71.0754 20.4926,71.8597 Q20.9961,72.644 21.9849,72.644 Q22.4487,72.644 22.8851,72.4457 Q23.3215,72.2473 23.7854,71.8201 Z " fill="#000000"/><text fill="#D8BC00" font-family="Open Sans,Avenir,Nunito,Arial,Helvetica,SansSerif" font-size="12.5" font-weight="bold" lengthAdjust="spacing" textLength="170.8333" x="38.5417" y="74.1211">WicketExampleApplication</text><line style="stroke:#5E5E5E;stroke-width:1.0416666666666667;" x1="8.3333" x2="214.5833" y1="85.0911" y2="85.0911"/><line style="stroke:#5E5E5E;stroke-width:1.0416666666666667;" x1="8.3333" x2="214.5833" y1="93.4245" y2="93.4245"/><!--MD5=[b5f8a79db12bfee28001c02621a86b10]
class CspApplication--><rect codeLine="7" fill="#282828" height="48.055" id="CspApplication" rx="8.3333" ry="8.3333" style="stroke:#5E5E5E;stroke-width:1.0416666666666667;" width="136.4583" x="43.2292" y="181.8278"/><rect fill="#1B1B1A" height="31.3883" rx="8.3333" ry="8.3333" style="stroke:#1B1B1A;stroke-width:1.0416666666666667;" width="136.4583" x="43.2292" y="181.8278"/><rect fill="#1B1B1A" height="8.3333" style="stroke:#1B1B1A;stroke-width:1.0416666666666667;" width="136.4583" x="43.2292" y="204.8828"/><rect codeLine="7" fill="none" height="48.055" id="CspApplication" rx="8.3333" ry="8.3333" style="stroke:#5E5E5E;stroke-width:1.0416666666666667;" width="136.4583" x="43.2292" y="181.8278"/><ellipse cx="57.8125" cy="197.522" fill="#0066CF" rx="10.4167" ry="10.4167" style="stroke:#0086EF;stroke-width:1.0416666666666667;"/><path d="M59.7229,201.947 Q59.2957,202.1667 58.8257,202.2766 Q58.3557,202.3865 57.8369,202.3865 Q55.9937,202.3865 55.0232,201.1719 Q54.0527,199.9573 54.0527,197.6624 Q54.0527,195.3613 55.0232,194.1467 Q55.9937,192.9321 57.8369,192.9321 Q58.3557,192.9321 58.8318,193.042 Q59.3079,193.1519 59.7229,193.3716 L59.7229,195.3735 Q59.259,194.9463 58.8226,194.7479 Q58.3862,194.5496 57.9224,194.5496 Q56.9336,194.5496 56.4301,195.3339 Q55.9265,196.1182 55.9265,197.6624 Q55.9265,199.2004 56.4301,199.9847 Q56.9336,200.769 57.9224,200.769 Q58.3862,200.769 58.8226,200.5707 Q59.259,200.3723 59.7229,199.9451 Z " fill="#000000"/><text fill="#D8BC00" font-family="Open Sans,Avenir,Nunito,Arial,Helvetica,SansSerif" font-size="12.5" font-weight="bold" lengthAdjust="spacing" textLength="98.9583" x="74.4792" y="202.2461">CspApplication</text><line style="stroke:#5E5E5E;stroke-width:1.0416666666666667;" x1="44.2708" x2="178.6458" y1="213.2161" y2="213.2161"/><line style="stroke:#5E5E5E;stroke-width:1.0416666666666667;" x1="44.2708" x2="178.6458" y1="221.5495" y2="221.5495"/><!--MD5=[8de0e4c819f220f8e0c4c4df41ba59ce]
class WicketExamplePage--><rect fill="#282828" height="48.055" id="WicketExamplePage" rx="8.3333" ry="8.3333" style="stroke:#5E5E5E;stroke-width:1.0416666666666667;" width="164.5833" x="252.0833" y="53.7028"/><rect fill="#1B1B1A" height="31.3883" rx="8.3333" ry="8.3333" style="stroke:#1B1B1A;stroke-width:1.0416666666666667;" width="164.5833" x="252.0833" y="53.7028"/><rect fill="#1B1B1A" height="8.3333" style="stroke:#1B1B1A;stroke-width:1.0416666666666667;" width="164.5833" x="252.0833" y="76.7578"/><rect fill="none" height="48.055" id="WicketExamplePage" rx="8.3333" ry="8.3333" style="stroke:#5E5E5E;stroke-width:1.0416666666666667;" width="164.5833" x="252.0833" y="53.7028"/><ellipse cx="266.6667" cy="69.397" fill="#0066CF" rx="10.4167" ry="10.4167" style="stroke:#0086EF;stroke-width:1.0416666666666667;"/><path d="M268.5771,73.822 Q268.1498,74.0417 267.6799,74.1516 Q267.2099,74.2615 266.6911,74.2615 Q264.8478,74.2615 263.8774,73.0469 Q262.9069,71.8323 262.9069,69.5374 Q262.9069,67.2363 263.8774,66.0217 Q264.8478,64.8071 266.6911,64.8071 Q267.2099,64.8071 267.686,64.917 Q268.162,65.0269 268.5771,65.2466 L268.5771,67.2485 Q268.1132,66.8213 267.6768,66.6229 Q267.2404,66.4246 266.7765,66.4246 Q265.7878,66.4246 265.2842,67.2089 Q264.7807,67.9932 264.7807,69.5374 Q264.7807,71.0754 265.2842,71.8597 Q265.7878,72.644 266.7765,72.644 Q267.2404,72.644 267.6768,72.4457 Q268.1132,72.2473 268.5771,71.8201 Z " fill="#000000"/><text fill="#D8BC00" font-family="Open Sans,Avenir,Nunito,Arial,Helvetica,SansSerif" font-size="12.5" font-weight="bold" lengthAdjust="spacing" textLength="127.0833" x="283.3333" y="74.1211">WicketExamplePage</text><line style="stroke:#5E5E5E;stroke-width:1.0416666666666667;" x1="253.125" x2="415.625" y1="85.0911" y2="85.0911"/><line style="stroke:#5E5E5E;stroke-width:1.0416666666666667;" x1="253.125" x2="415.625" y1="93.4245" y2="93.4245"/><!--MD5=[768265fe3fdf22eb2821ff131f7cf205]
class NonceDemoPage--><rect codeLine="12" fill="#282828" height="83.3781" id="NonceDemoPage" rx="8.3333" ry="8.3333" style="stroke:#5E5E5E;stroke-width:1.0416666666666667;" width="145.8333" x="261.4583" y="164.1195"/><rect fill="#1B1B1A" height="31.3883" rx="8.3333" ry="8.3333" style="stroke:#1B1B1A;stroke-width:1.0416666666666667;" width="145.8333" x="261.4583" y="164.1195"/><rect fill="#1B1B1A" height="8.3333" style="stroke:#1B1B1A;stroke-width:1.0416666666666667;" width="145.8333" x="261.4583" y="187.1745"/><rect codeLine="12" fill="none" height="83.3781" id="NonceDemoPage" rx="8.3333" ry="8.3333" style="stroke:#5E5E5E;stroke-width:1.0416666666666667;" width="145.8333" x="261.4583" y="164.1195"/><ellipse cx="276.0417" cy="179.8136" fill="#0066CF" rx="10.4167" ry="10.4167" style="stroke:#0086EF;stroke-width:1.0416666666666667;"/><path d="M277.9521,184.2387 Q277.5248,184.4584 277.0549,184.5683 Q276.5849,184.6781 276.0661,184.6781 Q274.2228,184.6781 273.2524,183.4635 Q272.2819,182.2489 272.2819,179.954 Q272.2819,177.653 273.2524,176.4384 Q274.2228,175.2238 276.0661,175.2238 Q276.5849,175.2238 277.061,175.3337 Q277.537,175.4435 277.9521,175.6632 L277.9521,177.6652 Q277.4882,177.238 277.0518,177.0396 Q276.6154,176.8412 276.1515,176.8412 Q275.1628,176.8412 274.6592,177.6255 Q274.1557,178.4098 274.1557,179.954 Q274.1557,181.4921 274.6592,182.2764 Q275.1628,183.0607 276.1515,183.0607 Q276.6154,183.0607 277.0518,182.8623 Q277.4882,182.664 277.9521,182.2367 Z " fill="#000000"/><text fill="#D8BC00" font-family="Open Sans,Avenir,Nunito,Arial,Helvetica,SansSerif" font-size="12.5" font-weight="bold" lengthAdjust="spacing" textLength="108.3333" x="292.7083" y="184.5378">NonceDemoPage</text><line style="stroke:#5E5E5E;stroke-width:1.5625;" x1="262.5" x2="406.25" y1="195.5078" y2="195.5078"/><ellipse cx="272.9167" cy="230.8777" fill="#84BE84" rx="3.125" ry="3.125" style="stroke:#038048;stroke-width:1.0416666666666667;"/><text fill="#D8BC00" font-family="Open Sans,Avenir,Nunito,Arial,Helvetica,SansSerif" font-size="11.4583" lengthAdjust="spacing" textLength="102.0833" x="284.375" y="237.7889">NonceDemoPage()</text><line style="stroke:#5E5E5E;stroke-width:1.0416666666666667;" x1="262.5" x2="290.625" y1="213.7136" y2="213.7136"/><text fill="#D8BC00" font-family="Open Sans,Avenir,Nunito,Arial,Helvetica,SansSerif" font-size="11.4583" lengthAdjust="spacing" textLength="81.25" x="293.75" y="217.5232">(constructors)</text><line style="stroke:#5E5E5E;stroke-width:1.0416666666666667;" x1="378.125" x2="406.25" y1="213.7136" y2="213.7136"/><!--MD5=[fb32b37185878577e9a110b77466a421]
reverse link WicketExampleApplication to CspApplication--><path codeLine="6" d="M111.4583,122.9528 C111.4583,142.7965 111.4583,165.3799 111.4583,181.7757 " fill="none" id="WicketExampleApplication-backto-CspApplication" style="stroke:#545454;stroke-width:1.5625;"/><polygon fill="none" points="104.1667,122.6507,111.4583,101.8174,118.75,122.6507,104.1667,122.6507" style="stroke:#545454;stroke-width:1.5625;"/><!--MD5=[febdf3b4bf32c4da2a7d8b2f814f168a]
reverse link WicketExamplePage to NonceDemoPage--><path codeLine="11" d="M334.375,122.682 C334.375,136.0778 334.375,150.7445 334.375,163.9215 " fill="none" id="WicketExamplePage-backto-NonceDemoPage" style="stroke:#545454;stroke-width:1.5625;"/><polygon fill="none" points="327.0833,122.6507,334.375,101.8174,341.6667,122.6507,327.0833,122.6507" style="stroke:#545454;stroke-width:1.5625;"/><!--MD5=[6e9ceb2c7479925bdc03afe6634d2751]
@startuml

    !include lexakai.theme
    
    title "org.apache.wicket.examples.csp"
    
    WicketExampleApplication <|- - CspApplication
    class CspApplication
    {
    }
    
    WicketExamplePage <|- - NonceDemoPage
    class NonceDemoPage
    {
        - -(constructors)- -
        +NonceDemoPage()
    }
    
@enduml

@startuml









skinparam backgroundColor #333333






skinparam  {
    defaultFontName   "Open Sans,Avenir,Nunito,Arial,Helvetica,SansSerif"
    defaultFontSize   12
    defaultTextAlignment left
    shadowing false
    RoundCorner 10
    TitleFontSize 18
}

skinparam defaultFontName       "Open Sans,Avenir,Nunito,Arial,Helvetica,SansSerif"
skinparam defaultFontSize       12
skinparam dpi                   100
skinparam shadowing             false
skinparam roundcorner           16
skinparam ParticipantPadding    40
skinparam BoxPadding            40
skinparam Padding               3
skinparam ArrowColor            #545454
skinparam stereotype {
    CBackgroundColor #0066cf
    CBorderColor #0086ef
    ABackgroundColor #C8Ac00
    ABorderColor #D8Bc00
    IBackgroundColor #008400
    IBorderColor #239c23
    EBackgroundColor #cf6300
    EBorderColor #ef8300
    NBackgroundColor #3380b9
    NBorderColor #004d86
}
skinparam title {
	FontColor	                 #c0c0c0
 	BorderColor                  #545454
	FontSize	    	         20
	BorderRoundCorner            16
	BorderThickness 	         1
	BackgroundColor              #48494b
}


skinparam legend {
	BackgroundColor #303030
	BorderColor #404040
	FontColor #a0a0a0
}

	skinparam swimlane {
	BorderColor #5e5e5e
	BorderThickness 2
	TitleBackgroundColor  #6d6d6d-#484848
	TitleFontColor #303030
}

skinparam activity {
		FontColor #C8Ac00
	BorderColor #333333
	BackgroundColor #333333-#333333
	BarColor #00FF00
	StartColor #0060a8
	EndColor #0060a8
	DiamondBackgroundColor #6d6d6d-#3a3a3a
  	DiamondBorderColor #3a3a3a
  	DiamondFontColor #fefefe
}


skinparam participant {
		FontColor #C8Ac00
	BorderColor #333333
	BackgroundColor #333333-#333333
	ParticipantBorderThickness 2
}


skinparam actor {
		FontColor #C8Ac00
	BorderColor #333333
	BackgroundColor #333333-#333333
}


skinparam arrow {
	Thickness 1.5
	Color #545454
	FontColor #a0a0a0
    FontStyle bold
    MessageAlignment center
}



skinparam sequence {
	BorderColor #303030
	TitleFontColor #303030
	BackgroundColor #333333
	StartColor #303030
	EndColor #303030
	BoxBackgroundColor #333333
	BoxBorderColor #484848
	BoxFontColor #484848
	LifeLineBorderColor #484848
	LifeLineBorderThickness 2
	LifeLineBackgroundColor #3a3a3a
	GroupBorderColor #484848
	GroupFontColor #484848
	GroupHeaderFontColor #0060a8
	GroupBackgroundColor #484848
	GroupHeaderBackgroundColor #333333
	DividerBackgroundColor #484848
    DividerBorderColor #484848
    DividerBorderThickness 2
    DividerFontColor #D8Bc00
	ReferenceBackgroundColor #333333
	ReferenceBorderColor #484848
	ReferenceFontColor #fefefe
	ReferenceHeaderBackgroundColor #484848
}


skinparam partition {
	BorderColor #303030
	FontColor #333333
	BackgroundColor #333333
}


skinparam collections {
		FontColor #C8Ac00
	BorderColor #333333
	BackgroundColor #333333-#333333
}


skinparam control {
		FontColor #C8Ac00
	BorderColor #333333
	BackgroundColor #333333-#333333
}


skinparam entity {
		FontColor #C8Ac00
	BorderColor #333333
	BackgroundColor #333333-#333333
}


skinparam boundary {
		FontColor #C8Ac00
	BorderColor #333333
	BackgroundColor #333333-#333333
}


skinparam agent {
	BackgroundColor #ff8000
	BorderColor #ff9933
	FontColor #484848
}


skinparam note {
	BorderThickness 1
	BackgroundColor #1b1b1a
	BorderColor #5e5e5e
	FontSize 11
	FontColor #a0a0a0
}


skinparam artifact {
	BorderThickness 10
	BorderColor #5e5e5e
	BackgroundColor #1b1b1a
	FontColor #D8Bc00
}


skinparam component {
		FontColor #C8Ac00
	BorderColor #333333
	BackgroundColor #333333-#333333
}


skinparam interface {
	BackgroundColor  #008400
	BorderColor  #007F00
	FontColor #484848
}


skinparam storage {
	BackgroundColor #ff8000
  	BorderColor #cc6600
	FontColor #222222
}


skinparam node {
	BackgroundColor #333333
	BorderColor #333333
	FontColor #C8Ac00
}


skinparam cloud {
	BackgroundColor #484848-black
	BorderColor #484848
	FontColor #D8Bc00
}


skinparam database {
		FontColor #C8Ac00
	BorderColor #333333
	BackgroundColor #333333-#333333
	BackgroundColor  #333333
}


skinparam class {
		FontColor #C8Ac00
	BorderColor #333333
	BackgroundColor #333333-#333333
	HeaderBackgroundColor #1b1b1a
    BackgroundColor #282828
    BorderColor #5e5e5e
 	StereotypeFontColor #a0a0a0
    StereotypeFontStyle bold
	BorderThickness 1
	AttributeFontColor #D8Bc00
	AttributeFontSize 11
    FontColor #D8Bc00
    FontStyle bold
}


skinparam object {
		FontColor #C8Ac00
	BorderColor #333333
	BackgroundColor #333333-#333333
	StereotypeFontColor #484848
	BorderThickness 1
	AttributeFontColor #fefefe
	AttributeFontSize 11
}


skinparam usecase {
		FontColor #C8Ac00
	BorderColor #333333
	BackgroundColor #333333-#333333
	BorderThickness 2
	StereotypeFontColor #303030
}


skinparam rectangle {
		FontColor #C8Ac00
	BorderColor #333333
	BackgroundColor #333333-#333333
	BackgroundColor #333333
	BorderThickness 2
	StereotypeFontColor #303030
}


skinparam package {
		FontColor #C8Ac00
	BorderColor #333333
	BackgroundColor #333333-#333333
	BackgroundColor #333333
	BorderThickness 2
}


skinparam folder {
	BackgroundColor #6d6d6d
  	BorderColor #ff8000
	FontColor #ff8000
	BorderThickness 2
}


skinparam frame {
	BackgroundColor #6d6d6d
  	BorderColor #0060a8
	FontColor #0060a8
	BorderThickness 2
}


skinparam state {
		FontColor #C8Ac00
	BorderColor #333333
	BackgroundColor #333333-#333333
	StartColor #0060a8
	EndColor #0060a8
	AttributeFontColor #fefefe
	AttributeFontSize 11
}


skinparam queue {
		FontColor #C8Ac00
	BorderColor #333333
	BackgroundColor #333333-#333333
}


skinparam card {
	BackgroundColor #0060a8
	BorderColor #004d86
	FontColor $INFO_TEXT
}


skinparam file {
	BackgroundColor #6d6d6d-#484848
	BorderColor #0060a8
	FontColor #fefefe
}


skinparam stack {
		FontColor #C8Ac00
	BorderColor #333333
	BackgroundColor #333333-#333333
}

    
    title "org.apache.wicket.examples.csp"
    
    WicketExampleApplication <|- - CspApplication
    class CspApplication
    {
    }
    
    WicketExamplePage <|- - NonceDemoPage
    class NonceDemoPage
    {
        - -(constructors)- -
        +NonceDemoPage()
    }
    
@enduml

PlantUML version 1.2021.01(Tue Feb 02 00:55:08 MST 2021)
(GPL source distribution)
Java Runtime: Java(TM) SE Runtime Environment
JVM: Java HotSpot(TM) 64-Bit Server VM
Default Encoding: UTF-8
Language: en
Country: US
--></g></svg>