<?xml version="1.0" encoding="UTF-8" standalone="no"?><svg xmlns="http://www.w3.org/2000/svg" xmlns:xlink="http://www.w3.org/1999/xlink" contentScriptType="application/ecmascript" contentStyleType="text/css" height="254.1667px" preserveAspectRatio="none" style="width:575px;height:254px;background:#333333;" version="1.1" viewBox="0 0 575 254" width="575px" zoomAndPan="magnify"><defs/><g><rect fill="#48494B" height="41.2028" rx="8.3333" ry="8.3333" style="stroke:#545454;stroke-width:1.0416666666666667;" width="476.0417" x="42.1875" y="2.0833"/><text fill="#C0C0C0" font-family="Open Sans,Avenir,Nunito,Arial,Helvetica,SansSerif" font-size="20.8333" lengthAdjust="spacing" textLength="453.125" x="53.6458" y="30.5583">org.apache.wicket.examples.niceurl.mounted</text><!--MD5=[8de0e4c819f220f8e0c4c4df41ba59ce]
class WicketExamplePage--><rect fill="#282828" height="48.055" id="WicketExamplePage" rx="8.3333" ry="8.3333" style="stroke:#5E5E5E;stroke-width:1.0416666666666667;" width="164.5833" x="205.2083" y="53.7028"/><rect fill="#1B1B1A" height="31.3883" rx="8.3333" ry="8.3333" style="stroke:#1B1B1A;stroke-width:1.0416666666666667;" width="164.5833" x="205.2083" y="53.7028"/><rect fill="#1B1B1A" height="8.3333" style="stroke:#1B1B1A;stroke-width:1.0416666666666667;" width="164.5833" x="205.2083" y="76.7578"/><rect fill="none" height="48.055" id="WicketExamplePage" rx="8.3333" ry="8.3333" style="stroke:#5E5E5E;stroke-width:1.0416666666666667;" width="164.5833" x="205.2083" y="53.7028"/><ellipse cx="219.7917" cy="69.397" fill="#0066CF" rx="10.4167" ry="10.4167" style="stroke:#0086EF;stroke-width:1.0416666666666667;"/><path d="M221.7021,73.822 Q221.2748,74.0417 220.8049,74.1516 Q220.3349,74.2615 219.8161,74.2615 Q217.9728,74.2615 217.0024,73.0469 Q216.0319,71.8323 216.0319,69.5374 Q216.0319,67.2363 217.0024,66.0217 Q217.9728,64.8071 219.8161,64.8071 Q220.3349,64.8071 220.811,64.917 Q221.287,65.0269 221.7021,65.2466 L221.7021,67.2485 Q221.2382,66.8213 220.8018,66.6229 Q220.3654,66.4246 219.9015,66.4246 Q218.9128,66.4246 218.4092,67.2089 Q217.9057,67.9932 217.9057,69.5374 Q217.9057,71.0754 218.4092,71.8597 Q218.9128,72.644 219.9015,72.644 Q220.3654,72.644 220.8018,72.4457 Q221.2382,72.2473 221.7021,71.8201 Z " fill="#000000"/><text fill="#D8BC00" font-family="Open Sans,Avenir,Nunito,Arial,Helvetica,SansSerif" font-size="12.5" font-weight="bold" lengthAdjust="spacing" textLength="127.0833" x="236.4583" y="74.1211">WicketExamplePage</text><line style="stroke:#5E5E5E;stroke-width:1.0416666666666667;" x1="206.25" x2="368.75" y1="85.0911" y2="85.0911"/><line style="stroke:#5E5E5E;stroke-width:1.0416666666666667;" x1="206.25" x2="368.75" y1="93.4245" y2="93.4245"/><!--MD5=[c0f4d9499d55e07be2655916658e2aff]
class Page3--><rect codeLine="7" fill="#282828" height="83.3781" id="Page3" rx="8.3333" ry="8.3333" style="stroke:#5E5E5E;stroke-width:1.0416666666666667;" width="162.5" x="7.2917" y="164.1195"/><rect fill="#1B1B1A" height="31.3883" rx="8.3333" ry="8.3333" style="stroke:#1B1B1A;stroke-width:1.0416666666666667;" width="162.5" x="7.2917" y="164.1195"/><rect fill="#1B1B1A" height="8.3333" style="stroke:#1B1B1A;stroke-width:1.0416666666666667;" width="162.5" x="7.2917" y="187.1745"/><rect codeLine="7" fill="none" height="83.3781" id="Page3" rx="8.3333" ry="8.3333" style="stroke:#5E5E5E;stroke-width:1.0416666666666667;" width="162.5" x="7.2917" y="164.1195"/><ellipse cx="61.9792" cy="179.8136" fill="#0066CF" rx="10.4167" ry="10.4167" style="stroke:#0086EF;stroke-width:1.0416666666666667;"/><path d="M63.8896,184.2387 Q63.4623,184.4584 62.9924,184.5683 Q62.5224,184.6781 62.0036,184.6781 Q60.1603,184.6781 59.1899,183.4635 Q58.2194,182.2489 58.2194,179.954 Q58.2194,177.653 59.1899,176.4384 Q60.1603,175.2238 62.0036,175.2238 Q62.5224,175.2238 62.9985,175.3337 Q63.4745,175.4435 63.8896,175.6632 L63.8896,177.6652 Q63.4257,177.238 62.9893,177.0396 Q62.5529,176.8412 62.089,176.8412 Q61.1003,176.8412 60.5967,177.6255 Q60.0932,178.4098 60.0932,179.954 Q60.0932,181.4921 60.5967,182.2764 Q61.1003,183.0607 62.089,183.0607 Q62.5529,183.0607 62.9893,182.8623 Q63.4257,182.664 63.8896,182.2367 Z " fill="#000000"/><text fill="#D8BC00" font-family="Open Sans,Avenir,Nunito,Arial,Helvetica,SansSerif" font-size="12.5" font-weight="bold" lengthAdjust="spacing" textLength="38.5417" x="84.8958" y="184.5378">Page3</text><line style="stroke:#5E5E5E;stroke-width:1.5625;" x1="8.3333" x2="168.75" y1="195.5078" y2="195.5078"/><ellipse cx="18.75" cy="230.8777" fill="#84BE84" rx="3.125" ry="3.125" style="stroke:#038048;stroke-width:1.0416666666666667;"/><text fill="#D8BC00" font-family="Open Sans,Avenir,Nunito,Arial,Helvetica,SansSerif" font-size="11.4583" lengthAdjust="spacing" textLength="130.2083" x="30.2083" y="237.7889">Page3(PageParameters)</text><line style="stroke:#5E5E5E;stroke-width:1.0416666666666667;" x1="8.3333" x2="44.7917" y1="213.7136" y2="213.7136"/><text fill="#D8BC00" font-family="Open Sans,Avenir,Nunito,Arial,Helvetica,SansSerif" font-size="11.4583" lengthAdjust="spacing" textLength="81.25" x="47.9167" y="217.5232">(constructors)</text><line style="stroke:#5E5E5E;stroke-width:1.0416666666666667;" x1="132.2917" x2="168.75" y1="213.7136" y2="213.7136"/><!--MD5=[04fb07234089e2f4a27f087aa8b008f2]
class Page4--><rect codeLine="14" fill="#282828" height="83.3781" id="Page4" rx="8.3333" ry="8.3333" style="stroke:#5E5E5E;stroke-width:1.0416666666666667;" width="162.5" x="206.25" y="164.1195"/><rect fill="#1B1B1A" height="31.3883" rx="8.3333" ry="8.3333" style="stroke:#1B1B1A;stroke-width:1.0416666666666667;" width="162.5" x="206.25" y="164.1195"/><rect fill="#1B1B1A" height="8.3333" style="stroke:#1B1B1A;stroke-width:1.0416666666666667;" width="162.5" x="206.25" y="187.1745"/><rect codeLine="14" fill="none" height="83.3781" id="Page4" rx="8.3333" ry="8.3333" style="stroke:#5E5E5E;stroke-width:1.0416666666666667;" width="162.5" x="206.25" y="164.1195"/><ellipse cx="260.9375" cy="179.8136" fill="#0066CF" rx="10.4167" ry="10.4167" style="stroke:#0086EF;stroke-width:1.0416666666666667;"/><path d="M262.8479,184.2387 Q262.4207,184.4584 261.9507,184.5683 Q261.4807,184.6781 260.9619,184.6781 Q259.1187,184.6781 258.1482,183.4635 Q257.1777,182.2489 257.1777,179.954 Q257.1777,177.653 258.1482,176.4384 Q259.1187,175.2238 260.9619,175.2238 Q261.4807,175.2238 261.9568,175.3337 Q262.4329,175.4435 262.8479,175.6632 L262.8479,177.6652 Q262.384,177.238 261.9476,177.0396 Q261.5112,176.8412 261.0474,176.8412 Q260.0586,176.8412 259.5551,177.6255 Q259.0515,178.4098 259.0515,179.954 Q259.0515,181.4921 259.5551,182.2764 Q260.0586,183.0607 261.0474,183.0607 Q261.5112,183.0607 261.9476,182.8623 Q262.384,182.664 262.8479,182.2367 Z " fill="#000000"/><text fill="#D8BC00" font-family="Open Sans,Avenir,Nunito,Arial,Helvetica,SansSerif" font-size="12.5" font-weight="bold" lengthAdjust="spacing" textLength="38.5417" x="283.8542" y="184.5378">Page4</text><line style="stroke:#5E5E5E;stroke-width:1.5625;" x1="207.2917" x2="367.7083" y1="195.5078" y2="195.5078"/><ellipse cx="217.7083" cy="230.8777" fill="#84BE84" rx="3.125" ry="3.125" style="stroke:#038048;stroke-width:1.0416666666666667;"/><text fill="#D8BC00" font-family="Open Sans,Avenir,Nunito,Arial,Helvetica,SansSerif" font-size="11.4583" lengthAdjust="spacing" textLength="130.2083" x="229.1667" y="237.7889">Page4(PageParameters)</text><line style="stroke:#5E5E5E;stroke-width:1.0416666666666667;" x1="207.2917" x2="243.75" y1="213.7136" y2="213.7136"/><text fill="#D8BC00" font-family="Open Sans,Avenir,Nunito,Arial,Helvetica,SansSerif" font-size="11.4583" lengthAdjust="spacing" textLength="81.25" x="246.875" y="217.5232">(constructors)</text><line style="stroke:#5E5E5E;stroke-width:1.0416666666666667;" x1="331.25" x2="367.7083" y1="213.7136" y2="213.7136"/><!--MD5=[c77aac5136e9b1c1e2e0386bdf9fb4f3]
class Page5--><rect codeLine="21" fill="#282828" height="83.3781" id="Page5" rx="8.3333" ry="8.3333" style="stroke:#5E5E5E;stroke-width:1.0416666666666667;" width="162.5" x="405.2083" y="164.1195"/><rect fill="#1B1B1A" height="31.3883" rx="8.3333" ry="8.3333" style="stroke:#1B1B1A;stroke-width:1.0416666666666667;" width="162.5" x="405.2083" y="164.1195"/><rect fill="#1B1B1A" height="8.3333" style="stroke:#1B1B1A;stroke-width:1.0416666666666667;" width="162.5" x="405.2083" y="187.1745"/><rect codeLine="21" fill="none" height="83.3781" id="Page5" rx="8.3333" ry="8.3333" style="stroke:#5E5E5E;stroke-width:1.0416666666666667;" width="162.5" x="405.2083" y="164.1195"/><ellipse cx="459.8958" cy="179.8136" fill="#0066CF" rx="10.4167" ry="10.4167" style="stroke:#0086EF;stroke-width:1.0416666666666667;"/><path d="M461.8062,184.2387 Q461.379,184.4584 460.909,184.5683 Q460.439,184.6781 459.9202,184.6781 Q458.077,184.6781 457.1065,183.4635 Q456.1361,182.2489 456.1361,179.954 Q456.1361,177.653 457.1065,176.4384 Q458.077,175.2238 459.9202,175.2238 Q460.439,175.2238 460.9151,175.3337 Q461.3912,175.4435 461.8062,175.6632 L461.8062,177.6652 Q461.3424,177.238 460.906,177.0396 Q460.4696,176.8412 460.0057,176.8412 Q459.0169,176.8412 458.5134,177.6255 Q458.0098,178.4098 458.0098,179.954 Q458.0098,181.4921 458.5134,182.2764 Q459.0169,183.0607 460.0057,183.0607 Q460.4696,183.0607 460.906,182.8623 Q461.3424,182.664 461.8062,182.2367 Z " fill="#000000"/><text fill="#D8BC00" font-family="Open Sans,Avenir,Nunito,Arial,Helvetica,SansSerif" font-size="12.5" font-weight="bold" lengthAdjust="spacing" textLength="38.5417" x="482.8125" y="184.5378">Page5</text><line style="stroke:#5E5E5E;stroke-width:1.5625;" x1="406.25" x2="566.6667" y1="195.5078" y2="195.5078"/><ellipse cx="416.6667" cy="230.8777" fill="#84BE84" rx="3.125" ry="3.125" style="stroke:#038048;stroke-width:1.0416666666666667;"/><text fill="#D8BC00" font-family="Open Sans,Avenir,Nunito,Arial,Helvetica,SansSerif" font-size="11.4583" lengthAdjust="spacing" textLength="130.2083" x="428.125" y="237.7889">Page5(PageParameters)</text><line style="stroke:#5E5E5E;stroke-width:1.0416666666666667;" x1="406.25" x2="442.7083" y1="213.7136" y2="213.7136"/><text fill="#D8BC00" font-family="Open Sans,Avenir,Nunito,Arial,Helvetica,SansSerif" font-size="11.4583" lengthAdjust="spacing" textLength="81.25" x="445.8333" y="217.5232">(constructors)</text><line style="stroke:#5E5E5E;stroke-width:1.0416666666666667;" x1="530.2083" x2="566.6667" y1="213.7136" y2="213.7136"/><!--MD5=[05fb171d8dea036021e0bda60d7dbda8]
reverse link WicketExamplePage to Page3--><path codeLine="6" d="M233.125,113.1507 C208.3646,128.8382 178.8542,147.5257 152.9792,163.9215 " fill="none" id="WicketExamplePage-backto-Page3" style="stroke:#545454;stroke-width:1.5625;"/><polygon fill="none" points="229.5104,106.807,251.0104,101.8174,237.3125,119.1299,229.5104,106.807" style="stroke:#545454;stroke-width:1.5625;"/><!--MD5=[2d02ac948cb13b0cd437ec17b6284553]
reverse link WicketExamplePage to Page4--><path codeLine="13" d="M287.5,122.682 C287.5,136.0778 287.5,150.7445 287.5,163.9215 " fill="none" id="WicketExamplePage-backto-Page4" style="stroke:#545454;stroke-width:1.5625;"/><polygon fill="none" points="280.2083,122.6507,287.5,101.8174,294.7917,122.6507,280.2083,122.6507" style="stroke:#545454;stroke-width:1.5625;"/><!--MD5=[2845de814ffbb29ca77f5a5c38f76862]
reverse link WicketExamplePage to Page5--><path codeLine="20" d="M341.875,113.1507 C366.6354,128.8382 396.1458,147.5257 422.0208,163.9215 " fill="none" id="WicketExamplePage-backto-Page5" style="stroke:#545454;stroke-width:1.5625;"/><polygon fill="none" points="337.6875,119.1299,323.9896,101.8174,345.4896,106.807,337.6875,119.1299" style="stroke:#545454;stroke-width:1.5625;"/><!--MD5=[3025eab6bcee3b034f2d3f8821f69a5a]
@startuml

    !include lexakai.theme
    
    title "org.apache.wicket.examples.niceurl.mounted"
    
    WicketExamplePage <|- - Page3
    class Page3
    {
        - -(constructors)- -
        +Page3(PageParameters)
    }
    
    WicketExamplePage <|- - Page4
    class Page4
    {
        - -(constructors)- -
        +Page4(PageParameters)
    }
    
    WicketExamplePage <|- - Page5
    class Page5
    {
        - -(constructors)- -
        +Page5(PageParameters)
    }
    
@enduml

@startuml









skinparam backgroundColor #333333






skinparam  {
    defaultFontName   "Open Sans,Avenir,Nunito,Arial,Helvetica,SansSerif"
    defaultFontSize   12
    defaultTextAlignment left
    shadowing false
    RoundCorner 10
    TitleFontSize 18
}

skinparam defaultFontName       "Open Sans,Avenir,Nunito,Arial,Helvetica,SansSerif"
skinparam defaultFontSize       12
skinparam dpi                   100
skinparam shadowing             false
skinparam roundcorner           16
skinparam ParticipantPadding    40
skinparam BoxPadding            40
skinparam Padding               3
skinparam ArrowColor            #545454
skinparam stereotype {
    CBackgroundColor #0066cf
    CBorderColor #0086ef
    ABackgroundColor #C8Ac00
    ABorderColor #D8Bc00
    IBackgroundColor #008400
    IBorderColor #239c23
    EBackgroundColor #cf6300
    EBorderColor #ef8300
    NBackgroundColor #3380b9
    NBorderColor #004d86
}
skinparam title {
	FontColor	                 #c0c0c0
 	BorderColor                  #545454
	FontSize	    	         20
	BorderRoundCorner            16
	BorderThickness 	         1
	BackgroundColor              #48494b
}


skinparam legend {
	BackgroundColor #303030
	BorderColor #404040
	FontColor #a0a0a0
}

	skinparam swimlane {
	BorderColor #5e5e5e
	BorderThickness 2
	TitleBackgroundColor  #6d6d6d-#484848
	TitleFontColor #303030
}

skinparam activity {
		FontColor #C8Ac00
	BorderColor #333333
	BackgroundColor #333333-#333333
	BarColor #00FF00
	StartColor #0060a8
	EndColor #0060a8
	DiamondBackgroundColor #6d6d6d-#3a3a3a
  	DiamondBorderColor #3a3a3a
  	DiamondFontColor #fefefe
}


skinparam participant {
		FontColor #C8Ac00
	BorderColor #333333
	BackgroundColor #333333-#333333
	ParticipantBorderThickness 2
}


skinparam actor {
		FontColor #C8Ac00
	BorderColor #333333
	BackgroundColor #333333-#333333
}


skinparam arrow {
	Thickness 1.5
	Color #545454
	FontColor #a0a0a0
    FontStyle bold
    MessageAlignment center
}



skinparam sequence {
	BorderColor #303030
	TitleFontColor #303030
	BackgroundColor #333333
	StartColor #303030
	EndColor #303030
	BoxBackgroundColor #333333
	BoxBorderColor #484848
	BoxFontColor #484848
	LifeLineBorderColor #484848
	LifeLineBorderThickness 2
	LifeLineBackgroundColor #3a3a3a
	GroupBorderColor #484848
	GroupFontColor #484848
	GroupHeaderFontColor #0060a8
	GroupBackgroundColor #484848
	GroupHeaderBackgroundColor #333333
	DividerBackgroundColor #484848
    DividerBorderColor #484848
    DividerBorderThickness 2
    DividerFontColor #D8Bc00
	ReferenceBackgroundColor #333333
	ReferenceBorderColor #484848
	ReferenceFontColor #fefefe
	ReferenceHeaderBackgroundColor #484848
}


skinparam partition {
	BorderColor #303030
	FontColor #333333
	BackgroundColor #333333
}


skinparam collections {
		FontColor #C8Ac00
	BorderColor #333333
	BackgroundColor #333333-#333333
}


skinparam control {
		FontColor #C8Ac00
	BorderColor #333333
	BackgroundColor #333333-#333333
}


skinparam entity {
		FontColor #C8Ac00
	BorderColor #333333
	BackgroundColor #333333-#333333
}


skinparam boundary {
		FontColor #C8Ac00
	BorderColor #333333
	BackgroundColor #333333-#333333
}


skinparam agent {
	BackgroundColor #ff8000
	BorderColor #ff9933
	FontColor #484848
}


skinparam note {
	BorderThickness 1
	BackgroundColor #1b1b1a
	BorderColor #5e5e5e
	FontSize 11
	FontColor #a0a0a0
}


skinparam artifact {
	BorderThickness 10
	BorderColor #5e5e5e
	BackgroundColor #1b1b1a
	FontColor #D8Bc00
}


skinparam component {
		FontColor #C8Ac00
	BorderColor #333333
	BackgroundColor #333333-#333333
}


skinparam interface {
	BackgroundColor  #008400
	BorderColor  #007F00
	FontColor #484848
}


skinparam storage {
	BackgroundColor #ff8000
  	BorderColor #cc6600
	FontColor #222222
}


skinparam node {
	BackgroundColor #333333
	BorderColor #333333
	FontColor #C8Ac00
}


skinparam cloud {
	BackgroundColor #484848-black
	BorderColor #484848
	FontColor #D8Bc00
}


skinparam database {
		FontColor #C8Ac00
	BorderColor #333333
	BackgroundColor #333333-#333333
	BackgroundColor  #333333
}


skinparam class {
		FontColor #C8Ac00
	BorderColor #333333
	BackgroundColor #333333-#333333
	HeaderBackgroundColor #1b1b1a
    BackgroundColor #282828
    BorderColor #5e5e5e
 	StereotypeFontColor #a0a0a0
    StereotypeFontStyle bold
	BorderThickness 1
	AttributeFontColor #D8Bc00
	AttributeFontSize 11
    FontColor #D8Bc00
    FontStyle bold
}


skinparam object {
		FontColor #C8Ac00
	BorderColor #333333
	BackgroundColor #333333-#333333
	StereotypeFontColor #484848
	BorderThickness 1
	AttributeFontColor #fefefe
	AttributeFontSize 11
}


skinparam usecase {
		FontColor #C8Ac00
	BorderColor #333333
	BackgroundColor #333333-#333333
	BorderThickness 2
	StereotypeFontColor #303030
}


skinparam rectangle {
		FontColor #C8Ac00
	BorderColor #333333
	BackgroundColor #333333-#333333
	BackgroundColor #333333
	BorderThickness 2
	StereotypeFontColor #303030
}


skinparam package {
		FontColor #C8Ac00
	BorderColor #333333
	BackgroundColor #333333-#333333
	BackgroundColor #333333
	BorderThickness 2
}


skinparam folder {
	BackgroundColor #6d6d6d
  	BorderColor #ff8000
	FontColor #ff8000
	BorderThickness 2
}


skinparam frame {
	BackgroundColor #6d6d6d
  	BorderColor #0060a8
	FontColor #0060a8
	BorderThickness 2
}


skinparam state {
		FontColor #C8Ac00
	BorderColor #333333
	BackgroundColor #333333-#333333
	StartColor #0060a8
	EndColor #0060a8
	AttributeFontColor #fefefe
	AttributeFontSize 11
}


skinparam queue {
		FontColor #C8Ac00
	BorderColor #333333
	BackgroundColor #333333-#333333
}


skinparam card {
	BackgroundColor #0060a8
	BorderColor #004d86
	FontColor $INFO_TEXT
}


skinparam file {
	BackgroundColor #6d6d6d-#484848
	BorderColor #0060a8
	FontColor #fefefe
}


skinparam stack {
		FontColor #C8Ac00
	BorderColor #333333
	BackgroundColor #333333-#333333
}

    
    title "org.apache.wicket.examples.niceurl.mounted"
    
    WicketExamplePage <|- - Page3
    class Page3
    {
        - -(constructors)- -
        +Page3(PageParameters)
    }
    
    WicketExamplePage <|- - Page4
    class Page4
    {
        - -(constructors)- -
        +Page4(PageParameters)
    }
    
    WicketExamplePage <|- - Page5
    class Page5
    {
        - -(constructors)- -
        +Page5(PageParameters)
    }
    
@enduml

PlantUML version 1.2021.01(Tue Feb 02 00:55:08 MST 2021)
(GPL source distribution)
Java Runtime: Java(TM) SE Runtime Environment
JVM: Java HotSpot(TM) 64-Bit Server VM
Default Encoding: UTF-8
Language: en
Country: US
--></g></svg>