<?xml version="1.0" encoding="UTF-8" standalone="no"?><svg xmlns="http://www.w3.org/2000/svg" xmlns:xlink="http://www.w3.org/1999/xlink" contentScriptType="application/ecmascript" contentStyleType="text/css" height="282.2917px" preserveAspectRatio="none" style="width:1380px;height:282px;background:#333333;" version="1.1" viewBox="0 0 1380 282" width="1380.2083px" zoomAndPan="magnify"><defs/><g><rect fill="#48494B" height="41.2028" rx="8.3333" ry="8.3333" style="stroke:#545454;stroke-width:1.0416666666666667;" width="417.7083" x="473.9583" y="2.0833"/><text fill="#C0C0C0" font-family="Open Sans,Avenir,Nunito,Arial,Helvetica,SansSerif" font-size="20.8333" lengthAdjust="spacing" textLength="394.7917" x="485.4167" y="30.5583">org.apache.wicket.examples.websocket</text><!--MD5=[8de0e4c819f220f8e0c4c4df41ba59ce]
class WicketExamplePage--><rect fill="#282828" height="48.055" id="WicketExamplePage" rx="8.3333" ry="8.3333" style="stroke:#5E5E5E;stroke-width:1.0416666666666667;" width="164.5833" x="332.8125" y="53.7028"/><rect fill="#1B1B1A" height="31.3883" rx="8.3333" ry="8.3333" style="stroke:#1B1B1A;stroke-width:1.0416666666666667;" width="164.5833" x="332.8125" y="53.7028"/><rect fill="#1B1B1A" height="8.3333" style="stroke:#1B1B1A;stroke-width:1.0416666666666667;" width="164.5833" x="332.8125" y="76.7578"/><rect fill="none" height="48.055" id="WicketExamplePage" rx="8.3333" ry="8.3333" style="stroke:#5E5E5E;stroke-width:1.0416666666666667;" width="164.5833" x="332.8125" y="53.7028"/><ellipse cx="347.3958" cy="69.397" fill="#0066CF" rx="10.4167" ry="10.4167" style="stroke:#0086EF;stroke-width:1.0416666666666667;"/><path d="M349.3062,73.822 Q348.879,74.0417 348.409,74.1516 Q347.939,74.2615 347.4202,74.2615 Q345.577,74.2615 344.6065,73.0469 Q343.6361,71.8323 343.6361,69.5374 Q343.6361,67.2363 344.6065,66.0217 Q345.577,64.8071 347.4202,64.8071 Q347.939,64.8071 348.4151,64.917 Q348.8912,65.0269 349.3062,65.2466 L349.3062,67.2485 Q348.8424,66.8213 348.406,66.6229 Q347.9696,66.4246 347.5057,66.4246 Q346.5169,66.4246 346.0134,67.2089 Q345.5098,67.9932 345.5098,69.5374 Q345.5098,71.0754 346.0134,71.8597 Q346.5169,72.644 347.5057,72.644 Q347.9696,72.644 348.406,72.4457 Q348.8424,72.2473 349.3062,71.8201 Z " fill="#000000"/><text fill="#D8BC00" font-family="Open Sans,Avenir,Nunito,Arial,Helvetica,SansSerif" font-size="12.5" font-weight="bold" lengthAdjust="spacing" textLength="127.0833" x="364.0625" y="74.1211">WicketExamplePage</text><line style="stroke:#5E5E5E;stroke-width:1.0416666666666667;" x1="333.8542" x2="496.3542" y1="85.0911" y2="85.0911"/><line style="stroke:#5E5E5E;stroke-width:1.0416666666666667;" x1="333.8542" x2="496.3542" y1="93.4245" y2="93.4245"/><!--MD5=[5aff5c50255f67a7089db77a52aaa125]
class HomePage--><rect codeLine="7" fill="#282828" height="48.055" id="HomePage" rx="8.3333" ry="8.3333" style="stroke:#5E5E5E;stroke-width:1.0416666666666667;" width="105.2083" x="7.2917" y="195.8903"/><rect fill="#1B1B1A" height="31.3883" rx="8.3333" ry="8.3333" style="stroke:#1B1B1A;stroke-width:1.0416666666666667;" width="105.2083" x="7.2917" y="195.8903"/><rect fill="#1B1B1A" height="8.3333" style="stroke:#1B1B1A;stroke-width:1.0416666666666667;" width="105.2083" x="7.2917" y="218.9453"/><rect codeLine="7" fill="none" height="48.055" id="HomePage" rx="8.3333" ry="8.3333" style="stroke:#5E5E5E;stroke-width:1.0416666666666667;" width="105.2083" x="7.2917" y="195.8903"/><ellipse cx="21.875" cy="211.5845" fill="#0066CF" rx="10.4167" ry="10.4167" style="stroke:#0086EF;stroke-width:1.0416666666666667;"/><path d="M23.7854,216.0095 Q23.3582,216.2292 22.8882,216.3391 Q22.4182,216.449 21.8994,216.449 Q20.0562,216.449 19.0857,215.2344 Q18.1152,214.0198 18.1152,211.7249 Q18.1152,209.4238 19.0857,208.2092 Q20.0562,206.9946 21.8994,206.9946 Q22.4182,206.9946 22.8943,207.1045 Q23.3704,207.2144 23.7854,207.4341 L23.7854,209.436 Q23.3215,209.0088 22.8851,208.8104 Q22.4487,208.6121 21.9849,208.6121 Q20.9961,208.6121 20.4926,209.3964 Q19.989,210.1807 19.989,211.7249 Q19.989,213.2629 20.4926,214.0472 Q20.9961,214.8315 21.9849,214.8315 Q22.4487,214.8315 22.8851,214.6332 Q23.3215,214.4348 23.7854,214.0076 Z " fill="#000000"/><text fill="#D8BC00" font-family="Open Sans,Avenir,Nunito,Arial,Helvetica,SansSerif" font-size="12.5" font-weight="bold" lengthAdjust="spacing" textLength="67.7083" x="38.5417" y="216.3086">HomePage</text><line style="stroke:#5E5E5E;stroke-width:1.0416666666666667;" x1="8.3333" x2="111.4583" y1="227.2786" y2="227.2786"/><line style="stroke:#5E5E5E;stroke-width:1.0416666666666667;" x1="8.3333" x2="111.4583" y1="235.612" y2="235.612"/><!--MD5=[818b680dd029f5404dc253254408b9c3]
class WicketExampleApplication--><rect fill="#282828" height="48.055" id="WicketExampleApplication" rx="8.3333" ry="8.3333" style="stroke:#5E5E5E;stroke-width:1.0416666666666667;" width="208.3333" x="1091.1458" y="53.7028"/><rect fill="#1B1B1A" height="31.3883" rx="8.3333" ry="8.3333" style="stroke:#1B1B1A;stroke-width:1.0416666666666667;" width="208.3333" x="1091.1458" y="53.7028"/><rect fill="#1B1B1A" height="8.3333" style="stroke:#1B1B1A;stroke-width:1.0416666666666667;" width="208.3333" x="1091.1458" y="76.7578"/><rect fill="none" height="48.055" id="WicketExampleApplication" rx="8.3333" ry="8.3333" style="stroke:#5E5E5E;stroke-width:1.0416666666666667;" width="208.3333" x="1091.1458" y="53.7028"/><ellipse cx="1105.7292" cy="69.397" fill="#0066CF" rx="10.4167" ry="10.4167" style="stroke:#0086EF;stroke-width:1.0416666666666667;"/><path d="M1107.6396,73.822 Q1107.2123,74.0417 1106.7424,74.1516 Q1106.2724,74.2615 1105.7536,74.2615 Q1103.9103,74.2615 1102.9399,73.0469 Q1101.9694,71.8323 1101.9694,69.5374 Q1101.9694,67.2363 1102.9399,66.0217 Q1103.9103,64.8071 1105.7536,64.8071 Q1106.2724,64.8071 1106.7485,64.917 Q1107.2245,65.0269 1107.6396,65.2466 L1107.6396,67.2485 Q1107.1757,66.8213 1106.7393,66.6229 Q1106.3029,66.4246 1105.839,66.4246 Q1104.8503,66.4246 1104.3467,67.2089 Q1103.8432,67.9932 1103.8432,69.5374 Q1103.8432,71.0754 1104.3467,71.8597 Q1104.8503,72.644 1105.839,72.644 Q1106.3029,72.644 1106.7393,72.4457 Q1107.1757,72.2473 1107.6396,71.8201 Z " fill="#000000"/><text fill="#D8BC00" font-family="Open Sans,Avenir,Nunito,Arial,Helvetica,SansSerif" font-size="12.5" font-weight="bold" lengthAdjust="spacing" textLength="170.8333" x="1122.3958" y="74.1211">WicketExampleApplication</text><line style="stroke:#5E5E5E;stroke-width:1.0416666666666667;" x1="1092.1875" x2="1298.4375" y1="85.0911" y2="85.0911"/><line style="stroke:#5E5E5E;stroke-width:1.0416666666666667;" x1="1092.1875" x2="1298.4375" y1="93.4245" y2="93.4245"/><!--MD5=[da41ee0dce7036ef6bef6978141dd7df]
class JSR356Application--><rect codeLine="12" fill="#282828" height="111.4563" id="JSR356Application" rx="8.3333" ry="8.3333" style="stroke:#5E5E5E;stroke-width:1.0416666666666667;" width="355.2083" x="1017.7083" y="164.1195"/><rect fill="#1B1B1A" height="31.3883" rx="8.3333" ry="8.3333" style="stroke:#1B1B1A;stroke-width:1.0416666666666667;" width="355.2083" x="1017.7083" y="164.1195"/><rect fill="#1B1B1A" height="8.3333" style="stroke:#1B1B1A;stroke-width:1.0416666666666667;" width="355.2083" x="1017.7083" y="187.1745"/><rect codeLine="12" fill="none" height="111.4563" id="JSR356Application" rx="8.3333" ry="8.3333" style="stroke:#5E5E5E;stroke-width:1.0416666666666667;" width="355.2083" x="1017.7083" y="164.1195"/><ellipse cx="1128.125" cy="179.8136" fill="#0066CF" rx="10.4167" ry="10.4167" style="stroke:#0086EF;stroke-width:1.0416666666666667;"/><path d="M1130.0354,184.2387 Q1129.6082,184.4584 1129.1382,184.5683 Q1128.6682,184.6781 1128.1494,184.6781 Q1126.3062,184.6781 1125.3357,183.4635 Q1124.3652,182.2489 1124.3652,179.954 Q1124.3652,177.653 1125.3357,176.4384 Q1126.3062,175.2238 1128.1494,175.2238 Q1128.6682,175.2238 1129.1443,175.3337 Q1129.6204,175.4435 1130.0354,175.6632 L1130.0354,177.6652 Q1129.5715,177.238 1129.1351,177.0396 Q1128.6987,176.8412 1128.2349,176.8412 Q1127.2461,176.8412 1126.7426,177.6255 Q1126.239,178.4098 1126.239,179.954 Q1126.239,181.4921 1126.7426,182.2764 Q1127.2461,183.0607 1128.2349,183.0607 Q1128.6987,183.0607 1129.1351,182.8623 Q1129.5715,182.664 1130.0354,182.2367 Z " fill="#000000"/><text fill="#D8BC00" font-family="Open Sans,Avenir,Nunito,Arial,Helvetica,SansSerif" font-size="12.5" font-weight="bold" lengthAdjust="spacing" textLength="119.7917" x="1151.0417" y="184.5378">JSR356Application</text><line style="stroke:#5E5E5E;stroke-width:1.5625;" x1="1018.75" x2="1371.875" y1="195.5078" y2="195.5078"/><line style="stroke:#5E5E5E;stroke-width:1.0416666666666667;" x1="1018.75" x2="1371.875" y1="203.8411" y2="203.8411"/><ellipse cx="1029.1667" cy="215.2995" fill="#84BE84" rx="3.125" ry="3.125" style="stroke:#038048;stroke-width:1.0416666666666667;"/><text fill="#D8BC00" font-family="Open Sans,Avenir,Nunito,Arial,Helvetica,SansSerif" font-size="11.4583" lengthAdjust="spacing" textLength="131.25" x="1040.625" y="222.2107">JSR356Application get()</text><ellipse cx="1029.1667" cy="258.9559" fill="#84BE84" rx="3.125" ry="3.125" style="stroke:#038048;stroke-width:1.0416666666666667;"/><text fill="#D8BC00" font-family="Open Sans,Avenir,Nunito,Arial,Helvetica,SansSerif" font-size="11.4583" lengthAdjust="spacing" textLength="322.9167" x="1040.625" y="265.8671">ScheduledExecutorService getScheduledExecutorService()</text><line style="stroke:#5E5E5E;stroke-width:1.0416666666666667;" x1="1018.75" x2="1159.8958" y1="241.7918" y2="241.7918"/><text fill="#D8BC00" font-family="Open Sans,Avenir,Nunito,Arial,Helvetica,SansSerif" font-size="11.4583" lengthAdjust="spacing" textLength="64.5833" x="1163.0208" y="245.6014">(functional)</text><line style="stroke:#5E5E5E;stroke-width:1.0416666666666667;" x1="1230.7292" x2="1371.875" y1="241.7918" y2="241.7918"/><!--MD5=[797a495b3a7483fe4511621c40a3205a]
class WebSocketBehaviorDemoPage--><rect codeLine="21" fill="#282828" height="48.055" id="WebSocketBehaviorDemoPage" rx="8.3333" ry="8.3333" style="stroke:#5E5E5E;stroke-width:1.0416666666666667;" width="232.2917" x="148.9583" y="195.8903"/><rect fill="#1B1B1A" height="31.3883" rx="8.3333" ry="8.3333" style="stroke:#1B1B1A;stroke-width:1.0416666666666667;" width="232.2917" x="148.9583" y="195.8903"/><rect fill="#1B1B1A" height="8.3333" style="stroke:#1B1B1A;stroke-width:1.0416666666666667;" width="232.2917" x="148.9583" y="218.9453"/><rect codeLine="21" fill="none" height="48.055" id="WebSocketBehaviorDemoPage" rx="8.3333" ry="8.3333" style="stroke:#5E5E5E;stroke-width:1.0416666666666667;" width="232.2917" x="148.9583" y="195.8903"/><ellipse cx="163.5417" cy="211.5845" fill="#0066CF" rx="10.4167" ry="10.4167" style="stroke:#0086EF;stroke-width:1.0416666666666667;"/><path d="M165.4521,216.0095 Q165.0248,216.2292 164.5549,216.3391 Q164.0849,216.449 163.5661,216.449 Q161.7228,216.449 160.7524,215.2344 Q159.7819,214.0198 159.7819,211.7249 Q159.7819,209.4238 160.7524,208.2092 Q161.7228,206.9946 163.5661,206.9946 Q164.0849,206.9946 164.561,207.1045 Q165.037,207.2144 165.4521,207.4341 L165.4521,209.436 Q164.9882,209.0088 164.5518,208.8104 Q164.1154,208.6121 163.6515,208.6121 Q162.6628,208.6121 162.1592,209.3964 Q161.6557,210.1807 161.6557,211.7249 Q161.6557,213.2629 162.1592,214.0472 Q162.6628,214.8315 163.6515,214.8315 Q164.1154,214.8315 164.5518,214.6332 Q164.9882,214.4348 165.4521,214.0076 Z " fill="#000000"/><text fill="#D8BC00" font-family="Open Sans,Avenir,Nunito,Arial,Helvetica,SansSerif" font-size="12.5" font-weight="bold" lengthAdjust="spacing" textLength="194.7917" x="180.2083" y="216.3086">WebSocketBehaviorDemoPage</text><line style="stroke:#5E5E5E;stroke-width:1.0416666666666667;" x1="150" x2="380.2083" y1="227.2786" y2="227.2786"/><line style="stroke:#5E5E5E;stroke-width:1.0416666666666667;" x1="150" x2="380.2083" y1="235.612" y2="235.612"/><!--MD5=[8e8a5934efb90e6fc9cee8d95d23c6b0]
class WebSocketMultiTabResourceDemoPage--><rect codeLine="26" fill="#282828" height="83.3781" id="WebSocketMultiTabResourceDemoPage" rx="8.3333" ry="8.3333" style="stroke:#5E5E5E;stroke-width:1.0416666666666667;" width="291.6667" x="418.2292" y="178.182"/><rect fill="#1B1B1A" height="31.3883" rx="8.3333" ry="8.3333" style="stroke:#1B1B1A;stroke-width:1.0416666666666667;" width="291.6667" x="418.2292" y="178.182"/><rect fill="#1B1B1A" height="8.3333" style="stroke:#1B1B1A;stroke-width:1.0416666666666667;" width="291.6667" x="418.2292" y="201.237"/><rect codeLine="26" fill="none" height="83.3781" id="WebSocketMultiTabResourceDemoPage" rx="8.3333" ry="8.3333" style="stroke:#5E5E5E;stroke-width:1.0416666666666667;" width="291.6667" x="418.2292" y="178.182"/><ellipse cx="432.8125" cy="193.8761" fill="#0066CF" rx="10.4167" ry="10.4167" style="stroke:#0086EF;stroke-width:1.0416666666666667;"/><path d="M434.7229,198.3012 Q434.2957,198.5209 433.8257,198.6308 Q433.3557,198.7406 432.8369,198.7406 Q430.9937,198.7406 430.0232,197.526 Q429.0527,196.3114 429.0527,194.0165 Q429.0527,191.7155 430.0232,190.5009 Q430.9937,189.2863 432.8369,189.2863 Q433.3557,189.2863 433.8318,189.3962 Q434.3079,189.506 434.7229,189.7257 L434.7229,191.7277 Q434.259,191.3005 433.8226,191.1021 Q433.3862,190.9037 432.9224,190.9037 Q431.9336,190.9037 431.4301,191.688 Q430.9265,192.4723 430.9265,194.0165 Q430.9265,195.5546 431.4301,196.3389 Q431.9336,197.1232 432.9224,197.1232 Q433.3862,197.1232 433.8226,196.9248 Q434.259,196.7265 434.7229,196.2992 Z " fill="#000000"/><text fill="#D8BC00" font-family="Open Sans,Avenir,Nunito,Arial,Helvetica,SansSerif" font-size="12.5" font-weight="bold" lengthAdjust="spacing" textLength="254.1667" x="449.4792" y="198.6003">WebSocketMultiTabResourceDemoPage</text><line style="stroke:#5E5E5E;stroke-width:1.5625;" x1="419.2708" x2="708.8542" y1="209.5703" y2="209.5703"/><ellipse cx="429.6875" cy="244.9402" fill="#84BE84" rx="3.125" ry="3.125" style="stroke:#038048;stroke-width:1.0416666666666667;"/><text fill="#D8BC00" font-family="Open Sans,Avenir,Nunito,Arial,Helvetica,SansSerif" font-size="11.4583" lengthAdjust="spacing" textLength="226.0417" x="441.1458" y="251.8514">WebSocketMultiTabResourceDemoPage()</text><line style="stroke:#5E5E5E;stroke-width:1.0416666666666667;" x1="419.2708" x2="520.3125" y1="227.7761" y2="227.7761"/><text fill="#D8BC00" font-family="Open Sans,Avenir,Nunito,Arial,Helvetica,SansSerif" font-size="11.4583" lengthAdjust="spacing" textLength="81.25" x="523.4375" y="231.5857">(constructors)</text><line style="stroke:#5E5E5E;stroke-width:1.0416666666666667;" x1="607.8125" x2="708.8542" y1="227.7761" y2="227.7761"/><!--MD5=[2971038135a5ec30a171397ecf036b74]
class WebSocketResourceDemoPage--><rect codeLine="33" fill="#282828" height="83.3781" id="WebSocketResourceDemoPage" rx="8.3333" ry="8.3333" style="stroke:#5E5E5E;stroke-width:1.0416666666666667;" width="234.375" x="746.875" y="178.182"/><rect fill="#1B1B1A" height="31.3883" rx="8.3333" ry="8.3333" style="stroke:#1B1B1A;stroke-width:1.0416666666666667;" width="234.375" x="746.875" y="178.182"/><rect fill="#1B1B1A" height="8.3333" style="stroke:#1B1B1A;stroke-width:1.0416666666666667;" width="234.375" x="746.875" y="201.237"/><rect codeLine="33" fill="none" height="83.3781" id="WebSocketResourceDemoPage" rx="8.3333" ry="8.3333" style="stroke:#5E5E5E;stroke-width:1.0416666666666667;" width="234.375" x="746.875" y="178.182"/><ellipse cx="761.4583" cy="193.8761" fill="#0066CF" rx="10.4167" ry="10.4167" style="stroke:#0086EF;stroke-width:1.0416666666666667;"/><path d="M763.3687,198.3012 Q762.9415,198.5209 762.4715,198.6308 Q762.0015,198.7406 761.4827,198.7406 Q759.6395,198.7406 758.669,197.526 Q757.6986,196.3114 757.6986,194.0165 Q757.6986,191.7155 758.669,190.5009 Q759.6395,189.2863 761.4827,189.2863 Q762.0015,189.2863 762.4776,189.3962 Q762.9537,189.506 763.3687,189.7257 L763.3687,191.7277 Q762.9049,191.3005 762.4685,191.1021 Q762.0321,190.9037 761.5682,190.9037 Q760.5794,190.9037 760.0759,191.688 Q759.5723,192.4723 759.5723,194.0165 Q759.5723,195.5546 760.0759,196.3389 Q760.5794,197.1232 761.5682,197.1232 Q762.0321,197.1232 762.4685,196.9248 Q762.9049,196.7265 763.3687,196.2992 Z " fill="#000000"/><text fill="#D8BC00" font-family="Open Sans,Avenir,Nunito,Arial,Helvetica,SansSerif" font-size="12.5" font-weight="bold" lengthAdjust="spacing" textLength="196.875" x="778.125" y="198.6003">WebSocketResourceDemoPage</text><line style="stroke:#5E5E5E;stroke-width:1.5625;" x1="747.9167" x2="980.2083" y1="209.5703" y2="209.5703"/><ellipse cx="758.3333" cy="244.9402" fill="#84BE84" rx="3.125" ry="3.125" style="stroke:#038048;stroke-width:1.0416666666666667;"/><text fill="#D8BC00" font-family="Open Sans,Avenir,Nunito,Arial,Helvetica,SansSerif" font-size="11.4583" lengthAdjust="spacing" textLength="178.125" x="769.7917" y="251.8514">WebSocketResourceDemoPage()</text><line style="stroke:#5E5E5E;stroke-width:1.0416666666666667;" x1="747.9167" x2="820.3125" y1="227.7761" y2="227.7761"/><text fill="#D8BC00" font-family="Open Sans,Avenir,Nunito,Arial,Helvetica,SansSerif" font-size="11.4583" lengthAdjust="spacing" textLength="81.25" x="823.4375" y="231.5857">(constructors)</text><line style="stroke:#5E5E5E;stroke-width:1.0416666666666667;" x1="907.8125" x2="980.2083" y1="227.7761" y2="227.7761"/><!--MD5=[d101864e95fbdcea1c24ae3939dd4bc8]
reverse link WicketExamplePage to HomePage--><path codeLine="6" d="M312.0938,99.9945 C256.4792,113.8278 187.75,134.8174 130.7292,164.1195 C114.2813,172.5674 97.8229,184.984 84.9167,195.8382 " fill="none" id="WicketExamplePage-backto-HomePage" style="stroke:#545454;stroke-width:1.5625;"/><polygon fill="none" points="310.75,92.8174,332.7083,95.0361,314.1563,106.9945,310.75,92.8174" style="stroke:#545454;stroke-width:1.5625;"/><!--MD5=[1d8608abad7763305b1210a6845db2bd]
reverse link WicketExampleApplication to JSR356Application--><path codeLine="11" d="M1195.3125,122.7028 C1195.3125,135.7549 1195.3125,150.2028 1195.3125,163.859 " fill="none" id="WicketExampleApplication-backto-JSR356Application" style="stroke:#545454;stroke-width:1.5625;"/><polygon fill="none" points="1188.0208,122.6715,1195.3125,101.8382,1202.6042,122.6715,1188.0208,122.6715" style="stroke:#545454;stroke-width:1.5625;"/><!--MD5=[3a08f3525b366e3f6775c1a1533efb5f]
reverse link WicketExamplePage to WebSocketBehaviorDemoPage--><path codeLine="20" d="M375.0521,116.1195 C347.9688,141.4111 313.0521,174.0257 289.9063,195.6403 " fill="none" id="WicketExamplePage-backto-WebSocketBehaviorDemoPage" style="stroke:#545454;stroke-width:1.5625;"/><polygon fill="none" points="370.1354,110.734,390.3333,101.8382,380.0833,121.3903,370.1354,110.734" style="stroke:#545454;stroke-width:1.5625;"/><!--MD5=[bfc3c4b169973b67b5bf36825f77964c]
reverse link WicketExamplePage to WebSocketMultiTabResourceDemoPage--><path codeLine="25" d="M454.8854,116.1195 C475.1979,135.2236 499.9479,158.5049 520.75,178.0674 " fill="none" id="WicketExamplePage-backto-WebSocketMultiTabResourceDemoPage" style="stroke:#545454;stroke-width:1.5625;"/><polygon fill="none" points="449.8854,121.4215,439.6979,101.8382,459.875,110.7965,449.8854,121.4215" style="stroke:#545454;stroke-width:1.5625;"/><!--MD5=[57a7181599620bbaaa8ba5d9e71bac7a]
reverse link WicketExamplePage to WebSocketResourceDemoPage--><path codeLine="32" d="M517.9688,103.6611 C579.3542,119.3278 658.5313,140.9215 727.6042,164.1195 C740.3021,168.3903 753.5417,173.2028 766.5417,178.1611 " fill="none" id="WicketExamplePage-backto-WebSocketResourceDemoPage" style="stroke:#545454;stroke-width:1.5625;"/><polygon fill="none" points="515.875,110.6507,497.4583,98.4736,519.4479,96.5153,515.875,110.6507" style="stroke:#545454;stroke-width:1.5625;"/><!--MD5=[8f19ca05cf42f77afae18447efb5c9d4]
@startuml

    !include lexakai.theme
    
    title "org.apache.wicket.examples.websocket"
    
    WicketExamplePage <|- - HomePage
    class HomePage
    {
    }
    
    WicketExampleApplication <|- - JSR356Application
    class JSR356Application
    {
        - -
        +JSR356Application get()
        - -(functional)- -
        +ScheduledExecutorService getScheduledExecutorService()
    }
    
    WicketExamplePage <|- - WebSocketBehaviorDemoPage
    class WebSocketBehaviorDemoPage
    {
    }
    
    WicketExamplePage <|- - WebSocketMultiTabResourceDemoPage
    class WebSocketMultiTabResourceDemoPage
    {
        - -(constructors)- -
        +WebSocketMultiTabResourceDemoPage()
    }
    
    WicketExamplePage <|- - WebSocketResourceDemoPage
    class WebSocketResourceDemoPage
    {
        - -(constructors)- -
        +WebSocketResourceDemoPage()
    }
    
@enduml

@startuml









skinparam backgroundColor #333333






skinparam  {
    defaultFontName   "Open Sans,Avenir,Nunito,Arial,Helvetica,SansSerif"
    defaultFontSize   12
    defaultTextAlignment left
    shadowing false
    RoundCorner 10
    TitleFontSize 18
}

skinparam defaultFontName       "Open Sans,Avenir,Nunito,Arial,Helvetica,SansSerif"
skinparam defaultFontSize       12
skinparam dpi                   100
skinparam shadowing             false
skinparam roundcorner           16
skinparam ParticipantPadding    40
skinparam BoxPadding            40
skinparam Padding               3
skinparam ArrowColor            #545454
skinparam stereotype {
    CBackgroundColor #0066cf
    CBorderColor #0086ef
    ABackgroundColor #C8Ac00
    ABorderColor #D8Bc00
    IBackgroundColor #008400
    IBorderColor #239c23
    EBackgroundColor #cf6300
    EBorderColor #ef8300
    NBackgroundColor #3380b9
    NBorderColor #004d86
}
skinparam title {
	FontColor	                 #c0c0c0
 	BorderColor                  #545454
	FontSize	    	         20
	BorderRoundCorner            16
	BorderThickness 	         1
	BackgroundColor              #48494b
}


skinparam legend {
	BackgroundColor #303030
	BorderColor #404040
	FontColor #a0a0a0
}

	skinparam swimlane {
	BorderColor #5e5e5e
	BorderThickness 2
	TitleBackgroundColor  #6d6d6d-#484848
	TitleFontColor #303030
}

skinparam activity {
		FontColor #C8Ac00
	BorderColor #333333
	BackgroundColor #333333-#333333
	BarColor #00FF00
	StartColor #0060a8
	EndColor #0060a8
	DiamondBackgroundColor #6d6d6d-#3a3a3a
  	DiamondBorderColor #3a3a3a
  	DiamondFontColor #fefefe
}


skinparam participant {
		FontColor #C8Ac00
	BorderColor #333333
	BackgroundColor #333333-#333333
	ParticipantBorderThickness 2
}


skinparam actor {
		FontColor #C8Ac00
	BorderColor #333333
	BackgroundColor #333333-#333333
}


skinparam arrow {
	Thickness 1.5
	Color #545454
	FontColor #a0a0a0
    FontStyle bold
    MessageAlignment center
}



skinparam sequence {
	BorderColor #303030
	TitleFontColor #303030
	BackgroundColor #333333
	StartColor #303030
	EndColor #303030
	BoxBackgroundColor #333333
	BoxBorderColor #484848
	BoxFontColor #484848
	LifeLineBorderColor #484848
	LifeLineBorderThickness 2
	LifeLineBackgroundColor #3a3a3a
	GroupBorderColor #484848
	GroupFontColor #484848
	GroupHeaderFontColor #0060a8
	GroupBackgroundColor #484848
	GroupHeaderBackgroundColor #333333
	DividerBackgroundColor #484848
    DividerBorderColor #484848
    DividerBorderThickness 2
    DividerFontColor #D8Bc00
	ReferenceBackgroundColor #333333
	ReferenceBorderColor #484848
	ReferenceFontColor #fefefe
	ReferenceHeaderBackgroundColor #484848
}


skinparam partition {
	BorderColor #303030
	FontColor #333333
	BackgroundColor #333333
}


skinparam collections {
		FontColor #C8Ac00
	BorderColor #333333
	BackgroundColor #333333-#333333
}


skinparam control {
		FontColor #C8Ac00
	BorderColor #333333
	BackgroundColor #333333-#333333
}


skinparam entity {
		FontColor #C8Ac00
	BorderColor #333333
	BackgroundColor #333333-#333333
}


skinparam boundary {
		FontColor #C8Ac00
	BorderColor #333333
	BackgroundColor #333333-#333333
}


skinparam agent {
	BackgroundColor #ff8000
	BorderColor #ff9933
	FontColor #484848
}


skinparam note {
	BorderThickness 1
	BackgroundColor #1b1b1a
	BorderColor #5e5e5e
	FontSize 11
	FontColor #a0a0a0
}


skinparam artifact {
	BorderThickness 10
	BorderColor #5e5e5e
	BackgroundColor #1b1b1a
	FontColor #D8Bc00
}


skinparam component {
		FontColor #C8Ac00
	BorderColor #333333
	BackgroundColor #333333-#333333
}


skinparam interface {
	BackgroundColor  #008400
	BorderColor  #007F00
	FontColor #484848
}


skinparam storage {
	BackgroundColor #ff8000
  	BorderColor #cc6600
	FontColor #222222
}


skinparam node {
	BackgroundColor #333333
	BorderColor #333333
	FontColor #C8Ac00
}


skinparam cloud {
	BackgroundColor #484848-black
	BorderColor #484848
	FontColor #D8Bc00
}


skinparam database {
		FontColor #C8Ac00
	BorderColor #333333
	BackgroundColor #333333-#333333
	BackgroundColor  #333333
}


skinparam class {
		FontColor #C8Ac00
	BorderColor #333333
	BackgroundColor #333333-#333333
	HeaderBackgroundColor #1b1b1a
    BackgroundColor #282828
    BorderColor #5e5e5e
 	StereotypeFontColor #a0a0a0
    StereotypeFontStyle bold
	BorderThickness 1
	AttributeFontColor #D8Bc00
	AttributeFontSize 11
    FontColor #D8Bc00
    FontStyle bold
}


skinparam object {
		FontColor #C8Ac00
	BorderColor #333333
	BackgroundColor #333333-#333333
	StereotypeFontColor #484848
	BorderThickness 1
	AttributeFontColor #fefefe
	AttributeFontSize 11
}


skinparam usecase {
		FontColor #C8Ac00
	BorderColor #333333
	BackgroundColor #333333-#333333
	BorderThickness 2
	StereotypeFontColor #303030
}


skinparam rectangle {
		FontColor #C8Ac00
	BorderColor #333333
	BackgroundColor #333333-#333333
	BackgroundColor #333333
	BorderThickness 2
	StereotypeFontColor #303030
}


skinparam package {
		FontColor #C8Ac00
	BorderColor #333333
	BackgroundColor #333333-#333333
	BackgroundColor #333333
	BorderThickness 2
}


skinparam folder {
	BackgroundColor #6d6d6d
  	BorderColor #ff8000
	FontColor #ff8000
	BorderThickness 2
}


skinparam frame {
	BackgroundColor #6d6d6d
  	BorderColor #0060a8
	FontColor #0060a8
	BorderThickness 2
}


skinparam state {
		FontColor #C8Ac00
	BorderColor #333333
	BackgroundColor #333333-#333333
	StartColor #0060a8
	EndColor #0060a8
	AttributeFontColor #fefefe
	AttributeFontSize 11
}


skinparam queue {
		FontColor #C8Ac00
	BorderColor #333333
	BackgroundColor #333333-#333333
}


skinparam card {
	BackgroundColor #0060a8
	BorderColor #004d86
	FontColor $INFO_TEXT
}


skinparam file {
	BackgroundColor #6d6d6d-#484848
	BorderColor #0060a8
	FontColor #fefefe
}


skinparam stack {
		FontColor #C8Ac00
	BorderColor #333333
	BackgroundColor #333333-#333333
}

    
    title "org.apache.wicket.examples.websocket"
    
    WicketExamplePage <|- - HomePage
    class HomePage
    {
    }
    
    WicketExampleApplication <|- - JSR356Application
    class JSR356Application
    {
        - -
        +JSR356Application get()
        - -(functional)- -
        +ScheduledExecutorService getScheduledExecutorService()
    }
    
    WicketExamplePage <|- - WebSocketBehaviorDemoPage
    class WebSocketBehaviorDemoPage
    {
    }
    
    WicketExamplePage <|- - WebSocketMultiTabResourceDemoPage
    class WebSocketMultiTabResourceDemoPage
    {
        - -(constructors)- -
        +WebSocketMultiTabResourceDemoPage()
    }
    
    WicketExamplePage <|- - WebSocketResourceDemoPage
    class WebSocketResourceDemoPage
    {
        - -(constructors)- -
        +WebSocketResourceDemoPage()
    }
    
@enduml

PlantUML version 1.2021.01(Tue Feb 02 00:55:08 MST 2021)
(GPL source distribution)
Java Runtime: Java(TM) SE Runtime Environment
JVM: Java HotSpot(TM) 64-Bit Server VM
Default Encoding: UTF-8
Language: en
Country: US
--></g></svg>