<?xml version="1.0" encoding="UTF-8" standalone="no"?><svg xmlns="http://www.w3.org/2000/svg" xmlns:xlink="http://www.w3.org/1999/xlink" contentScriptType="application/ecmascript" contentStyleType="text/css" height="439.5833px" preserveAspectRatio="none" style="width:719px;height:439px;background:#333333;" version="1.1" viewBox="0 0 719 439" width="719.7917px" zoomAndPan="magnify"><defs/><g><rect fill="#48494B" height="41.2028" rx="8.3333" ry="8.3333" style="stroke:#545454;stroke-width:1.0416666666666667;" width="401.0417" x="152.3438" y="2.0833"/><text fill="#C0C0C0" font-family="Open Sans,Avenir,Nunito,Arial,Helvetica,SansSerif" font-size="20.8333" lengthAdjust="spacing" textLength="378.125" x="163.8021" y="30.5583">org.apache.wicket.examples.template</text><!--MD5=[0174392a0c212c3b3e97bee69152624c]
class Panel--><rect fill="#282828" height="48.055" id="Panel" rx="8.3333" ry="8.3333" style="stroke:#5E5E5E;stroke-width:1.0416666666666667;" width="71.875" x="176.0417" y="53.7028"/><rect fill="#1B1B1A" height="31.3883" rx="8.3333" ry="8.3333" style="stroke:#1B1B1A;stroke-width:1.0416666666666667;" width="71.875" x="176.0417" y="53.7028"/><rect fill="#1B1B1A" height="8.3333" style="stroke:#1B1B1A;stroke-width:1.0416666666666667;" width="71.875" x="176.0417" y="76.7578"/><rect fill="none" height="48.055" id="Panel" rx="8.3333" ry="8.3333" style="stroke:#5E5E5E;stroke-width:1.0416666666666667;" width="71.875" x="176.0417" y="53.7028"/><ellipse cx="190.625" cy="69.397" fill="#0066CF" rx="10.4167" ry="10.4167" style="stroke:#0086EF;stroke-width:1.0416666666666667;"/><path d="M192.5354,73.822 Q192.1082,74.0417 191.6382,74.1516 Q191.1682,74.2615 190.6494,74.2615 Q188.8062,74.2615 187.8357,73.0469 Q186.8652,71.8323 186.8652,69.5374 Q186.8652,67.2363 187.8357,66.0217 Q188.8062,64.8071 190.6494,64.8071 Q191.1682,64.8071 191.6443,64.917 Q192.1204,65.0269 192.5354,65.2466 L192.5354,67.2485 Q192.0715,66.8213 191.6351,66.6229 Q191.1987,66.4246 190.7349,66.4246 Q189.7461,66.4246 189.2426,67.2089 Q188.739,67.9932 188.739,69.5374 Q188.739,71.0754 189.2426,71.8597 Q189.7461,72.644 190.7349,72.644 Q191.1987,72.644 191.6351,72.4457 Q192.0715,72.2473 192.5354,71.8201 Z " fill="#000000"/><text fill="#D8BC00" font-family="Open Sans,Avenir,Nunito,Arial,Helvetica,SansSerif" font-size="12.5" font-weight="bold" lengthAdjust="spacing" textLength="34.375" x="207.2917" y="74.1211">Panel</text><line style="stroke:#5E5E5E;stroke-width:1.0416666666666667;" x1="177.0833" x2="246.875" y1="85.0911" y2="85.0911"/><line style="stroke:#5E5E5E;stroke-width:1.0416666666666667;" x1="177.0833" x2="246.875" y1="93.4245" y2="93.4245"/><!--MD5=[bbcf74e46ca60df756e22cd554d2be7c]
class Banner--><rect codeLine="7" fill="#282828" height="103.123" id="Banner" rx="8.3333" ry="8.3333" style="stroke:#5E5E5E;stroke-width:1.0416666666666667;" width="179.1667" x="122.3958" y="164.1195"/><rect fill="#1B1B1A" height="31.3883" rx="8.3333" ry="8.3333" style="stroke:#1B1B1A;stroke-width:1.0416666666666667;" width="179.1667" x="122.3958" y="164.1195"/><rect fill="#1B1B1A" height="8.3333" style="stroke:#1B1B1A;stroke-width:1.0416666666666667;" width="179.1667" x="122.3958" y="187.1745"/><rect codeLine="7" fill="none" height="103.123" id="Banner" rx="8.3333" ry="8.3333" style="stroke:#5E5E5E;stroke-width:1.0416666666666667;" width="179.1667" x="122.3958" y="164.1195"/><ellipse cx="182.2917" cy="179.8136" fill="#C8AC00" rx="10.4167" ry="10.4167" style="stroke:#D8BC00;stroke-width:1.0416666666666667;"/><path d="M181.8848,176.5157 L181.0364,180.245 L182.7393,180.245 Z M180.7861,174.8678 L182.9895,174.8678 L185.4492,183.9803 L183.6487,183.9803 L183.0872,181.7281 L180.6763,181.7281 L180.127,183.9803 L178.3264,183.9803 Z " fill="#000000"/><text fill="#D8BC00" font-family="Open Sans,Avenir,Nunito,Arial,Helvetica,SansSerif" font-size="12.5" font-style="italic" font-weight="bold" lengthAdjust="spacing" textLength="44.7917" x="205.2083" y="184.5378">Banner</text><line style="stroke:#5E5E5E;stroke-width:1.5625;" x1="123.4375" x2="300.5208" y1="195.5078" y2="195.5078"/><ellipse cx="133.8542" cy="230.8777" fill="#84BE84" rx="3.125" ry="3.125" style="stroke:#038048;stroke-width:1.0416666666666667;"/><text fill="#D8BC00" font-family="Open Sans,Avenir,Nunito,Arial,Helvetica,SansSerif" font-size="11.4583" lengthAdjust="spacing" textLength="80.2083" x="145.3125" y="237.7889">Banner(String)</text><ellipse cx="133.8542" cy="250.6226" fill="#84BE84" rx="3.125" ry="3.125" style="stroke:#038048;stroke-width:1.0416666666666667;"/><text fill="#D8BC00" font-family="Open Sans,Avenir,Nunito,Arial,Helvetica,SansSerif" font-size="11.4583" lengthAdjust="spacing" textLength="146.875" x="145.3125" y="257.5338">Banner(String, IModel&lt;?&gt;)</text><line style="stroke:#5E5E5E;stroke-width:1.0416666666666667;" x1="123.4375" x2="168.2292" y1="213.7136" y2="213.7136"/><text fill="#D8BC00" font-family="Open Sans,Avenir,Nunito,Arial,Helvetica,SansSerif" font-size="11.4583" lengthAdjust="spacing" textLength="81.25" x="171.3542" y="217.5232">(constructors)</text><line style="stroke:#5E5E5E;stroke-width:1.0416666666666667;" x1="255.7292" x2="300.5208" y1="213.7136" y2="213.7136"/><!--MD5=[68d642d1f4b53e11ade8086cc8d72ba1]
class Banner1--><rect codeLine="15" fill="#282828" height="103.123" id="Banner1" rx="8.3333" ry="8.3333" style="stroke:#5E5E5E;stroke-width:1.0416666666666667;" width="186.4583" x="7.2917" y="329.7445"/><rect fill="#1B1B1A" height="31.3883" rx="8.3333" ry="8.3333" style="stroke:#1B1B1A;stroke-width:1.0416666666666667;" width="186.4583" x="7.2917" y="329.7445"/><rect fill="#1B1B1A" height="8.3333" style="stroke:#1B1B1A;stroke-width:1.0416666666666667;" width="186.4583" x="7.2917" y="352.7995"/><rect codeLine="15" fill="none" height="103.123" id="Banner1" rx="8.3333" ry="8.3333" style="stroke:#5E5E5E;stroke-width:1.0416666666666667;" width="186.4583" x="7.2917" y="329.7445"/><ellipse cx="57.2917" cy="345.4386" fill="#0066CF" rx="10.4167" ry="10.4167" style="stroke:#0086EF;stroke-width:1.0416666666666667;"/><path d="M59.2021,349.8637 Q58.7748,350.0834 58.3049,350.1933 Q57.8349,350.3031 57.3161,350.3031 Q55.4728,350.3031 54.5024,349.0885 Q53.5319,347.8739 53.5319,345.579 Q53.5319,343.278 54.5024,342.0634 Q55.4728,340.8488 57.3161,340.8488 Q57.8349,340.8488 58.311,340.9587 Q58.787,341.0685 59.2021,341.2882 L59.2021,343.2902 Q58.7382,342.863 58.3018,342.6646 Q57.8654,342.4662 57.4015,342.4662 Q56.4128,342.4662 55.9092,343.2505 Q55.4057,344.0348 55.4057,345.579 Q55.4057,347.1171 55.9092,347.9014 Q56.4128,348.6857 57.4015,348.6857 Q57.8654,348.6857 58.3018,348.4873 Q58.7382,348.289 59.2021,347.8617 Z " fill="#000000"/><text fill="#D8BC00" font-family="Open Sans,Avenir,Nunito,Arial,Helvetica,SansSerif" font-size="12.5" font-weight="bold" lengthAdjust="spacing" textLength="53.125" x="80.2083" y="350.1628">Banner1</text><rect fill="#333333" height="23.055" style="stroke:#A0A0A0;stroke-width:1.0416666666666667;stroke-dasharray:2.0,2.0;" width="16.6667" x="180.2083" y="326.6195"/><text fill="#A0A0A0" font-family="Open Sans,Avenir,Nunito,Arial,Helvetica,SansSerif" font-size="12.5" font-weight="bold" lengthAdjust="spacing" textLength="8.3333" x="184.375" y="342.8711">T</text><line style="stroke:#5E5E5E;stroke-width:1.5625;" x1="8.3333" x2="192.7083" y1="361.1328" y2="361.1328"/><ellipse cx="18.75" cy="396.5027" fill="#84BE84" rx="3.125" ry="3.125" style="stroke:#038048;stroke-width:1.0416666666666667;"/><text fill="#D8BC00" font-family="Open Sans,Avenir,Nunito,Arial,Helvetica,SansSerif" font-size="11.4583" lengthAdjust="spacing" textLength="87.5" x="30.2083" y="403.4139">Banner1(String)</text><ellipse cx="18.75" cy="416.2476" fill="#84BE84" rx="3.125" ry="3.125" style="stroke:#038048;stroke-width:1.0416666666666667;"/><text fill="#D8BC00" font-family="Open Sans,Avenir,Nunito,Arial,Helvetica,SansSerif" font-size="11.4583" lengthAdjust="spacing" textLength="154.1667" x="30.2083" y="423.1588">Banner1(String, IModel&lt;?&gt;)</text><line style="stroke:#5E5E5E;stroke-width:1.0416666666666667;" x1="8.3333" x2="56.7708" y1="379.3386" y2="379.3386"/><text fill="#D8BC00" font-family="Open Sans,Avenir,Nunito,Arial,Helvetica,SansSerif" font-size="11.4583" lengthAdjust="spacing" textLength="81.25" x="59.8958" y="383.1482">(constructors)</text><line style="stroke:#5E5E5E;stroke-width:1.0416666666666667;" x1="144.2708" x2="192.7083" y1="379.3386" y2="379.3386"/><!--MD5=[f00b98480b05709d4f4e0d35052f0162]
class Banner2--><rect codeLine="23" fill="#282828" height="103.123" id="Banner2" rx="8.3333" ry="8.3333" style="stroke:#5E5E5E;stroke-width:1.0416666666666667;" width="186.4583" x="230.2083" y="329.7445"/><rect fill="#1B1B1A" height="31.3883" rx="8.3333" ry="8.3333" style="stroke:#1B1B1A;stroke-width:1.0416666666666667;" width="186.4583" x="230.2083" y="329.7445"/><rect fill="#1B1B1A" height="8.3333" style="stroke:#1B1B1A;stroke-width:1.0416666666666667;" width="186.4583" x="230.2083" y="352.7995"/><rect codeLine="23" fill="none" height="103.123" id="Banner2" rx="8.3333" ry="8.3333" style="stroke:#5E5E5E;stroke-width:1.0416666666666667;" width="186.4583" x="230.2083" y="329.7445"/><ellipse cx="280.2083" cy="345.4386" fill="#0066CF" rx="10.4167" ry="10.4167" style="stroke:#0086EF;stroke-width:1.0416666666666667;"/><path d="M282.1187,349.8637 Q281.6915,350.0834 281.2215,350.1933 Q280.7515,350.3031 280.2327,350.3031 Q278.3895,350.3031 277.419,349.0885 Q276.4486,347.8739 276.4486,345.579 Q276.4486,343.278 277.419,342.0634 Q278.3895,340.8488 280.2327,340.8488 Q280.7515,340.8488 281.2276,340.9587 Q281.7037,341.0685 282.1187,341.2882 L282.1187,343.2902 Q281.6549,342.863 281.2185,342.6646 Q280.7821,342.4662 280.3182,342.4662 Q279.3294,342.4662 278.8259,343.2505 Q278.3223,344.0348 278.3223,345.579 Q278.3223,347.1171 278.8259,347.9014 Q279.3294,348.6857 280.3182,348.6857 Q280.7821,348.6857 281.2185,348.4873 Q281.6549,348.289 282.1187,347.8617 Z " fill="#000000"/><text fill="#D8BC00" font-family="Open Sans,Avenir,Nunito,Arial,Helvetica,SansSerif" font-size="12.5" font-weight="bold" lengthAdjust="spacing" textLength="53.125" x="303.125" y="350.1628">Banner2</text><rect fill="#333333" height="23.055" style="stroke:#A0A0A0;stroke-width:1.0416666666666667;stroke-dasharray:2.0,2.0;" width="16.6667" x="403.125" y="326.6195"/><text fill="#A0A0A0" font-family="Open Sans,Avenir,Nunito,Arial,Helvetica,SansSerif" font-size="12.5" font-weight="bold" lengthAdjust="spacing" textLength="8.3333" x="407.2917" y="342.8711">T</text><line style="stroke:#5E5E5E;stroke-width:1.5625;" x1="231.25" x2="415.625" y1="361.1328" y2="361.1328"/><ellipse cx="241.6667" cy="396.5027" fill="#84BE84" rx="3.125" ry="3.125" style="stroke:#038048;stroke-width:1.0416666666666667;"/><text fill="#D8BC00" font-family="Open Sans,Avenir,Nunito,Arial,Helvetica,SansSerif" font-size="11.4583" lengthAdjust="spacing" textLength="87.5" x="253.125" y="403.4139">Banner2(String)</text><ellipse cx="241.6667" cy="416.2476" fill="#84BE84" rx="3.125" ry="3.125" style="stroke:#038048;stroke-width:1.0416666666666667;"/><text fill="#D8BC00" font-family="Open Sans,Avenir,Nunito,Arial,Helvetica,SansSerif" font-size="11.4583" lengthAdjust="spacing" textLength="154.1667" x="253.125" y="423.1588">Banner2(String, IModel&lt;?&gt;)</text><line style="stroke:#5E5E5E;stroke-width:1.0416666666666667;" x1="231.25" x2="279.6875" y1="379.3386" y2="379.3386"/><text fill="#D8BC00" font-family="Open Sans,Avenir,Nunito,Arial,Helvetica,SansSerif" font-size="11.4583" lengthAdjust="spacing" textLength="81.25" x="282.8125" y="383.1482">(constructors)</text><line style="stroke:#5E5E5E;stroke-width:1.0416666666666667;" x1="367.1875" x2="415.625" y1="379.3386" y2="379.3386"/><!--MD5=[8de0e4c819f220f8e0c4c4df41ba59ce]
class WicketExamplePage--><rect fill="#282828" height="48.055" id="WicketExamplePage" rx="8.3333" ry="8.3333" style="stroke:#5E5E5E;stroke-width:1.0416666666666667;" width="164.5833" x="303.6458" y="53.7028"/><rect fill="#1B1B1A" height="31.3883" rx="8.3333" ry="8.3333" style="stroke:#1B1B1A;stroke-width:1.0416666666666667;" width="164.5833" x="303.6458" y="53.7028"/><rect fill="#1B1B1A" height="8.3333" style="stroke:#1B1B1A;stroke-width:1.0416666666666667;" width="164.5833" x="303.6458" y="76.7578"/><rect fill="none" height="48.055" id="WicketExamplePage" rx="8.3333" ry="8.3333" style="stroke:#5E5E5E;stroke-width:1.0416666666666667;" width="164.5833" x="303.6458" y="53.7028"/><ellipse cx="318.2292" cy="69.397" fill="#0066CF" rx="10.4167" ry="10.4167" style="stroke:#0086EF;stroke-width:1.0416666666666667;"/><path d="M320.1396,73.822 Q319.7123,74.0417 319.2424,74.1516 Q318.7724,74.2615 318.2536,74.2615 Q316.4103,74.2615 315.4399,73.0469 Q314.4694,71.8323 314.4694,69.5374 Q314.4694,67.2363 315.4399,66.0217 Q316.4103,64.8071 318.2536,64.8071 Q318.7724,64.8071 319.2485,64.917 Q319.7245,65.0269 320.1396,65.2466 L320.1396,67.2485 Q319.6757,66.8213 319.2393,66.6229 Q318.8029,66.4246 318.339,66.4246 Q317.3503,66.4246 316.8467,67.2089 Q316.3432,67.9932 316.3432,69.5374 Q316.3432,71.0754 316.8467,71.8597 Q317.3503,72.644 318.339,72.644 Q318.8029,72.644 319.2393,72.4457 Q319.6757,72.2473 320.1396,71.8201 Z " fill="#000000"/><text fill="#D8BC00" font-family="Open Sans,Avenir,Nunito,Arial,Helvetica,SansSerif" font-size="12.5" font-weight="bold" lengthAdjust="spacing" textLength="127.0833" x="334.8958" y="74.1211">WicketExamplePage</text><line style="stroke:#5E5E5E;stroke-width:1.0416666666666667;" x1="304.6875" x2="467.1875" y1="85.0911" y2="85.0911"/><line style="stroke:#5E5E5E;stroke-width:1.0416666666666667;" x1="304.6875" x2="467.1875" y1="93.4245" y2="93.4245"/><!--MD5=[15b9a87b033c6044cf0e9bbdacb18726]
class Index--><rect codeLine="31" fill="#282828" height="83.3781" id="Index" rx="8.3333" ry="8.3333" style="stroke:#5E5E5E;stroke-width:1.0416666666666667;" width="95.8333" x="338.0208" y="174.0153"/><rect fill="#1B1B1A" height="31.3883" rx="8.3333" ry="8.3333" style="stroke:#1B1B1A;stroke-width:1.0416666666666667;" width="95.8333" x="338.0208" y="174.0153"/><rect fill="#1B1B1A" height="8.3333" style="stroke:#1B1B1A;stroke-width:1.0416666666666667;" width="95.8333" x="338.0208" y="197.0703"/><rect codeLine="31" fill="none" height="83.3781" id="Index" rx="8.3333" ry="8.3333" style="stroke:#5E5E5E;stroke-width:1.0416666666666667;" width="95.8333" x="338.0208" y="174.0153"/><ellipse cx="362.9167" cy="189.7095" fill="#0066CF" rx="10.4167" ry="10.4167" style="stroke:#0086EF;stroke-width:1.0416666666666667;"/><path d="M364.8271,194.1345 Q364.3998,194.3542 363.9299,194.4641 Q363.4599,194.574 362.9411,194.574 Q361.0978,194.574 360.1274,193.3594 Q359.1569,192.1448 359.1569,189.8499 Q359.1569,187.5488 360.1274,186.3342 Q361.0978,185.1196 362.9411,185.1196 Q363.4599,185.1196 363.936,185.2295 Q364.412,185.3394 364.8271,185.5591 L364.8271,187.561 Q364.3632,187.1338 363.9268,186.9354 Q363.4904,186.7371 363.0265,186.7371 Q362.0378,186.7371 361.5342,187.5214 Q361.0307,188.3057 361.0307,189.8499 Q361.0307,191.3879 361.5342,192.1722 Q362.0378,192.9565 363.0265,192.9565 Q363.4904,192.9565 363.9268,192.7582 Q364.3632,192.5598 364.8271,192.1326 Z " fill="#000000"/><text fill="#D8BC00" font-family="Open Sans,Avenir,Nunito,Arial,Helvetica,SansSerif" font-size="12.5" font-weight="bold" lengthAdjust="spacing" textLength="35.4167" x="381.875" y="194.4336">Index</text><line style="stroke:#5E5E5E;stroke-width:1.5625;" x1="339.0625" x2="432.8125" y1="205.4036" y2="205.4036"/><ellipse cx="349.4792" cy="240.7735" fill="#84BE84" rx="3.125" ry="3.125" style="stroke:#038048;stroke-width:1.0416666666666667;"/><text fill="#D8BC00" font-family="Open Sans,Avenir,Nunito,Arial,Helvetica,SansSerif" font-size="11.4583" lengthAdjust="spacing" textLength="39.5833" x="360.9375" y="247.6847">Index()</text><line style="stroke:#5E5E5E;stroke-width:1.0416666666666667;" x1="339.0625" x2="342.1875" y1="223.6094" y2="223.6094"/><text fill="#D8BC00" font-family="Open Sans,Avenir,Nunito,Arial,Helvetica,SansSerif" font-size="11.4583" lengthAdjust="spacing" textLength="81.25" x="345.3125" y="227.419">(constructors)</text><line style="stroke:#5E5E5E;stroke-width:1.0416666666666667;" x1="429.6875" x2="432.8125" y1="223.6094" y2="223.6094"/><!--MD5=[818b680dd029f5404dc253254408b9c3]
class WicketExampleApplication--><rect fill="#282828" height="48.055" id="WicketExampleApplication" rx="8.3333" ry="8.3333" style="stroke:#5E5E5E;stroke-width:1.0416666666666667;" width="208.3333" x="504.6875" y="53.7028"/><rect fill="#1B1B1A" height="31.3883" rx="8.3333" ry="8.3333" style="stroke:#1B1B1A;stroke-width:1.0416666666666667;" width="208.3333" x="504.6875" y="53.7028"/><rect fill="#1B1B1A" height="8.3333" style="stroke:#1B1B1A;stroke-width:1.0416666666666667;" width="208.3333" x="504.6875" y="76.7578"/><rect fill="none" height="48.055" id="WicketExampleApplication" rx="8.3333" ry="8.3333" style="stroke:#5E5E5E;stroke-width:1.0416666666666667;" width="208.3333" x="504.6875" y="53.7028"/><ellipse cx="519.2708" cy="69.397" fill="#0066CF" rx="10.4167" ry="10.4167" style="stroke:#0086EF;stroke-width:1.0416666666666667;"/><path d="M521.1812,73.822 Q520.754,74.0417 520.284,74.1516 Q519.814,74.2615 519.2952,74.2615 Q517.452,74.2615 516.4815,73.0469 Q515.5111,71.8323 515.5111,69.5374 Q515.5111,67.2363 516.4815,66.0217 Q517.452,64.8071 519.2952,64.8071 Q519.814,64.8071 520.2901,64.917 Q520.7662,65.0269 521.1812,65.2466 L521.1812,67.2485 Q520.7174,66.8213 520.281,66.6229 Q519.8446,66.4246 519.3807,66.4246 Q518.3919,66.4246 517.8884,67.2089 Q517.3848,67.9932 517.3848,69.5374 Q517.3848,71.0754 517.8884,71.8597 Q518.3919,72.644 519.3807,72.644 Q519.8446,72.644 520.281,72.4457 Q520.7174,72.2473 521.1812,71.8201 Z " fill="#000000"/><text fill="#D8BC00" font-family="Open Sans,Avenir,Nunito,Arial,Helvetica,SansSerif" font-size="12.5" font-weight="bold" lengthAdjust="spacing" textLength="170.8333" x="535.9375" y="74.1211">WicketExampleApplication</text><line style="stroke:#5E5E5E;stroke-width:1.0416666666666667;" x1="505.7292" x2="711.9792" y1="85.0911" y2="85.0911"/><line style="stroke:#5E5E5E;stroke-width:1.0416666666666667;" x1="505.7292" x2="711.9792" y1="93.4245" y2="93.4245"/><!--MD5=[74350911cc1e6218e08fb0cc962a768d]
class TemplateApplication--><rect codeLine="38" fill="#282828" height="48.055" id="TemplateApplication" rx="8.3333" ry="8.3333" style="stroke:#5E5E5E;stroke-width:1.0416666666666667;" width="171.875" x="522.9167" y="191.7236"/><rect fill="#1B1B1A" height="31.3883" rx="8.3333" ry="8.3333" style="stroke:#1B1B1A;stroke-width:1.0416666666666667;" width="171.875" x="522.9167" y="191.7236"/><rect fill="#1B1B1A" height="8.3333" style="stroke:#1B1B1A;stroke-width:1.0416666666666667;" width="171.875" x="522.9167" y="214.7786"/><rect codeLine="38" fill="none" height="48.055" id="TemplateApplication" rx="8.3333" ry="8.3333" style="stroke:#5E5E5E;stroke-width:1.0416666666666667;" width="171.875" x="522.9167" y="191.7236"/><ellipse cx="537.5" cy="207.4178" fill="#0066CF" rx="10.4167" ry="10.4167" style="stroke:#0086EF;stroke-width:1.0416666666666667;"/><path d="M539.4104,211.8429 Q538.9832,212.0626 538.5132,212.1724 Q538.0432,212.2823 537.5244,212.2823 Q535.6812,212.2823 534.7107,211.0677 Q533.7402,209.8531 533.7402,207.5582 Q533.7402,205.2572 534.7107,204.0426 Q535.6812,202.828 537.5244,202.828 Q538.0432,202.828 538.5193,202.9378 Q538.9954,203.0477 539.4104,203.2674 L539.4104,205.2694 Q538.9465,204.8421 538.5101,204.6438 Q538.0737,204.4454 537.6099,204.4454 Q536.6211,204.4454 536.1176,205.2297 Q535.614,206.014 535.614,207.5582 Q535.614,209.0963 536.1176,209.8806 Q536.6211,210.6649 537.6099,210.6649 Q538.0737,210.6649 538.5101,210.4665 Q538.9465,210.2681 539.4104,209.8409 Z " fill="#000000"/><text fill="#D8BC00" font-family="Open Sans,Avenir,Nunito,Arial,Helvetica,SansSerif" font-size="12.5" font-weight="bold" lengthAdjust="spacing" textLength="134.375" x="554.1667" y="212.1419">TemplateApplication</text><line style="stroke:#5E5E5E;stroke-width:1.0416666666666667;" x1="523.9583" x2="693.75" y1="223.112" y2="223.112"/><line style="stroke:#5E5E5E;stroke-width:1.0416666666666667;" x1="523.9583" x2="693.75" y1="231.4453" y2="231.4453"/><!--MD5=[1d1e6490b01d46c770014181fc0bdf4d]
reverse link Panel to Banner--><path codeLine="6" d="M211.9792,122.8382 C211.9792,135.9945 211.9792,150.5257 211.9792,164.0674 " fill="none" id="Panel-backto-Banner" style="stroke:#545454;stroke-width:1.5625;"/><polygon fill="none" points="204.6875,122.5986,211.9792,101.7653,219.2708,122.5986,204.6875,122.5986" style="stroke:#545454;stroke-width:1.5625;"/><!--MD5=[f4fcc6051a9a6a740e649e0e65f500f6]
reverse link Banner to Banner1--><path codeLine="14" d="M165.5729,284.807 C155.3229,299.8486 144.6354,315.5257 134.9583,329.7236 " fill="none" id="Banner-backto-Banner1" style="stroke:#545454;stroke-width:1.5625;"/><polygon fill="none" points="159.5625,280.682,177.3229,267.5778,171.6146,288.8903,159.5625,280.682" style="stroke:#545454;stroke-width:1.5625;"/><!--MD5=[665a462508e5c2b3b7dee04a0cf0f436]
reverse link Banner to Banner2--><path codeLine="22" d="M258.3854,284.807 C268.6354,299.8486 279.3229,315.5257 289,329.7236 " fill="none" id="Banner-backto-Banner2" style="stroke:#545454;stroke-width:1.5625;"/><polygon fill="none" points="252.3438,288.8903,246.6354,267.5778,264.3958,280.682,252.3438,288.8903" style="stroke:#545454;stroke-width:1.5625;"/><!--MD5=[c91da0eefb8de17b5450c128c5c2e461]
reverse link WicketExamplePage to Index--><path codeLine="30" d="M385.9375,122.734 C385.9375,139.1611 385.9375,157.7236 385.9375,173.8382 " fill="none" id="WicketExamplePage-backto-Index" style="stroke:#545454;stroke-width:1.5625;"/><polygon fill="none" points="378.6458,122.5986,385.9375,101.7653,393.2292,122.5986,378.6458,122.5986" style="stroke:#545454;stroke-width:1.5625;"/><!--MD5=[e085c98ba2e82f8fa7e07a414ea6a3f4]
reverse link WicketExampleApplication to TemplateApplication--><path codeLine="37" d="M608.8542,122.807 C608.8542,145.682 608.8542,172.682 608.8542,191.4632 " fill="none" id="WicketExampleApplication-backto-TemplateApplication" style="stroke:#545454;stroke-width:1.5625;"/><polygon fill="none" points="601.5625,122.5986,608.8542,101.7653,616.1458,122.5986,601.5625,122.5986" style="stroke:#545454;stroke-width:1.5625;"/><!--MD5=[721d4d2a90fff15f0d33e0af28864eb6]
@startuml

    !include lexakai.theme
    
    title "org.apache.wicket.examples.template"
    
    Panel <|- - Banner
    abstract class Banner
    {
        - -(constructors)- -
        +Banner(String)
        +Banner(String, IModel<?>)
    }
    
    Banner <|- - Banner1
    class Banner1<T>
    {
        - -(constructors)- -
        +Banner1(String)
        +Banner1(String, IModel<?>)
    }
    
    Banner <|- - Banner2
    class Banner2<T>
    {
        - -(constructors)- -
        +Banner2(String)
        +Banner2(String, IModel<?>)
    }
    
    WicketExamplePage <|- - Index
    class Index
    {
        - -(constructors)- -
        +Index()
    }
    
    WicketExampleApplication <|- - TemplateApplication
    class TemplateApplication
    {
    }
    
@enduml

@startuml









skinparam backgroundColor #333333






skinparam  {
    defaultFontName   "Open Sans,Avenir,Nunito,Arial,Helvetica,SansSerif"
    defaultFontSize   12
    defaultTextAlignment left
    shadowing false
    RoundCorner 10
    TitleFontSize 18
}

skinparam defaultFontName       "Open Sans,Avenir,Nunito,Arial,Helvetica,SansSerif"
skinparam defaultFontSize       12
skinparam dpi                   100
skinparam shadowing             false
skinparam roundcorner           16
skinparam ParticipantPadding    40
skinparam BoxPadding            40
skinparam Padding               3
skinparam ArrowColor            #545454
skinparam stereotype {
    CBackgroundColor #0066cf
    CBorderColor #0086ef
    ABackgroundColor #C8Ac00
    ABorderColor #D8Bc00
    IBackgroundColor #008400
    IBorderColor #239c23
    EBackgroundColor #cf6300
    EBorderColor #ef8300
    NBackgroundColor #3380b9
    NBorderColor #004d86
}
skinparam title {
	FontColor	                 #c0c0c0
 	BorderColor                  #545454
	FontSize	    	         20
	BorderRoundCorner            16
	BorderThickness 	         1
	BackgroundColor              #48494b
}


skinparam legend {
	BackgroundColor #303030
	BorderColor #404040
	FontColor #a0a0a0
}

	skinparam swimlane {
	BorderColor #5e5e5e
	BorderThickness 2
	TitleBackgroundColor  #6d6d6d-#484848
	TitleFontColor #303030
}

skinparam activity {
		FontColor #C8Ac00
	BorderColor #333333
	BackgroundColor #333333-#333333
	BarColor #00FF00
	StartColor #0060a8
	EndColor #0060a8
	DiamondBackgroundColor #6d6d6d-#3a3a3a
  	DiamondBorderColor #3a3a3a
  	DiamondFontColor #fefefe
}


skinparam participant {
		FontColor #C8Ac00
	BorderColor #333333
	BackgroundColor #333333-#333333
	ParticipantBorderThickness 2
}


skinparam actor {
		FontColor #C8Ac00
	BorderColor #333333
	BackgroundColor #333333-#333333
}


skinparam arrow {
	Thickness 1.5
	Color #545454
	FontColor #a0a0a0
    FontStyle bold
    MessageAlignment center
}



skinparam sequence {
	BorderColor #303030
	TitleFontColor #303030
	BackgroundColor #333333
	StartColor #303030
	EndColor #303030
	BoxBackgroundColor #333333
	BoxBorderColor #484848
	BoxFontColor #484848
	LifeLineBorderColor #484848
	LifeLineBorderThickness 2
	LifeLineBackgroundColor #3a3a3a
	GroupBorderColor #484848
	GroupFontColor #484848
	GroupHeaderFontColor #0060a8
	GroupBackgroundColor #484848
	GroupHeaderBackgroundColor #333333
	DividerBackgroundColor #484848
    DividerBorderColor #484848
    DividerBorderThickness 2
    DividerFontColor #D8Bc00
	ReferenceBackgroundColor #333333
	ReferenceBorderColor #484848
	ReferenceFontColor #fefefe
	ReferenceHeaderBackgroundColor #484848
}


skinparam partition {
	BorderColor #303030
	FontColor #333333
	BackgroundColor #333333
}


skinparam collections {
		FontColor #C8Ac00
	BorderColor #333333
	BackgroundColor #333333-#333333
}


skinparam control {
		FontColor #C8Ac00
	BorderColor #333333
	BackgroundColor #333333-#333333
}


skinparam entity {
		FontColor #C8Ac00
	BorderColor #333333
	BackgroundColor #333333-#333333
}


skinparam boundary {
		FontColor #C8Ac00
	BorderColor #333333
	BackgroundColor #333333-#333333
}


skinparam agent {
	BackgroundColor #ff8000
	BorderColor #ff9933
	FontColor #484848
}


skinparam note {
	BorderThickness 1
	BackgroundColor #1b1b1a
	BorderColor #5e5e5e
	FontSize 11
	FontColor #a0a0a0
}


skinparam artifact {
	BorderThickness 10
	BorderColor #5e5e5e
	BackgroundColor #1b1b1a
	FontColor #D8Bc00
}


skinparam component {
		FontColor #C8Ac00
	BorderColor #333333
	BackgroundColor #333333-#333333
}


skinparam interface {
	BackgroundColor  #008400
	BorderColor  #007F00
	FontColor #484848
}


skinparam storage {
	BackgroundColor #ff8000
  	BorderColor #cc6600
	FontColor #222222
}


skinparam node {
	BackgroundColor #333333
	BorderColor #333333
	FontColor #C8Ac00
}


skinparam cloud {
	BackgroundColor #484848-black
	BorderColor #484848
	FontColor #D8Bc00
}


skinparam database {
		FontColor #C8Ac00
	BorderColor #333333
	BackgroundColor #333333-#333333
	BackgroundColor  #333333
}


skinparam class {
		FontColor #C8Ac00
	BorderColor #333333
	BackgroundColor #333333-#333333
	HeaderBackgroundColor #1b1b1a
    BackgroundColor #282828
    BorderColor #5e5e5e
 	StereotypeFontColor #a0a0a0
    StereotypeFontStyle bold
	BorderThickness 1
	AttributeFontColor #D8Bc00
	AttributeFontSize 11
    FontColor #D8Bc00
    FontStyle bold
}


skinparam object {
		FontColor #C8Ac00
	BorderColor #333333
	BackgroundColor #333333-#333333
	StereotypeFontColor #484848
	BorderThickness 1
	AttributeFontColor #fefefe
	AttributeFontSize 11
}


skinparam usecase {
		FontColor #C8Ac00
	BorderColor #333333
	BackgroundColor #333333-#333333
	BorderThickness 2
	StereotypeFontColor #303030
}


skinparam rectangle {
		FontColor #C8Ac00
	BorderColor #333333
	BackgroundColor #333333-#333333
	BackgroundColor #333333
	BorderThickness 2
	StereotypeFontColor #303030
}


skinparam package {
		FontColor #C8Ac00
	BorderColor #333333
	BackgroundColor #333333-#333333
	BackgroundColor #333333
	BorderThickness 2
}


skinparam folder {
	BackgroundColor #6d6d6d
  	BorderColor #ff8000
	FontColor #ff8000
	BorderThickness 2
}


skinparam frame {
	BackgroundColor #6d6d6d
  	BorderColor #0060a8
	FontColor #0060a8
	BorderThickness 2
}


skinparam state {
		FontColor #C8Ac00
	BorderColor #333333
	BackgroundColor #333333-#333333
	StartColor #0060a8
	EndColor #0060a8
	AttributeFontColor #fefefe
	AttributeFontSize 11
}


skinparam queue {
		FontColor #C8Ac00
	BorderColor #333333
	BackgroundColor #333333-#333333
}


skinparam card {
	BackgroundColor #0060a8
	BorderColor #004d86
	FontColor $INFO_TEXT
}


skinparam file {
	BackgroundColor #6d6d6d-#484848
	BorderColor #0060a8
	FontColor #fefefe
}


skinparam stack {
		FontColor #C8Ac00
	BorderColor #333333
	BackgroundColor #333333-#333333
}

    
    title "org.apache.wicket.examples.template"
    
    Panel <|- - Banner
    abstract class Banner
    {
        - -(constructors)- -
        +Banner(String)
        +Banner(String, IModel<?>)
    }
    
    Banner <|- - Banner1
    class Banner1<T>
    {
        - -(constructors)- -
        +Banner1(String)
        +Banner1(String, IModel<?>)
    }
    
    Banner <|- - Banner2
    class Banner2<T>
    {
        - -(constructors)- -
        +Banner2(String)
        +Banner2(String, IModel<?>)
    }
    
    WicketExamplePage <|- - Index
    class Index
    {
        - -(constructors)- -
        +Index()
    }
    
    WicketExampleApplication <|- - TemplateApplication
    class TemplateApplication
    {
    }
    
@enduml

PlantUML version 1.2021.01(Tue Feb 02 00:55:08 MST 2021)
(GPL source distribution)
Java Runtime: Java(TM) SE Runtime Environment
JVM: Java HotSpot(TM) 64-Bit Server VM
Default Encoding: UTF-8
Language: en
Country: US
--></g></svg>