<?xml version="1.0" encoding="UTF-8" standalone="no"?><svg xmlns="http://www.w3.org/2000/svg" xmlns:xlink="http://www.w3.org/1999/xlink" contentScriptType="application/ecmascript" contentStyleType="text/css" height="491.6667px" preserveAspectRatio="none" style="width:1005px;height:491px;background:#333333;" version="1.1" viewBox="0 0 1005 491" width="1005.2083px" zoomAndPan="magnify"><defs/><g><rect fill="#48494B" height="41.2028" rx="8.3333" ry="8.3333" style="stroke:#545454;stroke-width:1.0416666666666667;" width="444.7917" x="272.9167" y="2.0833"/><text fill="#C0C0C0" font-family="Open Sans,Avenir,Nunito,Arial,Helvetica,SansSerif" font-size="20.8333" lengthAdjust="spacing" textLength="421.875" x="284.375" y="30.5583">org.apache.wicket.examples.authorization</text><!--MD5=[8389d11c23920d0ab7b28af5b7904b5d]
class BasePage--><rect codeLine="12" fill="#282828" height="48.055" id="BasePage" rx="8.3333" ry="8.3333" style="stroke:#5E5E5E;stroke-width:1.0416666666666667;" width="97.9167" x="40.625" y="227.6611"/><rect fill="#1B1B1A" height="31.3883" rx="8.3333" ry="8.3333" style="stroke:#1B1B1A;stroke-width:1.0416666666666667;" width="97.9167" x="40.625" y="227.6611"/><rect fill="#1B1B1A" height="8.3333" style="stroke:#1B1B1A;stroke-width:1.0416666666666667;" width="97.9167" x="40.625" y="250.7161"/><rect codeLine="12" fill="none" height="48.055" id="BasePage" rx="8.3333" ry="8.3333" style="stroke:#5E5E5E;stroke-width:1.0416666666666667;" width="97.9167" x="40.625" y="227.6611"/><ellipse cx="55.2083" cy="243.3553" fill="#0066CF" rx="10.4167" ry="10.4167" style="stroke:#0086EF;stroke-width:1.0416666666666667;"/><path d="M57.1187,247.7804 Q56.6915,248.0001 56.2215,248.1099 Q55.7515,248.2198 55.2327,248.2198 Q53.3895,248.2198 52.419,247.0052 Q51.4486,245.7906 51.4486,243.4957 Q51.4486,241.1947 52.419,239.9801 Q53.3895,238.7655 55.2327,238.7655 Q55.7515,238.7655 56.2276,238.8753 Q56.7037,238.9852 57.1187,239.2049 L57.1187,241.2069 Q56.6549,240.7796 56.2185,240.5813 Q55.7821,240.3829 55.3182,240.3829 Q54.3294,240.3829 53.8259,241.1672 Q53.3223,241.9515 53.3223,243.4957 Q53.3223,245.0338 53.8259,245.8181 Q54.3294,246.6024 55.3182,246.6024 Q55.7821,246.6024 56.2185,246.404 Q56.6549,246.2056 57.1187,245.7784 Z " fill="#000000"/><text fill="#D8BC00" font-family="Open Sans,Avenir,Nunito,Arial,Helvetica,SansSerif" font-size="12.5" font-weight="bold" lengthAdjust="spacing" textLength="60.4167" x="71.875" y="248.0794">BasePage</text><line style="stroke:#5E5E5E;stroke-width:1.0416666666666667;" x1="41.6667" x2="137.5" y1="259.0495" y2="259.0495"/><line style="stroke:#5E5E5E;stroke-width:1.0416666666666667;" x1="41.6667" x2="137.5" y1="267.3828" y2="267.3828"/><!--MD5=[cd6fe5c68cc4750b98a6651e5a9afd2b]
class IClusterable--><rect codeLine="8" fill="#282828" height="48.055" id="IClusterable" rx="8.3333" ry="8.3333" style="stroke:#5E5E5E;stroke-width:1.0416666666666667;" width="115.625" x="213.0208" y="53.7028"/><rect fill="#1B1B1A" height="31.3883" rx="8.3333" ry="8.3333" style="stroke:#1B1B1A;stroke-width:1.0416666666666667;" width="115.625" x="213.0208" y="53.7028"/><rect fill="#1B1B1A" height="8.3333" style="stroke:#1B1B1A;stroke-width:1.0416666666666667;" width="115.625" x="213.0208" y="76.7578"/><rect codeLine="8" fill="none" height="48.055" id="IClusterable" rx="8.3333" ry="8.3333" style="stroke:#5E5E5E;stroke-width:1.0416666666666667;" width="115.625" x="213.0208" y="53.7028"/><ellipse cx="227.6042" cy="69.397" fill="#008400" rx="10.4167" ry="10.4167" style="stroke:#239C23;stroke-width:1.0416666666666667;"/><path d="M225.0081,66.5588 L225.0081,64.9719 L230.4342,64.9719 L230.4342,66.5588 L228.6214,66.5588 L228.6214,72.4976 L230.4342,72.4976 L230.4342,74.0845 L225.0081,74.0845 L225.0081,72.4976 L226.8209,72.4976 L226.8209,66.5588 Z " fill="#000000"/><text fill="#D8BC00" font-family="Open Sans,Avenir,Nunito,Arial,Helvetica,SansSerif" font-size="12.5" font-style="italic" font-weight="bold" lengthAdjust="spacing" textLength="78.125" x="244.2708" y="74.1211">IClusterable</text><line style="stroke:#5E5E5E;stroke-width:1.0416666666666667;" x1="214.0625" x2="327.6042" y1="85.0911" y2="85.0911"/><line style="stroke:#5E5E5E;stroke-width:1.0416666666666667;" x1="214.0625" x2="327.6042" y1="93.4245" y2="93.4245"/><!--MD5=[b1a7f50c3b0a42525aff304f5a6aec03]
class IRoleCheckingStrategy--><rect codeLine="9" fill="#282828" height="48.055" id="IRoleCheckingStrategy" rx="8.3333" ry="8.3333" style="stroke:#5E5E5E;stroke-width:1.0416666666666667;" width="183.3333" x="396.875" y="53.7028"/><rect fill="#1B1B1A" height="31.3883" rx="8.3333" ry="8.3333" style="stroke:#1B1B1A;stroke-width:1.0416666666666667;" width="183.3333" x="396.875" y="53.7028"/><rect fill="#1B1B1A" height="8.3333" style="stroke:#1B1B1A;stroke-width:1.0416666666666667;" width="183.3333" x="396.875" y="76.7578"/><rect codeLine="9" fill="none" height="48.055" id="IRoleCheckingStrategy" rx="8.3333" ry="8.3333" style="stroke:#5E5E5E;stroke-width:1.0416666666666667;" width="183.3333" x="396.875" y="53.7028"/><ellipse cx="411.4583" cy="69.397" fill="#008400" rx="10.4167" ry="10.4167" style="stroke:#239C23;stroke-width:1.0416666666666667;"/><path d="M408.8623,66.5588 L408.8623,64.9719 L414.2883,64.9719 L414.2883,66.5588 L412.4756,66.5588 L412.4756,72.4976 L414.2883,72.4976 L414.2883,74.0845 L408.8623,74.0845 L408.8623,72.4976 L410.675,72.4976 L410.675,66.5588 Z " fill="#000000"/><text fill="#D8BC00" font-family="Open Sans,Avenir,Nunito,Arial,Helvetica,SansSerif" font-size="12.5" font-style="italic" font-weight="bold" lengthAdjust="spacing" textLength="145.8333" x="428.125" y="74.1211">IRoleCheckingStrategy</text><line style="stroke:#5E5E5E;stroke-width:1.0416666666666667;" x1="397.9167" x2="579.1667" y1="85.0911" y2="85.0911"/><line style="stroke:#5E5E5E;stroke-width:1.0416666666666667;" x1="397.9167" x2="579.1667" y1="93.4245" y2="93.4245"/><!--MD5=[8de0e4c819f220f8e0c4c4df41ba59ce]
class WicketExamplePage--><rect fill="#282828" height="48.055" id="WicketExamplePage" rx="8.3333" ry="8.3333" style="stroke:#5E5E5E;stroke-width:1.0416666666666667;" width="164.5833" x="7.2917" y="53.7028"/><rect fill="#1B1B1A" height="31.3883" rx="8.3333" ry="8.3333" style="stroke:#1B1B1A;stroke-width:1.0416666666666667;" width="164.5833" x="7.2917" y="53.7028"/><rect fill="#1B1B1A" height="8.3333" style="stroke:#1B1B1A;stroke-width:1.0416666666666667;" width="164.5833" x="7.2917" y="76.7578"/><rect fill="none" height="48.055" id="WicketExamplePage" rx="8.3333" ry="8.3333" style="stroke:#5E5E5E;stroke-width:1.0416666666666667;" width="164.5833" x="7.2917" y="53.7028"/><ellipse cx="21.875" cy="69.397" fill="#0066CF" rx="10.4167" ry="10.4167" style="stroke:#0086EF;stroke-width:1.0416666666666667;"/><path d="M23.7854,73.822 Q23.3582,74.0417 22.8882,74.1516 Q22.4182,74.2615 21.8994,74.2615 Q20.0562,74.2615 19.0857,73.0469 Q18.1152,71.8323 18.1152,69.5374 Q18.1152,67.2363 19.0857,66.0217 Q20.0562,64.8071 21.8994,64.8071 Q22.4182,64.8071 22.8943,64.917 Q23.3704,65.0269 23.7854,65.2466 L23.7854,67.2485 Q23.3215,66.8213 22.8851,66.6229 Q22.4487,66.4246 21.9849,66.4246 Q20.9961,66.4246 20.4926,67.2089 Q19.989,67.9932 19.989,69.5374 Q19.989,71.0754 20.4926,71.8597 Q20.9961,72.644 21.9849,72.644 Q22.4487,72.644 22.8851,72.4457 Q23.3215,72.2473 23.7854,71.8201 Z " fill="#000000"/><text fill="#D8BC00" font-family="Open Sans,Avenir,Nunito,Arial,Helvetica,SansSerif" font-size="12.5" font-weight="bold" lengthAdjust="spacing" textLength="127.0833" x="38.5417" y="74.1211">WicketExamplePage</text><line style="stroke:#5E5E5E;stroke-width:1.0416666666666667;" x1="8.3333" x2="170.8333" y1="85.0911" y2="85.0911"/><line style="stroke:#5E5E5E;stroke-width:1.0416666666666667;" x1="8.3333" x2="170.8333" y1="93.4245" y2="93.4245"/><!--MD5=[15b9a87b033c6044cf0e9bbdacb18726]
class Index--><rect codeLine="17" fill="#282828" height="83.3781" id="Index" rx="8.3333" ry="8.3333" style="stroke:#5E5E5E;stroke-width:1.0416666666666667;" width="95.8333" x="41.6667" y="401.6195"/><rect fill="#1B1B1A" height="31.3883" rx="8.3333" ry="8.3333" style="stroke:#1B1B1A;stroke-width:1.0416666666666667;" width="95.8333" x="41.6667" y="401.6195"/><rect fill="#1B1B1A" height="8.3333" style="stroke:#1B1B1A;stroke-width:1.0416666666666667;" width="95.8333" x="41.6667" y="424.6745"/><rect codeLine="17" fill="none" height="83.3781" id="Index" rx="8.3333" ry="8.3333" style="stroke:#5E5E5E;stroke-width:1.0416666666666667;" width="95.8333" x="41.6667" y="401.6195"/><ellipse cx="66.5625" cy="417.3136" fill="#0066CF" rx="10.4167" ry="10.4167" style="stroke:#0086EF;stroke-width:1.0416666666666667;"/><path d="M68.4729,421.7387 Q68.0457,421.9584 67.5757,422.0683 Q67.1057,422.1781 66.5869,422.1781 Q64.7437,422.1781 63.7732,420.9635 Q62.8027,419.7489 62.8027,417.454 Q62.8027,415.153 63.7732,413.9384 Q64.7437,412.7238 66.5869,412.7238 Q67.1057,412.7238 67.5818,412.8337 Q68.0579,412.9435 68.4729,413.1632 L68.4729,415.1652 Q68.009,414.738 67.5726,414.5396 Q67.1362,414.3412 66.6724,414.3412 Q65.6836,414.3412 65.1801,415.1255 Q64.6765,415.9098 64.6765,417.454 Q64.6765,418.9921 65.1801,419.7764 Q65.6836,420.5607 66.6724,420.5607 Q67.1362,420.5607 67.5726,420.3623 Q68.009,420.164 68.4729,419.7367 Z " fill="#000000"/><text fill="#D8BC00" font-family="Open Sans,Avenir,Nunito,Arial,Helvetica,SansSerif" font-size="12.5" font-weight="bold" lengthAdjust="spacing" textLength="35.4167" x="85.5208" y="422.0378">Index</text><line style="stroke:#5E5E5E;stroke-width:1.5625;" x1="42.7083" x2="136.4583" y1="433.0078" y2="433.0078"/><ellipse cx="53.125" cy="468.3777" fill="#84BE84" rx="3.125" ry="3.125" style="stroke:#038048;stroke-width:1.0416666666666667;"/><text fill="#D8BC00" font-family="Open Sans,Avenir,Nunito,Arial,Helvetica,SansSerif" font-size="11.4583" lengthAdjust="spacing" textLength="39.5833" x="64.5833" y="475.2889">Index()</text><line style="stroke:#5E5E5E;stroke-width:1.0416666666666667;" x1="42.7083" x2="45.8333" y1="451.2136" y2="451.2136"/><text fill="#D8BC00" font-family="Open Sans,Avenir,Nunito,Arial,Helvetica,SansSerif" font-size="11.4583" lengthAdjust="spacing" textLength="81.25" x="48.9583" y="455.0232">(constructors)</text><line style="stroke:#5E5E5E;stroke-width:1.0416666666666667;" x1="133.3333" x2="136.4583" y1="451.2136" y2="451.2136"/><!--MD5=[818b680dd029f5404dc253254408b9c3]
class WicketExampleApplication--><rect fill="#282828" height="48.055" id="WicketExampleApplication" rx="8.3333" ry="8.3333" style="stroke:#5E5E5E;stroke-width:1.0416666666666667;" width="208.3333" x="616.6667" y="53.7028"/><rect fill="#1B1B1A" height="31.3883" rx="8.3333" ry="8.3333" style="stroke:#1B1B1A;stroke-width:1.0416666666666667;" width="208.3333" x="616.6667" y="53.7028"/><rect fill="#1B1B1A" height="8.3333" style="stroke:#1B1B1A;stroke-width:1.0416666666666667;" width="208.3333" x="616.6667" y="76.7578"/><rect fill="none" height="48.055" id="WicketExampleApplication" rx="8.3333" ry="8.3333" style="stroke:#5E5E5E;stroke-width:1.0416666666666667;" width="208.3333" x="616.6667" y="53.7028"/><ellipse cx="631.25" cy="69.397" fill="#0066CF" rx="10.4167" ry="10.4167" style="stroke:#0086EF;stroke-width:1.0416666666666667;"/><path d="M633.1604,73.822 Q632.7332,74.0417 632.2632,74.1516 Q631.7932,74.2615 631.2744,74.2615 Q629.4312,74.2615 628.4607,73.0469 Q627.4902,71.8323 627.4902,69.5374 Q627.4902,67.2363 628.4607,66.0217 Q629.4312,64.8071 631.2744,64.8071 Q631.7932,64.8071 632.2693,64.917 Q632.7454,65.0269 633.1604,65.2466 L633.1604,67.2485 Q632.6965,66.8213 632.2601,66.6229 Q631.8237,66.4246 631.3599,66.4246 Q630.3711,66.4246 629.8676,67.2089 Q629.364,67.9932 629.364,69.5374 Q629.364,71.0754 629.8676,71.8597 Q630.3711,72.644 631.3599,72.644 Q631.8237,72.644 632.2601,72.4457 Q632.6965,72.2473 633.1604,71.8201 Z " fill="#000000"/><text fill="#D8BC00" font-family="Open Sans,Avenir,Nunito,Arial,Helvetica,SansSerif" font-size="12.5" font-weight="bold" lengthAdjust="spacing" textLength="170.8333" x="647.9167" y="74.1211">WicketExampleApplication</text><line style="stroke:#5E5E5E;stroke-width:1.0416666666666667;" x1="617.7083" x2="823.9583" y1="85.0911" y2="85.0911"/><line style="stroke:#5E5E5E;stroke-width:1.0416666666666667;" x1="617.7083" x2="823.9583" y1="93.4245" y2="93.4245"/><!--MD5=[a47dccca3f3b5b6c5f687828b05fc54f]
class RolesApplication--><rect codeLine="24" fill="#282828" height="83.3781" id="RolesApplication" rx="8.3333" ry="8.3333" style="stroke:#5E5E5E;stroke-width:1.0416666666666667;" width="146.875" x="647.3958" y="209.9528"/><rect fill="#1B1B1A" height="31.3883" rx="8.3333" ry="8.3333" style="stroke:#1B1B1A;stroke-width:1.0416666666666667;" width="146.875" x="647.3958" y="209.9528"/><rect fill="#1B1B1A" height="8.3333" style="stroke:#1B1B1A;stroke-width:1.0416666666666667;" width="146.875" x="647.3958" y="233.0078"/><rect codeLine="24" fill="none" height="83.3781" id="RolesApplication" rx="8.3333" ry="8.3333" style="stroke:#5E5E5E;stroke-width:1.0416666666666667;" width="146.875" x="647.3958" y="209.9528"/><ellipse cx="661.9792" cy="225.647" fill="#0066CF" rx="10.4167" ry="10.4167" style="stroke:#0086EF;stroke-width:1.0416666666666667;"/><path d="M663.8896,230.072 Q663.4623,230.2917 662.9924,230.4016 Q662.5224,230.5115 662.0036,230.5115 Q660.1603,230.5115 659.1899,229.2969 Q658.2194,228.0823 658.2194,225.7874 Q658.2194,223.4863 659.1899,222.2717 Q660.1603,221.0571 662.0036,221.0571 Q662.5224,221.0571 662.9985,221.167 Q663.4745,221.2769 663.8896,221.4966 L663.8896,223.4985 Q663.4257,223.0713 662.9893,222.8729 Q662.5529,222.6746 662.089,222.6746 Q661.1003,222.6746 660.5967,223.4589 Q660.0932,224.2432 660.0932,225.7874 Q660.0932,227.3254 660.5967,228.1097 Q661.1003,228.894 662.089,228.894 Q662.5529,228.894 662.9893,228.6957 Q663.4257,228.4973 663.8896,228.0701 Z " fill="#000000"/><text fill="#D8BC00" font-family="Open Sans,Avenir,Nunito,Arial,Helvetica,SansSerif" font-size="12.5" font-weight="bold" lengthAdjust="spacing" textLength="109.375" x="678.6458" y="230.3711">RolesApplication</text><line style="stroke:#5E5E5E;stroke-width:1.5625;" x1="648.4375" x2="793.2292" y1="241.3411" y2="241.3411"/><ellipse cx="658.8542" cy="276.711" fill="#84BE84" rx="3.125" ry="3.125" style="stroke:#038048;stroke-width:1.0416666666666667;"/><text fill="#D8BC00" font-family="Open Sans,Avenir,Nunito,Arial,Helvetica,SansSerif" font-size="11.4583" lengthAdjust="spacing" textLength="102.0833" x="670.3125" y="283.6222">RolesApplication()</text><line style="stroke:#5E5E5E;stroke-width:1.0416666666666667;" x1="648.4375" x2="677.0833" y1="259.5469" y2="259.5469"/><text fill="#D8BC00" font-family="Open Sans,Avenir,Nunito,Arial,Helvetica,SansSerif" font-size="11.4583" lengthAdjust="spacing" textLength="81.25" x="680.2083" y="263.3565">(constructors)</text><line style="stroke:#5E5E5E;stroke-width:1.0416666666666667;" x1="764.5833" x2="793.2292" y1="259.5469" y2="259.5469"/><!--MD5=[d5905afb2a098d77c67f10e80555dfeb]
class WebSession--><rect fill="#282828" height="48.055" id="WebSession" rx="8.3333" ry="8.3333" style="stroke:#5E5E5E;stroke-width:1.0416666666666667;" width="114.5833" x="861.4583" y="53.7028"/><rect fill="#1B1B1A" height="31.3883" rx="8.3333" ry="8.3333" style="stroke:#1B1B1A;stroke-width:1.0416666666666667;" width="114.5833" x="861.4583" y="53.7028"/><rect fill="#1B1B1A" height="8.3333" style="stroke:#1B1B1A;stroke-width:1.0416666666666667;" width="114.5833" x="861.4583" y="76.7578"/><rect fill="none" height="48.055" id="WebSession" rx="8.3333" ry="8.3333" style="stroke:#5E5E5E;stroke-width:1.0416666666666667;" width="114.5833" x="861.4583" y="53.7028"/><ellipse cx="876.0417" cy="69.397" fill="#0066CF" rx="10.4167" ry="10.4167" style="stroke:#0086EF;stroke-width:1.0416666666666667;"/><path d="M877.9521,73.822 Q877.5248,74.0417 877.0549,74.1516 Q876.5849,74.2615 876.0661,74.2615 Q874.2228,74.2615 873.2524,73.0469 Q872.2819,71.8323 872.2819,69.5374 Q872.2819,67.2363 873.2524,66.0217 Q874.2228,64.8071 876.0661,64.8071 Q876.5849,64.8071 877.061,64.917 Q877.537,65.0269 877.9521,65.2466 L877.9521,67.2485 Q877.4882,66.8213 877.0518,66.6229 Q876.6154,66.4246 876.1515,66.4246 Q875.1628,66.4246 874.6592,67.2089 Q874.1557,67.9932 874.1557,69.5374 Q874.1557,71.0754 874.6592,71.8597 Q875.1628,72.644 876.1515,72.644 Q876.6154,72.644 877.0518,72.4457 Q877.4882,72.2473 877.9521,71.8201 Z " fill="#000000"/><text fill="#D8BC00" font-family="Open Sans,Avenir,Nunito,Arial,Helvetica,SansSerif" font-size="12.5" font-weight="bold" lengthAdjust="spacing" textLength="77.0833" x="892.7083" y="74.1211">WebSession</text><line style="stroke:#5E5E5E;stroke-width:1.0416666666666667;" x1="862.5" x2="975" y1="85.0911" y2="85.0911"/><line style="stroke:#5E5E5E;stroke-width:1.0416666666666667;" x1="862.5" x2="975" y1="93.4245" y2="93.4245"/><!--MD5=[76b37ce4d0c992dc0d835261f15cd0cf]
class RolesSession--><rect codeLine="31" fill="#282828" height="131.2012" id="RolesSession" rx="8.3333" ry="8.3333" style="stroke:#5E5E5E;stroke-width:1.0416666666666667;" width="158.3333" x="839.5833" y="185.9945"/><rect fill="#1B1B1A" height="31.3883" rx="8.3333" ry="8.3333" style="stroke:#1B1B1A;stroke-width:1.0416666666666667;" width="158.3333" x="839.5833" y="185.9945"/><rect fill="#1B1B1A" height="8.3333" style="stroke:#1B1B1A;stroke-width:1.0416666666666667;" width="158.3333" x="839.5833" y="209.0495"/><rect codeLine="31" fill="none" height="131.2012" id="RolesSession" rx="8.3333" ry="8.3333" style="stroke:#5E5E5E;stroke-width:1.0416666666666667;" width="158.3333" x="839.5833" y="185.9945"/><ellipse cx="870.1042" cy="201.6886" fill="#0066CF" rx="10.4167" ry="10.4167" style="stroke:#0086EF;stroke-width:1.0416666666666667;"/><path d="M872.0146,206.1137 Q871.5873,206.3334 871.1174,206.4433 Q870.6474,206.5531 870.1286,206.5531 Q868.2853,206.5531 867.3149,205.3385 Q866.3444,204.1239 866.3444,201.829 Q866.3444,199.528 867.3149,198.3134 Q868.2853,197.0988 870.1286,197.0988 Q870.6474,197.0988 871.1235,197.2087 Q871.5995,197.3185 872.0146,197.5382 L872.0146,199.5402 Q871.5507,199.113 871.1143,198.9146 Q870.6779,198.7162 870.214,198.7162 Q869.2253,198.7162 868.7217,199.5005 Q868.2182,200.2848 868.2182,201.829 Q868.2182,203.3671 868.7217,204.1514 Q869.2253,204.9357 870.214,204.9357 Q870.6779,204.9357 871.1143,204.7373 Q871.5507,204.539 872.0146,204.1117 Z " fill="#000000"/><text fill="#D8BC00" font-family="Open Sans,Avenir,Nunito,Arial,Helvetica,SansSerif" font-size="12.5" font-weight="bold" lengthAdjust="spacing" textLength="85.4167" x="890.3125" y="206.4128">RolesSession</text><line style="stroke:#5E5E5E;stroke-width:1.5625;" x1="840.625" x2="996.875" y1="217.3828" y2="217.3828"/><ellipse cx="851.0417" cy="252.7527" fill="#84BE84" rx="3.125" ry="3.125" style="stroke:#038048;stroke-width:1.0416666666666667;"/><text fill="#D8BC00" font-family="Open Sans,Avenir,Nunito,Arial,Helvetica,SansSerif" font-size="11.4583" lengthAdjust="spacing" textLength="126.0417" x="862.5" y="259.6639">RolesSession(Request)</text><line style="stroke:#5E5E5E;stroke-width:1.0416666666666667;" x1="840.625" x2="875" y1="235.5886" y2="235.5886"/><text fill="#D8BC00" font-family="Open Sans,Avenir,Nunito,Arial,Helvetica,SansSerif" font-size="11.4583" lengthAdjust="spacing" textLength="81.25" x="878.125" y="239.3982">(constructors)</text><line style="stroke:#5E5E5E;stroke-width:1.0416666666666667;" x1="962.5" x2="996.875" y1="235.5886" y2="235.5886"/><line style="stroke:#5E5E5E;stroke-width:1.0416666666666667;" x1="840.625" x2="996.875" y1="269.3726" y2="269.3726"/><ellipse cx="851.0417" cy="280.8309" fill="#84BE84" rx="3.125" ry="3.125" style="stroke:#038048;stroke-width:1.0416666666666667;"/><text fill="#D8BC00" font-family="Open Sans,Avenir,Nunito,Arial,Helvetica,SansSerif" font-size="11.4583" lengthAdjust="spacing" textLength="81.25" x="862.5" y="287.7421">User getUser()</text><ellipse cx="851.0417" cy="300.5758" fill="#84BE84" rx="3.125" ry="3.125" style="stroke:#038048;stroke-width:1.0416666666666667;"/><text fill="#D8BC00" font-family="Open Sans,Avenir,Nunito,Arial,Helvetica,SansSerif" font-size="11.4583" lengthAdjust="spacing" textLength="104.1667" x="862.5" y="307.487">void setUser(User)</text><!--MD5=[3fd616f346a44cd59a91eb10b19e157c]
class User--><rect codeLine="41" fill="#282828" height="174.8576" id="User" rx="8.3333" ry="8.3333" style="stroke:#5E5E5E;stroke-width:1.0416666666666667;" width="190.625" x="175.5208" y="164.1195"/><rect fill="#1B1B1A" height="31.3883" rx="8.3333" ry="8.3333" style="stroke:#1B1B1A;stroke-width:1.0416666666666667;" width="190.625" x="175.5208" y="164.1195"/><rect fill="#1B1B1A" height="8.3333" style="stroke:#1B1B1A;stroke-width:1.0416666666666667;" width="190.625" x="175.5208" y="187.1745"/><rect codeLine="41" fill="none" height="174.8576" id="User" rx="8.3333" ry="8.3333" style="stroke:#5E5E5E;stroke-width:1.0416666666666667;" width="190.625" x="175.5208" y="164.1195"/><ellipse cx="248.9583" cy="179.8136" fill="#0066CF" rx="10.4167" ry="10.4167" style="stroke:#0086EF;stroke-width:1.0416666666666667;"/><path d="M250.8687,184.2387 Q250.4415,184.4584 249.9715,184.5683 Q249.5015,184.6781 248.9827,184.6781 Q247.1395,184.6781 246.169,183.4635 Q245.1986,182.2489 245.1986,179.954 Q245.1986,177.653 246.169,176.4384 Q247.1395,175.2238 248.9827,175.2238 Q249.5015,175.2238 249.9776,175.3337 Q250.4537,175.4435 250.8687,175.6632 L250.8687,177.6652 Q250.4049,177.238 249.9685,177.0396 Q249.5321,176.8412 249.0682,176.8412 Q248.0794,176.8412 247.5759,177.6255 Q247.0723,178.4098 247.0723,179.954 Q247.0723,181.4921 247.5759,182.2764 Q248.0794,183.0607 249.0682,183.0607 Q249.5321,183.0607 249.9685,182.8623 Q250.4049,182.664 250.8687,182.2367 Z " fill="#000000"/><text fill="#D8BC00" font-family="Open Sans,Avenir,Nunito,Arial,Helvetica,SansSerif" font-size="12.5" font-weight="bold" lengthAdjust="spacing" textLength="29.1667" x="271.875" y="184.5378">User</text><line style="stroke:#5E5E5E;stroke-width:1.5625;" x1="176.5625" x2="365.1042" y1="195.5078" y2="195.5078"/><ellipse cx="186.9792" cy="230.8777" fill="#84BE84" rx="3.125" ry="3.125" style="stroke:#038048;stroke-width:1.0416666666666667;"/><text fill="#D8BC00" font-family="Open Sans,Avenir,Nunito,Arial,Helvetica,SansSerif" font-size="11.4583" lengthAdjust="spacing" textLength="107.2917" x="198.4375" y="237.7889">User(String, String)</text><line style="stroke:#5E5E5E;stroke-width:1.0416666666666667;" x1="176.5625" x2="227.0833" y1="213.7136" y2="213.7136"/><text fill="#D8BC00" font-family="Open Sans,Avenir,Nunito,Arial,Helvetica,SansSerif" font-size="11.4583" lengthAdjust="spacing" textLength="81.25" x="230.2083" y="217.5232">(constructors)</text><line style="stroke:#5E5E5E;stroke-width:1.0416666666666667;" x1="314.5833" x2="365.1042" y1="213.7136" y2="213.7136"/><line style="stroke:#5E5E5E;stroke-width:1.0416666666666667;" x1="176.5625" x2="365.1042" y1="247.4976" y2="247.4976"/><ellipse cx="186.9792" cy="258.9559" fill="#84BE84" rx="3.125" ry="3.125" style="stroke:#038048;stroke-width:1.0416666666666667;"/><text fill="#D8BC00" font-family="Open Sans,Avenir,Nunito,Arial,Helvetica,SansSerif" font-size="11.4583" lengthAdjust="spacing" textLength="81.25" x="198.4375" y="265.8671">String getUid()</text><ellipse cx="186.9792" cy="302.6123" fill="#84BE84" rx="3.125" ry="3.125" style="stroke:#038048;stroke-width:1.0416666666666667;"/><text fill="#D8BC00" font-family="Open Sans,Avenir,Nunito,Arial,Helvetica,SansSerif" font-size="11.4583" lengthAdjust="spacing" textLength="152.0833" x="198.4375" y="309.5235">boolean hasAnyRole(Roles)</text><ellipse cx="186.9792" cy="322.3572" fill="#84BE84" rx="3.125" ry="3.125" style="stroke:#038048;stroke-width:1.0416666666666667;"/><text fill="#D8BC00" font-family="Open Sans,Avenir,Nunito,Arial,Helvetica,SansSerif" font-size="11.4583" lengthAdjust="spacing" textLength="158.3333" x="198.4375" y="329.2684">boolean hasRole(String role)</text><line style="stroke:#5E5E5E;stroke-width:1.0416666666666667;" x1="176.5625" x2="244.2708" y1="285.4482" y2="285.4482"/><text fill="#D8BC00" font-family="Open Sans,Avenir,Nunito,Arial,Helvetica,SansSerif" font-size="11.4583" lengthAdjust="spacing" textLength="46.875" x="247.3958" y="289.2578">(checks)</text><line style="stroke:#5E5E5E;stroke-width:1.0416666666666667;" x1="297.3958" x2="365.1042" y1="285.4482" y2="285.4482"/><!--MD5=[91a2bfede3a3b4339f884c056d9c9817]
class UserRolesAuthorizer--><rect codeLine="53" fill="#282828" height="83.3781" id="UserRolesAuthorizer" rx="8.3333" ry="8.3333" style="stroke:#5E5E5E;stroke-width:1.0416666666666667;" width="170.8333" x="403.125" y="209.9528"/><rect fill="#1B1B1A" height="31.3883" rx="8.3333" ry="8.3333" style="stroke:#1B1B1A;stroke-width:1.0416666666666667;" width="170.8333" x="403.125" y="209.9528"/><rect fill="#1B1B1A" height="8.3333" style="stroke:#1B1B1A;stroke-width:1.0416666666666667;" width="170.8333" x="403.125" y="233.0078"/><rect codeLine="53" fill="none" height="83.3781" id="UserRolesAuthorizer" rx="8.3333" ry="8.3333" style="stroke:#5E5E5E;stroke-width:1.0416666666666667;" width="170.8333" x="403.125" y="209.9528"/><ellipse cx="417.7083" cy="225.647" fill="#0066CF" rx="10.4167" ry="10.4167" style="stroke:#0086EF;stroke-width:1.0416666666666667;"/><path d="M419.6187,230.072 Q419.1915,230.2917 418.7215,230.4016 Q418.2515,230.5115 417.7327,230.5115 Q415.8895,230.5115 414.919,229.2969 Q413.9486,228.0823 413.9486,225.7874 Q413.9486,223.4863 414.919,222.2717 Q415.8895,221.0571 417.7327,221.0571 Q418.2515,221.0571 418.7276,221.167 Q419.2037,221.2769 419.6187,221.4966 L419.6187,223.4985 Q419.1549,223.0713 418.7185,222.8729 Q418.2821,222.6746 417.8182,222.6746 Q416.8294,222.6746 416.3259,223.4589 Q415.8223,224.2432 415.8223,225.7874 Q415.8223,227.3254 416.3259,228.1097 Q416.8294,228.894 417.8182,228.894 Q418.2821,228.894 418.7185,228.6957 Q419.1549,228.4973 419.6187,228.0701 Z " fill="#000000"/><text fill="#D8BC00" font-family="Open Sans,Avenir,Nunito,Arial,Helvetica,SansSerif" font-size="12.5" font-weight="bold" lengthAdjust="spacing" textLength="133.3333" x="434.375" y="230.3711">UserRolesAuthorizer</text><line style="stroke:#5E5E5E;stroke-width:1.5625;" x1="404.1667" x2="572.9167" y1="241.3411" y2="241.3411"/><ellipse cx="414.5833" cy="276.711" fill="#84BE84" rx="3.125" ry="3.125" style="stroke:#038048;stroke-width:1.0416666666666667;"/><text fill="#D8BC00" font-family="Open Sans,Avenir,Nunito,Arial,Helvetica,SansSerif" font-size="11.4583" lengthAdjust="spacing" textLength="125" x="426.0417" y="283.6222">UserRolesAuthorizer()</text><line style="stroke:#5E5E5E;stroke-width:1.0416666666666667;" x1="404.1667" x2="444.7917" y1="259.5469" y2="259.5469"/><text fill="#D8BC00" font-family="Open Sans,Avenir,Nunito,Arial,Helvetica,SansSerif" font-size="11.4583" lengthAdjust="spacing" textLength="81.25" x="447.9167" y="263.3565">(constructors)</text><line style="stroke:#5E5E5E;stroke-width:1.0416666666666667;" x1="532.2917" x2="572.9167" y1="259.5469" y2="259.5469"/><!--MD5=[2ff6515e7481edfef2a1531fcf5e5c2e]
reverse link WicketExamplePage to BasePage--><path codeLine="11" d="M89.5833,122.8799 C89.5833,156.2757 89.5833,200.807 89.5833,227.4945 " fill="none" id="WicketExamplePage-backto-BasePage" style="stroke:#545454;stroke-width:1.5625;"/><polygon fill="none" points="82.2917,122.7132,89.5833,101.8799,96.875,122.7132,82.2917,122.7132" style="stroke:#545454;stroke-width:1.5625;"/><!--MD5=[bc7b7fc159ccd4285a0a356af4059aba]
reverse link BasePage to Index--><path codeLine="16" d="M89.5833,297.1924 C89.5833,328.7757 89.5833,370.8278 89.5833,401.5153 " fill="none" id="BasePage-backto-Index" style="stroke:#545454;stroke-width:1.5625;"/><polygon fill="none" points="82.2917,296.7445,89.5833,275.9111,96.875,296.7445,82.2917,296.7445" style="stroke:#545454;stroke-width:1.5625;"/><!--MD5=[fc8224ac26290f2ebd461ece61527f30]
reverse link WicketExampleApplication to RolesApplication--><path codeLine="23" d="M720.8333,122.7757 C720.8333,149.5465 720.8333,183.5049 720.8333,209.682 " fill="none" id="WicketExampleApplication-backto-RolesApplication" style="stroke:#545454;stroke-width:1.5625;"/><polygon fill="none" points="713.5417,122.7132,720.8333,101.8799,728.125,122.7132,713.5417,122.7132" style="stroke:#545454;stroke-width:1.5625;"/><!--MD5=[3838b7dc368bedf066786257a668b968]
reverse link WebSession to RolesSession--><path codeLine="30" d="M918.75,122.984 C918.75,142.057 918.75,164.7236 918.75,185.6299 " fill="none" id="WebSession-backto-RolesSession" style="stroke:#545454;stroke-width:1.5625;"/><polygon fill="none" points="911.4583,122.7132,918.75,101.8799,926.0417,122.7132,911.4583,122.7132" style="stroke:#545454;stroke-width:1.5625;"/><!--MD5=[d08ca92efb7498e55eef41d95f076174]
reverse link IClusterable to User--><path codeLine="40" d="M270.8333,123.0257 C270.8333,135.5465 270.8333,149.6299 270.8333,163.734 " fill="none" id="IClusterable-backto-User" style="stroke:#545454;stroke-width:1.5625;"/><polygon fill="none" points="263.5417,122.7132,270.8333,101.8799,278.125,122.7132,263.5417,122.7132" style="stroke:#545454;stroke-width:1.5625;"/><!--MD5=[abab3e1f745d89fd467d53fb7d4882b6]
reverse link IRoleCheckingStrategy to UserRolesAuthorizer--><path codeLine="52" d="M488.5417,122.7757 C488.5417,149.5465 488.5417,183.5049 488.5417,209.682 " fill="none" id="IRoleCheckingStrategy-backto-UserRolesAuthorizer" style="stroke:#545454;stroke-width:1.5625;"/><polygon fill="none" points="481.25,122.7132,488.5417,101.8799,495.8333,122.7132,481.25,122.7132" style="stroke:#545454;stroke-width:1.5625;"/><!--MD5=[22e7415b0c469307697ac90c13582aee]
@startuml

    !include lexakai.theme
    
    title "org.apache.wicket.examples.authorization"
    
    abstract BasePage
    
    interface IClusterable
    interface IRoleCheckingStrategy
    
    WicketExamplePage <|- - BasePage
    class BasePage
    {
    }
    
    BasePage <|- - Index
    class Index
    {
        - -(constructors)- -
        +Index()
    }
    
    WicketExampleApplication <|- - RolesApplication
    class RolesApplication
    {
        - -(constructors)- -
        +RolesApplication()
    }
    
    WebSession <|- - RolesSession
    class RolesSession
    {
        - -(constructors)- -
        +RolesSession(Request)
        - -
        +User getUser()
        +void setUser(User)
    }
    
    IClusterable <|- - User
    class User
    {
        - -(constructors)- -
        +User(String, String)
        - -
        +String getUid()
        - -(checks)- -
        +boolean hasAnyRole(Roles)
        +boolean hasRole(String role)
    }
    
    IRoleCheckingStrategy <|- - UserRolesAuthorizer
    class UserRolesAuthorizer
    {
        - -(constructors)- -
        +UserRolesAuthorizer()
    }
    
@enduml

@startuml









skinparam backgroundColor #333333






skinparam  {
    defaultFontName   "Open Sans,Avenir,Nunito,Arial,Helvetica,SansSerif"
    defaultFontSize   12
    defaultTextAlignment left
    shadowing false
    RoundCorner 10
    TitleFontSize 18
}

skinparam defaultFontName       "Open Sans,Avenir,Nunito,Arial,Helvetica,SansSerif"
skinparam defaultFontSize       12
skinparam dpi                   100
skinparam shadowing             false
skinparam roundcorner           16
skinparam ParticipantPadding    40
skinparam BoxPadding            40
skinparam Padding               3
skinparam ArrowColor            #545454
skinparam stereotype {
    CBackgroundColor #0066cf
    CBorderColor #0086ef
    ABackgroundColor #C8Ac00
    ABorderColor #D8Bc00
    IBackgroundColor #008400
    IBorderColor #239c23
    EBackgroundColor #cf6300
    EBorderColor #ef8300
    NBackgroundColor #3380b9
    NBorderColor #004d86
}
skinparam title {
	FontColor	                 #c0c0c0
 	BorderColor                  #545454
	FontSize	    	         20
	BorderRoundCorner            16
	BorderThickness 	         1
	BackgroundColor              #48494b
}


skinparam legend {
	BackgroundColor #303030
	BorderColor #404040
	FontColor #a0a0a0
}

	skinparam swimlane {
	BorderColor #5e5e5e
	BorderThickness 2
	TitleBackgroundColor  #6d6d6d-#484848
	TitleFontColor #303030
}

skinparam activity {
		FontColor #C8Ac00
	BorderColor #333333
	BackgroundColor #333333-#333333
	BarColor #00FF00
	StartColor #0060a8
	EndColor #0060a8
	DiamondBackgroundColor #6d6d6d-#3a3a3a
  	DiamondBorderColor #3a3a3a
  	DiamondFontColor #fefefe
}


skinparam participant {
		FontColor #C8Ac00
	BorderColor #333333
	BackgroundColor #333333-#333333
	ParticipantBorderThickness 2
}


skinparam actor {
		FontColor #C8Ac00
	BorderColor #333333
	BackgroundColor #333333-#333333
}


skinparam arrow {
	Thickness 1.5
	Color #545454
	FontColor #a0a0a0
    FontStyle bold
    MessageAlignment center
}



skinparam sequence {
	BorderColor #303030
	TitleFontColor #303030
	BackgroundColor #333333
	StartColor #303030
	EndColor #303030
	BoxBackgroundColor #333333
	BoxBorderColor #484848
	BoxFontColor #484848
	LifeLineBorderColor #484848
	LifeLineBorderThickness 2
	LifeLineBackgroundColor #3a3a3a
	GroupBorderColor #484848
	GroupFontColor #484848
	GroupHeaderFontColor #0060a8
	GroupBackgroundColor #484848
	GroupHeaderBackgroundColor #333333
	DividerBackgroundColor #484848
    DividerBorderColor #484848
    DividerBorderThickness 2
    DividerFontColor #D8Bc00
	ReferenceBackgroundColor #333333
	ReferenceBorderColor #484848
	ReferenceFontColor #fefefe
	ReferenceHeaderBackgroundColor #484848
}


skinparam partition {
	BorderColor #303030
	FontColor #333333
	BackgroundColor #333333
}


skinparam collections {
		FontColor #C8Ac00
	BorderColor #333333
	BackgroundColor #333333-#333333
}


skinparam control {
		FontColor #C8Ac00
	BorderColor #333333
	BackgroundColor #333333-#333333
}


skinparam entity {
		FontColor #C8Ac00
	BorderColor #333333
	BackgroundColor #333333-#333333
}


skinparam boundary {
		FontColor #C8Ac00
	BorderColor #333333
	BackgroundColor #333333-#333333
}


skinparam agent {
	BackgroundColor #ff8000
	BorderColor #ff9933
	FontColor #484848
}


skinparam note {
	BorderThickness 1
	BackgroundColor #1b1b1a
	BorderColor #5e5e5e
	FontSize 11
	FontColor #a0a0a0
}


skinparam artifact {
	BorderThickness 10
	BorderColor #5e5e5e
	BackgroundColor #1b1b1a
	FontColor #D8Bc00
}


skinparam component {
		FontColor #C8Ac00
	BorderColor #333333
	BackgroundColor #333333-#333333
}


skinparam interface {
	BackgroundColor  #008400
	BorderColor  #007F00
	FontColor #484848
}


skinparam storage {
	BackgroundColor #ff8000
  	BorderColor #cc6600
	FontColor #222222
}


skinparam node {
	BackgroundColor #333333
	BorderColor #333333
	FontColor #C8Ac00
}


skinparam cloud {
	BackgroundColor #484848-black
	BorderColor #484848
	FontColor #D8Bc00
}


skinparam database {
		FontColor #C8Ac00
	BorderColor #333333
	BackgroundColor #333333-#333333
	BackgroundColor  #333333
}


skinparam class {
		FontColor #C8Ac00
	BorderColor #333333
	BackgroundColor #333333-#333333
	HeaderBackgroundColor #1b1b1a
    BackgroundColor #282828
    BorderColor #5e5e5e
 	StereotypeFontColor #a0a0a0
    StereotypeFontStyle bold
	BorderThickness 1
	AttributeFontColor #D8Bc00
	AttributeFontSize 11
    FontColor #D8Bc00
    FontStyle bold
}


skinparam object {
		FontColor #C8Ac00
	BorderColor #333333
	BackgroundColor #333333-#333333
	StereotypeFontColor #484848
	BorderThickness 1
	AttributeFontColor #fefefe
	AttributeFontSize 11
}


skinparam usecase {
		FontColor #C8Ac00
	BorderColor #333333
	BackgroundColor #333333-#333333
	BorderThickness 2
	StereotypeFontColor #303030
}


skinparam rectangle {
		FontColor #C8Ac00
	BorderColor #333333
	BackgroundColor #333333-#333333
	BackgroundColor #333333
	BorderThickness 2
	StereotypeFontColor #303030
}


skinparam package {
		FontColor #C8Ac00
	BorderColor #333333
	BackgroundColor #333333-#333333
	BackgroundColor #333333
	BorderThickness 2
}


skinparam folder {
	BackgroundColor #6d6d6d
  	BorderColor #ff8000
	FontColor #ff8000
	BorderThickness 2
}


skinparam frame {
	BackgroundColor #6d6d6d
  	BorderColor #0060a8
	FontColor #0060a8
	BorderThickness 2
}


skinparam state {
		FontColor #C8Ac00
	BorderColor #333333
	BackgroundColor #333333-#333333
	StartColor #0060a8
	EndColor #0060a8
	AttributeFontColor #fefefe
	AttributeFontSize 11
}


skinparam queue {
		FontColor #C8Ac00
	BorderColor #333333
	BackgroundColor #333333-#333333
}


skinparam card {
	BackgroundColor #0060a8
	BorderColor #004d86
	FontColor $INFO_TEXT
}


skinparam file {
	BackgroundColor #6d6d6d-#484848
	BorderColor #0060a8
	FontColor #fefefe
}


skinparam stack {
		FontColor #C8Ac00
	BorderColor #333333
	BackgroundColor #333333-#333333
}

    
    title "org.apache.wicket.examples.authorization"
    
    abstract BasePage
    
    interface IClusterable
    interface IRoleCheckingStrategy
    
    WicketExamplePage <|- - BasePage
    class BasePage
    {
    }
    
    BasePage <|- - Index
    class Index
    {
        - -(constructors)- -
        +Index()
    }
    
    WicketExampleApplication <|- - RolesApplication
    class RolesApplication
    {
        - -(constructors)- -
        +RolesApplication()
    }
    
    WebSession <|- - RolesSession
    class RolesSession
    {
        - -(constructors)- -
        +RolesSession(Request)
        - -
        +User getUser()
        +void setUser(User)
    }
    
    IClusterable <|- - User
    class User
    {
        - -(constructors)- -
        +User(String, String)
        - -
        +String getUid()
        - -(checks)- -
        +boolean hasAnyRole(Roles)
        +boolean hasRole(String role)
    }
    
    IRoleCheckingStrategy <|- - UserRolesAuthorizer
    class UserRolesAuthorizer
    {
        - -(constructors)- -
        +UserRolesAuthorizer()
    }
    
@enduml

PlantUML version 1.2021.01(Tue Feb 02 00:55:08 MST 2021)
(GPL source distribution)
Java Runtime: Java(TM) SE Runtime Environment
JVM: Java HotSpot(TM) 64-Bit Server VM
Default Encoding: UTF-8
Language: en
Country: US
--></g></svg>