<?xml version="1.0" encoding="UTF-8" standalone="no"?><svg xmlns="http://www.w3.org/2000/svg" xmlns:xlink="http://www.w3.org/1999/xlink" contentScriptType="application/ecmascript" contentStyleType="text/css" height="254.1667px" preserveAspectRatio="none" style="width:430px;height:254px;background:#333333;" version="1.1" viewBox="0 0 430 254" width="430.2083px" zoomAndPan="magnify"><defs/><g><rect fill="#48494B" height="41.2028" rx="8.3333" ry="8.3333" style="stroke:#545454;stroke-width:1.0416666666666667;" width="417.7083" x="2.0833" y="2.0833"/><text fill="#C0C0C0" font-family="Open Sans,Avenir,Nunito,Arial,Helvetica,SansSerif" font-size="20.8333" lengthAdjust="spacing" textLength="394.7917" x="13.5417" y="30.5583">org.apache.wicket.examples.helloworld</text><!--MD5=[8de0e4c819f220f8e0c4c4df41ba59ce]
class WicketExamplePage--><rect fill="#282828" height="48.055" id="WicketExamplePage" rx="8.3333" ry="8.3333" style="stroke:#5E5E5E;stroke-width:1.0416666666666667;" width="164.5833" x="13.5417" y="53.7028"/><rect fill="#1B1B1A" height="31.3883" rx="8.3333" ry="8.3333" style="stroke:#1B1B1A;stroke-width:1.0416666666666667;" width="164.5833" x="13.5417" y="53.7028"/><rect fill="#1B1B1A" height="8.3333" style="stroke:#1B1B1A;stroke-width:1.0416666666666667;" width="164.5833" x="13.5417" y="76.7578"/><rect fill="none" height="48.055" id="WicketExamplePage" rx="8.3333" ry="8.3333" style="stroke:#5E5E5E;stroke-width:1.0416666666666667;" width="164.5833" x="13.5417" y="53.7028"/><ellipse cx="28.125" cy="69.397" fill="#0066CF" rx="10.4167" ry="10.4167" style="stroke:#0086EF;stroke-width:1.0416666666666667;"/><path d="M30.0354,73.822 Q29.6082,74.0417 29.1382,74.1516 Q28.6682,74.2615 28.1494,74.2615 Q26.3062,74.2615 25.3357,73.0469 Q24.3652,71.8323 24.3652,69.5374 Q24.3652,67.2363 25.3357,66.0217 Q26.3062,64.8071 28.1494,64.8071 Q28.6682,64.8071 29.1443,64.917 Q29.6204,65.0269 30.0354,65.2466 L30.0354,67.2485 Q29.5715,66.8213 29.1351,66.6229 Q28.6987,66.4246 28.2349,66.4246 Q27.2461,66.4246 26.7426,67.2089 Q26.239,67.9932 26.239,69.5374 Q26.239,71.0754 26.7426,71.8597 Q27.2461,72.644 28.2349,72.644 Q28.6987,72.644 29.1351,72.4457 Q29.5715,72.2473 30.0354,71.8201 Z " fill="#000000"/><text fill="#D8BC00" font-family="Open Sans,Avenir,Nunito,Arial,Helvetica,SansSerif" font-size="12.5" font-weight="bold" lengthAdjust="spacing" textLength="127.0833" x="44.7917" y="74.1211">WicketExamplePage</text><line style="stroke:#5E5E5E;stroke-width:1.0416666666666667;" x1="14.5833" x2="177.0833" y1="85.0911" y2="85.0911"/><line style="stroke:#5E5E5E;stroke-width:1.0416666666666667;" x1="14.5833" x2="177.0833" y1="93.4245" y2="93.4245"/><!--MD5=[b050429320e12e9c975de2cee8d92090]
class HelloWorld--><rect codeLine="7" fill="#282828" height="83.3781" id="HelloWorld" rx="8.3333" ry="8.3333" style="stroke:#5E5E5E;stroke-width:1.0416666666666667;" width="108.3333" x="41.6667" y="164.1195"/><rect fill="#1B1B1A" height="31.3883" rx="8.3333" ry="8.3333" style="stroke:#1B1B1A;stroke-width:1.0416666666666667;" width="108.3333" x="41.6667" y="164.1195"/><rect fill="#1B1B1A" height="8.3333" style="stroke:#1B1B1A;stroke-width:1.0416666666666667;" width="108.3333" x="41.6667" y="187.1745"/><rect codeLine="7" fill="none" height="83.3781" id="HelloWorld" rx="8.3333" ry="8.3333" style="stroke:#5E5E5E;stroke-width:1.0416666666666667;" width="108.3333" x="41.6667" y="164.1195"/><ellipse cx="56.25" cy="179.8136" fill="#0066CF" rx="10.4167" ry="10.4167" style="stroke:#0086EF;stroke-width:1.0416666666666667;"/><path d="M58.1604,184.2387 Q57.7332,184.4584 57.2632,184.5683 Q56.7932,184.6781 56.2744,184.6781 Q54.4312,184.6781 53.4607,183.4635 Q52.4902,182.2489 52.4902,179.954 Q52.4902,177.653 53.4607,176.4384 Q54.4312,175.2238 56.2744,175.2238 Q56.7932,175.2238 57.2693,175.3337 Q57.7454,175.4435 58.1604,175.6632 L58.1604,177.6652 Q57.6965,177.238 57.2601,177.0396 Q56.8237,176.8412 56.3599,176.8412 Q55.3711,176.8412 54.8676,177.6255 Q54.364,178.4098 54.364,179.954 Q54.364,181.4921 54.8676,182.2764 Q55.3711,183.0607 56.3599,183.0607 Q56.8237,183.0607 57.2601,182.8623 Q57.6965,182.664 58.1604,182.2367 Z " fill="#000000"/><text fill="#D8BC00" font-family="Open Sans,Avenir,Nunito,Arial,Helvetica,SansSerif" font-size="12.5" font-weight="bold" lengthAdjust="spacing" textLength="70.8333" x="72.9167" y="184.5378">HelloWorld</text><line style="stroke:#5E5E5E;stroke-width:1.5625;" x1="42.7083" x2="148.9583" y1="195.5078" y2="195.5078"/><ellipse cx="53.125" cy="230.8777" fill="#84BE84" rx="3.125" ry="3.125" style="stroke:#038048;stroke-width:1.0416666666666667;"/><text fill="#D8BC00" font-family="Open Sans,Avenir,Nunito,Arial,Helvetica,SansSerif" font-size="11.4583" lengthAdjust="spacing" textLength="68.75" x="64.5833" y="237.7889">HelloWorld()</text><line style="stroke:#5E5E5E;stroke-width:1.0416666666666667;" x1="42.7083" x2="52.0833" y1="213.7136" y2="213.7136"/><text fill="#D8BC00" font-family="Open Sans,Avenir,Nunito,Arial,Helvetica,SansSerif" font-size="11.4583" lengthAdjust="spacing" textLength="81.25" x="55.2083" y="217.5232">(constructors)</text><line style="stroke:#5E5E5E;stroke-width:1.0416666666666667;" x1="139.5833" x2="148.9583" y1="213.7136" y2="213.7136"/><!--MD5=[818b680dd029f5404dc253254408b9c3]
class WicketExampleApplication--><rect fill="#282828" height="48.055" id="WicketExampleApplication" rx="8.3333" ry="8.3333" style="stroke:#5E5E5E;stroke-width:1.0416666666666667;" width="208.3333" x="214.5833" y="53.7028"/><rect fill="#1B1B1A" height="31.3883" rx="8.3333" ry="8.3333" style="stroke:#1B1B1A;stroke-width:1.0416666666666667;" width="208.3333" x="214.5833" y="53.7028"/><rect fill="#1B1B1A" height="8.3333" style="stroke:#1B1B1A;stroke-width:1.0416666666666667;" width="208.3333" x="214.5833" y="76.7578"/><rect fill="none" height="48.055" id="WicketExampleApplication" rx="8.3333" ry="8.3333" style="stroke:#5E5E5E;stroke-width:1.0416666666666667;" width="208.3333" x="214.5833" y="53.7028"/><ellipse cx="229.1667" cy="69.397" fill="#0066CF" rx="10.4167" ry="10.4167" style="stroke:#0086EF;stroke-width:1.0416666666666667;"/><path d="M231.0771,73.822 Q230.6498,74.0417 230.1799,74.1516 Q229.7099,74.2615 229.1911,74.2615 Q227.3478,74.2615 226.3774,73.0469 Q225.4069,71.8323 225.4069,69.5374 Q225.4069,67.2363 226.3774,66.0217 Q227.3478,64.8071 229.1911,64.8071 Q229.7099,64.8071 230.186,64.917 Q230.662,65.0269 231.0771,65.2466 L231.0771,67.2485 Q230.6132,66.8213 230.1768,66.6229 Q229.7404,66.4246 229.2765,66.4246 Q228.2878,66.4246 227.7842,67.2089 Q227.2807,67.9932 227.2807,69.5374 Q227.2807,71.0754 227.7842,71.8597 Q228.2878,72.644 229.2765,72.644 Q229.7404,72.644 230.1768,72.4457 Q230.6132,72.2473 231.0771,71.8201 Z " fill="#000000"/><text fill="#D8BC00" font-family="Open Sans,Avenir,Nunito,Arial,Helvetica,SansSerif" font-size="12.5" font-weight="bold" lengthAdjust="spacing" textLength="170.8333" x="245.8333" y="74.1211">WicketExampleApplication</text><line style="stroke:#5E5E5E;stroke-width:1.0416666666666667;" x1="215.625" x2="421.875" y1="85.0911" y2="85.0911"/><line style="stroke:#5E5E5E;stroke-width:1.0416666666666667;" x1="215.625" x2="421.875" y1="93.4245" y2="93.4245"/><!--MD5=[1278b1568a2a07253b7fd96fac6c8553]
class HelloWorldApplication--><rect codeLine="14" fill="#282828" height="48.055" id="HelloWorldApplication" rx="8.3333" ry="8.3333" style="stroke:#5E5E5E;stroke-width:1.0416666666666667;" width="182.2917" x="227.6042" y="181.8278"/><rect fill="#1B1B1A" height="31.3883" rx="8.3333" ry="8.3333" style="stroke:#1B1B1A;stroke-width:1.0416666666666667;" width="182.2917" x="227.6042" y="181.8278"/><rect fill="#1B1B1A" height="8.3333" style="stroke:#1B1B1A;stroke-width:1.0416666666666667;" width="182.2917" x="227.6042" y="204.8828"/><rect codeLine="14" fill="none" height="48.055" id="HelloWorldApplication" rx="8.3333" ry="8.3333" style="stroke:#5E5E5E;stroke-width:1.0416666666666667;" width="182.2917" x="227.6042" y="181.8278"/><ellipse cx="242.1875" cy="197.522" fill="#0066CF" rx="10.4167" ry="10.4167" style="stroke:#0086EF;stroke-width:1.0416666666666667;"/><path d="M244.0979,201.947 Q243.6707,202.1667 243.2007,202.2766 Q242.7307,202.3865 242.2119,202.3865 Q240.3687,202.3865 239.3982,201.1719 Q238.4277,199.9573 238.4277,197.6624 Q238.4277,195.3613 239.3982,194.1467 Q240.3687,192.9321 242.2119,192.9321 Q242.7307,192.9321 243.2068,193.042 Q243.6829,193.1519 244.0979,193.3716 L244.0979,195.3735 Q243.634,194.9463 243.1976,194.7479 Q242.7612,194.5496 242.2974,194.5496 Q241.3086,194.5496 240.8051,195.3339 Q240.3015,196.1182 240.3015,197.6624 Q240.3015,199.2004 240.8051,199.9847 Q241.3086,200.769 242.2974,200.769 Q242.7612,200.769 243.1976,200.5707 Q243.634,200.3723 244.0979,199.9451 Z " fill="#000000"/><text fill="#D8BC00" font-family="Open Sans,Avenir,Nunito,Arial,Helvetica,SansSerif" font-size="12.5" font-weight="bold" lengthAdjust="spacing" textLength="144.7917" x="258.8542" y="202.2461">HelloWorldApplication</text><line style="stroke:#5E5E5E;stroke-width:1.0416666666666667;" x1="228.6458" x2="408.8542" y1="213.2161" y2="213.2161"/><line style="stroke:#5E5E5E;stroke-width:1.0416666666666667;" x1="228.6458" x2="408.8542" y1="221.5495" y2="221.5495"/><!--MD5=[1699b01c63c7014309532efddf8f2010]
reverse link WicketExamplePage to HelloWorld--><path codeLine="6" d="M95.8333,122.682 C95.8333,136.0778 95.8333,150.7445 95.8333,163.9215 " fill="none" id="WicketExamplePage-backto-HelloWorld" style="stroke:#545454;stroke-width:1.5625;"/><polygon fill="none" points="88.5417,122.6507,95.8333,101.8174,103.125,122.6507,88.5417,122.6507" style="stroke:#545454;stroke-width:1.5625;"/><!--MD5=[18b8f48f5dfc436fbfffeb9b0b6daf6d]
reverse link WicketExampleApplication to HelloWorldApplication--><path codeLine="13" d="M318.75,122.9528 C318.75,142.7965 318.75,165.3799 318.75,181.7757 " fill="none" id="WicketExampleApplication-backto-HelloWorldApplication" style="stroke:#545454;stroke-width:1.5625;"/><polygon fill="none" points="311.4583,122.6507,318.75,101.8174,326.0417,122.6507,311.4583,122.6507" style="stroke:#545454;stroke-width:1.5625;"/><!--MD5=[c29d2c369d3037c8318e9ecca57425dd]
@startuml

    !include lexakai.theme
    
    title "org.apache.wicket.examples.helloworld"
    
    WicketExamplePage <|- - HelloWorld
    class HelloWorld
    {
        - -(constructors)- -
        +HelloWorld()
    }
    
    WicketExampleApplication <|- - HelloWorldApplication
    class HelloWorldApplication
    {
    }
    
@enduml

@startuml









skinparam backgroundColor #333333






skinparam  {
    defaultFontName   "Open Sans,Avenir,Nunito,Arial,Helvetica,SansSerif"
    defaultFontSize   12
    defaultTextAlignment left
    shadowing false
    RoundCorner 10
    TitleFontSize 18
}

skinparam defaultFontName       "Open Sans,Avenir,Nunito,Arial,Helvetica,SansSerif"
skinparam defaultFontSize       12
skinparam dpi                   100
skinparam shadowing             false
skinparam roundcorner           16
skinparam ParticipantPadding    40
skinparam BoxPadding            40
skinparam Padding               3
skinparam ArrowColor            #545454
skinparam stereotype {
    CBackgroundColor #0066cf
    CBorderColor #0086ef
    ABackgroundColor #C8Ac00
    ABorderColor #D8Bc00
    IBackgroundColor #008400
    IBorderColor #239c23
    EBackgroundColor #cf6300
    EBorderColor #ef8300
    NBackgroundColor #3380b9
    NBorderColor #004d86
}
skinparam title {
	FontColor	                 #c0c0c0
 	BorderColor                  #545454
	FontSize	    	         20
	BorderRoundCorner            16
	BorderThickness 	         1
	BackgroundColor              #48494b
}


skinparam legend {
	BackgroundColor #303030
	BorderColor #404040
	FontColor #a0a0a0
}

	skinparam swimlane {
	BorderColor #5e5e5e
	BorderThickness 2
	TitleBackgroundColor  #6d6d6d-#484848
	TitleFontColor #303030
}

skinparam activity {
		FontColor #C8Ac00
	BorderColor #333333
	BackgroundColor #333333-#333333
	BarColor #00FF00
	StartColor #0060a8
	EndColor #0060a8
	DiamondBackgroundColor #6d6d6d-#3a3a3a
  	DiamondBorderColor #3a3a3a
  	DiamondFontColor #fefefe
}


skinparam participant {
		FontColor #C8Ac00
	BorderColor #333333
	BackgroundColor #333333-#333333
	ParticipantBorderThickness 2
}


skinparam actor {
		FontColor #C8Ac00
	BorderColor #333333
	BackgroundColor #333333-#333333
}


skinparam arrow {
	Thickness 1.5
	Color #545454
	FontColor #a0a0a0
    FontStyle bold
    MessageAlignment center
}



skinparam sequence {
	BorderColor #303030
	TitleFontColor #303030
	BackgroundColor #333333
	StartColor #303030
	EndColor #303030
	BoxBackgroundColor #333333
	BoxBorderColor #484848
	BoxFontColor #484848
	LifeLineBorderColor #484848
	LifeLineBorderThickness 2
	LifeLineBackgroundColor #3a3a3a
	GroupBorderColor #484848
	GroupFontColor #484848
	GroupHeaderFontColor #0060a8
	GroupBackgroundColor #484848
	GroupHeaderBackgroundColor #333333
	DividerBackgroundColor #484848
    DividerBorderColor #484848
    DividerBorderThickness 2
    DividerFontColor #D8Bc00
	ReferenceBackgroundColor #333333
	ReferenceBorderColor #484848
	ReferenceFontColor #fefefe
	ReferenceHeaderBackgroundColor #484848
}


skinparam partition {
	BorderColor #303030
	FontColor #333333
	BackgroundColor #333333
}


skinparam collections {
		FontColor #C8Ac00
	BorderColor #333333
	BackgroundColor #333333-#333333
}


skinparam control {
		FontColor #C8Ac00
	BorderColor #333333
	BackgroundColor #333333-#333333
}


skinparam entity {
		FontColor #C8Ac00
	BorderColor #333333
	BackgroundColor #333333-#333333
}


skinparam boundary {
		FontColor #C8Ac00
	BorderColor #333333
	BackgroundColor #333333-#333333
}


skinparam agent {
	BackgroundColor #ff8000
	BorderColor #ff9933
	FontColor #484848
}


skinparam note {
	BorderThickness 1
	BackgroundColor #1b1b1a
	BorderColor #5e5e5e
	FontSize 11
	FontColor #a0a0a0
}


skinparam artifact {
	BorderThickness 10
	BorderColor #5e5e5e
	BackgroundColor #1b1b1a
	FontColor #D8Bc00
}


skinparam component {
		FontColor #C8Ac00
	BorderColor #333333
	BackgroundColor #333333-#333333
}


skinparam interface {
	BackgroundColor  #008400
	BorderColor  #007F00
	FontColor #484848
}


skinparam storage {
	BackgroundColor #ff8000
  	BorderColor #cc6600
	FontColor #222222
}


skinparam node {
	BackgroundColor #333333
	BorderColor #333333
	FontColor #C8Ac00
}


skinparam cloud {
	BackgroundColor #484848-black
	BorderColor #484848
	FontColor #D8Bc00
}


skinparam database {
		FontColor #C8Ac00
	BorderColor #333333
	BackgroundColor #333333-#333333
	BackgroundColor  #333333
}


skinparam class {
		FontColor #C8Ac00
	BorderColor #333333
	BackgroundColor #333333-#333333
	HeaderBackgroundColor #1b1b1a
    BackgroundColor #282828
    BorderColor #5e5e5e
 	StereotypeFontColor #a0a0a0
    StereotypeFontStyle bold
	BorderThickness 1
	AttributeFontColor #D8Bc00
	AttributeFontSize 11
    FontColor #D8Bc00
    FontStyle bold
}


skinparam object {
		FontColor #C8Ac00
	BorderColor #333333
	BackgroundColor #333333-#333333
	StereotypeFontColor #484848
	BorderThickness 1
	AttributeFontColor #fefefe
	AttributeFontSize 11
}


skinparam usecase {
		FontColor #C8Ac00
	BorderColor #333333
	BackgroundColor #333333-#333333
	BorderThickness 2
	StereotypeFontColor #303030
}


skinparam rectangle {
		FontColor #C8Ac00
	BorderColor #333333
	BackgroundColor #333333-#333333
	BackgroundColor #333333
	BorderThickness 2
	StereotypeFontColor #303030
}


skinparam package {
		FontColor #C8Ac00
	BorderColor #333333
	BackgroundColor #333333-#333333
	BackgroundColor #333333
	BorderThickness 2
}


skinparam folder {
	BackgroundColor #6d6d6d
  	BorderColor #ff8000
	FontColor #ff8000
	BorderThickness 2
}


skinparam frame {
	BackgroundColor #6d6d6d
  	BorderColor #0060a8
	FontColor #0060a8
	BorderThickness 2
}


skinparam state {
		FontColor #C8Ac00
	BorderColor #333333
	BackgroundColor #333333-#333333
	StartColor #0060a8
	EndColor #0060a8
	AttributeFontColor #fefefe
	AttributeFontSize 11
}


skinparam queue {
		FontColor #C8Ac00
	BorderColor #333333
	BackgroundColor #333333-#333333
}


skinparam card {
	BackgroundColor #0060a8
	BorderColor #004d86
	FontColor $INFO_TEXT
}


skinparam file {
	BackgroundColor #6d6d6d-#484848
	BorderColor #0060a8
	FontColor #fefefe
}


skinparam stack {
		FontColor #C8Ac00
	BorderColor #333333
	BackgroundColor #333333-#333333
}

    
    title "org.apache.wicket.examples.helloworld"
    
    WicketExamplePage <|- - HelloWorld
    class HelloWorld
    {
        - -(constructors)- -
        +HelloWorld()
    }
    
    WicketExampleApplication <|- - HelloWorldApplication
    class HelloWorldApplication
    {
    }
    
@enduml

PlantUML version 1.2021.01(Tue Feb 02 00:55:08 MST 2021)
(GPL source distribution)
Java Runtime: Java(TM) SE Runtime Environment
JVM: Java HotSpot(TM) 64-Bit Server VM
Default Encoding: UTF-8
Language: en
Country: US
--></g></svg>