<?xml version="1.0" encoding="UTF-8" standalone="no"?><svg xmlns="http://www.w3.org/2000/svg" xmlns:xlink="http://www.w3.org/1999/xlink" contentScriptType="application/ecmascript" contentStyleType="text/css" height="254.1667px" preserveAspectRatio="none" style="width:675px;height:254px;background:#333333;" version="1.1" viewBox="0 0 675 254" width="675px" zoomAndPan="magnify"><defs/><g><rect fill="#48494B" height="41.2028" rx="8.3333" ry="8.3333" style="stroke:#545454;stroke-width:1.0416666666666667;" width="485.4167" x="87.5" y="2.0833"/><text fill="#C0C0C0" font-family="Open Sans,Avenir,Nunito,Arial,Helvetica,SansSerif" font-size="20.8333" lengthAdjust="spacing" textLength="462.5" x="98.9583" y="30.5583">org.apache.wicket.examples.spring.annot.web</text><!--MD5=[816da445f1ea0e331b18ac201f1572bd]
class ContactsDisplayPage--><rect fill="#282828" height="48.055" id="ContactsDisplayPage" rx="8.3333" ry="8.3333" style="stroke:#5E5E5E;stroke-width:1.0416666666666667;" width="173.9583" x="7.2917" y="53.7028"/><rect fill="#1B1B1A" height="31.3883" rx="8.3333" ry="8.3333" style="stroke:#1B1B1A;stroke-width:1.0416666666666667;" width="173.9583" x="7.2917" y="53.7028"/><rect fill="#1B1B1A" height="8.3333" style="stroke:#1B1B1A;stroke-width:1.0416666666666667;" width="173.9583" x="7.2917" y="76.7578"/><rect fill="none" height="48.055" id="ContactsDisplayPage" rx="8.3333" ry="8.3333" style="stroke:#5E5E5E;stroke-width:1.0416666666666667;" width="173.9583" x="7.2917" y="53.7028"/><ellipse cx="21.875" cy="69.397" fill="#0066CF" rx="10.4167" ry="10.4167" style="stroke:#0086EF;stroke-width:1.0416666666666667;"/><path d="M23.7854,73.822 Q23.3582,74.0417 22.8882,74.1516 Q22.4182,74.2615 21.8994,74.2615 Q20.0562,74.2615 19.0857,73.0469 Q18.1152,71.8323 18.1152,69.5374 Q18.1152,67.2363 19.0857,66.0217 Q20.0562,64.8071 21.8994,64.8071 Q22.4182,64.8071 22.8943,64.917 Q23.3704,65.0269 23.7854,65.2466 L23.7854,67.2485 Q23.3215,66.8213 22.8851,66.6229 Q22.4487,66.4246 21.9849,66.4246 Q20.9961,66.4246 20.4926,67.2089 Q19.989,67.9932 19.989,69.5374 Q19.989,71.0754 20.4926,71.8597 Q20.9961,72.644 21.9849,72.644 Q22.4487,72.644 22.8851,72.4457 Q23.3215,72.2473 23.7854,71.8201 Z " fill="#000000"/><text fill="#D8BC00" font-family="Open Sans,Avenir,Nunito,Arial,Helvetica,SansSerif" font-size="12.5" font-weight="bold" lengthAdjust="spacing" textLength="136.4583" x="38.5417" y="74.1211">ContactsDisplayPage</text><line style="stroke:#5E5E5E;stroke-width:1.0416666666666667;" x1="8.3333" x2="180.2083" y1="85.0911" y2="85.0911"/><line style="stroke:#5E5E5E;stroke-width:1.0416666666666667;" x1="8.3333" x2="180.2083" y1="93.4245" y2="93.4245"/><!--MD5=[41c1f97867f82375310a49b2d83c7d26]
class AnnotPage--><rect codeLine="7" fill="#282828" height="48.055" id="AnnotPage" rx="8.3333" ry="8.3333" style="stroke:#5E5E5E;stroke-width:1.0416666666666667;" width="107.2917" x="40.625" y="181.8278"/><rect fill="#1B1B1A" height="31.3883" rx="8.3333" ry="8.3333" style="stroke:#1B1B1A;stroke-width:1.0416666666666667;" width="107.2917" x="40.625" y="181.8278"/><rect fill="#1B1B1A" height="8.3333" style="stroke:#1B1B1A;stroke-width:1.0416666666666667;" width="107.2917" x="40.625" y="204.8828"/><rect codeLine="7" fill="none" height="48.055" id="AnnotPage" rx="8.3333" ry="8.3333" style="stroke:#5E5E5E;stroke-width:1.0416666666666667;" width="107.2917" x="40.625" y="181.8278"/><ellipse cx="55.2083" cy="197.522" fill="#0066CF" rx="10.4167" ry="10.4167" style="stroke:#0086EF;stroke-width:1.0416666666666667;"/><path d="M57.1187,201.947 Q56.6915,202.1667 56.2215,202.2766 Q55.7515,202.3865 55.2327,202.3865 Q53.3895,202.3865 52.419,201.1719 Q51.4486,199.9573 51.4486,197.6624 Q51.4486,195.3613 52.419,194.1467 Q53.3895,192.9321 55.2327,192.9321 Q55.7515,192.9321 56.2276,193.042 Q56.7037,193.1519 57.1187,193.3716 L57.1187,195.3735 Q56.6549,194.9463 56.2185,194.7479 Q55.7821,194.5496 55.3182,194.5496 Q54.3294,194.5496 53.8259,195.3339 Q53.3223,196.1182 53.3223,197.6624 Q53.3223,199.2004 53.8259,199.9847 Q54.3294,200.769 55.3182,200.769 Q55.7821,200.769 56.2185,200.5707 Q56.6549,200.3723 57.1187,199.9451 Z " fill="#000000"/><text fill="#D8BC00" font-family="Open Sans,Avenir,Nunito,Arial,Helvetica,SansSerif" font-size="12.5" font-weight="bold" lengthAdjust="spacing" textLength="69.7917" x="71.875" y="202.2461">AnnotPage</text><line style="stroke:#5E5E5E;stroke-width:1.0416666666666667;" x1="41.6667" x2="146.875" y1="213.2161" y2="213.2161"/><line style="stroke:#5E5E5E;stroke-width:1.0416666666666667;" x1="41.6667" x2="146.875" y1="221.5495" y2="221.5495"/><!--MD5=[9ee654b249f70a188c9760d3d2035225]
class ContactDataProvider--><rect fill="#282828" height="48.055" id="ContactDataProvider" rx="8.3333" ry="8.3333" style="stroke:#5E5E5E;stroke-width:1.0416666666666667;" width="170.8333" x="218.2292" y="53.7028"/><rect fill="#1B1B1A" height="31.3883" rx="8.3333" ry="8.3333" style="stroke:#1B1B1A;stroke-width:1.0416666666666667;" width="170.8333" x="218.2292" y="53.7028"/><rect fill="#1B1B1A" height="8.3333" style="stroke:#1B1B1A;stroke-width:1.0416666666666667;" width="170.8333" x="218.2292" y="76.7578"/><rect fill="none" height="48.055" id="ContactDataProvider" rx="8.3333" ry="8.3333" style="stroke:#5E5E5E;stroke-width:1.0416666666666667;" width="170.8333" x="218.2292" y="53.7028"/><ellipse cx="232.8125" cy="69.397" fill="#0066CF" rx="10.4167" ry="10.4167" style="stroke:#0086EF;stroke-width:1.0416666666666667;"/><path d="M234.7229,73.822 Q234.2957,74.0417 233.8257,74.1516 Q233.3557,74.2615 232.8369,74.2615 Q230.9937,74.2615 230.0232,73.0469 Q229.0527,71.8323 229.0527,69.5374 Q229.0527,67.2363 230.0232,66.0217 Q230.9937,64.8071 232.8369,64.8071 Q233.3557,64.8071 233.8318,64.917 Q234.3079,65.0269 234.7229,65.2466 L234.7229,67.2485 Q234.259,66.8213 233.8226,66.6229 Q233.3862,66.4246 232.9224,66.4246 Q231.9336,66.4246 231.4301,67.2089 Q230.9265,67.9932 230.9265,69.5374 Q230.9265,71.0754 231.4301,71.8597 Q231.9336,72.644 232.9224,72.644 Q233.3862,72.644 233.8226,72.4457 Q234.259,72.2473 234.7229,71.8201 Z " fill="#000000"/><text fill="#D8BC00" font-family="Open Sans,Avenir,Nunito,Arial,Helvetica,SansSerif" font-size="12.5" font-weight="bold" lengthAdjust="spacing" textLength="133.3333" x="249.4792" y="74.1211">ContactDataProvider</text><line style="stroke:#5E5E5E;stroke-width:1.0416666666666667;" x1="219.2708" x2="388.0208" y1="85.0911" y2="85.0911"/><line style="stroke:#5E5E5E;stroke-width:1.0416666666666667;" x1="219.2708" x2="388.0208" y1="93.4245" y2="93.4245"/><!--MD5=[1959933f944af551f09e82d51942879a]
class ProxyDataProvider--><rect codeLine="12" fill="#282828" height="83.3781" id="ProxyDataProvider" rx="8.3333" ry="8.3333" style="stroke:#5E5E5E;stroke-width:1.0416666666666667;" width="210.4167" x="198.4375" y="164.1195"/><rect fill="#1B1B1A" height="31.3883" rx="8.3333" ry="8.3333" style="stroke:#1B1B1A;stroke-width:1.0416666666666667;" width="210.4167" x="198.4375" y="164.1195"/><rect fill="#1B1B1A" height="8.3333" style="stroke:#1B1B1A;stroke-width:1.0416666666666667;" width="210.4167" x="198.4375" y="187.1745"/><rect codeLine="12" fill="none" height="83.3781" id="ProxyDataProvider" rx="8.3333" ry="8.3333" style="stroke:#5E5E5E;stroke-width:1.0416666666666667;" width="210.4167" x="198.4375" y="164.1195"/><ellipse cx="237.3958" cy="179.8136" fill="#0066CF" rx="10.4167" ry="10.4167" style="stroke:#0086EF;stroke-width:1.0416666666666667;"/><path d="M239.3062,184.2387 Q238.879,184.4584 238.409,184.5683 Q237.939,184.6781 237.4202,184.6781 Q235.577,184.6781 234.6065,183.4635 Q233.6361,182.2489 233.6361,179.954 Q233.6361,177.653 234.6065,176.4384 Q235.577,175.2238 237.4202,175.2238 Q237.939,175.2238 238.4151,175.3337 Q238.8912,175.4435 239.3062,175.6632 L239.3062,177.6652 Q238.8424,177.238 238.406,177.0396 Q237.9696,176.8412 237.5057,176.8412 Q236.5169,176.8412 236.0134,177.6255 Q235.5098,178.4098 235.5098,179.954 Q235.5098,181.4921 236.0134,182.2764 Q236.5169,183.0607 237.5057,183.0607 Q237.9696,183.0607 238.406,182.8623 Q238.8424,182.664 239.3062,182.2367 Z " fill="#000000"/><text fill="#D8BC00" font-family="Open Sans,Avenir,Nunito,Arial,Helvetica,SansSerif" font-size="12.5" font-weight="bold" lengthAdjust="spacing" textLength="118.75" x="259.4792" y="184.5378">ProxyDataProvider</text><line style="stroke:#5E5E5E;stroke-width:1.5625;" x1="199.4792" x2="407.8125" y1="195.5078" y2="195.5078"/><ellipse cx="209.8958" cy="230.8777" fill="#84BE84" rx="3.125" ry="3.125" style="stroke:#038048;stroke-width:1.0416666666666667;"/><text fill="#D8BC00" font-family="Open Sans,Avenir,Nunito,Arial,Helvetica,SansSerif" font-size="11.4583" lengthAdjust="spacing" textLength="178.125" x="221.3542" y="237.7889">ProxyDataProvider(ContactDao)</text><line style="stroke:#5E5E5E;stroke-width:1.0416666666666667;" x1="199.4792" x2="259.8958" y1="213.7136" y2="213.7136"/><text fill="#D8BC00" font-family="Open Sans,Avenir,Nunito,Arial,Helvetica,SansSerif" font-size="11.4583" lengthAdjust="spacing" textLength="81.25" x="263.0208" y="217.5232">(constructors)</text><line style="stroke:#5E5E5E;stroke-width:1.0416666666666667;" x1="347.3958" x2="407.8125" y1="213.7136" y2="213.7136"/><!--MD5=[3f5b0edcc40abf00216aee710911d75f]
class ContactDetachableModel--><rect fill="#282828" height="48.055" id="ContactDetachableModel" rx="8.3333" ry="8.3333" style="stroke:#5E5E5E;stroke-width:1.0416666666666667;" width="198.9583" x="457.2917" y="53.7028"/><rect fill="#1B1B1A" height="31.3883" rx="8.3333" ry="8.3333" style="stroke:#1B1B1A;stroke-width:1.0416666666666667;" width="198.9583" x="457.2917" y="53.7028"/><rect fill="#1B1B1A" height="8.3333" style="stroke:#1B1B1A;stroke-width:1.0416666666666667;" width="198.9583" x="457.2917" y="76.7578"/><rect fill="none" height="48.055" id="ContactDetachableModel" rx="8.3333" ry="8.3333" style="stroke:#5E5E5E;stroke-width:1.0416666666666667;" width="198.9583" x="457.2917" y="53.7028"/><ellipse cx="471.875" cy="69.397" fill="#0066CF" rx="10.4167" ry="10.4167" style="stroke:#0086EF;stroke-width:1.0416666666666667;"/><path d="M473.7854,73.822 Q473.3582,74.0417 472.8882,74.1516 Q472.4182,74.2615 471.8994,74.2615 Q470.0562,74.2615 469.0857,73.0469 Q468.1152,71.8323 468.1152,69.5374 Q468.1152,67.2363 469.0857,66.0217 Q470.0562,64.8071 471.8994,64.8071 Q472.4182,64.8071 472.8943,64.917 Q473.3704,65.0269 473.7854,65.2466 L473.7854,67.2485 Q473.3215,66.8213 472.8851,66.6229 Q472.4487,66.4246 471.9849,66.4246 Q470.9961,66.4246 470.4926,67.2089 Q469.989,67.9932 469.989,69.5374 Q469.989,71.0754 470.4926,71.8597 Q470.9961,72.644 471.9849,72.644 Q472.4487,72.644 472.8851,72.4457 Q473.3215,72.2473 473.7854,71.8201 Z " fill="#000000"/><text fill="#D8BC00" font-family="Open Sans,Avenir,Nunito,Arial,Helvetica,SansSerif" font-size="12.5" font-weight="bold" lengthAdjust="spacing" textLength="161.4583" x="488.5417" y="74.1211">ContactDetachableModel</text><line style="stroke:#5E5E5E;stroke-width:1.0416666666666667;" x1="458.3333" x2="655.2083" y1="85.0911" y2="85.0911"/><line style="stroke:#5E5E5E;stroke-width:1.0416666666666667;" x1="458.3333" x2="655.2083" y1="93.4245" y2="93.4245"/><!--MD5=[2f3181b4b0fc7f706b796b5786a8b582]
class ProxyModel--><rect codeLine="19" fill="#282828" height="83.3781" id="ProxyModel" rx="8.3333" ry="8.3333" style="stroke:#5E5E5E;stroke-width:1.0416666666666667;" width="221.875" x="445.8333" y="164.1195"/><rect fill="#1B1B1A" height="31.3883" rx="8.3333" ry="8.3333" style="stroke:#1B1B1A;stroke-width:1.0416666666666667;" width="221.875" x="445.8333" y="164.1195"/><rect fill="#1B1B1A" height="8.3333" style="stroke:#1B1B1A;stroke-width:1.0416666666666667;" width="221.875" x="445.8333" y="187.1745"/><rect codeLine="19" fill="none" height="83.3781" id="ProxyModel" rx="8.3333" ry="8.3333" style="stroke:#5E5E5E;stroke-width:1.0416666666666667;" width="221.875" x="445.8333" y="164.1195"/><ellipse cx="511.9792" cy="179.8136" fill="#0066CF" rx="10.4167" ry="10.4167" style="stroke:#0086EF;stroke-width:1.0416666666666667;"/><path d="M513.8896,184.2387 Q513.4623,184.4584 512.9924,184.5683 Q512.5224,184.6781 512.0036,184.6781 Q510.1603,184.6781 509.1899,183.4635 Q508.2194,182.2489 508.2194,179.954 Q508.2194,177.653 509.1899,176.4384 Q510.1603,175.2238 512.0036,175.2238 Q512.5224,175.2238 512.9985,175.3337 Q513.4745,175.4435 513.8896,175.6632 L513.8896,177.6652 Q513.4257,177.238 512.9893,177.0396 Q512.5529,176.8412 512.089,176.8412 Q511.1003,176.8412 510.5967,177.6255 Q510.0932,178.4098 510.0932,179.954 Q510.0932,181.4921 510.5967,182.2764 Q511.1003,183.0607 512.089,183.0607 Q512.5529,183.0607 512.9893,182.8623 Q513.4257,182.664 513.8896,182.2367 Z " fill="#000000"/><text fill="#D8BC00" font-family="Open Sans,Avenir,Nunito,Arial,Helvetica,SansSerif" font-size="12.5" font-weight="bold" lengthAdjust="spacing" textLength="75" x="534.8958" y="184.5378">ProxyModel</text><line style="stroke:#5E5E5E;stroke-width:1.5625;" x1="446.875" x2="666.6667" y1="195.5078" y2="195.5078"/><ellipse cx="457.2917" cy="230.8777" fill="#84BE84" rx="3.125" ry="3.125" style="stroke:#038048;stroke-width:1.0416666666666667;"/><text fill="#D8BC00" font-family="Open Sans,Avenir,Nunito,Arial,Helvetica,SansSerif" font-size="11.4583" lengthAdjust="spacing" textLength="189.5833" x="468.75" y="237.7889">ProxyModel(Contact, ContactDao)</text><line style="stroke:#5E5E5E;stroke-width:1.0416666666666667;" x1="446.875" x2="513.0208" y1="213.7136" y2="213.7136"/><text fill="#D8BC00" font-family="Open Sans,Avenir,Nunito,Arial,Helvetica,SansSerif" font-size="11.4583" lengthAdjust="spacing" textLength="81.25" x="516.1458" y="217.5232">(constructors)</text><line style="stroke:#5E5E5E;stroke-width:1.0416666666666667;" x1="600.5208" x2="666.6667" y1="213.7136" y2="213.7136"/><!--MD5=[74f095bb67b19143b03d9e7f4f00a377]
reverse link ContactsDisplayPage to AnnotPage--><path codeLine="6" d="M94.2708,122.9528 C94.2708,142.7965 94.2708,165.3799 94.2708,181.7757 " fill="none" id="ContactsDisplayPage-backto-AnnotPage" style="stroke:#545454;stroke-width:1.5625;"/><polygon fill="none" points="86.9792,122.6507,94.2708,101.8174,101.5625,122.6507,86.9792,122.6507" style="stroke:#545454;stroke-width:1.5625;"/><!--MD5=[a4cde3aa0d0e5c028e3dc5d6d6a0f2f3]
reverse link ContactDataProvider to ProxyDataProvider--><path codeLine="11" d="M303.6458,122.682 C303.6458,136.0778 303.6458,150.7445 303.6458,163.9215 " fill="none" id="ContactDataProvider-backto-ProxyDataProvider" style="stroke:#545454;stroke-width:1.5625;"/><polygon fill="none" points="296.3542,122.6507,303.6458,101.8174,310.9375,122.6507,296.3542,122.6507" style="stroke:#545454;stroke-width:1.5625;"/><!--MD5=[17cc75ec95fda32bee1e268ff6f0a631]
reverse link ContactDetachableModel to ProxyModel--><path codeLine="18" d="M556.7708,122.682 C556.7708,136.0778 556.7708,150.7445 556.7708,163.9215 " fill="none" id="ContactDetachableModel-backto-ProxyModel" style="stroke:#545454;stroke-width:1.5625;"/><polygon fill="none" points="549.4792,122.6507,556.7708,101.8174,564.0625,122.6507,549.4792,122.6507" style="stroke:#545454;stroke-width:1.5625;"/><!--MD5=[b4ebc89defe150c10514572612db5b44]
@startuml

    !include lexakai.theme
    
    title "org.apache.wicket.examples.spring.annot.web"
    
    ContactsDisplayPage <|- - AnnotPage
    class AnnotPage
    {
    }
    
    ContactDataProvider <|- - ProxyDataProvider
    class ProxyDataProvider
    {
        - -(constructors)- -
        +ProxyDataProvider(ContactDao)
    }
    
    ContactDetachableModel <|- - ProxyModel
    class ProxyModel
    {
        - -(constructors)- -
        +ProxyModel(Contact, ContactDao)
    }
    
@enduml

@startuml









skinparam backgroundColor #333333






skinparam  {
    defaultFontName   "Open Sans,Avenir,Nunito,Arial,Helvetica,SansSerif"
    defaultFontSize   12
    defaultTextAlignment left
    shadowing false
    RoundCorner 10
    TitleFontSize 18
}

skinparam defaultFontName       "Open Sans,Avenir,Nunito,Arial,Helvetica,SansSerif"
skinparam defaultFontSize       12
skinparam dpi                   100
skinparam shadowing             false
skinparam roundcorner           16
skinparam ParticipantPadding    40
skinparam BoxPadding            40
skinparam Padding               3
skinparam ArrowColor            #545454
skinparam stereotype {
    CBackgroundColor #0066cf
    CBorderColor #0086ef
    ABackgroundColor #C8Ac00
    ABorderColor #D8Bc00
    IBackgroundColor #008400
    IBorderColor #239c23
    EBackgroundColor #cf6300
    EBorderColor #ef8300
    NBackgroundColor #3380b9
    NBorderColor #004d86
}
skinparam title {
	FontColor	                 #c0c0c0
 	BorderColor                  #545454
	FontSize	    	         20
	BorderRoundCorner            16
	BorderThickness 	         1
	BackgroundColor              #48494b
}


skinparam legend {
	BackgroundColor #303030
	BorderColor #404040
	FontColor #a0a0a0
}

	skinparam swimlane {
	BorderColor #5e5e5e
	BorderThickness 2
	TitleBackgroundColor  #6d6d6d-#484848
	TitleFontColor #303030
}

skinparam activity {
		FontColor #C8Ac00
	BorderColor #333333
	BackgroundColor #333333-#333333
	BarColor #00FF00
	StartColor #0060a8
	EndColor #0060a8
	DiamondBackgroundColor #6d6d6d-#3a3a3a
  	DiamondBorderColor #3a3a3a
  	DiamondFontColor #fefefe
}


skinparam participant {
		FontColor #C8Ac00
	BorderColor #333333
	BackgroundColor #333333-#333333
	ParticipantBorderThickness 2
}


skinparam actor {
		FontColor #C8Ac00
	BorderColor #333333
	BackgroundColor #333333-#333333
}


skinparam arrow {
	Thickness 1.5
	Color #545454
	FontColor #a0a0a0
    FontStyle bold
    MessageAlignment center
}



skinparam sequence {
	BorderColor #303030
	TitleFontColor #303030
	BackgroundColor #333333
	StartColor #303030
	EndColor #303030
	BoxBackgroundColor #333333
	BoxBorderColor #484848
	BoxFontColor #484848
	LifeLineBorderColor #484848
	LifeLineBorderThickness 2
	LifeLineBackgroundColor #3a3a3a
	GroupBorderColor #484848
	GroupFontColor #484848
	GroupHeaderFontColor #0060a8
	GroupBackgroundColor #484848
	GroupHeaderBackgroundColor #333333
	DividerBackgroundColor #484848
    DividerBorderColor #484848
    DividerBorderThickness 2
    DividerFontColor #D8Bc00
	ReferenceBackgroundColor #333333
	ReferenceBorderColor #484848
	ReferenceFontColor #fefefe
	ReferenceHeaderBackgroundColor #484848
}


skinparam partition {
	BorderColor #303030
	FontColor #333333
	BackgroundColor #333333
}


skinparam collections {
		FontColor #C8Ac00
	BorderColor #333333
	BackgroundColor #333333-#333333
}


skinparam control {
		FontColor #C8Ac00
	BorderColor #333333
	BackgroundColor #333333-#333333
}


skinparam entity {
		FontColor #C8Ac00
	BorderColor #333333
	BackgroundColor #333333-#333333
}


skinparam boundary {
		FontColor #C8Ac00
	BorderColor #333333
	BackgroundColor #333333-#333333
}


skinparam agent {
	BackgroundColor #ff8000
	BorderColor #ff9933
	FontColor #484848
}


skinparam note {
	BorderThickness 1
	BackgroundColor #1b1b1a
	BorderColor #5e5e5e
	FontSize 11
	FontColor #a0a0a0
}


skinparam artifact {
	BorderThickness 10
	BorderColor #5e5e5e
	BackgroundColor #1b1b1a
	FontColor #D8Bc00
}


skinparam component {
		FontColor #C8Ac00
	BorderColor #333333
	BackgroundColor #333333-#333333
}


skinparam interface {
	BackgroundColor  #008400
	BorderColor  #007F00
	FontColor #484848
}


skinparam storage {
	BackgroundColor #ff8000
  	BorderColor #cc6600
	FontColor #222222
}


skinparam node {
	BackgroundColor #333333
	BorderColor #333333
	FontColor #C8Ac00
}


skinparam cloud {
	BackgroundColor #484848-black
	BorderColor #484848
	FontColor #D8Bc00
}


skinparam database {
		FontColor #C8Ac00
	BorderColor #333333
	BackgroundColor #333333-#333333
	BackgroundColor  #333333
}


skinparam class {
		FontColor #C8Ac00
	BorderColor #333333
	BackgroundColor #333333-#333333
	HeaderBackgroundColor #1b1b1a
    BackgroundColor #282828
    BorderColor #5e5e5e
 	StereotypeFontColor #a0a0a0
    StereotypeFontStyle bold
	BorderThickness 1
	AttributeFontColor #D8Bc00
	AttributeFontSize 11
    FontColor #D8Bc00
    FontStyle bold
}


skinparam object {
		FontColor #C8Ac00
	BorderColor #333333
	BackgroundColor #333333-#333333
	StereotypeFontColor #484848
	BorderThickness 1
	AttributeFontColor #fefefe
	AttributeFontSize 11
}


skinparam usecase {
		FontColor #C8Ac00
	BorderColor #333333
	BackgroundColor #333333-#333333
	BorderThickness 2
	StereotypeFontColor #303030
}


skinparam rectangle {
		FontColor #C8Ac00
	BorderColor #333333
	BackgroundColor #333333-#333333
	BackgroundColor #333333
	BorderThickness 2
	StereotypeFontColor #303030
}


skinparam package {
		FontColor #C8Ac00
	BorderColor #333333
	BackgroundColor #333333-#333333
	BackgroundColor #333333
	BorderThickness 2
}


skinparam folder {
	BackgroundColor #6d6d6d
  	BorderColor #ff8000
	FontColor #ff8000
	BorderThickness 2
}


skinparam frame {
	BackgroundColor #6d6d6d
  	BorderColor #0060a8
	FontColor #0060a8
	BorderThickness 2
}


skinparam state {
		FontColor #C8Ac00
	BorderColor #333333
	BackgroundColor #333333-#333333
	StartColor #0060a8
	EndColor #0060a8
	AttributeFontColor #fefefe
	AttributeFontSize 11
}


skinparam queue {
		FontColor #C8Ac00
	BorderColor #333333
	BackgroundColor #333333-#333333
}


skinparam card {
	BackgroundColor #0060a8
	BorderColor #004d86
	FontColor $INFO_TEXT
}


skinparam file {
	BackgroundColor #6d6d6d-#484848
	BorderColor #0060a8
	FontColor #fefefe
}


skinparam stack {
		FontColor #C8Ac00
	BorderColor #333333
	BackgroundColor #333333-#333333
}

    
    title "org.apache.wicket.examples.spring.annot.web"
    
    ContactsDisplayPage <|- - AnnotPage
    class AnnotPage
    {
    }
    
    ContactDataProvider <|- - ProxyDataProvider
    class ProxyDataProvider
    {
        - -(constructors)- -
        +ProxyDataProvider(ContactDao)
    }
    
    ContactDetachableModel <|- - ProxyModel
    class ProxyModel
    {
        - -(constructors)- -
        +ProxyModel(Contact, ContactDao)
    }
    
@enduml

PlantUML version 1.2021.01(Tue Feb 02 00:55:08 MST 2021)
(GPL source distribution)
Java Runtime: Java(TM) SE Runtime Environment
JVM: Java HotSpot(TM) 64-Bit Server VM
Default Encoding: UTF-8
Language: en
Country: US
--></g></svg>