<?xml version="1.0" encoding="UTF-8" standalone="no"?><svg xmlns="http://www.w3.org/2000/svg" xmlns:xlink="http://www.w3.org/1999/xlink" contentScriptType="application/ecmascript" contentStyleType="text/css" height="341.6667px" preserveAspectRatio="none" style="width:823px;height:341px;background:#333333;" version="1.1" viewBox="0 0 823 341" width="823.9583px" zoomAndPan="magnify"><defs/><g><rect fill="#48494B" height="41.2028" rx="8.3333" ry="8.3333" style="stroke:#545454;stroke-width:1.0416666666666667;" width="484.375" x="162.5" y="2.0833"/><text fill="#C0C0C0" font-family="Open Sans,Avenir,Nunito,Arial,Helvetica,SansSerif" font-size="20.8333" lengthAdjust="spacing" textLength="461.4583" x="173.9583" y="30.5583">org.apache.wicket.examples.unicodeconverter</text><!--MD5=[8079ead04752d74d969c26361820d462]
cluster UnicodeConverter--><polygon fill="#333333" points="16.6667,176.6195,144.7917,176.6195,152.0833,203.8411,228.125,203.8411,228.125,298.4945,16.6667,298.4945,16.6667,176.6195" style="stroke:#333333;stroke-width:2.0833333333333335;"/><line style="stroke:#333333;stroke-width:2.0833333333333335;" x1="16.6667" x2="152.0833" y1="203.8411" y2="203.8411"/><text fill="#C8AC00" font-family="Open Sans,Avenir,Nunito,Arial,Helvetica,SansSerif" font-size="12.5" font-weight="bold" lengthAdjust="spacing" textLength="115.625" x="23.9583" y="193.9128">UnicodeConverter</text><!--MD5=[ec4d26a6402f72c73bf8a03086a0159d]
class UnicodeConverter.ConverterModel--><rect codeLine="7" fill="#282828" height="48.055" id="UnicodeConverter.ConverterModel" rx="8.3333" ry="8.3333" style="stroke:#5E5E5E;stroke-width:1.0416666666666667;" width="140.625" x="61.9792" y="225.5778"/><rect fill="#1B1B1A" height="31.3883" rx="8.3333" ry="8.3333" style="stroke:#1B1B1A;stroke-width:1.0416666666666667;" width="140.625" x="61.9792" y="225.5778"/><rect fill="#1B1B1A" height="8.3333" style="stroke:#1B1B1A;stroke-width:1.0416666666666667;" width="140.625" x="61.9792" y="248.6328"/><rect codeLine="7" fill="none" height="48.055" id="UnicodeConverter.ConverterModel" rx="8.3333" ry="8.3333" style="stroke:#5E5E5E;stroke-width:1.0416666666666667;" width="140.625" x="61.9792" y="225.5778"/><ellipse cx="76.5625" cy="241.272" fill="#0066CF" rx="10.4167" ry="10.4167" style="stroke:#0086EF;stroke-width:1.0416666666666667;"/><path d="M78.4729,245.697 Q78.0457,245.9167 77.5757,246.0266 Q77.1057,246.1365 76.5869,246.1365 Q74.7437,246.1365 73.7732,244.9219 Q72.8027,243.7073 72.8027,241.4124 Q72.8027,239.1113 73.7732,237.8967 Q74.7437,236.6821 76.5869,236.6821 Q77.1057,236.6821 77.5818,236.792 Q78.0579,236.9019 78.4729,237.1216 L78.4729,239.1235 Q78.009,238.6963 77.5726,238.4979 Q77.1362,238.2996 76.6724,238.2996 Q75.6836,238.2996 75.1801,239.0839 Q74.6765,239.8682 74.6765,241.4124 Q74.6765,242.9504 75.1801,243.7347 Q75.6836,244.519 76.6724,244.519 Q77.1362,244.519 77.5726,244.3207 Q78.009,244.1223 78.4729,243.6951 Z " fill="#000000"/><text fill="#D8BC00" font-family="Open Sans,Avenir,Nunito,Arial,Helvetica,SansSerif" font-size="12.5" font-weight="bold" lengthAdjust="spacing" textLength="103.125" x="93.2292" y="245.9961">ConverterModel</text><line style="stroke:#5E5E5E;stroke-width:1.0416666666666667;" x1="63.0208" x2="201.5625" y1="256.9661" y2="256.9661"/><line style="stroke:#5E5E5E;stroke-width:1.0416666666666667;" x1="63.0208" x2="201.5625" y1="265.2995" y2="265.2995"/><!--MD5=[7e20e022571e30ec1001cf6eabd7f3e2]
class Model--><rect fill="#282828" height="48.055" id="Model" rx="8.3333" ry="8.3333" style="stroke:#5E5E5E;stroke-width:1.0416666666666667;" width="77.0833" x="93.75" y="53.7028"/><rect fill="#1B1B1A" height="31.3883" rx="8.3333" ry="8.3333" style="stroke:#1B1B1A;stroke-width:1.0416666666666667;" width="77.0833" x="93.75" y="53.7028"/><rect fill="#1B1B1A" height="8.3333" style="stroke:#1B1B1A;stroke-width:1.0416666666666667;" width="77.0833" x="93.75" y="76.7578"/><rect fill="none" height="48.055" id="Model" rx="8.3333" ry="8.3333" style="stroke:#5E5E5E;stroke-width:1.0416666666666667;" width="77.0833" x="93.75" y="53.7028"/><ellipse cx="108.3333" cy="69.397" fill="#0066CF" rx="10.4167" ry="10.4167" style="stroke:#0086EF;stroke-width:1.0416666666666667;"/><path d="M110.2437,73.822 Q109.8165,74.0417 109.3465,74.1516 Q108.8765,74.2615 108.3577,74.2615 Q106.5145,74.2615 105.544,73.0469 Q104.5736,71.8323 104.5736,69.5374 Q104.5736,67.2363 105.544,66.0217 Q106.5145,64.8071 108.3577,64.8071 Q108.8765,64.8071 109.3526,64.917 Q109.8287,65.0269 110.2437,65.2466 L110.2437,67.2485 Q109.7799,66.8213 109.3435,66.6229 Q108.9071,66.4246 108.4432,66.4246 Q107.4544,66.4246 106.9509,67.2089 Q106.4473,67.9932 106.4473,69.5374 Q106.4473,71.0754 106.9509,71.8597 Q107.4544,72.644 108.4432,72.644 Q108.9071,72.644 109.3435,72.4457 Q109.7799,72.2473 110.2437,71.8201 Z " fill="#000000"/><text fill="#D8BC00" font-family="Open Sans,Avenir,Nunito,Arial,Helvetica,SansSerif" font-size="12.5" font-weight="bold" lengthAdjust="spacing" textLength="39.5833" x="125" y="74.1211">Model</text><line style="stroke:#5E5E5E;stroke-width:1.0416666666666667;" x1="94.7917" x2="169.7917" y1="85.0911" y2="85.0911"/><line style="stroke:#5E5E5E;stroke-width:1.0416666666666667;" x1="94.7917" x2="169.7917" y1="93.4245" y2="93.4245"/><!--MD5=[8de0e4c819f220f8e0c4c4df41ba59ce]
class WicketExamplePage--><rect fill="#282828" height="48.055" id="WicketExamplePage" rx="8.3333" ry="8.3333" style="stroke:#5E5E5E;stroke-width:1.0416666666666667;" width="164.5833" x="320.8333" y="53.7028"/><rect fill="#1B1B1A" height="31.3883" rx="8.3333" ry="8.3333" style="stroke:#1B1B1A;stroke-width:1.0416666666666667;" width="164.5833" x="320.8333" y="53.7028"/><rect fill="#1B1B1A" height="8.3333" style="stroke:#1B1B1A;stroke-width:1.0416666666666667;" width="164.5833" x="320.8333" y="76.7578"/><rect fill="none" height="48.055" id="WicketExamplePage" rx="8.3333" ry="8.3333" style="stroke:#5E5E5E;stroke-width:1.0416666666666667;" width="164.5833" x="320.8333" y="53.7028"/><ellipse cx="335.4167" cy="69.397" fill="#0066CF" rx="10.4167" ry="10.4167" style="stroke:#0086EF;stroke-width:1.0416666666666667;"/><path d="M337.3271,73.822 Q336.8998,74.0417 336.4299,74.1516 Q335.9599,74.2615 335.4411,74.2615 Q333.5978,74.2615 332.6274,73.0469 Q331.6569,71.8323 331.6569,69.5374 Q331.6569,67.2363 332.6274,66.0217 Q333.5978,64.8071 335.4411,64.8071 Q335.9599,64.8071 336.436,64.917 Q336.912,65.0269 337.3271,65.2466 L337.3271,67.2485 Q336.8632,66.8213 336.4268,66.6229 Q335.9904,66.4246 335.5265,66.4246 Q334.5378,66.4246 334.0342,67.2089 Q333.5307,67.9932 333.5307,69.5374 Q333.5307,71.0754 334.0342,71.8597 Q334.5378,72.644 335.5265,72.644 Q335.9904,72.644 336.4268,72.4457 Q336.8632,72.2473 337.3271,71.8201 Z " fill="#000000"/><text fill="#D8BC00" font-family="Open Sans,Avenir,Nunito,Arial,Helvetica,SansSerif" font-size="12.5" font-weight="bold" lengthAdjust="spacing" textLength="127.0833" x="352.0833" y="74.1211">WicketExamplePage</text><line style="stroke:#5E5E5E;stroke-width:1.0416666666666667;" x1="321.875" x2="484.375" y1="85.0911" y2="85.0911"/><line style="stroke:#5E5E5E;stroke-width:1.0416666666666667;" x1="321.875" x2="484.375" y1="93.4245" y2="93.4245"/><!--MD5=[38f698d0e6fbad7a3f71df79aca527ca]
class UnicodeConverter--><rect codeLine="12" fill="#282828" height="170.6909" id="UnicodeConverter" rx="8.3333" ry="8.3333" style="stroke:#5E5E5E;stroke-width:1.0416666666666667;" width="298.9583" x="253.6458" y="164.1195"/><rect fill="#1B1B1A" height="31.3883" rx="8.3333" ry="8.3333" style="stroke:#1B1B1A;stroke-width:1.0416666666666667;" width="298.9583" x="253.6458" y="164.1195"/><rect fill="#1B1B1A" height="8.3333" style="stroke:#1B1B1A;stroke-width:1.0416666666666667;" width="298.9583" x="253.6458" y="187.1745"/><rect codeLine="12" fill="none" height="170.6909" id="UnicodeConverter" rx="8.3333" ry="8.3333" style="stroke:#5E5E5E;stroke-width:1.0416666666666667;" width="298.9583" x="253.6458" y="164.1195"/><ellipse cx="338.0208" cy="179.8136" fill="#0066CF" rx="10.4167" ry="10.4167" style="stroke:#0086EF;stroke-width:1.0416666666666667;"/><path d="M339.9312,184.2387 Q339.504,184.4584 339.034,184.5683 Q338.564,184.6781 338.0452,184.6781 Q336.202,184.6781 335.2315,183.4635 Q334.2611,182.2489 334.2611,179.954 Q334.2611,177.653 335.2315,176.4384 Q336.202,175.2238 338.0452,175.2238 Q338.564,175.2238 339.0401,175.3337 Q339.5162,175.4435 339.9312,175.6632 L339.9312,177.6652 Q339.4674,177.238 339.031,177.0396 Q338.5946,176.8412 338.1307,176.8412 Q337.1419,176.8412 336.6384,177.6255 Q336.1348,178.4098 336.1348,179.954 Q336.1348,181.4921 336.6384,182.2764 Q337.1419,183.0607 338.1307,183.0607 Q338.5946,183.0607 339.031,182.8623 Q339.4674,182.664 339.9312,182.2367 Z " fill="#000000"/><text fill="#D8BC00" font-family="Open Sans,Avenir,Nunito,Arial,Helvetica,SansSerif" font-size="12.5" font-weight="bold" lengthAdjust="spacing" textLength="115.625" x="360.9375" y="184.5378">UnicodeConverter</text><line style="stroke:#5E5E5E;stroke-width:1.5625;" x1="254.6875" x2="551.5625" y1="195.5078" y2="195.5078"/><ellipse cx="265.1042" cy="230.8777" fill="#84BE84" rx="3.125" ry="3.125" style="stroke:#038048;stroke-width:1.0416666666666667;"/><text fill="#D8BC00" font-family="Open Sans,Avenir,Nunito,Arial,Helvetica,SansSerif" font-size="11.4583" lengthAdjust="spacing" textLength="110.4167" x="276.5625" y="237.7889">UnicodeConverter()</text><line style="stroke:#5E5E5E;stroke-width:1.0416666666666667;" x1="254.6875" x2="359.375" y1="213.7136" y2="213.7136"/><text fill="#D8BC00" font-family="Open Sans,Avenir,Nunito,Arial,Helvetica,SansSerif" font-size="11.4583" lengthAdjust="spacing" textLength="81.25" x="362.5" y="217.5232">(constructors)</text><line style="stroke:#5E5E5E;stroke-width:1.0416666666666667;" x1="446.875" x2="551.5625" y1="213.7136" y2="213.7136"/><line style="stroke:#5E5E5E;stroke-width:1.0416666666666667;" x1="254.6875" x2="551.5625" y1="247.4976" y2="247.4976"/><ellipse cx="265.1042" cy="258.9559" fill="#84BE84" rx="3.125" ry="3.125" style="stroke:#038048;stroke-width:1.0416666666666667;"/><text fill="#D8BC00" font-family="Open Sans,Avenir,Nunito,Arial,Helvetica,SansSerif" font-size="11.4583" lengthAdjust="spacing" textLength="101.0417" x="276.5625" y="265.8671">String getSource()</text><ellipse cx="265.1042" cy="278.7008" fill="#84BE84" rx="3.125" ry="3.125" style="stroke:#038048;stroke-width:1.0416666666666667;"/><text fill="#D8BC00" font-family="Open Sans,Avenir,Nunito,Arial,Helvetica,SansSerif" font-size="11.4583" lengthAdjust="spacing" textLength="153.125" x="276.5625" y="285.612">String getTranslationType()</text><ellipse cx="265.1042" cy="298.4456" fill="#84BE84" rx="3.125" ry="3.125" style="stroke:#038048;stroke-width:1.0416666666666667;"/><text fill="#D8BC00" font-family="Open Sans,Avenir,Nunito,Arial,Helvetica,SansSerif" font-size="11.4583" lengthAdjust="spacing" textLength="165.625" x="276.5625" y="305.3569">void setSource(String source)</text><ellipse cx="265.1042" cy="318.1905" fill="#84BE84" rx="3.125" ry="3.125" style="stroke:#038048;stroke-width:1.0416666666666667;"/><text fill="#D8BC00" font-family="Open Sans,Avenir,Nunito,Arial,Helvetica,SansSerif" font-size="11.4583" lengthAdjust="spacing" textLength="266.6667" x="276.5625" y="325.1017">void setTranslationType(String translationType)</text><!--MD5=[818b680dd029f5404dc253254408b9c3]
class WicketExampleApplication--><rect fill="#282828" height="48.055" id="WicketExampleApplication" rx="8.3333" ry="8.3333" style="stroke:#5E5E5E;stroke-width:1.0416666666666667;" width="208.3333" x="598.9583" y="53.7028"/><rect fill="#1B1B1A" height="31.3883" rx="8.3333" ry="8.3333" style="stroke:#1B1B1A;stroke-width:1.0416666666666667;" width="208.3333" x="598.9583" y="53.7028"/><rect fill="#1B1B1A" height="8.3333" style="stroke:#1B1B1A;stroke-width:1.0416666666666667;" width="208.3333" x="598.9583" y="76.7578"/><rect fill="none" height="48.055" id="WicketExampleApplication" rx="8.3333" ry="8.3333" style="stroke:#5E5E5E;stroke-width:1.0416666666666667;" width="208.3333" x="598.9583" y="53.7028"/><ellipse cx="613.5417" cy="69.397" fill="#0066CF" rx="10.4167" ry="10.4167" style="stroke:#0086EF;stroke-width:1.0416666666666667;"/><path d="M615.4521,73.822 Q615.0248,74.0417 614.5549,74.1516 Q614.0849,74.2615 613.5661,74.2615 Q611.7228,74.2615 610.7524,73.0469 Q609.7819,71.8323 609.7819,69.5374 Q609.7819,67.2363 610.7524,66.0217 Q611.7228,64.8071 613.5661,64.8071 Q614.0849,64.8071 614.561,64.917 Q615.037,65.0269 615.4521,65.2466 L615.4521,67.2485 Q614.9882,66.8213 614.5518,66.6229 Q614.1154,66.4246 613.6515,66.4246 Q612.6628,66.4246 612.1592,67.2089 Q611.6557,67.9932 611.6557,69.5374 Q611.6557,71.0754 612.1592,71.8597 Q612.6628,72.644 613.6515,72.644 Q614.1154,72.644 614.5518,72.4457 Q614.9882,72.2473 615.4521,71.8201 Z " fill="#000000"/><text fill="#D8BC00" font-family="Open Sans,Avenir,Nunito,Arial,Helvetica,SansSerif" font-size="12.5" font-weight="bold" lengthAdjust="spacing" textLength="170.8333" x="630.2083" y="74.1211">WicketExampleApplication</text><line style="stroke:#5E5E5E;stroke-width:1.0416666666666667;" x1="600" x2="806.25" y1="85.0911" y2="85.0911"/><line style="stroke:#5E5E5E;stroke-width:1.0416666666666667;" x1="600" x2="806.25" y1="93.4245" y2="93.4245"/><!--MD5=[477d6084456404a1b896dbe9a2ea4dee]
class UnicodeConverterApplication--><rect codeLine="24" fill="#282828" height="48.055" id="UnicodeConverterApplication" rx="8.3333" ry="8.3333" style="stroke:#5E5E5E;stroke-width:1.0416666666666667;" width="227.0833" x="589.5833" y="225.5778"/><rect fill="#1B1B1A" height="31.3883" rx="8.3333" ry="8.3333" style="stroke:#1B1B1A;stroke-width:1.0416666666666667;" width="227.0833" x="589.5833" y="225.5778"/><rect fill="#1B1B1A" height="8.3333" style="stroke:#1B1B1A;stroke-width:1.0416666666666667;" width="227.0833" x="589.5833" y="248.6328"/><rect codeLine="24" fill="none" height="48.055" id="UnicodeConverterApplication" rx="8.3333" ry="8.3333" style="stroke:#5E5E5E;stroke-width:1.0416666666666667;" width="227.0833" x="589.5833" y="225.5778"/><ellipse cx="604.1667" cy="241.272" fill="#0066CF" rx="10.4167" ry="10.4167" style="stroke:#0086EF;stroke-width:1.0416666666666667;"/><path d="M606.0771,245.697 Q605.6498,245.9167 605.1799,246.0266 Q604.7099,246.1365 604.1911,246.1365 Q602.3478,246.1365 601.3774,244.9219 Q600.4069,243.7073 600.4069,241.4124 Q600.4069,239.1113 601.3774,237.8967 Q602.3478,236.6821 604.1911,236.6821 Q604.7099,236.6821 605.186,236.792 Q605.662,236.9019 606.0771,237.1216 L606.0771,239.1235 Q605.6132,238.6963 605.1768,238.4979 Q604.7404,238.2996 604.2765,238.2996 Q603.2878,238.2996 602.7842,239.0839 Q602.2807,239.8682 602.2807,241.4124 Q602.2807,242.9504 602.7842,243.7347 Q603.2878,244.519 604.2765,244.519 Q604.7404,244.519 605.1768,244.3207 Q605.6132,244.1223 606.0771,243.6951 Z " fill="#000000"/><text fill="#D8BC00" font-family="Open Sans,Avenir,Nunito,Arial,Helvetica,SansSerif" font-size="12.5" font-weight="bold" lengthAdjust="spacing" textLength="189.5833" x="620.8333" y="245.9961">UnicodeConverterApplication</text><line style="stroke:#5E5E5E;stroke-width:1.0416666666666667;" x1="590.625" x2="815.625" y1="256.9661" y2="256.9661"/><line style="stroke:#5E5E5E;stroke-width:1.0416666666666667;" x1="590.625" x2="815.625" y1="265.2995" y2="265.2995"/><!--MD5=[e927844e9ca014c0d342915899b9f0e3]
reverse link Model to UnicodeConverter.ConverterModel--><path codeLine="6" d="M132.2917,123.1299 C132.2917,155.9736 132.2917,199.3486 132.2917,225.5257 " fill="none" id="Model-backto-UnicodeConverter.ConverterModel" style="stroke:#545454;stroke-width:1.5625;"/><polygon fill="none" points="125,122.7861,132.2917,101.9528,139.5833,122.7861,125,122.7861" style="stroke:#545454;stroke-width:1.5625;"/><!--MD5=[ac117777c1cd19223ce65e51e5769be9]
reverse link WicketExamplePage to UnicodeConverter--><path codeLine="11" d="M403.125,123.1299 C403.125,135.6715 403.125,149.734 403.125,163.7965 " fill="none" id="WicketExamplePage-backto-UnicodeConverter" style="stroke:#545454;stroke-width:1.5625;"/><polygon fill="none" points="395.8333,122.7861,403.125,101.9528,410.4167,122.7861,395.8333,122.7861" style="stroke:#545454;stroke-width:1.5625;"/><!--MD5=[2a1854c7a436ad388bf6a34dca97d20a]
reverse link WicketExampleApplication to UnicodeConverterApplication--><path codeLine="23" d="M703.125,123.1299 C703.125,155.9736 703.125,199.3486 703.125,225.5257 " fill="none" id="WicketExampleApplication-backto-UnicodeConverterApplication" style="stroke:#545454;stroke-width:1.5625;"/><polygon fill="none" points="695.8333,122.7861,703.125,101.9528,710.4167,122.7861,695.8333,122.7861" style="stroke:#545454;stroke-width:1.5625;"/><!--MD5=[d5e51ff86851ac37c0b8cd378db2177a]
@startuml

    !include lexakai.theme
    
    title "org.apache.wicket.examples.unicodeconverter"
    
    Model <|- - UnicodeConverter.ConverterModel
    class UnicodeConverter.ConverterModel
    {
    }
    
    WicketExamplePage <|- - UnicodeConverter
    class UnicodeConverter
    {
        - -(constructors)- -
        +UnicodeConverter()
        - -
        +String getSource()
        +String getTranslationType()
        +void setSource(String source)
        +void setTranslationType(String translationType)
    }
    
    WicketExampleApplication <|- - UnicodeConverterApplication
    class UnicodeConverterApplication
    {
    }
    
@enduml

@startuml









skinparam backgroundColor #333333






skinparam  {
    defaultFontName   "Open Sans,Avenir,Nunito,Arial,Helvetica,SansSerif"
    defaultFontSize   12
    defaultTextAlignment left
    shadowing false
    RoundCorner 10
    TitleFontSize 18
}

skinparam defaultFontName       "Open Sans,Avenir,Nunito,Arial,Helvetica,SansSerif"
skinparam defaultFontSize       12
skinparam dpi                   100
skinparam shadowing             false
skinparam roundcorner           16
skinparam ParticipantPadding    40
skinparam BoxPadding            40
skinparam Padding               3
skinparam ArrowColor            #545454
skinparam stereotype {
    CBackgroundColor #0066cf
    CBorderColor #0086ef
    ABackgroundColor #C8Ac00
    ABorderColor #D8Bc00
    IBackgroundColor #008400
    IBorderColor #239c23
    EBackgroundColor #cf6300
    EBorderColor #ef8300
    NBackgroundColor #3380b9
    NBorderColor #004d86
}
skinparam title {
	FontColor	                 #c0c0c0
 	BorderColor                  #545454
	FontSize	    	         20
	BorderRoundCorner            16
	BorderThickness 	         1
	BackgroundColor              #48494b
}


skinparam legend {
	BackgroundColor #303030
	BorderColor #404040
	FontColor #a0a0a0
}

	skinparam swimlane {
	BorderColor #5e5e5e
	BorderThickness 2
	TitleBackgroundColor  #6d6d6d-#484848
	TitleFontColor #303030
}

skinparam activity {
		FontColor #C8Ac00
	BorderColor #333333
	BackgroundColor #333333-#333333
	BarColor #00FF00
	StartColor #0060a8
	EndColor #0060a8
	DiamondBackgroundColor #6d6d6d-#3a3a3a
  	DiamondBorderColor #3a3a3a
  	DiamondFontColor #fefefe
}


skinparam participant {
		FontColor #C8Ac00
	BorderColor #333333
	BackgroundColor #333333-#333333
	ParticipantBorderThickness 2
}


skinparam actor {
		FontColor #C8Ac00
	BorderColor #333333
	BackgroundColor #333333-#333333
}


skinparam arrow {
	Thickness 1.5
	Color #545454
	FontColor #a0a0a0
    FontStyle bold
    MessageAlignment center
}



skinparam sequence {
	BorderColor #303030
	TitleFontColor #303030
	BackgroundColor #333333
	StartColor #303030
	EndColor #303030
	BoxBackgroundColor #333333
	BoxBorderColor #484848
	BoxFontColor #484848
	LifeLineBorderColor #484848
	LifeLineBorderThickness 2
	LifeLineBackgroundColor #3a3a3a
	GroupBorderColor #484848
	GroupFontColor #484848
	GroupHeaderFontColor #0060a8
	GroupBackgroundColor #484848
	GroupHeaderBackgroundColor #333333
	DividerBackgroundColor #484848
    DividerBorderColor #484848
    DividerBorderThickness 2
    DividerFontColor #D8Bc00
	ReferenceBackgroundColor #333333
	ReferenceBorderColor #484848
	ReferenceFontColor #fefefe
	ReferenceHeaderBackgroundColor #484848
}


skinparam partition {
	BorderColor #303030
	FontColor #333333
	BackgroundColor #333333
}


skinparam collections {
		FontColor #C8Ac00
	BorderColor #333333
	BackgroundColor #333333-#333333
}


skinparam control {
		FontColor #C8Ac00
	BorderColor #333333
	BackgroundColor #333333-#333333
}


skinparam entity {
		FontColor #C8Ac00
	BorderColor #333333
	BackgroundColor #333333-#333333
}


skinparam boundary {
		FontColor #C8Ac00
	BorderColor #333333
	BackgroundColor #333333-#333333
}


skinparam agent {
	BackgroundColor #ff8000
	BorderColor #ff9933
	FontColor #484848
}


skinparam note {
	BorderThickness 1
	BackgroundColor #1b1b1a
	BorderColor #5e5e5e
	FontSize 11
	FontColor #a0a0a0
}


skinparam artifact {
	BorderThickness 10
	BorderColor #5e5e5e
	BackgroundColor #1b1b1a
	FontColor #D8Bc00
}


skinparam component {
		FontColor #C8Ac00
	BorderColor #333333
	BackgroundColor #333333-#333333
}


skinparam interface {
	BackgroundColor  #008400
	BorderColor  #007F00
	FontColor #484848
}


skinparam storage {
	BackgroundColor #ff8000
  	BorderColor #cc6600
	FontColor #222222
}


skinparam node {
	BackgroundColor #333333
	BorderColor #333333
	FontColor #C8Ac00
}


skinparam cloud {
	BackgroundColor #484848-black
	BorderColor #484848
	FontColor #D8Bc00
}


skinparam database {
		FontColor #C8Ac00
	BorderColor #333333
	BackgroundColor #333333-#333333
	BackgroundColor  #333333
}


skinparam class {
		FontColor #C8Ac00
	BorderColor #333333
	BackgroundColor #333333-#333333
	HeaderBackgroundColor #1b1b1a
    BackgroundColor #282828
    BorderColor #5e5e5e
 	StereotypeFontColor #a0a0a0
    StereotypeFontStyle bold
	BorderThickness 1
	AttributeFontColor #D8Bc00
	AttributeFontSize 11
    FontColor #D8Bc00
    FontStyle bold
}


skinparam object {
		FontColor #C8Ac00
	BorderColor #333333
	BackgroundColor #333333-#333333
	StereotypeFontColor #484848
	BorderThickness 1
	AttributeFontColor #fefefe
	AttributeFontSize 11
}


skinparam usecase {
		FontColor #C8Ac00
	BorderColor #333333
	BackgroundColor #333333-#333333
	BorderThickness 2
	StereotypeFontColor #303030
}


skinparam rectangle {
		FontColor #C8Ac00
	BorderColor #333333
	BackgroundColor #333333-#333333
	BackgroundColor #333333
	BorderThickness 2
	StereotypeFontColor #303030
}


skinparam package {
		FontColor #C8Ac00
	BorderColor #333333
	BackgroundColor #333333-#333333
	BackgroundColor #333333
	BorderThickness 2
}


skinparam folder {
	BackgroundColor #6d6d6d
  	BorderColor #ff8000
	FontColor #ff8000
	BorderThickness 2
}


skinparam frame {
	BackgroundColor #6d6d6d
  	BorderColor #0060a8
	FontColor #0060a8
	BorderThickness 2
}


skinparam state {
		FontColor #C8Ac00
	BorderColor #333333
	BackgroundColor #333333-#333333
	StartColor #0060a8
	EndColor #0060a8
	AttributeFontColor #fefefe
	AttributeFontSize 11
}


skinparam queue {
		FontColor #C8Ac00
	BorderColor #333333
	BackgroundColor #333333-#333333
}


skinparam card {
	BackgroundColor #0060a8
	BorderColor #004d86
	FontColor $INFO_TEXT
}


skinparam file {
	BackgroundColor #6d6d6d-#484848
	BorderColor #0060a8
	FontColor #fefefe
}


skinparam stack {
		FontColor #C8Ac00
	BorderColor #333333
	BackgroundColor #333333-#333333
}

    
    title "org.apache.wicket.examples.unicodeconverter"
    
    Model <|- - UnicodeConverter.ConverterModel
    class UnicodeConverter.ConverterModel
    {
    }
    
    WicketExamplePage <|- - UnicodeConverter
    class UnicodeConverter
    {
        - -(constructors)- -
        +UnicodeConverter()
        - -
        +String getSource()
        +String getTranslationType()
        +void setSource(String source)
        +void setTranslationType(String translationType)
    }
    
    WicketExampleApplication <|- - UnicodeConverterApplication
    class UnicodeConverterApplication
    {
    }
    
@enduml

PlantUML version 1.2021.01(Tue Feb 02 00:55:08 MST 2021)
(GPL source distribution)
Java Runtime: Java(TM) SE Runtime Environment
JVM: Java HotSpot(TM) 64-Bit Server VM
Default Encoding: UTF-8
Language: en
Country: US
--></g></svg>