<?xml version="1.0" encoding="UTF-8" standalone="no"?><svg xmlns="http://www.w3.org/2000/svg" xmlns:xlink="http://www.w3.org/1999/xlink" contentScriptType="application/ecmascript" contentStyleType="text/css" height="254.1667px" preserveAspectRatio="none" style="width:487px;height:254px;background:#333333;" version="1.1" viewBox="0 0 487 254" width="487.5px" zoomAndPan="magnify"><defs/><g><rect fill="#48494B" height="41.2028" rx="8.3333" ry="8.3333" style="stroke:#545454;stroke-width:1.0416666666666667;" width="475" x="2.0833" y="2.0833"/><text fill="#C0C0C0" font-family="Open Sans,Avenir,Nunito,Arial,Helvetica,SansSerif" font-size="20.8333" lengthAdjust="spacing" textLength="452.0833" x="13.5417" y="30.5583">org.apache.wicket.examples.template.border</text><!--MD5=[8de0e4c819f220f8e0c4c4df41ba59ce]
class WicketExamplePage--><rect fill="#282828" height="48.055" id="WicketExamplePage" rx="8.3333" ry="8.3333" style="stroke:#5E5E5E;stroke-width:1.0416666666666667;" width="164.5833" x="65.625" y="53.7028"/><rect fill="#1B1B1A" height="31.3883" rx="8.3333" ry="8.3333" style="stroke:#1B1B1A;stroke-width:1.0416666666666667;" width="164.5833" x="65.625" y="53.7028"/><rect fill="#1B1B1A" height="8.3333" style="stroke:#1B1B1A;stroke-width:1.0416666666666667;" width="164.5833" x="65.625" y="76.7578"/><rect fill="none" height="48.055" id="WicketExamplePage" rx="8.3333" ry="8.3333" style="stroke:#5E5E5E;stroke-width:1.0416666666666667;" width="164.5833" x="65.625" y="53.7028"/><ellipse cx="80.2083" cy="69.397" fill="#0066CF" rx="10.4167" ry="10.4167" style="stroke:#0086EF;stroke-width:1.0416666666666667;"/><path d="M82.1187,73.822 Q81.6915,74.0417 81.2215,74.1516 Q80.7515,74.2615 80.2327,74.2615 Q78.3895,74.2615 77.419,73.0469 Q76.4486,71.8323 76.4486,69.5374 Q76.4486,67.2363 77.419,66.0217 Q78.3895,64.8071 80.2327,64.8071 Q80.7515,64.8071 81.2276,64.917 Q81.7037,65.0269 82.1187,65.2466 L82.1187,67.2485 Q81.6549,66.8213 81.2185,66.6229 Q80.7821,66.4246 80.3182,66.4246 Q79.3294,66.4246 78.8259,67.2089 Q78.3223,67.9932 78.3223,69.5374 Q78.3223,71.0754 78.8259,71.8597 Q79.3294,72.644 80.3182,72.644 Q80.7821,72.644 81.2185,72.4457 Q81.6549,72.2473 82.1187,71.8201 Z " fill="#000000"/><text fill="#D8BC00" font-family="Open Sans,Avenir,Nunito,Arial,Helvetica,SansSerif" font-size="12.5" font-weight="bold" lengthAdjust="spacing" textLength="127.0833" x="96.875" y="74.1211">WicketExamplePage</text><line style="stroke:#5E5E5E;stroke-width:1.0416666666666667;" x1="66.6667" x2="229.1667" y1="85.0911" y2="85.0911"/><line style="stroke:#5E5E5E;stroke-width:1.0416666666666667;" x1="66.6667" x2="229.1667" y1="93.4245" y2="93.4245"/><!--MD5=[06b688d0b738e4cac92d287870990ff7]
class Page1--><rect codeLine="7" fill="#282828" height="83.3781" id="Page1" rx="8.3333" ry="8.3333" style="stroke:#5E5E5E;stroke-width:1.0416666666666667;" width="95.8333" x="33.3333" y="164.1195"/><rect fill="#1B1B1A" height="31.3883" rx="8.3333" ry="8.3333" style="stroke:#1B1B1A;stroke-width:1.0416666666666667;" width="95.8333" x="33.3333" y="164.1195"/><rect fill="#1B1B1A" height="8.3333" style="stroke:#1B1B1A;stroke-width:1.0416666666666667;" width="95.8333" x="33.3333" y="187.1745"/><rect codeLine="7" fill="none" height="83.3781" id="Page1" rx="8.3333" ry="8.3333" style="stroke:#5E5E5E;stroke-width:1.0416666666666667;" width="95.8333" x="33.3333" y="164.1195"/><ellipse cx="56.8229" cy="179.8136" fill="#0066CF" rx="10.4167" ry="10.4167" style="stroke:#0086EF;stroke-width:1.0416666666666667;"/><path d="M58.7333,184.2387 Q58.3061,184.4584 57.8361,184.5683 Q57.3661,184.6781 56.8473,184.6781 Q55.0041,184.6781 54.0336,183.4635 Q53.0632,182.2489 53.0632,179.954 Q53.0632,177.653 54.0336,176.4384 Q55.0041,175.2238 56.8473,175.2238 Q57.3661,175.2238 57.8422,175.3337 Q58.3183,175.4435 58.7333,175.6632 L58.7333,177.6652 Q58.2694,177.238 57.833,177.0396 Q57.3966,176.8412 56.9328,176.8412 Q55.944,176.8412 55.4405,177.6255 Q54.9369,178.4098 54.9369,179.954 Q54.9369,181.4921 55.4405,182.2764 Q55.944,183.0607 56.9328,183.0607 Q57.3966,183.0607 57.833,182.8623 Q58.2694,182.664 58.7333,182.2367 Z " fill="#000000"/><text fill="#D8BC00" font-family="Open Sans,Avenir,Nunito,Arial,Helvetica,SansSerif" font-size="12.5" font-weight="bold" lengthAdjust="spacing" textLength="38.5417" x="75.4688" y="184.5378">Page1</text><line style="stroke:#5E5E5E;stroke-width:1.5625;" x1="34.375" x2="128.125" y1="195.5078" y2="195.5078"/><ellipse cx="44.7917" cy="230.8777" fill="#84BE84" rx="3.125" ry="3.125" style="stroke:#038048;stroke-width:1.0416666666666667;"/><text fill="#D8BC00" font-family="Open Sans,Avenir,Nunito,Arial,Helvetica,SansSerif" font-size="11.4583" lengthAdjust="spacing" textLength="41.6667" x="56.25" y="237.7889">Page1()</text><line style="stroke:#5E5E5E;stroke-width:1.0416666666666667;" x1="34.375" x2="37.5" y1="213.7136" y2="213.7136"/><text fill="#D8BC00" font-family="Open Sans,Avenir,Nunito,Arial,Helvetica,SansSerif" font-size="11.4583" lengthAdjust="spacing" textLength="81.25" x="40.625" y="217.5232">(constructors)</text><line style="stroke:#5E5E5E;stroke-width:1.0416666666666667;" x1="125" x2="128.125" y1="213.7136" y2="213.7136"/><!--MD5=[60836b88cd0974e36522c374daade8cb]
class Page2--><rect codeLine="14" fill="#282828" height="83.3781" id="Page2" rx="8.3333" ry="8.3333" style="stroke:#5E5E5E;stroke-width:1.0416666666666667;" width="95.8333" x="165.625" y="164.1195"/><rect fill="#1B1B1A" height="31.3883" rx="8.3333" ry="8.3333" style="stroke:#1B1B1A;stroke-width:1.0416666666666667;" width="95.8333" x="165.625" y="164.1195"/><rect fill="#1B1B1A" height="8.3333" style="stroke:#1B1B1A;stroke-width:1.0416666666666667;" width="95.8333" x="165.625" y="187.1745"/><rect codeLine="14" fill="none" height="83.3781" id="Page2" rx="8.3333" ry="8.3333" style="stroke:#5E5E5E;stroke-width:1.0416666666666667;" width="95.8333" x="165.625" y="164.1195"/><ellipse cx="189.1146" cy="179.8136" fill="#0066CF" rx="10.4167" ry="10.4167" style="stroke:#0086EF;stroke-width:1.0416666666666667;"/><path d="M191.025,184.2387 Q190.5977,184.4584 190.1278,184.5683 Q189.6578,184.6781 189.139,184.6781 Q187.2957,184.6781 186.3253,183.4635 Q185.3548,182.2489 185.3548,179.954 Q185.3548,177.653 186.3253,176.4384 Q187.2957,175.2238 189.139,175.2238 Q189.6578,175.2238 190.1339,175.3337 Q190.6099,175.4435 191.025,175.6632 L191.025,177.6652 Q190.5611,177.238 190.1247,177.0396 Q189.6883,176.8412 189.2244,176.8412 Q188.2357,176.8412 187.7321,177.6255 Q187.2286,178.4098 187.2286,179.954 Q187.2286,181.4921 187.7321,182.2764 Q188.2357,183.0607 189.2244,183.0607 Q189.6883,183.0607 190.1247,182.8623 Q190.5611,182.664 191.025,182.2367 Z " fill="#000000"/><text fill="#D8BC00" font-family="Open Sans,Avenir,Nunito,Arial,Helvetica,SansSerif" font-size="12.5" font-weight="bold" lengthAdjust="spacing" textLength="38.5417" x="207.7604" y="184.5378">Page2</text><line style="stroke:#5E5E5E;stroke-width:1.5625;" x1="166.6667" x2="260.4167" y1="195.5078" y2="195.5078"/><ellipse cx="177.0833" cy="230.8777" fill="#84BE84" rx="3.125" ry="3.125" style="stroke:#038048;stroke-width:1.0416666666666667;"/><text fill="#D8BC00" font-family="Open Sans,Avenir,Nunito,Arial,Helvetica,SansSerif" font-size="11.4583" lengthAdjust="spacing" textLength="41.6667" x="188.5417" y="237.7889">Page2()</text><line style="stroke:#5E5E5E;stroke-width:1.0416666666666667;" x1="166.6667" x2="169.7917" y1="213.7136" y2="213.7136"/><text fill="#D8BC00" font-family="Open Sans,Avenir,Nunito,Arial,Helvetica,SansSerif" font-size="11.4583" lengthAdjust="spacing" textLength="81.25" x="172.9167" y="217.5232">(constructors)</text><line style="stroke:#5E5E5E;stroke-width:1.0416666666666667;" x1="257.2917" x2="260.4167" y1="213.7136" y2="213.7136"/><!--MD5=[a0336aaa8110b78d9cacadb9d45e00a3]
class Border--><rect fill="#282828" height="48.055" id="Border" rx="8.3333" ry="8.3333" style="stroke:#5E5E5E;stroke-width:1.0416666666666667;" width="80.2083" x="339.0625" y="53.7028"/><rect fill="#1B1B1A" height="31.3883" rx="8.3333" ry="8.3333" style="stroke:#1B1B1A;stroke-width:1.0416666666666667;" width="80.2083" x="339.0625" y="53.7028"/><rect fill="#1B1B1A" height="8.3333" style="stroke:#1B1B1A;stroke-width:1.0416666666666667;" width="80.2083" x="339.0625" y="76.7578"/><rect fill="none" height="48.055" id="Border" rx="8.3333" ry="8.3333" style="stroke:#5E5E5E;stroke-width:1.0416666666666667;" width="80.2083" x="339.0625" y="53.7028"/><ellipse cx="353.6458" cy="69.397" fill="#0066CF" rx="10.4167" ry="10.4167" style="stroke:#0086EF;stroke-width:1.0416666666666667;"/><path d="M355.5562,73.822 Q355.129,74.0417 354.659,74.1516 Q354.189,74.2615 353.6702,74.2615 Q351.827,74.2615 350.8565,73.0469 Q349.8861,71.8323 349.8861,69.5374 Q349.8861,67.2363 350.8565,66.0217 Q351.827,64.8071 353.6702,64.8071 Q354.189,64.8071 354.6651,64.917 Q355.1412,65.0269 355.5562,65.2466 L355.5562,67.2485 Q355.0924,66.8213 354.656,66.6229 Q354.2196,66.4246 353.7557,66.4246 Q352.7669,66.4246 352.2634,67.2089 Q351.7598,67.9932 351.7598,69.5374 Q351.7598,71.0754 352.2634,71.8597 Q352.7669,72.644 353.7557,72.644 Q354.2196,72.644 354.656,72.4457 Q355.0924,72.2473 355.5562,71.8201 Z " fill="#000000"/><text fill="#D8BC00" font-family="Open Sans,Avenir,Nunito,Arial,Helvetica,SansSerif" font-size="12.5" font-weight="bold" lengthAdjust="spacing" textLength="42.7083" x="370.3125" y="74.1211">Border</text><line style="stroke:#5E5E5E;stroke-width:1.0416666666666667;" x1="340.1042" x2="418.2292" y1="85.0911" y2="85.0911"/><line style="stroke:#5E5E5E;stroke-width:1.0416666666666667;" x1="340.1042" x2="418.2292" y1="93.4245" y2="93.4245"/><!--MD5=[8bc3864a9bc1e953bcec21c2d3be9a92]
class TemplateBorder--><rect codeLine="21" fill="#282828" height="83.3781" id="TemplateBorder" rx="8.3333" ry="8.3333" style="stroke:#5E5E5E;stroke-width:1.0416666666666667;" width="162.5" x="297.9167" y="164.1195"/><rect fill="#1B1B1A" height="31.3883" rx="8.3333" ry="8.3333" style="stroke:#1B1B1A;stroke-width:1.0416666666666667;" width="162.5" x="297.9167" y="164.1195"/><rect fill="#1B1B1A" height="8.3333" style="stroke:#1B1B1A;stroke-width:1.0416666666666667;" width="162.5" x="297.9167" y="187.1745"/><rect codeLine="21" fill="none" height="83.3781" id="TemplateBorder" rx="8.3333" ry="8.3333" style="stroke:#5E5E5E;stroke-width:1.0416666666666667;" width="162.5" x="297.9167" y="164.1195"/><ellipse cx="322.3438" cy="179.8136" fill="#0066CF" rx="10.4167" ry="10.4167" style="stroke:#0086EF;stroke-width:1.0416666666666667;"/><path d="M324.2542,184.2387 Q323.8269,184.4584 323.3569,184.5683 Q322.887,184.6781 322.3682,184.6781 Q320.5249,184.6781 319.5544,183.4635 Q318.584,182.2489 318.584,179.954 Q318.584,177.653 319.5544,176.4384 Q320.5249,175.2238 322.3682,175.2238 Q322.887,175.2238 323.363,175.3337 Q323.8391,175.4435 324.2542,175.6632 L324.2542,177.6652 Q323.7903,177.238 323.3539,177.0396 Q322.9175,176.8412 322.4536,176.8412 Q321.4648,176.8412 320.9613,177.6255 Q320.4578,178.4098 320.4578,179.954 Q320.4578,181.4921 320.9613,182.2764 Q321.4648,183.0607 322.4536,183.0607 Q322.9175,183.0607 323.3539,182.8623 Q323.7903,182.664 324.2542,182.2367 Z " fill="#000000"/><text fill="#D8BC00" font-family="Open Sans,Avenir,Nunito,Arial,Helvetica,SansSerif" font-size="12.5" font-weight="bold" lengthAdjust="spacing" textLength="103.125" x="341.1979" y="184.5378">TemplateBorder</text><line style="stroke:#5E5E5E;stroke-width:1.5625;" x1="298.9583" x2="459.375" y1="195.5078" y2="195.5078"/><ellipse cx="309.375" cy="230.8777" fill="#84BE84" rx="3.125" ry="3.125" style="stroke:#038048;stroke-width:1.0416666666666667;"/><text fill="#D8BC00" font-family="Open Sans,Avenir,Nunito,Arial,Helvetica,SansSerif" font-size="11.4583" lengthAdjust="spacing" textLength="130.2083" x="320.8333" y="237.7889">TemplateBorder(String)</text><line style="stroke:#5E5E5E;stroke-width:1.0416666666666667;" x1="298.9583" x2="335.4167" y1="213.7136" y2="213.7136"/><text fill="#D8BC00" font-family="Open Sans,Avenir,Nunito,Arial,Helvetica,SansSerif" font-size="11.4583" lengthAdjust="spacing" textLength="81.25" x="338.5417" y="217.5232">(constructors)</text><line style="stroke:#5E5E5E;stroke-width:1.0416666666666667;" x1="422.9167" x2="459.375" y1="213.7136" y2="213.7136"/><!--MD5=[4aefba825eb4fe39a2bd9fc05861486b]
reverse link WicketExamplePage to Page1--><path codeLine="6" d="M125.9375,120.2445 C118.5208,134.2861 110.2396,149.9424 102.8438,163.9215 " fill="none" id="WicketExamplePage-backto-Page1" style="stroke:#545454;stroke-width:1.5625;"/><polygon fill="none" points="119.5,116.8278,135.6875,101.8174,132.3958,123.6507,119.5,116.8278" style="stroke:#545454;stroke-width:1.5625;"/><!--MD5=[dc9f7f059f44bf26a1384baaef1aa5af]
reverse link WicketExamplePage to Page2--><path codeLine="13" d="M169.8021,120.734 C177.0417,134.6403 185.0938,150.0986 192.2813,163.9215 " fill="none" id="WicketExamplePage-backto-Page2" style="stroke:#545454;stroke-width:1.5625;"/><polygon fill="none" points="163.1042,123.6715,159.9583,101.8174,176.0417,116.932,163.1042,123.6715" style="stroke:#545454;stroke-width:1.5625;"/><!--MD5=[0fd289ecc74fe78952108a06a0d59d06]
reverse link Border to TemplateBorder--><path codeLine="20" d="M379.1667,122.682 C379.1667,136.0778 379.1667,150.7445 379.1667,163.9215 " fill="none" id="Border-backto-TemplateBorder" style="stroke:#545454;stroke-width:1.5625;"/><polygon fill="none" points="371.875,122.6507,379.1667,101.8174,386.4583,122.6507,371.875,122.6507" style="stroke:#545454;stroke-width:1.5625;"/><!--MD5=[85d0fb9b573c94cb41f920ade42dc57f]
@startuml

    !include lexakai.theme
    
    title "org.apache.wicket.examples.template.border"
    
    WicketExamplePage <|- - Page1
    class Page1
    {
        - -(constructors)- -
        +Page1()
    }
    
    WicketExamplePage <|- - Page2
    class Page2
    {
        - -(constructors)- -
        +Page2()
    }
    
    Border <|- - TemplateBorder
    class TemplateBorder
    {
        - -(constructors)- -
        +TemplateBorder(String)
    }
    
@enduml

@startuml









skinparam backgroundColor #333333






skinparam  {
    defaultFontName   "Open Sans,Avenir,Nunito,Arial,Helvetica,SansSerif"
    defaultFontSize   12
    defaultTextAlignment left
    shadowing false
    RoundCorner 10
    TitleFontSize 18
}

skinparam defaultFontName       "Open Sans,Avenir,Nunito,Arial,Helvetica,SansSerif"
skinparam defaultFontSize       12
skinparam dpi                   100
skinparam shadowing             false
skinparam roundcorner           16
skinparam ParticipantPadding    40
skinparam BoxPadding            40
skinparam Padding               3
skinparam ArrowColor            #545454
skinparam stereotype {
    CBackgroundColor #0066cf
    CBorderColor #0086ef
    ABackgroundColor #C8Ac00
    ABorderColor #D8Bc00
    IBackgroundColor #008400
    IBorderColor #239c23
    EBackgroundColor #cf6300
    EBorderColor #ef8300
    NBackgroundColor #3380b9
    NBorderColor #004d86
}
skinparam title {
	FontColor	                 #c0c0c0
 	BorderColor                  #545454
	FontSize	    	         20
	BorderRoundCorner            16
	BorderThickness 	         1
	BackgroundColor              #48494b
}


skinparam legend {
	BackgroundColor #303030
	BorderColor #404040
	FontColor #a0a0a0
}

	skinparam swimlane {
	BorderColor #5e5e5e
	BorderThickness 2
	TitleBackgroundColor  #6d6d6d-#484848
	TitleFontColor #303030
}

skinparam activity {
		FontColor #C8Ac00
	BorderColor #333333
	BackgroundColor #333333-#333333
	BarColor #00FF00
	StartColor #0060a8
	EndColor #0060a8
	DiamondBackgroundColor #6d6d6d-#3a3a3a
  	DiamondBorderColor #3a3a3a
  	DiamondFontColor #fefefe
}


skinparam participant {
		FontColor #C8Ac00
	BorderColor #333333
	BackgroundColor #333333-#333333
	ParticipantBorderThickness 2
}


skinparam actor {
		FontColor #C8Ac00
	BorderColor #333333
	BackgroundColor #333333-#333333
}


skinparam arrow {
	Thickness 1.5
	Color #545454
	FontColor #a0a0a0
    FontStyle bold
    MessageAlignment center
}



skinparam sequence {
	BorderColor #303030
	TitleFontColor #303030
	BackgroundColor #333333
	StartColor #303030
	EndColor #303030
	BoxBackgroundColor #333333
	BoxBorderColor #484848
	BoxFontColor #484848
	LifeLineBorderColor #484848
	LifeLineBorderThickness 2
	LifeLineBackgroundColor #3a3a3a
	GroupBorderColor #484848
	GroupFontColor #484848
	GroupHeaderFontColor #0060a8
	GroupBackgroundColor #484848
	GroupHeaderBackgroundColor #333333
	DividerBackgroundColor #484848
    DividerBorderColor #484848
    DividerBorderThickness 2
    DividerFontColor #D8Bc00
	ReferenceBackgroundColor #333333
	ReferenceBorderColor #484848
	ReferenceFontColor #fefefe
	ReferenceHeaderBackgroundColor #484848
}


skinparam partition {
	BorderColor #303030
	FontColor #333333
	BackgroundColor #333333
}


skinparam collections {
		FontColor #C8Ac00
	BorderColor #333333
	BackgroundColor #333333-#333333
}


skinparam control {
		FontColor #C8Ac00
	BorderColor #333333
	BackgroundColor #333333-#333333
}


skinparam entity {
		FontColor #C8Ac00
	BorderColor #333333
	BackgroundColor #333333-#333333
}


skinparam boundary {
		FontColor #C8Ac00
	BorderColor #333333
	BackgroundColor #333333-#333333
}


skinparam agent {
	BackgroundColor #ff8000
	BorderColor #ff9933
	FontColor #484848
}


skinparam note {
	BorderThickness 1
	BackgroundColor #1b1b1a
	BorderColor #5e5e5e
	FontSize 11
	FontColor #a0a0a0
}


skinparam artifact {
	BorderThickness 10
	BorderColor #5e5e5e
	BackgroundColor #1b1b1a
	FontColor #D8Bc00
}


skinparam component {
		FontColor #C8Ac00
	BorderColor #333333
	BackgroundColor #333333-#333333
}


skinparam interface {
	BackgroundColor  #008400
	BorderColor  #007F00
	FontColor #484848
}


skinparam storage {
	BackgroundColor #ff8000
  	BorderColor #cc6600
	FontColor #222222
}


skinparam node {
	BackgroundColor #333333
	BorderColor #333333
	FontColor #C8Ac00
}


skinparam cloud {
	BackgroundColor #484848-black
	BorderColor #484848
	FontColor #D8Bc00
}


skinparam database {
		FontColor #C8Ac00
	BorderColor #333333
	BackgroundColor #333333-#333333
	BackgroundColor  #333333
}


skinparam class {
		FontColor #C8Ac00
	BorderColor #333333
	BackgroundColor #333333-#333333
	HeaderBackgroundColor #1b1b1a
    BackgroundColor #282828
    BorderColor #5e5e5e
 	StereotypeFontColor #a0a0a0
    StereotypeFontStyle bold
	BorderThickness 1
	AttributeFontColor #D8Bc00
	AttributeFontSize 11
    FontColor #D8Bc00
    FontStyle bold
}


skinparam object {
		FontColor #C8Ac00
	BorderColor #333333
	BackgroundColor #333333-#333333
	StereotypeFontColor #484848
	BorderThickness 1
	AttributeFontColor #fefefe
	AttributeFontSize 11
}


skinparam usecase {
		FontColor #C8Ac00
	BorderColor #333333
	BackgroundColor #333333-#333333
	BorderThickness 2
	StereotypeFontColor #303030
}


skinparam rectangle {
		FontColor #C8Ac00
	BorderColor #333333
	BackgroundColor #333333-#333333
	BackgroundColor #333333
	BorderThickness 2
	StereotypeFontColor #303030
}


skinparam package {
		FontColor #C8Ac00
	BorderColor #333333
	BackgroundColor #333333-#333333
	BackgroundColor #333333
	BorderThickness 2
}


skinparam folder {
	BackgroundColor #6d6d6d
  	BorderColor #ff8000
	FontColor #ff8000
	BorderThickness 2
}


skinparam frame {
	BackgroundColor #6d6d6d
  	BorderColor #0060a8
	FontColor #0060a8
	BorderThickness 2
}


skinparam state {
		FontColor #C8Ac00
	BorderColor #333333
	BackgroundColor #333333-#333333
	StartColor #0060a8
	EndColor #0060a8
	AttributeFontColor #fefefe
	AttributeFontSize 11
}


skinparam queue {
		FontColor #C8Ac00
	BorderColor #333333
	BackgroundColor #333333-#333333
}


skinparam card {
	BackgroundColor #0060a8
	BorderColor #004d86
	FontColor $INFO_TEXT
}


skinparam file {
	BackgroundColor #6d6d6d-#484848
	BorderColor #0060a8
	FontColor #fefefe
}


skinparam stack {
		FontColor #C8Ac00
	BorderColor #333333
	BackgroundColor #333333-#333333
}

    
    title "org.apache.wicket.examples.template.border"
    
    WicketExamplePage <|- - Page1
    class Page1
    {
        - -(constructors)- -
        +Page1()
    }
    
    WicketExamplePage <|- - Page2
    class Page2
    {
        - -(constructors)- -
        +Page2()
    }
    
    Border <|- - TemplateBorder
    class TemplateBorder
    {
        - -(constructors)- -
        +TemplateBorder(String)
    }
    
@enduml

PlantUML version 1.2021.01(Tue Feb 02 00:55:08 MST 2021)
(GPL source distribution)
Java Runtime: Java(TM) SE Runtime Environment
JVM: Java HotSpot(TM) 64-Bit Server VM
Default Encoding: UTF-8
Language: en
Country: US
--></g></svg>