<?xml version="1.0" encoding="UTF-8" standalone="no"?><svg xmlns="http://www.w3.org/2000/svg" xmlns:xlink="http://www.w3.org/1999/xlink" contentScriptType="application/ecmascript" contentStyleType="text/css" height="254.1667px" preserveAspectRatio="none" style="width:428px;height:254px;background:#333333;" version="1.1" viewBox="0 0 428 254" width="428.125px" zoomAndPan="magnify"><defs/><g><rect fill="#48494B" height="41.2028" rx="8.3333" ry="8.3333" style="stroke:#545454;stroke-width:1.0416666666666667;" width="414.5833" x="2.0833" y="2.0833"/><text fill="#C0C0C0" font-family="Open Sans,Avenir,Nunito,Arial,Helvetica,SansSerif" font-size="20.8333" lengthAdjust="spacing" textLength="391.6667" x="13.5417" y="30.5583">org.apache.wicket.examples.encodings</text><!--MD5=[818b680dd029f5404dc253254408b9c3]
class WicketExampleApplication--><rect fill="#282828" height="48.055" id="WicketExampleApplication" rx="8.3333" ry="8.3333" style="stroke:#5E5E5E;stroke-width:1.0416666666666667;" width="208.3333" x="11.9792" y="53.7028"/><rect fill="#1B1B1A" height="31.3883" rx="8.3333" ry="8.3333" style="stroke:#1B1B1A;stroke-width:1.0416666666666667;" width="208.3333" x="11.9792" y="53.7028"/><rect fill="#1B1B1A" height="8.3333" style="stroke:#1B1B1A;stroke-width:1.0416666666666667;" width="208.3333" x="11.9792" y="76.7578"/><rect fill="none" height="48.055" id="WicketExampleApplication" rx="8.3333" ry="8.3333" style="stroke:#5E5E5E;stroke-width:1.0416666666666667;" width="208.3333" x="11.9792" y="53.7028"/><ellipse cx="26.5625" cy="69.397" fill="#0066CF" rx="10.4167" ry="10.4167" style="stroke:#0086EF;stroke-width:1.0416666666666667;"/><path d="M28.4729,73.822 Q28.0457,74.0417 27.5757,74.1516 Q27.1057,74.2615 26.5869,74.2615 Q24.7437,74.2615 23.7732,73.0469 Q22.8027,71.8323 22.8027,69.5374 Q22.8027,67.2363 23.7732,66.0217 Q24.7437,64.8071 26.5869,64.8071 Q27.1057,64.8071 27.5818,64.917 Q28.0579,65.0269 28.4729,65.2466 L28.4729,67.2485 Q28.009,66.8213 27.5726,66.6229 Q27.1362,66.4246 26.6724,66.4246 Q25.6836,66.4246 25.1801,67.2089 Q24.6765,67.9932 24.6765,69.5374 Q24.6765,71.0754 25.1801,71.8597 Q25.6836,72.644 26.6724,72.644 Q27.1362,72.644 27.5726,72.4457 Q28.009,72.2473 28.4729,71.8201 Z " fill="#000000"/><text fill="#D8BC00" font-family="Open Sans,Avenir,Nunito,Arial,Helvetica,SansSerif" font-size="12.5" font-weight="bold" lengthAdjust="spacing" textLength="170.8333" x="43.2292" y="74.1211">WicketExampleApplication</text><line style="stroke:#5E5E5E;stroke-width:1.0416666666666667;" x1="13.0208" x2="219.2708" y1="85.0911" y2="85.0911"/><line style="stroke:#5E5E5E;stroke-width:1.0416666666666667;" x1="13.0208" x2="219.2708" y1="93.4245" y2="93.4245"/><!--MD5=[4f3d6243ecb067d5fb7c66ec6028ebd9]
class EncodingsApplication--><rect codeLine="7" fill="#282828" height="48.055" id="EncodingsApplication" rx="8.3333" ry="8.3333" style="stroke:#5E5E5E;stroke-width:1.0416666666666667;" width="178.125" x="27.0833" y="181.8278"/><rect fill="#1B1B1A" height="31.3883" rx="8.3333" ry="8.3333" style="stroke:#1B1B1A;stroke-width:1.0416666666666667;" width="178.125" x="27.0833" y="181.8278"/><rect fill="#1B1B1A" height="8.3333" style="stroke:#1B1B1A;stroke-width:1.0416666666666667;" width="178.125" x="27.0833" y="204.8828"/><rect codeLine="7" fill="none" height="48.055" id="EncodingsApplication" rx="8.3333" ry="8.3333" style="stroke:#5E5E5E;stroke-width:1.0416666666666667;" width="178.125" x="27.0833" y="181.8278"/><ellipse cx="41.6667" cy="197.522" fill="#0066CF" rx="10.4167" ry="10.4167" style="stroke:#0086EF;stroke-width:1.0416666666666667;"/><path d="M43.5771,201.947 Q43.1498,202.1667 42.6799,202.2766 Q42.2099,202.3865 41.6911,202.3865 Q39.8478,202.3865 38.8774,201.1719 Q37.9069,199.9573 37.9069,197.6624 Q37.9069,195.3613 38.8774,194.1467 Q39.8478,192.9321 41.6911,192.9321 Q42.2099,192.9321 42.686,193.042 Q43.162,193.1519 43.5771,193.3716 L43.5771,195.3735 Q43.1132,194.9463 42.6768,194.7479 Q42.2404,194.5496 41.7765,194.5496 Q40.7878,194.5496 40.2842,195.3339 Q39.7807,196.1182 39.7807,197.6624 Q39.7807,199.2004 40.2842,199.9847 Q40.7878,200.769 41.7765,200.769 Q42.2404,200.769 42.6768,200.5707 Q43.1132,200.3723 43.5771,199.9451 Z " fill="#000000"/><text fill="#D8BC00" font-family="Open Sans,Avenir,Nunito,Arial,Helvetica,SansSerif" font-size="12.5" font-weight="bold" lengthAdjust="spacing" textLength="140.625" x="58.3333" y="202.2461">EncodingsApplication</text><line style="stroke:#5E5E5E;stroke-width:1.0416666666666667;" x1="28.125" x2="204.1667" y1="213.2161" y2="213.2161"/><line style="stroke:#5E5E5E;stroke-width:1.0416666666666667;" x1="28.125" x2="204.1667" y1="221.5495" y2="221.5495"/><!--MD5=[8de0e4c819f220f8e0c4c4df41ba59ce]
class WicketExamplePage--><rect fill="#282828" height="48.055" id="WicketExamplePage" rx="8.3333" ry="8.3333" style="stroke:#5E5E5E;stroke-width:1.0416666666666667;" width="164.5833" x="256.7708" y="53.7028"/><rect fill="#1B1B1A" height="31.3883" rx="8.3333" ry="8.3333" style="stroke:#1B1B1A;stroke-width:1.0416666666666667;" width="164.5833" x="256.7708" y="53.7028"/><rect fill="#1B1B1A" height="8.3333" style="stroke:#1B1B1A;stroke-width:1.0416666666666667;" width="164.5833" x="256.7708" y="76.7578"/><rect fill="none" height="48.055" id="WicketExamplePage" rx="8.3333" ry="8.3333" style="stroke:#5E5E5E;stroke-width:1.0416666666666667;" width="164.5833" x="256.7708" y="53.7028"/><ellipse cx="271.3542" cy="69.397" fill="#0066CF" rx="10.4167" ry="10.4167" style="stroke:#0086EF;stroke-width:1.0416666666666667;"/><path d="M273.2646,73.822 Q272.8373,74.0417 272.3674,74.1516 Q271.8974,74.2615 271.3786,74.2615 Q269.5353,74.2615 268.5649,73.0469 Q267.5944,71.8323 267.5944,69.5374 Q267.5944,67.2363 268.5649,66.0217 Q269.5353,64.8071 271.3786,64.8071 Q271.8974,64.8071 272.3735,64.917 Q272.8495,65.0269 273.2646,65.2466 L273.2646,67.2485 Q272.8007,66.8213 272.3643,66.6229 Q271.9279,66.4246 271.464,66.4246 Q270.4753,66.4246 269.9717,67.2089 Q269.4682,67.9932 269.4682,69.5374 Q269.4682,71.0754 269.9717,71.8597 Q270.4753,72.644 271.464,72.644 Q271.9279,72.644 272.3643,72.4457 Q272.8007,72.2473 273.2646,71.8201 Z " fill="#000000"/><text fill="#D8BC00" font-family="Open Sans,Avenir,Nunito,Arial,Helvetica,SansSerif" font-size="12.5" font-weight="bold" lengthAdjust="spacing" textLength="127.0833" x="288.0208" y="74.1211">WicketExamplePage</text><line style="stroke:#5E5E5E;stroke-width:1.0416666666666667;" x1="257.8125" x2="420.3125" y1="85.0911" y2="85.0911"/><line style="stroke:#5E5E5E;stroke-width:1.0416666666666667;" x1="257.8125" x2="420.3125" y1="93.4245" y2="93.4245"/><!--MD5=[85bae912d113bb0b86a623a745020199]
class Home--><rect codeLine="12" fill="#282828" height="83.3781" id="Home" rx="8.3333" ry="8.3333" style="stroke:#5E5E5E;stroke-width:1.0416666666666667;" width="161.4583" x="258.3333" y="164.1195"/><rect fill="#1B1B1A" height="31.3883" rx="8.3333" ry="8.3333" style="stroke:#1B1B1A;stroke-width:1.0416666666666667;" width="161.4583" x="258.3333" y="164.1195"/><rect fill="#1B1B1A" height="8.3333" style="stroke:#1B1B1A;stroke-width:1.0416666666666667;" width="161.4583" x="258.3333" y="187.1745"/><rect codeLine="12" fill="none" height="83.3781" id="Home" rx="8.3333" ry="8.3333" style="stroke:#5E5E5E;stroke-width:1.0416666666666667;" width="161.4583" x="258.3333" y="164.1195"/><ellipse cx="313.0208" cy="179.8136" fill="#0066CF" rx="10.4167" ry="10.4167" style="stroke:#0086EF;stroke-width:1.0416666666666667;"/><path d="M314.9312,184.2387 Q314.504,184.4584 314.034,184.5683 Q313.564,184.6781 313.0452,184.6781 Q311.202,184.6781 310.2315,183.4635 Q309.2611,182.2489 309.2611,179.954 Q309.2611,177.653 310.2315,176.4384 Q311.202,175.2238 313.0452,175.2238 Q313.564,175.2238 314.0401,175.3337 Q314.5162,175.4435 314.9312,175.6632 L314.9312,177.6652 Q314.4674,177.238 314.031,177.0396 Q313.5946,176.8412 313.1307,176.8412 Q312.1419,176.8412 311.6384,177.6255 Q311.1348,178.4098 311.1348,179.954 Q311.1348,181.4921 311.6384,182.2764 Q312.1419,183.0607 313.1307,183.0607 Q313.5946,183.0607 314.031,182.8623 Q314.4674,182.664 314.9312,182.2367 Z " fill="#000000"/><text fill="#D8BC00" font-family="Open Sans,Avenir,Nunito,Arial,Helvetica,SansSerif" font-size="12.5" font-weight="bold" lengthAdjust="spacing" textLength="37.5" x="335.9375" y="184.5378">Home</text><line style="stroke:#5E5E5E;stroke-width:1.5625;" x1="259.375" x2="418.75" y1="195.5078" y2="195.5078"/><ellipse cx="269.7917" cy="230.8777" fill="#84BE84" rx="3.125" ry="3.125" style="stroke:#038048;stroke-width:1.0416666666666667;"/><text fill="#D8BC00" font-family="Open Sans,Avenir,Nunito,Arial,Helvetica,SansSerif" font-size="11.4583" lengthAdjust="spacing" textLength="129.1667" x="281.25" y="237.7889">Home(PageParameters)</text><line style="stroke:#5E5E5E;stroke-width:1.0416666666666667;" x1="259.375" x2="295.3125" y1="213.7136" y2="213.7136"/><text fill="#D8BC00" font-family="Open Sans,Avenir,Nunito,Arial,Helvetica,SansSerif" font-size="11.4583" lengthAdjust="spacing" textLength="81.25" x="298.4375" y="217.5232">(constructors)</text><line style="stroke:#5E5E5E;stroke-width:1.0416666666666667;" x1="382.8125" x2="418.75" y1="213.7136" y2="213.7136"/><!--MD5=[143462155bfb539addf7c7ac5eed2f8a]
reverse link WicketExampleApplication to EncodingsApplication--><path codeLine="6" d="M116.1458,122.9528 C116.1458,142.7965 116.1458,165.3799 116.1458,181.7757 " fill="none" id="WicketExampleApplication-backto-EncodingsApplication" style="stroke:#545454;stroke-width:1.5625;"/><polygon fill="none" points="108.8542,122.6507,116.1458,101.8174,123.4375,122.6507,108.8542,122.6507" style="stroke:#545454;stroke-width:1.5625;"/><!--MD5=[b3756feba97c3508453d5d50a0aaead8]
reverse link WicketExamplePage to Home--><path codeLine="11" d="M339.0625,122.682 C339.0625,136.0778 339.0625,150.7445 339.0625,163.9215 " fill="none" id="WicketExamplePage-backto-Home" style="stroke:#545454;stroke-width:1.5625;"/><polygon fill="none" points="331.7708,122.6507,339.0625,101.8174,346.3542,122.6507,331.7708,122.6507" style="stroke:#545454;stroke-width:1.5625;"/><!--MD5=[74563a1ca8e9fbcad1aea2823f61dbb8]
@startuml

    !include lexakai.theme
    
    title "org.apache.wicket.examples.encodings"
    
    WicketExampleApplication <|- - EncodingsApplication
    class EncodingsApplication
    {
    }
    
    WicketExamplePage <|- - Home
    class Home
    {
        - -(constructors)- -
        +Home(PageParameters)
    }
    
@enduml

@startuml









skinparam backgroundColor #333333






skinparam  {
    defaultFontName   "Open Sans,Avenir,Nunito,Arial,Helvetica,SansSerif"
    defaultFontSize   12
    defaultTextAlignment left
    shadowing false
    RoundCorner 10
    TitleFontSize 18
}

skinparam defaultFontName       "Open Sans,Avenir,Nunito,Arial,Helvetica,SansSerif"
skinparam defaultFontSize       12
skinparam dpi                   100
skinparam shadowing             false
skinparam roundcorner           16
skinparam ParticipantPadding    40
skinparam BoxPadding            40
skinparam Padding               3
skinparam ArrowColor            #545454
skinparam stereotype {
    CBackgroundColor #0066cf
    CBorderColor #0086ef
    ABackgroundColor #C8Ac00
    ABorderColor #D8Bc00
    IBackgroundColor #008400
    IBorderColor #239c23
    EBackgroundColor #cf6300
    EBorderColor #ef8300
    NBackgroundColor #3380b9
    NBorderColor #004d86
}
skinparam title {
	FontColor	                 #c0c0c0
 	BorderColor                  #545454
	FontSize	    	         20
	BorderRoundCorner            16
	BorderThickness 	         1
	BackgroundColor              #48494b
}


skinparam legend {
	BackgroundColor #303030
	BorderColor #404040
	FontColor #a0a0a0
}

	skinparam swimlane {
	BorderColor #5e5e5e
	BorderThickness 2
	TitleBackgroundColor  #6d6d6d-#484848
	TitleFontColor #303030
}

skinparam activity {
		FontColor #C8Ac00
	BorderColor #333333
	BackgroundColor #333333-#333333
	BarColor #00FF00
	StartColor #0060a8
	EndColor #0060a8
	DiamondBackgroundColor #6d6d6d-#3a3a3a
  	DiamondBorderColor #3a3a3a
  	DiamondFontColor #fefefe
}


skinparam participant {
		FontColor #C8Ac00
	BorderColor #333333
	BackgroundColor #333333-#333333
	ParticipantBorderThickness 2
}


skinparam actor {
		FontColor #C8Ac00
	BorderColor #333333
	BackgroundColor #333333-#333333
}


skinparam arrow {
	Thickness 1.5
	Color #545454
	FontColor #a0a0a0
    FontStyle bold
    MessageAlignment center
}



skinparam sequence {
	BorderColor #303030
	TitleFontColor #303030
	BackgroundColor #333333
	StartColor #303030
	EndColor #303030
	BoxBackgroundColor #333333
	BoxBorderColor #484848
	BoxFontColor #484848
	LifeLineBorderColor #484848
	LifeLineBorderThickness 2
	LifeLineBackgroundColor #3a3a3a
	GroupBorderColor #484848
	GroupFontColor #484848
	GroupHeaderFontColor #0060a8
	GroupBackgroundColor #484848
	GroupHeaderBackgroundColor #333333
	DividerBackgroundColor #484848
    DividerBorderColor #484848
    DividerBorderThickness 2
    DividerFontColor #D8Bc00
	ReferenceBackgroundColor #333333
	ReferenceBorderColor #484848
	ReferenceFontColor #fefefe
	ReferenceHeaderBackgroundColor #484848
}


skinparam partition {
	BorderColor #303030
	FontColor #333333
	BackgroundColor #333333
}


skinparam collections {
		FontColor #C8Ac00
	BorderColor #333333
	BackgroundColor #333333-#333333
}


skinparam control {
		FontColor #C8Ac00
	BorderColor #333333
	BackgroundColor #333333-#333333
}


skinparam entity {
		FontColor #C8Ac00
	BorderColor #333333
	BackgroundColor #333333-#333333
}


skinparam boundary {
		FontColor #C8Ac00
	BorderColor #333333
	BackgroundColor #333333-#333333
}


skinparam agent {
	BackgroundColor #ff8000
	BorderColor #ff9933
	FontColor #484848
}


skinparam note {
	BorderThickness 1
	BackgroundColor #1b1b1a
	BorderColor #5e5e5e
	FontSize 11
	FontColor #a0a0a0
}


skinparam artifact {
	BorderThickness 10
	BorderColor #5e5e5e
	BackgroundColor #1b1b1a
	FontColor #D8Bc00
}


skinparam component {
		FontColor #C8Ac00
	BorderColor #333333
	BackgroundColor #333333-#333333
}


skinparam interface {
	BackgroundColor  #008400
	BorderColor  #007F00
	FontColor #484848
}


skinparam storage {
	BackgroundColor #ff8000
  	BorderColor #cc6600
	FontColor #222222
}


skinparam node {
	BackgroundColor #333333
	BorderColor #333333
	FontColor #C8Ac00
}


skinparam cloud {
	BackgroundColor #484848-black
	BorderColor #484848
	FontColor #D8Bc00
}


skinparam database {
		FontColor #C8Ac00
	BorderColor #333333
	BackgroundColor #333333-#333333
	BackgroundColor  #333333
}


skinparam class {
		FontColor #C8Ac00
	BorderColor #333333
	BackgroundColor #333333-#333333
	HeaderBackgroundColor #1b1b1a
    BackgroundColor #282828
    BorderColor #5e5e5e
 	StereotypeFontColor #a0a0a0
    StereotypeFontStyle bold
	BorderThickness 1
	AttributeFontColor #D8Bc00
	AttributeFontSize 11
    FontColor #D8Bc00
    FontStyle bold
}


skinparam object {
		FontColor #C8Ac00
	BorderColor #333333
	BackgroundColor #333333-#333333
	StereotypeFontColor #484848
	BorderThickness 1
	AttributeFontColor #fefefe
	AttributeFontSize 11
}


skinparam usecase {
		FontColor #C8Ac00
	BorderColor #333333
	BackgroundColor #333333-#333333
	BorderThickness 2
	StereotypeFontColor #303030
}


skinparam rectangle {
		FontColor #C8Ac00
	BorderColor #333333
	BackgroundColor #333333-#333333
	BackgroundColor #333333
	BorderThickness 2
	StereotypeFontColor #303030
}


skinparam package {
		FontColor #C8Ac00
	BorderColor #333333
	BackgroundColor #333333-#333333
	BackgroundColor #333333
	BorderThickness 2
}


skinparam folder {
	BackgroundColor #6d6d6d
  	BorderColor #ff8000
	FontColor #ff8000
	BorderThickness 2
}


skinparam frame {
	BackgroundColor #6d6d6d
  	BorderColor #0060a8
	FontColor #0060a8
	BorderThickness 2
}


skinparam state {
		FontColor #C8Ac00
	BorderColor #333333
	BackgroundColor #333333-#333333
	StartColor #0060a8
	EndColor #0060a8
	AttributeFontColor #fefefe
	AttributeFontSize 11
}


skinparam queue {
		FontColor #C8Ac00
	BorderColor #333333
	BackgroundColor #333333-#333333
}


skinparam card {
	BackgroundColor #0060a8
	BorderColor #004d86
	FontColor $INFO_TEXT
}


skinparam file {
	BackgroundColor #6d6d6d-#484848
	BorderColor #0060a8
	FontColor #fefefe
}


skinparam stack {
		FontColor #C8Ac00
	BorderColor #333333
	BackgroundColor #333333-#333333
}

    
    title "org.apache.wicket.examples.encodings"
    
    WicketExampleApplication <|- - EncodingsApplication
    class EncodingsApplication
    {
    }
    
    WicketExamplePage <|- - Home
    class Home
    {
        - -(constructors)- -
        +Home(PageParameters)
    }
    
@enduml

PlantUML version 1.2021.01(Tue Feb 02 00:55:08 MST 2021)
(GPL source distribution)
Java Runtime: Java(TM) SE Runtime Environment
JVM: Java HotSpot(TM) 64-Bit Server VM
Default Encoding: UTF-8
Language: en
Country: US
--></g></svg>