<?xml version="1.0" encoding="UTF-8" standalone="no"?><svg xmlns="http://www.w3.org/2000/svg" xmlns:xlink="http://www.w3.org/1999/xlink" contentScriptType="application/ecmascript" contentStyleType="text/css" height="400px" preserveAspectRatio="none" style="width:728px;height:400px;background:#333333;" version="1.1" viewBox="0 0 728 400" width="728.125px" zoomAndPan="magnify"><defs/><g><rect fill="#48494B" height="41.2028" rx="8.3333" ry="8.3333" style="stroke:#545454;stroke-width:1.0416666666666667;" width="380.2083" x="166.6667" y="2.0833"/><text fill="#C0C0C0" font-family="Open Sans,Avenir,Nunito,Arial,Helvetica,SansSerif" font-size="20.8333" lengthAdjust="spacing" textLength="357.2917" x="178.125" y="30.5583">org.apache.wicket.examples.niceurl</text><!--MD5=[8de0e4c819f220f8e0c4c4df41ba59ce]
class WicketExamplePage--><rect fill="#282828" height="48.055" id="WicketExamplePage" rx="8.3333" ry="8.3333" style="stroke:#5E5E5E;stroke-width:1.0416666666666667;" width="164.5833" x="138.5417" y="53.7028"/><rect fill="#1B1B1A" height="31.3883" rx="8.3333" ry="8.3333" style="stroke:#1B1B1A;stroke-width:1.0416666666666667;" width="164.5833" x="138.5417" y="53.7028"/><rect fill="#1B1B1A" height="8.3333" style="stroke:#1B1B1A;stroke-width:1.0416666666666667;" width="164.5833" x="138.5417" y="76.7578"/><rect fill="none" height="48.055" id="WicketExamplePage" rx="8.3333" ry="8.3333" style="stroke:#5E5E5E;stroke-width:1.0416666666666667;" width="164.5833" x="138.5417" y="53.7028"/><ellipse cx="153.125" cy="69.397" fill="#0066CF" rx="10.4167" ry="10.4167" style="stroke:#0086EF;stroke-width:1.0416666666666667;"/><path d="M155.0354,73.822 Q154.6082,74.0417 154.1382,74.1516 Q153.6682,74.2615 153.1494,74.2615 Q151.3062,74.2615 150.3357,73.0469 Q149.3652,71.8323 149.3652,69.5374 Q149.3652,67.2363 150.3357,66.0217 Q151.3062,64.8071 153.1494,64.8071 Q153.6682,64.8071 154.1443,64.917 Q154.6204,65.0269 155.0354,65.2466 L155.0354,67.2485 Q154.5715,66.8213 154.1351,66.6229 Q153.6987,66.4246 153.2349,66.4246 Q152.2461,66.4246 151.7426,67.2089 Q151.239,67.9932 151.239,69.5374 Q151.239,71.0754 151.7426,71.8597 Q152.2461,72.644 153.2349,72.644 Q153.6987,72.644 154.1351,72.4457 Q154.5715,72.2473 155.0354,71.8201 Z " fill="#000000"/><text fill="#D8BC00" font-family="Open Sans,Avenir,Nunito,Arial,Helvetica,SansSerif" font-size="12.5" font-weight="bold" lengthAdjust="spacing" textLength="127.0833" x="169.7917" y="74.1211">WicketExamplePage</text><line style="stroke:#5E5E5E;stroke-width:1.0416666666666667;" x1="139.5833" x2="302.0833" y1="85.0911" y2="85.0911"/><line style="stroke:#5E5E5E;stroke-width:1.0416666666666667;" x1="139.5833" x2="302.0833" y1="93.4245" y2="93.4245"/><!--MD5=[85bae912d113bb0b86a623a745020199]
class Home--><rect codeLine="7" fill="#282828" height="83.3781" id="Home" rx="8.3333" ry="8.3333" style="stroke:#5E5E5E;stroke-width:1.0416666666666667;" width="95.8333" x="7.2917" y="164.1195"/><rect fill="#1B1B1A" height="31.3883" rx="8.3333" ry="8.3333" style="stroke:#1B1B1A;stroke-width:1.0416666666666667;" width="95.8333" x="7.2917" y="164.1195"/><rect fill="#1B1B1A" height="8.3333" style="stroke:#1B1B1A;stroke-width:1.0416666666666667;" width="95.8333" x="7.2917" y="187.1745"/><rect codeLine="7" fill="none" height="83.3781" id="Home" rx="8.3333" ry="8.3333" style="stroke:#5E5E5E;stroke-width:1.0416666666666667;" width="95.8333" x="7.2917" y="164.1195"/><ellipse cx="31.25" cy="179.8136" fill="#0066CF" rx="10.4167" ry="10.4167" style="stroke:#0086EF;stroke-width:1.0416666666666667;"/><path d="M33.1604,184.2387 Q32.7332,184.4584 32.2632,184.5683 Q31.7932,184.6781 31.2744,184.6781 Q29.4312,184.6781 28.4607,183.4635 Q27.4902,182.2489 27.4902,179.954 Q27.4902,177.653 28.4607,176.4384 Q29.4312,175.2238 31.2744,175.2238 Q31.7932,175.2238 32.2693,175.3337 Q32.7454,175.4435 33.1604,175.6632 L33.1604,177.6652 Q32.6965,177.238 32.2601,177.0396 Q31.8237,176.8412 31.3599,176.8412 Q30.3711,176.8412 29.8676,177.6255 Q29.364,178.4098 29.364,179.954 Q29.364,181.4921 29.8676,182.2764 Q30.3711,183.0607 31.3599,183.0607 Q31.8237,183.0607 32.2601,182.8623 Q32.6965,182.664 33.1604,182.2367 Z " fill="#000000"/><text fill="#D8BC00" font-family="Open Sans,Avenir,Nunito,Arial,Helvetica,SansSerif" font-size="12.5" font-weight="bold" lengthAdjust="spacing" textLength="37.5" x="50" y="184.5378">Home</text><line style="stroke:#5E5E5E;stroke-width:1.5625;" x1="8.3333" x2="102.0833" y1="195.5078" y2="195.5078"/><ellipse cx="18.75" cy="230.8777" fill="#84BE84" rx="3.125" ry="3.125" style="stroke:#038048;stroke-width:1.0416666666666667;"/><text fill="#D8BC00" font-family="Open Sans,Avenir,Nunito,Arial,Helvetica,SansSerif" font-size="11.4583" lengthAdjust="spacing" textLength="40.625" x="30.2083" y="237.7889">Home()</text><line style="stroke:#5E5E5E;stroke-width:1.0416666666666667;" x1="8.3333" x2="11.4583" y1="213.7136" y2="213.7136"/><text fill="#D8BC00" font-family="Open Sans,Avenir,Nunito,Arial,Helvetica,SansSerif" font-size="11.4583" lengthAdjust="spacing" textLength="81.25" x="14.5833" y="217.5232">(constructors)</text><line style="stroke:#5E5E5E;stroke-width:1.0416666666666667;" x1="98.9583" x2="102.0833" y1="213.7136" y2="213.7136"/><!--MD5=[818b680dd029f5404dc253254408b9c3]
class WicketExampleApplication--><rect fill="#282828" height="48.055" id="WicketExampleApplication" rx="8.3333" ry="8.3333" style="stroke:#5E5E5E;stroke-width:1.0416666666666667;" width="208.3333" x="512.5" y="53.7028"/><rect fill="#1B1B1A" height="31.3883" rx="8.3333" ry="8.3333" style="stroke:#1B1B1A;stroke-width:1.0416666666666667;" width="208.3333" x="512.5" y="53.7028"/><rect fill="#1B1B1A" height="8.3333" style="stroke:#1B1B1A;stroke-width:1.0416666666666667;" width="208.3333" x="512.5" y="76.7578"/><rect fill="none" height="48.055" id="WicketExampleApplication" rx="8.3333" ry="8.3333" style="stroke:#5E5E5E;stroke-width:1.0416666666666667;" width="208.3333" x="512.5" y="53.7028"/><ellipse cx="527.0833" cy="69.397" fill="#0066CF" rx="10.4167" ry="10.4167" style="stroke:#0086EF;stroke-width:1.0416666666666667;"/><path d="M528.9937,73.822 Q528.5665,74.0417 528.0965,74.1516 Q527.6265,74.2615 527.1077,74.2615 Q525.2645,74.2615 524.294,73.0469 Q523.3236,71.8323 523.3236,69.5374 Q523.3236,67.2363 524.294,66.0217 Q525.2645,64.8071 527.1077,64.8071 Q527.6265,64.8071 528.1026,64.917 Q528.5787,65.0269 528.9937,65.2466 L528.9937,67.2485 Q528.5299,66.8213 528.0935,66.6229 Q527.6571,66.4246 527.1932,66.4246 Q526.2044,66.4246 525.7009,67.2089 Q525.1973,67.9932 525.1973,69.5374 Q525.1973,71.0754 525.7009,71.8597 Q526.2044,72.644 527.1932,72.644 Q527.6571,72.644 528.0935,72.4457 Q528.5299,72.2473 528.9937,71.8201 Z " fill="#000000"/><text fill="#D8BC00" font-family="Open Sans,Avenir,Nunito,Arial,Helvetica,SansSerif" font-size="12.5" font-weight="bold" lengthAdjust="spacing" textLength="170.8333" x="543.75" y="74.1211">WicketExampleApplication</text><line style="stroke:#5E5E5E;stroke-width:1.0416666666666667;" x1="513.5417" x2="719.7917" y1="85.0911" y2="85.0911"/><line style="stroke:#5E5E5E;stroke-width:1.0416666666666667;" x1="513.5417" x2="719.7917" y1="93.4245" y2="93.4245"/><!--MD5=[8b1b3caf2c6f05789b12c9809e90238c]
class NiceUrlApplication--><rect codeLine="14" fill="#282828" height="48.055" id="NiceUrlApplication" rx="8.3333" ry="8.3333" style="stroke:#5E5E5E;stroke-width:1.0416666666666667;" width="157.2917" x="538.0208" y="181.8278"/><rect fill="#1B1B1A" height="31.3883" rx="8.3333" ry="8.3333" style="stroke:#1B1B1A;stroke-width:1.0416666666666667;" width="157.2917" x="538.0208" y="181.8278"/><rect fill="#1B1B1A" height="8.3333" style="stroke:#1B1B1A;stroke-width:1.0416666666666667;" width="157.2917" x="538.0208" y="204.8828"/><rect codeLine="14" fill="none" height="48.055" id="NiceUrlApplication" rx="8.3333" ry="8.3333" style="stroke:#5E5E5E;stroke-width:1.0416666666666667;" width="157.2917" x="538.0208" y="181.8278"/><ellipse cx="552.6042" cy="197.522" fill="#0066CF" rx="10.4167" ry="10.4167" style="stroke:#0086EF;stroke-width:1.0416666666666667;"/><path d="M554.5146,201.947 Q554.0873,202.1667 553.6174,202.2766 Q553.1474,202.3865 552.6286,202.3865 Q550.7853,202.3865 549.8149,201.1719 Q548.8444,199.9573 548.8444,197.6624 Q548.8444,195.3613 549.8149,194.1467 Q550.7853,192.9321 552.6286,192.9321 Q553.1474,192.9321 553.6235,193.042 Q554.0995,193.1519 554.5146,193.3716 L554.5146,195.3735 Q554.0507,194.9463 553.6143,194.7479 Q553.1779,194.5496 552.714,194.5496 Q551.7253,194.5496 551.2217,195.3339 Q550.7182,196.1182 550.7182,197.6624 Q550.7182,199.2004 551.2217,199.9847 Q551.7253,200.769 552.714,200.769 Q553.1779,200.769 553.6143,200.5707 Q554.0507,200.3723 554.5146,199.9451 Z " fill="#000000"/><text fill="#D8BC00" font-family="Open Sans,Avenir,Nunito,Arial,Helvetica,SansSerif" font-size="12.5" font-weight="bold" lengthAdjust="spacing" textLength="119.7917" x="569.2708" y="202.2461">NiceUrlApplication</text><line style="stroke:#5E5E5E;stroke-width:1.0416666666666667;" x1="539.0625" x2="694.2708" y1="213.2161" y2="213.2161"/><line style="stroke:#5E5E5E;stroke-width:1.0416666666666667;" x1="539.0625" x2="694.2708" y1="221.5495" y2="221.5495"/><!--MD5=[06b688d0b738e4cac92d287870990ff7]
class Page1--><rect codeLine="19" fill="#282828" height="83.3781" id="Page1" rx="8.3333" ry="8.3333" style="stroke:#5E5E5E;stroke-width:1.0416666666666667;" width="162.5" x="139.5833" y="164.1195"/><rect fill="#1B1B1A" height="31.3883" rx="8.3333" ry="8.3333" style="stroke:#1B1B1A;stroke-width:1.0416666666666667;" width="162.5" x="139.5833" y="164.1195"/><rect fill="#1B1B1A" height="8.3333" style="stroke:#1B1B1A;stroke-width:1.0416666666666667;" width="162.5" x="139.5833" y="187.1745"/><rect codeLine="19" fill="none" height="83.3781" id="Page1" rx="8.3333" ry="8.3333" style="stroke:#5E5E5E;stroke-width:1.0416666666666667;" width="162.5" x="139.5833" y="164.1195"/><ellipse cx="194.2708" cy="179.8136" fill="#0066CF" rx="10.4167" ry="10.4167" style="stroke:#0086EF;stroke-width:1.0416666666666667;"/><path d="M196.1812,184.2387 Q195.754,184.4584 195.284,184.5683 Q194.814,184.6781 194.2952,184.6781 Q192.452,184.6781 191.4815,183.4635 Q190.5111,182.2489 190.5111,179.954 Q190.5111,177.653 191.4815,176.4384 Q192.452,175.2238 194.2952,175.2238 Q194.814,175.2238 195.2901,175.3337 Q195.7662,175.4435 196.1812,175.6632 L196.1812,177.6652 Q195.7174,177.238 195.281,177.0396 Q194.8446,176.8412 194.3807,176.8412 Q193.3919,176.8412 192.8884,177.6255 Q192.3848,178.4098 192.3848,179.954 Q192.3848,181.4921 192.8884,182.2764 Q193.3919,183.0607 194.3807,183.0607 Q194.8446,183.0607 195.281,182.8623 Q195.7174,182.664 196.1812,182.2367 Z " fill="#000000"/><text fill="#D8BC00" font-family="Open Sans,Avenir,Nunito,Arial,Helvetica,SansSerif" font-size="12.5" font-weight="bold" lengthAdjust="spacing" textLength="38.5417" x="217.1875" y="184.5378">Page1</text><line style="stroke:#5E5E5E;stroke-width:1.5625;" x1="140.625" x2="301.0417" y1="195.5078" y2="195.5078"/><ellipse cx="151.0417" cy="230.8777" fill="#84BE84" rx="3.125" ry="3.125" style="stroke:#038048;stroke-width:1.0416666666666667;"/><text fill="#D8BC00" font-family="Open Sans,Avenir,Nunito,Arial,Helvetica,SansSerif" font-size="11.4583" lengthAdjust="spacing" textLength="130.2083" x="162.5" y="237.7889">Page1(PageParameters)</text><line style="stroke:#5E5E5E;stroke-width:1.0416666666666667;" x1="140.625" x2="177.0833" y1="213.7136" y2="213.7136"/><text fill="#D8BC00" font-family="Open Sans,Avenir,Nunito,Arial,Helvetica,SansSerif" font-size="11.4583" lengthAdjust="spacing" textLength="81.25" x="180.2083" y="217.5232">(constructors)</text><line style="stroke:#5E5E5E;stroke-width:1.0416666666666667;" x1="264.5833" x2="301.0417" y1="213.7136" y2="213.7136"/><!--MD5=[60836b88cd0974e36522c374daade8cb]
class Page2--><rect codeLine="26" fill="#282828" height="83.3781" id="Page2" rx="8.3333" ry="8.3333" style="stroke:#5E5E5E;stroke-width:1.0416666666666667;" width="162.5" x="338.5417" y="164.1195"/><rect fill="#1B1B1A" height="31.3883" rx="8.3333" ry="8.3333" style="stroke:#1B1B1A;stroke-width:1.0416666666666667;" width="162.5" x="338.5417" y="164.1195"/><rect fill="#1B1B1A" height="8.3333" style="stroke:#1B1B1A;stroke-width:1.0416666666666667;" width="162.5" x="338.5417" y="187.1745"/><rect codeLine="26" fill="none" height="83.3781" id="Page2" rx="8.3333" ry="8.3333" style="stroke:#5E5E5E;stroke-width:1.0416666666666667;" width="162.5" x="338.5417" y="164.1195"/><ellipse cx="393.2292" cy="179.8136" fill="#0066CF" rx="10.4167" ry="10.4167" style="stroke:#0086EF;stroke-width:1.0416666666666667;"/><path d="M395.1396,184.2387 Q394.7123,184.4584 394.2424,184.5683 Q393.7724,184.6781 393.2536,184.6781 Q391.4103,184.6781 390.4399,183.4635 Q389.4694,182.2489 389.4694,179.954 Q389.4694,177.653 390.4399,176.4384 Q391.4103,175.2238 393.2536,175.2238 Q393.7724,175.2238 394.2485,175.3337 Q394.7245,175.4435 395.1396,175.6632 L395.1396,177.6652 Q394.6757,177.238 394.2393,177.0396 Q393.8029,176.8412 393.339,176.8412 Q392.3503,176.8412 391.8467,177.6255 Q391.3432,178.4098 391.3432,179.954 Q391.3432,181.4921 391.8467,182.2764 Q392.3503,183.0607 393.339,183.0607 Q393.8029,183.0607 394.2393,182.8623 Q394.6757,182.664 395.1396,182.2367 Z " fill="#000000"/><text fill="#D8BC00" font-family="Open Sans,Avenir,Nunito,Arial,Helvetica,SansSerif" font-size="12.5" font-weight="bold" lengthAdjust="spacing" textLength="38.5417" x="416.1458" y="184.5378">Page2</text><line style="stroke:#5E5E5E;stroke-width:1.5625;" x1="339.5833" x2="500" y1="195.5078" y2="195.5078"/><ellipse cx="350" cy="230.8777" fill="#84BE84" rx="3.125" ry="3.125" style="stroke:#038048;stroke-width:1.0416666666666667;"/><text fill="#D8BC00" font-family="Open Sans,Avenir,Nunito,Arial,Helvetica,SansSerif" font-size="11.4583" lengthAdjust="spacing" textLength="130.2083" x="361.4583" y="237.7889">Page2(PageParameters)</text><line style="stroke:#5E5E5E;stroke-width:1.0416666666666667;" x1="339.5833" x2="376.0417" y1="213.7136" y2="213.7136"/><text fill="#D8BC00" font-family="Open Sans,Avenir,Nunito,Arial,Helvetica,SansSerif" font-size="11.4583" lengthAdjust="spacing" textLength="81.25" x="379.1667" y="217.5232">(constructors)</text><line style="stroke:#5E5E5E;stroke-width:1.0416666666666667;" x1="463.5417" x2="500" y1="213.7136" y2="213.7136"/><!--MD5=[1c674b59bf3bd330fe745eb7f2eca5ca]
class Page2PP--><rect codeLine="33" fill="#282828" height="83.3781" id="Page2PP" rx="8.3333" ry="8.3333" style="stroke:#5E5E5E;stroke-width:1.0416666666666667;" width="175" x="226.0417" y="309.9528"/><rect fill="#1B1B1A" height="31.3883" rx="8.3333" ry="8.3333" style="stroke:#1B1B1A;stroke-width:1.0416666666666667;" width="175" x="226.0417" y="309.9528"/><rect fill="#1B1B1A" height="8.3333" style="stroke:#1B1B1A;stroke-width:1.0416666666666667;" width="175" x="226.0417" y="333.0078"/><rect codeLine="33" fill="none" height="83.3781" id="Page2PP" rx="8.3333" ry="8.3333" style="stroke:#5E5E5E;stroke-width:1.0416666666666667;" width="175" x="226.0417" y="309.9528"/><ellipse cx="279.6875" cy="325.647" fill="#0066CF" rx="10.4167" ry="10.4167" style="stroke:#0086EF;stroke-width:1.0416666666666667;"/><path d="M281.5979,330.072 Q281.1707,330.2917 280.7007,330.4016 Q280.2307,330.5115 279.7119,330.5115 Q277.8687,330.5115 276.8982,329.2969 Q275.9277,328.0823 275.9277,325.7874 Q275.9277,323.4863 276.8982,322.2717 Q277.8687,321.0571 279.7119,321.0571 Q280.2307,321.0571 280.7068,321.167 Q281.1829,321.2769 281.5979,321.4966 L281.5979,323.4985 Q281.134,323.0713 280.6976,322.8729 Q280.2612,322.6746 279.7974,322.6746 Q278.8086,322.6746 278.3051,323.4589 Q277.8015,324.2432 277.8015,325.7874 Q277.8015,327.3254 278.3051,328.1097 Q278.8086,328.894 279.7974,328.894 Q280.2612,328.894 280.6976,328.6957 Q281.134,328.4973 281.5979,328.0701 Z " fill="#000000"/><text fill="#D8BC00" font-family="Open Sans,Avenir,Nunito,Arial,Helvetica,SansSerif" font-size="12.5" font-weight="bold" lengthAdjust="spacing" textLength="53.125" x="302.6042" y="330.3711">Page2PP</text><line style="stroke:#5E5E5E;stroke-width:1.5625;" x1="227.0833" x2="400" y1="341.3411" y2="341.3411"/><ellipse cx="237.5" cy="376.711" fill="#84BE84" rx="3.125" ry="3.125" style="stroke:#038048;stroke-width:1.0416666666666667;"/><text fill="#D8BC00" font-family="Open Sans,Avenir,Nunito,Arial,Helvetica,SansSerif" font-size="11.4583" lengthAdjust="spacing" textLength="142.7083" x="248.9583" y="383.6222">Page2PP(PageParameters)</text><line style="stroke:#5E5E5E;stroke-width:1.0416666666666667;" x1="227.0833" x2="269.7917" y1="359.5469" y2="359.5469"/><text fill="#D8BC00" font-family="Open Sans,Avenir,Nunito,Arial,Helvetica,SansSerif" font-size="11.4583" lengthAdjust="spacing" textLength="81.25" x="272.9167" y="363.3565">(constructors)</text><line style="stroke:#5E5E5E;stroke-width:1.0416666666666667;" x1="357.2917" x2="400" y1="359.5469" y2="359.5469"/><!--MD5=[27e0b92c884aca189babce7026fe76a5]
class Page2UP--><rect codeLine="40" fill="#282828" height="83.3781" id="Page2UP" rx="8.3333" ry="8.3333" style="stroke:#5E5E5E;stroke-width:1.0416666666666667;" width="177.0833" x="437.5" y="309.9528"/><rect fill="#1B1B1A" height="31.3883" rx="8.3333" ry="8.3333" style="stroke:#1B1B1A;stroke-width:1.0416666666666667;" width="177.0833" x="437.5" y="309.9528"/><rect fill="#1B1B1A" height="8.3333" style="stroke:#1B1B1A;stroke-width:1.0416666666666667;" width="177.0833" x="437.5" y="333.0078"/><rect codeLine="40" fill="none" height="83.3781" id="Page2UP" rx="8.3333" ry="8.3333" style="stroke:#5E5E5E;stroke-width:1.0416666666666667;" width="177.0833" x="437.5" y="309.9528"/><ellipse cx="491.1458" cy="325.647" fill="#0066CF" rx="10.4167" ry="10.4167" style="stroke:#0086EF;stroke-width:1.0416666666666667;"/><path d="M493.0562,330.072 Q492.629,330.2917 492.159,330.4016 Q491.689,330.5115 491.1702,330.5115 Q489.327,330.5115 488.3565,329.2969 Q487.3861,328.0823 487.3861,325.7874 Q487.3861,323.4863 488.3565,322.2717 Q489.327,321.0571 491.1702,321.0571 Q491.689,321.0571 492.1651,321.167 Q492.6412,321.2769 493.0562,321.4966 L493.0562,323.4985 Q492.5924,323.0713 492.156,322.8729 Q491.7196,322.6746 491.2557,322.6746 Q490.2669,322.6746 489.7634,323.4589 Q489.2598,324.2432 489.2598,325.7874 Q489.2598,327.3254 489.7634,328.1097 Q490.2669,328.894 491.2557,328.894 Q491.7196,328.894 492.156,328.6957 Q492.5924,328.4973 493.0562,328.0701 Z " fill="#000000"/><text fill="#D8BC00" font-family="Open Sans,Avenir,Nunito,Arial,Helvetica,SansSerif" font-size="12.5" font-weight="bold" lengthAdjust="spacing" textLength="55.2083" x="514.0625" y="330.3711">Page2UP</text><line style="stroke:#5E5E5E;stroke-width:1.5625;" x1="438.5417" x2="613.5417" y1="341.3411" y2="341.3411"/><ellipse cx="448.9583" cy="376.711" fill="#84BE84" rx="3.125" ry="3.125" style="stroke:#038048;stroke-width:1.0416666666666667;"/><text fill="#D8BC00" font-family="Open Sans,Avenir,Nunito,Arial,Helvetica,SansSerif" font-size="11.4583" lengthAdjust="spacing" textLength="144.7917" x="460.4167" y="383.6222">Page2UP(PageParameters)</text><line style="stroke:#5E5E5E;stroke-width:1.0416666666666667;" x1="438.5417" x2="482.2917" y1="359.5469" y2="359.5469"/><text fill="#D8BC00" font-family="Open Sans,Avenir,Nunito,Arial,Helvetica,SansSerif" font-size="11.4583" lengthAdjust="spacing" textLength="81.25" x="485.4167" y="363.3565">(constructors)</text><line style="stroke:#5E5E5E;stroke-width:1.0416666666666667;" x1="569.7917" x2="613.5417" y1="359.5469" y2="359.5469"/><!--MD5=[b3756feba97c3508453d5d50a0aaead8]
reverse link WicketExamplePage to Home--><path codeLine="6" d="M173.8125,114.484 C151.75,131.2757 125.4792,151.2653 103.2813,168.1611 " fill="none" id="WicketExamplePage-backto-Home" style="stroke:#545454;stroke-width:1.5625;"/><polygon fill="none" points="169.4583,108.6299,190.4583,101.8174,178.2917,120.2445,169.4583,108.6299" style="stroke:#545454;stroke-width:1.5625;"/><!--MD5=[617657c8a1c63c3626d67b1d756b52b4]
reverse link WicketExampleApplication to NiceUrlApplication--><path codeLine="13" d="M616.6667,122.9528 C616.6667,142.7965 616.6667,165.3799 616.6667,181.7757 " fill="none" id="WicketExampleApplication-backto-NiceUrlApplication" style="stroke:#545454;stroke-width:1.5625;"/><polygon fill="none" points="609.375,122.6507,616.6667,101.8174,623.9583,122.6507,609.375,122.6507" style="stroke:#545454;stroke-width:1.5625;"/><!--MD5=[4aefba825eb4fe39a2bd9fc05861486b]
reverse link WicketExamplePage to Page1--><path codeLine="18" d="M220.8333,122.682 C220.8333,136.0778 220.8333,150.7445 220.8333,163.9215 " fill="none" id="WicketExamplePage-backto-Page1" style="stroke:#545454;stroke-width:1.5625;"/><polygon fill="none" points="213.5417,122.6507,220.8333,101.8174,228.125,122.6507,213.5417,122.6507" style="stroke:#545454;stroke-width:1.5625;"/><!--MD5=[dc9f7f059f44bf26a1384baaef1aa5af]
reverse link WicketExamplePage to Page2--><path codeLine="25" d="M275.2083,113.1507 C299.9688,128.8382 329.4792,147.5257 355.3542,163.9215 " fill="none" id="WicketExamplePage-backto-Page2" style="stroke:#545454;stroke-width:1.5625;"/><polygon fill="none" points="271.0208,119.1299,257.3229,101.8174,278.8229,106.807,271.0208,119.1299" style="stroke:#545454;stroke-width:1.5625;"/><!--MD5=[9da053a8e5b1c2b85554a97883be919c]
reverse link Page2 to Page2PP--><path codeLine="32" d="M376.9792,264.7445 C365.8542,279.7965 354.1042,295.6924 343.7813,309.6715 " fill="none" id="Page2-backto-Page2PP" style="stroke:#545454;stroke-width:1.5625;"/><polygon fill="none" points="371.3854,260.057,389.625,247.6403,383.1146,268.7236,371.3854,260.057" style="stroke:#545454;stroke-width:1.5625;"/><!--MD5=[d4cdd12c2e8f8a7ca1559fc313d96aa3]
reverse link Page2 to Page2UP--><path codeLine="39" d="M462.6042,264.7445 C473.7292,279.7965 485.4792,295.6924 495.8021,309.6715 " fill="none" id="Page2-backto-Page2UP" style="stroke:#545454;stroke-width:1.5625;"/><polygon fill="none" points="456.4688,268.7236,449.9583,247.6403,468.1979,260.057,456.4688,268.7236" style="stroke:#545454;stroke-width:1.5625;"/><!--MD5=[db699df5028cd8d22e5f9c09e3cd62b2]
@startuml

    !include lexakai.theme
    
    title "org.apache.wicket.examples.niceurl"
    
    WicketExamplePage <|- - Home
    class Home
    {
        - -(constructors)- -
        +Home()
    }
    
    WicketExampleApplication <|- - NiceUrlApplication
    class NiceUrlApplication
    {
    }
    
    WicketExamplePage <|- - Page1
    class Page1
    {
        - -(constructors)- -
        +Page1(PageParameters)
    }
    
    WicketExamplePage <|- - Page2
    class Page2
    {
        - -(constructors)- -
        +Page2(PageParameters)
    }
    
    Page2 <|- - Page2PP
    class Page2PP
    {
        - -(constructors)- -
        +Page2PP(PageParameters)
    }
    
    Page2 <|- - Page2UP
    class Page2UP
    {
        - -(constructors)- -
        +Page2UP(PageParameters)
    }
    
@enduml

@startuml









skinparam backgroundColor #333333






skinparam  {
    defaultFontName   "Open Sans,Avenir,Nunito,Arial,Helvetica,SansSerif"
    defaultFontSize   12
    defaultTextAlignment left
    shadowing false
    RoundCorner 10
    TitleFontSize 18
}

skinparam defaultFontName       "Open Sans,Avenir,Nunito,Arial,Helvetica,SansSerif"
skinparam defaultFontSize       12
skinparam dpi                   100
skinparam shadowing             false
skinparam roundcorner           16
skinparam ParticipantPadding    40
skinparam BoxPadding            40
skinparam Padding               3
skinparam ArrowColor            #545454
skinparam stereotype {
    CBackgroundColor #0066cf
    CBorderColor #0086ef
    ABackgroundColor #C8Ac00
    ABorderColor #D8Bc00
    IBackgroundColor #008400
    IBorderColor #239c23
    EBackgroundColor #cf6300
    EBorderColor #ef8300
    NBackgroundColor #3380b9
    NBorderColor #004d86
}
skinparam title {
	FontColor	                 #c0c0c0
 	BorderColor                  #545454
	FontSize	    	         20
	BorderRoundCorner            16
	BorderThickness 	         1
	BackgroundColor              #48494b
}


skinparam legend {
	BackgroundColor #303030
	BorderColor #404040
	FontColor #a0a0a0
}

	skinparam swimlane {
	BorderColor #5e5e5e
	BorderThickness 2
	TitleBackgroundColor  #6d6d6d-#484848
	TitleFontColor #303030
}

skinparam activity {
		FontColor #C8Ac00
	BorderColor #333333
	BackgroundColor #333333-#333333
	BarColor #00FF00
	StartColor #0060a8
	EndColor #0060a8
	DiamondBackgroundColor #6d6d6d-#3a3a3a
  	DiamondBorderColor #3a3a3a
  	DiamondFontColor #fefefe
}


skinparam participant {
		FontColor #C8Ac00
	BorderColor #333333
	BackgroundColor #333333-#333333
	ParticipantBorderThickness 2
}


skinparam actor {
		FontColor #C8Ac00
	BorderColor #333333
	BackgroundColor #333333-#333333
}


skinparam arrow {
	Thickness 1.5
	Color #545454
	FontColor #a0a0a0
    FontStyle bold
    MessageAlignment center
}



skinparam sequence {
	BorderColor #303030
	TitleFontColor #303030
	BackgroundColor #333333
	StartColor #303030
	EndColor #303030
	BoxBackgroundColor #333333
	BoxBorderColor #484848
	BoxFontColor #484848
	LifeLineBorderColor #484848
	LifeLineBorderThickness 2
	LifeLineBackgroundColor #3a3a3a
	GroupBorderColor #484848
	GroupFontColor #484848
	GroupHeaderFontColor #0060a8
	GroupBackgroundColor #484848
	GroupHeaderBackgroundColor #333333
	DividerBackgroundColor #484848
    DividerBorderColor #484848
    DividerBorderThickness 2
    DividerFontColor #D8Bc00
	ReferenceBackgroundColor #333333
	ReferenceBorderColor #484848
	ReferenceFontColor #fefefe
	ReferenceHeaderBackgroundColor #484848
}


skinparam partition {
	BorderColor #303030
	FontColor #333333
	BackgroundColor #333333
}


skinparam collections {
		FontColor #C8Ac00
	BorderColor #333333
	BackgroundColor #333333-#333333
}


skinparam control {
		FontColor #C8Ac00
	BorderColor #333333
	BackgroundColor #333333-#333333
}


skinparam entity {
		FontColor #C8Ac00
	BorderColor #333333
	BackgroundColor #333333-#333333
}


skinparam boundary {
		FontColor #C8Ac00
	BorderColor #333333
	BackgroundColor #333333-#333333
}


skinparam agent {
	BackgroundColor #ff8000
	BorderColor #ff9933
	FontColor #484848
}


skinparam note {
	BorderThickness 1
	BackgroundColor #1b1b1a
	BorderColor #5e5e5e
	FontSize 11
	FontColor #a0a0a0
}


skinparam artifact {
	BorderThickness 10
	BorderColor #5e5e5e
	BackgroundColor #1b1b1a
	FontColor #D8Bc00
}


skinparam component {
		FontColor #C8Ac00
	BorderColor #333333
	BackgroundColor #333333-#333333
}


skinparam interface {
	BackgroundColor  #008400
	BorderColor  #007F00
	FontColor #484848
}


skinparam storage {
	BackgroundColor #ff8000
  	BorderColor #cc6600
	FontColor #222222
}


skinparam node {
	BackgroundColor #333333
	BorderColor #333333
	FontColor #C8Ac00
}


skinparam cloud {
	BackgroundColor #484848-black
	BorderColor #484848
	FontColor #D8Bc00
}


skinparam database {
		FontColor #C8Ac00
	BorderColor #333333
	BackgroundColor #333333-#333333
	BackgroundColor  #333333
}


skinparam class {
		FontColor #C8Ac00
	BorderColor #333333
	BackgroundColor #333333-#333333
	HeaderBackgroundColor #1b1b1a
    BackgroundColor #282828
    BorderColor #5e5e5e
 	StereotypeFontColor #a0a0a0
    StereotypeFontStyle bold
	BorderThickness 1
	AttributeFontColor #D8Bc00
	AttributeFontSize 11
    FontColor #D8Bc00
    FontStyle bold
}


skinparam object {
		FontColor #C8Ac00
	BorderColor #333333
	BackgroundColor #333333-#333333
	StereotypeFontColor #484848
	BorderThickness 1
	AttributeFontColor #fefefe
	AttributeFontSize 11
}


skinparam usecase {
		FontColor #C8Ac00
	BorderColor #333333
	BackgroundColor #333333-#333333
	BorderThickness 2
	StereotypeFontColor #303030
}


skinparam rectangle {
		FontColor #C8Ac00
	BorderColor #333333
	BackgroundColor #333333-#333333
	BackgroundColor #333333
	BorderThickness 2
	StereotypeFontColor #303030
}


skinparam package {
		FontColor #C8Ac00
	BorderColor #333333
	BackgroundColor #333333-#333333
	BackgroundColor #333333
	BorderThickness 2
}


skinparam folder {
	BackgroundColor #6d6d6d
  	BorderColor #ff8000
	FontColor #ff8000
	BorderThickness 2
}


skinparam frame {
	BackgroundColor #6d6d6d
  	BorderColor #0060a8
	FontColor #0060a8
	BorderThickness 2
}


skinparam state {
		FontColor #C8Ac00
	BorderColor #333333
	BackgroundColor #333333-#333333
	StartColor #0060a8
	EndColor #0060a8
	AttributeFontColor #fefefe
	AttributeFontSize 11
}


skinparam queue {
		FontColor #C8Ac00
	BorderColor #333333
	BackgroundColor #333333-#333333
}


skinparam card {
	BackgroundColor #0060a8
	BorderColor #004d86
	FontColor $INFO_TEXT
}


skinparam file {
	BackgroundColor #6d6d6d-#484848
	BorderColor #0060a8
	FontColor #fefefe
}


skinparam stack {
		FontColor #C8Ac00
	BorderColor #333333
	BackgroundColor #333333-#333333
}

    
    title "org.apache.wicket.examples.niceurl"
    
    WicketExamplePage <|- - Home
    class Home
    {
        - -(constructors)- -
        +Home()
    }
    
    WicketExampleApplication <|- - NiceUrlApplication
    class NiceUrlApplication
    {
    }
    
    WicketExamplePage <|- - Page1
    class Page1
    {
        - -(constructors)- -
        +Page1(PageParameters)
    }
    
    WicketExamplePage <|- - Page2
    class Page2
    {
        - -(constructors)- -
        +Page2(PageParameters)
    }
    
    Page2 <|- - Page2PP
    class Page2PP
    {
        - -(constructors)- -
        +Page2PP(PageParameters)
    }
    
    Page2 <|- - Page2UP
    class Page2UP
    {
        - -(constructors)- -
        +Page2UP(PageParameters)
    }
    
@enduml

PlantUML version 1.2021.01(Tue Feb 02 00:55:08 MST 2021)
(GPL source distribution)
Java Runtime: Java(TM) SE Runtime Environment
JVM: Java HotSpot(TM) 64-Bit Server VM
Default Encoding: UTF-8
Language: en
Country: US
--></g></svg>