<?xml version="1.0" encoding="UTF-8" standalone="no"?><svg xmlns="http://www.w3.org/2000/svg" xmlns:xlink="http://www.w3.org/1999/xlink" contentScriptType="application/ecmascript" contentStyleType="text/css" height="282.2917px" preserveAspectRatio="none" style="width:830px;height:282px;background:#333333;" version="1.1" viewBox="0 0 830 282" width="830.2083px" zoomAndPan="magnify"><defs/><g><rect fill="#48494B" height="41.2028" rx="8.3333" ry="8.3333" style="stroke:#545454;stroke-width:1.0416666666666667;" width="384.375" x="215.625" y="2.0833"/><text fill="#C0C0C0" font-family="Open Sans,Avenir,Nunito,Arial,Helvetica,SansSerif" font-size="20.8333" lengthAdjust="spacing" textLength="361.4583" x="227.0833" y="30.5583">org.apache.wicket.examples.images</text><!--MD5=[b1ba588ec95fec2697a6a100a3b7d3ce]
cluster Home--><polygon fill="#333333" points="16.6667,146.932,66.6667,146.932,73.9583,174.1536,315.625,174.1536,315.625,268.807,16.6667,268.807,16.6667,146.932" style="stroke:#333333;stroke-width:2.0833333333333335;"/><line style="stroke:#333333;stroke-width:2.0833333333333335;" x1="16.6667" x2="73.9583" y1="174.1536" y2="174.1536"/><text fill="#C8AC00" font-family="Open Sans,Avenir,Nunito,Arial,Helvetica,SansSerif" font-size="12.5" font-weight="bold" lengthAdjust="spacing" textLength="37.5" x="23.9583" y="164.2253">Home</text><!--MD5=[896d8dc94d45c26b0a010b034c942823]
class Home.CircleDynamicImageResource--><rect codeLine="7" fill="#282828" height="48.055" id="Home.CircleDynamicImageResource" rx="8.3333" ry="8.3333" style="stroke:#5E5E5E;stroke-width:1.0416666666666667;" width="228.125" x="61.9792" y="195.8903"/><rect fill="#1B1B1A" height="31.3883" rx="8.3333" ry="8.3333" style="stroke:#1B1B1A;stroke-width:1.0416666666666667;" width="228.125" x="61.9792" y="195.8903"/><rect fill="#1B1B1A" height="8.3333" style="stroke:#1B1B1A;stroke-width:1.0416666666666667;" width="228.125" x="61.9792" y="218.9453"/><rect codeLine="7" fill="none" height="48.055" id="Home.CircleDynamicImageResource" rx="8.3333" ry="8.3333" style="stroke:#5E5E5E;stroke-width:1.0416666666666667;" width="228.125" x="61.9792" y="195.8903"/><ellipse cx="76.5625" cy="211.5845" fill="#0066CF" rx="10.4167" ry="10.4167" style="stroke:#0086EF;stroke-width:1.0416666666666667;"/><path d="M78.4729,216.0095 Q78.0457,216.2292 77.5757,216.3391 Q77.1057,216.449 76.5869,216.449 Q74.7437,216.449 73.7732,215.2344 Q72.8027,214.0198 72.8027,211.7249 Q72.8027,209.4238 73.7732,208.2092 Q74.7437,206.9946 76.5869,206.9946 Q77.1057,206.9946 77.5818,207.1045 Q78.0579,207.2144 78.4729,207.4341 L78.4729,209.436 Q78.009,209.0088 77.5726,208.8104 Q77.1362,208.6121 76.6724,208.6121 Q75.6836,208.6121 75.1801,209.3964 Q74.6765,210.1807 74.6765,211.7249 Q74.6765,213.2629 75.1801,214.0472 Q75.6836,214.8315 76.6724,214.8315 Q77.1362,214.8315 77.5726,214.6332 Q78.009,214.4348 78.4729,214.0076 Z " fill="#000000"/><text fill="#D8BC00" font-family="Open Sans,Avenir,Nunito,Arial,Helvetica,SansSerif" font-size="12.5" font-weight="bold" lengthAdjust="spacing" textLength="190.625" x="93.2292" y="216.3086">CircleDynamicImageResource</text><line style="stroke:#5E5E5E;stroke-width:1.0416666666666667;" x1="63.0208" x2="289.0625" y1="227.2786" y2="227.2786"/><line style="stroke:#5E5E5E;stroke-width:1.0416666666666667;" x1="63.0208" x2="289.0625" y1="235.612" y2="235.612"/><!--MD5=[810041dfb08c140cf0fe1ab860f83123]
class RenderedDynamicImageResource--><rect fill="#282828" height="48.055" id="RenderedDynamicImageResource" rx="8.3333" ry="8.3333" style="stroke:#5E5E5E;stroke-width:1.0416666666666667;" width="252.0833" x="50" y="53.7028"/><rect fill="#1B1B1A" height="31.3883" rx="8.3333" ry="8.3333" style="stroke:#1B1B1A;stroke-width:1.0416666666666667;" width="252.0833" x="50" y="53.7028"/><rect fill="#1B1B1A" height="8.3333" style="stroke:#1B1B1A;stroke-width:1.0416666666666667;" width="252.0833" x="50" y="76.7578"/><rect fill="none" height="48.055" id="RenderedDynamicImageResource" rx="8.3333" ry="8.3333" style="stroke:#5E5E5E;stroke-width:1.0416666666666667;" width="252.0833" x="50" y="53.7028"/><ellipse cx="64.5833" cy="69.397" fill="#0066CF" rx="10.4167" ry="10.4167" style="stroke:#0086EF;stroke-width:1.0416666666666667;"/><path d="M66.4937,73.822 Q66.0665,74.0417 65.5965,74.1516 Q65.1265,74.2615 64.6077,74.2615 Q62.7645,74.2615 61.794,73.0469 Q60.8236,71.8323 60.8236,69.5374 Q60.8236,67.2363 61.794,66.0217 Q62.7645,64.8071 64.6077,64.8071 Q65.1265,64.8071 65.6026,64.917 Q66.0787,65.0269 66.4937,65.2466 L66.4937,67.2485 Q66.0299,66.8213 65.5935,66.6229 Q65.1571,66.4246 64.6932,66.4246 Q63.7044,66.4246 63.2009,67.2089 Q62.6973,67.9932 62.6973,69.5374 Q62.6973,71.0754 63.2009,71.8597 Q63.7044,72.644 64.6932,72.644 Q65.1571,72.644 65.5935,72.4457 Q66.0299,72.2473 66.4937,71.8201 Z " fill="#000000"/><text fill="#D8BC00" font-family="Open Sans,Avenir,Nunito,Arial,Helvetica,SansSerif" font-size="12.5" font-weight="bold" lengthAdjust="spacing" textLength="214.5833" x="81.25" y="74.1211">RenderedDynamicImageResource</text><line style="stroke:#5E5E5E;stroke-width:1.0416666666666667;" x1="51.0417" x2="301.0417" y1="85.0911" y2="85.0911"/><line style="stroke:#5E5E5E;stroke-width:1.0416666666666667;" x1="51.0417" x2="301.0417" y1="93.4245" y2="93.4245"/><!--MD5=[8de0e4c819f220f8e0c4c4df41ba59ce]
class WicketExamplePage--><rect fill="#282828" height="48.055" id="WicketExamplePage" rx="8.3333" ry="8.3333" style="stroke:#5E5E5E;stroke-width:1.0416666666666667;" width="164.5833" x="389.5833" y="53.7028"/><rect fill="#1B1B1A" height="31.3883" rx="8.3333" ry="8.3333" style="stroke:#1B1B1A;stroke-width:1.0416666666666667;" width="164.5833" x="389.5833" y="53.7028"/><rect fill="#1B1B1A" height="8.3333" style="stroke:#1B1B1A;stroke-width:1.0416666666666667;" width="164.5833" x="389.5833" y="76.7578"/><rect fill="none" height="48.055" id="WicketExamplePage" rx="8.3333" ry="8.3333" style="stroke:#5E5E5E;stroke-width:1.0416666666666667;" width="164.5833" x="389.5833" y="53.7028"/><ellipse cx="404.1667" cy="69.397" fill="#0066CF" rx="10.4167" ry="10.4167" style="stroke:#0086EF;stroke-width:1.0416666666666667;"/><path d="M406.0771,73.822 Q405.6498,74.0417 405.1799,74.1516 Q404.7099,74.2615 404.1911,74.2615 Q402.3478,74.2615 401.3774,73.0469 Q400.4069,71.8323 400.4069,69.5374 Q400.4069,67.2363 401.3774,66.0217 Q402.3478,64.8071 404.1911,64.8071 Q404.7099,64.8071 405.186,64.917 Q405.662,65.0269 406.0771,65.2466 L406.0771,67.2485 Q405.6132,66.8213 405.1768,66.6229 Q404.7404,66.4246 404.2765,66.4246 Q403.2878,66.4246 402.7842,67.2089 Q402.2807,67.9932 402.2807,69.5374 Q402.2807,71.0754 402.7842,71.8597 Q403.2878,72.644 404.2765,72.644 Q404.7404,72.644 405.1768,72.4457 Q405.6132,72.2473 406.0771,71.8201 Z " fill="#000000"/><text fill="#D8BC00" font-family="Open Sans,Avenir,Nunito,Arial,Helvetica,SansSerif" font-size="12.5" font-weight="bold" lengthAdjust="spacing" textLength="127.0833" x="420.8333" y="74.1211">WicketExamplePage</text><line style="stroke:#5E5E5E;stroke-width:1.0416666666666667;" x1="390.625" x2="553.125" y1="85.0911" y2="85.0911"/><line style="stroke:#5E5E5E;stroke-width:1.0416666666666667;" x1="390.625" x2="553.125" y1="93.4245" y2="93.4245"/><!--MD5=[85bae912d113bb0b86a623a745020199]
class Home--><rect codeLine="12" fill="#282828" height="111.4563" id="Home" rx="8.3333" ry="8.3333" style="stroke:#5E5E5E;stroke-width:1.0416666666666667;" width="261.4583" x="341.1458" y="164.1195"/><rect fill="#1B1B1A" height="31.3883" rx="8.3333" ry="8.3333" style="stroke:#1B1B1A;stroke-width:1.0416666666666667;" width="261.4583" x="341.1458" y="164.1195"/><rect fill="#1B1B1A" height="8.3333" style="stroke:#1B1B1A;stroke-width:1.0416666666666667;" width="261.4583" x="341.1458" y="187.1745"/><rect codeLine="12" fill="none" height="111.4563" id="Home" rx="8.3333" ry="8.3333" style="stroke:#5E5E5E;stroke-width:1.0416666666666667;" width="261.4583" x="341.1458" y="164.1195"/><ellipse cx="445.8333" cy="179.8136" fill="#0066CF" rx="10.4167" ry="10.4167" style="stroke:#0086EF;stroke-width:1.0416666666666667;"/><path d="M447.7437,184.2387 Q447.3165,184.4584 446.8465,184.5683 Q446.3765,184.6781 445.8577,184.6781 Q444.0145,184.6781 443.044,183.4635 Q442.0736,182.2489 442.0736,179.954 Q442.0736,177.653 443.044,176.4384 Q444.0145,175.2238 445.8577,175.2238 Q446.3765,175.2238 446.8526,175.3337 Q447.3287,175.4435 447.7437,175.6632 L447.7437,177.6652 Q447.2799,177.238 446.8435,177.0396 Q446.4071,176.8412 445.9432,176.8412 Q444.9544,176.8412 444.4509,177.6255 Q443.9473,178.4098 443.9473,179.954 Q443.9473,181.4921 444.4509,182.2764 Q444.9544,183.0607 445.9432,183.0607 Q446.4071,183.0607 446.8435,182.8623 Q447.2799,182.664 447.7437,182.2367 Z " fill="#000000"/><text fill="#D8BC00" font-family="Open Sans,Avenir,Nunito,Arial,Helvetica,SansSerif" font-size="12.5" font-weight="bold" lengthAdjust="spacing" textLength="37.5" x="468.75" y="184.5378">Home</text><line style="stroke:#5E5E5E;stroke-width:1.5625;" x1="342.1875" x2="601.5625" y1="195.5078" y2="195.5078"/><ellipse cx="352.6042" cy="230.8777" fill="#84BE84" rx="3.125" ry="3.125" style="stroke:#038048;stroke-width:1.0416666666666667;"/><text fill="#D8BC00" font-family="Open Sans,Avenir,Nunito,Arial,Helvetica,SansSerif" font-size="11.4583" lengthAdjust="spacing" textLength="40.625" x="364.0625" y="237.7889">Home()</text><line style="stroke:#5E5E5E;stroke-width:1.0416666666666667;" x1="342.1875" x2="428.125" y1="213.7136" y2="213.7136"/><text fill="#D8BC00" font-family="Open Sans,Avenir,Nunito,Arial,Helvetica,SansSerif" font-size="11.4583" lengthAdjust="spacing" textLength="81.25" x="431.25" y="217.5232">(constructors)</text><line style="stroke:#5E5E5E;stroke-width:1.0416666666666667;" x1="515.625" x2="601.5625" y1="213.7136" y2="213.7136"/><line style="stroke:#5E5E5E;stroke-width:1.0416666666666667;" x1="342.1875" x2="601.5625" y1="247.4976" y2="247.4976"/><ellipse cx="352.6042" cy="258.9559" fill="#84BE84" rx="3.125" ry="3.125" style="stroke:#038048;stroke-width:1.0416666666666667;"/><text fill="#D8BC00" font-family="Open Sans,Avenir,Nunito,Arial,Helvetica,SansSerif" font-size="11.4583" lengthAdjust="spacing" textLength="229.1667" x="364.0625" y="265.8671">ResourceReference getImage5Resource()</text><!--MD5=[818b680dd029f5404dc253254408b9c3]
class WicketExampleApplication--><rect fill="#282828" height="48.055" id="WicketExampleApplication" rx="8.3333" ry="8.3333" style="stroke:#5E5E5E;stroke-width:1.0416666666666667;" width="208.3333" x="614.5833" y="53.7028"/><rect fill="#1B1B1A" height="31.3883" rx="8.3333" ry="8.3333" style="stroke:#1B1B1A;stroke-width:1.0416666666666667;" width="208.3333" x="614.5833" y="53.7028"/><rect fill="#1B1B1A" height="8.3333" style="stroke:#1B1B1A;stroke-width:1.0416666666666667;" width="208.3333" x="614.5833" y="76.7578"/><rect fill="none" height="48.055" id="WicketExampleApplication" rx="8.3333" ry="8.3333" style="stroke:#5E5E5E;stroke-width:1.0416666666666667;" width="208.3333" x="614.5833" y="53.7028"/><ellipse cx="629.1667" cy="69.397" fill="#0066CF" rx="10.4167" ry="10.4167" style="stroke:#0086EF;stroke-width:1.0416666666666667;"/><path d="M631.0771,73.822 Q630.6498,74.0417 630.1799,74.1516 Q629.7099,74.2615 629.1911,74.2615 Q627.3478,74.2615 626.3774,73.0469 Q625.4069,71.8323 625.4069,69.5374 Q625.4069,67.2363 626.3774,66.0217 Q627.3478,64.8071 629.1911,64.8071 Q629.7099,64.8071 630.186,64.917 Q630.662,65.0269 631.0771,65.2466 L631.0771,67.2485 Q630.6132,66.8213 630.1768,66.6229 Q629.7404,66.4246 629.2765,66.4246 Q628.2878,66.4246 627.7842,67.2089 Q627.2807,67.9932 627.2807,69.5374 Q627.2807,71.0754 627.7842,71.8597 Q628.2878,72.644 629.2765,72.644 Q629.7404,72.644 630.1768,72.4457 Q630.6132,72.2473 631.0771,71.8201 Z " fill="#000000"/><text fill="#D8BC00" font-family="Open Sans,Avenir,Nunito,Arial,Helvetica,SansSerif" font-size="12.5" font-weight="bold" lengthAdjust="spacing" textLength="170.8333" x="645.8333" y="74.1211">WicketExampleApplication</text><line style="stroke:#5E5E5E;stroke-width:1.0416666666666667;" x1="615.625" x2="821.875" y1="85.0911" y2="85.0911"/><line style="stroke:#5E5E5E;stroke-width:1.0416666666666667;" x1="615.625" x2="821.875" y1="93.4245" y2="93.4245"/><!--MD5=[8ebd8d1797502ae93722c53e7ba4b953]
class ImagesApplication--><rect codeLine="21" fill="#282828" height="48.055" id="ImagesApplication" rx="8.3333" ry="8.3333" style="stroke:#5E5E5E;stroke-width:1.0416666666666667;" width="158.3333" x="639.5833" y="195.8903"/><rect fill="#1B1B1A" height="31.3883" rx="8.3333" ry="8.3333" style="stroke:#1B1B1A;stroke-width:1.0416666666666667;" width="158.3333" x="639.5833" y="195.8903"/><rect fill="#1B1B1A" height="8.3333" style="stroke:#1B1B1A;stroke-width:1.0416666666666667;" width="158.3333" x="639.5833" y="218.9453"/><rect codeLine="21" fill="none" height="48.055" id="ImagesApplication" rx="8.3333" ry="8.3333" style="stroke:#5E5E5E;stroke-width:1.0416666666666667;" width="158.3333" x="639.5833" y="195.8903"/><ellipse cx="654.1667" cy="211.5845" fill="#0066CF" rx="10.4167" ry="10.4167" style="stroke:#0086EF;stroke-width:1.0416666666666667;"/><path d="M656.0771,216.0095 Q655.6498,216.2292 655.1799,216.3391 Q654.7099,216.449 654.1911,216.449 Q652.3478,216.449 651.3774,215.2344 Q650.4069,214.0198 650.4069,211.7249 Q650.4069,209.4238 651.3774,208.2092 Q652.3478,206.9946 654.1911,206.9946 Q654.7099,206.9946 655.186,207.1045 Q655.662,207.2144 656.0771,207.4341 L656.0771,209.436 Q655.6132,209.0088 655.1768,208.8104 Q654.7404,208.6121 654.2765,208.6121 Q653.2878,208.6121 652.7842,209.3964 Q652.2807,210.1807 652.2807,211.7249 Q652.2807,213.2629 652.7842,214.0472 Q653.2878,214.8315 654.2765,214.8315 Q654.7404,214.8315 655.1768,214.6332 Q655.6132,214.4348 656.0771,214.0076 Z " fill="#000000"/><text fill="#D8BC00" font-family="Open Sans,Avenir,Nunito,Arial,Helvetica,SansSerif" font-size="12.5" font-weight="bold" lengthAdjust="spacing" textLength="120.8333" x="670.8333" y="216.3086">ImagesApplication</text><line style="stroke:#5E5E5E;stroke-width:1.0416666666666667;" x1="640.625" x2="796.875" y1="227.2786" y2="227.2786"/><line style="stroke:#5E5E5E;stroke-width:1.0416666666666667;" x1="640.625" x2="796.875" y1="235.612" y2="235.612"/><!--MD5=[30b0ea9b5acc00b4f75d7b713dbd7153]
reverse link RenderedDynamicImageResource to Home.CircleDynamicImageResource--><path codeLine="6" d="M176.0417,122.6715 C176.0417,146.8486 176.0417,175.8486 176.0417,195.6403 " fill="none" id="RenderedDynamicImageResource-backto-Home.CircleDynamicImageResource" style="stroke:#545454;stroke-width:1.5625;"/><polygon fill="none" points="168.75,122.6715,176.0417,101.8382,183.3333,122.6715,168.75,122.6715" style="stroke:#545454;stroke-width:1.5625;"/><!--MD5=[b3756feba97c3508453d5d50a0aaead8]
reverse link WicketExamplePage to Home--><path codeLine="11" d="M471.875,122.7028 C471.875,135.7549 471.875,150.2028 471.875,163.859 " fill="none" id="WicketExamplePage-backto-Home" style="stroke:#545454;stroke-width:1.5625;"/><polygon fill="none" points="464.5833,122.6715,471.875,101.8382,479.1667,122.6715,464.5833,122.6715" style="stroke:#545454;stroke-width:1.5625;"/><!--MD5=[76842d3bcdb76b9459da0a315c14d2d6]
reverse link WicketExampleApplication to ImagesApplication--><path codeLine="20" d="M718.75,122.6715 C718.75,146.8486 718.75,175.8486 718.75,195.6403 " fill="none" id="WicketExampleApplication-backto-ImagesApplication" style="stroke:#545454;stroke-width:1.5625;"/><polygon fill="none" points="711.4583,122.6715,718.75,101.8382,726.0417,122.6715,711.4583,122.6715" style="stroke:#545454;stroke-width:1.5625;"/><!--MD5=[d6555634c8846d1b78ecd9fa676ded61]
@startuml

    !include lexakai.theme
    
    title "org.apache.wicket.examples.images"
    
    RenderedDynamicImageResource <|- - Home.CircleDynamicImageResource
    class Home.CircleDynamicImageResource
    {
    }
    
    WicketExamplePage <|- - Home
    class Home
    {
        - -(constructors)- -
        +Home()
        - -
        +ResourceReference getImage5Resource()
    }
    
    WicketExampleApplication <|- - ImagesApplication
    class ImagesApplication
    {
    }
    
@enduml

@startuml









skinparam backgroundColor #333333






skinparam  {
    defaultFontName   "Open Sans,Avenir,Nunito,Arial,Helvetica,SansSerif"
    defaultFontSize   12
    defaultTextAlignment left
    shadowing false
    RoundCorner 10
    TitleFontSize 18
}

skinparam defaultFontName       "Open Sans,Avenir,Nunito,Arial,Helvetica,SansSerif"
skinparam defaultFontSize       12
skinparam dpi                   100
skinparam shadowing             false
skinparam roundcorner           16
skinparam ParticipantPadding    40
skinparam BoxPadding            40
skinparam Padding               3
skinparam ArrowColor            #545454
skinparam stereotype {
    CBackgroundColor #0066cf
    CBorderColor #0086ef
    ABackgroundColor #C8Ac00
    ABorderColor #D8Bc00
    IBackgroundColor #008400
    IBorderColor #239c23
    EBackgroundColor #cf6300
    EBorderColor #ef8300
    NBackgroundColor #3380b9
    NBorderColor #004d86
}
skinparam title {
	FontColor	                 #c0c0c0
 	BorderColor                  #545454
	FontSize	    	         20
	BorderRoundCorner            16
	BorderThickness 	         1
	BackgroundColor              #48494b
}


skinparam legend {
	BackgroundColor #303030
	BorderColor #404040
	FontColor #a0a0a0
}

	skinparam swimlane {
	BorderColor #5e5e5e
	BorderThickness 2
	TitleBackgroundColor  #6d6d6d-#484848
	TitleFontColor #303030
}

skinparam activity {
		FontColor #C8Ac00
	BorderColor #333333
	BackgroundColor #333333-#333333
	BarColor #00FF00
	StartColor #0060a8
	EndColor #0060a8
	DiamondBackgroundColor #6d6d6d-#3a3a3a
  	DiamondBorderColor #3a3a3a
  	DiamondFontColor #fefefe
}


skinparam participant {
		FontColor #C8Ac00
	BorderColor #333333
	BackgroundColor #333333-#333333
	ParticipantBorderThickness 2
}


skinparam actor {
		FontColor #C8Ac00
	BorderColor #333333
	BackgroundColor #333333-#333333
}


skinparam arrow {
	Thickness 1.5
	Color #545454
	FontColor #a0a0a0
    FontStyle bold
    MessageAlignment center
}



skinparam sequence {
	BorderColor #303030
	TitleFontColor #303030
	BackgroundColor #333333
	StartColor #303030
	EndColor #303030
	BoxBackgroundColor #333333
	BoxBorderColor #484848
	BoxFontColor #484848
	LifeLineBorderColor #484848
	LifeLineBorderThickness 2
	LifeLineBackgroundColor #3a3a3a
	GroupBorderColor #484848
	GroupFontColor #484848
	GroupHeaderFontColor #0060a8
	GroupBackgroundColor #484848
	GroupHeaderBackgroundColor #333333
	DividerBackgroundColor #484848
    DividerBorderColor #484848
    DividerBorderThickness 2
    DividerFontColor #D8Bc00
	ReferenceBackgroundColor #333333
	ReferenceBorderColor #484848
	ReferenceFontColor #fefefe
	ReferenceHeaderBackgroundColor #484848
}


skinparam partition {
	BorderColor #303030
	FontColor #333333
	BackgroundColor #333333
}


skinparam collections {
		FontColor #C8Ac00
	BorderColor #333333
	BackgroundColor #333333-#333333
}


skinparam control {
		FontColor #C8Ac00
	BorderColor #333333
	BackgroundColor #333333-#333333
}


skinparam entity {
		FontColor #C8Ac00
	BorderColor #333333
	BackgroundColor #333333-#333333
}


skinparam boundary {
		FontColor #C8Ac00
	BorderColor #333333
	BackgroundColor #333333-#333333
}


skinparam agent {
	BackgroundColor #ff8000
	BorderColor #ff9933
	FontColor #484848
}


skinparam note {
	BorderThickness 1
	BackgroundColor #1b1b1a
	BorderColor #5e5e5e
	FontSize 11
	FontColor #a0a0a0
}


skinparam artifact {
	BorderThickness 10
	BorderColor #5e5e5e
	BackgroundColor #1b1b1a
	FontColor #D8Bc00
}


skinparam component {
		FontColor #C8Ac00
	BorderColor #333333
	BackgroundColor #333333-#333333
}


skinparam interface {
	BackgroundColor  #008400
	BorderColor  #007F00
	FontColor #484848
}


skinparam storage {
	BackgroundColor #ff8000
  	BorderColor #cc6600
	FontColor #222222
}


skinparam node {
	BackgroundColor #333333
	BorderColor #333333
	FontColor #C8Ac00
}


skinparam cloud {
	BackgroundColor #484848-black
	BorderColor #484848
	FontColor #D8Bc00
}


skinparam database {
		FontColor #C8Ac00
	BorderColor #333333
	BackgroundColor #333333-#333333
	BackgroundColor  #333333
}


skinparam class {
		FontColor #C8Ac00
	BorderColor #333333
	BackgroundColor #333333-#333333
	HeaderBackgroundColor #1b1b1a
    BackgroundColor #282828
    BorderColor #5e5e5e
 	StereotypeFontColor #a0a0a0
    StereotypeFontStyle bold
	BorderThickness 1
	AttributeFontColor #D8Bc00
	AttributeFontSize 11
    FontColor #D8Bc00
    FontStyle bold
}


skinparam object {
		FontColor #C8Ac00
	BorderColor #333333
	BackgroundColor #333333-#333333
	StereotypeFontColor #484848
	BorderThickness 1
	AttributeFontColor #fefefe
	AttributeFontSize 11
}


skinparam usecase {
		FontColor #C8Ac00
	BorderColor #333333
	BackgroundColor #333333-#333333
	BorderThickness 2
	StereotypeFontColor #303030
}


skinparam rectangle {
		FontColor #C8Ac00
	BorderColor #333333
	BackgroundColor #333333-#333333
	BackgroundColor #333333
	BorderThickness 2
	StereotypeFontColor #303030
}


skinparam package {
		FontColor #C8Ac00
	BorderColor #333333
	BackgroundColor #333333-#333333
	BackgroundColor #333333
	BorderThickness 2
}


skinparam folder {
	BackgroundColor #6d6d6d
  	BorderColor #ff8000
	FontColor #ff8000
	BorderThickness 2
}


skinparam frame {
	BackgroundColor #6d6d6d
  	BorderColor #0060a8
	FontColor #0060a8
	BorderThickness 2
}


skinparam state {
		FontColor #C8Ac00
	BorderColor #333333
	BackgroundColor #333333-#333333
	StartColor #0060a8
	EndColor #0060a8
	AttributeFontColor #fefefe
	AttributeFontSize 11
}


skinparam queue {
		FontColor #C8Ac00
	BorderColor #333333
	BackgroundColor #333333-#333333
}


skinparam card {
	BackgroundColor #0060a8
	BorderColor #004d86
	FontColor $INFO_TEXT
}


skinparam file {
	BackgroundColor #6d6d6d-#484848
	BorderColor #0060a8
	FontColor #fefefe
}


skinparam stack {
		FontColor #C8Ac00
	BorderColor #333333
	BackgroundColor #333333-#333333
}

    
    title "org.apache.wicket.examples.images"
    
    RenderedDynamicImageResource <|- - Home.CircleDynamicImageResource
    class Home.CircleDynamicImageResource
    {
    }
    
    WicketExamplePage <|- - Home
    class Home
    {
        - -(constructors)- -
        +Home()
        - -
        +ResourceReference getImage5Resource()
    }
    
    WicketExampleApplication <|- - ImagesApplication
    class ImagesApplication
    {
    }
    
@enduml

PlantUML version 1.2021.01(Tue Feb 02 00:55:08 MST 2021)
(GPL source distribution)
Java Runtime: Java(TM) SE Runtime Environment
JVM: Java HotSpot(TM) 64-Bit Server VM
Default Encoding: UTF-8
Language: en
Country: US
--></g></svg>