<?xml version="1.0" encoding="UTF-8" standalone="no"?><svg xmlns="http://www.w3.org/2000/svg" xmlns:xlink="http://www.w3.org/1999/xlink" contentScriptType="application/ecmascript" contentStyleType="text/css" height="254.1667px" preserveAspectRatio="none" style="width:556px;height:254px;background:#333333;" version="1.1" viewBox="0 0 556 254" width="556.25px" zoomAndPan="magnify"><defs/><g><rect fill="#48494B" height="41.2028" rx="8.3333" ry="8.3333" style="stroke:#545454;stroke-width:1.0416666666666667;" width="365.625" x="88.2813" y="2.0833"/><text fill="#C0C0C0" font-family="Open Sans,Avenir,Nunito,Arial,Helvetica,SansSerif" font-size="20.8333" lengthAdjust="spacing" textLength="342.7083" x="99.7396" y="30.5583">org.apache.wicket.examples.pub2</text><!--MD5=[8de0e4c819f220f8e0c4c4df41ba59ce]
class WicketExamplePage--><rect fill="#282828" height="48.055" id="WicketExamplePage" rx="8.3333" ry="8.3333" style="stroke:#5E5E5E;stroke-width:1.0416666666666667;" width="164.5833" x="7.2917" y="53.7028"/><rect fill="#1B1B1A" height="31.3883" rx="8.3333" ry="8.3333" style="stroke:#1B1B1A;stroke-width:1.0416666666666667;" width="164.5833" x="7.2917" y="53.7028"/><rect fill="#1B1B1A" height="8.3333" style="stroke:#1B1B1A;stroke-width:1.0416666666666667;" width="164.5833" x="7.2917" y="76.7578"/><rect fill="none" height="48.055" id="WicketExamplePage" rx="8.3333" ry="8.3333" style="stroke:#5E5E5E;stroke-width:1.0416666666666667;" width="164.5833" x="7.2917" y="53.7028"/><ellipse cx="21.875" cy="69.397" fill="#0066CF" rx="10.4167" ry="10.4167" style="stroke:#0086EF;stroke-width:1.0416666666666667;"/><path d="M23.7854,73.822 Q23.3582,74.0417 22.8882,74.1516 Q22.4182,74.2615 21.8994,74.2615 Q20.0562,74.2615 19.0857,73.0469 Q18.1152,71.8323 18.1152,69.5374 Q18.1152,67.2363 19.0857,66.0217 Q20.0562,64.8071 21.8994,64.8071 Q22.4182,64.8071 22.8943,64.917 Q23.3704,65.0269 23.7854,65.2466 L23.7854,67.2485 Q23.3215,66.8213 22.8851,66.6229 Q22.4487,66.4246 21.9849,66.4246 Q20.9961,66.4246 20.4926,67.2089 Q19.989,67.9932 19.989,69.5374 Q19.989,71.0754 20.4926,71.8597 Q20.9961,72.644 21.9849,72.644 Q22.4487,72.644 22.8851,72.4457 Q23.3215,72.2473 23.7854,71.8201 Z " fill="#000000"/><text fill="#D8BC00" font-family="Open Sans,Avenir,Nunito,Arial,Helvetica,SansSerif" font-size="12.5" font-weight="bold" lengthAdjust="spacing" textLength="127.0833" x="38.5417" y="74.1211">WicketExamplePage</text><line style="stroke:#5E5E5E;stroke-width:1.0416666666666667;" x1="8.3333" x2="170.8333" y1="85.0911" y2="85.0911"/><line style="stroke:#5E5E5E;stroke-width:1.0416666666666667;" x1="8.3333" x2="170.8333" y1="93.4245" y2="93.4245"/><!--MD5=[85bae912d113bb0b86a623a745020199]
class Home--><rect codeLine="7" fill="#282828" height="83.3781" id="Home" rx="8.3333" ry="8.3333" style="stroke:#5E5E5E;stroke-width:1.0416666666666667;" width="161.4583" x="8.8542" y="164.1195"/><rect fill="#1B1B1A" height="31.3883" rx="8.3333" ry="8.3333" style="stroke:#1B1B1A;stroke-width:1.0416666666666667;" width="161.4583" x="8.8542" y="164.1195"/><rect fill="#1B1B1A" height="8.3333" style="stroke:#1B1B1A;stroke-width:1.0416666666666667;" width="161.4583" x="8.8542" y="187.1745"/><rect codeLine="7" fill="none" height="83.3781" id="Home" rx="8.3333" ry="8.3333" style="stroke:#5E5E5E;stroke-width:1.0416666666666667;" width="161.4583" x="8.8542" y="164.1195"/><ellipse cx="63.5417" cy="179.8136" fill="#0066CF" rx="10.4167" ry="10.4167" style="stroke:#0086EF;stroke-width:1.0416666666666667;"/><path d="M65.4521,184.2387 Q65.0248,184.4584 64.5549,184.5683 Q64.0849,184.6781 63.5661,184.6781 Q61.7228,184.6781 60.7524,183.4635 Q59.7819,182.2489 59.7819,179.954 Q59.7819,177.653 60.7524,176.4384 Q61.7228,175.2238 63.5661,175.2238 Q64.0849,175.2238 64.561,175.3337 Q65.037,175.4435 65.4521,175.6632 L65.4521,177.6652 Q64.9882,177.238 64.5518,177.0396 Q64.1154,176.8412 63.6515,176.8412 Q62.6628,176.8412 62.1592,177.6255 Q61.6557,178.4098 61.6557,179.954 Q61.6557,181.4921 62.1592,182.2764 Q62.6628,183.0607 63.6515,183.0607 Q64.1154,183.0607 64.5518,182.8623 Q64.9882,182.664 65.4521,182.2367 Z " fill="#000000"/><text fill="#D8BC00" font-family="Open Sans,Avenir,Nunito,Arial,Helvetica,SansSerif" font-size="12.5" font-weight="bold" lengthAdjust="spacing" textLength="37.5" x="86.4583" y="184.5378">Home</text><line style="stroke:#5E5E5E;stroke-width:1.5625;" x1="9.8958" x2="169.2708" y1="195.5078" y2="195.5078"/><ellipse cx="20.3125" cy="230.8777" fill="#84BE84" rx="3.125" ry="3.125" style="stroke:#038048;stroke-width:1.0416666666666667;"/><text fill="#D8BC00" font-family="Open Sans,Avenir,Nunito,Arial,Helvetica,SansSerif" font-size="11.4583" lengthAdjust="spacing" textLength="129.1667" x="31.7708" y="237.7889">Home(PageParameters)</text><line style="stroke:#5E5E5E;stroke-width:1.0416666666666667;" x1="9.8958" x2="45.8333" y1="213.7136" y2="213.7136"/><text fill="#D8BC00" font-family="Open Sans,Avenir,Nunito,Arial,Helvetica,SansSerif" font-size="11.4583" lengthAdjust="spacing" textLength="81.25" x="48.9583" y="217.5232">(constructors)</text><line style="stroke:#5E5E5E;stroke-width:1.0416666666666667;" x1="133.3333" x2="169.2708" y1="213.7136" y2="213.7136"/><!--MD5=[818b680dd029f5404dc253254408b9c3]
class WicketExampleApplication--><rect fill="#282828" height="48.055" id="WicketExampleApplication" rx="8.3333" ry="8.3333" style="stroke:#5E5E5E;stroke-width:1.0416666666666667;" width="208.3333" x="208.3333" y="53.7028"/><rect fill="#1B1B1A" height="31.3883" rx="8.3333" ry="8.3333" style="stroke:#1B1B1A;stroke-width:1.0416666666666667;" width="208.3333" x="208.3333" y="53.7028"/><rect fill="#1B1B1A" height="8.3333" style="stroke:#1B1B1A;stroke-width:1.0416666666666667;" width="208.3333" x="208.3333" y="76.7578"/><rect fill="none" height="48.055" id="WicketExampleApplication" rx="8.3333" ry="8.3333" style="stroke:#5E5E5E;stroke-width:1.0416666666666667;" width="208.3333" x="208.3333" y="53.7028"/><ellipse cx="222.9167" cy="69.397" fill="#0066CF" rx="10.4167" ry="10.4167" style="stroke:#0086EF;stroke-width:1.0416666666666667;"/><path d="M224.8271,73.822 Q224.3998,74.0417 223.9299,74.1516 Q223.4599,74.2615 222.9411,74.2615 Q221.0978,74.2615 220.1274,73.0469 Q219.1569,71.8323 219.1569,69.5374 Q219.1569,67.2363 220.1274,66.0217 Q221.0978,64.8071 222.9411,64.8071 Q223.4599,64.8071 223.936,64.917 Q224.412,65.0269 224.8271,65.2466 L224.8271,67.2485 Q224.3632,66.8213 223.9268,66.6229 Q223.4904,66.4246 223.0265,66.4246 Q222.0378,66.4246 221.5342,67.2089 Q221.0307,67.9932 221.0307,69.5374 Q221.0307,71.0754 221.5342,71.8597 Q222.0378,72.644 223.0265,72.644 Q223.4904,72.644 223.9268,72.4457 Q224.3632,72.2473 224.8271,71.8201 Z " fill="#000000"/><text fill="#D8BC00" font-family="Open Sans,Avenir,Nunito,Arial,Helvetica,SansSerif" font-size="12.5" font-weight="bold" lengthAdjust="spacing" textLength="170.8333" x="239.5833" y="74.1211">WicketExampleApplication</text><line style="stroke:#5E5E5E;stroke-width:1.0416666666666667;" x1="209.375" x2="415.625" y1="85.0911" y2="85.0911"/><line style="stroke:#5E5E5E;stroke-width:1.0416666666666667;" x1="209.375" x2="415.625" y1="93.4245" y2="93.4245"/><!--MD5=[4ecc71d9ee910ec3ec8495d381a6d15f]
class PubApplication--><rect codeLine="14" fill="#282828" height="48.055" id="PubApplication" rx="8.3333" ry="8.3333" style="stroke:#5E5E5E;stroke-width:1.0416666666666667;" width="135.4167" x="244.7917" y="181.8278"/><rect fill="#1B1B1A" height="31.3883" rx="8.3333" ry="8.3333" style="stroke:#1B1B1A;stroke-width:1.0416666666666667;" width="135.4167" x="244.7917" y="181.8278"/><rect fill="#1B1B1A" height="8.3333" style="stroke:#1B1B1A;stroke-width:1.0416666666666667;" width="135.4167" x="244.7917" y="204.8828"/><rect codeLine="14" fill="none" height="48.055" id="PubApplication" rx="8.3333" ry="8.3333" style="stroke:#5E5E5E;stroke-width:1.0416666666666667;" width="135.4167" x="244.7917" y="181.8278"/><ellipse cx="259.375" cy="197.522" fill="#0066CF" rx="10.4167" ry="10.4167" style="stroke:#0086EF;stroke-width:1.0416666666666667;"/><path d="M261.2854,201.947 Q260.8582,202.1667 260.3882,202.2766 Q259.9182,202.3865 259.3994,202.3865 Q257.5562,202.3865 256.5857,201.1719 Q255.6152,199.9573 255.6152,197.6624 Q255.6152,195.3613 256.5857,194.1467 Q257.5562,192.9321 259.3994,192.9321 Q259.9182,192.9321 260.3943,193.042 Q260.8704,193.1519 261.2854,193.3716 L261.2854,195.3735 Q260.8215,194.9463 260.3851,194.7479 Q259.9487,194.5496 259.4849,194.5496 Q258.4961,194.5496 257.9926,195.3339 Q257.489,196.1182 257.489,197.6624 Q257.489,199.2004 257.9926,199.9847 Q258.4961,200.769 259.4849,200.769 Q259.9487,200.769 260.3851,200.5707 Q260.8215,200.3723 261.2854,199.9451 Z " fill="#000000"/><text fill="#D8BC00" font-family="Open Sans,Avenir,Nunito,Arial,Helvetica,SansSerif" font-size="12.5" font-weight="bold" lengthAdjust="spacing" textLength="97.9167" x="276.0417" y="202.2461">PubApplication</text><line style="stroke:#5E5E5E;stroke-width:1.0416666666666667;" x1="245.8333" x2="379.1667" y1="213.2161" y2="213.2161"/><line style="stroke:#5E5E5E;stroke-width:1.0416666666666667;" x1="245.8333" x2="379.1667" y1="221.5495" y2="221.5495"/><!--MD5=[d189332174d53557e6def82bbd003869]
class Link--><rect fill="#282828" height="48.055" id="Link" rx="8.3333" ry="8.3333" style="stroke:#5E5E5E;stroke-width:1.0416666666666667;" width="65.625" x="453.6458" y="53.7028"/><rect fill="#1B1B1A" height="31.3883" rx="8.3333" ry="8.3333" style="stroke:#1B1B1A;stroke-width:1.0416666666666667;" width="65.625" x="453.6458" y="53.7028"/><rect fill="#1B1B1A" height="8.3333" style="stroke:#1B1B1A;stroke-width:1.0416666666666667;" width="65.625" x="453.6458" y="76.7578"/><rect fill="none" height="48.055" id="Link" rx="8.3333" ry="8.3333" style="stroke:#5E5E5E;stroke-width:1.0416666666666667;" width="65.625" x="453.6458" y="53.7028"/><ellipse cx="468.2292" cy="69.397" fill="#0066CF" rx="10.4167" ry="10.4167" style="stroke:#0086EF;stroke-width:1.0416666666666667;"/><path d="M470.1396,73.822 Q469.7123,74.0417 469.2424,74.1516 Q468.7724,74.2615 468.2536,74.2615 Q466.4103,74.2615 465.4399,73.0469 Q464.4694,71.8323 464.4694,69.5374 Q464.4694,67.2363 465.4399,66.0217 Q466.4103,64.8071 468.2536,64.8071 Q468.7724,64.8071 469.2485,64.917 Q469.7245,65.0269 470.1396,65.2466 L470.1396,67.2485 Q469.6757,66.8213 469.2393,66.6229 Q468.8029,66.4246 468.339,66.4246 Q467.3503,66.4246 466.8467,67.2089 Q466.3432,67.9932 466.3432,69.5374 Q466.3432,71.0754 466.8467,71.8597 Q467.3503,72.644 468.339,72.644 Q468.8029,72.644 469.2393,72.4457 Q469.6757,72.2473 470.1396,71.8201 Z " fill="#000000"/><text fill="#D8BC00" font-family="Open Sans,Avenir,Nunito,Arial,Helvetica,SansSerif" font-size="12.5" font-weight="bold" lengthAdjust="spacing" textLength="28.125" x="484.8958" y="74.1211">Link</text><line style="stroke:#5E5E5E;stroke-width:1.0416666666666667;" x1="454.6875" x2="518.2292" y1="85.0911" y2="85.0911"/><line style="stroke:#5E5E5E;stroke-width:1.0416666666666667;" x1="454.6875" x2="518.2292" y1="93.4245" y2="93.4245"/><!--MD5=[e5ae2092af8d5ddfa94014c289325029]
class Home.SetLocaleLink--><rect codeLine="19" fill="#282828" height="48.055" id="Home.SetLocaleLink" rx="8.3333" ry="8.3333" style="stroke:#5E5E5E;stroke-width:1.0416666666666667;" width="126.0417" x="423.4375" y="181.8278"/><rect fill="#1B1B1A" height="31.3883" rx="8.3333" ry="8.3333" style="stroke:#1B1B1A;stroke-width:1.0416666666666667;" width="126.0417" x="423.4375" y="181.8278"/><rect fill="#1B1B1A" height="8.3333" style="stroke:#1B1B1A;stroke-width:1.0416666666666667;" width="126.0417" x="423.4375" y="204.8828"/><rect codeLine="19" fill="none" height="48.055" id="Home.SetLocaleLink" rx="8.3333" ry="8.3333" style="stroke:#5E5E5E;stroke-width:1.0416666666666667;" width="126.0417" x="423.4375" y="181.8278"/><ellipse cx="438.0208" cy="197.522" fill="#0066CF" rx="10.4167" ry="10.4167" style="stroke:#0086EF;stroke-width:1.0416666666666667;"/><path d="M439.9312,201.947 Q439.504,202.1667 439.034,202.2766 Q438.564,202.3865 438.0452,202.3865 Q436.202,202.3865 435.2315,201.1719 Q434.2611,199.9573 434.2611,197.6624 Q434.2611,195.3613 435.2315,194.1467 Q436.202,192.9321 438.0452,192.9321 Q438.564,192.9321 439.0401,193.042 Q439.5162,193.1519 439.9312,193.3716 L439.9312,195.3735 Q439.4674,194.9463 439.031,194.7479 Q438.5946,194.5496 438.1307,194.5496 Q437.1419,194.5496 436.6384,195.3339 Q436.1348,196.1182 436.1348,197.6624 Q436.1348,199.2004 436.6384,199.9847 Q437.1419,200.769 438.1307,200.769 Q438.5946,200.769 439.031,200.5707 Q439.4674,200.3723 439.9312,199.9451 Z " fill="#000000"/><text fill="#D8BC00" font-family="Open Sans,Avenir,Nunito,Arial,Helvetica,SansSerif" font-size="12.5" font-weight="bold" lengthAdjust="spacing" textLength="88.5417" x="454.6875" y="202.2461">SetLocaleLink</text><line style="stroke:#5E5E5E;stroke-width:1.0416666666666667;" x1="424.4792" x2="548.4375" y1="213.2161" y2="213.2161"/><line style="stroke:#5E5E5E;stroke-width:1.0416666666666667;" x1="424.4792" x2="548.4375" y1="221.5495" y2="221.5495"/><!--MD5=[b3756feba97c3508453d5d50a0aaead8]
reverse link WicketExamplePage to Home--><path codeLine="6" d="M89.5833,122.682 C89.5833,136.0778 89.5833,150.7445 89.5833,163.9215 " fill="none" id="WicketExamplePage-backto-Home" style="stroke:#545454;stroke-width:1.5625;"/><polygon fill="none" points="82.2917,122.6507,89.5833,101.8174,96.875,122.6507,82.2917,122.6507" style="stroke:#545454;stroke-width:1.5625;"/><!--MD5=[51e9281d98798dc6c99992d794ca6765]
reverse link WicketExampleApplication to PubApplication--><path codeLine="13" d="M312.5,122.9528 C312.5,142.7965 312.5,165.3799 312.5,181.7757 " fill="none" id="WicketExampleApplication-backto-PubApplication" style="stroke:#545454;stroke-width:1.5625;"/><polygon fill="none" points="305.2083,122.6507,312.5,101.8174,319.7917,122.6507,305.2083,122.6507" style="stroke:#545454;stroke-width:1.5625;"/><!--MD5=[08f6d6b00daa286f75918d869f380a0e]
reverse link Link to Home.SetLocaleLink--><path codeLine="18" d="M486.4583,122.9528 C486.4583,142.7965 486.4583,165.3799 486.4583,181.7757 " fill="none" id="Link-backto-Home.SetLocaleLink" style="stroke:#545454;stroke-width:1.5625;"/><polygon fill="none" points="479.1667,122.6507,486.4583,101.8174,493.75,122.6507,479.1667,122.6507" style="stroke:#545454;stroke-width:1.5625;"/><!--MD5=[407f61e27ea1d33f13be121ce23f5a29]
@startuml

    !include lexakai.theme
    
    title "org.apache.wicket.examples.pub2"
    
    WicketExamplePage <|- - Home
    class Home
    {
        - -(constructors)- -
        +Home(PageParameters)
    }
    
    WicketExampleApplication <|- - PubApplication
    class PubApplication
    {
    }
    
    Link <|- - Home.SetLocaleLink
    class Home.SetLocaleLink
    {
    }
    
@enduml

@startuml









skinparam backgroundColor #333333






skinparam  {
    defaultFontName   "Open Sans,Avenir,Nunito,Arial,Helvetica,SansSerif"
    defaultFontSize   12
    defaultTextAlignment left
    shadowing false
    RoundCorner 10
    TitleFontSize 18
}

skinparam defaultFontName       "Open Sans,Avenir,Nunito,Arial,Helvetica,SansSerif"
skinparam defaultFontSize       12
skinparam dpi                   100
skinparam shadowing             false
skinparam roundcorner           16
skinparam ParticipantPadding    40
skinparam BoxPadding            40
skinparam Padding               3
skinparam ArrowColor            #545454
skinparam stereotype {
    CBackgroundColor #0066cf
    CBorderColor #0086ef
    ABackgroundColor #C8Ac00
    ABorderColor #D8Bc00
    IBackgroundColor #008400
    IBorderColor #239c23
    EBackgroundColor #cf6300
    EBorderColor #ef8300
    NBackgroundColor #3380b9
    NBorderColor #004d86
}
skinparam title {
	FontColor	                 #c0c0c0
 	BorderColor                  #545454
	FontSize	    	         20
	BorderRoundCorner            16
	BorderThickness 	         1
	BackgroundColor              #48494b
}


skinparam legend {
	BackgroundColor #303030
	BorderColor #404040
	FontColor #a0a0a0
}

	skinparam swimlane {
	BorderColor #5e5e5e
	BorderThickness 2
	TitleBackgroundColor  #6d6d6d-#484848
	TitleFontColor #303030
}

skinparam activity {
		FontColor #C8Ac00
	BorderColor #333333
	BackgroundColor #333333-#333333
	BarColor #00FF00
	StartColor #0060a8
	EndColor #0060a8
	DiamondBackgroundColor #6d6d6d-#3a3a3a
  	DiamondBorderColor #3a3a3a
  	DiamondFontColor #fefefe
}


skinparam participant {
		FontColor #C8Ac00
	BorderColor #333333
	BackgroundColor #333333-#333333
	ParticipantBorderThickness 2
}


skinparam actor {
		FontColor #C8Ac00
	BorderColor #333333
	BackgroundColor #333333-#333333
}


skinparam arrow {
	Thickness 1.5
	Color #545454
	FontColor #a0a0a0
    FontStyle bold
    MessageAlignment center
}



skinparam sequence {
	BorderColor #303030
	TitleFontColor #303030
	BackgroundColor #333333
	StartColor #303030
	EndColor #303030
	BoxBackgroundColor #333333
	BoxBorderColor #484848
	BoxFontColor #484848
	LifeLineBorderColor #484848
	LifeLineBorderThickness 2
	LifeLineBackgroundColor #3a3a3a
	GroupBorderColor #484848
	GroupFontColor #484848
	GroupHeaderFontColor #0060a8
	GroupBackgroundColor #484848
	GroupHeaderBackgroundColor #333333
	DividerBackgroundColor #484848
    DividerBorderColor #484848
    DividerBorderThickness 2
    DividerFontColor #D8Bc00
	ReferenceBackgroundColor #333333
	ReferenceBorderColor #484848
	ReferenceFontColor #fefefe
	ReferenceHeaderBackgroundColor #484848
}


skinparam partition {
	BorderColor #303030
	FontColor #333333
	BackgroundColor #333333
}


skinparam collections {
		FontColor #C8Ac00
	BorderColor #333333
	BackgroundColor #333333-#333333
}


skinparam control {
		FontColor #C8Ac00
	BorderColor #333333
	BackgroundColor #333333-#333333
}


skinparam entity {
		FontColor #C8Ac00
	BorderColor #333333
	BackgroundColor #333333-#333333
}


skinparam boundary {
		FontColor #C8Ac00
	BorderColor #333333
	BackgroundColor #333333-#333333
}


skinparam agent {
	BackgroundColor #ff8000
	BorderColor #ff9933
	FontColor #484848
}


skinparam note {
	BorderThickness 1
	BackgroundColor #1b1b1a
	BorderColor #5e5e5e
	FontSize 11
	FontColor #a0a0a0
}


skinparam artifact {
	BorderThickness 10
	BorderColor #5e5e5e
	BackgroundColor #1b1b1a
	FontColor #D8Bc00
}


skinparam component {
		FontColor #C8Ac00
	BorderColor #333333
	BackgroundColor #333333-#333333
}


skinparam interface {
	BackgroundColor  #008400
	BorderColor  #007F00
	FontColor #484848
}


skinparam storage {
	BackgroundColor #ff8000
  	BorderColor #cc6600
	FontColor #222222
}


skinparam node {
	BackgroundColor #333333
	BorderColor #333333
	FontColor #C8Ac00
}


skinparam cloud {
	BackgroundColor #484848-black
	BorderColor #484848
	FontColor #D8Bc00
}


skinparam database {
		FontColor #C8Ac00
	BorderColor #333333
	BackgroundColor #333333-#333333
	BackgroundColor  #333333
}


skinparam class {
		FontColor #C8Ac00
	BorderColor #333333
	BackgroundColor #333333-#333333
	HeaderBackgroundColor #1b1b1a
    BackgroundColor #282828
    BorderColor #5e5e5e
 	StereotypeFontColor #a0a0a0
    StereotypeFontStyle bold
	BorderThickness 1
	AttributeFontColor #D8Bc00
	AttributeFontSize 11
    FontColor #D8Bc00
    FontStyle bold
}


skinparam object {
		FontColor #C8Ac00
	BorderColor #333333
	BackgroundColor #333333-#333333
	StereotypeFontColor #484848
	BorderThickness 1
	AttributeFontColor #fefefe
	AttributeFontSize 11
}


skinparam usecase {
		FontColor #C8Ac00
	BorderColor #333333
	BackgroundColor #333333-#333333
	BorderThickness 2
	StereotypeFontColor #303030
}


skinparam rectangle {
		FontColor #C8Ac00
	BorderColor #333333
	BackgroundColor #333333-#333333
	BackgroundColor #333333
	BorderThickness 2
	StereotypeFontColor #303030
}


skinparam package {
		FontColor #C8Ac00
	BorderColor #333333
	BackgroundColor #333333-#333333
	BackgroundColor #333333
	BorderThickness 2
}


skinparam folder {
	BackgroundColor #6d6d6d
  	BorderColor #ff8000
	FontColor #ff8000
	BorderThickness 2
}


skinparam frame {
	BackgroundColor #6d6d6d
  	BorderColor #0060a8
	FontColor #0060a8
	BorderThickness 2
}


skinparam state {
		FontColor #C8Ac00
	BorderColor #333333
	BackgroundColor #333333-#333333
	StartColor #0060a8
	EndColor #0060a8
	AttributeFontColor #fefefe
	AttributeFontSize 11
}


skinparam queue {
		FontColor #C8Ac00
	BorderColor #333333
	BackgroundColor #333333-#333333
}


skinparam card {
	BackgroundColor #0060a8
	BorderColor #004d86
	FontColor $INFO_TEXT
}


skinparam file {
	BackgroundColor #6d6d6d-#484848
	BorderColor #0060a8
	FontColor #fefefe
}


skinparam stack {
		FontColor #C8Ac00
	BorderColor #333333
	BackgroundColor #333333-#333333
}

    
    title "org.apache.wicket.examples.pub2"
    
    WicketExamplePage <|- - Home
    class Home
    {
        - -(constructors)- -
        +Home(PageParameters)
    }
    
    WicketExampleApplication <|- - PubApplication
    class PubApplication
    {
    }
    
    Link <|- - Home.SetLocaleLink
    class Home.SetLocaleLink
    {
    }
    
@enduml

PlantUML version 1.2021.01(Tue Feb 02 00:55:08 MST 2021)
(GPL source distribution)
Java Runtime: Java(TM) SE Runtime Environment
JVM: Java HotSpot(TM) 64-Bit Server VM
Default Encoding: UTF-8
Language: en
Country: US
--></g></svg>