<?xml version="1.0" encoding="UTF-8" standalone="no"?><svg xmlns="http://www.w3.org/2000/svg" xmlns:xlink="http://www.w3.org/1999/xlink" contentScriptType="application/ecmascript" contentStyleType="text/css" height="364.5833px" preserveAspectRatio="none" style="width:1052px;height:364px;background:#333333;" version="1.1" viewBox="0 0 1052 364" width="1052.0833px" zoomAndPan="magnify"><defs/><g><rect fill="#48494B" height="41.2028" rx="8.3333" ry="8.3333" style="stroke:#545454;stroke-width:1.0416666666666667;" width="467.7083" x="285.1563" y="2.0833"/><text fill="#C0C0C0" font-family="Open Sans,Avenir,Nunito,Arial,Helvetica,SansSerif" font-size="20.8333" lengthAdjust="spacing" textLength="444.7917" x="296.6146" y="30.5583">org.apache.wicket.examples.authentication3</text><!--MD5=[8389d11c23920d0ab7b28af5b7904b5d]
class BasePage--><rect codeLine="14" fill="#282828" height="48.055" id="BasePage" rx="8.3333" ry="8.3333" style="stroke:#5E5E5E;stroke-width:1.0416666666666667;" width="97.9167" x="85.4167" y="181.8278"/><rect fill="#1B1B1A" height="31.3883" rx="8.3333" ry="8.3333" style="stroke:#1B1B1A;stroke-width:1.0416666666666667;" width="97.9167" x="85.4167" y="181.8278"/><rect fill="#1B1B1A" height="8.3333" style="stroke:#1B1B1A;stroke-width:1.0416666666666667;" width="97.9167" x="85.4167" y="204.8828"/><rect codeLine="14" fill="none" height="48.055" id="BasePage" rx="8.3333" ry="8.3333" style="stroke:#5E5E5E;stroke-width:1.0416666666666667;" width="97.9167" x="85.4167" y="181.8278"/><ellipse cx="100" cy="197.522" fill="#0066CF" rx="10.4167" ry="10.4167" style="stroke:#0086EF;stroke-width:1.0416666666666667;"/><path d="M101.9104,201.947 Q101.4832,202.1667 101.0132,202.2766 Q100.5432,202.3865 100.0244,202.3865 Q98.1812,202.3865 97.2107,201.1719 Q96.2402,199.9573 96.2402,197.6624 Q96.2402,195.3613 97.2107,194.1467 Q98.1812,192.9321 100.0244,192.9321 Q100.5432,192.9321 101.0193,193.042 Q101.4954,193.1519 101.9104,193.3716 L101.9104,195.3735 Q101.4465,194.9463 101.0101,194.7479 Q100.5737,194.5496 100.1099,194.5496 Q99.1211,194.5496 98.6176,195.3339 Q98.114,196.1182 98.114,197.6624 Q98.114,199.2004 98.6176,199.9847 Q99.1211,200.769 100.1099,200.769 Q100.5737,200.769 101.0101,200.5707 Q101.4465,200.3723 101.9104,199.9451 Z " fill="#000000"/><text fill="#D8BC00" font-family="Open Sans,Avenir,Nunito,Arial,Helvetica,SansSerif" font-size="12.5" font-weight="bold" lengthAdjust="spacing" textLength="60.4167" x="116.6667" y="202.2461">BasePage</text><line style="stroke:#5E5E5E;stroke-width:1.0416666666666667;" x1="86.4583" x2="182.2917" y1="213.2161" y2="213.2161"/><line style="stroke:#5E5E5E;stroke-width:1.0416666666666667;" x1="86.4583" x2="182.2917" y1="221.5495" y2="221.5495"/><!--MD5=[6aab5f77b7c92cf40630397ed45943c2]
class AdminPage--><rect codeLine="9" fill="#282828" height="48.055" id="AdminPage" rx="8.3333" ry="8.3333" style="stroke:#5E5E5E;stroke-width:1.0416666666666667;" width="110.4167" x="7.2917" y="309.9528"/><rect fill="#1B1B1A" height="31.3883" rx="8.3333" ry="8.3333" style="stroke:#1B1B1A;stroke-width:1.0416666666666667;" width="110.4167" x="7.2917" y="309.9528"/><rect fill="#1B1B1A" height="8.3333" style="stroke:#1B1B1A;stroke-width:1.0416666666666667;" width="110.4167" x="7.2917" y="333.0078"/><rect codeLine="9" fill="none" height="48.055" id="AdminPage" rx="8.3333" ry="8.3333" style="stroke:#5E5E5E;stroke-width:1.0416666666666667;" width="110.4167" x="7.2917" y="309.9528"/><ellipse cx="21.875" cy="325.647" fill="#0066CF" rx="10.4167" ry="10.4167" style="stroke:#0086EF;stroke-width:1.0416666666666667;"/><path d="M23.7854,330.072 Q23.3582,330.2917 22.8882,330.4016 Q22.4182,330.5115 21.8994,330.5115 Q20.0562,330.5115 19.0857,329.2969 Q18.1152,328.0823 18.1152,325.7874 Q18.1152,323.4863 19.0857,322.2717 Q20.0562,321.0571 21.8994,321.0571 Q22.4182,321.0571 22.8943,321.167 Q23.3704,321.2769 23.7854,321.4966 L23.7854,323.4985 Q23.3215,323.0713 22.8851,322.8729 Q22.4487,322.6746 21.9849,322.6746 Q20.9961,322.6746 20.4926,323.4589 Q19.989,324.2432 19.989,325.7874 Q19.989,327.3254 20.4926,328.1097 Q20.9961,328.894 21.9849,328.894 Q22.4487,328.894 22.8851,328.6957 Q23.3215,328.4973 23.7854,328.0701 Z " fill="#000000"/><text fill="#D8BC00" font-family="Open Sans,Avenir,Nunito,Arial,Helvetica,SansSerif" font-size="12.5" font-weight="bold" lengthAdjust="spacing" textLength="72.9167" x="38.5417" y="330.3711">AdminPage</text><line style="stroke:#5E5E5E;stroke-width:1.0416666666666667;" x1="8.3333" x2="116.6667" y1="341.3411" y2="341.3411"/><line style="stroke:#5E5E5E;stroke-width:1.0416666666666667;" x1="8.3333" x2="116.6667" y1="349.6745" y2="349.6745"/><!--MD5=[8de0e4c819f220f8e0c4c4df41ba59ce]
class WicketExamplePage--><rect fill="#282828" height="48.055" id="WicketExamplePage" rx="8.3333" ry="8.3333" style="stroke:#5E5E5E;stroke-width:1.0416666666666667;" width="164.5833" x="201.0417" y="53.7028"/><rect fill="#1B1B1A" height="31.3883" rx="8.3333" ry="8.3333" style="stroke:#1B1B1A;stroke-width:1.0416666666666667;" width="164.5833" x="201.0417" y="53.7028"/><rect fill="#1B1B1A" height="8.3333" style="stroke:#1B1B1A;stroke-width:1.0416666666666667;" width="164.5833" x="201.0417" y="76.7578"/><rect fill="none" height="48.055" id="WicketExamplePage" rx="8.3333" ry="8.3333" style="stroke:#5E5E5E;stroke-width:1.0416666666666667;" width="164.5833" x="201.0417" y="53.7028"/><ellipse cx="215.625" cy="69.397" fill="#0066CF" rx="10.4167" ry="10.4167" style="stroke:#0086EF;stroke-width:1.0416666666666667;"/><path d="M217.5354,73.822 Q217.1082,74.0417 216.6382,74.1516 Q216.1682,74.2615 215.6494,74.2615 Q213.8062,74.2615 212.8357,73.0469 Q211.8652,71.8323 211.8652,69.5374 Q211.8652,67.2363 212.8357,66.0217 Q213.8062,64.8071 215.6494,64.8071 Q216.1682,64.8071 216.6443,64.917 Q217.1204,65.0269 217.5354,65.2466 L217.5354,67.2485 Q217.0715,66.8213 216.6351,66.6229 Q216.1987,66.4246 215.7349,66.4246 Q214.7461,66.4246 214.2426,67.2089 Q213.739,67.9932 213.739,69.5374 Q213.739,71.0754 214.2426,71.8597 Q214.7461,72.644 215.7349,72.644 Q216.1987,72.644 216.6351,72.4457 Q217.0715,72.2473 217.5354,71.8201 Z " fill="#000000"/><text fill="#D8BC00" font-family="Open Sans,Avenir,Nunito,Arial,Helvetica,SansSerif" font-size="12.5" font-weight="bold" lengthAdjust="spacing" textLength="127.0833" x="232.2917" y="74.1211">WicketExamplePage</text><line style="stroke:#5E5E5E;stroke-width:1.0416666666666667;" x1="202.0833" x2="364.5833" y1="85.0911" y2="85.0911"/><line style="stroke:#5E5E5E;stroke-width:1.0416666666666667;" x1="202.0833" x2="364.5833" y1="93.4245" y2="93.4245"/><!--MD5=[5aff5c50255f67a7089db77a52aaa125]
class HomePage--><rect codeLine="19" fill="#282828" height="48.055" id="HomePage" rx="8.3333" ry="8.3333" style="stroke:#5E5E5E;stroke-width:1.0416666666666667;" width="105.2083" x="154.6875" y="309.9528"/><rect fill="#1B1B1A" height="31.3883" rx="8.3333" ry="8.3333" style="stroke:#1B1B1A;stroke-width:1.0416666666666667;" width="105.2083" x="154.6875" y="309.9528"/><rect fill="#1B1B1A" height="8.3333" style="stroke:#1B1B1A;stroke-width:1.0416666666666667;" width="105.2083" x="154.6875" y="333.0078"/><rect codeLine="19" fill="none" height="48.055" id="HomePage" rx="8.3333" ry="8.3333" style="stroke:#5E5E5E;stroke-width:1.0416666666666667;" width="105.2083" x="154.6875" y="309.9528"/><ellipse cx="169.2708" cy="325.647" fill="#0066CF" rx="10.4167" ry="10.4167" style="stroke:#0086EF;stroke-width:1.0416666666666667;"/><path d="M171.1812,330.072 Q170.754,330.2917 170.284,330.4016 Q169.814,330.5115 169.2952,330.5115 Q167.452,330.5115 166.4815,329.2969 Q165.5111,328.0823 165.5111,325.7874 Q165.5111,323.4863 166.4815,322.2717 Q167.452,321.0571 169.2952,321.0571 Q169.814,321.0571 170.2901,321.167 Q170.7662,321.2769 171.1812,321.4966 L171.1812,323.4985 Q170.7174,323.0713 170.281,322.8729 Q169.8446,322.6746 169.3807,322.6746 Q168.3919,322.6746 167.8884,323.4589 Q167.3848,324.2432 167.3848,325.7874 Q167.3848,327.3254 167.8884,328.1097 Q168.3919,328.894 169.3807,328.894 Q169.8446,328.894 170.281,328.6957 Q170.7174,328.4973 171.1812,328.0701 Z " fill="#000000"/><text fill="#D8BC00" font-family="Open Sans,Avenir,Nunito,Arial,Helvetica,SansSerif" font-size="12.5" font-weight="bold" lengthAdjust="spacing" textLength="67.7083" x="185.9375" y="330.3711">HomePage</text><line style="stroke:#5E5E5E;stroke-width:1.0416666666666667;" x1="155.7292" x2="258.8542" y1="341.3411" y2="341.3411"/><line style="stroke:#5E5E5E;stroke-width:1.0416666666666667;" x1="155.7292" x2="258.8542" y1="349.6745" y2="349.6745"/><!--MD5=[cd7a034959716c8e370a4082c83cd09f]
class AuthenticatedWebApplication--><rect fill="#282828" height="48.055" id="AuthenticatedWebApplication" rx="8.3333" ry="8.3333" style="stroke:#5E5E5E;stroke-width:1.0416666666666667;" width="229.1667" x="525" y="53.7028"/><rect fill="#1B1B1A" height="31.3883" rx="8.3333" ry="8.3333" style="stroke:#1B1B1A;stroke-width:1.0416666666666667;" width="229.1667" x="525" y="53.7028"/><rect fill="#1B1B1A" height="8.3333" style="stroke:#1B1B1A;stroke-width:1.0416666666666667;" width="229.1667" x="525" y="76.7578"/><rect fill="none" height="48.055" id="AuthenticatedWebApplication" rx="8.3333" ry="8.3333" style="stroke:#5E5E5E;stroke-width:1.0416666666666667;" width="229.1667" x="525" y="53.7028"/><ellipse cx="539.5833" cy="69.397" fill="#0066CF" rx="10.4167" ry="10.4167" style="stroke:#0086EF;stroke-width:1.0416666666666667;"/><path d="M541.4937,73.822 Q541.0665,74.0417 540.5965,74.1516 Q540.1265,74.2615 539.6077,74.2615 Q537.7645,74.2615 536.794,73.0469 Q535.8236,71.8323 535.8236,69.5374 Q535.8236,67.2363 536.794,66.0217 Q537.7645,64.8071 539.6077,64.8071 Q540.1265,64.8071 540.6026,64.917 Q541.0787,65.0269 541.4937,65.2466 L541.4937,67.2485 Q541.0299,66.8213 540.5935,66.6229 Q540.1571,66.4246 539.6932,66.4246 Q538.7044,66.4246 538.2009,67.2089 Q537.6973,67.9932 537.6973,69.5374 Q537.6973,71.0754 538.2009,71.8597 Q538.7044,72.644 539.6932,72.644 Q540.1571,72.644 540.5935,72.4457 Q541.0299,72.2473 541.4937,71.8201 Z " fill="#000000"/><text fill="#D8BC00" font-family="Open Sans,Avenir,Nunito,Arial,Helvetica,SansSerif" font-size="12.5" font-weight="bold" lengthAdjust="spacing" textLength="191.6667" x="556.25" y="74.1211">AuthenticatedWebApplication</text><line style="stroke:#5E5E5E;stroke-width:1.0416666666666667;" x1="526.0417" x2="753.125" y1="85.0911" y2="85.0911"/><line style="stroke:#5E5E5E;stroke-width:1.0416666666666667;" x1="526.0417" x2="753.125" y1="93.4245" y2="93.4245"/><!--MD5=[d0b29f00d6a697d60de77363cf32e4b7]
class MyAuthenticatedWebApplication--><rect codeLine="24" fill="#282828" height="48.055" id="MyAuthenticatedWebApplication" rx="8.3333" ry="8.3333" style="stroke:#5E5E5E;stroke-width:1.0416666666666667;" width="247.9167" x="515.625" y="181.8278"/><rect fill="#1B1B1A" height="31.3883" rx="8.3333" ry="8.3333" style="stroke:#1B1B1A;stroke-width:1.0416666666666667;" width="247.9167" x="515.625" y="181.8278"/><rect fill="#1B1B1A" height="8.3333" style="stroke:#1B1B1A;stroke-width:1.0416666666666667;" width="247.9167" x="515.625" y="204.8828"/><rect codeLine="24" fill="none" height="48.055" id="MyAuthenticatedWebApplication" rx="8.3333" ry="8.3333" style="stroke:#5E5E5E;stroke-width:1.0416666666666667;" width="247.9167" x="515.625" y="181.8278"/><ellipse cx="530.2083" cy="197.522" fill="#0066CF" rx="10.4167" ry="10.4167" style="stroke:#0086EF;stroke-width:1.0416666666666667;"/><path d="M532.1187,201.947 Q531.6915,202.1667 531.2215,202.2766 Q530.7515,202.3865 530.2327,202.3865 Q528.3895,202.3865 527.419,201.1719 Q526.4486,199.9573 526.4486,197.6624 Q526.4486,195.3613 527.419,194.1467 Q528.3895,192.9321 530.2327,192.9321 Q530.7515,192.9321 531.2276,193.042 Q531.7037,193.1519 532.1187,193.3716 L532.1187,195.3735 Q531.6549,194.9463 531.2185,194.7479 Q530.7821,194.5496 530.3182,194.5496 Q529.3294,194.5496 528.8259,195.3339 Q528.3223,196.1182 528.3223,197.6624 Q528.3223,199.2004 528.8259,199.9847 Q529.3294,200.769 530.3182,200.769 Q530.7821,200.769 531.2185,200.5707 Q531.6549,200.3723 532.1187,199.9451 Z " fill="#000000"/><text fill="#D8BC00" font-family="Open Sans,Avenir,Nunito,Arial,Helvetica,SansSerif" font-size="12.5" font-weight="bold" lengthAdjust="spacing" textLength="210.4167" x="546.875" y="202.2461">MyAuthenticatedWebApplication</text><line style="stroke:#5E5E5E;stroke-width:1.0416666666666667;" x1="516.6667" x2="762.5" y1="213.2161" y2="213.2161"/><line style="stroke:#5E5E5E;stroke-width:1.0416666666666667;" x1="516.6667" x2="762.5" y1="221.5495" y2="221.5495"/><!--MD5=[2261d145199e4c178076f207be0d1b0d]
class AuthenticatedWebSession--><rect fill="#282828" height="48.055" id="AuthenticatedWebSession" rx="8.3333" ry="8.3333" style="stroke:#5E5E5E;stroke-width:1.0416666666666667;" width="205.2083" x="820.3125" y="53.7028"/><rect fill="#1B1B1A" height="31.3883" rx="8.3333" ry="8.3333" style="stroke:#1B1B1A;stroke-width:1.0416666666666667;" width="205.2083" x="820.3125" y="53.7028"/><rect fill="#1B1B1A" height="8.3333" style="stroke:#1B1B1A;stroke-width:1.0416666666666667;" width="205.2083" x="820.3125" y="76.7578"/><rect fill="none" height="48.055" id="AuthenticatedWebSession" rx="8.3333" ry="8.3333" style="stroke:#5E5E5E;stroke-width:1.0416666666666667;" width="205.2083" x="820.3125" y="53.7028"/><ellipse cx="834.8958" cy="69.397" fill="#0066CF" rx="10.4167" ry="10.4167" style="stroke:#0086EF;stroke-width:1.0416666666666667;"/><path d="M836.8062,73.822 Q836.379,74.0417 835.909,74.1516 Q835.439,74.2615 834.9202,74.2615 Q833.077,74.2615 832.1065,73.0469 Q831.1361,71.8323 831.1361,69.5374 Q831.1361,67.2363 832.1065,66.0217 Q833.077,64.8071 834.9202,64.8071 Q835.439,64.8071 835.9151,64.917 Q836.3912,65.0269 836.8062,65.2466 L836.8062,67.2485 Q836.3424,66.8213 835.906,66.6229 Q835.4696,66.4246 835.0057,66.4246 Q834.0169,66.4246 833.5134,67.2089 Q833.0098,67.9932 833.0098,69.5374 Q833.0098,71.0754 833.5134,71.8597 Q834.0169,72.644 835.0057,72.644 Q835.4696,72.644 835.906,72.4457 Q836.3424,72.2473 836.8062,71.8201 Z " fill="#000000"/><text fill="#D8BC00" font-family="Open Sans,Avenir,Nunito,Arial,Helvetica,SansSerif" font-size="12.5" font-weight="bold" lengthAdjust="spacing" textLength="167.7083" x="851.5625" y="74.1211">AuthenticatedWebSession</text><line style="stroke:#5E5E5E;stroke-width:1.0416666666666667;" x1="821.3542" x2="1024.4792" y1="85.0911" y2="85.0911"/><line style="stroke:#5E5E5E;stroke-width:1.0416666666666667;" x1="821.3542" x2="1024.4792" y1="93.4245" y2="93.4245"/><!--MD5=[bc14b5ce4ddb907af92c3926c74aefdd]
class MyAuthenticatedWebSession--><rect codeLine="29" fill="#282828" height="83.3781" id="MyAuthenticatedWebSession" rx="8.3333" ry="8.3333" style="stroke:#5E5E5E;stroke-width:1.0416666666666667;" width="244.7917" x="800.5208" y="164.1195"/><rect fill="#1B1B1A" height="31.3883" rx="8.3333" ry="8.3333" style="stroke:#1B1B1A;stroke-width:1.0416666666666667;" width="244.7917" x="800.5208" y="164.1195"/><rect fill="#1B1B1A" height="8.3333" style="stroke:#1B1B1A;stroke-width:1.0416666666666667;" width="244.7917" x="800.5208" y="187.1745"/><rect codeLine="29" fill="none" height="83.3781" id="MyAuthenticatedWebSession" rx="8.3333" ry="8.3333" style="stroke:#5E5E5E;stroke-width:1.0416666666666667;" width="244.7917" x="800.5208" y="164.1195"/><ellipse cx="824.4792" cy="179.8136" fill="#0066CF" rx="10.4167" ry="10.4167" style="stroke:#0086EF;stroke-width:1.0416666666666667;"/><path d="M826.3896,184.2387 Q825.9623,184.4584 825.4924,184.5683 Q825.0224,184.6781 824.5036,184.6781 Q822.6603,184.6781 821.6899,183.4635 Q820.7194,182.2489 820.7194,179.954 Q820.7194,177.653 821.6899,176.4384 Q822.6603,175.2238 824.5036,175.2238 Q825.0224,175.2238 825.4985,175.3337 Q825.9745,175.4435 826.3896,175.6632 L826.3896,177.6652 Q825.9257,177.238 825.4893,177.0396 Q825.0529,176.8412 824.589,176.8412 Q823.6003,176.8412 823.0967,177.6255 Q822.5932,178.4098 822.5932,179.954 Q822.5932,181.4921 823.0967,182.2764 Q823.6003,183.0607 824.589,183.0607 Q825.0529,183.0607 825.4893,182.8623 Q825.9257,182.664 826.3896,182.2367 Z " fill="#000000"/><text fill="#D8BC00" font-family="Open Sans,Avenir,Nunito,Arial,Helvetica,SansSerif" font-size="12.5" font-weight="bold" lengthAdjust="spacing" textLength="186.4583" x="843.2292" y="184.5378">MyAuthenticatedWebSession</text><line style="stroke:#5E5E5E;stroke-width:1.5625;" x1="801.5625" x2="1044.2708" y1="195.5078" y2="195.5078"/><ellipse cx="811.9792" cy="230.8777" fill="#84BE84" rx="3.125" ry="3.125" style="stroke:#038048;stroke-width:1.0416666666666667;"/><text fill="#D8BC00" font-family="Open Sans,Avenir,Nunito,Arial,Helvetica,SansSerif" font-size="11.4583" lengthAdjust="spacing" textLength="212.5" x="823.4375" y="237.7889">MyAuthenticatedWebSession(Request)</text><line style="stroke:#5E5E5E;stroke-width:1.0416666666666667;" x1="801.5625" x2="879.1667" y1="213.7136" y2="213.7136"/><text fill="#D8BC00" font-family="Open Sans,Avenir,Nunito,Arial,Helvetica,SansSerif" font-size="11.4583" lengthAdjust="spacing" textLength="81.25" x="882.2917" y="217.5232">(constructors)</text><line style="stroke:#5E5E5E;stroke-width:1.0416666666666667;" x1="966.6667" x2="1044.2708" y1="213.7136" y2="213.7136"/><!--MD5=[04e72d6ebff927a02c1076c3f636b62c]
class MySignInPage--><rect codeLine="36" fill="#282828" height="83.3781" id="MySignInPage" rx="8.3333" ry="8.3333" style="stroke:#5E5E5E;stroke-width:1.0416666666666667;" width="127.0833" x="219.7917" y="164.1195"/><rect fill="#1B1B1A" height="31.3883" rx="8.3333" ry="8.3333" style="stroke:#1B1B1A;stroke-width:1.0416666666666667;" width="127.0833" x="219.7917" y="164.1195"/><rect fill="#1B1B1A" height="8.3333" style="stroke:#1B1B1A;stroke-width:1.0416666666666667;" width="127.0833" x="219.7917" y="187.1745"/><rect codeLine="36" fill="none" height="83.3781" id="MySignInPage" rx="8.3333" ry="8.3333" style="stroke:#5E5E5E;stroke-width:1.0416666666666667;" width="127.0833" x="219.7917" y="164.1195"/><ellipse cx="234.375" cy="179.8136" fill="#0066CF" rx="10.4167" ry="10.4167" style="stroke:#0086EF;stroke-width:1.0416666666666667;"/><path d="M236.2854,184.2387 Q235.8582,184.4584 235.3882,184.5683 Q234.9182,184.6781 234.3994,184.6781 Q232.5562,184.6781 231.5857,183.4635 Q230.6152,182.2489 230.6152,179.954 Q230.6152,177.653 231.5857,176.4384 Q232.5562,175.2238 234.3994,175.2238 Q234.9182,175.2238 235.3943,175.3337 Q235.8704,175.4435 236.2854,175.6632 L236.2854,177.6652 Q235.8215,177.238 235.3851,177.0396 Q234.9487,176.8412 234.4849,176.8412 Q233.4961,176.8412 232.9926,177.6255 Q232.489,178.4098 232.489,179.954 Q232.489,181.4921 232.9926,182.2764 Q233.4961,183.0607 234.4849,183.0607 Q234.9487,183.0607 235.3851,182.8623 Q235.8215,182.664 236.2854,182.2367 Z " fill="#000000"/><text fill="#D8BC00" font-family="Open Sans,Avenir,Nunito,Arial,Helvetica,SansSerif" font-size="12.5" font-weight="bold" lengthAdjust="spacing" textLength="89.5833" x="251.0417" y="184.5378">MySignInPage</text><line style="stroke:#5E5E5E;stroke-width:1.5625;" x1="220.8333" x2="345.8333" y1="195.5078" y2="195.5078"/><ellipse cx="231.25" cy="230.8777" fill="#84BE84" rx="3.125" ry="3.125" style="stroke:#038048;stroke-width:1.0416666666666667;"/><text fill="#D8BC00" font-family="Open Sans,Avenir,Nunito,Arial,Helvetica,SansSerif" font-size="11.4583" lengthAdjust="spacing" textLength="84.375" x="242.7083" y="237.7889">MySignInPage()</text><line style="stroke:#5E5E5E;stroke-width:1.0416666666666667;" x1="220.8333" x2="239.5833" y1="213.7136" y2="213.7136"/><text fill="#D8BC00" font-family="Open Sans,Avenir,Nunito,Arial,Helvetica,SansSerif" font-size="11.4583" lengthAdjust="spacing" textLength="81.25" x="242.7083" y="217.5232">(constructors)</text><line style="stroke:#5E5E5E;stroke-width:1.0416666666666667;" x1="327.0833" x2="345.8333" y1="213.7136" y2="213.7136"/><!--MD5=[332b16b983090505f662b4bf3639251c]
class SignOut--><rect codeLine="43" fill="#282828" height="83.3781" id="SignOut" rx="8.3333" ry="8.3333" style="stroke:#5E5E5E;stroke-width:1.0416666666666667;" width="95.8333" x="383.3333" y="164.1195"/><rect fill="#1B1B1A" height="31.3883" rx="8.3333" ry="8.3333" style="stroke:#1B1B1A;stroke-width:1.0416666666666667;" width="95.8333" x="383.3333" y="164.1195"/><rect fill="#1B1B1A" height="8.3333" style="stroke:#1B1B1A;stroke-width:1.0416666666666667;" width="95.8333" x="383.3333" y="187.1745"/><rect codeLine="43" fill="none" height="83.3781" id="SignOut" rx="8.3333" ry="8.3333" style="stroke:#5E5E5E;stroke-width:1.0416666666666667;" width="95.8333" x="383.3333" y="164.1195"/><ellipse cx="400.7292" cy="179.8136" fill="#0066CF" rx="10.4167" ry="10.4167" style="stroke:#0086EF;stroke-width:1.0416666666666667;"/><path d="M402.6396,184.2387 Q402.2123,184.4584 401.7424,184.5683 Q401.2724,184.6781 400.7536,184.6781 Q398.9103,184.6781 397.9399,183.4635 Q396.9694,182.2489 396.9694,179.954 Q396.9694,177.653 397.9399,176.4384 Q398.9103,175.2238 400.7536,175.2238 Q401.2724,175.2238 401.7485,175.3337 Q402.2245,175.4435 402.6396,175.6632 L402.6396,177.6652 Q402.1757,177.238 401.7393,177.0396 Q401.3029,176.8412 400.839,176.8412 Q399.8503,176.8412 399.3467,177.6255 Q398.8432,178.4098 398.8432,179.954 Q398.8432,181.4921 399.3467,182.2764 Q399.8503,183.0607 400.839,183.0607 Q401.3029,183.0607 401.7393,182.8623 Q402.1757,182.664 402.6396,182.2367 Z " fill="#000000"/><text fill="#D8BC00" font-family="Open Sans,Avenir,Nunito,Arial,Helvetica,SansSerif" font-size="12.5" font-weight="bold" lengthAdjust="spacing" textLength="52.0833" x="418.0208" y="184.5378">SignOut</text><line style="stroke:#5E5E5E;stroke-width:1.5625;" x1="384.375" x2="478.125" y1="195.5078" y2="195.5078"/><ellipse cx="394.7917" cy="230.8777" fill="#84BE84" rx="3.125" ry="3.125" style="stroke:#038048;stroke-width:1.0416666666666667;"/><text fill="#D8BC00" font-family="Open Sans,Avenir,Nunito,Arial,Helvetica,SansSerif" font-size="11.4583" lengthAdjust="spacing" textLength="53.125" x="406.25" y="237.7889">SignOut()</text><line style="stroke:#5E5E5E;stroke-width:1.0416666666666667;" x1="384.375" x2="387.5" y1="213.7136" y2="213.7136"/><text fill="#D8BC00" font-family="Open Sans,Avenir,Nunito,Arial,Helvetica,SansSerif" font-size="11.4583" lengthAdjust="spacing" textLength="81.25" x="390.625" y="217.5232">(constructors)</text><line style="stroke:#5E5E5E;stroke-width:1.0416666666666667;" x1="475" x2="478.125" y1="213.7136" y2="213.7136"/><!--MD5=[c9711c0cdb094411c5b0369e568dc2d5]
reverse link BasePage to AdminPage--><path codeLine="8" d="M110.7813,248.2028 C99.0833,268.7132 85.4063,292.7028 75.6042,309.9007 " fill="none" id="BasePage-backto-AdminPage" style="stroke:#545454;stroke-width:1.5625;"/><polygon fill="none" points="104.5417,244.432,121.1875,229.9424,117.2083,251.6507,104.5417,244.432" style="stroke:#545454;stroke-width:1.5625;"/><!--MD5=[2ff6515e7481edfef2a1531fcf5e5c2e]
reverse link WicketExamplePage to BasePage--><path codeLine="13" d="M239.9792,115.3903 C214.625,136.8382 183.4167,163.2445 161.5208,181.7757 " fill="none" id="WicketExamplePage-backto-BasePage" style="stroke:#545454;stroke-width:1.5625;"/><polygon fill="none" points="235.3958,109.7132,256.0104,101.8174,244.8229,120.8486,235.3958,109.7132" style="stroke:#545454;stroke-width:1.5625;"/><!--MD5=[5ae6498f74f508ac92a3799a89bffdb5]
reverse link BasePage to HomePage--><path codeLine="18" d="M158.3125,248.2028 C170.1771,268.7132 184.0521,292.7028 194,309.9007 " fill="none" id="BasePage-backto-HomePage" style="stroke:#545454;stroke-width:1.5625;"/><polygon fill="none" points="151.875,251.6299,147.75,229.9424,164.4896,244.3278,151.875,251.6299" style="stroke:#545454;stroke-width:1.5625;"/><!--MD5=[1cccc5c1f4d3866e25e1109541390e87]
reverse link AuthenticatedWebApplication to MyAuthenticatedWebApplication--><path codeLine="23" d="M639.5833,122.9528 C639.5833,142.7965 639.5833,165.3799 639.5833,181.7757 " fill="none" id="AuthenticatedWebApplication-backto-MyAuthenticatedWebApplication" style="stroke:#545454;stroke-width:1.5625;"/><polygon fill="none" points="632.2917,122.6507,639.5833,101.8174,646.875,122.6507,632.2917,122.6507" style="stroke:#545454;stroke-width:1.5625;"/><!--MD5=[c4ceeea86b620b37cbd3320b79899041]
reverse link AuthenticatedWebSession to MyAuthenticatedWebSession--><path codeLine="28" d="M922.9167,122.682 C922.9167,136.0778 922.9167,150.7445 922.9167,163.9215 " fill="none" id="AuthenticatedWebSession-backto-MyAuthenticatedWebSession" style="stroke:#545454;stroke-width:1.5625;"/><polygon fill="none" points="915.625,122.6507,922.9167,101.8174,930.2083,122.6507,915.625,122.6507" style="stroke:#545454;stroke-width:1.5625;"/><!--MD5=[aa2ee6bfa4e65bc04c1ea196cf4485db]
reverse link WicketExamplePage to MySignInPage--><path codeLine="35" d="M283.3333,122.682 C283.3333,136.0778 283.3333,150.7445 283.3333,163.9215 " fill="none" id="WicketExamplePage-backto-MySignInPage" style="stroke:#545454;stroke-width:1.5625;"/><polygon fill="none" points="276.0417,122.6507,283.3333,101.8174,290.625,122.6507,276.0417,122.6507" style="stroke:#545454;stroke-width:1.5625;"/><!--MD5=[037bdd816831c29eb75d9f5f4bd72edc]
reverse link WicketExamplePage to SignOut--><path codeLine="42" d="M326.4896,115.4736 C344.3125,130.6611 365.0417,148.3278 383.3438,163.9215 " fill="none" id="WicketExamplePage-backto-SignOut" style="stroke:#545454;stroke-width:1.5625;"/><polygon fill="none" points="321.5938,120.8799,310.4583,101.8174,331.0521,109.7861,321.5938,120.8799" style="stroke:#545454;stroke-width:1.5625;"/><!--MD5=[3d550957bd3abcbeddc58b3d41119132]
@startuml

    !include lexakai.theme
    
    title "org.apache.wicket.examples.authentication3"
    
    abstract BasePage
    
    BasePage <|- - AdminPage
    class AdminPage
    {
    }
    
    WicketExamplePage <|- - BasePage
    class BasePage
    {
    }
    
    BasePage <|- - HomePage
    class HomePage
    {
    }
    
    AuthenticatedWebApplication <|- - MyAuthenticatedWebApplication
    class MyAuthenticatedWebApplication
    {
    }
    
    AuthenticatedWebSession <|- - MyAuthenticatedWebSession
    class MyAuthenticatedWebSession
    {
        - -(constructors)- -
        +MyAuthenticatedWebSession(Request)
    }
    
    WicketExamplePage <|- - MySignInPage
    class MySignInPage
    {
        - -(constructors)- -
        +MySignInPage()
    }
    
    WicketExamplePage <|- - SignOut
    class SignOut
    {
        - -(constructors)- -
        +SignOut()
    }
    
@enduml

@startuml









skinparam backgroundColor #333333






skinparam  {
    defaultFontName   "Open Sans,Avenir,Nunito,Arial,Helvetica,SansSerif"
    defaultFontSize   12
    defaultTextAlignment left
    shadowing false
    RoundCorner 10
    TitleFontSize 18
}

skinparam defaultFontName       "Open Sans,Avenir,Nunito,Arial,Helvetica,SansSerif"
skinparam defaultFontSize       12
skinparam dpi                   100
skinparam shadowing             false
skinparam roundcorner           16
skinparam ParticipantPadding    40
skinparam BoxPadding            40
skinparam Padding               3
skinparam ArrowColor            #545454
skinparam stereotype {
    CBackgroundColor #0066cf
    CBorderColor #0086ef
    ABackgroundColor #C8Ac00
    ABorderColor #D8Bc00
    IBackgroundColor #008400
    IBorderColor #239c23
    EBackgroundColor #cf6300
    EBorderColor #ef8300
    NBackgroundColor #3380b9
    NBorderColor #004d86
}
skinparam title {
	FontColor	                 #c0c0c0
 	BorderColor                  #545454
	FontSize	    	         20
	BorderRoundCorner            16
	BorderThickness 	         1
	BackgroundColor              #48494b
}


skinparam legend {
	BackgroundColor #303030
	BorderColor #404040
	FontColor #a0a0a0
}

	skinparam swimlane {
	BorderColor #5e5e5e
	BorderThickness 2
	TitleBackgroundColor  #6d6d6d-#484848
	TitleFontColor #303030
}

skinparam activity {
		FontColor #C8Ac00
	BorderColor #333333
	BackgroundColor #333333-#333333
	BarColor #00FF00
	StartColor #0060a8
	EndColor #0060a8
	DiamondBackgroundColor #6d6d6d-#3a3a3a
  	DiamondBorderColor #3a3a3a
  	DiamondFontColor #fefefe
}


skinparam participant {
		FontColor #C8Ac00
	BorderColor #333333
	BackgroundColor #333333-#333333
	ParticipantBorderThickness 2
}


skinparam actor {
		FontColor #C8Ac00
	BorderColor #333333
	BackgroundColor #333333-#333333
}


skinparam arrow {
	Thickness 1.5
	Color #545454
	FontColor #a0a0a0
    FontStyle bold
    MessageAlignment center
}



skinparam sequence {
	BorderColor #303030
	TitleFontColor #303030
	BackgroundColor #333333
	StartColor #303030
	EndColor #303030
	BoxBackgroundColor #333333
	BoxBorderColor #484848
	BoxFontColor #484848
	LifeLineBorderColor #484848
	LifeLineBorderThickness 2
	LifeLineBackgroundColor #3a3a3a
	GroupBorderColor #484848
	GroupFontColor #484848
	GroupHeaderFontColor #0060a8
	GroupBackgroundColor #484848
	GroupHeaderBackgroundColor #333333
	DividerBackgroundColor #484848
    DividerBorderColor #484848
    DividerBorderThickness 2
    DividerFontColor #D8Bc00
	ReferenceBackgroundColor #333333
	ReferenceBorderColor #484848
	ReferenceFontColor #fefefe
	ReferenceHeaderBackgroundColor #484848
}


skinparam partition {
	BorderColor #303030
	FontColor #333333
	BackgroundColor #333333
}


skinparam collections {
		FontColor #C8Ac00
	BorderColor #333333
	BackgroundColor #333333-#333333
}


skinparam control {
		FontColor #C8Ac00
	BorderColor #333333
	BackgroundColor #333333-#333333
}


skinparam entity {
		FontColor #C8Ac00
	BorderColor #333333
	BackgroundColor #333333-#333333
}


skinparam boundary {
		FontColor #C8Ac00
	BorderColor #333333
	BackgroundColor #333333-#333333
}


skinparam agent {
	BackgroundColor #ff8000
	BorderColor #ff9933
	FontColor #484848
}


skinparam note {
	BorderThickness 1
	BackgroundColor #1b1b1a
	BorderColor #5e5e5e
	FontSize 11
	FontColor #a0a0a0
}


skinparam artifact {
	BorderThickness 10
	BorderColor #5e5e5e
	BackgroundColor #1b1b1a
	FontColor #D8Bc00
}


skinparam component {
		FontColor #C8Ac00
	BorderColor #333333
	BackgroundColor #333333-#333333
}


skinparam interface {
	BackgroundColor  #008400
	BorderColor  #007F00
	FontColor #484848
}


skinparam storage {
	BackgroundColor #ff8000
  	BorderColor #cc6600
	FontColor #222222
}


skinparam node {
	BackgroundColor #333333
	BorderColor #333333
	FontColor #C8Ac00
}


skinparam cloud {
	BackgroundColor #484848-black
	BorderColor #484848
	FontColor #D8Bc00
}


skinparam database {
		FontColor #C8Ac00
	BorderColor #333333
	BackgroundColor #333333-#333333
	BackgroundColor  #333333
}


skinparam class {
		FontColor #C8Ac00
	BorderColor #333333
	BackgroundColor #333333-#333333
	HeaderBackgroundColor #1b1b1a
    BackgroundColor #282828
    BorderColor #5e5e5e
 	StereotypeFontColor #a0a0a0
    StereotypeFontStyle bold
	BorderThickness 1
	AttributeFontColor #D8Bc00
	AttributeFontSize 11
    FontColor #D8Bc00
    FontStyle bold
}


skinparam object {
		FontColor #C8Ac00
	BorderColor #333333
	BackgroundColor #333333-#333333
	StereotypeFontColor #484848
	BorderThickness 1
	AttributeFontColor #fefefe
	AttributeFontSize 11
}


skinparam usecase {
		FontColor #C8Ac00
	BorderColor #333333
	BackgroundColor #333333-#333333
	BorderThickness 2
	StereotypeFontColor #303030
}


skinparam rectangle {
		FontColor #C8Ac00
	BorderColor #333333
	BackgroundColor #333333-#333333
	BackgroundColor #333333
	BorderThickness 2
	StereotypeFontColor #303030
}


skinparam package {
		FontColor #C8Ac00
	BorderColor #333333
	BackgroundColor #333333-#333333
	BackgroundColor #333333
	BorderThickness 2
}


skinparam folder {
	BackgroundColor #6d6d6d
  	BorderColor #ff8000
	FontColor #ff8000
	BorderThickness 2
}


skinparam frame {
	BackgroundColor #6d6d6d
  	BorderColor #0060a8
	FontColor #0060a8
	BorderThickness 2
}


skinparam state {
		FontColor #C8Ac00
	BorderColor #333333
	BackgroundColor #333333-#333333
	StartColor #0060a8
	EndColor #0060a8
	AttributeFontColor #fefefe
	AttributeFontSize 11
}


skinparam queue {
		FontColor #C8Ac00
	BorderColor #333333
	BackgroundColor #333333-#333333
}


skinparam card {
	BackgroundColor #0060a8
	BorderColor #004d86
	FontColor $INFO_TEXT
}


skinparam file {
	BackgroundColor #6d6d6d-#484848
	BorderColor #0060a8
	FontColor #fefefe
}


skinparam stack {
		FontColor #C8Ac00
	BorderColor #333333
	BackgroundColor #333333-#333333
}

    
    title "org.apache.wicket.examples.authentication3"
    
    abstract BasePage
    
    BasePage <|- - AdminPage
    class AdminPage
    {
    }
    
    WicketExamplePage <|- - BasePage
    class BasePage
    {
    }
    
    BasePage <|- - HomePage
    class HomePage
    {
    }
    
    AuthenticatedWebApplication <|- - MyAuthenticatedWebApplication
    class MyAuthenticatedWebApplication
    {
    }
    
    AuthenticatedWebSession <|- - MyAuthenticatedWebSession
    class MyAuthenticatedWebSession
    {
        - -(constructors)- -
        +MyAuthenticatedWebSession(Request)
    }
    
    WicketExamplePage <|- - MySignInPage
    class MySignInPage
    {
        - -(constructors)- -
        +MySignInPage()
    }
    
    WicketExamplePage <|- - SignOut
    class SignOut
    {
        - -(constructors)- -
        +SignOut()
    }
    
@enduml

PlantUML version 1.2021.01(Tue Feb 02 00:55:08 MST 2021)
(GPL source distribution)
Java Runtime: Java(TM) SE Runtime Environment
JVM: Java HotSpot(TM) 64-Bit Server VM
Default Encoding: UTF-8
Language: en
Country: US
--></g></svg>