<?xml version="1.0" encoding="UTF-8" standalone="no"?><svg xmlns="http://www.w3.org/2000/svg" xmlns:xlink="http://www.w3.org/1999/xlink" contentScriptType="application/ecmascript" contentStyleType="text/css" height="297.9167px" preserveAspectRatio="none" style="width:469px;height:297px;background:#333333;" version="1.1" viewBox="0 0 469 297" width="469.7917px" zoomAndPan="magnify"><defs/><g><rect fill="#48494B" height="41.2028" rx="8.3333" ry="8.3333" style="stroke:#545454;stroke-width:1.0416666666666667;" width="457.2917" x="2.0833" y="2.0833"/><text fill="#C0C0C0" font-family="Open Sans,Avenir,Nunito,Arial,Helvetica,SansSerif" font-size="20.8333" lengthAdjust="spacing" textLength="434.375" x="13.5417" y="30.5583">org.apache.wicket.examples.ajax.prototype</text><!--MD5=[8de0e4c819f220f8e0c4c4df41ba59ce]
class WicketExamplePage--><rect fill="#282828" height="48.055" id="WicketExamplePage" rx="8.3333" ry="8.3333" style="stroke:#5E5E5E;stroke-width:1.0416666666666667;" width="164.5833" x="33.3333" y="53.7028"/><rect fill="#1B1B1A" height="31.3883" rx="8.3333" ry="8.3333" style="stroke:#1B1B1A;stroke-width:1.0416666666666667;" width="164.5833" x="33.3333" y="53.7028"/><rect fill="#1B1B1A" height="8.3333" style="stroke:#1B1B1A;stroke-width:1.0416666666666667;" width="164.5833" x="33.3333" y="76.7578"/><rect fill="none" height="48.055" id="WicketExamplePage" rx="8.3333" ry="8.3333" style="stroke:#5E5E5E;stroke-width:1.0416666666666667;" width="164.5833" x="33.3333" y="53.7028"/><ellipse cx="47.9167" cy="69.397" fill="#0066CF" rx="10.4167" ry="10.4167" style="stroke:#0086EF;stroke-width:1.0416666666666667;"/><path d="M49.8271,73.822 Q49.3998,74.0417 48.9299,74.1516 Q48.4599,74.2615 47.9411,74.2615 Q46.0978,74.2615 45.1274,73.0469 Q44.1569,71.8323 44.1569,69.5374 Q44.1569,67.2363 45.1274,66.0217 Q46.0978,64.8071 47.9411,64.8071 Q48.4599,64.8071 48.936,64.917 Q49.412,65.0269 49.8271,65.2466 L49.8271,67.2485 Q49.3632,66.8213 48.9268,66.6229 Q48.4904,66.4246 48.0265,66.4246 Q47.0378,66.4246 46.5342,67.2089 Q46.0307,67.9932 46.0307,69.5374 Q46.0307,71.0754 46.5342,71.8597 Q47.0378,72.644 48.0265,72.644 Q48.4904,72.644 48.9268,72.4457 Q49.3632,72.2473 49.8271,71.8201 Z " fill="#000000"/><text fill="#D8BC00" font-family="Open Sans,Avenir,Nunito,Arial,Helvetica,SansSerif" font-size="12.5" font-weight="bold" lengthAdjust="spacing" textLength="127.0833" x="64.5833" y="74.1211">WicketExamplePage</text><line style="stroke:#5E5E5E;stroke-width:1.0416666666666667;" x1="34.375" x2="196.875" y1="85.0911" y2="85.0911"/><line style="stroke:#5E5E5E;stroke-width:1.0416666666666667;" x1="34.375" x2="196.875" y1="93.4245" y2="93.4245"/><!--MD5=[15b9a87b033c6044cf0e9bbdacb18726]
class Index--><rect codeLine="7" fill="#282828" height="127.0345" id="Index" rx="8.3333" ry="8.3333" style="stroke:#5E5E5E;stroke-width:1.0416666666666667;" width="110.4167" x="60.4167" y="164.1195"/><rect fill="#1B1B1A" height="31.3883" rx="8.3333" ry="8.3333" style="stroke:#1B1B1A;stroke-width:1.0416666666666667;" width="110.4167" x="60.4167" y="164.1195"/><rect fill="#1B1B1A" height="8.3333" style="stroke:#1B1B1A;stroke-width:1.0416666666666667;" width="110.4167" x="60.4167" y="187.1745"/><rect codeLine="7" fill="none" height="127.0345" id="Index" rx="8.3333" ry="8.3333" style="stroke:#5E5E5E;stroke-width:1.0416666666666667;" width="110.4167" x="60.4167" y="164.1195"/><ellipse cx="91.875" cy="179.8136" fill="#0066CF" rx="10.4167" ry="10.4167" style="stroke:#0086EF;stroke-width:1.0416666666666667;"/><path d="M93.7854,184.2387 Q93.3582,184.4584 92.8882,184.5683 Q92.4182,184.6781 91.8994,184.6781 Q90.0562,184.6781 89.0857,183.4635 Q88.1152,182.2489 88.1152,179.954 Q88.1152,177.653 89.0857,176.4384 Q90.0562,175.2238 91.8994,175.2238 Q92.4182,175.2238 92.8943,175.3337 Q93.3704,175.4435 93.7854,175.6632 L93.7854,177.6652 Q93.3215,177.238 92.8851,177.0396 Q92.4487,176.8412 91.9849,176.8412 Q90.9961,176.8412 90.4926,177.6255 Q89.989,178.4098 89.989,179.954 Q89.989,181.4921 90.4926,182.2764 Q90.9961,183.0607 91.9849,183.0607 Q92.4487,183.0607 92.8851,182.8623 Q93.3215,182.664 93.7854,182.2367 Z " fill="#000000"/><text fill="#D8BC00" font-family="Open Sans,Avenir,Nunito,Arial,Helvetica,SansSerif" font-size="12.5" font-weight="bold" lengthAdjust="spacing" textLength="35.4167" x="112.2917" y="184.5378">Index</text><line style="stroke:#5E5E5E;stroke-width:1.5625;" x1="61.4583" x2="169.7917" y1="195.5078" y2="195.5078"/><ellipse cx="71.875" cy="230.8777" fill="#84BE84" rx="3.125" ry="3.125" style="stroke:#038048;stroke-width:1.0416666666666667;"/><text fill="#D8BC00" font-family="Open Sans,Avenir,Nunito,Arial,Helvetica,SansSerif" font-size="11.4583" lengthAdjust="spacing" textLength="39.5833" x="83.3333" y="237.7889">Index()</text><line style="stroke:#5E5E5E;stroke-width:1.0416666666666667;" x1="61.4583" x2="71.875" y1="213.7136" y2="213.7136"/><text fill="#D8BC00" font-family="Open Sans,Avenir,Nunito,Arial,Helvetica,SansSerif" font-size="11.4583" lengthAdjust="spacing" textLength="81.25" x="75" y="217.5232">(constructors)</text><line style="stroke:#5E5E5E;stroke-width:1.0416666666666667;" x1="159.375" x2="169.7917" y1="213.7136" y2="213.7136"/><ellipse cx="71.875" cy="274.5341" fill="#84BE84" rx="3.125" ry="3.125" style="stroke:#038048;stroke-width:1.0416666666666667;"/><text fill="#D8BC00" font-family="Open Sans,Avenir,Nunito,Arial,Helvetica,SansSerif" font-size="11.4583" lengthAdjust="spacing" textLength="78.125" x="83.3333" y="281.4453">int getCount()</text><line style="stroke:#5E5E5E;stroke-width:1.0416666666666667;" x1="61.4583" x2="81.25" y1="257.37" y2="257.37"/><text fill="#D8BC00" font-family="Open Sans,Avenir,Nunito,Arial,Helvetica,SansSerif" font-size="11.4583" lengthAdjust="spacing" textLength="62.5" x="84.375" y="261.1796">(collection)</text><line style="stroke:#5E5E5E;stroke-width:1.0416666666666667;" x1="150" x2="169.7917" y1="257.37" y2="257.37"/><!--MD5=[818b680dd029f5404dc253254408b9c3]
class WicketExampleApplication--><rect fill="#282828" height="48.055" id="WicketExampleApplication" rx="8.3333" ry="8.3333" style="stroke:#5E5E5E;stroke-width:1.0416666666666667;" width="208.3333" x="234.375" y="53.7028"/><rect fill="#1B1B1A" height="31.3883" rx="8.3333" ry="8.3333" style="stroke:#1B1B1A;stroke-width:1.0416666666666667;" width="208.3333" x="234.375" y="53.7028"/><rect fill="#1B1B1A" height="8.3333" style="stroke:#1B1B1A;stroke-width:1.0416666666666667;" width="208.3333" x="234.375" y="76.7578"/><rect fill="none" height="48.055" id="WicketExampleApplication" rx="8.3333" ry="8.3333" style="stroke:#5E5E5E;stroke-width:1.0416666666666667;" width="208.3333" x="234.375" y="53.7028"/><ellipse cx="248.9583" cy="69.397" fill="#0066CF" rx="10.4167" ry="10.4167" style="stroke:#0086EF;stroke-width:1.0416666666666667;"/><path d="M250.8687,73.822 Q250.4415,74.0417 249.9715,74.1516 Q249.5015,74.2615 248.9827,74.2615 Q247.1395,74.2615 246.169,73.0469 Q245.1986,71.8323 245.1986,69.5374 Q245.1986,67.2363 246.169,66.0217 Q247.1395,64.8071 248.9827,64.8071 Q249.5015,64.8071 249.9776,64.917 Q250.4537,65.0269 250.8687,65.2466 L250.8687,67.2485 Q250.4049,66.8213 249.9685,66.6229 Q249.5321,66.4246 249.0682,66.4246 Q248.0794,66.4246 247.5759,67.2089 Q247.0723,67.9932 247.0723,69.5374 Q247.0723,71.0754 247.5759,71.8597 Q248.0794,72.644 249.0682,72.644 Q249.5321,72.644 249.9685,72.4457 Q250.4049,72.2473 250.8687,71.8201 Z " fill="#000000"/><text fill="#D8BC00" font-family="Open Sans,Avenir,Nunito,Arial,Helvetica,SansSerif" font-size="12.5" font-weight="bold" lengthAdjust="spacing" textLength="170.8333" x="265.625" y="74.1211">WicketExampleApplication</text><line style="stroke:#5E5E5E;stroke-width:1.0416666666666667;" x1="235.4167" x2="441.6667" y1="85.0911" y2="85.0911"/><line style="stroke:#5E5E5E;stroke-width:1.0416666666666667;" x1="235.4167" x2="441.6667" y1="93.4245" y2="93.4245"/><!--MD5=[2877dea3198eb8cadb027b2e71d69ca8]
class PrototypeApplication--><rect codeLine="16" fill="#282828" height="48.055" id="PrototypeApplication" rx="8.3333" ry="8.3333" style="stroke:#5E5E5E;stroke-width:1.0416666666666667;" width="173.9583" x="251.5625" y="203.7028"/><rect fill="#1B1B1A" height="31.3883" rx="8.3333" ry="8.3333" style="stroke:#1B1B1A;stroke-width:1.0416666666666667;" width="173.9583" x="251.5625" y="203.7028"/><rect fill="#1B1B1A" height="8.3333" style="stroke:#1B1B1A;stroke-width:1.0416666666666667;" width="173.9583" x="251.5625" y="226.7578"/><rect codeLine="16" fill="none" height="48.055" id="PrototypeApplication" rx="8.3333" ry="8.3333" style="stroke:#5E5E5E;stroke-width:1.0416666666666667;" width="173.9583" x="251.5625" y="203.7028"/><ellipse cx="266.1458" cy="219.397" fill="#0066CF" rx="10.4167" ry="10.4167" style="stroke:#0086EF;stroke-width:1.0416666666666667;"/><path d="M268.0562,223.822 Q267.629,224.0417 267.159,224.1516 Q266.689,224.2615 266.1702,224.2615 Q264.327,224.2615 263.3565,223.0469 Q262.3861,221.8323 262.3861,219.5374 Q262.3861,217.2363 263.3565,216.0217 Q264.327,214.8071 266.1702,214.8071 Q266.689,214.8071 267.1651,214.917 Q267.6412,215.0269 268.0562,215.2466 L268.0562,217.2485 Q267.5924,216.8213 267.156,216.6229 Q266.7196,216.4246 266.2557,216.4246 Q265.2669,216.4246 264.7634,217.2089 Q264.2598,217.9932 264.2598,219.5374 Q264.2598,221.0754 264.7634,221.8597 Q265.2669,222.644 266.2557,222.644 Q266.7196,222.644 267.156,222.4457 Q267.5924,222.2473 268.0562,221.8201 Z " fill="#000000"/><text fill="#D8BC00" font-family="Open Sans,Avenir,Nunito,Arial,Helvetica,SansSerif" font-size="12.5" font-weight="bold" lengthAdjust="spacing" textLength="136.4583" x="282.8125" y="224.1211">PrototypeApplication</text><line style="stroke:#5E5E5E;stroke-width:1.0416666666666667;" x1="252.6042" x2="424.4792" y1="235.0911" y2="235.0911"/><line style="stroke:#5E5E5E;stroke-width:1.0416666666666667;" x1="252.6042" x2="424.4792" y1="243.4245" y2="243.4245"/><!--MD5=[c91da0eefb8de17b5450c128c5c2e461]
reverse link WicketExamplePage to Index--><path codeLine="6" d="M115.625,123.057 C115.625,135.9632 115.625,150.307 115.625,164.109 " fill="none" id="WicketExamplePage-backto-Index" style="stroke:#545454;stroke-width:1.5625;"/><polygon fill="none" points="108.3333,122.6507,115.625,101.8174,122.9167,122.6507,108.3333,122.6507" style="stroke:#545454;stroke-width:1.5625;"/><!--MD5=[e971800b57d5b4c71c905d6d19211509]
reverse link WicketExampleApplication to PrototypeApplication--><path codeLine="15" d="M338.5417,122.7236 C338.5417,149.3174 338.5417,182.1299 338.5417,203.6715 " fill="none" id="WicketExampleApplication-backto-PrototypeApplication" style="stroke:#545454;stroke-width:1.5625;"/><polygon fill="none" points="331.25,122.6507,338.5417,101.8174,345.8333,122.6507,331.25,122.6507" style="stroke:#545454;stroke-width:1.5625;"/><!--MD5=[9a67a498b2b095bf36153367bcf434be]
@startuml

    !include lexakai.theme
    
    title "org.apache.wicket.examples.ajax.prototype"
    
    WicketExamplePage <|- - Index
    class Index
    {
        - -(constructors)- -
        +Index()
        - -(collection)- -
        +int getCount()
    }
    
    WicketExampleApplication <|- - PrototypeApplication
    class PrototypeApplication
    {
    }
    
@enduml

@startuml









skinparam backgroundColor #333333






skinparam  {
    defaultFontName   "Open Sans,Avenir,Nunito,Arial,Helvetica,SansSerif"
    defaultFontSize   12
    defaultTextAlignment left
    shadowing false
    RoundCorner 10
    TitleFontSize 18
}

skinparam defaultFontName       "Open Sans,Avenir,Nunito,Arial,Helvetica,SansSerif"
skinparam defaultFontSize       12
skinparam dpi                   100
skinparam shadowing             false
skinparam roundcorner           16
skinparam ParticipantPadding    40
skinparam BoxPadding            40
skinparam Padding               3
skinparam ArrowColor            #545454
skinparam stereotype {
    CBackgroundColor #0066cf
    CBorderColor #0086ef
    ABackgroundColor #C8Ac00
    ABorderColor #D8Bc00
    IBackgroundColor #008400
    IBorderColor #239c23
    EBackgroundColor #cf6300
    EBorderColor #ef8300
    NBackgroundColor #3380b9
    NBorderColor #004d86
}
skinparam title {
	FontColor	                 #c0c0c0
 	BorderColor                  #545454
	FontSize	    	         20
	BorderRoundCorner            16
	BorderThickness 	         1
	BackgroundColor              #48494b
}


skinparam legend {
	BackgroundColor #303030
	BorderColor #404040
	FontColor #a0a0a0
}

	skinparam swimlane {
	BorderColor #5e5e5e
	BorderThickness 2
	TitleBackgroundColor  #6d6d6d-#484848
	TitleFontColor #303030
}

skinparam activity {
		FontColor #C8Ac00
	BorderColor #333333
	BackgroundColor #333333-#333333
	BarColor #00FF00
	StartColor #0060a8
	EndColor #0060a8
	DiamondBackgroundColor #6d6d6d-#3a3a3a
  	DiamondBorderColor #3a3a3a
  	DiamondFontColor #fefefe
}


skinparam participant {
		FontColor #C8Ac00
	BorderColor #333333
	BackgroundColor #333333-#333333
	ParticipantBorderThickness 2
}


skinparam actor {
		FontColor #C8Ac00
	BorderColor #333333
	BackgroundColor #333333-#333333
}


skinparam arrow {
	Thickness 1.5
	Color #545454
	FontColor #a0a0a0
    FontStyle bold
    MessageAlignment center
}



skinparam sequence {
	BorderColor #303030
	TitleFontColor #303030
	BackgroundColor #333333
	StartColor #303030
	EndColor #303030
	BoxBackgroundColor #333333
	BoxBorderColor #484848
	BoxFontColor #484848
	LifeLineBorderColor #484848
	LifeLineBorderThickness 2
	LifeLineBackgroundColor #3a3a3a
	GroupBorderColor #484848
	GroupFontColor #484848
	GroupHeaderFontColor #0060a8
	GroupBackgroundColor #484848
	GroupHeaderBackgroundColor #333333
	DividerBackgroundColor #484848
    DividerBorderColor #484848
    DividerBorderThickness 2
    DividerFontColor #D8Bc00
	ReferenceBackgroundColor #333333
	ReferenceBorderColor #484848
	ReferenceFontColor #fefefe
	ReferenceHeaderBackgroundColor #484848
}


skinparam partition {
	BorderColor #303030
	FontColor #333333
	BackgroundColor #333333
}


skinparam collections {
		FontColor #C8Ac00
	BorderColor #333333
	BackgroundColor #333333-#333333
}


skinparam control {
		FontColor #C8Ac00
	BorderColor #333333
	BackgroundColor #333333-#333333
}


skinparam entity {
		FontColor #C8Ac00
	BorderColor #333333
	BackgroundColor #333333-#333333
}


skinparam boundary {
		FontColor #C8Ac00
	BorderColor #333333
	BackgroundColor #333333-#333333
}


skinparam agent {
	BackgroundColor #ff8000
	BorderColor #ff9933
	FontColor #484848
}


skinparam note {
	BorderThickness 1
	BackgroundColor #1b1b1a
	BorderColor #5e5e5e
	FontSize 11
	FontColor #a0a0a0
}


skinparam artifact {
	BorderThickness 10
	BorderColor #5e5e5e
	BackgroundColor #1b1b1a
	FontColor #D8Bc00
}


skinparam component {
		FontColor #C8Ac00
	BorderColor #333333
	BackgroundColor #333333-#333333
}


skinparam interface {
	BackgroundColor  #008400
	BorderColor  #007F00
	FontColor #484848
}


skinparam storage {
	BackgroundColor #ff8000
  	BorderColor #cc6600
	FontColor #222222
}


skinparam node {
	BackgroundColor #333333
	BorderColor #333333
	FontColor #C8Ac00
}


skinparam cloud {
	BackgroundColor #484848-black
	BorderColor #484848
	FontColor #D8Bc00
}


skinparam database {
		FontColor #C8Ac00
	BorderColor #333333
	BackgroundColor #333333-#333333
	BackgroundColor  #333333
}


skinparam class {
		FontColor #C8Ac00
	BorderColor #333333
	BackgroundColor #333333-#333333
	HeaderBackgroundColor #1b1b1a
    BackgroundColor #282828
    BorderColor #5e5e5e
 	StereotypeFontColor #a0a0a0
    StereotypeFontStyle bold
	BorderThickness 1
	AttributeFontColor #D8Bc00
	AttributeFontSize 11
    FontColor #D8Bc00
    FontStyle bold
}


skinparam object {
		FontColor #C8Ac00
	BorderColor #333333
	BackgroundColor #333333-#333333
	StereotypeFontColor #484848
	BorderThickness 1
	AttributeFontColor #fefefe
	AttributeFontSize 11
}


skinparam usecase {
		FontColor #C8Ac00
	BorderColor #333333
	BackgroundColor #333333-#333333
	BorderThickness 2
	StereotypeFontColor #303030
}


skinparam rectangle {
		FontColor #C8Ac00
	BorderColor #333333
	BackgroundColor #333333-#333333
	BackgroundColor #333333
	BorderThickness 2
	StereotypeFontColor #303030
}


skinparam package {
		FontColor #C8Ac00
	BorderColor #333333
	BackgroundColor #333333-#333333
	BackgroundColor #333333
	BorderThickness 2
}


skinparam folder {
	BackgroundColor #6d6d6d
  	BorderColor #ff8000
	FontColor #ff8000
	BorderThickness 2
}


skinparam frame {
	BackgroundColor #6d6d6d
  	BorderColor #0060a8
	FontColor #0060a8
	BorderThickness 2
}


skinparam state {
		FontColor #C8Ac00
	BorderColor #333333
	BackgroundColor #333333-#333333
	StartColor #0060a8
	EndColor #0060a8
	AttributeFontColor #fefefe
	AttributeFontSize 11
}


skinparam queue {
		FontColor #C8Ac00
	BorderColor #333333
	BackgroundColor #333333-#333333
}


skinparam card {
	BackgroundColor #0060a8
	BorderColor #004d86
	FontColor $INFO_TEXT
}


skinparam file {
	BackgroundColor #6d6d6d-#484848
	BorderColor #0060a8
	FontColor #fefefe
}


skinparam stack {
		FontColor #C8Ac00
	BorderColor #333333
	BackgroundColor #333333-#333333
}

    
    title "org.apache.wicket.examples.ajax.prototype"
    
    WicketExamplePage <|- - Index
    class Index
    {
        - -(constructors)- -
        +Index()
        - -(collection)- -
        +int getCount()
    }
    
    WicketExampleApplication <|- - PrototypeApplication
    class PrototypeApplication
    {
    }
    
@enduml

PlantUML version 1.2021.01(Tue Feb 02 00:55:08 MST 2021)
(GPL source distribution)
Java Runtime: Java(TM) SE Runtime Environment
JVM: Java HotSpot(TM) 64-Bit Server VM
Default Encoding: UTF-8
Language: en
Country: US
--></g></svg>