<?xml version="1.0" encoding="utf-8"?>
<svg viewBox="0 0 512 72" xmlns="http://www.w3.org/2000/svg">
  <defs>
    <linearGradient gradientUnits="userSpaceOnUse" x1="251.401" y1="180.487" x2="251.401" y2="237.229" id="gradient-2" gradientTransform="matrix(-0.074224, -0.372939, 9.354338, -0.264696, -1681.359838, 180.928301)">
      <stop offset="0" style="stop-color: rgba(0, 149, 255, 0)"/>
      <stop offset="1" style="stop-color: rgba(0, 89, 153, 0);"/>
    </linearGradient>
    <linearGradient gradientUnits="userSpaceOnUse" x1="251.401" y1="180.487" x2="251.401" y2="237.229" id="gradient-3" gradientTransform="matrix(0.08532, 0.371926, -9.444523, 0.384616, 2202.308253, -139.361387)">
      <stop offset="0" style="stop-color: rgb(255, 147, 0);"/>
      <stop offset="1" style="stop-color: rgb(0, 150, 255);"/>
    </linearGradient>
    <linearGradient gradientUnits="userSpaceOnUse" x1="683.952" y1="17.49" x2="683.952" y2="51.884" id="gradient-0" gradientTransform="matrix(0.000743, -0.514705, 15.447501, 0.022274, -283.251165, 414.285631)">
      <stop offset="0" style="stop-color: rgb(0, 150, 255);"/>
      <stop offset="1" style="stop-color: rgb(255, 147, 0);"/>
    </linearGradient>
    <linearGradient gradientUnits="userSpaceOnUse" x1="683.952" y1="17.49" x2="683.952" y2="51.884" id="gradient-1" gradientTransform="matrix(-0.010003, -0.514607, 15.562342, -0.302519, -255.130926, 477.154009)">
      <stop offset="0" style="stop-color: rgb(0, 150, 255);"/>
      <stop offset="1" style="stop-color: rgb(255, 147, 0);"/>
    </linearGradient>
  </defs>
  <path style="fill: rgba(216, 216, 216, 0); stroke: url(#gradient-0); stroke-width: 32px; stroke-opacity: 0.63;" d="M -15.796 33.189 C 10.627 27.491 106.255 62.519 232.689 37.16 C 341.347 15.367 484.3 36.321 516.765 36.739"/>
  <path style="stroke-width: 32px; fill: url(#gradient-2); stroke: url(#gradient-3); stroke-opacity: 0.63;" d="M 519.287 23.474 C 480.153 24.533 429.596 36.563 390.47 37.652 C 349.068 38.805 259.895 33.791 174.573 28.344 C 81.261 22.388 -6.644 44.406 -23.228 44.915"/>
  <path style="fill: rgba(216, 216, 216, 0); stroke-width: 32px; stroke: url(#gradient-1); stroke-opacity: 0.63;" d="M -15.744 17.788 C -2.889 18.841 22.775 37.924 112.007 37.353 C 135.065 37.205 234.538 22.546 259.259 20.39 C 429.778 5.521 479.59 51.103 536.955 56.521"/>
</svg>