<?xml version="1.0" encoding="UTF-8" standalone="no"?><svg xmlns="http://www.w3.org/2000/svg" xmlns:xlink="http://www.w3.org/1999/xlink" contentScriptType="application/ecmascript" contentStyleType="text/css" height="318.75px" preserveAspectRatio="none" style="width:2090px;height:318px;background:#333333;" version="1.1" viewBox="0 0 2090 318" width="2090.625px" zoomAndPan="magnify"><defs/><g><rect fill="#48494B" height="41.2028" rx="8.3333" ry="8.3333" style="stroke:#545454;stroke-width:1.0416666666666667;" width="137.5" x="969.5313" y="2.0833"/><text fill="#C0C0C0" font-family="Open Sans,Avenir,Nunito,Arial,Helvetica,SansSerif" font-size="20.8333" lengthAdjust="spacing" textLength="114.5833" x="980.9896" y="30.5583">wicket-jmx</text><!--MD5=[74d1b43295103c6787fd1fee471f3939]
entity cglib--><rect fill="#1B1B1A" height="44.93" rx="8.3333" ry="8.3333" style="stroke:#5E5E5E;stroke-width:1.5625;" width="65.625" x="32.2917" y="53.7028"/><polygon fill="#1B1B1A" points="80.2083,58.9111,80.2083,73.4945,92.7083,73.4945,92.7083,65.1611,86.4583,58.9111,80.2083,58.9111" style="stroke:#5E5E5E;stroke-width:1.5625;"/><line style="stroke:#5E5E5E;stroke-width:1.5625;" x1="86.4583" x2="86.4583" y1="58.9111" y2="65.1611"/><line style="stroke:#5E5E5E;stroke-width:1.5625;" x1="92.7083" x2="86.4583" y1="65.1611" y2="65.1611"/><text fill="#D8BC00" font-family="Open Sans,Avenir,Nunito,Arial,Helvetica,SansSerif" font-size="12.5" lengthAdjust="spacing" textLength="28.125" x="45.8333" y="82.4544">cglib</text><!--MD5=[83364df2ff47e8d52fd75af27391e023]
entity openjson--><rect fill="#1B1B1A" height="44.93" rx="8.3333" ry="8.3333" style="stroke:#5E5E5E;stroke-width:1.5625;" width="92.7083" x="284.375" y="160.9945"/><polygon fill="#1B1B1A" points="359.375,166.2028,359.375,180.7861,371.875,180.7861,371.875,172.4528,365.625,166.2028,359.375,166.2028" style="stroke:#5E5E5E;stroke-width:1.5625;"/><line style="stroke:#5E5E5E;stroke-width:1.5625;" x1="365.625" x2="365.625" y1="166.2028" y2="172.4528"/><line style="stroke:#5E5E5E;stroke-width:1.5625;" x1="371.875" x2="365.625" y1="172.4528" y2="172.4528"/><text fill="#D8BC00" font-family="Open Sans,Avenir,Nunito,Arial,Helvetica,SansSerif" font-size="12.5" lengthAdjust="spacing" textLength="55.2083" x="297.9167" y="189.7461">openjson</text><!--MD5=[b8642f4d11f39d368691e95658a70571]
entity commons_fileupload--><rect fill="#1B1B1A" height="44.93" rx="8.3333" ry="8.3333" style="stroke:#5E5E5E;stroke-width:1.5625;" width="160.4167" x="374.4792" y="268.2861"/><polygon fill="#1B1B1A" points="517.1875,273.4945,517.1875,288.0778,529.6875,288.0778,529.6875,279.7445,523.4375,273.4945,517.1875,273.4945" style="stroke:#5E5E5E;stroke-width:1.5625;"/><line style="stroke:#5E5E5E;stroke-width:1.5625;" x1="523.4375" x2="523.4375" y1="273.4945" y2="279.7445"/><line style="stroke:#5E5E5E;stroke-width:1.5625;" x1="529.6875" x2="523.4375" y1="279.7445" y2="279.7445"/><text fill="#D8BC00" font-family="Open Sans,Avenir,Nunito,Arial,Helvetica,SansSerif" font-size="12.5" lengthAdjust="spacing" textLength="122.9167" x="388.0208" y="297.0378">commons_fileupload</text><!--MD5=[26b411a1b4c483916c801c7aad1add62]
entity commons_io--><rect fill="#1B1B1A" height="44.93" rx="8.3333" ry="8.3333" style="stroke:#5E5E5E;stroke-width:1.5625;" width="111.4583" x="571.875" y="268.2861"/><polygon fill="#1B1B1A" points="665.625,273.4945,665.625,288.0778,678.125,288.0778,678.125,279.7445,671.875,273.4945,665.625,273.4945" style="stroke:#5E5E5E;stroke-width:1.5625;"/><line style="stroke:#5E5E5E;stroke-width:1.5625;" x1="671.875" x2="671.875" y1="273.4945" y2="279.7445"/><line style="stroke:#5E5E5E;stroke-width:1.5625;" x1="678.125" x2="671.875" y1="279.7445" y2="279.7445"/><text fill="#D8BC00" font-family="Open Sans,Avenir,Nunito,Arial,Helvetica,SansSerif" font-size="12.5" lengthAdjust="spacing" textLength="73.9583" x="585.4167" y="297.0378">commons_io</text><!--MD5=[88a18b84af72aac0baa747f98e10bd90]
entity jakarta_servlet_api--><rect fill="#1B1B1A" height="44.93" rx="8.3333" ry="8.3333" style="stroke:#5E5E5E;stroke-width:1.5625;" width="151.0417" x="134.375" y="53.7028"/><polygon fill="#1B1B1A" points="267.7083,58.9111,267.7083,73.4945,280.2083,73.4945,280.2083,65.1611,273.9583,58.9111,267.7083,58.9111" style="stroke:#5E5E5E;stroke-width:1.5625;"/><line style="stroke:#5E5E5E;stroke-width:1.5625;" x1="273.9583" x2="273.9583" y1="58.9111" y2="65.1611"/><line style="stroke:#5E5E5E;stroke-width:1.5625;" x1="280.2083" x2="273.9583" y1="65.1611" y2="65.1611"/><text fill="#D8BC00" font-family="Open Sans,Avenir,Nunito,Arial,Helvetica,SansSerif" font-size="12.5" lengthAdjust="spacing" textLength="113.5417" x="147.9167" y="82.4544">jakarta_servlet_api</text><!--MD5=[907dfa26722c2bcd0e79bfb32775d5c3]
entity log4j--><rect fill="#1B1B1A" height="44.93" rx="8.3333" ry="8.3333" style="stroke:#5E5E5E;stroke-width:1.5625;" width="67.7083" x="946.875" y="160.9945"/><polygon fill="#1B1B1A" points="996.875,166.2028,996.875,180.7861,1009.375,180.7861,1009.375,172.4528,1003.125,166.2028,996.875,166.2028" style="stroke:#5E5E5E;stroke-width:1.5625;"/><line style="stroke:#5E5E5E;stroke-width:1.5625;" x1="1003.125" x2="1003.125" y1="166.2028" y2="172.4528"/><line style="stroke:#5E5E5E;stroke-width:1.5625;" x1="1009.375" x2="1003.125" y1="172.4528" y2="172.4528"/><text fill="#D8BC00" font-family="Open Sans,Avenir,Nunito,Arial,Helvetica,SansSerif" font-size="12.5" lengthAdjust="spacing" textLength="30.2083" x="960.4167" y="189.7461">log4j</text><!--MD5=[4ff87df6ca00ec4715fce5605f10cfb8]
entity byte_buddy_agent--><rect fill="#1B1B1A" height="44.93" rx="8.3333" ry="8.3333" style="stroke:#5E5E5E;stroke-width:1.5625;" width="147.9167" x="1051.5625" y="160.9945"/><polygon fill="#1B1B1A" points="1181.7708,166.2028,1181.7708,180.7861,1194.2708,180.7861,1194.2708,172.4528,1188.0208,166.2028,1181.7708,166.2028" style="stroke:#5E5E5E;stroke-width:1.5625;"/><line style="stroke:#5E5E5E;stroke-width:1.5625;" x1="1188.0208" x2="1188.0208" y1="166.2028" y2="172.4528"/><line style="stroke:#5E5E5E;stroke-width:1.5625;" x1="1194.2708" x2="1188.0208" y1="172.4528" y2="172.4528"/><text fill="#D8BC00" font-family="Open Sans,Avenir,Nunito,Arial,Helvetica,SansSerif" font-size="12.5" lengthAdjust="spacing" textLength="110.4167" x="1065.1042" y="189.7461">byte_buddy_agent</text><!--MD5=[4b7412f65198b4c52d4b80fff6e833ea]
entity byte_buddy--><rect fill="#1B1B1A" height="44.93" rx="8.3333" ry="8.3333" style="stroke:#5E5E5E;stroke-width:1.5625;" width="108.3333" x="1235.9375" y="160.9945"/><polygon fill="#1B1B1A" points="1326.5625,166.2028,1326.5625,180.7861,1339.0625,180.7861,1339.0625,172.4528,1332.8125,166.2028,1326.5625,166.2028" style="stroke:#5E5E5E;stroke-width:1.5625;"/><line style="stroke:#5E5E5E;stroke-width:1.5625;" x1="1332.8125" x2="1332.8125" y1="166.2028" y2="172.4528"/><line style="stroke:#5E5E5E;stroke-width:1.5625;" x1="1339.0625" x2="1332.8125" y1="172.4528" y2="172.4528"/><text fill="#D8BC00" font-family="Open Sans,Avenir,Nunito,Arial,Helvetica,SansSerif" font-size="12.5" lengthAdjust="spacing" textLength="70.8333" x="1249.4792" y="189.7461">byte_buddy</text><!--MD5=[798a9de1932ba9fd78d52168f99e5e87]
entity commons_collections4--><rect fill="#1B1B1A" height="44.93" rx="8.3333" ry="8.3333" style="stroke:#5E5E5E;stroke-width:1.5625;" width="170.8333" x="720.3125" y="268.2861"/><polygon fill="#1B1B1A" points="873.4375,273.4945,873.4375,288.0778,885.9375,288.0778,885.9375,279.7445,879.6875,273.4945,873.4375,273.4945" style="stroke:#5E5E5E;stroke-width:1.5625;"/><line style="stroke:#5E5E5E;stroke-width:1.5625;" x1="879.6875" x2="879.6875" y1="273.4945" y2="279.7445"/><line style="stroke:#5E5E5E;stroke-width:1.5625;" x1="885.9375" x2="879.6875" y1="279.7445" y2="279.7445"/><text fill="#D8BC00" font-family="Open Sans,Avenir,Nunito,Arial,Helvetica,SansSerif" font-size="12.5" lengthAdjust="spacing" textLength="133.3333" x="733.8542" y="297.0378">commons_collections4</text><!--MD5=[1d1f5c096c11f31d2ecce961a8a5207b]
entity wicket_core--><rect fill="#1B1B1A" height="44.93" rx="8.3333" ry="8.3333" style="stroke:#5E5E5E;stroke-width:1.5625;" width="107.2917" x="498.9583" y="53.7028"/><polygon fill="#1B1B1A" points="588.5417,58.9111,588.5417,73.4945,601.0417,73.4945,601.0417,65.1611,594.7917,58.9111,588.5417,58.9111" style="stroke:#5E5E5E;stroke-width:1.5625;"/><line style="stroke:#5E5E5E;stroke-width:1.5625;" x1="594.7917" x2="594.7917" y1="58.9111" y2="65.1611"/><line style="stroke:#5E5E5E;stroke-width:1.5625;" x1="601.0417" x2="594.7917" y1="65.1611" y2="65.1611"/><text fill="#D8BC00" font-family="Open Sans,Avenir,Nunito,Arial,Helvetica,SansSerif" font-size="12.5" lengthAdjust="spacing" textLength="69.7917" x="512.5" y="82.4544">wicket_core</text><!--MD5=[2773ab4f61ea46894756c769c8075295]
entity wicket_request--><rect fill="#1B1B1A" height="44.93" rx="8.3333" ry="8.3333" style="stroke:#5E5E5E;stroke-width:1.5625;" width="127.0833" x="414.0625" y="160.9945"/><polygon fill="#1B1B1A" points="523.4375,166.2028,523.4375,180.7861,535.9375,180.7861,535.9375,172.4528,529.6875,166.2028,523.4375,166.2028" style="stroke:#5E5E5E;stroke-width:1.5625;"/><line style="stroke:#5E5E5E;stroke-width:1.5625;" x1="529.6875" x2="529.6875" y1="166.2028" y2="172.4528"/><line style="stroke:#5E5E5E;stroke-width:1.5625;" x1="535.9375" x2="529.6875" y1="172.4528" y2="172.4528"/><text fill="#D8BC00" font-family="Open Sans,Avenir,Nunito,Arial,Helvetica,SansSerif" font-size="12.5" lengthAdjust="spacing" textLength="89.5833" x="427.6042" y="189.7461">wicket_request</text><!--MD5=[3ac1d6494a45af2432a9a4f3438247e5]
entity wicket_util--><rect fill="#1B1B1A" height="44.93" rx="8.3333" ry="8.3333" style="stroke:#5E5E5E;stroke-width:1.5625;" width="98.9583" x="578.125" y="160.9945"/><polygon fill="#1B1B1A" points="659.375,166.2028,659.375,180.7861,671.875,180.7861,671.875,172.4528,665.625,166.2028,659.375,166.2028" style="stroke:#5E5E5E;stroke-width:1.5625;"/><line style="stroke:#5E5E5E;stroke-width:1.5625;" x1="665.625" x2="665.625" y1="166.2028" y2="172.4528"/><line style="stroke:#5E5E5E;stroke-width:1.5625;" x1="671.875" x2="665.625" y1="172.4528" y2="172.4528"/><text fill="#D8BC00" font-family="Open Sans,Avenir,Nunito,Arial,Helvetica,SansSerif" font-size="12.5" lengthAdjust="spacing" textLength="61.4583" x="591.6667" y="189.7461">wicket_util</text><!--MD5=[9ca5736865ad522015f112acaf757dc2]
entity apiguardian_api--><rect fill="#1B1B1A" height="44.93" rx="8.3333" ry="8.3333" style="stroke:#5E5E5E;stroke-width:1.5625;" width="134.375" x="1512.5" y="160.9945"/><polygon fill="#1B1B1A" points="1629.1667,166.2028,1629.1667,180.7861,1641.6667,180.7861,1641.6667,172.4528,1635.4167,166.2028,1629.1667,166.2028" style="stroke:#5E5E5E;stroke-width:1.5625;"/><line style="stroke:#5E5E5E;stroke-width:1.5625;" x1="1635.4167" x2="1635.4167" y1="166.2028" y2="172.4528"/><line style="stroke:#5E5E5E;stroke-width:1.5625;" x1="1641.6667" x2="1635.4167" y1="172.4528" y2="172.4528"/><text fill="#D8BC00" font-family="Open Sans,Avenir,Nunito,Arial,Helvetica,SansSerif" font-size="12.5" lengthAdjust="spacing" textLength="96.875" x="1526.0417" y="189.7461">apiguardian_api</text><!--MD5=[36160172b96c05987554ef5157bd1d99]
entity jdk_serializable_functional--><rect fill="#1B1B1A" height="44.93" rx="8.3333" ry="8.3333" style="stroke:#5E5E5E;stroke-width:1.5625;" width="195.8333" x="714.0625" y="160.9945"/><polygon fill="#1B1B1A" points="892.1875,166.2028,892.1875,180.7861,904.6875,180.7861,904.6875,172.4528,898.4375,166.2028,892.1875,166.2028" style="stroke:#5E5E5E;stroke-width:1.5625;"/><line style="stroke:#5E5E5E;stroke-width:1.5625;" x1="898.4375" x2="898.4375" y1="166.2028" y2="172.4528"/><line style="stroke:#5E5E5E;stroke-width:1.5625;" x1="904.6875" x2="898.4375" y1="172.4528" y2="172.4528"/><text fill="#D8BC00" font-family="Open Sans,Avenir,Nunito,Arial,Helvetica,SansSerif" font-size="12.5" lengthAdjust="spacing" textLength="158.3333" x="727.6042" y="189.7461">jdk_serializable_functional</text><!--MD5=[67ea71966aa57e3ddf5b1acb79bd106c]
entity junit_jupiter_api--><rect fill="#1B1B1A" height="44.93" rx="8.3333" ry="8.3333" style="stroke:#5E5E5E;stroke-width:1.5625;" width="134.375" x="1683.3333" y="160.9945"/><polygon fill="#1B1B1A" points="1800,166.2028,1800,180.7861,1812.5,180.7861,1812.5,172.4528,1806.25,166.2028,1800,166.2028" style="stroke:#5E5E5E;stroke-width:1.5625;"/><line style="stroke:#5E5E5E;stroke-width:1.5625;" x1="1806.25" x2="1806.25" y1="166.2028" y2="172.4528"/><line style="stroke:#5E5E5E;stroke-width:1.5625;" x1="1812.5" x2="1806.25" y1="172.4528" y2="172.4528"/><text fill="#D8BC00" font-family="Open Sans,Avenir,Nunito,Arial,Helvetica,SansSerif" font-size="12.5" lengthAdjust="spacing" textLength="96.875" x="1696.875" y="189.7461">junit_jupiter_api</text><!--MD5=[def59a02e843c50310240afbb884053d]
entity junit_jupiter_engine--><rect fill="#1B1B1A" height="44.93" rx="8.3333" ry="8.3333" style="stroke:#5E5E5E;stroke-width:1.5625;" width="155.2083" x="1672.9167" y="53.7028"/><polygon fill="#1B1B1A" points="1810.4167,58.9111,1810.4167,73.4945,1822.9167,73.4945,1822.9167,65.1611,1816.6667,58.9111,1810.4167,58.9111" style="stroke:#5E5E5E;stroke-width:1.5625;"/><line style="stroke:#5E5E5E;stroke-width:1.5625;" x1="1816.6667" x2="1816.6667" y1="58.9111" y2="65.1611"/><line style="stroke:#5E5E5E;stroke-width:1.5625;" x1="1822.9167" x2="1816.6667" y1="65.1611" y2="65.1611"/><text fill="#D8BC00" font-family="Open Sans,Avenir,Nunito,Arial,Helvetica,SansSerif" font-size="12.5" lengthAdjust="spacing" textLength="117.7083" x="1686.4583" y="82.4544">junit_jupiter_engine</text><!--MD5=[16ac86175dbfd8781882e642bc1db0bb]
entity junit_platform_commons--><rect fill="#1B1B1A" height="44.93" rx="8.3333" ry="8.3333" style="stroke:#5E5E5E;stroke-width:1.5625;" width="184.375" x="1755.2083" y="268.2861"/><polygon fill="#1B1B1A" points="1921.875,273.4945,1921.875,288.0778,1934.375,288.0778,1934.375,279.7445,1928.125,273.4945,1921.875,273.4945" style="stroke:#5E5E5E;stroke-width:1.5625;"/><line style="stroke:#5E5E5E;stroke-width:1.5625;" x1="1928.125" x2="1928.125" y1="273.4945" y2="279.7445"/><line style="stroke:#5E5E5E;stroke-width:1.5625;" x1="1934.375" x2="1928.125" y1="279.7445" y2="279.7445"/><text fill="#D8BC00" font-family="Open Sans,Avenir,Nunito,Arial,Helvetica,SansSerif" font-size="12.5" lengthAdjust="spacing" textLength="146.875" x="1768.75" y="297.0378">junit_platform_commons</text><!--MD5=[c94fa6fb52256b56717125d5f4ed3cc6]
entity junit_platform_engine--><rect fill="#1B1B1A" height="44.93" rx="8.3333" ry="8.3333" style="stroke:#5E5E5E;stroke-width:1.5625;" width="166.6667" x="1854.6875" y="160.9945"/><polygon fill="#1B1B1A" points="2003.6458,166.2028,2003.6458,180.7861,2016.1458,180.7861,2016.1458,172.4528,2009.8958,166.2028,2003.6458,166.2028" style="stroke:#5E5E5E;stroke-width:1.5625;"/><line style="stroke:#5E5E5E;stroke-width:1.5625;" x1="2009.8958" x2="2009.8958" y1="166.2028" y2="172.4528"/><line style="stroke:#5E5E5E;stroke-width:1.5625;" x1="2016.1458" x2="2009.8958" y1="172.4528" y2="172.4528"/><text fill="#D8BC00" font-family="Open Sans,Avenir,Nunito,Arial,Helvetica,SansSerif" font-size="12.5" lengthAdjust="spacing" textLength="129.1667" x="1868.2292" y="189.7461">junit_platform_engine</text><!--MD5=[a68d3636c404b547973d4378239fa3aa]
entity mockito_core--><rect fill="#1B1B1A" height="44.93" rx="8.3333" ry="8.3333" style="stroke:#5E5E5E;stroke-width:1.5625;" width="116.6667" x="1231.7708" y="53.7028"/><polygon fill="#1B1B1A" points="1330.7292,58.9111,1330.7292,73.4945,1343.2292,73.4945,1343.2292,65.1611,1336.9792,58.9111,1330.7292,58.9111" style="stroke:#5E5E5E;stroke-width:1.5625;"/><line style="stroke:#5E5E5E;stroke-width:1.5625;" x1="1336.9792" x2="1336.9792" y1="58.9111" y2="65.1611"/><line style="stroke:#5E5E5E;stroke-width:1.5625;" x1="1343.2292" x2="1336.9792" y1="65.1611" y2="65.1611"/><text fill="#D8BC00" font-family="Open Sans,Avenir,Nunito,Arial,Helvetica,SansSerif" font-size="12.5" lengthAdjust="spacing" textLength="79.1667" x="1245.3125" y="82.4544">mockito_core</text><!--MD5=[b3c862d1486667ad9c7edef6529b2202]
entity objenesis--><rect fill="#1B1B1A" height="44.93" rx="8.3333" ry="8.3333" style="stroke:#5E5E5E;stroke-width:1.5625;" width="94.7917" x="1381.25" y="160.9945"/><polygon fill="#1B1B1A" points="1458.3333,166.2028,1458.3333,180.7861,1470.8333,180.7861,1470.8333,172.4528,1464.5833,166.2028,1458.3333,166.2028" style="stroke:#5E5E5E;stroke-width:1.5625;"/><line style="stroke:#5E5E5E;stroke-width:1.5625;" x1="1464.5833" x2="1464.5833" y1="166.2028" y2="172.4528"/><line style="stroke:#5E5E5E;stroke-width:1.5625;" x1="1470.8333" x2="1464.5833" y1="172.4528" y2="172.4528"/><text fill="#D8BC00" font-family="Open Sans,Avenir,Nunito,Arial,Helvetica,SansSerif" font-size="12.5" lengthAdjust="spacing" textLength="57.2917" x="1394.7917" y="189.7461">objenesis</text><!--MD5=[ba030213f11f5a3d5b319bb69903d2f9]
entity opentest4j--><rect fill="#1B1B1A" height="44.93" rx="8.3333" ry="8.3333" style="stroke:#5E5E5E;stroke-width:1.5625;" width="102.0833" x="1976.5625" y="268.2861"/><polygon fill="#1B1B1A" points="2060.9375,273.4945,2060.9375,288.0778,2073.4375,288.0778,2073.4375,279.7445,2067.1875,273.4945,2060.9375,273.4945" style="stroke:#5E5E5E;stroke-width:1.5625;"/><line style="stroke:#5E5E5E;stroke-width:1.5625;" x1="2067.1875" x2="2067.1875" y1="273.4945" y2="279.7445"/><line style="stroke:#5E5E5E;stroke-width:1.5625;" x1="2073.4375" x2="2067.1875" y1="279.7445" y2="279.7445"/><text fill="#D8BC00" font-family="Open Sans,Avenir,Nunito,Arial,Helvetica,SansSerif" font-size="12.5" lengthAdjust="spacing" textLength="64.5833" x="1990.1042" y="297.0378">opentest4j</text><!--MD5=[92e2ad58d19962135e7ff93f22958550]
entity asm--><rect fill="#1B1B1A" height="44.93" rx="8.3333" ry="8.3333" style="stroke:#5E5E5E;stroke-width:1.5625;" width="62.5" x="322.3958" y="53.7028"/><polygon fill="#1B1B1A" points="367.1875,58.9111,367.1875,73.4945,379.6875,73.4945,379.6875,65.1611,373.4375,58.9111,367.1875,58.9111" style="stroke:#5E5E5E;stroke-width:1.5625;"/><line style="stroke:#5E5E5E;stroke-width:1.5625;" x1="373.4375" x2="373.4375" y1="58.9111" y2="65.1611"/><line style="stroke:#5E5E5E;stroke-width:1.5625;" x1="379.6875" x2="373.4375" y1="65.1611" y2="65.1611"/><text fill="#D8BC00" font-family="Open Sans,Avenir,Nunito,Arial,Helvetica,SansSerif" font-size="12.5" lengthAdjust="spacing" textLength="25" x="335.9375" y="82.4544">asm</text><!--MD5=[2158cadba960fc97c965ca71cca36298]
entity jcl_over_slf4j--><rect fill="#1B1B1A" height="44.93" rx="8.3333" ry="8.3333" style="stroke:#5E5E5E;stroke-width:1.5625;" width="115.625" x="7.2917" y="160.9945"/><polygon fill="#1B1B1A" points="105.2083,166.2028,105.2083,180.7861,117.7083,180.7861,117.7083,172.4528,111.4583,166.2028,105.2083,166.2028" style="stroke:#5E5E5E;stroke-width:1.5625;"/><line style="stroke:#5E5E5E;stroke-width:1.5625;" x1="111.4583" x2="111.4583" y1="166.2028" y2="172.4528"/><line style="stroke:#5E5E5E;stroke-width:1.5625;" x1="117.7083" x2="111.4583" y1="172.4528" y2="172.4528"/><text fill="#D8BC00" font-family="Open Sans,Avenir,Nunito,Arial,Helvetica,SansSerif" font-size="12.5" lengthAdjust="spacing" textLength="78.125" x="20.8333" y="189.7461">jcl_over_slf4j</text><!--MD5=[44b0a2e1eacfc27a1dd91401467b1b24]
entity slf4j_api--><rect fill="#1B1B1A" height="44.93" rx="8.3333" ry="8.3333" style="stroke:#5E5E5E;stroke-width:1.5625;" width="88.5417" x="159.375" y="160.9945"/><polygon fill="#1B1B1A" points="230.2083,166.2028,230.2083,180.7861,242.7083,180.7861,242.7083,172.4528,236.4583,166.2028,230.2083,166.2028" style="stroke:#5E5E5E;stroke-width:1.5625;"/><line style="stroke:#5E5E5E;stroke-width:1.5625;" x1="236.4583" x2="236.4583" y1="166.2028" y2="172.4528"/><line style="stroke:#5E5E5E;stroke-width:1.5625;" x1="242.7083" x2="236.4583" y1="172.4528" y2="172.4528"/><text fill="#D8BC00" font-family="Open Sans,Avenir,Nunito,Arial,Helvetica,SansSerif" font-size="12.5" lengthAdjust="spacing" textLength="51.0417" x="172.9167" y="189.7461">slf4j_api</text><!--MD5=[7fbee5ae74c8dd4ba8120faa50c8c743]
entity slf4j_log4j12--><rect fill="#1B1B1A" height="44.93" rx="8.3333" ry="8.3333" style="stroke:#5E5E5E;stroke-width:1.5625;" width="116.6667" x="922.3958" y="53.7028"/><polygon fill="#1B1B1A" points="1021.3542,58.9111,1021.3542,73.4945,1033.8542,73.4945,1033.8542,65.1611,1027.6042,58.9111,1021.3542,58.9111" style="stroke:#5E5E5E;stroke-width:1.5625;"/><line style="stroke:#5E5E5E;stroke-width:1.5625;" x1="1027.6042" x2="1027.6042" y1="58.9111" y2="65.1611"/><line style="stroke:#5E5E5E;stroke-width:1.5625;" x1="1033.8542" x2="1027.6042" y1="65.1611" y2="65.1611"/><text fill="#D8BC00" font-family="Open Sans,Avenir,Nunito,Arial,Helvetica,SansSerif" font-size="12.5" lengthAdjust="spacing" textLength="79.1667" x="935.9375" y="82.4544">slf4j_log4j12</text><!--MD5=[387791ceefa6e7ac0048e0d5370dea72]
link junit_jupiter_engine to apiguardian_api--><path d="M1715.5417,98.682 C1687.5521,115.9215 1648.3229,140.0778 1619.2083,158.0153 " fill="none" id="junit_jupiter_engine-to-apiguardian_api" style="stroke:#545454;stroke-width:1.5625;"/><polygon fill="#545454" points="1614.625,160.8382,1624.7943,159.4829,1619.0633,158.1127,1620.4335,152.3817,1614.625,160.8382" style="stroke:#545454;stroke-width:1.5625;"/><!--MD5=[f4b72d10a6cfe7a8a93ab847947f7423]
link junit_jupiter_engine to junit_jupiter_api--><path d="M1750.5208,98.9424 C1750.5208,115.4111 1750.5208,138.109 1750.5208,155.6611 " fill="none" id="junit_jupiter_engine-to-junit_jupiter_api" style="stroke:#545454;stroke-width:1.5625;"/><polygon fill="#545454" points="1750.5208,160.9424,1754.6875,151.5674,1750.5208,155.734,1746.3542,151.5674,1750.5208,160.9424" style="stroke:#545454;stroke-width:1.5625;"/><!--MD5=[06eb6ab5d989baa08de92dee96f24dd7]
link junit_jupiter_engine to junit_platform_engine--><path d="M1788.9167,98.682 C1819.7604,115.984 1863.0417,140.2757 1895.0417,158.234 " fill="none" id="junit_jupiter_engine-to-junit_platform_engine" style="stroke:#545454;stroke-width:1.5625;"/><polygon fill="#545454" points="1899.6771,160.8382,1893.5578,152.6038,1895.1404,158.2798,1889.4644,159.8625,1899.6771,160.8382" style="stroke:#545454;stroke-width:1.5625;"/><!--MD5=[ae5ab7164155f4fc79ebb3185a9c5d1c]
link junit_platform_engine to junit_platform_commons--><path d="M1919.2396,206.234 C1904.8125,222.984 1884.8333,246.182 1869.6042,263.859 " fill="none" id="junit_platform_engine-to-junit_platform_commons" style="stroke:#545454;stroke-width:1.5625;"/><polygon fill="#545454" points="1865.8438,268.234,1875.1262,263.865,1869.2492,264.2933,1868.8209,258.4163,1865.8438,268.234" style="stroke:#545454;stroke-width:1.5625;"/><!--MD5=[8a9b5fbf88ccec267ebeca0685c2396a]
link junit_platform_engine to opentest4j--><path d="M1956.5833,206.234 C1970.8542,222.984 1990.6042,246.182 2005.6563,263.859 " fill="none" id="junit_platform_engine-to-opentest4j" style="stroke:#545454;stroke-width:1.5625;"/><polygon fill="#545454" points="2009.375,268.234,2006.477,258.3926,2006.0014,264.266,2000.1281,263.7904,2009.375,268.234" style="stroke:#545454;stroke-width:1.5625;"/><!--MD5=[ed4318ea9be3443a979b37d4f3399abc]
link mockito_core to byte_buddy--><path d="M1290.1042,98.9424 C1290.1042,115.4111 1290.1042,138.109 1290.1042,155.6611 " fill="none" id="mockito_core-to-byte_buddy" style="stroke:#545454;stroke-width:1.5625;"/><polygon fill="#545454" points="1290.1042,160.9424,1294.2708,151.5674,1290.1042,155.734,1285.9375,151.5674,1290.1042,160.9424" style="stroke:#545454;stroke-width:1.5625;"/><!--MD5=[ca166302077c6e1468853e13a25b2a92]
link mockito_core to byte_buddy_agent--><path d="M1256.4063,98.682 C1229.4375,115.9215 1191.6458,140.0778 1163.5938,158.0153 " fill="none" id="mockito_core-to-byte_buddy_agent" style="stroke:#545454;stroke-width:1.5625;"/><polygon fill="#545454" points="1159.1771,160.8382,1169.3187,159.2892,1163.5626,158.0285,1164.8232,152.2724,1159.1771,160.8382" style="stroke:#545454;stroke-width:1.5625;"/><!--MD5=[eff02feeff1f5c6fac4f7dcff0627abc]
link mockito_core to objenesis--><path d="M1318.4792,98.682 C1340.9792,115.7757 1372.4583,139.682 1396.0104,157.5674 " fill="none" id="mockito_core-to-objenesis" style="stroke:#545454;stroke-width:1.5625;"/><polygon fill="#545454" points="1400.3125,160.8382,1395.3844,151.8401,1396.171,157.6799,1390.3312,158.4665,1400.3125,160.8382" style="stroke:#545454;stroke-width:1.5625;"/><!--MD5=[546b0a91a22de90019b2ba1c617f48bd]
link slf4j_log4j12 to log4j--><path d="M980.7292,98.9424 C980.7292,115.4111 980.7292,138.109 980.7292,155.6611 " fill="none" id="slf4j_log4j12-to-log4j" style="stroke:#545454;stroke-width:1.5625;"/><polygon fill="#545454" points="980.7292,160.9424,984.8958,151.5674,980.7292,155.734,976.5625,151.5674,980.7292,160.9424" style="stroke:#545454;stroke-width:1.5625;"/><!--MD5=[dc36b239700aa6686811ce309cbe934a]
link wicket_core to jdk_serializable_functional--><path d="M605.4063,98.557 C648.625,116.0882 709.6563,140.8486 754.1771,158.9007 " fill="none" id="wicket_core-to-jdk_serializable_functional" style="stroke:#545454;stroke-width:1.5625;"/><polygon fill="#545454" points="759.25,160.9632,752.14,153.5673,754.4266,158.9981,748.9958,161.2848,759.25,160.9632" style="stroke:#545454;stroke-width:1.5625;"/><!--MD5=[daa80ab011d61c32df9a875df4862374]
link wicket_core to openjson--><path d="M507.4375,98.557 C470.6979,115.984 418.8854,140.5465 380.8646,158.5778 " fill="none" id="wicket_core-to-openjson" style="stroke:#545454;stroke-width:1.5625;"/><polygon fill="#545454" points="375.8333,160.9632,386.0897,160.7197,380.5412,158.7355,382.5253,153.1871,375.8333,160.9632" style="stroke:#545454;stroke-width:1.5625;"/><!--MD5=[0e84bfe14f25425d2935f9d6ab96c635]
link wicket_core to wicket_request--><path d="M537.0625,98.9424 C525.1146,115.6924 508.5833,138.8903 495.9792,156.5674 " fill="none" id="wicket_core-to-wicket_request" style="stroke:#545454;stroke-width:1.5625;"/><polygon fill="#545454" points="492.8646,160.9424,501.6973,155.7237,495.8862,156.7002,494.9098,150.8891,492.8646,160.9424" style="stroke:#545454;stroke-width:1.5625;"/><!--MD5=[954cb058695ba1aa4b21e9f88b759e90]
link wicket_core to wicket_util--><path d="M568.1458,98.9424 C580.0938,115.6924 596.625,138.8903 609.2292,156.5674 " fill="none" id="wicket_core-to-wicket_util" style="stroke:#545454;stroke-width:1.5625;"/><polygon fill="#545454" points="612.3438,160.9424,610.2986,150.8891,609.3221,156.7002,603.511,155.7237,612.3438,160.9424" style="stroke:#545454;stroke-width:1.5625;"/><!--MD5=[fd484b9bbd7d72f648347b8c2c1c0a52]
link wicket_util to commons_collections4--><path d="M664.0833,205.9736 C693.2604,223.2132 734.1667,247.3695 764.5208,265.307 " fill="none" id="wicket_util-to-commons_collections4" style="stroke:#545454;stroke-width:1.5625;"/><polygon fill="#545454" points="769.3021,268.1299,763.3534,259.7714,764.819,265.4787,759.1116,266.9443,769.3021,268.1299" style="stroke:#545454;stroke-width:1.5625;"/><!--MD5=[04bdba72622389e960a9e360895b6314]
link wicket_util to commons_fileupload--><path d="M592.1979,205.9736 C563.875,223.2132 524.1563,247.3695 494.6875,265.307 " fill="none" id="wicket_util-to-commons_fileupload" style="stroke:#545454;stroke-width:1.5625;"/><polygon fill="#545454" points="490.0521,268.1299,500.2266,266.8145,494.501,265.4218,495.8937,259.6962,490.0521,268.1299" style="stroke:#545454;stroke-width:1.5625;"/><!--MD5=[42393529676ae9aeba5f8fc3a130e5ac]
link wicket_util to commons_io--><path d="M627.6042,206.234 C627.6042,222.7028 627.6042,245.4007 627.6042,262.9528 " fill="none" id="wicket_util-to-commons_io" style="stroke:#545454;stroke-width:1.5625;"/><polygon fill="#545454" points="627.6042,268.234,631.7708,258.859,627.6042,263.0257,623.4375,258.859,627.6042,268.234" style="stroke:#545454;stroke-width:1.5625;"/><!--MD5=[e05e4812cc8d08eb301e667e66b35578]
link cglib to jakarta_servlet_api--><!--MD5=[96ca9f754d594188dce31f6bfc62a16e]
link jakarta_servlet_api to asm--><!--MD5=[8e34058cbb64b1f498da96b9a1a36324]
link cglib to jcl_over_slf4j--><!--MD5=[a12350f401ee911773c8d1ced77c1754]
link jcl_over_slf4j to slf4j_api--><!--MD5=[f84fedb6b847740ecdaed1f3e169e824]
@startuml

    !include lexakai.theme
    
    title "wicket-jmx"
    
    artifact cglib
    artifact openjson
    artifact commons_fileupload
    artifact commons_io
    artifact jakarta_servlet_api
    artifact log4j
    artifact byte_buddy_agent
    artifact byte_buddy
    artifact commons_collections4
    artifact wicket_core
    artifact wicket_request
    artifact wicket_util
    artifact apiguardian_api
    artifact jdk_serializable_functional
    artifact junit_jupiter_api
    artifact junit_jupiter_engine
    artifact junit_platform_commons
    artifact junit_platform_engine
    artifact mockito_core
    artifact objenesis
    artifact opentest4j
    artifact asm
    artifact jcl_over_slf4j
    artifact slf4j_api
    artifact slf4j_log4j12
    junit_jupiter_engine - -> apiguardian_api
    junit_jupiter_engine - -> junit_jupiter_api
    junit_jupiter_engine - -> junit_platform_engine
    junit_platform_engine - -> junit_platform_commons
    junit_platform_engine - -> opentest4j
    mockito_core - -> byte_buddy
    mockito_core - -> byte_buddy_agent
    mockito_core - -> objenesis
    slf4j_log4j12 - -> log4j
    wicket_core - -> jdk_serializable_functional
    wicket_core - -> openjson
    wicket_core - -> wicket_request
    wicket_core - -> wicket_util
    wicket_util - -> commons_collections4
    wicket_util - -> commons_fileupload
    wicket_util - -> commons_io
    
@enduml

@startuml









skinparam backgroundColor #333333






skinparam  {
    defaultFontName   "Open Sans,Avenir,Nunito,Arial,Helvetica,SansSerif"
    defaultFontSize   12
    defaultTextAlignment left
    shadowing false
    RoundCorner 10
    TitleFontSize 18
}

skinparam defaultFontName       "Open Sans,Avenir,Nunito,Arial,Helvetica,SansSerif"
skinparam defaultFontSize       12
skinparam dpi                   100
skinparam shadowing             false
skinparam roundcorner           16
skinparam ParticipantPadding    40
skinparam BoxPadding            40
skinparam Padding               3
skinparam ArrowColor            #545454
skinparam stereotype {
    CBackgroundColor #0066cf
    CBorderColor #0086ef
    ABackgroundColor #C8Ac00
    ABorderColor #D8Bc00
    IBackgroundColor #008400
    IBorderColor #239c23
    EBackgroundColor #cf6300
    EBorderColor #ef8300
    NBackgroundColor #3380b9
    NBorderColor #004d86
}
skinparam title {
	FontColor	                 #c0c0c0
 	BorderColor                  #545454
	FontSize	    	         20
	BorderRoundCorner            16
	BorderThickness 	         1
	BackgroundColor              #48494b
}


skinparam legend {
	BackgroundColor #303030
	BorderColor #404040
	FontColor #a0a0a0
}

	skinparam swimlane {
	BorderColor #5e5e5e
	BorderThickness 2
	TitleBackgroundColor  #6d6d6d-#484848
	TitleFontColor #303030
}

skinparam activity {
		FontColor #C8Ac00
	BorderColor #333333
	BackgroundColor #333333-#333333
	BarColor #00FF00
	StartColor #0060a8
	EndColor #0060a8
	DiamondBackgroundColor #6d6d6d-#3a3a3a
  	DiamondBorderColor #3a3a3a
  	DiamondFontColor #fefefe
}


skinparam participant {
		FontColor #C8Ac00
	BorderColor #333333
	BackgroundColor #333333-#333333
	ParticipantBorderThickness 2
}


skinparam actor {
		FontColor #C8Ac00
	BorderColor #333333
	BackgroundColor #333333-#333333
}


skinparam arrow {
	Thickness 1.5
	Color #545454
	FontColor #a0a0a0
    FontStyle bold
    MessageAlignment center
}



skinparam sequence {
	BorderColor #303030
	TitleFontColor #303030
	BackgroundColor #333333
	StartColor #303030
	EndColor #303030
	BoxBackgroundColor #333333
	BoxBorderColor #484848
	BoxFontColor #484848
	LifeLineBorderColor #484848
	LifeLineBorderThickness 2
	LifeLineBackgroundColor #3a3a3a
	GroupBorderColor #484848
	GroupFontColor #484848
	GroupHeaderFontColor #0060a8
	GroupBackgroundColor #484848
	GroupHeaderBackgroundColor #333333
	DividerBackgroundColor #484848
    DividerBorderColor #484848
    DividerBorderThickness 2
    DividerFontColor #D8Bc00
	ReferenceBackgroundColor #333333
	ReferenceBorderColor #484848
	ReferenceFontColor #fefefe
	ReferenceHeaderBackgroundColor #484848
}


skinparam partition {
	BorderColor #303030
	FontColor #333333
	BackgroundColor #333333
}


skinparam collections {
		FontColor #C8Ac00
	BorderColor #333333
	BackgroundColor #333333-#333333
}


skinparam control {
		FontColor #C8Ac00
	BorderColor #333333
	BackgroundColor #333333-#333333
}


skinparam entity {
		FontColor #C8Ac00
	BorderColor #333333
	BackgroundColor #333333-#333333
}


skinparam boundary {
		FontColor #C8Ac00
	BorderColor #333333
	BackgroundColor #333333-#333333
}


skinparam agent {
	BackgroundColor #ff8000
	BorderColor #ff9933
	FontColor #484848
}


skinparam note {
	BorderThickness 1
	BackgroundColor #1b1b1a
	BorderColor #5e5e5e
	FontSize 11
	FontColor #a0a0a0
}


skinparam artifact {
	BorderThickness 10
	BorderColor #5e5e5e
	BackgroundColor #1b1b1a
	FontColor #D8Bc00
}


skinparam component {
		FontColor #C8Ac00
	BorderColor #333333
	BackgroundColor #333333-#333333
}


skinparam interface {
	BackgroundColor  #008400
	BorderColor  #007F00
	FontColor #484848
}


skinparam storage {
	BackgroundColor #ff8000
  	BorderColor #cc6600
	FontColor #222222
}


skinparam node {
	BackgroundColor #333333
	BorderColor #333333
	FontColor #C8Ac00
}


skinparam cloud {
	BackgroundColor #484848-black
	BorderColor #484848
	FontColor #D8Bc00
}


skinparam database {
		FontColor #C8Ac00
	BorderColor #333333
	BackgroundColor #333333-#333333
	BackgroundColor  #333333
}


skinparam class {
		FontColor #C8Ac00
	BorderColor #333333
	BackgroundColor #333333-#333333
	HeaderBackgroundColor #1b1b1a
    BackgroundColor #282828
    BorderColor #5e5e5e
 	StereotypeFontColor #a0a0a0
    StereotypeFontStyle bold
	BorderThickness 1
	AttributeFontColor #D8Bc00
	AttributeFontSize 11
    FontColor #D8Bc00
    FontStyle bold
}


skinparam object {
		FontColor #C8Ac00
	BorderColor #333333
	BackgroundColor #333333-#333333
	StereotypeFontColor #484848
	BorderThickness 1
	AttributeFontColor #fefefe
	AttributeFontSize 11
}


skinparam usecase {
		FontColor #C8Ac00
	BorderColor #333333
	BackgroundColor #333333-#333333
	BorderThickness 2
	StereotypeFontColor #303030
}


skinparam rectangle {
		FontColor #C8Ac00
	BorderColor #333333
	BackgroundColor #333333-#333333
	BackgroundColor #333333
	BorderThickness 2
	StereotypeFontColor #303030
}


skinparam package {
		FontColor #C8Ac00
	BorderColor #333333
	BackgroundColor #333333-#333333
	BackgroundColor #333333
	BorderThickness 2
}


skinparam folder {
	BackgroundColor #6d6d6d
  	BorderColor #ff8000
	FontColor #ff8000
	BorderThickness 2
}


skinparam frame {
	BackgroundColor #6d6d6d
  	BorderColor #0060a8
	FontColor #0060a8
	BorderThickness 2
}


skinparam state {
		FontColor #C8Ac00
	BorderColor #333333
	BackgroundColor #333333-#333333
	StartColor #0060a8
	EndColor #0060a8
	AttributeFontColor #fefefe
	AttributeFontSize 11
}


skinparam queue {
		FontColor #C8Ac00
	BorderColor #333333
	BackgroundColor #333333-#333333
}


skinparam card {
	BackgroundColor #0060a8
	BorderColor #004d86
	FontColor $INFO_TEXT
}


skinparam file {
	BackgroundColor #6d6d6d-#484848
	BorderColor #0060a8
	FontColor #fefefe
}


skinparam stack {
		FontColor #C8Ac00
	BorderColor #333333
	BackgroundColor #333333-#333333
}

    
    title "wicket-jmx"
    
    artifact cglib
    artifact openjson
    artifact commons_fileupload
    artifact commons_io
    artifact jakarta_servlet_api
    artifact log4j
    artifact byte_buddy_agent
    artifact byte_buddy
    artifact commons_collections4
    artifact wicket_core
    artifact wicket_request
    artifact wicket_util
    artifact apiguardian_api
    artifact jdk_serializable_functional
    artifact junit_jupiter_api
    artifact junit_jupiter_engine
    artifact junit_platform_commons
    artifact junit_platform_engine
    artifact mockito_core
    artifact objenesis
    artifact opentest4j
    artifact asm
    artifact jcl_over_slf4j
    artifact slf4j_api
    artifact slf4j_log4j12
    junit_jupiter_engine - -> apiguardian_api
    junit_jupiter_engine - -> junit_jupiter_api
    junit_jupiter_engine - -> junit_platform_engine
    junit_platform_engine - -> junit_platform_commons
    junit_platform_engine - -> opentest4j
    mockito_core - -> byte_buddy
    mockito_core - -> byte_buddy_agent
    mockito_core - -> objenesis
    slf4j_log4j12 - -> log4j
    wicket_core - -> jdk_serializable_functional
    wicket_core - -> openjson
    wicket_core - -> wicket_request
    wicket_core - -> wicket_util
    wicket_util - -> commons_collections4
    wicket_util - -> commons_fileupload
    wicket_util - -> commons_io
    
@enduml

PlantUML version 1.2021.01(Tue Feb 02 00:55:08 MST 2021)
(GPL source distribution)
Java Runtime: Java(TM) SE Runtime Environment
JVM: Java HotSpot(TM) 64-Bit Server VM
Default Encoding: UTF-8
Language: en
Country: US
--></g></svg>