<?xml version="1.0" encoding="utf-8"?>
<svg viewBox="0 0 500 500" xmlns="http://www.w3.org/2000/svg" xmlns:bx="https://boxy-svg.com">
  <g style="" transform="matrix(1, 0, 0, 1.03186, 0.30348, -3.676559)">
    <rect style="fill: rgb(66, 147, 247);" transform="matrix(0.776, -0.630733, 0.630733, 0.776, -750.534607, 668.544861)" x="806.608" y="304.468" width="122.064" height="122.064" rx="13.995" ry="13.995" bx:origin="2.139 0.603"/>
    <rect style="fill: rgb(100, 173, 36);" transform="matrix(0.776, -0.630733, 0.630733, 0.776, -750.534607, 668.544861)" x="1003.479" y="331.038" width="67.242" height="67.242" rx="13.995" ry="13.995" bx:origin="0.956 0.699"/>
    <rect style="fill: rgb(66, 147, 247);" transform="matrix(0.776, -0.630733, 0.630733, 0.776, -750.534607, 668.544861)" x="975.902" y="121.139" width="122.064" height="122.064" rx="13.995" ry="13.995" bx:origin="0.752 2.105"/>
    <rect style="fill: rgb(66, 147, 247);" transform="matrix(0.776, -0.630733, 0.630733, 0.776, -750.534607, 668.544861)" x="1146.575" y="304.468" width="122.064" height="122.064" rx="13.995" ry="13.995" bx:origin="-0.646 0.603"/>
    <path style="fill: rgb(100, 173, 36);" transform="matrix(0.776, -0.630733, 0.630733, 0.776, -750.534607, 668.544861)" d="M 1186.27 150.333 H 1225.945 A 13.572 13.572 0 0 1 1239.517 163.905 V 206.345 A 11.23 11.23 0 0 1 1228.287 217.575 H 1183.505 A 11.23 11.23 0 0 1 1172.275 206.345 V 164.328 A 13.995 13.995 0 0 1 1186.27 150.333 Z" bx:origin="-1.555 3.386" bx:shape="rect 1172.275 150.333 67.242 67.242 13.995 13.572 11.23 11.23 1@9ed85700"/>
    <rect style="fill: rgb(100, 173, 36);" transform="matrix(0.776, -0.630733, 0.630733, 0.776, -750.534607, 668.544861)" x="839.273" y="150.333" width="67.242" height="67.242" rx="13.995" ry="13.995" bx:origin="3.398 3.386"/>
  </g>
</svg>