<?xml version="1.0" encoding="utf-8"?>
<svg viewBox="0 0 500 500" xmlns="http://www.w3.org/2000/svg" xmlns:bx="https://boxy-svg.com">
  <g style="" transform="matrix(1, 0, 0, 1.03186, 0.30348, -3.676559)">
    <rect x="789.941" y="298.177" width="119.541" height="119.541" style="fill: rgb(66, 147, 247);" transform="matrix(0.776, -0.630733, 0.630733, 0.776, -728.785583, 659.759155)" bx:origin="2.139 0.603"/>
    <rect x="982.744" y="324.198" width="65.853" height="65.853" style="fill: rgb(100, 173, 36);" transform="matrix(0.776, -0.630733, 0.630733, 0.776, -728.785583, 659.759155)" bx:origin="0.956 0.699"/>
    <rect x="955.736" y="118.635" width="119.541" height="119.541" style="fill: rgb(66, 147, 247);" transform="matrix(0.776, -0.630733, 0.630733, 0.776, -728.785583, 659.759155)" bx:origin="0.752 2.105"/>
    <rect x="1122.883" y="298.177" width="119.541" height="119.541" style="fill: rgb(66, 147, 247);" transform="matrix(0.776, -0.630733, 0.630733, 0.776, -728.785583, 659.759155)" bx:origin="-0.646 0.603"/>
    <rect x="1148.052" y="147.227" width="65.853" height="65.853" style="fill: rgb(100, 173, 36);" transform="matrix(0.776, -0.630733, 0.630733, 0.776, -728.785583, 659.759155)" bx:origin="-1.555 3.386"/>
    <rect x="821.931" y="147.227" width="65.853" height="65.853" style="fill: rgb(100, 173, 36);" transform="matrix(0.776, -0.630733, 0.630733, 0.776, -728.785583, 659.759155)" bx:origin="3.398 3.386"/>
  </g>
</svg>