<?xml version="1.0" encoding="utf-8"?>
<svg viewBox="0 0 500 500" xmlns="http://www.w3.org/2000/svg" xmlns:bx="https://boxy-svg.com">
  <path d="M 25.623 498.996 C 16.076 498.996 8.09 497.776 1.663 495.336 L 1.663 465.976 C 9.843 468.023 16.953 469.046 22.993 469.046 C 42.08 469.046 51.623 456.969 51.623 432.816 L 51.623 225.796 L 86.693 225.796 L 86.693 431.646 C 86.693 453.459 81.506 470.136 71.133 481.676 C 60.76 493.223 45.59 498.996 25.623 498.996 Z" transform="matrix(0.992605984210968, 0, 0, 1.0062270164489746, 0.012247000820934772, -3.4138119220733643)" style="fill: rgb(66, 147, 247); stroke: rgb(66, 147, 247); white-space: pre;"/>
  <path d="M 232.932 252.676 C 212.866 252.676 197.086 259.786 185.592 274.006 C 174.099 288.226 168.352 307.853 168.352 332.886 C 168.352 359.086 173.879 378.906 184.932 392.346 C 195.992 405.786 211.992 412.506 232.932 412.506 C 241.986 412.506 250.749 411.606 259.222 409.806 C 267.696 407.999 276.512 405.686 285.672 402.866 L 285.672 432.816 C 268.919 439.143 249.926 442.306 228.692 442.306 C 197.426 442.306 173.419 432.836 156.672 413.896 C 139.919 394.949 131.542 367.849 131.542 332.596 C 131.542 310.389 135.609 290.956 143.742 274.296 C 151.869 257.643 163.629 244.886 179.022 236.026 C 194.409 227.159 212.476 222.726 233.222 222.726 C 255.036 222.726 275.196 227.306 293.702 236.466 L 281.142 265.536 C 273.936 262.129 266.312 259.133 258.272 256.546 C 250.239 253.966 241.792 252.676 232.932 252.676 Z" transform="matrix(0.992605984210968, 0, 0, 1.0062270164489746, 0.012247000820934772, -3.4138119220733643)" style="fill: rgb(100, 173, 36); stroke: rgb(77, 135, 26); white-space: pre; stroke-width: 0px;"/>
  <path d="M 419.051 353.486 L 419.051 323.536 L 497.651 323.536 L 497.651 430.766 C 484.791 434.953 472.445 437.923 460.611 439.676 C 448.778 441.429 435.995 442.306 422.261 442.306 C 389.928 442.306 364.995 432.736 347.461 413.596 C 329.935 394.463 321.171 367.463 321.171 332.596 C 321.171 298.209 331.055 271.303 350.821 251.876 C 370.595 232.443 397.818 222.726 432.491 222.726 C 454.798 222.726 475.935 227.013 495.901 235.586 L 483.621 264.656 C 466.288 256.669 448.951 252.676 431.611 252.676 C 408.825 252.676 390.808 259.836 377.561 274.156 C 364.315 288.469 357.691 308.046 357.691 332.886 C 357.691 358.986 363.658 378.829 375.591 392.416 C 387.518 406.003 404.685 412.796 427.091 412.796 C 438.385 412.796 450.461 411.383 463.321 408.556 L 463.321 353.486 L 419.051 353.486 Z" transform="matrix(0.992605984210968, 0, 0, 1.0062270164489746, 0.012247000820934772, -3.4138119220733643)" style="fill: rgb(66, 147, 247); stroke: rgb(66, 147, 247); white-space: pre;"/>
  <path style="fill: rgb(216, 216, 216); stroke: rgb(0, 0, 0); stroke-width: 4px;" d="M 205.2 162.594"/>
  <rect x="309.14" y="116.691" width="46.782" height="46.782" style="fill: rgb(66, 147, 247);" transform="matrix(0.776, -0.630733, 0.630733, 0.776, 9.140847, 255.160538)" bx:origin="2.139 0.603"/>
  <rect x="384.593" y="126.873" width="25.771" height="25.771" style="fill: rgb(100, 173, 36);" transform="matrix(0.776, -0.630733, 0.630733, 0.776, 9.140847, 255.160538)" bx:origin="0.956 0.699"/>
  <rect x="374.023" y="46.427" width="46.782" height="46.782" style="fill: rgb(66, 147, 247);" transform="matrix(0.776, -0.630733, 0.630733, 0.776, 9.140847, 255.160538)" bx:origin="0.752 2.105"/>
  <rect x="439.435" y="116.691" width="46.782" height="46.782" style="fill: rgb(66, 147, 247);" transform="matrix(0.776, -0.630733, 0.630733, 0.776, 9.140847, 255.160538)" bx:origin="-0.646 0.603"/>
  <rect x="449.285" y="57.617" width="25.771" height="25.771" style="fill: rgb(100, 173, 36);" transform="matrix(0.776, -0.630733, 0.630733, 0.776, 9.140847, 255.160538)" bx:origin="-1.555 3.386"/>
  <rect x="321.659" y="57.617" width="25.771" height="25.771" style="fill: rgb(100, 173, 36);" transform="matrix(0.776, -0.630733, 0.630733, 0.776, 9.140847, 255.160538)" bx:origin="3.398 3.386"/>
</svg>