<?xml version="1.0" encoding="UTF-8" standalone="no"?><svg xmlns="http://www.w3.org/2000/svg" xmlns:xlink="http://www.w3.org/1999/xlink" contentScriptType="application/ecmascript" contentStyleType="text/css" height="318.75px" preserveAspectRatio="none" style="width:2976px;height:318px;background:#333333;" version="1.1" viewBox="0 0 2976 318" width="2976.0417px" zoomAndPan="magnify"><defs/><g><rect fill="#48494B" height="41.2028" rx="8.3333" ry="8.3333" style="stroke:#545454;stroke-width:1.0416666666666667;" width="162.5" x="1399.4792" y="2.0833"/><text fill="#C0C0C0" font-family="Open Sans,Avenir,Nunito,Arial,Helvetica,SansSerif" font-size="20.8333" lengthAdjust="spacing" textLength="139.5833" x="1410.9375" y="30.5583">wicket-spring</text><!--MD5=[74d1b43295103c6787fd1fee471f3939]
entity cglib--><rect fill="#1B1B1A" height="44.93" rx="8.3333" ry="8.3333" style="stroke:#5E5E5E;stroke-width:1.5625;" width="65.625" x="221.875" y="160.9945"/><polygon fill="#1B1B1A" points="269.7917,166.2028,269.7917,180.7861,282.2917,180.7861,282.2917,172.4528,276.0417,166.2028,269.7917,166.2028" style="stroke:#5E5E5E;stroke-width:1.5625;"/><line style="stroke:#5E5E5E;stroke-width:1.5625;" x1="276.0417" x2="276.0417" y1="166.2028" y2="172.4528"/><line style="stroke:#5E5E5E;stroke-width:1.5625;" x1="282.2917" x2="276.0417" y1="172.4528" y2="172.4528"/><text fill="#D8BC00" font-family="Open Sans,Avenir,Nunito,Arial,Helvetica,SansSerif" font-size="12.5" lengthAdjust="spacing" textLength="28.125" x="235.4167" y="189.7461">cglib</text><!--MD5=[83364df2ff47e8d52fd75af27391e023]
entity openjson--><rect fill="#1B1B1A" height="44.93" rx="8.3333" ry="8.3333" style="stroke:#5E5E5E;stroke-width:1.5625;" width="92.7083" x="604.1667" y="160.9945"/><polygon fill="#1B1B1A" points="679.1667,166.2028,679.1667,180.7861,691.6667,180.7861,691.6667,172.4528,685.4167,166.2028,679.1667,166.2028" style="stroke:#5E5E5E;stroke-width:1.5625;"/><line style="stroke:#5E5E5E;stroke-width:1.5625;" x1="685.4167" x2="685.4167" y1="166.2028" y2="172.4528"/><line style="stroke:#5E5E5E;stroke-width:1.5625;" x1="691.6667" x2="685.4167" y1="172.4528" y2="172.4528"/><text fill="#D8BC00" font-family="Open Sans,Avenir,Nunito,Arial,Helvetica,SansSerif" font-size="12.5" lengthAdjust="spacing" textLength="55.2083" x="617.7083" y="189.7461">openjson</text><!--MD5=[b8642f4d11f39d368691e95658a70571]
entity commons_fileupload--><rect fill="#1B1B1A" height="44.93" rx="8.3333" ry="8.3333" style="stroke:#5E5E5E;stroke-width:1.5625;" width="160.4167" x="694.2708" y="268.2861"/><polygon fill="#1B1B1A" points="836.9792,273.4945,836.9792,288.0778,849.4792,288.0778,849.4792,279.7445,843.2292,273.4945,836.9792,273.4945" style="stroke:#5E5E5E;stroke-width:1.5625;"/><line style="stroke:#5E5E5E;stroke-width:1.5625;" x1="843.2292" x2="843.2292" y1="273.4945" y2="279.7445"/><line style="stroke:#5E5E5E;stroke-width:1.5625;" x1="849.4792" x2="843.2292" y1="279.7445" y2="279.7445"/><text fill="#D8BC00" font-family="Open Sans,Avenir,Nunito,Arial,Helvetica,SansSerif" font-size="12.5" lengthAdjust="spacing" textLength="122.9167" x="707.8125" y="297.0378">commons_fileupload</text><!--MD5=[26b411a1b4c483916c801c7aad1add62]
entity commons_io--><rect fill="#1B1B1A" height="44.93" rx="8.3333" ry="8.3333" style="stroke:#5E5E5E;stroke-width:1.5625;" width="111.4583" x="891.6667" y="268.2861"/><polygon fill="#1B1B1A" points="985.4167,273.4945,985.4167,288.0778,997.9167,288.0778,997.9167,279.7445,991.6667,273.4945,985.4167,273.4945" style="stroke:#5E5E5E;stroke-width:1.5625;"/><line style="stroke:#5E5E5E;stroke-width:1.5625;" x1="991.6667" x2="991.6667" y1="273.4945" y2="279.7445"/><line style="stroke:#5E5E5E;stroke-width:1.5625;" x1="997.9167" x2="991.6667" y1="279.7445" y2="279.7445"/><text fill="#D8BC00" font-family="Open Sans,Avenir,Nunito,Arial,Helvetica,SansSerif" font-size="12.5" lengthAdjust="spacing" textLength="73.9583" x="905.2083" y="297.0378">commons_io</text><!--MD5=[0fbd2ccbbc8e17f2c18a218a5def3a9f]
entity jakarta_inject_api--><rect fill="#1B1B1A" height="44.93" rx="8.3333" ry="8.3333" style="stroke:#5E5E5E;stroke-width:1.5625;" width="143.75" x="324.4792" y="160.9945"/><polygon fill="#1B1B1A" points="450.5208,166.2028,450.5208,180.7861,463.0208,180.7861,463.0208,172.4528,456.7708,166.2028,450.5208,166.2028" style="stroke:#5E5E5E;stroke-width:1.5625;"/><line style="stroke:#5E5E5E;stroke-width:1.5625;" x1="456.7708" x2="456.7708" y1="166.2028" y2="172.4528"/><line style="stroke:#5E5E5E;stroke-width:1.5625;" x1="463.0208" x2="456.7708" y1="172.4528" y2="172.4528"/><text fill="#D8BC00" font-family="Open Sans,Avenir,Nunito,Arial,Helvetica,SansSerif" font-size="12.5" lengthAdjust="spacing" textLength="106.25" x="338.0208" y="189.7461">jakarta_inject_api</text><!--MD5=[88a18b84af72aac0baa747f98e10bd90]
entity jakarta_servlet_api--><rect fill="#1B1B1A" height="44.93" rx="8.3333" ry="8.3333" style="stroke:#5E5E5E;stroke-width:1.5625;" width="151.0417" x="7.2917" y="53.7028"/><polygon fill="#1B1B1A" points="140.625,58.9111,140.625,73.4945,153.125,73.4945,153.125,65.1611,146.875,58.9111,140.625,58.9111" style="stroke:#5E5E5E;stroke-width:1.5625;"/><line style="stroke:#5E5E5E;stroke-width:1.5625;" x1="146.875" x2="146.875" y1="58.9111" y2="65.1611"/><line style="stroke:#5E5E5E;stroke-width:1.5625;" x1="153.125" x2="146.875" y1="65.1611" y2="65.1611"/><text fill="#D8BC00" font-family="Open Sans,Avenir,Nunito,Arial,Helvetica,SansSerif" font-size="12.5" lengthAdjust="spacing" textLength="113.5417" x="20.8333" y="82.4544">jakarta_servlet_api</text><!--MD5=[907dfa26722c2bcd0e79bfb32775d5c3]
entity log4j--><rect fill="#1B1B1A" height="44.93" rx="8.3333" ry="8.3333" style="stroke:#5E5E5E;stroke-width:1.5625;" width="67.7083" x="1266.6667" y="160.9945"/><polygon fill="#1B1B1A" points="1316.6667,166.2028,1316.6667,180.7861,1329.1667,180.7861,1329.1667,172.4528,1322.9167,166.2028,1316.6667,166.2028" style="stroke:#5E5E5E;stroke-width:1.5625;"/><line style="stroke:#5E5E5E;stroke-width:1.5625;" x1="1322.9167" x2="1322.9167" y1="166.2028" y2="172.4528"/><line style="stroke:#5E5E5E;stroke-width:1.5625;" x1="1329.1667" x2="1322.9167" y1="172.4528" y2="172.4528"/><text fill="#D8BC00" font-family="Open Sans,Avenir,Nunito,Arial,Helvetica,SansSerif" font-size="12.5" lengthAdjust="spacing" textLength="30.2083" x="1280.2083" y="189.7461">log4j</text><!--MD5=[4ff87df6ca00ec4715fce5605f10cfb8]
entity byte_buddy_agent--><rect fill="#1B1B1A" height="44.93" rx="8.3333" ry="8.3333" style="stroke:#5E5E5E;stroke-width:1.5625;" width="147.9167" x="1371.3542" y="160.9945"/><polygon fill="#1B1B1A" points="1501.5625,166.2028,1501.5625,180.7861,1514.0625,180.7861,1514.0625,172.4528,1507.8125,166.2028,1501.5625,166.2028" style="stroke:#5E5E5E;stroke-width:1.5625;"/><line style="stroke:#5E5E5E;stroke-width:1.5625;" x1="1507.8125" x2="1507.8125" y1="166.2028" y2="172.4528"/><line style="stroke:#5E5E5E;stroke-width:1.5625;" x1="1514.0625" x2="1507.8125" y1="172.4528" y2="172.4528"/><text fill="#D8BC00" font-family="Open Sans,Avenir,Nunito,Arial,Helvetica,SansSerif" font-size="12.5" lengthAdjust="spacing" textLength="110.4167" x="1384.8958" y="189.7461">byte_buddy_agent</text><!--MD5=[4b7412f65198b4c52d4b80fff6e833ea]
entity byte_buddy--><rect fill="#1B1B1A" height="44.93" rx="8.3333" ry="8.3333" style="stroke:#5E5E5E;stroke-width:1.5625;" width="108.3333" x="1555.7292" y="160.9945"/><polygon fill="#1B1B1A" points="1646.3542,166.2028,1646.3542,180.7861,1658.8542,180.7861,1658.8542,172.4528,1652.6042,166.2028,1646.3542,166.2028" style="stroke:#5E5E5E;stroke-width:1.5625;"/><line style="stroke:#5E5E5E;stroke-width:1.5625;" x1="1652.6042" x2="1652.6042" y1="166.2028" y2="172.4528"/><line style="stroke:#5E5E5E;stroke-width:1.5625;" x1="1658.8542" x2="1652.6042" y1="172.4528" y2="172.4528"/><text fill="#D8BC00" font-family="Open Sans,Avenir,Nunito,Arial,Helvetica,SansSerif" font-size="12.5" lengthAdjust="spacing" textLength="70.8333" x="1569.2708" y="189.7461">byte_buddy</text><!--MD5=[798a9de1932ba9fd78d52168f99e5e87]
entity commons_collections4--><rect fill="#1B1B1A" height="44.93" rx="8.3333" ry="8.3333" style="stroke:#5E5E5E;stroke-width:1.5625;" width="170.8333" x="1040.1042" y="268.2861"/><polygon fill="#1B1B1A" points="1193.2292,273.4945,1193.2292,288.0778,1205.7292,288.0778,1205.7292,279.7445,1199.4792,273.4945,1193.2292,273.4945" style="stroke:#5E5E5E;stroke-width:1.5625;"/><line style="stroke:#5E5E5E;stroke-width:1.5625;" x1="1199.4792" x2="1199.4792" y1="273.4945" y2="279.7445"/><line style="stroke:#5E5E5E;stroke-width:1.5625;" x1="1205.7292" x2="1199.4792" y1="279.7445" y2="279.7445"/><text fill="#D8BC00" font-family="Open Sans,Avenir,Nunito,Arial,Helvetica,SansSerif" font-size="12.5" lengthAdjust="spacing" textLength="133.3333" x="1053.6458" y="297.0378">commons_collections4</text><!--MD5=[1d1f5c096c11f31d2ecce961a8a5207b]
entity wicket_core--><rect fill="#1B1B1A" height="44.93" rx="8.3333" ry="8.3333" style="stroke:#5E5E5E;stroke-width:1.5625;" width="107.2917" x="818.75" y="53.7028"/><polygon fill="#1B1B1A" points="908.3333,58.9111,908.3333,73.4945,920.8333,73.4945,920.8333,65.1611,914.5833,58.9111,908.3333,58.9111" style="stroke:#5E5E5E;stroke-width:1.5625;"/><line style="stroke:#5E5E5E;stroke-width:1.5625;" x1="914.5833" x2="914.5833" y1="58.9111" y2="65.1611"/><line style="stroke:#5E5E5E;stroke-width:1.5625;" x1="920.8333" x2="914.5833" y1="65.1611" y2="65.1611"/><text fill="#D8BC00" font-family="Open Sans,Avenir,Nunito,Arial,Helvetica,SansSerif" font-size="12.5" lengthAdjust="spacing" textLength="69.7917" x="832.2917" y="82.4544">wicket_core</text><!--MD5=[6ae485279b0486fdef307c51d48c6f3e]
entity wicket_ioc--><rect fill="#1B1B1A" height="44.93" rx="8.3333" ry="8.3333" style="stroke:#5E5E5E;stroke-width:1.5625;" width="97.9167" x="347.3958" y="53.7028"/><polygon fill="#1B1B1A" points="427.6042,58.9111,427.6042,73.4945,440.1042,73.4945,440.1042,65.1611,433.8542,58.9111,427.6042,58.9111" style="stroke:#5E5E5E;stroke-width:1.5625;"/><line style="stroke:#5E5E5E;stroke-width:1.5625;" x1="433.8542" x2="433.8542" y1="58.9111" y2="65.1611"/><line style="stroke:#5E5E5E;stroke-width:1.5625;" x1="440.1042" x2="433.8542" y1="65.1611" y2="65.1611"/><text fill="#D8BC00" font-family="Open Sans,Avenir,Nunito,Arial,Helvetica,SansSerif" font-size="12.5" lengthAdjust="spacing" textLength="60.4167" x="360.9375" y="82.4544">wicket_ioc</text><!--MD5=[2773ab4f61ea46894756c769c8075295]
entity wicket_request--><rect fill="#1B1B1A" height="44.93" rx="8.3333" ry="8.3333" style="stroke:#5E5E5E;stroke-width:1.5625;" width="127.0833" x="733.8542" y="160.9945"/><polygon fill="#1B1B1A" points="843.2292,166.2028,843.2292,180.7861,855.7292,180.7861,855.7292,172.4528,849.4792,166.2028,843.2292,166.2028" style="stroke:#5E5E5E;stroke-width:1.5625;"/><line style="stroke:#5E5E5E;stroke-width:1.5625;" x1="849.4792" x2="849.4792" y1="166.2028" y2="172.4528"/><line style="stroke:#5E5E5E;stroke-width:1.5625;" x1="855.7292" x2="849.4792" y1="172.4528" y2="172.4528"/><text fill="#D8BC00" font-family="Open Sans,Avenir,Nunito,Arial,Helvetica,SansSerif" font-size="12.5" lengthAdjust="spacing" textLength="89.5833" x="747.3958" y="189.7461">wicket_request</text><!--MD5=[3ac1d6494a45af2432a9a4f3438247e5]
entity wicket_util--><rect fill="#1B1B1A" height="44.93" rx="8.3333" ry="8.3333" style="stroke:#5E5E5E;stroke-width:1.5625;" width="98.9583" x="897.9167" y="160.9945"/><polygon fill="#1B1B1A" points="979.1667,166.2028,979.1667,180.7861,991.6667,180.7861,991.6667,172.4528,985.4167,166.2028,979.1667,166.2028" style="stroke:#5E5E5E;stroke-width:1.5625;"/><line style="stroke:#5E5E5E;stroke-width:1.5625;" x1="985.4167" x2="985.4167" y1="166.2028" y2="172.4528"/><line style="stroke:#5E5E5E;stroke-width:1.5625;" x1="991.6667" x2="985.4167" y1="172.4528" y2="172.4528"/><text fill="#D8BC00" font-family="Open Sans,Avenir,Nunito,Arial,Helvetica,SansSerif" font-size="12.5" lengthAdjust="spacing" textLength="61.4583" x="911.4583" y="189.7461">wicket_util</text><!--MD5=[9ca5736865ad522015f112acaf757dc2]
entity apiguardian_api--><rect fill="#1B1B1A" height="44.93" rx="8.3333" ry="8.3333" style="stroke:#5E5E5E;stroke-width:1.5625;" width="134.375" x="1832.2917" y="160.9945"/><polygon fill="#1B1B1A" points="1948.9583,166.2028,1948.9583,180.7861,1961.4583,180.7861,1961.4583,172.4528,1955.2083,166.2028,1948.9583,166.2028" style="stroke:#5E5E5E;stroke-width:1.5625;"/><line style="stroke:#5E5E5E;stroke-width:1.5625;" x1="1955.2083" x2="1955.2083" y1="166.2028" y2="172.4528"/><line style="stroke:#5E5E5E;stroke-width:1.5625;" x1="1961.4583" x2="1955.2083" y1="172.4528" y2="172.4528"/><text fill="#D8BC00" font-family="Open Sans,Avenir,Nunito,Arial,Helvetica,SansSerif" font-size="12.5" lengthAdjust="spacing" textLength="96.875" x="1845.8333" y="189.7461">apiguardian_api</text><!--MD5=[36160172b96c05987554ef5157bd1d99]
entity jdk_serializable_functional--><rect fill="#1B1B1A" height="44.93" rx="8.3333" ry="8.3333" style="stroke:#5E5E5E;stroke-width:1.5625;" width="195.8333" x="1033.8542" y="160.9945"/><polygon fill="#1B1B1A" points="1211.9792,166.2028,1211.9792,180.7861,1224.4792,180.7861,1224.4792,172.4528,1218.2292,166.2028,1211.9792,166.2028" style="stroke:#5E5E5E;stroke-width:1.5625;"/><line style="stroke:#5E5E5E;stroke-width:1.5625;" x1="1218.2292" x2="1218.2292" y1="166.2028" y2="172.4528"/><line style="stroke:#5E5E5E;stroke-width:1.5625;" x1="1224.4792" x2="1218.2292" y1="172.4528" y2="172.4528"/><text fill="#D8BC00" font-family="Open Sans,Avenir,Nunito,Arial,Helvetica,SansSerif" font-size="12.5" lengthAdjust="spacing" textLength="158.3333" x="1047.3958" y="189.7461">jdk_serializable_functional</text><!--MD5=[67ea71966aa57e3ddf5b1acb79bd106c]
entity junit_jupiter_api--><rect fill="#1B1B1A" height="44.93" rx="8.3333" ry="8.3333" style="stroke:#5E5E5E;stroke-width:1.5625;" width="134.375" x="2003.125" y="160.9945"/><polygon fill="#1B1B1A" points="2119.7917,166.2028,2119.7917,180.7861,2132.2917,180.7861,2132.2917,172.4528,2126.0417,166.2028,2119.7917,166.2028" style="stroke:#5E5E5E;stroke-width:1.5625;"/><line style="stroke:#5E5E5E;stroke-width:1.5625;" x1="2126.0417" x2="2126.0417" y1="166.2028" y2="172.4528"/><line style="stroke:#5E5E5E;stroke-width:1.5625;" x1="2132.2917" x2="2126.0417" y1="172.4528" y2="172.4528"/><text fill="#D8BC00" font-family="Open Sans,Avenir,Nunito,Arial,Helvetica,SansSerif" font-size="12.5" lengthAdjust="spacing" textLength="96.875" x="2016.6667" y="189.7461">junit_jupiter_api</text><!--MD5=[def59a02e843c50310240afbb884053d]
entity junit_jupiter_engine--><rect fill="#1B1B1A" height="44.93" rx="8.3333" ry="8.3333" style="stroke:#5E5E5E;stroke-width:1.5625;" width="155.2083" x="1992.7083" y="53.7028"/><polygon fill="#1B1B1A" points="2130.2083,58.9111,2130.2083,73.4945,2142.7083,73.4945,2142.7083,65.1611,2136.4583,58.9111,2130.2083,58.9111" style="stroke:#5E5E5E;stroke-width:1.5625;"/><line style="stroke:#5E5E5E;stroke-width:1.5625;" x1="2136.4583" x2="2136.4583" y1="58.9111" y2="65.1611"/><line style="stroke:#5E5E5E;stroke-width:1.5625;" x1="2142.7083" x2="2136.4583" y1="65.1611" y2="65.1611"/><text fill="#D8BC00" font-family="Open Sans,Avenir,Nunito,Arial,Helvetica,SansSerif" font-size="12.5" lengthAdjust="spacing" textLength="117.7083" x="2006.25" y="82.4544">junit_jupiter_engine</text><!--MD5=[16ac86175dbfd8781882e642bc1db0bb]
entity junit_platform_commons--><rect fill="#1B1B1A" height="44.93" rx="8.3333" ry="8.3333" style="stroke:#5E5E5E;stroke-width:1.5625;" width="184.375" x="2075" y="268.2861"/><polygon fill="#1B1B1A" points="2241.6667,273.4945,2241.6667,288.0778,2254.1667,288.0778,2254.1667,279.7445,2247.9167,273.4945,2241.6667,273.4945" style="stroke:#5E5E5E;stroke-width:1.5625;"/><line style="stroke:#5E5E5E;stroke-width:1.5625;" x1="2247.9167" x2="2247.9167" y1="273.4945" y2="279.7445"/><line style="stroke:#5E5E5E;stroke-width:1.5625;" x1="2254.1667" x2="2247.9167" y1="279.7445" y2="279.7445"/><text fill="#D8BC00" font-family="Open Sans,Avenir,Nunito,Arial,Helvetica,SansSerif" font-size="12.5" lengthAdjust="spacing" textLength="146.875" x="2088.5417" y="297.0378">junit_platform_commons</text><!--MD5=[c94fa6fb52256b56717125d5f4ed3cc6]
entity junit_platform_engine--><rect fill="#1B1B1A" height="44.93" rx="8.3333" ry="8.3333" style="stroke:#5E5E5E;stroke-width:1.5625;" width="166.6667" x="2174.4792" y="160.9945"/><polygon fill="#1B1B1A" points="2323.4375,166.2028,2323.4375,180.7861,2335.9375,180.7861,2335.9375,172.4528,2329.6875,166.2028,2323.4375,166.2028" style="stroke:#5E5E5E;stroke-width:1.5625;"/><line style="stroke:#5E5E5E;stroke-width:1.5625;" x1="2329.6875" x2="2329.6875" y1="166.2028" y2="172.4528"/><line style="stroke:#5E5E5E;stroke-width:1.5625;" x1="2335.9375" x2="2329.6875" y1="172.4528" y2="172.4528"/><text fill="#D8BC00" font-family="Open Sans,Avenir,Nunito,Arial,Helvetica,SansSerif" font-size="12.5" lengthAdjust="spacing" textLength="129.1667" x="2188.0208" y="189.7461">junit_platform_engine</text><!--MD5=[a68d3636c404b547973d4378239fa3aa]
entity mockito_core--><rect fill="#1B1B1A" height="44.93" rx="8.3333" ry="8.3333" style="stroke:#5E5E5E;stroke-width:1.5625;" width="116.6667" x="1551.5625" y="53.7028"/><polygon fill="#1B1B1A" points="1650.5208,58.9111,1650.5208,73.4945,1663.0208,73.4945,1663.0208,65.1611,1656.7708,58.9111,1650.5208,58.9111" style="stroke:#5E5E5E;stroke-width:1.5625;"/><line style="stroke:#5E5E5E;stroke-width:1.5625;" x1="1656.7708" x2="1656.7708" y1="58.9111" y2="65.1611"/><line style="stroke:#5E5E5E;stroke-width:1.5625;" x1="1663.0208" x2="1656.7708" y1="65.1611" y2="65.1611"/><text fill="#D8BC00" font-family="Open Sans,Avenir,Nunito,Arial,Helvetica,SansSerif" font-size="12.5" lengthAdjust="spacing" textLength="79.1667" x="1565.1042" y="82.4544">mockito_core</text><!--MD5=[b3c862d1486667ad9c7edef6529b2202]
entity objenesis--><rect fill="#1B1B1A" height="44.93" rx="8.3333" ry="8.3333" style="stroke:#5E5E5E;stroke-width:1.5625;" width="94.7917" x="1701.0417" y="160.9945"/><polygon fill="#1B1B1A" points="1778.125,166.2028,1778.125,180.7861,1790.625,180.7861,1790.625,172.4528,1784.375,166.2028,1778.125,166.2028" style="stroke:#5E5E5E;stroke-width:1.5625;"/><line style="stroke:#5E5E5E;stroke-width:1.5625;" x1="1784.375" x2="1784.375" y1="166.2028" y2="172.4528"/><line style="stroke:#5E5E5E;stroke-width:1.5625;" x1="1790.625" x2="1784.375" y1="172.4528" y2="172.4528"/><text fill="#D8BC00" font-family="Open Sans,Avenir,Nunito,Arial,Helvetica,SansSerif" font-size="12.5" lengthAdjust="spacing" textLength="57.2917" x="1714.5833" y="189.7461">objenesis</text><!--MD5=[ba030213f11f5a3d5b319bb69903d2f9]
entity opentest4j--><rect fill="#1B1B1A" height="44.93" rx="8.3333" ry="8.3333" style="stroke:#5E5E5E;stroke-width:1.5625;" width="102.0833" x="2296.3542" y="268.2861"/><polygon fill="#1B1B1A" points="2380.7292,273.4945,2380.7292,288.0778,2393.2292,288.0778,2393.2292,279.7445,2386.9792,273.4945,2380.7292,273.4945" style="stroke:#5E5E5E;stroke-width:1.5625;"/><line style="stroke:#5E5E5E;stroke-width:1.5625;" x1="2386.9792" x2="2386.9792" y1="273.4945" y2="279.7445"/><line style="stroke:#5E5E5E;stroke-width:1.5625;" x1="2393.2292" x2="2386.9792" y1="279.7445" y2="279.7445"/><text fill="#D8BC00" font-family="Open Sans,Avenir,Nunito,Arial,Helvetica,SansSerif" font-size="12.5" lengthAdjust="spacing" textLength="64.5833" x="2309.8958" y="297.0378">opentest4j</text><!--MD5=[92e2ad58d19962135e7ff93f22958550]
entity asm--><rect fill="#1B1B1A" height="44.93" rx="8.3333" ry="8.3333" style="stroke:#5E5E5E;stroke-width:1.5625;" width="62.5" x="504.6875" y="160.9945"/><polygon fill="#1B1B1A" points="549.4792,166.2028,549.4792,180.7861,561.9792,180.7861,561.9792,172.4528,555.7292,166.2028,549.4792,166.2028" style="stroke:#5E5E5E;stroke-width:1.5625;"/><line style="stroke:#5E5E5E;stroke-width:1.5625;" x1="555.7292" x2="555.7292" y1="166.2028" y2="172.4528"/><line style="stroke:#5E5E5E;stroke-width:1.5625;" x1="561.9792" x2="555.7292" y1="172.4528" y2="172.4528"/><text fill="#D8BC00" font-family="Open Sans,Avenir,Nunito,Arial,Helvetica,SansSerif" font-size="12.5" lengthAdjust="spacing" textLength="25" x="518.2292" y="189.7461">asm</text><!--MD5=[2158cadba960fc97c965ca71cca36298]
entity jcl_over_slf4j--><rect fill="#1B1B1A" height="44.93" rx="8.3333" ry="8.3333" style="stroke:#5E5E5E;stroke-width:1.5625;" width="115.625" x="194.7917" y="53.7028"/><polygon fill="#1B1B1A" points="292.7083,58.9111,292.7083,73.4945,305.2083,73.4945,305.2083,65.1611,298.9583,58.9111,292.7083,58.9111" style="stroke:#5E5E5E;stroke-width:1.5625;"/><line style="stroke:#5E5E5E;stroke-width:1.5625;" x1="298.9583" x2="298.9583" y1="58.9111" y2="65.1611"/><line style="stroke:#5E5E5E;stroke-width:1.5625;" x1="305.2083" x2="298.9583" y1="65.1611" y2="65.1611"/><text fill="#D8BC00" font-family="Open Sans,Avenir,Nunito,Arial,Helvetica,SansSerif" font-size="12.5" lengthAdjust="spacing" textLength="78.125" x="208.3333" y="82.4544">jcl_over_slf4j</text><!--MD5=[44b0a2e1eacfc27a1dd91401467b1b24]
entity slf4j_api--><rect fill="#1B1B1A" height="44.93" rx="8.3333" ry="8.3333" style="stroke:#5E5E5E;stroke-width:1.5625;" width="88.5417" x="38.5417" y="160.9945"/><polygon fill="#1B1B1A" points="109.375,166.2028,109.375,180.7861,121.875,180.7861,121.875,172.4528,115.625,166.2028,109.375,166.2028" style="stroke:#5E5E5E;stroke-width:1.5625;"/><line style="stroke:#5E5E5E;stroke-width:1.5625;" x1="115.625" x2="115.625" y1="166.2028" y2="172.4528"/><line style="stroke:#5E5E5E;stroke-width:1.5625;" x1="121.875" x2="115.625" y1="172.4528" y2="172.4528"/><text fill="#D8BC00" font-family="Open Sans,Avenir,Nunito,Arial,Helvetica,SansSerif" font-size="12.5" lengthAdjust="spacing" textLength="51.0417" x="52.0833" y="189.7461">slf4j_api</text><!--MD5=[7fbee5ae74c8dd4ba8120faa50c8c743]
entity slf4j_log4j12--><rect fill="#1B1B1A" height="44.93" rx="8.3333" ry="8.3333" style="stroke:#5E5E5E;stroke-width:1.5625;" width="116.6667" x="1242.1875" y="53.7028"/><polygon fill="#1B1B1A" points="1341.1458,58.9111,1341.1458,73.4945,1353.6458,73.4945,1353.6458,65.1611,1347.3958,58.9111,1341.1458,58.9111" style="stroke:#5E5E5E;stroke-width:1.5625;"/><line style="stroke:#5E5E5E;stroke-width:1.5625;" x1="1347.3958" x2="1347.3958" y1="58.9111" y2="65.1611"/><line style="stroke:#5E5E5E;stroke-width:1.5625;" x1="1353.6458" x2="1347.3958" y1="65.1611" y2="65.1611"/><text fill="#D8BC00" font-family="Open Sans,Avenir,Nunito,Arial,Helvetica,SansSerif" font-size="12.5" lengthAdjust="spacing" textLength="79.1667" x="1255.7292" y="82.4544">slf4j_log4j12</text><!--MD5=[e0a29c1379f260ab7f345bb455c93127]
entity spring_aop--><rect fill="#1B1B1A" height="44.93" rx="8.3333" ry="8.3333" style="stroke:#5E5E5E;stroke-width:1.5625;" width="104.1667" x="2377.6042" y="160.9945"/><polygon fill="#1B1B1A" points="2464.0625,166.2028,2464.0625,180.7861,2476.5625,180.7861,2476.5625,172.4528,2470.3125,166.2028,2464.0625,166.2028" style="stroke:#5E5E5E;stroke-width:1.5625;"/><line style="stroke:#5E5E5E;stroke-width:1.5625;" x1="2470.3125" x2="2470.3125" y1="166.2028" y2="172.4528"/><line style="stroke:#5E5E5E;stroke-width:1.5625;" x1="2476.5625" x2="2470.3125" y1="172.4528" y2="172.4528"/><text fill="#D8BC00" font-family="Open Sans,Avenir,Nunito,Arial,Helvetica,SansSerif" font-size="12.5" lengthAdjust="spacing" textLength="66.6667" x="2391.1458" y="189.7461">spring_aop</text><!--MD5=[b0c7993166b305e6c4e7615fdafda7b7]
entity spring_beans--><rect fill="#1B1B1A" height="44.93" rx="8.3333" ry="8.3333" style="stroke:#5E5E5E;stroke-width:1.5625;" width="117.7083" x="2702.0833" y="160.9945"/><polygon fill="#1B1B1A" points="2802.0833,166.2028,2802.0833,180.7861,2814.5833,180.7861,2814.5833,172.4528,2808.3333,166.2028,2802.0833,166.2028" style="stroke:#5E5E5E;stroke-width:1.5625;"/><line style="stroke:#5E5E5E;stroke-width:1.5625;" x1="2808.3333" x2="2808.3333" y1="166.2028" y2="172.4528"/><line style="stroke:#5E5E5E;stroke-width:1.5625;" x1="2814.5833" x2="2808.3333" y1="172.4528" y2="172.4528"/><text fill="#D8BC00" font-family="Open Sans,Avenir,Nunito,Arial,Helvetica,SansSerif" font-size="12.5" lengthAdjust="spacing" textLength="80.2083" x="2715.625" y="189.7461">spring_beans</text><!--MD5=[9aef6b64441a4ab68ef6e09e3d17ad08]
entity spring_context--><rect fill="#1B1B1A" height="44.93" rx="8.3333" ry="8.3333" style="stroke:#5E5E5E;stroke-width:1.5625;" width="125" x="2448.4375" y="53.7028"/><polygon fill="#1B1B1A" points="2555.7292,58.9111,2555.7292,73.4945,2568.2292,73.4945,2568.2292,65.1611,2561.9792,58.9111,2555.7292,58.9111" style="stroke:#5E5E5E;stroke-width:1.5625;"/><line style="stroke:#5E5E5E;stroke-width:1.5625;" x1="2561.9792" x2="2561.9792" y1="58.9111" y2="65.1611"/><line style="stroke:#5E5E5E;stroke-width:1.5625;" x1="2568.2292" x2="2561.9792" y1="65.1611" y2="65.1611"/><text fill="#D8BC00" font-family="Open Sans,Avenir,Nunito,Arial,Helvetica,SansSerif" font-size="12.5" lengthAdjust="spacing" textLength="87.5" x="2461.9792" y="82.4544">spring_context</text><!--MD5=[3cbf9022786ed46e3e439daf897a3708]
entity spring_core--><rect fill="#1B1B1A" height="44.93" rx="8.3333" ry="8.3333" style="stroke:#5E5E5E;stroke-width:1.5625;" width="107.2917" x="2856.25" y="160.9945"/><polygon fill="#1B1B1A" points="2945.8333,166.2028,2945.8333,180.7861,2958.3333,180.7861,2958.3333,172.4528,2952.0833,166.2028,2945.8333,166.2028" style="stroke:#5E5E5E;stroke-width:1.5625;"/><line style="stroke:#5E5E5E;stroke-width:1.5625;" x1="2952.0833" x2="2952.0833" y1="166.2028" y2="172.4528"/><line style="stroke:#5E5E5E;stroke-width:1.5625;" x1="2958.3333" x2="2952.0833" y1="172.4528" y2="172.4528"/><text fill="#D8BC00" font-family="Open Sans,Avenir,Nunito,Arial,Helvetica,SansSerif" font-size="12.5" lengthAdjust="spacing" textLength="69.7917" x="2869.7917" y="189.7461">spring_core</text><!--MD5=[3c50d035fc4e777d618e96342ef7d484]
entity spring_expression--><rect fill="#1B1B1A" height="44.93" rx="8.3333" ry="8.3333" style="stroke:#5E5E5E;stroke-width:1.5625;" width="146.875" x="2518.75" y="160.9945"/><polygon fill="#1B1B1A" points="2647.9167,166.2028,2647.9167,180.7861,2660.4167,180.7861,2660.4167,172.4528,2654.1667,166.2028,2647.9167,166.2028" style="stroke:#5E5E5E;stroke-width:1.5625;"/><line style="stroke:#5E5E5E;stroke-width:1.5625;" x1="2654.1667" x2="2654.1667" y1="166.2028" y2="172.4528"/><line style="stroke:#5E5E5E;stroke-width:1.5625;" x1="2660.4167" x2="2654.1667" y1="172.4528" y2="172.4528"/><text fill="#D8BC00" font-family="Open Sans,Avenir,Nunito,Arial,Helvetica,SansSerif" font-size="12.5" lengthAdjust="spacing" textLength="109.375" x="2532.2917" y="189.7461">spring_expression</text><!--MD5=[53f0211710a18501eae30908ba73574f]
entity spring_jcl--><rect fill="#1B1B1A" height="44.93" rx="8.3333" ry="8.3333" style="stroke:#5E5E5E;stroke-width:1.5625;" width="94.7917" x="2862.5" y="268.2861"/><polygon fill="#1B1B1A" points="2939.5833,273.4945,2939.5833,288.0778,2952.0833,288.0778,2952.0833,279.7445,2945.8333,273.4945,2939.5833,273.4945" style="stroke:#5E5E5E;stroke-width:1.5625;"/><line style="stroke:#5E5E5E;stroke-width:1.5625;" x1="2945.8333" x2="2945.8333" y1="273.4945" y2="279.7445"/><line style="stroke:#5E5E5E;stroke-width:1.5625;" x1="2952.0833" x2="2945.8333" y1="279.7445" y2="279.7445"/><text fill="#D8BC00" font-family="Open Sans,Avenir,Nunito,Arial,Helvetica,SansSerif" font-size="12.5" lengthAdjust="spacing" textLength="57.2917" x="2876.0417" y="297.0378">spring_jcl</text><!--MD5=[a6b2edb62586c6847434e4f9052fae4a]
entity spring_web--><rect fill="#1B1B1A" height="44.93" rx="8.3333" ry="8.3333" style="stroke:#5E5E5E;stroke-width:1.5625;" width="106.25" x="2781.7708" y="53.7028"/><polygon fill="#1B1B1A" points="2870.3125,58.9111,2870.3125,73.4945,2882.8125,73.4945,2882.8125,65.1611,2876.5625,58.9111,2870.3125,58.9111" style="stroke:#5E5E5E;stroke-width:1.5625;"/><line style="stroke:#5E5E5E;stroke-width:1.5625;" x1="2876.5625" x2="2876.5625" y1="58.9111" y2="65.1611"/><line style="stroke:#5E5E5E;stroke-width:1.5625;" x1="2882.8125" x2="2876.5625" y1="65.1611" y2="65.1611"/><text fill="#D8BC00" font-family="Open Sans,Avenir,Nunito,Arial,Helvetica,SansSerif" font-size="12.5" lengthAdjust="spacing" textLength="68.75" x="2795.3125" y="82.4544">spring_web</text><!--MD5=[387791ceefa6e7ac0048e0d5370dea72]
link junit_jupiter_engine to apiguardian_api--><path d="M2035.3333,98.682 C2007.3438,115.9215 1968.1146,140.0778 1939,158.0153 " fill="none" id="junit_jupiter_engine-to-apiguardian_api" style="stroke:#545454;stroke-width:1.5625;"/><polygon fill="#545454" points="1934.4167,160.8382,1944.586,159.4829,1938.8549,158.1127,1940.2251,152.3817,1934.4167,160.8382" style="stroke:#545454;stroke-width:1.5625;"/><!--MD5=[f4b72d10a6cfe7a8a93ab847947f7423]
link junit_jupiter_engine to junit_jupiter_api--><path d="M2070.3125,98.9424 C2070.3125,115.4111 2070.3125,138.109 2070.3125,155.6611 " fill="none" id="junit_jupiter_engine-to-junit_jupiter_api" style="stroke:#545454;stroke-width:1.5625;"/><polygon fill="#545454" points="2070.3125,160.9424,2074.4792,151.5674,2070.3125,155.734,2066.1458,151.5674,2070.3125,160.9424" style="stroke:#545454;stroke-width:1.5625;"/><!--MD5=[06eb6ab5d989baa08de92dee96f24dd7]
link junit_jupiter_engine to junit_platform_engine--><path d="M2108.7083,98.682 C2139.5521,115.984 2182.8333,140.2757 2214.8333,158.234 " fill="none" id="junit_jupiter_engine-to-junit_platform_engine" style="stroke:#545454;stroke-width:1.5625;"/><polygon fill="#545454" points="2219.4688,160.8382,2213.3494,152.6038,2214.9321,158.2798,2209.256,159.8625,2219.4688,160.8382" style="stroke:#545454;stroke-width:1.5625;"/><!--MD5=[ae5ab7164155f4fc79ebb3185a9c5d1c]
link junit_platform_engine to junit_platform_commons--><path d="M2239.0313,206.234 C2224.6042,222.984 2204.625,246.182 2189.3958,263.859 " fill="none" id="junit_platform_engine-to-junit_platform_commons" style="stroke:#545454;stroke-width:1.5625;"/><polygon fill="#545454" points="2185.6354,268.234,2194.9178,263.865,2189.0408,264.2933,2188.6126,258.4163,2185.6354,268.234" style="stroke:#545454;stroke-width:1.5625;"/><!--MD5=[8a9b5fbf88ccec267ebeca0685c2396a]
link junit_platform_engine to opentest4j--><path d="M2276.375,206.234 C2290.6458,222.984 2310.3958,246.182 2325.4479,263.859 " fill="none" id="junit_platform_engine-to-opentest4j" style="stroke:#545454;stroke-width:1.5625;"/><polygon fill="#545454" points="2329.1667,268.234,2326.2686,258.3926,2325.7931,264.266,2319.9197,263.7904,2329.1667,268.234" style="stroke:#545454;stroke-width:1.5625;"/><!--MD5=[ed4318ea9be3443a979b37d4f3399abc]
link mockito_core to byte_buddy--><path d="M1609.8958,98.9424 C1609.8958,115.4111 1609.8958,138.109 1609.8958,155.6611 " fill="none" id="mockito_core-to-byte_buddy" style="stroke:#545454;stroke-width:1.5625;"/><polygon fill="#545454" points="1609.8958,160.9424,1614.0625,151.5674,1609.8958,155.734,1605.7292,151.5674,1609.8958,160.9424" style="stroke:#545454;stroke-width:1.5625;"/><!--MD5=[ca166302077c6e1468853e13a25b2a92]
link mockito_core to byte_buddy_agent--><path d="M1576.1979,98.682 C1549.2292,115.9215 1511.4375,140.0778 1483.3854,158.0153 " fill="none" id="mockito_core-to-byte_buddy_agent" style="stroke:#545454;stroke-width:1.5625;"/><polygon fill="#545454" points="1478.9688,160.8382,1489.1104,159.2892,1483.3542,158.0285,1484.6149,152.2724,1478.9688,160.8382" style="stroke:#545454;stroke-width:1.5625;"/><!--MD5=[eff02feeff1f5c6fac4f7dcff0627abc]
link mockito_core to objenesis--><path d="M1638.2708,98.682 C1660.7708,115.7757 1692.25,139.682 1715.8021,157.5674 " fill="none" id="mockito_core-to-objenesis" style="stroke:#545454;stroke-width:1.5625;"/><polygon fill="#545454" points="1720.1042,160.8382,1715.1761,151.8401,1715.9627,157.6799,1710.1228,158.4665,1720.1042,160.8382" style="stroke:#545454;stroke-width:1.5625;"/><!--MD5=[546b0a91a22de90019b2ba1c617f48bd]
link slf4j_log4j12 to log4j--><path d="M1300.5208,98.9424 C1300.5208,115.4111 1300.5208,138.109 1300.5208,155.6611 " fill="none" id="slf4j_log4j12-to-log4j" style="stroke:#545454;stroke-width:1.5625;"/><polygon fill="#545454" points="1300.5208,160.9424,1304.6875,151.5674,1300.5208,155.734,1296.3542,151.5674,1300.5208,160.9424" style="stroke:#545454;stroke-width:1.5625;"/><!--MD5=[e2814d3b622366d63719b7d774da5329]
link spring_context to spring_aop--><path d="M2494.1042,98.9424 C2481.1667,115.6924 2463.25,138.8903 2449.5938,156.5674 " fill="none" id="spring_context-to-spring_aop" style="stroke:#545454;stroke-width:1.5625;"/><polygon fill="#545454" points="2446.2188,160.9424,2455.2476,156.0709,2449.4029,156.8208,2448.653,150.9761,2446.2188,160.9424" style="stroke:#545454;stroke-width:1.5625;"/><!--MD5=[71bf99df125ace43730c871ee751dab0]
link spring_context to spring_expression--><path d="M2527.7708,98.9424 C2540.7083,115.6924 2558.625,138.8903 2572.2813,156.5674 " fill="none" id="spring_context-to-spring_expression" style="stroke:#545454;stroke-width:1.5625;"/><polygon fill="#545454" points="2575.6563,160.9424,2573.222,150.9761,2572.4721,156.8208,2566.6274,156.0709,2575.6563,160.9424" style="stroke:#545454;stroke-width:1.5625;"/><!--MD5=[dd129145259918822ea074b7ce5f63b8]
link spring_core to spring_jcl--><path d="M2909.8958,206.234 C2909.8958,222.7028 2909.8958,245.4007 2909.8958,262.9528 " fill="none" id="spring_core-to-spring_jcl" style="stroke:#545454;stroke-width:1.5625;"/><polygon fill="#545454" points="2909.8958,268.234,2914.0625,258.859,2909.8958,263.0257,2905.7292,258.859,2909.8958,268.234" style="stroke:#545454;stroke-width:1.5625;"/><!--MD5=[d7f28269b6d393a059700a7915a09b26]
link spring_web to spring_beans--><path d="M2819.5729,98.9424 C2807.7917,115.6924 2791.4896,138.8903 2779.0625,156.5674 " fill="none" id="spring_web-to-spring_beans" style="stroke:#545454;stroke-width:1.5625;"/><polygon fill="#545454" points="2775.9896,160.9424,2784.7805,155.6536,2778.9774,156.6762,2777.9547,150.8731,2775.9896,160.9424" style="stroke:#545454;stroke-width:1.5625;"/><!--MD5=[b03ed2166f553b43fc544dd44440cf76]
link spring_web to spring_core--><path d="M2850.4375,98.9424 C2862.3854,115.6924 2878.9167,138.8903 2891.5208,156.5674 " fill="none" id="spring_web-to-spring_core" style="stroke:#545454;stroke-width:1.5625;"/><polygon fill="#545454" points="2894.6354,160.9424,2892.5902,150.8891,2891.6138,156.7002,2885.8027,155.7237,2894.6354,160.9424" style="stroke:#545454;stroke-width:1.5625;"/><!--MD5=[dc36b239700aa6686811ce309cbe934a]
link wicket_core to jdk_serializable_functional--><path d="M925.1979,98.557 C968.4167,116.0882 1029.4479,140.8486 1073.9688,158.9007 " fill="none" id="wicket_core-to-jdk_serializable_functional" style="stroke:#545454;stroke-width:1.5625;"/><polygon fill="#545454" points="1079.0417,160.9632,1071.9316,153.5673,1074.2183,158.9981,1068.7875,161.2848,1079.0417,160.9632" style="stroke:#545454;stroke-width:1.5625;"/><!--MD5=[daa80ab011d61c32df9a875df4862374]
link wicket_core to openjson--><path d="M827.2292,98.557 C790.4896,115.984 738.6771,140.5465 700.6563,158.5778 " fill="none" id="wicket_core-to-openjson" style="stroke:#545454;stroke-width:1.5625;"/><polygon fill="#545454" points="695.625,160.9632,705.8813,160.7197,700.3329,158.7355,702.317,153.1871,695.625,160.9632" style="stroke:#545454;stroke-width:1.5625;"/><!--MD5=[0e84bfe14f25425d2935f9d6ab96c635]
link wicket_core to wicket_request--><path d="M856.8542,98.9424 C844.9063,115.6924 828.375,138.8903 815.7708,156.5674 " fill="none" id="wicket_core-to-wicket_request" style="stroke:#545454;stroke-width:1.5625;"/><polygon fill="#545454" points="812.6563,160.9424,821.489,155.7237,815.6779,156.7002,814.7014,150.8891,812.6563,160.9424" style="stroke:#545454;stroke-width:1.5625;"/><!--MD5=[954cb058695ba1aa4b21e9f88b759e90]
link wicket_core to wicket_util--><path d="M887.9375,98.9424 C899.8854,115.6924 916.4167,138.8903 929.0208,156.5674 " fill="none" id="wicket_core-to-wicket_util" style="stroke:#545454;stroke-width:1.5625;"/><polygon fill="#545454" points="932.1354,160.9424,930.0902,150.8891,929.1138,156.7002,923.3027,155.7237,932.1354,160.9424" style="stroke:#545454;stroke-width:1.5625;"/><!--MD5=[89d0449328e85840b36d1930e2dc56aa]
link wicket_ioc to asm--><path d="M424.9375,98.682 C447.6146,115.7757 479.3333,139.682 503.0625,157.5674 " fill="none" id="wicket_ioc-to-asm" style="stroke:#545454;stroke-width:1.5625;"/><polygon fill="#545454" points="507.3958,160.8382,502.4317,151.8599,503.2417,157.6966,497.4051,158.5065,507.3958,160.8382" style="stroke:#545454;stroke-width:1.5625;"/><!--MD5=[0d89d4d5e225e48e7d2d1626e73475a2]
link wicket_ioc to cglib--><path d="M367.3438,98.682 C344.3333,115.7757 312.1354,139.682 288.0521,157.5674 " fill="none" id="wicket_ioc-to-cglib" style="stroke:#545454;stroke-width:1.5625;"/><polygon fill="#545454" points="283.6563,160.8382,293.6653,158.5865,287.8354,157.7299,288.692,151.8999,283.6563,160.8382" style="stroke:#545454;stroke-width:1.5625;"/><!--MD5=[6901d3c48174f662a2a7a2e12240c784]
link wicket_ioc to jakarta_inject_api--><path d="M396.3542,98.9424 C396.3542,115.4111 396.3542,138.109 396.3542,155.6611 " fill="none" id="wicket_ioc-to-jakarta_inject_api" style="stroke:#545454;stroke-width:1.5625;"/><polygon fill="#545454" points="396.3542,160.9424,400.5208,151.5674,396.3542,155.734,392.1875,151.5674,396.3542,160.9424" style="stroke:#545454;stroke-width:1.5625;"/><!--MD5=[fd484b9bbd7d72f648347b8c2c1c0a52]
link wicket_util to commons_collections4--><path d="M983.875,205.9736 C1013.0521,223.2132 1053.9583,247.3695 1084.3125,265.307 " fill="none" id="wicket_util-to-commons_collections4" style="stroke:#545454;stroke-width:1.5625;"/><polygon fill="#545454" points="1089.0938,268.1299,1083.1451,259.7714,1084.6106,265.4787,1078.9033,266.9443,1089.0938,268.1299" style="stroke:#545454;stroke-width:1.5625;"/><!--MD5=[04bdba72622389e960a9e360895b6314]
link wicket_util to commons_fileupload--><path d="M911.9896,205.9736 C883.6667,223.2132 843.9479,247.3695 814.4792,265.307 " fill="none" id="wicket_util-to-commons_fileupload" style="stroke:#545454;stroke-width:1.5625;"/><polygon fill="#545454" points="809.8438,268.1299,820.0183,266.8145,814.2927,265.4218,815.6854,259.6962,809.8438,268.1299" style="stroke:#545454;stroke-width:1.5625;"/><!--MD5=[42393529676ae9aeba5f8fc3a130e5ac]
link wicket_util to commons_io--><path d="M947.3958,206.234 C947.3958,222.7028 947.3958,245.4007 947.3958,262.9528 " fill="none" id="wicket_util-to-commons_io" style="stroke:#545454;stroke-width:1.5625;"/><polygon fill="#545454" points="947.3958,268.234,951.5625,258.859,947.3958,263.0257,943.2292,258.859,947.3958,268.234" style="stroke:#545454;stroke-width:1.5625;"/><!--MD5=[d292238de1308fe6428315af99c02d68]
link jakarta_servlet_api to jcl_over_slf4j--><!--MD5=[a4019881cca8f362423847e2b3aacfb1]
link jakarta_servlet_api to slf4j_api--><!--MD5=[3e2d298b90fc3f6f4db15397fd5ea2bf]
@startuml

    !include lexakai.theme
    
    title "wicket-spring"
    
    artifact cglib
    artifact openjson
    artifact commons_fileupload
    artifact commons_io
    artifact jakarta_inject_api
    artifact jakarta_servlet_api
    artifact log4j
    artifact byte_buddy_agent
    artifact byte_buddy
    artifact commons_collections4
    artifact wicket_core
    artifact wicket_ioc
    artifact wicket_request
    artifact wicket_util
    artifact apiguardian_api
    artifact jdk_serializable_functional
    artifact junit_jupiter_api
    artifact junit_jupiter_engine
    artifact junit_platform_commons
    artifact junit_platform_engine
    artifact mockito_core
    artifact objenesis
    artifact opentest4j
    artifact asm
    artifact jcl_over_slf4j
    artifact slf4j_api
    artifact slf4j_log4j12
    artifact spring_aop
    artifact spring_beans
    artifact spring_context
    artifact spring_core
    artifact spring_expression
    artifact spring_jcl
    artifact spring_web
    junit_jupiter_engine - -> apiguardian_api
    junit_jupiter_engine - -> junit_jupiter_api
    junit_jupiter_engine - -> junit_platform_engine
    junit_platform_engine - -> junit_platform_commons
    junit_platform_engine - -> opentest4j
    mockito_core - -> byte_buddy
    mockito_core - -> byte_buddy_agent
    mockito_core - -> objenesis
    slf4j_log4j12 - -> log4j
    spring_context - -> spring_aop
    spring_context - -> spring_expression
    spring_core - -> spring_jcl
    spring_web - -> spring_beans
    spring_web - -> spring_core
    wicket_core - -> jdk_serializable_functional
    wicket_core - -> openjson
    wicket_core - -> wicket_request
    wicket_core - -> wicket_util
    wicket_ioc - -> asm
    wicket_ioc - -> cglib
    wicket_ioc - -> jakarta_inject_api
    wicket_util - -> commons_collections4
    wicket_util - -> commons_fileupload
    wicket_util - -> commons_io
    
@enduml

@startuml









skinparam backgroundColor #333333






skinparam  {
    defaultFontName   "Open Sans,Avenir,Nunito,Arial,Helvetica,SansSerif"
    defaultFontSize   12
    defaultTextAlignment left
    shadowing false
    RoundCorner 10
    TitleFontSize 18
}

skinparam defaultFontName       "Open Sans,Avenir,Nunito,Arial,Helvetica,SansSerif"
skinparam defaultFontSize       12
skinparam dpi                   100
skinparam shadowing             false
skinparam roundcorner           16
skinparam ParticipantPadding    40
skinparam BoxPadding            40
skinparam Padding               3
skinparam ArrowColor            #545454
skinparam stereotype {
    CBackgroundColor #0066cf
    CBorderColor #0086ef
    ABackgroundColor #C8Ac00
    ABorderColor #D8Bc00
    IBackgroundColor #008400
    IBorderColor #239c23
    EBackgroundColor #cf6300
    EBorderColor #ef8300
    NBackgroundColor #3380b9
    NBorderColor #004d86
}
skinparam title {
	FontColor	                 #c0c0c0
 	BorderColor                  #545454
	FontSize	    	         20
	BorderRoundCorner            16
	BorderThickness 	         1
	BackgroundColor              #48494b
}


skinparam legend {
	BackgroundColor #303030
	BorderColor #404040
	FontColor #a0a0a0
}

	skinparam swimlane {
	BorderColor #5e5e5e
	BorderThickness 2
	TitleBackgroundColor  #6d6d6d-#484848
	TitleFontColor #303030
}

skinparam activity {
		FontColor #C8Ac00
	BorderColor #333333
	BackgroundColor #333333-#333333
	BarColor #00FF00
	StartColor #0060a8
	EndColor #0060a8
	DiamondBackgroundColor #6d6d6d-#3a3a3a
  	DiamondBorderColor #3a3a3a
  	DiamondFontColor #fefefe
}


skinparam participant {
		FontColor #C8Ac00
	BorderColor #333333
	BackgroundColor #333333-#333333
	ParticipantBorderThickness 2
}


skinparam actor {
		FontColor #C8Ac00
	BorderColor #333333
	BackgroundColor #333333-#333333
}


skinparam arrow {
	Thickness 1.5
	Color #545454
	FontColor #a0a0a0
    FontStyle bold
    MessageAlignment center
}



skinparam sequence {
	BorderColor #303030
	TitleFontColor #303030
	BackgroundColor #333333
	StartColor #303030
	EndColor #303030
	BoxBackgroundColor #333333
	BoxBorderColor #484848
	BoxFontColor #484848
	LifeLineBorderColor #484848
	LifeLineBorderThickness 2
	LifeLineBackgroundColor #3a3a3a
	GroupBorderColor #484848
	GroupFontColor #484848
	GroupHeaderFontColor #0060a8
	GroupBackgroundColor #484848
	GroupHeaderBackgroundColor #333333
	DividerBackgroundColor #484848
    DividerBorderColor #484848
    DividerBorderThickness 2
    DividerFontColor #D8Bc00
	ReferenceBackgroundColor #333333
	ReferenceBorderColor #484848
	ReferenceFontColor #fefefe
	ReferenceHeaderBackgroundColor #484848
}


skinparam partition {
	BorderColor #303030
	FontColor #333333
	BackgroundColor #333333
}


skinparam collections {
		FontColor #C8Ac00
	BorderColor #333333
	BackgroundColor #333333-#333333
}


skinparam control {
		FontColor #C8Ac00
	BorderColor #333333
	BackgroundColor #333333-#333333
}


skinparam entity {
		FontColor #C8Ac00
	BorderColor #333333
	BackgroundColor #333333-#333333
}


skinparam boundary {
		FontColor #C8Ac00
	BorderColor #333333
	BackgroundColor #333333-#333333
}


skinparam agent {
	BackgroundColor #ff8000
	BorderColor #ff9933
	FontColor #484848
}


skinparam note {
	BorderThickness 1
	BackgroundColor #1b1b1a
	BorderColor #5e5e5e
	FontSize 11
	FontColor #a0a0a0
}


skinparam artifact {
	BorderThickness 10
	BorderColor #5e5e5e
	BackgroundColor #1b1b1a
	FontColor #D8Bc00
}


skinparam component {
		FontColor #C8Ac00
	BorderColor #333333
	BackgroundColor #333333-#333333
}


skinparam interface {
	BackgroundColor  #008400
	BorderColor  #007F00
	FontColor #484848
}


skinparam storage {
	BackgroundColor #ff8000
  	BorderColor #cc6600
	FontColor #222222
}


skinparam node {
	BackgroundColor #333333
	BorderColor #333333
	FontColor #C8Ac00
}


skinparam cloud {
	BackgroundColor #484848-black
	BorderColor #484848
	FontColor #D8Bc00
}


skinparam database {
		FontColor #C8Ac00
	BorderColor #333333
	BackgroundColor #333333-#333333
	BackgroundColor  #333333
}


skinparam class {
		FontColor #C8Ac00
	BorderColor #333333
	BackgroundColor #333333-#333333
	HeaderBackgroundColor #1b1b1a
    BackgroundColor #282828
    BorderColor #5e5e5e
 	StereotypeFontColor #a0a0a0
    StereotypeFontStyle bold
	BorderThickness 1
	AttributeFontColor #D8Bc00
	AttributeFontSize 11
    FontColor #D8Bc00
    FontStyle bold
}


skinparam object {
		FontColor #C8Ac00
	BorderColor #333333
	BackgroundColor #333333-#333333
	StereotypeFontColor #484848
	BorderThickness 1
	AttributeFontColor #fefefe
	AttributeFontSize 11
}


skinparam usecase {
		FontColor #C8Ac00
	BorderColor #333333
	BackgroundColor #333333-#333333
	BorderThickness 2
	StereotypeFontColor #303030
}


skinparam rectangle {
		FontColor #C8Ac00
	BorderColor #333333
	BackgroundColor #333333-#333333
	BackgroundColor #333333
	BorderThickness 2
	StereotypeFontColor #303030
}


skinparam package {
		FontColor #C8Ac00
	BorderColor #333333
	BackgroundColor #333333-#333333
	BackgroundColor #333333
	BorderThickness 2
}


skinparam folder {
	BackgroundColor #6d6d6d
  	BorderColor #ff8000
	FontColor #ff8000
	BorderThickness 2
}


skinparam frame {
	BackgroundColor #6d6d6d
  	BorderColor #0060a8
	FontColor #0060a8
	BorderThickness 2
}


skinparam state {
		FontColor #C8Ac00
	BorderColor #333333
	BackgroundColor #333333-#333333
	StartColor #0060a8
	EndColor #0060a8
	AttributeFontColor #fefefe
	AttributeFontSize 11
}


skinparam queue {
		FontColor #C8Ac00
	BorderColor #333333
	BackgroundColor #333333-#333333
}


skinparam card {
	BackgroundColor #0060a8
	BorderColor #004d86
	FontColor $INFO_TEXT
}


skinparam file {
	BackgroundColor #6d6d6d-#484848
	BorderColor #0060a8
	FontColor #fefefe
}


skinparam stack {
		FontColor #C8Ac00
	BorderColor #333333
	BackgroundColor #333333-#333333
}

    
    title "wicket-spring"
    
    artifact cglib
    artifact openjson
    artifact commons_fileupload
    artifact commons_io
    artifact jakarta_inject_api
    artifact jakarta_servlet_api
    artifact log4j
    artifact byte_buddy_agent
    artifact byte_buddy
    artifact commons_collections4
    artifact wicket_core
    artifact wicket_ioc
    artifact wicket_request
    artifact wicket_util
    artifact apiguardian_api
    artifact jdk_serializable_functional
    artifact junit_jupiter_api
    artifact junit_jupiter_engine
    artifact junit_platform_commons
    artifact junit_platform_engine
    artifact mockito_core
    artifact objenesis
    artifact opentest4j
    artifact asm
    artifact jcl_over_slf4j
    artifact slf4j_api
    artifact slf4j_log4j12
    artifact spring_aop
    artifact spring_beans
    artifact spring_context
    artifact spring_core
    artifact spring_expression
    artifact spring_jcl
    artifact spring_web
    junit_jupiter_engine - -> apiguardian_api
    junit_jupiter_engine - -> junit_jupiter_api
    junit_jupiter_engine - -> junit_platform_engine
    junit_platform_engine - -> junit_platform_commons
    junit_platform_engine - -> opentest4j
    mockito_core - -> byte_buddy
    mockito_core - -> byte_buddy_agent
    mockito_core - -> objenesis
    slf4j_log4j12 - -> log4j
    spring_context - -> spring_aop
    spring_context - -> spring_expression
    spring_core - -> spring_jcl
    spring_web - -> spring_beans
    spring_web - -> spring_core
    wicket_core - -> jdk_serializable_functional
    wicket_core - -> openjson
    wicket_core - -> wicket_request
    wicket_core - -> wicket_util
    wicket_ioc - -> asm
    wicket_ioc - -> cglib
    wicket_ioc - -> jakarta_inject_api
    wicket_util - -> commons_collections4
    wicket_util - -> commons_fileupload
    wicket_util - -> commons_io
    
@enduml

PlantUML version 1.2021.01(Tue Feb 02 00:55:08 MST 2021)
(GPL source distribution)
Java Runtime: Java(TM) SE Runtime Environment
JVM: Java HotSpot(TM) 64-Bit Server VM
Default Encoding: UTF-8
Language: en
Country: US
--></g></svg>