<?xml version="1.0" encoding="UTF-8" standalone="no"?><svg xmlns="http://www.w3.org/2000/svg" xmlns:xlink="http://www.w3.org/1999/xlink" contentScriptType="application/ecmascript" contentStyleType="text/css" height="706.25px" preserveAspectRatio="none" style="width:1822px;height:706px;background:#333333;" version="1.1" viewBox="0 0 1822 706" width="1822.9167px" zoomAndPan="magnify"><defs/><g><rect fill="#48494B" height="41.2028" rx="8.3333" ry="8.3333" style="stroke:#545454;stroke-width:1.0416666666666667;" width="272.9167" x="767.9688" y="2.0833"/><text fill="#C0C0C0" font-family="Open Sans,Avenir,Nunito,Arial,Helvetica,SansSerif" font-size="20.8333" lengthAdjust="spacing" textLength="250" x="779.4271" y="30.5583">org.apache.wicket.spring</text><!--MD5=[deea33dd51098b9137ec969856f0ab48]
class IWebApplicationFactory--><rect codeLine="6" fill="#282828" height="48.055" id="IWebApplicationFactory" rx="8.3333" ry="8.3333" style="stroke:#5E5E5E;stroke-width:1.0416666666666667;" width="189.5833" x="241.6667" y="117.2445"/><rect fill="#1B1B1A" height="31.3883" rx="8.3333" ry="8.3333" style="stroke:#1B1B1A;stroke-width:1.0416666666666667;" width="189.5833" x="241.6667" y="117.2445"/><rect fill="#1B1B1A" height="8.3333" style="stroke:#1B1B1A;stroke-width:1.0416666666666667;" width="189.5833" x="241.6667" y="140.2995"/><rect codeLine="6" fill="none" height="48.055" id="IWebApplicationFactory" rx="8.3333" ry="8.3333" style="stroke:#5E5E5E;stroke-width:1.0416666666666667;" width="189.5833" x="241.6667" y="117.2445"/><ellipse cx="256.25" cy="132.9386" fill="#008400" rx="10.4167" ry="10.4167" style="stroke:#239C23;stroke-width:1.0416666666666667;"/><path d="M253.654,130.1005 L253.654,128.5136 L259.08,128.5136 L259.08,130.1005 L257.2673,130.1005 L257.2673,136.0392 L259.08,136.0392 L259.08,137.6261 L253.654,137.6261 L253.654,136.0392 L255.4667,136.0392 L255.4667,130.1005 Z " fill="#000000"/><text fill="#D8BC00" font-family="Open Sans,Avenir,Nunito,Arial,Helvetica,SansSerif" font-size="12.5" font-style="italic" font-weight="bold" lengthAdjust="spacing" textLength="152.0833" x="272.9167" y="137.6628">IWebApplicationFactory</text><line style="stroke:#5E5E5E;stroke-width:1.0416666666666667;" x1="242.7083" x2="430.2083" y1="148.6328" y2="148.6328"/><line style="stroke:#5E5E5E;stroke-width:1.0416666666666667;" x1="242.7083" x2="430.2083" y1="156.9661" y2="156.9661"/><!--MD5=[3eb6ddf92542e6d20c271074060b9fb0]
class IProxyTargetLocator--><rect codeLine="7" fill="#282828" height="48.055" id="IProxyTargetLocator" rx="8.3333" ry="8.3333" style="stroke:#5E5E5E;stroke-width:1.0416666666666667;" width="166.6667" x="841.6667" y="117.2445"/><rect fill="#1B1B1A" height="31.3883" rx="8.3333" ry="8.3333" style="stroke:#1B1B1A;stroke-width:1.0416666666666667;" width="166.6667" x="841.6667" y="117.2445"/><rect fill="#1B1B1A" height="8.3333" style="stroke:#1B1B1A;stroke-width:1.0416666666666667;" width="166.6667" x="841.6667" y="140.2995"/><rect codeLine="7" fill="none" height="48.055" id="IProxyTargetLocator" rx="8.3333" ry="8.3333" style="stroke:#5E5E5E;stroke-width:1.0416666666666667;" width="166.6667" x="841.6667" y="117.2445"/><ellipse cx="856.25" cy="132.9386" fill="#008400" rx="10.4167" ry="10.4167" style="stroke:#239C23;stroke-width:1.0416666666666667;"/><path d="M853.654,130.1005 L853.654,128.5136 L859.08,128.5136 L859.08,130.1005 L857.2673,130.1005 L857.2673,136.0392 L859.08,136.0392 L859.08,137.6261 L853.654,137.6261 L853.654,136.0392 L855.4667,136.0392 L855.4667,130.1005 Z " fill="#000000"/><text fill="#D8BC00" font-family="Open Sans,Avenir,Nunito,Arial,Helvetica,SansSerif" font-size="12.5" font-style="italic" font-weight="bold" lengthAdjust="spacing" textLength="129.1667" x="872.9167" y="137.6628">IProxyTargetLocator</text><line style="stroke:#5E5E5E;stroke-width:1.0416666666666667;" x1="842.7083" x2="1007.2917" y1="148.6328" y2="148.6328"/><line style="stroke:#5E5E5E;stroke-width:1.0416666666666667;" x1="842.7083" x2="1007.2917" y1="156.9661" y2="156.9661"/><!--MD5=[0caf2b6e8d5510df970fb3698a978498]
class SpringWebApplicationFactory--><rect codeLine="60" fill="#282828" height="174.8576" id="SpringWebApplicationFactory" rx="8.3333" ry="8.3333" style="stroke:#5E5E5E;stroke-width:1.0416666666666667;" width="654.1667" x="9.375" y="352.6611"/><rect fill="#1B1B1A" height="31.3883" rx="8.3333" ry="8.3333" style="stroke:#1B1B1A;stroke-width:1.0416666666666667;" width="654.1667" x="9.375" y="352.6611"/><rect fill="#1B1B1A" height="8.3333" style="stroke:#1B1B1A;stroke-width:1.0416666666666667;" width="654.1667" x="9.375" y="375.7161"/><rect codeLine="60" fill="none" height="174.8576" id="SpringWebApplicationFactory" rx="8.3333" ry="8.3333" style="stroke:#5E5E5E;stroke-width:1.0416666666666667;" width="654.1667" x="9.375" y="352.6611"/><ellipse cx="234.375" cy="368.3553" fill="#0066CF" rx="10.4167" ry="10.4167" style="stroke:#0086EF;stroke-width:1.0416666666666667;"/><path d="M236.2854,372.7804 Q235.8582,373.0001 235.3882,373.1099 Q234.9182,373.2198 234.3994,373.2198 Q232.5562,373.2198 231.5857,372.0052 Q230.6152,370.7906 230.6152,368.4957 Q230.6152,366.1947 231.5857,364.9801 Q232.5562,363.7655 234.3994,363.7655 Q234.9182,363.7655 235.3943,363.8753 Q235.8704,363.9852 236.2854,364.2049 L236.2854,366.2069 Q235.8215,365.7796 235.3851,365.5813 Q234.9487,365.3829 234.4849,365.3829 Q233.4961,365.3829 232.9926,366.1672 Q232.489,366.9515 232.489,368.4957 Q232.489,370.0338 232.9926,370.8181 Q233.4961,371.6024 234.4849,371.6024 Q234.9487,371.6024 235.3851,371.404 Q235.8215,371.2056 236.2854,370.7784 Z " fill="#000000"/><text fill="#D8BC00" font-family="Open Sans,Avenir,Nunito,Arial,Helvetica,SansSerif" font-size="12.5" font-weight="bold" lengthAdjust="spacing" textLength="189.5833" x="257.2917" y="373.0794">SpringWebApplicationFactory</text><line style="stroke:#5E5E5E;stroke-width:1.5625;" x1="10.4167" x2="662.5" y1="384.0495" y2="384.0495"/><line style="stroke:#5E5E5E;stroke-width:1.0416666666666667;" x1="10.4167" x2="662.5" y1="392.3828" y2="392.3828"/><polygon fill="#FFFF44" points="20.8333,398.6328,25,402.7995,20.8333,406.9661,16.6667,402.7995" style="stroke:#B38D22;stroke-width:1.0416666666666667;"/><text fill="#D8BC00" font-family="Open Sans,Avenir,Nunito,Arial,Helvetica,SansSerif" font-size="11.4583" lengthAdjust="spacing" textLength="621.875" x="32.2917" y="410.7524">ConfigurableWebApplicationContext createWebApplicationContext(WebApplicationContext parent, WicketFilter)</text><polygon fill="#FFFF44" points="20.8333,418.3777,25,422.5444,20.8333,426.711,16.6667,422.5444" style="stroke:#B38D22;stroke-width:1.0416666666666667;"/><text fill="#D8BC00" font-family="Open Sans,Avenir,Nunito,Arial,Helvetica,SansSerif" font-size="11.4583" lengthAdjust="spacing" textLength="533.3333" x="32.2917" y="430.4972">void postProcessWebApplicationContext(ConfigurableWebApplicationContext wac, WicketFilter)</text><polygon fill="#FFFF44" points="20.8333,462.0341,25,466.2008,20.8333,470.3674,16.6667,466.2008" style="stroke:#B38D22;stroke-width:1.0416666666666667;"/><text fill="#D8BC00" font-family="Open Sans,Avenir,Nunito,Arial,Helvetica,SansSerif" font-size="11.4583" lengthAdjust="spacing" textLength="256.25" x="32.2917" y="474.1536">String getContextConfigLocation(WicketFilter)</text><line style="stroke:#5E5E5E;stroke-width:1.0416666666666667;" x1="10.4167" x2="291.1458" y1="450.0783" y2="450.0783"/><text fill="#D8BC00" font-family="Open Sans,Avenir,Nunito,Arial,Helvetica,SansSerif" font-size="11.4583" lengthAdjust="spacing" textLength="84.375" x="294.2708" y="453.8879">(configuration)</text><line style="stroke:#5E5E5E;stroke-width:1.0416666666666667;" x1="381.7708" x2="662.5" y1="450.0783" y2="450.0783"/><polygon fill="#FFFF44" points="20.8333,505.6905,25,509.8572,20.8333,514.0238,16.6667,509.8572" style="stroke:#B38D22;stroke-width:1.0416666666666667;"/><text fill="#D8BC00" font-family="Open Sans,Avenir,Nunito,Arial,Helvetica,SansSerif" font-size="11.4583" lengthAdjust="spacing" textLength="345.8333" x="32.2917" y="517.8101">ConfigurableWebApplicationContext newApplicationContext()</text><line style="stroke:#5E5E5E;stroke-width:1.0416666666666667;" x1="10.4167" x2="309.375" y1="493.7347" y2="493.7347"/><text fill="#D8BC00" font-family="Open Sans,Avenir,Nunito,Arial,Helvetica,SansSerif" font-size="11.4583" lengthAdjust="spacing" textLength="47.9167" x="312.5" y="497.5444">(factory)</text><line style="stroke:#5E5E5E;stroke-width:1.0416666666666667;" x1="363.5417" x2="662.5" y1="493.7347" y2="493.7347"/><!--MD5=[2fc5889905d46902dfabb6932e1cb1a0]
class AnnotationConfigSpringWebApplicationFactory--><rect codeLine="10" fill="#282828" height="48.055" id="AnnotationConfigSpringWebApplicationFactory" rx="8.3333" ry="8.3333" style="stroke:#5E5E5E;stroke-width:1.0416666666666667;" width="343.75" x="164.5833" y="651.6195"/><rect fill="#1B1B1A" height="31.3883" rx="8.3333" ry="8.3333" style="stroke:#1B1B1A;stroke-width:1.0416666666666667;" width="343.75" x="164.5833" y="651.6195"/><rect fill="#1B1B1A" height="8.3333" style="stroke:#1B1B1A;stroke-width:1.0416666666666667;" width="343.75" x="164.5833" y="674.6745"/><rect codeLine="10" fill="none" height="48.055" id="AnnotationConfigSpringWebApplicationFactory" rx="8.3333" ry="8.3333" style="stroke:#5E5E5E;stroke-width:1.0416666666666667;" width="343.75" x="164.5833" y="651.6195"/><ellipse cx="179.1667" cy="667.3136" fill="#0066CF" rx="10.4167" ry="10.4167" style="stroke:#0086EF;stroke-width:1.0416666666666667;"/><path d="M181.0771,671.7387 Q180.6498,671.9584 180.1799,672.0683 Q179.7099,672.1781 179.1911,672.1781 Q177.3478,672.1781 176.3774,670.9635 Q175.4069,669.7489 175.4069,667.454 Q175.4069,665.153 176.3774,663.9384 Q177.3478,662.7238 179.1911,662.7238 Q179.7099,662.7238 180.186,662.8337 Q180.662,662.9435 181.0771,663.1632 L181.0771,665.1652 Q180.6132,664.738 180.1768,664.5396 Q179.7404,664.3412 179.2765,664.3412 Q178.2878,664.3412 177.7842,665.1255 Q177.2807,665.9098 177.2807,667.454 Q177.2807,668.9921 177.7842,669.7764 Q178.2878,670.5607 179.2765,670.5607 Q179.7404,670.5607 180.1768,670.3623 Q180.6132,670.164 181.0771,669.7367 Z " fill="#000000"/><text fill="#D8BC00" font-family="Open Sans,Avenir,Nunito,Arial,Helvetica,SansSerif" font-size="12.5" font-weight="bold" lengthAdjust="spacing" textLength="306.25" x="195.8333" y="672.0378">AnnotationConfigSpringWebApplicationFactory</text><line style="stroke:#5E5E5E;stroke-width:1.0416666666666667;" x1="165.625" x2="507.2917" y1="683.0078" y2="683.0078"/><line style="stroke:#5E5E5E;stroke-width:1.0416666666666667;" x1="165.625" x2="507.2917" y1="691.3411" y2="691.3411"/><!--MD5=[bb0f5b2c5070025b96ffdf555861d245]
class FieldBeansCollector--><rect codeLine="14" fill="#282828" height="174.8576" id="FieldBeansCollector" rx="8.3333" ry="8.3333" style="stroke:#5E5E5E;stroke-width:1.0416666666666667;" width="282.2917" x="1045.3125" y="53.7028"/><rect fill="#1B1B1A" height="31.3883" rx="8.3333" ry="8.3333" style="stroke:#1B1B1A;stroke-width:1.0416666666666667;" width="282.2917" x="1045.3125" y="53.7028"/><rect fill="#1B1B1A" height="8.3333" style="stroke:#1B1B1A;stroke-width:1.0416666666666667;" width="282.2917" x="1045.3125" y="76.7578"/><rect codeLine="14" fill="none" height="174.8576" id="FieldBeansCollector" rx="8.3333" ry="8.3333" style="stroke:#5E5E5E;stroke-width:1.0416666666666667;" width="282.2917" x="1045.3125" y="53.7028"/><ellipse cx="1115.1042" cy="69.397" fill="#0066CF" rx="10.4167" ry="10.4167" style="stroke:#0086EF;stroke-width:1.0416666666666667;"/><path d="M1117.0146,73.822 Q1116.5873,74.0417 1116.1174,74.1516 Q1115.6474,74.2615 1115.1286,74.2615 Q1113.2853,74.2615 1112.3149,73.0469 Q1111.3444,71.8323 1111.3444,69.5374 Q1111.3444,67.2363 1112.3149,66.0217 Q1113.2853,64.8071 1115.1286,64.8071 Q1115.6474,64.8071 1116.1235,64.917 Q1116.5995,65.0269 1117.0146,65.2466 L1117.0146,67.2485 Q1116.5507,66.8213 1116.1143,66.6229 Q1115.6779,66.4246 1115.214,66.4246 Q1114.2253,66.4246 1113.7217,67.2089 Q1113.2182,67.9932 1113.2182,69.5374 Q1113.2182,71.0754 1113.7217,71.8597 Q1114.2253,72.644 1115.214,72.644 Q1115.6779,72.644 1116.1143,72.4457 Q1116.5507,72.2473 1117.0146,71.8201 Z " fill="#000000"/><text fill="#D8BC00" font-family="Open Sans,Avenir,Nunito,Arial,Helvetica,SansSerif" font-size="12.5" font-weight="bold" lengthAdjust="spacing" textLength="128.125" x="1138.0208" y="74.1211">FieldBeansCollector</text><line style="stroke:#5E5E5E;stroke-width:1.5625;" x1="1046.3542" x2="1326.5625" y1="85.0911" y2="85.0911"/><ellipse cx="1056.7708" cy="120.461" fill="#84BE84" rx="3.125" ry="3.125" style="stroke:#038048;stroke-width:1.0416666666666667;"/><text fill="#D8BC00" font-family="Open Sans,Avenir,Nunito,Arial,Helvetica,SansSerif" font-size="11.4583" lengthAdjust="spacing" textLength="204.1667" x="1068.2292" y="127.3722">FieldBeansCollector(ResolvableType)</text><line style="stroke:#5E5E5E;stroke-width:1.0416666666666667;" x1="1046.3542" x2="1142.7083" y1="103.2969" y2="103.2969"/><text fill="#D8BC00" font-family="Open Sans,Avenir,Nunito,Arial,Helvetica,SansSerif" font-size="11.4583" lengthAdjust="spacing" textLength="81.25" x="1145.8333" y="107.1065">(constructors)</text><line style="stroke:#5E5E5E;stroke-width:1.0416666666666667;" x1="1230.2083" x2="1326.5625" y1="103.2969" y2="103.2969"/><line style="stroke:#5E5E5E;stroke-width:1.0416666666666667;" x1="1046.3542" x2="1326.5625" y1="137.0809" y2="137.0809"/><ellipse cx="1056.7708" cy="148.5392" fill="#84BE84" rx="3.125" ry="3.125" style="stroke:#038048;stroke-width:1.0416666666666667;"/><text fill="#D8BC00" font-family="Open Sans,Avenir,Nunito,Arial,Helvetica,SansSerif" font-size="11.4583" lengthAdjust="spacing" textLength="142.7083" x="1068.2292" y="155.4504">Object getBeansToInject()</text><ellipse cx="1056.7708" cy="168.2841" fill="#84BE84" rx="3.125" ry="3.125" style="stroke:#038048;stroke-width:1.0416666666666667;"/><text fill="#D8BC00" font-family="Open Sans,Avenir,Nunito,Arial,Helvetica,SansSerif" font-size="11.4583" lengthAdjust="spacing" textLength="135.4167" x="1068.2292" y="175.1953">FieldType getFieldType()</text><ellipse cx="1056.7708" cy="211.9405" fill="#84BE84" rx="3.125" ry="3.125" style="stroke:#038048;stroke-width:1.0416666666666667;"/><text fill="#D8BC00" font-family="Open Sans,Avenir,Nunito,Arial,Helvetica,SansSerif" font-size="11.4583" lengthAdjust="spacing" textLength="250" x="1068.2292" y="218.8517">void addBean(String beanName, Object bean)</text><line style="stroke:#5E5E5E;stroke-width:1.0416666666666667;" x1="1046.3542" x2="1152.0833" y1="194.7764" y2="194.7764"/><text fill="#D8BC00" font-family="Open Sans,Avenir,Nunito,Arial,Helvetica,SansSerif" font-size="11.4583" lengthAdjust="spacing" textLength="62.5" x="1155.2083" y="198.586">(collection)</text><line style="stroke:#5E5E5E;stroke-width:1.0416666666666667;" x1="1220.8333" x2="1326.5625" y1="194.7764" y2="194.7764"/><!--MD5=[6320dad8dad8fabbbc177b05fbf830a4]
class FieldBeansCollector.FieldType--><rect codeLine="25" fill="#282828" height="127.0345" id="FieldBeansCollector.FieldType" rx="8.3333" ry="8.3333" style="stroke:#5E5E5E;stroke-width:1.0416666666666667;" width="231.25" x="1364.5833" y="77.6611"/><rect fill="#1B1B1A" height="31.3883" rx="8.3333" ry="8.3333" style="stroke:#1B1B1A;stroke-width:1.0416666666666667;" width="231.25" x="1364.5833" y="77.6611"/><rect fill="#1B1B1A" height="8.3333" style="stroke:#1B1B1A;stroke-width:1.0416666666666667;" width="231.25" x="1364.5833" y="100.7161"/><rect codeLine="25" fill="none" height="127.0345" id="FieldBeansCollector.FieldType" rx="8.3333" ry="8.3333" style="stroke:#5E5E5E;stroke-width:1.0416666666666667;" width="231.25" x="1364.5833" y="77.6611"/><ellipse cx="1379.1667" cy="93.3553" fill="#CF6300" rx="10.4167" ry="10.4167" style="stroke:#EF8300;stroke-width:1.0416666666666667;"/><path d="M1382.2225,98.0428 L1376.5462,98.0428 L1376.5462,88.9303 L1382.2225,88.9303 L1382.2225,90.5172 L1378.3468,90.5172 L1378.3468,92.4825 L1381.8563,92.4825 L1381.8563,94.0694 L1378.3468,94.0694 L1378.3468,96.4559 L1382.2225,96.4559 Z " fill="#000000"/><text fill="#D8BC00" font-family="Open Sans,Avenir,Nunito,Arial,Helvetica,SansSerif" font-size="12.5" font-weight="bold" lengthAdjust="spacing" textLength="193.75" x="1395.8333" y="98.0794">FieldBeansCollector.FieldType</text><line style="stroke:#5E5E5E;stroke-width:1.0416666666666667;" x1="1365.625" x2="1594.7917" y1="109.0495" y2="109.0495"/><text fill="#D8BC00" font-family="Open Sans,Avenir,Nunito,Arial,Helvetica,SansSerif" font-size="11.4583" lengthAdjust="spacing" textLength="22.9167" x="1373.9583" y="127.419">LIST</text><text fill="#D8BC00" font-family="Open Sans,Avenir,Nunito,Arial,Helvetica,SansSerif" font-size="11.4583" lengthAdjust="spacing" textLength="23.9583" x="1373.9583" y="147.1639">MAP</text><text fill="#D8BC00" font-family="Open Sans,Avenir,Nunito,Arial,Helvetica,SansSerif" font-size="11.4583" lengthAdjust="spacing" textLength="32.2917" x="1373.9583" y="166.9088">NONE</text><text fill="#D8BC00" font-family="Open Sans,Avenir,Nunito,Arial,Helvetica,SansSerif" font-size="11.4583" lengthAdjust="spacing" textLength="19.7917" x="1373.9583" y="186.6536">SET</text><line style="stroke:#5E5E5E;stroke-width:1.0416666666666667;" x1="1365.625" x2="1594.7917" y1="196.3623" y2="196.3623"/><!--MD5=[cd6fe5c68cc4750b98a6651e5a9afd2b]
class IClusterable--><rect codeLine="33" fill="#282828" height="48.055" id="IClusterable" rx="8.3333" ry="8.3333" style="stroke:#5E5E5E;stroke-width:1.0416666666666667;" width="115.625" x="1632.8125" y="117.2445"/><rect fill="#1B1B1A" height="31.3883" rx="8.3333" ry="8.3333" style="stroke:#1B1B1A;stroke-width:1.0416666666666667;" width="115.625" x="1632.8125" y="117.2445"/><rect fill="#1B1B1A" height="8.3333" style="stroke:#1B1B1A;stroke-width:1.0416666666666667;" width="115.625" x="1632.8125" y="140.2995"/><rect codeLine="33" fill="none" height="48.055" id="IClusterable" rx="8.3333" ry="8.3333" style="stroke:#5E5E5E;stroke-width:1.0416666666666667;" width="115.625" x="1632.8125" y="117.2445"/><ellipse cx="1647.3958" cy="132.9386" fill="#008400" rx="10.4167" ry="10.4167" style="stroke:#239C23;stroke-width:1.0416666666666667;"/><path d="M1644.7998,130.1005 L1644.7998,128.5136 L1650.2258,128.5136 L1650.2258,130.1005 L1648.4131,130.1005 L1648.4131,136.0392 L1650.2258,136.0392 L1650.2258,137.6261 L1644.7998,137.6261 L1644.7998,136.0392 L1646.6125,136.0392 L1646.6125,130.1005 Z " fill="#000000"/><text fill="#D8BC00" font-family="Open Sans,Avenir,Nunito,Arial,Helvetica,SansSerif" font-size="12.5" font-style="italic" font-weight="bold" lengthAdjust="spacing" textLength="78.125" x="1664.0625" y="137.6628">IClusterable</text><line style="stroke:#5E5E5E;stroke-width:1.0416666666666667;" x1="1633.8542" x2="1747.3958" y1="148.6328" y2="148.6328"/><line style="stroke:#5E5E5E;stroke-width:1.0416666666666667;" x1="1633.8542" x2="1747.3958" y1="156.9661" y2="156.9661"/><!--MD5=[06e9923809158946aa762ffed3bee860]
class ISpringContextLocator--><rect codeLine="35" fill="#282828" height="67.7999" id="ISpringContextLocator" rx="8.3333" ry="8.3333" style="stroke:#5E5E5E;stroke-width:1.0416666666666667;" width="251.0417" x="1565.1042" y="406.307"/><rect fill="#1B1B1A" height="31.3883" rx="8.3333" ry="8.3333" style="stroke:#1B1B1A;stroke-width:1.0416666666666667;" width="251.0417" x="1565.1042" y="406.307"/><rect fill="#1B1B1A" height="8.3333" style="stroke:#1B1B1A;stroke-width:1.0416666666666667;" width="251.0417" x="1565.1042" y="429.362"/><rect codeLine="35" fill="none" height="67.7999" id="ISpringContextLocator" rx="8.3333" ry="8.3333" style="stroke:#5E5E5E;stroke-width:1.0416666666666667;" width="251.0417" x="1565.1042" y="406.307"/><ellipse cx="1610.9375" cy="422.0011" fill="#008400" rx="10.4167" ry="10.4167" style="stroke:#239C23;stroke-width:1.0416666666666667;"/><path d="M1608.3415,419.163 L1608.3415,417.5761 L1613.7675,417.5761 L1613.7675,419.163 L1611.9548,419.163 L1611.9548,425.1017 L1613.7675,425.1017 L1613.7675,426.6886 L1608.3415,426.6886 L1608.3415,425.1017 L1610.1542,425.1017 L1610.1542,419.163 Z " fill="#000000"/><text fill="#D8BC00" font-family="Open Sans,Avenir,Nunito,Arial,Helvetica,SansSerif" font-size="12.5" font-style="italic" font-weight="bold" lengthAdjust="spacing" textLength="144.7917" x="1633.8542" y="426.7253">ISpringContextLocator</text><line style="stroke:#5E5E5E;stroke-width:1.5625;" x1="1566.1458" x2="1815.1042" y1="437.6953" y2="437.6953"/><line style="stroke:#5E5E5E;stroke-width:1.0416666666666667;" x1="1566.1458" x2="1815.1042" y1="446.0286" y2="446.0286"/><ellipse cx="1576.5625" cy="457.487" fill="#84BE84" rx="3.125" ry="3.125" style="stroke:#038048;stroke-width:1.0416666666666667;"/><text fill="#D8BC00" font-family="Open Sans,Avenir,Nunito,Arial,Helvetica,SansSerif" font-size="11.4583" lengthAdjust="spacing" textLength="218.75" x="1588.0208" y="464.3982">ApplicationContext getSpringContext()</text><!--MD5=[6f1418ee3c2b29b48194c05cd3cf9f56]
class SpringBeanLocator--><rect codeLine="42" fill="#282828" height="297.4935" id="SpringBeanLocator" rx="8.3333" ry="8.3333" style="stroke:#5E5E5E;stroke-width:1.0416666666666667;" width="450" x="700" y="291.2028"/><rect fill="#1B1B1A" height="31.3883" rx="8.3333" ry="8.3333" style="stroke:#1B1B1A;stroke-width:1.0416666666666667;" width="450" x="700" y="291.2028"/><rect fill="#1B1B1A" height="8.3333" style="stroke:#1B1B1A;stroke-width:1.0416666666666667;" width="450" x="700" y="314.2578"/><rect codeLine="42" fill="none" height="297.4935" id="SpringBeanLocator" rx="8.3333" ry="8.3333" style="stroke:#5E5E5E;stroke-width:1.0416666666666667;" width="450" x="700" y="291.2028"/><ellipse cx="857.2917" cy="306.897" fill="#0066CF" rx="10.4167" ry="10.4167" style="stroke:#0086EF;stroke-width:1.0416666666666667;"/><path d="M859.2021,311.322 Q858.7748,311.5417 858.3049,311.6516 Q857.8349,311.7615 857.3161,311.7615 Q855.4728,311.7615 854.5024,310.5469 Q853.5319,309.3323 853.5319,307.0374 Q853.5319,304.7363 854.5024,303.5217 Q855.4728,302.3071 857.3161,302.3071 Q857.8349,302.3071 858.311,302.417 Q858.787,302.5269 859.2021,302.7466 L859.2021,304.7485 Q858.7382,304.3213 858.3018,304.1229 Q857.8654,303.9246 857.4015,303.9246 Q856.4128,303.9246 855.9092,304.7089 Q855.4057,305.4932 855.4057,307.0374 Q855.4057,308.5754 855.9092,309.3597 Q856.4128,310.144 857.4015,310.144 Q857.8654,310.144 858.3018,309.9457 Q858.7382,309.7473 859.2021,309.3201 Z " fill="#000000"/><text fill="#D8BC00" font-family="Open Sans,Avenir,Nunito,Arial,Helvetica,SansSerif" font-size="12.5" font-weight="bold" lengthAdjust="spacing" textLength="120.8333" x="880.2083" y="311.6211">SpringBeanLocator</text><line style="stroke:#5E5E5E;stroke-width:1.5625;" x1="701.0417" x2="1148.9583" y1="322.5911" y2="322.5911"/><ellipse cx="711.4583" cy="357.961" fill="#84BE84" rx="3.125" ry="3.125" style="stroke:#038048;stroke-width:1.0416666666666667;"/><text fill="#D8BC00" font-family="Open Sans,Avenir,Nunito,Arial,Helvetica,SansSerif" font-size="11.4583" lengthAdjust="spacing" textLength="333.3333" x="722.9167" y="364.8722">SpringBeanLocator(Class&lt;?&gt;, Field, ISpringContextLocator)</text><ellipse cx="711.4583" cy="377.7059" fill="#84BE84" rx="3.125" ry="3.125" style="stroke:#038048;stroke-width:1.0416666666666667;"/><text fill="#D8BC00" font-family="Open Sans,Avenir,Nunito,Arial,Helvetica,SansSerif" font-size="11.4583" lengthAdjust="spacing" textLength="301.0417" x="722.9167" y="384.6171">SpringBeanLocator(Class&lt;?&gt;, ISpringContextLocator)</text><ellipse cx="711.4583" cy="397.4508" fill="#84BE84" rx="3.125" ry="3.125" style="stroke:#038048;stroke-width:1.0416666666666667;"/><text fill="#D8BC00" font-family="Open Sans,Avenir,Nunito,Arial,Helvetica,SansSerif" font-size="11.4583" lengthAdjust="spacing" textLength="372.9167" x="722.9167" y="404.362">SpringBeanLocator(String, Class&lt;?&gt;, Field, ISpringContextLocator)</text><ellipse cx="711.4583" cy="417.1956" fill="#84BE84" rx="3.125" ry="3.125" style="stroke:#038048;stroke-width:1.0416666666666667;"/><text fill="#D8BC00" font-family="Open Sans,Avenir,Nunito,Arial,Helvetica,SansSerif" font-size="11.4583" lengthAdjust="spacing" textLength="340.625" x="722.9167" y="424.1069">SpringBeanLocator(String, Class&lt;?&gt;, ISpringContextLocator)</text><line style="stroke:#5E5E5E;stroke-width:1.0416666666666667;" x1="701.0417" x2="881.25" y1="340.7969" y2="340.7969"/><text fill="#D8BC00" font-family="Open Sans,Avenir,Nunito,Arial,Helvetica,SansSerif" font-size="11.4583" lengthAdjust="spacing" textLength="81.25" x="884.375" y="344.6065">(constructors)</text><line style="stroke:#5E5E5E;stroke-width:1.0416666666666667;" x1="968.75" x2="1148.9583" y1="340.7969" y2="340.7969"/><line style="stroke:#5E5E5E;stroke-width:1.0416666666666667;" x1="701.0417" x2="1148.9583" y1="433.8155" y2="433.8155"/><ellipse cx="711.4583" cy="445.2738" fill="#84BE84" rx="3.125" ry="3.125" style="stroke:#038048;stroke-width:1.0416666666666667;"/><text fill="#D8BC00" font-family="Open Sans,Avenir,Nunito,Arial,Helvetica,SansSerif" font-size="11.4583" lengthAdjust="spacing" textLength="417.7083" x="722.9167" y="452.1851">RootBeanDefinition getBeanDefinition(ApplicationContext ctx, String name)</text><ellipse cx="711.4583" cy="465.0187" fill="#84BE84" rx="3.125" ry="3.125" style="stroke:#038048;stroke-width:1.0416666666666667;"/><text fill="#D8BC00" font-family="Open Sans,Avenir,Nunito,Arial,Helvetica,SansSerif" font-size="11.4583" lengthAdjust="spacing" textLength="136.4583" x="722.9167" y="471.9299">Class&lt;?&gt; getBeanType()</text><ellipse cx="711.4583" cy="484.7636" fill="#84BE84" rx="3.125" ry="3.125" style="stroke:#038048;stroke-width:1.0416666666666667;"/><text fill="#D8BC00" font-family="Open Sans,Avenir,Nunito,Arial,Helvetica,SansSerif" font-size="11.4583" lengthAdjust="spacing" textLength="280.2083" x="722.9167" y="491.6748">ISpringContextLocator getSpringContextLocator()</text><ellipse cx="711.4583" cy="528.42" fill="#84BE84" rx="3.125" ry="3.125" style="stroke:#038048;stroke-width:1.0416666666666667;"/><text fill="#D8BC00" font-family="Open Sans,Avenir,Nunito,Arial,Helvetica,SansSerif" font-size="11.4583" lengthAdjust="spacing" textLength="143.75" x="722.9167" y="535.3312">boolean isSingletonBean()</text><line style="stroke:#5E5E5E;stroke-width:1.0416666666666667;" x1="701.0417" x2="898.4375" y1="511.2559" y2="511.2559"/><text fill="#D8BC00" font-family="Open Sans,Avenir,Nunito,Arial,Helvetica,SansSerif" font-size="11.4583" lengthAdjust="spacing" textLength="46.875" x="901.5625" y="515.0655">(checks)</text><line style="stroke:#5E5E5E;stroke-width:1.0416666666666667;" x1="951.5625" x2="1148.9583" y1="511.2559" y2="511.2559"/><ellipse cx="711.4583" cy="572.0764" fill="#84BE84" rx="3.125" ry="3.125" style="stroke:#038048;stroke-width:1.0416666666666667;"/><text fill="#D8BC00" font-family="Open Sans,Avenir,Nunito,Arial,Helvetica,SansSerif" font-size="11.4583" lengthAdjust="spacing" textLength="119.7917" x="722.9167" y="578.9876">String getBeanName()</text><line style="stroke:#5E5E5E;stroke-width:1.0416666666666667;" x1="701.0417" x2="896.875" y1="554.9123" y2="554.9123"/><text fill="#D8BC00" font-family="Open Sans,Avenir,Nunito,Arial,Helvetica,SansSerif" font-size="11.4583" lengthAdjust="spacing" textLength="50" x="900" y="558.7219">(naming)</text><line style="stroke:#5E5E5E;stroke-width:1.0416666666666667;" x1="953.125" x2="1148.9583" y1="554.9123" y2="554.9123"/><!--MD5=[c52dbc8d73169e9f8774855f6176d88a]
reverse link SpringWebApplicationFactory to AnnotationConfigSpringWebApplicationFactory--><path codeLine="9" d="M336.4583,548.6299 C336.4583,587.2028 336.4583,627.1299 336.4583,651.4111 " fill="none" id="SpringWebApplicationFactory-backto-AnnotationConfigSpringWebApplicationFactory" style="stroke:#545454;stroke-width:1.5625;"/><polygon fill="none" points="329.1667,548.5882,336.4583,527.7549,343.75,548.5882,329.1667,548.5882" style="stroke:#545454;stroke-width:1.5625;"/><!--MD5=[4c63ee225d9deb20cfdbacc0c2bbcb6c]
reverse link IClusterable to ISpringContextLocator--><path codeLine="34" d="M1690.625,186.4632 C1690.625,246.557 1690.625,352.6507 1690.625,406.2132 " fill="none" id="IClusterable-backto-ISpringContextLocator" style="stroke:#545454;stroke-width:1.5625;"/><polygon fill="none" points="1683.3333,186.3695,1690.625,165.5361,1697.9167,186.3695,1683.3333,186.3695" style="stroke:#545454;stroke-width:1.5625;"/><!--MD5=[ef640fb2aa6e2ffcaaf88dfa5854b7cb]
reverse link IProxyTargetLocator to SpringBeanLocator--><path codeLine="41" d="M925,186.5986 C925,214.7549 925,252.9632 925,291.1403 " fill="none" id="IProxyTargetLocator-backto-SpringBeanLocator" style="stroke:#545454;stroke-width:1.5625;"/><polygon fill="none" points="917.7083,186.3695,925,165.5361,932.2917,186.3695,917.7083,186.3695" style="stroke:#545454;stroke-width:1.5625;"/><!--MD5=[620170f5b325069c7e21d57d692cc3e8]
reverse link IWebApplicationFactory to SpringWebApplicationFactory--><path codeLine="59" d="M336.4583,186.5049 C336.4583,230.1507 336.4583,298.0361 336.4583,352.4424 " fill="none" id="IWebApplicationFactory-backto-SpringWebApplicationFactory" style="stroke:#545454;stroke-width:1.5625;"/><polygon fill="none" points="329.1667,186.3695,336.4583,165.5361,343.75,186.3695,329.1667,186.3695" style="stroke:#545454;stroke-width:1.5625;"/><!--MD5=[a3cb49ad1321321e980d5630654c8c80]
@startuml

    !include lexakai.theme
    
    title "org.apache.wicket.spring"
    
    interface IWebApplicationFactory
    interface IProxyTargetLocator
    
    SpringWebApplicationFactory <|- - AnnotationConfigSpringWebApplicationFactory
    class AnnotationConfigSpringWebApplicationFactory
    {
    }
    
    class FieldBeansCollector
    {
        - -(constructors)- -
        +FieldBeansCollector(ResolvableType)
        - -
        +Object getBeansToInject()
        +FieldType getFieldType()
        - -(collection)- -
        +void addBean(String beanName, Object bean)
    }
    
    enum FieldBeansCollector.FieldType
    {
        LIST
        MAP
        NONE
        SET
    }
    
    interface IClusterable
    IClusterable <|- - ISpringContextLocator
    interface ISpringContextLocator
    {
        - -
        +ApplicationContext getSpringContext()
    }
    
    IProxyTargetLocator <|- - SpringBeanLocator
    class SpringBeanLocator
    {
        - -(constructors)- -
        +SpringBeanLocator(Class<?>, Field, ISpringContextLocator)
        +SpringBeanLocator(Class<?>, ISpringContextLocator)
        +SpringBeanLocator(String, Class<?>, Field, ISpringContextLocator)
        +SpringBeanLocator(String, Class<?>, ISpringContextLocator)
        - -
        +RootBeanDefinition getBeanDefinition(ApplicationContext ctx, String name)
        +Class<?> getBeanType()
        +ISpringContextLocator getSpringContextLocator()
        - -(checks)- -
        +boolean isSingletonBean()
        - -(naming)- -
        +String getBeanName()
    }
    
    IWebApplicationFactory <|- - SpringWebApplicationFactory
    class SpringWebApplicationFactory
    {
        - -
        #ConfigurableWebApplicationContext createWebApplicationContext(WebApplicationContext parent, WicketFilter)
        #void postProcessWebApplicationContext(ConfigurableWebApplicationContext wac, WicketFilter)
        - -(configuration)- -
        #String getContextConfigLocation(WicketFilter)
        - -(factory)- -
        #ConfigurableWebApplicationContext newApplicationContext()
    }
    
@enduml

@startuml









skinparam backgroundColor #333333






skinparam  {
    defaultFontName   "Open Sans,Avenir,Nunito,Arial,Helvetica,SansSerif"
    defaultFontSize   12
    defaultTextAlignment left
    shadowing false
    RoundCorner 10
    TitleFontSize 18
}

skinparam defaultFontName       "Open Sans,Avenir,Nunito,Arial,Helvetica,SansSerif"
skinparam defaultFontSize       12
skinparam dpi                   100
skinparam shadowing             false
skinparam roundcorner           16
skinparam ParticipantPadding    40
skinparam BoxPadding            40
skinparam Padding               3
skinparam ArrowColor            #545454
skinparam stereotype {
    CBackgroundColor #0066cf
    CBorderColor #0086ef
    ABackgroundColor #C8Ac00
    ABorderColor #D8Bc00
    IBackgroundColor #008400
    IBorderColor #239c23
    EBackgroundColor #cf6300
    EBorderColor #ef8300
    NBackgroundColor #3380b9
    NBorderColor #004d86
}
skinparam title {
	FontColor	                 #c0c0c0
 	BorderColor                  #545454
	FontSize	    	         20
	BorderRoundCorner            16
	BorderThickness 	         1
	BackgroundColor              #48494b
}


skinparam legend {
	BackgroundColor #303030
	BorderColor #404040
	FontColor #a0a0a0
}

	skinparam swimlane {
	BorderColor #5e5e5e
	BorderThickness 2
	TitleBackgroundColor  #6d6d6d-#484848
	TitleFontColor #303030
}

skinparam activity {
		FontColor #C8Ac00
	BorderColor #333333
	BackgroundColor #333333-#333333
	BarColor #00FF00
	StartColor #0060a8
	EndColor #0060a8
	DiamondBackgroundColor #6d6d6d-#3a3a3a
  	DiamondBorderColor #3a3a3a
  	DiamondFontColor #fefefe
}


skinparam participant {
		FontColor #C8Ac00
	BorderColor #333333
	BackgroundColor #333333-#333333
	ParticipantBorderThickness 2
}


skinparam actor {
		FontColor #C8Ac00
	BorderColor #333333
	BackgroundColor #333333-#333333
}


skinparam arrow {
	Thickness 1.5
	Color #545454
	FontColor #a0a0a0
    FontStyle bold
    MessageAlignment center
}



skinparam sequence {
	BorderColor #303030
	TitleFontColor #303030
	BackgroundColor #333333
	StartColor #303030
	EndColor #303030
	BoxBackgroundColor #333333
	BoxBorderColor #484848
	BoxFontColor #484848
	LifeLineBorderColor #484848
	LifeLineBorderThickness 2
	LifeLineBackgroundColor #3a3a3a
	GroupBorderColor #484848
	GroupFontColor #484848
	GroupHeaderFontColor #0060a8
	GroupBackgroundColor #484848
	GroupHeaderBackgroundColor #333333
	DividerBackgroundColor #484848
    DividerBorderColor #484848
    DividerBorderThickness 2
    DividerFontColor #D8Bc00
	ReferenceBackgroundColor #333333
	ReferenceBorderColor #484848
	ReferenceFontColor #fefefe
	ReferenceHeaderBackgroundColor #484848
}


skinparam partition {
	BorderColor #303030
	FontColor #333333
	BackgroundColor #333333
}


skinparam collections {
		FontColor #C8Ac00
	BorderColor #333333
	BackgroundColor #333333-#333333
}


skinparam control {
		FontColor #C8Ac00
	BorderColor #333333
	BackgroundColor #333333-#333333
}


skinparam entity {
		FontColor #C8Ac00
	BorderColor #333333
	BackgroundColor #333333-#333333
}


skinparam boundary {
		FontColor #C8Ac00
	BorderColor #333333
	BackgroundColor #333333-#333333
}


skinparam agent {
	BackgroundColor #ff8000
	BorderColor #ff9933
	FontColor #484848
}


skinparam note {
	BorderThickness 1
	BackgroundColor #1b1b1a
	BorderColor #5e5e5e
	FontSize 11
	FontColor #a0a0a0
}


skinparam artifact {
	BorderThickness 10
	BorderColor #5e5e5e
	BackgroundColor #1b1b1a
	FontColor #D8Bc00
}


skinparam component {
		FontColor #C8Ac00
	BorderColor #333333
	BackgroundColor #333333-#333333
}


skinparam interface {
	BackgroundColor  #008400
	BorderColor  #007F00
	FontColor #484848
}


skinparam storage {
	BackgroundColor #ff8000
  	BorderColor #cc6600
	FontColor #222222
}


skinparam node {
	BackgroundColor #333333
	BorderColor #333333
	FontColor #C8Ac00
}


skinparam cloud {
	BackgroundColor #484848-black
	BorderColor #484848
	FontColor #D8Bc00
}


skinparam database {
		FontColor #C8Ac00
	BorderColor #333333
	BackgroundColor #333333-#333333
	BackgroundColor  #333333
}


skinparam class {
		FontColor #C8Ac00
	BorderColor #333333
	BackgroundColor #333333-#333333
	HeaderBackgroundColor #1b1b1a
    BackgroundColor #282828
    BorderColor #5e5e5e
 	StereotypeFontColor #a0a0a0
    StereotypeFontStyle bold
	BorderThickness 1
	AttributeFontColor #D8Bc00
	AttributeFontSize 11
    FontColor #D8Bc00
    FontStyle bold
}


skinparam object {
		FontColor #C8Ac00
	BorderColor #333333
	BackgroundColor #333333-#333333
	StereotypeFontColor #484848
	BorderThickness 1
	AttributeFontColor #fefefe
	AttributeFontSize 11
}


skinparam usecase {
		FontColor #C8Ac00
	BorderColor #333333
	BackgroundColor #333333-#333333
	BorderThickness 2
	StereotypeFontColor #303030
}


skinparam rectangle {
		FontColor #C8Ac00
	BorderColor #333333
	BackgroundColor #333333-#333333
	BackgroundColor #333333
	BorderThickness 2
	StereotypeFontColor #303030
}


skinparam package {
		FontColor #C8Ac00
	BorderColor #333333
	BackgroundColor #333333-#333333
	BackgroundColor #333333
	BorderThickness 2
}


skinparam folder {
	BackgroundColor #6d6d6d
  	BorderColor #ff8000
	FontColor #ff8000
	BorderThickness 2
}


skinparam frame {
	BackgroundColor #6d6d6d
  	BorderColor #0060a8
	FontColor #0060a8
	BorderThickness 2
}


skinparam state {
		FontColor #C8Ac00
	BorderColor #333333
	BackgroundColor #333333-#333333
	StartColor #0060a8
	EndColor #0060a8
	AttributeFontColor #fefefe
	AttributeFontSize 11
}


skinparam queue {
		FontColor #C8Ac00
	BorderColor #333333
	BackgroundColor #333333-#333333
}


skinparam card {
	BackgroundColor #0060a8
	BorderColor #004d86
	FontColor $INFO_TEXT
}


skinparam file {
	BackgroundColor #6d6d6d-#484848
	BorderColor #0060a8
	FontColor #fefefe
}


skinparam stack {
		FontColor #C8Ac00
	BorderColor #333333
	BackgroundColor #333333-#333333
}

    
    title "org.apache.wicket.spring"
    
    interface IWebApplicationFactory
    interface IProxyTargetLocator
    
    SpringWebApplicationFactory <|- - AnnotationConfigSpringWebApplicationFactory
    class AnnotationConfigSpringWebApplicationFactory
    {
    }
    
    class FieldBeansCollector
    {
        - -(constructors)- -
        +FieldBeansCollector(ResolvableType)
        - -
        +Object getBeansToInject()
        +FieldType getFieldType()
        - -(collection)- -
        +void addBean(String beanName, Object bean)
    }
    
    enum FieldBeansCollector.FieldType
    {
        LIST
        MAP
        NONE
        SET
    }
    
    interface IClusterable
    IClusterable <|- - ISpringContextLocator
    interface ISpringContextLocator
    {
        - -
        +ApplicationContext getSpringContext()
    }
    
    IProxyTargetLocator <|- - SpringBeanLocator
    class SpringBeanLocator
    {
        - -(constructors)- -
        +SpringBeanLocator(Class<?>, Field, ISpringContextLocator)
        +SpringBeanLocator(Class<?>, ISpringContextLocator)
        +SpringBeanLocator(String, Class<?>, Field, ISpringContextLocator)
        +SpringBeanLocator(String, Class<?>, ISpringContextLocator)
        - -
        +RootBeanDefinition getBeanDefinition(ApplicationContext ctx, String name)
        +Class<?> getBeanType()
        +ISpringContextLocator getSpringContextLocator()
        - -(checks)- -
        +boolean isSingletonBean()
        - -(naming)- -
        +String getBeanName()
    }
    
    IWebApplicationFactory <|- - SpringWebApplicationFactory
    class SpringWebApplicationFactory
    {
        - -
        #ConfigurableWebApplicationContext createWebApplicationContext(WebApplicationContext parent, WicketFilter)
        #void postProcessWebApplicationContext(ConfigurableWebApplicationContext wac, WicketFilter)
        - -(configuration)- -
        #String getContextConfigLocation(WicketFilter)
        - -(factory)- -
        #ConfigurableWebApplicationContext newApplicationContext()
    }
    
@enduml

PlantUML version 1.2021.01(Tue Feb 02 00:55:08 MST 2021)
(GPL source distribution)
Java Runtime: Java(TM) SE Runtime Environment
JVM: Java HotSpot(TM) 64-Bit Server VM
Default Encoding: UTF-8
Language: en
Country: US
--></g></svg>