<?xml version="1.0" encoding="UTF-8" standalone="no"?><svg xmlns="http://www.w3.org/2000/svg" xmlns:xlink="http://www.w3.org/1999/xlink" contentScriptType="application/ecmascript" contentStyleType="text/css" height="313.5417px" preserveAspectRatio="none" style="width:1985px;height:313px;background:#333333;" version="1.1" viewBox="0 0 1985 313" width="1985.4167px" zoomAndPan="magnify"><defs/><g><rect fill="#48494B" height="41.2028" rx="8.3333" ry="8.3333" style="stroke:#545454;stroke-width:1.0416666666666667;" width="262.5" x="854.1667" y="2.0833"/><text fill="#C0C0C0" font-family="Open Sans,Avenir,Nunito,Arial,Helvetica,SansSerif" font-size="20.8333" lengthAdjust="spacing" textLength="239.5833" x="865.625" y="30.5583">org.apache.wicket.guice</text><!--MD5=[cd6fe5c68cc4750b98a6651e5a9afd2b]
class IClusterable--><rect codeLine="6" fill="#282828" height="48.055" id="IClusterable" rx="8.3333" ry="8.3333" style="stroke:#5E5E5E;stroke-width:1.0416666666666667;" width="115.625" x="46.875" y="53.7028"/><rect fill="#1B1B1A" height="31.3883" rx="8.3333" ry="8.3333" style="stroke:#1B1B1A;stroke-width:1.0416666666666667;" width="115.625" x="46.875" y="53.7028"/><rect fill="#1B1B1A" height="8.3333" style="stroke:#1B1B1A;stroke-width:1.0416666666666667;" width="115.625" x="46.875" y="76.7578"/><rect codeLine="6" fill="none" height="48.055" id="IClusterable" rx="8.3333" ry="8.3333" style="stroke:#5E5E5E;stroke-width:1.0416666666666667;" width="115.625" x="46.875" y="53.7028"/><ellipse cx="61.4583" cy="69.397" fill="#008400" rx="10.4167" ry="10.4167" style="stroke:#239C23;stroke-width:1.0416666666666667;"/><path d="M58.8623,66.5588 L58.8623,64.9719 L64.2883,64.9719 L64.2883,66.5588 L62.4756,66.5588 L62.4756,72.4976 L64.2883,72.4976 L64.2883,74.0845 L58.8623,74.0845 L58.8623,72.4976 L60.675,72.4976 L60.675,66.5588 Z " fill="#000000"/><text fill="#D8BC00" font-family="Open Sans,Avenir,Nunito,Arial,Helvetica,SansSerif" font-size="12.5" font-style="italic" font-weight="bold" lengthAdjust="spacing" textLength="78.125" x="78.125" y="74.1211">IClusterable</text><line style="stroke:#5E5E5E;stroke-width:1.0416666666666667;" x1="47.9167" x2="161.4583" y1="85.0911" y2="85.0911"/><line style="stroke:#5E5E5E;stroke-width:1.0416666666666667;" x1="47.9167" x2="161.4583" y1="93.4245" y2="93.4245"/><!--MD5=[deea33dd51098b9137ec969856f0ab48]
class IWebApplicationFactory--><rect codeLine="7" fill="#282828" height="48.055" id="IWebApplicationFactory" rx="8.3333" ry="8.3333" style="stroke:#5E5E5E;stroke-width:1.0416666666666667;" width="189.5833" x="254.6875" y="53.7028"/><rect fill="#1B1B1A" height="31.3883" rx="8.3333" ry="8.3333" style="stroke:#1B1B1A;stroke-width:1.0416666666666667;" width="189.5833" x="254.6875" y="53.7028"/><rect fill="#1B1B1A" height="8.3333" style="stroke:#1B1B1A;stroke-width:1.0416666666666667;" width="189.5833" x="254.6875" y="76.7578"/><rect codeLine="7" fill="none" height="48.055" id="IWebApplicationFactory" rx="8.3333" ry="8.3333" style="stroke:#5E5E5E;stroke-width:1.0416666666666667;" width="189.5833" x="254.6875" y="53.7028"/><ellipse cx="269.2708" cy="69.397" fill="#008400" rx="10.4167" ry="10.4167" style="stroke:#239C23;stroke-width:1.0416666666666667;"/><path d="M266.6748,66.5588 L266.6748,64.9719 L272.1008,64.9719 L272.1008,66.5588 L270.2881,66.5588 L270.2881,72.4976 L272.1008,72.4976 L272.1008,74.0845 L266.6748,74.0845 L266.6748,72.4976 L268.4875,72.4976 L268.4875,66.5588 Z " fill="#000000"/><text fill="#D8BC00" font-family="Open Sans,Avenir,Nunito,Arial,Helvetica,SansSerif" font-size="12.5" font-style="italic" font-weight="bold" lengthAdjust="spacing" textLength="152.0833" x="285.9375" y="74.1211">IWebApplicationFactory</text><line style="stroke:#5E5E5E;stroke-width:1.0416666666666667;" x1="255.7292" x2="443.2292" y1="85.0911" y2="85.0911"/><line style="stroke:#5E5E5E;stroke-width:1.0416666666666667;" x1="255.7292" x2="443.2292" y1="93.4245" y2="93.4245"/><!--MD5=[58ab68871b7178f8c4c3ef80265093e5]
class IBehaviorInstantiationListener--><rect codeLine="8" fill="#282828" height="48.055" id="IBehaviorInstantiationListener" rx="8.3333" ry="8.3333" style="stroke:#5E5E5E;stroke-width:1.0416666666666667;" width="233.3333" x="480.7292" y="53.7028"/><rect fill="#1B1B1A" height="31.3883" rx="8.3333" ry="8.3333" style="stroke:#1B1B1A;stroke-width:1.0416666666666667;" width="233.3333" x="480.7292" y="53.7028"/><rect fill="#1B1B1A" height="8.3333" style="stroke:#1B1B1A;stroke-width:1.0416666666666667;" width="233.3333" x="480.7292" y="76.7578"/><rect codeLine="8" fill="none" height="48.055" id="IBehaviorInstantiationListener" rx="8.3333" ry="8.3333" style="stroke:#5E5E5E;stroke-width:1.0416666666666667;" width="233.3333" x="480.7292" y="53.7028"/><ellipse cx="495.3125" cy="69.397" fill="#008400" rx="10.4167" ry="10.4167" style="stroke:#239C23;stroke-width:1.0416666666666667;"/><path d="M492.7165,66.5588 L492.7165,64.9719 L498.1425,64.9719 L498.1425,66.5588 L496.3298,66.5588 L496.3298,72.4976 L498.1425,72.4976 L498.1425,74.0845 L492.7165,74.0845 L492.7165,72.4976 L494.5292,72.4976 L494.5292,66.5588 Z " fill="#000000"/><text fill="#D8BC00" font-family="Open Sans,Avenir,Nunito,Arial,Helvetica,SansSerif" font-size="12.5" font-style="italic" font-weight="bold" lengthAdjust="spacing" textLength="195.8333" x="511.9792" y="74.1211">IBehaviorInstantiationListener</text><line style="stroke:#5E5E5E;stroke-width:1.0416666666666667;" x1="481.7708" x2="713.0208" y1="85.0911" y2="85.0911"/><line style="stroke:#5E5E5E;stroke-width:1.0416666666666667;" x1="481.7708" x2="713.0208" y1="93.4245" y2="93.4245"/><!--MD5=[12726614715adeed2a97f79df58791d3]
class IFieldValueFactory--><rect codeLine="9" fill="#282828" height="48.055" id="IFieldValueFactory" rx="8.3333" ry="8.3333" style="stroke:#5E5E5E;stroke-width:1.0416666666666667;" width="155.2083" x="1163.5417" y="53.7028"/><rect fill="#1B1B1A" height="31.3883" rx="8.3333" ry="8.3333" style="stroke:#1B1B1A;stroke-width:1.0416666666666667;" width="155.2083" x="1163.5417" y="53.7028"/><rect fill="#1B1B1A" height="8.3333" style="stroke:#1B1B1A;stroke-width:1.0416666666666667;" width="155.2083" x="1163.5417" y="76.7578"/><rect codeLine="9" fill="none" height="48.055" id="IFieldValueFactory" rx="8.3333" ry="8.3333" style="stroke:#5E5E5E;stroke-width:1.0416666666666667;" width="155.2083" x="1163.5417" y="53.7028"/><ellipse cx="1178.125" cy="69.397" fill="#008400" rx="10.4167" ry="10.4167" style="stroke:#239C23;stroke-width:1.0416666666666667;"/><path d="M1175.529,66.5588 L1175.529,64.9719 L1180.955,64.9719 L1180.955,66.5588 L1179.1423,66.5588 L1179.1423,72.4976 L1180.955,72.4976 L1180.955,74.0845 L1175.529,74.0845 L1175.529,72.4976 L1177.3417,72.4976 L1177.3417,66.5588 Z " fill="#000000"/><text fill="#D8BC00" font-family="Open Sans,Avenir,Nunito,Arial,Helvetica,SansSerif" font-size="12.5" font-style="italic" font-weight="bold" lengthAdjust="spacing" textLength="117.7083" x="1194.7917" y="74.1211">IFieldValueFactory</text><line style="stroke:#5E5E5E;stroke-width:1.0416666666666667;" x1="1164.5833" x2="1317.7083" y1="85.0911" y2="85.0911"/><line style="stroke:#5E5E5E;stroke-width:1.0416666666666667;" x1="1164.5833" x2="1317.7083" y1="93.4245" y2="93.4245"/><!--MD5=[3eb6ddf92542e6d20c271074060b9fb0]
class IProxyTargetLocator--><rect codeLine="10" fill="#282828" height="48.055" id="IProxyTargetLocator" rx="8.3333" ry="8.3333" style="stroke:#5E5E5E;stroke-width:1.0416666666666667;" width="166.6667" x="1452.6042" y="53.7028"/><rect fill="#1B1B1A" height="31.3883" rx="8.3333" ry="8.3333" style="stroke:#1B1B1A;stroke-width:1.0416666666666667;" width="166.6667" x="1452.6042" y="53.7028"/><rect fill="#1B1B1A" height="8.3333" style="stroke:#1B1B1A;stroke-width:1.0416666666666667;" width="166.6667" x="1452.6042" y="76.7578"/><rect codeLine="10" fill="none" height="48.055" id="IProxyTargetLocator" rx="8.3333" ry="8.3333" style="stroke:#5E5E5E;stroke-width:1.0416666666666667;" width="166.6667" x="1452.6042" y="53.7028"/><ellipse cx="1467.1875" cy="69.397" fill="#008400" rx="10.4167" ry="10.4167" style="stroke:#239C23;stroke-width:1.0416666666666667;"/><path d="M1464.5915,66.5588 L1464.5915,64.9719 L1470.0175,64.9719 L1470.0175,66.5588 L1468.2048,66.5588 L1468.2048,72.4976 L1470.0175,72.4976 L1470.0175,74.0845 L1464.5915,74.0845 L1464.5915,72.4976 L1466.4042,72.4976 L1466.4042,66.5588 Z " fill="#000000"/><text fill="#D8BC00" font-family="Open Sans,Avenir,Nunito,Arial,Helvetica,SansSerif" font-size="12.5" font-style="italic" font-weight="bold" lengthAdjust="spacing" textLength="129.1667" x="1483.8542" y="74.1211">IProxyTargetLocator</text><line style="stroke:#5E5E5E;stroke-width:1.0416666666666667;" x1="1453.6458" x2="1618.2292" y1="85.0911" y2="85.0911"/><line style="stroke:#5E5E5E;stroke-width:1.0416666666666667;" x1="1453.6458" x2="1618.2292" y1="93.4245" y2="93.4245"/><!--MD5=[0c737e2a78041951b1e5606c334549c5]
class IComponentInstantiationListener--><rect codeLine="11" fill="#282828" height="48.055" id="IComponentInstantiationListener" rx="8.3333" ry="8.3333" style="stroke:#5E5E5E;stroke-width:1.0416666666666667;" width="253.125" x="751.0417" y="53.7028"/><rect fill="#1B1B1A" height="31.3883" rx="8.3333" ry="8.3333" style="stroke:#1B1B1A;stroke-width:1.0416666666666667;" width="253.125" x="751.0417" y="53.7028"/><rect fill="#1B1B1A" height="8.3333" style="stroke:#1B1B1A;stroke-width:1.0416666666666667;" width="253.125" x="751.0417" y="76.7578"/><rect codeLine="11" fill="none" height="48.055" id="IComponentInstantiationListener" rx="8.3333" ry="8.3333" style="stroke:#5E5E5E;stroke-width:1.0416666666666667;" width="253.125" x="751.0417" y="53.7028"/><ellipse cx="765.625" cy="69.397" fill="#008400" rx="10.4167" ry="10.4167" style="stroke:#239C23;stroke-width:1.0416666666666667;"/><path d="M763.029,66.5588 L763.029,64.9719 L768.455,64.9719 L768.455,66.5588 L766.6423,66.5588 L766.6423,72.4976 L768.455,72.4976 L768.455,74.0845 L763.029,74.0845 L763.029,72.4976 L764.8417,72.4976 L764.8417,66.5588 Z " fill="#000000"/><text fill="#D8BC00" font-family="Open Sans,Avenir,Nunito,Arial,Helvetica,SansSerif" font-size="12.5" font-style="italic" font-weight="bold" lengthAdjust="spacing" textLength="215.625" x="782.2917" y="74.1211">IComponentInstantiationListener</text><line style="stroke:#5E5E5E;stroke-width:1.0416666666666667;" x1="752.0833" x2="1003.125" y1="85.0911" y2="85.0911"/><line style="stroke:#5E5E5E;stroke-width:1.0416666666666667;" x1="752.0833" x2="1003.125" y1="93.4245" y2="93.4245"/><!--MD5=[0b751655c2c1ffbfbd2272aa0ecbc96a]
class Injector--><rect fill="#282828" height="48.055" id="Injector" rx="8.3333" ry="8.3333" style="stroke:#5E5E5E;stroke-width:1.0416666666666667;" width="86.4583" x="1040.625" y="53.7028"/><rect fill="#1B1B1A" height="31.3883" rx="8.3333" ry="8.3333" style="stroke:#1B1B1A;stroke-width:1.0416666666666667;" width="86.4583" x="1040.625" y="53.7028"/><rect fill="#1B1B1A" height="8.3333" style="stroke:#1B1B1A;stroke-width:1.0416666666666667;" width="86.4583" x="1040.625" y="76.7578"/><rect fill="none" height="48.055" id="Injector" rx="8.3333" ry="8.3333" style="stroke:#5E5E5E;stroke-width:1.0416666666666667;" width="86.4583" x="1040.625" y="53.7028"/><ellipse cx="1055.2083" cy="69.397" fill="#0066CF" rx="10.4167" ry="10.4167" style="stroke:#0086EF;stroke-width:1.0416666666666667;"/><path d="M1057.1187,73.822 Q1056.6915,74.0417 1056.2215,74.1516 Q1055.7515,74.2615 1055.2327,74.2615 Q1053.3895,74.2615 1052.419,73.0469 Q1051.4486,71.8323 1051.4486,69.5374 Q1051.4486,67.2363 1052.419,66.0217 Q1053.3895,64.8071 1055.2327,64.8071 Q1055.7515,64.8071 1056.2276,64.917 Q1056.7037,65.0269 1057.1187,65.2466 L1057.1187,67.2485 Q1056.6549,66.8213 1056.2185,66.6229 Q1055.7821,66.4246 1055.3182,66.4246 Q1054.3294,66.4246 1053.8259,67.2089 Q1053.3223,67.9932 1053.3223,69.5374 Q1053.3223,71.0754 1053.8259,71.8597 Q1054.3294,72.644 1055.3182,72.644 Q1055.7821,72.644 1056.2185,72.4457 Q1056.6549,72.2473 1057.1187,71.8201 Z " fill="#000000"/><text fill="#D8BC00" font-family="Open Sans,Avenir,Nunito,Arial,Helvetica,SansSerif" font-size="12.5" font-weight="bold" lengthAdjust="spacing" textLength="48.9583" x="1071.875" y="74.1211">Injector</text><line style="stroke:#5E5E5E;stroke-width:1.0416666666666667;" x1="1041.6667" x2="1126.0417" y1="85.0911" y2="85.0911"/><line style="stroke:#5E5E5E;stroke-width:1.0416666666666667;" x1="1041.6667" x2="1126.0417" y1="93.4245" y2="93.4245"/><!--MD5=[5f2b1f0c2221be2445cf27d369211107]
class GuiceComponentInjector--><rect codeLine="16" fill="#282828" height="142.6127" id="GuiceComponentInjector" rx="8.3333" ry="8.3333" style="stroke:#5E5E5E;stroke-width:1.0416666666666667;" width="343.75" x="705.7292" y="164.1195"/><rect fill="#1B1B1A" height="31.3883" rx="8.3333" ry="8.3333" style="stroke:#1B1B1A;stroke-width:1.0416666666666667;" width="343.75" x="705.7292" y="164.1195"/><rect fill="#1B1B1A" height="8.3333" style="stroke:#1B1B1A;stroke-width:1.0416666666666667;" width="343.75" x="705.7292" y="187.1745"/><rect codeLine="16" fill="none" height="142.6127" id="GuiceComponentInjector" rx="8.3333" ry="8.3333" style="stroke:#5E5E5E;stroke-width:1.0416666666666667;" width="343.75" x="705.7292" y="164.1195"/><ellipse cx="790.1042" cy="179.8136" fill="#0066CF" rx="10.4167" ry="10.4167" style="stroke:#0086EF;stroke-width:1.0416666666666667;"/><path d="M792.0146,184.2387 Q791.5873,184.4584 791.1174,184.5683 Q790.6474,184.6781 790.1286,184.6781 Q788.2853,184.6781 787.3149,183.4635 Q786.3444,182.2489 786.3444,179.954 Q786.3444,177.653 787.3149,176.4384 Q788.2853,175.2238 790.1286,175.2238 Q790.6474,175.2238 791.1235,175.3337 Q791.5995,175.4435 792.0146,175.6632 L792.0146,177.6652 Q791.5507,177.238 791.1143,177.0396 Q790.6779,176.8412 790.214,176.8412 Q789.2253,176.8412 788.7217,177.6255 Q788.2182,178.4098 788.2182,179.954 Q788.2182,181.4921 788.7217,182.2764 Q789.2253,183.0607 790.214,183.0607 Q790.6779,183.0607 791.1143,182.8623 Q791.5507,182.664 792.0146,182.2367 Z " fill="#000000"/><text fill="#D8BC00" font-family="Open Sans,Avenir,Nunito,Arial,Helvetica,SansSerif" font-size="12.5" font-weight="bold" lengthAdjust="spacing" textLength="160.4167" x="813.0208" y="184.5378">GuiceComponentInjector</text><line style="stroke:#5E5E5E;stroke-width:1.5625;" x1="706.7708" x2="1048.4375" y1="195.5078" y2="195.5078"/><ellipse cx="717.1875" cy="230.8777" fill="#84BE84" rx="3.125" ry="3.125" style="stroke:#038048;stroke-width:1.0416666666666667;"/><text fill="#D8BC00" font-family="Open Sans,Avenir,Nunito,Arial,Helvetica,SansSerif" font-size="11.4583" lengthAdjust="spacing" textLength="211.4583" x="728.6458" y="237.7889">GuiceComponentInjector(Application)</text><ellipse cx="717.1875" cy="250.6226" fill="#84BE84" rx="3.125" ry="3.125" style="stroke:#038048;stroke-width:1.0416666666666667;"/><text fill="#D8BC00" font-family="Open Sans,Avenir,Nunito,Arial,Helvetica,SansSerif" font-size="11.4583" lengthAdjust="spacing" textLength="260.4167" x="728.6458" y="257.5338">GuiceComponentInjector(Application, Injector)</text><ellipse cx="717.1875" cy="270.3674" fill="#84BE84" rx="3.125" ry="3.125" style="stroke:#038048;stroke-width:1.0416666666666667;"/><text fill="#D8BC00" font-family="Open Sans,Avenir,Nunito,Arial,Helvetica,SansSerif" font-size="11.4583" lengthAdjust="spacing" textLength="311.4583" x="728.6458" y="277.2786">GuiceComponentInjector(Application, Injector, boolean)</text><ellipse cx="717.1875" cy="290.1123" fill="#84BE84" rx="3.125" ry="3.125" style="stroke:#038048;stroke-width:1.0416666666666667;"/><text fill="#D8BC00" font-family="Open Sans,Avenir,Nunito,Arial,Helvetica,SansSerif" font-size="11.4583" lengthAdjust="spacing" textLength="258.3333" x="728.6458" y="297.0235">GuiceComponentInjector(Application, Module)</text><line style="stroke:#5E5E5E;stroke-width:1.0416666666666667;" x1="706.7708" x2="833.8542" y1="213.7136" y2="213.7136"/><text fill="#D8BC00" font-family="Open Sans,Avenir,Nunito,Arial,Helvetica,SansSerif" font-size="11.4583" lengthAdjust="spacing" textLength="81.25" x="836.9792" y="217.5232">(constructors)</text><line style="stroke:#5E5E5E;stroke-width:1.0416666666666667;" x1="921.3542" x2="1048.4375" y1="213.7136" y2="213.7136"/><!--MD5=[c9139bc1a494169580fb40313d51a45e]
class GuiceFieldValueFactory--><rect codeLine="26" fill="#282828" height="48.055" id="GuiceFieldValueFactory" rx="8.3333" ry="8.3333" style="stroke:#5E5E5E;stroke-width:1.0416666666666667;" width="186.4583" x="1147.9167" y="211.5153"/><rect fill="#1B1B1A" height="31.3883" rx="8.3333" ry="8.3333" style="stroke:#1B1B1A;stroke-width:1.0416666666666667;" width="186.4583" x="1147.9167" y="211.5153"/><rect fill="#1B1B1A" height="8.3333" style="stroke:#1B1B1A;stroke-width:1.0416666666666667;" width="186.4583" x="1147.9167" y="234.5703"/><rect codeLine="26" fill="none" height="48.055" id="GuiceFieldValueFactory" rx="8.3333" ry="8.3333" style="stroke:#5E5E5E;stroke-width:1.0416666666666667;" width="186.4583" x="1147.9167" y="211.5153"/><ellipse cx="1162.5" cy="227.2095" fill="#0066CF" rx="10.4167" ry="10.4167" style="stroke:#0086EF;stroke-width:1.0416666666666667;"/><path d="M1164.4104,231.6345 Q1163.9832,231.8542 1163.5132,231.9641 Q1163.0432,232.074 1162.5244,232.074 Q1160.6812,232.074 1159.7107,230.8594 Q1158.7402,229.6448 1158.7402,227.3499 Q1158.7402,225.0488 1159.7107,223.8342 Q1160.6812,222.6196 1162.5244,222.6196 Q1163.0432,222.6196 1163.5193,222.7295 Q1163.9954,222.8394 1164.4104,223.0591 L1164.4104,225.061 Q1163.9465,224.6338 1163.5101,224.4354 Q1163.0737,224.2371 1162.6099,224.2371 Q1161.6211,224.2371 1161.1176,225.0214 Q1160.614,225.8057 1160.614,227.3499 Q1160.614,228.8879 1161.1176,229.6722 Q1161.6211,230.4565 1162.6099,230.4565 Q1163.0737,230.4565 1163.5101,230.2582 Q1163.9465,230.0598 1164.4104,229.6326 Z " fill="#000000"/><text fill="#D8BC00" font-family="Open Sans,Avenir,Nunito,Arial,Helvetica,SansSerif" font-size="12.5" font-weight="bold" lengthAdjust="spacing" textLength="148.9583" x="1179.1667" y="231.9336">GuiceFieldValueFactory</text><line style="stroke:#5E5E5E;stroke-width:1.0416666666666667;" x1="1148.9583" x2="1333.3333" y1="242.9036" y2="242.9036"/><line style="stroke:#5E5E5E;stroke-width:1.0416666666666667;" x1="1148.9583" x2="1333.3333" y1="251.237" y2="251.237"/><!--MD5=[590f20c8285155869ce46c09bcf54ed0]
class GuiceInjectorHolder--><rect codeLine="31" fill="#282828" height="111.4563" id="GuiceInjectorHolder" rx="8.3333" ry="8.3333" style="stroke:#5E5E5E;stroke-width:1.0416666666666667;" width="194.7917" x="7.2917" y="179.7445"/><rect fill="#1B1B1A" height="31.3883" rx="8.3333" ry="8.3333" style="stroke:#1B1B1A;stroke-width:1.0416666666666667;" width="194.7917" x="7.2917" y="179.7445"/><rect fill="#1B1B1A" height="8.3333" style="stroke:#1B1B1A;stroke-width:1.0416666666666667;" width="194.7917" x="7.2917" y="202.7995"/><rect codeLine="31" fill="none" height="111.4563" id="GuiceInjectorHolder" rx="8.3333" ry="8.3333" style="stroke:#5E5E5E;stroke-width:1.0416666666666667;" width="194.7917" x="7.2917" y="179.7445"/><ellipse cx="35.4688" cy="195.4386" fill="#0066CF" rx="10.4167" ry="10.4167" style="stroke:#0086EF;stroke-width:1.0416666666666667;"/><path d="M37.3792,199.8637 Q36.9519,200.0834 36.4819,200.1933 Q36.012,200.3031 35.4932,200.3031 Q33.6499,200.3031 32.6794,199.0885 Q31.709,197.8739 31.709,195.579 Q31.709,193.278 32.6794,192.0634 Q33.6499,190.8488 35.4932,190.8488 Q36.012,190.8488 36.488,190.9587 Q36.9641,191.0685 37.3792,191.2882 L37.3792,193.2902 Q36.9153,192.863 36.4789,192.6646 Q36.0425,192.4662 35.5786,192.4662 Q34.5898,192.4662 34.0863,193.2505 Q33.5828,194.0348 33.5828,195.579 Q33.5828,197.1171 34.0863,197.9014 Q34.5898,198.6857 35.5786,198.6857 Q36.0425,198.6857 36.4789,198.4873 Q36.9153,198.289 37.3792,197.8617 Z " fill="#000000"/><text fill="#D8BC00" font-family="Open Sans,Avenir,Nunito,Arial,Helvetica,SansSerif" font-size="12.5" font-weight="bold" lengthAdjust="spacing" textLength="127.0833" x="55.1563" y="200.1628">GuiceInjectorHolder</text><line style="stroke:#5E5E5E;stroke-width:1.5625;" x1="8.3333" x2="201.0417" y1="211.1328" y2="211.1328"/><ellipse cx="18.75" cy="246.5027" fill="#84BE84" rx="3.125" ry="3.125" style="stroke:#038048;stroke-width:1.0416666666666667;"/><text fill="#D8BC00" font-family="Open Sans,Avenir,Nunito,Arial,Helvetica,SansSerif" font-size="11.4583" lengthAdjust="spacing" textLength="162.5" x="30.2083" y="253.4139">GuiceInjectorHolder(Injector)</text><line style="stroke:#5E5E5E;stroke-width:1.0416666666666667;" x1="8.3333" x2="60.9375" y1="229.3386" y2="229.3386"/><text fill="#D8BC00" font-family="Open Sans,Avenir,Nunito,Arial,Helvetica,SansSerif" font-size="11.4583" lengthAdjust="spacing" textLength="81.25" x="64.0625" y="233.1482">(constructors)</text><line style="stroke:#5E5E5E;stroke-width:1.0416666666666667;" x1="148.4375" x2="201.0417" y1="229.3386" y2="229.3386"/><line style="stroke:#5E5E5E;stroke-width:1.0416666666666667;" x1="8.3333" x2="201.0417" y1="263.1226" y2="263.1226"/><ellipse cx="18.75" cy="274.5809" fill="#84BE84" rx="3.125" ry="3.125" style="stroke:#038048;stroke-width:1.0416666666666667;"/><text fill="#D8BC00" font-family="Open Sans,Avenir,Nunito,Arial,Helvetica,SansSerif" font-size="11.4583" lengthAdjust="spacing" textLength="114.5833" x="30.2083" y="281.4921">Injector getInjector()</text><!--MD5=[53747a98957e432b80a44169de47d459]
class GuiceProxyTargetLocator--><rect codeLine="40" fill="#282828" height="127.0345" id="GuiceProxyTargetLocator" rx="8.3333" ry="8.3333" style="stroke:#5E5E5E;stroke-width:1.0416666666666667;" width="329.1667" x="1371.3542" y="171.932"/><rect fill="#1B1B1A" height="31.3883" rx="8.3333" ry="8.3333" style="stroke:#1B1B1A;stroke-width:1.0416666666666667;" width="329.1667" x="1371.3542" y="171.932"/><rect fill="#1B1B1A" height="8.3333" style="stroke:#1B1B1A;stroke-width:1.0416666666666667;" width="329.1667" x="1371.3542" y="194.987"/><rect codeLine="40" fill="none" height="127.0345" id="GuiceProxyTargetLocator" rx="8.3333" ry="8.3333" style="stroke:#5E5E5E;stroke-width:1.0416666666666667;" width="329.1667" x="1371.3542" y="171.932"/><ellipse cx="1448.4375" cy="187.6261" fill="#0066CF" rx="10.4167" ry="10.4167" style="stroke:#0086EF;stroke-width:1.0416666666666667;"/><path d="M1450.3479,192.0512 Q1449.9207,192.2709 1449.4507,192.3808 Q1448.9807,192.4906 1448.4619,192.4906 Q1446.6187,192.4906 1445.6482,191.276 Q1444.6777,190.0614 1444.6777,187.7665 Q1444.6777,185.4655 1445.6482,184.2509 Q1446.6187,183.0363 1448.4619,183.0363 Q1448.9807,183.0363 1449.4568,183.1462 Q1449.9329,183.256 1450.3479,183.4757 L1450.3479,185.4777 Q1449.884,185.0505 1449.4476,184.8521 Q1449.0112,184.6537 1448.5474,184.6537 Q1447.5586,184.6537 1447.0551,185.438 Q1446.5515,186.2223 1446.5515,187.7665 Q1446.5515,189.3046 1447.0551,190.0889 Q1447.5586,190.8732 1448.5474,190.8732 Q1449.0112,190.8732 1449.4476,190.6748 Q1449.884,190.4765 1450.3479,190.0492 Z " fill="#000000"/><text fill="#D8BC00" font-family="Open Sans,Avenir,Nunito,Arial,Helvetica,SansSerif" font-size="12.5" font-weight="bold" lengthAdjust="spacing" textLength="160.4167" x="1471.3542" y="192.3503">GuiceProxyTargetLocator</text><line style="stroke:#5E5E5E;stroke-width:1.5625;" x1="1372.3958" x2="1699.4792" y1="203.3203" y2="203.3203"/><ellipse cx="1382.8125" cy="238.6902" fill="#84BE84" rx="3.125" ry="3.125" style="stroke:#038048;stroke-width:1.0416666666666667;"/><text fill="#D8BC00" font-family="Open Sans,Avenir,Nunito,Arial,Helvetica,SansSerif" font-size="11.4583" lengthAdjust="spacing" textLength="296.875" x="1394.2708" y="245.6014">GuiceProxyTargetLocator(Field, Annotation, boolean)</text><line style="stroke:#5E5E5E;stroke-width:1.0416666666666667;" x1="1372.3958" x2="1492.1875" y1="221.5261" y2="221.5261"/><text fill="#D8BC00" font-family="Open Sans,Avenir,Nunito,Arial,Helvetica,SansSerif" font-size="11.4583" lengthAdjust="spacing" textLength="81.25" x="1495.3125" y="225.3357">(constructors)</text><line style="stroke:#5E5E5E;stroke-width:1.0416666666666667;" x1="1579.6875" x2="1699.4792" y1="221.5261" y2="221.5261"/><ellipse cx="1382.8125" cy="282.3466" fill="#84BE84" rx="3.125" ry="3.125" style="stroke:#038048;stroke-width:1.0416666666666667;"/><text fill="#D8BC00" font-family="Open Sans,Avenir,Nunito,Arial,Helvetica,SansSerif" font-size="11.4583" lengthAdjust="spacing" textLength="151.0417" x="1394.2708" y="289.2578">boolean isSingletonScope()</text><line style="stroke:#5E5E5E;stroke-width:1.0416666666666667;" x1="1372.3958" x2="1509.375" y1="265.1825" y2="265.1825"/><text fill="#D8BC00" font-family="Open Sans,Avenir,Nunito,Arial,Helvetica,SansSerif" font-size="11.4583" lengthAdjust="spacing" textLength="46.875" x="1512.5" y="268.9921">(checks)</text><line style="stroke:#5E5E5E;stroke-width:1.0416666666666667;" x1="1562.5" x2="1699.4792" y1="265.1825" y2="265.1825"/><!--MD5=[57c0bb712feed2e24b8acd6ff1371cca]
class GuiceWebApplicationFactory--><rect codeLine="49" fill="#282828" height="48.055" id="GuiceWebApplicationFactory" rx="8.3333" ry="8.3333" style="stroke:#5E5E5E;stroke-width:1.0416666666666667;" width="220.8333" x="239.0625" y="211.5153"/><rect fill="#1B1B1A" height="31.3883" rx="8.3333" ry="8.3333" style="stroke:#1B1B1A;stroke-width:1.0416666666666667;" width="220.8333" x="239.0625" y="211.5153"/><rect fill="#1B1B1A" height="8.3333" style="stroke:#1B1B1A;stroke-width:1.0416666666666667;" width="220.8333" x="239.0625" y="234.5703"/><rect codeLine="49" fill="none" height="48.055" id="GuiceWebApplicationFactory" rx="8.3333" ry="8.3333" style="stroke:#5E5E5E;stroke-width:1.0416666666666667;" width="220.8333" x="239.0625" y="211.5153"/><ellipse cx="253.6458" cy="227.2095" fill="#0066CF" rx="10.4167" ry="10.4167" style="stroke:#0086EF;stroke-width:1.0416666666666667;"/><path d="M255.5562,231.6345 Q255.129,231.8542 254.659,231.9641 Q254.189,232.074 253.6702,232.074 Q251.827,232.074 250.8565,230.8594 Q249.8861,229.6448 249.8861,227.3499 Q249.8861,225.0488 250.8565,223.8342 Q251.827,222.6196 253.6702,222.6196 Q254.189,222.6196 254.6651,222.7295 Q255.1412,222.8394 255.5562,223.0591 L255.5562,225.061 Q255.0924,224.6338 254.656,224.4354 Q254.2196,224.2371 253.7557,224.2371 Q252.7669,224.2371 252.2634,225.0214 Q251.7598,225.8057 251.7598,227.3499 Q251.7598,228.8879 252.2634,229.6722 Q252.7669,230.4565 253.7557,230.4565 Q254.2196,230.4565 254.656,230.2582 Q255.0924,230.0598 255.5562,229.6326 Z " fill="#000000"/><text fill="#D8BC00" font-family="Open Sans,Avenir,Nunito,Arial,Helvetica,SansSerif" font-size="12.5" font-weight="bold" lengthAdjust="spacing" textLength="183.3333" x="270.3125" y="231.9336">GuiceWebApplicationFactory</text><line style="stroke:#5E5E5E;stroke-width:1.0416666666666667;" x1="240.1042" x2="458.8542" y1="242.9036" y2="242.9036"/><line style="stroke:#5E5E5E;stroke-width:1.0416666666666667;" x1="240.1042" x2="458.8542" y1="251.237" y2="251.237"/><!--MD5=[8db60afef7a3447bbe27c5ed187fdac2]
class Exception--><rect fill="#282828" height="48.055" id="Exception" rx="8.3333" ry="8.3333" style="stroke:#5E5E5E;stroke-width:1.0416666666666667;" width="100" x="1807.8125" y="53.7028"/><rect fill="#1B1B1A" height="31.3883" rx="8.3333" ry="8.3333" style="stroke:#1B1B1A;stroke-width:1.0416666666666667;" width="100" x="1807.8125" y="53.7028"/><rect fill="#1B1B1A" height="8.3333" style="stroke:#1B1B1A;stroke-width:1.0416666666666667;" width="100" x="1807.8125" y="76.7578"/><rect fill="none" height="48.055" id="Exception" rx="8.3333" ry="8.3333" style="stroke:#5E5E5E;stroke-width:1.0416666666666667;" width="100" x="1807.8125" y="53.7028"/><ellipse cx="1822.3958" cy="69.397" fill="#0066CF" rx="10.4167" ry="10.4167" style="stroke:#0086EF;stroke-width:1.0416666666666667;"/><path d="M1824.3062,73.822 Q1823.879,74.0417 1823.409,74.1516 Q1822.939,74.2615 1822.4202,74.2615 Q1820.577,74.2615 1819.6065,73.0469 Q1818.6361,71.8323 1818.6361,69.5374 Q1818.6361,67.2363 1819.6065,66.0217 Q1820.577,64.8071 1822.4202,64.8071 Q1822.939,64.8071 1823.4151,64.917 Q1823.8912,65.0269 1824.3062,65.2466 L1824.3062,67.2485 Q1823.8424,66.8213 1823.406,66.6229 Q1822.9696,66.4246 1822.5057,66.4246 Q1821.5169,66.4246 1821.0134,67.2089 Q1820.5098,67.9932 1820.5098,69.5374 Q1820.5098,71.0754 1821.0134,71.8597 Q1821.5169,72.644 1822.5057,72.644 Q1822.9696,72.644 1823.406,72.4457 Q1823.8424,72.2473 1824.3062,71.8201 Z " fill="#000000"/><text fill="#D8BC00" font-family="Open Sans,Avenir,Nunito,Arial,Helvetica,SansSerif" font-size="12.5" font-weight="bold" lengthAdjust="spacing" textLength="62.5" x="1839.0625" y="74.1211">Exception</text><line style="stroke:#5E5E5E;stroke-width:1.0416666666666667;" x1="1808.8542" x2="1906.7708" y1="85.0911" y2="85.0911"/><line style="stroke:#5E5E5E;stroke-width:1.0416666666666667;" x1="1808.8542" x2="1906.7708" y1="93.4245" y2="93.4245"/><!--MD5=[7649929b5b27f27bd84fe2fe226bcdb9]
class GuiceFieldValueFactory.MoreThanOneBindingException--><rect codeLine="54" fill="#282828" height="48.055" id="GuiceFieldValueFactory.MoreThanOneBindingException" rx="8.3333" ry="8.3333" style="stroke:#5E5E5E;stroke-width:1.0416666666666667;" width="240.625" x="1737.5" y="211.5153"/><rect fill="#1B1B1A" height="31.3883" rx="8.3333" ry="8.3333" style="stroke:#1B1B1A;stroke-width:1.0416666666666667;" width="240.625" x="1737.5" y="211.5153"/><rect fill="#1B1B1A" height="8.3333" style="stroke:#1B1B1A;stroke-width:1.0416666666666667;" width="240.625" x="1737.5" y="234.5703"/><rect codeLine="54" fill="none" height="48.055" id="GuiceFieldValueFactory.MoreThanOneBindingException" rx="8.3333" ry="8.3333" style="stroke:#5E5E5E;stroke-width:1.0416666666666667;" width="240.625" x="1737.5" y="211.5153"/><ellipse cx="1752.0833" cy="227.2095" fill="#0066CF" rx="10.4167" ry="10.4167" style="stroke:#0086EF;stroke-width:1.0416666666666667;"/><path d="M1753.9937,231.6345 Q1753.5665,231.8542 1753.0965,231.9641 Q1752.6265,232.074 1752.1077,232.074 Q1750.2645,232.074 1749.294,230.8594 Q1748.3236,229.6448 1748.3236,227.3499 Q1748.3236,225.0488 1749.294,223.8342 Q1750.2645,222.6196 1752.1077,222.6196 Q1752.6265,222.6196 1753.1026,222.7295 Q1753.5787,222.8394 1753.9937,223.0591 L1753.9937,225.061 Q1753.5299,224.6338 1753.0935,224.4354 Q1752.6571,224.2371 1752.1932,224.2371 Q1751.2044,224.2371 1750.7009,225.0214 Q1750.1973,225.8057 1750.1973,227.3499 Q1750.1973,228.8879 1750.7009,229.6722 Q1751.2044,230.4565 1752.1932,230.4565 Q1752.6571,230.4565 1753.0935,230.2582 Q1753.5299,230.0598 1753.9937,229.6326 Z " fill="#000000"/><text fill="#D8BC00" font-family="Open Sans,Avenir,Nunito,Arial,Helvetica,SansSerif" font-size="12.5" font-weight="bold" lengthAdjust="spacing" textLength="203.125" x="1768.75" y="231.9336">MoreThanOneBindingException</text><line style="stroke:#5E5E5E;stroke-width:1.0416666666666667;" x1="1738.5417" x2="1977.0833" y1="242.9036" y2="242.9036"/><line style="stroke:#5E5E5E;stroke-width:1.0416666666666667;" x1="1738.5417" x2="1977.0833" y1="251.237" y2="251.237"/><!--MD5=[23225c840bb03f50a44fc422006e9c78]
reverse link Injector to GuiceComponentInjector--><path codeLine="13" d="M1036.6354,114.359 C1017.0313,129.1611 993.5625,146.8799 970.75,164.0986 " fill="none" id="Injector-backto-GuiceComponentInjector" style="stroke:#545454;stroke-width:1.5625;"/><polygon fill="none" points="1032.4063,108.4111,1053.4167,101.682,1041.1875,120.057,1032.4063,108.4111" style="stroke:#545454;stroke-width:1.5625;"/><!--MD5=[25183e35864e0676ba87a70d08784042]
reverse link IComponentInstantiationListener to GuiceComponentInjector--><path codeLine="14" d="M877.6042,122.7861 C877.6042,135.6507 877.6042,150.0361 877.6042,164.0986 " fill="none" id="IComponentInstantiationListener-backto-GuiceComponentInjector" style="stroke:#545454;stroke-width:1.5625;"/><polygon fill="none" points="870.3125,122.5153,877.6042,101.682,884.8958,122.5153,870.3125,122.5153" style="stroke:#545454;stroke-width:1.5625;"/><!--MD5=[68d87fb3b5e731d8afdd78beec55a857]
reverse link IBehaviorInstantiationListener to GuiceComponentInjector--><path codeLine="15" d="M657.1146,111.8903 C684.6042,127.1715 718.3229,145.9111 751.0521,164.0986 " fill="none" id="IBehaviorInstantiationListener-backto-GuiceComponentInjector" style="stroke:#545454;stroke-width:1.5625;"/><polygon fill="none" points="653.4063,118.1715,638.7396,101.682,660.4896,105.432,653.4063,118.1715" style="stroke:#545454;stroke-width:1.5625;"/><!--MD5=[56fdf9f0a9d32829e0cb329945ac13cf]
reverse link IFieldValueFactory to GuiceFieldValueFactory--><path codeLine="25" d="M1241.1458,122.7549 C1241.1458,151.5882 1241.1458,188.0882 1241.1458,211.359 " fill="none" id="IFieldValueFactory-backto-GuiceFieldValueFactory" style="stroke:#545454;stroke-width:1.5625;"/><polygon fill="none" points="1233.8542,122.5153,1241.1458,101.682,1248.4375,122.5153,1233.8542,122.5153" style="stroke:#545454;stroke-width:1.5625;"/><!--MD5=[723ab3f25cdb32255f624fb86cceaf80]
reverse link IClusterable to GuiceInjectorHolder--><path codeLine="30" d="M104.6875,122.5674 C104.6875,140.307 104.6875,160.984 104.6875,179.7028 " fill="none" id="IClusterable-backto-GuiceInjectorHolder" style="stroke:#545454;stroke-width:1.5625;"/><polygon fill="none" points="97.3958,122.5153,104.6875,101.682,111.9792,122.5153,97.3958,122.5153" style="stroke:#545454;stroke-width:1.5625;"/><!--MD5=[0a5b26c73d5f400dcb0b79be34f0009c]
reverse link IProxyTargetLocator to GuiceProxyTargetLocator--><path codeLine="39" d="M1535.9375,122.7028 C1535.9375,137.9007 1535.9375,155.2236 1535.9375,171.6299 " fill="none" id="IProxyTargetLocator-backto-GuiceProxyTargetLocator" style="stroke:#545454;stroke-width:1.5625;"/><polygon fill="none" points="1528.6458,122.5153,1535.9375,101.682,1543.2292,122.5153,1528.6458,122.5153" style="stroke:#545454;stroke-width:1.5625;"/><!--MD5=[ce3b2a9199151c935eea983b4f71e771]
reverse link IWebApplicationFactory to GuiceWebApplicationFactory--><path codeLine="48" d="M349.4792,122.7549 C349.4792,151.5882 349.4792,188.0882 349.4792,211.359 " fill="none" id="IWebApplicationFactory-backto-GuiceWebApplicationFactory" style="stroke:#545454;stroke-width:1.5625;"/><polygon fill="none" points="342.1875,122.5153,349.4792,101.682,356.7708,122.5153,342.1875,122.5153" style="stroke:#545454;stroke-width:1.5625;"/><!--MD5=[0fc29e826f726e7ac8415ea2ed278d68]
reverse link Exception to GuiceFieldValueFactory.MoreThanOneBindingException--><path codeLine="53" d="M1857.8125,122.7549 C1857.8125,151.5882 1857.8125,188.0882 1857.8125,211.359 " fill="none" id="Exception-backto-GuiceFieldValueFactory.MoreThanOneBindingException" style="stroke:#545454;stroke-width:1.5625;"/><polygon fill="none" points="1850.5208,122.5153,1857.8125,101.682,1865.1042,122.5153,1850.5208,122.5153" style="stroke:#545454;stroke-width:1.5625;"/><!--MD5=[860451d1943f38fd35863ea8c48672a2]
@startuml

    !include lexakai.theme
    
    title "org.apache.wicket.guice"
    
    interface IClusterable
    interface IWebApplicationFactory
    interface IBehaviorInstantiationListener
    interface IFieldValueFactory
    interface IProxyTargetLocator
    interface IComponentInstantiationListener
    
    Injector <|- - GuiceComponentInjector
    IComponentInstantiationListener <|- - GuiceComponentInjector
    IBehaviorInstantiationListener <|- - GuiceComponentInjector
    class GuiceComponentInjector
    {
        - -(constructors)- -
        +GuiceComponentInjector(Application)
        +GuiceComponentInjector(Application, Injector)
        +GuiceComponentInjector(Application, Injector, boolean)
        +GuiceComponentInjector(Application, Module)
    }
    
    IFieldValueFactory <|- - GuiceFieldValueFactory
    class GuiceFieldValueFactory
    {
    }
    
    IClusterable <|- - GuiceInjectorHolder
    class GuiceInjectorHolder
    {
        - -(constructors)- -
        +GuiceInjectorHolder(Injector)
        - -
        +Injector getInjector()
    }
    
    IProxyTargetLocator <|- - GuiceProxyTargetLocator
    class GuiceProxyTargetLocator
    {
        - -(constructors)- -
        +GuiceProxyTargetLocator(Field, Annotation, boolean)
        - -(checks)- -
        +boolean isSingletonScope()
    }
    
    IWebApplicationFactory <|- - GuiceWebApplicationFactory
    class GuiceWebApplicationFactory
    {
    }
    
    Exception <|- - GuiceFieldValueFactory.MoreThanOneBindingException
    class GuiceFieldValueFactory.MoreThanOneBindingException
    {
    }
    
@enduml

@startuml









skinparam backgroundColor #333333






skinparam  {
    defaultFontName   "Open Sans,Avenir,Nunito,Arial,Helvetica,SansSerif"
    defaultFontSize   12
    defaultTextAlignment left
    shadowing false
    RoundCorner 10
    TitleFontSize 18
}

skinparam defaultFontName       "Open Sans,Avenir,Nunito,Arial,Helvetica,SansSerif"
skinparam defaultFontSize       12
skinparam dpi                   100
skinparam shadowing             false
skinparam roundcorner           16
skinparam ParticipantPadding    40
skinparam BoxPadding            40
skinparam Padding               3
skinparam ArrowColor            #545454
skinparam stereotype {
    CBackgroundColor #0066cf
    CBorderColor #0086ef
    ABackgroundColor #C8Ac00
    ABorderColor #D8Bc00
    IBackgroundColor #008400
    IBorderColor #239c23
    EBackgroundColor #cf6300
    EBorderColor #ef8300
    NBackgroundColor #3380b9
    NBorderColor #004d86
}
skinparam title {
	FontColor	                 #c0c0c0
 	BorderColor                  #545454
	FontSize	    	         20
	BorderRoundCorner            16
	BorderThickness 	         1
	BackgroundColor              #48494b
}


skinparam legend {
	BackgroundColor #303030
	BorderColor #404040
	FontColor #a0a0a0
}

	skinparam swimlane {
	BorderColor #5e5e5e
	BorderThickness 2
	TitleBackgroundColor  #6d6d6d-#484848
	TitleFontColor #303030
}

skinparam activity {
		FontColor #C8Ac00
	BorderColor #333333
	BackgroundColor #333333-#333333
	BarColor #00FF00
	StartColor #0060a8
	EndColor #0060a8
	DiamondBackgroundColor #6d6d6d-#3a3a3a
  	DiamondBorderColor #3a3a3a
  	DiamondFontColor #fefefe
}


skinparam participant {
		FontColor #C8Ac00
	BorderColor #333333
	BackgroundColor #333333-#333333
	ParticipantBorderThickness 2
}


skinparam actor {
		FontColor #C8Ac00
	BorderColor #333333
	BackgroundColor #333333-#333333
}


skinparam arrow {
	Thickness 1.5
	Color #545454
	FontColor #a0a0a0
    FontStyle bold
    MessageAlignment center
}



skinparam sequence {
	BorderColor #303030
	TitleFontColor #303030
	BackgroundColor #333333
	StartColor #303030
	EndColor #303030
	BoxBackgroundColor #333333
	BoxBorderColor #484848
	BoxFontColor #484848
	LifeLineBorderColor #484848
	LifeLineBorderThickness 2
	LifeLineBackgroundColor #3a3a3a
	GroupBorderColor #484848
	GroupFontColor #484848
	GroupHeaderFontColor #0060a8
	GroupBackgroundColor #484848
	GroupHeaderBackgroundColor #333333
	DividerBackgroundColor #484848
    DividerBorderColor #484848
    DividerBorderThickness 2
    DividerFontColor #D8Bc00
	ReferenceBackgroundColor #333333
	ReferenceBorderColor #484848
	ReferenceFontColor #fefefe
	ReferenceHeaderBackgroundColor #484848
}


skinparam partition {
	BorderColor #303030
	FontColor #333333
	BackgroundColor #333333
}


skinparam collections {
		FontColor #C8Ac00
	BorderColor #333333
	BackgroundColor #333333-#333333
}


skinparam control {
		FontColor #C8Ac00
	BorderColor #333333
	BackgroundColor #333333-#333333
}


skinparam entity {
		FontColor #C8Ac00
	BorderColor #333333
	BackgroundColor #333333-#333333
}


skinparam boundary {
		FontColor #C8Ac00
	BorderColor #333333
	BackgroundColor #333333-#333333
}


skinparam agent {
	BackgroundColor #ff8000
	BorderColor #ff9933
	FontColor #484848
}


skinparam note {
	BorderThickness 1
	BackgroundColor #1b1b1a
	BorderColor #5e5e5e
	FontSize 11
	FontColor #a0a0a0
}


skinparam artifact {
	BorderThickness 10
	BorderColor #5e5e5e
	BackgroundColor #1b1b1a
	FontColor #D8Bc00
}


skinparam component {
		FontColor #C8Ac00
	BorderColor #333333
	BackgroundColor #333333-#333333
}


skinparam interface {
	BackgroundColor  #008400
	BorderColor  #007F00
	FontColor #484848
}


skinparam storage {
	BackgroundColor #ff8000
  	BorderColor #cc6600
	FontColor #222222
}


skinparam node {
	BackgroundColor #333333
	BorderColor #333333
	FontColor #C8Ac00
}


skinparam cloud {
	BackgroundColor #484848-black
	BorderColor #484848
	FontColor #D8Bc00
}


skinparam database {
		FontColor #C8Ac00
	BorderColor #333333
	BackgroundColor #333333-#333333
	BackgroundColor  #333333
}


skinparam class {
		FontColor #C8Ac00
	BorderColor #333333
	BackgroundColor #333333-#333333
	HeaderBackgroundColor #1b1b1a
    BackgroundColor #282828
    BorderColor #5e5e5e
 	StereotypeFontColor #a0a0a0
    StereotypeFontStyle bold
	BorderThickness 1
	AttributeFontColor #D8Bc00
	AttributeFontSize 11
    FontColor #D8Bc00
    FontStyle bold
}


skinparam object {
		FontColor #C8Ac00
	BorderColor #333333
	BackgroundColor #333333-#333333
	StereotypeFontColor #484848
	BorderThickness 1
	AttributeFontColor #fefefe
	AttributeFontSize 11
}


skinparam usecase {
		FontColor #C8Ac00
	BorderColor #333333
	BackgroundColor #333333-#333333
	BorderThickness 2
	StereotypeFontColor #303030
}


skinparam rectangle {
		FontColor #C8Ac00
	BorderColor #333333
	BackgroundColor #333333-#333333
	BackgroundColor #333333
	BorderThickness 2
	StereotypeFontColor #303030
}


skinparam package {
		FontColor #C8Ac00
	BorderColor #333333
	BackgroundColor #333333-#333333
	BackgroundColor #333333
	BorderThickness 2
}


skinparam folder {
	BackgroundColor #6d6d6d
  	BorderColor #ff8000
	FontColor #ff8000
	BorderThickness 2
}


skinparam frame {
	BackgroundColor #6d6d6d
  	BorderColor #0060a8
	FontColor #0060a8
	BorderThickness 2
}


skinparam state {
		FontColor #C8Ac00
	BorderColor #333333
	BackgroundColor #333333-#333333
	StartColor #0060a8
	EndColor #0060a8
	AttributeFontColor #fefefe
	AttributeFontSize 11
}


skinparam queue {
		FontColor #C8Ac00
	BorderColor #333333
	BackgroundColor #333333-#333333
}


skinparam card {
	BackgroundColor #0060a8
	BorderColor #004d86
	FontColor $INFO_TEXT
}


skinparam file {
	BackgroundColor #6d6d6d-#484848
	BorderColor #0060a8
	FontColor #fefefe
}


skinparam stack {
		FontColor #C8Ac00
	BorderColor #333333
	BackgroundColor #333333-#333333
}

    
    title "org.apache.wicket.guice"
    
    interface IClusterable
    interface IWebApplicationFactory
    interface IBehaviorInstantiationListener
    interface IFieldValueFactory
    interface IProxyTargetLocator
    interface IComponentInstantiationListener
    
    Injector <|- - GuiceComponentInjector
    IComponentInstantiationListener <|- - GuiceComponentInjector
    IBehaviorInstantiationListener <|- - GuiceComponentInjector
    class GuiceComponentInjector
    {
        - -(constructors)- -
        +GuiceComponentInjector(Application)
        +GuiceComponentInjector(Application, Injector)
        +GuiceComponentInjector(Application, Injector, boolean)
        +GuiceComponentInjector(Application, Module)
    }
    
    IFieldValueFactory <|- - GuiceFieldValueFactory
    class GuiceFieldValueFactory
    {
    }
    
    IClusterable <|- - GuiceInjectorHolder
    class GuiceInjectorHolder
    {
        - -(constructors)- -
        +GuiceInjectorHolder(Injector)
        - -
        +Injector getInjector()
    }
    
    IProxyTargetLocator <|- - GuiceProxyTargetLocator
    class GuiceProxyTargetLocator
    {
        - -(constructors)- -
        +GuiceProxyTargetLocator(Field, Annotation, boolean)
        - -(checks)- -
        +boolean isSingletonScope()
    }
    
    IWebApplicationFactory <|- - GuiceWebApplicationFactory
    class GuiceWebApplicationFactory
    {
    }
    
    Exception <|- - GuiceFieldValueFactory.MoreThanOneBindingException
    class GuiceFieldValueFactory.MoreThanOneBindingException
    {
    }
    
@enduml

PlantUML version 1.2021.01(Tue Feb 02 00:55:08 MST 2021)
(GPL source distribution)
Java Runtime: Java(TM) SE Runtime Environment
JVM: Java HotSpot(TM) 64-Bit Server VM
Default Encoding: UTF-8
Language: en
Country: US
--></g></svg>