<?xml version="1.0" encoding="utf-8"?>
<svg viewBox="0 0 500 500" xmlns="http://www.w3.org/2000/svg">
  <path style="stroke: rgb(0, 0, 0); fill: rgb(28, 238, 17); stroke-width: 4px;" d="M 192.198 307.664 L 159.151 316.568 L 86.983 302.448 C 71.716 296.472 56.492 323.761 69.22 339.223 C 97.485 365.51 162.02 349.485 160.754 378.145 C 160.179 391.099 172.475 411.2 147.9 449.481 C 135.682 468.507 154.03 485.99 209.578 469.846 C 226.382 464.961 225.291 456.261 228.17 416.659 C 229.726 395.255 257.728 383.816 269.903 414.568 C 273.273 423.081 275.228 440.729 289.747 459.784 C 300.48 473.87 331.729 481.717 351.436 455.331 C 375.611 422.963 278.184 362.047 303.634 360.788 C 347.913 358.598 316.148 366.637 385.85 347.498 C 404.011 342.511 407.917 311.976 378.933 300.531 C 360.438 293.23 322.674 309.022 287.37 303.93 C 255.45 299.327 223.726 300.57 192.198 307.664 Z"/>
  <circle style="fill: rgb(28, 238, 17); stroke-width: 4px; stroke: rgb(32, 32, 32);" cx="222.843" cy="169.528" r="143.88"/>
  <ellipse style="fill: rgb(32, 32, 32);" cx="134.522" cy="286.221" rx="50.401" ry="63.956" transform="matrix(0.99189, -0.127102, 0.321585, 0.966968, -65.028718, -94.523323)"/>
  <ellipse style="fill: rgb(32, 32, 32);" cx="134.522" cy="286.221" rx="50.401" ry="63.956" transform="matrix(0.99189, 0.127102, 0.321585, -0.966968, 66.974891, 426.494064)"/>
  <circle style="fill: rgb(224, 224, 224);" cx="131.442" cy="128.313" r="10.324"/>
  <circle style="fill: rgb(224, 224, 224);" cx="283.23" cy="132.55" r="9.615"/>
  <path style="stroke: rgb(0, 0, 0); stroke-width: 5px; fill: none; stroke-linecap: round;" d="M 201.119 263.221 C 216.302 275.546 240.247 275.409 253.651 262.876"/>
</svg>