<?xml version="1.0" encoding="utf-8"?>
<svg viewBox="0 0 512 512" xmlns="http://www.w3.org/2000/svg" xmlns:bx="https://boxy-svg.com">
  <defs>
    <style type="text/css">
    .button {stroke: none; fill: orange;}
    .symbol {stroke: none; fill: white;}
  </style>
  </defs>
  <path d="M 96.001 0 L 416 0 C 468.994 0 512 43.009 512 96.001 L 512 416 C 512 468.994 468.994 512 416 512 L 96.001 512 C 43.009 512 0 468.994 0 416 L 0 96.001 C 0 43.009 43.009 0 96.001 0 Z M 64 128 C 240.705 128 384.001 271.296 384.001 448.002 L 448.002 448.002 C 448.002 235.906 276.098 64 64 64 Z M 64 256.002 C 170.049 256.002 256.002 341.953 256.002 448.002 L 320 448.002 C 320 306.624 205.376 192 64 192 Z M 128 320 C 92.672 320 64 348.673 64 384.001 C 64 419.329 92.672 448.002 128 448.002 C 163.329 448.002 192 419.329 192 384.001 C 192 348.673 163.329 320 128 320 Z" class="button" style="fill: rgb(66, 147, 247);" bx:origin="-0.011701 -0.009117"/>
</svg>