<?xml version="1.0" encoding="utf-8"?>
<svg viewBox="0 0 500 500" xmlns="http://www.w3.org/2000/svg" xmlns:bx="https://boxy-svg.com">
  <defs>
    <bx:guide x="539.605" y="-21.006" angle="90"/>
  </defs>
  <g transform="matrix(1.084247, -0.012655, 0.016533, 0.999943, -35.907227, 6.644338)" style="">
    <g transform="matrix(0.999875, 0.012654, -0.010764, 0.999988, 2.904461, -3.116839)">
      <ellipse style="fill: rgba(216, 216, 216, 0); stroke-width: 39px; stroke: rgb(216, 188, 0);" transform="matrix(0.796003, -0.605293, 0.803049, 0.645626, -172.632301, 249.358436)" cx="259.113" cy="267.372" rx="230.196" ry="64.539"/>
      <ellipse style="fill: rgba(216, 216, 216, 0); stroke-width: 19px; stroke: rgb(66, 148, 247);" transform="matrix(0.796003, -0.605293, 0.803049, 0.645626, -176.203483, 253.002998)" cx="259.113" cy="267.372" rx="230.196" ry="64.539"/>
    </g>
  </g>
  <circle style="stroke: rgb(216, 188, 0); stroke-width: 12px; fill: rgb(216, 188, 0);" cx="409.873" cy="111.644" r="26.161" transform="matrix(0.991887, 0.060013, -0.059575, 0.837342, -337.554993, 238.514038)"/>
  <g transform="matrix(0.999917, 0.012847, -0.012847, 0.999917, 12.50492, 1.180455)">
    <ellipse style="fill: rgba(216, 216, 216, 0); stroke-width: 39px; stroke: rgb(216, 188, 0);" transform="matrix(-0.054803, -0.998497, 0.990209, -0.205804, -16.900509, 572.561719)" cx="259.113" cy="267.372" rx="216.732" ry="74.333"/>
    <ellipse style="fill: rgba(216, 216, 216, 0); stroke-width: 19px; stroke: rgb(66, 148, 247);" transform="matrix(-0.054803, -0.998497, 0.990209, -0.205804, -16.790302, 573.306164)" cx="259.113" cy="267.372" rx="216.732" ry="74.333"/>
  </g>
  <g transform="matrix(1.084306, 0, -0.005314, 1.000081, -9.173626, -10.753113)" style="">
    <g>
      <ellipse style="fill: rgba(216, 216, 216, 0); stroke-width: 39px; stroke: rgb(216, 188, 0);" transform="matrix(-0.871883, -0.489715, 0.339063, -0.9565, 367.656167, 658.163635)" cx="259.113" cy="267.372" rx="216.683" ry="68.563"/>
    </g>
    <ellipse style="fill: rgba(216, 216, 216, 0); stroke-width: 19px; stroke: rgb(66, 148, 247);" transform="matrix(-0.871883, -0.489715, 0.339063, -0.9565, 372.216806, 659.824219)" cx="259.113" cy="267.372" rx="216.683" ry="68.563"/>
  </g>
  <circle style="stroke: rgb(216, 188, 0); stroke-width: 12px; fill: rgb(216, 188, 0);" cx="383.503" cy="416.773" r="26.161" transform="matrix(0.99254, -0.04999, 0.049625, 0.837894, -118.068588, -239.970184)"/>
  <circle style="stroke: rgb(216, 188, 0); stroke-width: 12px; fill: rgb(216, 188, 0);" cx="57.634" cy="179.763" r="26.161" transform="matrix(0.99254, -0.04999, 0.049625, 0.837894, 345.677216, 255.827286)"/>
</svg>