<?xml version="1.0" encoding="utf-8"?>
<svg contentscripttype="application/ecmascript" contentstyletype="text/css" height="1552.0833px" preserveAspectRatio="none" style="width:975px;height:1552px;background:#333333;" version="1.1" viewBox="0 0 975 1552" width="975px" zoomAndPan="magnify" xmlns="http://www.w3.org/2000/svg">
  <g>
    <rect fill="#48494B" height="82.4056" rx="16.6667" ry="16.6667" style="stroke:#545454;stroke-width:2.0833333333333335;" width="295.8333" x="325" y="4.1667"/>
    <text fill="#C0C0C0" font-family="Open Sans,Avenir,Nunito,Arial,Helvetica,SansSerif" font-size="41.6667" lengthAdjust="spacing" textLength="250" x="347.9167" y="61.1165" style="white-space: pre;">Applications</text>
    <rect codeline="6" fill="#282828" height="96.11" id="BaseComponent" rx="16.6667" ry="16.6667" style="stroke:#5E5E5E;stroke-width:2.0833333333333335;" width="287.5" x="325" y="107.4056"/>
    <rect fill="#1B1B1A" height="62.7767" rx="16.6667" ry="16.6667" style="stroke:#1B1B1A;stroke-width:2.0833333333333335;" width="287.5" x="325" y="107.4056"/>
    <rect fill="#1B1B1A" height="16.6667" style="stroke:#1B1B1A;stroke-width:2.0833333333333335;" width="287.5" x="325" y="153.5156"/>
    <rect codeline="6" fill="none" height="96.11" id="BaseComponent" rx="16.6667" ry="16.6667" style="stroke:#5E5E5E;stroke-width:2.0833333333333335;" width="287.5" x="325" y="107.4056"/>
    <ellipse cx="354.1667" cy="138.7939" fill="#C8AC00" rx="20.8333" ry="20.8333" style="stroke:#D8BC00;stroke-width:2.0833333333333335;"/>
    <path d="M353.3529,132.1981 L351.6561,139.6566 L355.0618,139.6566 Z M351.1556,128.9022 L355.5623,128.9022 L360.4818,147.1273 L356.8807,147.1273 L355.7576,142.6229 L350.9359,142.6229 L349.8372,147.1273 L346.2362,147.1273 Z " fill="#000000"/>
    <text fill="#D8BC00" font-family="Open Sans,Avenir,Nunito,Arial,Helvetica,SansSerif" font-size="25" font-style="italic" font-weight="bold" lengthAdjust="spacing" textLength="212.5" x="387.5" y="148.2422" style="white-space: pre;">BaseComponent</text>
    <line style="stroke:#5E5E5E;stroke-width:2.0833333333333335;" x1="327.0833" x2="610.4167" y1="170.1823" y2="170.1823"/>
    <line style="stroke:#5E5E5E;stroke-width:2.0833333333333335;" x1="327.0833" x2="610.4167" y1="186.849" y2="186.849"/>
    <rect codeline="12" fill="#282828" height="871.4152" id="Application" rx="16.6667" ry="16.6667" style="stroke:#5E5E5E;stroke-width:2.0833333333333335;" width="587.5" x="175" y="330.3223"/>
    <rect fill="#1B1B1A" height="62.7767" rx="16.6667" ry="16.6667" style="stroke:#1B1B1A;stroke-width:2.0833333333333335;" width="587.5" x="175" y="330.3223"/>
    <rect fill="#1B1B1A" height="16.6667" style="stroke:#1B1B1A;stroke-width:2.0833333333333335;" width="587.5" x="175" y="376.4323"/>
    <rect codeline="12" fill="none" height="871.4152" id="Application" rx="16.6667" ry="16.6667" style="stroke:#5E5E5E;stroke-width:2.0833333333333335;" width="587.5" x="175" y="330.3223"/>
    <ellipse cx="380.2083" cy="361.7106" fill="#C8AC00" rx="20.8333" ry="20.8333" style="stroke:#D8BC00;stroke-width:2.0833333333333335;"/>
    <path d="M379.3945,355.1147 L377.6978,362.5732 L381.1035,362.5732 Z M377.1973,351.8188 L381.604,351.8188 L386.5234,370.0439 L382.9224,370.0439 L381.7993,365.5396 L376.9775,365.5396 L375.8789,370.0439 L372.2778,370.0439 Z " fill="#000000"/>
    <text fill="#D8BC00" font-family="Open Sans,Avenir,Nunito,Arial,Helvetica,SansSerif" font-size="25" font-style="italic" font-weight="bold" lengthAdjust="spacing" textLength="147.9167" x="426.0417" y="371.1589" style="white-space: pre;">Application</text>
    <line style="stroke:#5E5E5E;stroke-width:3.125;" x1="177.0833" x2="760.4167" y1="393.099" y2="393.099"/>
    <polygon fill="#FFFF44" points="197.9167,453.422,206.25,461.7554,197.9167,470.0887,189.5833,461.7554" style="stroke:#B38D22;stroke-width:2.0833333333333335;"/>
    <text fill="#D8BC00" font-family="Open Sans,Avenir,Nunito,Arial,Helvetica,SansSerif" font-size="22.9167" lengthAdjust="spacing" textLength="220.8333" x="220.8333" y="477.6611" style="white-space: pre;">Application(Project)</text>
    <line style="stroke:#5E5E5E;stroke-width:2.0833333333333335;" x1="177.0833" x2="381.25" y1="429.5105" y2="429.5105"/>
    <text fill="#D8BC00" font-family="Open Sans,Avenir,Nunito,Arial,Helvetica,SansSerif" font-size="22.9167" lengthAdjust="spacing" textLength="162.5" x="387.5" y="437.1297" style="white-space: pre;">(constructors)</text>
    <line style="stroke:#5E5E5E;stroke-width:2.0833333333333335;" x1="556.25" x2="760.4167" y1="429.5105" y2="429.5105"/>
    <line style="stroke:#5E5E5E;stroke-width:2.0833333333333335;" x1="177.0833" x2="760.4167" y1="497.0785" y2="497.0785"/>
    <ellipse cx="197.9167" cy="519.9951" fill="#84BE84" rx="6.25" ry="6.25" style="stroke:#038048;stroke-width:2.0833333333333335;"/>
    <text fill="#D8BC00" font-family="Open Sans,Avenir,Nunito,Arial,Helvetica,SansSerif" font-size="22.9167" lengthAdjust="spacing" textLength="185.4167" x="220.8333" y="533.8175" style="white-space: pre;">Application get()</text>
    <ellipse cx="197.9167" cy="559.4849" fill="#84BE84" rx="6.25" ry="6.25" style="stroke:#038048;stroke-width:2.0833333333333335;"/>
    <text fill="#D8BC00" font-family="Open Sans,Avenir,Nunito,Arial,Helvetica,SansSerif" font-size="22.9167" lengthAdjust="spacing" textLength="179.1667" x="220.8333" y="573.3073" style="white-space: pre;">Project project()</text>
    <ellipse cx="197.9167" cy="598.9746" fill="#84BE84" rx="6.25" ry="6.25" style="stroke:#038048;stroke-width:2.0833333333333335;"/>
    <text fill="#D8BC00" font-family="Open Sans,Avenir,Nunito,Arial,Helvetica,SansSerif" font-size="22.9167" lengthAdjust="spacing" textLength="281.25" x="220.8333" y="612.797" style="white-space: pre;">PropertyMap properties()</text>
    <ellipse cx="197.9167" cy="686.2874" fill="#84BE84" rx="6.25" ry="6.25" style="stroke:#038048;stroke-width:2.0833333333333335;"/>
    <text fill="#D8BC00" font-family="Open Sans,Avenir,Nunito,Arial,Helvetica,SansSerif" font-size="22.9167" lengthAdjust="spacing" textLength="491.6667" x="220.8333" y="700.1099" style="white-space: pre;">T argument(int index, ArgumentParser&lt;T&gt;)</text>
    <ellipse cx="197.9167" cy="725.7772" fill="#84BE84" rx="6.25" ry="6.25" style="stroke:#038048;stroke-width:2.0833333333333335;"/>
    <text fill="#D8BC00" font-family="Open Sans,Avenir,Nunito,Arial,Helvetica,SansSerif" font-size="22.9167" lengthAdjust="spacing" textLength="381.25" x="220.8333" y="739.5996" style="white-space: pre;">T argument(ArgumentParser&lt;T&gt;)</text>
    <ellipse cx="197.9167" cy="765.2669" fill="#84BE84" rx="6.25" ry="6.25" style="stroke:#038048;stroke-width:2.0833333333333335;"/>
    <text fill="#D8BC00" font-family="Open Sans,Avenir,Nunito,Arial,Helvetica,SansSerif" font-size="22.9167" lengthAdjust="spacing" textLength="295.8333" x="220.8333" y="779.0894" style="white-space: pre;">ArgumentList arguments()</text>
    <ellipse cx="197.9167" cy="804.7567" fill="#84BE84" rx="6.25" ry="6.25" style="stroke:#038048;stroke-width:2.0833333333333335;"/>
    <text fill="#D8BC00" font-family="Open Sans,Avenir,Nunito,Arial,Helvetica,SansSerif" font-size="22.9167" lengthAdjust="spacing" textLength="339.5833" x="220.8333" y="818.5791" style="white-space: pre;">CommandLine commandLine()</text>
    <ellipse cx="197.9167" cy="844.2464" fill="#84BE84" rx="6.25" ry="6.25" style="stroke:#038048;stroke-width:2.0833333333333335;"/>
    <text fill="#D8BC00" font-family="Open Sans,Avenir,Nunito,Arial,Helvetica,SansSerif" font-size="22.9167" lengthAdjust="spacing" textLength="437.5" x="220.8333" y="858.0688" style="white-space: pre;">T get(SwitchParser&lt;T&gt;, T defaultValue)</text>
    <ellipse cx="197.9167" cy="883.7362" fill="#84BE84" rx="6.25" ry="6.25" style="stroke:#038048;stroke-width:2.0833333333333335;"/>
    <text fill="#D8BC00" font-family="Open Sans,Avenir,Nunito,Arial,Helvetica,SansSerif" font-size="22.9167" lengthAdjust="spacing" textLength="266.6667" x="220.8333" y="897.5586" style="white-space: pre;">T get(SwitchParser&lt;T&gt;)</text>
    <ellipse cx="197.9167" cy="923.2259" fill="#84BE84" rx="6.25" ry="6.25" style="stroke:#038048;stroke-width:2.0833333333333335;"/>
    <text fill="#D8BC00" font-family="Open Sans,Avenir,Nunito,Arial,Helvetica,SansSerif" font-size="22.9167" lengthAdjust="spacing" textLength="345.8333" x="220.8333" y="937.0483" style="white-space: pre;">boolean has(SwitchParser&lt;T&gt;)</text>
    <polygon fill="#FFFF44" points="197.9167,952.299,206.25,960.6323,197.9167,968.9657,189.5833,960.6323" style="stroke:#B38D22;stroke-width:2.0833333333333335;"/>
    <text fill="#D8BC00" font-family="Open Sans,Avenir,Nunito,Arial,Helvetica,SansSerif" font-size="22.9167" lengthAdjust="spacing" textLength="522.9167" x="220.8333" y="976.5381" style="white-space: pre;">List&lt;ArgumentParser&lt;?&gt;&gt; argumentParsers()</text>
    <polygon fill="#FFFF44" points="197.9167,991.7887,206.25,1000.1221,197.9167,1008.4554,189.5833,1000.1221" style="stroke:#B38D22;stroke-width:2.0833333333333335;"/>
    <text fill="#D8BC00" font-family="Open Sans,Avenir,Nunito,Arial,Helvetica,SansSerif" font-size="22.9167" lengthAdjust="spacing" textLength="437.5" x="220.8333" y="1016.0278" style="white-space: pre;">Set&lt;SwitchParser&lt;?&gt;&gt; switchParsers()</text>
    <line style="stroke:#5E5E5E;stroke-width:2.0833333333333335;" x1="177.0833" x2="330.2083" y1="651.9592" y2="651.9592"/>
    <text fill="#D8BC00" font-family="Open Sans,Avenir,Nunito,Arial,Helvetica,SansSerif" font-size="22.9167" lengthAdjust="spacing" textLength="264.5833" x="336.4583" y="659.5785" style="white-space: pre;">(command line parsing)</text>
    <line style="stroke:#5E5E5E;stroke-width:2.0833333333333335;" x1="607.2917" x2="760.4167" y1="651.9592" y2="651.9592"/>
    <ellipse cx="197.9167" cy="1089.5182" fill="#84BE84" rx="6.25" ry="6.25" style="stroke:#038048;stroke-width:2.0833333333333335;"/>
    <text fill="#D8BC00" font-family="Open Sans,Avenir,Nunito,Arial,Helvetica,SansSerif" font-size="22.9167" lengthAdjust="spacing" textLength="514.5833" x="220.8333" y="1103.3407" style="white-space: pre;">void exit(String message, Object... arguments)</text>
    <ellipse cx="197.9167" cy="1129.008" fill="#84BE84" rx="6.25" ry="6.25" style="stroke:#038048;stroke-width:2.0833333333333335;"/>
    <text fill="#D8BC00" font-family="Open Sans,Avenir,Nunito,Arial,Helvetica,SansSerif" font-size="22.9167" lengthAdjust="spacing" textLength="320.8333" x="220.8333" y="1142.8304" style="white-space: pre;">void run(String[] arguments)</text>
    <polygon fill="#FFFF44" points="197.9167,1158.0811,206.25,1166.4144,197.9167,1174.7477,189.5833,1166.4144" style="stroke:#B38D22;stroke-width:2.0833333333333335;"/>
    <text fill="#D8BC00" font-family="Open Sans,Avenir,Nunito,Arial,Helvetica,SansSerif" font-size="22.9167" lengthAdjust="spacing" textLength="143.75" x="220.8333" y="1182.3201" style="white-space: pre;">void onRun()</text>
    <line style="stroke:#5E5E5E;stroke-width:2.0833333333333335;" x1="177.0833" x2="409.375" y1="1055.19" y2="1055.19"/>
    <text fill="#D8BC00" font-family="Open Sans,Avenir,Nunito,Arial,Helvetica,SansSerif" font-size="22.9167" lengthAdjust="spacing" textLength="106.25" x="415.625" y="1062.8092" style="white-space: pre;">(lifecycle)</text>
    <line style="stroke:#5E5E5E;stroke-width:2.0833333333333335;" x1="528.125" x2="760.4167" y1="1055.19" y2="1055.19"/>
    <rect fill="#282828" height="96.11" id="CommandLine" rx="16.6667" ry="16.6667" style="stroke:#5E5E5E;stroke-width:2.0833333333333335;" width="262.5" x="14.5833" y="1407.4056"/>
    <rect fill="#1B1B1A" height="62.7767" rx="16.6667" ry="16.6667" style="stroke:#1B1B1A;stroke-width:2.0833333333333335;" width="262.5" x="14.5833" y="1407.4056"/>
    <rect fill="#1B1B1A" height="16.6667" style="stroke:#1B1B1A;stroke-width:2.0833333333333335;" width="262.5" x="14.5833" y="1453.5156"/>
    <rect fill="none" height="96.11" id="CommandLine" rx="16.6667" ry="16.6667" style="stroke:#5E5E5E;stroke-width:2.0833333333333335;" width="262.5" x="14.5833" y="1407.4056"/>
    <ellipse cx="43.75" cy="1438.7939" fill="#0066CF" rx="20.8333" ry="20.8333" style="stroke:#0086EF;stroke-width:2.0833333333333335;"/>
    <path d="M47.5708,1447.644 Q46.7163,1448.0835 45.7764,1448.3032 Q44.8364,1448.5229 43.7988,1448.5229 Q40.1123,1448.5229 38.1714,1446.0938 Q36.2305,1443.6646 36.2305,1439.0747 Q36.2305,1434.4727 38.1714,1432.0435 Q40.1123,1429.6143 43.7988,1429.6143 Q44.8364,1429.6143 45.7886,1429.834 Q46.7407,1430.0537 47.5708,1430.4932 L47.5708,1434.4971 Q46.6431,1433.6426 45.7703,1433.2458 Q44.8975,1432.8491 43.9697,1432.8491 Q41.9922,1432.8491 40.9851,1434.4177 Q39.978,1435.9863 39.978,1439.0747 Q39.978,1442.1509 40.9851,1443.7195 Q41.9922,1445.2881 43.9697,1445.2881 Q44.8975,1445.2881 45.7703,1444.8914 Q46.6431,1444.4946 47.5708,1443.6401 Z " fill="#000000"/>
    <text fill="#D8BC00" font-family="Open Sans,Avenir,Nunito,Arial,Helvetica,SansSerif" font-size="25" font-weight="bold" lengthAdjust="spacing" textLength="187.5" x="77.0833" y="1448.2422" style="white-space: pre;">CommandLine</text>
    <line style="stroke:#5E5E5E;stroke-width:2.0833333333333335;" x1="16.6667" x2="275" y1="1470.1823" y2="1470.1823"/>
    <line style="stroke:#5E5E5E;stroke-width:2.0833333333333335;" x1="16.6667" x2="275" y1="1486.849" y2="1486.849"/>
    <rect fill="#282828" height="96.11" id="Project" rx="16.6667" ry="16.6667" style="stroke:#5E5E5E;stroke-width:2.0833333333333335;" width="162.5" x="447.9167" y="1407.4056"/>
    <rect fill="#1B1B1A" height="62.7767" rx="16.6667" ry="16.6667" style="stroke:#1B1B1A;stroke-width:2.0833333333333335;" width="162.5" x="447.9167" y="1407.4056"/>
    <rect fill="#1B1B1A" height="16.6667" style="stroke:#1B1B1A;stroke-width:2.0833333333333335;" width="162.5" x="447.9167" y="1453.5156"/>
    <rect fill="none" height="96.11" id="Project" rx="16.6667" ry="16.6667" style="stroke:#5E5E5E;stroke-width:2.0833333333333335;" width="162.5" x="447.9167" y="1407.4056"/>
    <ellipse cx="477.0833" cy="1438.7939" fill="#0066CF" rx="20.8333" ry="20.8333" style="stroke:#0086EF;stroke-width:2.0833333333333335;"/>
    <path d="M480.9041,1447.644 Q480.0496,1448.0835 479.1097,1448.3032 Q478.1698,1448.5229 477.1322,1448.5229 Q473.4456,1448.5229 471.5047,1446.0938 Q469.5638,1443.6646 469.5638,1439.0747 Q469.5638,1434.4727 471.5047,1432.0435 Q473.4456,1429.6143 477.1322,1429.6143 Q478.1698,1429.6143 479.1219,1429.834 Q480.0741,1430.0537 480.9041,1430.4932 L480.9041,1434.4971 Q479.9764,1433.6426 479.1036,1433.2458 Q478.2308,1432.8491 477.3031,1432.8491 Q475.3255,1432.8491 474.3184,1434.4177 Q473.3114,1435.9863 473.3114,1439.0747 Q473.3114,1442.1509 474.3184,1443.7195 Q475.3255,1445.2881 477.3031,1445.2881 Q478.2308,1445.2881 479.1036,1444.8914 Q479.9764,1444.4946 480.9041,1443.6401 Z " fill="#000000"/>
    <text fill="#D8BC00" font-family="Open Sans,Avenir,Nunito,Arial,Helvetica,SansSerif" font-size="25" font-weight="bold" lengthAdjust="spacing" textLength="87.5" x="510.4167" y="1448.2422" style="white-space: pre;">Project</text>
    <line style="stroke:#5E5E5E;stroke-width:2.0833333333333335;" x1="450" x2="608.3333" y1="1470.1823" y2="1470.1823"/>
    <line style="stroke:#5E5E5E;stroke-width:2.0833333333333335;" x1="450" x2="608.3333" y1="1486.849" y2="1486.849"/>
    <rect codeline="37" fill="#282828" height="166.7562" id="Server" rx="16.6667" ry="16.6667" style="stroke:#5E5E5E;stroke-width:2.0833333333333335;" width="229.1667" x="731.25" y="1371.9889"/>
    <rect fill="#1B1B1A" height="62.7767" rx="16.6667" ry="16.6667" style="stroke:#1B1B1A;stroke-width:2.0833333333333335;" width="229.1667" x="731.25" y="1371.9889"/>
    <rect fill="#1B1B1A" height="16.6667" style="stroke:#1B1B1A;stroke-width:2.0833333333333335;" width="229.1667" x="731.25" y="1418.099"/>
    <rect codeline="37" fill="none" height="166.7562" id="Server" rx="16.6667" ry="16.6667" style="stroke:#5E5E5E;stroke-width:2.0833333333333335;" width="229.1667" x="731.25" y="1371.9889"/>
    <ellipse cx="794.1667" cy="1403.3773" fill="#C8AC00" rx="20.8333" ry="20.8333" style="stroke:#D8BC00;stroke-width:2.0833333333333335;"/>
    <path d="M793.3529,1396.7814 L791.6561,1404.2399 L795.0618,1404.2399 Z M791.1556,1393.4855 L795.5623,1393.4855 L800.4818,1411.7106 L796.8807,1411.7106 L795.7576,1407.2062 L790.9359,1407.2062 L789.8372,1411.7106 L786.2362,1411.7106 Z " fill="#000000"/>
    <text fill="#D8BC00" font-family="Open Sans,Avenir,Nunito,Arial,Helvetica,SansSerif" font-size="25" font-style="italic" font-weight="bold" lengthAdjust="spacing" textLength="79.1667" x="835" y="1412.8255" style="white-space: pre;">Server</text>
    <line style="stroke:#5E5E5E;stroke-width:3.125;" x1="733.3333" x2="958.3333" y1="1434.7656" y2="1434.7656"/>
    <polygon fill="#FFFF44" points="754.1667,1495.0887,762.5,1503.422,754.1667,1511.7554,745.8333,1503.422" style="stroke:#B38D22;stroke-width:2.0833333333333335;"/>
    <text fill="#D8BC00" font-family="Open Sans,Avenir,Nunito,Arial,Helvetica,SansSerif" font-size="22.9167" lengthAdjust="spacing" textLength="164.5833" x="777.0833" y="1519.3278" style="white-space: pre;">Server(Project)</text>
    <line style="stroke:#5E5E5E;stroke-width:2.0833333333333335;" x1="733.3333" x2="758.3333" y1="1471.1772" y2="1471.1772"/>
    <text fill="#D8BC00" font-family="Open Sans,Avenir,Nunito,Arial,Helvetica,SansSerif" font-size="22.9167" lengthAdjust="spacing" textLength="162.5" x="764.5833" y="1478.7964" style="white-space: pre;">(constructors)</text>
    <line style="stroke:#5E5E5E;stroke-width:2.0833333333333335;" x1="933.3333" x2="958.3333" y1="1471.1772" y2="1471.1772"/>
    <path codeline="8" d="M468.75,246.1764 C468.75,270.8431 468.75,299.3848 468.75,330.1348 " fill="none" id="BaseComponent-backto-Application" style="stroke:#545454;stroke-width:3.125;"/>
    <polygon fill="none" points="454.1667,245.6348,468.75,203.9681,483.3333,245.6348,454.1667,245.6348" style="stroke:#545454;stroke-width:3.125;"/>
    <path codeline="9" d="M174.9792,1042.6556 C121.2917,1109.3431 73.0625,1184.4264 43.75,1263.6556 C26.1458,1311.2389 55.9167,1361.6556 87.75,1398.5306 " fill="none" id="Application-to-CommandLine" style="stroke:#545454;stroke-width:3.125;"/>
    <polygon fill="#545454" points="95,1406.6556,88.7298,1387.1187,88.0629,1398.8849,76.2967,1398.218,95,1406.6556" style="stroke:#545454;stroke-width:3.125;"/>
    <text fill="#A0A0A0" font-family="Open Sans,Avenir,Nunito,Arial,Helvetica,SansSerif" font-size="25" font-weight="bold" lengthAdjust="spacing" textLength="293.75" x="52.0833" y="1296.1589" style="white-space: pre;">parses arguments into</text>
    <path codeline="11" d="M406.3333,1227.4056 C394.0833,1256.2389 379.6042,1283.9264 362.5,1309.4889 C334.6458,1351.1348 290.2083,1383.6973 248.8125,1407.2181 " fill="none" id="Application-backto-CommandLine" style="stroke:#545454;stroke-width:3.125;"/>
    <polygon fill="#333333" points="416.5208,1201.7598,404.1585,1210.2961,407.2835,1224.9906,419.6458,1216.4543,416.5208,1201.7598" style="stroke:#545454;stroke-width:3.125;"/>
    <path codeline="10" d="M509.3958,1228.9681 C515.7917,1301.5098 521.4792,1365.9889 525.0833,1406.9681 " fill="none" id="Application-backto-Project" style="stroke:#545454;stroke-width:3.125;"/>
    <polygon fill="#333333" points="507.0208,1201.9056,499.8193,1215.0901,509.2198,1226.8087,516.4213,1213.6242,507.0208,1201.9056" style="stroke:#545454;stroke-width:3.125;"/>
    <text fill="#A0A0A0" font-family="Open Sans,Avenir,Nunito,Arial,Helvetica,SansSerif" font-size="25" font-weight="bold" lengthAdjust="spacing" textLength="252.0833" x="522.9167" y="1296.1589" style="white-space: pre;">initializes and uses</text>
    <path codeline="36" d="M781.6458,1224.0098 C788.0833,1237.2181 794.2083,1250.4473 800,1263.6556 C814.9583,1297.7806 825.5208,1337.5723 832.7083,1371.8639 " fill="none" id="Application-backto-Server" style="stroke:#545454;stroke-width:3.125;"/>
    <polygon fill="none" points="768.625,1230.5723,762.7917,1186.8223,794.6458,1217.3848,768.625,1230.5723" style="stroke:#545454;stroke-width:3.125;"/>
  </g>
</svg>