<?xml version="1.0" encoding="utf-8"?>
<svg contentscripttype="application/ecmascript" contentstyletype="text/css" height="1554.1667px" preserveAspectRatio="none" style="width:1470px;height:1554px;background:#333333;" version="1.1" viewBox="0 0 1470 1554" width="1470.8333px" zoomAndPan="magnify" xmlns="http://www.w3.org/2000/svg">
  <g>
    <rect fill="#48494B" height="82.4056" rx="16.6667" ry="16.6667" style="stroke:#545454;stroke-width:2.0833333333333335;" width="279.1667" x="581.25" y="4.1667"/>
    <text fill="#C0C0C0" font-family="Open Sans,Avenir,Nunito,Arial,Helvetica,SansSerif" font-size="41.6667" lengthAdjust="spacing" textLength="233.3333" x="604.1667" y="61.1165" style="white-space: pre;">Component</text>
    <rect codeline="17" fill="#282828" height="96.11" id="Repeater" rx="16.6667" ry="16.6667" style="stroke:#5E5E5E;stroke-width:2.0833333333333335;" width="187.5" x="14.5833" y="107.4056"/>
    <rect fill="#1B1B1A" height="62.7767" rx="16.6667" ry="16.6667" style="stroke:#1B1B1A;stroke-width:2.0833333333333335;" width="187.5" x="14.5833" y="107.4056"/>
    <rect fill="#1B1B1A" height="16.6667" style="stroke:#1B1B1A;stroke-width:2.0833333333333335;" width="187.5" x="14.5833" y="153.5156"/>
    <rect codeline="17" fill="none" height="96.11" id="Repeater" rx="16.6667" ry="16.6667" style="stroke:#5E5E5E;stroke-width:2.0833333333333335;" width="187.5" x="14.5833" y="107.4056"/>
    <ellipse cx="43.75" cy="138.7939" fill="#008400" rx="20.8333" ry="20.8333" style="stroke:#239C23;stroke-width:2.0833333333333335;"/>
    <path d="M38.5579,133.1177 L38.5579,129.9438 L49.41,129.9438 L49.41,133.1177 L45.7845,133.1177 L45.7845,144.9951 L49.41,144.9951 L49.41,148.1689 L38.5579,148.1689 L38.5579,144.9951 L42.1834,144.9951 L42.1834,133.1177 Z " fill="#000000"/>
    <text fill="#D8BC00" font-family="Open Sans,Avenir,Nunito,Arial,Helvetica,SansSerif" font-size="25" font-style="italic" font-weight="bold" lengthAdjust="spacing" textLength="112.5" x="77.0833" y="148.2422" style="white-space: pre;">Repeater</text>
    <line style="stroke:#5E5E5E;stroke-width:2.0833333333333335;" x1="16.6667" x2="200" y1="170.1823" y2="170.1823"/>
    <line style="stroke:#5E5E5E;stroke-width:2.0833333333333335;" x1="16.6667" x2="200" y1="186.849" y2="186.849"/>
    <rect codeline="7" fill="#282828" height="96.11" id="BaseRepeater" rx="16.6667" ry="16.6667" style="stroke:#5E5E5E;stroke-width:2.0833333333333335;" width="247.9167" x="94.7917" y="1019.9056"/>
    <rect fill="#1B1B1A" height="62.7767" rx="16.6667" ry="16.6667" style="stroke:#1B1B1A;stroke-width:2.0833333333333335;" width="247.9167" x="94.7917" y="1019.9056"/>
    <rect fill="#1B1B1A" height="16.6667" style="stroke:#1B1B1A;stroke-width:2.0833333333333335;" width="247.9167" x="94.7917" y="1066.0156"/>
    <rect codeline="7" fill="none" height="96.11" id="BaseRepeater" rx="16.6667" ry="16.6667" style="stroke:#5E5E5E;stroke-width:2.0833333333333335;" width="247.9167" x="94.7917" y="1019.9056"/>
    <ellipse cx="123.9583" cy="1051.2939" fill="#C8AC00" rx="20.8333" ry="20.8333" style="stroke:#D8BC00;stroke-width:2.0833333333333335;"/>
    <path d="M123.1445,1044.6981 L121.4478,1052.1566 L124.8535,1052.1566 Z M120.9473,1041.4022 L125.354,1041.4022 L130.2734,1059.6273 L126.6724,1059.6273 L125.5493,1055.1229 L120.7275,1055.1229 L119.6289,1059.6273 L116.0278,1059.6273 Z " fill="#000000"/>
    <text fill="#D8BC00" font-family="Open Sans,Avenir,Nunito,Arial,Helvetica,SansSerif" font-size="25" font-style="italic" font-weight="bold" lengthAdjust="spacing" textLength="172.9167" x="157.2917" y="1060.7422" style="white-space: pre;">BaseRepeater</text>
    <line style="stroke:#5E5E5E;stroke-width:2.0833333333333335;" x1="96.875" x2="340.625" y1="1082.6823" y2="1082.6823"/>
    <line style="stroke:#5E5E5E;stroke-width:2.0833333333333335;" x1="96.875" x2="340.625" y1="1099.349" y2="1099.349"/>
    <rect codeline="36" fill="#282828" height="626.1434" id="Component" rx="16.6667" ry="16.6667" style="stroke:#5E5E5E;stroke-width:2.0833333333333335;" width="729.1667" x="177.0833" y="330.3223"/>
    <rect fill="#1B1B1A" height="62.7767" rx="16.6667" ry="16.6667" style="stroke:#1B1B1A;stroke-width:2.0833333333333335;" width="729.1667" x="177.0833" y="330.3223"/>
    <rect fill="#1B1B1A" height="16.6667" style="stroke:#1B1B1A;stroke-width:2.0833333333333335;" width="729.1667" x="177.0833" y="376.4323"/>
    <rect codeline="36" fill="none" height="626.1434" id="Component" rx="16.6667" ry="16.6667" style="stroke:#5E5E5E;stroke-width:2.0833333333333335;" width="729.1667" x="177.0833" y="330.3223"/>
    <ellipse cx="451.0417" cy="361.7106" fill="#008400" rx="20.8333" ry="20.8333" style="stroke:#239C23;stroke-width:2.0833333333333335;"/>
    <path d="M445.8496,356.0343 L445.8496,352.8605 L456.7017,352.8605 L456.7017,356.0343 L453.0762,356.0343 L453.0762,367.9118 L456.7017,367.9118 L456.7017,371.0856 L445.8496,371.0856 L445.8496,367.9118 L449.4751,367.9118 L449.4751,356.0343 Z " fill="#000000"/>
    <text fill="#D8BC00" font-family="Open Sans,Avenir,Nunito,Arial,Helvetica,SansSerif" font-size="25" font-style="italic" font-weight="bold" lengthAdjust="spacing" textLength="152.0833" x="496.875" y="371.1589" style="white-space: pre;">Component</text>
    <line style="stroke:#5E5E5E;stroke-width:3.125;" x1="179.1667" x2="904.1667" y1="393.099" y2="393.099"/>
    <ellipse cx="200" cy="463.8387" fill="#84BE84" rx="6.25" ry="6.25" style="stroke:#038048;stroke-width:2.0833333333333335;"/>
    <text fill="#D8BC00" font-family="Open Sans,Avenir,Nunito,Arial,Helvetica,SansSerif" font-size="22.9167" lengthAdjust="spacing" textLength="445.8333" x="222.9167" y="477.6611" style="white-space: pre;">Resource packageResource(String path)</text>
    <line style="stroke:#5E5E5E;stroke-width:2.0833333333333335;" x1="179.1667" x2="470.8333" y1="429.5105" y2="429.5105"/>
    <text fill="#D8BC00" font-family="Open Sans,Avenir,Nunito,Arial,Helvetica,SansSerif" font-size="22.9167" lengthAdjust="spacing" textLength="129.1667" x="477.0833" y="437.1297" style="white-space: pre;">(resources)</text>
    <line style="stroke:#5E5E5E;stroke-width:2.0833333333333335;" x1="612.5" x2="904.1667" y1="429.5105" y2="429.5105"/>
    <ellipse cx="200" cy="551.1515" fill="#84BE84" rx="6.25" ry="6.25" style="stroke:#038048;stroke-width:2.0833333333333335;"/>
    <text fill="#D8BC00" font-family="Open Sans,Avenir,Nunito,Arial,Helvetica,SansSerif" font-size="22.9167" lengthAdjust="spacing" textLength="387.5" x="222.9167" y="564.974" style="white-space: pre;">void registerAllSettingsIn(Package)</text>
    <ellipse cx="200" cy="590.6413" fill="#84BE84" rx="6.25" ry="6.25" style="stroke:#038048;stroke-width:2.0833333333333335;"/>
    <text fill="#D8BC00" font-family="Open Sans,Avenir,Nunito,Arial,Helvetica,SansSerif" font-size="22.9167" lengthAdjust="spacing" textLength="368.75" x="222.9167" y="604.4637" style="white-space: pre;">void registerAllSettingsIn(Folder)</text>
    <ellipse cx="200" cy="630.131" fill="#84BE84" rx="6.25" ry="6.25" style="stroke:#038048;stroke-width:2.0833333333333335;"/>
    <text fill="#D8BC00" font-family="Open Sans,Avenir,Nunito,Arial,Helvetica,SansSerif" font-size="22.9167" lengthAdjust="spacing" textLength="489.5833" x="222.9167" y="643.9535" style="white-space: pre;">void registerSettingsObject(Object settings)</text>
    <ellipse cx="200" cy="669.6208" fill="#84BE84" rx="6.25" ry="6.25" style="stroke:#038048;stroke-width:2.0833333333333335;"/>
    <text fill="#D8BC00" font-family="Open Sans,Avenir,Nunito,Arial,Helvetica,SansSerif" font-size="22.9167" lengthAdjust="spacing" textLength="664.5833" x="222.9167" y="683.4432" style="white-space: pre;">void registerSettingsObject(Object settings, Enum instance)</text>
    <line style="stroke:#5E5E5E;stroke-width:2.0833333333333335;" x1="179.1667" x2="435.4167" y1="516.8233" y2="516.8233"/>
    <text fill="#D8BC00" font-family="Open Sans,Avenir,Nunito,Arial,Helvetica,SansSerif" font-size="22.9167" lengthAdjust="spacing" textLength="200" x="441.6667" y="524.4425" style="white-space: pre;">(settings registry)</text>
    <line style="stroke:#5E5E5E;stroke-width:2.0833333333333335;" x1="647.9167" x2="904.1667" y1="516.8233" y2="516.8233"/>
    <ellipse cx="200" cy="756.9336" fill="#84BE84" rx="6.25" ry="6.25" style="stroke:#038048;stroke-width:2.0833333333333335;"/>
    <text fill="#D8BC00" font-family="Open Sans,Avenir,Nunito,Arial,Helvetica,SansSerif" font-size="22.9167" lengthAdjust="spacing" textLength="287.5" x="222.9167" y="770.756" style="white-space: pre;">T registerObject(T object)</text>
    <ellipse cx="200" cy="796.4233" fill="#84BE84" rx="6.25" ry="6.25" style="stroke:#038048;stroke-width:2.0833333333333335;"/>
    <text fill="#D8BC00" font-family="Open Sans,Avenir,Nunito,Arial,Helvetica,SansSerif" font-size="22.9167" lengthAdjust="spacing" textLength="462.5" x="222.9167" y="810.2458" style="white-space: pre;">T registerObject(T object, Enum instance)</text>
    <line style="stroke:#5E5E5E;stroke-width:2.0833333333333335;" x1="179.1667" x2="445.8333" y1="722.6054" y2="722.6054"/>
    <text fill="#D8BC00" font-family="Open Sans,Avenir,Nunito,Arial,Helvetica,SansSerif" font-size="22.9167" lengthAdjust="spacing" textLength="179.1667" x="452.0833" y="730.2246" style="white-space: pre;">(object registry)</text>
    <line style="stroke:#5E5E5E;stroke-width:2.0833333333333335;" x1="637.5" x2="904.1667" y1="722.6054" y2="722.6054"/>
    <ellipse cx="200" cy="883.7362" fill="#84BE84" rx="6.25" ry="6.25" style="stroke:#038048;stroke-width:2.0833333333333335;"/>
    <text fill="#D8BC00" font-family="Open Sans,Avenir,Nunito,Arial,Helvetica,SansSerif" font-size="22.9167" lengthAdjust="spacing" textLength="285.4167" x="222.9167" y="897.5586" style="white-space: pre;">T require(Class&lt;T&gt; type)</text>
    <ellipse cx="200" cy="923.2259" fill="#84BE84" rx="6.25" ry="6.25" style="stroke:#038048;stroke-width:2.0833333333333335;"/>
    <text fill="#D8BC00" font-family="Open Sans,Avenir,Nunito,Arial,Helvetica,SansSerif" font-size="22.9167" lengthAdjust="spacing" textLength="508.3333" x="222.9167" y="937.0483" style="white-space: pre;">T require(Class&lt;T&gt; type, Enum&lt;?&gt; instance)</text>
    <line style="stroke:#5E5E5E;stroke-width:2.0833333333333335;" x1="179.1667" x2="488.5417" y1="849.408" y2="849.408"/>
    <text fill="#D8BC00" font-family="Open Sans,Avenir,Nunito,Arial,Helvetica,SansSerif" font-size="22.9167" lengthAdjust="spacing" textLength="93.75" x="494.7917" y="857.0272" style="white-space: pre;">(lookup)</text>
    <line style="stroke:#5E5E5E;stroke-width:2.0833333333333335;" x1="594.7917" x2="904.1667" y1="849.408" y2="849.408"/>
    <rect codeline="13" fill="#282828" height="96.11" id="BaseComponent" rx="16.6667" ry="16.6667" style="stroke:#5E5E5E;stroke-width:2.0833333333333335;" width="287.5" x="397.9167" y="1444.9056"/>
    <rect fill="#1B1B1A" height="62.7767" rx="16.6667" ry="16.6667" style="stroke:#1B1B1A;stroke-width:2.0833333333333335;" width="287.5" x="397.9167" y="1444.9056"/>
    <rect fill="#1B1B1A" height="16.6667" style="stroke:#1B1B1A;stroke-width:2.0833333333333335;" width="287.5" x="397.9167" y="1491.0156"/>
    <rect codeline="13" fill="none" height="96.11" id="BaseComponent" rx="16.6667" ry="16.6667" style="stroke:#5E5E5E;stroke-width:2.0833333333333335;" width="287.5" x="397.9167" y="1444.9056"/>
    <ellipse cx="427.0833" cy="1476.2939" fill="#0066CF" rx="20.8333" ry="20.8333" style="stroke:#0086EF;stroke-width:2.0833333333333335;"/>
    <path d="M430.9041,1485.144 Q430.0496,1485.5835 429.1097,1485.8032 Q428.1698,1486.0229 427.1322,1486.0229 Q423.4456,1486.0229 421.5047,1483.5938 Q419.5638,1481.1646 419.5638,1476.5747 Q419.5638,1471.9727 421.5047,1469.5435 Q423.4456,1467.1143 427.1322,1467.1143 Q428.1698,1467.1143 429.1219,1467.334 Q430.0741,1467.5537 430.9041,1467.9932 L430.9041,1471.9971 Q429.9764,1471.1426 429.1036,1470.7458 Q428.2308,1470.3491 427.3031,1470.3491 Q425.3255,1470.3491 424.3184,1471.9177 Q423.3114,1473.4863 423.3114,1476.5747 Q423.3114,1479.6509 424.3184,1481.2195 Q425.3255,1482.7881 427.3031,1482.7881 Q428.2308,1482.7881 429.1036,1482.3914 Q429.9764,1481.9946 430.9041,1481.1401 Z " fill="#000000"/>
    <text fill="#D8BC00" font-family="Open Sans,Avenir,Nunito,Arial,Helvetica,SansSerif" font-size="25" font-weight="bold" lengthAdjust="spacing" textLength="212.5" x="460.4167" y="1485.7422" style="white-space: pre;">BaseComponent</text>
    <line style="stroke:#5E5E5E;stroke-width:2.0833333333333335;" x1="400" x2="683.3333" y1="1507.6823" y2="1507.6823"/>
    <line style="stroke:#5E5E5E;stroke-width:2.0833333333333335;" x1="400" x2="683.3333" y1="1524.349" y2="1524.349"/>
    <rect codeline="37" fill="#282828" height="96.11" id="Mixin" rx="16.6667" ry="16.6667" style="stroke:#5E5E5E;stroke-width:2.0833333333333335;" width="145.8333" x="979.1667" y="595.9473"/>
    <rect fill="#1B1B1A" height="62.7767" rx="16.6667" ry="16.6667" style="stroke:#1B1B1A;stroke-width:2.0833333333333335;" width="145.8333" x="979.1667" y="595.9473"/>
    <rect fill="#1B1B1A" height="16.6667" style="stroke:#1B1B1A;stroke-width:2.0833333333333335;" width="145.8333" x="979.1667" y="642.0573"/>
    <rect codeline="37" fill="none" height="96.11" id="Mixin" rx="16.6667" ry="16.6667" style="stroke:#5E5E5E;stroke-width:2.0833333333333335;" width="145.8333" x="979.1667" y="595.9473"/>
    <ellipse cx="1008.3333" cy="627.3356" fill="#008400" rx="20.8333" ry="20.8333" style="stroke:#239C23;stroke-width:2.0833333333333335;"/>
    <path d="M1003.1413,621.6593 L1003.1413,618.4855 L1013.9933,618.4855 L1013.9933,621.6593 L1010.3678,621.6593 L1010.3678,633.5368 L1013.9933,633.5368 L1013.9933,636.7106 L1003.1413,636.7106 L1003.1413,633.5368 L1006.7668,633.5368 L1006.7668,621.6593 Z " fill="#000000"/>
    <text fill="#D8BC00" font-family="Open Sans,Avenir,Nunito,Arial,Helvetica,SansSerif" font-size="25" font-style="italic" font-weight="bold" lengthAdjust="spacing" textLength="70.8333" x="1041.6667" y="636.7839" style="white-space: pre;">Mixin</text>
    <line style="stroke:#5E5E5E;stroke-width:2.0833333333333335;" x1="981.25" x2="1122.9167" y1="658.724" y2="658.724"/>
    <line style="stroke:#5E5E5E;stroke-width:2.0833333333333335;" x1="981.25" x2="1122.9167" y1="675.3906" y2="675.3906"/>
    <rect codeline="38" fill="#282828" height="96.11" id="RepeaterMixin" rx="16.6667" ry="16.6667" style="stroke:#5E5E5E;stroke-width:2.0833333333333335;" width="258.3333" x="1197.9167" y="595.9473"/>
    <rect fill="#1B1B1A" height="62.7767" rx="16.6667" ry="16.6667" style="stroke:#1B1B1A;stroke-width:2.0833333333333335;" width="258.3333" x="1197.9167" y="595.9473"/>
    <rect fill="#1B1B1A" height="16.6667" style="stroke:#1B1B1A;stroke-width:2.0833333333333335;" width="258.3333" x="1197.9167" y="642.0573"/>
    <rect codeline="38" fill="none" height="96.11" id="RepeaterMixin" rx="16.6667" ry="16.6667" style="stroke:#5E5E5E;stroke-width:2.0833333333333335;" width="258.3333" x="1197.9167" y="595.9473"/>
    <ellipse cx="1227.0833" cy="627.3356" fill="#008400" rx="20.8333" ry="20.8333" style="stroke:#239C23;stroke-width:2.0833333333333335;"/>
    <path d="M1221.8913,621.6593 L1221.8913,618.4855 L1232.7433,618.4855 L1232.7433,621.6593 L1229.1178,621.6593 L1229.1178,633.5368 L1232.7433,633.5368 L1232.7433,636.7106 L1221.8913,636.7106 L1221.8913,633.5368 L1225.5168,633.5368 L1225.5168,621.6593 Z " fill="#000000"/>
    <text fill="#D8BC00" font-family="Open Sans,Avenir,Nunito,Arial,Helvetica,SansSerif" font-size="25" font-style="italic" font-weight="bold" lengthAdjust="spacing" textLength="183.3333" x="1260.4167" y="636.7839" style="white-space: pre;">RepeaterMixin</text>
    <line style="stroke:#5E5E5E;stroke-width:2.0833333333333335;" x1="1200" x2="1454.1667" y1="658.724" y2="658.724"/>
    <line style="stroke:#5E5E5E;stroke-width:2.0833333333333335;" x1="1200" x2="1454.1667" y1="675.3906" y2="675.3906"/>
    <rect codeline="43" fill="#282828" height="96.11" id="ComponentMixin" rx="16.6667" ry="16.6667" style="stroke:#5E5E5E;stroke-width:2.0833333333333335;" width="297.9167" x="805.2083" y="1178.2389"/>
    <rect fill="#1B1B1A" height="62.7767" rx="16.6667" ry="16.6667" style="stroke:#1B1B1A;stroke-width:2.0833333333333335;" width="297.9167" x="805.2083" y="1178.2389"/>
    <rect fill="#1B1B1A" height="16.6667" style="stroke:#1B1B1A;stroke-width:2.0833333333333335;" width="297.9167" x="805.2083" y="1224.349"/>
    <rect codeline="43" fill="none" height="96.11" id="ComponentMixin" rx="16.6667" ry="16.6667" style="stroke:#5E5E5E;stroke-width:2.0833333333333335;" width="297.9167" x="805.2083" y="1178.2389"/>
    <ellipse cx="834.375" cy="1209.6273" fill="#008400" rx="20.8333" ry="20.8333" style="stroke:#239C23;stroke-width:2.0833333333333335;"/>
    <path d="M829.1829,1203.951 L829.1829,1200.7772 L840.035,1200.7772 L840.035,1203.951 L836.4095,1203.951 L836.4095,1215.8285 L840.035,1215.8285 L840.035,1219.0023 L829.1829,1219.0023 L829.1829,1215.8285 L832.8084,1215.8285 L832.8084,1203.951 Z " fill="#000000"/>
    <text fill="#D8BC00" font-family="Open Sans,Avenir,Nunito,Arial,Helvetica,SansSerif" font-size="25" font-style="italic" font-weight="bold" lengthAdjust="spacing" textLength="222.9167" x="867.7083" y="1219.0755" style="white-space: pre;">ComponentMixin</text>
    <line style="stroke:#5E5E5E;stroke-width:2.0833333333333335;" x1="807.2917" x2="1101.0417" y1="1241.0156" y2="1241.0156"/>
    <line style="stroke:#5E5E5E;stroke-width:2.0833333333333335;" x1="807.2917" x2="1101.0417" y1="1257.6823" y2="1257.6823"/>
    <path codeline="6" d="M95.4792,245.3848 C77,396.0723 53.8125,711.0931 139.5833,957.4056 C147.3958,979.8431 161.5417,1001.5931 175.75,1019.6556 " fill="none" id="Repeater-backto-BaseRepeater" style="stroke:#545454;stroke-width:3.125;"/>
    <polygon fill="none" points="81.125,242.7181,101.0625,203.3431,110.0417,246.5723,81.125,242.7181" style="stroke:#545454;stroke-width:3.125;"/>
    <path codeline="11" d="M279.5417,1149.1348 C346.3542,1236.1973 451.4375,1373.1556 506.0417,1444.3223 " fill="none" id="BaseRepeater-backto-BaseComponent" style="stroke:#545454;stroke-width:3.125;"/>
    <polygon fill="none" points="267.7083,1157.6764,253.9167,1115.7389,290.8542,1139.9264,267.7083,1157.6764" style="stroke:#545454;stroke-width:3.125;"/>
    <path codeline="12" d="M541.6667,999.2181 C541.6667,1171.7598 541.6667,1360.0931 541.6667,1444.8848 " fill="none" id="Component-backto-BaseComponent" style="stroke:#545454;stroke-width:3.125;"/>
    <polygon fill="none" points="527.0833,999.1764,541.6667,957.5098,556.25,999.1764,527.0833,999.1764" style="stroke:#545454;stroke-width:3.125;"/>
    <path codeline="18" d="M178.125,235.4056 C202.5625,262.7389 231.7292,295.3431 262.75,330.0306 " fill="none" id="Repeater-backto-Component" style="stroke:#545454;stroke-width:3.125;"/>
    <polygon fill="none" points="166.7917,244.6348,149.875,203.8431,188.5417,225.1764,166.7917,244.6348" style="stroke:#545454;stroke-width:3.125;"/>
    <path codeline="39" d="M788.625,992.0514 C841.2917,1065.8848 890.2708,1134.5306 921.0833,1177.6973 " fill="none" id="Component-backto-ComponentMixin" style="stroke:#545454;stroke-width:3.125;"/>
    <polygon fill="none" points="776.5417,1000.2389,764.2083,957.8639,800.2917,983.3014,776.5417,1000.2389" style="stroke:#545454;stroke-width:3.125;"/>
    <path codeline="40" d="M1037.1875,733.9473 C1016.1042,858.3431 978.375,1081.1348 962.0417,1177.5098 " fill="none" id="Mixin-backto-ComponentMixin" style="stroke:#545454;stroke-width:3.125;"/>
    <polygon fill="none" points="1022.8958,730.9264,1044.2292,692.2806,1051.6667,735.8014,1022.8958,730.9264" style="stroke:#545454;stroke-width:3.125;"/>
    <path codeline="41" d="M1287.6042,730.2389 C1256.4375,794.2181 1210.3542,883.5098 1162.5,957.4056 C1109.8125,1038.7806 1038.5,1126.0306 994.4583,1177.7806 " fill="none" id="RepeaterMixin-backto-ComponentMixin" style="stroke:#545454;stroke-width:3.125;"/>
    <polygon fill="none" points="1274.6458,723.5306,1305.8125,692.2389,1300.9583,736.1139,1274.6458,723.5306" style="stroke:#545454;stroke-width:3.125;"/>
    <path codeline="42" d="M881.375,1274.5723 C808.9167,1320.6764 697.9583,1391.2806 622.7292,1439.1556 " fill="none" id="ComponentMixin-to-BaseComponent" style="stroke:#545454;stroke-width:3.125;"/>
    <polygon fill="#545454" points="613.7292,1444.8848,634.0198,1441.8355,622.5136,1439.2865,625.0626,1427.7804,613.7292,1444.8848" style="stroke:#545454;stroke-width:3.125;"/>
    <text fill="#A0A0A0" font-family="Open Sans,Avenir,Nunito,Arial,Helvetica,SansSerif" font-size="25" font-weight="bold" lengthAdjust="spacing" textLength="185.4167" x="779.1667" y="1369.0755" style="white-space: pre;">accesses state</text>
  </g>
</svg>