<?xml version="1.0" encoding="utf-8"?>
<svg contentscripttype="application/ecmascript" contentstyletype="text/css" height="1810.4167px" preserveAspectRatio="none" style="width:1291px;height:1810px;background:#333333;" version="1.1" viewBox="0 0 1291 1810" width="1291.6667px" zoomAndPan="magnify" xmlns="http://www.w3.org/2000/svg">
  <g>
    <rect fill="#48494B" height="82.4056" rx="16.6667" ry="16.6667" style="stroke:#545454;stroke-width:2.0833333333333335;" width="343.75" x="459.8958" y="4.1667"/>
    <text fill="#C0C0C0" font-family="Open Sans,Avenir,Nunito,Arial,Helvetica,SansSerif" font-size="41.6667" lengthAdjust="spacing" textLength="297.9167" x="482.8125" y="61.1165" style="white-space: pre;">ConsoleLogger</text>
    <rect codeline="6" fill="#282828" height="175.0895" id="Listener" rx="16.6667" ry="16.6667" style="stroke:#5E5E5E;stroke-width:2.0833333333333335;" width="356.25" x="29.1667" y="107.4056"/>
    <rect fill="#1B1B1A" height="62.7767" rx="16.6667" ry="16.6667" style="stroke:#1B1B1A;stroke-width:2.0833333333333335;" width="356.25" x="29.1667" y="107.4056"/>
    <rect fill="#1B1B1A" height="16.6667" style="stroke:#1B1B1A;stroke-width:2.0833333333333335;" width="356.25" x="29.1667" y="153.5156"/>
    <rect codeline="6" fill="none" height="175.0895" id="Listener" rx="16.6667" ry="16.6667" style="stroke:#5E5E5E;stroke-width:2.0833333333333335;" width="356.25" x="29.1667" y="107.4056"/>
    <ellipse cx="140.625" cy="138.7939" fill="#008400" rx="20.8333" ry="20.8333" style="stroke:#239C23;stroke-width:2.0833333333333335;"/>
    <path d="M135.4329,133.1177 L135.4329,129.9438 L146.285,129.9438 L146.285,133.1177 L142.6595,133.1177 L142.6595,144.9951 L146.285,144.9951 L146.285,148.1689 L135.4329,148.1689 L135.4329,144.9951 L139.0584,144.9951 L139.0584,133.1177 Z " fill="#000000"/>
    <text fill="#D8BC00" font-family="Open Sans,Avenir,Nunito,Arial,Helvetica,SansSerif" font-size="25" font-style="italic" font-weight="bold" lengthAdjust="spacing" textLength="104.1667" x="186.4583" y="148.2422" style="white-space: pre;">Listener</text>
    <line style="stroke:#5E5E5E;stroke-width:2.0833333333333335;" x1="31.25" x2="383.3333" y1="170.1823" y2="170.1823"/>
    <line style="stroke:#5E5E5E;stroke-width:2.0833333333333335;" x1="31.25" x2="383.3333" y1="186.849" y2="186.849"/>
    <ellipse cx="52.0833" cy="209.7656" fill="#84BE84" rx="6.25" ry="6.25" style="stroke:#038048;stroke-width:2.0833333333333335;"/>
    <text fill="#D8BC00" font-family="Open Sans,Avenir,Nunito,Arial,Helvetica,SansSerif" font-size="22.9167" lengthAdjust="spacing" textLength="283.3333" x="75" y="223.5881" style="white-space: pre;">T listenTo(T broadcaster)</text>
    <ellipse cx="52.0833" cy="249.2554" fill="#84BE84" rx="6.25" ry="6.25" style="stroke:#038048;stroke-width:2.0833333333333335;"/>
    <text fill="#D8BC00" font-family="Open Sans,Avenir,Nunito,Arial,Helvetica,SansSerif" font-size="22.9167" lengthAdjust="spacing" textLength="291.6667" x="75" y="263.0778" style="white-space: pre;">void onMessage(Message)</text>
    <rect codeline="14" fill="#282828" height="175.0895" id="Logger" rx="16.6667" ry="16.6667" style="stroke:#5E5E5E;stroke-width:2.0833333333333335;" width="385.4167" x="14.5833" y="409.4889"/>
    <rect fill="#1B1B1A" height="62.7767" rx="16.6667" ry="16.6667" style="stroke:#1B1B1A;stroke-width:2.0833333333333335;" width="385.4167" x="14.5833" y="409.4889"/>
    <rect fill="#1B1B1A" height="16.6667" style="stroke:#1B1B1A;stroke-width:2.0833333333333335;" width="385.4167" x="14.5833" y="455.599"/>
    <rect codeline="14" fill="none" height="175.0895" id="Logger" rx="16.6667" ry="16.6667" style="stroke:#5E5E5E;stroke-width:2.0833333333333335;" width="385.4167" x="14.5833" y="409.4889"/>
    <ellipse cx="147.9167" cy="440.8773" fill="#008400" rx="20.8333" ry="20.8333" style="stroke:#239C23;stroke-width:2.0833333333333335;"/>
    <path d="M142.7246,435.201 L142.7246,432.0272 L153.5767,432.0272 L153.5767,435.201 L149.9512,435.201 L149.9512,447.0785 L153.5767,447.0785 L153.5767,450.2523 L142.7246,450.2523 L142.7246,447.0785 L146.3501,447.0785 L146.3501,435.201 Z " fill="#000000"/>
    <text fill="#D8BC00" font-family="Open Sans,Avenir,Nunito,Arial,Helvetica,SansSerif" font-size="25" font-style="italic" font-weight="bold" lengthAdjust="spacing" textLength="89.5833" x="193.75" y="450.3255" style="white-space: pre;">Logger</text>
    <line style="stroke:#5E5E5E;stroke-width:2.0833333333333335;" x1="16.6667" x2="397.9167" y1="472.2656" y2="472.2656"/>
    <line style="stroke:#5E5E5E;stroke-width:2.0833333333333335;" x1="16.6667" x2="397.9167" y1="488.9323" y2="488.9323"/>
    <ellipse cx="37.5" cy="511.849" fill="#84BE84" rx="6.25" ry="6.25" style="stroke:#038048;stroke-width:2.0833333333333335;"/>
    <text fill="#D8BC00" font-family="Open Sans,Avenir,Nunito,Arial,Helvetica,SansSerif" font-size="22.9167" lengthAdjust="spacing" textLength="202.0833" x="60.4167" y="525.6714" style="white-space: pre;">void log(Message)</text>
    <ellipse cx="37.5" cy="551.3387" fill="#84BE84" rx="6.25" ry="6.25" style="stroke:#038048;stroke-width:2.0833333333333335;"/>
    <text fill="#D8BC00" font-family="Open Sans,Avenir,Nunito,Arial,Helvetica,SansSerif" font-size="22.9167" lengthAdjust="spacing" textLength="320.8333" x="60.4167" y="565.1611" style="white-space: pre;">CodeContext codeContext();</text>
    <rect fill="#282828" height="96.11" id="CodeContext" rx="16.6667" ry="16.6667" style="stroke:#5E5E5E;stroke-width:2.0833333333333335;" width="243.75" x="83.3333" y="1701.1556"/>
    <rect fill="#1B1B1A" height="62.7767" rx="16.6667" ry="16.6667" style="stroke:#1B1B1A;stroke-width:2.0833333333333335;" width="243.75" x="83.3333" y="1701.1556"/>
    <rect fill="#1B1B1A" height="16.6667" style="stroke:#1B1B1A;stroke-width:2.0833333333333335;" width="243.75" x="83.3333" y="1747.2656"/>
    <rect fill="none" height="96.11" id="CodeContext" rx="16.6667" ry="16.6667" style="stroke:#5E5E5E;stroke-width:2.0833333333333335;" width="243.75" x="83.3333" y="1701.1556"/>
    <ellipse cx="112.5" cy="1732.5439" fill="#0066CF" rx="20.8333" ry="20.8333" style="stroke:#0086EF;stroke-width:2.0833333333333335;"/>
    <path d="M116.3208,1741.394 Q115.4663,1741.8335 114.5264,1742.0532 Q113.5864,1742.2729 112.5488,1742.2729 Q108.8623,1742.2729 106.9214,1739.8438 Q104.9805,1737.4146 104.9805,1732.8247 Q104.9805,1728.2227 106.9214,1725.7935 Q108.8623,1723.3643 112.5488,1723.3643 Q113.5864,1723.3643 114.5386,1723.584 Q115.4907,1723.8037 116.3208,1724.2432 L116.3208,1728.2471 Q115.3931,1727.3926 114.5203,1726.9958 Q113.6475,1726.5991 112.7197,1726.5991 Q110.7422,1726.5991 109.7351,1728.1677 Q108.728,1729.7363 108.728,1732.8247 Q108.728,1735.9009 109.7351,1737.4695 Q110.7422,1739.0381 112.7197,1739.0381 Q113.6475,1739.0381 114.5203,1738.6414 Q115.3931,1738.2446 116.3208,1737.3901 Z " fill="#000000"/>
    <text fill="#D8BC00" font-family="Open Sans,Avenir,Nunito,Arial,Helvetica,SansSerif" font-size="25" font-weight="bold" lengthAdjust="spacing" textLength="168.75" x="145.8333" y="1741.9922" style="white-space: pre;">CodeContext</text>
    <line style="stroke:#5E5E5E;stroke-width:2.0833333333333335;" x1="85.4167" x2="325" y1="1763.9323" y2="1763.9323"/>
    <line style="stroke:#5E5E5E;stroke-width:2.0833333333333335;" x1="85.4167" x2="325" y1="1780.599" y2="1780.599"/>
    <rect codeline="22" fill="#282828" height="135.5998" id="BaseLogger" rx="16.6667" ry="16.6667" style="stroke:#5E5E5E;stroke-width:2.0833333333333335;" width="352.0833" x="395.8333" y="711.5723"/>
    <rect fill="#1B1B1A" height="62.7767" rx="16.6667" ry="16.6667" style="stroke:#1B1B1A;stroke-width:2.0833333333333335;" width="352.0833" x="395.8333" y="711.5723"/>
    <rect fill="#1B1B1A" height="16.6667" style="stroke:#1B1B1A;stroke-width:2.0833333333333335;" width="352.0833" x="395.8333" y="757.6823"/>
    <rect codeline="22" fill="none" height="135.5998" id="BaseLogger" rx="16.6667" ry="16.6667" style="stroke:#5E5E5E;stroke-width:2.0833333333333335;" width="352.0833" x="395.8333" y="711.5723"/>
    <ellipse cx="482.2917" cy="742.9606" fill="#C8AC00" rx="20.8333" ry="20.8333" style="stroke:#D8BC00;stroke-width:2.0833333333333335;"/>
    <path d="M481.4779,736.3647 L479.7811,743.8232 L483.1868,743.8232 Z M479.2806,733.0688 L483.6873,733.0688 L488.6068,751.2939 L485.0057,751.2939 L483.8826,746.7896 L479.0609,746.7896 L477.9622,751.2939 L474.3612,751.2939 Z " fill="#000000"/>
    <text fill="#D8BC00" font-family="Open Sans,Avenir,Nunito,Arial,Helvetica,SansSerif" font-size="25" font-style="italic" font-weight="bold" lengthAdjust="spacing" textLength="150" x="528.125" y="752.4089" style="white-space: pre;">BaseLogger</text>
    <line style="stroke:#5E5E5E;stroke-width:2.0833333333333335;" x1="397.9167" x2="745.8333" y1="774.349" y2="774.349"/>
    <line style="stroke:#5E5E5E;stroke-width:2.0833333333333335;" x1="397.9167" x2="745.8333" y1="791.0156" y2="791.0156"/>
    <polygon fill="#FFFF44" points="418.75,803.5156,427.0833,811.849,418.75,820.1823,410.4167,811.849" style="stroke:#B38D22;stroke-width:2.0833333333333335;"/>
    <text fill="#D8BC00" font-family="Open Sans,Avenir,Nunito,Arial,Helvetica,SansSerif" font-size="22.9167" lengthAdjust="spacing" textLength="287.5" x="441.6667" y="827.7547" style="white-space: pre;">abstract Set&lt;Log&gt; logs();</text>
    <rect codeline="37" fill="#282828" height="214.5793" id="Log" rx="16.6667" ry="16.6667" style="stroke:#5E5E5E;stroke-width:2.0833333333333335;" width="589.5833" x="277.0833" y="974.0723"/>
    <rect fill="#1B1B1A" height="62.7767" rx="16.6667" ry="16.6667" style="stroke:#1B1B1A;stroke-width:2.0833333333333335;" width="589.5833" x="277.0833" y="974.0723"/>
    <rect fill="#1B1B1A" height="16.6667" style="stroke:#1B1B1A;stroke-width:2.0833333333333335;" width="589.5833" x="277.0833" y="1020.1823"/>
    <rect codeline="37" fill="none" height="214.5793" id="Log" rx="16.6667" ry="16.6667" style="stroke:#5E5E5E;stroke-width:2.0833333333333335;" width="589.5833" x="277.0833" y="974.0723"/>
    <ellipse cx="533.3333" cy="1005.4606" fill="#008400" rx="20.8333" ry="20.8333" style="stroke:#239C23;stroke-width:2.0833333333333335;"/>
    <path d="M528.1413,999.7843 L528.1413,996.6105 L538.9933,996.6105 L538.9933,999.7843 L535.3678,999.7843 L535.3678,1011.6618 L538.9933,1011.6618 L538.9933,1014.8356 L528.1413,1014.8356 L528.1413,1011.6618 L531.7668,1011.6618 L531.7668,999.7843 Z " fill="#000000"/>
    <text fill="#D8BC00" font-family="Open Sans,Avenir,Nunito,Arial,Helvetica,SansSerif" font-size="25" font-style="italic" font-weight="bold" lengthAdjust="spacing" textLength="47.9167" x="579.1667" y="1014.9089" style="white-space: pre;">Log</text>
    <line style="stroke:#5E5E5E;stroke-width:2.0833333333333335;" x1="279.1667" x2="864.5833" y1="1036.849" y2="1036.849"/>
    <line style="stroke:#5E5E5E;stroke-width:2.0833333333333335;" x1="279.1667" x2="864.5833" y1="1053.5156" y2="1053.5156"/>
    <ellipse cx="300" cy="1076.4323" fill="#84BE84" rx="6.25" ry="6.25" style="stroke:#038048;stroke-width:2.0833333333333335;"/>
    <text fill="#D8BC00" font-family="Open Sans,Avenir,Nunito,Arial,Helvetica,SansSerif" font-size="22.9167" lengthAdjust="spacing" textLength="525" x="322.9167" y="1090.2547" style="white-space: pre;">void configure(Map&lt;String,String&gt; properties)</text>
    <ellipse cx="300" cy="1115.922" fill="#84BE84" rx="6.25" ry="6.25" style="stroke:#038048;stroke-width:2.0833333333333335;"/>
    <text fill="#D8BC00" font-family="Open Sans,Avenir,Nunito,Arial,Helvetica,SansSerif" font-size="22.9167" lengthAdjust="spacing" textLength="208.3333" x="322.9167" y="1129.7445" style="white-space: pre;">void level(Severity)</text>
    <ellipse cx="300" cy="1155.4118" fill="#84BE84" rx="6.25" ry="6.25" style="stroke:#038048;stroke-width:2.0833333333333335;"/>
    <text fill="#D8BC00" font-family="Open Sans,Avenir,Nunito,Arial,Helvetica,SansSerif" font-size="22.9167" lengthAdjust="spacing" textLength="206.25" x="322.9167" y="1169.2342" style="white-space: pre;">void log(LogEntry)</text>
    <rect codeline="29" fill="#282828" height="214.5793" id="LogEntry" rx="16.6667" ry="16.6667" style="stroke:#5E5E5E;stroke-width:2.0833333333333335;" width="472.9167" x="295.8333" y="1359.4889"/>
    <rect fill="#1B1B1A" height="62.7767" rx="16.6667" ry="16.6667" style="stroke:#1B1B1A;stroke-width:2.0833333333333335;" width="472.9167" x="295.8333" y="1359.4889"/>
    <rect fill="#1B1B1A" height="16.6667" style="stroke:#1B1B1A;stroke-width:2.0833333333333335;" width="472.9167" x="295.8333" y="1405.599"/>
    <rect codeline="29" fill="none" height="214.5793" id="LogEntry" rx="16.6667" ry="16.6667" style="stroke:#5E5E5E;stroke-width:2.0833333333333335;" width="472.9167" x="295.8333" y="1359.4889"/>
    <ellipse cx="460.4167" cy="1390.8773" fill="#0066CF" rx="20.8333" ry="20.8333" style="stroke:#0086EF;stroke-width:2.0833333333333335;"/>
    <path d="M464.2375,1399.7274 Q463.383,1400.1668 462.443,1400.3866 Q461.5031,1400.6063 460.4655,1400.6063 Q456.779,1400.6063 454.8381,1398.1771 Q452.8971,1395.7479 452.8971,1391.158 Q452.8971,1386.556 454.8381,1384.1268 Q456.779,1381.6976 460.4655,1381.6976 Q461.5031,1381.6976 462.4552,1381.9173 Q463.4074,1382.137 464.2375,1382.5765 L464.2375,1386.5804 Q463.3097,1385.7259 462.4369,1385.3292 Q461.5641,1384.9325 460.6364,1384.9325 Q458.6589,1384.9325 457.6518,1386.5011 Q456.6447,1388.0697 456.6447,1391.158 Q456.6447,1394.2342 457.6518,1395.8028 Q458.6589,1397.3714 460.6364,1397.3714 Q461.5641,1397.3714 462.4369,1396.9747 Q463.3097,1396.578 464.2375,1395.7235 Z " fill="#000000"/>
    <text fill="#D8BC00" font-family="Open Sans,Avenir,Nunito,Arial,Helvetica,SansSerif" font-size="25" font-weight="bold" lengthAdjust="spacing" textLength="114.5833" x="506.25" y="1400.3255" style="white-space: pre;">LogEntry</text>
    <line style="stroke:#5E5E5E;stroke-width:2.0833333333333335;" x1="297.9167" x2="766.6667" y1="1422.2656" y2="1422.2656"/>
    <line style="stroke:#5E5E5E;stroke-width:2.0833333333333335;" x1="297.9167" x2="766.6667" y1="1438.9323" y2="1438.9323"/>
    <ellipse cx="318.75" cy="1461.849" fill="#84BE84" rx="6.25" ry="6.25" style="stroke:#038048;stroke-width:2.0833333333333335;"/>
    <text fill="#D8BC00" font-family="Open Sans,Avenir,Nunito,Arial,Helvetica,SansSerif" font-size="22.9167" lengthAdjust="spacing" textLength="216.6667" x="341.6667" y="1475.6714" style="white-space: pre;">Message message()</text>
    <ellipse cx="318.75" cy="1501.3387" fill="#84BE84" rx="6.25" ry="6.25" style="stroke:#038048;stroke-width:2.0833333333333335;"/>
    <text fill="#D8BC00" font-family="Open Sans,Avenir,Nunito,Arial,Helvetica,SansSerif" font-size="22.9167" lengthAdjust="spacing" textLength="256.25" x="341.6667" y="1515.1611" style="white-space: pre;">CodeContext context()</text>
    <ellipse cx="318.75" cy="1540.8285" fill="#84BE84" rx="6.25" ry="6.25" style="stroke:#038048;stroke-width:2.0833333333333335;"/>
    <text fill="#D8BC00" font-family="Open Sans,Avenir,Nunito,Arial,Helvetica,SansSerif" font-size="22.9167" lengthAdjust="spacing" textLength="408.3333" x="341.6667" y="1554.6509" style="white-space: pre;">String format(LogFormatter, Format)</text>
    <rect fill="#282828" height="96.11" id="Message" rx="16.6667" ry="16.6667" style="stroke:#5E5E5E;stroke-width:2.0833333333333335;" width="187.5" x="438.5417" y="1701.1556"/>
    <rect fill="#1B1B1A" height="62.7767" rx="16.6667" ry="16.6667" style="stroke:#1B1B1A;stroke-width:2.0833333333333335;" width="187.5" x="438.5417" y="1701.1556"/>
    <rect fill="#1B1B1A" height="16.6667" style="stroke:#1B1B1A;stroke-width:2.0833333333333335;" width="187.5" x="438.5417" y="1747.2656"/>
    <rect fill="none" height="96.11" id="Message" rx="16.6667" ry="16.6667" style="stroke:#5E5E5E;stroke-width:2.0833333333333335;" width="187.5" x="438.5417" y="1701.1556"/>
    <ellipse cx="467.7083" cy="1732.5439" fill="#0066CF" rx="20.8333" ry="20.8333" style="stroke:#0086EF;stroke-width:2.0833333333333335;"/>
    <path d="M471.5291,1741.394 Q470.6746,1741.8335 469.7347,1742.0532 Q468.7948,1742.2729 467.7572,1742.2729 Q464.0706,1742.2729 462.1297,1739.8438 Q460.1888,1737.4146 460.1888,1732.8247 Q460.1888,1728.2227 462.1297,1725.7935 Q464.0706,1723.3643 467.7572,1723.3643 Q468.7948,1723.3643 469.7469,1723.584 Q470.6991,1723.8037 471.5291,1724.2432 L471.5291,1728.2471 Q470.6014,1727.3926 469.7286,1726.9958 Q468.8558,1726.5991 467.9281,1726.5991 Q465.9505,1726.5991 464.9434,1728.1677 Q463.9364,1729.7363 463.9364,1732.8247 Q463.9364,1735.9009 464.9434,1737.4695 Q465.9505,1739.0381 467.9281,1739.0381 Q468.8558,1739.0381 469.7286,1738.6414 Q470.6014,1738.2446 471.5291,1737.3901 Z " fill="#000000"/>
    <text fill="#D8BC00" font-family="Open Sans,Avenir,Nunito,Arial,Helvetica,SansSerif" font-size="25" font-weight="bold" lengthAdjust="spacing" textLength="112.5" x="501.0417" y="1741.9922" style="white-space: pre;">Message</text>
    <line style="stroke:#5E5E5E;stroke-width:2.0833333333333335;" x1="440.625" x2="623.9583" y1="1763.9323" y2="1763.9323"/>
    <line style="stroke:#5E5E5E;stroke-width:2.0833333333333335;" x1="440.625" x2="623.9583" y1="1780.599" y2="1780.599"/>
    <rect codeline="45" fill="#282828" height="135.5998" id="ConsoleLog" rx="16.6667" ry="16.6667" style="stroke:#5E5E5E;stroke-width:2.0833333333333335;" width="425" x="853.125" y="1399.0723"/>
    <rect fill="#1B1B1A" height="62.7767" rx="16.6667" ry="16.6667" style="stroke:#1B1B1A;stroke-width:2.0833333333333335;" width="425" x="853.125" y="1399.0723"/>
    <rect fill="#1B1B1A" height="16.6667" style="stroke:#1B1B1A;stroke-width:2.0833333333333335;" width="425" x="853.125" y="1445.1823"/>
    <rect codeline="45" fill="none" height="135.5998" id="ConsoleLog" rx="16.6667" ry="16.6667" style="stroke:#5E5E5E;stroke-width:2.0833333333333335;" width="425" x="853.125" y="1399.0723"/>
    <ellipse cx="973.9583" cy="1430.4606" fill="#0066CF" rx="20.8333" ry="20.8333" style="stroke:#0086EF;stroke-width:2.0833333333333335;"/>
    <path d="M977.7791,1439.3107 Q976.9246,1439.7502 975.9847,1439.9699 Q975.0448,1440.1896 974.0072,1440.1896 Q970.3206,1440.1896 968.3797,1437.7604 Q966.4388,1435.3312 966.4388,1430.7414 Q966.4388,1426.1393 968.3797,1423.7101 Q970.3206,1421.2809 974.0072,1421.2809 Q975.0448,1421.2809 975.9969,1421.5007 Q976.9491,1421.7204 977.7791,1422.1598 L977.7791,1426.1637 Q976.8514,1425.3092 975.9786,1424.9125 Q975.1058,1424.5158 974.1781,1424.5158 Q972.2005,1424.5158 971.1934,1426.0844 Q970.1864,1427.653 970.1864,1430.7414 Q970.1864,1433.8175 971.1934,1435.3861 Q972.2005,1436.9548 974.1781,1436.9548 Q975.1058,1436.9548 975.9786,1436.558 Q976.8514,1436.1613 977.7791,1435.3068 Z " fill="#000000"/>
    <text fill="#D8BC00" font-family="Open Sans,Avenir,Nunito,Arial,Helvetica,SansSerif" font-size="25" font-weight="bold" lengthAdjust="spacing" textLength="154.1667" x="1019.7917" y="1439.9089" style="white-space: pre;">ConsoleLog</text>
    <line style="stroke:#5E5E5E;stroke-width:2.0833333333333335;" x1="855.2083" x2="1276.0417" y1="1461.849" y2="1461.849"/>
    <line style="stroke:#5E5E5E;stroke-width:2.0833333333333335;" x1="855.2083" x2="1276.0417" y1="1478.5156" y2="1478.5156"/>
    <ellipse cx="876.0417" cy="1501.4323" fill="#84BE84" rx="6.25" ry="6.25" style="stroke:#038048;stroke-width:2.0833333333333335;"/>
    <text fill="#D8BC00" font-family="Open Sans,Avenir,Nunito,Arial,Helvetica,SansSerif" font-size="22.9167" lengthAdjust="spacing" textLength="360.4167" x="898.9583" y="1515.2547" style="white-space: pre;">void onLog(final LogEntry entry)</text>
    <rect codeline="52" fill="#282828" height="135.5998" id="ConsoleLogger" rx="16.6667" ry="16.6667" style="stroke:#5E5E5E;stroke-width:2.0833333333333335;" width="270.8333" x="940.625" y="1013.6556"/>
    <rect fill="#1B1B1A" height="62.7767" rx="16.6667" ry="16.6667" style="stroke:#1B1B1A;stroke-width:2.0833333333333335;" width="270.8333" x="940.625" y="1013.6556"/>
    <rect fill="#1B1B1A" height="16.6667" style="stroke:#1B1B1A;stroke-width:2.0833333333333335;" width="270.8333" x="940.625" y="1059.7656"/>
    <rect codeline="52" fill="none" height="135.5998" id="ConsoleLogger" rx="16.6667" ry="16.6667" style="stroke:#5E5E5E;stroke-width:2.0833333333333335;" width="270.8333" x="940.625" y="1013.6556"/>
    <ellipse cx="969.7917" cy="1045.0439" fill="#0066CF" rx="20.8333" ry="20.8333" style="stroke:#0086EF;stroke-width:2.0833333333333335;"/>
    <path d="M973.6125,1053.894 Q972.758,1054.3335 971.818,1054.5532 Q970.8781,1054.7729 969.8405,1054.7729 Q966.154,1054.7729 964.2131,1052.3438 Q962.2721,1049.9146 962.2721,1045.3247 Q962.2721,1040.7227 964.2131,1038.2935 Q966.154,1035.8643 969.8405,1035.8643 Q970.8781,1035.8643 971.8302,1036.084 Q972.7824,1036.3037 973.6125,1036.7432 L973.6125,1040.7471 Q972.6847,1039.8926 971.8119,1039.4958 Q970.9391,1039.0991 970.0114,1039.0991 Q968.0339,1039.0991 967.0268,1040.6677 Q966.0197,1042.2363 966.0197,1045.3247 Q966.0197,1048.4009 967.0268,1049.9695 Q968.0339,1051.5381 970.0114,1051.5381 Q970.9391,1051.5381 971.8119,1051.1414 Q972.6847,1050.7446 973.6125,1049.8901 Z " fill="#000000"/>
    <text fill="#D8BC00" font-family="Open Sans,Avenir,Nunito,Arial,Helvetica,SansSerif" font-size="25" font-weight="bold" lengthAdjust="spacing" textLength="195.8333" x="1003.125" y="1054.4922" style="white-space: pre;">ConsoleLogger</text>
    <line style="stroke:#5E5E5E;stroke-width:2.0833333333333335;" x1="942.7083" x2="1209.375" y1="1076.4323" y2="1076.4323"/>
    <line style="stroke:#5E5E5E;stroke-width:2.0833333333333335;" x1="942.7083" x2="1209.375" y1="1093.099" y2="1093.099"/>
    <polygon fill="#FFFF44" points="963.5417,1105.599,971.875,1113.9323,963.5417,1122.2656,955.2083,1113.9323" style="stroke:#B38D22;stroke-width:2.0833333333333335;"/>
    <text fill="#D8BC00" font-family="Open Sans,Avenir,Nunito,Arial,Helvetica,SansSerif" font-size="22.9167" lengthAdjust="spacing" textLength="183.3333" x="986.4583" y="1129.8381" style="white-space: pre;">Set&lt;Log&gt; logs()</text>
    <path codeline="12" d="M182.625,611.8639 C173.625,662.2181 165.625,722.4056 165.625,777.1973 C165.625,777.1973 165.625,777.1973 165.625,1468.8639 C165.625,1551.2806 182.875,1646.0931 194.6042,1701.0098 " fill="none" id="Logger-backto-CodeContext" style="stroke:#545454;stroke-width:3.125;"/>
    <polygon fill="#333333" points="187.6875,585.0098,177.1889,595.7557,183.0703,609.5797,193.5689,598.8338,187.6875,585.0098" style="stroke:#545454;stroke-width:3.125;"/>
    <path codeline="13" d="M207.2917,324.8848 C207.2917,353.2806 207.2917,382.6973 207.2917,408.9264 " fill="none" id="Listener-backto-Logger" style="stroke:#545454;stroke-width:3.125;"/>
    <polygon fill="none" points="192.7083,324.8223,207.2917,283.1556,221.875,324.8223,192.7083,324.8223" style="stroke:#545454;stroke-width:3.125;"/>
    <path codeline="20" d="M353.1458,610.3431 C397.9583,644.5306 445.8542,681.0514 485.3542,711.1973 " fill="none" id="Logger-backto-BaseLogger" style="stroke:#545454;stroke-width:3.125;"/>
    <polygon fill="none" points="343.9375,621.6556,319.6458,584.7806,361.625,598.4681,343.9375,621.6556" style="stroke:#545454;stroke-width:3.125;"/>
    <path codeline="21" d="M571.875,874.9681 C571.875,906.2806 571.875,941.4056 571.875,973.5723 " fill="none" id="BaseLogger-backto-Log" style="stroke:#545454;stroke-width:3.125;"/>
    <polygon fill="#333333" points="571.875,847.4889,563.5417,859.9889,571.875,872.4889,580.2083,859.9889,571.875,847.4889" style="stroke:#545454;stroke-width:3.125;"/>
    <text fill="#A0A0A0" font-family="Open Sans,Avenir,Nunito,Arial,Helvetica,SansSerif" font-size="25" font-weight="bold" lengthAdjust="spacing" textLength="16.6667" x="546.2695" y="894.3345" style="white-space: pre;">1</text>
    <text fill="#A0A0A0" font-family="Open Sans,Avenir,Nunito,Arial,Helvetica,SansSerif" font-size="25" font-weight="bold" lengthAdjust="spacing" textLength="70.8333" x="462.8516" y="945.8634" style="white-space: pre;">many</text>
    <path codeline="27" d="M532.2917,1602.3014 C532.2917,1637.7598 532.2917,1673.7181 532.2917,1700.9056 " fill="none" id="LogEntry-backto-Message" style="stroke:#545454;stroke-width:3.125;"/>
    <polygon fill="#333333" points="532.2917,1574.8014,523.9583,1587.3014,532.2917,1599.8014,540.625,1587.3014,532.2917,1574.8014" style="stroke:#545454;stroke-width:3.125;"/>
    <path codeline="28" d="M387.0417,1592.3848 C341.6667,1630.9681 294.375,1671.1556 259.4167,1700.9056 " fill="none" id="LogEntry-backto-CodeContext" style="stroke:#545454;stroke-width:3.125;"/>
    <polygon fill="#333333" points="407.7083,1574.8014,392.7869,1576.5469,388.6592,1590.9918,403.5806,1589.2464,407.7083,1574.8014" style="stroke:#545454;stroke-width:3.125;"/>
    <path codeline="36" d="M560.8542,1189.6556 C555.7292,1239.0098 549.625,1297.8431 544.375,1348.4056 " fill="none" id="Log-to-LogEntry" style="stroke:#545454;stroke-width:3.125;"/>
    <polygon fill="#545454" points="543.25,1359.0723,553.519,1341.3084,544.3513,1348.714,536.9457,1339.5463,543.25,1359.0723" style="stroke:#545454;stroke-width:3.125;"/>
    <text fill="#A0A0A0" font-family="Open Sans,Avenir,Nunito,Arial,Helvetica,SansSerif" font-size="25" font-weight="bold" lengthAdjust="spacing" textLength="56.25" x="561.4583" y="1283.6589" style="white-space: pre;">logs</text>
    <path codeline="44" d="M741.8125,1214.6764 C822.3333,1276.8431 914.9792,1348.3639 980.4792,1398.9473 " fill="none" id="Log-backto-ConsoleLog" style="stroke:#545454;stroke-width:3.125;"/>
    <polygon fill="none" points="732.8125,1226.1556,708.75,1189.1348,750.6458,1203.0723,732.8125,1226.1556" style="stroke:#545454;stroke-width:3.125;"/>
    <path codeline="50" d="M723.1875,868.5514 C779.7917,901.3848 844.5417,939.2181 903.125,974.0723 C924.2708,986.6556 946.7708,1000.2181 968.3125,1013.2806 " fill="none" id="BaseLogger-backto-ConsoleLogger" style="stroke:#545454;stroke-width:3.125;"/>
    <polygon fill="none" points="715.1667,880.7598,686.4167,847.2598,729.7708,855.5098,715.1667,880.7598" style="stroke:#545454;stroke-width:3.125;"/>
    <path codeline="51" d="M1073.4583,1177.8014 C1071.5833,1246.5931 1069.0833,1338.0723 1067.4167,1399.0514 " fill="none" id="ConsoleLogger-backto-ConsoleLog" style="stroke:#545454;stroke-width:3.125;"/>
    <polygon fill="#333333" points="1074.2292,1149.8639,1065.5553,1162.1301,1073.5419,1174.8545,1082.2157,1162.5883,1074.2292,1149.8639" style="stroke:#545454;stroke-width:3.125;"/>
  </g>
</svg>