<?xml version="1.0" encoding="utf-8"?>
<svg contentscripttype="application/ecmascript" contentstyletype="text/css" height="1591.6667px" preserveAspectRatio="none" style="width:2289px;height:1591px;background:#333333;" version="1.1" viewBox="0 0 2289 1591" width="2289.5833px" zoomAndPan="magnify" xmlns="http://www.w3.org/2000/svg">
  <g>
    <rect fill="#48494B" height="82.4056" rx="16.6667" ry="16.6667" style="stroke:#545454;stroke-width:2.0833333333333335;" width="247.9167" x="1006.25" y="4.1667"/>
    <text fill="#C0C0C0" font-family="Open Sans,Avenir,Nunito,Arial,Helvetica,SansSerif" font-size="41.6667" lengthAdjust="spacing" textLength="202.0833" x="1029.1667" y="61.1165" style="white-space: pre;">Resources</text>
    <rect codeline="12" fill="#282828" height="96.11" id="BaseReadableResource" rx="16.6667" ry="16.6667" style="stroke:#5E5E5E;stroke-width:2.0833333333333335;" width="368.75" x="927.0833" y="1077.1973"/>
    <rect fill="#1B1B1A" height="62.7767" rx="16.6667" ry="16.6667" style="stroke:#1B1B1A;stroke-width:2.0833333333333335;" width="368.75" x="927.0833" y="1077.1973"/>
    <rect fill="#1B1B1A" height="16.6667" style="stroke:#1B1B1A;stroke-width:2.0833333333333335;" width="368.75" x="927.0833" y="1123.3073"/>
    <rect codeline="12" fill="none" height="96.11" id="BaseReadableResource" rx="16.6667" ry="16.6667" style="stroke:#5E5E5E;stroke-width:2.0833333333333335;" width="368.75" x="927.0833" y="1077.1973"/>
    <ellipse cx="956.25" cy="1108.5856" fill="#C8AC00" rx="20.8333" ry="20.8333" style="stroke:#D8BC00;stroke-width:2.0833333333333335;"/>
    <path d="M955.4362,1101.9897 L953.7394,1109.4482 L957.1452,1109.4482 Z M953.2389,1098.6938 L957.6457,1098.6938 L962.5651,1116.9189 L958.964,1116.9189 L957.841,1112.4146 L953.0192,1112.4146 L951.9206,1116.9189 L948.3195,1116.9189 Z " fill="#000000"/>
    <text fill="#D8BC00" font-family="Open Sans,Avenir,Nunito,Arial,Helvetica,SansSerif" font-size="25" font-style="italic" font-weight="bold" lengthAdjust="spacing" textLength="293.75" x="989.5833" y="1118.0339" style="white-space: pre;">BaseReadableResource</text>
    <line style="stroke:#5E5E5E;stroke-width:2.0833333333333335;" x1="929.1667" x2="1293.75" y1="1139.974" y2="1139.974"/>
    <line style="stroke:#5E5E5E;stroke-width:2.0833333333333335;" x1="929.1667" x2="1293.75" y1="1156.6406" y2="1156.6406"/>
    <rect codeline="96" fill="#282828" height="135.5998" id="WritableResource" rx="16.6667" ry="16.6667" style="stroke:#5E5E5E;stroke-width:2.0833333333333335;" width="322.9167" x="1410.4167" y="1057.4056"/>
    <rect fill="#1B1B1A" height="62.7767" rx="16.6667" ry="16.6667" style="stroke:#1B1B1A;stroke-width:2.0833333333333335;" width="322.9167" x="1410.4167" y="1057.4056"/>
    <rect fill="#1B1B1A" height="16.6667" style="stroke:#1B1B1A;stroke-width:2.0833333333333335;" width="322.9167" x="1410.4167" y="1103.5156"/>
    <rect codeline="96" fill="none" height="135.5998" id="WritableResource" rx="16.6667" ry="16.6667" style="stroke:#5E5E5E;stroke-width:2.0833333333333335;" width="322.9167" x="1410.4167" y="1057.4056"/>
    <ellipse cx="1450.8333" cy="1088.7939" fill="#008400" rx="20.8333" ry="20.8333" style="stroke:#239C23;stroke-width:2.0833333333333335;"/>
    <path d="M1445.6413,1083.1177 L1445.6413,1079.9438 L1456.4933,1079.9438 L1456.4933,1083.1177 L1452.8678,1083.1177 L1452.8678,1094.9951 L1456.4933,1094.9951 L1456.4933,1098.1689 L1445.6413,1098.1689 L1445.6413,1094.9951 L1449.2668,1094.9951 L1449.2668,1083.1177 Z " fill="#000000"/>
    <text fill="#D8BC00" font-family="Open Sans,Avenir,Nunito,Arial,Helvetica,SansSerif" font-size="25" font-style="italic" font-weight="bold" lengthAdjust="spacing" textLength="222.9167" x="1486.6667" y="1098.2422" style="white-space: pre;">WritableResource</text>
    <line style="stroke:#5E5E5E;stroke-width:2.0833333333333335;" x1="1412.5" x2="1731.25" y1="1120.1823" y2="1120.1823"/>
    <line style="stroke:#5E5E5E;stroke-width:2.0833333333333335;" x1="1412.5" x2="1731.25" y1="1136.849" y2="1136.849"/>
    <ellipse cx="1433.3333" cy="1159.7656" fill="#84BE84" rx="6.25" ry="6.25" style="stroke:#038048;stroke-width:2.0833333333333335;"/>
    <text fill="#D8BC00" font-family="Open Sans,Avenir,Nunito,Arial,Helvetica,SansSerif" font-size="22.9167" lengthAdjust="spacing" textLength="258.3333" x="1456.25" y="1173.5881" style="white-space: pre;">ResourceWriter writer()</text>
    <rect codeline="91" fill="#282828" height="254.069" id="Resource" rx="16.6667" ry="16.6667" style="stroke:#5E5E5E;stroke-width:2.0833333333333335;" width="602.0833" x="810.4167" y="676.1556"/>
    <rect fill="#1B1B1A" height="62.7767" rx="16.6667" ry="16.6667" style="stroke:#1B1B1A;stroke-width:2.0833333333333335;" width="602.0833" x="810.4167" y="676.1556"/>
    <rect fill="#1B1B1A" height="16.6667" style="stroke:#1B1B1A;stroke-width:2.0833333333333335;" width="602.0833" x="810.4167" y="722.2656"/>
    <rect codeline="91" fill="none" height="254.069" id="Resource" rx="16.6667" ry="16.6667" style="stroke:#5E5E5E;stroke-width:2.0833333333333335;" width="602.0833" x="810.4167" y="676.1556"/>
    <ellipse cx="1038.5417" cy="707.5439" fill="#008400" rx="20.8333" ry="20.8333" style="stroke:#239C23;stroke-width:2.0833333333333335;"/>
    <path d="M1033.3496,701.8677 L1033.3496,698.6938 L1044.2017,698.6938 L1044.2017,701.8677 L1040.5762,701.8677 L1040.5762,713.7451 L1044.2017,713.7451 L1044.2017,716.9189 L1033.3496,716.9189 L1033.3496,713.7451 L1036.9751,713.7451 L1036.9751,701.8677 Z " fill="#000000"/>
    <text fill="#D8BC00" font-family="Open Sans,Avenir,Nunito,Arial,Helvetica,SansSerif" font-size="25" font-style="italic" font-weight="bold" lengthAdjust="spacing" textLength="116.6667" x="1084.375" y="716.9922" style="white-space: pre;">Resource</text>
    <line style="stroke:#5E5E5E;stroke-width:2.0833333333333335;" x1="812.5" x2="1410.4167" y1="738.9323" y2="738.9323"/>
    <line style="stroke:#5E5E5E;stroke-width:2.0833333333333335;" x1="812.5" x2="1410.4167" y1="755.599" y2="755.599"/>
    <ellipse cx="833.3333" cy="778.5156" fill="#84BE84" rx="6.25" ry="6.25" style="stroke:#038048;stroke-width:2.0833333333333335;"/>
    <text fill="#D8BC00" font-family="Open Sans,Avenir,Nunito,Arial,Helvetica,SansSerif" font-size="22.9167" lengthAdjust="spacing" textLength="214.5833" x="856.25" y="792.3381" style="white-space: pre;">boolean isRemote()</text>
    <ellipse cx="833.3333" cy="818.0054" fill="#84BE84" rx="6.25" ry="6.25" style="stroke:#038048;stroke-width:2.0833333333333335;"/>
    <text fill="#D8BC00" font-family="Open Sans,Avenir,Nunito,Arial,Helvetica,SansSerif" font-size="22.9167" lengthAdjust="spacing" textLength="179.1667" x="856.25" y="831.8278" style="white-space: pre;">boolean exists()</text>
    <ellipse cx="833.3333" cy="857.4951" fill="#84BE84" rx="6.25" ry="6.25" style="stroke:#038048;stroke-width:2.0833333333333335;"/>
    <text fill="#D8BC00" font-family="Open Sans,Avenir,Nunito,Arial,Helvetica,SansSerif" font-size="22.9167" lengthAdjust="spacing" textLength="504.1667" x="856.25" y="871.3175" style="white-space: pre;">void safeCopyTo(File destination, CopyMode)</text>
    <ellipse cx="833.3333" cy="896.9849" fill="#84BE84" rx="6.25" ry="6.25" style="stroke:#038048;stroke-width:2.0833333333333335;"/>
    <text fill="#D8BC00" font-family="Open Sans,Avenir,Nunito,Arial,Helvetica,SansSerif" font-size="22.9167" lengthAdjust="spacing" textLength="537.5" x="856.25" y="910.8073" style="white-space: pre;">void safeCopyTo(Folder destination, CopyMode)</text>
    <rect codeline="18" fill="#282828" height="175.0895" id="BaseWritableResource" rx="16.6667" ry="16.6667" style="stroke:#5E5E5E;stroke-width:2.0833333333333335;" width="531.25" x="845.8333" y="1383.4473"/>
    <rect fill="#1B1B1A" height="62.7767" rx="16.6667" ry="16.6667" style="stroke:#1B1B1A;stroke-width:2.0833333333333335;" width="531.25" x="845.8333" y="1383.4473"/>
    <rect fill="#1B1B1A" height="16.6667" style="stroke:#1B1B1A;stroke-width:2.0833333333333335;" width="531.25" x="845.8333" y="1429.5573"/>
    <rect codeline="18" fill="none" height="175.0895" id="BaseWritableResource" rx="16.6667" ry="16.6667" style="stroke:#5E5E5E;stroke-width:2.0833333333333335;" width="531.25" x="845.8333" y="1383.4473"/>
    <ellipse cx="955.2083" cy="1414.8356" fill="#C8AC00" rx="20.8333" ry="20.8333" style="stroke:#D8BC00;stroke-width:2.0833333333333335;"/>
    <path d="M954.3945,1408.2397 L952.6978,1415.6982 L956.1035,1415.6982 Z M952.1973,1404.9438 L956.604,1404.9438 L961.5234,1423.1689 L957.9224,1423.1689 L956.7993,1418.6646 L951.9775,1418.6646 L950.8789,1423.1689 L947.2778,1423.1689 Z " fill="#000000"/>
    <text fill="#D8BC00" font-family="Open Sans,Avenir,Nunito,Arial,Helvetica,SansSerif" font-size="25" font-style="italic" font-weight="bold" lengthAdjust="spacing" textLength="283.3333" x="1001.0417" y="1424.2839" style="white-space: pre;">BaseWritableResource</text>
    <line style="stroke:#5E5E5E;stroke-width:2.0833333333333335;" x1="847.9167" x2="1375" y1="1446.224" y2="1446.224"/>
    <line style="stroke:#5E5E5E;stroke-width:2.0833333333333335;" x1="847.9167" x2="1375" y1="1462.8906" y2="1462.8906"/>
    <ellipse cx="868.75" cy="1485.8073" fill="#84BE84" rx="6.25" ry="6.25" style="stroke:#038048;stroke-width:2.0833333333333335;"/>
    <text fill="#D8BC00" font-family="Open Sans,Avenir,Nunito,Arial,Helvetica,SansSerif" font-size="22.9167" lengthAdjust="spacing" textLength="179.1667" x="891.6667" y="1499.6297" style="white-space: pre;">boolean delete()</text>
    <ellipse cx="868.75" cy="1525.297" fill="#84BE84" rx="6.25" ry="6.25" style="stroke:#038048;stroke-width:2.0833333333333335;"/>
    <text fill="#D8BC00" font-family="Open Sans,Avenir,Nunito,Arial,Helvetica,SansSerif" font-size="22.9167" lengthAdjust="spacing" textLength="466.6667" x="891.6667" y="1539.1195" style="white-space: pre;">void save(InputStream, ProgressReporter)</text>
    <rect codeline="24" fill="#282828" height="135.5998" id="Readable" rx="16.6667" ry="16.6667" style="stroke:#5E5E5E;stroke-width:2.0833333333333335;" width="379.1667" x="1417.7083" y="107.4056"/>
    <rect fill="#1B1B1A" height="62.7767" rx="16.6667" ry="16.6667" style="stroke:#1B1B1A;stroke-width:2.0833333333333335;" width="379.1667" x="1417.7083" y="107.4056"/>
    <rect fill="#1B1B1A" height="16.6667" style="stroke:#1B1B1A;stroke-width:2.0833333333333335;" width="379.1667" x="1417.7083" y="153.5156"/>
    <rect codeline="24" fill="none" height="135.5998" id="Readable" rx="16.6667" ry="16.6667" style="stroke:#5E5E5E;stroke-width:2.0833333333333335;" width="379.1667" x="1417.7083" y="107.4056"/>
    <ellipse cx="1534.375" cy="138.7939" fill="#008400" rx="20.8333" ry="20.8333" style="stroke:#239C23;stroke-width:2.0833333333333335;"/>
    <path d="M1529.1829,133.1177 L1529.1829,129.9438 L1540.035,129.9438 L1540.035,133.1177 L1536.4095,133.1177 L1536.4095,144.9951 L1540.035,144.9951 L1540.035,148.1689 L1529.1829,148.1689 L1529.1829,144.9951 L1532.8084,144.9951 L1532.8084,133.1177 Z " fill="#000000"/>
    <text fill="#D8BC00" font-family="Open Sans,Avenir,Nunito,Arial,Helvetica,SansSerif" font-size="25" font-style="italic" font-weight="bold" lengthAdjust="spacing" textLength="116.6667" x="1580.2083" y="148.2422" style="white-space: pre;">Readable</text>
    <line style="stroke:#5E5E5E;stroke-width:2.0833333333333335;" x1="1419.7917" x2="1794.7917" y1="170.1823" y2="170.1823"/>
    <line style="stroke:#5E5E5E;stroke-width:2.0833333333333335;" x1="1419.7917" x2="1794.7917" y1="186.849" y2="186.849"/>
    <text fill="#D8BC00" font-family="Open Sans,Avenir,Nunito,Arial,Helvetica,SansSerif" font-size="22.9167" lengthAdjust="spacing" textLength="341.6667" x="1436.4583" y="223.5881" style="white-space: pre;">InputStream openForReading()</text>
    <rect codeline="92" fill="#282828" height="135.5998" id="Writable" rx="16.6667" ry="16.6667" style="stroke:#5E5E5E;stroke-width:2.0833333333333335;" width="389.5833" x="1885.4167" y="735.5306"/>
    <rect fill="#1B1B1A" height="62.7767" rx="16.6667" ry="16.6667" style="stroke:#1B1B1A;stroke-width:2.0833333333333335;" width="389.5833" x="1885.4167" y="735.5306"/>
    <rect fill="#1B1B1A" height="16.6667" style="stroke:#1B1B1A;stroke-width:2.0833333333333335;" width="389.5833" x="1885.4167" y="781.6406"/>
    <rect codeline="92" fill="none" height="135.5998" id="Writable" rx="16.6667" ry="16.6667" style="stroke:#5E5E5E;stroke-width:2.0833333333333335;" width="389.5833" x="1885.4167" y="735.5306"/>
    <ellipse cx="2012.5" cy="766.9189" fill="#008400" rx="20.8333" ry="20.8333" style="stroke:#239C23;stroke-width:2.0833333333333335;"/>
    <path d="M2007.3079,761.2427 L2007.3079,758.0688 L2018.16,758.0688 L2018.16,761.2427 L2014.5345,761.2427 L2014.5345,773.1201 L2018.16,773.1201 L2018.16,776.2939 L2007.3079,776.2939 L2007.3079,773.1201 L2010.9334,773.1201 L2010.9334,761.2427 Z " fill="#000000"/>
    <text fill="#D8BC00" font-family="Open Sans,Avenir,Nunito,Arial,Helvetica,SansSerif" font-size="25" font-style="italic" font-weight="bold" lengthAdjust="spacing" textLength="106.25" x="2058.3333" y="776.3672" style="white-space: pre;">Writable</text>
    <line style="stroke:#5E5E5E;stroke-width:2.0833333333333335;" x1="1887.5" x2="2272.9167" y1="798.3073" y2="798.3073"/>
    <line style="stroke:#5E5E5E;stroke-width:2.0833333333333335;" x1="1887.5" x2="2272.9167" y1="814.974" y2="814.974"/>
    <text fill="#D8BC00" font-family="Open Sans,Avenir,Nunito,Arial,Helvetica,SansSerif" font-size="22.9167" lengthAdjust="spacing" textLength="352.0833" x="1904.1667" y="851.7131" style="white-space: pre;">OutputStream openForWriting()</text>
    <rect codeline="47" fill="#282828" height="135.5998" id="ReadableResource" rx="16.6667" ry="16.6667" style="stroke:#5E5E5E;stroke-width:2.0833333333333335;" width="341.6667" x="1436.4583" y="369.9056"/>
    <rect fill="#1B1B1A" height="62.7767" rx="16.6667" ry="16.6667" style="stroke:#1B1B1A;stroke-width:2.0833333333333335;" width="341.6667" x="1436.4583" y="369.9056"/>
    <rect fill="#1B1B1A" height="16.6667" style="stroke:#1B1B1A;stroke-width:2.0833333333333335;" width="341.6667" x="1436.4583" y="416.0156"/>
    <rect codeline="47" fill="none" height="135.5998" id="ReadableResource" rx="16.6667" ry="16.6667" style="stroke:#5E5E5E;stroke-width:2.0833333333333335;" width="341.6667" x="1436.4583" y="369.9056"/>
    <ellipse cx="1480.625" cy="401.2939" fill="#008400" rx="20.8333" ry="20.8333" style="stroke:#239C23;stroke-width:2.0833333333333335;"/>
    <path d="M1475.4329,395.6177 L1475.4329,392.4438 L1486.285,392.4438 L1486.285,395.6177 L1482.6595,395.6177 L1482.6595,407.4951 L1486.285,407.4951 L1486.285,410.6689 L1475.4329,410.6689 L1475.4329,407.4951 L1479.0584,407.4951 L1479.0584,395.6177 Z " fill="#000000"/>
    <text fill="#D8BC00" font-family="Open Sans,Avenir,Nunito,Arial,Helvetica,SansSerif" font-size="25" font-style="italic" font-weight="bold" lengthAdjust="spacing" textLength="233.3333" x="1517.2917" y="410.7422" style="white-space: pre;">ReadableResource</text>
    <line style="stroke:#5E5E5E;stroke-width:2.0833333333333335;" x1="1438.5417" x2="1776.0417" y1="432.6823" y2="432.6823"/>
    <line style="stroke:#5E5E5E;stroke-width:2.0833333333333335;" x1="1438.5417" x2="1776.0417" y1="449.349" y2="449.349"/>
    <ellipse cx="1459.375" cy="472.2656" fill="#84BE84" rx="6.25" ry="6.25" style="stroke:#038048;stroke-width:2.0833333333333335;"/>
    <text fill="#D8BC00" font-family="Open Sans,Avenir,Nunito,Arial,Helvetica,SansSerif" font-size="22.9167" lengthAdjust="spacing" textLength="277.0833" x="1482.2917" y="486.0881" style="white-space: pre;">ResourceReader reader()</text>
    <rect codeline="76" fill="#282828" height="254.069" id="ResourceReader" rx="16.6667" ry="16.6667" style="stroke:#5E5E5E;stroke-width:2.0833333333333335;" width="327.0833" x="1485.4167" y="676.1556"/>
    <rect fill="#1B1B1A" height="62.7767" rx="16.6667" ry="16.6667" style="stroke:#1B1B1A;stroke-width:2.0833333333333335;" width="327.0833" x="1485.4167" y="676.1556"/>
    <rect fill="#1B1B1A" height="16.6667" style="stroke:#1B1B1A;stroke-width:2.0833333333333335;" width="327.0833" x="1485.4167" y="722.2656"/>
    <rect codeline="76" fill="none" height="254.069" id="ResourceReader" rx="16.6667" ry="16.6667" style="stroke:#5E5E5E;stroke-width:2.0833333333333335;" width="327.0833" x="1485.4167" y="676.1556"/>
    <ellipse cx="1536.1458" cy="707.5439" fill="#0066CF" rx="20.8333" ry="20.8333" style="stroke:#0086EF;stroke-width:2.0833333333333335;"/>
    <path d="M1539.9666,716.394 Q1539.1121,716.8335 1538.1722,717.0532 Q1537.2323,717.2729 1536.1947,717.2729 Q1532.5081,717.2729 1530.5672,714.8438 Q1528.6263,712.4146 1528.6263,707.8247 Q1528.6263,703.2227 1530.5672,700.7935 Q1532.5081,698.3643 1536.1947,698.3643 Q1537.2323,698.3643 1538.1844,698.584 Q1539.1366,698.8037 1539.9666,699.2432 L1539.9666,703.2471 Q1539.0389,702.3926 1538.1661,701.9958 Q1537.2933,701.5991 1536.3656,701.5991 Q1534.388,701.5991 1533.3809,703.1677 Q1532.3739,704.7363 1532.3739,707.8247 Q1532.3739,710.9009 1533.3809,712.4695 Q1534.388,714.0381 1536.3656,714.0381 Q1537.2933,714.0381 1538.1661,713.6414 Q1539.0389,713.2446 1539.9666,712.3901 Z " fill="#000000"/>
    <text fill="#D8BC00" font-family="Open Sans,Avenir,Nunito,Arial,Helvetica,SansSerif" font-size="25" font-weight="bold" lengthAdjust="spacing" textLength="204.1667" x="1574.2708" y="716.9922" style="white-space: pre;">ResourceReader</text>
    <line style="stroke:#5E5E5E;stroke-width:2.0833333333333335;" x1="1487.5" x2="1810.4167" y1="738.9323" y2="738.9323"/>
    <line style="stroke:#5E5E5E;stroke-width:2.0833333333333335;" x1="1487.5" x2="1810.4167" y1="755.599" y2="755.599"/>
    <ellipse cx="1508.3333" cy="778.5156" fill="#84BE84" rx="6.25" ry="6.25" style="stroke:#038048;stroke-width:2.0833333333333335;"/>
    <text fill="#D8BC00" font-family="Open Sans,Avenir,Nunito,Arial,Helvetica,SansSerif" font-size="22.9167" lengthAdjust="spacing" textLength="156.25" x="1531.25" y="792.3381" style="white-space: pre;">String string()</text>
    <ellipse cx="1508.3333" cy="818.0054" fill="#84BE84" rx="6.25" ry="6.25" style="stroke:#038048;stroke-width:2.0833333333333335;"/>
    <text fill="#D8BC00" font-family="Open Sans,Avenir,Nunito,Arial,Helvetica,SansSerif" font-size="22.9167" lengthAdjust="spacing" textLength="262.5" x="1531.25" y="831.8278" style="white-space: pre;">Iterable&lt;String&gt; lines()</text>
    <ellipse cx="1508.3333" cy="857.4951" fill="#84BE84" rx="6.25" ry="6.25" style="stroke:#038048;stroke-width:2.0833333333333335;"/>
    <text fill="#D8BC00" font-family="Open Sans,Avenir,Nunito,Arial,Helvetica,SansSerif" font-size="22.9167" lengthAdjust="spacing" textLength="147.9167" x="1531.25" y="871.3175" style="white-space: pre;">byte[] bytes()</text>
    <ellipse cx="1508.3333" cy="896.9849" fill="#84BE84" rx="6.25" ry="6.25" style="stroke:#038048;stroke-width:2.0833333333333335;"/>
    <text fill="#D8BC00" font-family="Open Sans,Avenir,Nunito,Arial,Helvetica,SansSerif" font-size="22.9167" lengthAdjust="spacing" textLength="220.8333" x="1531.25" y="910.8073" style="white-space: pre;">Reader textReader()</text>
    <rect codeline="39" fill="#282828" height="135.5998" id="ByteSized" rx="16.6667" ry="16.6667" style="stroke:#5E5E5E;stroke-width:2.0833333333333335;" width="241.6667" x="609.375" y="369.9056"/>
    <rect fill="#1B1B1A" height="62.7767" rx="16.6667" ry="16.6667" style="stroke:#1B1B1A;stroke-width:2.0833333333333335;" width="241.6667" x="609.375" y="369.9056"/>
    <rect fill="#1B1B1A" height="16.6667" style="stroke:#1B1B1A;stroke-width:2.0833333333333335;" width="241.6667" x="609.375" y="416.0156"/>
    <rect codeline="39" fill="none" height="135.5998" id="ByteSized" rx="16.6667" ry="16.6667" style="stroke:#5E5E5E;stroke-width:2.0833333333333335;" width="241.6667" x="609.375" y="369.9056"/>
    <ellipse cx="657.2917" cy="401.2939" fill="#008400" rx="20.8333" ry="20.8333" style="stroke:#239C23;stroke-width:2.0833333333333335;"/>
    <path d="M652.0996,395.6177 L652.0996,392.4438 L662.9517,392.4438 L662.9517,395.6177 L659.3262,395.6177 L659.3262,407.4951 L662.9517,407.4951 L662.9517,410.6689 L652.0996,410.6689 L652.0996,407.4951 L655.7251,407.4951 L655.7251,395.6177 Z " fill="#000000"/>
    <text fill="#D8BC00" font-family="Open Sans,Avenir,Nunito,Arial,Helvetica,SansSerif" font-size="25" font-style="italic" font-weight="bold" lengthAdjust="spacing" textLength="125" x="694.7917" y="410.7422" style="white-space: pre;">ByteSized</text>
    <line style="stroke:#5E5E5E;stroke-width:2.0833333333333335;" x1="611.4583" x2="848.9583" y1="432.6823" y2="432.6823"/>
    <line style="stroke:#5E5E5E;stroke-width:2.0833333333333335;" x1="611.4583" x2="848.9583" y1="449.349" y2="449.349"/>
    <text fill="#D8BC00" font-family="Open Sans,Avenir,Nunito,Arial,Helvetica,SansSerif" font-size="22.9167" lengthAdjust="spacing" textLength="204.1667" x="628.125" y="486.0881" style="white-space: pre;">Bytes sizeInBytes()</text>
    <rect codeline="43" fill="#282828" height="135.5998" id="ModificationTimestamped" rx="16.6667" ry="16.6667" style="stroke:#5E5E5E;stroke-width:2.0833333333333335;" width="414.5833" x="925" y="369.9056"/>
    <rect fill="#1B1B1A" height="62.7767" rx="16.6667" ry="16.6667" style="stroke:#1B1B1A;stroke-width:2.0833333333333335;" width="414.5833" x="925" y="369.9056"/>
    <rect fill="#1B1B1A" height="16.6667" style="stroke:#1B1B1A;stroke-width:2.0833333333333335;" width="414.5833" x="925" y="416.0156"/>
    <rect codeline="43" fill="none" height="135.5998" id="ModificationTimestamped" rx="16.6667" ry="16.6667" style="stroke:#5E5E5E;stroke-width:2.0833333333333335;" width="414.5833" x="925" y="369.9056"/>
    <ellipse cx="954.1667" cy="401.2939" fill="#008400" rx="20.8333" ry="20.8333" style="stroke:#239C23;stroke-width:2.0833333333333335;"/>
    <path d="M948.9746,395.6177 L948.9746,392.4438 L959.8267,392.4438 L959.8267,395.6177 L956.2012,395.6177 L956.2012,407.4951 L959.8267,407.4951 L959.8267,410.6689 L948.9746,410.6689 L948.9746,407.4951 L952.6001,407.4951 L952.6001,395.6177 Z " fill="#000000"/>
    <text fill="#D8BC00" font-family="Open Sans,Avenir,Nunito,Arial,Helvetica,SansSerif" font-size="25" font-style="italic" font-weight="bold" lengthAdjust="spacing" textLength="339.5833" x="987.5" y="410.7422" style="white-space: pre;">ModificationTimestamped</text>
    <line style="stroke:#5E5E5E;stroke-width:2.0833333333333335;" x1="927.0833" x2="1337.5" y1="432.6823" y2="432.6823"/>
    <line style="stroke:#5E5E5E;stroke-width:2.0833333333333335;" x1="927.0833" x2="1337.5" y1="449.349" y2="449.349"/>
    <text fill="#D8BC00" font-family="Open Sans,Avenir,Nunito,Arial,Helvetica,SansSerif" font-size="22.9167" lengthAdjust="spacing" textLength="212.5" x="943.75" y="486.0881" style="white-space: pre;">Time lastModified()</text>
    <rect codeline="71" fill="#282828" height="135.5998" id="ResourcePathed" rx="16.6667" ry="16.6667" style="stroke:#5E5E5E;stroke-width:2.0833333333333335;" width="289.5833" x="212.5" y="369.9056"/>
    <rect fill="#1B1B1A" height="62.7767" rx="16.6667" ry="16.6667" style="stroke:#1B1B1A;stroke-width:2.0833333333333335;" width="289.5833" x="212.5" y="369.9056"/>
    <rect fill="#1B1B1A" height="16.6667" style="stroke:#1B1B1A;stroke-width:2.0833333333333335;" width="289.5833" x="212.5" y="416.0156"/>
    <rect codeline="71" fill="none" height="135.5998" id="ResourcePathed" rx="16.6667" ry="16.6667" style="stroke:#5E5E5E;stroke-width:2.0833333333333335;" width="289.5833" x="212.5" y="369.9056"/>
    <ellipse cx="246.3542" cy="401.2939" fill="#008400" rx="20.8333" ry="20.8333" style="stroke:#239C23;stroke-width:2.0833333333333335;"/>
    <path d="M241.1621,395.6177 L241.1621,392.4438 L252.0142,392.4438 L252.0142,395.6177 L248.3887,395.6177 L248.3887,407.4951 L252.0142,407.4951 L252.0142,410.6689 L241.1621,410.6689 L241.1621,407.4951 L244.7876,407.4951 L244.7876,395.6177 Z " fill="#000000"/>
    <text fill="#D8BC00" font-family="Open Sans,Avenir,Nunito,Arial,Helvetica,SansSerif" font-size="25" font-style="italic" font-weight="bold" lengthAdjust="spacing" textLength="204.1667" x="280.7292" y="410.7422" style="white-space: pre;">ResourcePathed</text>
    <line style="stroke:#5E5E5E;stroke-width:2.0833333333333335;" x1="214.5833" x2="500" y1="432.6823" y2="432.6823"/>
    <line style="stroke:#5E5E5E;stroke-width:2.0833333333333335;" x1="214.5833" x2="500" y1="449.349" y2="449.349"/>
    <ellipse cx="235.4167" cy="472.2656" fill="#84BE84" rx="6.25" ry="6.25" style="stroke:#038048;stroke-width:2.0833333333333335;"/>
    <text fill="#D8BC00" font-family="Open Sans,Avenir,Nunito,Arial,Helvetica,SansSerif" font-size="22.9167" lengthAdjust="spacing" textLength="225" x="258.3333" y="486.0881" style="white-space: pre;">ResourcePath path()</text>
    <rect codeline="61" fill="#282828" height="96.11" id="StringPath" rx="16.6667" ry="16.6667" style="stroke:#5E5E5E;stroke-width:2.0833333333333335;" width="208.3333" x="528.125" y="755.3223"/>
    <rect fill="#1B1B1A" height="62.7767" rx="16.6667" ry="16.6667" style="stroke:#1B1B1A;stroke-width:2.0833333333333335;" width="208.3333" x="528.125" y="755.3223"/>
    <rect fill="#1B1B1A" height="16.6667" style="stroke:#1B1B1A;stroke-width:2.0833333333333335;" width="208.3333" x="528.125" y="801.4323"/>
    <rect codeline="61" fill="none" height="96.11" id="StringPath" rx="16.6667" ry="16.6667" style="stroke:#5E5E5E;stroke-width:2.0833333333333335;" width="208.3333" x="528.125" y="755.3223"/>
    <ellipse cx="557.2917" cy="786.7106" fill="#0066CF" rx="20.8333" ry="20.8333" style="stroke:#0086EF;stroke-width:2.0833333333333335;"/>
    <path d="M561.1125,795.5607 Q560.258,796.0002 559.318,796.2199 Q558.3781,796.4396 557.3405,796.4396 Q553.654,796.4396 551.7131,794.0104 Q549.7721,791.5812 549.7721,786.9914 Q549.7721,782.3893 551.7131,779.9601 Q553.654,777.5309 557.3405,777.5309 Q558.3781,777.5309 559.3302,777.7507 Q560.2824,777.9704 561.1125,778.4098 L561.1125,782.4137 Q560.1847,781.5592 559.3119,781.1625 Q558.4391,780.7658 557.5114,780.7658 Q555.5339,780.7658 554.5268,782.3344 Q553.5197,783.903 553.5197,786.9914 Q553.5197,790.0675 554.5268,791.6361 Q555.5339,793.2048 557.5114,793.2048 Q558.4391,793.2048 559.3119,792.808 Q560.1847,792.4113 561.1125,791.5568 Z " fill="#000000"/>
    <text fill="#D8BC00" font-family="Open Sans,Avenir,Nunito,Arial,Helvetica,SansSerif" font-size="25" font-weight="bold" lengthAdjust="spacing" textLength="133.3333" x="590.625" y="796.1589" style="white-space: pre;">StringPath</text>
    <line style="stroke:#5E5E5E;stroke-width:2.0833333333333335;" x1="530.2083" x2="734.375" y1="818.099" y2="818.099"/>
    <line style="stroke:#5E5E5E;stroke-width:2.0833333333333335;" x1="530.2083" x2="734.375" y1="834.7656" y2="834.7656"/>
    <rect codeline="63" fill="#282828" height="214.5793" id="ResourcePath" rx="16.6667" ry="16.6667" style="stroke:#5E5E5E;stroke-width:2.0833333333333335;" width="439.5833" x="14.5833" y="695.9473"/>
    <rect fill="#1B1B1A" height="62.7767" rx="16.6667" ry="16.6667" style="stroke:#1B1B1A;stroke-width:2.0833333333333335;" width="439.5833" x="14.5833" y="695.9473"/>
    <rect fill="#1B1B1A" height="16.6667" style="stroke:#1B1B1A;stroke-width:2.0833333333333335;" width="439.5833" x="14.5833" y="742.0573"/>
    <rect codeline="63" fill="none" height="214.5793" id="ResourcePath" rx="16.6667" ry="16.6667" style="stroke:#5E5E5E;stroke-width:2.0833333333333335;" width="439.5833" x="14.5833" y="695.9473"/>
    <ellipse cx="133.3333" cy="727.3356" fill="#0066CF" rx="20.8333" ry="20.8333" style="stroke:#0086EF;stroke-width:2.0833333333333335;"/>
    <path d="M137.1541,736.1857 Q136.2996,736.6252 135.3597,736.8449 Q134.4198,737.0646 133.3822,737.0646 Q129.6956,737.0646 127.7547,734.6354 Q125.8138,732.2062 125.8138,727.6164 Q125.8138,723.0143 127.7547,720.5851 Q129.6956,718.1559 133.3822,718.1559 Q134.4198,718.1559 135.3719,718.3757 Q136.3241,718.5954 137.1541,719.0348 L137.1541,723.0387 Q136.2264,722.1842 135.3536,721.7875 Q134.4808,721.3908 133.5531,721.3908 Q131.5755,721.3908 130.5684,722.9594 Q129.5614,724.528 129.5614,727.6164 Q129.5614,730.6925 130.5684,732.2611 Q131.5755,733.8298 133.5531,733.8298 Q134.4808,733.8298 135.3536,733.433 Q136.2264,733.0363 137.1541,732.1818 Z " fill="#000000"/>
    <text fill="#D8BC00" font-family="Open Sans,Avenir,Nunito,Arial,Helvetica,SansSerif" font-size="25" font-weight="bold" lengthAdjust="spacing" textLength="172.9167" x="179.1667" y="736.7839" style="white-space: pre;">ResourcePath</text>
    <line style="stroke:#5E5E5E;stroke-width:2.0833333333333335;" x1="16.6667" x2="452.0833" y1="758.724" y2="758.724"/>
    <line style="stroke:#5E5E5E;stroke-width:2.0833333333333335;" x1="16.6667" x2="452.0833" y1="775.3906" y2="775.3906"/>
    <ellipse cx="37.5" cy="798.3073" fill="#84BE84" rx="6.25" ry="6.25" style="stroke:#038048;stroke-width:2.0833333333333335;"/>
    <text fill="#D8BC00" font-family="Open Sans,Avenir,Nunito,Arial,Helvetica,SansSerif" font-size="22.9167" lengthAdjust="spacing" textLength="218.75" x="60.4167" y="812.1297" style="white-space: pre;">FileName fileName()</text>
    <ellipse cx="37.5" cy="837.797" fill="#84BE84" rx="6.25" ry="6.25" style="stroke:#038048;stroke-width:2.0833333333333335;"/>
    <text fill="#D8BC00" font-family="Open Sans,Avenir,Nunito,Arial,Helvetica,SansSerif" font-size="22.9167" lengthAdjust="spacing" textLength="243.75" x="60.4167" y="851.6195" style="white-space: pre;">Extension extension()</text>
    <ellipse cx="37.5" cy="877.2868" fill="#84BE84" rx="6.25" ry="6.25" style="stroke:#038048;stroke-width:2.0833333333333335;"/>
    <text fill="#D8BC00" font-family="Open Sans,Avenir,Nunito,Arial,Helvetica,SansSerif" font-size="22.9167" lengthAdjust="spacing" textLength="375" x="60.4167" y="891.1092" style="white-space: pre;">FilePath withExtension(Extension)</text>
    <rect codeline="84" fill="#282828" height="214.5793" id="ResourceWriter" rx="16.6667" ry="16.6667" style="stroke:#5E5E5E;stroke-width:2.0833333333333335;" width="327.0833" x="1450" y="1363.6556"/>
    <rect fill="#1B1B1A" height="62.7767" rx="16.6667" ry="16.6667" style="stroke:#1B1B1A;stroke-width:2.0833333333333335;" width="327.0833" x="1450" y="1363.6556"/>
    <rect fill="#1B1B1A" height="16.6667" style="stroke:#1B1B1A;stroke-width:2.0833333333333335;" width="327.0833" x="1450" y="1409.7656"/>
    <rect codeline="84" fill="none" height="214.5793" id="ResourceWriter" rx="16.6667" ry="16.6667" style="stroke:#5E5E5E;stroke-width:2.0833333333333335;" width="327.0833" x="1450" y="1363.6556"/>
    <ellipse cx="1505.4167" cy="1395.0439" fill="#0066CF" rx="20.8333" ry="20.8333" style="stroke:#0086EF;stroke-width:2.0833333333333335;"/>
    <path d="M1509.2375,1403.894 Q1508.383,1404.3335 1507.443,1404.5532 Q1506.5031,1404.7729 1505.4655,1404.7729 Q1501.779,1404.7729 1499.8381,1402.3438 Q1497.8971,1399.9146 1497.8971,1395.3247 Q1497.8971,1390.7227 1499.8381,1388.2935 Q1501.779,1385.8643 1505.4655,1385.8643 Q1506.5031,1385.8643 1507.4552,1386.084 Q1508.4074,1386.3037 1509.2375,1386.7432 L1509.2375,1390.7471 Q1508.3097,1389.8926 1507.4369,1389.4958 Q1506.5641,1389.0991 1505.6364,1389.0991 Q1503.6589,1389.0991 1502.6518,1390.6677 Q1501.6447,1392.2363 1501.6447,1395.3247 Q1501.6447,1398.4009 1502.6518,1399.9695 Q1503.6589,1401.5381 1505.6364,1401.5381 Q1506.5641,1401.5381 1507.4369,1401.1414 Q1508.3097,1400.7446 1509.2375,1399.8901 Z " fill="#000000"/>
    <text fill="#D8BC00" font-family="Open Sans,Avenir,Nunito,Arial,Helvetica,SansSerif" font-size="25" font-weight="bold" lengthAdjust="spacing" textLength="193.75" x="1544.5833" y="1404.4922" style="white-space: pre;">ResourceWriter</text>
    <line style="stroke:#5E5E5E;stroke-width:2.0833333333333335;" x1="1452.0833" x2="1775" y1="1426.4323" y2="1426.4323"/>
    <line style="stroke:#5E5E5E;stroke-width:2.0833333333333335;" x1="1452.0833" x2="1775" y1="1443.099" y2="1443.099"/>
    <ellipse cx="1472.9167" cy="1466.0156" fill="#84BE84" rx="6.25" ry="6.25" style="stroke:#038048;stroke-width:2.0833333333333335;"/>
    <text fill="#D8BC00" font-family="Open Sans,Avenir,Nunito,Arial,Helvetica,SansSerif" font-size="22.9167" lengthAdjust="spacing" textLength="262.5" x="1495.8333" y="1479.8381" style="white-space: pre;">PrintWriter printWriter()</text>
    <ellipse cx="1472.9167" cy="1505.5054" fill="#84BE84" rx="6.25" ry="6.25" style="stroke:#038048;stroke-width:2.0833333333333335;"/>
    <text fill="#D8BC00" font-family="Open Sans,Avenir,Nunito,Arial,Helvetica,SansSerif" font-size="22.9167" lengthAdjust="spacing" textLength="187.5" x="1495.8333" y="1519.3278" style="white-space: pre;">void save(String)</text>
    <ellipse cx="1472.9167" cy="1544.9951" fill="#84BE84" rx="6.25" ry="6.25" style="stroke:#038048;stroke-width:2.0833333333333335;"/>
    <text fill="#D8BC00" font-family="Open Sans,Avenir,Nunito,Arial,Helvetica,SansSerif" font-size="22.9167" lengthAdjust="spacing" textLength="200" x="1495.8333" y="1558.8175" style="white-space: pre;">Writer textWriter()</text>
    <path codeline="11" d="M1111.4583,973.0098 C1111.4583,1011.2181 1111.4583,1048.7389 1111.4583,1076.6973 " fill="none" id="Resource-backto-BaseReadableResource" style="stroke:#545454;stroke-width:3.125;"/>
    <polygon fill="none" points="1096.875,972.5514,1111.4583,930.8848,1126.0417,972.5514,1096.875,972.5514" style="stroke:#545454;stroke-width:3.125;"/>
    <path codeline="16" d="M1111.4583,1215.3014 C1111.4583,1266.8639 1111.4583,1331.6764 1111.4583,1382.8639 " fill="none" id="BaseReadableResource-backto-BaseWritableResource" style="stroke:#545454;stroke-width:3.125;"/>
    <polygon fill="none" points="1096.875,1214.9473,1111.4583,1173.2806,1126.0417,1214.9473,1096.875,1214.9473" style="stroke:#545454;stroke-width:3.125;"/>
    <path codeline="17" d="M1448.7708,1218.5514 C1379.9167,1269.6556 1294.6042,1332.9473 1227,1383.1139 " fill="none" id="WritableResource-backto-BaseWritableResource" style="stroke:#545454;stroke-width:3.125;"/>
    <polygon fill="none" points="1440.9583,1206.1973,1483.1042,1193.0723,1458.3333,1229.6139,1440.9583,1206.1973" style="stroke:#545454;stroke-width:3.125;"/>
    <path codeline="32" d="M1607.2917,284.8848 C1607.2917,313.7181 1607.2917,343.9889 1607.2917,369.8014 " fill="none" id="Readable-backto-ReadableResource" style="stroke:#545454;stroke-width:3.125;"/>
    <polygon fill="none" points="1592.7083,284.7181,1607.2917,243.0514,1621.875,284.7181,1592.7083,284.7181" style="stroke:#545454;stroke-width:3.125;"/>
    <path codeline="33" d="M1614.9375,505.9889 C1620.0625,550.5098 1627.0208,610.7806 1633.2917,665.2389 " fill="none" id="ReadableResource-to-ResourceReader" style="stroke:#545454;stroke-width:3.125;"/>
    <polygon fill="#545454" points="1634.5417,676.0514,1640.673,656.4705,1633.3488,665.7033,1624.116,658.3791,1634.5417,676.0514" style="stroke:#545454;stroke-width:3.125;"/>
    <text fill="#A0A0A0" font-family="Open Sans,Avenir,Nunito,Arial,Helvetica,SansSerif" font-size="25" font-weight="bold" lengthAdjust="spacing" textLength="112.5" x="1634.375" y="600.3255" style="white-space: pre;">provides</text>
    <path codeline="49" d="M532.3542,523.5931 C626.875,568.9056 745.4167,625.7181 850.6042,676.1348 " fill="none" id="ResourcePathed-backto-Resource" style="stroke:#545454;stroke-width:3.125;"/>
    <polygon fill="none" points="526.0208,536.7389,494.75,505.5723,538.625,510.4264,526.0208,536.7389" style="stroke:#545454;stroke-width:3.125;"/>
    <path codeline="50" d="M1126.0625,547.7806 C1123.7292,588.1348 1121.0833,634.2806 1118.6667,676.0514 " fill="none" id="ModificationTimestamped-backto-Resource" style="stroke:#545454;stroke-width:3.125;"/>
    <polygon fill="none" points="1111.5208,546.7598,1128.4792,505.9889,1140.625,548.4264,1111.5208,546.7598" style="stroke:#545454;stroke-width:3.125;"/>
    <path codeline="51" d="M830.7708,535.0514 C876.3125,578.2181 930.7292,629.8223 979.5,676.0514 " fill="none" id="ByteSized-backto-Resource" style="stroke:#545454;stroke-width:3.125;"/>
    <polygon fill="none" points="820.3333,545.2389,800.1458,505.9889,840.4167,524.0723,820.3333,545.2389" style="stroke:#545454;stroke-width:3.125;"/>
    <path codeline="52" d="M1483.0625,530.2598 C1422.6667,574.2806 1349.125,627.8848 1283.4583,675.7598 " fill="none" id="ReadableResource-backto-Resource" style="stroke:#545454;stroke-width:3.125;"/>
    <polygon fill="none" points="1474.6667,518.3431,1516.9167,505.5723,1491.8542,541.9056,1474.6667,518.3431" style="stroke:#545454;stroke-width:3.125;"/>
    <path codeline="62" d="M496.3542,803.2389 C506.8958,803.2389 517.4583,803.2389 528,803.2389 " fill="none" id="ResourcePath-backto-StringPath" style="stroke:#545454;stroke-width:3.125;"/>
    <polygon fill="none" points="495.9792,817.8223,454.3125,803.2389,495.9792,788.6556,495.9792,817.8223" style="stroke:#545454;stroke-width:3.125;"/>
    <path codeline="70" d="M334.75,505.9889 C317.7083,556.0931 293.8958,626.0931 273.75,685.3639 " fill="none" id="ResourcePathed-to-ResourcePath" style="stroke:#545454;stroke-width:3.125;"/>
    <polygon fill="#545454" points="270.2917,695.5514,284.222,680.4865,273.648,685.6903,268.4442,675.1163,270.2917,695.5514" style="stroke:#545454;stroke-width:3.125;"/>
    <text fill="#A0A0A0" font-family="Open Sans,Avenir,Nunito,Arial,Helvetica,SansSerif" font-size="25" font-weight="bold" lengthAdjust="spacing" textLength="112.5" x="319.7917" y="600.3255" style="white-space: pre;">provides</text>
    <path codeline="93" d="M1327.6667,954.5098 C1379.7917,990.4889 1432.8958,1027.1348 1476.2083,1057.0098 " fill="none" id="Resource-backto-WritableResource" style="stroke:#545454;stroke-width:3.125;"/>
    <polygon fill="none" points="1318.7708,966.0931,1292.7708,930.4264,1335.3333,942.0931,1318.7708,966.0931" style="stroke:#545454;stroke-width:3.125;"/>
    <path codeline="94" d="M1939.5,893.2598 C1856.4375,945.1764 1753.0208,1009.8014 1677.0625,1057.2806 " fill="none" id="Writable-backto-WritableResource" style="stroke:#545454;stroke-width:3.125;"/>
    <polygon fill="none" points="1931.8125,880.8639,1974.875,871.1556,1947.2708,905.5931,1931.8125,880.8639" style="stroke:#545454;stroke-width:3.125;"/>
    <path codeline="95" d="M1579.9167,1193.0723 C1585.4375,1238.3431 1592.9167,1299.6556 1599.4167,1352.9889 " fill="none" id="WritableResource-to-ResourceWriter" style="stroke:#545454;stroke-width:3.125;"/>
    <polygon fill="#545454" points="1600.6875,1363.5306,1606.7142,1343.9172,1599.4394,1353.189,1590.1676,1345.9142,1600.6875,1363.5306" style="stroke:#545454;stroke-width:3.125;"/>
    <text fill="#A0A0A0" font-family="Open Sans,Avenir,Nunito,Arial,Helvetica,SansSerif" font-size="25" font-weight="bold" lengthAdjust="spacing" textLength="112.5" x="1601.0417" y="1287.8255" style="white-space: pre;">provides</text>
  </g>
</svg>