<?xml version="1.0" encoding="utf-8"?>
<svg viewBox="0 0 500 500" xmlns="http://www.w3.org/2000/svg">
  <g>
    <g transform="matrix(1.294032, 0.692153, -0.692153, 1.294032, 90.269852, -227.002838)" style="">
      <path d="M 193.764 133.931 L 241.719 103.916 L 249.064 103.761 L 256.143 104.187 L 306.151 138.859 C 322.146 148.265 332.535 154.312 331.54 164.103 L 331.54 363.071 C 331.54 377.344 319.969 388.915 305.696 388.915 L 194.305 388.915 C 180.032 388.915 168.461 377.344 168.461 363.071 L 168.461 164.103 C 168.461 155.371 172.792 147.65 179.423 142.971 C 183.631 140.003 189.107 136.523 193.764 133.931 Z M 250 156.017 C 235.089 156.017 223.001 168.105 223.001 183.016 C 223.001 197.927 235.089 210.015 250 210.015 C 264.911 210.015 276.999 197.927 276.999 183.016 C 276.999 168.105 264.911 156.017 250 156.017 Z" style="fill: rgb(66, 148, 247); stroke: rgb(216, 188, 0); stroke-width: 8px;"/>
      <path style="fill: rgb(216, 216, 216); stroke: rgb(0, 0, 0);" d="M 218.556 113.225"/>
      <g transform="matrix(0.981731, -0.190275, 0.190275, 0.981731, -38.943157, 88.101852)">
        <path style="fill-opacity: 0; fill: rgb(66, 148, 247); stroke-width: 16px; stroke: rgb(216, 188, 0);" d="M 296.487 46.705 C 357.036 46.705 394.883 88.922 364.607 122.691 C 334.331 156.463 258.64 156.463 228.364 122.691 C 214.841 107.613 214.297 89.115 226.926 73.713" transform="matrix(-0.990391, -0.138295, 0.138295, -0.990391, 576.772153, 234.799906)"/>
        <path style="fill-opacity: 0; stroke-width: 8px; fill: rgb(66, 148, 247); stroke: rgb(66, 148, 247);" d="M 296.5 46.38 C 357.049 46.38 394.896 88.597 364.62 122.366 C 334.344 156.138 258.653 156.138 228.377 122.366 C 214.854 107.288 214.31 88.79 226.939 73.388" transform="matrix(-0.990391, -0.138295, 0.138295, -0.990391, 576.842975, 234.154826)"/>
      </g>
    </g>
  </g>
</svg>