<?xml version="1.0" encoding="UTF-8" standalone="no"?><svg xmlns="http://www.w3.org/2000/svg" xmlns:xlink="http://www.w3.org/1999/xlink" contentScriptType="application/ecmascript" contentStyleType="text/css" height="677.0833px" preserveAspectRatio="none" style="width:1509px;height:677px;background:#333333;" version="1.1" viewBox="0 0 1509 677" width="1509.375px" zoomAndPan="magnify"><defs/><g><rect fill="#48494B" height="41.2028" rx="8.3333" ry="8.3333" style="stroke:#545454;stroke-width:1.0416666666666667;" width="368.75" x="563.0208" y="2.0833"/><text fill="#C0C0C0" font-family="Open Sans,Avenir,Nunito,Arial,Helvetica,SansSerif" font-size="20.8333" lengthAdjust="spacing" textLength="345.8333" x="574.4792" y="30.5583">org.apache.wicket.request.mapper</text><!--MD5=[e1b362dec09cdb5e297fe7da3712f31f]
class ICompoundRequestMapper--><rect codeLine="40" fill="#282828" height="103.123" id="ICompoundRequestMapper" rx="8.3333" ry="8.3333" style="stroke:#5E5E5E;stroke-width:1.0416666666666667;" width="327.0833" x="7.2917" y="284.432"/><rect fill="#1B1B1A" height="31.3883" rx="8.3333" ry="8.3333" style="stroke:#1B1B1A;stroke-width:1.0416666666666667;" width="327.0833" x="7.2917" y="284.432"/><rect fill="#1B1B1A" height="8.3333" style="stroke:#1B1B1A;stroke-width:1.0416666666666667;" width="327.0833" x="7.2917" y="307.487"/><rect codeLine="40" fill="none" height="103.123" id="ICompoundRequestMapper" rx="8.3333" ry="8.3333" style="stroke:#5E5E5E;stroke-width:1.0416666666666667;" width="327.0833" x="7.2917" y="284.432"/><ellipse cx="75.5208" cy="300.1261" fill="#008400" rx="10.4167" ry="10.4167" style="stroke:#239C23;stroke-width:1.0416666666666667;"/><path d="M72.9248,297.288 L72.9248,295.7011 L78.3508,295.7011 L78.3508,297.288 L76.5381,297.288 L76.5381,303.2267 L78.3508,303.2267 L78.3508,304.8136 L72.9248,304.8136 L72.9248,303.2267 L74.7375,303.2267 L74.7375,297.288 Z " fill="#000000"/><text fill="#D8BC00" font-family="Open Sans,Avenir,Nunito,Arial,Helvetica,SansSerif" font-size="12.5" font-style="italic" font-weight="bold" lengthAdjust="spacing" textLength="176.0417" x="98.4375" y="304.8503">ICompoundRequestMapper</text><line style="stroke:#5E5E5E;stroke-width:1.5625;" x1="8.3333" x2="333.3333" y1="315.8203" y2="315.8203"/><ellipse cx="18.75" cy="351.1902" fill="#84BE84" rx="3.125" ry="3.125" style="stroke:#038048;stroke-width:1.0416666666666667;"/><text fill="#D8BC00" font-family="Open Sans,Avenir,Nunito,Arial,Helvetica,SansSerif" font-size="11.4583" lengthAdjust="spacing" textLength="273.9583" x="30.2083" y="358.1014">ICompoundRequestMapper add(IRequestMapper)</text><ellipse cx="18.75" cy="370.9351" fill="#84BE84" rx="3.125" ry="3.125" style="stroke:#038048;stroke-width:1.0416666666666667;"/><text fill="#D8BC00" font-family="Open Sans,Avenir,Nunito,Arial,Helvetica,SansSerif" font-size="11.4583" lengthAdjust="spacing" textLength="294.7917" x="30.2083" y="377.8463">ICompoundRequestMapper remove(IRequestMapper)</text><line style="stroke:#5E5E5E;stroke-width:1.0416666666666667;" x1="8.3333" x2="136.4583" y1="334.0261" y2="334.0261"/><text fill="#D8BC00" font-family="Open Sans,Avenir,Nunito,Arial,Helvetica,SansSerif" font-size="11.4583" lengthAdjust="spacing" textLength="62.5" x="139.5833" y="337.8357">(collection)</text><line style="stroke:#5E5E5E;stroke-width:1.0416666666666667;" x1="205.2083" x2="333.3333" y1="334.0261" y2="334.0261"/><!--MD5=[7a4729d26b999f6a4650b01106c103c5]
class Comparable--><rect codeLine="7" fill="#282828" height="48.055" id="Comparable" rx="8.3333" ry="8.3333" style="stroke:#5E5E5E;stroke-width:1.0416666666666667;" width="115.625" x="1320.3125" y="56.8278"/><rect fill="#1B1B1A" height="31.3883" rx="8.3333" ry="8.3333" style="stroke:#1B1B1A;stroke-width:1.0416666666666667;" width="115.625" x="1320.3125" y="56.8278"/><rect fill="#1B1B1A" height="8.3333" style="stroke:#1B1B1A;stroke-width:1.0416666666666667;" width="115.625" x="1320.3125" y="79.8828"/><rect codeLine="7" fill="none" height="48.055" id="Comparable" rx="8.3333" ry="8.3333" style="stroke:#5E5E5E;stroke-width:1.0416666666666667;" width="115.625" x="1320.3125" y="56.8278"/><ellipse cx="1334.8958" cy="72.522" fill="#008400" rx="10.4167" ry="10.4167" style="stroke:#239C23;stroke-width:1.0416666666666667;"/><path d="M1332.2998,69.6838 L1332.2998,68.0969 L1337.7258,68.0969 L1337.7258,69.6838 L1335.9131,69.6838 L1335.9131,75.6226 L1337.7258,75.6226 L1337.7258,77.2095 L1332.2998,77.2095 L1332.2998,75.6226 L1334.1125,75.6226 L1334.1125,69.6838 Z " fill="#000000"/><text fill="#D8BC00" font-family="Open Sans,Avenir,Nunito,Arial,Helvetica,SansSerif" font-size="12.5" font-style="italic" font-weight="bold" lengthAdjust="spacing" textLength="78.125" x="1351.5625" y="77.2461">Comparable</text><line style="stroke:#5E5E5E;stroke-width:1.0416666666666667;" x1="1321.3542" x2="1434.8958" y1="88.2161" y2="88.2161"/><line style="stroke:#5E5E5E;stroke-width:1.0416666666666667;" x1="1321.3542" x2="1434.8958" y1="96.5495" y2="96.5495"/><!--MD5=[64e47b57ec77ff956af7885042716758]
class IRequestMapperDelegate--><rect codeLine="49" fill="#282828" height="67.7999" id="IRequestMapperDelegate" rx="8.3333" ry="8.3333" style="stroke:#5E5E5E;stroke-width:1.0416666666666667;" width="240.625" x="375.5208" y="302.1403"/><rect fill="#1B1B1A" height="31.3883" rx="8.3333" ry="8.3333" style="stroke:#1B1B1A;stroke-width:1.0416666666666667;" width="240.625" x="375.5208" y="302.1403"/><rect fill="#1B1B1A" height="8.3333" style="stroke:#1B1B1A;stroke-width:1.0416666666666667;" width="240.625" x="375.5208" y="325.1953"/><rect codeLine="49" fill="none" height="67.7999" id="IRequestMapperDelegate" rx="8.3333" ry="8.3333" style="stroke:#5E5E5E;stroke-width:1.0416666666666667;" width="240.625" x="375.5208" y="302.1403"/><ellipse cx="408.8542" cy="317.8345" fill="#008400" rx="10.4167" ry="10.4167" style="stroke:#239C23;stroke-width:1.0416666666666667;"/><path d="M406.2581,314.9963 L406.2581,313.4094 L411.6842,313.4094 L411.6842,314.9963 L409.8714,314.9963 L409.8714,320.9351 L411.6842,320.9351 L411.6842,322.522 L406.2581,322.522 L406.2581,320.9351 L408.0709,320.9351 L408.0709,314.9963 Z " fill="#000000"/><text fill="#D8BC00" font-family="Open Sans,Avenir,Nunito,Arial,Helvetica,SansSerif" font-size="12.5" font-style="italic" font-weight="bold" lengthAdjust="spacing" textLength="161.4583" x="429.6875" y="322.5586">IRequestMapperDelegate</text><line style="stroke:#5E5E5E;stroke-width:1.5625;" x1="376.5625" x2="615.1042" y1="333.5286" y2="333.5286"/><line style="stroke:#5E5E5E;stroke-width:1.0416666666666667;" x1="376.5625" x2="615.1042" y1="341.862" y2="341.862"/><ellipse cx="386.9792" cy="353.3203" fill="#84BE84" rx="3.125" ry="3.125" style="stroke:#038048;stroke-width:1.0416666666666667;"/><text fill="#D8BC00" font-family="Open Sans,Avenir,Nunito,Arial,Helvetica,SansSerif" font-size="11.4583" lengthAdjust="spacing" textLength="208.3333" x="398.4375" y="360.2315">IRequestMapper getDelegateMapper()</text><!--MD5=[2889a748b6248c784fbee67a1490fe05]
class IRequestMapper--><rect codeLine="47" fill="#282828" height="48.055" id="IRequestMapper" rx="8.3333" ry="8.3333" style="stroke:#5E5E5E;stroke-width:1.0416666666666667;" width="141.6667" x="425" y="56.8278"/><rect fill="#1B1B1A" height="31.3883" rx="8.3333" ry="8.3333" style="stroke:#1B1B1A;stroke-width:1.0416666666666667;" width="141.6667" x="425" y="56.8278"/><rect fill="#1B1B1A" height="8.3333" style="stroke:#1B1B1A;stroke-width:1.0416666666666667;" width="141.6667" x="425" y="79.8828"/><rect codeLine="47" fill="none" height="48.055" id="IRequestMapper" rx="8.3333" ry="8.3333" style="stroke:#5E5E5E;stroke-width:1.0416666666666667;" width="141.6667" x="425" y="56.8278"/><ellipse cx="439.5833" cy="72.522" fill="#008400" rx="10.4167" ry="10.4167" style="stroke:#239C23;stroke-width:1.0416666666666667;"/><path d="M436.9873,69.6838 L436.9873,68.0969 L442.4133,68.0969 L442.4133,69.6838 L440.6006,69.6838 L440.6006,75.6226 L442.4133,75.6226 L442.4133,77.2095 L436.9873,77.2095 L436.9873,75.6226 L438.8,75.6226 L438.8,69.6838 Z " fill="#000000"/><text fill="#D8BC00" font-family="Open Sans,Avenir,Nunito,Arial,Helvetica,SansSerif" font-size="12.5" font-style="italic" font-weight="bold" lengthAdjust="spacing" textLength="104.1667" x="456.25" y="77.2461">IRequestMapper</text><line style="stroke:#5E5E5E;stroke-width:1.0416666666666667;" x1="426.0417" x2="565.625" y1="88.2161" y2="88.2161"/><line style="stroke:#5E5E5E;stroke-width:1.0416666666666667;" x1="426.0417" x2="565.625" y1="96.5495" y2="96.5495"/><!--MD5=[0f535704465bf77bc280bf5c834b4b3d]
class AbstractMapper--><rect codeLine="12" fill="#282828" height="336.9832" id="AbstractMapper" rx="8.3333" ry="8.3333" style="stroke:#5E5E5E;stroke-width:1.0416666666666667;" width="564.5833" x="653.125" y="167.2445"/><rect fill="#1B1B1A" height="31.3883" rx="8.3333" ry="8.3333" style="stroke:#1B1B1A;stroke-width:1.0416666666666667;" width="564.5833" x="653.125" y="167.2445"/><rect fill="#1B1B1A" height="8.3333" style="stroke:#1B1B1A;stroke-width:1.0416666666666667;" width="564.5833" x="653.125" y="190.2995"/><rect codeLine="12" fill="none" height="336.9832" id="AbstractMapper" rx="8.3333" ry="8.3333" style="stroke:#5E5E5E;stroke-width:1.0416666666666667;" width="564.5833" x="653.125" y="167.2445"/><ellipse cx="877.0833" cy="182.9386" fill="#C8AC00" rx="10.4167" ry="10.4167" style="stroke:#D8BC00;stroke-width:1.0416666666666667;"/><path d="M876.6764,179.6407 L875.828,183.37 L877.5309,183.37 Z M875.5778,177.9928 L877.7812,177.9928 L880.2409,187.1053 L878.4403,187.1053 L877.8788,184.8531 L875.4679,184.8531 L874.9186,187.1053 L873.1181,187.1053 Z " fill="#000000"/><text fill="#D8BC00" font-family="Open Sans,Avenir,Nunito,Arial,Helvetica,SansSerif" font-size="12.5" font-style="italic" font-weight="bold" lengthAdjust="spacing" textLength="102.0833" x="900" y="187.6628">AbstractMapper</text><line style="stroke:#5E5E5E;stroke-width:1.5625;" x1="654.1667" x2="1216.6667" y1="198.6328" y2="198.6328"/><ellipse cx="664.5833" cy="234.0027" fill="#84BE84" rx="3.125" ry="3.125" style="stroke:#038048;stroke-width:1.0416666666666667;"/><text fill="#D8BC00" font-family="Open Sans,Avenir,Nunito,Arial,Helvetica,SansSerif" font-size="11.4583" lengthAdjust="spacing" textLength="97.9167" x="676.0417" y="240.9139">AbstractMapper()</text><line style="stroke:#5E5E5E;stroke-width:1.0416666666666667;" x1="654.1667" x2="891.6667" y1="216.8386" y2="216.8386"/><text fill="#D8BC00" font-family="Open Sans,Avenir,Nunito,Arial,Helvetica,SansSerif" font-size="11.4583" lengthAdjust="spacing" textLength="81.25" x="894.7917" y="220.6482">(constructors)</text><line style="stroke:#5E5E5E;stroke-width:1.0416666666666667;" x1="979.1667" x2="1216.6667" y1="216.8386" y2="216.8386"/><line style="stroke:#5E5E5E;stroke-width:1.0416666666666667;" x1="654.1667" x2="1216.6667" y1="250.6226" y2="250.6226"/><polygon fill="#FFFF44" points="664.5833,256.8726,668.75,261.0392,664.5833,265.2059,660.4167,261.0392" style="stroke:#B38D22;stroke-width:1.0416666666666667;"/><text fill="#D8BC00" font-family="Open Sans,Avenir,Nunito,Arial,Helvetica,SansSerif" font-size="11.4583" lengthAdjust="spacing" textLength="532.2917" x="676.0417" y="268.9921">PageParameters extractPageParameters(Request, int segmentsToSkip, IPageParametersEncoder)</text><polygon fill="#FFFF44" points="664.5833,276.6174,668.75,280.7841,664.5833,284.9508,660.4167,280.7841" style="stroke:#B38D22;stroke-width:1.0416666666666667;"/><text fill="#D8BC00" font-family="Open Sans,Avenir,Nunito,Arial,Helvetica,SansSerif" font-size="11.4583" lengthAdjust="spacing" textLength="257.2917" x="676.0417" y="288.737">String[] getMountSegments(String mountPath)</text><polygon fill="#FFFF44" points="664.5833,296.3623,668.75,300.529,664.5833,304.6956,660.4167,300.529" style="stroke:#B38D22;stroke-width:1.0416666666666667;"/><text fill="#D8BC00" font-family="Open Sans,Avenir,Nunito,Arial,Helvetica,SansSerif" font-size="11.4583" lengthAdjust="spacing" textLength="208.3333" x="676.0417" y="308.4819">String getOptionalPlaceholder(String)</text><polygon fill="#FFFF44" points="664.5833,316.1072,668.75,320.2738,664.5833,324.4405,660.4167,320.2738" style="stroke:#B38D22;stroke-width:1.0416666666666667;"/><text fill="#D8BC00" font-family="Open Sans,Avenir,Nunito,Arial,Helvetica,SansSerif" font-size="11.4583" lengthAdjust="spacing" textLength="160.4167" x="676.0417" y="328.2267">String getPlaceholder(String)</text><polygon fill="#FFFF44" points="664.5833,335.8521,668.75,340.0187,664.5833,344.1854,660.4167,340.0187" style="stroke:#B38D22;stroke-width:1.0416666666666667;"/><text fill="#D8BC00" font-family="Open Sans,Avenir,Nunito,Arial,Helvetica,SansSerif" font-size="11.4583" lengthAdjust="spacing" textLength="247.9167" x="676.0417" y="347.9716">String getPlaceholder(String, char startChar)</text><polygon fill="#FFFF44" points="664.5833,355.5969,668.75,359.7636,664.5833,363.9303,660.4167,359.7636" style="stroke:#B38D22;stroke-width:1.0416666666666667;"/><text fill="#D8BC00" font-family="Open Sans,Avenir,Nunito,Arial,Helvetica,SansSerif" font-size="11.4583" lengthAdjust="spacing" textLength="122.9167" x="676.0417" y="367.7165">Locale resolveLocale()</text><polygon fill="#FFFF44" points="664.5833,375.3418,668.75,379.5085,664.5833,383.6751,660.4167,379.5085" style="stroke:#B38D22;stroke-width:1.0416666666666667;"/><text fill="#D8BC00" font-family="Open Sans,Avenir,Nunito,Arial,Helvetica,SansSerif" font-size="11.4583" lengthAdjust="spacing" textLength="445.8333" x="676.0417" y="387.4613">String safeSegmentGetter(List&lt;String&gt; segments, int index, String defaultValue)</text><polygon fill="#FFFF44" points="664.5833,418.9982,668.75,423.1649,664.5833,427.3315,660.4167,423.1649" style="stroke:#B38D22;stroke-width:1.0416666666666667;"/><text fill="#D8BC00" font-family="Open Sans,Avenir,Nunito,Arial,Helvetica,SansSerif" font-size="11.4583" lengthAdjust="spacing" textLength="223.9583" x="676.0417" y="431.1178">void removeMetaParameter(Url urlCopy)</text><line style="stroke:#5E5E5E;stroke-width:1.0416666666666667;" x1="654.1667" x2="901.0417" y1="407.0424" y2="407.0424"/><text fill="#D8BC00" font-family="Open Sans,Avenir,Nunito,Arial,Helvetica,SansSerif" font-size="11.4583" lengthAdjust="spacing" textLength="62.5" x="904.1667" y="410.8521">(collection)</text><line style="stroke:#5E5E5E;stroke-width:1.0416666666666667;" x1="969.7917" x2="1216.6667" y1="407.0424" y2="407.0424"/><polygon fill="#FFFF44" points="664.5833,462.6546,668.75,466.8213,664.5833,470.988,660.4167,466.8213" style="stroke:#B38D22;stroke-width:1.0416666666666667;"/><text fill="#D8BC00" font-family="Open Sans,Avenir,Nunito,Arial,Helvetica,SansSerif" font-size="11.4583" lengthAdjust="spacing" textLength="412.5" x="676.0417" y="474.7742">Url encodePageParameters(Url, PageParameters, IPageParametersEncoder)</text><polygon fill="#FFFF44" points="664.5833,482.3995,668.75,486.5662,664.5833,490.7328,660.4167,486.5662" style="stroke:#B38D22;stroke-width:1.0416666666666667;"/><text fill="#D8BC00" font-family="Open Sans,Avenir,Nunito,Arial,Helvetica,SansSerif" font-size="11.4583" lengthAdjust="spacing" textLength="251.0417" x="676.0417" y="494.519">boolean urlStartsWith(Url, String... segments)</text><line style="stroke:#5E5E5E;stroke-width:1.0416666666666667;" x1="654.1667" x2="905.7292" y1="450.6989" y2="450.6989"/><text fill="#D8BC00" font-family="Open Sans,Avenir,Nunito,Arial,Helvetica,SansSerif" font-size="11.4583" lengthAdjust="spacing" textLength="53.125" x="908.8542" y="454.5085">(network)</text><line style="stroke:#5E5E5E;stroke-width:1.0416666666666667;" x1="965.1042" x2="1216.6667" y1="450.6989" y2="450.6989"/><!--MD5=[bde10e970af39c3b0dac698fa3248923]
class CompoundRequestMapper--><rect codeLine="32" fill="#282828" height="48.055" id="CompoundRequestMapper" rx="8.3333" ry="8.3333" style="stroke:#5E5E5E;stroke-width:1.0416666666666667;" width="209.375" x="57.8125" y="594.8486"/><rect fill="#1B1B1A" height="31.3883" rx="8.3333" ry="8.3333" style="stroke:#1B1B1A;stroke-width:1.0416666666666667;" width="209.375" x="57.8125" y="594.8486"/><rect fill="#1B1B1A" height="8.3333" style="stroke:#1B1B1A;stroke-width:1.0416666666666667;" width="209.375" x="57.8125" y="617.9036"/><rect codeLine="32" fill="none" height="48.055" id="CompoundRequestMapper" rx="8.3333" ry="8.3333" style="stroke:#5E5E5E;stroke-width:1.0416666666666667;" width="209.375" x="57.8125" y="594.8486"/><ellipse cx="72.3958" cy="610.5428" fill="#0066CF" rx="10.4167" ry="10.4167" style="stroke:#0086EF;stroke-width:1.0416666666666667;"/><path d="M74.3062,614.9679 Q73.879,615.1876 73.409,615.2974 Q72.939,615.4073 72.4202,615.4073 Q70.577,615.4073 69.6065,614.1927 Q68.6361,612.9781 68.6361,610.6832 Q68.6361,608.3822 69.6065,607.1676 Q70.577,605.953 72.4202,605.953 Q72.939,605.953 73.4151,606.0628 Q73.8912,606.1727 74.3062,606.3924 L74.3062,608.3944 Q73.8424,607.9671 73.406,607.7688 Q72.9696,607.5704 72.5057,607.5704 Q71.5169,607.5704 71.0134,608.3547 Q70.5098,609.139 70.5098,610.6832 Q70.5098,612.2213 71.0134,613.0056 Q71.5169,613.7899 72.5057,613.7899 Q72.9696,613.7899 73.406,613.5915 Q73.8424,613.3931 74.3062,612.9659 Z " fill="#000000"/><text fill="#D8BC00" font-family="Open Sans,Avenir,Nunito,Arial,Helvetica,SansSerif" font-size="12.5" font-weight="bold" lengthAdjust="spacing" textLength="171.875" x="89.0625" y="615.2669">CompoundRequestMapper</text><line style="stroke:#5E5E5E;stroke-width:1.0416666666666667;" x1="58.8542" x2="266.1458" y1="626.237" y2="626.237"/><line style="stroke:#5E5E5E;stroke-width:1.0416666666666667;" x1="58.8542" x2="266.1458" y1="634.5703" y2="634.5703"/><!--MD5=[47de47a8b5f06cbc5e036fae0a9149b7]
class Iterable--><rect codeLine="37" fill="#282828" height="48.055" id="Iterable" rx="8.3333" ry="8.3333" style="stroke:#5E5E5E;stroke-width:1.0416666666666667;" width="201.0417" x="70.3125" y="56.8278"/><rect fill="#1B1B1A" height="31.3883" rx="8.3333" ry="8.3333" style="stroke:#1B1B1A;stroke-width:1.0416666666666667;" width="201.0417" x="70.3125" y="56.8278"/><rect fill="#1B1B1A" height="8.3333" style="stroke:#1B1B1A;stroke-width:1.0416666666666667;" width="201.0417" x="70.3125" y="79.8828"/><rect codeLine="37" fill="none" height="48.055" id="Iterable" rx="8.3333" ry="8.3333" style="stroke:#5E5E5E;stroke-width:1.0416666666666667;" width="201.0417" x="70.3125" y="56.8278"/><ellipse cx="84.8958" cy="72.522" fill="#008400" rx="10.4167" ry="10.4167" style="stroke:#239C23;stroke-width:1.0416666666666667;"/><path d="M82.2998,69.6838 L82.2998,68.0969 L87.7258,68.0969 L87.7258,69.6838 L85.9131,69.6838 L85.9131,75.6226 L87.7258,75.6226 L87.7258,77.2095 L82.2998,77.2095 L82.2998,75.6226 L84.1125,75.6226 L84.1125,69.6838 Z " fill="#000000"/><text fill="#D8BC00" font-family="Open Sans,Avenir,Nunito,Arial,Helvetica,SansSerif" font-size="12.5" font-style="italic" font-weight="bold" lengthAdjust="spacing" textLength="48.9583" x="101.5625" y="77.2461">Iterable</text><rect fill="#333333" height="23.055" style="stroke:#A0A0A0;stroke-width:1.0416666666666667;stroke-dasharray:2.0,2.0;" width="112.5" x="161.9792" y="53.7028"/><text fill="#A0A0A0" font-family="Open Sans,Avenir,Nunito,Arial,Helvetica,SansSerif" font-size="12.5" font-weight="bold" lengthAdjust="spacing" textLength="104.1667" x="166.1458" y="69.9544">IRequestMapper</text><line style="stroke:#5E5E5E;stroke-width:1.0416666666666667;" x1="71.3542" x2="270.3125" y1="88.2161" y2="88.2161"/><line style="stroke:#5E5E5E;stroke-width:1.0416666666666667;" x1="71.3542" x2="270.3125" y1="96.5495" y2="96.5495"/><!--MD5=[d4123e025822d8238dc3d55af416043d]
class CompoundRequestMapper.MapperWithScore--><rect codeLine="56" fill="#282828" height="111.4563" id="CompoundRequestMapper.MapperWithScore" rx="8.3333" ry="8.3333" style="stroke:#5E5E5E;stroke-width:1.0416666666666667;" width="247.9167" x="1254.1667" y="280.2653"/><rect fill="#1B1B1A" height="31.3883" rx="8.3333" ry="8.3333" style="stroke:#1B1B1A;stroke-width:1.0416666666666667;" width="247.9167" x="1254.1667" y="280.2653"/><rect fill="#1B1B1A" height="8.3333" style="stroke:#1B1B1A;stroke-width:1.0416666666666667;" width="247.9167" x="1254.1667" y="303.3203"/><rect codeLine="56" fill="none" height="111.4563" id="CompoundRequestMapper.MapperWithScore" rx="8.3333" ry="8.3333" style="stroke:#5E5E5E;stroke-width:1.0416666666666667;" width="247.9167" x="1254.1667" y="280.2653"/><ellipse cx="1315.1042" cy="295.9595" fill="#0066CF" rx="10.4167" ry="10.4167" style="stroke:#0086EF;stroke-width:1.0416666666666667;"/><path d="M1317.0146,300.3845 Q1316.5873,300.6042 1316.1174,300.7141 Q1315.6474,300.824 1315.1286,300.824 Q1313.2853,300.824 1312.3149,299.6094 Q1311.3444,298.3948 1311.3444,296.0999 Q1311.3444,293.7988 1312.3149,292.5842 Q1313.2853,291.3696 1315.1286,291.3696 Q1315.6474,291.3696 1316.1235,291.4795 Q1316.5995,291.5894 1317.0146,291.8091 L1317.0146,293.811 Q1316.5507,293.3838 1316.1143,293.1854 Q1315.6779,292.9871 1315.214,292.9871 Q1314.2253,292.9871 1313.7217,293.7714 Q1313.2182,294.5557 1313.2182,296.0999 Q1313.2182,297.6379 1313.7217,298.4222 Q1314.2253,299.2065 1315.214,299.2065 Q1315.6779,299.2065 1316.1143,299.0082 Q1316.5507,298.8098 1317.0146,298.3826 Z " fill="#000000"/><text fill="#D8BC00" font-family="Open Sans,Avenir,Nunito,Arial,Helvetica,SansSerif" font-size="12.5" font-weight="bold" lengthAdjust="spacing" textLength="111.4583" x="1338.0208" y="300.6836">MapperWithScore</text><line style="stroke:#5E5E5E;stroke-width:1.5625;" x1="1255.2083" x2="1501.0417" y1="311.6536" y2="311.6536"/><ellipse cx="1265.625" cy="347.0235" fill="#84BE84" rx="3.125" ry="3.125" style="stroke:#038048;stroke-width:1.0416666666666667;"/><text fill="#D8BC00" font-family="Open Sans,Avenir,Nunito,Arial,Helvetica,SansSerif" font-size="11.4583" lengthAdjust="spacing" textLength="215.625" x="1277.0833" y="353.9347">MapperWithScore(IRequestMapper, int)</text><line style="stroke:#5E5E5E;stroke-width:1.0416666666666667;" x1="1255.2083" x2="1334.375" y1="329.8594" y2="329.8594"/><text fill="#D8BC00" font-family="Open Sans,Avenir,Nunito,Arial,Helvetica,SansSerif" font-size="11.4583" lengthAdjust="spacing" textLength="81.25" x="1337.5" y="333.669">(constructors)</text><line style="stroke:#5E5E5E;stroke-width:1.0416666666666667;" x1="1421.875" x2="1501.0417" y1="329.8594" y2="329.8594"/><line style="stroke:#5E5E5E;stroke-width:1.0416666666666667;" x1="1255.2083" x2="1501.0417" y1="363.6434" y2="363.6434"/><ellipse cx="1265.625" cy="375.1017" fill="#84BE84" rx="3.125" ry="3.125" style="stroke:#038048;stroke-width:1.0416666666666667;"/><text fill="#D8BC00" font-family="Open Sans,Avenir,Nunito,Arial,Helvetica,SansSerif" font-size="11.4583" lengthAdjust="spacing" textLength="160.4167" x="1277.0833" y="382.0129">IRequestMapper getMapper()</text><!--MD5=[e27937a525de65d2078b2b371abff854]
class ParentPathReferenceRewriter--><rect codeLine="65" fill="#282828" height="103.123" id="ParentPathReferenceRewriter" rx="8.3333" ry="8.3333" style="stroke:#5E5E5E;stroke-width:1.0416666666666667;" width="394.7917" x="303.6458" y="567.2445"/><rect fill="#1B1B1A" height="31.3883" rx="8.3333" ry="8.3333" style="stroke:#1B1B1A;stroke-width:1.0416666666666667;" width="394.7917" x="303.6458" y="567.2445"/><rect fill="#1B1B1A" height="8.3333" style="stroke:#1B1B1A;stroke-width:1.0416666666666667;" width="394.7917" x="303.6458" y="590.2995"/><rect codeLine="65" fill="none" height="103.123" id="ParentPathReferenceRewriter" rx="8.3333" ry="8.3333" style="stroke:#5E5E5E;stroke-width:1.0416666666666667;" width="394.7917" x="303.6458" y="567.2445"/><ellipse cx="401.5625" cy="582.9386" fill="#0066CF" rx="10.4167" ry="10.4167" style="stroke:#0086EF;stroke-width:1.0416666666666667;"/><path d="M403.4729,587.3637 Q403.0457,587.5834 402.5757,587.6933 Q402.1057,587.8031 401.5869,587.8031 Q399.7437,587.8031 398.7732,586.5885 Q397.8027,585.3739 397.8027,583.079 Q397.8027,580.778 398.7732,579.5634 Q399.7437,578.3488 401.5869,578.3488 Q402.1057,578.3488 402.5818,578.4587 Q403.0579,578.5685 403.4729,578.7882 L403.4729,580.7902 Q403.009,580.363 402.5726,580.1646 Q402.1362,579.9662 401.6724,579.9662 Q400.6836,579.9662 400.1801,580.7505 Q399.6765,581.5348 399.6765,583.079 Q399.6765,584.6171 400.1801,585.4014 Q400.6836,586.1857 401.6724,586.1857 Q402.1362,586.1857 402.5726,585.9873 Q403.009,585.789 403.4729,585.3617 Z " fill="#000000"/><text fill="#D8BC00" font-family="Open Sans,Avenir,Nunito,Arial,Helvetica,SansSerif" font-size="12.5" font-weight="bold" lengthAdjust="spacing" textLength="184.375" x="424.4792" y="587.6628">ParentPathReferenceRewriter</text><line style="stroke:#5E5E5E;stroke-width:1.5625;" x1="304.6875" x2="697.3958" y1="598.6328" y2="598.6328"/><ellipse cx="315.1042" cy="634.0027" fill="#84BE84" rx="3.125" ry="3.125" style="stroke:#038048;stroke-width:1.0416666666666667;"/><text fill="#D8BC00" font-family="Open Sans,Avenir,Nunito,Arial,Helvetica,SansSerif" font-size="11.4583" lengthAdjust="spacing" textLength="258.3333" x="326.5625" y="640.9139">ParentPathReferenceRewriter(IRequestMapper)</text><ellipse cx="315.1042" cy="653.7476" fill="#84BE84" rx="3.125" ry="3.125" style="stroke:#038048;stroke-width:1.0416666666666667;"/><text fill="#D8BC00" font-family="Open Sans,Avenir,Nunito,Arial,Helvetica,SansSerif" font-size="11.4583" lengthAdjust="spacing" textLength="362.5" x="326.5625" y="660.6588">ParentPathReferenceRewriter(IRequestMapper, Supplier&lt;String&gt;)</text><line style="stroke:#5E5E5E;stroke-width:1.0416666666666667;" x1="304.6875" x2="457.2917" y1="616.8386" y2="616.8386"/><text fill="#D8BC00" font-family="Open Sans,Avenir,Nunito,Arial,Helvetica,SansSerif" font-size="11.4583" lengthAdjust="spacing" textLength="81.25" x="460.4167" y="620.6482">(constructors)</text><line style="stroke:#5E5E5E;stroke-width:1.0416666666666667;" x1="544.7917" x2="697.3958" y1="616.8386" y2="616.8386"/><!--MD5=[a7e734416f2f7a6a1fd790560a2e2c36]
reverse link IRequestMapper to AbstractMapper--><path codeLine="11" d="M554.375,115.5361 C581.4583,131.1299 615.7917,150.9007 652.7188,172.1715 " fill="none" id="IRequestMapper-backto-AbstractMapper" style="stroke:#545454;stroke-width:1.5625;"/><polygon fill="none" points="550.4271,121.682,536.0104,104.9632,557.6979,109.0361,550.4271,121.682" style="stroke:#545454;stroke-width:1.5625;"/><!--MD5=[7fb3dfa40baa057361f31017dcd9800b]
reverse link ICompoundRequestMapper to CompoundRequestMapper--><path codeLine="31" d="M168.6979,408.8695 C166.8854,470.109 164.375,554.432 163.1875,594.6299 " fill="none" id="ICompoundRequestMapper-backto-CompoundRequestMapper" style="stroke:#545454;stroke-width:1.5625;"/><polygon fill="none" points="161.4167,408.484,169.3229,387.8695,175.9896,408.9111,161.4167,408.484" style="stroke:#545454;stroke-width:1.5625;"/><!--MD5=[4f1f0ba95b941035787b8faebb47e498]
reverse link IRequestMapper to ICompoundRequestMapper--><path codeLine="38" d="M436.0313,115.484 C411.0313,130.3695 382.0833,148.6924 357.2917,167.2445 C309.0104,203.3799 258.3958,249.5049 222.1042,284.234 " fill="none" id="IRequestMapper-backto-ICompoundRequestMapper" style="stroke:#545454;stroke-width:1.5625;"/><polygon fill="none" points="432.5938,109.057,454.25,104.8278,439.9583,121.6403,432.5938,109.057" style="stroke:#545454;stroke-width:1.5625;"/><!--MD5=[c22525ac06a2706abc360ac4c5a1aee3]
reverse link Iterable to ICompoundRequestMapper--><path codeLine="39" d="M170.8333,126.182 C170.8333,170.3382 170.8333,238.0465 170.8333,284.2965 " fill="none" id="Iterable-backto-ICompoundRequestMapper" style="stroke:#545454;stroke-width:1.5625;"/><polygon fill="none" points="163.5417,126.0257,170.8333,105.1924,178.125,126.0257,163.5417,126.0257" style="stroke:#545454;stroke-width:1.5625;"/><!--MD5=[759e831ae39dea904d47f10cd9bf72cb]
reverse link IRequestMapper to IRequestMapperDelegate--><path codeLine="48" d="M495.8333,126.1507 C495.8333,176.2861 495.8333,256.7653 495.8333,301.7653 " fill="none" id="IRequestMapper-backto-IRequestMapperDelegate" style="stroke:#545454;stroke-width:1.5625;"/><polygon fill="none" points="488.5417,126.0257,495.8333,105.1924,503.125,126.0257,488.5417,126.0257" style="stroke:#545454;stroke-width:1.5625;"/><!--MD5=[90d7e7d27316b1e07fdffee864404374]
reverse link Comparable to CompoundRequestMapper.MapperWithScore--><path codeLine="55" d="M1378.125,126.1299 C1378.125,168.8799 1378.125,233.7236 1378.125,279.7965 " fill="none" id="Comparable-backto-CompoundRequestMapper.MapperWithScore" style="stroke:#545454;stroke-width:1.5625;"/><polygon fill="none" points="1370.8333,126.0257,1378.125,105.1924,1385.4167,126.0257,1370.8333,126.0257" style="stroke:#545454;stroke-width:1.5625;"/><!--MD5=[36df59c7af3244b078de2d6ca956135c]
reverse link IRequestMapperDelegate to ParentPathReferenceRewriter--><path codeLine="64" d="M496.8333,391.1403 C497.7813,441.8695 499.1771,517.1611 500.0938,566.8278 " fill="none" id="IRequestMapperDelegate-backto-ParentPathReferenceRewriter" style="stroke:#545454;stroke-width:1.5625;"/><polygon fill="none" points="489.5417,391.0257,496.4479,370.0674,504.125,390.7549,489.5417,391.0257" style="stroke:#545454;stroke-width:1.5625;"/><!--MD5=[e05b813659e595540ea50baa5ce97b85]
@startuml

    !include lexakai.theme
    
    title "org.apache.wicket.request.mapper"
    
    interface ICompoundRequestMapper
    interface Comparable
    interface IRequestMapperDelegate
    interface IRequestMapper
    
    IRequestMapper <|- - AbstractMapper
    abstract class AbstractMapper
    {
        - -(constructors)- -
        +AbstractMapper()
        - -
        #PageParameters extractPageParameters(Request, int segmentsToSkip, IPageParametersEncoder)
        #String[] getMountSegments(String mountPath)
        #String getOptionalPlaceholder(String)
        #String getPlaceholder(String)
        #String getPlaceholder(String, char startChar)
        #Locale resolveLocale()
        #String safeSegmentGetter(List<String> segments, int index, String defaultValue)
        - -(collection)- -
        #void removeMetaParameter(Url urlCopy)
        - -(network)- -
        #Url encodePageParameters(Url, PageParameters, IPageParametersEncoder)
        #boolean urlStartsWith(Url, String... segments)
    }
    
    ICompoundRequestMapper <|- - CompoundRequestMapper
    class CompoundRequestMapper
    {
    }
    
    interface IRequestMapper
    interface Iterable<IRequestMapper>
    IRequestMapper <|- - ICompoundRequestMapper
    Iterable <|- - ICompoundRequestMapper
    interface ICompoundRequestMapper
    {
        - -(collection)- -
        +ICompoundRequestMapper add(IRequestMapper)
        +ICompoundRequestMapper remove(IRequestMapper)
    }
    
    interface IRequestMapper
    IRequestMapper <|- - IRequestMapperDelegate
    interface IRequestMapperDelegate
    {
        - -
        +IRequestMapper getDelegateMapper()
    }
    
    Comparable <|- - CompoundRequestMapper.MapperWithScore
    class CompoundRequestMapper.MapperWithScore
    {
        - -(constructors)- -
        +MapperWithScore(IRequestMapper, int)
        - -
        +IRequestMapper getMapper()
    }
    
    IRequestMapperDelegate <|- - ParentPathReferenceRewriter
    class ParentPathReferenceRewriter
    {
        - -(constructors)- -
        +ParentPathReferenceRewriter(IRequestMapper)
        +ParentPathReferenceRewriter(IRequestMapper, Supplier<String>)
    }
    
@enduml

@startuml









skinparam backgroundColor #333333






skinparam  {
    defaultFontName   "Open Sans,Avenir,Nunito,Arial,Helvetica,SansSerif"
    defaultFontSize   12
    defaultTextAlignment left
    shadowing false
    RoundCorner 10
    TitleFontSize 18
}

skinparam defaultFontName       "Open Sans,Avenir,Nunito,Arial,Helvetica,SansSerif"
skinparam defaultFontSize       12
skinparam dpi                   100
skinparam shadowing             false
skinparam roundcorner           16
skinparam ParticipantPadding    40
skinparam BoxPadding            40
skinparam Padding               3
skinparam ArrowColor            #545454
skinparam stereotype {
    CBackgroundColor #0066cf
    CBorderColor #0086ef
    ABackgroundColor #C8Ac00
    ABorderColor #D8Bc00
    IBackgroundColor #008400
    IBorderColor #239c23
    EBackgroundColor #cf6300
    EBorderColor #ef8300
    NBackgroundColor #3380b9
    NBorderColor #004d86
}
skinparam title {
	FontColor	                 #c0c0c0
 	BorderColor                  #545454
	FontSize	    	         20
	BorderRoundCorner            16
	BorderThickness 	         1
	BackgroundColor              #48494b
}


skinparam legend {
	BackgroundColor #303030
	BorderColor #404040
	FontColor #a0a0a0
}

	skinparam swimlane {
	BorderColor #5e5e5e
	BorderThickness 2
	TitleBackgroundColor  #6d6d6d-#484848
	TitleFontColor #303030
}

skinparam activity {
		FontColor #C8Ac00
	BorderColor #333333
	BackgroundColor #333333-#333333
	BarColor #00FF00
	StartColor #0060a8
	EndColor #0060a8
	DiamondBackgroundColor #6d6d6d-#3a3a3a
  	DiamondBorderColor #3a3a3a
  	DiamondFontColor #fefefe
}


skinparam participant {
		FontColor #C8Ac00
	BorderColor #333333
	BackgroundColor #333333-#333333
	ParticipantBorderThickness 2
}


skinparam actor {
		FontColor #C8Ac00
	BorderColor #333333
	BackgroundColor #333333-#333333
}


skinparam arrow {
	Thickness 1.5
	Color #545454
	FontColor #a0a0a0
    FontStyle bold
    MessageAlignment center
}



skinparam sequence {
	BorderColor #303030
	TitleFontColor #303030
	BackgroundColor #333333
	StartColor #303030
	EndColor #303030
	BoxBackgroundColor #333333
	BoxBorderColor #484848
	BoxFontColor #484848
	LifeLineBorderColor #484848
	LifeLineBorderThickness 2
	LifeLineBackgroundColor #3a3a3a
	GroupBorderColor #484848
	GroupFontColor #484848
	GroupHeaderFontColor #0060a8
	GroupBackgroundColor #484848
	GroupHeaderBackgroundColor #333333
	DividerBackgroundColor #484848
    DividerBorderColor #484848
    DividerBorderThickness 2
    DividerFontColor #D8Bc00
	ReferenceBackgroundColor #333333
	ReferenceBorderColor #484848
	ReferenceFontColor #fefefe
	ReferenceHeaderBackgroundColor #484848
}


skinparam partition {
	BorderColor #303030
	FontColor #333333
	BackgroundColor #333333
}


skinparam collections {
		FontColor #C8Ac00
	BorderColor #333333
	BackgroundColor #333333-#333333
}


skinparam control {
		FontColor #C8Ac00
	BorderColor #333333
	BackgroundColor #333333-#333333
}


skinparam entity {
		FontColor #C8Ac00
	BorderColor #333333
	BackgroundColor #333333-#333333
}


skinparam boundary {
		FontColor #C8Ac00
	BorderColor #333333
	BackgroundColor #333333-#333333
}


skinparam agent {
	BackgroundColor #ff8000
	BorderColor #ff9933
	FontColor #484848
}


skinparam note {
	BorderThickness 1
	BackgroundColor #1b1b1a
	BorderColor #5e5e5e
	FontSize 11
	FontColor #a0a0a0
}


skinparam artifact {
	BorderThickness 10
	BorderColor #5e5e5e
	BackgroundColor #1b1b1a
	FontColor #D8Bc00
}


skinparam component {
		FontColor #C8Ac00
	BorderColor #333333
	BackgroundColor #333333-#333333
}


skinparam interface {
	BackgroundColor  #008400
	BorderColor  #007F00
	FontColor #484848
}


skinparam storage {
	BackgroundColor #ff8000
  	BorderColor #cc6600
	FontColor #222222
}


skinparam node {
	BackgroundColor #333333
	BorderColor #333333
	FontColor #C8Ac00
}


skinparam cloud {
	BackgroundColor #484848-black
	BorderColor #484848
	FontColor #D8Bc00
}


skinparam database {
		FontColor #C8Ac00
	BorderColor #333333
	BackgroundColor #333333-#333333
	BackgroundColor  #333333
}


skinparam class {
		FontColor #C8Ac00
	BorderColor #333333
	BackgroundColor #333333-#333333
	HeaderBackgroundColor #1b1b1a
    BackgroundColor #282828
    BorderColor #5e5e5e
 	StereotypeFontColor #a0a0a0
    StereotypeFontStyle bold
	BorderThickness 1
	AttributeFontColor #D8Bc00
	AttributeFontSize 11
    FontColor #D8Bc00
    FontStyle bold
}


skinparam object {
		FontColor #C8Ac00
	BorderColor #333333
	BackgroundColor #333333-#333333
	StereotypeFontColor #484848
	BorderThickness 1
	AttributeFontColor #fefefe
	AttributeFontSize 11
}


skinparam usecase {
		FontColor #C8Ac00
	BorderColor #333333
	BackgroundColor #333333-#333333
	BorderThickness 2
	StereotypeFontColor #303030
}


skinparam rectangle {
		FontColor #C8Ac00
	BorderColor #333333
	BackgroundColor #333333-#333333
	BackgroundColor #333333
	BorderThickness 2
	StereotypeFontColor #303030
}


skinparam package {
		FontColor #C8Ac00
	BorderColor #333333
	BackgroundColor #333333-#333333
	BackgroundColor #333333
	BorderThickness 2
}


skinparam folder {
	BackgroundColor #6d6d6d
  	BorderColor #ff8000
	FontColor #ff8000
	BorderThickness 2
}


skinparam frame {
	BackgroundColor #6d6d6d
  	BorderColor #0060a8
	FontColor #0060a8
	BorderThickness 2
}


skinparam state {
		FontColor #C8Ac00
	BorderColor #333333
	BackgroundColor #333333-#333333
	StartColor #0060a8
	EndColor #0060a8
	AttributeFontColor #fefefe
	AttributeFontSize 11
}


skinparam queue {
		FontColor #C8Ac00
	BorderColor #333333
	BackgroundColor #333333-#333333
}


skinparam card {
	BackgroundColor #0060a8
	BorderColor #004d86
	FontColor $INFO_TEXT
}


skinparam file {
	BackgroundColor #6d6d6d-#484848
	BorderColor #0060a8
	FontColor #fefefe
}


skinparam stack {
		FontColor #C8Ac00
	BorderColor #333333
	BackgroundColor #333333-#333333
}

    
    title "org.apache.wicket.request.mapper"
    
    interface ICompoundRequestMapper
    interface Comparable
    interface IRequestMapperDelegate
    interface IRequestMapper
    
    IRequestMapper <|- - AbstractMapper
    abstract class AbstractMapper
    {
        - -(constructors)- -
        +AbstractMapper()
        - -
        #PageParameters extractPageParameters(Request, int segmentsToSkip, IPageParametersEncoder)
        #String[] getMountSegments(String mountPath)
        #String getOptionalPlaceholder(String)
        #String getPlaceholder(String)
        #String getPlaceholder(String, char startChar)
        #Locale resolveLocale()
        #String safeSegmentGetter(List<String> segments, int index, String defaultValue)
        - -(collection)- -
        #void removeMetaParameter(Url urlCopy)
        - -(network)- -
        #Url encodePageParameters(Url, PageParameters, IPageParametersEncoder)
        #boolean urlStartsWith(Url, String... segments)
    }
    
    ICompoundRequestMapper <|- - CompoundRequestMapper
    class CompoundRequestMapper
    {
    }
    
    interface IRequestMapper
    interface Iterable<IRequestMapper>
    IRequestMapper <|- - ICompoundRequestMapper
    Iterable <|- - ICompoundRequestMapper
    interface ICompoundRequestMapper
    {
        - -(collection)- -
        +ICompoundRequestMapper add(IRequestMapper)
        +ICompoundRequestMapper remove(IRequestMapper)
    }
    
    interface IRequestMapper
    IRequestMapper <|- - IRequestMapperDelegate
    interface IRequestMapperDelegate
    {
        - -
        +IRequestMapper getDelegateMapper()
    }
    
    Comparable <|- - CompoundRequestMapper.MapperWithScore
    class CompoundRequestMapper.MapperWithScore
    {
        - -(constructors)- -
        +MapperWithScore(IRequestMapper, int)
        - -
        +IRequestMapper getMapper()
    }
    
    IRequestMapperDelegate <|- - ParentPathReferenceRewriter
    class ParentPathReferenceRewriter
    {
        - -(constructors)- -
        +ParentPathReferenceRewriter(IRequestMapper)
        +ParentPathReferenceRewriter(IRequestMapper, Supplier<String>)
    }
    
@enduml

PlantUML version 1.2021.01(Tue Feb 02 00:55:08 MST 2021)
(GPL source distribution)
Java Runtime: Java(TM) SE Runtime Environment
JVM: Java HotSpot(TM) 64-Bit Server VM
Default Encoding: UTF-8
Language: en
Country: US
--></g></svg>