<?xml version="1.0" encoding="UTF-8" standalone="no"?><svg xmlns="http://www.w3.org/2000/svg" xmlns:xlink="http://www.w3.org/1999/xlink" contentScriptType="application/ecmascript" contentStyleType="text/css" height="333.3333px" preserveAspectRatio="none" style="width:1305px;height:333px;background:#333333;" version="1.1" viewBox="0 0 1305 333" width="1305.2083px" zoomAndPan="magnify"><defs/><g><rect fill="#48494B" height="41.2028" rx="8.3333" ry="8.3333" style="stroke:#545454;stroke-width:1.0416666666666667;" width="332.2917" x="479.4271" y="2.0833"/><text fill="#C0C0C0" font-family="Open Sans,Avenir,Nunito,Arial,Helvetica,SansSerif" font-size="20.8333" lengthAdjust="spacing" textLength="309.375" x="490.8854" y="30.5583">org.apache.wicket.request.flow</text><!--MD5=[fef6e9b5545e539f3d326e9f550bb3d0]
cluster RequestHandlerExecutor--><polygon fill="#333333" points="788.5417,52.6611,958.3333,52.6611,965.625,79.8828,1021.875,79.8828,1021.875,157.8695,788.5417,157.8695,788.5417,52.6611" style="stroke:#333333;stroke-width:2.0833333333333335;"/><line style="stroke:#333333;stroke-width:2.0833333333333335;" x1="788.5417" x2="965.625" y1="79.8828" y2="79.8828"/><text fill="#C8AC00" font-family="Open Sans,Avenir,Nunito,Arial,Helvetica,SansSerif" font-size="12.5" font-weight="bold" lengthAdjust="spacing" textLength="157.2917" x="795.8333" y="69.9544">RequestHandlerExecutor</text><!--MD5=[49d82c165a217d22f3ecdea8afcefc56]
class RequestHandlerExecutor.ReplaceHandlerException--><rect fill="#282828" height="48.055" id="RequestHandlerExecutor.ReplaceHandlerException" rx="8.3333" ry="8.3333" style="stroke:#5E5E5E;stroke-width:1.0416666666666667;" width="198.9583" x="805.7292" y="93.2861"/><rect fill="#1B1B1A" height="31.3883" rx="8.3333" ry="8.3333" style="stroke:#1B1B1A;stroke-width:1.0416666666666667;" width="198.9583" x="805.7292" y="93.2861"/><rect fill="#1B1B1A" height="8.3333" style="stroke:#1B1B1A;stroke-width:1.0416666666666667;" width="198.9583" x="805.7292" y="116.3411"/><rect fill="none" height="48.055" id="RequestHandlerExecutor.ReplaceHandlerException" rx="8.3333" ry="8.3333" style="stroke:#5E5E5E;stroke-width:1.0416666666666667;" width="198.9583" x="805.7292" y="93.2861"/><ellipse cx="820.3125" cy="108.9803" fill="#0066CF" rx="10.4167" ry="10.4167" style="stroke:#0086EF;stroke-width:1.0416666666666667;"/><path d="M822.2229,113.4054 Q821.7957,113.6251 821.3257,113.7349 Q820.8557,113.8448 820.3369,113.8448 Q818.4937,113.8448 817.5232,112.6302 Q816.5527,111.4156 816.5527,109.1207 Q816.5527,106.8197 817.5232,105.6051 Q818.4937,104.3905 820.3369,104.3905 Q820.8557,104.3905 821.3318,104.5003 Q821.8079,104.6102 822.2229,104.8299 L822.2229,106.8319 Q821.759,106.4046 821.3226,106.2063 Q820.8862,106.0079 820.4224,106.0079 Q819.4336,106.0079 818.9301,106.7922 Q818.4265,107.5765 818.4265,109.1207 Q818.4265,110.6588 818.9301,111.4431 Q819.4336,112.2274 820.4224,112.2274 Q820.8862,112.2274 821.3226,112.029 Q821.759,111.8306 822.2229,111.4034 Z " fill="#000000"/><text fill="#D8BC00" font-family="Open Sans,Avenir,Nunito,Arial,Helvetica,SansSerif" font-size="12.5" font-weight="bold" lengthAdjust="spacing" textLength="161.4583" x="836.9792" y="113.7044">ReplaceHandlerException</text><line style="stroke:#5E5E5E;stroke-width:1.0416666666666667;" x1="806.7708" x2="1003.6458" y1="124.6745" y2="124.6745"/><line style="stroke:#5E5E5E;stroke-width:1.0416666666666667;" x1="806.7708" x2="1003.6458" y1="133.0078" y2="133.0078"/><!--MD5=[7dbbd70004befa22e2d6cfe4be6cb830]
class IRequestHandler--><rect codeLine="6" fill="#282828" height="48.055" id="IRequestHandler" rx="8.3333" ry="8.3333" style="stroke:#5E5E5E;stroke-width:1.0416666666666667;" width="143.75" x="7.2917" y="93.2861"/><rect fill="#1B1B1A" height="31.3883" rx="8.3333" ry="8.3333" style="stroke:#1B1B1A;stroke-width:1.0416666666666667;" width="143.75" x="7.2917" y="93.2861"/><rect fill="#1B1B1A" height="8.3333" style="stroke:#1B1B1A;stroke-width:1.0416666666666667;" width="143.75" x="7.2917" y="116.3411"/><rect codeLine="6" fill="none" height="48.055" id="IRequestHandler" rx="8.3333" ry="8.3333" style="stroke:#5E5E5E;stroke-width:1.0416666666666667;" width="143.75" x="7.2917" y="93.2861"/><ellipse cx="21.875" cy="108.9803" fill="#008400" rx="10.4167" ry="10.4167" style="stroke:#239C23;stroke-width:1.0416666666666667;"/><path d="M19.279,106.1422 L19.279,104.5553 L24.705,104.5553 L24.705,106.1422 L22.8923,106.1422 L22.8923,112.0809 L24.705,112.0809 L24.705,113.6678 L19.279,113.6678 L19.279,112.0809 L21.0917,112.0809 L21.0917,106.1422 Z " fill="#000000"/><text fill="#D8BC00" font-family="Open Sans,Avenir,Nunito,Arial,Helvetica,SansSerif" font-size="12.5" font-style="italic" font-weight="bold" lengthAdjust="spacing" textLength="106.25" x="38.5417" y="113.7044">IRequestHandler</text><line style="stroke:#5E5E5E;stroke-width:1.0416666666666667;" x1="8.3333" x2="150" y1="124.6745" y2="124.6745"/><line style="stroke:#5E5E5E;stroke-width:1.0416666666666667;" x1="8.3333" x2="150" y1="133.0078" y2="133.0078"/><!--MD5=[bff54aaec3c38a6fcc21e41a8cd7ff72]
class ILoggableRequestHandler--><rect codeLine="7" fill="#282828" height="48.055" id="ILoggableRequestHandler" rx="8.3333" ry="8.3333" style="stroke:#5E5E5E;stroke-width:1.0416666666666667;" width="203.125" x="188.0208" y="93.2861"/><rect fill="#1B1B1A" height="31.3883" rx="8.3333" ry="8.3333" style="stroke:#1B1B1A;stroke-width:1.0416666666666667;" width="203.125" x="188.0208" y="93.2861"/><rect fill="#1B1B1A" height="8.3333" style="stroke:#1B1B1A;stroke-width:1.0416666666666667;" width="203.125" x="188.0208" y="116.3411"/><rect codeLine="7" fill="none" height="48.055" id="ILoggableRequestHandler" rx="8.3333" ry="8.3333" style="stroke:#5E5E5E;stroke-width:1.0416666666666667;" width="203.125" x="188.0208" y="93.2861"/><ellipse cx="202.6042" cy="108.9803" fill="#008400" rx="10.4167" ry="10.4167" style="stroke:#239C23;stroke-width:1.0416666666666667;"/><path d="M200.0081,106.1422 L200.0081,104.5553 L205.4342,104.5553 L205.4342,106.1422 L203.6214,106.1422 L203.6214,112.0809 L205.4342,112.0809 L205.4342,113.6678 L200.0081,113.6678 L200.0081,112.0809 L201.8209,112.0809 L201.8209,106.1422 Z " fill="#000000"/><text fill="#D8BC00" font-family="Open Sans,Avenir,Nunito,Arial,Helvetica,SansSerif" font-size="12.5" font-style="italic" font-weight="bold" lengthAdjust="spacing" textLength="165.625" x="219.2708" y="113.7044">ILoggableRequestHandler</text><line style="stroke:#5E5E5E;stroke-width:1.0416666666666667;" x1="189.0625" x2="390.1042" y1="124.6745" y2="124.6745"/><line style="stroke:#5E5E5E;stroke-width:1.0416666666666667;" x1="189.0625" x2="390.1042" y1="133.0078" y2="133.0078"/><!--MD5=[0de4aff3a3f4dea9ba34d59ceec113f9]
class IRequestHandlerDelegate--><rect codeLine="8" fill="#282828" height="48.055" id="IRequestHandlerDelegate" rx="8.3333" ry="8.3333" style="stroke:#5E5E5E;stroke-width:1.0416666666666667;" width="201.0417" x="427.6042" y="93.2861"/><rect fill="#1B1B1A" height="31.3883" rx="8.3333" ry="8.3333" style="stroke:#1B1B1A;stroke-width:1.0416666666666667;" width="201.0417" x="427.6042" y="93.2861"/><rect fill="#1B1B1A" height="8.3333" style="stroke:#1B1B1A;stroke-width:1.0416666666666667;" width="201.0417" x="427.6042" y="116.3411"/><rect codeLine="8" fill="none" height="48.055" id="IRequestHandlerDelegate" rx="8.3333" ry="8.3333" style="stroke:#5E5E5E;stroke-width:1.0416666666666667;" width="201.0417" x="427.6042" y="93.2861"/><ellipse cx="442.1875" cy="108.9803" fill="#008400" rx="10.4167" ry="10.4167" style="stroke:#239C23;stroke-width:1.0416666666666667;"/><path d="M439.5915,106.1422 L439.5915,104.5553 L445.0175,104.5553 L445.0175,106.1422 L443.2048,106.1422 L443.2048,112.0809 L445.0175,112.0809 L445.0175,113.6678 L439.5915,113.6678 L439.5915,112.0809 L441.4042,112.0809 L441.4042,106.1422 Z " fill="#000000"/><text fill="#D8BC00" font-family="Open Sans,Avenir,Nunito,Arial,Helvetica,SansSerif" font-size="12.5" font-style="italic" font-weight="bold" lengthAdjust="spacing" textLength="163.5417" x="458.8542" y="113.7044">IRequestHandlerDelegate</text><line style="stroke:#5E5E5E;stroke-width:1.0416666666666667;" x1="428.6458" x2="627.6042" y1="124.6745" y2="124.6745"/><line style="stroke:#5E5E5E;stroke-width:1.0416666666666667;" x1="428.6458" x2="627.6042" y1="133.0078" y2="133.0078"/><!--MD5=[6998351668e7bf637be5b8479a35e4a9]
class RedirectToUrlException--><rect codeLine="11" fill="#282828" height="122.8678" id="RedirectToUrlException" rx="8.3333" ry="8.3333" style="stroke:#5E5E5E;stroke-width:1.0416666666666667;" width="401.0417" x="589.0625" y="203.7028"/><rect fill="#1B1B1A" height="31.3883" rx="8.3333" ry="8.3333" style="stroke:#1B1B1A;stroke-width:1.0416666666666667;" width="401.0417" x="589.0625" y="203.7028"/><rect fill="#1B1B1A" height="8.3333" style="stroke:#1B1B1A;stroke-width:1.0416666666666667;" width="401.0417" x="589.0625" y="226.7578"/><rect codeLine="11" fill="none" height="122.8678" id="RedirectToUrlException" rx="8.3333" ry="8.3333" style="stroke:#5E5E5E;stroke-width:1.0416666666666667;" width="401.0417" x="589.0625" y="203.7028"/><ellipse cx="707.2917" cy="219.397" fill="#0066CF" rx="10.4167" ry="10.4167" style="stroke:#0086EF;stroke-width:1.0416666666666667;"/><path d="M709.2021,223.822 Q708.7748,224.0417 708.3049,224.1516 Q707.8349,224.2615 707.3161,224.2615 Q705.4728,224.2615 704.5024,223.0469 Q703.5319,221.8323 703.5319,219.5374 Q703.5319,217.2363 704.5024,216.0217 Q705.4728,214.8071 707.3161,214.8071 Q707.8349,214.8071 708.311,214.917 Q708.787,215.0269 709.2021,215.2466 L709.2021,217.2485 Q708.7382,216.8213 708.3018,216.6229 Q707.8654,216.4246 707.4015,216.4246 Q706.4128,216.4246 705.9092,217.2089 Q705.4057,217.9932 705.4057,219.5374 Q705.4057,221.0754 705.9092,221.8597 Q706.4128,222.644 707.4015,222.644 Q707.8654,222.644 708.3018,222.4457 Q708.7382,222.2473 709.2021,221.8201 Z " fill="#000000"/><text fill="#D8BC00" font-family="Open Sans,Avenir,Nunito,Arial,Helvetica,SansSerif" font-size="12.5" font-weight="bold" lengthAdjust="spacing" textLength="150" x="730.2083" y="224.1211">RedirectToUrlException</text><line style="stroke:#5E5E5E;stroke-width:1.5625;" x1="590.1042" x2="989.0625" y1="235.0911" y2="235.0911"/><ellipse cx="600.5208" cy="270.461" fill="#84BE84" rx="3.125" ry="3.125" style="stroke:#038048;stroke-width:1.0416666666666667;"/><text fill="#D8BC00" font-family="Open Sans,Avenir,Nunito,Arial,Helvetica,SansSerif" font-size="11.4583" lengthAdjust="spacing" textLength="173.9583" x="611.9792" y="277.3722">RedirectToUrlException(String)</text><ellipse cx="600.5208" cy="290.2059" fill="#84BE84" rx="3.125" ry="3.125" style="stroke:#038048;stroke-width:1.0416666666666667;"/><text fill="#D8BC00" font-family="Open Sans,Avenir,Nunito,Arial,Helvetica,SansSerif" font-size="11.4583" lengthAdjust="spacing" textLength="194.7917" x="611.9792" y="297.1171">RedirectToUrlException(String, int)</text><ellipse cx="600.5208" cy="309.9508" fill="#84BE84" rx="3.125" ry="3.125" style="stroke:#038048;stroke-width:1.0416666666666667;"/><text fill="#D8BC00" font-family="Open Sans,Avenir,Nunito,Arial,Helvetica,SansSerif" font-size="11.4583" lengthAdjust="spacing" textLength="368.75" x="611.9792" y="316.862">RedirectToUrlException(String, int, RedirectRequestHandler.Mode)</text><line style="stroke:#5E5E5E;stroke-width:1.0416666666666667;" x1="590.1042" x2="745.8333" y1="253.2969" y2="253.2969"/><text fill="#D8BC00" font-family="Open Sans,Avenir,Nunito,Arial,Helvetica,SansSerif" font-size="11.4583" lengthAdjust="spacing" textLength="81.25" x="748.9583" y="257.1065">(constructors)</text><line style="stroke:#5E5E5E;stroke-width:1.0416666666666667;" x1="833.3333" x2="989.0625" y1="253.2969" y2="253.2969"/><!--MD5=[d0fbce55615b2e58bd436ecf09ac5282]
class ResetResponseException--><rect codeLine="20" fill="#282828" height="83.3781" id="ResetResponseException" rx="8.3333" ry="8.3333" style="stroke:#5E5E5E;stroke-width:1.0416666666666667;" width="271.875" x="1026.5625" y="223.4945"/><rect fill="#1B1B1A" height="31.3883" rx="8.3333" ry="8.3333" style="stroke:#1B1B1A;stroke-width:1.0416666666666667;" width="271.875" x="1026.5625" y="223.4945"/><rect fill="#1B1B1A" height="8.3333" style="stroke:#1B1B1A;stroke-width:1.0416666666666667;" width="271.875" x="1026.5625" y="246.5495"/><rect codeLine="20" fill="none" height="83.3781" id="ResetResponseException" rx="8.3333" ry="8.3333" style="stroke:#5E5E5E;stroke-width:1.0416666666666667;" width="271.875" x="1026.5625" y="223.4945"/><ellipse cx="1075" cy="239.1886" fill="#C8AC00" rx="10.4167" ry="10.4167" style="stroke:#D8BC00;stroke-width:1.0416666666666667;"/><path d="M1074.5931,235.8907 L1073.7447,239.62 L1075.4476,239.62 Z M1073.4945,234.2428 L1075.6978,234.2428 L1078.1576,243.3553 L1076.357,243.3553 L1075.7955,241.1031 L1073.3846,241.1031 L1072.8353,243.3553 L1071.0347,243.3553 Z " fill="#000000"/><text fill="#D8BC00" font-family="Open Sans,Avenir,Nunito,Arial,Helvetica,SansSerif" font-size="12.5" font-style="italic" font-weight="bold" lengthAdjust="spacing" textLength="160.4167" x="1097.9167" y="243.9128">ResetResponseException</text><line style="stroke:#5E5E5E;stroke-width:1.5625;" x1="1027.6042" x2="1297.3958" y1="254.8828" y2="254.8828"/><polygon fill="#FFFF44" points="1038.0208,285.0444,1042.1875,289.211,1038.0208,293.3777,1033.8542,289.211" style="stroke:#B38D22;stroke-width:1.0416666666666667;"/><text fill="#D8BC00" font-family="Open Sans,Avenir,Nunito,Arial,Helvetica,SansSerif" font-size="11.4583" lengthAdjust="spacing" textLength="239.5833" x="1049.4792" y="297.1639">ResetResponseException(IRequestHandler)</text><line style="stroke:#5E5E5E;stroke-width:1.0416666666666667;" x1="1027.6042" x2="1118.75" y1="273.0886" y2="273.0886"/><text fill="#D8BC00" font-family="Open Sans,Avenir,Nunito,Arial,Helvetica,SansSerif" font-size="11.4583" lengthAdjust="spacing" textLength="81.25" x="1121.875" y="276.8982">(constructors)</text><line style="stroke:#5E5E5E;stroke-width:1.0416666666666667;" x1="1206.25" x2="1297.3958" y1="273.0886" y2="273.0886"/><!--MD5=[6942d033309cd9c60ec4c5ca6c29c62e]
class ResetResponseException.ResponseResettingDecorator--><rect codeLine="29" fill="#282828" height="83.3781" id="ResetResponseException.ResponseResettingDecorator" rx="8.3333" ry="8.3333" style="stroke:#5E5E5E;stroke-width:1.0416666666666667;" width="294.7917" x="142.1875" y="223.4945"/><rect fill="#1B1B1A" height="31.3883" rx="8.3333" ry="8.3333" style="stroke:#1B1B1A;stroke-width:1.0416666666666667;" width="294.7917" x="142.1875" y="223.4945"/><rect fill="#1B1B1A" height="8.3333" style="stroke:#1B1B1A;stroke-width:1.0416666666666667;" width="294.7917" x="142.1875" y="246.5495"/><rect codeLine="29" fill="none" height="83.3781" id="ResetResponseException.ResponseResettingDecorator" rx="8.3333" ry="8.3333" style="stroke:#5E5E5E;stroke-width:1.0416666666666667;" width="294.7917" x="142.1875" y="223.4945"/><ellipse cx="188.5417" cy="239.1886" fill="#0066CF" rx="10.4167" ry="10.4167" style="stroke:#0086EF;stroke-width:1.0416666666666667;"/><path d="M190.4521,243.6137 Q190.0248,243.8334 189.5549,243.9433 Q189.0849,244.0531 188.5661,244.0531 Q186.7228,244.0531 185.7524,242.8385 Q184.7819,241.6239 184.7819,239.329 Q184.7819,237.028 185.7524,235.8134 Q186.7228,234.5988 188.5661,234.5988 Q189.0849,234.5988 189.561,234.7087 Q190.037,234.8185 190.4521,235.0382 L190.4521,237.0402 Q189.9882,236.613 189.5518,236.4146 Q189.1154,236.2162 188.6515,236.2162 Q187.6628,236.2162 187.1592,237.0005 Q186.6557,237.7848 186.6557,239.329 Q186.6557,240.8671 187.1592,241.6514 Q187.6628,242.4357 188.6515,242.4357 Q189.1154,242.4357 189.5518,242.2373 Q189.9882,242.039 190.4521,241.6117 Z " fill="#000000"/><text fill="#D8BC00" font-family="Open Sans,Avenir,Nunito,Arial,Helvetica,SansSerif" font-size="12.5" font-weight="bold" lengthAdjust="spacing" textLength="187.5" x="211.4583" y="243.9128">ResponseResettingDecorator</text><line style="stroke:#5E5E5E;stroke-width:1.5625;" x1="143.2292" x2="435.9375" y1="254.8828" y2="254.8828"/><ellipse cx="153.6458" cy="290.2527" fill="#84BE84" rx="3.125" ry="3.125" style="stroke:#038048;stroke-width:1.0416666666666667;"/><text fill="#D8BC00" font-family="Open Sans,Avenir,Nunito,Arial,Helvetica,SansSerif" font-size="11.4583" lengthAdjust="spacing" textLength="262.5" x="165.1042" y="297.1639">ResponseResettingDecorator(IRequestHandler)</text><line style="stroke:#5E5E5E;stroke-width:1.0416666666666667;" x1="143.2292" x2="245.8333" y1="273.0886" y2="273.0886"/><text fill="#D8BC00" font-family="Open Sans,Avenir,Nunito,Arial,Helvetica,SansSerif" font-size="11.4583" lengthAdjust="spacing" textLength="81.25" x="248.9583" y="276.8982">(constructors)</text><line style="stroke:#5E5E5E;stroke-width:1.0416666666666667;" x1="333.3333" x2="435.9375" y1="273.0886" y2="273.0886"/><!--MD5=[aeb7984f26bd40b9cdc51dd7793c622f]
reverse link RequestHandlerExecutor.ReplaceHandlerException to RedirectToUrlException--><path codeLine="10" d="M873.7917,157.9111 C862.6146,172.0153 849.75,188.234 837.5,203.682 " fill="none" id="RequestHandlerExecutor.ReplaceHandlerException-backto-RedirectToUrlException" style="stroke:#545454;stroke-width:1.5625;"/><polygon fill="none" points="868.2292,153.1924,886.8854,141.3903,879.6563,162.2445,868.2292,153.1924" style="stroke:#545454;stroke-width:1.5625;"/><!--MD5=[3af210f5655dfda3d29e794292bc1292]
reverse link RequestHandlerExecutor.ReplaceHandlerException to ResetResponseException--><path codeLine="19" d="M964.2083,151.734 C1001.8125,173.0465 1050.7813,200.7965 1090.6458,223.3903 " fill="none" id="RequestHandlerExecutor.ReplaceHandlerException-backto-ResetResponseException" style="stroke:#545454;stroke-width:1.5625;"/><polygon fill="none" points="960.2188,157.8486,945.6979,141.234,967.4167,145.1611,960.2188,157.8486" style="stroke:#545454;stroke-width:1.5625;"/><!--MD5=[6a86e32dd538962f777f4882aee81bd4]
reverse link IRequestHandler to ResetResponseException.ResponseResettingDecorator--><path codeLine="26" d="M129.7917,153.3799 C160.2604,174.484 199.1563,201.4528 230.9479,223.484 " fill="none" id="IRequestHandler-backto-ResetResponseException.ResponseResettingDecorator" style="stroke:#545454;stroke-width:1.5625;"/><polygon fill="none" points="125.4792,159.2549,112.5104,141.3903,133.7813,147.2653,125.4792,159.2549" style="stroke:#545454;stroke-width:1.5625;"/><!--MD5=[8d47ae66729b2ae3aa3dea5c62525be3]
reverse link IRequestHandlerDelegate to ResetResponseException.ResponseResettingDecorator--><path codeLine="27" d="M472.4583,152.3174 C437.7292,173.557 392.8229,201.0049 356.1979,223.3903 " fill="none" id="IRequestHandlerDelegate-backto-ResetResponseException.ResponseResettingDecorator" style="stroke:#545454;stroke-width:1.5625;"/><polygon fill="none" points="469.0104,145.8799,490.5938,141.234,476.6146,158.3174,469.0104,145.8799" style="stroke:#545454;stroke-width:1.5625;"/><!--MD5=[b0c07230bca4d0db36ea98000ad552cf]
reverse link ILoggableRequestHandler to ResetResponseException.ResponseResettingDecorator--><path codeLine="28" d="M289.5833,162.2965 C289.5833,181.734 289.5833,204.4528 289.5833,223.484 " fill="none" id="ILoggableRequestHandler-backto-ResetResponseException.ResponseResettingDecorator" style="stroke:#545454;stroke-width:1.5625;"/><polygon fill="none" points="282.2917,162.2236,289.5833,141.3903,296.875,162.2236,282.2917,162.2236" style="stroke:#545454;stroke-width:1.5625;"/><!--MD5=[14c0011938d45e2192266843347bfd81]
@startuml

    !include lexakai.theme
    
    title "org.apache.wicket.request.flow"
    
    interface IRequestHandler
    interface ILoggableRequestHandler
    interface IRequestHandlerDelegate
    
    RequestHandlerExecutor.ReplaceHandlerException <|- - RedirectToUrlException
    class RedirectToUrlException
    {
        - -(constructors)- -
        +RedirectToUrlException(String)
        +RedirectToUrlException(String, int)
        +RedirectToUrlException(String, int, RedirectRequestHandler.Mode)
    }
    
    RequestHandlerExecutor.ReplaceHandlerException <|- - ResetResponseException
    abstract class ResetResponseException
    {
        - -(constructors)- -
        #ResetResponseException(IRequestHandler)
    }
    
    IRequestHandler <|- - ResetResponseException.ResponseResettingDecorator
    IRequestHandlerDelegate <|- - ResetResponseException.ResponseResettingDecorator
    ILoggableRequestHandler <|- - ResetResponseException.ResponseResettingDecorator
    class ResetResponseException.ResponseResettingDecorator
    {
        - -(constructors)- -
        +ResponseResettingDecorator(IRequestHandler)
    }
    
@enduml

@startuml









skinparam backgroundColor #333333






skinparam  {
    defaultFontName   "Open Sans,Avenir,Nunito,Arial,Helvetica,SansSerif"
    defaultFontSize   12
    defaultTextAlignment left
    shadowing false
    RoundCorner 10
    TitleFontSize 18
}

skinparam defaultFontName       "Open Sans,Avenir,Nunito,Arial,Helvetica,SansSerif"
skinparam defaultFontSize       12
skinparam dpi                   100
skinparam shadowing             false
skinparam roundcorner           16
skinparam ParticipantPadding    40
skinparam BoxPadding            40
skinparam Padding               3
skinparam ArrowColor            #545454
skinparam stereotype {
    CBackgroundColor #0066cf
    CBorderColor #0086ef
    ABackgroundColor #C8Ac00
    ABorderColor #D8Bc00
    IBackgroundColor #008400
    IBorderColor #239c23
    EBackgroundColor #cf6300
    EBorderColor #ef8300
    NBackgroundColor #3380b9
    NBorderColor #004d86
}
skinparam title {
	FontColor	                 #c0c0c0
 	BorderColor                  #545454
	FontSize	    	         20
	BorderRoundCorner            16
	BorderThickness 	         1
	BackgroundColor              #48494b
}


skinparam legend {
	BackgroundColor #303030
	BorderColor #404040
	FontColor #a0a0a0
}

	skinparam swimlane {
	BorderColor #5e5e5e
	BorderThickness 2
	TitleBackgroundColor  #6d6d6d-#484848
	TitleFontColor #303030
}

skinparam activity {
		FontColor #C8Ac00
	BorderColor #333333
	BackgroundColor #333333-#333333
	BarColor #00FF00
	StartColor #0060a8
	EndColor #0060a8
	DiamondBackgroundColor #6d6d6d-#3a3a3a
  	DiamondBorderColor #3a3a3a
  	DiamondFontColor #fefefe
}


skinparam participant {
		FontColor #C8Ac00
	BorderColor #333333
	BackgroundColor #333333-#333333
	ParticipantBorderThickness 2
}


skinparam actor {
		FontColor #C8Ac00
	BorderColor #333333
	BackgroundColor #333333-#333333
}


skinparam arrow {
	Thickness 1.5
	Color #545454
	FontColor #a0a0a0
    FontStyle bold
    MessageAlignment center
}



skinparam sequence {
	BorderColor #303030
	TitleFontColor #303030
	BackgroundColor #333333
	StartColor #303030
	EndColor #303030
	BoxBackgroundColor #333333
	BoxBorderColor #484848
	BoxFontColor #484848
	LifeLineBorderColor #484848
	LifeLineBorderThickness 2
	LifeLineBackgroundColor #3a3a3a
	GroupBorderColor #484848
	GroupFontColor #484848
	GroupHeaderFontColor #0060a8
	GroupBackgroundColor #484848
	GroupHeaderBackgroundColor #333333
	DividerBackgroundColor #484848
    DividerBorderColor #484848
    DividerBorderThickness 2
    DividerFontColor #D8Bc00
	ReferenceBackgroundColor #333333
	ReferenceBorderColor #484848
	ReferenceFontColor #fefefe
	ReferenceHeaderBackgroundColor #484848
}


skinparam partition {
	BorderColor #303030
	FontColor #333333
	BackgroundColor #333333
}


skinparam collections {
		FontColor #C8Ac00
	BorderColor #333333
	BackgroundColor #333333-#333333
}


skinparam control {
		FontColor #C8Ac00
	BorderColor #333333
	BackgroundColor #333333-#333333
}


skinparam entity {
		FontColor #C8Ac00
	BorderColor #333333
	BackgroundColor #333333-#333333
}


skinparam boundary {
		FontColor #C8Ac00
	BorderColor #333333
	BackgroundColor #333333-#333333
}


skinparam agent {
	BackgroundColor #ff8000
	BorderColor #ff9933
	FontColor #484848
}


skinparam note {
	BorderThickness 1
	BackgroundColor #1b1b1a
	BorderColor #5e5e5e
	FontSize 11
	FontColor #a0a0a0
}


skinparam artifact {
	BorderThickness 10
	BorderColor #5e5e5e
	BackgroundColor #1b1b1a
	FontColor #D8Bc00
}


skinparam component {
		FontColor #C8Ac00
	BorderColor #333333
	BackgroundColor #333333-#333333
}


skinparam interface {
	BackgroundColor  #008400
	BorderColor  #007F00
	FontColor #484848
}


skinparam storage {
	BackgroundColor #ff8000
  	BorderColor #cc6600
	FontColor #222222
}


skinparam node {
	BackgroundColor #333333
	BorderColor #333333
	FontColor #C8Ac00
}


skinparam cloud {
	BackgroundColor #484848-black
	BorderColor #484848
	FontColor #D8Bc00
}


skinparam database {
		FontColor #C8Ac00
	BorderColor #333333
	BackgroundColor #333333-#333333
	BackgroundColor  #333333
}


skinparam class {
		FontColor #C8Ac00
	BorderColor #333333
	BackgroundColor #333333-#333333
	HeaderBackgroundColor #1b1b1a
    BackgroundColor #282828
    BorderColor #5e5e5e
 	StereotypeFontColor #a0a0a0
    StereotypeFontStyle bold
	BorderThickness 1
	AttributeFontColor #D8Bc00
	AttributeFontSize 11
    FontColor #D8Bc00
    FontStyle bold
}


skinparam object {
		FontColor #C8Ac00
	BorderColor #333333
	BackgroundColor #333333-#333333
	StereotypeFontColor #484848
	BorderThickness 1
	AttributeFontColor #fefefe
	AttributeFontSize 11
}


skinparam usecase {
		FontColor #C8Ac00
	BorderColor #333333
	BackgroundColor #333333-#333333
	BorderThickness 2
	StereotypeFontColor #303030
}


skinparam rectangle {
		FontColor #C8Ac00
	BorderColor #333333
	BackgroundColor #333333-#333333
	BackgroundColor #333333
	BorderThickness 2
	StereotypeFontColor #303030
}


skinparam package {
		FontColor #C8Ac00
	BorderColor #333333
	BackgroundColor #333333-#333333
	BackgroundColor #333333
	BorderThickness 2
}


skinparam folder {
	BackgroundColor #6d6d6d
  	BorderColor #ff8000
	FontColor #ff8000
	BorderThickness 2
}


skinparam frame {
	BackgroundColor #6d6d6d
  	BorderColor #0060a8
	FontColor #0060a8
	BorderThickness 2
}


skinparam state {
		FontColor #C8Ac00
	BorderColor #333333
	BackgroundColor #333333-#333333
	StartColor #0060a8
	EndColor #0060a8
	AttributeFontColor #fefefe
	AttributeFontSize 11
}


skinparam queue {
		FontColor #C8Ac00
	BorderColor #333333
	BackgroundColor #333333-#333333
}


skinparam card {
	BackgroundColor #0060a8
	BorderColor #004d86
	FontColor $INFO_TEXT
}


skinparam file {
	BackgroundColor #6d6d6d-#484848
	BorderColor #0060a8
	FontColor #fefefe
}


skinparam stack {
		FontColor #C8Ac00
	BorderColor #333333
	BackgroundColor #333333-#333333
}

    
    title "org.apache.wicket.request.flow"
    
    interface IRequestHandler
    interface ILoggableRequestHandler
    interface IRequestHandlerDelegate
    
    RequestHandlerExecutor.ReplaceHandlerException <|- - RedirectToUrlException
    class RedirectToUrlException
    {
        - -(constructors)- -
        +RedirectToUrlException(String)
        +RedirectToUrlException(String, int)
        +RedirectToUrlException(String, int, RedirectRequestHandler.Mode)
    }
    
    RequestHandlerExecutor.ReplaceHandlerException <|- - ResetResponseException
    abstract class ResetResponseException
    {
        - -(constructors)- -
        #ResetResponseException(IRequestHandler)
    }
    
    IRequestHandler <|- - ResetResponseException.ResponseResettingDecorator
    IRequestHandlerDelegate <|- - ResetResponseException.ResponseResettingDecorator
    ILoggableRequestHandler <|- - ResetResponseException.ResponseResettingDecorator
    class ResetResponseException.ResponseResettingDecorator
    {
        - -(constructors)- -
        +ResponseResettingDecorator(IRequestHandler)
    }
    
@enduml

PlantUML version 1.2021.01(Tue Feb 02 00:55:08 MST 2021)
(GPL source distribution)
Java Runtime: Java(TM) SE Runtime Environment
JVM: Java HotSpot(TM) 64-Bit Server VM
Default Encoding: UTF-8
Language: en
Country: US
--></g></svg>