<?xml version="1.0" encoding="utf-8"?>
<svg viewBox="0 0 250 300" xmlns="http://www.w3.org/2000/svg">
  <path d="M 64.934 293.122 L 14.998 293.122 L 92.717 97.884 L 87.837 84.743 C 85.834 79.737 83.957 75.169 82.205 71.039 C 80.453 66.909 78.388 63.405 76.01 60.526 C 73.632 57.647 70.691 55.457 67.186 53.955 C 63.683 52.453 59.177 51.703 53.671 51.703 C 47.913 51.703 42.783 52.641 38.277 54.519 C 33.771 56.396 30.392 58.336 28.14 60.338 L 21.756 22.417 C 25.761 19.913 31.268 17.286 38.277 14.533 C 45.285 11.778 54.296 10.402 65.31 10.402 C 76.072 10.402 84.959 11.778 91.967 14.533 C 98.976 17.286 104.92 21.228 109.801 26.359 C 114.682 31.49 118.875 37.748 122.379 45.132 C 125.884 52.516 129.513 60.964 133.268 70.476 L 219.248 293.122 L 169.312 293.122 L 117.122 151.95 L 116.372 151.95 Z" style="fill: rgb(66, 148, 247); stroke: rgb(216, 188, 0); stroke-width: 5px; white-space: pre;"/>
</svg>