<?xml version="1.0" encoding="utf-8"?>
<svg viewBox="0 0 500 500" xmlns="http://www.w3.org/2000/svg">
  <path d="M 213.19560170898438 268.2070007324219 L 195.13420170898436 268.2070007324219 L 223.24480170898437 197.5910007324219 L 221.47940170898437 192.83800073242188 Q 220.39300170898437 190.12200073242187 219.4424017089844 187.8813007324219 Q 218.49180170898438 185.6406007324219 217.2017017089844 184.07890073242186 Q 215.91160170898436 182.51720073242188 214.01040170898438 181.7024007324219 Q 212.1092017089844 180.88760073242187 209.12160170898437 180.88760073242187 Q 205.99820170898437 180.88760073242187 203.55380170898437 181.90610073242186 Q 201.10940170898436 182.92460073242188 199.88720170898438 184.01100073242188 L 197.57860170898437 170.29520073242188 Q 199.75140170898436 168.93720073242187 203.55380170898437 167.44340073242188 Q 207.35620170898437 165.94960073242186 213.33140170898437 165.94960073242186 Q 219.17080170898438 165.94960073242186 222.9732017089844 167.44340073242188 Q 226.77560170898437 168.93720073242187 229.42370170898437 171.72110073242186 Q 232.07180170898437 174.50500073242188 233.97300170898438 178.51110073242188 Q 235.87420170898437 182.51720073242188 237.91120170898438 187.67760073242187 L 269.00940170898434 268.2070007324219 L 250.94800170898438 268.2070007324219 L 232.07180170898437 217.14620073242187 L 231.8002017089844 217.14620073242187 Z" transform="matrix(1, 0, 0, 1, 0, 0)" style="fill: rgb(66, 148, 247); stroke: rgb(216, 188, 0); stroke-width: 5px; white-space: pre;"/>
</svg>