<?xml version="1.0" encoding="UTF-8" standalone="no"?><svg xmlns="http://www.w3.org/2000/svg" xmlns:xlink="http://www.w3.org/1999/xlink" contentScriptType="application/ecmascript" contentStyleType="text/css" height="1014.5833px" preserveAspectRatio="none" style="width:631px;height:1014px;background:#333333;" version="1.1" viewBox="0 0 631 1014" width="631.25px" zoomAndPan="magnify"><defs/><g><rect fill="#48494B" height="41.2028" rx="8.3333" ry="8.3333" style="stroke:#545454;stroke-width:1.0416666666666667;" width="147.9167" x="234.375" y="2.0833"/><text fill="#C0C0C0" font-family="Open Sans,Avenir,Nunito,Arial,Helvetica,SansSerif" font-size="20.8333" lengthAdjust="spacing" textLength="125" x="245.8333" y="30.5583">Applications</text><!--MD5=[784d533083758286c885e86b9fe3090e]
class BaseComponent--><rect codeLine="51" fill="#282828" height="48.055" id="BaseComponent" rx="8.3333" ry="8.3333" style="stroke:#5E5E5E;stroke-width:1.0416666666666667;" width="143.75" x="394.7917" y="165.1611"/><rect fill="#1B1B1A" height="31.3883" rx="8.3333" ry="8.3333" style="stroke:#1B1B1A;stroke-width:1.0416666666666667;" width="143.75" x="394.7917" y="165.1611"/><rect fill="#1B1B1A" height="8.3333" style="stroke:#1B1B1A;stroke-width:1.0416666666666667;" width="143.75" x="394.7917" y="188.2161"/><rect codeLine="51" fill="none" height="48.055" id="BaseComponent" rx="8.3333" ry="8.3333" style="stroke:#5E5E5E;stroke-width:1.0416666666666667;" width="143.75" x="394.7917" y="165.1611"/><ellipse cx="409.375" cy="180.8553" fill="#0066CF" rx="10.4167" ry="10.4167" style="stroke:#0086EF;stroke-width:1.0416666666666667;"/><path d="M411.2854,185.2804 Q410.8582,185.5001 410.3882,185.6099 Q409.9182,185.7198 409.3994,185.7198 Q407.5562,185.7198 406.5857,184.5052 Q405.6152,183.2906 405.6152,180.9957 Q405.6152,178.6947 406.5857,177.4801 Q407.5562,176.2655 409.3994,176.2655 Q409.9182,176.2655 410.3943,176.3753 Q410.8704,176.4852 411.2854,176.7049 L411.2854,178.7069 Q410.8215,178.2796 410.3851,178.0813 Q409.9487,177.8829 409.4849,177.8829 Q408.4961,177.8829 407.9926,178.6672 Q407.489,179.4515 407.489,180.9957 Q407.489,182.5338 407.9926,183.3181 Q408.4961,184.1024 409.4849,184.1024 Q409.9487,184.1024 410.3851,183.904 Q410.8215,183.7056 411.2854,183.2784 Z " fill="#000000"/><text fill="#D8BC00" font-family="Open Sans,Avenir,Nunito,Arial,Helvetica,SansSerif" font-size="12.5" font-weight="bold" lengthAdjust="spacing" textLength="106.25" x="426.0417" y="185.5794">BaseComponent</text><line style="stroke:#5E5E5E;stroke-width:1.0416666666666667;" x1="395.8333" x2="537.5" y1="196.5495" y2="196.5495"/><line style="stroke:#5E5E5E;stroke-width:1.0416666666666667;" x1="395.8333" x2="537.5" y1="204.8828" y2="204.8828"/><!--MD5=[762aa3d0df6a9d47bd8e105afbd066b5]
class BaseRepeater--><rect codeLine="7" fill="#282828" height="48.055" id="BaseRepeater" rx="8.3333" ry="8.3333" style="stroke:#5E5E5E;stroke-width:1.0416666666666667;" width="123.9583" x="327.6042" y="53.7028"/><rect fill="#1B1B1A" height="31.3883" rx="8.3333" ry="8.3333" style="stroke:#1B1B1A;stroke-width:1.0416666666666667;" width="123.9583" x="327.6042" y="53.7028"/><rect fill="#1B1B1A" height="8.3333" style="stroke:#1B1B1A;stroke-width:1.0416666666666667;" width="123.9583" x="327.6042" y="76.7578"/><rect codeLine="7" fill="none" height="48.055" id="BaseRepeater" rx="8.3333" ry="8.3333" style="stroke:#5E5E5E;stroke-width:1.0416666666666667;" width="123.9583" x="327.6042" y="53.7028"/><ellipse cx="342.1875" cy="69.397" fill="#C8AC00" rx="10.4167" ry="10.4167" style="stroke:#D8BC00;stroke-width:1.0416666666666667;"/><path d="M342.3014,66.099 L341.453,69.8283 L343.1559,69.8283 Z M341.2028,64.4511 L343.4062,64.4511 L345.8659,73.5636 L344.0653,73.5636 L343.5038,71.3114 L341.0929,71.3114 L340.5436,73.5636 L338.7431,73.5636 Z " fill="#000000"/><text fill="#D8BC00" font-family="Open Sans,Avenir,Nunito,Arial,Helvetica,SansSerif" font-size="12.5" font-style="italic" font-weight="bold" lengthAdjust="spacing" textLength="86.4583" x="358.8542" y="74.1211">BaseRepeater</text><line style="stroke:#5E5E5E;stroke-width:1.0416666666666667;" x1="328.6458" x2="450.5208" y1="85.0911" y2="85.0911"/><line style="stroke:#5E5E5E;stroke-width:1.0416666666666667;" x1="328.6458" x2="450.5208" y1="93.4245" y2="93.4245"/><!--MD5=[7c5c88a606935469d5f89b0b5794816c]
class Named--><rect codeLine="9" fill="#282828" height="48.055" id="Named" rx="8.3333" ry="8.3333" style="stroke:#5E5E5E;stroke-width:1.0416666666666667;" width="82.2917" x="68.2292" y="165.1611"/><rect fill="#1B1B1A" height="31.3883" rx="8.3333" ry="8.3333" style="stroke:#1B1B1A;stroke-width:1.0416666666666667;" width="82.2917" x="68.2292" y="165.1611"/><rect fill="#1B1B1A" height="8.3333" style="stroke:#1B1B1A;stroke-width:1.0416666666666667;" width="82.2917" x="68.2292" y="188.2161"/><rect codeLine="9" fill="none" height="48.055" id="Named" rx="8.3333" ry="8.3333" style="stroke:#5E5E5E;stroke-width:1.0416666666666667;" width="82.2917" x="68.2292" y="165.1611"/><ellipse cx="82.8125" cy="180.8553" fill="#008400" rx="10.4167" ry="10.4167" style="stroke:#239C23;stroke-width:1.0416666666666667;"/><path d="M79.6956,178.0172 L79.6956,176.4303 L85.1217,176.4303 L85.1217,178.0172 L83.3089,178.0172 L83.3089,183.9559 L85.1217,183.9559 L85.1217,185.5428 L79.6956,185.5428 L79.6956,183.9559 L81.5084,183.9559 L81.5084,178.0172 Z " fill="#000000"/><text fill="#D8BC00" font-family="Open Sans,Avenir,Nunito,Arial,Helvetica,SansSerif" font-size="12.5" font-style="italic" font-weight="bold" lengthAdjust="spacing" textLength="44.7917" x="99.4792" y="185.5794">Named</text><line style="stroke:#5E5E5E;stroke-width:1.0416666666666667;" x1="69.2708" x2="149.4792" y1="196.5495" y2="196.5495"/><line style="stroke:#5E5E5E;stroke-width:1.0416666666666667;" x1="69.2708" x2="149.4792" y1="204.8828" y2="204.8828"/><!--MD5=[519332a4f3f530adde82cf76cbb857a2]
class ApplicationMetadata--><rect codeLine="10" fill="#282828" height="48.055" id="ApplicationMetadata" rx="8.3333" ry="8.3333" style="stroke:#5E5E5E;stroke-width:1.0416666666666667;" width="170.8333" x="187.5" y="165.1611"/><rect fill="#1B1B1A" height="31.3883" rx="8.3333" ry="8.3333" style="stroke:#1B1B1A;stroke-width:1.0416666666666667;" width="170.8333" x="187.5" y="165.1611"/><rect fill="#1B1B1A" height="8.3333" style="stroke:#1B1B1A;stroke-width:1.0416666666666667;" width="170.8333" x="187.5" y="188.2161"/><rect codeLine="10" fill="none" height="48.055" id="ApplicationMetadata" rx="8.3333" ry="8.3333" style="stroke:#5E5E5E;stroke-width:1.0416666666666667;" width="170.8333" x="187.5" y="165.1611"/><ellipse cx="202.0833" cy="180.8553" fill="#008400" rx="10.4167" ry="10.4167" style="stroke:#239C23;stroke-width:1.0416666666666667;"/><path d="M198.9665,178.0172 L198.9665,176.4303 L204.3925,176.4303 L204.3925,178.0172 L202.5798,178.0172 L202.5798,183.9559 L204.3925,183.9559 L204.3925,185.5428 L198.9665,185.5428 L198.9665,183.9559 L200.7792,183.9559 L200.7792,178.0172 Z " fill="#000000"/><text fill="#D8BC00" font-family="Open Sans,Avenir,Nunito,Arial,Helvetica,SansSerif" font-size="12.5" font-style="italic" font-weight="bold" lengthAdjust="spacing" textLength="133.3333" x="218.75" y="185.5794">ApplicationMetadata</text><line style="stroke:#5E5E5E;stroke-width:1.0416666666666667;" x1="188.5417" x2="357.2917" y1="196.5495" y2="196.5495"/><line style="stroke:#5E5E5E;stroke-width:1.0416666666666667;" x1="188.5417" x2="357.2917" y1="204.8828" y2="204.8828"/><!--MD5=[4e13963c9dc916a21a8436ef39422b32]
class Component--><rect codeLine="11" fill="#282828" height="48.055" id="Component" rx="8.3333" ry="8.3333" style="stroke:#5E5E5E;stroke-width:1.0416666666666667;" width="113.5417" x="488.0208" y="53.7028"/><rect fill="#1B1B1A" height="31.3883" rx="8.3333" ry="8.3333" style="stroke:#1B1B1A;stroke-width:1.0416666666666667;" width="113.5417" x="488.0208" y="53.7028"/><rect fill="#1B1B1A" height="8.3333" style="stroke:#1B1B1A;stroke-width:1.0416666666666667;" width="113.5417" x="488.0208" y="76.7578"/><rect codeLine="11" fill="none" height="48.055" id="Component" rx="8.3333" ry="8.3333" style="stroke:#5E5E5E;stroke-width:1.0416666666666667;" width="113.5417" x="488.0208" y="53.7028"/><ellipse cx="502.6042" cy="69.397" fill="#008400" rx="10.4167" ry="10.4167" style="stroke:#239C23;stroke-width:1.0416666666666667;"/><path d="M499.4873,66.5588 L499.4873,64.9719 L504.9133,64.9719 L504.9133,66.5588 L503.1006,66.5588 L503.1006,72.4976 L504.9133,72.4976 L504.9133,74.0845 L499.4873,74.0845 L499.4873,72.4976 L501.3,72.4976 L501.3,66.5588 Z " fill="#000000"/><text fill="#D8BC00" font-family="Open Sans,Avenir,Nunito,Arial,Helvetica,SansSerif" font-size="12.5" font-style="italic" font-weight="bold" lengthAdjust="spacing" textLength="76.0417" x="519.2708" y="74.1211">Component</text><line style="stroke:#5E5E5E;stroke-width:1.0416666666666667;" x1="489.0625" x2="600.5208" y1="85.0911" y2="85.0911"/><line style="stroke:#5E5E5E;stroke-width:1.0416666666666667;" x1="489.0625" x2="600.5208" y1="93.4245" y2="93.4245"/><!--MD5=[0b4e4b4980470ea387cc45de9bd14b5b]
class Application--><rect codeLine="20" fill="#282828" height="542.7653" id="Application" rx="8.3333" ry="8.3333" style="stroke:#5E5E5E;stroke-width:1.0416666666666667;" width="293.75" x="126.0417" y="276.6195"/><rect fill="#1B1B1A" height="31.3883" rx="8.3333" ry="8.3333" style="stroke:#1B1B1A;stroke-width:1.0416666666666667;" width="293.75" x="126.0417" y="276.6195"/><rect fill="#1B1B1A" height="8.3333" style="stroke:#1B1B1A;stroke-width:1.0416666666666667;" width="293.75" x="126.0417" y="299.6745"/><rect codeLine="20" fill="none" height="542.7653" id="Application" rx="8.3333" ry="8.3333" style="stroke:#5E5E5E;stroke-width:1.0416666666666667;" width="293.75" x="126.0417" y="276.6195"/><ellipse cx="228.6458" cy="292.3136" fill="#C8AC00" rx="10.4167" ry="10.4167" style="stroke:#D8BC00;stroke-width:1.0416666666666667;"/><path d="M228.7598,289.0157 L227.9114,292.745 L229.6143,292.745 Z M227.6611,287.3678 L229.8645,287.3678 L232.3242,296.4803 L230.5237,296.4803 L229.9622,294.2281 L227.5513,294.2281 L227.002,296.4803 L225.2014,296.4803 Z " fill="#000000"/><text fill="#D8BC00" font-family="Open Sans,Avenir,Nunito,Arial,Helvetica,SansSerif" font-size="12.5" font-style="italic" font-weight="bold" lengthAdjust="spacing" textLength="73.9583" x="251.5625" y="297.0378">Application</text><line style="stroke:#5E5E5E;stroke-width:1.5625;" x1="127.0833" x2="418.75" y1="308.0078" y2="308.0078"/><polygon fill="#FFFF44" points="137.5,338.1694,141.6667,342.336,137.5,346.5027,133.3333,342.336" style="stroke:#B38D22;stroke-width:1.0416666666666667;"/><text fill="#D8BC00" font-family="Open Sans,Avenir,Nunito,Arial,Helvetica,SansSerif" font-size="11.4583" lengthAdjust="spacing" textLength="110.4167" x="148.9583" y="350.2889">Application(Project)</text><line style="stroke:#5E5E5E;stroke-width:1.0416666666666667;" x1="127.0833" x2="229.1667" y1="326.2136" y2="326.2136"/><text fill="#D8BC00" font-family="Open Sans,Avenir,Nunito,Arial,Helvetica,SansSerif" font-size="11.4583" lengthAdjust="spacing" textLength="81.25" x="232.2917" y="330.0232">(constructors)</text><line style="stroke:#5E5E5E;stroke-width:1.0416666666666667;" x1="316.6667" x2="418.75" y1="326.2136" y2="326.2136"/><line style="stroke:#5E5E5E;stroke-width:1.0416666666666667;" x1="127.0833" x2="418.75" y1="359.9976" y2="359.9976"/><ellipse cx="137.5" cy="371.4559" fill="#84BE84" rx="3.125" ry="3.125" style="stroke:#038048;stroke-width:1.0416666666666667;"/><text fill="#D8BC00" font-family="Open Sans,Avenir,Nunito,Arial,Helvetica,SansSerif" font-size="11.4583" lengthAdjust="spacing" textLength="92.7083" x="148.9583" y="378.3671">Application get()</text><ellipse cx="137.5" cy="391.2008" fill="#84BE84" rx="3.125" ry="3.125" style="stroke:#038048;stroke-width:1.0416666666666667;"/><text fill="#D8BC00" font-family="Open Sans,Avenir,Nunito,Arial,Helvetica,SansSerif" font-size="11.4583" lengthAdjust="spacing" textLength="89.5833" x="148.9583" y="398.112">Project project()</text><ellipse cx="137.5" cy="434.8572" fill="#84BE84" rx="3.125" ry="3.125" style="stroke:#038048;stroke-width:1.0416666666666667;"/><text fill="#D8BC00" font-family="Open Sans,Avenir,Nunito,Arial,Helvetica,SansSerif" font-size="11.4583" lengthAdjust="spacing" textLength="223.9583" x="148.9583" y="441.7684">PropertyMap localizedProperties(Locale)</text><ellipse cx="137.5" cy="454.6021" fill="#84BE84" rx="3.125" ry="3.125" style="stroke:#038048;stroke-width:1.0416666666666667;"/><text fill="#D8BC00" font-family="Open Sans,Avenir,Nunito,Arial,Helvetica,SansSerif" font-size="11.4583" lengthAdjust="spacing" textLength="189.5833" x="148.9583" y="461.5133">VariableMap&lt;String&gt; properties()</text><line style="stroke:#5E5E5E;stroke-width:1.0416666666666667;" x1="127.0833" x2="238.5417" y1="417.6931" y2="417.6931"/><text fill="#D8BC00" font-family="Open Sans,Avenir,Nunito,Arial,Helvetica,SansSerif" font-size="11.4583" lengthAdjust="spacing" textLength="62.5" x="241.6667" y="421.5027">(collection)</text><line style="stroke:#5E5E5E;stroke-width:1.0416666666666667;" x1="307.2917" x2="418.75" y1="417.6931" y2="417.6931"/><ellipse cx="137.5" cy="498.2585" fill="#84BE84" rx="3.125" ry="3.125" style="stroke:#038048;stroke-width:1.0416666666666667;"/><text fill="#D8BC00" font-family="Open Sans,Avenir,Nunito,Arial,Helvetica,SansSerif" font-size="11.4583" lengthAdjust="spacing" textLength="245.8333" x="148.9583" y="505.1697">T argument(int index, ArgumentParser&lt;T&gt;)</text><ellipse cx="137.5" cy="518.0033" fill="#84BE84" rx="3.125" ry="3.125" style="stroke:#038048;stroke-width:1.0416666666666667;"/><text fill="#D8BC00" font-family="Open Sans,Avenir,Nunito,Arial,Helvetica,SansSerif" font-size="11.4583" lengthAdjust="spacing" textLength="190.625" x="148.9583" y="524.9146">T argument(ArgumentParser&lt;T&gt;)</text><ellipse cx="137.5" cy="537.7482" fill="#84BE84" rx="3.125" ry="3.125" style="stroke:#038048;stroke-width:1.0416666666666667;"/><text fill="#D8BC00" font-family="Open Sans,Avenir,Nunito,Arial,Helvetica,SansSerif" font-size="11.4583" lengthAdjust="spacing" textLength="147.9167" x="148.9583" y="544.6594">ArgumentList arguments()</text><ellipse cx="137.5" cy="557.4931" fill="#84BE84" rx="3.125" ry="3.125" style="stroke:#038048;stroke-width:1.0416666666666667;"/><text fill="#D8BC00" font-family="Open Sans,Avenir,Nunito,Arial,Helvetica,SansSerif" font-size="11.4583" lengthAdjust="spacing" textLength="169.7917" x="148.9583" y="564.4043">CommandLine commandLine()</text><ellipse cx="137.5" cy="577.238" fill="#84BE84" rx="3.125" ry="3.125" style="stroke:#038048;stroke-width:1.0416666666666667;"/><text fill="#D8BC00" font-family="Open Sans,Avenir,Nunito,Arial,Helvetica,SansSerif" font-size="11.4583" lengthAdjust="spacing" textLength="244.7917" x="148.9583" y="584.1492">String commandLineDescription(String title)</text><ellipse cx="137.5" cy="596.9828" fill="#84BE84" rx="3.125" ry="3.125" style="stroke:#038048;stroke-width:1.0416666666666667;"/><text fill="#D8BC00" font-family="Open Sans,Avenir,Nunito,Arial,Helvetica,SansSerif" font-size="11.4583" lengthAdjust="spacing" textLength="218.75" x="148.9583" y="603.894">T get(SwitchParser&lt;T&gt;, T defaultValue)</text><ellipse cx="137.5" cy="616.7277" fill="#84BE84" rx="3.125" ry="3.125" style="stroke:#038048;stroke-width:1.0416666666666667;"/><text fill="#D8BC00" font-family="Open Sans,Avenir,Nunito,Arial,Helvetica,SansSerif" font-size="11.4583" lengthAdjust="spacing" textLength="133.3333" x="148.9583" y="623.6389">T get(SwitchParser&lt;T&gt;)</text><ellipse cx="137.5" cy="636.4726" fill="#84BE84" rx="3.125" ry="3.125" style="stroke:#038048;stroke-width:1.0416666666666667;"/><text fill="#D8BC00" font-family="Open Sans,Avenir,Nunito,Arial,Helvetica,SansSerif" font-size="11.4583" lengthAdjust="spacing" textLength="172.9167" x="148.9583" y="643.3838">boolean has(SwitchParser&lt;T&gt;)</text><polygon fill="#FFFF44" points="137.5,651.0091,141.6667,655.1758,137.5,659.3424,133.3333,655.1758" style="stroke:#B38D22;stroke-width:1.0416666666666667;"/><text fill="#D8BC00" font-family="Open Sans,Avenir,Nunito,Arial,Helvetica,SansSerif" font-size="11.4583" lengthAdjust="spacing" textLength="261.4583" x="148.9583" y="663.1287">List&lt;ArgumentParser&lt;?&gt;&gt; argumentParsers()</text><polygon fill="#FFFF44" points="137.5,670.754,141.6667,674.9207,137.5,679.0873,133.3333,674.9207" style="stroke:#B38D22;stroke-width:1.0416666666666667;"/><text fill="#D8BC00" font-family="Open Sans,Avenir,Nunito,Arial,Helvetica,SansSerif" font-size="11.4583" lengthAdjust="spacing" textLength="218.75" x="148.9583" y="682.8735">Set&lt;SwitchParser&lt;?&gt;&gt; switchParsers()</text><line style="stroke:#5E5E5E;stroke-width:1.0416666666666667;" x1="127.0833" x2="203.6458" y1="481.0944" y2="481.0944"/><text fill="#D8BC00" font-family="Open Sans,Avenir,Nunito,Arial,Helvetica,SansSerif" font-size="11.4583" lengthAdjust="spacing" textLength="132.2917" x="206.7708" y="484.904">(command line parsing)</text><line style="stroke:#5E5E5E;stroke-width:1.0416666666666667;" x1="342.1875" x2="418.75" y1="481.0944" y2="481.0944"/><ellipse cx="137.5" cy="719.6187" fill="#84BE84" rx="3.125" ry="3.125" style="stroke:#038048;stroke-width:1.0416666666666667;"/><text fill="#D8BC00" font-family="Open Sans,Avenir,Nunito,Arial,Helvetica,SansSerif" font-size="11.4583" lengthAdjust="spacing" textLength="111.4583" x="148.9583" y="726.5299">Identifier identifier()</text><line style="stroke:#5E5E5E;stroke-width:1.0416666666666667;" x1="127.0833" x2="244.7917" y1="702.4546" y2="702.4546"/><text fill="#D8BC00" font-family="Open Sans,Avenir,Nunito,Arial,Helvetica,SansSerif" font-size="11.4583" lengthAdjust="spacing" textLength="50" x="247.9167" y="706.2642">(identity)</text><line style="stroke:#5E5E5E;stroke-width:1.0416666666666667;" x1="301.0417" x2="418.75" y1="702.4546" y2="702.4546"/><ellipse cx="137.5" cy="763.2751" fill="#84BE84" rx="3.125" ry="3.125" style="stroke:#038048;stroke-width:1.0416666666666667;"/><text fill="#D8BC00" font-family="Open Sans,Avenir,Nunito,Arial,Helvetica,SansSerif" font-size="11.4583" lengthAdjust="spacing" textLength="257.2917" x="148.9583" y="770.1864">void exit(String message, Object... arguments)</text><ellipse cx="137.5" cy="783.02" fill="#84BE84" rx="3.125" ry="3.125" style="stroke:#038048;stroke-width:1.0416666666666667;"/><text fill="#D8BC00" font-family="Open Sans,Avenir,Nunito,Arial,Helvetica,SansSerif" font-size="11.4583" lengthAdjust="spacing" textLength="160.4167" x="148.9583" y="789.9312">void run(String[] arguments)</text><polygon fill="#FFFF44" points="137.5,797.5566,141.6667,801.7232,137.5,805.8899,133.3333,801.7232" style="stroke:#B38D22;stroke-width:1.0416666666666667;"/><text fill="#D8BC00" font-family="Open Sans,Avenir,Nunito,Arial,Helvetica,SansSerif" font-size="11.4583" lengthAdjust="spacing" textLength="71.875" x="148.9583" y="809.6761">void onRun()</text><line style="stroke:#5E5E5E;stroke-width:1.0416666666666667;" x1="127.0833" x2="243.2292" y1="746.111" y2="746.111"/><text fill="#D8BC00" font-family="Open Sans,Avenir,Nunito,Arial,Helvetica,SansSerif" font-size="11.4583" lengthAdjust="spacing" textLength="53.125" x="246.3542" y="749.9207">(lifecycle)</text><line style="stroke:#5E5E5E;stroke-width:1.0416666666666667;" x1="302.6042" x2="418.75" y1="746.111" y2="746.111"/><!--MD5=[01ddbad09f57ba5a31d4acd41c5f2c68]
class CommandLine--><rect fill="#282828" height="48.055" id="CommandLine" rx="8.3333" ry="8.3333" style="stroke:#5E5E5E;stroke-width:1.0416666666666667;" width="131.25" x="7.2917" y="932.3486"/><rect fill="#1B1B1A" height="31.3883" rx="8.3333" ry="8.3333" style="stroke:#1B1B1A;stroke-width:1.0416666666666667;" width="131.25" x="7.2917" y="932.3486"/><rect fill="#1B1B1A" height="8.3333" style="stroke:#1B1B1A;stroke-width:1.0416666666666667;" width="131.25" x="7.2917" y="955.4036"/><rect fill="none" height="48.055" id="CommandLine" rx="8.3333" ry="8.3333" style="stroke:#5E5E5E;stroke-width:1.0416666666666667;" width="131.25" x="7.2917" y="932.3486"/><ellipse cx="21.875" cy="948.0428" fill="#0066CF" rx="10.4167" ry="10.4167" style="stroke:#0086EF;stroke-width:1.0416666666666667;"/><path d="M23.7854,952.4679 Q23.3582,952.6876 22.8882,952.7974 Q22.4182,952.9073 21.8994,952.9073 Q20.0562,952.9073 19.0857,951.6927 Q18.1152,950.4781 18.1152,948.1832 Q18.1152,945.8822 19.0857,944.6676 Q20.0562,943.453 21.8994,943.453 Q22.4182,943.453 22.8943,943.5628 Q23.3704,943.6727 23.7854,943.8924 L23.7854,945.8944 Q23.3215,945.4671 22.8851,945.2688 Q22.4487,945.0704 21.9849,945.0704 Q20.9961,945.0704 20.4926,945.8547 Q19.989,946.639 19.989,948.1832 Q19.989,949.7213 20.4926,950.5056 Q20.9961,951.2899 21.9849,951.2899 Q22.4487,951.2899 22.8851,951.0915 Q23.3215,950.8931 23.7854,950.4659 Z " fill="#000000"/><text fill="#D8BC00" font-family="Open Sans,Avenir,Nunito,Arial,Helvetica,SansSerif" font-size="12.5" font-weight="bold" lengthAdjust="spacing" textLength="93.75" x="38.5417" y="952.7669">CommandLine</text><line style="stroke:#5E5E5E;stroke-width:1.0416666666666667;" x1="8.3333" x2="137.5" y1="963.737" y2="963.737"/><line style="stroke:#5E5E5E;stroke-width:1.0416666666666667;" x1="8.3333" x2="137.5" y1="972.0703" y2="972.0703"/><!--MD5=[abd2b33cbe76a7d5b252fb16a914e838]
class Application.Identifier--><rect codeLine="55" fill="#282828" height="103.123" id="Application.Identifier" rx="8.3333" ry="8.3333" style="stroke:#5E5E5E;stroke-width:1.0416666666666667;" width="123.9583" x="208.8542" y="904.7445"/><rect fill="#1B1B1A" height="31.3883" rx="8.3333" ry="8.3333" style="stroke:#1B1B1A;stroke-width:1.0416666666666667;" width="123.9583" x="208.8542" y="904.7445"/><rect fill="#1B1B1A" height="8.3333" style="stroke:#1B1B1A;stroke-width:1.0416666666666667;" width="123.9583" x="208.8542" y="927.7995"/><rect codeLine="55" fill="none" height="103.123" id="Application.Identifier" rx="8.3333" ry="8.3333" style="stroke:#5E5E5E;stroke-width:1.0416666666666667;" width="123.9583" x="208.8542" y="904.7445"/><ellipse cx="235.625" cy="920.4386" fill="#0066CF" rx="10.4167" ry="10.4167" style="stroke:#0086EF;stroke-width:1.0416666666666667;"/><path d="M237.5354,924.8637 Q237.1082,925.0834 236.6382,925.1933 Q236.1682,925.3031 235.6494,925.3031 Q233.8062,925.3031 232.8357,924.0885 Q231.8652,922.8739 231.8652,920.579 Q231.8652,918.278 232.8357,917.0634 Q233.8062,915.8488 235.6494,915.8488 Q236.1682,915.8488 236.6443,915.9587 Q237.1204,916.0685 237.5354,916.2882 L237.5354,918.2902 Q237.0715,917.863 236.6351,917.6646 Q236.1987,917.4662 235.7349,917.4662 Q234.7461,917.4662 234.2426,918.2505 Q233.739,919.0348 233.739,920.579 Q233.739,922.1171 234.2426,922.9014 Q234.7461,923.6857 235.7349,923.6857 Q236.1987,923.6857 236.6351,923.4873 Q237.0715,923.289 237.5354,922.8617 Z " fill="#000000"/><text fill="#D8BC00" font-family="Open Sans,Avenir,Nunito,Arial,Helvetica,SansSerif" font-size="12.5" font-weight="bold" lengthAdjust="spacing" textLength="59.375" x="255" y="925.1628">Identifier</text><line style="stroke:#5E5E5E;stroke-width:1.5625;" x1="209.8958" x2="331.7708" y1="936.1328" y2="936.1328"/><polygon fill="#FFFF44" points="220.3125,966.2944,224.4792,970.461,220.3125,974.6277,216.1458,970.461" style="stroke:#B38D22;stroke-width:1.0416666666666667;"/><text fill="#D8BC00" font-family="Open Sans,Avenir,Nunito,Arial,Helvetica,SansSerif" font-size="11.4583" lengthAdjust="spacing" textLength="58.3333" x="231.7708" y="978.4139">Identifier()</text><ellipse cx="220.3125" cy="991.2476" fill="#84BE84" rx="3.125" ry="3.125" style="stroke:#038048;stroke-width:1.0416666666666667;"/><text fill="#D8BC00" font-family="Open Sans,Avenir,Nunito,Arial,Helvetica,SansSerif" font-size="11.4583" lengthAdjust="spacing" textLength="91.6667" x="231.7708" y="998.1588">Identifier(String)</text><line style="stroke:#5E5E5E;stroke-width:1.0416666666666667;" x1="209.8958" x2="227.0833" y1="954.3386" y2="954.3386"/><text fill="#D8BC00" font-family="Open Sans,Avenir,Nunito,Arial,Helvetica,SansSerif" font-size="11.4583" lengthAdjust="spacing" textLength="81.25" x="230.2083" y="958.1482">(constructors)</text><line style="stroke:#5E5E5E;stroke-width:1.0416666666666667;" x1="314.5833" x2="331.7708" y1="954.3386" y2="954.3386"/><!--MD5=[79d378210367c0c6ec62ef762ddfbd1b]
class Project--><rect fill="#282828" height="48.055" id="Project" rx="8.3333" ry="8.3333" style="stroke:#5E5E5E;stroke-width:1.0416666666666667;" width="81.25" x="369.7917" y="932.3486"/><rect fill="#1B1B1A" height="31.3883" rx="8.3333" ry="8.3333" style="stroke:#1B1B1A;stroke-width:1.0416666666666667;" width="81.25" x="369.7917" y="932.3486"/><rect fill="#1B1B1A" height="8.3333" style="stroke:#1B1B1A;stroke-width:1.0416666666666667;" width="81.25" x="369.7917" y="955.4036"/><rect fill="none" height="48.055" id="Project" rx="8.3333" ry="8.3333" style="stroke:#5E5E5E;stroke-width:1.0416666666666667;" width="81.25" x="369.7917" y="932.3486"/><ellipse cx="384.375" cy="948.0428" fill="#0066CF" rx="10.4167" ry="10.4167" style="stroke:#0086EF;stroke-width:1.0416666666666667;"/><path d="M386.2854,952.4679 Q385.8582,952.6876 385.3882,952.7974 Q384.9182,952.9073 384.3994,952.9073 Q382.5562,952.9073 381.5857,951.6927 Q380.6152,950.4781 380.6152,948.1832 Q380.6152,945.8822 381.5857,944.6676 Q382.5562,943.453 384.3994,943.453 Q384.9182,943.453 385.3943,943.5628 Q385.8704,943.6727 386.2854,943.8924 L386.2854,945.8944 Q385.8215,945.4671 385.3851,945.2688 Q384.9487,945.0704 384.4849,945.0704 Q383.4961,945.0704 382.9926,945.8547 Q382.489,946.639 382.489,948.1832 Q382.489,949.7213 382.9926,950.5056 Q383.4961,951.2899 384.4849,951.2899 Q384.9487,951.2899 385.3851,951.0915 Q385.8215,950.8931 386.2854,950.4659 Z " fill="#000000"/><text fill="#D8BC00" font-family="Open Sans,Avenir,Nunito,Arial,Helvetica,SansSerif" font-size="12.5" font-weight="bold" lengthAdjust="spacing" textLength="43.75" x="401.0417" y="952.7669">Project</text><line style="stroke:#5E5E5E;stroke-width:1.0416666666666667;" x1="370.8333" x2="450" y1="963.737" y2="963.737"/><line style="stroke:#5E5E5E;stroke-width:1.0416666666666667;" x1="370.8333" x2="450" y1="972.0703" y2="972.0703"/><!--MD5=[c60af77fe5573b84a4aa4bce89659574]
class Server--><rect codeLine="63" fill="#282828" height="83.3781" id="Server" rx="8.3333" ry="8.3333" style="stroke:#5E5E5E;stroke-width:1.0416666666666667;" width="114.5833" x="509.375" y="914.6403"/><rect fill="#1B1B1A" height="31.3883" rx="8.3333" ry="8.3333" style="stroke:#1B1B1A;stroke-width:1.0416666666666667;" width="114.5833" x="509.375" y="914.6403"/><rect fill="#1B1B1A" height="8.3333" style="stroke:#1B1B1A;stroke-width:1.0416666666666667;" width="114.5833" x="509.375" y="937.6953"/><rect codeLine="63" fill="none" height="83.3781" id="Server" rx="8.3333" ry="8.3333" style="stroke:#5E5E5E;stroke-width:1.0416666666666667;" width="114.5833" x="509.375" y="914.6403"/><ellipse cx="540.8333" cy="930.3345" fill="#C8AC00" rx="10.4167" ry="10.4167" style="stroke:#D8BC00;stroke-width:1.0416666666666667;"/><path d="M540.9473,927.0365 L540.0989,930.7658 L541.8018,930.7658 Z M539.8486,925.3886 L542.052,925.3886 L544.5117,934.5011 L542.7112,934.5011 L542.1497,932.2489 L539.7388,932.2489 L539.1895,934.5011 L537.3889,934.5011 Z " fill="#000000"/><text fill="#D8BC00" font-family="Open Sans,Avenir,Nunito,Arial,Helvetica,SansSerif" font-size="12.5" font-style="italic" font-weight="bold" lengthAdjust="spacing" textLength="39.5833" x="561.25" y="935.0586">Server</text><line style="stroke:#5E5E5E;stroke-width:1.5625;" x1="510.4167" x2="622.9167" y1="946.0286" y2="946.0286"/><polygon fill="#FFFF44" points="520.8333,976.1902,525,980.3569,520.8333,984.5235,516.6667,980.3569" style="stroke:#B38D22;stroke-width:1.0416666666666667;"/><text fill="#D8BC00" font-family="Open Sans,Avenir,Nunito,Arial,Helvetica,SansSerif" font-size="11.4583" lengthAdjust="spacing" textLength="82.2917" x="532.2917" y="988.3097">Server(Project)</text><line style="stroke:#5E5E5E;stroke-width:1.0416666666666667;" x1="510.4167" x2="522.9167" y1="964.2344" y2="964.2344"/><text fill="#D8BC00" font-family="Open Sans,Avenir,Nunito,Arial,Helvetica,SansSerif" font-size="11.4583" lengthAdjust="spacing" textLength="81.25" x="526.0417" y="968.044">(constructors)</text><line style="stroke:#5E5E5E;stroke-width:1.0416666666666667;" x1="610.4167" x2="622.9167" y1="964.2344" y2="964.2344"/><!--MD5=[a30c1c0abb2b3468dcadb4c69ba14358]
reverse link BaseComponent to Application--><path codeLine="13" d="M443.9896,231.9215 C437.0313,244.734 428.8021,259.8799 419.7813,276.5049 " fill="none" id="BaseComponent-backto-Application" style="stroke:#545454;stroke-width:1.5625;"/><polygon fill="none" points="437.75,228.1195,454.1042,213.2965,450.5729,235.0778,437.75,228.1195" style="stroke:#545454;stroke-width:1.5625;"/><!--MD5=[21fa328b5f3c70ad4461c6a808642149]
reverse link Named to Application--><path codeLine="14" d="M128.7292,232.3903 C134.5625,245.0986 141.4271,260.0778 148.9479,276.5049 " fill="none" id="Named-backto-Application" style="stroke:#545454;stroke-width:1.5625;"/><polygon fill="none" points="122.0313,235.2757,119.9792,213.2965,135.2917,229.1924,122.0313,235.2757" style="stroke:#545454;stroke-width:1.5625;"/><!--MD5=[5ee97d74254ee325145334d5b2fb76f7]
reverse link ApplicationMetadata to Application--><path codeLine="15" d="M272.9167,234.2653 C272.9167,246.5674 272.9167,260.8799 272.9167,276.5049 " fill="none" id="ApplicationMetadata-backto-Application" style="stroke:#545454;stroke-width:1.5625;"/><polygon fill="none" points="265.625,234.1299,272.9167,213.2965,280.2083,234.1299,265.625,234.1299" style="stroke:#545454;stroke-width:1.5625;"/><!--MD5=[59bf9d08f075bfee4ec5b6b11533c27b]
link Application to CommandLine--><path codeLine="16" d="M125.7396,691.4736 C87.0833,738.1195 50.5313,792.9007 30.2083,850.5778 C20.8229,877.1924 35.4583,906.932 50.0833,927.8903 " fill="none" id="Application-to-CommandLine" style="stroke:#545454;stroke-width:1.5625;"/><polygon fill="#545454" points="53.1979,932.234,51.1126,922.189,50.1594,928.0039,44.3444,927.0507,53.1979,932.234" style="stroke:#545454;stroke-width:1.5625;"/><text fill="#A0A0A0" font-family="Open Sans,Avenir,Nunito,Arial,Helvetica,SansSerif" font-size="12.5" font-weight="bold" lengthAdjust="spacing" textLength="146.875" x="34.375" y="866.8294">parses arguments into</text><!--MD5=[1985cd7ac1f2399affd188b45b25cb67]
reverse link Application to CommandLine--><path codeLine="19" d="M213.8958,831.8799 C206.6979,846.432 198.6354,860.4215 189.5833,873.4945 C172.2708,898.5153 144.6563,918.359 120.6458,932.2445 " fill="none" id="Application-backto-CommandLine" style="stroke:#545454;stroke-width:1.5625;"/><polygon fill="#333333" points="219.7292,819.5361,213.2913,823.4062,214.3875,830.8373,220.8254,826.9673,219.7292,819.5361" style="stroke:#545454;stroke-width:1.5625;"/><!--MD5=[bebdf80a9a29b613a329c03d2d02d98b]
link Application to Application.Identifier--><path codeLine="17" d="M271.5313,819.4215 C271.375,849.1715 271.2396,876.7445 271.125,899.1715 " fill="none" id="Application-to-Application.Identifier" style="stroke:#545454;stroke-width:1.5625;"/><polygon fill="#545454" points="271.0938,904.4632,275.3139,895.1122,271.1235,899.255,266.9807,895.0646,271.0938,904.4632" style="stroke:#545454;stroke-width:1.5625;"/><text fill="#A0A0A0" font-family="Open Sans,Avenir,Nunito,Arial,Helvetica,SansSerif" font-size="12.5" font-weight="bold" lengthAdjust="spacing" textLength="82.2917" x="276.0417" y="866.8294">identified by</text><!--MD5=[fb387075a745eddf5de196855bddae14]
reverse link Application to Project--><path codeLine="18" d="M368.8333,832.4215 C382.8333,873.7757 395.0417,909.8382 402.5417,932.0049 " fill="none" id="Application-backto-Project" style="stroke:#545454;stroke-width:1.5625;"/><polygon fill="#333333" points="364.4375,819.4215,362.4964,826.678,368.448,831.2607,370.3891,824.0043,364.4375,819.4215" style="stroke:#545454;stroke-width:1.5625;"/><text fill="#A0A0A0" font-family="Open Sans,Avenir,Nunito,Arial,Helvetica,SansSerif" font-size="12.5" font-weight="bold" lengthAdjust="spacing" textLength="126.0417" x="385.4167" y="866.8294">initializes and uses</text><!--MD5=[56a06dcacdd0977d8e508d929b074a7d]
reverse link BaseRepeater to BaseComponent--><path codeLine="49" d="M417.7813,118.7132 C428.7083,134.2132 440.8229,151.4111 450.2604,164.807 " fill="none" id="BaseRepeater-backto-BaseComponent" style="stroke:#545454;stroke-width:1.5625;"/><polygon fill="none" points="411.7813,122.859,405.7396,101.6299,423.7083,114.4632,411.7813,122.859" style="stroke:#545454;stroke-width:1.5625;"/><!--MD5=[5138e1726e9722808680e9cc81e45b35]
reverse link Component to BaseComponent--><path codeLine="50" d="M516.2083,118.7132 C505.1458,134.2132 492.8542,151.4111 483.2917,164.807 " fill="none" id="Component-backto-BaseComponent" style="stroke:#545454;stroke-width:1.5625;"/><polygon fill="none" points="510.375,114.3486,528.4167,101.6299,522.2396,122.8174,510.375,114.3486" style="stroke:#545454;stroke-width:1.5625;"/><!--MD5=[8d51cd9d22b4cf83e1b4a4bcf1fa1a30]
reverse link Application to Server--><path codeLine="62" d="M433.4583,723.5882 C465.8542,763.6195 497.9167,807.2028 523.9583,850.5778 C535.9792,870.5986 546.0625,894.6299 553.3958,914.6195 " fill="none" id="Application-backto-Server" style="stroke:#545454;stroke-width:1.5625;"/><polygon fill="none" points="427.6354,727.9945,420.0625,707.2549,438.9063,718.7445,427.6354,727.9945" style="stroke:#545454;stroke-width:1.5625;"/><!--MD5=[abeb547421085c4910301555c1ec3e44]
@startuml

    !include lexakai.theme
    
    title "Applications"
    
    abstract BaseComponent
    abstract BaseRepeater
    
    interface Named
    interface ApplicationMetadata
    interface Component
    
    BaseComponent <|- - Application
    Named <|- - Application
    ApplicationMetadata <|- - Application
    Application - -> CommandLine : "parses arguments into"
    Application - -> Application.Identifier : "identified by"
    Application o- - Project : "initializes and uses"
    Application o- - CommandLine
    abstract class Application
    {
        - -(constructors)- -
        #Application(Project)
        - -
        +Application get()
        +Project project()
        - -(collection)- -
        +PropertyMap localizedProperties(Locale)
        +VariableMap<String> properties()
        - -(command line parsing)- -
        +T argument(int index, ArgumentParser<T>)
        +T argument(ArgumentParser<T>)
        +ArgumentList arguments()
        +CommandLine commandLine()
        +String commandLineDescription(String title)
        +T get(SwitchParser<T>, T defaultValue)
        +T get(SwitchParser<T>)
        +boolean has(SwitchParser<T>)
        #List<ArgumentParser<?>> argumentParsers()
        #Set<SwitchParser<?>> switchParsers()
        - -(identity)- -
        +Identifier identifier()
        - -(lifecycle)- -
        +void exit(String message, Object... arguments)
        +void run(String[] arguments)
        #void onRun()
    }
    
    BaseRepeater <|- - BaseComponent
    Component <|- - BaseComponent
    class BaseComponent
    {
    }
    
    class Application.Identifier
    {
        - -(constructors)- -
        #Identifier()
        +Identifier(String)
    }
    
    Application <|- - Server
    abstract class Server
    {
        - -(constructors)- -
        #Server(Project)
    }
    
@enduml

@startuml









skinparam backgroundColor #333333






skinparam  {
    defaultFontName   "Open Sans,Avenir,Nunito,Arial,Helvetica,SansSerif"
    defaultFontSize   12
    defaultTextAlignment left
    shadowing false
    RoundCorner 10
    TitleFontSize 18
}

skinparam defaultFontName       "Open Sans,Avenir,Nunito,Arial,Helvetica,SansSerif"
skinparam defaultFontSize       12
skinparam dpi                   100
skinparam shadowing             false
skinparam roundcorner           16
skinparam ParticipantPadding    40
skinparam BoxPadding            40
skinparam Padding               3
skinparam ArrowColor            #545454
skinparam stereotype {
    CBackgroundColor #0066cf
    CBorderColor #0086ef
    ABackgroundColor #C8Ac00
    ABorderColor #D8Bc00
    IBackgroundColor #008400
    IBorderColor #239c23
    EBackgroundColor #cf6300
    EBorderColor #ef8300
    NBackgroundColor #3380b9
    NBorderColor #004d86
}
skinparam title {
	FontColor	                 #c0c0c0
 	BorderColor                  #545454
	FontSize	    	         20
	BorderRoundCorner            16
	BorderThickness 	         1
	BackgroundColor              #48494b
}


skinparam legend {
	BackgroundColor #303030
	BorderColor #404040
	FontColor #a0a0a0
}

	skinparam swimlane {
	BorderColor #5e5e5e
	BorderThickness 2
	TitleBackgroundColor  #6d6d6d-#484848
	TitleFontColor #303030
}

skinparam activity {
		FontColor #C8Ac00
	BorderColor #333333
	BackgroundColor #333333-#333333
	BarColor #00FF00
	StartColor #0060a8
	EndColor #0060a8
	DiamondBackgroundColor #6d6d6d-#3a3a3a
  	DiamondBorderColor #3a3a3a
  	DiamondFontColor #fefefe
}


skinparam participant {
		FontColor #C8Ac00
	BorderColor #333333
	BackgroundColor #333333-#333333
	ParticipantBorderThickness 2
}


skinparam actor {
		FontColor #C8Ac00
	BorderColor #333333
	BackgroundColor #333333-#333333
}


skinparam arrow {
	Thickness 1.5
	Color #545454
	FontColor #a0a0a0
    FontStyle bold
    MessageAlignment center
}



skinparam sequence {
	BorderColor #303030
	TitleFontColor #303030
	BackgroundColor #333333
	StartColor #303030
	EndColor #303030
	BoxBackgroundColor #333333
	BoxBorderColor #484848
	BoxFontColor #484848
	LifeLineBorderColor #484848
	LifeLineBorderThickness 2
	LifeLineBackgroundColor #3a3a3a
	GroupBorderColor #484848
	GroupFontColor #484848
	GroupHeaderFontColor #0060a8
	GroupBackgroundColor #484848
	GroupHeaderBackgroundColor #333333
	DividerBackgroundColor #484848
    DividerBorderColor #484848
    DividerBorderThickness 2
    DividerFontColor #D8Bc00
	ReferenceBackgroundColor #333333
	ReferenceBorderColor #484848
	ReferenceFontColor #fefefe
	ReferenceHeaderBackgroundColor #484848
}


skinparam partition {
	BorderColor #303030
	FontColor #333333
	BackgroundColor #333333
}


skinparam collections {
		FontColor #C8Ac00
	BorderColor #333333
	BackgroundColor #333333-#333333
}


skinparam control {
		FontColor #C8Ac00
	BorderColor #333333
	BackgroundColor #333333-#333333
}


skinparam entity {
		FontColor #C8Ac00
	BorderColor #333333
	BackgroundColor #333333-#333333
}


skinparam boundary {
		FontColor #C8Ac00
	BorderColor #333333
	BackgroundColor #333333-#333333
}


skinparam agent {
	BackgroundColor #ff8000
	BorderColor #ff9933
	FontColor #484848
}


skinparam note {
	BorderThickness 1
	BackgroundColor #1b1b1a
	BorderColor #5e5e5e
	FontSize 11
	FontColor #a0a0a0
}


skinparam artifact {
	BorderThickness 10
	BorderColor #5e5e5e
	BackgroundColor #1b1b1a
	FontColor #D8Bc00
}


skinparam component {
		FontColor #C8Ac00
	BorderColor #333333
	BackgroundColor #333333-#333333
}


skinparam interface {
	BackgroundColor  #008400
	BorderColor  #007F00
	FontColor #484848
}


skinparam storage {
	BackgroundColor #ff8000
  	BorderColor #cc6600
	FontColor #222222
}


skinparam node {
	BackgroundColor #333333
	BorderColor #333333
	FontColor #C8Ac00
}


skinparam cloud {
	BackgroundColor #484848-black
	BorderColor #484848
	FontColor #D8Bc00
}


skinparam database {
		FontColor #C8Ac00
	BorderColor #333333
	BackgroundColor #333333-#333333
	BackgroundColor  #333333
}


skinparam class {
		FontColor #C8Ac00
	BorderColor #333333
	BackgroundColor #333333-#333333
	HeaderBackgroundColor #1b1b1a
    BackgroundColor #282828
    BorderColor #5e5e5e
 	StereotypeFontColor #a0a0a0
    StereotypeFontStyle bold
	BorderThickness 1
	AttributeFontColor #D8Bc00
	AttributeFontSize 11
    FontColor #D8Bc00
    FontStyle bold
}


skinparam object {
		FontColor #C8Ac00
	BorderColor #333333
	BackgroundColor #333333-#333333
	StereotypeFontColor #484848
	BorderThickness 1
	AttributeFontColor #fefefe
	AttributeFontSize 11
}


skinparam usecase {
		FontColor #C8Ac00
	BorderColor #333333
	BackgroundColor #333333-#333333
	BorderThickness 2
	StereotypeFontColor #303030
}


skinparam rectangle {
		FontColor #C8Ac00
	BorderColor #333333
	BackgroundColor #333333-#333333
	BackgroundColor #333333
	BorderThickness 2
	StereotypeFontColor #303030
}


skinparam package {
		FontColor #C8Ac00
	BorderColor #333333
	BackgroundColor #333333-#333333
	BackgroundColor #333333
	BorderThickness 2
}


skinparam folder {
	BackgroundColor #6d6d6d
  	BorderColor #ff8000
	FontColor #ff8000
	BorderThickness 2
}


skinparam frame {
	BackgroundColor #6d6d6d
  	BorderColor #0060a8
	FontColor #0060a8
	BorderThickness 2
}


skinparam state {
		FontColor #C8Ac00
	BorderColor #333333
	BackgroundColor #333333-#333333
	StartColor #0060a8
	EndColor #0060a8
	AttributeFontColor #fefefe
	AttributeFontSize 11
}


skinparam queue {
		FontColor #C8Ac00
	BorderColor #333333
	BackgroundColor #333333-#333333
}


skinparam card {
	BackgroundColor #0060a8
	BorderColor #004d86
	FontColor $INFO_TEXT
}


skinparam file {
	BackgroundColor #6d6d6d-#484848
	BorderColor #0060a8
	FontColor #fefefe
}


skinparam stack {
		FontColor #C8Ac00
	BorderColor #333333
	BackgroundColor #333333-#333333
}

    
    title "Applications"
    
    abstract BaseComponent
    abstract BaseRepeater
    
    interface Named
    interface ApplicationMetadata
    interface Component
    
    BaseComponent <|- - Application
    Named <|- - Application
    ApplicationMetadata <|- - Application
    Application - -> CommandLine : "parses arguments into"
    Application - -> Application.Identifier : "identified by"
    Application o- - Project : "initializes and uses"
    Application o- - CommandLine
    abstract class Application
    {
        - -(constructors)- -
        #Application(Project)
        - -
        +Application get()
        +Project project()
        - -(collection)- -
        +PropertyMap localizedProperties(Locale)
        +VariableMap<String> properties()
        - -(command line parsing)- -
        +T argument(int index, ArgumentParser<T>)
        +T argument(ArgumentParser<T>)
        +ArgumentList arguments()
        +CommandLine commandLine()
        +String commandLineDescription(String title)
        +T get(SwitchParser<T>, T defaultValue)
        +T get(SwitchParser<T>)
        +boolean has(SwitchParser<T>)
        #List<ArgumentParser<?>> argumentParsers()
        #Set<SwitchParser<?>> switchParsers()
        - -(identity)- -
        +Identifier identifier()
        - -(lifecycle)- -
        +void exit(String message, Object... arguments)
        +void run(String[] arguments)
        #void onRun()
    }
    
    BaseRepeater <|- - BaseComponent
    Component <|- - BaseComponent
    class BaseComponent
    {
    }
    
    class Application.Identifier
    {
        - -(constructors)- -
        #Identifier()
        +Identifier(String)
    }
    
    Application <|- - Server
    abstract class Server
    {
        - -(constructors)- -
        #Server(Project)
    }
    
@enduml

PlantUML version 1.2021.01(Tue Feb 02 00:55:08 MST 2021)
(GPL source distribution)
Java Runtime: Java(TM) SE Runtime Environment
JVM: Java HotSpot(TM) 64-Bit Server VM
Default Encoding: UTF-8
Language: en
Country: US
--></g></svg>