<?xml version="1.0" encoding="utf-8"?>
<svg viewBox="0 0 500 500" xmlns="http://www.w3.org/2000/svg">
  <g transform="matrix(0.601922, -0.640274, 0.728592, 0.684949, -125.722504, 280.509552)" style="">
    <g transform="matrix(1, 0, 0, 1, -7, -2.020886)">
      <g style="" transform="matrix(1.459831, 0.005674, -0.007104, 1.827776, -43.973511, -210.657806)">
        <g transform="matrix(-0.999998, 0.002184, -0.002184, -0.999998, 366.235779, 367.398743)"/>
        <g transform="matrix(-0.999998, 0.002184, -0.002184, -0.999998, 366.026367, 367.394104)"/>
      </g>
      <path style="fill: rgba(216, 187, 0, 0); stroke: rgb(216, 188, 0); stroke-width: 72px; stroke-linecap: round;" d="M 229.871 180.247 L 71.067 180.247 C 33.279 180.247 41.696 236.017 41.696 253.016 C 41.696 271.248 38.249 323.715 78.705 323.715 L 314.118 323.715 C 339.445 321.438 356.465 262.104 354.575 247.285"/>
      <path style="fill: rgba(216, 187, 0, 0); stroke-width: 48px; stroke: rgb(66, 148, 247); stroke-linecap: round;" d="M 230.176 180.028 L 71.372 180.028 C 33.584 180.028 42.001 235.798 42.001 252.797 C 42.001 271.029 38.554 323.496 79.01 323.496 L 314.423 323.496 C 339.75 321.219 356.77 261.885 354.88 247.066"/>
    </g>
    <g transform="matrix(-1.000001, 0, 0, -1.000001, 634.90863, 501.961029)">
      <g style="" transform="matrix(1.459831, 0.005674, -0.007104, 1.827776, -43.973511, -210.657806)">
        <g transform="matrix(-0.999998, 0.002184, -0.002184, -0.999998, 366.235779, 367.398743)"/>
        <g transform="matrix(-0.999998, 0.002184, -0.002184, -0.999998, 366.026367, 367.394104)"/>
      </g>
      <path style="fill: rgba(216, 187, 0, 0); stroke: rgb(216, 188, 0); stroke-width: 72px; stroke-linecap: round;" d="M 229.871 180.247 L 71.067 180.247 C 33.279 180.247 41.696 236.017 41.696 253.016 C 41.696 271.248 38.249 323.715 78.705 323.715 L 314.118 323.715 C 339.445 321.438 356.465 262.104 354.575 247.285"/>
      <path style="fill: rgba(216, 187, 0, 0); stroke-width: 48px; stroke: rgb(66, 148, 247); stroke-linecap: round;" d="M 230.176 180.028 L 71.372 180.028 C 33.584 180.028 42.001 235.798 42.001 252.797 C 42.001 271.029 38.554 323.496 79.01 323.496 L 314.423 323.496 C 339.75 321.219 356.77 261.885 354.88 247.066"/>
    </g>
  </g>
</svg>