<?xml version="1.0" encoding="UTF-8" standalone="no"?><svg xmlns="http://www.w3.org/2000/svg" xmlns:xlink="http://www.w3.org/1999/xlink" contentScriptType="application/ecmascript" contentStyleType="text/css" height="575px" preserveAspectRatio="none" style="width:1560px;height:575px;background:#333333;" version="1.1" viewBox="0 0 1560 575" width="1560.4167px" zoomAndPan="magnify"><defs/><g><rect fill="#48494B" height="41.2028" rx="8.3333" ry="8.3333" style="stroke:#545454;stroke-width:1.0416666666666667;" width="390.625" x="577.6042" y="2.0833"/><text fill="#C0C0C0" font-family="Open Sans,Avenir,Nunito,Arial,Helvetica,SansSerif" font-size="20.8333" lengthAdjust="spacing" textLength="367.7083" x="589.0625" y="30.5583">org.apache.wicket.devutils.debugbar</text><!--MD5=[bd655b709c14698b98cf0d393d5f48a7]
class IDebugBarContributor--><rect codeLine="32" fill="#282828" height="67.7999" id="IDebugBarContributor" rx="8.3333" ry="8.3333" style="stroke:#5E5E5E;stroke-width:1.0416666666666667;" width="316.6667" x="7.2917" y="259.432"/><rect fill="#1B1B1A" height="31.3883" rx="8.3333" ry="8.3333" style="stroke:#1B1B1A;stroke-width:1.0416666666666667;" width="316.6667" x="7.2917" y="259.432"/><rect fill="#1B1B1A" height="8.3333" style="stroke:#1B1B1A;stroke-width:1.0416666666666667;" width="316.6667" x="7.2917" y="282.487"/><rect codeLine="32" fill="none" height="67.7999" id="IDebugBarContributor" rx="8.3333" ry="8.3333" style="stroke:#5E5E5E;stroke-width:1.0416666666666667;" width="316.6667" x="7.2917" y="259.432"/><ellipse cx="86.4583" cy="275.1261" fill="#008400" rx="10.4167" ry="10.4167" style="stroke:#239C23;stroke-width:1.0416666666666667;"/><path d="M83.8623,272.288 L83.8623,270.7011 L89.2883,270.7011 L89.2883,272.288 L87.4756,272.288 L87.4756,278.2267 L89.2883,278.2267 L89.2883,279.8136 L83.8623,279.8136 L83.8623,278.2267 L85.675,278.2267 L85.675,272.288 Z " fill="#000000"/><text fill="#D8BC00" font-family="Open Sans,Avenir,Nunito,Arial,Helvetica,SansSerif" font-size="12.5" font-style="italic" font-weight="bold" lengthAdjust="spacing" textLength="143.75" x="109.375" y="279.8503">IDebugBarContributor</text><line style="stroke:#5E5E5E;stroke-width:1.5625;" x1="8.3333" x2="322.9167" y1="290.8203" y2="290.8203"/><line style="stroke:#5E5E5E;stroke-width:1.0416666666666667;" x1="8.3333" x2="322.9167" y1="299.1536" y2="299.1536"/><ellipse cx="18.75" cy="310.612" fill="#84BE84" rx="3.125" ry="3.125" style="stroke:#038048;stroke-width:1.0416666666666667;"/><text fill="#D8BC00" font-family="Open Sans,Avenir,Nunito,Arial,Helvetica,SansSerif" font-size="11.4583" lengthAdjust="spacing" textLength="284.375" x="30.2083" y="317.5232">Component createComponent(String id, DebugBar)</text><!--MD5=[886a457a7c238977703b1435802930a6]
class IInitializer--><rect codeLine="7" fill="#282828" height="48.055" id="IInitializer" rx="8.3333" ry="8.3333" style="stroke:#5E5E5E;stroke-width:1.0416666666666667;" width="103.125" x="390.1042" y="53.7028"/><rect fill="#1B1B1A" height="31.3883" rx="8.3333" ry="8.3333" style="stroke:#1B1B1A;stroke-width:1.0416666666666667;" width="103.125" x="390.1042" y="53.7028"/><rect fill="#1B1B1A" height="8.3333" style="stroke:#1B1B1A;stroke-width:1.0416666666666667;" width="103.125" x="390.1042" y="76.7578"/><rect codeLine="7" fill="none" height="48.055" id="IInitializer" rx="8.3333" ry="8.3333" style="stroke:#5E5E5E;stroke-width:1.0416666666666667;" width="103.125" x="390.1042" y="53.7028"/><ellipse cx="404.6875" cy="69.397" fill="#008400" rx="10.4167" ry="10.4167" style="stroke:#239C23;stroke-width:1.0416666666666667;"/><path d="M402.0915,66.5588 L402.0915,64.9719 L407.5175,64.9719 L407.5175,66.5588 L405.7048,66.5588 L405.7048,72.4976 L407.5175,72.4976 L407.5175,74.0845 L402.0915,74.0845 L402.0915,72.4976 L403.9042,72.4976 L403.9042,66.5588 Z " fill="#000000"/><text fill="#D8BC00" font-family="Open Sans,Avenir,Nunito,Arial,Helvetica,SansSerif" font-size="12.5" font-style="italic" font-weight="bold" lengthAdjust="spacing" textLength="65.625" x="421.3542" y="74.1211">IInitializer</text><line style="stroke:#5E5E5E;stroke-width:1.0416666666666667;" x1="391.1458" x2="492.1875" y1="85.0911" y2="85.0911"/><line style="stroke:#5E5E5E;stroke-width:1.0416666666666667;" x1="391.1458" x2="492.1875" y1="93.4245" y2="93.4245"/><!--MD5=[406b4321ef11fa8775fbbf8092807a9f]
class DevUtilsPanel--><rect fill="#282828" height="48.055" id="DevUtilsPanel" rx="8.3333" ry="8.3333" style="stroke:#5E5E5E;stroke-width:1.0416666666666667;" width="127.0833" x="939.5833" y="53.7028"/><rect fill="#1B1B1A" height="31.3883" rx="8.3333" ry="8.3333" style="stroke:#1B1B1A;stroke-width:1.0416666666666667;" width="127.0833" x="939.5833" y="53.7028"/><rect fill="#1B1B1A" height="8.3333" style="stroke:#1B1B1A;stroke-width:1.0416666666666667;" width="127.0833" x="939.5833" y="76.7578"/><rect fill="none" height="48.055" id="DevUtilsPanel" rx="8.3333" ry="8.3333" style="stroke:#5E5E5E;stroke-width:1.0416666666666667;" width="127.0833" x="939.5833" y="53.7028"/><ellipse cx="954.1667" cy="69.397" fill="#0066CF" rx="10.4167" ry="10.4167" style="stroke:#0086EF;stroke-width:1.0416666666666667;"/><path d="M956.0771,73.822 Q955.6498,74.0417 955.1799,74.1516 Q954.7099,74.2615 954.1911,74.2615 Q952.3478,74.2615 951.3774,73.0469 Q950.4069,71.8323 950.4069,69.5374 Q950.4069,67.2363 951.3774,66.0217 Q952.3478,64.8071 954.1911,64.8071 Q954.7099,64.8071 955.186,64.917 Q955.662,65.0269 956.0771,65.2466 L956.0771,67.2485 Q955.6132,66.8213 955.1768,66.6229 Q954.7404,66.4246 954.2765,66.4246 Q953.2878,66.4246 952.7842,67.2089 Q952.2807,67.9932 952.2807,69.5374 Q952.2807,71.0754 952.7842,71.8597 Q953.2878,72.644 954.2765,72.644 Q954.7404,72.644 955.1768,72.4457 Q955.6132,72.2473 956.0771,71.8201 Z " fill="#000000"/><text fill="#D8BC00" font-family="Open Sans,Avenir,Nunito,Arial,Helvetica,SansSerif" font-size="12.5" font-weight="bold" lengthAdjust="spacing" textLength="89.5833" x="970.8333" y="74.1211">DevUtilsPanel</text><line style="stroke:#5E5E5E;stroke-width:1.0416666666666667;" x1="940.625" x2="1065.625" y1="85.0911" y2="85.0911"/><line style="stroke:#5E5E5E;stroke-width:1.0416666666666667;" x1="940.625" x2="1065.625" y1="93.4245" y2="93.4245"/><!--MD5=[b46677520e062fc303206a9168f0f01e]
class DebugBar--><rect codeLine="10" fill="#282828" height="258.0037" id="DebugBar" rx="8.3333" ry="8.3333" style="stroke:#5E5E5E;stroke-width:1.0416666666666667;" width="463.5417" x="559.8958" y="164.1195"/><rect fill="#1B1B1A" height="31.3883" rx="8.3333" ry="8.3333" style="stroke:#1B1B1A;stroke-width:1.0416666666666667;" width="463.5417" x="559.8958" y="164.1195"/><rect fill="#1B1B1A" height="8.3333" style="stroke:#1B1B1A;stroke-width:1.0416666666666667;" width="463.5417" x="559.8958" y="187.1745"/><rect codeLine="10" fill="none" height="258.0037" id="DebugBar" rx="8.3333" ry="8.3333" style="stroke:#5E5E5E;stroke-width:1.0416666666666667;" width="463.5417" x="559.8958" y="164.1195"/><ellipse cx="752.6042" cy="179.8136" fill="#0066CF" rx="10.4167" ry="10.4167" style="stroke:#0086EF;stroke-width:1.0416666666666667;"/><path d="M754.5146,184.2387 Q754.0873,184.4584 753.6174,184.5683 Q753.1474,184.6781 752.6286,184.6781 Q750.7853,184.6781 749.8149,183.4635 Q748.8444,182.2489 748.8444,179.954 Q748.8444,177.653 749.8149,176.4384 Q750.7853,175.2238 752.6286,175.2238 Q753.1474,175.2238 753.6235,175.3337 Q754.0995,175.4435 754.5146,175.6632 L754.5146,177.6652 Q754.0507,177.238 753.6143,177.0396 Q753.1779,176.8412 752.714,176.8412 Q751.7253,176.8412 751.2217,177.6255 Q750.7182,178.4098 750.7182,179.954 Q750.7182,181.4921 751.2217,182.2764 Q751.7253,183.0607 752.714,183.0607 Q753.1779,183.0607 753.6143,182.8623 Q754.0507,182.664 754.5146,182.2367 Z " fill="#000000"/><text fill="#D8BC00" font-family="Open Sans,Avenir,Nunito,Arial,Helvetica,SansSerif" font-size="12.5" font-weight="bold" lengthAdjust="spacing" textLength="63.5417" x="775.5208" y="184.5378">DebugBar</text><line style="stroke:#5E5E5E;stroke-width:1.5625;" x1="560.9375" x2="1022.3958" y1="195.5078" y2="195.5078"/><ellipse cx="571.3542" cy="230.8777" fill="#84BE84" rx="3.125" ry="3.125" style="stroke:#038048;stroke-width:1.0416666666666667;"/><text fill="#D8BC00" font-family="Open Sans,Avenir,Nunito,Arial,Helvetica,SansSerif" font-size="11.4583" lengthAdjust="spacing" textLength="95.8333" x="582.8125" y="237.7889">DebugBar(String)</text><ellipse cx="571.3542" cy="250.6226" fill="#84BE84" rx="3.125" ry="3.125" style="stroke:#038048;stroke-width:1.0416666666666667;"/><text fill="#D8BC00" font-family="Open Sans,Avenir,Nunito,Arial,Helvetica,SansSerif" font-size="11.4583" lengthAdjust="spacing" textLength="146.875" x="582.8125" y="257.5338">DebugBar(String, boolean)</text><line style="stroke:#5E5E5E;stroke-width:1.0416666666666667;" x1="560.9375" x2="747.9167" y1="213.7136" y2="213.7136"/><text fill="#D8BC00" font-family="Open Sans,Avenir,Nunito,Arial,Helvetica,SansSerif" font-size="11.4583" lengthAdjust="spacing" textLength="81.25" x="751.0417" y="217.5232">(constructors)</text><line style="stroke:#5E5E5E;stroke-width:1.0416666666666667;" x1="835.4167" x2="1022.3958" y1="213.7136" y2="213.7136"/><line style="stroke:#5E5E5E;stroke-width:1.0416666666666667;" x1="560.9375" x2="1022.3958" y1="267.2424" y2="267.2424"/><ellipse cx="571.3542" cy="278.7008" fill="#84BE84" rx="3.125" ry="3.125" style="stroke:#038048;stroke-width:1.0416666666666667;"/><text fill="#D8BC00" font-family="Open Sans,Avenir,Nunito,Arial,Helvetica,SansSerif" font-size="11.4583" lengthAdjust="spacing" textLength="151.0417" x="582.8125" y="285.612">DebugBar positionBottom()</text><ellipse cx="571.3542" cy="298.4456" fill="#84BE84" rx="3.125" ry="3.125" style="stroke:#038048;stroke-width:1.0416666666666667;"/><text fill="#D8BC00" font-family="Open Sans,Avenir,Nunito,Arial,Helvetica,SansSerif" font-size="11.4583" lengthAdjust="spacing" textLength="431.25" x="582.8125" y="305.3569">void setContributors(List&lt;IDebugBarContributor&gt; contributors, Application)</text><ellipse cx="571.3542" cy="342.1021" fill="#84BE84" rx="3.125" ry="3.125" style="stroke:#038048;stroke-width:1.0416666666666667;"/><text fill="#D8BC00" font-family="Open Sans,Avenir,Nunito,Arial,Helvetica,SansSerif" font-size="11.4583" lengthAdjust="spacing" textLength="328.125" x="582.8125" y="349.0133">List&lt;IDebugBarContributor&gt; getContributors(Application)</text><line style="stroke:#5E5E5E;stroke-width:1.0416666666666667;" x1="560.9375" x2="757.2917" y1="324.9379" y2="324.9379"/><text fill="#D8BC00" font-family="Open Sans,Avenir,Nunito,Arial,Helvetica,SansSerif" font-size="11.4583" lengthAdjust="spacing" textLength="62.5" x="760.4167" y="328.7476">(collection)</text><line style="stroke:#5E5E5E;stroke-width:1.0416666666666667;" x1="826.0417" x2="1022.3958" y1="324.9379" y2="324.9379"/><ellipse cx="571.3542" cy="385.7585" fill="#84BE84" rx="3.125" ry="3.125" style="stroke:#038048;stroke-width:1.0416666666666667;"/><text fill="#D8BC00" font-family="Open Sans,Avenir,Nunito,Arial,Helvetica,SansSerif" font-size="11.4583" lengthAdjust="spacing" textLength="339.5833" x="582.8125" y="392.6697">void registerContributor(IDebugBarContributor, Application)</text><ellipse cx="571.3542" cy="405.5033" fill="#84BE84" rx="3.125" ry="3.125" style="stroke:#038048;stroke-width:1.0416666666666667;"/><text fill="#D8BC00" font-family="Open Sans,Avenir,Nunito,Arial,Helvetica,SansSerif" font-size="11.4583" lengthAdjust="spacing" textLength="269.7917" x="582.8125" y="412.4146">void registerContributor(IDebugBarContributor)</text><line style="stroke:#5E5E5E;stroke-width:1.0416666666666667;" x1="560.9375" x2="765.1042" y1="368.5944" y2="368.5944"/><text fill="#D8BC00" font-family="Open Sans,Avenir,Nunito,Arial,Helvetica,SansSerif" font-size="11.4583" lengthAdjust="spacing" textLength="46.875" x="768.2292" y="372.404">(lookup)</text><line style="stroke:#5E5E5E;stroke-width:1.0416666666666667;" x1="818.2292" x2="1022.3958" y1="368.5944" y2="368.5944"/><!--MD5=[a09a9866ac281c4c83edc0b7c3022e6d]
class DebugBarInitializer--><rect codeLine="26" fill="#282828" height="48.055" id="DebugBarInitializer" rx="8.3333" ry="8.3333" style="stroke:#5E5E5E;stroke-width:1.0416666666666667;" width="162.5" x="360.4167" y="269.3278"/><rect fill="#1B1B1A" height="31.3883" rx="8.3333" ry="8.3333" style="stroke:#1B1B1A;stroke-width:1.0416666666666667;" width="162.5" x="360.4167" y="269.3278"/><rect fill="#1B1B1A" height="8.3333" style="stroke:#1B1B1A;stroke-width:1.0416666666666667;" width="162.5" x="360.4167" y="292.3828"/><rect codeLine="26" fill="none" height="48.055" id="DebugBarInitializer" rx="8.3333" ry="8.3333" style="stroke:#5E5E5E;stroke-width:1.0416666666666667;" width="162.5" x="360.4167" y="269.3278"/><ellipse cx="375" cy="285.022" fill="#0066CF" rx="10.4167" ry="10.4167" style="stroke:#0086EF;stroke-width:1.0416666666666667;"/><path d="M376.9104,289.447 Q376.4832,289.6667 376.0132,289.7766 Q375.5432,289.8865 375.0244,289.8865 Q373.1812,289.8865 372.2107,288.6719 Q371.2402,287.4573 371.2402,285.1624 Q371.2402,282.8613 372.2107,281.6467 Q373.1812,280.4321 375.0244,280.4321 Q375.5432,280.4321 376.0193,280.542 Q376.4954,280.6519 376.9104,280.8716 L376.9104,282.8735 Q376.4465,282.4463 376.0101,282.2479 Q375.5737,282.0496 375.1099,282.0496 Q374.1211,282.0496 373.6176,282.8339 Q373.114,283.6182 373.114,285.1624 Q373.114,286.7004 373.6176,287.4847 Q374.1211,288.269 375.1099,288.269 Q375.5737,288.269 376.0101,288.0707 Q376.4465,287.8723 376.9104,287.4451 Z " fill="#000000"/><text fill="#D8BC00" font-family="Open Sans,Avenir,Nunito,Arial,Helvetica,SansSerif" font-size="12.5" font-weight="bold" lengthAdjust="spacing" textLength="125" x="391.6667" y="289.7461">DebugBarInitializer</text><line style="stroke:#5E5E5E;stroke-width:1.0416666666666667;" x1="361.4583" x2="521.875" y1="300.7161" y2="300.7161"/><line style="stroke:#5E5E5E;stroke-width:1.0416666666666667;" x1="361.4583" x2="521.875" y1="309.0495" y2="309.0495"/><!--MD5=[cd6fe5c68cc4750b98a6651e5a9afd2b]
class IClusterable--><rect codeLine="30" fill="#282828" height="48.055" id="IClusterable" rx="8.3333" ry="8.3333" style="stroke:#5E5E5E;stroke-width:1.0416666666666667;" width="115.625" x="107.8125" y="53.7028"/><rect fill="#1B1B1A" height="31.3883" rx="8.3333" ry="8.3333" style="stroke:#1B1B1A;stroke-width:1.0416666666666667;" width="115.625" x="107.8125" y="53.7028"/><rect fill="#1B1B1A" height="8.3333" style="stroke:#1B1B1A;stroke-width:1.0416666666666667;" width="115.625" x="107.8125" y="76.7578"/><rect codeLine="30" fill="none" height="48.055" id="IClusterable" rx="8.3333" ry="8.3333" style="stroke:#5E5E5E;stroke-width:1.0416666666666667;" width="115.625" x="107.8125" y="53.7028"/><ellipse cx="122.3958" cy="69.397" fill="#008400" rx="10.4167" ry="10.4167" style="stroke:#239C23;stroke-width:1.0416666666666667;"/><path d="M119.7998,66.5588 L119.7998,64.9719 L125.2258,64.9719 L125.2258,66.5588 L123.4131,66.5588 L123.4131,72.4976 L125.2258,72.4976 L125.2258,74.0845 L119.7998,74.0845 L119.7998,72.4976 L121.6125,72.4976 L121.6125,66.5588 Z " fill="#000000"/><text fill="#D8BC00" font-family="Open Sans,Avenir,Nunito,Arial,Helvetica,SansSerif" font-size="12.5" font-style="italic" font-weight="bold" lengthAdjust="spacing" textLength="78.125" x="139.0625" y="74.1211">IClusterable</text><line style="stroke:#5E5E5E;stroke-width:1.0416666666666667;" x1="108.8542" x2="222.3958" y1="85.0911" y2="85.0911"/><line style="stroke:#5E5E5E;stroke-width:1.0416666666666667;" x1="108.8542" x2="222.3958" y1="93.4245" y2="93.4245"/><!--MD5=[2c8212b6c1a13fddb142ae099e58537f]
class StandardDebugPanel--><rect codeLine="60" fill="#282828" height="190.4358" id="StandardDebugPanel" rx="8.3333" ry="8.3333" style="stroke:#5E5E5E;stroke-width:1.0416666666666667;" width="309.375" x="1059.8958" y="197.9736"/><rect fill="#1B1B1A" height="31.3883" rx="8.3333" ry="8.3333" style="stroke:#1B1B1A;stroke-width:1.0416666666666667;" width="309.375" x="1059.8958" y="197.9736"/><rect fill="#1B1B1A" height="8.3333" style="stroke:#1B1B1A;stroke-width:1.0416666666666667;" width="309.375" x="1059.8958" y="221.0286"/><rect codeLine="60" fill="none" height="190.4358" id="StandardDebugPanel" rx="8.3333" ry="8.3333" style="stroke:#5E5E5E;stroke-width:1.0416666666666667;" width="309.375" x="1059.8958" y="197.9736"/><ellipse cx="1140.1042" cy="213.6678" fill="#C8AC00" rx="10.4167" ry="10.4167" style="stroke:#D8BC00;stroke-width:1.0416666666666667;"/><path d="M1139.6973,210.3699 L1138.8489,214.0991 L1140.5518,214.0991 Z M1138.5986,208.7219 L1140.802,208.7219 L1143.2617,217.8345 L1141.4612,217.8345 L1140.8997,215.5823 L1138.4888,215.5823 L1137.9395,217.8345 L1136.1389,217.8345 Z " fill="#000000"/><text fill="#D8BC00" font-family="Open Sans,Avenir,Nunito,Arial,Helvetica,SansSerif" font-size="12.5" font-style="italic" font-weight="bold" lengthAdjust="spacing" textLength="134.375" x="1163.0208" y="218.3919">StandardDebugPanel</text><line style="stroke:#5E5E5E;stroke-width:1.5625;" x1="1060.9375" x2="1368.2292" y1="229.362" y2="229.362"/><ellipse cx="1071.3542" cy="264.7319" fill="#84BE84" rx="3.125" ry="3.125" style="stroke:#038048;stroke-width:1.0416666666666667;"/><text fill="#D8BC00" font-family="Open Sans,Avenir,Nunito,Arial,Helvetica,SansSerif" font-size="11.4583" lengthAdjust="spacing" textLength="157.2917" x="1082.8125" y="271.6431">StandardDebugPanel(String)</text><line style="stroke:#5E5E5E;stroke-width:1.0416666666666667;" x1="1060.9375" x2="1170.8333" y1="247.5677" y2="247.5677"/><text fill="#D8BC00" font-family="Open Sans,Avenir,Nunito,Arial,Helvetica,SansSerif" font-size="11.4583" lengthAdjust="spacing" textLength="81.25" x="1173.9583" y="251.3774">(constructors)</text><line style="stroke:#5E5E5E;stroke-width:1.0416666666666667;" x1="1258.3333" x2="1368.2292" y1="247.5677" y2="247.5677"/><line style="stroke:#5E5E5E;stroke-width:1.0416666666666667;" x1="1060.9375" x2="1368.2292" y1="281.3517" y2="281.3517"/><polygon fill="#FFFF44" points="1071.3542,287.6017,1075.5208,291.7684,1071.3542,295.9351,1067.1875,291.7684" style="stroke:#B38D22;stroke-width:1.0416666666666667;"/><text fill="#D8BC00" font-family="Open Sans,Avenir,Nunito,Arial,Helvetica,SansSerif" font-size="11.4583" lengthAdjust="spacing" textLength="235.4167" x="1082.8125" y="299.7213">WebMarkupContainer createLink(String id)</text><polygon fill="#FFFF44" points="1071.3542,307.3466,1075.5208,311.5133,1071.3542,315.6799,1067.1875,311.5133" style="stroke:#B38D22;stroke-width:1.0416666666666667;"/><text fill="#D8BC00" font-family="Open Sans,Avenir,Nunito,Arial,Helvetica,SansSerif" font-size="11.4583" lengthAdjust="spacing" textLength="176.0417" x="1082.8125" y="319.4661">IModel&lt;String&gt; getDataModel()</text><polygon fill="#FFFF44" points="1071.3542,327.0915,1075.5208,331.2581,1071.3542,335.4248,1067.1875,331.2581" style="stroke:#B38D22;stroke-width:1.0416666666666667;"/><text fill="#D8BC00" font-family="Open Sans,Avenir,Nunito,Arial,Helvetica,SansSerif" font-size="11.4583" lengthAdjust="spacing" textLength="277.0833" x="1082.8125" y="339.211">ResourceReference getImageResourceReference()</text><polygon fill="#FFFF44" points="1071.3542,346.8363,1075.5208,351.003,1071.3542,355.1697,1067.1875,351.003" style="stroke:#B38D22;stroke-width:1.0416666666666667;"/><text fill="#D8BC00" font-family="Open Sans,Avenir,Nunito,Arial,Helvetica,SansSerif" font-size="11.4583" lengthAdjust="spacing" textLength="239.5833" x="1082.8125" y="358.9559">Class&lt;? extends Page&gt; getLinkPageClass()</text><polygon fill="#FFFF44" points="1071.3542,366.5812,1075.5208,370.7479,1071.3542,374.9146,1067.1875,370.7479" style="stroke:#B38D22;stroke-width:1.0416666666666667;"/><text fill="#D8BC00" font-family="Open Sans,Avenir,Nunito,Arial,Helvetica,SansSerif" font-size="11.4583" lengthAdjust="spacing" textLength="229.1667" x="1082.8125" y="378.7008">PageParameters getLinkPageParameters()</text><!--MD5=[65a6766f1d9cfdabb06fff7f6811502b]
class InspectorDebugPanel--><rect codeLine="39" fill="#282828" height="83.3781" id="InspectorDebugPanel" rx="8.3333" ry="8.3333" style="stroke:#5E5E5E;stroke-width:1.0416666666666667;" width="192.7083" x="888.0208" y="484.9528"/><rect fill="#1B1B1A" height="31.3883" rx="8.3333" ry="8.3333" style="stroke:#1B1B1A;stroke-width:1.0416666666666667;" width="192.7083" x="888.0208" y="484.9528"/><rect fill="#1B1B1A" height="8.3333" style="stroke:#1B1B1A;stroke-width:1.0416666666666667;" width="192.7083" x="888.0208" y="508.0078"/><rect codeLine="39" fill="none" height="83.3781" id="InspectorDebugPanel" rx="8.3333" ry="8.3333" style="stroke:#5E5E5E;stroke-width:1.0416666666666667;" width="192.7083" x="888.0208" y="484.9528"/><ellipse cx="910.5729" cy="500.647" fill="#0066CF" rx="10.4167" ry="10.4167" style="stroke:#0086EF;stroke-width:1.0416666666666667;"/><path d="M912.4833,505.072 Q912.0561,505.2917 911.5861,505.4016 Q911.1161,505.5115 910.5973,505.5115 Q908.7541,505.5115 907.7836,504.2969 Q906.8132,503.0823 906.8132,500.7874 Q906.8132,498.4863 907.7836,497.2717 Q908.7541,496.0571 910.5973,496.0571 Q911.1161,496.0571 911.5922,496.167 Q912.0683,496.2769 912.4833,496.4966 L912.4833,498.4985 Q912.0194,498.0713 911.583,497.8729 Q911.1466,497.6746 910.6828,497.6746 Q909.694,497.6746 909.1905,498.4589 Q908.6869,499.2432 908.6869,500.7874 Q908.6869,502.3254 909.1905,503.1097 Q909.694,503.894 910.6828,503.894 Q911.1466,503.894 911.583,503.6957 Q912.0194,503.4973 912.4833,503.0701 Z " fill="#000000"/><text fill="#D8BC00" font-family="Open Sans,Avenir,Nunito,Arial,Helvetica,SansSerif" font-size="12.5" font-weight="bold" lengthAdjust="spacing" textLength="137.5" x="929.0104" y="505.3711">InspectorDebugPanel</text><line style="stroke:#5E5E5E;stroke-width:1.5625;" x1="889.0625" x2="1079.6875" y1="516.3411" y2="516.3411"/><ellipse cx="899.4792" cy="551.711" fill="#84BE84" rx="3.125" ry="3.125" style="stroke:#038048;stroke-width:1.0416666666666667;"/><text fill="#D8BC00" font-family="Open Sans,Avenir,Nunito,Arial,Helvetica,SansSerif" font-size="11.4583" lengthAdjust="spacing" textLength="160.4167" x="910.9375" y="558.6222">InspectorDebugPanel(String)</text><line style="stroke:#5E5E5E;stroke-width:1.0416666666666667;" x1="889.0625" x2="940.625" y1="534.5469" y2="534.5469"/><text fill="#D8BC00" font-family="Open Sans,Avenir,Nunito,Arial,Helvetica,SansSerif" font-size="11.4583" lengthAdjust="spacing" textLength="81.25" x="943.75" y="538.3565">(constructors)</text><line style="stroke:#5E5E5E;stroke-width:1.0416666666666667;" x1="1028.125" x2="1079.6875" y1="534.5469" y2="534.5469"/><!--MD5=[78576eb07778eeefa49f0d3dcdc20a89]
class PageStoreDebugPanel--><rect codeLine="46" fill="#282828" height="83.3781" id="PageStoreDebugPanel" rx="8.3333" ry="8.3333" style="stroke:#5E5E5E;stroke-width:1.0416666666666667;" width="194.7917" x="1117.1875" y="484.9528"/><rect fill="#1B1B1A" height="31.3883" rx="8.3333" ry="8.3333" style="stroke:#1B1B1A;stroke-width:1.0416666666666667;" width="194.7917" x="1117.1875" y="484.9528"/><rect fill="#1B1B1A" height="8.3333" style="stroke:#1B1B1A;stroke-width:1.0416666666666667;" width="194.7917" x="1117.1875" y="508.0078"/><rect codeLine="46" fill="none" height="83.3781" id="PageStoreDebugPanel" rx="8.3333" ry="8.3333" style="stroke:#5E5E5E;stroke-width:1.0416666666666667;" width="194.7917" x="1117.1875" y="484.9528"/><ellipse cx="1139.2708" cy="500.647" fill="#0066CF" rx="10.4167" ry="10.4167" style="stroke:#0086EF;stroke-width:1.0416666666666667;"/><path d="M1141.1812,505.072 Q1140.754,505.2917 1140.284,505.4016 Q1139.814,505.5115 1139.2952,505.5115 Q1137.452,505.5115 1136.4815,504.2969 Q1135.5111,503.0823 1135.5111,500.7874 Q1135.5111,498.4863 1136.4815,497.2717 Q1137.452,496.0571 1139.2952,496.0571 Q1139.814,496.0571 1140.2901,496.167 Q1140.7662,496.2769 1141.1812,496.4966 L1141.1812,498.4985 Q1140.7174,498.0713 1140.281,497.8729 Q1139.8446,497.6746 1139.3807,497.6746 Q1138.3919,497.6746 1137.8884,498.4589 Q1137.3848,499.2432 1137.3848,500.7874 Q1137.3848,502.3254 1137.8884,503.1097 Q1138.3919,503.894 1139.3807,503.894 Q1139.8446,503.894 1140.281,503.6957 Q1140.7174,503.4973 1141.1812,503.0701 Z " fill="#000000"/><text fill="#D8BC00" font-family="Open Sans,Avenir,Nunito,Arial,Helvetica,SansSerif" font-size="12.5" font-weight="bold" lengthAdjust="spacing" textLength="140.625" x="1157.6042" y="505.3711">PageStoreDebugPanel</text><line style="stroke:#5E5E5E;stroke-width:1.5625;" x1="1118.2292" x2="1310.9375" y1="516.3411" y2="516.3411"/><ellipse cx="1128.6458" cy="551.711" fill="#84BE84" rx="3.125" ry="3.125" style="stroke:#038048;stroke-width:1.0416666666666667;"/><text fill="#D8BC00" font-family="Open Sans,Avenir,Nunito,Arial,Helvetica,SansSerif" font-size="11.4583" lengthAdjust="spacing" textLength="162.5" x="1140.1042" y="558.6222">PageStoreDebugPanel(String)</text><line style="stroke:#5E5E5E;stroke-width:1.0416666666666667;" x1="1118.2292" x2="1170.8333" y1="534.5469" y2="534.5469"/><text fill="#D8BC00" font-family="Open Sans,Avenir,Nunito,Arial,Helvetica,SansSerif" font-size="11.4583" lengthAdjust="spacing" textLength="81.25" x="1173.9583" y="538.3565">(constructors)</text><line style="stroke:#5E5E5E;stroke-width:1.0416666666666667;" x1="1258.3333" x2="1310.9375" y1="534.5469" y2="534.5469"/><!--MD5=[c3db36617d787061622e453ddc3077da]
class SessionSizeDebugPanel--><rect codeLine="53" fill="#282828" height="83.3781" id="SessionSizeDebugPanel" rx="8.3333" ry="8.3333" style="stroke:#5E5E5E;stroke-width:1.0416666666666667;" width="204.1667" x="1348.9583" y="484.9528"/><rect fill="#1B1B1A" height="31.3883" rx="8.3333" ry="8.3333" style="stroke:#1B1B1A;stroke-width:1.0416666666666667;" width="204.1667" x="1348.9583" y="484.9528"/><rect fill="#1B1B1A" height="8.3333" style="stroke:#1B1B1A;stroke-width:1.0416666666666667;" width="204.1667" x="1348.9583" y="508.0078"/><rect codeLine="53" fill="none" height="83.3781" id="SessionSizeDebugPanel" rx="8.3333" ry="8.3333" style="stroke:#5E5E5E;stroke-width:1.0416666666666667;" width="204.1667" x="1348.9583" y="484.9528"/><ellipse cx="1369.6354" cy="500.647" fill="#0066CF" rx="10.4167" ry="10.4167" style="stroke:#0086EF;stroke-width:1.0416666666666667;"/><path d="M1371.5458,505.072 Q1371.1186,505.2917 1370.6486,505.4016 Q1370.1786,505.5115 1369.6598,505.5115 Q1367.8166,505.5115 1366.8461,504.2969 Q1365.8757,503.0823 1365.8757,500.7874 Q1365.8757,498.4863 1366.8461,497.2717 Q1367.8166,496.0571 1369.6598,496.0571 Q1370.1786,496.0571 1370.6547,496.167 Q1371.1308,496.2769 1371.5458,496.4966 L1371.5458,498.4985 Q1371.0819,498.0713 1370.6455,497.8729 Q1370.2091,497.6746 1369.7453,497.6746 Q1368.7565,497.6746 1368.253,498.4589 Q1367.7494,499.2432 1367.7494,500.7874 Q1367.7494,502.3254 1368.253,503.1097 Q1368.7565,503.894 1369.7453,503.894 Q1370.2091,503.894 1370.6455,503.6957 Q1371.0819,503.4973 1371.5458,503.0701 Z " fill="#000000"/><text fill="#D8BC00" font-family="Open Sans,Avenir,Nunito,Arial,Helvetica,SansSerif" font-size="12.5" font-weight="bold" lengthAdjust="spacing" textLength="153.125" x="1387.6563" y="505.3711">SessionSizeDebugPanel</text><line style="stroke:#5E5E5E;stroke-width:1.5625;" x1="1350" x2="1552.0833" y1="516.3411" y2="516.3411"/><ellipse cx="1360.4167" cy="551.711" fill="#84BE84" rx="3.125" ry="3.125" style="stroke:#038048;stroke-width:1.0416666666666667;"/><text fill="#D8BC00" font-family="Open Sans,Avenir,Nunito,Arial,Helvetica,SansSerif" font-size="11.4583" lengthAdjust="spacing" textLength="171.875" x="1371.875" y="558.6222">SessionSizeDebugPanel(String)</text><line style="stroke:#5E5E5E;stroke-width:1.0416666666666667;" x1="1350" x2="1407.2917" y1="534.5469" y2="534.5469"/><text fill="#D8BC00" font-family="Open Sans,Avenir,Nunito,Arial,Helvetica,SansSerif" font-size="11.4583" lengthAdjust="spacing" textLength="81.25" x="1410.4167" y="538.3565">(constructors)</text><line style="stroke:#5E5E5E;stroke-width:1.0416666666666667;" x1="1494.7917" x2="1552.0833" y1="534.5469" y2="534.5469"/><!--MD5=[5520669a146d403d9288e69f7bbc9a32]
class VersionDebugContributor--><rect codeLine="73" fill="#282828" height="48.055" id="VersionDebugContributor" rx="8.3333" ry="8.3333" style="stroke:#5E5E5E;stroke-width:1.0416666666666667;" width="205.2083" x="63.0208" y="502.6611"/><rect fill="#1B1B1A" height="31.3883" rx="8.3333" ry="8.3333" style="stroke:#1B1B1A;stroke-width:1.0416666666666667;" width="205.2083" x="63.0208" y="502.6611"/><rect fill="#1B1B1A" height="8.3333" style="stroke:#1B1B1A;stroke-width:1.0416666666666667;" width="205.2083" x="63.0208" y="525.7161"/><rect codeLine="73" fill="none" height="48.055" id="VersionDebugContributor" rx="8.3333" ry="8.3333" style="stroke:#5E5E5E;stroke-width:1.0416666666666667;" width="205.2083" x="63.0208" y="502.6611"/><ellipse cx="77.6042" cy="518.3553" fill="#0066CF" rx="10.4167" ry="10.4167" style="stroke:#0086EF;stroke-width:1.0416666666666667;"/><path d="M79.5146,522.7804 Q79.0873,523.0001 78.6174,523.1099 Q78.1474,523.2198 77.6286,523.2198 Q75.7853,523.2198 74.8149,522.0052 Q73.8444,520.7906 73.8444,518.4957 Q73.8444,516.1947 74.8149,514.9801 Q75.7853,513.7655 77.6286,513.7655 Q78.1474,513.7655 78.6235,513.8753 Q79.0995,513.9852 79.5146,514.2049 L79.5146,516.2069 Q79.0507,515.7796 78.6143,515.5813 Q78.1779,515.3829 77.714,515.3829 Q76.7253,515.3829 76.2217,516.1672 Q75.7182,516.9515 75.7182,518.4957 Q75.7182,520.0338 76.2217,520.8181 Q76.7253,521.6024 77.714,521.6024 Q78.1779,521.6024 78.6143,521.404 Q79.0507,521.2056 79.5146,520.7784 Z " fill="#000000"/><text fill="#D8BC00" font-family="Open Sans,Avenir,Nunito,Arial,Helvetica,SansSerif" font-size="12.5" font-weight="bold" lengthAdjust="spacing" textLength="167.7083" x="94.2708" y="523.0794">VersionDebugContributor</text><line style="stroke:#5E5E5E;stroke-width:1.0416666666666667;" x1="64.0625" x2="267.1875" y1="534.0495" y2="534.0495"/><line style="stroke:#5E5E5E;stroke-width:1.0416666666666667;" x1="64.0625" x2="267.1875" y1="542.3828" y2="542.3828"/><!--MD5=[e41a6b2ccdba70b00dcc49f53da8fb72]
reverse link DevUtilsPanel to DebugBar--><path codeLine="9" d="M965.0521,117.1507 C951.6042,130.734 935.625,146.859 918.9063,163.7445 " fill="none" id="DevUtilsPanel-backto-DebugBar" style="stroke:#545454;stroke-width:1.5625;"/><polygon fill="none" points="960.25,111.6299,980.0938,101.9632,970.6146,121.9007,960.25,111.6299" style="stroke:#545454;stroke-width:1.5625;"/><!--MD5=[d9be837dcd1186667be1c7ac95a790ee]
reverse link IInitializer to DebugBarInitializer--><path codeLine="25" d="M441.6667,122.8695 C441.6667,167.2861 441.6667,234.057 441.6667,269.0153 " fill="none" id="IInitializer-backto-DebugBarInitializer" style="stroke:#545454;stroke-width:1.5625;"/><polygon fill="none" points="434.375,122.7965,441.6667,101.9632,448.9583,122.7965,434.375,122.7965" style="stroke:#545454;stroke-width:1.5625;"/><!--MD5=[bb61cdd0fa9ea3dd16f8729294f9416e]
reverse link IClusterable to IDebugBarContributor--><path codeLine="31" d="M165.625,122.8486 C165.625,163.4215 165.625,222.6611 165.625,259.2549 " fill="none" id="IClusterable-backto-IDebugBarContributor" style="stroke:#545454;stroke-width:1.5625;"/><polygon fill="none" points="158.3333,122.7965,165.625,101.9632,172.9167,122.7965,158.3333,122.7965" style="stroke:#545454;stroke-width:1.5625;"/><!--MD5=[5d45ef253a20f1d7454e2d96036f8ec4]
reverse link StandardDebugPanel to InspectorDebugPanel--><path codeLine="38" d="M1105.6563,403.7445 C1076.8854,432.6507 1047.5938,462.0778 1025.0104,484.7653 " fill="none" id="StandardDebugPanel-backto-InspectorDebugPanel" style="stroke:#545454;stroke-width:1.5625;"/><polygon fill="none" points="1100.75,398.3382,1120.6146,388.7236,1111.0833,408.6299,1100.75,398.3382" style="stroke:#545454;stroke-width:1.5625;"/><!--MD5=[325891e944202b3cd0bb5af8558acb75]
reverse link StandardDebugPanel to PageStoreDebugPanel--><path codeLine="45" d="M1214.5833,409.7236 C1214.5833,436.6715 1214.5833,463.6299 1214.5833,484.7653 " fill="none" id="StandardDebugPanel-backto-PageStoreDebugPanel" style="stroke:#545454;stroke-width:1.5625;"/><polygon fill="none" points="1207.2917,409.557,1214.5833,388.7236,1221.875,409.557,1207.2917,409.557" style="stroke:#545454;stroke-width:1.5625;"/><!--MD5=[4b85330976a6a2cf06a37674537378f0]
reverse link StandardDebugPanel to SessionSizeDebugPanel--><path codeLine="52" d="M1326.0625,403.3486 C1355.75,432.3799 1386,461.9736 1409.3021,484.7653 " fill="none" id="StandardDebugPanel-backto-SessionSizeDebugPanel" style="stroke:#545454;stroke-width:1.5625;"/><polygon fill="none" points="1320.8958,408.4945,1311.1042,388.7236,1331.0938,398.0778,1320.8958,408.4945" style="stroke:#545454;stroke-width:1.5625;"/><!--MD5=[b7ac0012e031e4471eb12682d41c21b1]
reverse link DevUtilsPanel to StandardDebugPanel--><path codeLine="59" d="M1041.1146,117.0674 C1063.5208,139.6924 1092.9375,169.4007 1121.1667,197.9007 " fill="none" id="DevUtilsPanel-backto-StandardDebugPanel" style="stroke:#545454;stroke-width:1.5625;"/><polygon fill="none" points="1035.6354,121.9007,1026.1563,101.9632,1046,111.6299,1035.6354,121.9007" style="stroke:#545454;stroke-width:1.5625;"/><!--MD5=[b98015f63b569e2dfc5a25e3b91454ad]
reverse link IDebugBarContributor to VersionDebugContributor--><path codeLine="72" d="M165.625,348.609 C165.625,397.5257 165.625,467.057 165.625,502.6507 " fill="none" id="IDebugBarContributor-backto-VersionDebugContributor" style="stroke:#545454;stroke-width:1.5625;"/><polygon fill="none" points="158.3333,348.2965,165.625,327.4632,172.9167,348.2965,158.3333,348.2965" style="stroke:#545454;stroke-width:1.5625;"/><!--MD5=[1511d25dd8a191027881e15fc8e264cd]
@startuml

    !include lexakai.theme
    
    title "org.apache.wicket.devutils.debugbar"
    
    interface IDebugBarContributor
    interface IInitializer
    
    DevUtilsPanel <|- - DebugBar
    class DebugBar
    {
        - -(constructors)- -
        +DebugBar(String)
        +DebugBar(String, boolean)
        - -
        +DebugBar positionBottom()
        +void setContributors(List<IDebugBarContributor> contributors, Application)
        - -(collection)- -
        +List<IDebugBarContributor> getContributors(Application)
        - -(lookup)- -
        +void registerContributor(IDebugBarContributor, Application)
        +void registerContributor(IDebugBarContributor)
    }
    
    IInitializer <|- - DebugBarInitializer
    class DebugBarInitializer
    {
    }
    
    interface IClusterable
    IClusterable <|- - IDebugBarContributor
    interface IDebugBarContributor
    {
        - -
        +Component createComponent(String id, DebugBar)
    }
    
    StandardDebugPanel <|- - InspectorDebugPanel
    class InspectorDebugPanel
    {
        - -(constructors)- -
        +InspectorDebugPanel(String)
    }
    
    StandardDebugPanel <|- - PageStoreDebugPanel
    class PageStoreDebugPanel
    {
        - -(constructors)- -
        +PageStoreDebugPanel(String)
    }
    
    StandardDebugPanel <|- - SessionSizeDebugPanel
    class SessionSizeDebugPanel
    {
        - -(constructors)- -
        +SessionSizeDebugPanel(String)
    }
    
    DevUtilsPanel <|- - StandardDebugPanel
    abstract class StandardDebugPanel
    {
        - -(constructors)- -
        +StandardDebugPanel(String)
        - -
        #WebMarkupContainer createLink(String id)
        #IModel<String> getDataModel()
        #ResourceReference getImageResourceReference()
        #Class<? extends Page> getLinkPageClass()
        #PageParameters getLinkPageParameters()
    }
    
    IDebugBarContributor <|- - VersionDebugContributor
    class VersionDebugContributor
    {
    }
    
@enduml

@startuml









skinparam backgroundColor #333333






skinparam  {
    defaultFontName   "Open Sans,Avenir,Nunito,Arial,Helvetica,SansSerif"
    defaultFontSize   12
    defaultTextAlignment left
    shadowing false
    RoundCorner 10
    TitleFontSize 18
}

skinparam defaultFontName       "Open Sans,Avenir,Nunito,Arial,Helvetica,SansSerif"
skinparam defaultFontSize       12
skinparam dpi                   100
skinparam shadowing             false
skinparam roundcorner           16
skinparam ParticipantPadding    40
skinparam BoxPadding            40
skinparam Padding               3
skinparam ArrowColor            #545454
skinparam stereotype {
    CBackgroundColor #0066cf
    CBorderColor #0086ef
    ABackgroundColor #C8Ac00
    ABorderColor #D8Bc00
    IBackgroundColor #008400
    IBorderColor #239c23
    EBackgroundColor #cf6300
    EBorderColor #ef8300
    NBackgroundColor #3380b9
    NBorderColor #004d86
}
skinparam title {
	FontColor	                 #c0c0c0
 	BorderColor                  #545454
	FontSize	    	         20
	BorderRoundCorner            16
	BorderThickness 	         1
	BackgroundColor              #48494b
}


skinparam legend {
	BackgroundColor #303030
	BorderColor #404040
	FontColor #a0a0a0
}

	skinparam swimlane {
	BorderColor #5e5e5e
	BorderThickness 2
	TitleBackgroundColor  #6d6d6d-#484848
	TitleFontColor #303030
}

skinparam activity {
		FontColor #C8Ac00
	BorderColor #333333
	BackgroundColor #333333-#333333
	BarColor #00FF00
	StartColor #0060a8
	EndColor #0060a8
	DiamondBackgroundColor #6d6d6d-#3a3a3a
  	DiamondBorderColor #3a3a3a
  	DiamondFontColor #fefefe
}


skinparam participant {
		FontColor #C8Ac00
	BorderColor #333333
	BackgroundColor #333333-#333333
	ParticipantBorderThickness 2
}


skinparam actor {
		FontColor #C8Ac00
	BorderColor #333333
	BackgroundColor #333333-#333333
}


skinparam arrow {
	Thickness 1.5
	Color #545454
	FontColor #a0a0a0
    FontStyle bold
    MessageAlignment center
}



skinparam sequence {
	BorderColor #303030
	TitleFontColor #303030
	BackgroundColor #333333
	StartColor #303030
	EndColor #303030
	BoxBackgroundColor #333333
	BoxBorderColor #484848
	BoxFontColor #484848
	LifeLineBorderColor #484848
	LifeLineBorderThickness 2
	LifeLineBackgroundColor #3a3a3a
	GroupBorderColor #484848
	GroupFontColor #484848
	GroupHeaderFontColor #0060a8
	GroupBackgroundColor #484848
	GroupHeaderBackgroundColor #333333
	DividerBackgroundColor #484848
    DividerBorderColor #484848
    DividerBorderThickness 2
    DividerFontColor #D8Bc00
	ReferenceBackgroundColor #333333
	ReferenceBorderColor #484848
	ReferenceFontColor #fefefe
	ReferenceHeaderBackgroundColor #484848
}


skinparam partition {
	BorderColor #303030
	FontColor #333333
	BackgroundColor #333333
}


skinparam collections {
		FontColor #C8Ac00
	BorderColor #333333
	BackgroundColor #333333-#333333
}


skinparam control {
		FontColor #C8Ac00
	BorderColor #333333
	BackgroundColor #333333-#333333
}


skinparam entity {
		FontColor #C8Ac00
	BorderColor #333333
	BackgroundColor #333333-#333333
}


skinparam boundary {
		FontColor #C8Ac00
	BorderColor #333333
	BackgroundColor #333333-#333333
}


skinparam agent {
	BackgroundColor #ff8000
	BorderColor #ff9933
	FontColor #484848
}


skinparam note {
	BorderThickness 1
	BackgroundColor #1b1b1a
	BorderColor #5e5e5e
	FontSize 11
	FontColor #a0a0a0
}


skinparam artifact {
	BorderThickness 10
	BorderColor #5e5e5e
	BackgroundColor #1b1b1a
	FontColor #D8Bc00
}


skinparam component {
		FontColor #C8Ac00
	BorderColor #333333
	BackgroundColor #333333-#333333
}


skinparam interface {
	BackgroundColor  #008400
	BorderColor  #007F00
	FontColor #484848
}


skinparam storage {
	BackgroundColor #ff8000
  	BorderColor #cc6600
	FontColor #222222
}


skinparam node {
	BackgroundColor #333333
	BorderColor #333333
	FontColor #C8Ac00
}


skinparam cloud {
	BackgroundColor #484848-black
	BorderColor #484848
	FontColor #D8Bc00
}


skinparam database {
		FontColor #C8Ac00
	BorderColor #333333
	BackgroundColor #333333-#333333
	BackgroundColor  #333333
}


skinparam class {
		FontColor #C8Ac00
	BorderColor #333333
	BackgroundColor #333333-#333333
	HeaderBackgroundColor #1b1b1a
    BackgroundColor #282828
    BorderColor #5e5e5e
 	StereotypeFontColor #a0a0a0
    StereotypeFontStyle bold
	BorderThickness 1
	AttributeFontColor #D8Bc00
	AttributeFontSize 11
    FontColor #D8Bc00
    FontStyle bold
}


skinparam object {
		FontColor #C8Ac00
	BorderColor #333333
	BackgroundColor #333333-#333333
	StereotypeFontColor #484848
	BorderThickness 1
	AttributeFontColor #fefefe
	AttributeFontSize 11
}


skinparam usecase {
		FontColor #C8Ac00
	BorderColor #333333
	BackgroundColor #333333-#333333
	BorderThickness 2
	StereotypeFontColor #303030
}


skinparam rectangle {
		FontColor #C8Ac00
	BorderColor #333333
	BackgroundColor #333333-#333333
	BackgroundColor #333333
	BorderThickness 2
	StereotypeFontColor #303030
}


skinparam package {
		FontColor #C8Ac00
	BorderColor #333333
	BackgroundColor #333333-#333333
	BackgroundColor #333333
	BorderThickness 2
}


skinparam folder {
	BackgroundColor #6d6d6d
  	BorderColor #ff8000
	FontColor #ff8000
	BorderThickness 2
}


skinparam frame {
	BackgroundColor #6d6d6d
  	BorderColor #0060a8
	FontColor #0060a8
	BorderThickness 2
}


skinparam state {
		FontColor #C8Ac00
	BorderColor #333333
	BackgroundColor #333333-#333333
	StartColor #0060a8
	EndColor #0060a8
	AttributeFontColor #fefefe
	AttributeFontSize 11
}


skinparam queue {
		FontColor #C8Ac00
	BorderColor #333333
	BackgroundColor #333333-#333333
}


skinparam card {
	BackgroundColor #0060a8
	BorderColor #004d86
	FontColor $INFO_TEXT
}


skinparam file {
	BackgroundColor #6d6d6d-#484848
	BorderColor #0060a8
	FontColor #fefefe
}


skinparam stack {
		FontColor #C8Ac00
	BorderColor #333333
	BackgroundColor #333333-#333333
}

    
    title "org.apache.wicket.devutils.debugbar"
    
    interface IDebugBarContributor
    interface IInitializer
    
    DevUtilsPanel <|- - DebugBar
    class DebugBar
    {
        - -(constructors)- -
        +DebugBar(String)
        +DebugBar(String, boolean)
        - -
        +DebugBar positionBottom()
        +void setContributors(List<IDebugBarContributor> contributors, Application)
        - -(collection)- -
        +List<IDebugBarContributor> getContributors(Application)
        - -(lookup)- -
        +void registerContributor(IDebugBarContributor, Application)
        +void registerContributor(IDebugBarContributor)
    }
    
    IInitializer <|- - DebugBarInitializer
    class DebugBarInitializer
    {
    }
    
    interface IClusterable
    IClusterable <|- - IDebugBarContributor
    interface IDebugBarContributor
    {
        - -
        +Component createComponent(String id, DebugBar)
    }
    
    StandardDebugPanel <|- - InspectorDebugPanel
    class InspectorDebugPanel
    {
        - -(constructors)- -
        +InspectorDebugPanel(String)
    }
    
    StandardDebugPanel <|- - PageStoreDebugPanel
    class PageStoreDebugPanel
    {
        - -(constructors)- -
        +PageStoreDebugPanel(String)
    }
    
    StandardDebugPanel <|- - SessionSizeDebugPanel
    class SessionSizeDebugPanel
    {
        - -(constructors)- -
        +SessionSizeDebugPanel(String)
    }
    
    DevUtilsPanel <|- - StandardDebugPanel
    abstract class StandardDebugPanel
    {
        - -(constructors)- -
        +StandardDebugPanel(String)
        - -
        #WebMarkupContainer createLink(String id)
        #IModel<String> getDataModel()
        #ResourceReference getImageResourceReference()
        #Class<? extends Page> getLinkPageClass()
        #PageParameters getLinkPageParameters()
    }
    
    IDebugBarContributor <|- - VersionDebugContributor
    class VersionDebugContributor
    {
    }
    
@enduml

PlantUML version 1.2021.01(Tue Feb 02 00:55:08 MST 2021)
(GPL source distribution)
Java Runtime: Java(TM) SE Runtime Environment
JVM: Java HotSpot(TM) 64-Bit Server VM
Default Encoding: UTF-8
Language: en
Country: US
--></g></svg>