<?xml version="1.0" encoding="utf-8"?>
<svg id="svg4136" viewBox="0 0 500 500" version="1.1" xmlns="http://www.w3.org/2000/svg">
  <defs id="defs4138">
    <linearGradient id="gradient-2" y2="737.02" gradientUnits="userSpaceOnUse" x2="470" gradientTransform="matrix(.47131 0 0 .47131 8046.6 409.49)" y1="737.02" x1="175.72">
      <stop id="stop-3" offset="0" style="stop-color: rgb(66, 148, 247);"/>
      <stop id="stop-4" stop-color="#5dacd1" offset="1"/>
    </linearGradient>
    <linearGradient id="gradient-1" y2="737.02" gradientUnits="userSpaceOnUse" x2="470" gradientTransform="matrix(.47131 0 0 .47131 8046.6 409.49)" y1="737.02" x1="175.72">
      <stop id="stop-1" offset="0" style="stop-color: rgb(66, 148, 247);"/>
      <stop id="stop-2" stop-color="#5dacd1" offset="1"/>
    </linearGradient>
    <linearGradient id="gradient-3" y2="737.02" gradientUnits="userSpaceOnUse" x2="470" gradientTransform="matrix(.47131 0 0 .47131 8046.6 409.49)" y1="737.02" x1="175.72">
      <stop id="stop-5" offset="0" style="stop-color: rgb(66, 148, 247);"/>
      <stop id="stop-6" stop-color="#5dacd1" offset="1"/>
    </linearGradient>
  </defs>
  <g transform="matrix(1.55521, 0, 0, 1.55521, 142.072632, 107.206711)">
    <g id="g-1" transform="matrix(1, 0, 0, 1, -8129.350098, -599.529968)">
      <path id="path-1" d="m8129.4 721.68v0.29457c0.01-0.0975 0.021-0.19729 0.029-0.29457h-0.029zm138.62 0c0.03 0.33044 0.059 0.66821 0.059 1.0015v-1.0015h-0.059zm0.059 1.0015c0 15.052-31.075 27.262-69.356 27.262-37.683 0.00001-68.376-11.828-69.326-26.555v40.68c-0.015 0.23376-0.015 0.45704-0.015 0.69223 0 0.22546 0.0009 0.45335 0.015 0.67751 0.9115 14.741 31.619 26.599 69.326 26.599 37.708 0 68.415-11.858 69.326-26.599h0.029v-42.756z" fill="url(#gradient-1)"/>
      <path id="path-2" d="m475.71 602.72c0 14.399-65.878 26.071-147.14 26.071-81.265 0-147.14-11.673-147.14-26.071 0-14.399 65.878-26.071 147.14-26.071 81.265 0 147.14 11.673 147.14 26.071z" transform="matrix(.47131 0 0 1.0459 8043.9 94.405)" style="fill: rgb(216, 188, 0);"/>
    </g>
    <g id="g-2" transform="matrix(1, 0, 0, 1, -8129.350098, -647.529968)">
      <path id="path-3" fill="url(#gradient-1)" d="m8129.4 721.68v0.29457c0.01-0.0975 0.021-0.19729 0.029-0.29457h-0.029zm138.62 0c0.03 0.33044 0.059 0.66821 0.059 1.0015v-1.0015h-0.059zm0.059 1.0015c0 15.052-31.075 27.262-69.356 27.262-37.683 0.00001-68.376-11.828-69.326-26.555v40.68c-0.015 0.23376-0.015 0.45704-0.015 0.69223 0 0.22546 0.0009 0.45335 0.015 0.67751 0.9115 14.741 31.619 26.599 69.326 26.599 37.708 0 68.415-11.858 69.326-26.599h0.029v-42.756z"/>
      <path id="path-4" d="m475.71 602.72c0 14.399-65.878 26.071-147.14 26.071-81.265 0-147.14-11.673-147.14-26.071 0-14.399 65.878-26.071 147.14-26.071 81.265 0 147.14 11.673 147.14 26.071z" transform="matrix(.47131 0 0 1.0459 8043.9 94.405)" style="fill: rgb(216, 188, 0);"/>
    </g>
    <g id="g-3" transform="matrix(1, 0, 0, 1, -8129.350098, -697.529968)">
      <path id="path-5" d="m8129.4 721.68v0.29457c0.01-0.0975 0.021-0.19729 0.029-0.29457h-0.029zm138.62 0c0.03 0.33044 0.059 0.66821 0.059 1.0015v-1.0015h-0.059zm0.059 1.0015c0 15.052-31.075 27.262-69.356 27.262-37.683 0.00001-68.376-11.828-69.326-26.555v40.68c-0.015 0.23376-0.015 0.45704-0.015 0.69223 0 0.22546 0.0009 0.45335 0.015 0.67751 0.9115 14.741 31.619 26.599 69.326 26.599 37.708 0 68.415-11.858 69.326-26.599h0.029v-42.756z" fill="url(#gradient-1)"/>
      <path id="path-6" d="m475.71 602.72c0 14.399-65.878 26.071-147.14 26.071-81.265 0-147.14-11.673-147.14-26.071 0-14.399 65.878-26.071 147.14-26.071 81.265 0 147.14 11.673 147.14 26.071z" transform="matrix(.47131 0 0 1.0459 8043.9 94.405)" style="fill: rgb(216, 188, 0);"/>
    </g>
  </g>
  <g style="" transform="matrix(1.55521, 0, 0, 1.55521, 3.449457, 198.15567)">
    <g>
      <g id="g-4" transform="matrix(1, 0, 0, 1, -8129.350098, -599.529968)">
        <path id="path-7" d="m8129.4 721.68v0.29457c0.01-0.0975 0.021-0.19729 0.029-0.29457h-0.029zm138.62 0c0.03 0.33044 0.059 0.66821 0.059 1.0015v-1.0015h-0.059zm0.059 1.0015c0 15.052-31.075 27.262-69.356 27.262-37.683 0.00001-68.376-11.828-69.326-26.555v40.68c-0.015 0.23376-0.015 0.45704-0.015 0.69223 0 0.22546 0.0009 0.45335 0.015 0.67751 0.9115 14.741 31.619 26.599 69.326 26.599 37.708 0 68.415-11.858 69.326-26.599h0.029v-42.756z" fill="url(#gradient-2)"/>
        <path id="path-8" d="m475.71 602.72c0 14.399-65.878 26.071-147.14 26.071-81.265 0-147.14-11.673-147.14-26.071 0-14.399 65.878-26.071 147.14-26.071 81.265 0 147.14 11.673 147.14 26.071z" transform="matrix(.47131 0 0 1.0459 8043.9 94.405)" style="fill: rgb(216, 188, 0);"/>
      </g>
      <g id="g-5" transform="matrix(1, 0, 0, 1, -8129.350098, -647.529968)">
        <path id="path-9" fill="url(#gradient-2)" d="m8129.4 721.68v0.29457c0.01-0.0975 0.021-0.19729 0.029-0.29457h-0.029zm138.62 0c0.03 0.33044 0.059 0.66821 0.059 1.0015v-1.0015h-0.059zm0.059 1.0015c0 15.052-31.075 27.262-69.356 27.262-37.683 0.00001-68.376-11.828-69.326-26.555v40.68c-0.015 0.23376-0.015 0.45704-0.015 0.69223 0 0.22546 0.0009 0.45335 0.015 0.67751 0.9115 14.741 31.619 26.599 69.326 26.599 37.708 0 68.415-11.858 69.326-26.599h0.029v-42.756z"/>
        <path id="path-10" d="m475.71 602.72c0 14.399-65.878 26.071-147.14 26.071-81.265 0-147.14-11.673-147.14-26.071 0-14.399 65.878-26.071 147.14-26.071 81.265 0 147.14 11.673 147.14 26.071z" transform="matrix(.47131 0 0 1.0459 8043.9 94.405)" style="fill: rgb(216, 188, 0);"/>
      </g>
      <g id="g-6" transform="matrix(1, 0, 0, 1, -8129.350098, -697.529968)">
        <path id="path-11" d="m8129.4 721.68v0.29457c0.01-0.0975 0.021-0.19729 0.029-0.29457h-0.029zm138.62 0c0.03 0.33044 0.059 0.66821 0.059 1.0015v-1.0015h-0.059zm0.059 1.0015c0 15.052-31.075 27.262-69.356 27.262-37.683 0.00001-68.376-11.828-69.326-26.555v40.68c-0.015 0.23376-0.015 0.45704-0.015 0.69223 0 0.22546 0.0009 0.45335 0.015 0.67751 0.9115 14.741 31.619 26.599 69.326 26.599 37.708 0 68.415-11.858 69.326-26.599h0.029v-42.756z" fill="url(#gradient-2)"/>
        <path id="path-12" d="m475.71 602.72c0 14.399-65.878 26.071-147.14 26.071-81.265 0-147.14-11.673-147.14-26.071 0-14.399 65.878-26.071 147.14-26.071 81.265 0 147.14 11.673 147.14 26.071z" transform="matrix(.47131 0 0 1.0459 8043.9 94.405)" style="fill: rgb(216, 188, 0);"/>
      </g>
    </g>
  </g>
  <g id="g-7" transform="matrix(1.55521, 0, 0, 1.55521, -12361.382812, -734.167969)">
    <path id="path-13" d="m8129.4 721.68v0.29457c0.01-0.0975 0.021-0.19729 0.029-0.29457h-0.029zm138.62 0c0.03 0.33044 0.059 0.66821 0.059 1.0015v-1.0015h-0.059zm0.059 1.0015c0 15.052-31.075 27.262-69.356 27.262-37.683 0.00001-68.376-11.828-69.326-26.555v40.68c-0.015 0.23376-0.015 0.45704-0.015 0.69223 0 0.22546 0.0009 0.45335 0.015 0.67751 0.9115 14.741 31.619 26.599 69.326 26.599 37.708 0 68.415-11.858 69.326-26.599h0.029v-42.756z" fill="url(#gradient-3)"/>
    <path id="path-14" d="m475.71 602.72c0 14.399-65.878 26.071-147.14 26.071-81.265 0-147.14-11.673-147.14-26.071 0-14.399 65.878-26.071 147.14-26.071 81.265 0 147.14 11.673 147.14 26.071z" transform="matrix(.47131 0 0 1.0459 8043.9 94.405)" style="fill: rgb(216, 188, 0);"/>
  </g>
  <g id="g-8" transform="matrix(1.55521, 0, 0, 1.55521, -12361.382812, -808.818054)">
    <path id="path-15" fill="url(#gradient-3)" d="m8129.4 721.68v0.29457c0.01-0.0975 0.021-0.19729 0.029-0.29457h-0.029zm138.62 0c0.03 0.33044 0.059 0.66821 0.059 1.0015v-1.0015h-0.059zm0.059 1.0015c0 15.052-31.075 27.262-69.356 27.262-37.683 0.00001-68.376-11.828-69.326-26.555v40.68c-0.015 0.23376-0.015 0.45704-0.015 0.69223 0 0.22546 0.0009 0.45335 0.015 0.67751 0.9115 14.741 31.619 26.599 69.326 26.599 37.708 0 68.415-11.858 69.326-26.599h0.029v-42.756z"/>
    <path id="path-16" d="m475.71 602.72c0 14.399-65.878 26.071-147.14 26.071-81.265 0-147.14-11.673-147.14-26.071 0-14.399 65.878-26.071 147.14-26.071 81.265 0 147.14 11.673 147.14 26.071z" transform="matrix(.47131 0 0 1.0459 8043.9 94.405)" style="fill: rgb(216, 188, 0);"/>
  </g>
  <g id="g-9" transform="matrix(1.55521, 0, 0, 1.55521, -12361.382812, -886.578552)">
    <path id="path-17" d="m8129.4 721.68v0.29457c0.01-0.0975 0.021-0.19729 0.029-0.29457h-0.029zm138.62 0c0.03 0.33044 0.059 0.66821 0.059 1.0015v-1.0015h-0.059zm0.059 1.0015c0 15.052-31.075 27.262-69.356 27.262-37.683 0.00001-68.376-11.828-69.326-26.555v40.68c-0.015 0.23376-0.015 0.45704-0.015 0.69223 0 0.22546 0.0009 0.45335 0.015 0.67751 0.9115 14.741 31.619 26.599 69.326 26.599 37.708 0 68.415-11.858 69.326-26.599h0.029v-42.756z" fill="url(#gradient-3)"/>
    <path id="path-18" d="m475.71 602.72c0 14.399-65.878 26.071-147.14 26.071-81.265 0-147.14-11.673-147.14-26.071 0-14.399 65.878-26.071 147.14-26.071 81.265 0 147.14 11.673 147.14 26.071z" transform="matrix(.47131 0 0 1.0459 8043.9 94.405)" style="fill: rgb(216, 188, 0);"/>
  </g>
</svg>