<?xml version="1.0" encoding="utf-8"?>
<svg id="Layer_1" style="enable-background:new 0 0 75.193 329.859" viewBox="0 0 512 512" version="1.1" y="0px" x="0px" xmlns="http://www.w3.org/2000/svg">
  <path d="M 505.943 264.703 C 504.853 276.898 493.951 276.251 487.54 280.58 C 481.202 284.858 475.463 292.202 469.138 296.456 C 439.086 316.679 404.516 333.395 369.934 352.085 C 361.606 356.588 353.537 364.021 344.043 364.243 C 340.284 366.644 344.509 374.454 345.303 379.938 C 341.869 411.501 331.267 438.286 309.489 452.845 C 278.183 473.768 239.965 454.285 214.7 446.69 C 203.103 469.379 186.014 497.506 160.7 499.184 C 145.022 500.228 132.494 485.104 120.475 474.647 C 118.7 461.317 113.584 457.349 110.903 446.576 C 75.799 455.665 44.374 481.52 10.12 501.137 C 7.098 491.894 14.306 489.574 13.17 481.611 C 12.253 478.695 8.939 482.488 7.66 480.579 C 11.656 475.132 18.007 468.074 24.486 463.634 C 48.8 446.954 82.66 430.3 105.688 425.506 C 108.324 402.812 113.098 386.26 128.61 369.505 C 135.534 362.033 146.073 353.212 158.806 353.516 C 163.287 353.626 168.105 357.502 172.98 357.718 C 177.829 357.932 183.358 355.782 188.306 355.953 C 200.539 356.376 217.638 360.376 228.826 360.445 C 238.185 346.951 247.649 326.17 262.418 315.724 C 299.997 289.156 332.328 313.397 343.62 357.21 C 350.068 355.282 352.376 350.541 352.207 344.132 C 351.286 338.478 346.438 343.824 343.945 342.584 C 383.633 320.655 425.359 300.28 464.701 273.215 C 472.512 267.843 478.944 257.721 487.436 258.922 C 490.892 253.969 494.106 246.398 499.982 251.22 C 505.459 256.984 497.263 252.725 499.634 260.43 C 501.986 266.72 504.761 259.056 505.927 264.711 Z M 309.875 369.43 C 314.908 366.091 319.831 362.68 316.482 353.665 C 309.256 355.156 295.489 358.064 294.524 365.785 C 291.404 352.525 277.558 361.938 278.821 371.348 C 282.709 377.834 293.257 365.664 296.529 373.888 C 301.864 369.854 307.821 366.24 308.644 359.154 C 309.62 362.96 307.792 364.88 309.876 369.43 Z M 471.853 286.138 C 480.193 278.787 484.891 274.844 494.184 270.223 C 495.069 266.323 495.68 262.24 494.908 257.216 C 486.39 267.689 468.496 266.105 471.853 286.138 Z M 457.677 281.939 C 458.244 285.92 457.324 288.893 459.309 293.84 C 465.419 292.126 464.714 285.803 469.875 283.449 L 468.27 276.966 C 464.396 274.504 461.339 280.2 457.677 281.939 Z M 442.834 301.576 C 447.761 302.102 455.724 294.521 453.372 285.772 C 448.729 285.44 439.556 292.198 442.834 301.576 Z M 429.111 309.827 C 432.056 310.831 437.93 304.808 440.077 301.059 L 438.472 294.576 C 431.732 297.207 425.011 299.853 429.111 309.827 Z M 411.861 319.734 C 417.21 320.933 425.469 314.103 424.378 306.62 L 423.576 303.379 C 416.176 306.466 409.09 309.764 411.861 319.734 Z M 396.587 332.332 C 401.447 327.077 410.77 324.84 409.481 315.425 C 402.94 310.99 391.083 320.28 396.587 332.332 Z M 381.288 339.516 C 385.166 338.094 385.56 334.311 390.304 333.473 C 390.5 329.566 392.699 327.001 391.426 322.094 C 383.238 321.576 379.377 329.426 381.288 339.516 Z M 368.718 341.801 C 370.788 343.321 374.228 341.003 377.358 339.552 C 376.386 335.746 378.206 333.83 376.128 329.277 C 369.832 330.861 367.083 334.848 368.718 341.801 Z M 354.17 341.398 C 354.736 345.38 353.816 348.356 355.801 353.298 C 360.858 348.629 368.083 345.427 365.937 335.872 C 362.508 333.949 356.733 338.617 354.167 341.4 Z M 325.492 347.625 C 330.019 354.149 332.152 367.393 340.118 364.278 C 339.469 352.21 335.04 342.127 325.494 347.624 Z M 314.806 330.929 C 319.082 339.993 327.455 337.579 334.116 339.958 C 330.252 329.713 324.231 325.554 314.806 330.929 Z M 330.305 367.074 C 330.16 373.394 333.728 389.21 341.03 389.187 C 342.902 378.752 337.988 365.822 330.298 367.078 Z M 304.105 314.243 C 304.607 317.73 300.099 317.825 300.602 321.318 C 305.39 322.258 317.646 329.412 319.86 319.508 C 314.522 317.974 310.954 311.505 304.103 314.244 Z M 327.658 388.225 C 326.6 397.326 323.91 404.885 330.919 412.019 C 331.614 407.097 335.954 404.635 338.73 401.113 C 336.852 391.763 332.696 388.753 327.658 388.225 Z M 322.069 370.942 C 297.148 379.995 265.079 386.356 241.136 383.618 C 236.39 398.844 228.038 411.629 224.446 427.641 C 242.622 426.991 268.957 443.782 291.713 434.053 C 317.657 422.959 325.568 400.307 326.003 370.907 C 324.476 371.524 323.863 369.593 322.064 370.944 Z M 253.999 361.289 C 274.62 357.583 298.618 358.759 318.805 347.147 C 305.796 314.954 263.347 331.001 254.002 361.287 Z M 285.626 313.871 C 279.98 307.5 269.425 315.675 271.529 325.92 C 276.653 327.323 283.326 315.909 286.856 324.153 C 291.146 319.411 299.52 317.434 300.55 310.486 C 296.735 307.434 289.694 308.186 285.623 313.872 Z M 316.115 437.068 C 322.012 429.813 329.448 423.607 323.442 408.294 C 316.453 414.824 313.013 423.739 316.11 437.07 Z M 301.218 445.873 C 306.627 446.325 312.674 436.914 309.776 427.379 C 301.348 429.79 299.474 436.612 301.212 445.877 Z M 259.413 340.654 C 265.18 335.113 268.649 328.019 268.345 318.37 C 259.262 321.058 255.848 333.812 259.407 340.657 Z M 294.871 436.186 L 286.633 440.054 C 285.915 444.967 284.268 449.246 285.137 455.235 C 290.509 446.232 298.597 452.796 299.23 443.187 C 296.582 444.164 295.69 440.291 294.861 436.191 Z M 264.3 376.358 C 272.603 378.366 277.604 372.29 277.993 362.692 C 271.507 358.828 262.403 366.728 264.3 376.358 Z M 248.126 364.047 C 249.938 363.025 252.259 362.348 250.854 359.147 C 244.154 364.04 231.933 362.782 232.081 378.82 C 240.482 379.826 248.316 374.944 248.139 364.041 Z M 248.972 378.126 C 255.125 378.606 264.65 373.561 262.668 364.459 C 256.69 361.555 244.612 364.3 248.976 378.125 Z M 268.958 442.925 C 266.431 436.285 260.679 438.667 255.184 440.345 C 255.757 444.783 252.883 446.885 254.062 451.73 C 262.388 449.751 269.183 450.925 278.052 453.131 C 279.405 449.098 280.746 445.062 281.53 440.644 C 276.679 439.715 273.442 438.524 268.952 442.927 Z M 246.894 353.769 C 253.143 352.605 253.082 347.165 256.282 343.935 C 254.033 337.772 254.426 339.358 253.475 332.588 C 246.892 336.621 242.217 346.252 246.899 353.765 Z M 233.944 359.849 C 238.259 364.088 244.87 357.423 243.333 350.015 L 242.531 346.777 C 237.899 349.927 235.592 354.663 233.951 359.845 Z M 237.502 443.224 C 241.333 450.931 253.544 448.091 251.624 436.593 C 247.076 437.499 237.07 432.043 237.501 443.224 Z M 219.42 364.861 C 219.221 368.773 217.023 371.338 218.296 376.244 C 225.406 376.864 230.995 373.849 232.793 365.819 C 229.113 363.309 224.355 363.843 219.414 364.864 Z M 222.658 383.245 C 223.806 389.79 217.336 399.7 224.718 402.183 C 222.446 404.695 220.826 407.64 222.015 412.495 C 230.789 408.756 223.455 389.235 232.128 389.658 C 230.809 382.355 226.434 383.628 222.658 383.245 Z M 221.715 432.542 C 223.796 437.1 220.866 438.263 222.945 442.819 C 228.007 438.514 233.275 442.695 235.894 436.739 C 236.719 435.952 236.927 434.739 236.268 432.949 C 231.362 432.956 228.324 427.741 221.714 432.542 Z M 202.89 361.768 C 202.607 366.072 200.136 368.898 202.169 374.771 C 205.577 375.04 219.21 372.42 216.664 364.349 C 212.068 363.503 207.494 362.605 202.884 361.772 Z M 128.375 400.375 C 125.563 399.057 120.669 395.323 118.158 401.556 C 118.383 409.025 128.657 406.582 125.323 419.902 C 156.003 409.883 179.101 421.111 206.714 419.681 C 210.451 407.37 220.179 399.112 220.302 384.354 C 193.842 379.579 153.834 365.492 128.367 400.38 Z M 210.729 435.891 C 217.479 434.382 219.277 414.319 218.058 407.12 C 212.353 409.401 206.355 422.376 210.724 435.892 Z M 188.393 372.195 C 191.703 369.327 192.548 373.365 195.854 370.5 C 197.566 368.058 198.599 365.162 198.957 361.806 C 195.139 357.989 184.794 363.182 188.387 372.197 Z M 205.199 429.437 C 198.984 433.64 198.541 447.893 202.176 454.382 C 207.875 449.834 209.164 436.168 205.196 429.439 Z M 173.038 368.548 C 175.148 377.337 188.296 367.747 184.003 359.782 C 180.338 359.702 171.342 361.251 173.031 368.55 Z M 191.636 470.184 C 198.591 464.551 196.54 452.813 198.187 443.589 C 191.206 448.321 186.491 461.726 191.642 470.182 Z M 179.23 425.352 C 175.939 416.799 161.581 421.112 163.93 432.536 C 169.543 434.194 178.663 426.016 181.636 435.075 L 193.4 429.551 C 191.8 419.416 185.699 421.86 179.234 425.35 Z M 127.419 444.249 C 131.317 458.95 139.508 461.616 145.633 470.075 C 162.976 476.426 186.019 462.029 193.855 442.003 C 172.07 441.785 152.082 436.474 127.432 444.243 Z M 159.242 360.548 C 158.856 364.334 157.709 367.608 156.542 370.865 C 161.854 370.993 172.22 370.446 171.036 360.439 C 167.596 359.108 163.34 360.042 159.247 360.546 Z M 159.478 488.902 C 163.955 488.408 174.136 478.767 176.328 477.371 C 178.654 482.098 172.999 481.42 174.402 485.516 C 180.485 478.389 191.138 474.356 186.465 459.949 C 179.459 472.931 155.917 473.566 159.492 488.895 Z M 143.602 376.94 C 150.755 373.688 155.341 368.695 155.316 360.583 C 149.164 359.63 139.188 366.379 143.6 376.941 Z M 148.603 434.302 C 152.7 432.884 155.997 433.708 160.771 430.399 C 161.118 427.031 162.444 424.327 162.298 420.635 C 157.066 417.63 143.967 422.83 148.603 434.302 Z M 129.477 383.572 C 136.17 384.077 138.805 371.311 141.967 365.042 C 133.435 368.258 127.549 373.265 129.477 383.572 Z M 130.468 424.723 C 124.634 418.155 111.98 427.516 115.6 438.944 C 120.423 439.012 130.42 432.277 130.467 424.723 Z M 131.702 435.001 C 136.17 432.549 140.359 430.869 143.87 431.098 C 141.479 425.429 147.491 425.452 146.572 420.783 C 140.136 419.22 129.013 423.446 131.689 435.008 Z M 141.328 473.905 C 142.77 469.784 140.451 469.768 139.323 465.798 C 135.484 467.36 130.287 464.475 128.333 469.151 C 131.761 476.007 139.264 471.463 140.982 483.12 C 147.892 482.556 154.687 487.842 157.86 477.003 C 152.889 474.436 145.965 477.357 141.328 473.905 Z M 111.933 413.526 C 113.125 422.074 117.017 423.067 122.576 419.381 C 120.99 412.5 114.529 408.931 111.934 413.525 Z M 129.825 453.974 C 127.365 453.368 120.931 449.868 119.611 455.154 C 122.903 460.561 126.143 466.124 133.008 461.526 C 132.523 457.397 129.983 459.015 129.828 453.973 Z M 97.879 436.406 C 91.071 429.101 78.233 437.83 81.833 451.178 C 88.562 447.462 95.075 438.664 102.239 443.406 C 106.248 439.37 109.811 435.041 113.582 430.841 L 112.379 425.977 C 106.457 425.069 99.44 430.407 97.868 436.412 Z M 64.133 448.633 C 65.313 452.582 63.524 454.523 63.785 457.845 C 71.409 459.389 78.022 449.832 76.677 440.933 C 71.804 443.04 66.947 445.144 64.129 448.635 Z M 46.887 458.539 C 47.858 462.346 46.038 464.268 48.116 468.82 C 53.848 464.603 59.798 460.539 59.829 452.461 L 59.028 449.22 C 53.44 451.296 48.837 454.024 46.88 458.541 Z M 30.858 478.734 C 37.8 476.682 39.079 470.806 43.777 467.239 L 42.173 460.756 C 36.991 461.076 27.314 465.849 30.857 478.734 Z M 16.764 490.78 C 23.106 486.077 25.106 478.438 26.099 470.111 C 20.111 470.095 13.07 479.87 16.761 490.781 Z M 25.358 477.696 L 26.16 480.936 C 29.68 482.096 28.26 473.805 26.134 475.519 C 26.303 476.546 26.429 477.528 25.361 477.695 Z" style="stroke: rgb(66, 148, 247); fill: rgb(216, 188, 0); stroke-width: 3px;"/>
</svg>