<?xml version="1.0" encoding="UTF-8" standalone="no"?><svg xmlns="http://www.w3.org/2000/svg" xmlns:xlink="http://www.w3.org/1999/xlink" contentScriptType="application/ecmascript" contentStyleType="text/css" height="918.75px" preserveAspectRatio="none" style="width:1293px;height:918px;background:#333333;" version="1.1" viewBox="0 0 1293 918" width="1293.75px" zoomAndPan="magnify"><defs/><g><rect fill="#48494B" height="41.2028" rx="8.3333" ry="8.3333" style="stroke:#545454;stroke-width:1.0416666666666667;" width="431.25" x="424.2188" y="2.0833"/><text fill="#C0C0C0" font-family="Open Sans,Avenir,Nunito,Arial,Helvetica,SansSerif" font-size="20.8333" lengthAdjust="spacing" textLength="408.3333" x="435.6771" y="30.5583">org.apache.wicket.util.parse.metapattern</text><!--MD5=[cd6fe5c68cc4750b98a6651e5a9afd2b]
class IClusterable--><rect codeLine="6" fill="#282828" height="48.055" id="IClusterable" rx="8.3333" ry="8.3333" style="stroke:#5E5E5E;stroke-width:1.0416666666666667;" width="115.625" x="571.875" y="53.7028"/><rect fill="#1B1B1A" height="31.3883" rx="8.3333" ry="8.3333" style="stroke:#1B1B1A;stroke-width:1.0416666666666667;" width="115.625" x="571.875" y="53.7028"/><rect fill="#1B1B1A" height="8.3333" style="stroke:#1B1B1A;stroke-width:1.0416666666666667;" width="115.625" x="571.875" y="76.7578"/><rect codeLine="6" fill="none" height="48.055" id="IClusterable" rx="8.3333" ry="8.3333" style="stroke:#5E5E5E;stroke-width:1.0416666666666667;" width="115.625" x="571.875" y="53.7028"/><ellipse cx="586.4583" cy="69.397" fill="#008400" rx="10.4167" ry="10.4167" style="stroke:#239C23;stroke-width:1.0416666666666667;"/><path d="M583.8623,66.5588 L583.8623,64.9719 L589.2883,64.9719 L589.2883,66.5588 L587.4756,66.5588 L587.4756,72.4976 L589.2883,72.4976 L589.2883,74.0845 L583.8623,74.0845 L583.8623,72.4976 L585.675,72.4976 L585.675,66.5588 Z " fill="#000000"/><text fill="#D8BC00" font-family="Open Sans,Avenir,Nunito,Arial,Helvetica,SansSerif" font-size="12.5" font-style="italic" font-weight="bold" lengthAdjust="spacing" textLength="78.125" x="603.125" y="74.1211">IClusterable</text><line style="stroke:#5E5E5E;stroke-width:1.0416666666666667;" x1="572.9167" x2="686.4583" y1="85.0911" y2="85.0911"/><line style="stroke:#5E5E5E;stroke-width:1.0416666666666667;" x1="572.9167" x2="686.4583" y1="93.4245" y2="93.4245"/><!--MD5=[41314a0efc36828092cff9ebad2fcafd]
class Group--><rect codeLine="32" fill="#282828" height="111.4563" id="Group" rx="8.3333" ry="8.3333" style="stroke:#5E5E5E;stroke-width:1.0416666666666667;" width="141.6667" x="441.1458" y="496.4111"/><rect fill="#1B1B1A" height="31.3883" rx="8.3333" ry="8.3333" style="stroke:#1B1B1A;stroke-width:1.0416666666666667;" width="141.6667" x="441.1458" y="496.4111"/><rect fill="#1B1B1A" height="8.3333" style="stroke:#1B1B1A;stroke-width:1.0416666666666667;" width="141.6667" x="441.1458" y="519.4661"/><rect codeLine="32" fill="none" height="111.4563" id="Group" rx="8.3333" ry="8.3333" style="stroke:#5E5E5E;stroke-width:1.0416666666666667;" width="141.6667" x="441.1458" y="496.4111"/><ellipse cx="484.8958" cy="512.1053" fill="#0066CF" rx="10.4167" ry="10.4167" style="stroke:#0086EF;stroke-width:1.0416666666666667;"/><path d="M486.8062,516.5304 Q486.379,516.7501 485.909,516.8599 Q485.439,516.9698 484.9202,516.9698 Q483.077,516.9698 482.1065,515.7552 Q481.1361,514.5406 481.1361,512.2457 Q481.1361,509.9447 482.1065,508.7301 Q483.077,507.5155 484.9202,507.5155 Q485.439,507.5155 485.9151,507.6253 Q486.3912,507.7352 486.8062,507.9549 L486.8062,509.9569 Q486.3424,509.5296 485.906,509.3313 Q485.4696,509.1329 485.0057,509.1329 Q484.0169,509.1329 483.5134,509.9172 Q483.0098,510.7015 483.0098,512.2457 Q483.0098,513.7838 483.5134,514.5681 Q484.0169,515.3524 485.0057,515.3524 Q485.4696,515.3524 485.906,515.154 Q486.3424,514.9556 486.8062,514.5284 Z " fill="#000000"/><text fill="#D8BC00" font-family="Open Sans,Avenir,Nunito,Arial,Helvetica,SansSerif" font-size="12.5" font-weight="bold" lengthAdjust="spacing" textLength="39.5833" x="507.8125" y="516.8294">Group</text><line style="stroke:#5E5E5E;stroke-width:1.5625;" x1="442.1875" x2="581.7708" y1="527.7995" y2="527.7995"/><ellipse cx="452.6042" cy="563.1694" fill="#84BE84" rx="3.125" ry="3.125" style="stroke:#038048;stroke-width:1.0416666666666667;"/><text fill="#D8BC00" font-family="Open Sans,Avenir,Nunito,Arial,Helvetica,SansSerif" font-size="11.4583" lengthAdjust="spacing" textLength="109.375" x="464.0625" y="570.0806">Group(MetaPattern)</text><line style="stroke:#5E5E5E;stroke-width:1.0416666666666667;" x1="442.1875" x2="468.2292" y1="546.0052" y2="546.0052"/><text fill="#D8BC00" font-family="Open Sans,Avenir,Nunito,Arial,Helvetica,SansSerif" font-size="11.4583" lengthAdjust="spacing" textLength="81.25" x="471.3542" y="549.8149">(constructors)</text><line style="stroke:#5E5E5E;stroke-width:1.0416666666666667;" x1="555.7292" x2="581.7708" y1="546.0052" y2="546.0052"/><line style="stroke:#5E5E5E;stroke-width:1.0416666666666667;" x1="442.1875" x2="581.7708" y1="579.7892" y2="579.7892"/><ellipse cx="452.6042" cy="591.2476" fill="#84BE84" rx="3.125" ry="3.125" style="stroke:#038048;stroke-width:1.0416666666666667;"/><text fill="#D8BC00" font-family="Open Sans,Avenir,Nunito,Arial,Helvetica,SansSerif" font-size="11.4583" lengthAdjust="spacing" textLength="107.2917" x="464.0625" y="598.1588">String get(Matcher)</text><!--MD5=[240ffa82fe77435f56fb84f409829ba9]
class BooleanGroup--><rect codeLine="9" fill="#282828" height="131.2012" id="BooleanGroup" rx="8.3333" ry="8.3333" style="stroke:#5E5E5E;stroke-width:1.0416666666666667;" width="317.7083" x="7.2917" y="733.3903"/><rect fill="#1B1B1A" height="31.3883" rx="8.3333" ry="8.3333" style="stroke:#1B1B1A;stroke-width:1.0416666666666667;" width="317.7083" x="7.2917" y="733.3903"/><rect fill="#1B1B1A" height="8.3333" style="stroke:#1B1B1A;stroke-width:1.0416666666666667;" width="317.7083" x="7.2917" y="756.4453"/><rect codeLine="9" fill="none" height="131.2012" id="BooleanGroup" rx="8.3333" ry="8.3333" style="stroke:#5E5E5E;stroke-width:1.0416666666666667;" width="317.7083" x="7.2917" y="733.3903"/><ellipse cx="113.0208" cy="749.0845" fill="#0066CF" rx="10.4167" ry="10.4167" style="stroke:#0086EF;stroke-width:1.0416666666666667;"/><path d="M114.9312,753.5095 Q114.504,753.7292 114.034,753.8391 Q113.564,753.949 113.0452,753.949 Q111.202,753.949 110.2315,752.7344 Q109.2611,751.5198 109.2611,749.2249 Q109.2611,746.9238 110.2315,745.7092 Q111.202,744.4946 113.0452,744.4946 Q113.564,744.4946 114.0401,744.6045 Q114.5162,744.7144 114.9312,744.9341 L114.9312,746.936 Q114.4674,746.5088 114.031,746.3104 Q113.5946,746.1121 113.1307,746.1121 Q112.1419,746.1121 111.6384,746.8964 Q111.1348,747.6807 111.1348,749.2249 Q111.1348,750.7629 111.6384,751.5472 Q112.1419,752.3315 113.1307,752.3315 Q113.5946,752.3315 114.031,752.1332 Q114.4674,751.9348 114.9312,751.5076 Z " fill="#000000"/><text fill="#D8BC00" font-family="Open Sans,Avenir,Nunito,Arial,Helvetica,SansSerif" font-size="12.5" font-weight="bold" lengthAdjust="spacing" textLength="91.6667" x="135.9375" y="753.8086">BooleanGroup</text><line style="stroke:#5E5E5E;stroke-width:1.5625;" x1="8.3333" x2="323.9583" y1="764.7786" y2="764.7786"/><ellipse cx="18.75" cy="800.1485" fill="#84BE84" rx="3.125" ry="3.125" style="stroke:#038048;stroke-width:1.0416666666666667;"/><text fill="#D8BC00" font-family="Open Sans,Avenir,Nunito,Arial,Helvetica,SansSerif" font-size="11.4583" lengthAdjust="spacing" textLength="87.5" x="30.2083" y="807.0597">BooleanGroup()</text><line style="stroke:#5E5E5E;stroke-width:1.0416666666666667;" x1="8.3333" x2="122.3958" y1="782.9844" y2="782.9844"/><text fill="#D8BC00" font-family="Open Sans,Avenir,Nunito,Arial,Helvetica,SansSerif" font-size="11.4583" lengthAdjust="spacing" textLength="81.25" x="125.5208" y="786.794">(constructors)</text><line style="stroke:#5E5E5E;stroke-width:1.0416666666666667;" x1="209.8958" x2="323.9583" y1="782.9844" y2="782.9844"/><line style="stroke:#5E5E5E;stroke-width:1.0416666666666667;" x1="8.3333" x2="323.9583" y1="816.7684" y2="816.7684"/><ellipse cx="18.75" cy="828.2267" fill="#84BE84" rx="3.125" ry="3.125" style="stroke:#038048;stroke-width:1.0416666666666667;"/><text fill="#D8BC00" font-family="Open Sans,Avenir,Nunito,Arial,Helvetica,SansSerif" font-size="11.4583" lengthAdjust="spacing" textLength="162.5" x="30.2083" y="835.1379">boolean getBoolean(Matcher)</text><ellipse cx="18.75" cy="847.9716" fill="#84BE84" rx="3.125" ry="3.125" style="stroke:#038048;stroke-width:1.0416666666666667;"/><text fill="#D8BC00" font-family="Open Sans,Avenir,Nunito,Arial,Helvetica,SansSerif" font-size="11.4583" lengthAdjust="spacing" textLength="285.4167" x="30.2083" y="854.8828">boolean getBoolean(Matcher, boolean defaultValue)</text><!--MD5=[191533b5b465573f9ba74bcc23e293a3]
class FloatingPointGroup--><rect codeLine="19" fill="#282828" height="194.6025" id="FloatingPointGroup" rx="8.3333" ry="8.3333" style="stroke:#5E5E5E;stroke-width:1.0416666666666667;" width="301.0417" x="361.4583" y="701.6195"/><rect fill="#1B1B1A" height="31.3883" rx="8.3333" ry="8.3333" style="stroke:#1B1B1A;stroke-width:1.0416666666666667;" width="301.0417" x="361.4583" y="701.6195"/><rect fill="#1B1B1A" height="8.3333" style="stroke:#1B1B1A;stroke-width:1.0416666666666667;" width="301.0417" x="361.4583" y="724.6745"/><rect codeLine="19" fill="none" height="194.6025" id="FloatingPointGroup" rx="8.3333" ry="8.3333" style="stroke:#5E5E5E;stroke-width:1.0416666666666667;" width="301.0417" x="361.4583" y="701.6195"/><ellipse cx="441.6667" cy="717.3136" fill="#0066CF" rx="10.4167" ry="10.4167" style="stroke:#0086EF;stroke-width:1.0416666666666667;"/><path d="M443.5771,721.7387 Q443.1498,721.9584 442.6799,722.0683 Q442.2099,722.1781 441.6911,722.1781 Q439.8478,722.1781 438.8774,720.9635 Q437.9069,719.7489 437.9069,717.454 Q437.9069,715.153 438.8774,713.9384 Q439.8478,712.7238 441.6911,712.7238 Q442.2099,712.7238 442.686,712.8337 Q443.162,712.9435 443.5771,713.1632 L443.5771,715.1652 Q443.1132,714.738 442.6768,714.5396 Q442.2404,714.3412 441.7765,714.3412 Q440.7878,714.3412 440.2842,715.1255 Q439.7807,715.9098 439.7807,717.454 Q439.7807,718.9921 440.2842,719.7764 Q440.7878,720.5607 441.7765,720.5607 Q442.2404,720.5607 442.6768,720.3623 Q443.1132,720.164 443.5771,719.7367 Z " fill="#000000"/><text fill="#D8BC00" font-family="Open Sans,Avenir,Nunito,Arial,Helvetica,SansSerif" font-size="12.5" font-weight="bold" lengthAdjust="spacing" textLength="126.0417" x="464.5833" y="722.0378">FloatingPointGroup</text><line style="stroke:#5E5E5E;stroke-width:1.5625;" x1="362.5" x2="661.4583" y1="733.0078" y2="733.0078"/><ellipse cx="372.9167" cy="768.3777" fill="#84BE84" rx="3.125" ry="3.125" style="stroke:#038048;stroke-width:1.0416666666666667;"/><text fill="#D8BC00" font-family="Open Sans,Avenir,Nunito,Arial,Helvetica,SansSerif" font-size="11.4583" lengthAdjust="spacing" textLength="116.6667" x="384.375" y="775.2889">FloatingPointGroup()</text><line style="stroke:#5E5E5E;stroke-width:1.0416666666666667;" x1="362.5" x2="468.2292" y1="751.2136" y2="751.2136"/><text fill="#D8BC00" font-family="Open Sans,Avenir,Nunito,Arial,Helvetica,SansSerif" font-size="11.4583" lengthAdjust="spacing" textLength="81.25" x="471.3542" y="755.0232">(constructors)</text><line style="stroke:#5E5E5E;stroke-width:1.0416666666666667;" x1="555.7292" x2="661.4583" y1="751.2136" y2="751.2136"/><line style="stroke:#5E5E5E;stroke-width:1.0416666666666667;" x1="362.5" x2="661.4583" y1="784.9976" y2="784.9976"/><ellipse cx="372.9167" cy="796.4559" fill="#84BE84" rx="3.125" ry="3.125" style="stroke:#038048;stroke-width:1.0416666666666667;"/><text fill="#D8BC00" font-family="Open Sans,Avenir,Nunito,Arial,Helvetica,SansSerif" font-size="11.4583" lengthAdjust="spacing" textLength="229.1667" x="384.375" y="803.3671">float getFloat(Matcher, float defaultValue)</text><ellipse cx="372.9167" cy="816.2008" fill="#84BE84" rx="3.125" ry="3.125" style="stroke:#038048;stroke-width:1.0416666666666667;"/><text fill="#D8BC00" font-family="Open Sans,Avenir,Nunito,Arial,Helvetica,SansSerif" font-size="11.4583" lengthAdjust="spacing" textLength="126.0417" x="384.375" y="823.112">float getFloat(Matcher)</text><ellipse cx="372.9167" cy="859.8572" fill="#84BE84" rx="3.125" ry="3.125" style="stroke:#038048;stroke-width:1.0416666666666667;"/><text fill="#D8BC00" font-family="Open Sans,Avenir,Nunito,Arial,Helvetica,SansSerif" font-size="11.4583" lengthAdjust="spacing" textLength="152.0833" x="384.375" y="866.7684">double getDouble(Matcher)</text><ellipse cx="372.9167" cy="879.6021" fill="#84BE84" rx="3.125" ry="3.125" style="stroke:#038048;stroke-width:1.0416666666666667;"/><text fill="#D8BC00" font-family="Open Sans,Avenir,Nunito,Arial,Helvetica,SansSerif" font-size="11.4583" lengthAdjust="spacing" textLength="268.75" x="384.375" y="886.5133">double getDouble(Matcher, double defaultValue)</text><line style="stroke:#5E5E5E;stroke-width:1.0416666666666667;" x1="362.5" x2="480.2083" y1="842.6931" y2="842.6931"/><text fill="#D8BC00" font-family="Open Sans,Avenir,Nunito,Arial,Helvetica,SansSerif" font-size="11.4583" lengthAdjust="spacing" textLength="57.2917" x="483.3333" y="846.5027">(primitive)</text><line style="stroke:#5E5E5E;stroke-width:1.0416666666666667;" x1="543.75" x2="661.4583" y1="842.6931" y2="842.6931"/><!--MD5=[118daeaa87f1bb92f57ffc7a98fa2cc4]
class MetaPattern--><rect codeLine="69" fill="#282828" height="253.8371" id="MetaPattern" rx="8.3333" ry="8.3333" style="stroke:#5E5E5E;stroke-width:1.0416666666666667;" width="297.9167" x="480.7292" y="164.1195"/><rect fill="#1B1B1A" height="31.3883" rx="8.3333" ry="8.3333" style="stroke:#1B1B1A;stroke-width:1.0416666666666667;" width="297.9167" x="480.7292" y="164.1195"/><rect fill="#1B1B1A" height="8.3333" style="stroke:#1B1B1A;stroke-width:1.0416666666666667;" width="297.9167" x="480.7292" y="187.1745"/><rect codeLine="69" fill="none" height="253.8371" id="MetaPattern" rx="8.3333" ry="8.3333" style="stroke:#5E5E5E;stroke-width:1.0416666666666667;" width="297.9167" x="480.7292" y="164.1195"/><ellipse cx="583.8542" cy="179.8136" fill="#0066CF" rx="10.4167" ry="10.4167" style="stroke:#0086EF;stroke-width:1.0416666666666667;"/><path d="M585.7646,184.2387 Q585.3373,184.4584 584.8674,184.5683 Q584.3974,184.6781 583.8786,184.6781 Q582.0353,184.6781 581.0649,183.4635 Q580.0944,182.2489 580.0944,179.954 Q580.0944,177.653 581.0649,176.4384 Q582.0353,175.2238 583.8786,175.2238 Q584.3974,175.2238 584.8735,175.3337 Q585.3495,175.4435 585.7646,175.6632 L585.7646,177.6652 Q585.3007,177.238 584.8643,177.0396 Q584.4279,176.8412 583.964,176.8412 Q582.9753,176.8412 582.4717,177.6255 Q581.9682,178.4098 581.9682,179.954 Q581.9682,181.4921 582.4717,182.2764 Q582.9753,183.0607 583.964,183.0607 Q584.4279,183.0607 584.8643,182.8623 Q585.3007,182.664 585.7646,182.2367 Z " fill="#000000"/><text fill="#D8BC00" font-family="Open Sans,Avenir,Nunito,Arial,Helvetica,SansSerif" font-size="12.5" font-weight="bold" lengthAdjust="spacing" textLength="77.0833" x="606.7708" y="184.5378">MetaPattern</text><line style="stroke:#5E5E5E;stroke-width:1.5625;" x1="481.7708" x2="777.6042" y1="195.5078" y2="195.5078"/><ellipse cx="492.1875" cy="230.8777" fill="#84BE84" rx="3.125" ry="3.125" style="stroke:#038048;stroke-width:1.0416666666666667;"/><text fill="#D8BC00" font-family="Open Sans,Avenir,Nunito,Arial,Helvetica,SansSerif" font-size="11.4583" lengthAdjust="spacing" textLength="178.125" x="503.6458" y="237.7889">MetaPattern(List&lt;MetaPattern&gt;)</text><ellipse cx="492.1875" cy="250.6226" fill="#84BE84" rx="3.125" ry="3.125" style="stroke:#038048;stroke-width:1.0416666666666667;"/><text fill="#D8BC00" font-family="Open Sans,Avenir,Nunito,Arial,Helvetica,SansSerif" font-size="11.4583" lengthAdjust="spacing" textLength="139.5833" x="503.6458" y="257.5338">MetaPattern(MetaPattern)</text><ellipse cx="492.1875" cy="270.3674" fill="#84BE84" rx="3.125" ry="3.125" style="stroke:#038048;stroke-width:1.0416666666666667;"/><text fill="#D8BC00" font-family="Open Sans,Avenir,Nunito,Arial,Helvetica,SansSerif" font-size="11.4583" lengthAdjust="spacing" textLength="139.5833" x="503.6458" y="277.2786">MetaPattern(MetaPattern)</text><ellipse cx="492.1875" cy="290.1123" fill="#84BE84" rx="3.125" ry="3.125" style="stroke:#038048;stroke-width:1.0416666666666667;"/><text fill="#D8BC00" font-family="Open Sans,Avenir,Nunito,Arial,Helvetica,SansSerif" font-size="11.4583" lengthAdjust="spacing" textLength="107.2917" x="503.6458" y="297.0235">MetaPattern(String)</text><line style="stroke:#5E5E5E;stroke-width:1.0416666666666667;" x1="481.7708" x2="585.9375" y1="213.7136" y2="213.7136"/><text fill="#D8BC00" font-family="Open Sans,Avenir,Nunito,Arial,Helvetica,SansSerif" font-size="11.4583" lengthAdjust="spacing" textLength="81.25" x="589.0625" y="217.5232">(constructors)</text><line style="stroke:#5E5E5E;stroke-width:1.0416666666666667;" x1="673.4375" x2="777.6042" y1="213.7136" y2="213.7136"/><line style="stroke:#5E5E5E;stroke-width:1.0416666666666667;" x1="481.7708" x2="777.6042" y1="306.7322" y2="306.7322"/><ellipse cx="492.1875" cy="318.1905" fill="#84BE84" rx="3.125" ry="3.125" style="stroke:#038048;stroke-width:1.0416666666666667;"/><text fill="#D8BC00" font-family="Open Sans,Avenir,Nunito,Arial,Helvetica,SansSerif" font-size="11.4583" lengthAdjust="spacing" textLength="91.6667" x="503.6458" y="325.1017">Pattern pattern()</text><ellipse cx="492.1875" cy="337.9354" fill="#84BE84" rx="3.125" ry="3.125" style="stroke:#038048;stroke-width:1.0416666666666667;"/><text fill="#D8BC00" font-family="Open Sans,Avenir,Nunito,Arial,Helvetica,SansSerif" font-size="11.4583" lengthAdjust="spacing" textLength="136.4583" x="503.6458" y="344.8466">Pattern pattern(int flags)</text><ellipse cx="492.1875" cy="381.5918" fill="#84BE84" rx="3.125" ry="3.125" style="stroke:#038048;stroke-width:1.0416666666666667;"/><text fill="#D8BC00" font-family="Open Sans,Avenir,Nunito,Arial,Helvetica,SansSerif" font-size="11.4583" lengthAdjust="spacing" textLength="214.5833" x="503.6458" y="388.503">Matcher matcher(CharSequence input)</text><ellipse cx="492.1875" cy="401.3367" fill="#84BE84" rx="3.125" ry="3.125" style="stroke:#038048;stroke-width:1.0416666666666667;"/><text fill="#D8BC00" font-family="Open Sans,Avenir,Nunito,Arial,Helvetica,SansSerif" font-size="11.4583" lengthAdjust="spacing" textLength="265.625" x="503.6458" y="408.2479">Matcher matcher(CharSequence input, int flags)</text><line style="stroke:#5E5E5E;stroke-width:1.0416666666666667;" x1="481.7708" x2="596.3542" y1="364.4277" y2="364.4277"/><text fill="#D8BC00" font-family="Open Sans,Avenir,Nunito,Arial,Helvetica,SansSerif" font-size="11.4583" lengthAdjust="spacing" textLength="60.4167" x="599.4792" y="368.2373">(matching)</text><line style="stroke:#5E5E5E;stroke-width:1.0416666666666667;" x1="663.0208" x2="777.6042" y1="364.4277" y2="364.4277"/><!--MD5=[5c6c7d52e42032554528404b62c1d271]
class RuntimeException--><rect fill="#282828" height="48.055" id="RuntimeException" rx="8.3333" ry="8.3333" style="stroke:#5E5E5E;stroke-width:1.0416666666666667;" width="154.1667" x="980.7292" y="53.7028"/><rect fill="#1B1B1A" height="31.3883" rx="8.3333" ry="8.3333" style="stroke:#1B1B1A;stroke-width:1.0416666666666667;" width="154.1667" x="980.7292" y="53.7028"/><rect fill="#1B1B1A" height="8.3333" style="stroke:#1B1B1A;stroke-width:1.0416666666666667;" width="154.1667" x="980.7292" y="76.7578"/><rect fill="none" height="48.055" id="RuntimeException" rx="8.3333" ry="8.3333" style="stroke:#5E5E5E;stroke-width:1.0416666666666667;" width="154.1667" x="980.7292" y="53.7028"/><ellipse cx="995.3125" cy="69.397" fill="#0066CF" rx="10.4167" ry="10.4167" style="stroke:#0086EF;stroke-width:1.0416666666666667;"/><path d="M997.2229,73.822 Q996.7957,74.0417 996.3257,74.1516 Q995.8557,74.2615 995.3369,74.2615 Q993.4937,74.2615 992.5232,73.0469 Q991.5527,71.8323 991.5527,69.5374 Q991.5527,67.2363 992.5232,66.0217 Q993.4937,64.8071 995.3369,64.8071 Q995.8557,64.8071 996.3318,64.917 Q996.8079,65.0269 997.2229,65.2466 L997.2229,67.2485 Q996.759,66.8213 996.3226,66.6229 Q995.8862,66.4246 995.4224,66.4246 Q994.4336,66.4246 993.9301,67.2089 Q993.4265,67.9932 993.4265,69.5374 Q993.4265,71.0754 993.9301,71.8597 Q994.4336,72.644 995.4224,72.644 Q995.8862,72.644 996.3226,72.4457 Q996.759,72.2473 997.2229,71.8201 Z " fill="#000000"/><text fill="#D8BC00" font-family="Open Sans,Avenir,Nunito,Arial,Helvetica,SansSerif" font-size="12.5" font-weight="bold" lengthAdjust="spacing" textLength="116.6667" x="1011.9792" y="74.1211">RuntimeException</text><line style="stroke:#5E5E5E;stroke-width:1.0416666666666667;" x1="981.7708" x2="1133.8542" y1="85.0911" y2="85.0911"/><line style="stroke:#5E5E5E;stroke-width:1.0416666666666667;" x1="981.7708" x2="1133.8542" y1="93.4245" y2="93.4245"/><!--MD5=[ae49d3d270b4c986e085d7c044c90f13]
class GroupAlreadyBoundException--><rect codeLine="41" fill="#282828" height="83.3781" id="GroupAlreadyBoundException" rx="8.3333" ry="8.3333" style="stroke:#5E5E5E;stroke-width:1.0416666666666667;" width="230.2083" x="815.625" y="249.5361"/><rect fill="#1B1B1A" height="31.3883" rx="8.3333" ry="8.3333" style="stroke:#1B1B1A;stroke-width:1.0416666666666667;" width="230.2083" x="815.625" y="249.5361"/><rect fill="#1B1B1A" height="8.3333" style="stroke:#1B1B1A;stroke-width:1.0416666666666667;" width="230.2083" x="815.625" y="272.5911"/><rect codeLine="41" fill="none" height="83.3781" id="GroupAlreadyBoundException" rx="8.3333" ry="8.3333" style="stroke:#5E5E5E;stroke-width:1.0416666666666667;" width="230.2083" x="815.625" y="249.5361"/><ellipse cx="830.2083" cy="265.2303" fill="#0066CF" rx="10.4167" ry="10.4167" style="stroke:#0086EF;stroke-width:1.0416666666666667;"/><path d="M832.1187,269.6554 Q831.6915,269.8751 831.2215,269.9849 Q830.7515,270.0948 830.2327,270.0948 Q828.3895,270.0948 827.419,268.8802 Q826.4486,267.6656 826.4486,265.3707 Q826.4486,263.0697 827.419,261.8551 Q828.3895,260.6405 830.2327,260.6405 Q830.7515,260.6405 831.2276,260.7503 Q831.7037,260.8602 832.1187,261.0799 L832.1187,263.0819 Q831.6549,262.6546 831.2185,262.4563 Q830.7821,262.2579 830.3182,262.2579 Q829.3294,262.2579 828.8259,263.0422 Q828.3223,263.8265 828.3223,265.3707 Q828.3223,266.9088 828.8259,267.6931 Q829.3294,268.4774 830.3182,268.4774 Q830.7821,268.4774 831.2185,268.279 Q831.6549,268.0806 832.1187,267.6534 Z " fill="#000000"/><text fill="#D8BC00" font-family="Open Sans,Avenir,Nunito,Arial,Helvetica,SansSerif" font-size="12.5" font-weight="bold" lengthAdjust="spacing" textLength="192.7083" x="846.875" y="269.9544">GroupAlreadyBoundException</text><line style="stroke:#5E5E5E;stroke-width:1.5625;" x1="816.6667" x2="1044.7917" y1="280.9245" y2="280.9245"/><ellipse cx="827.0833" cy="316.2944" fill="#84BE84" rx="3.125" ry="3.125" style="stroke:#038048;stroke-width:1.0416666666666667;"/><text fill="#D8BC00" font-family="Open Sans,Avenir,Nunito,Arial,Helvetica,SansSerif" font-size="11.4583" lengthAdjust="spacing" textLength="177.0833" x="838.5417" y="323.2056">GroupAlreadyBoundException()</text><line style="stroke:#5E5E5E;stroke-width:1.0416666666666667;" x1="816.6667" x2="886.9792" y1="299.1302" y2="299.1302"/><text fill="#D8BC00" font-family="Open Sans,Avenir,Nunito,Arial,Helvetica,SansSerif" font-size="11.4583" lengthAdjust="spacing" textLength="81.25" x="890.1042" y="302.9399">(constructors)</text><line style="stroke:#5E5E5E;stroke-width:1.0416666666666667;" x1="974.4792" x2="1044.7917" y1="299.1302" y2="299.1302"/><!--MD5=[7bc21d1b95c625681b6ed46118885c77]
class GroupNotBoundException--><rect codeLine="48" fill="#282828" height="83.3781" id="GroupNotBoundException" rx="8.3333" ry="8.3333" style="stroke:#5E5E5E;stroke-width:1.0416666666666667;" width="204.1667" x="1082.8125" y="249.5361"/><rect fill="#1B1B1A" height="31.3883" rx="8.3333" ry="8.3333" style="stroke:#1B1B1A;stroke-width:1.0416666666666667;" width="204.1667" x="1082.8125" y="249.5361"/><rect fill="#1B1B1A" height="8.3333" style="stroke:#1B1B1A;stroke-width:1.0416666666666667;" width="204.1667" x="1082.8125" y="272.5911"/><rect codeLine="48" fill="none" height="83.3781" id="GroupNotBoundException" rx="8.3333" ry="8.3333" style="stroke:#5E5E5E;stroke-width:1.0416666666666667;" width="204.1667" x="1082.8125" y="249.5361"/><ellipse cx="1097.3958" cy="265.2303" fill="#0066CF" rx="10.4167" ry="10.4167" style="stroke:#0086EF;stroke-width:1.0416666666666667;"/><path d="M1099.3062,269.6554 Q1098.879,269.8751 1098.409,269.9849 Q1097.939,270.0948 1097.4202,270.0948 Q1095.577,270.0948 1094.6065,268.8802 Q1093.6361,267.6656 1093.6361,265.3707 Q1093.6361,263.0697 1094.6065,261.8551 Q1095.577,260.6405 1097.4202,260.6405 Q1097.939,260.6405 1098.4151,260.7503 Q1098.8912,260.8602 1099.3062,261.0799 L1099.3062,263.0819 Q1098.8424,262.6546 1098.406,262.4563 Q1097.9696,262.2579 1097.5057,262.2579 Q1096.5169,262.2579 1096.0134,263.0422 Q1095.5098,263.8265 1095.5098,265.3707 Q1095.5098,266.9088 1096.0134,267.6931 Q1096.5169,268.4774 1097.5057,268.4774 Q1097.9696,268.4774 1098.406,268.279 Q1098.8424,268.0806 1099.3062,267.6534 Z " fill="#000000"/><text fill="#D8BC00" font-family="Open Sans,Avenir,Nunito,Arial,Helvetica,SansSerif" font-size="12.5" font-weight="bold" lengthAdjust="spacing" textLength="166.6667" x="1114.0625" y="269.9544">GroupNotBoundException</text><line style="stroke:#5E5E5E;stroke-width:1.5625;" x1="1083.8542" x2="1285.9375" y1="280.9245" y2="280.9245"/><ellipse cx="1094.2708" cy="316.2944" fill="#84BE84" rx="3.125" ry="3.125" style="stroke:#038048;stroke-width:1.0416666666666667;"/><text fill="#D8BC00" font-family="Open Sans,Avenir,Nunito,Arial,Helvetica,SansSerif" font-size="11.4583" lengthAdjust="spacing" textLength="154.1667" x="1105.7292" y="323.2056">GroupNotBoundException()</text><line style="stroke:#5E5E5E;stroke-width:1.0416666666666667;" x1="1083.8542" x2="1141.1458" y1="299.1302" y2="299.1302"/><text fill="#D8BC00" font-family="Open Sans,Avenir,Nunito,Arial,Helvetica,SansSerif" font-size="11.4583" lengthAdjust="spacing" textLength="81.25" x="1144.2708" y="302.9399">(constructors)</text><line style="stroke:#5E5E5E;stroke-width:1.0416666666666667;" x1="1228.6458" x2="1285.9375" y1="299.1302" y2="299.1302"/><!--MD5=[0bd5ff265a8cb8fb91201ee31da341c2]
class IntegerGroup--><rect codeLine="55" fill="#282828" height="225.7589" id="IntegerGroup" rx="8.3333" ry="8.3333" style="stroke:#5E5E5E;stroke-width:1.0416666666666667;" width="262.5" x="699.4792" y="685.9945"/><rect fill="#1B1B1A" height="31.3883" rx="8.3333" ry="8.3333" style="stroke:#1B1B1A;stroke-width:1.0416666666666667;" width="262.5" x="699.4792" y="685.9945"/><rect fill="#1B1B1A" height="8.3333" style="stroke:#1B1B1A;stroke-width:1.0416666666666667;" width="262.5" x="699.4792" y="709.0495"/><rect codeLine="55" fill="none" height="225.7589" id="IntegerGroup" rx="8.3333" ry="8.3333" style="stroke:#5E5E5E;stroke-width:1.0416666666666667;" width="262.5" x="699.4792" y="685.9945"/><ellipse cx="780.7292" cy="701.6886" fill="#0066CF" rx="10.4167" ry="10.4167" style="stroke:#0086EF;stroke-width:1.0416666666666667;"/><path d="M782.6396,706.1137 Q782.2123,706.3334 781.7424,706.4433 Q781.2724,706.5531 780.7536,706.5531 Q778.9103,706.5531 777.9399,705.3385 Q776.9694,704.1239 776.9694,701.829 Q776.9694,699.528 777.9399,698.3134 Q778.9103,697.0988 780.7536,697.0988 Q781.2724,697.0988 781.7485,697.2087 Q782.2245,697.3185 782.6396,697.5382 L782.6396,699.5402 Q782.1757,699.113 781.7393,698.9146 Q781.3029,698.7162 780.839,698.7162 Q779.8503,698.7162 779.3467,699.5005 Q778.8432,700.2848 778.8432,701.829 Q778.8432,703.3671 779.3467,704.1514 Q779.8503,704.9357 780.839,704.9357 Q781.3029,704.9357 781.7393,704.7373 Q782.1757,704.539 782.6396,704.1117 Z " fill="#000000"/><text fill="#D8BC00" font-family="Open Sans,Avenir,Nunito,Arial,Helvetica,SansSerif" font-size="12.5" font-weight="bold" lengthAdjust="spacing" textLength="85.4167" x="803.6458" y="706.4128">IntegerGroup</text><line style="stroke:#5E5E5E;stroke-width:1.5625;" x1="700.5208" x2="960.9375" y1="717.3828" y2="717.3828"/><ellipse cx="710.9375" cy="752.7527" fill="#84BE84" rx="3.125" ry="3.125" style="stroke:#038048;stroke-width:1.0416666666666667;"/><text fill="#D8BC00" font-family="Open Sans,Avenir,Nunito,Arial,Helvetica,SansSerif" font-size="11.4583" lengthAdjust="spacing" textLength="83.3333" x="722.3958" y="759.6639">IntegerGroup()</text><ellipse cx="710.9375" cy="772.4976" fill="#84BE84" rx="3.125" ry="3.125" style="stroke:#038048;stroke-width:1.0416666666666667;"/><text fill="#D8BC00" font-family="Open Sans,Avenir,Nunito,Arial,Helvetica,SansSerif" font-size="11.4583" lengthAdjust="spacing" textLength="148.9583" x="722.3958" y="779.4088">IntegerGroup(MetaPattern)</text><ellipse cx="710.9375" cy="792.2424" fill="#84BE84" rx="3.125" ry="3.125" style="stroke:#038048;stroke-width:1.0416666666666667;"/><text fill="#D8BC00" font-family="Open Sans,Avenir,Nunito,Arial,Helvetica,SansSerif" font-size="11.4583" lengthAdjust="spacing" textLength="169.7917" x="722.3958" y="799.1536">IntegerGroup(MetaPattern, int)</text><line style="stroke:#5E5E5E;stroke-width:1.0416666666666667;" x1="700.5208" x2="786.9792" y1="735.5886" y2="735.5886"/><text fill="#D8BC00" font-family="Open Sans,Avenir,Nunito,Arial,Helvetica,SansSerif" font-size="11.4583" lengthAdjust="spacing" textLength="81.25" x="790.1042" y="739.3982">(constructors)</text><line style="stroke:#5E5E5E;stroke-width:1.0416666666666667;" x1="874.4792" x2="960.9375" y1="735.5886" y2="735.5886"/><ellipse cx="710.9375" cy="835.8988" fill="#84BE84" rx="3.125" ry="3.125" style="stroke:#038048;stroke-width:1.0416666666666667;"/><text fill="#D8BC00" font-family="Open Sans,Avenir,Nunito,Arial,Helvetica,SansSerif" font-size="11.4583" lengthAdjust="spacing" textLength="103.125" x="722.3958" y="842.8101">int getInt(Matcher)</text><ellipse cx="710.9375" cy="855.6437" fill="#84BE84" rx="3.125" ry="3.125" style="stroke:#038048;stroke-width:1.0416666666666667;"/><text fill="#D8BC00" font-family="Open Sans,Avenir,Nunito,Arial,Helvetica,SansSerif" font-size="11.4583" lengthAdjust="spacing" textLength="195.8333" x="722.3958" y="862.5549">int getInt(Matcher, int defaultValue)</text><ellipse cx="710.9375" cy="875.3886" fill="#84BE84" rx="3.125" ry="3.125" style="stroke:#038048;stroke-width:1.0416666666666667;"/><text fill="#D8BC00" font-family="Open Sans,Avenir,Nunito,Arial,Helvetica,SansSerif" font-size="11.4583" lengthAdjust="spacing" textLength="230.2083" x="722.3958" y="882.2998">long getLong(Matcher, long defaultValue)</text><ellipse cx="710.9375" cy="895.1335" fill="#84BE84" rx="3.125" ry="3.125" style="stroke:#038048;stroke-width:1.0416666666666667;"/><text fill="#D8BC00" font-family="Open Sans,Avenir,Nunito,Arial,Helvetica,SansSerif" font-size="11.4583" lengthAdjust="spacing" textLength="127.0833" x="722.3958" y="902.0447">long getLong(Matcher)</text><line style="stroke:#5E5E5E;stroke-width:1.0416666666666667;" x1="700.5208" x2="798.9583" y1="818.7347" y2="818.7347"/><text fill="#D8BC00" font-family="Open Sans,Avenir,Nunito,Arial,Helvetica,SansSerif" font-size="11.4583" lengthAdjust="spacing" textLength="57.2917" x="802.0833" y="822.5444">(primitive)</text><line style="stroke:#5E5E5E;stroke-width:1.0416666666666667;" x1="862.5" x2="960.9375" y1="818.7347" y2="818.7347"/><!--MD5=[def81508091615cc803c52b53909d2d0]
class OptionalMetaPattern--><rect codeLine="85" fill="#282828" height="142.6127" id="OptionalMetaPattern" rx="8.3333" ry="8.3333" style="stroke:#5E5E5E;stroke-width:1.0416666666666667;" width="258.3333" x="619.2708" y="480.7861"/><rect fill="#1B1B1A" height="31.3883" rx="8.3333" ry="8.3333" style="stroke:#1B1B1A;stroke-width:1.0416666666666667;" width="258.3333" x="619.2708" y="480.7861"/><rect fill="#1B1B1A" height="8.3333" style="stroke:#1B1B1A;stroke-width:1.0416666666666667;" width="258.3333" x="619.2708" y="503.8411"/><rect codeLine="85" fill="none" height="142.6127" id="OptionalMetaPattern" rx="8.3333" ry="8.3333" style="stroke:#5E5E5E;stroke-width:1.0416666666666667;" width="258.3333" x="619.2708" y="480.7861"/><ellipse cx="674.4792" cy="496.4803" fill="#0066CF" rx="10.4167" ry="10.4167" style="stroke:#0086EF;stroke-width:1.0416666666666667;"/><path d="M676.3896,500.9054 Q675.9623,501.1251 675.4924,501.2349 Q675.0224,501.3448 674.5036,501.3448 Q672.6603,501.3448 671.6899,500.1302 Q670.7194,498.9156 670.7194,496.6207 Q670.7194,494.3197 671.6899,493.1051 Q672.6603,491.8905 674.5036,491.8905 Q675.0224,491.8905 675.4985,492.0003 Q675.9745,492.1102 676.3896,492.3299 L676.3896,494.3319 Q675.9257,493.9046 675.4893,493.7063 Q675.0529,493.5079 674.589,493.5079 Q673.6003,493.5079 673.0967,494.2922 Q672.5932,495.0765 672.5932,496.6207 Q672.5932,498.1588 673.0967,498.9431 Q673.6003,499.7274 674.589,499.7274 Q675.0529,499.7274 675.4893,499.529 Q675.9257,499.3306 676.3896,498.9034 Z " fill="#000000"/><text fill="#D8BC00" font-family="Open Sans,Avenir,Nunito,Arial,Helvetica,SansSerif" font-size="12.5" font-weight="bold" lengthAdjust="spacing" textLength="133.3333" x="697.3958" y="501.2044">OptionalMetaPattern</text><line style="stroke:#5E5E5E;stroke-width:1.5625;" x1="620.3125" x2="876.5625" y1="512.1745" y2="512.1745"/><ellipse cx="630.7292" cy="547.5444" fill="#84BE84" rx="3.125" ry="3.125" style="stroke:#038048;stroke-width:1.0416666666666667;"/><text fill="#D8BC00" font-family="Open Sans,Avenir,Nunito,Arial,Helvetica,SansSerif" font-size="11.4583" lengthAdjust="spacing" textLength="226.0417" x="642.1875" y="554.4556">OptionalMetaPattern(List&lt;MetaPattern&gt;)</text><ellipse cx="630.7292" cy="567.2892" fill="#84BE84" rx="3.125" ry="3.125" style="stroke:#038048;stroke-width:1.0416666666666667;"/><text fill="#D8BC00" font-family="Open Sans,Avenir,Nunito,Arial,Helvetica,SansSerif" font-size="11.4583" lengthAdjust="spacing" textLength="187.5" x="642.1875" y="574.2004">OptionalMetaPattern(MetaPattern)</text><ellipse cx="630.7292" cy="587.0341" fill="#84BE84" rx="3.125" ry="3.125" style="stroke:#038048;stroke-width:1.0416666666666667;"/><text fill="#D8BC00" font-family="Open Sans,Avenir,Nunito,Arial,Helvetica,SansSerif" font-size="11.4583" lengthAdjust="spacing" textLength="195.8333" x="642.1875" y="593.9453">OptionalMetaPattern(MetaPattern[])</text><ellipse cx="630.7292" cy="606.779" fill="#84BE84" rx="3.125" ry="3.125" style="stroke:#038048;stroke-width:1.0416666666666667;"/><text fill="#D8BC00" font-family="Open Sans,Avenir,Nunito,Arial,Helvetica,SansSerif" font-size="11.4583" lengthAdjust="spacing" textLength="155.2083" x="642.1875" y="613.6902">OptionalMetaPattern(String)</text><line style="stroke:#5E5E5E;stroke-width:1.0416666666666667;" x1="620.3125" x2="704.6875" y1="530.3802" y2="530.3802"/><text fill="#D8BC00" font-family="Open Sans,Avenir,Nunito,Arial,Helvetica,SansSerif" font-size="11.4583" lengthAdjust="spacing" textLength="81.25" x="707.8125" y="534.1899">(constructors)</text><line style="stroke:#5E5E5E;stroke-width:1.0416666666666667;" x1="792.1875" x2="876.5625" y1="530.3802" y2="530.3802"/><!--MD5=[d407c264a7138fcf0abee2577200b73f]
reverse link Group to BooleanGroup--><path codeLine="8" d="M423.6875,615.6715 C372.8542,651.6611 309.0625,696.807 257.6875,733.1715 " fill="none" id="Group-backto-BooleanGroup" style="stroke:#545454;stroke-width:1.5625;"/><polygon fill="none" points="419.5208,609.6924,440.7396,603.609,427.9479,621.5986,419.5208,609.6924" style="stroke:#545454;stroke-width:1.5625;"/><!--MD5=[7d26f0f1242a05750ca14bc9a5ec5793]
reverse link Group to FloatingPointGroup--><path codeLine="18" d="M511.9792,629.1195 C511.9792,651.9736 511.9792,677.3695 511.9792,701.3695 " fill="none" id="Group-backto-FloatingPointGroup" style="stroke:#545454;stroke-width:1.5625;"/><polygon fill="none" points="504.6875,628.9528,511.9792,608.1195,519.2708,628.9528,504.6875,628.9528" style="stroke:#545454;stroke-width:1.5625;"/><!--MD5=[fdaf8f2ef0dd89a1cd3db379437664fb]
reverse link MetaPattern to Group--><path codeLine="31" d="M563.4896,437.8278 C554.0313,458.609 544.8333,478.8382 536.8958,496.307 " fill="none" id="MetaPattern-backto-Group" style="stroke:#545454;stroke-width:1.5625;"/><polygon fill="none" points="556.9479,434.5882,572.2083,418.6403,570.2292,440.6195,556.9479,434.5882" style="stroke:#545454;stroke-width:1.5625;"/><!--MD5=[edc26990be6ad20cb2f700b99bfcfb97]
reverse link RuntimeException to GroupAlreadyBoundException--><path codeLine="40" d="M1032.9792,120.0153 C1010.5,157.432 977.5625,212.2236 955.1979,249.4528 " fill="none" id="RuntimeException-backto-GroupAlreadyBoundException" style="stroke:#545454;stroke-width:1.5625;"/><polygon fill="none" points="1026.9896,115.8382,1043.9688,101.734,1039.4896,123.3486,1026.9896,115.8382" style="stroke:#545454;stroke-width:1.5625;"/><!--MD5=[7f6828c2d0969367697d6fce9f966c3a]
reverse link RuntimeException to GroupNotBoundException--><path codeLine="47" d="M1082.6458,120.0153 C1105.125,157.432 1138.0625,212.2236 1160.4271,249.4528 " fill="none" id="RuntimeException-backto-GroupNotBoundException" style="stroke:#545454;stroke-width:1.5625;"/><polygon fill="none" points="1076.1354,123.3486,1071.6563,101.734,1088.6354,115.8382,1076.1354,123.3486" style="stroke:#545454;stroke-width:1.5625;"/><!--MD5=[6eacad63b1d398fe8d8010fd06ffa13a]
reverse link Group to IntegerGroup--><path codeLine="54" d="M597.5208,621.1715 C598.5313,621.9424 599.5313,622.7236 600.5208,623.4945 C632.4167,648.2445 667.0208,674.682 699.4688,699.2965 " fill="none" id="Group-backto-IntegerGroup" style="stroke:#545454;stroke-width:1.5625;"/><polygon fill="none" points="592.8958,626.807,580.9792,608.2236,601.8854,615.3174,592.8958,626.807" style="stroke:#545454;stroke-width:1.5625;"/><!--MD5=[e80dbf9b6b6fd45c811ad0ece83b746e]
reverse link IClusterable to MetaPattern--><path codeLine="68" d="M629.6875,123.0049 C629.6875,135.3174 629.6875,149.3382 629.6875,163.8903 " fill="none" id="IClusterable-backto-MetaPattern" style="stroke:#545454;stroke-width:1.5625;"/><polygon fill="none" points="622.3958,122.5674,629.6875,101.734,636.9792,122.5674,622.3958,122.5674" style="stroke:#545454;stroke-width:1.5625;"/><!--MD5=[64abd5ff0de5459d9a11052603681532]
reverse link MetaPattern to OptionalMetaPattern--><path codeLine="84" d="M696.3646,437.5778 C703.1875,452.4632 709.8854,467.057 716.0833,480.5674 " fill="none" id="MetaPattern-backto-OptionalMetaPattern" style="stroke:#545454;stroke-width:1.5625;"/><polygon fill="none" points="689.7292,440.6195,687.6667,418.6403,702.9896,434.5361,689.7292,440.6195" style="stroke:#545454;stroke-width:1.5625;"/><!--MD5=[44f78248479fb21064a849fda29f380e]
@startuml

    !include lexakai.theme
    
    title "org.apache.wicket.util.parse.metapattern"
    
    interface IClusterable
    
    Group <|- - BooleanGroup
    class BooleanGroup
    {
        - -(constructors)- -
        +BooleanGroup()
        - -
        +boolean getBoolean(Matcher)
        +boolean getBoolean(Matcher, boolean defaultValue)
    }
    
    Group <|- - FloatingPointGroup
    class FloatingPointGroup
    {
        - -(constructors)- -
        +FloatingPointGroup()
        - -
        +float getFloat(Matcher, float defaultValue)
        +float getFloat(Matcher)
        - -(primitive)- -
        +double getDouble(Matcher)
        +double getDouble(Matcher, double defaultValue)
    }
    
    MetaPattern <|- - Group
    class Group
    {
        - -(constructors)- -
        +Group(MetaPattern)
        - -
        +String get(Matcher)
    }
    
    RuntimeException <|- - GroupAlreadyBoundException
    class GroupAlreadyBoundException
    {
        - -(constructors)- -
        +GroupAlreadyBoundException()
    }
    
    RuntimeException <|- - GroupNotBoundException
    class GroupNotBoundException
    {
        - -(constructors)- -
        +GroupNotBoundException()
    }
    
    Group <|- - IntegerGroup
    class IntegerGroup
    {
        - -(constructors)- -
        +IntegerGroup()
        +IntegerGroup(MetaPattern)
        +IntegerGroup(MetaPattern, int)
        - -(primitive)- -
        +int getInt(Matcher)
        +int getInt(Matcher, int defaultValue)
        +long getLong(Matcher, long defaultValue)
        +long getLong(Matcher)
    }
    
    IClusterable <|- - MetaPattern
    class MetaPattern
    {
        - -(constructors)- -
        +MetaPattern(List<MetaPattern>)
        +MetaPattern(MetaPattern)
        +MetaPattern(MetaPattern)
        +MetaPattern(String)
        - -
        +Pattern pattern()
        +Pattern pattern(int flags)
        - -(matching)- -
        +Matcher matcher(CharSequence input)
        +Matcher matcher(CharSequence input, int flags)
    }
    
    MetaPattern <|- - OptionalMetaPattern
    class OptionalMetaPattern
    {
        - -(constructors)- -
        +OptionalMetaPattern(List<MetaPattern>)
        +OptionalMetaPattern(MetaPattern)
        +OptionalMetaPattern(MetaPattern[])
        +OptionalMetaPattern(String)
    }
    
@enduml

@startuml









skinparam backgroundColor #333333






skinparam  {
    defaultFontName   "Open Sans,Avenir,Nunito,Arial,Helvetica,SansSerif"
    defaultFontSize   12
    defaultTextAlignment left
    shadowing false
    RoundCorner 10
    TitleFontSize 18
}

skinparam defaultFontName       "Open Sans,Avenir,Nunito,Arial,Helvetica,SansSerif"
skinparam defaultFontSize       12
skinparam dpi                   100
skinparam shadowing             false
skinparam roundcorner           16
skinparam ParticipantPadding    40
skinparam BoxPadding            40
skinparam Padding               3
skinparam ArrowColor            #545454
skinparam stereotype {
    CBackgroundColor #0066cf
    CBorderColor #0086ef
    ABackgroundColor #C8Ac00
    ABorderColor #D8Bc00
    IBackgroundColor #008400
    IBorderColor #239c23
    EBackgroundColor #cf6300
    EBorderColor #ef8300
    NBackgroundColor #3380b9
    NBorderColor #004d86
}
skinparam title {
	FontColor	                 #c0c0c0
 	BorderColor                  #545454
	FontSize	    	         20
	BorderRoundCorner            16
	BorderThickness 	         1
	BackgroundColor              #48494b
}


skinparam legend {
	BackgroundColor #303030
	BorderColor #404040
	FontColor #a0a0a0
}

	skinparam swimlane {
	BorderColor #5e5e5e
	BorderThickness 2
	TitleBackgroundColor  #6d6d6d-#484848
	TitleFontColor #303030
}

skinparam activity {
		FontColor #C8Ac00
	BorderColor #333333
	BackgroundColor #333333-#333333
	BarColor #00FF00
	StartColor #0060a8
	EndColor #0060a8
	DiamondBackgroundColor #6d6d6d-#3a3a3a
  	DiamondBorderColor #3a3a3a
  	DiamondFontColor #fefefe
}


skinparam participant {
		FontColor #C8Ac00
	BorderColor #333333
	BackgroundColor #333333-#333333
	ParticipantBorderThickness 2
}


skinparam actor {
		FontColor #C8Ac00
	BorderColor #333333
	BackgroundColor #333333-#333333
}


skinparam arrow {
	Thickness 1.5
	Color #545454
	FontColor #a0a0a0
    FontStyle bold
    MessageAlignment center
}



skinparam sequence {
	BorderColor #303030
	TitleFontColor #303030
	BackgroundColor #333333
	StartColor #303030
	EndColor #303030
	BoxBackgroundColor #333333
	BoxBorderColor #484848
	BoxFontColor #484848
	LifeLineBorderColor #484848
	LifeLineBorderThickness 2
	LifeLineBackgroundColor #3a3a3a
	GroupBorderColor #484848
	GroupFontColor #484848
	GroupHeaderFontColor #0060a8
	GroupBackgroundColor #484848
	GroupHeaderBackgroundColor #333333
	DividerBackgroundColor #484848
    DividerBorderColor #484848
    DividerBorderThickness 2
    DividerFontColor #D8Bc00
	ReferenceBackgroundColor #333333
	ReferenceBorderColor #484848
	ReferenceFontColor #fefefe
	ReferenceHeaderBackgroundColor #484848
}


skinparam partition {
	BorderColor #303030
	FontColor #333333
	BackgroundColor #333333
}


skinparam collections {
		FontColor #C8Ac00
	BorderColor #333333
	BackgroundColor #333333-#333333
}


skinparam control {
		FontColor #C8Ac00
	BorderColor #333333
	BackgroundColor #333333-#333333
}


skinparam entity {
		FontColor #C8Ac00
	BorderColor #333333
	BackgroundColor #333333-#333333
}


skinparam boundary {
		FontColor #C8Ac00
	BorderColor #333333
	BackgroundColor #333333-#333333
}


skinparam agent {
	BackgroundColor #ff8000
	BorderColor #ff9933
	FontColor #484848
}


skinparam note {
	BorderThickness 1
	BackgroundColor #1b1b1a
	BorderColor #5e5e5e
	FontSize 11
	FontColor #a0a0a0
}


skinparam artifact {
	BorderThickness 10
	BorderColor #5e5e5e
	BackgroundColor #1b1b1a
	FontColor #D8Bc00
}


skinparam component {
		FontColor #C8Ac00
	BorderColor #333333
	BackgroundColor #333333-#333333
}


skinparam interface {
	BackgroundColor  #008400
	BorderColor  #007F00
	FontColor #484848
}


skinparam storage {
	BackgroundColor #ff8000
  	BorderColor #cc6600
	FontColor #222222
}


skinparam node {
	BackgroundColor #333333
	BorderColor #333333
	FontColor #C8Ac00
}


skinparam cloud {
	BackgroundColor #484848-black
	BorderColor #484848
	FontColor #D8Bc00
}


skinparam database {
		FontColor #C8Ac00
	BorderColor #333333
	BackgroundColor #333333-#333333
	BackgroundColor  #333333
}


skinparam class {
		FontColor #C8Ac00
	BorderColor #333333
	BackgroundColor #333333-#333333
	HeaderBackgroundColor #1b1b1a
    BackgroundColor #282828
    BorderColor #5e5e5e
 	StereotypeFontColor #a0a0a0
    StereotypeFontStyle bold
	BorderThickness 1
	AttributeFontColor #D8Bc00
	AttributeFontSize 11
    FontColor #D8Bc00
    FontStyle bold
}


skinparam object {
		FontColor #C8Ac00
	BorderColor #333333
	BackgroundColor #333333-#333333
	StereotypeFontColor #484848
	BorderThickness 1
	AttributeFontColor #fefefe
	AttributeFontSize 11
}


skinparam usecase {
		FontColor #C8Ac00
	BorderColor #333333
	BackgroundColor #333333-#333333
	BorderThickness 2
	StereotypeFontColor #303030
}


skinparam rectangle {
		FontColor #C8Ac00
	BorderColor #333333
	BackgroundColor #333333-#333333
	BackgroundColor #333333
	BorderThickness 2
	StereotypeFontColor #303030
}


skinparam package {
		FontColor #C8Ac00
	BorderColor #333333
	BackgroundColor #333333-#333333
	BackgroundColor #333333
	BorderThickness 2
}


skinparam folder {
	BackgroundColor #6d6d6d
  	BorderColor #ff8000
	FontColor #ff8000
	BorderThickness 2
}


skinparam frame {
	BackgroundColor #6d6d6d
  	BorderColor #0060a8
	FontColor #0060a8
	BorderThickness 2
}


skinparam state {
		FontColor #C8Ac00
	BorderColor #333333
	BackgroundColor #333333-#333333
	StartColor #0060a8
	EndColor #0060a8
	AttributeFontColor #fefefe
	AttributeFontSize 11
}


skinparam queue {
		FontColor #C8Ac00
	BorderColor #333333
	BackgroundColor #333333-#333333
}


skinparam card {
	BackgroundColor #0060a8
	BorderColor #004d86
	FontColor $INFO_TEXT
}


skinparam file {
	BackgroundColor #6d6d6d-#484848
	BorderColor #0060a8
	FontColor #fefefe
}


skinparam stack {
		FontColor #C8Ac00
	BorderColor #333333
	BackgroundColor #333333-#333333
}

    
    title "org.apache.wicket.util.parse.metapattern"
    
    interface IClusterable
    
    Group <|- - BooleanGroup
    class BooleanGroup
    {
        - -(constructors)- -
        +BooleanGroup()
        - -
        +boolean getBoolean(Matcher)
        +boolean getBoolean(Matcher, boolean defaultValue)
    }
    
    Group <|- - FloatingPointGroup
    class FloatingPointGroup
    {
        - -(constructors)- -
        +FloatingPointGroup()
        - -
        +float getFloat(Matcher, float defaultValue)
        +float getFloat(Matcher)
        - -(primitive)- -
        +double getDouble(Matcher)
        +double getDouble(Matcher, double defaultValue)
    }
    
    MetaPattern <|- - Group
    class Group
    {
        - -(constructors)- -
        +Group(MetaPattern)
        - -
        +String get(Matcher)
    }
    
    RuntimeException <|- - GroupAlreadyBoundException
    class GroupAlreadyBoundException
    {
        - -(constructors)- -
        +GroupAlreadyBoundException()
    }
    
    RuntimeException <|- - GroupNotBoundException
    class GroupNotBoundException
    {
        - -(constructors)- -
        +GroupNotBoundException()
    }
    
    Group <|- - IntegerGroup
    class IntegerGroup
    {
        - -(constructors)- -
        +IntegerGroup()
        +IntegerGroup(MetaPattern)
        +IntegerGroup(MetaPattern, int)
        - -(primitive)- -
        +int getInt(Matcher)
        +int getInt(Matcher, int defaultValue)
        +long getLong(Matcher, long defaultValue)
        +long getLong(Matcher)
    }
    
    IClusterable <|- - MetaPattern
    class MetaPattern
    {
        - -(constructors)- -
        +MetaPattern(List<MetaPattern>)
        +MetaPattern(MetaPattern)
        +MetaPattern(MetaPattern)
        +MetaPattern(String)
        - -
        +Pattern pattern()
        +Pattern pattern(int flags)
        - -(matching)- -
        +Matcher matcher(CharSequence input)
        +Matcher matcher(CharSequence input, int flags)
    }
    
    MetaPattern <|- - OptionalMetaPattern
    class OptionalMetaPattern
    {
        - -(constructors)- -
        +OptionalMetaPattern(List<MetaPattern>)
        +OptionalMetaPattern(MetaPattern)
        +OptionalMetaPattern(MetaPattern[])
        +OptionalMetaPattern(String)
    }
    
@enduml

PlantUML version 1.2021.01(Tue Feb 02 00:55:08 MST 2021)
(GPL source distribution)
Java Runtime: Java(TM) SE Runtime Environment
JVM: Java HotSpot(TM) 64-Bit Server VM
Default Encoding: UTF-8
Language: en
Country: US
--></g></svg>