<?xml version="1.0" encoding="UTF-8" standalone="no"?><svg xmlns="http://www.w3.org/2000/svg" xmlns:xlink="http://www.w3.org/1999/xlink" contentScriptType="application/ecmascript" contentStyleType="text/css" height="361.4583px" preserveAspectRatio="none" style="width:1031px;height:361px;background:#333333;" version="1.1" viewBox="0 0 1031 361" width="1031.25px" zoomAndPan="magnify"><defs/><g><rect fill="#48494B" height="41.2028" rx="8.3333" ry="8.3333" style="stroke:#545454;stroke-width:1.0416666666666667;" width="241.6667" x="387.5" y="2.0833"/><text fill="#C0C0C0" font-family="Open Sans,Avenir,Nunito,Arial,Helvetica,SansSerif" font-size="20.8333" lengthAdjust="spacing" textLength="218.75" x="398.9583" y="30.5583">org.apache.wicket.util</text><!--MD5=[cd6fe5c68cc4750b98a6651e5a9afd2b]
class IClusterable--><rect codeLine="6" fill="#282828" height="48.055" id="IClusterable" rx="8.3333" ry="8.3333" style="stroke:#5E5E5E;stroke-width:1.0416666666666667;" width="115.625" x="481.7708" y="93.2861"/><rect fill="#1B1B1A" height="31.3883" rx="8.3333" ry="8.3333" style="stroke:#1B1B1A;stroke-width:1.0416666666666667;" width="115.625" x="481.7708" y="93.2861"/><rect fill="#1B1B1A" height="8.3333" style="stroke:#1B1B1A;stroke-width:1.0416666666666667;" width="115.625" x="481.7708" y="116.3411"/><rect codeLine="6" fill="none" height="48.055" id="IClusterable" rx="8.3333" ry="8.3333" style="stroke:#5E5E5E;stroke-width:1.0416666666666667;" width="115.625" x="481.7708" y="93.2861"/><ellipse cx="496.3542" cy="108.9803" fill="#008400" rx="10.4167" ry="10.4167" style="stroke:#239C23;stroke-width:1.0416666666666667;"/><path d="M493.7581,106.1422 L493.7581,104.5553 L499.1842,104.5553 L499.1842,106.1422 L497.3714,106.1422 L497.3714,112.0809 L499.1842,112.0809 L499.1842,113.6678 L493.7581,113.6678 L493.7581,112.0809 L495.5709,112.0809 L495.5709,106.1422 Z " fill="#000000"/><text fill="#D8BC00" font-family="Open Sans,Avenir,Nunito,Arial,Helvetica,SansSerif" font-size="12.5" font-style="italic" font-weight="bold" lengthAdjust="spacing" textLength="78.125" x="513.0208" y="113.7044">IClusterable</text><line style="stroke:#5E5E5E;stroke-width:1.0416666666666667;" x1="482.8125" x2="596.3542" y1="124.6745" y2="124.6745"/><line style="stroke:#5E5E5E;stroke-width:1.0416666666666667;" x1="482.8125" x2="596.3542" y1="133.0078" y2="133.0078"/><!--MD5=[6f6af049516bc56aac6e320b3234ce97]
class Supplier--><rect codeLine="7" fill="#282828" height="48.055" id="Supplier" rx="8.3333" ry="8.3333" style="stroke:#5E5E5E;stroke-width:1.0416666666666667;" width="90.625" x="672.3958" y="93.2861"/><rect fill="#1B1B1A" height="31.3883" rx="8.3333" ry="8.3333" style="stroke:#1B1B1A;stroke-width:1.0416666666666667;" width="90.625" x="672.3958" y="93.2861"/><rect fill="#1B1B1A" height="8.3333" style="stroke:#1B1B1A;stroke-width:1.0416666666666667;" width="90.625" x="672.3958" y="116.3411"/><rect codeLine="7" fill="none" height="48.055" id="Supplier" rx="8.3333" ry="8.3333" style="stroke:#5E5E5E;stroke-width:1.0416666666666667;" width="90.625" x="672.3958" y="93.2861"/><ellipse cx="686.9792" cy="108.9803" fill="#008400" rx="10.4167" ry="10.4167" style="stroke:#239C23;stroke-width:1.0416666666666667;"/><path d="M684.3831,106.1422 L684.3831,104.5553 L689.8092,104.5553 L689.8092,106.1422 L687.9964,106.1422 L687.9964,112.0809 L689.8092,112.0809 L689.8092,113.6678 L684.3831,113.6678 L684.3831,112.0809 L686.1959,112.0809 L686.1959,106.1422 Z " fill="#000000"/><text fill="#D8BC00" font-family="Open Sans,Avenir,Nunito,Arial,Helvetica,SansSerif" font-size="12.5" font-style="italic" font-weight="bold" lengthAdjust="spacing" textLength="53.125" x="703.6458" y="113.7044">Supplier</text><line style="stroke:#5E5E5E;stroke-width:1.0416666666666667;" x1="673.4375" x2="761.9792" y1="124.6745" y2="124.6745"/><line style="stroke:#5E5E5E;stroke-width:1.0416666666666667;" x1="673.4375" x2="761.9792" y1="133.0078" y2="133.0078"/><!--MD5=[d5e5de78d358e269aaef430ff3492c72]
class IHierarchical--><rect codeLine="9" fill="#282828" height="67.7999" id="IHierarchical" rx="8.3333" ry="8.3333" style="stroke:#5E5E5E;stroke-width:1.0416666666666667;" width="135.4167" x="7.2917" y="83.3903"/><rect fill="#1B1B1A" height="31.3883" rx="8.3333" ry="8.3333" style="stroke:#1B1B1A;stroke-width:1.0416666666666667;" width="135.4167" x="7.2917" y="83.3903"/><rect fill="#1B1B1A" height="8.3333" style="stroke:#1B1B1A;stroke-width:1.0416666666666667;" width="135.4167" x="7.2917" y="106.4453"/><rect codeLine="9" fill="none" height="67.7999" id="IHierarchical" rx="8.3333" ry="8.3333" style="stroke:#5E5E5E;stroke-width:1.0416666666666667;" width="135.4167" x="7.2917" y="83.3903"/><ellipse cx="21.875" cy="99.0845" fill="#008400" rx="10.4167" ry="10.4167" style="stroke:#239C23;stroke-width:1.0416666666666667;"/><path d="M19.279,96.2463 L19.279,94.6594 L24.705,94.6594 L24.705,96.2463 L22.8923,96.2463 L22.8923,102.1851 L24.705,102.1851 L24.705,103.772 L19.279,103.772 L19.279,102.1851 L21.0917,102.1851 L21.0917,96.2463 Z " fill="#000000"/><text fill="#D8BC00" font-family="Open Sans,Avenir,Nunito,Arial,Helvetica,SansSerif" font-size="12.5" font-style="italic" font-weight="bold" lengthAdjust="spacing" textLength="79.1667" x="38.5417" y="103.8086">IHierarchical</text><rect fill="#333333" height="23.055" style="stroke:#A0A0A0;stroke-width:1.0416666666666667;stroke-dasharray:2.0,2.0;" width="16.6667" x="129.1667" y="80.2653"/><text fill="#A0A0A0" font-family="Open Sans,Avenir,Nunito,Arial,Helvetica,SansSerif" font-size="12.5" font-weight="bold" lengthAdjust="spacing" textLength="8.3333" x="133.3333" y="96.5169">T</text><line style="stroke:#5E5E5E;stroke-width:1.5625;" x1="8.3333" x2="141.6667" y1="114.7786" y2="114.7786"/><line style="stroke:#5E5E5E;stroke-width:1.0416666666666667;" x1="8.3333" x2="141.6667" y1="123.112" y2="123.112"/><ellipse cx="18.75" cy="134.5703" fill="#84BE84" rx="3.125" ry="3.125" style="stroke:#038048;stroke-width:1.0416666666666667;"/><text fill="#D8BC00" font-family="Open Sans,Avenir,Nunito,Arial,Helvetica,SansSerif" font-size="11.4583" lengthAdjust="spacing" textLength="71.875" x="30.2083" y="141.4815">T getParent()</text><!--MD5=[3ae925efca0f22db1ee77380fc1ca0e8]
class LazyInitializer--><rect codeLine="17" fill="#282828" height="67.7999" id="LazyInitializer" rx="8.3333" ry="8.3333" style="stroke:#5E5E5E;stroke-width:1.0416666666666667;" width="146.875" x="466.1458" y="265.1611"/><rect fill="#1B1B1A" height="31.3883" rx="8.3333" ry="8.3333" style="stroke:#1B1B1A;stroke-width:1.0416666666666667;" width="146.875" x="466.1458" y="265.1611"/><rect fill="#1B1B1A" height="8.3333" style="stroke:#1B1B1A;stroke-width:1.0416666666666667;" width="146.875" x="466.1458" y="288.2161"/><rect codeLine="17" fill="none" height="67.7999" id="LazyInitializer" rx="8.3333" ry="8.3333" style="stroke:#5E5E5E;stroke-width:1.0416666666666667;" width="146.875" x="466.1458" y="265.1611"/><ellipse cx="480.7292" cy="280.8553" fill="#C8AC00" rx="10.4167" ry="10.4167" style="stroke:#D8BC00;stroke-width:1.0416666666666667;"/><path d="M480.3223,277.5574 L479.4739,281.2866 L481.1768,281.2866 Z M479.2236,275.9094 L481.427,275.9094 L483.8867,285.022 L482.0862,285.022 L481.5247,282.7698 L479.1138,282.7698 L478.5645,285.022 L476.7639,285.022 Z " fill="#000000"/><text fill="#D8BC00" font-family="Open Sans,Avenir,Nunito,Arial,Helvetica,SansSerif" font-size="12.5" font-style="italic" font-weight="bold" lengthAdjust="spacing" textLength="90.625" x="497.3958" y="285.5794">LazyInitializer</text><rect fill="#333333" height="23.055" style="stroke:#A0A0A0;stroke-width:1.0416666666666667;stroke-dasharray:2.0,2.0;" width="16.6667" x="599.4792" y="262.0361"/><text fill="#A0A0A0" font-family="Open Sans,Avenir,Nunito,Arial,Helvetica,SansSerif" font-size="12.5" font-weight="bold" lengthAdjust="spacing" textLength="8.3333" x="603.6458" y="278.2878">T</text><line style="stroke:#5E5E5E;stroke-width:1.5625;" x1="467.1875" x2="611.9792" y1="296.5495" y2="296.5495"/><line style="stroke:#5E5E5E;stroke-width:1.0416666666666667;" x1="467.1875" x2="611.9792" y1="304.8828" y2="304.8828"/><polygon fill="#FFFF44" points="477.6042,311.1328,481.7708,315.2995,477.6042,319.4661,473.4375,315.2995" style="stroke:#B38D22;stroke-width:1.0416666666666667;"/><text fill="#D8BC00" font-family="Open Sans,Avenir,Nunito,Arial,Helvetica,SansSerif" font-size="11.4583" lengthAdjust="spacing" textLength="100" x="489.0625" y="323.2524">T createInstance()</text><!--MD5=[797c6b177e64eee0010ece385c0f6dde]
class LongEncoder--><rect codeLine="23" fill="#282828" height="127.0345" id="LongEncoder" rx="8.3333" ry="8.3333" style="stroke:#5E5E5E;stroke-width:1.0416666666666667;" width="265.625" x="179.6875" y="53.7028"/><rect fill="#1B1B1A" height="31.3883" rx="8.3333" ry="8.3333" style="stroke:#1B1B1A;stroke-width:1.0416666666666667;" width="265.625" x="179.6875" y="53.7028"/><rect fill="#1B1B1A" height="8.3333" style="stroke:#1B1B1A;stroke-width:1.0416666666666667;" width="265.625" x="179.6875" y="76.7578"/><rect codeLine="23" fill="none" height="127.0345" id="LongEncoder" rx="8.3333" ry="8.3333" style="stroke:#5E5E5E;stroke-width:1.0416666666666667;" width="265.625" x="179.6875" y="53.7028"/><ellipse cx="263.5417" cy="69.397" fill="#0066CF" rx="10.4167" ry="10.4167" style="stroke:#0086EF;stroke-width:1.0416666666666667;"/><path d="M265.4521,73.822 Q265.0248,74.0417 264.5549,74.1516 Q264.0849,74.2615 263.5661,74.2615 Q261.7228,74.2615 260.7524,73.0469 Q259.7819,71.8323 259.7819,69.5374 Q259.7819,67.2363 260.7524,66.0217 Q261.7228,64.8071 263.5661,64.8071 Q264.0849,64.8071 264.561,64.917 Q265.037,65.0269 265.4521,65.2466 L265.4521,67.2485 Q264.9882,66.8213 264.5518,66.6229 Q264.1154,66.4246 263.6515,66.4246 Q262.6628,66.4246 262.1592,67.2089 Q261.6557,67.9932 261.6557,69.5374 Q261.6557,71.0754 262.1592,71.8597 Q262.6628,72.644 263.6515,72.644 Q264.1154,72.644 264.5518,72.4457 Q264.9882,72.2473 265.4521,71.8201 Z " fill="#000000"/><text fill="#D8BC00" font-family="Open Sans,Avenir,Nunito,Arial,Helvetica,SansSerif" font-size="12.5" font-weight="bold" lengthAdjust="spacing" textLength="83.3333" x="286.4583" y="74.1211">LongEncoder</text><line style="stroke:#5E5E5E;stroke-width:1.5625;" x1="180.7292" x2="444.2708" y1="85.0911" y2="85.0911"/><line style="stroke:#5E5E5E;stroke-width:1.0416666666666667;" x1="180.7292" x2="444.2708" y1="93.4245" y2="93.4245"/><ellipse cx="191.1458" cy="104.8828" fill="#84BE84" rx="3.125" ry="3.125" style="stroke:#038048;stroke-width:1.0416666666666667;"/><text fill="#D8BC00" font-family="Open Sans,Avenir,Nunito,Arial,Helvetica,SansSerif" font-size="11.4583" lengthAdjust="spacing" textLength="233.3333" x="202.6042" y="111.794">long decode(String value, String alphabet)</text><ellipse cx="191.1458" cy="124.6277" fill="#84BE84" rx="3.125" ry="3.125" style="stroke:#038048;stroke-width:1.0416666666666667;"/><text fill="#D8BC00" font-family="Open Sans,Avenir,Nunito,Arial,Helvetica,SansSerif" font-size="11.4583" lengthAdjust="spacing" textLength="142.7083" x="202.6042" y="131.5389">long decode(String value)</text><ellipse cx="191.1458" cy="144.3726" fill="#84BE84" rx="3.125" ry="3.125" style="stroke:#038048;stroke-width:1.0416666666666667;"/><text fill="#D8BC00" font-family="Open Sans,Avenir,Nunito,Arial,Helvetica,SansSerif" font-size="11.4583" lengthAdjust="spacing" textLength="233.3333" x="202.6042" y="151.2838">String encode(long value, String alphabet)</text><ellipse cx="191.1458" cy="164.1174" fill="#84BE84" rx="3.125" ry="3.125" style="stroke:#038048;stroke-width:1.0416666666666667;"/><text fill="#D8BC00" font-family="Open Sans,Avenir,Nunito,Arial,Helvetica,SansSerif" font-size="11.4583" lengthAdjust="spacing" textLength="142.7083" x="202.6042" y="171.0286">String encode(long value)</text><!--MD5=[4d45bfa8312649f23d29ebef407ae4ea]
class NullProvider--><rect codeLine="33" fill="#282828" height="48.055" id="NullProvider" rx="8.3333" ry="8.3333" style="stroke:#5E5E5E;stroke-width:1.0416666666666667;" width="135.4167" x="650" y="275.057"/><rect fill="#1B1B1A" height="31.3883" rx="8.3333" ry="8.3333" style="stroke:#1B1B1A;stroke-width:1.0416666666666667;" width="135.4167" x="650" y="275.057"/><rect fill="#1B1B1A" height="8.3333" style="stroke:#1B1B1A;stroke-width:1.0416666666666667;" width="135.4167" x="650" y="298.112"/><rect codeLine="33" fill="none" height="48.055" id="NullProvider" rx="8.3333" ry="8.3333" style="stroke:#5E5E5E;stroke-width:1.0416666666666667;" width="135.4167" x="650" y="275.057"/><ellipse cx="664.5833" cy="290.7511" fill="#0066CF" rx="10.4167" ry="10.4167" style="stroke:#0086EF;stroke-width:1.0416666666666667;"/><path d="M666.4937,295.1762 Q666.0665,295.3959 665.5965,295.5058 Q665.1265,295.6156 664.6077,295.6156 Q662.7645,295.6156 661.794,294.401 Q660.8236,293.1864 660.8236,290.8915 Q660.8236,288.5905 661.794,287.3759 Q662.7645,286.1613 664.6077,286.1613 Q665.1265,286.1613 665.6026,286.2712 Q666.0787,286.381 666.4937,286.6007 L666.4937,288.6027 Q666.0299,288.1755 665.5935,287.9771 Q665.1571,287.7787 664.6932,287.7787 Q663.7044,287.7787 663.2009,288.563 Q662.6973,289.3473 662.6973,290.8915 Q662.6973,292.4296 663.2009,293.2139 Q663.7044,293.9982 664.6932,293.9982 Q665.1571,293.9982 665.5935,293.7998 Q666.0299,293.6015 666.4937,293.1742 Z " fill="#000000"/><text fill="#D8BC00" font-family="Open Sans,Avenir,Nunito,Arial,Helvetica,SansSerif" font-size="12.5" font-weight="bold" lengthAdjust="spacing" textLength="79.1667" x="681.25" y="295.4753">NullProvider</text><rect fill="#333333" height="23.055" style="stroke:#A0A0A0;stroke-width:1.0416666666666667;stroke-dasharray:2.0,2.0;" width="16.6667" x="771.875" y="271.932"/><text fill="#A0A0A0" font-family="Open Sans,Avenir,Nunito,Arial,Helvetica,SansSerif" font-size="12.5" font-weight="bold" lengthAdjust="spacing" textLength="8.3333" x="776.0417" y="288.1836">T</text><line style="stroke:#5E5E5E;stroke-width:1.0416666666666667;" x1="651.0417" x2="784.375" y1="306.4453" y2="306.4453"/><line style="stroke:#5E5E5E;stroke-width:1.0416666666666667;" x1="651.0417" x2="784.375" y1="314.7786" y2="314.7786"/><!--MD5=[cbca47520a267d9422df6fa7c178882c]
class ValueProvider--><rect codeLine="38" fill="#282828" height="111.4563" id="ValueProvider" rx="8.3333" ry="8.3333" style="stroke:#5E5E5E;stroke-width:1.0416666666666667;" width="197.9167" x="821.875" y="243.2861"/><rect fill="#1B1B1A" height="31.3883" rx="8.3333" ry="8.3333" style="stroke:#1B1B1A;stroke-width:1.0416666666666667;" width="197.9167" x="821.875" y="243.2861"/><rect fill="#1B1B1A" height="8.3333" style="stroke:#1B1B1A;stroke-width:1.0416666666666667;" width="197.9167" x="821.875" y="266.3411"/><rect codeLine="38" fill="none" height="111.4563" id="ValueProvider" rx="8.3333" ry="8.3333" style="stroke:#5E5E5E;stroke-width:1.0416666666666667;" width="197.9167" x="821.875" y="243.2861"/><ellipse cx="860.3646" cy="258.9803" fill="#0066CF" rx="10.4167" ry="10.4167" style="stroke:#0086EF;stroke-width:1.0416666666666667;"/><path d="M862.275,263.4054 Q861.8477,263.6251 861.3778,263.7349 Q860.9078,263.8448 860.389,263.8448 Q858.5457,263.8448 857.5753,262.6302 Q856.6048,261.4156 856.6048,259.1207 Q856.6048,256.8197 857.5753,255.6051 Q858.5457,254.3905 860.389,254.3905 Q860.9078,254.3905 861.3839,254.5003 Q861.8599,254.6102 862.275,254.8299 L862.275,256.8319 Q861.8111,256.4046 861.3747,256.2063 Q860.9383,256.0079 860.4744,256.0079 Q859.4857,256.0079 858.9821,256.7922 Q858.4786,257.5765 858.4786,259.1207 Q858.4786,260.6588 858.9821,261.4431 Q859.4857,262.2274 860.4744,262.2274 Q860.9383,262.2274 861.3747,262.029 Q861.8111,261.8306 862.275,261.4034 Z " fill="#000000"/><text fill="#D8BC00" font-family="Open Sans,Avenir,Nunito,Arial,Helvetica,SansSerif" font-size="12.5" font-weight="bold" lengthAdjust="spacing" textLength="88.5417" x="882.3438" y="263.7044">ValueProvider</text><rect fill="#333333" height="23.055" style="stroke:#A0A0A0;stroke-width:1.0416666666666667;stroke-dasharray:2.0,2.0;" width="16.6667" x="1006.25" y="240.1611"/><text fill="#A0A0A0" font-family="Open Sans,Avenir,Nunito,Arial,Helvetica,SansSerif" font-size="12.5" font-weight="bold" lengthAdjust="spacing" textLength="8.3333" x="1010.4167" y="256.4128">T</text><line style="stroke:#5E5E5E;stroke-width:1.5625;" x1="822.9167" x2="1018.75" y1="274.6745" y2="274.6745"/><ellipse cx="833.3333" cy="310.0444" fill="#84BE84" rx="3.125" ry="3.125" style="stroke:#038048;stroke-width:1.0416666666666667;"/><text fill="#D8BC00" font-family="Open Sans,Avenir,Nunito,Arial,Helvetica,SansSerif" font-size="11.4583" lengthAdjust="spacing" textLength="92.7083" x="844.7917" y="316.9556">ValueProvider(T)</text><line style="stroke:#5E5E5E;stroke-width:1.0416666666666667;" x1="822.9167" x2="877.0833" y1="292.8802" y2="292.8802"/><text fill="#D8BC00" font-family="Open Sans,Avenir,Nunito,Arial,Helvetica,SansSerif" font-size="11.4583" lengthAdjust="spacing" textLength="81.25" x="880.2083" y="296.6899">(constructors)</text><line style="stroke:#5E5E5E;stroke-width:1.0416666666666667;" x1="964.5833" x2="1018.75" y1="292.8802" y2="292.8802"/><line style="stroke:#5E5E5E;stroke-width:1.0416666666666667;" x1="822.9167" x2="1018.75" y1="326.6642" y2="326.6642"/><ellipse cx="833.3333" cy="338.1226" fill="#84BE84" rx="3.125" ry="3.125" style="stroke:#038048;stroke-width:1.0416666666666667;"/><text fill="#D8BC00" font-family="Open Sans,Avenir,Nunito,Arial,Helvetica,SansSerif" font-size="11.4583" lengthAdjust="spacing" textLength="165.625" x="844.7917" y="345.0338">ValueProvider&lt;T&gt; of(T value)</text><!--MD5=[b21581ef526c1d94d21283a93605d5a3]
class WicketTestTag--><rect codeLine="46" fill="#282828" height="48.055" id="WicketTestTag" rx="8.3333" ry="8.3333" style="stroke:#5E5E5E;stroke-width:1.0416666666666667;" width="132.2917" x="8.8542" y="275.057"/><rect fill="#1B1B1A" height="31.3883" rx="8.3333" ry="8.3333" style="stroke:#1B1B1A;stroke-width:1.0416666666666667;" width="132.2917" x="8.8542" y="275.057"/><rect fill="#1B1B1A" height="8.3333" style="stroke:#1B1B1A;stroke-width:1.0416666666666667;" width="132.2917" x="8.8542" y="298.112"/><rect codeLine="46" fill="none" height="48.055" id="WicketTestTag" rx="8.3333" ry="8.3333" style="stroke:#5E5E5E;stroke-width:1.0416666666666667;" width="132.2917" x="8.8542" y="275.057"/><ellipse cx="23.4375" cy="290.7511" fill="#008400" rx="10.4167" ry="10.4167" style="stroke:#239C23;stroke-width:1.0416666666666667;"/><path d="M20.8415,287.913 L20.8415,286.3261 L26.2675,286.3261 L26.2675,287.913 L24.4548,287.913 L24.4548,293.8517 L26.2675,293.8517 L26.2675,295.4386 L20.8415,295.4386 L20.8415,293.8517 L22.6542,293.8517 L22.6542,287.913 Z " fill="#000000"/><text fill="#D8BC00" font-family="Open Sans,Avenir,Nunito,Arial,Helvetica,SansSerif" font-size="12.5" font-style="italic" font-weight="bold" lengthAdjust="spacing" textLength="94.7917" x="40.1042" y="295.4753">WicketTestTag</text><line style="stroke:#5E5E5E;stroke-width:1.0416666666666667;" x1="9.8958" x2="140.1042" y1="306.4453" y2="306.4453"/><line style="stroke:#5E5E5E;stroke-width:1.0416666666666667;" x1="9.8958" x2="140.1042" y1="314.7786" y2="314.7786"/><!--MD5=[0bb0634f6f3e12faee4cce0522462d18]
reverse link Supplier to LazyInitializer--><path codeLine="15" d="M679.8958,156.432 C647.9896,188.6195 602.7917,234.2028 572.3958,264.8695 " fill="none" id="Supplier-backto-LazyInitializer" style="stroke:#545454;stroke-width:1.5625;"/><polygon fill="none" points="674.9375,151.0674,694.7813,141.4111,685.3021,161.3382,674.9375,151.0674" style="stroke:#545454;stroke-width:1.5625;"/><!--MD5=[0dd3680150e5f2ac7f81e18d521af169]
reverse link IClusterable to LazyInitializer--><path codeLine="16" d="M539.5833,162.2965 C539.5833,193.9736 539.5833,236.0257 539.5833,264.8695 " fill="none" id="IClusterable-backto-LazyInitializer" style="stroke:#545454;stroke-width:1.5625;"/><polygon fill="none" points="532.2917,162.2445,539.5833,141.4111,546.875,162.2445,532.2917,162.2445" style="stroke:#545454;stroke-width:1.5625;"/><!--MD5=[233945ca6629f24e2aa9186f7add6ebb]
reverse link Supplier to NullProvider--><path codeLine="32" d="M717.7083,162.5674 C717.7083,198.1507 717.7083,246.682 717.7083,274.9424 " fill="none" id="Supplier-backto-NullProvider" style="stroke:#545454;stroke-width:1.5625;"/><polygon fill="none" points="710.4167,162.2445,717.7083,141.4111,725,162.2445,710.4167,162.2445" style="stroke:#545454;stroke-width:1.5625;"/><!--MD5=[927db9f7c4063a76d7bb1762ae956df6]
reverse link Supplier to ValueProvider--><path codeLine="37" d="M759.4792,155.234 C788.1667,180.609 826.7396,214.734 858.9792,243.2549 " fill="none" id="Supplier-backto-ValueProvider" style="stroke:#545454;stroke-width:1.5625;"/><polygon fill="none" points="754.625,160.6715,743.8438,141.4111,764.2813,149.7549,754.625,160.6715" style="stroke:#545454;stroke-width:1.5625;"/><!--MD5=[12cdae99de610067bfc34e9503d352b6]
link IHierarchical to LongEncoder--><!--MD5=[f574a97b03355d7d26bf1358a4beedcc]
link IHierarchical to WicketTestTag--><!--MD5=[5d39ad8e3440a3f43403b9903bb87812]
@startuml

    !include lexakai.theme
    
    title "org.apache.wicket.util"
    
    interface IClusterable
    interface Supplier
    
    interface IHierarchical<T>
    {
        - -
        +T getParent()
    }
    
    Supplier <|- - LazyInitializer
    IClusterable <|- - LazyInitializer
    abstract class LazyInitializer<T>
    {
        - -
        #T createInstance()
    }
    
    class LongEncoder
    {
        - -
        +long decode(String value, String alphabet)
        +long decode(String value)
        +String encode(long value, String alphabet)
        +String encode(long value)
    }
    
    Supplier <|- - NullProvider
    class NullProvider<T>
    {
    }
    
    Supplier <|- - ValueProvider
    class ValueProvider<T>
    {
        - -(constructors)- -
        +ValueProvider(T)
        - -
        +ValueProvider<T> of(T value)
    }
    
    interface WicketTestTag
    {
    }
    
@enduml

@startuml









skinparam backgroundColor #333333






skinparam  {
    defaultFontName   "Open Sans,Avenir,Nunito,Arial,Helvetica,SansSerif"
    defaultFontSize   12
    defaultTextAlignment left
    shadowing false
    RoundCorner 10
    TitleFontSize 18
}

skinparam defaultFontName       "Open Sans,Avenir,Nunito,Arial,Helvetica,SansSerif"
skinparam defaultFontSize       12
skinparam dpi                   100
skinparam shadowing             false
skinparam roundcorner           16
skinparam ParticipantPadding    40
skinparam BoxPadding            40
skinparam Padding               3
skinparam ArrowColor            #545454
skinparam stereotype {
    CBackgroundColor #0066cf
    CBorderColor #0086ef
    ABackgroundColor #C8Ac00
    ABorderColor #D8Bc00
    IBackgroundColor #008400
    IBorderColor #239c23
    EBackgroundColor #cf6300
    EBorderColor #ef8300
    NBackgroundColor #3380b9
    NBorderColor #004d86
}
skinparam title {
	FontColor	                 #c0c0c0
 	BorderColor                  #545454
	FontSize	    	         20
	BorderRoundCorner            16
	BorderThickness 	         1
	BackgroundColor              #48494b
}


skinparam legend {
	BackgroundColor #303030
	BorderColor #404040
	FontColor #a0a0a0
}

	skinparam swimlane {
	BorderColor #5e5e5e
	BorderThickness 2
	TitleBackgroundColor  #6d6d6d-#484848
	TitleFontColor #303030
}

skinparam activity {
		FontColor #C8Ac00
	BorderColor #333333
	BackgroundColor #333333-#333333
	BarColor #00FF00
	StartColor #0060a8
	EndColor #0060a8
	DiamondBackgroundColor #6d6d6d-#3a3a3a
  	DiamondBorderColor #3a3a3a
  	DiamondFontColor #fefefe
}


skinparam participant {
		FontColor #C8Ac00
	BorderColor #333333
	BackgroundColor #333333-#333333
	ParticipantBorderThickness 2
}


skinparam actor {
		FontColor #C8Ac00
	BorderColor #333333
	BackgroundColor #333333-#333333
}


skinparam arrow {
	Thickness 1.5
	Color #545454
	FontColor #a0a0a0
    FontStyle bold
    MessageAlignment center
}



skinparam sequence {
	BorderColor #303030
	TitleFontColor #303030
	BackgroundColor #333333
	StartColor #303030
	EndColor #303030
	BoxBackgroundColor #333333
	BoxBorderColor #484848
	BoxFontColor #484848
	LifeLineBorderColor #484848
	LifeLineBorderThickness 2
	LifeLineBackgroundColor #3a3a3a
	GroupBorderColor #484848
	GroupFontColor #484848
	GroupHeaderFontColor #0060a8
	GroupBackgroundColor #484848
	GroupHeaderBackgroundColor #333333
	DividerBackgroundColor #484848
    DividerBorderColor #484848
    DividerBorderThickness 2
    DividerFontColor #D8Bc00
	ReferenceBackgroundColor #333333
	ReferenceBorderColor #484848
	ReferenceFontColor #fefefe
	ReferenceHeaderBackgroundColor #484848
}


skinparam partition {
	BorderColor #303030
	FontColor #333333
	BackgroundColor #333333
}


skinparam collections {
		FontColor #C8Ac00
	BorderColor #333333
	BackgroundColor #333333-#333333
}


skinparam control {
		FontColor #C8Ac00
	BorderColor #333333
	BackgroundColor #333333-#333333
}


skinparam entity {
		FontColor #C8Ac00
	BorderColor #333333
	BackgroundColor #333333-#333333
}


skinparam boundary {
		FontColor #C8Ac00
	BorderColor #333333
	BackgroundColor #333333-#333333
}


skinparam agent {
	BackgroundColor #ff8000
	BorderColor #ff9933
	FontColor #484848
}


skinparam note {
	BorderThickness 1
	BackgroundColor #1b1b1a
	BorderColor #5e5e5e
	FontSize 11
	FontColor #a0a0a0
}


skinparam artifact {
	BorderThickness 10
	BorderColor #5e5e5e
	BackgroundColor #1b1b1a
	FontColor #D8Bc00
}


skinparam component {
		FontColor #C8Ac00
	BorderColor #333333
	BackgroundColor #333333-#333333
}


skinparam interface {
	BackgroundColor  #008400
	BorderColor  #007F00
	FontColor #484848
}


skinparam storage {
	BackgroundColor #ff8000
  	BorderColor #cc6600
	FontColor #222222
}


skinparam node {
	BackgroundColor #333333
	BorderColor #333333
	FontColor #C8Ac00
}


skinparam cloud {
	BackgroundColor #484848-black
	BorderColor #484848
	FontColor #D8Bc00
}


skinparam database {
		FontColor #C8Ac00
	BorderColor #333333
	BackgroundColor #333333-#333333
	BackgroundColor  #333333
}


skinparam class {
		FontColor #C8Ac00
	BorderColor #333333
	BackgroundColor #333333-#333333
	HeaderBackgroundColor #1b1b1a
    BackgroundColor #282828
    BorderColor #5e5e5e
 	StereotypeFontColor #a0a0a0
    StereotypeFontStyle bold
	BorderThickness 1
	AttributeFontColor #D8Bc00
	AttributeFontSize 11
    FontColor #D8Bc00
    FontStyle bold
}


skinparam object {
		FontColor #C8Ac00
	BorderColor #333333
	BackgroundColor #333333-#333333
	StereotypeFontColor #484848
	BorderThickness 1
	AttributeFontColor #fefefe
	AttributeFontSize 11
}


skinparam usecase {
		FontColor #C8Ac00
	BorderColor #333333
	BackgroundColor #333333-#333333
	BorderThickness 2
	StereotypeFontColor #303030
}


skinparam rectangle {
		FontColor #C8Ac00
	BorderColor #333333
	BackgroundColor #333333-#333333
	BackgroundColor #333333
	BorderThickness 2
	StereotypeFontColor #303030
}


skinparam package {
		FontColor #C8Ac00
	BorderColor #333333
	BackgroundColor #333333-#333333
	BackgroundColor #333333
	BorderThickness 2
}


skinparam folder {
	BackgroundColor #6d6d6d
  	BorderColor #ff8000
	FontColor #ff8000
	BorderThickness 2
}


skinparam frame {
	BackgroundColor #6d6d6d
  	BorderColor #0060a8
	FontColor #0060a8
	BorderThickness 2
}


skinparam state {
		FontColor #C8Ac00
	BorderColor #333333
	BackgroundColor #333333-#333333
	StartColor #0060a8
	EndColor #0060a8
	AttributeFontColor #fefefe
	AttributeFontSize 11
}


skinparam queue {
		FontColor #C8Ac00
	BorderColor #333333
	BackgroundColor #333333-#333333
}


skinparam card {
	BackgroundColor #0060a8
	BorderColor #004d86
	FontColor $INFO_TEXT
}


skinparam file {
	BackgroundColor #6d6d6d-#484848
	BorderColor #0060a8
	FontColor #fefefe
}


skinparam stack {
		FontColor #C8Ac00
	BorderColor #333333
	BackgroundColor #333333-#333333
}

    
    title "org.apache.wicket.util"
    
    interface IClusterable
    interface Supplier
    
    interface IHierarchical<T>
    {
        - -
        +T getParent()
    }
    
    Supplier <|- - LazyInitializer
    IClusterable <|- - LazyInitializer
    abstract class LazyInitializer<T>
    {
        - -
        #T createInstance()
    }
    
    class LongEncoder
    {
        - -
        +long decode(String value, String alphabet)
        +long decode(String value)
        +String encode(long value, String alphabet)
        +String encode(long value)
    }
    
    Supplier <|- - NullProvider
    class NullProvider<T>
    {
    }
    
    Supplier <|- - ValueProvider
    class ValueProvider<T>
    {
        - -(constructors)- -
        +ValueProvider(T)
        - -
        +ValueProvider<T> of(T value)
    }
    
    interface WicketTestTag
    {
    }
    
@enduml

PlantUML version 1.2021.01(Tue Feb 02 00:55:08 MST 2021)
(GPL source distribution)
Java Runtime: Java(TM) SE Runtime Environment
JVM: Java HotSpot(TM) 64-Bit Server VM
Default Encoding: UTF-8
Language: en
Country: US
--></g></svg>