<?xml version="1.0" encoding="utf-8"?>
<svg viewBox="0 0 500 500" xmlns="http://www.w3.org/2000/svg">
  <g style="" transform="matrix(1.153819, -0.088224, 0.088224, 1.153819, -48.326778, 46.573811)">
    <path style="stroke: rgb(216, 188, 0); stroke-width: 8px; fill: rgb(66, 148, 247);" d="M 92.906 257.893 C 92.949 252.325 109.18 225.381 119.171 226.697 C 136.535 228.055 147.057 245.934 147.611 255.565 C 148.843 255.992 148.988 277.091 149.045 296.422 C 149.073 305.559 149.545 314.86 149.922 322.087 C 150.342 330.14 147.953 331.976 147.389 331.78 L 136.995 334.959 L 99.022 333.617 L 95.306 330.711 C 93.985 330.925 89.193 328.039 89.806 319.836 C 90.321 312.946 91.091 304.134 91.397 295.164 C 92.016 276.929 90.578 258.671 92.906 257.893 Z" transform="matrix(0.756411, 0.654097, -0.654097, 0.756411, 212.870496, -10.000148)"/>
    <rect x="44.214" y="429.628" width="55.528" height="38.352" style="stroke: rgb(216, 188, 0); stroke-width: 8px; fill: rgb(66, 148, 247);" rx="9.76" ry="9.76" transform="matrix(0.738103, 0.674688, -0.674688, 0.738103, 308.533752, -28.153957)"/>
    <path style="stroke: rgb(216, 188, 0); stroke-width: 8px; fill: rgb(66, 148, 247);" d="M 243.715 209.798 C 243.758 204.23 259.989 177.286 269.98 178.602 C 287.344 179.96 297.866 197.839 298.42 207.47 C 299.652 207.897 299.797 228.996 299.854 248.327 C 299.882 257.464 300.354 266.765 300.731 273.992 C 301.151 282.045 298.762 283.881 298.198 283.685 L 287.804 286.864 L 249.831 285.522 L 246.115 282.616 C 244.794 282.83 240.002 279.944 240.615 271.741 C 241.13 264.851 241.9 256.039 242.206 247.069 C 242.825 228.834 241.387 210.576 243.715 209.798 Z" transform="matrix(0.756411, 0.654097, -0.654097, 0.756411, 218.147139, -120.359272)"/>
    <rect x="44.214" y="429.628" width="55.528" height="38.352" style="stroke: rgb(216, 188, 0); stroke-width: 8px; fill: rgb(66, 148, 247);" rx="9.76" ry="9.76" transform="matrix(0.738103, 0.674688, -0.674688, 0.738103, 459.342865, -76.248886)"/>
    <path style="stroke: rgb(216, 188, 0); stroke-width: 8px; fill: rgb(66, 148, 247);" d="M 252.398 65.573 C 252.441 60.005 268.672 33.061 278.663 34.377 C 296.027 35.735 306.549 53.614 307.103 63.245 C 308.335 63.672 308.48 84.771 308.537 104.102 C 308.565 113.239 309.037 122.54 309.414 129.767 C 309.834 137.82 307.445 139.656 306.881 139.46 L 296.487 142.639 L 258.514 141.297 L 254.798 138.391 C 253.477 138.605 248.685 135.719 249.298 127.516 C 249.813 120.626 250.583 111.814 250.889 102.844 C 251.508 84.609 250.07 66.351 252.398 65.573 Z" transform="matrix(0.756411, 0.654097, -0.654097, 0.756411, 125.925094, -161.170449)"/>
    <rect x="44.214" y="429.628" width="55.528" height="38.352" style="stroke: rgb(216, 188, 0); stroke-width: 8px; fill: rgb(66, 148, 247);" rx="9.76" ry="9.76" transform="matrix(0.738103, 0.674688, -0.674688, 0.738103, 468.025787, -220.473541)"/>
    <path style="stroke: rgb(216, 188, 0); stroke-width: 8px; fill: rgb(66, 148, 247);" d="M 397.252 33.226 C 397.295 27.658 413.526 0.714 423.517 2.03 C 440.881 3.388 451.403 21.267 451.957 30.898 C 453.189 31.325 453.334 52.425 453.391 71.756 C 453.419 80.893 453.891 90.194 454.268 97.421 C 454.688 105.474 452.299 107.31 451.735 107.114 L 441.341 110.293 L 403.368 108.951 L 399.652 106.045 C 398.331 106.259 393.539 103.373 394.152 95.17 C 394.667 88.28 395.437 79.468 395.743 70.498 C 396.362 52.263 394.924 34.004 397.252 33.226 Z" transform="matrix(0.756411, 0.654097, -0.654097, 0.756411, 140.052218, -263.798243)"/>
    <rect x="44.214" y="429.628" width="55.528" height="38.352" style="stroke: rgb(216, 188, 0); stroke-width: 8px; fill: rgb(66, 148, 247);" rx="9.76" ry="9.76" transform="matrix(0.738103, 0.674688, -0.674688, 0.738103, 612.879761, -252.820541)"/>
  </g>
</svg>