<?xml version="1.0" encoding="utf-8"?>
<svg viewBox="0 0 500 500" xmlns="http://www.w3.org/2000/svg" xmlns:bx="https://boxy-svg.com">
  <path style="stroke: rgb(216, 188, 0); stroke-width: 12.752px; fill: rgb(66, 148, 247);" transform="matrix(-0.141257, 0.620246, -0.620246, -0.141257, 551.223694, 117.709953)" d="M 218.184 65.727 L 256.888 65.727 L 265.056 124.842 A 102.818 102.818 0 0 1 288.127 134.398 L 335.703 98.374 L 363.071 125.742 L 327.046 173.318 A 102.818 102.818 0 0 1 336.602 196.389 L 395.717 204.556 L 395.717 243.261 L 336.602 251.429 A 102.818 102.818 0 0 1 327.046 274.5 L 363.071 322.076 L 335.703 349.444 L 288.127 313.419 A 102.818 102.818 0 0 1 265.056 322.975 L 256.888 382.09 L 218.184 382.09 L 210.016 322.975 A 102.818 102.818 0 0 1 186.945 313.419 L 139.369 349.444 L 112.001 322.076 L 148.026 274.5 A 102.818 102.818 0 0 1 138.469 251.429 L 79.354 243.261 L 79.354 204.556 L 138.469 196.389 A 102.818 102.818 0 0 1 148.026 173.318 L 112.001 125.742 L 139.369 98.374 L 186.945 134.398 A 102.818 102.818 0 0 1 210.016 124.842 Z M 237.536 176.454 A 47.454 47.454 0 0 0 237.536 271.363 A 47.454 47.454 0 0 0 237.536 176.454" bx:shape="cog 237.536 223.909 47.454 102.818 158.181 0.38 8 1@bf548324"/>
  <path style="stroke: rgb(216, 188, 0); stroke-width: 12.752px; fill: rgb(66, 148, 247);" transform="matrix(-0.189455, 0.707052, -0.707052, -0.189455, 421.230743, 251.944321)" d="M 218.184 65.727 L 256.888 65.727 L 265.056 124.842 A 102.818 102.818 0 0 1 288.127 134.398 L 335.703 98.374 L 363.071 125.742 L 327.046 173.318 A 102.818 102.818 0 0 1 336.602 196.389 L 395.717 204.556 L 395.717 243.261 L 336.602 251.429 A 102.818 102.818 0 0 1 327.046 274.5 L 363.071 322.076 L 335.703 349.444 L 288.127 313.419 A 102.818 102.818 0 0 1 265.056 322.975 L 256.888 382.09 L 218.184 382.09 L 210.016 322.975 A 102.818 102.818 0 0 1 186.945 313.419 L 139.369 349.444 L 112.001 322.076 L 148.026 274.5 A 102.818 102.818 0 0 1 138.469 251.429 L 79.354 243.261 L 79.354 204.556 L 138.469 196.389 A 102.818 102.818 0 0 1 148.026 173.318 L 112.001 125.742 L 139.369 98.374 L 186.945 134.398 A 102.818 102.818 0 0 1 210.016 124.842 Z M 237.536 176.454 A 47.454 47.454 0 0 0 237.536 271.363 A 47.454 47.454 0 0 0 237.536 176.454" bx:shape="cog 237.536 223.909 47.454 102.818 158.181 0.38 8 1@bf548324" bx:origin="1.137 0.54"/>
  <path style="stroke: rgb(216, 188, 0); stroke-width: 12.752px; fill: rgb(66, 148, 247);" transform="matrix(-0.214996, 0.802372, -0.802372, -0.214996, 376.389618, -3.205163)" d="M 218.184 65.727 L 256.888 65.727 L 265.056 124.842 A 102.818 102.818 0 0 1 288.127 134.398 L 335.703 98.374 L 363.071 125.742 L 327.046 173.318 A 102.818 102.818 0 0 1 336.602 196.389 L 395.717 204.556 L 395.717 243.261 L 336.602 251.429 A 102.818 102.818 0 0 1 327.046 274.5 L 363.071 322.076 L 335.703 349.444 L 288.127 313.419 A 102.818 102.818 0 0 1 265.056 322.975 L 256.888 382.09 L 218.184 382.09 L 210.016 322.975 A 102.818 102.818 0 0 1 186.945 313.419 L 139.369 349.444 L 112.001 322.076 L 148.026 274.5 A 102.818 102.818 0 0 1 138.469 251.429 L 79.354 243.261 L 79.354 204.556 L 138.469 196.389 A 102.818 102.818 0 0 1 148.026 173.318 L 112.001 125.742 L 139.369 98.374 L 186.945 134.398 A 102.818 102.818 0 0 1 210.016 124.842 Z M 237.536 176.454 A 47.454 47.454 0 0 0 237.536 271.363 A 47.454 47.454 0 0 0 237.536 176.454" bx:shape="cog 237.536 223.909 47.454 102.818 158.181 0.38 8 1@bf548324" bx:origin="1.137 0.54"/>
</svg>