<?xml version="1.0" encoding="UTF-8" standalone="no"?><svg xmlns="http://www.w3.org/2000/svg" xmlns:xlink="http://www.w3.org/1999/xlink" contentScriptType="application/ecmascript" contentStyleType="text/css" height="317.7083px" preserveAspectRatio="none" style="width:450px;height:317px;background:#333333;" version="1.1" viewBox="0 0 450 317" width="450px" zoomAndPan="magnify"><defs/><g><rect fill="#48494B" height="41.2028" rx="8.3333" ry="8.3333" style="stroke:#545454;stroke-width:1.0416666666666667;" width="359.375" x="38.2813" y="2.0833"/><text fill="#C0C0C0" font-family="Open Sans,Avenir,Nunito,Arial,Helvetica,SansSerif" font-size="20.8333" lengthAdjust="spacing" textLength="336.4583" x="49.7396" y="30.5583">org.apache.wicket.examples.echo</text><!--MD5=[8de0e4c819f220f8e0c4c4df41ba59ce]
class WicketExamplePage--><rect fill="#282828" height="48.055" id="WicketExamplePage" rx="8.3333" ry="8.3333" style="stroke:#5E5E5E;stroke-width:1.0416666666666667;" width="164.5833" x="33.8542" y="53.7028"/><rect fill="#1B1B1A" height="31.3883" rx="8.3333" ry="8.3333" style="stroke:#1B1B1A;stroke-width:1.0416666666666667;" width="164.5833" x="33.8542" y="53.7028"/><rect fill="#1B1B1A" height="8.3333" style="stroke:#1B1B1A;stroke-width:1.0416666666666667;" width="164.5833" x="33.8542" y="76.7578"/><rect fill="none" height="48.055" id="WicketExamplePage" rx="8.3333" ry="8.3333" style="stroke:#5E5E5E;stroke-width:1.0416666666666667;" width="164.5833" x="33.8542" y="53.7028"/><ellipse cx="48.4375" cy="69.397" fill="#0066CF" rx="10.4167" ry="10.4167" style="stroke:#0086EF;stroke-width:1.0416666666666667;"/><path d="M50.3479,73.822 Q49.9207,74.0417 49.4507,74.1516 Q48.9807,74.2615 48.4619,74.2615 Q46.6187,74.2615 45.6482,73.0469 Q44.6777,71.8323 44.6777,69.5374 Q44.6777,67.2363 45.6482,66.0217 Q46.6187,64.8071 48.4619,64.8071 Q48.9807,64.8071 49.4568,64.917 Q49.9329,65.0269 50.3479,65.2466 L50.3479,67.2485 Q49.884,66.8213 49.4476,66.6229 Q49.0112,66.4246 48.5474,66.4246 Q47.5586,66.4246 47.0551,67.2089 Q46.5515,67.9932 46.5515,69.5374 Q46.5515,71.0754 47.0551,71.8597 Q47.5586,72.644 48.5474,72.644 Q49.0112,72.644 49.4476,72.4457 Q49.884,72.2473 50.3479,71.8201 Z " fill="#000000"/><text fill="#D8BC00" font-family="Open Sans,Avenir,Nunito,Arial,Helvetica,SansSerif" font-size="12.5" font-weight="bold" lengthAdjust="spacing" textLength="127.0833" x="65.1042" y="74.1211">WicketExamplePage</text><line style="stroke:#5E5E5E;stroke-width:1.0416666666666667;" x1="34.8958" x2="197.3958" y1="85.0911" y2="85.0911"/><line style="stroke:#5E5E5E;stroke-width:1.0416666666666667;" x1="34.8958" x2="197.3958" y1="93.4245" y2="93.4245"/><!--MD5=[d82414ed26bff2518f18d2996995d76e]
class Echo--><rect codeLine="7" fill="#282828" height="146.7794" id="Echo" rx="8.3333" ry="8.3333" style="stroke:#5E5E5E;stroke-width:1.0416666666666667;" width="217.7083" x="7.2917" y="164.1195"/><rect fill="#1B1B1A" height="31.3883" rx="8.3333" ry="8.3333" style="stroke:#1B1B1A;stroke-width:1.0416666666666667;" width="217.7083" x="7.2917" y="164.1195"/><rect fill="#1B1B1A" height="8.3333" style="stroke:#1B1B1A;stroke-width:1.0416666666666667;" width="217.7083" x="7.2917" y="187.1745"/><rect codeLine="7" fill="none" height="146.7794" id="Echo" rx="8.3333" ry="8.3333" style="stroke:#5E5E5E;stroke-width:1.0416666666666667;" width="217.7083" x="7.2917" y="164.1195"/><ellipse cx="93.75" cy="179.8136" fill="#0066CF" rx="10.4167" ry="10.4167" style="stroke:#0086EF;stroke-width:1.0416666666666667;"/><path d="M95.6604,184.2387 Q95.2332,184.4584 94.7632,184.5683 Q94.2932,184.6781 93.7744,184.6781 Q91.9312,184.6781 90.9607,183.4635 Q89.9902,182.2489 89.9902,179.954 Q89.9902,177.653 90.9607,176.4384 Q91.9312,175.2238 93.7744,175.2238 Q94.2932,175.2238 94.7693,175.3337 Q95.2454,175.4435 95.6604,175.6632 L95.6604,177.6652 Q95.1965,177.238 94.7601,177.0396 Q94.3237,176.8412 93.8599,176.8412 Q92.8711,176.8412 92.3676,177.6255 Q91.864,178.4098 91.864,179.954 Q91.864,181.4921 92.3676,182.2764 Q92.8711,183.0607 93.8599,183.0607 Q94.3237,183.0607 94.7601,182.8623 Q95.1965,182.664 95.6604,182.2367 Z " fill="#000000"/><text fill="#D8BC00" font-family="Open Sans,Avenir,Nunito,Arial,Helvetica,SansSerif" font-size="12.5" font-weight="bold" lengthAdjust="spacing" textLength="30.2083" x="116.6667" y="184.5378">Echo</text><line style="stroke:#5E5E5E;stroke-width:1.5625;" x1="8.3333" x2="223.9583" y1="195.5078" y2="195.5078"/><ellipse cx="18.75" cy="230.8777" fill="#84BE84" rx="3.125" ry="3.125" style="stroke:#038048;stroke-width:1.0416666666666667;"/><text fill="#D8BC00" font-family="Open Sans,Avenir,Nunito,Arial,Helvetica,SansSerif" font-size="11.4583" lengthAdjust="spacing" textLength="35.4167" x="30.2083" y="237.7889">Echo()</text><line style="stroke:#5E5E5E;stroke-width:1.0416666666666667;" x1="8.3333" x2="72.3958" y1="213.7136" y2="213.7136"/><text fill="#D8BC00" font-family="Open Sans,Avenir,Nunito,Arial,Helvetica,SansSerif" font-size="11.4583" lengthAdjust="spacing" textLength="81.25" x="75.5208" y="217.5232">(constructors)</text><line style="stroke:#5E5E5E;stroke-width:1.0416666666666667;" x1="159.8958" x2="223.9583" y1="213.7136" y2="213.7136"/><ellipse cx="18.75" cy="274.5341" fill="#84BE84" rx="3.125" ry="3.125" style="stroke:#038048;stroke-width:1.0416666666666667;"/><text fill="#D8BC00" font-family="Open Sans,Avenir,Nunito,Arial,Helvetica,SansSerif" font-size="11.4583" lengthAdjust="spacing" textLength="110.4167" x="30.2083" y="281.4453">String getMessage()</text><ellipse cx="18.75" cy="294.279" fill="#84BE84" rx="3.125" ry="3.125" style="stroke:#038048;stroke-width:1.0416666666666667;"/><text fill="#D8BC00" font-family="Open Sans,Avenir,Nunito,Arial,Helvetica,SansSerif" font-size="11.4583" lengthAdjust="spacing" textLength="185.4167" x="30.2083" y="301.1902">void setMessage(String message)</text><line style="stroke:#5E5E5E;stroke-width:1.0416666666666667;" x1="8.3333" x2="78.6458" y1="257.37" y2="257.37"/><text fill="#D8BC00" font-family="Open Sans,Avenir,Nunito,Arial,Helvetica,SansSerif" font-size="11.4583" lengthAdjust="spacing" textLength="68.75" x="81.7708" y="261.1796">(messaging)</text><line style="stroke:#5E5E5E;stroke-width:1.0416666666666667;" x1="153.6458" x2="223.9583" y1="257.37" y2="257.37"/><!--MD5=[818b680dd029f5404dc253254408b9c3]
class WicketExampleApplication--><rect fill="#282828" height="48.055" id="WicketExampleApplication" rx="8.3333" ry="8.3333" style="stroke:#5E5E5E;stroke-width:1.0416666666666667;" width="208.3333" x="234.8958" y="53.7028"/><rect fill="#1B1B1A" height="31.3883" rx="8.3333" ry="8.3333" style="stroke:#1B1B1A;stroke-width:1.0416666666666667;" width="208.3333" x="234.8958" y="53.7028"/><rect fill="#1B1B1A" height="8.3333" style="stroke:#1B1B1A;stroke-width:1.0416666666666667;" width="208.3333" x="234.8958" y="76.7578"/><rect fill="none" height="48.055" id="WicketExampleApplication" rx="8.3333" ry="8.3333" style="stroke:#5E5E5E;stroke-width:1.0416666666666667;" width="208.3333" x="234.8958" y="53.7028"/><ellipse cx="249.4792" cy="69.397" fill="#0066CF" rx="10.4167" ry="10.4167" style="stroke:#0086EF;stroke-width:1.0416666666666667;"/><path d="M251.3896,73.822 Q250.9623,74.0417 250.4924,74.1516 Q250.0224,74.2615 249.5036,74.2615 Q247.6603,74.2615 246.6899,73.0469 Q245.7194,71.8323 245.7194,69.5374 Q245.7194,67.2363 246.6899,66.0217 Q247.6603,64.8071 249.5036,64.8071 Q250.0224,64.8071 250.4985,64.917 Q250.9745,65.0269 251.3896,65.2466 L251.3896,67.2485 Q250.9257,66.8213 250.4893,66.6229 Q250.0529,66.4246 249.589,66.4246 Q248.6003,66.4246 248.0967,67.2089 Q247.5932,67.9932 247.5932,69.5374 Q247.5932,71.0754 248.0967,71.8597 Q248.6003,72.644 249.589,72.644 Q250.0529,72.644 250.4893,72.4457 Q250.9257,72.2473 251.3896,71.8201 Z " fill="#000000"/><text fill="#D8BC00" font-family="Open Sans,Avenir,Nunito,Arial,Helvetica,SansSerif" font-size="12.5" font-weight="bold" lengthAdjust="spacing" textLength="170.8333" x="266.1458" y="74.1211">WicketExampleApplication</text><line style="stroke:#5E5E5E;stroke-width:1.0416666666666667;" x1="235.9375" x2="442.1875" y1="85.0911" y2="85.0911"/><line style="stroke:#5E5E5E;stroke-width:1.0416666666666667;" x1="235.9375" x2="442.1875" y1="93.4245" y2="93.4245"/><!--MD5=[91a7d2fb4829c1bcc18c3bb71cfc3221]
class EchoApplication--><rect codeLine="17" fill="#282828" height="48.055" id="EchoApplication" rx="8.3333" ry="8.3333" style="stroke:#5E5E5E;stroke-width:1.0416666666666667;" width="141.6667" x="268.2292" y="213.5986"/><rect fill="#1B1B1A" height="31.3883" rx="8.3333" ry="8.3333" style="stroke:#1B1B1A;stroke-width:1.0416666666666667;" width="141.6667" x="268.2292" y="213.5986"/><rect fill="#1B1B1A" height="8.3333" style="stroke:#1B1B1A;stroke-width:1.0416666666666667;" width="141.6667" x="268.2292" y="236.6536"/><rect codeLine="17" fill="none" height="48.055" id="EchoApplication" rx="8.3333" ry="8.3333" style="stroke:#5E5E5E;stroke-width:1.0416666666666667;" width="141.6667" x="268.2292" y="213.5986"/><ellipse cx="282.8125" cy="229.2928" fill="#0066CF" rx="10.4167" ry="10.4167" style="stroke:#0086EF;stroke-width:1.0416666666666667;"/><path d="M284.7229,233.7179 Q284.2957,233.9376 283.8257,234.0474 Q283.3557,234.1573 282.8369,234.1573 Q280.9937,234.1573 280.0232,232.9427 Q279.0527,231.7281 279.0527,229.4332 Q279.0527,227.1322 280.0232,225.9176 Q280.9937,224.703 282.8369,224.703 Q283.3557,224.703 283.8318,224.8128 Q284.3079,224.9227 284.7229,225.1424 L284.7229,227.1444 Q284.259,226.7171 283.8226,226.5188 Q283.3862,226.3204 282.9224,226.3204 Q281.9336,226.3204 281.4301,227.1047 Q280.9265,227.889 280.9265,229.4332 Q280.9265,230.9713 281.4301,231.7556 Q281.9336,232.5399 282.9224,232.5399 Q283.3862,232.5399 283.8226,232.3415 Q284.259,232.1431 284.7229,231.7159 Z " fill="#000000"/><text fill="#D8BC00" font-family="Open Sans,Avenir,Nunito,Arial,Helvetica,SansSerif" font-size="12.5" font-weight="bold" lengthAdjust="spacing" textLength="104.1667" x="299.4792" y="234.0169">EchoApplication</text><line style="stroke:#5E5E5E;stroke-width:1.0416666666666667;" x1="269.2708" x2="408.8542" y1="244.987" y2="244.987"/><line style="stroke:#5E5E5E;stroke-width:1.0416666666666667;" x1="269.2708" x2="408.8542" y1="253.3203" y2="253.3203"/><!--MD5=[3fb8c50bd33979947ff50e469950a9cb]
reverse link WicketExamplePage to Echo--><path codeLine="6" d="M116.1458,122.6611 C116.1458,135.4736 116.1458,149.8278 116.1458,163.9111 " fill="none" id="WicketExamplePage-backto-Echo" style="stroke:#545454;stroke-width:1.5625;"/><polygon fill="none" points="108.8542,122.484,116.1458,101.6507,123.4375,122.484,108.8542,122.484" style="stroke:#545454;stroke-width:1.5625;"/><!--MD5=[61fd52c1cf3ec396a5802995b9a3ebd2]
reverse link WicketExampleApplication to EchoApplication--><path codeLine="16" d="M339.0625,122.682 C339.0625,152.1715 339.0625,189.807 339.0625,213.5361 " fill="none" id="WicketExampleApplication-backto-EchoApplication" style="stroke:#545454;stroke-width:1.5625;"/><polygon fill="none" points="331.7708,122.484,339.0625,101.6507,346.3542,122.484,331.7708,122.484" style="stroke:#545454;stroke-width:1.5625;"/><!--MD5=[efb658f5eaaca28bba3ab74998ea8bc3]
@startuml

    !include lexakai.theme
    
    title "org.apache.wicket.examples.echo"
    
    WicketExamplePage <|- - Echo
    class Echo
    {
        - -(constructors)- -
        +Echo()
        - -(messaging)- -
        +String getMessage()
        +void setMessage(String message)
    }
    
    WicketExampleApplication <|- - EchoApplication
    class EchoApplication
    {
    }
    
@enduml

@startuml









skinparam backgroundColor #333333






skinparam  {
    defaultFontName   "Open Sans,Avenir,Nunito,Arial,Helvetica,SansSerif"
    defaultFontSize   12
    defaultTextAlignment left
    shadowing false
    RoundCorner 10
    TitleFontSize 18
}

skinparam defaultFontName       "Open Sans,Avenir,Nunito,Arial,Helvetica,SansSerif"
skinparam defaultFontSize       12
skinparam dpi                   100
skinparam shadowing             false
skinparam roundcorner           16
skinparam ParticipantPadding    40
skinparam BoxPadding            40
skinparam Padding               3
skinparam ArrowColor            #545454
skinparam stereotype {
    CBackgroundColor #0066cf
    CBorderColor #0086ef
    ABackgroundColor #C8Ac00
    ABorderColor #D8Bc00
    IBackgroundColor #008400
    IBorderColor #239c23
    EBackgroundColor #cf6300
    EBorderColor #ef8300
    NBackgroundColor #3380b9
    NBorderColor #004d86
}
skinparam title {
	FontColor	                 #c0c0c0
 	BorderColor                  #545454
	FontSize	    	         20
	BorderRoundCorner            16
	BorderThickness 	         1
	BackgroundColor              #48494b
}


skinparam legend {
	BackgroundColor #303030
	BorderColor #404040
	FontColor #a0a0a0
}

	skinparam swimlane {
	BorderColor #5e5e5e
	BorderThickness 2
	TitleBackgroundColor  #6d6d6d-#484848
	TitleFontColor #303030
}

skinparam activity {
		FontColor #C8Ac00
	BorderColor #333333
	BackgroundColor #333333-#333333
	BarColor #00FF00
	StartColor #0060a8
	EndColor #0060a8
	DiamondBackgroundColor #6d6d6d-#3a3a3a
  	DiamondBorderColor #3a3a3a
  	DiamondFontColor #fefefe
}


skinparam participant {
		FontColor #C8Ac00
	BorderColor #333333
	BackgroundColor #333333-#333333
	ParticipantBorderThickness 2
}


skinparam actor {
		FontColor #C8Ac00
	BorderColor #333333
	BackgroundColor #333333-#333333
}


skinparam arrow {
	Thickness 1.5
	Color #545454
	FontColor #a0a0a0
    FontStyle bold
    MessageAlignment center
}



skinparam sequence {
	BorderColor #303030
	TitleFontColor #303030
	BackgroundColor #333333
	StartColor #303030
	EndColor #303030
	BoxBackgroundColor #333333
	BoxBorderColor #484848
	BoxFontColor #484848
	LifeLineBorderColor #484848
	LifeLineBorderThickness 2
	LifeLineBackgroundColor #3a3a3a
	GroupBorderColor #484848
	GroupFontColor #484848
	GroupHeaderFontColor #0060a8
	GroupBackgroundColor #484848
	GroupHeaderBackgroundColor #333333
	DividerBackgroundColor #484848
    DividerBorderColor #484848
    DividerBorderThickness 2
    DividerFontColor #D8Bc00
	ReferenceBackgroundColor #333333
	ReferenceBorderColor #484848
	ReferenceFontColor #fefefe
	ReferenceHeaderBackgroundColor #484848
}


skinparam partition {
	BorderColor #303030
	FontColor #333333
	BackgroundColor #333333
}


skinparam collections {
		FontColor #C8Ac00
	BorderColor #333333
	BackgroundColor #333333-#333333
}


skinparam control {
		FontColor #C8Ac00
	BorderColor #333333
	BackgroundColor #333333-#333333
}


skinparam entity {
		FontColor #C8Ac00
	BorderColor #333333
	BackgroundColor #333333-#333333
}


skinparam boundary {
		FontColor #C8Ac00
	BorderColor #333333
	BackgroundColor #333333-#333333
}


skinparam agent {
	BackgroundColor #ff8000
	BorderColor #ff9933
	FontColor #484848
}


skinparam note {
	BorderThickness 1
	BackgroundColor #1b1b1a
	BorderColor #5e5e5e
	FontSize 11
	FontColor #a0a0a0
}


skinparam artifact {
	BorderThickness 10
	BorderColor #5e5e5e
	BackgroundColor #1b1b1a
	FontColor #D8Bc00
}


skinparam component {
		FontColor #C8Ac00
	BorderColor #333333
	BackgroundColor #333333-#333333
}


skinparam interface {
	BackgroundColor  #008400
	BorderColor  #007F00
	FontColor #484848
}


skinparam storage {
	BackgroundColor #ff8000
  	BorderColor #cc6600
	FontColor #222222
}


skinparam node {
	BackgroundColor #333333
	BorderColor #333333
	FontColor #C8Ac00
}


skinparam cloud {
	BackgroundColor #484848-black
	BorderColor #484848
	FontColor #D8Bc00
}


skinparam database {
		FontColor #C8Ac00
	BorderColor #333333
	BackgroundColor #333333-#333333
	BackgroundColor  #333333
}


skinparam class {
		FontColor #C8Ac00
	BorderColor #333333
	BackgroundColor #333333-#333333
	HeaderBackgroundColor #1b1b1a
    BackgroundColor #282828
    BorderColor #5e5e5e
 	StereotypeFontColor #a0a0a0
    StereotypeFontStyle bold
	BorderThickness 1
	AttributeFontColor #D8Bc00
	AttributeFontSize 11
    FontColor #D8Bc00
    FontStyle bold
}


skinparam object {
		FontColor #C8Ac00
	BorderColor #333333
	BackgroundColor #333333-#333333
	StereotypeFontColor #484848
	BorderThickness 1
	AttributeFontColor #fefefe
	AttributeFontSize 11
}


skinparam usecase {
		FontColor #C8Ac00
	BorderColor #333333
	BackgroundColor #333333-#333333
	BorderThickness 2
	StereotypeFontColor #303030
}


skinparam rectangle {
		FontColor #C8Ac00
	BorderColor #333333
	BackgroundColor #333333-#333333
	BackgroundColor #333333
	BorderThickness 2
	StereotypeFontColor #303030
}


skinparam package {
		FontColor #C8Ac00
	BorderColor #333333
	BackgroundColor #333333-#333333
	BackgroundColor #333333
	BorderThickness 2
}


skinparam folder {
	BackgroundColor #6d6d6d
  	BorderColor #ff8000
	FontColor #ff8000
	BorderThickness 2
}


skinparam frame {
	BackgroundColor #6d6d6d
  	BorderColor #0060a8
	FontColor #0060a8
	BorderThickness 2
}


skinparam state {
		FontColor #C8Ac00
	BorderColor #333333
	BackgroundColor #333333-#333333
	StartColor #0060a8
	EndColor #0060a8
	AttributeFontColor #fefefe
	AttributeFontSize 11
}


skinparam queue {
		FontColor #C8Ac00
	BorderColor #333333
	BackgroundColor #333333-#333333
}


skinparam card {
	BackgroundColor #0060a8
	BorderColor #004d86
	FontColor $INFO_TEXT
}


skinparam file {
	BackgroundColor #6d6d6d-#484848
	BorderColor #0060a8
	FontColor #fefefe
}


skinparam stack {
		FontColor #C8Ac00
	BorderColor #333333
	BackgroundColor #333333-#333333
}

    
    title "org.apache.wicket.examples.echo"
    
    WicketExamplePage <|- - Echo
    class Echo
    {
        - -(constructors)- -
        +Echo()
        - -(messaging)- -
        +String getMessage()
        +void setMessage(String message)
    }
    
    WicketExampleApplication <|- - EchoApplication
    class EchoApplication
    {
    }
    
@enduml

PlantUML version 1.2021.01(Tue Feb 02 00:55:08 MST 2021)
(GPL source distribution)
Java Runtime: Java(TM) SE Runtime Environment
JVM: Java HotSpot(TM) 64-Bit Server VM
Default Encoding: UTF-8
Language: en
Country: US
--></g></svg>