<?xml version="1.0" encoding="UTF-8" standalone="no"?><svg xmlns="http://www.w3.org/2000/svg" xmlns:xlink="http://www.w3.org/1999/xlink" contentScriptType="application/ecmascript" contentStyleType="text/css" height="254.1667px" preserveAspectRatio="none" style="width:1086px;height:254px;background:#333333;" version="1.1" viewBox="0 0 1086 254" width="1086.4583px" zoomAndPan="magnify"><defs/><g><rect fill="#48494B" height="41.2028" rx="8.3333" ry="8.3333" style="stroke:#545454;stroke-width:1.0416666666666667;" width="401.0417" x="335.4167" y="2.0833"/><text fill="#C0C0C0" font-family="Open Sans,Avenir,Nunito,Arial,Helvetica,SansSerif" font-size="20.8333" lengthAdjust="spacing" textLength="378.125" x="346.875" y="30.5583">org.apache.wicket.examples.datetime</text><!--MD5=[a756e8b8cfb729764c0dbef41a6cf91e]
class IChoiceRenderer--><rect codeLine="6" fill="#282828" height="48.055" id="IChoiceRenderer" rx="8.3333" ry="8.3333" style="stroke:#5E5E5E;stroke-width:1.0416666666666667;" width="142.7083" x="25.5208" y="53.7028"/><rect fill="#1B1B1A" height="31.3883" rx="8.3333" ry="8.3333" style="stroke:#1B1B1A;stroke-width:1.0416666666666667;" width="142.7083" x="25.5208" y="53.7028"/><rect fill="#1B1B1A" height="8.3333" style="stroke:#1B1B1A;stroke-width:1.0416666666666667;" width="142.7083" x="25.5208" y="76.7578"/><rect codeLine="6" fill="none" height="48.055" id="IChoiceRenderer" rx="8.3333" ry="8.3333" style="stroke:#5E5E5E;stroke-width:1.0416666666666667;" width="142.7083" x="25.5208" y="53.7028"/><ellipse cx="40.1042" cy="69.397" fill="#008400" rx="10.4167" ry="10.4167" style="stroke:#239C23;stroke-width:1.0416666666666667;"/><path d="M37.5081,66.5588 L37.5081,64.9719 L42.9342,64.9719 L42.9342,66.5588 L41.1214,66.5588 L41.1214,72.4976 L42.9342,72.4976 L42.9342,74.0845 L37.5081,74.0845 L37.5081,72.4976 L39.3209,72.4976 L39.3209,66.5588 Z " fill="#000000"/><text fill="#D8BC00" font-family="Open Sans,Avenir,Nunito,Arial,Helvetica,SansSerif" font-size="12.5" font-style="italic" font-weight="bold" lengthAdjust="spacing" textLength="105.2083" x="56.7708" y="74.1211">IChoiceRenderer</text><line style="stroke:#5E5E5E;stroke-width:1.0416666666666667;" x1="26.5625" x2="167.1875" y1="85.0911" y2="85.0911"/><line style="stroke:#5E5E5E;stroke-width:1.0416666666666667;" x1="26.5625" x2="167.1875" y1="93.4245" y2="93.4245"/><!--MD5=[818b680dd029f5404dc253254408b9c3]
class WicketExampleApplication--><rect fill="#282828" height="48.055" id="WicketExampleApplication" rx="8.3333" ry="8.3333" style="stroke:#5E5E5E;stroke-width:1.0416666666666667;" width="208.3333" x="206.25" y="53.7028"/><rect fill="#1B1B1A" height="31.3883" rx="8.3333" ry="8.3333" style="stroke:#1B1B1A;stroke-width:1.0416666666666667;" width="208.3333" x="206.25" y="53.7028"/><rect fill="#1B1B1A" height="8.3333" style="stroke:#1B1B1A;stroke-width:1.0416666666666667;" width="208.3333" x="206.25" y="76.7578"/><rect fill="none" height="48.055" id="WicketExampleApplication" rx="8.3333" ry="8.3333" style="stroke:#5E5E5E;stroke-width:1.0416666666666667;" width="208.3333" x="206.25" y="53.7028"/><ellipse cx="220.8333" cy="69.397" fill="#0066CF" rx="10.4167" ry="10.4167" style="stroke:#0086EF;stroke-width:1.0416666666666667;"/><path d="M222.7437,73.822 Q222.3165,74.0417 221.8465,74.1516 Q221.3765,74.2615 220.8577,74.2615 Q219.0145,74.2615 218.044,73.0469 Q217.0736,71.8323 217.0736,69.5374 Q217.0736,67.2363 218.044,66.0217 Q219.0145,64.8071 220.8577,64.8071 Q221.3765,64.8071 221.8526,64.917 Q222.3287,65.0269 222.7437,65.2466 L222.7437,67.2485 Q222.2799,66.8213 221.8435,66.6229 Q221.4071,66.4246 220.9432,66.4246 Q219.9544,66.4246 219.4509,67.2089 Q218.9473,67.9932 218.9473,69.5374 Q218.9473,71.0754 219.4509,71.8597 Q219.9544,72.644 220.9432,72.644 Q221.4071,72.644 221.8435,72.4457 Q222.2799,72.2473 222.7437,71.8201 Z " fill="#000000"/><text fill="#D8BC00" font-family="Open Sans,Avenir,Nunito,Arial,Helvetica,SansSerif" font-size="12.5" font-weight="bold" lengthAdjust="spacing" textLength="170.8333" x="237.5" y="74.1211">WicketExampleApplication</text><line style="stroke:#5E5E5E;stroke-width:1.0416666666666667;" x1="207.2917" x2="413.5417" y1="85.0911" y2="85.0911"/><line style="stroke:#5E5E5E;stroke-width:1.0416666666666667;" x1="207.2917" x2="413.5417" y1="93.4245" y2="93.4245"/><!--MD5=[27464403b586de968ef09a4a62b7a4d2]
class DateTimeApplication--><rect codeLine="9" fill="#282828" height="48.055" id="DateTimeApplication" rx="8.3333" ry="8.3333" style="stroke:#5E5E5E;stroke-width:1.0416666666666667;" width="173.9583" x="223.4375" y="181.8278"/><rect fill="#1B1B1A" height="31.3883" rx="8.3333" ry="8.3333" style="stroke:#1B1B1A;stroke-width:1.0416666666666667;" width="173.9583" x="223.4375" y="181.8278"/><rect fill="#1B1B1A" height="8.3333" style="stroke:#1B1B1A;stroke-width:1.0416666666666667;" width="173.9583" x="223.4375" y="204.8828"/><rect codeLine="9" fill="none" height="48.055" id="DateTimeApplication" rx="8.3333" ry="8.3333" style="stroke:#5E5E5E;stroke-width:1.0416666666666667;" width="173.9583" x="223.4375" y="181.8278"/><ellipse cx="238.0208" cy="197.522" fill="#0066CF" rx="10.4167" ry="10.4167" style="stroke:#0086EF;stroke-width:1.0416666666666667;"/><path d="M239.9312,201.947 Q239.504,202.1667 239.034,202.2766 Q238.564,202.3865 238.0452,202.3865 Q236.202,202.3865 235.2315,201.1719 Q234.2611,199.9573 234.2611,197.6624 Q234.2611,195.3613 235.2315,194.1467 Q236.202,192.9321 238.0452,192.9321 Q238.564,192.9321 239.0401,193.042 Q239.5162,193.1519 239.9312,193.3716 L239.9312,195.3735 Q239.4674,194.9463 239.031,194.7479 Q238.5946,194.5496 238.1307,194.5496 Q237.1419,194.5496 236.6384,195.3339 Q236.1348,196.1182 236.1348,197.6624 Q236.1348,199.2004 236.6384,199.9847 Q237.1419,200.769 238.1307,200.769 Q238.5946,200.769 239.031,200.5707 Q239.4674,200.3723 239.9312,199.9451 Z " fill="#000000"/><text fill="#D8BC00" font-family="Open Sans,Avenir,Nunito,Arial,Helvetica,SansSerif" font-size="12.5" font-weight="bold" lengthAdjust="spacing" textLength="136.4583" x="254.6875" y="202.2461">DateTimeApplication</text><line style="stroke:#5E5E5E;stroke-width:1.0416666666666667;" x1="224.4792" x2="396.3542" y1="213.2161" y2="213.2161"/><line style="stroke:#5E5E5E;stroke-width:1.0416666666666667;" x1="224.4792" x2="396.3542" y1="221.5495" y2="221.5495"/><!--MD5=[8de0e4c819f220f8e0c4c4df41ba59ce]
class WicketExamplePage--><rect fill="#282828" height="48.055" id="WicketExamplePage" rx="8.3333" ry="8.3333" style="stroke:#5E5E5E;stroke-width:1.0416666666666667;" width="164.5833" x="451.0417" y="53.7028"/><rect fill="#1B1B1A" height="31.3883" rx="8.3333" ry="8.3333" style="stroke:#1B1B1A;stroke-width:1.0416666666666667;" width="164.5833" x="451.0417" y="53.7028"/><rect fill="#1B1B1A" height="8.3333" style="stroke:#1B1B1A;stroke-width:1.0416666666666667;" width="164.5833" x="451.0417" y="76.7578"/><rect fill="none" height="48.055" id="WicketExamplePage" rx="8.3333" ry="8.3333" style="stroke:#5E5E5E;stroke-width:1.0416666666666667;" width="164.5833" x="451.0417" y="53.7028"/><ellipse cx="465.625" cy="69.397" fill="#0066CF" rx="10.4167" ry="10.4167" style="stroke:#0086EF;stroke-width:1.0416666666666667;"/><path d="M467.5354,73.822 Q467.1082,74.0417 466.6382,74.1516 Q466.1682,74.2615 465.6494,74.2615 Q463.8062,74.2615 462.8357,73.0469 Q461.8652,71.8323 461.8652,69.5374 Q461.8652,67.2363 462.8357,66.0217 Q463.8062,64.8071 465.6494,64.8071 Q466.1682,64.8071 466.6443,64.917 Q467.1204,65.0269 467.5354,65.2466 L467.5354,67.2485 Q467.0715,66.8213 466.6351,66.6229 Q466.1987,66.4246 465.7349,66.4246 Q464.7461,66.4246 464.2426,67.2089 Q463.739,67.9932 463.739,69.5374 Q463.739,71.0754 464.2426,71.8597 Q464.7461,72.644 465.7349,72.644 Q466.1987,72.644 466.6351,72.4457 Q467.0715,72.2473 467.5354,71.8201 Z " fill="#000000"/><text fill="#D8BC00" font-family="Open Sans,Avenir,Nunito,Arial,Helvetica,SansSerif" font-size="12.5" font-weight="bold" lengthAdjust="spacing" textLength="127.0833" x="482.2917" y="74.1211">WicketExamplePage</text><line style="stroke:#5E5E5E;stroke-width:1.0416666666666667;" x1="452.0833" x2="614.5833" y1="85.0911" y2="85.0911"/><line style="stroke:#5E5E5E;stroke-width:1.0416666666666667;" x1="452.0833" x2="614.5833" y1="93.4245" y2="93.4245"/><!--MD5=[d3b81b324483dcd25fc4d7b54878c007]
class DateTimePage--><rect codeLine="14" fill="#282828" height="83.3781" id="DateTimePage" rx="8.3333" ry="8.3333" style="stroke:#5E5E5E;stroke-width:1.0416666666666667;" width="130.2083" x="468.2292" y="164.1195"/><rect fill="#1B1B1A" height="31.3883" rx="8.3333" ry="8.3333" style="stroke:#1B1B1A;stroke-width:1.0416666666666667;" width="130.2083" x="468.2292" y="164.1195"/><rect fill="#1B1B1A" height="8.3333" style="stroke:#1B1B1A;stroke-width:1.0416666666666667;" width="130.2083" x="468.2292" y="187.1745"/><rect codeLine="14" fill="none" height="83.3781" id="DateTimePage" rx="8.3333" ry="8.3333" style="stroke:#5E5E5E;stroke-width:1.0416666666666667;" width="130.2083" x="468.2292" y="164.1195"/><ellipse cx="482.8125" cy="179.8136" fill="#0066CF" rx="10.4167" ry="10.4167" style="stroke:#0086EF;stroke-width:1.0416666666666667;"/><path d="M484.7229,184.2387 Q484.2957,184.4584 483.8257,184.5683 Q483.3557,184.6781 482.8369,184.6781 Q480.9937,184.6781 480.0232,183.4635 Q479.0527,182.2489 479.0527,179.954 Q479.0527,177.653 480.0232,176.4384 Q480.9937,175.2238 482.8369,175.2238 Q483.3557,175.2238 483.8318,175.3337 Q484.3079,175.4435 484.7229,175.6632 L484.7229,177.6652 Q484.259,177.238 483.8226,177.0396 Q483.3862,176.8412 482.9224,176.8412 Q481.9336,176.8412 481.4301,177.6255 Q480.9265,178.4098 480.9265,179.954 Q480.9265,181.4921 481.4301,182.2764 Q481.9336,183.0607 482.9224,183.0607 Q483.3862,183.0607 483.8226,182.8623 Q484.259,182.664 484.7229,182.2367 Z " fill="#000000"/><text fill="#D8BC00" font-family="Open Sans,Avenir,Nunito,Arial,Helvetica,SansSerif" font-size="12.5" font-weight="bold" lengthAdjust="spacing" textLength="92.7083" x="499.4792" y="184.5378">DateTimePage</text><line style="stroke:#5E5E5E;stroke-width:1.5625;" x1="469.2708" x2="597.3958" y1="195.5078" y2="195.5078"/><ellipse cx="479.6875" cy="230.8777" fill="#84BE84" rx="3.125" ry="3.125" style="stroke:#038048;stroke-width:1.0416666666666667;"/><text fill="#D8BC00" font-family="Open Sans,Avenir,Nunito,Arial,Helvetica,SansSerif" font-size="11.4583" lengthAdjust="spacing" textLength="86.4583" x="491.1458" y="237.7889">DateTimePage()</text><line style="stroke:#5E5E5E;stroke-width:1.0416666666666667;" x1="469.2708" x2="489.5833" y1="213.7136" y2="213.7136"/><text fill="#D8BC00" font-family="Open Sans,Avenir,Nunito,Arial,Helvetica,SansSerif" font-size="11.4583" lengthAdjust="spacing" textLength="81.25" x="492.7083" y="217.5232">(constructors)</text><line style="stroke:#5E5E5E;stroke-width:1.0416666666666667;" x1="577.0833" x2="597.3958" y1="213.7136" y2="213.7136"/><!--MD5=[8728cf645e428317df5189bfdb7b1acb]
class DateTimePage.LocaleChoiceRenderer--><rect codeLine="21" fill="#282828" height="48.055" id="DateTimePage.LocaleChoiceRenderer" rx="8.3333" ry="8.3333" style="stroke:#5E5E5E;stroke-width:1.0416666666666667;" width="179.1667" x="7.2917" y="181.8278"/><rect fill="#1B1B1A" height="31.3883" rx="8.3333" ry="8.3333" style="stroke:#1B1B1A;stroke-width:1.0416666666666667;" width="179.1667" x="7.2917" y="181.8278"/><rect fill="#1B1B1A" height="8.3333" style="stroke:#1B1B1A;stroke-width:1.0416666666666667;" width="179.1667" x="7.2917" y="204.8828"/><rect codeLine="21" fill="none" height="48.055" id="DateTimePage.LocaleChoiceRenderer" rx="8.3333" ry="8.3333" style="stroke:#5E5E5E;stroke-width:1.0416666666666667;" width="179.1667" x="7.2917" y="181.8278"/><ellipse cx="21.875" cy="197.522" fill="#0066CF" rx="10.4167" ry="10.4167" style="stroke:#0086EF;stroke-width:1.0416666666666667;"/><path d="M23.7854,201.947 Q23.3582,202.1667 22.8882,202.2766 Q22.4182,202.3865 21.8994,202.3865 Q20.0562,202.3865 19.0857,201.1719 Q18.1152,199.9573 18.1152,197.6624 Q18.1152,195.3613 19.0857,194.1467 Q20.0562,192.9321 21.8994,192.9321 Q22.4182,192.9321 22.8943,193.042 Q23.3704,193.1519 23.7854,193.3716 L23.7854,195.3735 Q23.3215,194.9463 22.8851,194.7479 Q22.4487,194.5496 21.9849,194.5496 Q20.9961,194.5496 20.4926,195.3339 Q19.989,196.1182 19.989,197.6624 Q19.989,199.2004 20.4926,199.9847 Q20.9961,200.769 21.9849,200.769 Q22.4487,200.769 22.8851,200.5707 Q23.3215,200.3723 23.7854,199.9451 Z " fill="#000000"/><text fill="#D8BC00" font-family="Open Sans,Avenir,Nunito,Arial,Helvetica,SansSerif" font-size="12.5" font-weight="bold" lengthAdjust="spacing" textLength="141.6667" x="38.5417" y="202.2461">LocaleChoiceRenderer</text><line style="stroke:#5E5E5E;stroke-width:1.0416666666666667;" x1="8.3333" x2="185.4167" y1="213.2161" y2="213.2161"/><line style="stroke:#5E5E5E;stroke-width:1.0416666666666667;" x1="8.3333" x2="185.4167" y1="221.5495" y2="221.5495"/><!--MD5=[71f6d0627a14abad59d13aea2723ff98]
class DropDownChoice--><rect fill="#282828" height="48.055" id="DropDownChoice" rx="8.3333" ry="8.3333" style="stroke:#5E5E5E;stroke-width:1.0416666666666667;" width="151.0417" x="782.8125" y="53.7028"/><rect fill="#1B1B1A" height="31.3883" rx="8.3333" ry="8.3333" style="stroke:#1B1B1A;stroke-width:1.0416666666666667;" width="151.0417" x="782.8125" y="53.7028"/><rect fill="#1B1B1A" height="8.3333" style="stroke:#1B1B1A;stroke-width:1.0416666666666667;" width="151.0417" x="782.8125" y="76.7578"/><rect fill="none" height="48.055" id="DropDownChoice" rx="8.3333" ry="8.3333" style="stroke:#5E5E5E;stroke-width:1.0416666666666667;" width="151.0417" x="782.8125" y="53.7028"/><ellipse cx="797.3958" cy="69.397" fill="#0066CF" rx="10.4167" ry="10.4167" style="stroke:#0086EF;stroke-width:1.0416666666666667;"/><path d="M799.3062,73.822 Q798.879,74.0417 798.409,74.1516 Q797.939,74.2615 797.4202,74.2615 Q795.577,74.2615 794.6065,73.0469 Q793.6361,71.8323 793.6361,69.5374 Q793.6361,67.2363 794.6065,66.0217 Q795.577,64.8071 797.4202,64.8071 Q797.939,64.8071 798.4151,64.917 Q798.8912,65.0269 799.3062,65.2466 L799.3062,67.2485 Q798.8424,66.8213 798.406,66.6229 Q797.9696,66.4246 797.5057,66.4246 Q796.5169,66.4246 796.0134,67.2089 Q795.5098,67.9932 795.5098,69.5374 Q795.5098,71.0754 796.0134,71.8597 Q796.5169,72.644 797.5057,72.644 Q797.9696,72.644 798.406,72.4457 Q798.8424,72.2473 799.3062,71.8201 Z " fill="#000000"/><text fill="#D8BC00" font-family="Open Sans,Avenir,Nunito,Arial,Helvetica,SansSerif" font-size="12.5" font-weight="bold" lengthAdjust="spacing" textLength="113.5417" x="814.0625" y="74.1211">DropDownChoice</text><line style="stroke:#5E5E5E;stroke-width:1.0416666666666667;" x1="783.8542" x2="932.8125" y1="85.0911" y2="85.0911"/><line style="stroke:#5E5E5E;stroke-width:1.0416666666666667;" x1="783.8542" x2="932.8125" y1="93.4245" y2="93.4245"/><!--MD5=[84d854b4603333a2a612a948d7c0d73d]
class DateTimePage.LocaleDropDownChoice--><rect codeLine="26" fill="#282828" height="83.3781" id="DateTimePage.LocaleDropDownChoice" rx="8.3333" ry="8.3333" style="stroke:#5E5E5E;stroke-width:1.0416666666666667;" width="207.2917" x="634.8958" y="164.1195"/><rect fill="#1B1B1A" height="31.3883" rx="8.3333" ry="8.3333" style="stroke:#1B1B1A;stroke-width:1.0416666666666667;" width="207.2917" x="634.8958" y="164.1195"/><rect fill="#1B1B1A" height="8.3333" style="stroke:#1B1B1A;stroke-width:1.0416666666666667;" width="207.2917" x="634.8958" y="187.1745"/><rect codeLine="26" fill="none" height="83.3781" id="DateTimePage.LocaleDropDownChoice" rx="8.3333" ry="8.3333" style="stroke:#5E5E5E;stroke-width:1.0416666666666667;" width="207.2917" x="634.8958" y="164.1195"/><ellipse cx="656.5104" cy="179.8136" fill="#0066CF" rx="10.4167" ry="10.4167" style="stroke:#0086EF;stroke-width:1.0416666666666667;"/><path d="M658.4208,184.2387 Q657.9936,184.4584 657.5236,184.5683 Q657.0536,184.6781 656.5348,184.6781 Q654.6916,184.6781 653.7211,183.4635 Q652.7507,182.2489 652.7507,179.954 Q652.7507,177.653 653.7211,176.4384 Q654.6916,175.2238 656.5348,175.2238 Q657.0536,175.2238 657.5297,175.3337 Q658.0058,175.4435 658.4208,175.6632 L658.4208,177.6652 Q657.9569,177.238 657.5205,177.0396 Q657.0841,176.8412 656.6203,176.8412 Q655.6315,176.8412 655.128,177.6255 Q654.6244,178.4098 654.6244,179.954 Q654.6244,181.4921 655.128,182.2764 Q655.6315,183.0607 656.6203,183.0607 Q657.0841,183.0607 657.5205,182.8623 Q657.9569,182.664 658.4208,182.2367 Z " fill="#000000"/><text fill="#D8BC00" font-family="Open Sans,Avenir,Nunito,Arial,Helvetica,SansSerif" font-size="12.5" font-weight="bold" lengthAdjust="spacing" textLength="154.1667" x="674.7396" y="184.5378">LocaleDropDownChoice</text><line style="stroke:#5E5E5E;stroke-width:1.5625;" x1="635.9375" x2="841.1458" y1="195.5078" y2="195.5078"/><ellipse cx="646.3542" cy="230.8777" fill="#84BE84" rx="3.125" ry="3.125" style="stroke:#038048;stroke-width:1.0416666666666667;"/><text fill="#D8BC00" font-family="Open Sans,Avenir,Nunito,Arial,Helvetica,SansSerif" font-size="11.4583" lengthAdjust="spacing" textLength="175" x="657.8125" y="237.7889">LocaleDropDownChoice(String)</text><line style="stroke:#5E5E5E;stroke-width:1.0416666666666667;" x1="635.9375" x2="694.7917" y1="213.7136" y2="213.7136"/><text fill="#D8BC00" font-family="Open Sans,Avenir,Nunito,Arial,Helvetica,SansSerif" font-size="11.4583" lengthAdjust="spacing" textLength="81.25" x="697.9167" y="217.5232">(constructors)</text><line style="stroke:#5E5E5E;stroke-width:1.0416666666666667;" x1="782.2917" x2="841.1458" y1="213.7136" y2="213.7136"/><!--MD5=[40617e31126453619b3c273f09dd722c]
class DateTimePage.ZoneDropDownChoice--><rect codeLine="33" fill="#282828" height="83.3781" id="DateTimePage.ZoneDropDownChoice" rx="8.3333" ry="8.3333" style="stroke:#5E5E5E;stroke-width:1.0416666666666667;" width="200" x="879.1667" y="164.1195"/><rect fill="#1B1B1A" height="31.3883" rx="8.3333" ry="8.3333" style="stroke:#1B1B1A;stroke-width:1.0416666666666667;" width="200" x="879.1667" y="164.1195"/><rect fill="#1B1B1A" height="8.3333" style="stroke:#1B1B1A;stroke-width:1.0416666666666667;" width="200" x="879.1667" y="187.1745"/><rect codeLine="33" fill="none" height="83.3781" id="DateTimePage.ZoneDropDownChoice" rx="8.3333" ry="8.3333" style="stroke:#5E5E5E;stroke-width:1.0416666666666667;" width="200" x="879.1667" y="164.1195"/><ellipse cx="901.25" cy="179.8136" fill="#0066CF" rx="10.4167" ry="10.4167" style="stroke:#0086EF;stroke-width:1.0416666666666667;"/><path d="M903.1604,184.2387 Q902.7332,184.4584 902.2632,184.5683 Q901.7932,184.6781 901.2744,184.6781 Q899.4312,184.6781 898.4607,183.4635 Q897.4902,182.2489 897.4902,179.954 Q897.4902,177.653 898.4607,176.4384 Q899.4312,175.2238 901.2744,175.2238 Q901.7932,175.2238 902.2693,175.3337 Q902.7454,175.4435 903.1604,175.6632 L903.1604,177.6652 Q902.6965,177.238 902.2601,177.0396 Q901.8237,176.8412 901.3599,176.8412 Q900.3711,176.8412 899.8676,177.6255 Q899.364,178.4098 899.364,179.954 Q899.364,181.4921 899.8676,182.2764 Q900.3711,183.0607 901.3599,183.0607 Q901.8237,183.0607 902.2601,182.8623 Q902.6965,182.664 903.1604,182.2367 Z " fill="#000000"/><text fill="#D8BC00" font-family="Open Sans,Avenir,Nunito,Arial,Helvetica,SansSerif" font-size="12.5" font-weight="bold" lengthAdjust="spacing" textLength="145.8333" x="919.5833" y="184.5378">ZoneDropDownChoice</text><line style="stroke:#5E5E5E;stroke-width:1.5625;" x1="880.2083" x2="1078.125" y1="195.5078" y2="195.5078"/><ellipse cx="890.625" cy="230.8777" fill="#84BE84" rx="3.125" ry="3.125" style="stroke:#038048;stroke-width:1.0416666666666667;"/><text fill="#D8BC00" font-family="Open Sans,Avenir,Nunito,Arial,Helvetica,SansSerif" font-size="11.4583" lengthAdjust="spacing" textLength="167.7083" x="902.0833" y="237.7889">ZoneDropDownChoice(String)</text><line style="stroke:#5E5E5E;stroke-width:1.0416666666666667;" x1="880.2083" x2="935.4167" y1="213.7136" y2="213.7136"/><text fill="#D8BC00" font-family="Open Sans,Avenir,Nunito,Arial,Helvetica,SansSerif" font-size="11.4583" lengthAdjust="spacing" textLength="81.25" x="938.5417" y="217.5232">(constructors)</text><line style="stroke:#5E5E5E;stroke-width:1.0416666666666667;" x1="1022.9167" x2="1078.125" y1="213.7136" y2="213.7136"/><!--MD5=[50174c310d2ababf86997ff9209d9552]
reverse link WicketExampleApplication to DateTimeApplication--><path codeLine="8" d="M310.4167,122.9528 C310.4167,142.7965 310.4167,165.3799 310.4167,181.7757 " fill="none" id="WicketExampleApplication-backto-DateTimeApplication" style="stroke:#545454;stroke-width:1.5625;"/><polygon fill="none" points="303.125,122.6507,310.4167,101.8174,317.7083,122.6507,303.125,122.6507" style="stroke:#545454;stroke-width:1.5625;"/><!--MD5=[42de8a0c570c0b761da7dacebce903ff]
reverse link WicketExamplePage to DateTimePage--><path codeLine="13" d="M533.3333,122.682 C533.3333,136.0778 533.3333,150.7445 533.3333,163.9215 " fill="none" id="WicketExamplePage-backto-DateTimePage" style="stroke:#545454;stroke-width:1.5625;"/><polygon fill="none" points="526.0417,122.6507,533.3333,101.8174,540.625,122.6507,526.0417,122.6507" style="stroke:#545454;stroke-width:1.5625;"/><!--MD5=[ea977d8e5245ebab63c55905728e0082]
reverse link IChoiceRenderer to DateTimePage.LocaleChoiceRenderer--><path codeLine="20" d="M96.875,122.9528 C96.875,142.7965 96.875,165.3799 96.875,181.7757 " fill="none" id="IChoiceRenderer-backto-DateTimePage.LocaleChoiceRenderer" style="stroke:#545454;stroke-width:1.5625;"/><polygon fill="none" points="89.5833,122.6507,96.875,101.8174,104.1667,122.6507,89.5833,122.6507" style="stroke:#545454;stroke-width:1.5625;"/><!--MD5=[6dec59ea5a3ae7cdb8f0260b1f049bab]
reverse link DropDownChoice to DateTimePage.LocaleDropDownChoice--><path codeLine="25" d="M821.5833,117.3695 C807.5625,132.1195 791.5417,148.9736 777.3438,163.9215 " fill="none" id="DropDownChoice-backto-DateTimePage.LocaleDropDownChoice" style="stroke:#545454;stroke-width:1.5625;"/><polygon fill="none" points="816.7292,111.9007,836.3646,101.8174,827.2917,121.9424,816.7292,111.9007" style="stroke:#545454;stroke-width:1.5625;"/><!--MD5=[994a7223aa95a28738497b33c5753da9]
reverse link DropDownChoice to DateTimePage.ZoneDropDownChoice--><path codeLine="32" d="M894.9479,116.8903 C909.1979,131.7549 925.5521,148.8174 940.0313,163.9215 " fill="none" id="DropDownChoice-backto-DateTimePage.ZoneDropDownChoice" style="stroke:#545454;stroke-width:1.5625;"/><polygon fill="none" points="889.6458,121.9007,880.5,101.8174,900.1771,111.8174,889.6458,121.9007" style="stroke:#545454;stroke-width:1.5625;"/><!--MD5=[1ed865200bcfafd417fb0cfc78567ab0]
@startuml

    !include lexakai.theme
    
    title "org.apache.wicket.examples.datetime"
    
    interface IChoiceRenderer
    
    WicketExampleApplication <|- - DateTimeApplication
    class DateTimeApplication
    {
    }
    
    WicketExamplePage <|- - DateTimePage
    class DateTimePage
    {
        - -(constructors)- -
        +DateTimePage()
    }
    
    IChoiceRenderer <|- - DateTimePage.LocaleChoiceRenderer
    class DateTimePage.LocaleChoiceRenderer
    {
    }
    
    DropDownChoice <|- - DateTimePage.LocaleDropDownChoice
    class DateTimePage.LocaleDropDownChoice
    {
        - -(constructors)- -
        +LocaleDropDownChoice(String)
    }
    
    DropDownChoice <|- - DateTimePage.ZoneDropDownChoice
    class DateTimePage.ZoneDropDownChoice
    {
        - -(constructors)- -
        +ZoneDropDownChoice(String)
    }
    
@enduml

@startuml









skinparam backgroundColor #333333






skinparam  {
    defaultFontName   "Open Sans,Avenir,Nunito,Arial,Helvetica,SansSerif"
    defaultFontSize   12
    defaultTextAlignment left
    shadowing false
    RoundCorner 10
    TitleFontSize 18
}

skinparam defaultFontName       "Open Sans,Avenir,Nunito,Arial,Helvetica,SansSerif"
skinparam defaultFontSize       12
skinparam dpi                   100
skinparam shadowing             false
skinparam roundcorner           16
skinparam ParticipantPadding    40
skinparam BoxPadding            40
skinparam Padding               3
skinparam ArrowColor            #545454
skinparam stereotype {
    CBackgroundColor #0066cf
    CBorderColor #0086ef
    ABackgroundColor #C8Ac00
    ABorderColor #D8Bc00
    IBackgroundColor #008400
    IBorderColor #239c23
    EBackgroundColor #cf6300
    EBorderColor #ef8300
    NBackgroundColor #3380b9
    NBorderColor #004d86
}
skinparam title {
	FontColor	                 #c0c0c0
 	BorderColor                  #545454
	FontSize	    	         20
	BorderRoundCorner            16
	BorderThickness 	         1
	BackgroundColor              #48494b
}


skinparam legend {
	BackgroundColor #303030
	BorderColor #404040
	FontColor #a0a0a0
}

	skinparam swimlane {
	BorderColor #5e5e5e
	BorderThickness 2
	TitleBackgroundColor  #6d6d6d-#484848
	TitleFontColor #303030
}

skinparam activity {
		FontColor #C8Ac00
	BorderColor #333333
	BackgroundColor #333333-#333333
	BarColor #00FF00
	StartColor #0060a8
	EndColor #0060a8
	DiamondBackgroundColor #6d6d6d-#3a3a3a
  	DiamondBorderColor #3a3a3a
  	DiamondFontColor #fefefe
}


skinparam participant {
		FontColor #C8Ac00
	BorderColor #333333
	BackgroundColor #333333-#333333
	ParticipantBorderThickness 2
}


skinparam actor {
		FontColor #C8Ac00
	BorderColor #333333
	BackgroundColor #333333-#333333
}


skinparam arrow {
	Thickness 1.5
	Color #545454
	FontColor #a0a0a0
    FontStyle bold
    MessageAlignment center
}



skinparam sequence {
	BorderColor #303030
	TitleFontColor #303030
	BackgroundColor #333333
	StartColor #303030
	EndColor #303030
	BoxBackgroundColor #333333
	BoxBorderColor #484848
	BoxFontColor #484848
	LifeLineBorderColor #484848
	LifeLineBorderThickness 2
	LifeLineBackgroundColor #3a3a3a
	GroupBorderColor #484848
	GroupFontColor #484848
	GroupHeaderFontColor #0060a8
	GroupBackgroundColor #484848
	GroupHeaderBackgroundColor #333333
	DividerBackgroundColor #484848
    DividerBorderColor #484848
    DividerBorderThickness 2
    DividerFontColor #D8Bc00
	ReferenceBackgroundColor #333333
	ReferenceBorderColor #484848
	ReferenceFontColor #fefefe
	ReferenceHeaderBackgroundColor #484848
}


skinparam partition {
	BorderColor #303030
	FontColor #333333
	BackgroundColor #333333
}


skinparam collections {
		FontColor #C8Ac00
	BorderColor #333333
	BackgroundColor #333333-#333333
}


skinparam control {
		FontColor #C8Ac00
	BorderColor #333333
	BackgroundColor #333333-#333333
}


skinparam entity {
		FontColor #C8Ac00
	BorderColor #333333
	BackgroundColor #333333-#333333
}


skinparam boundary {
		FontColor #C8Ac00
	BorderColor #333333
	BackgroundColor #333333-#333333
}


skinparam agent {
	BackgroundColor #ff8000
	BorderColor #ff9933
	FontColor #484848
}


skinparam note {
	BorderThickness 1
	BackgroundColor #1b1b1a
	BorderColor #5e5e5e
	FontSize 11
	FontColor #a0a0a0
}


skinparam artifact {
	BorderThickness 10
	BorderColor #5e5e5e
	BackgroundColor #1b1b1a
	FontColor #D8Bc00
}


skinparam component {
		FontColor #C8Ac00
	BorderColor #333333
	BackgroundColor #333333-#333333
}


skinparam interface {
	BackgroundColor  #008400
	BorderColor  #007F00
	FontColor #484848
}


skinparam storage {
	BackgroundColor #ff8000
  	BorderColor #cc6600
	FontColor #222222
}


skinparam node {
	BackgroundColor #333333
	BorderColor #333333
	FontColor #C8Ac00
}


skinparam cloud {
	BackgroundColor #484848-black
	BorderColor #484848
	FontColor #D8Bc00
}


skinparam database {
		FontColor #C8Ac00
	BorderColor #333333
	BackgroundColor #333333-#333333
	BackgroundColor  #333333
}


skinparam class {
		FontColor #C8Ac00
	BorderColor #333333
	BackgroundColor #333333-#333333
	HeaderBackgroundColor #1b1b1a
    BackgroundColor #282828
    BorderColor #5e5e5e
 	StereotypeFontColor #a0a0a0
    StereotypeFontStyle bold
	BorderThickness 1
	AttributeFontColor #D8Bc00
	AttributeFontSize 11
    FontColor #D8Bc00
    FontStyle bold
}


skinparam object {
		FontColor #C8Ac00
	BorderColor #333333
	BackgroundColor #333333-#333333
	StereotypeFontColor #484848
	BorderThickness 1
	AttributeFontColor #fefefe
	AttributeFontSize 11
}


skinparam usecase {
		FontColor #C8Ac00
	BorderColor #333333
	BackgroundColor #333333-#333333
	BorderThickness 2
	StereotypeFontColor #303030
}


skinparam rectangle {
		FontColor #C8Ac00
	BorderColor #333333
	BackgroundColor #333333-#333333
	BackgroundColor #333333
	BorderThickness 2
	StereotypeFontColor #303030
}


skinparam package {
		FontColor #C8Ac00
	BorderColor #333333
	BackgroundColor #333333-#333333
	BackgroundColor #333333
	BorderThickness 2
}


skinparam folder {
	BackgroundColor #6d6d6d
  	BorderColor #ff8000
	FontColor #ff8000
	BorderThickness 2
}


skinparam frame {
	BackgroundColor #6d6d6d
  	BorderColor #0060a8
	FontColor #0060a8
	BorderThickness 2
}


skinparam state {
		FontColor #C8Ac00
	BorderColor #333333
	BackgroundColor #333333-#333333
	StartColor #0060a8
	EndColor #0060a8
	AttributeFontColor #fefefe
	AttributeFontSize 11
}


skinparam queue {
		FontColor #C8Ac00
	BorderColor #333333
	BackgroundColor #333333-#333333
}


skinparam card {
	BackgroundColor #0060a8
	BorderColor #004d86
	FontColor $INFO_TEXT
}


skinparam file {
	BackgroundColor #6d6d6d-#484848
	BorderColor #0060a8
	FontColor #fefefe
}


skinparam stack {
		FontColor #C8Ac00
	BorderColor #333333
	BackgroundColor #333333-#333333
}

    
    title "org.apache.wicket.examples.datetime"
    
    interface IChoiceRenderer
    
    WicketExampleApplication <|- - DateTimeApplication
    class DateTimeApplication
    {
    }
    
    WicketExamplePage <|- - DateTimePage
    class DateTimePage
    {
        - -(constructors)- -
        +DateTimePage()
    }
    
    IChoiceRenderer <|- - DateTimePage.LocaleChoiceRenderer
    class DateTimePage.LocaleChoiceRenderer
    {
    }
    
    DropDownChoice <|- - DateTimePage.LocaleDropDownChoice
    class DateTimePage.LocaleDropDownChoice
    {
        - -(constructors)- -
        +LocaleDropDownChoice(String)
    }
    
    DropDownChoice <|- - DateTimePage.ZoneDropDownChoice
    class DateTimePage.ZoneDropDownChoice
    {
        - -(constructors)- -
        +ZoneDropDownChoice(String)
    }
    
@enduml

PlantUML version 1.2021.01(Tue Feb 02 00:55:08 MST 2021)
(GPL source distribution)
Java Runtime: Java(TM) SE Runtime Environment
JVM: Java HotSpot(TM) 64-Bit Server VM
Default Encoding: UTF-8
Language: en
Country: US
--></g></svg>