<?xml version="1.0" encoding="UTF-8" standalone="no"?><svg xmlns="http://www.w3.org/2000/svg" xmlns:xlink="http://www.w3.org/1999/xlink" contentScriptType="application/ecmascript" contentStyleType="text/css" height="361.4583px" preserveAspectRatio="none" style="width:844px;height:361px;background:#333333;" version="1.1" viewBox="0 0 844 361" width="844.7917px" zoomAndPan="magnify"><defs/><g><rect fill="#48494B" height="41.2028" rx="8.3333" ry="8.3333" style="stroke:#545454;stroke-width:1.0416666666666667;" width="417.7083" x="206.5104" y="2.0833"/><text fill="#C0C0C0" font-family="Open Sans,Avenir,Nunito,Arial,Helvetica,SansSerif" font-size="20.8333" lengthAdjust="spacing" textLength="394.7917" x="217.9688" y="30.5583">org.apache.wicket.examples.guestbook</text><!--MD5=[078b474374126e3d31b118b6635c381a]
cluster GuestBook--><polygon fill="#333333" points="203.6458,168.807,286.9792,168.807,294.2708,196.0286,431.7708,196.0286,431.7708,326.0986,203.6458,326.0986,203.6458,168.807" style="stroke:#333333;stroke-width:2.0833333333333335;"/><line style="stroke:#333333;stroke-width:2.0833333333333335;" x1="203.6458" x2="294.2708" y1="196.0286" y2="196.0286"/><text fill="#C8AC00" font-family="Open Sans,Avenir,Nunito,Arial,Helvetica,SansSerif" font-size="12.5" font-weight="bold" lengthAdjust="spacing" textLength="70.8333" x="210.9375" y="186.1003">GuestBook</text><!--MD5=[6b952b66ccd4a7415064e3ebb8abb872]
class GuestBook.CommentForm--><rect codeLine="22" fill="#282828" height="83.3781" id="GuestBook.CommentForm" rx="8.3333" ry="8.3333" style="stroke:#5E5E5E;stroke-width:1.0416666666666667;" width="157.2917" x="248.9583" y="217.7653"/><rect fill="#1B1B1A" height="31.3883" rx="8.3333" ry="8.3333" style="stroke:#1B1B1A;stroke-width:1.0416666666666667;" width="157.2917" x="248.9583" y="217.7653"/><rect fill="#1B1B1A" height="8.3333" style="stroke:#1B1B1A;stroke-width:1.0416666666666667;" width="157.2917" x="248.9583" y="240.8203"/><rect codeLine="22" fill="none" height="83.3781" id="GuestBook.CommentForm" rx="8.3333" ry="8.3333" style="stroke:#5E5E5E;stroke-width:1.0416666666666667;" width="157.2917" x="248.9583" y="217.7653"/><ellipse cx="273.8542" cy="233.4595" fill="#0066CF" rx="10.4167" ry="10.4167" style="stroke:#0086EF;stroke-width:1.0416666666666667;"/><path d="M275.7646,237.8845 Q275.3373,238.1042 274.8674,238.2141 Q274.3974,238.324 273.8786,238.324 Q272.0353,238.324 271.0649,237.1094 Q270.0944,235.8948 270.0944,233.5999 Q270.0944,231.2988 271.0649,230.0842 Q272.0353,228.8696 273.8786,228.8696 Q274.3974,228.8696 274.8735,228.9795 Q275.3495,229.0894 275.7646,229.3091 L275.7646,231.311 Q275.3007,230.8838 274.8643,230.6854 Q274.4279,230.4871 273.964,230.4871 Q272.9753,230.4871 272.4717,231.2714 Q271.9682,232.0557 271.9682,233.5999 Q271.9682,235.1379 272.4717,235.9222 Q272.9753,236.7065 273.964,236.7065 Q274.4279,236.7065 274.8643,236.5082 Q275.3007,236.3098 275.7646,235.8826 Z " fill="#000000"/><text fill="#D8BC00" font-family="Open Sans,Avenir,Nunito,Arial,Helvetica,SansSerif" font-size="12.5" font-weight="bold" lengthAdjust="spacing" textLength="96.875" x="292.8125" y="238.1836">CommentForm</text><line style="stroke:#5E5E5E;stroke-width:1.5625;" x1="250" x2="405.2083" y1="249.1536" y2="249.1536"/><ellipse cx="260.4167" cy="284.5235" fill="#84BE84" rx="3.125" ry="3.125" style="stroke:#038048;stroke-width:1.0416666666666667;"/><text fill="#D8BC00" font-family="Open Sans,Avenir,Nunito,Arial,Helvetica,SansSerif" font-size="11.4583" lengthAdjust="spacing" textLength="125" x="271.875" y="291.4347">CommentForm(String)</text><line style="stroke:#5E5E5E;stroke-width:1.0416666666666667;" x1="250" x2="283.8542" y1="267.3594" y2="267.3594"/><text fill="#D8BC00" font-family="Open Sans,Avenir,Nunito,Arial,Helvetica,SansSerif" font-size="11.4583" lengthAdjust="spacing" textLength="81.25" x="286.9792" y="271.169">(constructors)</text><line style="stroke:#5E5E5E;stroke-width:1.0416666666666667;" x1="371.3542" x2="405.2083" y1="267.3594" y2="267.3594"/><!--MD5=[cd6fe5c68cc4750b98a6651e5a9afd2b]
class IClusterable--><rect codeLine="6" fill="#282828" height="48.055" id="IClusterable" rx="8.3333" ry="8.3333" style="stroke:#5E5E5E;stroke-width:1.0416666666666667;" width="115.625" x="33.3333" y="53.7028"/><rect fill="#1B1B1A" height="31.3883" rx="8.3333" ry="8.3333" style="stroke:#1B1B1A;stroke-width:1.0416666666666667;" width="115.625" x="33.3333" y="53.7028"/><rect fill="#1B1B1A" height="8.3333" style="stroke:#1B1B1A;stroke-width:1.0416666666666667;" width="115.625" x="33.3333" y="76.7578"/><rect codeLine="6" fill="none" height="48.055" id="IClusterable" rx="8.3333" ry="8.3333" style="stroke:#5E5E5E;stroke-width:1.0416666666666667;" width="115.625" x="33.3333" y="53.7028"/><ellipse cx="47.9167" cy="69.397" fill="#008400" rx="10.4167" ry="10.4167" style="stroke:#239C23;stroke-width:1.0416666666666667;"/><path d="M45.3206,66.5588 L45.3206,64.9719 L50.7467,64.9719 L50.7467,66.5588 L48.9339,66.5588 L48.9339,72.4976 L50.7467,72.4976 L50.7467,74.0845 L45.3206,74.0845 L45.3206,72.4976 L47.1334,72.4976 L47.1334,66.5588 Z " fill="#000000"/><text fill="#D8BC00" font-family="Open Sans,Avenir,Nunito,Arial,Helvetica,SansSerif" font-size="12.5" font-style="italic" font-weight="bold" lengthAdjust="spacing" textLength="78.125" x="64.5833" y="74.1211">IClusterable</text><line style="stroke:#5E5E5E;stroke-width:1.0416666666666667;" x1="34.375" x2="147.9167" y1="85.0911" y2="85.0911"/><line style="stroke:#5E5E5E;stroke-width:1.0416666666666667;" x1="34.375" x2="147.9167" y1="93.4245" y2="93.4245"/><!--MD5=[042fa140da40c49659127f611bcff931]
class Comment--><rect codeLine="9" fill="#282828" height="190.4358" id="Comment" rx="8.3333" ry="8.3333" style="stroke:#5E5E5E;stroke-width:1.0416666666666667;" width="167.7083" x="7.2917" y="164.1195"/><rect fill="#1B1B1A" height="31.3883" rx="8.3333" ry="8.3333" style="stroke:#1B1B1A;stroke-width:1.0416666666666667;" width="167.7083" x="7.2917" y="164.1195"/><rect fill="#1B1B1A" height="8.3333" style="stroke:#1B1B1A;stroke-width:1.0416666666666667;" width="167.7083" x="7.2917" y="187.1745"/><rect codeLine="9" fill="none" height="190.4358" id="Comment" rx="8.3333" ry="8.3333" style="stroke:#5E5E5E;stroke-width:1.0416666666666667;" width="167.7083" x="7.2917" y="164.1195"/><ellipse cx="52.0833" cy="179.8136" fill="#0066CF" rx="10.4167" ry="10.4167" style="stroke:#0086EF;stroke-width:1.0416666666666667;"/><path d="M53.9937,184.2387 Q53.5665,184.4584 53.0965,184.5683 Q52.6265,184.6781 52.1077,184.6781 Q50.2645,184.6781 49.294,183.4635 Q48.3236,182.2489 48.3236,179.954 Q48.3236,177.653 49.294,176.4384 Q50.2645,175.2238 52.1077,175.2238 Q52.6265,175.2238 53.1026,175.3337 Q53.5787,175.4435 53.9937,175.6632 L53.9937,177.6652 Q53.5299,177.238 53.0935,177.0396 Q52.6571,176.8412 52.1932,176.8412 Q51.2044,176.8412 50.7009,177.6255 Q50.1973,178.4098 50.1973,179.954 Q50.1973,181.4921 50.7009,182.2764 Q51.2044,183.0607 52.1932,183.0607 Q52.6571,183.0607 53.0935,182.8623 Q53.5299,182.664 53.9937,182.2367 Z " fill="#000000"/><text fill="#D8BC00" font-family="Open Sans,Avenir,Nunito,Arial,Helvetica,SansSerif" font-size="12.5" font-weight="bold" lengthAdjust="spacing" textLength="63.5417" x="75" y="184.5378">Comment</text><line style="stroke:#5E5E5E;stroke-width:1.5625;" x1="8.3333" x2="173.9583" y1="195.5078" y2="195.5078"/><ellipse cx="18.75" cy="230.8777" fill="#84BE84" rx="3.125" ry="3.125" style="stroke:#038048;stroke-width:1.0416666666666667;"/><text fill="#D8BC00" font-family="Open Sans,Avenir,Nunito,Arial,Helvetica,SansSerif" font-size="11.4583" lengthAdjust="spacing" textLength="62.5" x="30.2083" y="237.7889">Comment()</text><ellipse cx="18.75" cy="250.6226" fill="#84BE84" rx="3.125" ry="3.125" style="stroke:#038048;stroke-width:1.0416666666666667;"/><text fill="#D8BC00" font-family="Open Sans,Avenir,Nunito,Arial,Helvetica,SansSerif" font-size="11.4583" lengthAdjust="spacing" textLength="116.6667" x="30.2083" y="257.5338">Comment(Comment)</text><line style="stroke:#5E5E5E;stroke-width:1.0416666666666667;" x1="8.3333" x2="47.3958" y1="213.7136" y2="213.7136"/><text fill="#D8BC00" font-family="Open Sans,Avenir,Nunito,Arial,Helvetica,SansSerif" font-size="11.4583" lengthAdjust="spacing" textLength="81.25" x="50.5208" y="217.5232">(constructors)</text><line style="stroke:#5E5E5E;stroke-width:1.0416666666666667;" x1="134.8958" x2="173.9583" y1="213.7136" y2="213.7136"/><line style="stroke:#5E5E5E;stroke-width:1.0416666666666667;" x1="8.3333" x2="173.9583" y1="267.2424" y2="267.2424"/><ellipse cx="18.75" cy="278.7008" fill="#84BE84" rx="3.125" ry="3.125" style="stroke:#038048;stroke-width:1.0416666666666667;"/><text fill="#D8BC00" font-family="Open Sans,Avenir,Nunito,Arial,Helvetica,SansSerif" font-size="11.4583" lengthAdjust="spacing" textLength="79.1667" x="30.2083" y="285.612">Date getDate()</text><ellipse cx="18.75" cy="298.4456" fill="#84BE84" rx="3.125" ry="3.125" style="stroke:#038048;stroke-width:1.0416666666666667;"/><text fill="#D8BC00" font-family="Open Sans,Avenir,Nunito,Arial,Helvetica,SansSerif" font-size="11.4583" lengthAdjust="spacing" textLength="87.5" x="30.2083" y="305.3569">String getText()</text><ellipse cx="18.75" cy="318.1905" fill="#84BE84" rx="3.125" ry="3.125" style="stroke:#038048;stroke-width:1.0416666666666667;"/><text fill="#D8BC00" font-family="Open Sans,Avenir,Nunito,Arial,Helvetica,SansSerif" font-size="11.4583" lengthAdjust="spacing" textLength="102.0833" x="30.2083" y="325.1017">void setDate(Date)</text><ellipse cx="18.75" cy="337.9354" fill="#84BE84" rx="3.125" ry="3.125" style="stroke:#038048;stroke-width:1.0416666666666667;"/><text fill="#D8BC00" font-family="Open Sans,Avenir,Nunito,Arial,Helvetica,SansSerif" font-size="11.4583" lengthAdjust="spacing" textLength="135.4167" x="30.2083" y="344.8466">void setText(String text)</text><!--MD5=[6f29f313cd4199edbf91b9ce3a4faa98]
class Form--><rect fill="#282828" height="48.055" id="Form" rx="8.3333" ry="8.3333" style="stroke:#5E5E5E;stroke-width:1.0416666666666667;" width="70.8333" x="292.1875" y="53.7028"/><rect fill="#1B1B1A" height="31.3883" rx="8.3333" ry="8.3333" style="stroke:#1B1B1A;stroke-width:1.0416666666666667;" width="70.8333" x="292.1875" y="53.7028"/><rect fill="#1B1B1A" height="8.3333" style="stroke:#1B1B1A;stroke-width:1.0416666666666667;" width="70.8333" x="292.1875" y="76.7578"/><rect fill="none" height="48.055" id="Form" rx="8.3333" ry="8.3333" style="stroke:#5E5E5E;stroke-width:1.0416666666666667;" width="70.8333" x="292.1875" y="53.7028"/><ellipse cx="306.7708" cy="69.397" fill="#0066CF" rx="10.4167" ry="10.4167" style="stroke:#0086EF;stroke-width:1.0416666666666667;"/><path d="M308.6812,73.822 Q308.254,74.0417 307.784,74.1516 Q307.314,74.2615 306.7952,74.2615 Q304.952,74.2615 303.9815,73.0469 Q303.0111,71.8323 303.0111,69.5374 Q303.0111,67.2363 303.9815,66.0217 Q304.952,64.8071 306.7952,64.8071 Q307.314,64.8071 307.7901,64.917 Q308.2662,65.0269 308.6812,65.2466 L308.6812,67.2485 Q308.2174,66.8213 307.781,66.6229 Q307.3446,66.4246 306.8807,66.4246 Q305.8919,66.4246 305.3884,67.2089 Q304.8848,67.9932 304.8848,69.5374 Q304.8848,71.0754 305.3884,71.8597 Q305.8919,72.644 306.8807,72.644 Q307.3446,72.644 307.781,72.4457 Q308.2174,72.2473 308.6812,71.8201 Z " fill="#000000"/><text fill="#D8BC00" font-family="Open Sans,Avenir,Nunito,Arial,Helvetica,SansSerif" font-size="12.5" font-weight="bold" lengthAdjust="spacing" textLength="33.3333" x="323.4375" y="74.1211">Form</text><line style="stroke:#5E5E5E;stroke-width:1.0416666666666667;" x1="293.2292" x2="361.9792" y1="85.0911" y2="85.0911"/><line style="stroke:#5E5E5E;stroke-width:1.0416666666666667;" x1="293.2292" x2="361.9792" y1="93.4245" y2="93.4245"/><!--MD5=[8de0e4c819f220f8e0c4c4df41ba59ce]
class WicketExamplePage--><rect fill="#282828" height="48.055" id="WicketExamplePage" rx="8.3333" ry="8.3333" style="stroke:#5E5E5E;stroke-width:1.0416666666666667;" width="164.5833" x="428.6458" y="53.7028"/><rect fill="#1B1B1A" height="31.3883" rx="8.3333" ry="8.3333" style="stroke:#1B1B1A;stroke-width:1.0416666666666667;" width="164.5833" x="428.6458" y="53.7028"/><rect fill="#1B1B1A" height="8.3333" style="stroke:#1B1B1A;stroke-width:1.0416666666666667;" width="164.5833" x="428.6458" y="76.7578"/><rect fill="none" height="48.055" id="WicketExamplePage" rx="8.3333" ry="8.3333" style="stroke:#5E5E5E;stroke-width:1.0416666666666667;" width="164.5833" x="428.6458" y="53.7028"/><ellipse cx="443.2292" cy="69.397" fill="#0066CF" rx="10.4167" ry="10.4167" style="stroke:#0086EF;stroke-width:1.0416666666666667;"/><path d="M445.1396,73.822 Q444.7123,74.0417 444.2424,74.1516 Q443.7724,74.2615 443.2536,74.2615 Q441.4103,74.2615 440.4399,73.0469 Q439.4694,71.8323 439.4694,69.5374 Q439.4694,67.2363 440.4399,66.0217 Q441.4103,64.8071 443.2536,64.8071 Q443.7724,64.8071 444.2485,64.917 Q444.7245,65.0269 445.1396,65.2466 L445.1396,67.2485 Q444.6757,66.8213 444.2393,66.6229 Q443.8029,66.4246 443.339,66.4246 Q442.3503,66.4246 441.8467,67.2089 Q441.3432,67.9932 441.3432,69.5374 Q441.3432,71.0754 441.8467,71.8597 Q442.3503,72.644 443.339,72.644 Q443.8029,72.644 444.2393,72.4457 Q444.6757,72.2473 445.1396,71.8201 Z " fill="#000000"/><text fill="#D8BC00" font-family="Open Sans,Avenir,Nunito,Arial,Helvetica,SansSerif" font-size="12.5" font-weight="bold" lengthAdjust="spacing" textLength="127.0833" x="459.8958" y="74.1211">WicketExamplePage</text><line style="stroke:#5E5E5E;stroke-width:1.0416666666666667;" x1="429.6875" x2="592.1875" y1="85.0911" y2="85.0911"/><line style="stroke:#5E5E5E;stroke-width:1.0416666666666667;" x1="429.6875" x2="592.1875" y1="93.4245" y2="93.4245"/><!--MD5=[30d9095f6405eb666e79b8637758ce72]
class GuestBook--><rect codeLine="29" fill="#282828" height="127.0345" id="GuestBook" rx="8.3333" ry="8.3333" style="stroke:#5E5E5E;stroke-width:1.0416666666666667;" width="108.3333" x="456.7708" y="195.8903"/><rect fill="#1B1B1A" height="31.3883" rx="8.3333" ry="8.3333" style="stroke:#1B1B1A;stroke-width:1.0416666666666667;" width="108.3333" x="456.7708" y="195.8903"/><rect fill="#1B1B1A" height="8.3333" style="stroke:#1B1B1A;stroke-width:1.0416666666666667;" width="108.3333" x="456.7708" y="218.9453"/><rect codeLine="29" fill="none" height="127.0345" id="GuestBook" rx="8.3333" ry="8.3333" style="stroke:#5E5E5E;stroke-width:1.0416666666666667;" width="108.3333" x="456.7708" y="195.8903"/><ellipse cx="471.3542" cy="211.5845" fill="#0066CF" rx="10.4167" ry="10.4167" style="stroke:#0086EF;stroke-width:1.0416666666666667;"/><path d="M473.2646,216.0095 Q472.8373,216.2292 472.3674,216.3391 Q471.8974,216.449 471.3786,216.449 Q469.5353,216.449 468.5649,215.2344 Q467.5944,214.0198 467.5944,211.7249 Q467.5944,209.4238 468.5649,208.2092 Q469.5353,206.9946 471.3786,206.9946 Q471.8974,206.9946 472.3735,207.1045 Q472.8495,207.2144 473.2646,207.4341 L473.2646,209.436 Q472.8007,209.0088 472.3643,208.8104 Q471.9279,208.6121 471.464,208.6121 Q470.4753,208.6121 469.9717,209.3964 Q469.4682,210.1807 469.4682,211.7249 Q469.4682,213.2629 469.9717,214.0472 Q470.4753,214.8315 471.464,214.8315 Q471.9279,214.8315 472.3643,214.6332 Q472.8007,214.4348 473.2646,214.0076 Z " fill="#000000"/><text fill="#D8BC00" font-family="Open Sans,Avenir,Nunito,Arial,Helvetica,SansSerif" font-size="12.5" font-weight="bold" lengthAdjust="spacing" textLength="70.8333" x="488.0208" y="216.3086">GuestBook</text><line style="stroke:#5E5E5E;stroke-width:1.5625;" x1="457.8125" x2="564.0625" y1="227.2786" y2="227.2786"/><ellipse cx="468.2292" cy="262.6485" fill="#84BE84" rx="3.125" ry="3.125" style="stroke:#038048;stroke-width:1.0416666666666667;"/><text fill="#D8BC00" font-family="Open Sans,Avenir,Nunito,Arial,Helvetica,SansSerif" font-size="11.4583" lengthAdjust="spacing" textLength="67.7083" x="479.6875" y="269.5597">GuestBook()</text><line style="stroke:#5E5E5E;stroke-width:1.0416666666666667;" x1="457.8125" x2="467.1875" y1="245.4844" y2="245.4844"/><text fill="#D8BC00" font-family="Open Sans,Avenir,Nunito,Arial,Helvetica,SansSerif" font-size="11.4583" lengthAdjust="spacing" textLength="81.25" x="470.3125" y="249.294">(constructors)</text><line style="stroke:#5E5E5E;stroke-width:1.0416666666666667;" x1="554.6875" x2="564.0625" y1="245.4844" y2="245.4844"/><ellipse cx="468.2292" cy="306.3049" fill="#84BE84" rx="3.125" ry="3.125" style="stroke:#038048;stroke-width:1.0416666666666667;"/><text fill="#D8BC00" font-family="Open Sans,Avenir,Nunito,Arial,Helvetica,SansSerif" font-size="11.4583" lengthAdjust="spacing" textLength="62.5" x="479.6875" y="313.2161">void clear()</text><line style="stroke:#5E5E5E;stroke-width:1.0416666666666667;" x1="457.8125" x2="476.5625" y1="289.1408" y2="289.1408"/><text fill="#D8BC00" font-family="Open Sans,Avenir,Nunito,Arial,Helvetica,SansSerif" font-size="11.4583" lengthAdjust="spacing" textLength="62.5" x="479.6875" y="292.9504">(collection)</text><line style="stroke:#5E5E5E;stroke-width:1.0416666666666667;" x1="545.3125" x2="564.0625" y1="289.1408" y2="289.1408"/><!--MD5=[818b680dd029f5404dc253254408b9c3]
class WicketExampleApplication--><rect fill="#282828" height="48.055" id="WicketExampleApplication" rx="8.3333" ry="8.3333" style="stroke:#5E5E5E;stroke-width:1.0416666666666667;" width="208.3333" x="629.6875" y="53.7028"/><rect fill="#1B1B1A" height="31.3883" rx="8.3333" ry="8.3333" style="stroke:#1B1B1A;stroke-width:1.0416666666666667;" width="208.3333" x="629.6875" y="53.7028"/><rect fill="#1B1B1A" height="8.3333" style="stroke:#1B1B1A;stroke-width:1.0416666666666667;" width="208.3333" x="629.6875" y="76.7578"/><rect fill="none" height="48.055" id="WicketExampleApplication" rx="8.3333" ry="8.3333" style="stroke:#5E5E5E;stroke-width:1.0416666666666667;" width="208.3333" x="629.6875" y="53.7028"/><ellipse cx="644.2708" cy="69.397" fill="#0066CF" rx="10.4167" ry="10.4167" style="stroke:#0086EF;stroke-width:1.0416666666666667;"/><path d="M646.1812,73.822 Q645.754,74.0417 645.284,74.1516 Q644.814,74.2615 644.2952,74.2615 Q642.452,74.2615 641.4815,73.0469 Q640.5111,71.8323 640.5111,69.5374 Q640.5111,67.2363 641.4815,66.0217 Q642.452,64.8071 644.2952,64.8071 Q644.814,64.8071 645.2901,64.917 Q645.7662,65.0269 646.1812,65.2466 L646.1812,67.2485 Q645.7174,66.8213 645.281,66.6229 Q644.8446,66.4246 644.3807,66.4246 Q643.3919,66.4246 642.8884,67.2089 Q642.3848,67.9932 642.3848,69.5374 Q642.3848,71.0754 642.8884,71.8597 Q643.3919,72.644 644.3807,72.644 Q644.8446,72.644 645.281,72.4457 Q645.7174,72.2473 646.1812,71.8201 Z " fill="#000000"/><text fill="#D8BC00" font-family="Open Sans,Avenir,Nunito,Arial,Helvetica,SansSerif" font-size="12.5" font-weight="bold" lengthAdjust="spacing" textLength="170.8333" x="660.9375" y="74.1211">WicketExampleApplication</text><line style="stroke:#5E5E5E;stroke-width:1.0416666666666667;" x1="630.7292" x2="836.9792" y1="85.0911" y2="85.0911"/><line style="stroke:#5E5E5E;stroke-width:1.0416666666666667;" x1="630.7292" x2="836.9792" y1="93.4245" y2="93.4245"/><!--MD5=[5f68605ab833262558ef225d5698bfab]
class GuestBookApplication--><rect codeLine="38" fill="#282828" height="48.055" id="GuestBookApplication" rx="8.3333" ry="8.3333" style="stroke:#5E5E5E;stroke-width:1.0416666666666667;" width="182.2917" x="642.7083" y="235.4736"/><rect fill="#1B1B1A" height="31.3883" rx="8.3333" ry="8.3333" style="stroke:#1B1B1A;stroke-width:1.0416666666666667;" width="182.2917" x="642.7083" y="235.4736"/><rect fill="#1B1B1A" height="8.3333" style="stroke:#1B1B1A;stroke-width:1.0416666666666667;" width="182.2917" x="642.7083" y="258.5286"/><rect codeLine="38" fill="none" height="48.055" id="GuestBookApplication" rx="8.3333" ry="8.3333" style="stroke:#5E5E5E;stroke-width:1.0416666666666667;" width="182.2917" x="642.7083" y="235.4736"/><ellipse cx="657.2917" cy="251.1678" fill="#0066CF" rx="10.4167" ry="10.4167" style="stroke:#0086EF;stroke-width:1.0416666666666667;"/><path d="M659.2021,255.5929 Q658.7748,255.8126 658.3049,255.9224 Q657.8349,256.0323 657.3161,256.0323 Q655.4728,256.0323 654.5024,254.8177 Q653.5319,253.6031 653.5319,251.3082 Q653.5319,249.0072 654.5024,247.7926 Q655.4728,246.578 657.3161,246.578 Q657.8349,246.578 658.311,246.6878 Q658.787,246.7977 659.2021,247.0174 L659.2021,249.0194 Q658.7382,248.5921 658.3018,248.3938 Q657.8654,248.1954 657.4015,248.1954 Q656.4128,248.1954 655.9092,248.9797 Q655.4057,249.764 655.4057,251.3082 Q655.4057,252.8463 655.9092,253.6306 Q656.4128,254.4149 657.4015,254.4149 Q657.8654,254.4149 658.3018,254.2165 Q658.7382,254.0181 659.2021,253.5909 Z " fill="#000000"/><text fill="#D8BC00" font-family="Open Sans,Avenir,Nunito,Arial,Helvetica,SansSerif" font-size="12.5" font-weight="bold" lengthAdjust="spacing" textLength="144.7917" x="673.9583" y="255.8919">GuestBookApplication</text><line style="stroke:#5E5E5E;stroke-width:1.0416666666666667;" x1="643.75" x2="823.9583" y1="266.862" y2="266.862"/><line style="stroke:#5E5E5E;stroke-width:1.0416666666666667;" x1="643.75" x2="823.9583" y1="275.1953" y2="275.1953"/><!--MD5=[c15a509dfd66d7b9fdf7a4b454dc0860]
reverse link IClusterable to Comment--><path codeLine="8" d="M91.1458,122.8695 C91.1458,135.359 91.1458,149.4528 91.1458,163.7132 " fill="none" id="IClusterable-backto-Comment" style="stroke:#545454;stroke-width:1.5625;"/><polygon fill="none" points="83.8542,122.6611,91.1458,101.8278,98.4375,122.6611,83.8542,122.6611" style="stroke:#545454;stroke-width:1.5625;"/><!--MD5=[f0f0244373aa79b655f533f48846ff4a]
reverse link Form to GuestBook.CommentForm--><path codeLine="21" d="M327.6042,122.8278 C327.6042,151.7549 327.6042,189.2965 327.6042,217.5361 " fill="none" id="Form-backto-GuestBook.CommentForm" style="stroke:#545454;stroke-width:1.5625;"/><polygon fill="none" points="320.3125,122.6611,327.6042,101.8278,334.8958,122.6611,320.3125,122.6611" style="stroke:#545454;stroke-width:1.5625;"/><!--MD5=[2e72d22258d0388a87da8c7590163853]
reverse link WicketExamplePage to GuestBook--><path codeLine="28" d="M510.9375,122.9007 C510.9375,144.7965 510.9375,171.5986 510.9375,195.5778 " fill="none" id="WicketExamplePage-backto-GuestBook" style="stroke:#545454;stroke-width:1.5625;"/><polygon fill="none" points="503.6458,122.6611,510.9375,101.8278,518.2292,122.6611,503.6458,122.6611" style="stroke:#545454;stroke-width:1.5625;"/><!--MD5=[349b0a4a6ffc95bb367d0aff10eb59c8]
reverse link WicketExampleApplication to GuestBookApplication--><path codeLine="37" d="M733.8542,122.984 C733.8542,158.5674 733.8542,207.0986 733.8542,235.359 " fill="none" id="WicketExampleApplication-backto-GuestBookApplication" style="stroke:#545454;stroke-width:1.5625;"/><polygon fill="none" points="726.5625,122.6611,733.8542,101.8278,741.1458,122.6611,726.5625,122.6611" style="stroke:#545454;stroke-width:1.5625;"/><!--MD5=[de6058e4dcb57a66765028ffed71184d]
@startuml

    !include lexakai.theme
    
    title "org.apache.wicket.examples.guestbook"
    
    interface IClusterable
    
    IClusterable <|- - Comment
    class Comment
    {
        - -(constructors)- -
        +Comment()
        +Comment(Comment)
        - -
        +Date getDate()
        +String getText()
        +void setDate(Date)
        +void setText(String text)
    }
    
    Form <|- - GuestBook.CommentForm
    class GuestBook.CommentForm
    {
        - -(constructors)- -
        +CommentForm(String)
    }
    
    WicketExamplePage <|- - GuestBook
    class GuestBook
    {
        - -(constructors)- -
        +GuestBook()
        - -(collection)- -
        +void clear()
    }
    
    WicketExampleApplication <|- - GuestBookApplication
    class GuestBookApplication
    {
    }
    
@enduml

@startuml









skinparam backgroundColor #333333






skinparam  {
    defaultFontName   "Open Sans,Avenir,Nunito,Arial,Helvetica,SansSerif"
    defaultFontSize   12
    defaultTextAlignment left
    shadowing false
    RoundCorner 10
    TitleFontSize 18
}

skinparam defaultFontName       "Open Sans,Avenir,Nunito,Arial,Helvetica,SansSerif"
skinparam defaultFontSize       12
skinparam dpi                   100
skinparam shadowing             false
skinparam roundcorner           16
skinparam ParticipantPadding    40
skinparam BoxPadding            40
skinparam Padding               3
skinparam ArrowColor            #545454
skinparam stereotype {
    CBackgroundColor #0066cf
    CBorderColor #0086ef
    ABackgroundColor #C8Ac00
    ABorderColor #D8Bc00
    IBackgroundColor #008400
    IBorderColor #239c23
    EBackgroundColor #cf6300
    EBorderColor #ef8300
    NBackgroundColor #3380b9
    NBorderColor #004d86
}
skinparam title {
	FontColor	                 #c0c0c0
 	BorderColor                  #545454
	FontSize	    	         20
	BorderRoundCorner            16
	BorderThickness 	         1
	BackgroundColor              #48494b
}


skinparam legend {
	BackgroundColor #303030
	BorderColor #404040
	FontColor #a0a0a0
}

	skinparam swimlane {
	BorderColor #5e5e5e
	BorderThickness 2
	TitleBackgroundColor  #6d6d6d-#484848
	TitleFontColor #303030
}

skinparam activity {
		FontColor #C8Ac00
	BorderColor #333333
	BackgroundColor #333333-#333333
	BarColor #00FF00
	StartColor #0060a8
	EndColor #0060a8
	DiamondBackgroundColor #6d6d6d-#3a3a3a
  	DiamondBorderColor #3a3a3a
  	DiamondFontColor #fefefe
}


skinparam participant {
		FontColor #C8Ac00
	BorderColor #333333
	BackgroundColor #333333-#333333
	ParticipantBorderThickness 2
}


skinparam actor {
		FontColor #C8Ac00
	BorderColor #333333
	BackgroundColor #333333-#333333
}


skinparam arrow {
	Thickness 1.5
	Color #545454
	FontColor #a0a0a0
    FontStyle bold
    MessageAlignment center
}



skinparam sequence {
	BorderColor #303030
	TitleFontColor #303030
	BackgroundColor #333333
	StartColor #303030
	EndColor #303030
	BoxBackgroundColor #333333
	BoxBorderColor #484848
	BoxFontColor #484848
	LifeLineBorderColor #484848
	LifeLineBorderThickness 2
	LifeLineBackgroundColor #3a3a3a
	GroupBorderColor #484848
	GroupFontColor #484848
	GroupHeaderFontColor #0060a8
	GroupBackgroundColor #484848
	GroupHeaderBackgroundColor #333333
	DividerBackgroundColor #484848
    DividerBorderColor #484848
    DividerBorderThickness 2
    DividerFontColor #D8Bc00
	ReferenceBackgroundColor #333333
	ReferenceBorderColor #484848
	ReferenceFontColor #fefefe
	ReferenceHeaderBackgroundColor #484848
}


skinparam partition {
	BorderColor #303030
	FontColor #333333
	BackgroundColor #333333
}


skinparam collections {
		FontColor #C8Ac00
	BorderColor #333333
	BackgroundColor #333333-#333333
}


skinparam control {
		FontColor #C8Ac00
	BorderColor #333333
	BackgroundColor #333333-#333333
}


skinparam entity {
		FontColor #C8Ac00
	BorderColor #333333
	BackgroundColor #333333-#333333
}


skinparam boundary {
		FontColor #C8Ac00
	BorderColor #333333
	BackgroundColor #333333-#333333
}


skinparam agent {
	BackgroundColor #ff8000
	BorderColor #ff9933
	FontColor #484848
}


skinparam note {
	BorderThickness 1
	BackgroundColor #1b1b1a
	BorderColor #5e5e5e
	FontSize 11
	FontColor #a0a0a0
}


skinparam artifact {
	BorderThickness 10
	BorderColor #5e5e5e
	BackgroundColor #1b1b1a
	FontColor #D8Bc00
}


skinparam component {
		FontColor #C8Ac00
	BorderColor #333333
	BackgroundColor #333333-#333333
}


skinparam interface {
	BackgroundColor  #008400
	BorderColor  #007F00
	FontColor #484848
}


skinparam storage {
	BackgroundColor #ff8000
  	BorderColor #cc6600
	FontColor #222222
}


skinparam node {
	BackgroundColor #333333
	BorderColor #333333
	FontColor #C8Ac00
}


skinparam cloud {
	BackgroundColor #484848-black
	BorderColor #484848
	FontColor #D8Bc00
}


skinparam database {
		FontColor #C8Ac00
	BorderColor #333333
	BackgroundColor #333333-#333333
	BackgroundColor  #333333
}


skinparam class {
		FontColor #C8Ac00
	BorderColor #333333
	BackgroundColor #333333-#333333
	HeaderBackgroundColor #1b1b1a
    BackgroundColor #282828
    BorderColor #5e5e5e
 	StereotypeFontColor #a0a0a0
    StereotypeFontStyle bold
	BorderThickness 1
	AttributeFontColor #D8Bc00
	AttributeFontSize 11
    FontColor #D8Bc00
    FontStyle bold
}


skinparam object {
		FontColor #C8Ac00
	BorderColor #333333
	BackgroundColor #333333-#333333
	StereotypeFontColor #484848
	BorderThickness 1
	AttributeFontColor #fefefe
	AttributeFontSize 11
}


skinparam usecase {
		FontColor #C8Ac00
	BorderColor #333333
	BackgroundColor #333333-#333333
	BorderThickness 2
	StereotypeFontColor #303030
}


skinparam rectangle {
		FontColor #C8Ac00
	BorderColor #333333
	BackgroundColor #333333-#333333
	BackgroundColor #333333
	BorderThickness 2
	StereotypeFontColor #303030
}


skinparam package {
		FontColor #C8Ac00
	BorderColor #333333
	BackgroundColor #333333-#333333
	BackgroundColor #333333
	BorderThickness 2
}


skinparam folder {
	BackgroundColor #6d6d6d
  	BorderColor #ff8000
	FontColor #ff8000
	BorderThickness 2
}


skinparam frame {
	BackgroundColor #6d6d6d
  	BorderColor #0060a8
	FontColor #0060a8
	BorderThickness 2
}


skinparam state {
		FontColor #C8Ac00
	BorderColor #333333
	BackgroundColor #333333-#333333
	StartColor #0060a8
	EndColor #0060a8
	AttributeFontColor #fefefe
	AttributeFontSize 11
}


skinparam queue {
		FontColor #C8Ac00
	BorderColor #333333
	BackgroundColor #333333-#333333
}


skinparam card {
	BackgroundColor #0060a8
	BorderColor #004d86
	FontColor $INFO_TEXT
}


skinparam file {
	BackgroundColor #6d6d6d-#484848
	BorderColor #0060a8
	FontColor #fefefe
}


skinparam stack {
		FontColor #C8Ac00
	BorderColor #333333
	BackgroundColor #333333-#333333
}

    
    title "org.apache.wicket.examples.guestbook"
    
    interface IClusterable
    
    IClusterable <|- - Comment
    class Comment
    {
        - -(constructors)- -
        +Comment()
        +Comment(Comment)
        - -
        +Date getDate()
        +String getText()
        +void setDate(Date)
        +void setText(String text)
    }
    
    Form <|- - GuestBook.CommentForm
    class GuestBook.CommentForm
    {
        - -(constructors)- -
        +CommentForm(String)
    }
    
    WicketExamplePage <|- - GuestBook
    class GuestBook
    {
        - -(constructors)- -
        +GuestBook()
        - -(collection)- -
        +void clear()
    }
    
    WicketExampleApplication <|- - GuestBookApplication
    class GuestBookApplication
    {
    }
    
@enduml

PlantUML version 1.2021.01(Tue Feb 02 00:55:08 MST 2021)
(GPL source distribution)
Java Runtime: Java(TM) SE Runtime Environment
JVM: Java HotSpot(TM) 64-Bit Server VM
Default Encoding: UTF-8
Language: en
Country: US
--></g></svg>