<?xml version="1.0" encoding="UTF-8" standalone="no"?><svg xmlns="http://www.w3.org/2000/svg" xmlns:xlink="http://www.w3.org/1999/xlink" contentScriptType="application/ecmascript" contentStyleType="text/css" height="254.1667px" preserveAspectRatio="none" style="width:617px;height:254px;background:#333333;" version="1.1" viewBox="0 0 617 254" width="617.7083px" zoomAndPan="magnify"><defs/><g><rect fill="#48494B" height="41.2028" rx="8.3333" ry="8.3333" style="stroke:#545454;stroke-width:1.0416666666666667;" width="417.7083" x="92.9688" y="2.0833"/><text fill="#C0C0C0" font-family="Open Sans,Avenir,Nunito,Arial,Helvetica,SansSerif" font-size="20.8333" lengthAdjust="spacing" textLength="394.7917" x="104.4271" y="30.5583">org.apache.wicket.examples.homepage</text><!--MD5=[8de0e4c819f220f8e0c4c4df41ba59ce]
class WicketExamplePage--><rect fill="#282828" height="48.055" id="WicketExamplePage" rx="8.3333" ry="8.3333" style="stroke:#5E5E5E;stroke-width:1.0416666666666667;" width="164.5833" x="7.2917" y="53.7028"/><rect fill="#1B1B1A" height="31.3883" rx="8.3333" ry="8.3333" style="stroke:#1B1B1A;stroke-width:1.0416666666666667;" width="164.5833" x="7.2917" y="53.7028"/><rect fill="#1B1B1A" height="8.3333" style="stroke:#1B1B1A;stroke-width:1.0416666666666667;" width="164.5833" x="7.2917" y="76.7578"/><rect fill="none" height="48.055" id="WicketExamplePage" rx="8.3333" ry="8.3333" style="stroke:#5E5E5E;stroke-width:1.0416666666666667;" width="164.5833" x="7.2917" y="53.7028"/><ellipse cx="21.875" cy="69.397" fill="#0066CF" rx="10.4167" ry="10.4167" style="stroke:#0086EF;stroke-width:1.0416666666666667;"/><path d="M23.7854,73.822 Q23.3582,74.0417 22.8882,74.1516 Q22.4182,74.2615 21.8994,74.2615 Q20.0562,74.2615 19.0857,73.0469 Q18.1152,71.8323 18.1152,69.5374 Q18.1152,67.2363 19.0857,66.0217 Q20.0562,64.8071 21.8994,64.8071 Q22.4182,64.8071 22.8943,64.917 Q23.3704,65.0269 23.7854,65.2466 L23.7854,67.2485 Q23.3215,66.8213 22.8851,66.6229 Q22.4487,66.4246 21.9849,66.4246 Q20.9961,66.4246 20.4926,67.2089 Q19.989,67.9932 19.989,69.5374 Q19.989,71.0754 20.4926,71.8597 Q20.9961,72.644 21.9849,72.644 Q22.4487,72.644 22.8851,72.4457 Q23.3215,72.2473 23.7854,71.8201 Z " fill="#000000"/><text fill="#D8BC00" font-family="Open Sans,Avenir,Nunito,Arial,Helvetica,SansSerif" font-size="12.5" font-weight="bold" lengthAdjust="spacing" textLength="127.0833" x="38.5417" y="74.1211">WicketExamplePage</text><line style="stroke:#5E5E5E;stroke-width:1.0416666666666667;" x1="8.3333" x2="170.8333" y1="85.0911" y2="85.0911"/><line style="stroke:#5E5E5E;stroke-width:1.0416666666666667;" x1="8.3333" x2="170.8333" y1="93.4245" y2="93.4245"/><!--MD5=[5aff5c50255f67a7089db77a52aaa125]
class HomePage--><rect codeLine="7" fill="#282828" height="83.3781" id="HomePage" rx="8.3333" ry="8.3333" style="stroke:#5E5E5E;stroke-width:1.0416666666666667;" width="105.2083" x="36.9792" y="164.1195"/><rect fill="#1B1B1A" height="31.3883" rx="8.3333" ry="8.3333" style="stroke:#1B1B1A;stroke-width:1.0416666666666667;" width="105.2083" x="36.9792" y="164.1195"/><rect fill="#1B1B1A" height="8.3333" style="stroke:#1B1B1A;stroke-width:1.0416666666666667;" width="105.2083" x="36.9792" y="187.1745"/><rect codeLine="7" fill="none" height="83.3781" id="HomePage" rx="8.3333" ry="8.3333" style="stroke:#5E5E5E;stroke-width:1.0416666666666667;" width="105.2083" x="36.9792" y="164.1195"/><ellipse cx="51.5625" cy="179.8136" fill="#0066CF" rx="10.4167" ry="10.4167" style="stroke:#0086EF;stroke-width:1.0416666666666667;"/><path d="M53.4729,184.2387 Q53.0457,184.4584 52.5757,184.5683 Q52.1057,184.6781 51.5869,184.6781 Q49.7437,184.6781 48.7732,183.4635 Q47.8027,182.2489 47.8027,179.954 Q47.8027,177.653 48.7732,176.4384 Q49.7437,175.2238 51.5869,175.2238 Q52.1057,175.2238 52.5818,175.3337 Q53.0579,175.4435 53.4729,175.6632 L53.4729,177.6652 Q53.009,177.238 52.5726,177.0396 Q52.1362,176.8412 51.6724,176.8412 Q50.6836,176.8412 50.1801,177.6255 Q49.6765,178.4098 49.6765,179.954 Q49.6765,181.4921 50.1801,182.2764 Q50.6836,183.0607 51.6724,183.0607 Q52.1362,183.0607 52.5726,182.8623 Q53.009,182.664 53.4729,182.2367 Z " fill="#000000"/><text fill="#D8BC00" font-family="Open Sans,Avenir,Nunito,Arial,Helvetica,SansSerif" font-size="12.5" font-weight="bold" lengthAdjust="spacing" textLength="67.7083" x="68.2292" y="184.5378">HomePage</text><line style="stroke:#5E5E5E;stroke-width:1.5625;" x1="38.0208" x2="141.1458" y1="195.5078" y2="195.5078"/><ellipse cx="48.4375" cy="230.8777" fill="#84BE84" rx="3.125" ry="3.125" style="stroke:#038048;stroke-width:1.0416666666666667;"/><text fill="#D8BC00" font-family="Open Sans,Avenir,Nunito,Arial,Helvetica,SansSerif" font-size="11.4583" lengthAdjust="spacing" textLength="66.6667" x="59.8958" y="237.7889">HomePage()</text><line style="stroke:#5E5E5E;stroke-width:1.0416666666666667;" x1="38.0208" x2="45.8333" y1="213.7136" y2="213.7136"/><text fill="#D8BC00" font-family="Open Sans,Avenir,Nunito,Arial,Helvetica,SansSerif" font-size="11.4583" lengthAdjust="spacing" textLength="81.25" x="48.9583" y="217.5232">(constructors)</text><line style="stroke:#5E5E5E;stroke-width:1.0416666666666667;" x1="133.3333" x2="141.1458" y1="213.7136" y2="213.7136"/><!--MD5=[818b680dd029f5404dc253254408b9c3]
class WicketExampleApplication--><rect fill="#282828" height="48.055" id="WicketExampleApplication" rx="8.3333" ry="8.3333" style="stroke:#5E5E5E;stroke-width:1.0416666666666667;" width="208.3333" x="208.3333" y="53.7028"/><rect fill="#1B1B1A" height="31.3883" rx="8.3333" ry="8.3333" style="stroke:#1B1B1A;stroke-width:1.0416666666666667;" width="208.3333" x="208.3333" y="53.7028"/><rect fill="#1B1B1A" height="8.3333" style="stroke:#1B1B1A;stroke-width:1.0416666666666667;" width="208.3333" x="208.3333" y="76.7578"/><rect fill="none" height="48.055" id="WicketExampleApplication" rx="8.3333" ry="8.3333" style="stroke:#5E5E5E;stroke-width:1.0416666666666667;" width="208.3333" x="208.3333" y="53.7028"/><ellipse cx="222.9167" cy="69.397" fill="#0066CF" rx="10.4167" ry="10.4167" style="stroke:#0086EF;stroke-width:1.0416666666666667;"/><path d="M224.8271,73.822 Q224.3998,74.0417 223.9299,74.1516 Q223.4599,74.2615 222.9411,74.2615 Q221.0978,74.2615 220.1274,73.0469 Q219.1569,71.8323 219.1569,69.5374 Q219.1569,67.2363 220.1274,66.0217 Q221.0978,64.8071 222.9411,64.8071 Q223.4599,64.8071 223.936,64.917 Q224.412,65.0269 224.8271,65.2466 L224.8271,67.2485 Q224.3632,66.8213 223.9268,66.6229 Q223.4904,66.4246 223.0265,66.4246 Q222.0378,66.4246 221.5342,67.2089 Q221.0307,67.9932 221.0307,69.5374 Q221.0307,71.0754 221.5342,71.8597 Q222.0378,72.644 223.0265,72.644 Q223.4904,72.644 223.9268,72.4457 Q224.3632,72.2473 224.8271,71.8201 Z " fill="#000000"/><text fill="#D8BC00" font-family="Open Sans,Avenir,Nunito,Arial,Helvetica,SansSerif" font-size="12.5" font-weight="bold" lengthAdjust="spacing" textLength="170.8333" x="239.5833" y="74.1211">WicketExampleApplication</text><line style="stroke:#5E5E5E;stroke-width:1.0416666666666667;" x1="209.375" x2="415.625" y1="85.0911" y2="85.0911"/><line style="stroke:#5E5E5E;stroke-width:1.0416666666666667;" x1="209.375" x2="415.625" y1="93.4245" y2="93.4245"/><!--MD5=[f355091800ca0bbb6918037cb1842385]
class HomePageApplication--><rect codeLine="14" fill="#282828" height="48.055" id="HomePageApplication" rx="8.3333" ry="8.3333" style="stroke:#5E5E5E;stroke-width:1.0416666666666667;" width="179.1667" x="222.9167" y="181.8278"/><rect fill="#1B1B1A" height="31.3883" rx="8.3333" ry="8.3333" style="stroke:#1B1B1A;stroke-width:1.0416666666666667;" width="179.1667" x="222.9167" y="181.8278"/><rect fill="#1B1B1A" height="8.3333" style="stroke:#1B1B1A;stroke-width:1.0416666666666667;" width="179.1667" x="222.9167" y="204.8828"/><rect codeLine="14" fill="none" height="48.055" id="HomePageApplication" rx="8.3333" ry="8.3333" style="stroke:#5E5E5E;stroke-width:1.0416666666666667;" width="179.1667" x="222.9167" y="181.8278"/><ellipse cx="237.5" cy="197.522" fill="#0066CF" rx="10.4167" ry="10.4167" style="stroke:#0086EF;stroke-width:1.0416666666666667;"/><path d="M239.4104,201.947 Q238.9832,202.1667 238.5132,202.2766 Q238.0432,202.3865 237.5244,202.3865 Q235.6812,202.3865 234.7107,201.1719 Q233.7402,199.9573 233.7402,197.6624 Q233.7402,195.3613 234.7107,194.1467 Q235.6812,192.9321 237.5244,192.9321 Q238.0432,192.9321 238.5193,193.042 Q238.9954,193.1519 239.4104,193.3716 L239.4104,195.3735 Q238.9465,194.9463 238.5101,194.7479 Q238.0737,194.5496 237.6099,194.5496 Q236.6211,194.5496 236.1176,195.3339 Q235.614,196.1182 235.614,197.6624 Q235.614,199.2004 236.1176,199.9847 Q236.6211,200.769 237.6099,200.769 Q238.0737,200.769 238.5101,200.5707 Q238.9465,200.3723 239.4104,199.9451 Z " fill="#000000"/><text fill="#D8BC00" font-family="Open Sans,Avenir,Nunito,Arial,Helvetica,SansSerif" font-size="12.5" font-weight="bold" lengthAdjust="spacing" textLength="141.6667" x="254.1667" y="202.2461">HomePageApplication</text><line style="stroke:#5E5E5E;stroke-width:1.0416666666666667;" x1="223.9583" x2="401.0417" y1="213.2161" y2="213.2161"/><line style="stroke:#5E5E5E;stroke-width:1.0416666666666667;" x1="223.9583" x2="401.0417" y1="221.5495" y2="221.5495"/><!--MD5=[0174392a0c212c3b3e97bee69152624c]
class Panel--><rect fill="#282828" height="48.055" id="Panel" rx="8.3333" ry="8.3333" style="stroke:#5E5E5E;stroke-width:1.0416666666666667;" width="71.875" x="489.0625" y="53.7028"/><rect fill="#1B1B1A" height="31.3883" rx="8.3333" ry="8.3333" style="stroke:#1B1B1A;stroke-width:1.0416666666666667;" width="71.875" x="489.0625" y="53.7028"/><rect fill="#1B1B1A" height="8.3333" style="stroke:#1B1B1A;stroke-width:1.0416666666666667;" width="71.875" x="489.0625" y="76.7578"/><rect fill="none" height="48.055" id="Panel" rx="8.3333" ry="8.3333" style="stroke:#5E5E5E;stroke-width:1.0416666666666667;" width="71.875" x="489.0625" y="53.7028"/><ellipse cx="503.6458" cy="69.397" fill="#0066CF" rx="10.4167" ry="10.4167" style="stroke:#0086EF;stroke-width:1.0416666666666667;"/><path d="M505.5562,73.822 Q505.129,74.0417 504.659,74.1516 Q504.189,74.2615 503.6702,74.2615 Q501.827,74.2615 500.8565,73.0469 Q499.8861,71.8323 499.8861,69.5374 Q499.8861,67.2363 500.8565,66.0217 Q501.827,64.8071 503.6702,64.8071 Q504.189,64.8071 504.6651,64.917 Q505.1412,65.0269 505.5562,65.2466 L505.5562,67.2485 Q505.0924,66.8213 504.656,66.6229 Q504.2196,66.4246 503.7557,66.4246 Q502.7669,66.4246 502.2634,67.2089 Q501.7598,67.9932 501.7598,69.5374 Q501.7598,71.0754 502.2634,71.8597 Q502.7669,72.644 503.7557,72.644 Q504.2196,72.644 504.656,72.4457 Q505.0924,72.2473 505.5562,71.8201 Z " fill="#000000"/><text fill="#D8BC00" font-family="Open Sans,Avenir,Nunito,Arial,Helvetica,SansSerif" font-size="12.5" font-weight="bold" lengthAdjust="spacing" textLength="34.375" x="520.3125" y="74.1211">Panel</text><line style="stroke:#5E5E5E;stroke-width:1.0416666666666667;" x1="490.1042" x2="559.8958" y1="85.0911" y2="85.0911"/><line style="stroke:#5E5E5E;stroke-width:1.0416666666666667;" x1="490.1042" x2="559.8958" y1="93.4245" y2="93.4245"/><!--MD5=[a1a705454aaa88ccb461a020ad3d8073]
class HomePageHeader--><rect codeLine="19" fill="#282828" height="83.3781" id="HomePageHeader" rx="8.3333" ry="8.3333" style="stroke:#5E5E5E;stroke-width:1.0416666666666667;" width="171.875" x="439.0625" y="164.1195"/><rect fill="#1B1B1A" height="31.3883" rx="8.3333" ry="8.3333" style="stroke:#1B1B1A;stroke-width:1.0416666666666667;" width="171.875" x="439.0625" y="164.1195"/><rect fill="#1B1B1A" height="8.3333" style="stroke:#1B1B1A;stroke-width:1.0416666666666667;" width="171.875" x="439.0625" y="187.1745"/><rect codeLine="19" fill="none" height="83.3781" id="HomePageHeader" rx="8.3333" ry="8.3333" style="stroke:#5E5E5E;stroke-width:1.0416666666666667;" width="171.875" x="439.0625" y="164.1195"/><ellipse cx="463.4896" cy="179.8136" fill="#0066CF" rx="10.4167" ry="10.4167" style="stroke:#0086EF;stroke-width:1.0416666666666667;"/><path d="M465.4,184.2387 Q464.9727,184.4584 464.5028,184.5683 Q464.0328,184.6781 463.514,184.6781 Q461.6707,184.6781 460.7003,183.4635 Q459.7298,182.2489 459.7298,179.954 Q459.7298,177.653 460.7003,176.4384 Q461.6707,175.2238 463.514,175.2238 Q464.0328,175.2238 464.5089,175.3337 Q464.9849,175.4435 465.4,175.6632 L465.4,177.6652 Q464.9361,177.238 464.4997,177.0396 Q464.0633,176.8412 463.5994,176.8412 Q462.6107,176.8412 462.1071,177.6255 Q461.6036,178.4098 461.6036,179.954 Q461.6036,181.4921 462.1071,182.2764 Q462.6107,183.0607 463.5994,183.0607 Q464.0633,183.0607 464.4997,182.8623 Q464.9361,182.664 465.4,182.2367 Z " fill="#000000"/><text fill="#D8BC00" font-family="Open Sans,Avenir,Nunito,Arial,Helvetica,SansSerif" font-size="12.5" font-weight="bold" lengthAdjust="spacing" textLength="112.5" x="482.3438" y="184.5378">HomePageHeader</text><line style="stroke:#5E5E5E;stroke-width:1.5625;" x1="440.1042" x2="609.8958" y1="195.5078" y2="195.5078"/><ellipse cx="450.5208" cy="230.8777" fill="#84BE84" rx="3.125" ry="3.125" style="stroke:#038048;stroke-width:1.0416666666666667;"/><text fill="#D8BC00" font-family="Open Sans,Avenir,Nunito,Arial,Helvetica,SansSerif" font-size="11.4583" lengthAdjust="spacing" textLength="139.5833" x="461.9792" y="237.7889">HomePageHeader(String)</text><line style="stroke:#5E5E5E;stroke-width:1.0416666666666667;" x1="440.1042" x2="481.25" y1="213.7136" y2="213.7136"/><text fill="#D8BC00" font-family="Open Sans,Avenir,Nunito,Arial,Helvetica,SansSerif" font-size="11.4583" lengthAdjust="spacing" textLength="81.25" x="484.375" y="217.5232">(constructors)</text><line style="stroke:#5E5E5E;stroke-width:1.0416666666666667;" x1="568.75" x2="609.8958" y1="213.7136" y2="213.7136"/><!--MD5=[d101864e95fbdcea1c24ae3939dd4bc8]
reverse link WicketExamplePage to HomePage--><path codeLine="6" d="M89.5833,122.682 C89.5833,136.0778 89.5833,150.7445 89.5833,163.9215 " fill="none" id="WicketExamplePage-backto-HomePage" style="stroke:#545454;stroke-width:1.5625;"/><polygon fill="none" points="82.2917,122.6507,89.5833,101.8174,96.875,122.6507,82.2917,122.6507" style="stroke:#545454;stroke-width:1.5625;"/><!--MD5=[826c53489bb6dc57924e3f4632663211]
reverse link WicketExampleApplication to HomePageApplication--><path codeLine="13" d="M312.5,122.9528 C312.5,142.7965 312.5,165.3799 312.5,181.7757 " fill="none" id="WicketExampleApplication-backto-HomePageApplication" style="stroke:#545454;stroke-width:1.5625;"/><polygon fill="none" points="305.2083,122.6507,312.5,101.8174,319.7917,122.6507,305.2083,122.6507" style="stroke:#545454;stroke-width:1.5625;"/><!--MD5=[3295c676e24baa9333e387f6b5398f3a]
reverse link Panel to HomePageHeader--><path codeLine="18" d="M525,122.682 C525,136.0778 525,150.7445 525,163.9215 " fill="none" id="Panel-backto-HomePageHeader" style="stroke:#545454;stroke-width:1.5625;"/><polygon fill="none" points="517.7083,122.6507,525,101.8174,532.2917,122.6507,517.7083,122.6507" style="stroke:#545454;stroke-width:1.5625;"/><!--MD5=[b4b845d1daa705973b19282fe97e4ae0]
@startuml

    !include lexakai.theme
    
    title "org.apache.wicket.examples.homepage"
    
    WicketExamplePage <|- - HomePage
    class HomePage
    {
        - -(constructors)- -
        +HomePage()
    }
    
    WicketExampleApplication <|- - HomePageApplication
    class HomePageApplication
    {
    }
    
    Panel <|- - HomePageHeader
    class HomePageHeader
    {
        - -(constructors)- -
        +HomePageHeader(String)
    }
    
@enduml

@startuml









skinparam backgroundColor #333333






skinparam  {
    defaultFontName   "Open Sans,Avenir,Nunito,Arial,Helvetica,SansSerif"
    defaultFontSize   12
    defaultTextAlignment left
    shadowing false
    RoundCorner 10
    TitleFontSize 18
}

skinparam defaultFontName       "Open Sans,Avenir,Nunito,Arial,Helvetica,SansSerif"
skinparam defaultFontSize       12
skinparam dpi                   100
skinparam shadowing             false
skinparam roundcorner           16
skinparam ParticipantPadding    40
skinparam BoxPadding            40
skinparam Padding               3
skinparam ArrowColor            #545454
skinparam stereotype {
    CBackgroundColor #0066cf
    CBorderColor #0086ef
    ABackgroundColor #C8Ac00
    ABorderColor #D8Bc00
    IBackgroundColor #008400
    IBorderColor #239c23
    EBackgroundColor #cf6300
    EBorderColor #ef8300
    NBackgroundColor #3380b9
    NBorderColor #004d86
}
skinparam title {
	FontColor	                 #c0c0c0
 	BorderColor                  #545454
	FontSize	    	         20
	BorderRoundCorner            16
	BorderThickness 	         1
	BackgroundColor              #48494b
}


skinparam legend {
	BackgroundColor #303030
	BorderColor #404040
	FontColor #a0a0a0
}

	skinparam swimlane {
	BorderColor #5e5e5e
	BorderThickness 2
	TitleBackgroundColor  #6d6d6d-#484848
	TitleFontColor #303030
}

skinparam activity {
		FontColor #C8Ac00
	BorderColor #333333
	BackgroundColor #333333-#333333
	BarColor #00FF00
	StartColor #0060a8
	EndColor #0060a8
	DiamondBackgroundColor #6d6d6d-#3a3a3a
  	DiamondBorderColor #3a3a3a
  	DiamondFontColor #fefefe
}


skinparam participant {
		FontColor #C8Ac00
	BorderColor #333333
	BackgroundColor #333333-#333333
	ParticipantBorderThickness 2
}


skinparam actor {
		FontColor #C8Ac00
	BorderColor #333333
	BackgroundColor #333333-#333333
}


skinparam arrow {
	Thickness 1.5
	Color #545454
	FontColor #a0a0a0
    FontStyle bold
    MessageAlignment center
}



skinparam sequence {
	BorderColor #303030
	TitleFontColor #303030
	BackgroundColor #333333
	StartColor #303030
	EndColor #303030
	BoxBackgroundColor #333333
	BoxBorderColor #484848
	BoxFontColor #484848
	LifeLineBorderColor #484848
	LifeLineBorderThickness 2
	LifeLineBackgroundColor #3a3a3a
	GroupBorderColor #484848
	GroupFontColor #484848
	GroupHeaderFontColor #0060a8
	GroupBackgroundColor #484848
	GroupHeaderBackgroundColor #333333
	DividerBackgroundColor #484848
    DividerBorderColor #484848
    DividerBorderThickness 2
    DividerFontColor #D8Bc00
	ReferenceBackgroundColor #333333
	ReferenceBorderColor #484848
	ReferenceFontColor #fefefe
	ReferenceHeaderBackgroundColor #484848
}


skinparam partition {
	BorderColor #303030
	FontColor #333333
	BackgroundColor #333333
}


skinparam collections {
		FontColor #C8Ac00
	BorderColor #333333
	BackgroundColor #333333-#333333
}


skinparam control {
		FontColor #C8Ac00
	BorderColor #333333
	BackgroundColor #333333-#333333
}


skinparam entity {
		FontColor #C8Ac00
	BorderColor #333333
	BackgroundColor #333333-#333333
}


skinparam boundary {
		FontColor #C8Ac00
	BorderColor #333333
	BackgroundColor #333333-#333333
}


skinparam agent {
	BackgroundColor #ff8000
	BorderColor #ff9933
	FontColor #484848
}


skinparam note {
	BorderThickness 1
	BackgroundColor #1b1b1a
	BorderColor #5e5e5e
	FontSize 11
	FontColor #a0a0a0
}


skinparam artifact {
	BorderThickness 10
	BorderColor #5e5e5e
	BackgroundColor #1b1b1a
	FontColor #D8Bc00
}


skinparam component {
		FontColor #C8Ac00
	BorderColor #333333
	BackgroundColor #333333-#333333
}


skinparam interface {
	BackgroundColor  #008400
	BorderColor  #007F00
	FontColor #484848
}


skinparam storage {
	BackgroundColor #ff8000
  	BorderColor #cc6600
	FontColor #222222
}


skinparam node {
	BackgroundColor #333333
	BorderColor #333333
	FontColor #C8Ac00
}


skinparam cloud {
	BackgroundColor #484848-black
	BorderColor #484848
	FontColor #D8Bc00
}


skinparam database {
		FontColor #C8Ac00
	BorderColor #333333
	BackgroundColor #333333-#333333
	BackgroundColor  #333333
}


skinparam class {
		FontColor #C8Ac00
	BorderColor #333333
	BackgroundColor #333333-#333333
	HeaderBackgroundColor #1b1b1a
    BackgroundColor #282828
    BorderColor #5e5e5e
 	StereotypeFontColor #a0a0a0
    StereotypeFontStyle bold
	BorderThickness 1
	AttributeFontColor #D8Bc00
	AttributeFontSize 11
    FontColor #D8Bc00
    FontStyle bold
}


skinparam object {
		FontColor #C8Ac00
	BorderColor #333333
	BackgroundColor #333333-#333333
	StereotypeFontColor #484848
	BorderThickness 1
	AttributeFontColor #fefefe
	AttributeFontSize 11
}


skinparam usecase {
		FontColor #C8Ac00
	BorderColor #333333
	BackgroundColor #333333-#333333
	BorderThickness 2
	StereotypeFontColor #303030
}


skinparam rectangle {
		FontColor #C8Ac00
	BorderColor #333333
	BackgroundColor #333333-#333333
	BackgroundColor #333333
	BorderThickness 2
	StereotypeFontColor #303030
}


skinparam package {
		FontColor #C8Ac00
	BorderColor #333333
	BackgroundColor #333333-#333333
	BackgroundColor #333333
	BorderThickness 2
}


skinparam folder {
	BackgroundColor #6d6d6d
  	BorderColor #ff8000
	FontColor #ff8000
	BorderThickness 2
}


skinparam frame {
	BackgroundColor #6d6d6d
  	BorderColor #0060a8
	FontColor #0060a8
	BorderThickness 2
}


skinparam state {
		FontColor #C8Ac00
	BorderColor #333333
	BackgroundColor #333333-#333333
	StartColor #0060a8
	EndColor #0060a8
	AttributeFontColor #fefefe
	AttributeFontSize 11
}


skinparam queue {
		FontColor #C8Ac00
	BorderColor #333333
	BackgroundColor #333333-#333333
}


skinparam card {
	BackgroundColor #0060a8
	BorderColor #004d86
	FontColor $INFO_TEXT
}


skinparam file {
	BackgroundColor #6d6d6d-#484848
	BorderColor #0060a8
	FontColor #fefefe
}


skinparam stack {
		FontColor #C8Ac00
	BorderColor #333333
	BackgroundColor #333333-#333333
}

    
    title "org.apache.wicket.examples.homepage"
    
    WicketExamplePage <|- - HomePage
    class HomePage
    {
        - -(constructors)- -
        +HomePage()
    }
    
    WicketExampleApplication <|- - HomePageApplication
    class HomePageApplication
    {
    }
    
    Panel <|- - HomePageHeader
    class HomePageHeader
    {
        - -(constructors)- -
        +HomePageHeader(String)
    }
    
@enduml

PlantUML version 1.2021.01(Tue Feb 02 00:55:08 MST 2021)
(GPL source distribution)
Java Runtime: Java(TM) SE Runtime Environment
JVM: Java HotSpot(TM) 64-Bit Server VM
Default Encoding: UTF-8
Language: en
Country: US
--></g></svg>