<?xml version="1.0" encoding="UTF-8" standalone="no"?><svg xmlns="http://www.w3.org/2000/svg" xmlns:xlink="http://www.w3.org/1999/xlink" contentScriptType="application/ecmascript" contentStyleType="text/css" height="666.6667px" preserveAspectRatio="none" style="width:685px;height:666px;background:#333333;" version="1.1" viewBox="0 0 685 666" width="685.4167px" zoomAndPan="magnify"><defs/><g><rect fill="#48494B" height="41.2028" rx="8.3333" ry="8.3333" style="stroke:#545454;stroke-width:1.0416666666666667;" width="306.25" x="182.2917" y="2.0833"/><text fill="#C0C0C0" font-family="Open Sans,Avenir,Nunito,Arial,Helvetica,SansSerif" font-size="20.8333" lengthAdjust="spacing" textLength="283.3333" x="193.75" y="30.5583">org.apache.wicket.examples</text><!--MD5=[97579af86a7440af5e74c6047349c48c]
class HttpServlet--><rect fill="#282828" height="48.055" id="HttpServlet" rx="8.3333" ry="8.3333" style="stroke:#5E5E5E;stroke-width:1.0416666666666667;" width="109.375" x="28.6458" y="53.7028"/><rect fill="#1B1B1A" height="31.3883" rx="8.3333" ry="8.3333" style="stroke:#1B1B1A;stroke-width:1.0416666666666667;" width="109.375" x="28.6458" y="53.7028"/><rect fill="#1B1B1A" height="8.3333" style="stroke:#1B1B1A;stroke-width:1.0416666666666667;" width="109.375" x="28.6458" y="76.7578"/><rect fill="none" height="48.055" id="HttpServlet" rx="8.3333" ry="8.3333" style="stroke:#5E5E5E;stroke-width:1.0416666666666667;" width="109.375" x="28.6458" y="53.7028"/><ellipse cx="43.2292" cy="69.397" fill="#0066CF" rx="10.4167" ry="10.4167" style="stroke:#0086EF;stroke-width:1.0416666666666667;"/><path d="M45.1396,73.822 Q44.7123,74.0417 44.2424,74.1516 Q43.7724,74.2615 43.2536,74.2615 Q41.4103,74.2615 40.4399,73.0469 Q39.4694,71.8323 39.4694,69.5374 Q39.4694,67.2363 40.4399,66.0217 Q41.4103,64.8071 43.2536,64.8071 Q43.7724,64.8071 44.2485,64.917 Q44.7245,65.0269 45.1396,65.2466 L45.1396,67.2485 Q44.6757,66.8213 44.2393,66.6229 Q43.8029,66.4246 43.339,66.4246 Q42.3503,66.4246 41.8467,67.2089 Q41.3432,67.9932 41.3432,69.5374 Q41.3432,71.0754 41.8467,71.8597 Q42.3503,72.644 43.339,72.644 Q43.8029,72.644 44.2393,72.4457 Q44.6757,72.2473 45.1396,71.8201 Z " fill="#000000"/><text fill="#D8BC00" font-family="Open Sans,Avenir,Nunito,Arial,Helvetica,SansSerif" font-size="12.5" font-weight="bold" lengthAdjust="spacing" textLength="71.875" x="59.8958" y="74.1211">HttpServlet</text><line style="stroke:#5E5E5E;stroke-width:1.0416666666666667;" x1="29.6875" x2="136.9792" y1="85.0911" y2="85.0911"/><line style="stroke:#5E5E5E;stroke-width:1.0416666666666667;" x1="29.6875" x2="136.9792" y1="93.4245" y2="93.4245"/><!--MD5=[7265afe7fab95c0bd6d11c412597393b]
class HelloWorldServlet--><rect codeLine="7" fill="#282828" height="48.055" id="HelloWorldServlet" rx="8.3333" ry="8.3333" style="stroke:#5E5E5E;stroke-width:1.0416666666666667;" width="152.0833" x="7.2917" y="248.4945"/><rect fill="#1B1B1A" height="31.3883" rx="8.3333" ry="8.3333" style="stroke:#1B1B1A;stroke-width:1.0416666666666667;" width="152.0833" x="7.2917" y="248.4945"/><rect fill="#1B1B1A" height="8.3333" style="stroke:#1B1B1A;stroke-width:1.0416666666666667;" width="152.0833" x="7.2917" y="271.5495"/><rect codeLine="7" fill="none" height="48.055" id="HelloWorldServlet" rx="8.3333" ry="8.3333" style="stroke:#5E5E5E;stroke-width:1.0416666666666667;" width="152.0833" x="7.2917" y="248.4945"/><ellipse cx="21.875" cy="264.1886" fill="#0066CF" rx="10.4167" ry="10.4167" style="stroke:#0086EF;stroke-width:1.0416666666666667;"/><path d="M23.7854,268.6137 Q23.3582,268.8334 22.8882,268.9433 Q22.4182,269.0531 21.8994,269.0531 Q20.0562,269.0531 19.0857,267.8385 Q18.1152,266.6239 18.1152,264.329 Q18.1152,262.028 19.0857,260.8134 Q20.0562,259.5988 21.8994,259.5988 Q22.4182,259.5988 22.8943,259.7087 Q23.3704,259.8185 23.7854,260.0382 L23.7854,262.0402 Q23.3215,261.613 22.8851,261.4146 Q22.4487,261.2162 21.9849,261.2162 Q20.9961,261.2162 20.4926,262.0005 Q19.989,262.7848 19.989,264.329 Q19.989,265.8671 20.4926,266.6514 Q20.9961,267.4357 21.9849,267.4357 Q22.4487,267.4357 22.8851,267.2373 Q23.3215,267.039 23.7854,266.6117 Z " fill="#000000"/><text fill="#D8BC00" font-family="Open Sans,Avenir,Nunito,Arial,Helvetica,SansSerif" font-size="12.5" font-weight="bold" lengthAdjust="spacing" textLength="114.5833" x="38.5417" y="268.9128">HelloWorldServlet</text><line style="stroke:#5E5E5E;stroke-width:1.0416666666666667;" x1="8.3333" x2="158.3333" y1="279.8828" y2="279.8828"/><line style="stroke:#5E5E5E;stroke-width:1.0416666666666667;" x1="8.3333" x2="158.3333" y1="288.2161" y2="288.2161"/><!--MD5=[5698d5e59d6816aebb6ec6f82004408f]
class WebApplication--><rect fill="#282828" height="48.055" id="WebApplication" rx="8.3333" ry="8.3333" style="stroke:#5E5E5E;stroke-width:1.0416666666666667;" width="138.5417" x="230.7292" y="53.7028"/><rect fill="#1B1B1A" height="31.3883" rx="8.3333" ry="8.3333" style="stroke:#1B1B1A;stroke-width:1.0416666666666667;" width="138.5417" x="230.7292" y="53.7028"/><rect fill="#1B1B1A" height="8.3333" style="stroke:#1B1B1A;stroke-width:1.0416666666666667;" width="138.5417" x="230.7292" y="76.7578"/><rect fill="none" height="48.055" id="WebApplication" rx="8.3333" ry="8.3333" style="stroke:#5E5E5E;stroke-width:1.0416666666666667;" width="138.5417" x="230.7292" y="53.7028"/><ellipse cx="245.3125" cy="69.397" fill="#0066CF" rx="10.4167" ry="10.4167" style="stroke:#0086EF;stroke-width:1.0416666666666667;"/><path d="M247.2229,73.822 Q246.7957,74.0417 246.3257,74.1516 Q245.8557,74.2615 245.3369,74.2615 Q243.4937,74.2615 242.5232,73.0469 Q241.5527,71.8323 241.5527,69.5374 Q241.5527,67.2363 242.5232,66.0217 Q243.4937,64.8071 245.3369,64.8071 Q245.8557,64.8071 246.3318,64.917 Q246.8079,65.0269 247.2229,65.2466 L247.2229,67.2485 Q246.759,66.8213 246.3226,66.6229 Q245.8862,66.4246 245.4224,66.4246 Q244.4336,66.4246 243.9301,67.2089 Q243.4265,67.9932 243.4265,69.5374 Q243.4265,71.0754 243.9301,71.8597 Q244.4336,72.644 245.4224,72.644 Q245.8862,72.644 246.3226,72.4457 Q246.759,72.2473 247.2229,71.8201 Z " fill="#000000"/><text fill="#D8BC00" font-family="Open Sans,Avenir,Nunito,Arial,Helvetica,SansSerif" font-size="12.5" font-weight="bold" lengthAdjust="spacing" textLength="101.0417" x="261.9792" y="74.1211">WebApplication</text><line style="stroke:#5E5E5E;stroke-width:1.0416666666666667;" x1="231.7708" x2="368.2292" y1="85.0911" y2="85.0911"/><line style="stroke:#5E5E5E;stroke-width:1.0416666666666667;" x1="231.7708" x2="368.2292" y1="93.4245" y2="93.4245"/><!--MD5=[818b680dd029f5404dc253254408b9c3]
class WicketExampleApplication--><rect codeLine="12" fill="#282828" height="48.055" id="WicketExampleApplication" rx="8.3333" ry="8.3333" style="stroke:#5E5E5E;stroke-width:1.0416666666666667;" width="208.3333" x="195.8333" y="248.4945"/><rect fill="#1B1B1A" height="31.3883" rx="8.3333" ry="8.3333" style="stroke:#1B1B1A;stroke-width:1.0416666666666667;" width="208.3333" x="195.8333" y="248.4945"/><rect fill="#1B1B1A" height="8.3333" style="stroke:#1B1B1A;stroke-width:1.0416666666666667;" width="208.3333" x="195.8333" y="271.5495"/><rect codeLine="12" fill="none" height="48.055" id="WicketExampleApplication" rx="8.3333" ry="8.3333" style="stroke:#5E5E5E;stroke-width:1.0416666666666667;" width="208.3333" x="195.8333" y="248.4945"/><ellipse cx="210.4167" cy="264.1886" fill="#C8AC00" rx="10.4167" ry="10.4167" style="stroke:#D8BC00;stroke-width:1.0416666666666667;"/><path d="M210.0098,260.8907 L209.1614,264.62 L210.8643,264.62 Z M208.9111,259.2428 L211.1145,259.2428 L213.5742,268.3553 L211.7737,268.3553 L211.2122,266.1031 L208.8013,266.1031 L208.252,268.3553 L206.4514,268.3553 Z " fill="#000000"/><text fill="#D8BC00" font-family="Open Sans,Avenir,Nunito,Arial,Helvetica,SansSerif" font-size="12.5" font-style="italic" font-weight="bold" lengthAdjust="spacing" textLength="170.8333" x="227.0833" y="268.9128">WicketExampleApplication</text><line style="stroke:#5E5E5E;stroke-width:1.0416666666666667;" x1="196.875" x2="403.125" y1="279.8828" y2="279.8828"/><line style="stroke:#5E5E5E;stroke-width:1.0416666666666667;" x1="196.875" x2="403.125" y1="288.2161" y2="288.2161"/><!--MD5=[0174392a0c212c3b3e97bee69152624c]
class Panel--><rect fill="#282828" height="48.055" id="Panel" rx="8.3333" ry="8.3333" style="stroke:#5E5E5E;stroke-width:1.0416666666666667;" width="71.875" x="523.4375" y="465.1611"/><rect fill="#1B1B1A" height="31.3883" rx="8.3333" ry="8.3333" style="stroke:#1B1B1A;stroke-width:1.0416666666666667;" width="71.875" x="523.4375" y="465.1611"/><rect fill="#1B1B1A" height="8.3333" style="stroke:#1B1B1A;stroke-width:1.0416666666666667;" width="71.875" x="523.4375" y="488.2161"/><rect fill="none" height="48.055" id="Panel" rx="8.3333" ry="8.3333" style="stroke:#5E5E5E;stroke-width:1.0416666666666667;" width="71.875" x="523.4375" y="465.1611"/><ellipse cx="538.0208" cy="480.8553" fill="#0066CF" rx="10.4167" ry="10.4167" style="stroke:#0086EF;stroke-width:1.0416666666666667;"/><path d="M539.9312,485.2804 Q539.504,485.5001 539.034,485.6099 Q538.564,485.7198 538.0452,485.7198 Q536.202,485.7198 535.2315,484.5052 Q534.2611,483.2906 534.2611,480.9957 Q534.2611,478.6947 535.2315,477.4801 Q536.202,476.2655 538.0452,476.2655 Q538.564,476.2655 539.0401,476.3753 Q539.5162,476.4852 539.9312,476.7049 L539.9312,478.7069 Q539.4674,478.2796 539.031,478.0813 Q538.5946,477.8829 538.1307,477.8829 Q537.1419,477.8829 536.6384,478.6672 Q536.1348,479.4515 536.1348,480.9957 Q536.1348,482.5338 536.6384,483.3181 Q537.1419,484.1024 538.1307,484.1024 Q538.5946,484.1024 539.031,483.904 Q539.4674,483.7056 539.9312,483.2784 Z " fill="#000000"/><text fill="#D8BC00" font-family="Open Sans,Avenir,Nunito,Arial,Helvetica,SansSerif" font-size="12.5" font-weight="bold" lengthAdjust="spacing" textLength="34.375" x="554.6875" y="485.5794">Panel</text><line style="stroke:#5E5E5E;stroke-width:1.0416666666666667;" x1="524.4792" x2="594.2708" y1="496.5495" y2="496.5495"/><line style="stroke:#5E5E5E;stroke-width:1.0416666666666667;" x1="524.4792" x2="594.2708" y1="504.8828" y2="504.8828"/><!--MD5=[6bf7eaa8fd57a9ee6d1414e18e76580c]
class WicketExampleHeader--><rect codeLine="17" fill="#282828" height="83.3781" id="WicketExampleHeader" rx="8.3333" ry="8.3333" style="stroke:#5E5E5E;stroke-width:1.0416666666666667;" width="195.8333" x="461.4583" y="576.6195"/><rect fill="#1B1B1A" height="31.3883" rx="8.3333" ry="8.3333" style="stroke:#1B1B1A;stroke-width:1.0416666666666667;" width="195.8333" x="461.4583" y="576.6195"/><rect fill="#1B1B1A" height="8.3333" style="stroke:#1B1B1A;stroke-width:1.0416666666666667;" width="195.8333" x="461.4583" y="599.6745"/><rect codeLine="17" fill="none" height="83.3781" id="WicketExampleHeader" rx="8.3333" ry="8.3333" style="stroke:#5E5E5E;stroke-width:1.0416666666666667;" width="195.8333" x="461.4583" y="576.6195"/><ellipse cx="483.5417" cy="592.3136" fill="#0066CF" rx="10.4167" ry="10.4167" style="stroke:#0086EF;stroke-width:1.0416666666666667;"/><path d="M485.4521,596.7387 Q485.0248,596.9584 484.5549,597.0683 Q484.0849,597.1781 483.5661,597.1781 Q481.7228,597.1781 480.7524,595.9635 Q479.7819,594.7489 479.7819,592.454 Q479.7819,590.153 480.7524,588.9384 Q481.7228,587.7238 483.5661,587.7238 Q484.0849,587.7238 484.561,587.8337 Q485.037,587.9435 485.4521,588.1632 L485.4521,590.1652 Q484.9882,589.738 484.5518,589.5396 Q484.1154,589.3412 483.6515,589.3412 Q482.6628,589.3412 482.1592,590.1255 Q481.6557,590.9098 481.6557,592.454 Q481.6557,593.9921 482.1592,594.7764 Q482.6628,595.5607 483.6515,595.5607 Q484.1154,595.5607 484.5518,595.3623 Q484.9882,595.164 485.4521,594.7367 Z " fill="#000000"/><text fill="#D8BC00" font-family="Open Sans,Avenir,Nunito,Arial,Helvetica,SansSerif" font-size="12.5" font-weight="bold" lengthAdjust="spacing" textLength="141.6667" x="501.875" y="597.0378">WicketExampleHeader</text><line style="stroke:#5E5E5E;stroke-width:1.5625;" x1="462.5" x2="656.25" y1="608.0078" y2="608.0078"/><ellipse cx="472.9167" cy="643.3777" fill="#84BE84" rx="3.125" ry="3.125" style="stroke:#038048;stroke-width:1.0416666666666667;"/><text fill="#D8BC00" font-family="Open Sans,Avenir,Nunito,Arial,Helvetica,SansSerif" font-size="11.4583" lengthAdjust="spacing" textLength="163.5417" x="484.375" y="650.2889">WicketExampleHeader(String)</text><line style="stroke:#5E5E5E;stroke-width:1.0416666666666667;" x1="462.5" x2="515.625" y1="626.2136" y2="626.2136"/><text fill="#D8BC00" font-family="Open Sans,Avenir,Nunito,Arial,Helvetica,SansSerif" font-size="11.4583" lengthAdjust="spacing" textLength="81.25" x="518.75" y="630.0232">(constructors)</text><line style="stroke:#5E5E5E;stroke-width:1.0416666666666667;" x1="603.125" x2="656.25" y1="626.2136" y2="626.2136"/><!--MD5=[2348928a02e2f2aa159b7171a1143fdb]
class WebPage--><rect fill="#282828" height="48.055" id="WebPage" rx="8.3333" ry="8.3333" style="stroke:#5E5E5E;stroke-width:1.0416666666666667;" width="94.7917" x="511.9792" y="53.7028"/><rect fill="#1B1B1A" height="31.3883" rx="8.3333" ry="8.3333" style="stroke:#1B1B1A;stroke-width:1.0416666666666667;" width="94.7917" x="511.9792" y="53.7028"/><rect fill="#1B1B1A" height="8.3333" style="stroke:#1B1B1A;stroke-width:1.0416666666666667;" width="94.7917" x="511.9792" y="76.7578"/><rect fill="none" height="48.055" id="WebPage" rx="8.3333" ry="8.3333" style="stroke:#5E5E5E;stroke-width:1.0416666666666667;" width="94.7917" x="511.9792" y="53.7028"/><ellipse cx="526.5625" cy="69.397" fill="#0066CF" rx="10.4167" ry="10.4167" style="stroke:#0086EF;stroke-width:1.0416666666666667;"/><path d="M528.4729,73.822 Q528.0457,74.0417 527.5757,74.1516 Q527.1057,74.2615 526.5869,74.2615 Q524.7437,74.2615 523.7732,73.0469 Q522.8027,71.8323 522.8027,69.5374 Q522.8027,67.2363 523.7732,66.0217 Q524.7437,64.8071 526.5869,64.8071 Q527.1057,64.8071 527.5818,64.917 Q528.0579,65.0269 528.4729,65.2466 L528.4729,67.2485 Q528.009,66.8213 527.5726,66.6229 Q527.1362,66.4246 526.6724,66.4246 Q525.6836,66.4246 525.1801,67.2089 Q524.6765,67.9932 524.6765,69.5374 Q524.6765,71.0754 525.1801,71.8597 Q525.6836,72.644 526.6724,72.644 Q527.1362,72.644 527.5726,72.4457 Q528.009,72.2473 528.4729,71.8201 Z " fill="#000000"/><text fill="#D8BC00" font-family="Open Sans,Avenir,Nunito,Arial,Helvetica,SansSerif" font-size="12.5" font-weight="bold" lengthAdjust="spacing" textLength="57.2917" x="543.2292" y="74.1211">WebPage</text><line style="stroke:#5E5E5E;stroke-width:1.0416666666666667;" x1="513.0208" x2="605.7292" y1="85.0911" y2="85.0911"/><line style="stroke:#5E5E5E;stroke-width:1.0416666666666667;" x1="513.0208" x2="605.7292" y1="93.4245" y2="93.4245"/><!--MD5=[8de0e4c819f220f8e0c4c4df41ba59ce]
class WicketExamplePage--><rect codeLine="25" fill="#282828" height="214.3473" id="WicketExamplePage" rx="8.3333" ry="8.3333" style="stroke:#5E5E5E;stroke-width:1.0416666666666667;" width="237.5" x="440.625" y="165.1611"/><rect fill="#1B1B1A" height="31.3883" rx="8.3333" ry="8.3333" style="stroke:#1B1B1A;stroke-width:1.0416666666666667;" width="237.5" x="440.625" y="165.1611"/><rect fill="#1B1B1A" height="8.3333" style="stroke:#1B1B1A;stroke-width:1.0416666666666667;" width="237.5" x="440.625" y="188.2161"/><rect codeLine="25" fill="none" height="214.3473" id="WicketExamplePage" rx="8.3333" ry="8.3333" style="stroke:#5E5E5E;stroke-width:1.0416666666666667;" width="237.5" x="440.625" y="165.1611"/><ellipse cx="488.5417" cy="180.8553" fill="#0066CF" rx="10.4167" ry="10.4167" style="stroke:#0086EF;stroke-width:1.0416666666666667;"/><path d="M490.4521,185.2804 Q490.0248,185.5001 489.5549,185.6099 Q489.0849,185.7198 488.5661,185.7198 Q486.7228,185.7198 485.7524,184.5052 Q484.7819,183.2906 484.7819,180.9957 Q484.7819,178.6947 485.7524,177.4801 Q486.7228,176.2655 488.5661,176.2655 Q489.0849,176.2655 489.561,176.3753 Q490.037,176.4852 490.4521,176.7049 L490.4521,178.7069 Q489.9882,178.2796 489.5518,178.0813 Q489.1154,177.8829 488.6515,177.8829 Q487.6628,177.8829 487.1592,178.6672 Q486.6557,179.4515 486.6557,180.9957 Q486.6557,182.5338 487.1592,183.3181 Q487.6628,184.1024 488.6515,184.1024 Q489.1154,184.1024 489.5518,183.904 Q489.9882,183.7056 490.4521,183.2784 Z " fill="#000000"/><text fill="#D8BC00" font-family="Open Sans,Avenir,Nunito,Arial,Helvetica,SansSerif" font-size="12.5" font-weight="bold" lengthAdjust="spacing" textLength="127.0833" x="511.4583" y="185.5794">WicketExamplePage</text><line style="stroke:#5E5E5E;stroke-width:1.5625;" x1="441.6667" x2="677.0833" y1="196.5495" y2="196.5495"/><ellipse cx="452.0833" cy="231.9194" fill="#84BE84" rx="3.125" ry="3.125" style="stroke:#038048;stroke-width:1.0416666666666667;"/><text fill="#D8BC00" font-family="Open Sans,Avenir,Nunito,Arial,Helvetica,SansSerif" font-size="11.4583" lengthAdjust="spacing" textLength="116.6667" x="463.5417" y="238.8306">WicketExamplePage()</text><ellipse cx="452.0833" cy="251.6642" fill="#84BE84" rx="3.125" ry="3.125" style="stroke:#038048;stroke-width:1.0416666666666667;"/><text fill="#D8BC00" font-family="Open Sans,Avenir,Nunito,Arial,Helvetica,SansSerif" font-size="11.4583" lengthAdjust="spacing" textLength="177.0833" x="463.5417" y="258.5754">WicketExamplePage(IModel&lt;?&gt;)</text><ellipse cx="452.0833" cy="271.4091" fill="#84BE84" rx="3.125" ry="3.125" style="stroke:#038048;stroke-width:1.0416666666666667;"/><text fill="#D8BC00" font-family="Open Sans,Avenir,Nunito,Arial,Helvetica,SansSerif" font-size="11.4583" lengthAdjust="spacing" textLength="205.2083" x="463.5417" y="278.3203">WicketExamplePage(PageParameters)</text><line style="stroke:#5E5E5E;stroke-width:1.0416666666666667;" x1="441.6667" x2="515.625" y1="214.7552" y2="214.7552"/><text fill="#D8BC00" font-family="Open Sans,Avenir,Nunito,Arial,Helvetica,SansSerif" font-size="11.4583" lengthAdjust="spacing" textLength="81.25" x="518.75" y="218.5649">(constructors)</text><line style="stroke:#5E5E5E;stroke-width:1.0416666666666667;" x1="603.125" x2="677.0833" y1="214.7552" y2="214.7552"/><line style="stroke:#5E5E5E;stroke-width:1.0416666666666667;" x1="441.6667" x2="677.0833" y1="288.029" y2="288.029"/><polygon fill="#FFFF44" points="452.0833,294.279,456.25,298.4456,452.0833,302.6123,447.9167,298.4456" style="stroke:#B38D22;stroke-width:1.0416666666666667;"/><text fill="#D8BC00" font-family="Open Sans,Avenir,Nunito,Arial,Helvetica,SansSerif" font-size="11.4583" lengthAdjust="spacing" textLength="76.0417" x="463.5417" y="306.3985">void explain()</text><polygon fill="#FFFF44" points="452.0833,314.0238,456.25,318.1905,452.0833,322.3572,447.9167,318.1905" style="stroke:#B38D22;stroke-width:1.0416666666666667;"/><text fill="#D8BC00" font-family="Open Sans,Avenir,Nunito,Arial,Helvetica,SansSerif" font-size="11.4583" lengthAdjust="spacing" textLength="160.4167" x="463.5417" y="326.1434">boolean showSourceButton()</text><polygon fill="#FFFF44" points="452.0833,357.6803,456.25,361.8469,452.0833,366.0136,447.9167,361.8469" style="stroke:#B38D22;stroke-width:1.0416666666666667;"/><text fill="#D8BC00" font-family="Open Sans,Avenir,Nunito,Arial,Helvetica,SansSerif" font-size="11.4583" lengthAdjust="spacing" textLength="155.2083" x="463.5417" y="369.7998">Panel buildHeader(String id)</text><line style="stroke:#5E5E5E;stroke-width:1.0416666666666667;" x1="441.6667" x2="529.1667" y1="345.7245" y2="345.7245"/><text fill="#D8BC00" font-family="Open Sans,Avenir,Nunito,Arial,Helvetica,SansSerif" font-size="11.4583" lengthAdjust="spacing" textLength="54.1667" x="532.2917" y="349.5341">(building)</text><line style="stroke:#5E5E5E;stroke-width:1.0416666666666667;" x1="589.5833" x2="677.0833" y1="345.7245" y2="345.7245"/><!--MD5=[3a9d9b4eaad2ecc97028a104f9dc351f]
reverse link HttpServlet to HelloWorldServlet--><path codeLine="6" d="M83.3333,123.0257 C83.3333,162.1195 83.3333,217.5257 83.3333,248.3799 " fill="none" id="HttpServlet-backto-HelloWorldServlet" style="stroke:#545454;stroke-width:1.5625;"/><polygon fill="none" points="76.0417,122.7861,83.3333,101.9528,90.625,122.7861,76.0417,122.7861" style="stroke:#545454;stroke-width:1.5625;"/><!--MD5=[ad4eb03b315ed504651d4e2b1abe69c8]
reverse link WebApplication to WicketExampleApplication--><path codeLine="11" d="M300,123.0257 C300,162.1195 300,217.5257 300,248.3799 " fill="none" id="WebApplication-backto-WicketExampleApplication" style="stroke:#545454;stroke-width:1.5625;"/><polygon fill="none" points="292.7083,122.7861,300,101.9528,307.2917,122.7861,292.7083,122.7861" style="stroke:#545454;stroke-width:1.5625;"/><!--MD5=[d2a0bf40fd94c2cb261b4a28175030e0]
reverse link Panel to WicketExampleHeader--><path codeLine="16" d="M559.375,534.4007 C559.375,548.0465 559.375,563.0049 559.375,576.4111 " fill="none" id="Panel-backto-WicketExampleHeader" style="stroke:#545454;stroke-width:1.5625;"/><polygon fill="none" points="552.0833,534.0049,559.375,513.1715,566.6667,534.0049,552.0833,534.0049" style="stroke:#545454;stroke-width:1.5625;"/><!--MD5=[8733399cfc729b1a2a318be17fdfb6a1]
reverse link WebPage to WicketExamplePage--><path codeLine="23" d="M559.375,123.1924 C559.375,135.8382 559.375,150.182 559.375,164.8382 " fill="none" id="WebPage-backto-WicketExamplePage" style="stroke:#545454;stroke-width:1.5625;"/><polygon fill="none" points="552.0833,122.7861,559.375,101.9528,566.6667,122.7861,552.0833,122.7861" style="stroke:#545454;stroke-width:1.5625;"/><!--MD5=[1ae2041f50645f8feb1fcfa6566e3c0d]
link WicketExamplePage to Panel--><path codeLine="24" d="M559.375,379.8382 C559.375,409.2549 559.375,438.7549 559.375,459.5153 " fill="none" id="WicketExamplePage-to-Panel" style="stroke:#545454;stroke-width:1.5625;"/><polygon fill="#545454" points="559.375,464.8695,563.5417,455.4945,559.375,459.6611,555.2083,455.4945,559.375,464.8695" style="stroke:#545454;stroke-width:1.5625;"/><text fill="#A0A0A0" font-family="Open Sans,Avenir,Nunito,Arial,Helvetica,SansSerif" font-size="12.5" font-weight="bold" lengthAdjust="spacing" textLength="45.8333" x="563.5417" y="427.2461">creates</text><!--MD5=[6467ce4579aec7545a27e8153457a559]
@startuml

    !include lexakai.theme
    
    title "org.apache.wicket.examples"
    
    HttpServlet <|- - HelloWorldServlet
    class HelloWorldServlet
    {
    }
    
    WebApplication <|- - WicketExampleApplication
    abstract class WicketExampleApplication
    {
    }
    
    Panel <|- - WicketExampleHeader
    class WicketExampleHeader
    {
        - -(constructors)- -
        +WicketExampleHeader(String)
    }
    
    WebPage <|- - WicketExamplePage
    WicketExamplePage - -> Panel : "creates"
    class WicketExamplePage
    {
        - -(constructors)- -
        +WicketExamplePage()
        +WicketExamplePage(IModel<?>)
        +WicketExamplePage(PageParameters)
        - -
        #void explain()
        #boolean showSourceButton()
        - -(building)- -
        #Panel buildHeader(String id)
    }
    
@enduml

@startuml









skinparam backgroundColor #333333






skinparam  {
    defaultFontName   "Open Sans,Avenir,Nunito,Arial,Helvetica,SansSerif"
    defaultFontSize   12
    defaultTextAlignment left
    shadowing false
    RoundCorner 10
    TitleFontSize 18
}

skinparam defaultFontName       "Open Sans,Avenir,Nunito,Arial,Helvetica,SansSerif"
skinparam defaultFontSize       12
skinparam dpi                   100
skinparam shadowing             false
skinparam roundcorner           16
skinparam ParticipantPadding    40
skinparam BoxPadding            40
skinparam Padding               3
skinparam ArrowColor            #545454
skinparam stereotype {
    CBackgroundColor #0066cf
    CBorderColor #0086ef
    ABackgroundColor #C8Ac00
    ABorderColor #D8Bc00
    IBackgroundColor #008400
    IBorderColor #239c23
    EBackgroundColor #cf6300
    EBorderColor #ef8300
    NBackgroundColor #3380b9
    NBorderColor #004d86
}
skinparam title {
	FontColor	                 #c0c0c0
 	BorderColor                  #545454
	FontSize	    	         20
	BorderRoundCorner            16
	BorderThickness 	         1
	BackgroundColor              #48494b
}


skinparam legend {
	BackgroundColor #303030
	BorderColor #404040
	FontColor #a0a0a0
}

	skinparam swimlane {
	BorderColor #5e5e5e
	BorderThickness 2
	TitleBackgroundColor  #6d6d6d-#484848
	TitleFontColor #303030
}

skinparam activity {
		FontColor #C8Ac00
	BorderColor #333333
	BackgroundColor #333333-#333333
	BarColor #00FF00
	StartColor #0060a8
	EndColor #0060a8
	DiamondBackgroundColor #6d6d6d-#3a3a3a
  	DiamondBorderColor #3a3a3a
  	DiamondFontColor #fefefe
}


skinparam participant {
		FontColor #C8Ac00
	BorderColor #333333
	BackgroundColor #333333-#333333
	ParticipantBorderThickness 2
}


skinparam actor {
		FontColor #C8Ac00
	BorderColor #333333
	BackgroundColor #333333-#333333
}


skinparam arrow {
	Thickness 1.5
	Color #545454
	FontColor #a0a0a0
    FontStyle bold
    MessageAlignment center
}



skinparam sequence {
	BorderColor #303030
	TitleFontColor #303030
	BackgroundColor #333333
	StartColor #303030
	EndColor #303030
	BoxBackgroundColor #333333
	BoxBorderColor #484848
	BoxFontColor #484848
	LifeLineBorderColor #484848
	LifeLineBorderThickness 2
	LifeLineBackgroundColor #3a3a3a
	GroupBorderColor #484848
	GroupFontColor #484848
	GroupHeaderFontColor #0060a8
	GroupBackgroundColor #484848
	GroupHeaderBackgroundColor #333333
	DividerBackgroundColor #484848
    DividerBorderColor #484848
    DividerBorderThickness 2
    DividerFontColor #D8Bc00
	ReferenceBackgroundColor #333333
	ReferenceBorderColor #484848
	ReferenceFontColor #fefefe
	ReferenceHeaderBackgroundColor #484848
}


skinparam partition {
	BorderColor #303030
	FontColor #333333
	BackgroundColor #333333
}


skinparam collections {
		FontColor #C8Ac00
	BorderColor #333333
	BackgroundColor #333333-#333333
}


skinparam control {
		FontColor #C8Ac00
	BorderColor #333333
	BackgroundColor #333333-#333333
}


skinparam entity {
		FontColor #C8Ac00
	BorderColor #333333
	BackgroundColor #333333-#333333
}


skinparam boundary {
		FontColor #C8Ac00
	BorderColor #333333
	BackgroundColor #333333-#333333
}


skinparam agent {
	BackgroundColor #ff8000
	BorderColor #ff9933
	FontColor #484848
}


skinparam note {
	BorderThickness 1
	BackgroundColor #1b1b1a
	BorderColor #5e5e5e
	FontSize 11
	FontColor #a0a0a0
}


skinparam artifact {
	BorderThickness 10
	BorderColor #5e5e5e
	BackgroundColor #1b1b1a
	FontColor #D8Bc00
}


skinparam component {
		FontColor #C8Ac00
	BorderColor #333333
	BackgroundColor #333333-#333333
}


skinparam interface {
	BackgroundColor  #008400
	BorderColor  #007F00
	FontColor #484848
}


skinparam storage {
	BackgroundColor #ff8000
  	BorderColor #cc6600
	FontColor #222222
}


skinparam node {
	BackgroundColor #333333
	BorderColor #333333
	FontColor #C8Ac00
}


skinparam cloud {
	BackgroundColor #484848-black
	BorderColor #484848
	FontColor #D8Bc00
}


skinparam database {
		FontColor #C8Ac00
	BorderColor #333333
	BackgroundColor #333333-#333333
	BackgroundColor  #333333
}


skinparam class {
		FontColor #C8Ac00
	BorderColor #333333
	BackgroundColor #333333-#333333
	HeaderBackgroundColor #1b1b1a
    BackgroundColor #282828
    BorderColor #5e5e5e
 	StereotypeFontColor #a0a0a0
    StereotypeFontStyle bold
	BorderThickness 1
	AttributeFontColor #D8Bc00
	AttributeFontSize 11
    FontColor #D8Bc00
    FontStyle bold
}


skinparam object {
		FontColor #C8Ac00
	BorderColor #333333
	BackgroundColor #333333-#333333
	StereotypeFontColor #484848
	BorderThickness 1
	AttributeFontColor #fefefe
	AttributeFontSize 11
}


skinparam usecase {
		FontColor #C8Ac00
	BorderColor #333333
	BackgroundColor #333333-#333333
	BorderThickness 2
	StereotypeFontColor #303030
}


skinparam rectangle {
		FontColor #C8Ac00
	BorderColor #333333
	BackgroundColor #333333-#333333
	BackgroundColor #333333
	BorderThickness 2
	StereotypeFontColor #303030
}


skinparam package {
		FontColor #C8Ac00
	BorderColor #333333
	BackgroundColor #333333-#333333
	BackgroundColor #333333
	BorderThickness 2
}


skinparam folder {
	BackgroundColor #6d6d6d
  	BorderColor #ff8000
	FontColor #ff8000
	BorderThickness 2
}


skinparam frame {
	BackgroundColor #6d6d6d
  	BorderColor #0060a8
	FontColor #0060a8
	BorderThickness 2
}


skinparam state {
		FontColor #C8Ac00
	BorderColor #333333
	BackgroundColor #333333-#333333
	StartColor #0060a8
	EndColor #0060a8
	AttributeFontColor #fefefe
	AttributeFontSize 11
}


skinparam queue {
		FontColor #C8Ac00
	BorderColor #333333
	BackgroundColor #333333-#333333
}


skinparam card {
	BackgroundColor #0060a8
	BorderColor #004d86
	FontColor $INFO_TEXT
}


skinparam file {
	BackgroundColor #6d6d6d-#484848
	BorderColor #0060a8
	FontColor #fefefe
}


skinparam stack {
		FontColor #C8Ac00
	BorderColor #333333
	BackgroundColor #333333-#333333
}

    
    title "org.apache.wicket.examples"
    
    HttpServlet <|- - HelloWorldServlet
    class HelloWorldServlet
    {
    }
    
    WebApplication <|- - WicketExampleApplication
    abstract class WicketExampleApplication
    {
    }
    
    Panel <|- - WicketExampleHeader
    class WicketExampleHeader
    {
        - -(constructors)- -
        +WicketExampleHeader(String)
    }
    
    WebPage <|- - WicketExamplePage
    WicketExamplePage - -> Panel : "creates"
    class WicketExamplePage
    {
        - -(constructors)- -
        +WicketExamplePage()
        +WicketExamplePage(IModel<?>)
        +WicketExamplePage(PageParameters)
        - -
        #void explain()
        #boolean showSourceButton()
        - -(building)- -
        #Panel buildHeader(String id)
    }
    
@enduml

PlantUML version 1.2021.01(Tue Feb 02 00:55:08 MST 2021)
(GPL source distribution)
Java Runtime: Java(TM) SE Runtime Environment
JVM: Java HotSpot(TM) 64-Bit Server VM
Default Encoding: UTF-8
Language: en
Country: US
--></g></svg>