<?xml version="1.0" encoding="UTF-8" standalone="no"?><svg xmlns="http://www.w3.org/2000/svg" xmlns:xlink="http://www.w3.org/1999/xlink" contentScriptType="application/ecmascript" contentStyleType="text/css" height="302.0833px" preserveAspectRatio="none" style="width:1383px;height:302px;background:#333333;" version="1.1" viewBox="0 0 1383 302" width="1383.3333px" zoomAndPan="magnify"><defs/><g><rect fill="#48494B" height="41.2028" rx="8.3333" ry="8.3333" style="stroke:#545454;stroke-width:1.0416666666666667;" width="494.7917" x="436.9792" y="2.0833"/><text fill="#C0C0C0" font-family="Open Sans,Avenir,Nunito,Arial,Helvetica,SansSerif" font-size="20.8333" lengthAdjust="spacing" textLength="471.875" x="448.4375" y="30.5583">org.apache.wicket.examples.ajax.builtin.modal</text><!--MD5=[8389d11c23920d0ab7b28af5b7904b5d]
class BasePage--><rect codeLine="6" fill="#282828" height="48.055" id="BasePage" rx="8.3333" ry="8.3333" style="stroke:#5E5E5E;stroke-width:1.0416666666666667;" width="97.9167" x="136.4583" y="53.7028"/><rect fill="#1B1B1A" height="31.3883" rx="8.3333" ry="8.3333" style="stroke:#1B1B1A;stroke-width:1.0416666666666667;" width="97.9167" x="136.4583" y="53.7028"/><rect fill="#1B1B1A" height="8.3333" style="stroke:#1B1B1A;stroke-width:1.0416666666666667;" width="97.9167" x="136.4583" y="76.7578"/><rect codeLine="6" fill="none" height="48.055" id="BasePage" rx="8.3333" ry="8.3333" style="stroke:#5E5E5E;stroke-width:1.0416666666666667;" width="97.9167" x="136.4583" y="53.7028"/><ellipse cx="151.0417" cy="69.397" fill="#C8AC00" rx="10.4167" ry="10.4167" style="stroke:#D8BC00;stroke-width:1.0416666666666667;"/><path d="M150.6348,66.099 L149.7864,69.8283 L151.4893,69.8283 Z M149.5361,64.4511 L151.7395,64.4511 L154.1992,73.5636 L152.3987,73.5636 L151.8372,71.3114 L149.4263,71.3114 L148.877,73.5636 L147.0764,73.5636 Z " fill="#000000"/><text fill="#D8BC00" font-family="Open Sans,Avenir,Nunito,Arial,Helvetica,SansSerif" font-size="12.5" font-style="italic" font-weight="bold" lengthAdjust="spacing" textLength="60.4167" x="167.7083" y="74.1211">BasePage</text><line style="stroke:#5E5E5E;stroke-width:1.0416666666666667;" x1="137.5" x2="233.3333" y1="85.0911" y2="85.0911"/><line style="stroke:#5E5E5E;stroke-width:1.0416666666666667;" x1="137.5" x2="233.3333" y1="93.4245" y2="93.4245"/><!--MD5=[2348928a02e2f2aa159b7171a1143fdb]
class WebPage--><rect fill="#282828" height="48.055" id="WebPage" rx="8.3333" ry="8.3333" style="stroke:#5E5E5E;stroke-width:1.0416666666666667;" width="94.7917" x="682.8125" y="53.7028"/><rect fill="#1B1B1A" height="31.3883" rx="8.3333" ry="8.3333" style="stroke:#1B1B1A;stroke-width:1.0416666666666667;" width="94.7917" x="682.8125" y="53.7028"/><rect fill="#1B1B1A" height="8.3333" style="stroke:#1B1B1A;stroke-width:1.0416666666666667;" width="94.7917" x="682.8125" y="76.7578"/><rect fill="none" height="48.055" id="WebPage" rx="8.3333" ry="8.3333" style="stroke:#5E5E5E;stroke-width:1.0416666666666667;" width="94.7917" x="682.8125" y="53.7028"/><ellipse cx="697.3958" cy="69.397" fill="#0066CF" rx="10.4167" ry="10.4167" style="stroke:#0086EF;stroke-width:1.0416666666666667;"/><path d="M699.3062,73.822 Q698.879,74.0417 698.409,74.1516 Q697.939,74.2615 697.4202,74.2615 Q695.577,74.2615 694.6065,73.0469 Q693.6361,71.8323 693.6361,69.5374 Q693.6361,67.2363 694.6065,66.0217 Q695.577,64.8071 697.4202,64.8071 Q697.939,64.8071 698.4151,64.917 Q698.8912,65.0269 699.3062,65.2466 L699.3062,67.2485 Q698.8424,66.8213 698.406,66.6229 Q697.9696,66.4246 697.5057,66.4246 Q696.5169,66.4246 696.0134,67.2089 Q695.5098,67.9932 695.5098,69.5374 Q695.5098,71.0754 696.0134,71.8597 Q696.5169,72.644 697.5057,72.644 Q697.9696,72.644 698.406,72.4457 Q698.8424,72.2473 699.3062,71.8201 Z " fill="#000000"/><text fill="#D8BC00" font-family="Open Sans,Avenir,Nunito,Arial,Helvetica,SansSerif" font-size="12.5" font-weight="bold" lengthAdjust="spacing" textLength="57.2917" x="714.0625" y="74.1211">WebPage</text><line style="stroke:#5E5E5E;stroke-width:1.0416666666666667;" x1="683.8542" x2="776.5625" y1="85.0911" y2="85.0911"/><line style="stroke:#5E5E5E;stroke-width:1.0416666666666667;" x1="683.8542" x2="776.5625" y1="93.4245" y2="93.4245"/><!--MD5=[8c6b37de829bb431bf047895e4ac8c3f]
class ModalContent1Page--><rect codeLine="9" fill="#282828" height="83.3781" id="ModalContent1Page" rx="8.3333" ry="8.3333" style="stroke:#5E5E5E;stroke-width:1.0416666666666667;" width="315.625" x="418.2292" y="188.0778"/><rect fill="#1B1B1A" height="31.3883" rx="8.3333" ry="8.3333" style="stroke:#1B1B1A;stroke-width:1.0416666666666667;" width="315.625" x="418.2292" y="188.0778"/><rect fill="#1B1B1A" height="8.3333" style="stroke:#1B1B1A;stroke-width:1.0416666666666667;" width="315.625" x="418.2292" y="211.1328"/><rect codeLine="9" fill="none" height="83.3781" id="ModalContent1Page" rx="8.3333" ry="8.3333" style="stroke:#5E5E5E;stroke-width:1.0416666666666667;" width="315.625" x="418.2292" y="188.0778"/><ellipse cx="503.6458" cy="203.772" fill="#0066CF" rx="10.4167" ry="10.4167" style="stroke:#0086EF;stroke-width:1.0416666666666667;"/><path d="M505.5562,208.197 Q505.129,208.4167 504.659,208.5266 Q504.189,208.6365 503.6702,208.6365 Q501.827,208.6365 500.8565,207.4219 Q499.8861,206.2073 499.8861,203.9124 Q499.8861,201.6113 500.8565,200.3967 Q501.827,199.1821 503.6702,199.1821 Q504.189,199.1821 504.6651,199.292 Q505.1412,199.4019 505.5562,199.6216 L505.5562,201.6235 Q505.0924,201.1963 504.656,200.9979 Q504.2196,200.7996 503.7557,200.7996 Q502.7669,200.7996 502.2634,201.5839 Q501.7598,202.3682 501.7598,203.9124 Q501.7598,205.4504 502.2634,206.2347 Q502.7669,207.019 503.7557,207.019 Q504.2196,207.019 504.656,206.8207 Q505.0924,206.6223 505.5562,206.1951 Z " fill="#000000"/><text fill="#D8BC00" font-family="Open Sans,Avenir,Nunito,Arial,Helvetica,SansSerif" font-size="12.5" font-weight="bold" lengthAdjust="spacing" textLength="130.2083" x="526.5625" y="208.4961">ModalContent1Page</text><line style="stroke:#5E5E5E;stroke-width:1.5625;" x1="419.2708" x2="732.8125" y1="219.4661" y2="219.4661"/><ellipse cx="429.6875" cy="254.836" fill="#84BE84" rx="3.125" ry="3.125" style="stroke:#038048;stroke-width:1.0416666666666667;"/><text fill="#D8BC00" font-family="Open Sans,Avenir,Nunito,Arial,Helvetica,SansSerif" font-size="11.4583" lengthAdjust="spacing" textLength="283.3333" x="441.1458" y="261.7472">ModalContent1Page(PageReference, ModalWindow)</text><line style="stroke:#5E5E5E;stroke-width:1.0416666666666667;" x1="419.2708" x2="532.2917" y1="237.6719" y2="237.6719"/><text fill="#D8BC00" font-family="Open Sans,Avenir,Nunito,Arial,Helvetica,SansSerif" font-size="11.4583" lengthAdjust="spacing" textLength="81.25" x="535.4167" y="241.4815">(constructors)</text><line style="stroke:#5E5E5E;stroke-width:1.0416666666666667;" x1="619.7917" x2="732.8125" y1="237.6719" y2="237.6719"/><!--MD5=[1dbdab4370355675c7e911fffb8827db]
class ModalContent2Page--><rect codeLine="16" fill="#282828" height="83.3781" id="ModalContent2Page" rx="8.3333" ry="8.3333" style="stroke:#5E5E5E;stroke-width:1.0416666666666667;" width="228.125" x="770.3125" y="188.0778"/><rect fill="#1B1B1A" height="31.3883" rx="8.3333" ry="8.3333" style="stroke:#1B1B1A;stroke-width:1.0416666666666667;" width="228.125" x="770.3125" y="188.0778"/><rect fill="#1B1B1A" height="8.3333" style="stroke:#1B1B1A;stroke-width:1.0416666666666667;" width="228.125" x="770.3125" y="211.1328"/><rect codeLine="16" fill="none" height="83.3781" id="ModalContent2Page" rx="8.3333" ry="8.3333" style="stroke:#5E5E5E;stroke-width:1.0416666666666667;" width="228.125" x="770.3125" y="188.0778"/><ellipse cx="812.0833" cy="203.772" fill="#0066CF" rx="10.4167" ry="10.4167" style="stroke:#0086EF;stroke-width:1.0416666666666667;"/><path d="M813.9937,208.197 Q813.5665,208.4167 813.0965,208.5266 Q812.6265,208.6365 812.1077,208.6365 Q810.2645,208.6365 809.294,207.4219 Q808.3236,206.2073 808.3236,203.9124 Q808.3236,201.6113 809.294,200.3967 Q810.2645,199.1821 812.1077,199.1821 Q812.6265,199.1821 813.1026,199.292 Q813.5787,199.4019 813.9937,199.6216 L813.9937,201.6235 Q813.5299,201.1963 813.0935,200.9979 Q812.6571,200.7996 812.1932,200.7996 Q811.2044,200.7996 810.7009,201.5839 Q810.1973,202.3682 810.1973,203.9124 Q810.1973,205.4504 810.7009,206.2347 Q811.2044,207.019 812.1932,207.019 Q812.6571,207.019 813.0935,206.8207 Q813.5299,206.6223 813.9937,206.1951 Z " fill="#000000"/><text fill="#D8BC00" font-family="Open Sans,Avenir,Nunito,Arial,Helvetica,SansSerif" font-size="12.5" font-weight="bold" lengthAdjust="spacing" textLength="130.2083" x="834.7917" y="208.4961">ModalContent2Page</text><line style="stroke:#5E5E5E;stroke-width:1.5625;" x1="771.3542" x2="997.3958" y1="219.4661" y2="219.4661"/><ellipse cx="781.7708" cy="254.836" fill="#84BE84" rx="3.125" ry="3.125" style="stroke:#038048;stroke-width:1.0416666666666667;"/><text fill="#D8BC00" font-family="Open Sans,Avenir,Nunito,Arial,Helvetica,SansSerif" font-size="11.4583" lengthAdjust="spacing" textLength="195.8333" x="793.2292" y="261.7472">ModalContent2Page(ModalWindow)</text><line style="stroke:#5E5E5E;stroke-width:1.0416666666666667;" x1="771.3542" x2="840.625" y1="237.6719" y2="237.6719"/><text fill="#D8BC00" font-family="Open Sans,Avenir,Nunito,Arial,Helvetica,SansSerif" font-size="11.4583" lengthAdjust="spacing" textLength="81.25" x="843.75" y="241.4815">(constructors)</text><line style="stroke:#5E5E5E;stroke-width:1.0416666666666667;" x1="928.125" x2="997.3958" y1="237.6719" y2="237.6719"/><!--MD5=[3bc2eaf3339871c0e3aafe7dd507bd27]
class ModalDialogPage--><rect codeLine="23" fill="#282828" height="83.3781" id="ModalDialogPage" rx="8.3333" ry="8.3333" style="stroke:#5E5E5E;stroke-width:1.0416666666666667;" width="150" x="7.2917" y="188.0778"/><rect fill="#1B1B1A" height="31.3883" rx="8.3333" ry="8.3333" style="stroke:#1B1B1A;stroke-width:1.0416666666666667;" width="150" x="7.2917" y="188.0778"/><rect fill="#1B1B1A" height="8.3333" style="stroke:#1B1B1A;stroke-width:1.0416666666666667;" width="150" x="7.2917" y="211.1328"/><rect codeLine="23" fill="none" height="83.3781" id="ModalDialogPage" rx="8.3333" ry="8.3333" style="stroke:#5E5E5E;stroke-width:1.0416666666666667;" width="150" x="7.2917" y="188.0778"/><ellipse cx="21.875" cy="203.772" fill="#0066CF" rx="10.4167" ry="10.4167" style="stroke:#0086EF;stroke-width:1.0416666666666667;"/><path d="M23.7854,208.197 Q23.3582,208.4167 22.8882,208.5266 Q22.4182,208.6365 21.8994,208.6365 Q20.0562,208.6365 19.0857,207.4219 Q18.1152,206.2073 18.1152,203.9124 Q18.1152,201.6113 19.0857,200.3967 Q20.0562,199.1821 21.8994,199.1821 Q22.4182,199.1821 22.8943,199.292 Q23.3704,199.4019 23.7854,199.6216 L23.7854,201.6235 Q23.3215,201.1963 22.8851,200.9979 Q22.4487,200.7996 21.9849,200.7996 Q20.9961,200.7996 20.4926,201.5839 Q19.989,202.3682 19.989,203.9124 Q19.989,205.4504 20.4926,206.2347 Q20.9961,207.019 21.9849,207.019 Q22.4487,207.019 22.8851,206.8207 Q23.3215,206.6223 23.7854,206.1951 Z " fill="#000000"/><text fill="#D8BC00" font-family="Open Sans,Avenir,Nunito,Arial,Helvetica,SansSerif" font-size="12.5" font-weight="bold" lengthAdjust="spacing" textLength="112.5" x="38.5417" y="208.4961">ModalDialogPage</text><line style="stroke:#5E5E5E;stroke-width:1.5625;" x1="8.3333" x2="156.25" y1="219.4661" y2="219.4661"/><ellipse cx="18.75" cy="254.836" fill="#84BE84" rx="3.125" ry="3.125" style="stroke:#038048;stroke-width:1.0416666666666667;"/><text fill="#D8BC00" font-family="Open Sans,Avenir,Nunito,Arial,Helvetica,SansSerif" font-size="11.4583" lengthAdjust="spacing" textLength="103.125" x="30.2083" y="261.7472">ModalDialogPage()</text><line style="stroke:#5E5E5E;stroke-width:1.0416666666666667;" x1="8.3333" x2="38.5417" y1="237.6719" y2="237.6719"/><text fill="#D8BC00" font-family="Open Sans,Avenir,Nunito,Arial,Helvetica,SansSerif" font-size="11.4583" lengthAdjust="spacing" textLength="81.25" x="41.6667" y="241.4815">(constructors)</text><line style="stroke:#5E5E5E;stroke-width:1.0416666666666667;" x1="126.0417" x2="156.25" y1="237.6719" y2="237.6719"/><!--MD5=[499a93d1a2128e7b640a788d1f7209bf]
class Fragment--><rect fill="#282828" height="48.055" id="Fragment" rx="8.3333" ry="8.3333" style="stroke:#5E5E5E;stroke-width:1.0416666666666667;" width="98.9583" x="1066.1458" y="53.7028"/><rect fill="#1B1B1A" height="31.3883" rx="8.3333" ry="8.3333" style="stroke:#1B1B1A;stroke-width:1.0416666666666667;" width="98.9583" x="1066.1458" y="53.7028"/><rect fill="#1B1B1A" height="8.3333" style="stroke:#1B1B1A;stroke-width:1.0416666666666667;" width="98.9583" x="1066.1458" y="76.7578"/><rect fill="none" height="48.055" id="Fragment" rx="8.3333" ry="8.3333" style="stroke:#5E5E5E;stroke-width:1.0416666666666667;" width="98.9583" x="1066.1458" y="53.7028"/><ellipse cx="1080.7292" cy="69.397" fill="#0066CF" rx="10.4167" ry="10.4167" style="stroke:#0086EF;stroke-width:1.0416666666666667;"/><path d="M1082.6396,73.822 Q1082.2123,74.0417 1081.7424,74.1516 Q1081.2724,74.2615 1080.7536,74.2615 Q1078.9103,74.2615 1077.9399,73.0469 Q1076.9694,71.8323 1076.9694,69.5374 Q1076.9694,67.2363 1077.9399,66.0217 Q1078.9103,64.8071 1080.7536,64.8071 Q1081.2724,64.8071 1081.7485,64.917 Q1082.2245,65.0269 1082.6396,65.2466 L1082.6396,67.2485 Q1082.1757,66.8213 1081.7393,66.6229 Q1081.3029,66.4246 1080.839,66.4246 Q1079.8503,66.4246 1079.3467,67.2089 Q1078.8432,67.9932 1078.8432,69.5374 Q1078.8432,71.0754 1079.3467,71.8597 Q1079.8503,72.644 1080.839,72.644 Q1081.3029,72.644 1081.7393,72.4457 Q1082.1757,72.2473 1082.6396,71.8201 Z " fill="#000000"/><text fill="#D8BC00" font-family="Open Sans,Avenir,Nunito,Arial,Helvetica,SansSerif" font-size="12.5" font-weight="bold" lengthAdjust="spacing" textLength="61.4583" x="1097.3958" y="74.1211">Fragment</text><line style="stroke:#5E5E5E;stroke-width:1.0416666666666667;" x1="1067.1875" x2="1164.0625" y1="85.0911" y2="85.0911"/><line style="stroke:#5E5E5E;stroke-width:1.0416666666666667;" x1="1067.1875" x2="1164.0625" y1="93.4245" y2="93.4245"/><!--MD5=[5ca30909576bfbd27c687a5dc32b022b]
class ModalDialogPage.ModalFragment--><rect codeLine="30" fill="#282828" height="83.3781" id="ModalDialogPage.ModalFragment" rx="8.3333" ry="8.3333" style="stroke:#5E5E5E;stroke-width:1.0416666666666667;" width="160.4167" x="1035.4167" y="188.0778"/><rect fill="#1B1B1A" height="31.3883" rx="8.3333" ry="8.3333" style="stroke:#1B1B1A;stroke-width:1.0416666666666667;" width="160.4167" x="1035.4167" y="188.0778"/><rect fill="#1B1B1A" height="8.3333" style="stroke:#1B1B1A;stroke-width:1.0416666666666667;" width="160.4167" x="1035.4167" y="211.1328"/><rect codeLine="30" fill="none" height="83.3781" id="ModalDialogPage.ModalFragment" rx="8.3333" ry="8.3333" style="stroke:#5E5E5E;stroke-width:1.0416666666666667;" width="160.4167" x="1035.4167" y="188.0778"/><ellipse cx="1059.8438" cy="203.772" fill="#0066CF" rx="10.4167" ry="10.4167" style="stroke:#0086EF;stroke-width:1.0416666666666667;"/><path d="M1061.7542,208.197 Q1061.3269,208.4167 1060.8569,208.5266 Q1060.387,208.6365 1059.8682,208.6365 Q1058.0249,208.6365 1057.0544,207.4219 Q1056.084,206.2073 1056.084,203.9124 Q1056.084,201.6113 1057.0544,200.3967 Q1058.0249,199.1821 1059.8682,199.1821 Q1060.387,199.1821 1060.863,199.292 Q1061.3391,199.4019 1061.7542,199.6216 L1061.7542,201.6235 Q1061.2903,201.1963 1060.8539,200.9979 Q1060.4175,200.7996 1059.9536,200.7996 Q1058.9648,200.7996 1058.4613,201.5839 Q1057.9578,202.3682 1057.9578,203.9124 Q1057.9578,205.4504 1058.4613,206.2347 Q1058.9648,207.019 1059.9536,207.019 Q1060.4175,207.019 1060.8539,206.8207 Q1061.2903,206.6223 1061.7542,206.1951 Z " fill="#000000"/><text fill="#D8BC00" font-family="Open Sans,Avenir,Nunito,Arial,Helvetica,SansSerif" font-size="12.5" font-weight="bold" lengthAdjust="spacing" textLength="101.0417" x="1078.6979" y="208.4961">ModalFragment</text><line style="stroke:#5E5E5E;stroke-width:1.5625;" x1="1036.4583" x2="1194.7917" y1="219.4661" y2="219.4661"/><ellipse cx="1046.875" cy="254.836" fill="#84BE84" rx="3.125" ry="3.125" style="stroke:#038048;stroke-width:1.0416666666666667;"/><text fill="#D8BC00" font-family="Open Sans,Avenir,Nunito,Arial,Helvetica,SansSerif" font-size="11.4583" lengthAdjust="spacing" textLength="128.125" x="1058.3333" y="261.7472">ModalFragment(String)</text><line style="stroke:#5E5E5E;stroke-width:1.0416666666666667;" x1="1036.4583" x2="1071.875" y1="237.6719" y2="237.6719"/><text fill="#D8BC00" font-family="Open Sans,Avenir,Nunito,Arial,Helvetica,SansSerif" font-size="11.4583" lengthAdjust="spacing" textLength="81.25" x="1075" y="241.4815">(constructors)</text><line style="stroke:#5E5E5E;stroke-width:1.0416666666666667;" x1="1159.375" x2="1194.7917" y1="237.6719" y2="237.6719"/><!--MD5=[0174392a0c212c3b3e97bee69152624c]
class Panel--><rect fill="#282828" height="48.055" id="Panel" rx="8.3333" ry="8.3333" style="stroke:#5E5E5E;stroke-width:1.0416666666666667;" width="71.875" x="1268.2292" y="53.7028"/><rect fill="#1B1B1A" height="31.3883" rx="8.3333" ry="8.3333" style="stroke:#1B1B1A;stroke-width:1.0416666666666667;" width="71.875" x="1268.2292" y="53.7028"/><rect fill="#1B1B1A" height="8.3333" style="stroke:#1B1B1A;stroke-width:1.0416666666666667;" width="71.875" x="1268.2292" y="76.7578"/><rect fill="none" height="48.055" id="Panel" rx="8.3333" ry="8.3333" style="stroke:#5E5E5E;stroke-width:1.0416666666666667;" width="71.875" x="1268.2292" y="53.7028"/><ellipse cx="1282.8125" cy="69.397" fill="#0066CF" rx="10.4167" ry="10.4167" style="stroke:#0086EF;stroke-width:1.0416666666666667;"/><path d="M1284.7229,73.822 Q1284.2957,74.0417 1283.8257,74.1516 Q1283.3557,74.2615 1282.8369,74.2615 Q1280.9937,74.2615 1280.0232,73.0469 Q1279.0527,71.8323 1279.0527,69.5374 Q1279.0527,67.2363 1280.0232,66.0217 Q1280.9937,64.8071 1282.8369,64.8071 Q1283.3557,64.8071 1283.8318,64.917 Q1284.3079,65.0269 1284.7229,65.2466 L1284.7229,67.2485 Q1284.259,66.8213 1283.8226,66.6229 Q1283.3862,66.4246 1282.9224,66.4246 Q1281.9336,66.4246 1281.4301,67.2089 Q1280.9265,67.9932 1280.9265,69.5374 Q1280.9265,71.0754 1281.4301,71.8597 Q1281.9336,72.644 1282.9224,72.644 Q1283.3862,72.644 1283.8226,72.4457 Q1284.259,72.2473 1284.7229,71.8201 Z " fill="#000000"/><text fill="#D8BC00" font-family="Open Sans,Avenir,Nunito,Arial,Helvetica,SansSerif" font-size="12.5" font-weight="bold" lengthAdjust="spacing" textLength="34.375" x="1299.4792" y="74.1211">Panel</text><line style="stroke:#5E5E5E;stroke-width:1.0416666666666667;" x1="1269.2708" x2="1339.0625" y1="85.0911" y2="85.0911"/><line style="stroke:#5E5E5E;stroke-width:1.0416666666666667;" x1="1269.2708" x2="1339.0625" y1="93.4245" y2="93.4245"/><!--MD5=[6870f1a2b49987d19c789b042244f996]
class ModalPanel1--><rect codeLine="37" fill="#282828" height="83.3781" id="ModalPanel1" rx="8.3333" ry="8.3333" style="stroke:#5E5E5E;stroke-width:1.0416666666666667;" width="143.75" x="1232.2917" y="188.0778"/><rect fill="#1B1B1A" height="31.3883" rx="8.3333" ry="8.3333" style="stroke:#1B1B1A;stroke-width:1.0416666666666667;" width="143.75" x="1232.2917" y="188.0778"/><rect fill="#1B1B1A" height="8.3333" style="stroke:#1B1B1A;stroke-width:1.0416666666666667;" width="143.75" x="1232.2917" y="211.1328"/><rect codeLine="37" fill="none" height="83.3781" id="ModalPanel1" rx="8.3333" ry="8.3333" style="stroke:#5E5E5E;stroke-width:1.0416666666666667;" width="143.75" x="1232.2917" y="188.0778"/><ellipse cx="1257.6563" cy="203.772" fill="#0066CF" rx="10.4167" ry="10.4167" style="stroke:#0086EF;stroke-width:1.0416666666666667;"/><path d="M1259.5667,208.197 Q1259.1394,208.4167 1258.6694,208.5266 Q1258.1995,208.6365 1257.6807,208.6365 Q1255.8374,208.6365 1254.8669,207.4219 Q1253.8965,206.2073 1253.8965,203.9124 Q1253.8965,201.6113 1254.8669,200.3967 Q1255.8374,199.1821 1257.6807,199.1821 Q1258.1995,199.1821 1258.6755,199.292 Q1259.1516,199.4019 1259.5667,199.6216 L1259.5667,201.6235 Q1259.1028,201.1963 1258.6664,200.9979 Q1258.23,200.7996 1257.7661,200.7996 Q1256.7773,200.7996 1256.2738,201.5839 Q1255.7703,202.3682 1255.7703,203.9124 Q1255.7703,205.4504 1256.2738,206.2347 Q1256.7773,207.019 1257.7661,207.019 Q1258.23,207.019 1258.6664,206.8207 Q1259.1028,206.6223 1259.5667,206.1951 Z " fill="#000000"/><text fill="#D8BC00" font-family="Open Sans,Avenir,Nunito,Arial,Helvetica,SansSerif" font-size="12.5" font-weight="bold" lengthAdjust="spacing" textLength="82.2917" x="1276.7188" y="208.4961">ModalPanel1</text><line style="stroke:#5E5E5E;stroke-width:1.5625;" x1="1233.3333" x2="1375" y1="219.4661" y2="219.4661"/><ellipse cx="1243.75" cy="254.836" fill="#84BE84" rx="3.125" ry="3.125" style="stroke:#038048;stroke-width:1.0416666666666667;"/><text fill="#D8BC00" font-family="Open Sans,Avenir,Nunito,Arial,Helvetica,SansSerif" font-size="11.4583" lengthAdjust="spacing" textLength="111.4583" x="1255.2083" y="261.7472">ModalPanel1(String)</text><line style="stroke:#5E5E5E;stroke-width:1.0416666666666667;" x1="1233.3333" x2="1260.4167" y1="237.6719" y2="237.6719"/><text fill="#D8BC00" font-family="Open Sans,Avenir,Nunito,Arial,Helvetica,SansSerif" font-size="11.4583" lengthAdjust="spacing" textLength="81.25" x="1263.5417" y="241.4815">(constructors)</text><line style="stroke:#5E5E5E;stroke-width:1.0416666666666667;" x1="1347.9167" x2="1375" y1="237.6719" y2="237.6719"/><!--MD5=[29bd2e6592bde17f0d067d3e843dbda6]
class ModalWindowPage--><rect codeLine="44" fill="#282828" height="131.2012" id="ModalWindowPage" rx="8.3333" ry="8.3333" style="stroke:#5E5E5E;stroke-width:1.0416666666666667;" width="187.5" x="193.75" y="164.1195"/><rect fill="#1B1B1A" height="31.3883" rx="8.3333" ry="8.3333" style="stroke:#1B1B1A;stroke-width:1.0416666666666667;" width="187.5" x="193.75" y="164.1195"/><rect fill="#1B1B1A" height="8.3333" style="stroke:#1B1B1A;stroke-width:1.0416666666666667;" width="187.5" x="193.75" y="187.1745"/><rect codeLine="44" fill="none" height="131.2012" id="ModalWindowPage" rx="8.3333" ry="8.3333" style="stroke:#5E5E5E;stroke-width:1.0416666666666667;" width="187.5" x="193.75" y="164.1195"/><ellipse cx="221.4583" cy="179.8136" fill="#0066CF" rx="10.4167" ry="10.4167" style="stroke:#0086EF;stroke-width:1.0416666666666667;"/><path d="M223.3687,184.2387 Q222.9415,184.4584 222.4715,184.5683 Q222.0015,184.6781 221.4827,184.6781 Q219.6395,184.6781 218.669,183.4635 Q217.6986,182.2489 217.6986,179.954 Q217.6986,177.653 218.669,176.4384 Q219.6395,175.2238 221.4827,175.2238 Q222.0015,175.2238 222.4776,175.3337 Q222.9537,175.4435 223.3687,175.6632 L223.3687,177.6652 Q222.9049,177.238 222.4685,177.0396 Q222.0321,176.8412 221.5682,176.8412 Q220.5794,176.8412 220.0759,177.6255 Q219.5723,178.4098 219.5723,179.954 Q219.5723,181.4921 220.0759,182.2764 Q220.5794,183.0607 221.5682,183.0607 Q222.0321,183.0607 222.4685,182.8623 Q222.9049,182.664 223.3687,182.2367 Z " fill="#000000"/><text fill="#D8BC00" font-family="Open Sans,Avenir,Nunito,Arial,Helvetica,SansSerif" font-size="12.5" font-weight="bold" lengthAdjust="spacing" textLength="120.8333" x="241.0417" y="184.5378">ModalWindowPage</text><line style="stroke:#5E5E5E;stroke-width:1.5625;" x1="194.7917" x2="380.2083" y1="195.5078" y2="195.5078"/><ellipse cx="205.2083" cy="230.8777" fill="#84BE84" rx="3.125" ry="3.125" style="stroke:#038048;stroke-width:1.0416666666666667;"/><text fill="#D8BC00" font-family="Open Sans,Avenir,Nunito,Arial,Helvetica,SansSerif" font-size="11.4583" lengthAdjust="spacing" textLength="110.4167" x="216.6667" y="237.7889">ModalWindowPage()</text><line style="stroke:#5E5E5E;stroke-width:1.0416666666666667;" x1="194.7917" x2="243.75" y1="213.7136" y2="213.7136"/><text fill="#D8BC00" font-family="Open Sans,Avenir,Nunito,Arial,Helvetica,SansSerif" font-size="11.4583" lengthAdjust="spacing" textLength="81.25" x="246.875" y="217.5232">(constructors)</text><line style="stroke:#5E5E5E;stroke-width:1.0416666666666667;" x1="331.25" x2="380.2083" y1="213.7136" y2="213.7136"/><line style="stroke:#5E5E5E;stroke-width:1.0416666666666667;" x1="194.7917" x2="380.2083" y1="247.4976" y2="247.4976"/><ellipse cx="205.2083" cy="258.9559" fill="#84BE84" rx="3.125" ry="3.125" style="stroke:#038048;stroke-width:1.0416666666666667;"/><text fill="#D8BC00" font-family="Open Sans,Avenir,Nunito,Arial,Helvetica,SansSerif" font-size="11.4583" lengthAdjust="spacing" textLength="96.875" x="216.6667" y="265.8671">String getResult()</text><ellipse cx="205.2083" cy="278.7008" fill="#84BE84" rx="3.125" ry="3.125" style="stroke:#038048;stroke-width:1.0416666666666667;"/><text fill="#D8BC00" font-family="Open Sans,Avenir,Nunito,Arial,Helvetica,SansSerif" font-size="11.4583" lengthAdjust="spacing" textLength="155.2083" x="216.6667" y="285.612">void setResult(String result)</text><!--MD5=[dd3692de3e9e95302004114b88ad6c05]
reverse link WebPage to ModalContent1Page--><path codeLine="8" d="M691.3125,116.5465 C668.9063,138.3486 640.7292,165.7653 617.8438,188.0257 " fill="none" id="WebPage-backto-ModalContent1Page" style="stroke:#545454;stroke-width:1.5625;"/><polygon fill="none" points="686.4375,111.109,706.4583,101.807,696.6146,121.5674,686.4375,111.109" style="stroke:#545454;stroke-width:1.5625;"/><!--MD5=[a847b0cedae220dd237765314450880b]
reverse link WebPage to ModalContent2Page--><path codeLine="15" d="M769.1042,116.5465 C791.5104,138.3486 819.6875,165.7653 842.5729,188.0257 " fill="none" id="WebPage-backto-ModalContent2Page" style="stroke:#545454;stroke-width:1.5625;"/><polygon fill="none" points="763.8021,121.5674,753.9583,101.807,773.9792,111.109,763.8021,121.5674" style="stroke:#545454;stroke-width:1.5625;"/><!--MD5=[f0da2cba2ef679caf640c95bdfe0f808]
reverse link BasePage to ModalDialogPage--><path codeLine="22" d="M157.6354,119.109 C142.9479,140.4736 124.9688,166.6299 110.25,188.0257 " fill="none" id="BasePage-backto-ModalDialogPage" style="stroke:#545454;stroke-width:1.5625;"/><polygon fill="none" points="151.7188,114.8486,169.5313,101.807,163.7396,123.109,151.7188,114.8486" style="stroke:#545454;stroke-width:1.5625;"/><!--MD5=[344918a7ba898b71b90b6739e89425ad]
reverse link Fragment to ModalDialogPage.ModalFragment--><path codeLine="29" d="M1115.625,122.7132 C1115.625,143.359 1115.625,167.8174 1115.625,188.0257 " fill="none" id="Fragment-backto-ModalDialogPage.ModalFragment" style="stroke:#545454;stroke-width:1.5625;"/><polygon fill="none" points="1108.3333,122.6403,1115.625,101.807,1122.9167,122.6403,1108.3333,122.6403" style="stroke:#545454;stroke-width:1.5625;"/><!--MD5=[b7e4df911bb8d26df6afd5b91d91f24f]
reverse link Panel to ModalPanel1--><path codeLine="36" d="M1304.1667,122.7132 C1304.1667,143.359 1304.1667,167.8174 1304.1667,188.0257 " fill="none" id="Panel-backto-ModalPanel1" style="stroke:#545454;stroke-width:1.5625;"/><polygon fill="none" points="1296.875,122.6403,1304.1667,101.807,1311.4583,122.6403,1296.875,122.6403" style="stroke:#545454;stroke-width:1.5625;"/><!--MD5=[e85d6164b014f49ebd26e6465abd1568]
reverse link BasePage to ModalWindowPage--><path codeLine="43" d="M212.9583,119.182 C222.3646,132.9945 233.1354,148.8278 243.5104,164.0674 " fill="none" id="BasePage-backto-ModalWindowPage" style="stroke:#545454;stroke-width:1.5625;"/><polygon fill="none" points="206.8333,123.1403,201.1458,101.807,218.8958,114.932,206.8333,123.1403" style="stroke:#545454;stroke-width:1.5625;"/><!--MD5=[5f51e98ff7ec6893a906bad8d5c0a031]
@startuml

    !include lexakai.theme
    
    title "org.apache.wicket.examples.ajax.builtin.modal"
    
    abstract BasePage
    
    WebPage <|- - ModalContent1Page
    class ModalContent1Page
    {
        - -(constructors)- -
        +ModalContent1Page(PageReference, ModalWindow)
    }
    
    WebPage <|- - ModalContent2Page
    class ModalContent2Page
    {
        - -(constructors)- -
        +ModalContent2Page(ModalWindow)
    }
    
    BasePage <|- - ModalDialogPage
    class ModalDialogPage
    {
        - -(constructors)- -
        +ModalDialogPage()
    }
    
    Fragment <|- - ModalDialogPage.ModalFragment
    class ModalDialogPage.ModalFragment
    {
        - -(constructors)- -
        +ModalFragment(String)
    }
    
    Panel <|- - ModalPanel1
    class ModalPanel1
    {
        - -(constructors)- -
        +ModalPanel1(String)
    }
    
    BasePage <|- - ModalWindowPage
    class ModalWindowPage
    {
        - -(constructors)- -
        +ModalWindowPage()
        - -
        +String getResult()
        +void setResult(String result)
    }
    
@enduml

@startuml









skinparam backgroundColor #333333






skinparam  {
    defaultFontName   "Open Sans,Avenir,Nunito,Arial,Helvetica,SansSerif"
    defaultFontSize   12
    defaultTextAlignment left
    shadowing false
    RoundCorner 10
    TitleFontSize 18
}

skinparam defaultFontName       "Open Sans,Avenir,Nunito,Arial,Helvetica,SansSerif"
skinparam defaultFontSize       12
skinparam dpi                   100
skinparam shadowing             false
skinparam roundcorner           16
skinparam ParticipantPadding    40
skinparam BoxPadding            40
skinparam Padding               3
skinparam ArrowColor            #545454
skinparam stereotype {
    CBackgroundColor #0066cf
    CBorderColor #0086ef
    ABackgroundColor #C8Ac00
    ABorderColor #D8Bc00
    IBackgroundColor #008400
    IBorderColor #239c23
    EBackgroundColor #cf6300
    EBorderColor #ef8300
    NBackgroundColor #3380b9
    NBorderColor #004d86
}
skinparam title {
	FontColor	                 #c0c0c0
 	BorderColor                  #545454
	FontSize	    	         20
	BorderRoundCorner            16
	BorderThickness 	         1
	BackgroundColor              #48494b
}


skinparam legend {
	BackgroundColor #303030
	BorderColor #404040
	FontColor #a0a0a0
}

	skinparam swimlane {
	BorderColor #5e5e5e
	BorderThickness 2
	TitleBackgroundColor  #6d6d6d-#484848
	TitleFontColor #303030
}

skinparam activity {
		FontColor #C8Ac00
	BorderColor #333333
	BackgroundColor #333333-#333333
	BarColor #00FF00
	StartColor #0060a8
	EndColor #0060a8
	DiamondBackgroundColor #6d6d6d-#3a3a3a
  	DiamondBorderColor #3a3a3a
  	DiamondFontColor #fefefe
}


skinparam participant {
		FontColor #C8Ac00
	BorderColor #333333
	BackgroundColor #333333-#333333
	ParticipantBorderThickness 2
}


skinparam actor {
		FontColor #C8Ac00
	BorderColor #333333
	BackgroundColor #333333-#333333
}


skinparam arrow {
	Thickness 1.5
	Color #545454
	FontColor #a0a0a0
    FontStyle bold
    MessageAlignment center
}



skinparam sequence {
	BorderColor #303030
	TitleFontColor #303030
	BackgroundColor #333333
	StartColor #303030
	EndColor #303030
	BoxBackgroundColor #333333
	BoxBorderColor #484848
	BoxFontColor #484848
	LifeLineBorderColor #484848
	LifeLineBorderThickness 2
	LifeLineBackgroundColor #3a3a3a
	GroupBorderColor #484848
	GroupFontColor #484848
	GroupHeaderFontColor #0060a8
	GroupBackgroundColor #484848
	GroupHeaderBackgroundColor #333333
	DividerBackgroundColor #484848
    DividerBorderColor #484848
    DividerBorderThickness 2
    DividerFontColor #D8Bc00
	ReferenceBackgroundColor #333333
	ReferenceBorderColor #484848
	ReferenceFontColor #fefefe
	ReferenceHeaderBackgroundColor #484848
}


skinparam partition {
	BorderColor #303030
	FontColor #333333
	BackgroundColor #333333
}


skinparam collections {
		FontColor #C8Ac00
	BorderColor #333333
	BackgroundColor #333333-#333333
}


skinparam control {
		FontColor #C8Ac00
	BorderColor #333333
	BackgroundColor #333333-#333333
}


skinparam entity {
		FontColor #C8Ac00
	BorderColor #333333
	BackgroundColor #333333-#333333
}


skinparam boundary {
		FontColor #C8Ac00
	BorderColor #333333
	BackgroundColor #333333-#333333
}


skinparam agent {
	BackgroundColor #ff8000
	BorderColor #ff9933
	FontColor #484848
}


skinparam note {
	BorderThickness 1
	BackgroundColor #1b1b1a
	BorderColor #5e5e5e
	FontSize 11
	FontColor #a0a0a0
}


skinparam artifact {
	BorderThickness 10
	BorderColor #5e5e5e
	BackgroundColor #1b1b1a
	FontColor #D8Bc00
}


skinparam component {
		FontColor #C8Ac00
	BorderColor #333333
	BackgroundColor #333333-#333333
}


skinparam interface {
	BackgroundColor  #008400
	BorderColor  #007F00
	FontColor #484848
}


skinparam storage {
	BackgroundColor #ff8000
  	BorderColor #cc6600
	FontColor #222222
}


skinparam node {
	BackgroundColor #333333
	BorderColor #333333
	FontColor #C8Ac00
}


skinparam cloud {
	BackgroundColor #484848-black
	BorderColor #484848
	FontColor #D8Bc00
}


skinparam database {
		FontColor #C8Ac00
	BorderColor #333333
	BackgroundColor #333333-#333333
	BackgroundColor  #333333
}


skinparam class {
		FontColor #C8Ac00
	BorderColor #333333
	BackgroundColor #333333-#333333
	HeaderBackgroundColor #1b1b1a
    BackgroundColor #282828
    BorderColor #5e5e5e
 	StereotypeFontColor #a0a0a0
    StereotypeFontStyle bold
	BorderThickness 1
	AttributeFontColor #D8Bc00
	AttributeFontSize 11
    FontColor #D8Bc00
    FontStyle bold
}


skinparam object {
		FontColor #C8Ac00
	BorderColor #333333
	BackgroundColor #333333-#333333
	StereotypeFontColor #484848
	BorderThickness 1
	AttributeFontColor #fefefe
	AttributeFontSize 11
}


skinparam usecase {
		FontColor #C8Ac00
	BorderColor #333333
	BackgroundColor #333333-#333333
	BorderThickness 2
	StereotypeFontColor #303030
}


skinparam rectangle {
		FontColor #C8Ac00
	BorderColor #333333
	BackgroundColor #333333-#333333
	BackgroundColor #333333
	BorderThickness 2
	StereotypeFontColor #303030
}


skinparam package {
		FontColor #C8Ac00
	BorderColor #333333
	BackgroundColor #333333-#333333
	BackgroundColor #333333
	BorderThickness 2
}


skinparam folder {
	BackgroundColor #6d6d6d
  	BorderColor #ff8000
	FontColor #ff8000
	BorderThickness 2
}


skinparam frame {
	BackgroundColor #6d6d6d
  	BorderColor #0060a8
	FontColor #0060a8
	BorderThickness 2
}


skinparam state {
		FontColor #C8Ac00
	BorderColor #333333
	BackgroundColor #333333-#333333
	StartColor #0060a8
	EndColor #0060a8
	AttributeFontColor #fefefe
	AttributeFontSize 11
}


skinparam queue {
		FontColor #C8Ac00
	BorderColor #333333
	BackgroundColor #333333-#333333
}


skinparam card {
	BackgroundColor #0060a8
	BorderColor #004d86
	FontColor $INFO_TEXT
}


skinparam file {
	BackgroundColor #6d6d6d-#484848
	BorderColor #0060a8
	FontColor #fefefe
}


skinparam stack {
		FontColor #C8Ac00
	BorderColor #333333
	BackgroundColor #333333-#333333
}

    
    title "org.apache.wicket.examples.ajax.builtin.modal"
    
    abstract BasePage
    
    WebPage <|- - ModalContent1Page
    class ModalContent1Page
    {
        - -(constructors)- -
        +ModalContent1Page(PageReference, ModalWindow)
    }
    
    WebPage <|- - ModalContent2Page
    class ModalContent2Page
    {
        - -(constructors)- -
        +ModalContent2Page(ModalWindow)
    }
    
    BasePage <|- - ModalDialogPage
    class ModalDialogPage
    {
        - -(constructors)- -
        +ModalDialogPage()
    }
    
    Fragment <|- - ModalDialogPage.ModalFragment
    class ModalDialogPage.ModalFragment
    {
        - -(constructors)- -
        +ModalFragment(String)
    }
    
    Panel <|- - ModalPanel1
    class ModalPanel1
    {
        - -(constructors)- -
        +ModalPanel1(String)
    }
    
    BasePage <|- - ModalWindowPage
    class ModalWindowPage
    {
        - -(constructors)- -
        +ModalWindowPage()
        - -
        +String getResult()
        +void setResult(String result)
    }
    
@enduml

PlantUML version 1.2021.01(Tue Feb 02 00:55:08 MST 2021)
(GPL source distribution)
Java Runtime: Java(TM) SE Runtime Environment
JVM: Java HotSpot(TM) 64-Bit Server VM
Default Encoding: UTF-8
Language: en
Country: US
--></g></svg>