<?xml version="1.0" encoding="UTF-8" standalone="no"?><svg xmlns="http://www.w3.org/2000/svg" xmlns:xlink="http://www.w3.org/1999/xlink" contentScriptType="application/ecmascript" contentStyleType="text/css" height="254.1667px" preserveAspectRatio="none" style="width:1643px;height:254px;background:#333333;" version="1.1" viewBox="0 0 1643 254" width="1643.75px" zoomAndPan="magnify"><defs/><g><rect fill="#48494B" height="41.2028" rx="8.3333" ry="8.3333" style="stroke:#545454;stroke-width:1.0416666666666667;" width="545.8333" x="541.6667" y="2.0833"/><text fill="#C0C0C0" font-family="Open Sans,Avenir,Nunito,Arial,Helvetica,SansSerif" font-size="20.8333" lengthAdjust="spacing" textLength="522.9167" x="553.125" y="30.5583">org.apache.wicket.examples.customresourceloading</text><!--MD5=[f973f7b27350cd955382ad4bc56ce033]
class IMarkupCacheKeyProvider--><rect codeLine="6" fill="#282828" height="48.055" id="IMarkupCacheKeyProvider" rx="8.3333" ry="8.3333" style="stroke:#5E5E5E;stroke-width:1.0416666666666667;" width="206.25" x="7.2917" y="53.7028"/><rect fill="#1B1B1A" height="31.3883" rx="8.3333" ry="8.3333" style="stroke:#1B1B1A;stroke-width:1.0416666666666667;" width="206.25" x="7.2917" y="53.7028"/><rect fill="#1B1B1A" height="8.3333" style="stroke:#1B1B1A;stroke-width:1.0416666666666667;" width="206.25" x="7.2917" y="76.7578"/><rect codeLine="6" fill="none" height="48.055" id="IMarkupCacheKeyProvider" rx="8.3333" ry="8.3333" style="stroke:#5E5E5E;stroke-width:1.0416666666666667;" width="206.25" x="7.2917" y="53.7028"/><ellipse cx="21.875" cy="69.397" fill="#008400" rx="10.4167" ry="10.4167" style="stroke:#239C23;stroke-width:1.0416666666666667;"/><path d="M19.279,66.5588 L19.279,64.9719 L24.705,64.9719 L24.705,66.5588 L22.8923,66.5588 L22.8923,72.4976 L24.705,72.4976 L24.705,74.0845 L19.279,74.0845 L19.279,72.4976 L21.0917,72.4976 L21.0917,66.5588 Z " fill="#000000"/><text fill="#D8BC00" font-family="Open Sans,Avenir,Nunito,Arial,Helvetica,SansSerif" font-size="12.5" font-style="italic" font-weight="bold" lengthAdjust="spacing" textLength="168.75" x="38.5417" y="74.1211">IMarkupCacheKeyProvider</text><line style="stroke:#5E5E5E;stroke-width:1.0416666666666667;" x1="8.3333" x2="212.5" y1="85.0911" y2="85.0911"/><line style="stroke:#5E5E5E;stroke-width:1.0416666666666667;" x1="8.3333" x2="212.5" y1="93.4245" y2="93.4245"/><!--MD5=[eb1a1792aefc92e334cbe2d1654e446a]
class IMarkupResourceStreamProvider--><rect codeLine="7" fill="#282828" height="48.055" id="IMarkupResourceStreamProvider" rx="8.3333" ry="8.3333" style="stroke:#5E5E5E;stroke-width:1.0416666666666667;" width="246.875" x="250.5208" y="53.7028"/><rect fill="#1B1B1A" height="31.3883" rx="8.3333" ry="8.3333" style="stroke:#1B1B1A;stroke-width:1.0416666666666667;" width="246.875" x="250.5208" y="53.7028"/><rect fill="#1B1B1A" height="8.3333" style="stroke:#1B1B1A;stroke-width:1.0416666666666667;" width="246.875" x="250.5208" y="76.7578"/><rect codeLine="7" fill="none" height="48.055" id="IMarkupResourceStreamProvider" rx="8.3333" ry="8.3333" style="stroke:#5E5E5E;stroke-width:1.0416666666666667;" width="246.875" x="250.5208" y="53.7028"/><ellipse cx="265.1042" cy="69.397" fill="#008400" rx="10.4167" ry="10.4167" style="stroke:#239C23;stroke-width:1.0416666666666667;"/><path d="M262.5081,66.5588 L262.5081,64.9719 L267.9342,64.9719 L267.9342,66.5588 L266.1214,66.5588 L266.1214,72.4976 L267.9342,72.4976 L267.9342,74.0845 L262.5081,74.0845 L262.5081,72.4976 L264.3209,72.4976 L264.3209,66.5588 Z " fill="#000000"/><text fill="#D8BC00" font-family="Open Sans,Avenir,Nunito,Arial,Helvetica,SansSerif" font-size="12.5" font-style="italic" font-weight="bold" lengthAdjust="spacing" textLength="209.375" x="281.7708" y="74.1211">IMarkupResourceStreamProvider</text><line style="stroke:#5E5E5E;stroke-width:1.0416666666666667;" x1="251.5625" x2="496.3542" y1="85.0911" y2="85.0911"/><line style="stroke:#5E5E5E;stroke-width:1.0416666666666667;" x1="251.5625" x2="496.3542" y1="93.4245" y2="93.4245"/><!--MD5=[8de0e4c819f220f8e0c4c4df41ba59ce]
class WicketExamplePage--><rect fill="#282828" height="48.055" id="WicketExamplePage" rx="8.3333" ry="8.3333" style="stroke:#5E5E5E;stroke-width:1.0416666666666667;" width="164.5833" x="647.9167" y="53.7028"/><rect fill="#1B1B1A" height="31.3883" rx="8.3333" ry="8.3333" style="stroke:#1B1B1A;stroke-width:1.0416666666666667;" width="164.5833" x="647.9167" y="53.7028"/><rect fill="#1B1B1A" height="8.3333" style="stroke:#1B1B1A;stroke-width:1.0416666666666667;" width="164.5833" x="647.9167" y="76.7578"/><rect fill="none" height="48.055" id="WicketExamplePage" rx="8.3333" ry="8.3333" style="stroke:#5E5E5E;stroke-width:1.0416666666666667;" width="164.5833" x="647.9167" y="53.7028"/><ellipse cx="662.5" cy="69.397" fill="#0066CF" rx="10.4167" ry="10.4167" style="stroke:#0086EF;stroke-width:1.0416666666666667;"/><path d="M664.4104,73.822 Q663.9832,74.0417 663.5132,74.1516 Q663.0432,74.2615 662.5244,74.2615 Q660.6812,74.2615 659.7107,73.0469 Q658.7402,71.8323 658.7402,69.5374 Q658.7402,67.2363 659.7107,66.0217 Q660.6812,64.8071 662.5244,64.8071 Q663.0432,64.8071 663.5193,64.917 Q663.9954,65.0269 664.4104,65.2466 L664.4104,67.2485 Q663.9465,66.8213 663.5101,66.6229 Q663.0737,66.4246 662.6099,66.4246 Q661.6211,66.4246 661.1176,67.2089 Q660.614,67.9932 660.614,69.5374 Q660.614,71.0754 661.1176,71.8597 Q661.6211,72.644 662.6099,72.644 Q663.0737,72.644 663.5101,72.4457 Q663.9465,72.2473 664.4104,71.8201 Z " fill="#000000"/><text fill="#D8BC00" font-family="Open Sans,Avenir,Nunito,Arial,Helvetica,SansSerif" font-size="12.5" font-weight="bold" lengthAdjust="spacing" textLength="127.0833" x="679.1667" y="74.1211">WicketExamplePage</text><line style="stroke:#5E5E5E;stroke-width:1.0416666666666667;" x1="648.9583" x2="811.4583" y1="85.0911" y2="85.0911"/><line style="stroke:#5E5E5E;stroke-width:1.0416666666666667;" x1="648.9583" x2="811.4583" y1="93.4245" y2="93.4245"/><!--MD5=[736545dfb438ffb5d41fdd67dfcf4b04]
class AlternativePageFromWebContext--><rect codeLine="10" fill="#282828" height="83.3781" id="AlternativePageFromWebContext" rx="8.3333" ry="8.3333" style="stroke:#5E5E5E;stroke-width:1.0416666666666667;" width="250" x="453.125" y="164.1195"/><rect fill="#1B1B1A" height="31.3883" rx="8.3333" ry="8.3333" style="stroke:#1B1B1A;stroke-width:1.0416666666666667;" width="250" x="453.125" y="164.1195"/><rect fill="#1B1B1A" height="8.3333" style="stroke:#1B1B1A;stroke-width:1.0416666666666667;" width="250" x="453.125" y="187.1745"/><rect codeLine="10" fill="none" height="83.3781" id="AlternativePageFromWebContext" rx="8.3333" ry="8.3333" style="stroke:#5E5E5E;stroke-width:1.0416666666666667;" width="250" x="453.125" y="164.1195"/><ellipse cx="467.7083" cy="179.8136" fill="#0066CF" rx="10.4167" ry="10.4167" style="stroke:#0086EF;stroke-width:1.0416666666666667;"/><path d="M469.6187,184.2387 Q469.1915,184.4584 468.7215,184.5683 Q468.2515,184.6781 467.7327,184.6781 Q465.8895,184.6781 464.919,183.4635 Q463.9486,182.2489 463.9486,179.954 Q463.9486,177.653 464.919,176.4384 Q465.8895,175.2238 467.7327,175.2238 Q468.2515,175.2238 468.7276,175.3337 Q469.2037,175.4435 469.6187,175.6632 L469.6187,177.6652 Q469.1549,177.238 468.7185,177.0396 Q468.2821,176.8412 467.8182,176.8412 Q466.8294,176.8412 466.3259,177.6255 Q465.8223,178.4098 465.8223,179.954 Q465.8223,181.4921 466.3259,182.2764 Q466.8294,183.0607 467.8182,183.0607 Q468.2821,183.0607 468.7185,182.8623 Q469.1549,182.664 469.6187,182.2367 Z " fill="#000000"/><text fill="#D8BC00" font-family="Open Sans,Avenir,Nunito,Arial,Helvetica,SansSerif" font-size="12.5" font-weight="bold" lengthAdjust="spacing" textLength="212.5" x="484.375" y="184.5378">AlternativePageFromWebContext</text><line style="stroke:#5E5E5E;stroke-width:1.5625;" x1="454.1667" x2="702.0833" y1="195.5078" y2="195.5078"/><ellipse cx="464.5833" cy="230.8777" fill="#84BE84" rx="3.125" ry="3.125" style="stroke:#038048;stroke-width:1.0416666666666667;"/><text fill="#D8BC00" font-family="Open Sans,Avenir,Nunito,Arial,Helvetica,SansSerif" font-size="11.4583" lengthAdjust="spacing" textLength="191.6667" x="476.0417" y="237.7889">AlternativePageFromWebContext()</text><line style="stroke:#5E5E5E;stroke-width:1.0416666666666667;" x1="454.1667" x2="534.375" y1="213.7136" y2="213.7136"/><text fill="#D8BC00" font-family="Open Sans,Avenir,Nunito,Arial,Helvetica,SansSerif" font-size="11.4583" lengthAdjust="spacing" textLength="81.25" x="537.5" y="217.5232">(constructors)</text><line style="stroke:#5E5E5E;stroke-width:1.0416666666666667;" x1="621.875" x2="702.0833" y1="213.7136" y2="213.7136"/><!--MD5=[818b680dd029f5404dc253254408b9c3]
class WicketExampleApplication--><rect fill="#282828" height="48.055" id="WicketExampleApplication" rx="8.3333" ry="8.3333" style="stroke:#5E5E5E;stroke-width:1.0416666666666667;" width="208.3333" x="1119.7917" y="53.7028"/><rect fill="#1B1B1A" height="31.3883" rx="8.3333" ry="8.3333" style="stroke:#1B1B1A;stroke-width:1.0416666666666667;" width="208.3333" x="1119.7917" y="53.7028"/><rect fill="#1B1B1A" height="8.3333" style="stroke:#1B1B1A;stroke-width:1.0416666666666667;" width="208.3333" x="1119.7917" y="76.7578"/><rect fill="none" height="48.055" id="WicketExampleApplication" rx="8.3333" ry="8.3333" style="stroke:#5E5E5E;stroke-width:1.0416666666666667;" width="208.3333" x="1119.7917" y="53.7028"/><ellipse cx="1134.375" cy="69.397" fill="#0066CF" rx="10.4167" ry="10.4167" style="stroke:#0086EF;stroke-width:1.0416666666666667;"/><path d="M1136.2854,73.822 Q1135.8582,74.0417 1135.3882,74.1516 Q1134.9182,74.2615 1134.3994,74.2615 Q1132.5562,74.2615 1131.5857,73.0469 Q1130.6152,71.8323 1130.6152,69.5374 Q1130.6152,67.2363 1131.5857,66.0217 Q1132.5562,64.8071 1134.3994,64.8071 Q1134.9182,64.8071 1135.3943,64.917 Q1135.8704,65.0269 1136.2854,65.2466 L1136.2854,67.2485 Q1135.8215,66.8213 1135.3851,66.6229 Q1134.9487,66.4246 1134.4849,66.4246 Q1133.4961,66.4246 1132.9926,67.2089 Q1132.489,67.9932 1132.489,69.5374 Q1132.489,71.0754 1132.9926,71.8597 Q1133.4961,72.644 1134.4849,72.644 Q1134.9487,72.644 1135.3851,72.4457 Q1135.8215,72.2473 1136.2854,71.8201 Z " fill="#000000"/><text fill="#D8BC00" font-family="Open Sans,Avenir,Nunito,Arial,Helvetica,SansSerif" font-size="12.5" font-weight="bold" lengthAdjust="spacing" textLength="170.8333" x="1151.0417" y="74.1211">WicketExampleApplication</text><line style="stroke:#5E5E5E;stroke-width:1.0416666666666667;" x1="1120.8333" x2="1327.0833" y1="85.0911" y2="85.0911"/><line style="stroke:#5E5E5E;stroke-width:1.0416666666666667;" x1="1120.8333" x2="1327.0833" y1="93.4245" y2="93.4245"/><!--MD5=[7c89762b44975378fb1479bf64b952ad]
class CustomResourceLoadingApplication--><rect codeLine="17" fill="#282828" height="83.3781" id="CustomResourceLoadingApplication" rx="8.3333" ry="8.3333" style="stroke:#5E5E5E;stroke-width:1.0416666666666667;" width="272.9167" x="1087.5" y="164.1195"/><rect fill="#1B1B1A" height="31.3883" rx="8.3333" ry="8.3333" style="stroke:#1B1B1A;stroke-width:1.0416666666666667;" width="272.9167" x="1087.5" y="164.1195"/><rect fill="#1B1B1A" height="8.3333" style="stroke:#1B1B1A;stroke-width:1.0416666666666667;" width="272.9167" x="1087.5" y="187.1745"/><rect codeLine="17" fill="none" height="83.3781" id="CustomResourceLoadingApplication" rx="8.3333" ry="8.3333" style="stroke:#5E5E5E;stroke-width:1.0416666666666667;" width="272.9167" x="1087.5" y="164.1195"/><ellipse cx="1102.0833" cy="179.8136" fill="#0066CF" rx="10.4167" ry="10.4167" style="stroke:#0086EF;stroke-width:1.0416666666666667;"/><path d="M1103.9937,184.2387 Q1103.5665,184.4584 1103.0965,184.5683 Q1102.6265,184.6781 1102.1077,184.6781 Q1100.2645,184.6781 1099.294,183.4635 Q1098.3236,182.2489 1098.3236,179.954 Q1098.3236,177.653 1099.294,176.4384 Q1100.2645,175.2238 1102.1077,175.2238 Q1102.6265,175.2238 1103.1026,175.3337 Q1103.5787,175.4435 1103.9937,175.6632 L1103.9937,177.6652 Q1103.5299,177.238 1103.0935,177.0396 Q1102.6571,176.8412 1102.1932,176.8412 Q1101.2044,176.8412 1100.7009,177.6255 Q1100.1973,178.4098 1100.1973,179.954 Q1100.1973,181.4921 1100.7009,182.2764 Q1101.2044,183.0607 1102.1932,183.0607 Q1102.6571,183.0607 1103.0935,182.8623 Q1103.5299,182.664 1103.9937,182.2367 Z " fill="#000000"/><text fill="#D8BC00" font-family="Open Sans,Avenir,Nunito,Arial,Helvetica,SansSerif" font-size="12.5" font-weight="bold" lengthAdjust="spacing" textLength="235.4167" x="1118.75" y="184.5378">CustomResourceLoadingApplication</text><line style="stroke:#5E5E5E;stroke-width:1.5625;" x1="1088.5417" x2="1359.375" y1="195.5078" y2="195.5078"/><ellipse cx="1098.9583" cy="230.8777" fill="#84BE84" rx="3.125" ry="3.125" style="stroke:#038048;stroke-width:1.0416666666666667;"/><text fill="#D8BC00" font-family="Open Sans,Avenir,Nunito,Arial,Helvetica,SansSerif" font-size="11.4583" lengthAdjust="spacing" textLength="212.5" x="1110.4167" y="237.7889">CustomResourceLoadingApplication()</text><line style="stroke:#5E5E5E;stroke-width:1.0416666666666667;" x1="1088.5417" x2="1180.2083" y1="213.7136" y2="213.7136"/><text fill="#D8BC00" font-family="Open Sans,Avenir,Nunito,Arial,Helvetica,SansSerif" font-size="11.4583" lengthAdjust="spacing" textLength="81.25" x="1183.3333" y="217.5232">(constructors)</text><line style="stroke:#5E5E5E;stroke-width:1.0416666666666667;" x1="1267.7083" x2="1359.375" y1="213.7136" y2="213.7136"/><!--MD5=[546f21b038a98b0201e246f5bcaffe16]
class ResourceStreamLocator--><rect fill="#282828" height="48.055" id="ResourceStreamLocator" rx="8.3333" ry="8.3333" style="stroke:#5E5E5E;stroke-width:1.0416666666666667;" width="188.5417" x="1422.3958" y="53.7028"/><rect fill="#1B1B1A" height="31.3883" rx="8.3333" ry="8.3333" style="stroke:#1B1B1A;stroke-width:1.0416666666666667;" width="188.5417" x="1422.3958" y="53.7028"/><rect fill="#1B1B1A" height="8.3333" style="stroke:#1B1B1A;stroke-width:1.0416666666666667;" width="188.5417" x="1422.3958" y="76.7578"/><rect fill="none" height="48.055" id="ResourceStreamLocator" rx="8.3333" ry="8.3333" style="stroke:#5E5E5E;stroke-width:1.0416666666666667;" width="188.5417" x="1422.3958" y="53.7028"/><ellipse cx="1436.9792" cy="69.397" fill="#0066CF" rx="10.4167" ry="10.4167" style="stroke:#0086EF;stroke-width:1.0416666666666667;"/><path d="M1438.8896,73.822 Q1438.4623,74.0417 1437.9924,74.1516 Q1437.5224,74.2615 1437.0036,74.2615 Q1435.1603,74.2615 1434.1899,73.0469 Q1433.2194,71.8323 1433.2194,69.5374 Q1433.2194,67.2363 1434.1899,66.0217 Q1435.1603,64.8071 1437.0036,64.8071 Q1437.5224,64.8071 1437.9985,64.917 Q1438.4745,65.0269 1438.8896,65.2466 L1438.8896,67.2485 Q1438.4257,66.8213 1437.9893,66.6229 Q1437.5529,66.4246 1437.089,66.4246 Q1436.1003,66.4246 1435.5967,67.2089 Q1435.0932,67.9932 1435.0932,69.5374 Q1435.0932,71.0754 1435.5967,71.8597 Q1436.1003,72.644 1437.089,72.644 Q1437.5529,72.644 1437.9893,72.4457 Q1438.4257,72.2473 1438.8896,71.8201 Z " fill="#000000"/><text fill="#D8BC00" font-family="Open Sans,Avenir,Nunito,Arial,Helvetica,SansSerif" font-size="12.5" font-weight="bold" lengthAdjust="spacing" textLength="151.0417" x="1453.6458" y="74.1211">ResourceStreamLocator</text><line style="stroke:#5E5E5E;stroke-width:1.0416666666666667;" x1="1423.4375" x2="1609.8958" y1="85.0911" y2="85.0911"/><line style="stroke:#5E5E5E;stroke-width:1.0416666666666667;" x1="1423.4375" x2="1609.8958" y1="93.4245" y2="93.4245"/><!--MD5=[0116ed3171baa2f6abf56ad3bb58647f]
class CustomResourceLoadingApplication.CustomResourceStreamLocator--><rect codeLine="24" fill="#282828" height="48.055" id="CustomResourceLoadingApplication.CustomResourceStreamLocator" rx="8.3333" ry="8.3333" style="stroke:#5E5E5E;stroke-width:1.0416666666666667;" width="239.5833" x="1396.875" y="181.8278"/><rect fill="#1B1B1A" height="31.3883" rx="8.3333" ry="8.3333" style="stroke:#1B1B1A;stroke-width:1.0416666666666667;" width="239.5833" x="1396.875" y="181.8278"/><rect fill="#1B1B1A" height="8.3333" style="stroke:#1B1B1A;stroke-width:1.0416666666666667;" width="239.5833" x="1396.875" y="204.8828"/><rect codeLine="24" fill="none" height="48.055" id="CustomResourceLoadingApplication.CustomResourceStreamLocator" rx="8.3333" ry="8.3333" style="stroke:#5E5E5E;stroke-width:1.0416666666666667;" width="239.5833" x="1396.875" y="181.8278"/><ellipse cx="1411.4583" cy="197.522" fill="#0066CF" rx="10.4167" ry="10.4167" style="stroke:#0086EF;stroke-width:1.0416666666666667;"/><path d="M1413.3687,201.947 Q1412.9415,202.1667 1412.4715,202.2766 Q1412.0015,202.3865 1411.4827,202.3865 Q1409.6395,202.3865 1408.669,201.1719 Q1407.6986,199.9573 1407.6986,197.6624 Q1407.6986,195.3613 1408.669,194.1467 Q1409.6395,192.9321 1411.4827,192.9321 Q1412.0015,192.9321 1412.4776,193.042 Q1412.9537,193.1519 1413.3687,193.3716 L1413.3687,195.3735 Q1412.9049,194.9463 1412.4685,194.7479 Q1412.0321,194.5496 1411.5682,194.5496 Q1410.5794,194.5496 1410.0759,195.3339 Q1409.5723,196.1182 1409.5723,197.6624 Q1409.5723,199.2004 1410.0759,199.9847 Q1410.5794,200.769 1411.5682,200.769 Q1412.0321,200.769 1412.4685,200.5707 Q1412.9049,200.3723 1413.3687,199.9451 Z " fill="#000000"/><text fill="#D8BC00" font-family="Open Sans,Avenir,Nunito,Arial,Helvetica,SansSerif" font-size="12.5" font-weight="bold" lengthAdjust="spacing" textLength="202.0833" x="1428.125" y="202.2461">CustomResourceStreamLocator</text><line style="stroke:#5E5E5E;stroke-width:1.0416666666666667;" x1="1397.9167" x2="1635.4167" y1="213.2161" y2="213.2161"/><line style="stroke:#5E5E5E;stroke-width:1.0416666666666667;" x1="1397.9167" x2="1635.4167" y1="221.5495" y2="221.5495"/><!--MD5=[15b9a87b033c6044cf0e9bbdacb18726]
class Index--><rect codeLine="29" fill="#282828" height="83.3781" id="Index" rx="8.3333" ry="8.3333" style="stroke:#5E5E5E;stroke-width:1.0416666666666667;" width="95.8333" x="739.5833" y="164.1195"/><rect fill="#1B1B1A" height="31.3883" rx="8.3333" ry="8.3333" style="stroke:#1B1B1A;stroke-width:1.0416666666666667;" width="95.8333" x="739.5833" y="164.1195"/><rect fill="#1B1B1A" height="8.3333" style="stroke:#1B1B1A;stroke-width:1.0416666666666667;" width="95.8333" x="739.5833" y="187.1745"/><rect codeLine="29" fill="none" height="83.3781" id="Index" rx="8.3333" ry="8.3333" style="stroke:#5E5E5E;stroke-width:1.0416666666666667;" width="95.8333" x="739.5833" y="164.1195"/><ellipse cx="764.4792" cy="179.8136" fill="#0066CF" rx="10.4167" ry="10.4167" style="stroke:#0086EF;stroke-width:1.0416666666666667;"/><path d="M766.3896,184.2387 Q765.9623,184.4584 765.4924,184.5683 Q765.0224,184.6781 764.5036,184.6781 Q762.6603,184.6781 761.6899,183.4635 Q760.7194,182.2489 760.7194,179.954 Q760.7194,177.653 761.6899,176.4384 Q762.6603,175.2238 764.5036,175.2238 Q765.0224,175.2238 765.4985,175.3337 Q765.9745,175.4435 766.3896,175.6632 L766.3896,177.6652 Q765.9257,177.238 765.4893,177.0396 Q765.0529,176.8412 764.589,176.8412 Q763.6003,176.8412 763.0967,177.6255 Q762.5932,178.4098 762.5932,179.954 Q762.5932,181.4921 763.0967,182.2764 Q763.6003,183.0607 764.589,183.0607 Q765.0529,183.0607 765.4893,182.8623 Q765.9257,182.664 766.3896,182.2367 Z " fill="#000000"/><text fill="#D8BC00" font-family="Open Sans,Avenir,Nunito,Arial,Helvetica,SansSerif" font-size="12.5" font-weight="bold" lengthAdjust="spacing" textLength="35.4167" x="783.4375" y="184.5378">Index</text><line style="stroke:#5E5E5E;stroke-width:1.5625;" x1="740.625" x2="834.375" y1="195.5078" y2="195.5078"/><ellipse cx="751.0417" cy="230.8777" fill="#84BE84" rx="3.125" ry="3.125" style="stroke:#038048;stroke-width:1.0416666666666667;"/><text fill="#D8BC00" font-family="Open Sans,Avenir,Nunito,Arial,Helvetica,SansSerif" font-size="11.4583" lengthAdjust="spacing" textLength="39.5833" x="762.5" y="237.7889">Index()</text><line style="stroke:#5E5E5E;stroke-width:1.0416666666666667;" x1="740.625" x2="743.75" y1="213.7136" y2="213.7136"/><text fill="#D8BC00" font-family="Open Sans,Avenir,Nunito,Arial,Helvetica,SansSerif" font-size="11.4583" lengthAdjust="spacing" textLength="81.25" x="746.875" y="217.5232">(constructors)</text><line style="stroke:#5E5E5E;stroke-width:1.0416666666666667;" x1="831.25" x2="834.375" y1="213.7136" y2="213.7136"/><!--MD5=[82dc3888f47cd7ab2ccfca9abef3f13e]
class PageFromWebContext--><rect codeLine="36" fill="#282828" height="83.3781" id="PageFromWebContext" rx="8.3333" ry="8.3333" style="stroke:#5E5E5E;stroke-width:1.0416666666666667;" width="179.1667" x="871.875" y="164.1195"/><rect fill="#1B1B1A" height="31.3883" rx="8.3333" ry="8.3333" style="stroke:#1B1B1A;stroke-width:1.0416666666666667;" width="179.1667" x="871.875" y="164.1195"/><rect fill="#1B1B1A" height="8.3333" style="stroke:#1B1B1A;stroke-width:1.0416666666666667;" width="179.1667" x="871.875" y="187.1745"/><rect codeLine="36" fill="none" height="83.3781" id="PageFromWebContext" rx="8.3333" ry="8.3333" style="stroke:#5E5E5E;stroke-width:1.0416666666666667;" width="179.1667" x="871.875" y="164.1195"/><ellipse cx="886.4583" cy="179.8136" fill="#0066CF" rx="10.4167" ry="10.4167" style="stroke:#0086EF;stroke-width:1.0416666666666667;"/><path d="M888.3687,184.2387 Q887.9415,184.4584 887.4715,184.5683 Q887.0015,184.6781 886.4827,184.6781 Q884.6395,184.6781 883.669,183.4635 Q882.6986,182.2489 882.6986,179.954 Q882.6986,177.653 883.669,176.4384 Q884.6395,175.2238 886.4827,175.2238 Q887.0015,175.2238 887.4776,175.3337 Q887.9537,175.4435 888.3687,175.6632 L888.3687,177.6652 Q887.9049,177.238 887.4685,177.0396 Q887.0321,176.8412 886.5682,176.8412 Q885.5794,176.8412 885.0759,177.6255 Q884.5723,178.4098 884.5723,179.954 Q884.5723,181.4921 885.0759,182.2764 Q885.5794,183.0607 886.5682,183.0607 Q887.0321,183.0607 887.4685,182.8623 Q887.9049,182.664 888.3687,182.2367 Z " fill="#000000"/><text fill="#D8BC00" font-family="Open Sans,Avenir,Nunito,Arial,Helvetica,SansSerif" font-size="12.5" font-weight="bold" lengthAdjust="spacing" textLength="141.6667" x="903.125" y="184.5378">PageFromWebContext</text><line style="stroke:#5E5E5E;stroke-width:1.5625;" x1="872.9167" x2="1050" y1="195.5078" y2="195.5078"/><ellipse cx="883.3333" cy="230.8777" fill="#84BE84" rx="3.125" ry="3.125" style="stroke:#038048;stroke-width:1.0416666666666667;"/><text fill="#D8BC00" font-family="Open Sans,Avenir,Nunito,Arial,Helvetica,SansSerif" font-size="11.4583" lengthAdjust="spacing" textLength="131.25" x="894.7917" y="237.7889">PageFromWebContext()</text><line style="stroke:#5E5E5E;stroke-width:1.0416666666666667;" x1="872.9167" x2="917.7083" y1="213.7136" y2="213.7136"/><text fill="#D8BC00" font-family="Open Sans,Avenir,Nunito,Arial,Helvetica,SansSerif" font-size="11.4583" lengthAdjust="spacing" textLength="81.25" x="920.8333" y="217.5232">(constructors)</text><line style="stroke:#5E5E5E;stroke-width:1.0416666666666667;" x1="1005.2083" x2="1050" y1="213.7136" y2="213.7136"/><!--MD5=[bd43f28dc3fe8aa4cc257e73c44e5b4c]
class PageWithCustomLoading--><rect codeLine="45" fill="#282828" height="83.3781" id="PageWithCustomLoading" rx="8.3333" ry="8.3333" style="stroke:#5E5E5E;stroke-width:1.0416666666666667;" width="200" x="216.6667" y="164.1195"/><rect fill="#1B1B1A" height="31.3883" rx="8.3333" ry="8.3333" style="stroke:#1B1B1A;stroke-width:1.0416666666666667;" width="200" x="216.6667" y="164.1195"/><rect fill="#1B1B1A" height="8.3333" style="stroke:#1B1B1A;stroke-width:1.0416666666666667;" width="200" x="216.6667" y="187.1745"/><rect codeLine="45" fill="none" height="83.3781" id="PageWithCustomLoading" rx="8.3333" ry="8.3333" style="stroke:#5E5E5E;stroke-width:1.0416666666666667;" width="200" x="216.6667" y="164.1195"/><ellipse cx="231.25" cy="179.8136" fill="#0066CF" rx="10.4167" ry="10.4167" style="stroke:#0086EF;stroke-width:1.0416666666666667;"/><path d="M233.1604,184.2387 Q232.7332,184.4584 232.2632,184.5683 Q231.7932,184.6781 231.2744,184.6781 Q229.4312,184.6781 228.4607,183.4635 Q227.4902,182.2489 227.4902,179.954 Q227.4902,177.653 228.4607,176.4384 Q229.4312,175.2238 231.2744,175.2238 Q231.7932,175.2238 232.2693,175.3337 Q232.7454,175.4435 233.1604,175.6632 L233.1604,177.6652 Q232.6965,177.238 232.2601,177.0396 Q231.8237,176.8412 231.3599,176.8412 Q230.3711,176.8412 229.8676,177.6255 Q229.364,178.4098 229.364,179.954 Q229.364,181.4921 229.8676,182.2764 Q230.3711,183.0607 231.3599,183.0607 Q231.8237,183.0607 232.2601,182.8623 Q232.6965,182.664 233.1604,182.2367 Z " fill="#000000"/><text fill="#D8BC00" font-family="Open Sans,Avenir,Nunito,Arial,Helvetica,SansSerif" font-size="12.5" font-weight="bold" lengthAdjust="spacing" textLength="162.5" x="247.9167" y="184.5378">PageWithCustomLoading</text><line style="stroke:#5E5E5E;stroke-width:1.5625;" x1="217.7083" x2="415.625" y1="195.5078" y2="195.5078"/><ellipse cx="228.125" cy="230.8777" fill="#84BE84" rx="3.125" ry="3.125" style="stroke:#038048;stroke-width:1.0416666666666667;"/><text fill="#D8BC00" font-family="Open Sans,Avenir,Nunito,Arial,Helvetica,SansSerif" font-size="11.4583" lengthAdjust="spacing" textLength="146.875" x="239.5833" y="237.7889">PageWithCustomLoading()</text><line style="stroke:#5E5E5E;stroke-width:1.0416666666666667;" x1="217.7083" x2="272.9167" y1="213.7136" y2="213.7136"/><text fill="#D8BC00" font-family="Open Sans,Avenir,Nunito,Arial,Helvetica,SansSerif" font-size="11.4583" lengthAdjust="spacing" textLength="81.25" x="276.0417" y="217.5232">(constructors)</text><line style="stroke:#5E5E5E;stroke-width:1.0416666666666667;" x1="360.4167" x2="415.625" y1="213.7136" y2="213.7136"/><!--MD5=[7476b9a1b1553b5e52e283fbdc632281]
reverse link WicketExamplePage to AlternativePageFromWebContext--><path codeLine="9" d="M686.125,115.2445 C667.7292,130.484 646.2917,148.2549 627.3854,163.9215 " fill="none" id="WicketExamplePage-backto-AlternativePageFromWebContext" style="stroke:#545454;stroke-width:1.5625;"/><polygon fill="none" points="681.625,109.5049,702.3125,101.8174,690.9271,120.734,681.625,109.5049" style="stroke:#545454;stroke-width:1.5625;"/><!--MD5=[6b0dfcdbfc73933e1b095a6d1ece6aba]
reverse link WicketExampleApplication to CustomResourceLoadingApplication--><path codeLine="16" d="M1223.9583,122.682 C1223.9583,136.0778 1223.9583,150.7445 1223.9583,163.9215 " fill="none" id="WicketExampleApplication-backto-CustomResourceLoadingApplication" style="stroke:#545454;stroke-width:1.5625;"/><polygon fill="none" points="1216.6667,122.6507,1223.9583,101.8174,1231.25,122.6507,1216.6667,122.6507" style="stroke:#545454;stroke-width:1.5625;"/><!--MD5=[140a7b13959ddb89b5c4d35098465d75]
reverse link ResourceStreamLocator to CustomResourceLoadingApplication.CustomResourceStreamLocator--><path codeLine="23" d="M1516.6667,122.9528 C1516.6667,142.7965 1516.6667,165.3799 1516.6667,181.7757 " fill="none" id="ResourceStreamLocator-backto-CustomResourceLoadingApplication.CustomResourceStreamLocator" style="stroke:#545454;stroke-width:1.5625;"/><polygon fill="none" points="1509.375,122.6507,1516.6667,101.8174,1523.9583,122.6507,1509.375,122.6507" style="stroke:#545454;stroke-width:1.5625;"/><!--MD5=[c91da0eefb8de17b5450c128c5c2e461]
reverse link WicketExamplePage to Index--><path codeLine="28" d="M749.5313,121.2236 C755.8021,135.0049 762.7292,150.2549 768.9479,163.9215 " fill="none" id="WicketExamplePage-backto-Index" style="stroke:#545454;stroke-width:1.5625;"/><polygon fill="none" points="742.6979,123.807,740.7188,101.8174,755.9792,117.7653,742.6979,123.807" style="stroke:#545454;stroke-width:1.5625;"/><!--MD5=[ec6c12f4f2aab752b82a995f01a2e723]
reverse link WicketExamplePage to PageFromWebContext--><path codeLine="35" d="M790.6771,111.6611 C820.1042,127.7028 855.7604,147.1299 886.8542,164.0778 " fill="none" id="WicketExamplePage-backto-PageFromWebContext" style="stroke:#545454;stroke-width:1.5625;"/><polygon fill="none" points="787.1563,118.0465,772.3542,101.6715,794.1354,105.2445,787.1563,118.0465" style="stroke:#545454;stroke-width:1.5625;"/><!--MD5=[dca9ac5001bf9853953f2d3ed4d2064b]
reverse link WicketExamplePage to PageWithCustomLoading--><path codeLine="42" d="M627.3229,107.0153 C570.2604,123.057 498.1458,143.9215 434.375,164.1195 C428.6042,165.9424 422.6875,167.859 416.7292,169.8174 " fill="none" id="WicketExamplePage-backto-PageWithCustomLoading" style="stroke:#545454;stroke-width:1.5625;"/><polygon fill="none" points="625.5833,99.9215,647.6146,101.3278,629.5208,113.9632,625.5833,99.9215" style="stroke:#545454;stroke-width:1.5625;"/><!--MD5=[f930a7f9274170195de390c6c91042d2]
reverse link IMarkupResourceStreamProvider to PageWithCustomLoading--><path codeLine="43" d="M354.6354,121.2236 C348.3646,135.0049 341.4375,150.2549 335.2188,163.9215 " fill="none" id="IMarkupResourceStreamProvider-backto-PageWithCustomLoading" style="stroke:#545454;stroke-width:1.5625;"/><polygon fill="none" points="348.1875,117.7653,363.4479,101.8174,361.4688,123.807,348.1875,117.7653" style="stroke:#545454;stroke-width:1.5625;"/><!--MD5=[8aad2acd9db95889c75602f6a5c07a7b]
reverse link IMarkupCacheKeyProvider to PageWithCustomLoading--><path codeLine="44" d="M166.0313,112.682 C191.8542,128.4736 222.7813,147.3695 249.8646,163.9215 " fill="none" id="IMarkupCacheKeyProvider-backto-PageWithCustomLoading" style="stroke:#545454;stroke-width:1.5625;"/><polygon fill="none" points="162.2188,118.9111,148.25,101.8174,169.8229,106.4632,162.2188,118.9111" style="stroke:#545454;stroke-width:1.5625;"/><!--MD5=[47a1b9eb9c798cd959231dd8df4d01b7]
@startuml

    !include lexakai.theme
    
    title "org.apache.wicket.examples.customresourceloading"
    
    interface IMarkupCacheKeyProvider
    interface IMarkupResourceStreamProvider
    
    WicketExamplePage <|- - AlternativePageFromWebContext
    class AlternativePageFromWebContext
    {
        - -(constructors)- -
        +AlternativePageFromWebContext()
    }
    
    WicketExampleApplication <|- - CustomResourceLoadingApplication
    class CustomResourceLoadingApplication
    {
        - -(constructors)- -
        +CustomResourceLoadingApplication()
    }
    
    ResourceStreamLocator <|- - CustomResourceLoadingApplication.CustomResourceStreamLocator
    class CustomResourceLoadingApplication.CustomResourceStreamLocator
    {
    }
    
    WicketExamplePage <|- - Index
    class Index
    {
        - -(constructors)- -
        +Index()
    }
    
    WicketExamplePage <|- - PageFromWebContext
    class PageFromWebContext
    {
        - -(constructors)- -
        +PageFromWebContext()
    }
    
    WicketExamplePage <|- - PageWithCustomLoading
    IMarkupResourceStreamProvider <|- - PageWithCustomLoading
    IMarkupCacheKeyProvider <|- - PageWithCustomLoading
    class PageWithCustomLoading
    {
        - -(constructors)- -
        +PageWithCustomLoading()
    }
    
@enduml

@startuml









skinparam backgroundColor #333333






skinparam  {
    defaultFontName   "Open Sans,Avenir,Nunito,Arial,Helvetica,SansSerif"
    defaultFontSize   12
    defaultTextAlignment left
    shadowing false
    RoundCorner 10
    TitleFontSize 18
}

skinparam defaultFontName       "Open Sans,Avenir,Nunito,Arial,Helvetica,SansSerif"
skinparam defaultFontSize       12
skinparam dpi                   100
skinparam shadowing             false
skinparam roundcorner           16
skinparam ParticipantPadding    40
skinparam BoxPadding            40
skinparam Padding               3
skinparam ArrowColor            #545454
skinparam stereotype {
    CBackgroundColor #0066cf
    CBorderColor #0086ef
    ABackgroundColor #C8Ac00
    ABorderColor #D8Bc00
    IBackgroundColor #008400
    IBorderColor #239c23
    EBackgroundColor #cf6300
    EBorderColor #ef8300
    NBackgroundColor #3380b9
    NBorderColor #004d86
}
skinparam title {
	FontColor	                 #c0c0c0
 	BorderColor                  #545454
	FontSize	    	         20
	BorderRoundCorner            16
	BorderThickness 	         1
	BackgroundColor              #48494b
}


skinparam legend {
	BackgroundColor #303030
	BorderColor #404040
	FontColor #a0a0a0
}

	skinparam swimlane {
	BorderColor #5e5e5e
	BorderThickness 2
	TitleBackgroundColor  #6d6d6d-#484848
	TitleFontColor #303030
}

skinparam activity {
		FontColor #C8Ac00
	BorderColor #333333
	BackgroundColor #333333-#333333
	BarColor #00FF00
	StartColor #0060a8
	EndColor #0060a8
	DiamondBackgroundColor #6d6d6d-#3a3a3a
  	DiamondBorderColor #3a3a3a
  	DiamondFontColor #fefefe
}


skinparam participant {
		FontColor #C8Ac00
	BorderColor #333333
	BackgroundColor #333333-#333333
	ParticipantBorderThickness 2
}


skinparam actor {
		FontColor #C8Ac00
	BorderColor #333333
	BackgroundColor #333333-#333333
}


skinparam arrow {
	Thickness 1.5
	Color #545454
	FontColor #a0a0a0
    FontStyle bold
    MessageAlignment center
}



skinparam sequence {
	BorderColor #303030
	TitleFontColor #303030
	BackgroundColor #333333
	StartColor #303030
	EndColor #303030
	BoxBackgroundColor #333333
	BoxBorderColor #484848
	BoxFontColor #484848
	LifeLineBorderColor #484848
	LifeLineBorderThickness 2
	LifeLineBackgroundColor #3a3a3a
	GroupBorderColor #484848
	GroupFontColor #484848
	GroupHeaderFontColor #0060a8
	GroupBackgroundColor #484848
	GroupHeaderBackgroundColor #333333
	DividerBackgroundColor #484848
    DividerBorderColor #484848
    DividerBorderThickness 2
    DividerFontColor #D8Bc00
	ReferenceBackgroundColor #333333
	ReferenceBorderColor #484848
	ReferenceFontColor #fefefe
	ReferenceHeaderBackgroundColor #484848
}


skinparam partition {
	BorderColor #303030
	FontColor #333333
	BackgroundColor #333333
}


skinparam collections {
		FontColor #C8Ac00
	BorderColor #333333
	BackgroundColor #333333-#333333
}


skinparam control {
		FontColor #C8Ac00
	BorderColor #333333
	BackgroundColor #333333-#333333
}


skinparam entity {
		FontColor #C8Ac00
	BorderColor #333333
	BackgroundColor #333333-#333333
}


skinparam boundary {
		FontColor #C8Ac00
	BorderColor #333333
	BackgroundColor #333333-#333333
}


skinparam agent {
	BackgroundColor #ff8000
	BorderColor #ff9933
	FontColor #484848
}


skinparam note {
	BorderThickness 1
	BackgroundColor #1b1b1a
	BorderColor #5e5e5e
	FontSize 11
	FontColor #a0a0a0
}


skinparam artifact {
	BorderThickness 10
	BorderColor #5e5e5e
	BackgroundColor #1b1b1a
	FontColor #D8Bc00
}


skinparam component {
		FontColor #C8Ac00
	BorderColor #333333
	BackgroundColor #333333-#333333
}


skinparam interface {
	BackgroundColor  #008400
	BorderColor  #007F00
	FontColor #484848
}


skinparam storage {
	BackgroundColor #ff8000
  	BorderColor #cc6600
	FontColor #222222
}


skinparam node {
	BackgroundColor #333333
	BorderColor #333333
	FontColor #C8Ac00
}


skinparam cloud {
	BackgroundColor #484848-black
	BorderColor #484848
	FontColor #D8Bc00
}


skinparam database {
		FontColor #C8Ac00
	BorderColor #333333
	BackgroundColor #333333-#333333
	BackgroundColor  #333333
}


skinparam class {
		FontColor #C8Ac00
	BorderColor #333333
	BackgroundColor #333333-#333333
	HeaderBackgroundColor #1b1b1a
    BackgroundColor #282828
    BorderColor #5e5e5e
 	StereotypeFontColor #a0a0a0
    StereotypeFontStyle bold
	BorderThickness 1
	AttributeFontColor #D8Bc00
	AttributeFontSize 11
    FontColor #D8Bc00
    FontStyle bold
}


skinparam object {
		FontColor #C8Ac00
	BorderColor #333333
	BackgroundColor #333333-#333333
	StereotypeFontColor #484848
	BorderThickness 1
	AttributeFontColor #fefefe
	AttributeFontSize 11
}


skinparam usecase {
		FontColor #C8Ac00
	BorderColor #333333
	BackgroundColor #333333-#333333
	BorderThickness 2
	StereotypeFontColor #303030
}


skinparam rectangle {
		FontColor #C8Ac00
	BorderColor #333333
	BackgroundColor #333333-#333333
	BackgroundColor #333333
	BorderThickness 2
	StereotypeFontColor #303030
}


skinparam package {
		FontColor #C8Ac00
	BorderColor #333333
	BackgroundColor #333333-#333333
	BackgroundColor #333333
	BorderThickness 2
}


skinparam folder {
	BackgroundColor #6d6d6d
  	BorderColor #ff8000
	FontColor #ff8000
	BorderThickness 2
}


skinparam frame {
	BackgroundColor #6d6d6d
  	BorderColor #0060a8
	FontColor #0060a8
	BorderThickness 2
}


skinparam state {
		FontColor #C8Ac00
	BorderColor #333333
	BackgroundColor #333333-#333333
	StartColor #0060a8
	EndColor #0060a8
	AttributeFontColor #fefefe
	AttributeFontSize 11
}


skinparam queue {
		FontColor #C8Ac00
	BorderColor #333333
	BackgroundColor #333333-#333333
}


skinparam card {
	BackgroundColor #0060a8
	BorderColor #004d86
	FontColor $INFO_TEXT
}


skinparam file {
	BackgroundColor #6d6d6d-#484848
	BorderColor #0060a8
	FontColor #fefefe
}


skinparam stack {
		FontColor #C8Ac00
	BorderColor #333333
	BackgroundColor #333333-#333333
}

    
    title "org.apache.wicket.examples.customresourceloading"
    
    interface IMarkupCacheKeyProvider
    interface IMarkupResourceStreamProvider
    
    WicketExamplePage <|- - AlternativePageFromWebContext
    class AlternativePageFromWebContext
    {
        - -(constructors)- -
        +AlternativePageFromWebContext()
    }
    
    WicketExampleApplication <|- - CustomResourceLoadingApplication
    class CustomResourceLoadingApplication
    {
        - -(constructors)- -
        +CustomResourceLoadingApplication()
    }
    
    ResourceStreamLocator <|- - CustomResourceLoadingApplication.CustomResourceStreamLocator
    class CustomResourceLoadingApplication.CustomResourceStreamLocator
    {
    }
    
    WicketExamplePage <|- - Index
    class Index
    {
        - -(constructors)- -
        +Index()
    }
    
    WicketExamplePage <|- - PageFromWebContext
    class PageFromWebContext
    {
        - -(constructors)- -
        +PageFromWebContext()
    }
    
    WicketExamplePage <|- - PageWithCustomLoading
    IMarkupResourceStreamProvider <|- - PageWithCustomLoading
    IMarkupCacheKeyProvider <|- - PageWithCustomLoading
    class PageWithCustomLoading
    {
        - -(constructors)- -
        +PageWithCustomLoading()
    }
    
@enduml

PlantUML version 1.2021.01(Tue Feb 02 00:55:08 MST 2021)
(GPL source distribution)
Java Runtime: Java(TM) SE Runtime Environment
JVM: Java HotSpot(TM) 64-Bit Server VM
Default Encoding: UTF-8
Language: en
Country: US
--></g></svg>