<?xml version="1.0" encoding="UTF-8" standalone="no"?><svg xmlns="http://www.w3.org/2000/svg" xmlns:xlink="http://www.w3.org/1999/xlink" contentScriptType="application/ecmascript" contentStyleType="text/css" height="254.1667px" preserveAspectRatio="none" style="width:454px;height:254px;background:#333333;" version="1.1" viewBox="0 0 454 254" width="454.1667px" zoomAndPan="magnify"><defs/><g><rect fill="#48494B" height="41.2028" rx="8.3333" ry="8.3333" style="stroke:#545454;stroke-width:1.0416666666666667;" width="441.6667" x="2.0833" y="2.0833"/><text fill="#C0C0C0" font-family="Open Sans,Avenir,Nunito,Arial,Helvetica,SansSerif" font-size="20.8333" lengthAdjust="spacing" textLength="418.75" x="13.5417" y="30.5583">org.apache.wicket.examples.hellobrowser</text><!--MD5=[8de0e4c819f220f8e0c4c4df41ba59ce]
class WicketExamplePage--><rect fill="#282828" height="48.055" id="WicketExamplePage" rx="8.3333" ry="8.3333" style="stroke:#5E5E5E;stroke-width:1.0416666666666667;" width="164.5833" x="25.5208" y="53.7028"/><rect fill="#1B1B1A" height="31.3883" rx="8.3333" ry="8.3333" style="stroke:#1B1B1A;stroke-width:1.0416666666666667;" width="164.5833" x="25.5208" y="53.7028"/><rect fill="#1B1B1A" height="8.3333" style="stroke:#1B1B1A;stroke-width:1.0416666666666667;" width="164.5833" x="25.5208" y="76.7578"/><rect fill="none" height="48.055" id="WicketExamplePage" rx="8.3333" ry="8.3333" style="stroke:#5E5E5E;stroke-width:1.0416666666666667;" width="164.5833" x="25.5208" y="53.7028"/><ellipse cx="40.1042" cy="69.397" fill="#0066CF" rx="10.4167" ry="10.4167" style="stroke:#0086EF;stroke-width:1.0416666666666667;"/><path d="M42.0146,73.822 Q41.5873,74.0417 41.1174,74.1516 Q40.6474,74.2615 40.1286,74.2615 Q38.2853,74.2615 37.3149,73.0469 Q36.3444,71.8323 36.3444,69.5374 Q36.3444,67.2363 37.3149,66.0217 Q38.2853,64.8071 40.1286,64.8071 Q40.6474,64.8071 41.1235,64.917 Q41.5995,65.0269 42.0146,65.2466 L42.0146,67.2485 Q41.5507,66.8213 41.1143,66.6229 Q40.6779,66.4246 40.214,66.4246 Q39.2253,66.4246 38.7217,67.2089 Q38.2182,67.9932 38.2182,69.5374 Q38.2182,71.0754 38.7217,71.8597 Q39.2253,72.644 40.214,72.644 Q40.6779,72.644 41.1143,72.4457 Q41.5507,72.2473 42.0146,71.8201 Z " fill="#000000"/><text fill="#D8BC00" font-family="Open Sans,Avenir,Nunito,Arial,Helvetica,SansSerif" font-size="12.5" font-weight="bold" lengthAdjust="spacing" textLength="127.0833" x="56.7708" y="74.1211">WicketExamplePage</text><line style="stroke:#5E5E5E;stroke-width:1.0416666666666667;" x1="26.5625" x2="189.0625" y1="85.0911" y2="85.0911"/><line style="stroke:#5E5E5E;stroke-width:1.0416666666666667;" x1="26.5625" x2="189.0625" y1="93.4245" y2="93.4245"/><!--MD5=[a20c54f42008b5e5681d05c2b0a07ffd]
class HelloBrowser--><rect codeLine="7" fill="#282828" height="83.3781" id="HelloBrowser" rx="8.3333" ry="8.3333" style="stroke:#5E5E5E;stroke-width:1.0416666666666667;" width="122.9167" x="46.3542" y="164.1195"/><rect fill="#1B1B1A" height="31.3883" rx="8.3333" ry="8.3333" style="stroke:#1B1B1A;stroke-width:1.0416666666666667;" width="122.9167" x="46.3542" y="164.1195"/><rect fill="#1B1B1A" height="8.3333" style="stroke:#1B1B1A;stroke-width:1.0416666666666667;" width="122.9167" x="46.3542" y="187.1745"/><rect codeLine="7" fill="none" height="83.3781" id="HelloBrowser" rx="8.3333" ry="8.3333" style="stroke:#5E5E5E;stroke-width:1.0416666666666667;" width="122.9167" x="46.3542" y="164.1195"/><ellipse cx="60.9375" cy="179.8136" fill="#0066CF" rx="10.4167" ry="10.4167" style="stroke:#0086EF;stroke-width:1.0416666666666667;"/><path d="M62.8479,184.2387 Q62.4207,184.4584 61.9507,184.5683 Q61.4807,184.6781 60.9619,184.6781 Q59.1187,184.6781 58.1482,183.4635 Q57.1777,182.2489 57.1777,179.954 Q57.1777,177.653 58.1482,176.4384 Q59.1187,175.2238 60.9619,175.2238 Q61.4807,175.2238 61.9568,175.3337 Q62.4329,175.4435 62.8479,175.6632 L62.8479,177.6652 Q62.384,177.238 61.9476,177.0396 Q61.5112,176.8412 61.0474,176.8412 Q60.0586,176.8412 59.5551,177.6255 Q59.0515,178.4098 59.0515,179.954 Q59.0515,181.4921 59.5551,182.2764 Q60.0586,183.0607 61.0474,183.0607 Q61.5112,183.0607 61.9476,182.8623 Q62.384,182.664 62.8479,182.2367 Z " fill="#000000"/><text fill="#D8BC00" font-family="Open Sans,Avenir,Nunito,Arial,Helvetica,SansSerif" font-size="12.5" font-weight="bold" lengthAdjust="spacing" textLength="85.4167" x="77.6042" y="184.5378">HelloBrowser</text><line style="stroke:#5E5E5E;stroke-width:1.5625;" x1="47.3958" x2="168.2292" y1="195.5078" y2="195.5078"/><ellipse cx="57.8125" cy="230.8777" fill="#84BE84" rx="3.125" ry="3.125" style="stroke:#038048;stroke-width:1.0416666666666667;"/><text fill="#D8BC00" font-family="Open Sans,Avenir,Nunito,Arial,Helvetica,SansSerif" font-size="11.4583" lengthAdjust="spacing" textLength="81.25" x="69.2708" y="237.7889">HelloBrowser()</text><line style="stroke:#5E5E5E;stroke-width:1.0416666666666667;" x1="47.3958" x2="64.0625" y1="213.7136" y2="213.7136"/><text fill="#D8BC00" font-family="Open Sans,Avenir,Nunito,Arial,Helvetica,SansSerif" font-size="11.4583" lengthAdjust="spacing" textLength="81.25" x="67.1875" y="217.5232">(constructors)</text><line style="stroke:#5E5E5E;stroke-width:1.0416666666666667;" x1="151.5625" x2="168.2292" y1="213.7136" y2="213.7136"/><!--MD5=[818b680dd029f5404dc253254408b9c3]
class WicketExampleApplication--><rect fill="#282828" height="48.055" id="WicketExampleApplication" rx="8.3333" ry="8.3333" style="stroke:#5E5E5E;stroke-width:1.0416666666666667;" width="208.3333" x="226.5625" y="53.7028"/><rect fill="#1B1B1A" height="31.3883" rx="8.3333" ry="8.3333" style="stroke:#1B1B1A;stroke-width:1.0416666666666667;" width="208.3333" x="226.5625" y="53.7028"/><rect fill="#1B1B1A" height="8.3333" style="stroke:#1B1B1A;stroke-width:1.0416666666666667;" width="208.3333" x="226.5625" y="76.7578"/><rect fill="none" height="48.055" id="WicketExampleApplication" rx="8.3333" ry="8.3333" style="stroke:#5E5E5E;stroke-width:1.0416666666666667;" width="208.3333" x="226.5625" y="53.7028"/><ellipse cx="241.1458" cy="69.397" fill="#0066CF" rx="10.4167" ry="10.4167" style="stroke:#0086EF;stroke-width:1.0416666666666667;"/><path d="M243.0562,73.822 Q242.629,74.0417 242.159,74.1516 Q241.689,74.2615 241.1702,74.2615 Q239.327,74.2615 238.3565,73.0469 Q237.3861,71.8323 237.3861,69.5374 Q237.3861,67.2363 238.3565,66.0217 Q239.327,64.8071 241.1702,64.8071 Q241.689,64.8071 242.1651,64.917 Q242.6412,65.0269 243.0562,65.2466 L243.0562,67.2485 Q242.5924,66.8213 242.156,66.6229 Q241.7196,66.4246 241.2557,66.4246 Q240.2669,66.4246 239.7634,67.2089 Q239.2598,67.9932 239.2598,69.5374 Q239.2598,71.0754 239.7634,71.8597 Q240.2669,72.644 241.2557,72.644 Q241.7196,72.644 242.156,72.4457 Q242.5924,72.2473 243.0562,71.8201 Z " fill="#000000"/><text fill="#D8BC00" font-family="Open Sans,Avenir,Nunito,Arial,Helvetica,SansSerif" font-size="12.5" font-weight="bold" lengthAdjust="spacing" textLength="170.8333" x="257.8125" y="74.1211">WicketExampleApplication</text><line style="stroke:#5E5E5E;stroke-width:1.0416666666666667;" x1="227.6042" x2="433.8542" y1="85.0911" y2="85.0911"/><line style="stroke:#5E5E5E;stroke-width:1.0416666666666667;" x1="227.6042" x2="433.8542" y1="93.4245" y2="93.4245"/><!--MD5=[d175d1276e97d2c698e1b419ec82cc24]
class HelloBrowserApplication--><rect codeLine="14" fill="#282828" height="48.055" id="HelloBrowserApplication" rx="8.3333" ry="8.3333" style="stroke:#5E5E5E;stroke-width:1.0416666666666667;" width="196.875" x="232.2917" y="181.8278"/><rect fill="#1B1B1A" height="31.3883" rx="8.3333" ry="8.3333" style="stroke:#1B1B1A;stroke-width:1.0416666666666667;" width="196.875" x="232.2917" y="181.8278"/><rect fill="#1B1B1A" height="8.3333" style="stroke:#1B1B1A;stroke-width:1.0416666666666667;" width="196.875" x="232.2917" y="204.8828"/><rect codeLine="14" fill="none" height="48.055" id="HelloBrowserApplication" rx="8.3333" ry="8.3333" style="stroke:#5E5E5E;stroke-width:1.0416666666666667;" width="196.875" x="232.2917" y="181.8278"/><ellipse cx="246.875" cy="197.522" fill="#0066CF" rx="10.4167" ry="10.4167" style="stroke:#0086EF;stroke-width:1.0416666666666667;"/><path d="M248.7854,201.947 Q248.3582,202.1667 247.8882,202.2766 Q247.4182,202.3865 246.8994,202.3865 Q245.0562,202.3865 244.0857,201.1719 Q243.1152,199.9573 243.1152,197.6624 Q243.1152,195.3613 244.0857,194.1467 Q245.0562,192.9321 246.8994,192.9321 Q247.4182,192.9321 247.8943,193.042 Q248.3704,193.1519 248.7854,193.3716 L248.7854,195.3735 Q248.3215,194.9463 247.8851,194.7479 Q247.4487,194.5496 246.9849,194.5496 Q245.9961,194.5496 245.4926,195.3339 Q244.989,196.1182 244.989,197.6624 Q244.989,199.2004 245.4926,199.9847 Q245.9961,200.769 246.9849,200.769 Q247.4487,200.769 247.8851,200.5707 Q248.3215,200.3723 248.7854,199.9451 Z " fill="#000000"/><text fill="#D8BC00" font-family="Open Sans,Avenir,Nunito,Arial,Helvetica,SansSerif" font-size="12.5" font-weight="bold" lengthAdjust="spacing" textLength="159.375" x="263.5417" y="202.2461">HelloBrowserApplication</text><line style="stroke:#5E5E5E;stroke-width:1.0416666666666667;" x1="233.3333" x2="428.125" y1="213.2161" y2="213.2161"/><line style="stroke:#5E5E5E;stroke-width:1.0416666666666667;" x1="233.3333" x2="428.125" y1="221.5495" y2="221.5495"/><!--MD5=[b829fea2d56218745a65da0656581f51]
reverse link WicketExamplePage to HelloBrowser--><path codeLine="6" d="M107.8125,122.682 C107.8125,136.0778 107.8125,150.7445 107.8125,163.9215 " fill="none" id="WicketExamplePage-backto-HelloBrowser" style="stroke:#545454;stroke-width:1.5625;"/><polygon fill="none" points="100.5208,122.6507,107.8125,101.8174,115.1042,122.6507,100.5208,122.6507" style="stroke:#545454;stroke-width:1.5625;"/><!--MD5=[186f71cb7cd007d7b27ac2c44b749ae5]
reverse link WicketExampleApplication to HelloBrowserApplication--><path codeLine="13" d="M330.7292,122.9528 C330.7292,142.7965 330.7292,165.3799 330.7292,181.7757 " fill="none" id="WicketExampleApplication-backto-HelloBrowserApplication" style="stroke:#545454;stroke-width:1.5625;"/><polygon fill="none" points="323.4375,122.6507,330.7292,101.8174,338.0208,122.6507,323.4375,122.6507" style="stroke:#545454;stroke-width:1.5625;"/><!--MD5=[935ca2303bb7d4715e8faaab6a285651]
@startuml

    !include lexakai.theme
    
    title "org.apache.wicket.examples.hellobrowser"
    
    WicketExamplePage <|- - HelloBrowser
    class HelloBrowser
    {
        - -(constructors)- -
        +HelloBrowser()
    }
    
    WicketExampleApplication <|- - HelloBrowserApplication
    class HelloBrowserApplication
    {
    }
    
@enduml

@startuml









skinparam backgroundColor #333333






skinparam  {
    defaultFontName   "Open Sans,Avenir,Nunito,Arial,Helvetica,SansSerif"
    defaultFontSize   12
    defaultTextAlignment left
    shadowing false
    RoundCorner 10
    TitleFontSize 18
}

skinparam defaultFontName       "Open Sans,Avenir,Nunito,Arial,Helvetica,SansSerif"
skinparam defaultFontSize       12
skinparam dpi                   100
skinparam shadowing             false
skinparam roundcorner           16
skinparam ParticipantPadding    40
skinparam BoxPadding            40
skinparam Padding               3
skinparam ArrowColor            #545454
skinparam stereotype {
    CBackgroundColor #0066cf
    CBorderColor #0086ef
    ABackgroundColor #C8Ac00
    ABorderColor #D8Bc00
    IBackgroundColor #008400
    IBorderColor #239c23
    EBackgroundColor #cf6300
    EBorderColor #ef8300
    NBackgroundColor #3380b9
    NBorderColor #004d86
}
skinparam title {
	FontColor	                 #c0c0c0
 	BorderColor                  #545454
	FontSize	    	         20
	BorderRoundCorner            16
	BorderThickness 	         1
	BackgroundColor              #48494b
}


skinparam legend {
	BackgroundColor #303030
	BorderColor #404040
	FontColor #a0a0a0
}

	skinparam swimlane {
	BorderColor #5e5e5e
	BorderThickness 2
	TitleBackgroundColor  #6d6d6d-#484848
	TitleFontColor #303030
}

skinparam activity {
		FontColor #C8Ac00
	BorderColor #333333
	BackgroundColor #333333-#333333
	BarColor #00FF00
	StartColor #0060a8
	EndColor #0060a8
	DiamondBackgroundColor #6d6d6d-#3a3a3a
  	DiamondBorderColor #3a3a3a
  	DiamondFontColor #fefefe
}


skinparam participant {
		FontColor #C8Ac00
	BorderColor #333333
	BackgroundColor #333333-#333333
	ParticipantBorderThickness 2
}


skinparam actor {
		FontColor #C8Ac00
	BorderColor #333333
	BackgroundColor #333333-#333333
}


skinparam arrow {
	Thickness 1.5
	Color #545454
	FontColor #a0a0a0
    FontStyle bold
    MessageAlignment center
}



skinparam sequence {
	BorderColor #303030
	TitleFontColor #303030
	BackgroundColor #333333
	StartColor #303030
	EndColor #303030
	BoxBackgroundColor #333333
	BoxBorderColor #484848
	BoxFontColor #484848
	LifeLineBorderColor #484848
	LifeLineBorderThickness 2
	LifeLineBackgroundColor #3a3a3a
	GroupBorderColor #484848
	GroupFontColor #484848
	GroupHeaderFontColor #0060a8
	GroupBackgroundColor #484848
	GroupHeaderBackgroundColor #333333
	DividerBackgroundColor #484848
    DividerBorderColor #484848
    DividerBorderThickness 2
    DividerFontColor #D8Bc00
	ReferenceBackgroundColor #333333
	ReferenceBorderColor #484848
	ReferenceFontColor #fefefe
	ReferenceHeaderBackgroundColor #484848
}


skinparam partition {
	BorderColor #303030
	FontColor #333333
	BackgroundColor #333333
}


skinparam collections {
		FontColor #C8Ac00
	BorderColor #333333
	BackgroundColor #333333-#333333
}


skinparam control {
		FontColor #C8Ac00
	BorderColor #333333
	BackgroundColor #333333-#333333
}


skinparam entity {
		FontColor #C8Ac00
	BorderColor #333333
	BackgroundColor #333333-#333333
}


skinparam boundary {
		FontColor #C8Ac00
	BorderColor #333333
	BackgroundColor #333333-#333333
}


skinparam agent {
	BackgroundColor #ff8000
	BorderColor #ff9933
	FontColor #484848
}


skinparam note {
	BorderThickness 1
	BackgroundColor #1b1b1a
	BorderColor #5e5e5e
	FontSize 11
	FontColor #a0a0a0
}


skinparam artifact {
	BorderThickness 10
	BorderColor #5e5e5e
	BackgroundColor #1b1b1a
	FontColor #D8Bc00
}


skinparam component {
		FontColor #C8Ac00
	BorderColor #333333
	BackgroundColor #333333-#333333
}


skinparam interface {
	BackgroundColor  #008400
	BorderColor  #007F00
	FontColor #484848
}


skinparam storage {
	BackgroundColor #ff8000
  	BorderColor #cc6600
	FontColor #222222
}


skinparam node {
	BackgroundColor #333333
	BorderColor #333333
	FontColor #C8Ac00
}


skinparam cloud {
	BackgroundColor #484848-black
	BorderColor #484848
	FontColor #D8Bc00
}


skinparam database {
		FontColor #C8Ac00
	BorderColor #333333
	BackgroundColor #333333-#333333
	BackgroundColor  #333333
}


skinparam class {
		FontColor #C8Ac00
	BorderColor #333333
	BackgroundColor #333333-#333333
	HeaderBackgroundColor #1b1b1a
    BackgroundColor #282828
    BorderColor #5e5e5e
 	StereotypeFontColor #a0a0a0
    StereotypeFontStyle bold
	BorderThickness 1
	AttributeFontColor #D8Bc00
	AttributeFontSize 11
    FontColor #D8Bc00
    FontStyle bold
}


skinparam object {
		FontColor #C8Ac00
	BorderColor #333333
	BackgroundColor #333333-#333333
	StereotypeFontColor #484848
	BorderThickness 1
	AttributeFontColor #fefefe
	AttributeFontSize 11
}


skinparam usecase {
		FontColor #C8Ac00
	BorderColor #333333
	BackgroundColor #333333-#333333
	BorderThickness 2
	StereotypeFontColor #303030
}


skinparam rectangle {
		FontColor #C8Ac00
	BorderColor #333333
	BackgroundColor #333333-#333333
	BackgroundColor #333333
	BorderThickness 2
	StereotypeFontColor #303030
}


skinparam package {
		FontColor #C8Ac00
	BorderColor #333333
	BackgroundColor #333333-#333333
	BackgroundColor #333333
	BorderThickness 2
}


skinparam folder {
	BackgroundColor #6d6d6d
  	BorderColor #ff8000
	FontColor #ff8000
	BorderThickness 2
}


skinparam frame {
	BackgroundColor #6d6d6d
  	BorderColor #0060a8
	FontColor #0060a8
	BorderThickness 2
}


skinparam state {
		FontColor #C8Ac00
	BorderColor #333333
	BackgroundColor #333333-#333333
	StartColor #0060a8
	EndColor #0060a8
	AttributeFontColor #fefefe
	AttributeFontSize 11
}


skinparam queue {
		FontColor #C8Ac00
	BorderColor #333333
	BackgroundColor #333333-#333333
}


skinparam card {
	BackgroundColor #0060a8
	BorderColor #004d86
	FontColor $INFO_TEXT
}


skinparam file {
	BackgroundColor #6d6d6d-#484848
	BorderColor #0060a8
	FontColor #fefefe
}


skinparam stack {
		FontColor #C8Ac00
	BorderColor #333333
	BackgroundColor #333333-#333333
}

    
    title "org.apache.wicket.examples.hellobrowser"
    
    WicketExamplePage <|- - HelloBrowser
    class HelloBrowser
    {
        - -(constructors)- -
        +HelloBrowser()
    }
    
    WicketExampleApplication <|- - HelloBrowserApplication
    class HelloBrowserApplication
    {
    }
    
@enduml

PlantUML version 1.2021.01(Tue Feb 02 00:55:08 MST 2021)
(GPL source distribution)
Java Runtime: Java(TM) SE Runtime Environment
JVM: Java HotSpot(TM) 64-Bit Server VM
Default Encoding: UTF-8
Language: en
Country: US
--></g></svg>