<?xml version="1.0" encoding="UTF-8" standalone="no"?><svg xmlns="http://www.w3.org/2000/svg" xmlns:xlink="http://www.w3.org/1999/xlink" contentScriptType="application/ecmascript" contentStyleType="text/css" height="377.0833px" preserveAspectRatio="none" style="width:1543px;height:377px;background:#333333;" version="1.1" viewBox="0 0 1543 377" width="1543.75px" zoomAndPan="magnify"><defs/><g><rect fill="#48494B" height="41.2028" rx="8.3333" ry="8.3333" style="stroke:#545454;stroke-width:1.0416666666666667;" width="387.5" x="570.8333" y="2.0833"/><text fill="#C0C0C0" font-family="Open Sans,Avenir,Nunito,Arial,Helvetica,SansSerif" font-size="20.8333" lengthAdjust="spacing" textLength="364.5833" x="582.2917" y="30.5583">org.apache.wicket.examples.velocity</text><!--MD5=[47c750aaacf237258c674c3edf1e4e06]
cluster TemplatePage--><polygon fill="#333333" points="1064.5833,176.6195,1167.7083,176.6195,1175,203.8411,1288.5417,203.8411,1288.5417,333.9111,1064.5833,333.9111,1064.5833,176.6195" style="stroke:#333333;stroke-width:2.0833333333333335;"/><line style="stroke:#333333;stroke-width:2.0833333333333335;" x1="1064.5833" x2="1175" y1="203.8411" y2="203.8411"/><text fill="#C8AC00" font-family="Open Sans,Avenir,Nunito,Arial,Helvetica,SansSerif" font-size="12.5" font-weight="bold" lengthAdjust="spacing" textLength="90.625" x="1071.875" y="193.9128">TemplatePage</text><!--MD5=[fd347ac12dcd028c9c0a56199a2449f5]
class TemplatePage.TemplateForm--><rect codeLine="45" fill="#282828" height="83.3781" id="TemplatePage.TemplateForm" rx="8.3333" ry="8.3333" style="stroke:#5E5E5E;stroke-width:1.0416666666666667;" width="154.1667" x="1109.375" y="225.5778"/><rect fill="#1B1B1A" height="31.3883" rx="8.3333" ry="8.3333" style="stroke:#1B1B1A;stroke-width:1.0416666666666667;" width="154.1667" x="1109.375" y="225.5778"/><rect fill="#1B1B1A" height="8.3333" style="stroke:#1B1B1A;stroke-width:1.0416666666666667;" width="154.1667" x="1109.375" y="248.6328"/><rect codeLine="45" fill="none" height="83.3781" id="TemplatePage.TemplateForm" rx="8.3333" ry="8.3333" style="stroke:#5E5E5E;stroke-width:1.0416666666666667;" width="154.1667" x="1109.375" y="225.5778"/><ellipse cx="1134.2708" cy="241.272" fill="#0066CF" rx="10.4167" ry="10.4167" style="stroke:#0086EF;stroke-width:1.0416666666666667;"/><path d="M1136.1812,245.697 Q1135.754,245.9167 1135.284,246.0266 Q1134.814,246.1365 1134.2952,246.1365 Q1132.452,246.1365 1131.4815,244.9219 Q1130.5111,243.7073 1130.5111,241.4124 Q1130.5111,239.1113 1131.4815,237.8967 Q1132.452,236.6821 1134.2952,236.6821 Q1134.814,236.6821 1135.2901,236.792 Q1135.7662,236.9019 1136.1812,237.1216 L1136.1812,239.1235 Q1135.7174,238.6963 1135.281,238.4979 Q1134.8446,238.2996 1134.3807,238.2996 Q1133.3919,238.2996 1132.8884,239.0839 Q1132.3848,239.8682 1132.3848,241.4124 Q1132.3848,242.9504 1132.8884,243.7347 Q1133.3919,244.519 1134.3807,244.519 Q1134.8446,244.519 1135.281,244.3207 Q1135.7174,244.1223 1136.1812,243.6951 Z " fill="#000000"/><text fill="#D8BC00" font-family="Open Sans,Avenir,Nunito,Arial,Helvetica,SansSerif" font-size="12.5" font-weight="bold" lengthAdjust="spacing" textLength="93.75" x="1153.2292" y="245.9961">TemplateForm</text><line style="stroke:#5E5E5E;stroke-width:1.5625;" x1="1110.4167" x2="1262.5" y1="256.9661" y2="256.9661"/><ellipse cx="1120.8333" cy="292.336" fill="#84BE84" rx="3.125" ry="3.125" style="stroke:#038048;stroke-width:1.0416666666666667;"/><text fill="#D8BC00" font-family="Open Sans,Avenir,Nunito,Arial,Helvetica,SansSerif" font-size="11.4583" lengthAdjust="spacing" textLength="121.875" x="1132.2917" y="299.2472">TemplateForm(String)</text><line style="stroke:#5E5E5E;stroke-width:1.0416666666666667;" x1="1110.4167" x2="1142.7083" y1="275.1719" y2="275.1719"/><text fill="#D8BC00" font-family="Open Sans,Avenir,Nunito,Arial,Helvetica,SansSerif" font-size="11.4583" lengthAdjust="spacing" textLength="81.25" x="1145.8333" y="278.9815">(constructors)</text><line style="stroke:#5E5E5E;stroke-width:1.0416666666666667;" x1="1230.2083" x2="1262.5" y1="275.1719" y2="275.1719"/><!--MD5=[cc3de0a176daa3c4ec875deafdf5ddd1]
class Serializable--><rect codeLine="6" fill="#282828" height="48.055" id="Serializable" rx="8.3333" ry="8.3333" style="stroke:#5E5E5E;stroke-width:1.0416666666666667;" width="111.4583" x="142.1875" y="53.7028"/><rect fill="#1B1B1A" height="31.3883" rx="8.3333" ry="8.3333" style="stroke:#1B1B1A;stroke-width:1.0416666666666667;" width="111.4583" x="142.1875" y="53.7028"/><rect fill="#1B1B1A" height="8.3333" style="stroke:#1B1B1A;stroke-width:1.0416666666666667;" width="111.4583" x="142.1875" y="76.7578"/><rect codeLine="6" fill="none" height="48.055" id="Serializable" rx="8.3333" ry="8.3333" style="stroke:#5E5E5E;stroke-width:1.0416666666666667;" width="111.4583" x="142.1875" y="53.7028"/><ellipse cx="156.7708" cy="69.397" fill="#008400" rx="10.4167" ry="10.4167" style="stroke:#239C23;stroke-width:1.0416666666666667;"/><path d="M154.1748,66.5588 L154.1748,64.9719 L159.6008,64.9719 L159.6008,66.5588 L157.7881,66.5588 L157.7881,72.4976 L159.6008,72.4976 L159.6008,74.0845 L154.1748,74.0845 L154.1748,72.4976 L155.9875,72.4976 L155.9875,66.5588 Z " fill="#000000"/><text fill="#D8BC00" font-family="Open Sans,Avenir,Nunito,Arial,Helvetica,SansSerif" font-size="12.5" font-style="italic" font-weight="bold" lengthAdjust="spacing" textLength="73.9583" x="173.4375" y="74.1211">Serializable</text><line style="stroke:#5E5E5E;stroke-width:1.0416666666666667;" x1="143.2292" x2="252.6042" y1="85.0911" y2="85.0911"/><line style="stroke:#5E5E5E;stroke-width:1.0416666666666667;" x1="143.2292" x2="252.6042" y1="93.4245" y2="93.4245"/><!--MD5=[8de0e4c819f220f8e0c4c4df41ba59ce]
class WicketExamplePage--><rect fill="#282828" height="48.055" id="WicketExamplePage" rx="8.3333" ry="8.3333" style="stroke:#5E5E5E;stroke-width:1.0416666666666667;" width="164.5833" x="659.375" y="53.7028"/><rect fill="#1B1B1A" height="31.3883" rx="8.3333" ry="8.3333" style="stroke:#1B1B1A;stroke-width:1.0416666666666667;" width="164.5833" x="659.375" y="53.7028"/><rect fill="#1B1B1A" height="8.3333" style="stroke:#1B1B1A;stroke-width:1.0416666666666667;" width="164.5833" x="659.375" y="76.7578"/><rect fill="none" height="48.055" id="WicketExamplePage" rx="8.3333" ry="8.3333" style="stroke:#5E5E5E;stroke-width:1.0416666666666667;" width="164.5833" x="659.375" y="53.7028"/><ellipse cx="673.9583" cy="69.397" fill="#0066CF" rx="10.4167" ry="10.4167" style="stroke:#0086EF;stroke-width:1.0416666666666667;"/><path d="M675.8687,73.822 Q675.4415,74.0417 674.9715,74.1516 Q674.5015,74.2615 673.9827,74.2615 Q672.1395,74.2615 671.169,73.0469 Q670.1986,71.8323 670.1986,69.5374 Q670.1986,67.2363 671.169,66.0217 Q672.1395,64.8071 673.9827,64.8071 Q674.5015,64.8071 674.9776,64.917 Q675.4537,65.0269 675.8687,65.2466 L675.8687,67.2485 Q675.4049,66.8213 674.9685,66.6229 Q674.5321,66.4246 674.0682,66.4246 Q673.0794,66.4246 672.5759,67.2089 Q672.0723,67.9932 672.0723,69.5374 Q672.0723,71.0754 672.5759,71.8597 Q673.0794,72.644 674.0682,72.644 Q674.5321,72.644 674.9685,72.4457 Q675.4049,72.2473 675.8687,71.8201 Z " fill="#000000"/><text fill="#D8BC00" font-family="Open Sans,Avenir,Nunito,Arial,Helvetica,SansSerif" font-size="12.5" font-weight="bold" lengthAdjust="spacing" textLength="127.0833" x="690.625" y="74.1211">WicketExamplePage</text><line style="stroke:#5E5E5E;stroke-width:1.0416666666666667;" x1="660.4167" x2="822.9167" y1="85.0911" y2="85.0911"/><line style="stroke:#5E5E5E;stroke-width:1.0416666666666667;" x1="660.4167" x2="822.9167" y1="93.4245" y2="93.4245"/><!--MD5=[a7715d0be42dff070792f7842d4fa398]
class DynamicPage--><rect codeLine="9" fill="#282828" height="83.3781" id="DynamicPage" rx="8.3333" ry="8.3333" style="stroke:#5E5E5E;stroke-width:1.0416666666666667;" width="203.125" x="464.0625" y="225.5778"/><rect fill="#1B1B1A" height="31.3883" rx="8.3333" ry="8.3333" style="stroke:#1B1B1A;stroke-width:1.0416666666666667;" width="203.125" x="464.0625" y="225.5778"/><rect fill="#1B1B1A" height="8.3333" style="stroke:#1B1B1A;stroke-width:1.0416666666666667;" width="203.125" x="464.0625" y="248.6328"/><rect codeLine="9" fill="none" height="83.3781" id="DynamicPage" rx="8.3333" ry="8.3333" style="stroke:#5E5E5E;stroke-width:1.0416666666666667;" width="203.125" x="464.0625" y="225.5778"/><ellipse cx="515.1042" cy="241.272" fill="#0066CF" rx="10.4167" ry="10.4167" style="stroke:#0086EF;stroke-width:1.0416666666666667;"/><path d="M517.0146,245.697 Q516.5873,245.9167 516.1174,246.0266 Q515.6474,246.1365 515.1286,246.1365 Q513.2853,246.1365 512.3149,244.9219 Q511.3444,243.7073 511.3444,241.4124 Q511.3444,239.1113 512.3149,237.8967 Q513.2853,236.6821 515.1286,236.6821 Q515.6474,236.6821 516.1235,236.792 Q516.5995,236.9019 517.0146,237.1216 L517.0146,239.1235 Q516.5507,238.6963 516.1143,238.4979 Q515.6779,238.2996 515.214,238.2996 Q514.2253,238.2996 513.7217,239.0839 Q513.2182,239.8682 513.2182,241.4124 Q513.2182,242.9504 513.7217,243.7347 Q514.2253,244.519 515.214,244.519 Q515.6779,244.519 516.1143,244.3207 Q516.5507,244.1223 517.0146,243.6951 Z " fill="#000000"/><text fill="#D8BC00" font-family="Open Sans,Avenir,Nunito,Arial,Helvetica,SansSerif" font-size="12.5" font-weight="bold" lengthAdjust="spacing" textLength="86.4583" x="538.0208" y="245.9961">DynamicPage</text><line style="stroke:#5E5E5E;stroke-width:1.5625;" x1="465.1042" x2="666.1458" y1="256.9661" y2="256.9661"/><ellipse cx="475.5208" cy="292.336" fill="#84BE84" rx="3.125" ry="3.125" style="stroke:#038048;stroke-width:1.0416666666666667;"/><text fill="#D8BC00" font-family="Open Sans,Avenir,Nunito,Arial,Helvetica,SansSerif" font-size="11.4583" lengthAdjust="spacing" textLength="170.8333" x="486.9792" y="299.2472">DynamicPage(PageParameters)</text><line style="stroke:#5E5E5E;stroke-width:1.0416666666666667;" x1="465.1042" x2="521.875" y1="275.1719" y2="275.1719"/><text fill="#D8BC00" font-family="Open Sans,Avenir,Nunito,Arial,Helvetica,SansSerif" font-size="11.4583" lengthAdjust="spacing" textLength="81.25" x="525" y="278.9815">(constructors)</text><line style="stroke:#5E5E5E;stroke-width:1.0416666666666667;" x1="609.375" x2="666.1458" y1="275.1719" y2="275.1719"/><!--MD5=[d9427b671d7d049aff2d6f2fe36a13b3]
class Field--><rect codeLine="16" fill="#282828" height="170.6909" id="Field" rx="8.3333" ry="8.3333" style="stroke:#5E5E5E;stroke-width:1.0416666666666667;" width="152.0833" x="7.2917" y="181.8278"/><rect fill="#1B1B1A" height="31.3883" rx="8.3333" ry="8.3333" style="stroke:#1B1B1A;stroke-width:1.0416666666666667;" width="152.0833" x="7.2917" y="181.8278"/><rect fill="#1B1B1A" height="8.3333" style="stroke:#1B1B1A;stroke-width:1.0416666666666667;" width="152.0833" x="7.2917" y="204.8828"/><rect codeLine="16" fill="none" height="170.6909" id="Field" rx="8.3333" ry="8.3333" style="stroke:#5E5E5E;stroke-width:1.0416666666666667;" width="152.0833" x="7.2917" y="181.8278"/><ellipse cx="60.4167" cy="197.522" fill="#0066CF" rx="10.4167" ry="10.4167" style="stroke:#0086EF;stroke-width:1.0416666666666667;"/><path d="M62.3271,201.947 Q61.8998,202.1667 61.4299,202.2766 Q60.9599,202.3865 60.4411,202.3865 Q58.5978,202.3865 57.6274,201.1719 Q56.6569,199.9573 56.6569,197.6624 Q56.6569,195.3613 57.6274,194.1467 Q58.5978,192.9321 60.4411,192.9321 Q60.9599,192.9321 61.436,193.042 Q61.912,193.1519 62.3271,193.3716 L62.3271,195.3735 Q61.8632,194.9463 61.4268,194.7479 Q60.9904,194.5496 60.5265,194.5496 Q59.5378,194.5496 59.0342,195.3339 Q58.5307,196.1182 58.5307,197.6624 Q58.5307,199.2004 59.0342,199.9847 Q59.5378,200.769 60.5265,200.769 Q60.9904,200.769 61.4268,200.5707 Q61.8632,200.3723 62.3271,199.9451 Z " fill="#000000"/><text fill="#D8BC00" font-family="Open Sans,Avenir,Nunito,Arial,Helvetica,SansSerif" font-size="12.5" font-weight="bold" lengthAdjust="spacing" textLength="31.25" x="83.3333" y="202.2461">Field</text><line style="stroke:#5E5E5E;stroke-width:1.5625;" x1="8.3333" x2="158.3333" y1="213.2161" y2="213.2161"/><ellipse cx="18.75" cy="248.586" fill="#84BE84" rx="3.125" ry="3.125" style="stroke:#038048;stroke-width:1.0416666666666667;"/><text fill="#D8BC00" font-family="Open Sans,Avenir,Nunito,Arial,Helvetica,SansSerif" font-size="11.4583" lengthAdjust="spacing" textLength="88.5417" x="30.2083" y="255.4972">Field(String, int)</text><line style="stroke:#5E5E5E;stroke-width:1.0416666666666667;" x1="8.3333" x2="39.5833" y1="231.4219" y2="231.4219"/><text fill="#D8BC00" font-family="Open Sans,Avenir,Nunito,Arial,Helvetica,SansSerif" font-size="11.4583" lengthAdjust="spacing" textLength="81.25" x="42.7083" y="235.2315">(constructors)</text><line style="stroke:#5E5E5E;stroke-width:1.0416666666666667;" x1="127.0833" x2="158.3333" y1="231.4219" y2="231.4219"/><ellipse cx="18.75" cy="292.2424" fill="#84BE84" rx="3.125" ry="3.125" style="stroke:#038048;stroke-width:1.0416666666666667;"/><text fill="#D8BC00" font-family="Open Sans,Avenir,Nunito,Arial,Helvetica,SansSerif" font-size="11.4583" lengthAdjust="spacing" textLength="91.6667" x="30.2083" y="299.1536">int getFieldSize()</text><line style="stroke:#5E5E5E;stroke-width:1.0416666666666667;" x1="8.3333" x2="48.9583" y1="275.0783" y2="275.0783"/><text fill="#D8BC00" font-family="Open Sans,Avenir,Nunito,Arial,Helvetica,SansSerif" font-size="11.4583" lengthAdjust="spacing" textLength="62.5" x="52.0833" y="278.8879">(collection)</text><line style="stroke:#5E5E5E;stroke-width:1.0416666666666667;" x1="117.7083" x2="158.3333" y1="275.0783" y2="275.0783"/><ellipse cx="18.75" cy="335.8988" fill="#84BE84" rx="3.125" ry="3.125" style="stroke:#038048;stroke-width:1.0416666666666667;"/><text fill="#D8BC00" font-family="Open Sans,Avenir,Nunito,Arial,Helvetica,SansSerif" font-size="11.4583" lengthAdjust="spacing" textLength="119.7917" x="30.2083" y="342.8101">String getFieldName()</text><line style="stroke:#5E5E5E;stroke-width:1.0416666666666667;" x1="8.3333" x2="55.2083" y1="318.7347" y2="318.7347"/><text fill="#D8BC00" font-family="Open Sans,Avenir,Nunito,Arial,Helvetica,SansSerif" font-size="11.4583" lengthAdjust="spacing" textLength="50" x="58.3333" y="322.5444">(naming)</text><line style="stroke:#5E5E5E;stroke-width:1.0416666666666667;" x1="111.4583" x2="158.3333" y1="318.7347" y2="318.7347"/><!--MD5=[85bae912d113bb0b86a623a745020199]
class Home--><rect codeLine="27" fill="#282828" height="48.055" id="Home" rx="8.3333" ry="8.3333" style="stroke:#5E5E5E;stroke-width:1.0416666666666667;" width="75" x="704.1667" y="243.2861"/><rect fill="#1B1B1A" height="31.3883" rx="8.3333" ry="8.3333" style="stroke:#1B1B1A;stroke-width:1.0416666666666667;" width="75" x="704.1667" y="243.2861"/><rect fill="#1B1B1A" height="8.3333" style="stroke:#1B1B1A;stroke-width:1.0416666666666667;" width="75" x="704.1667" y="266.3411"/><rect codeLine="27" fill="none" height="48.055" id="Home" rx="8.3333" ry="8.3333" style="stroke:#5E5E5E;stroke-width:1.0416666666666667;" width="75" x="704.1667" y="243.2861"/><ellipse cx="718.75" cy="258.9803" fill="#0066CF" rx="10.4167" ry="10.4167" style="stroke:#0086EF;stroke-width:1.0416666666666667;"/><path d="M720.6604,263.4054 Q720.2332,263.6251 719.7632,263.7349 Q719.2932,263.8448 718.7744,263.8448 Q716.9312,263.8448 715.9607,262.6302 Q714.9902,261.4156 714.9902,259.1207 Q714.9902,256.8197 715.9607,255.6051 Q716.9312,254.3905 718.7744,254.3905 Q719.2932,254.3905 719.7693,254.5003 Q720.2454,254.6102 720.6604,254.8299 L720.6604,256.8319 Q720.1965,256.4046 719.7601,256.2063 Q719.3237,256.0079 718.8599,256.0079 Q717.8711,256.0079 717.3676,256.7922 Q716.864,257.5765 716.864,259.1207 Q716.864,260.6588 717.3676,261.4431 Q717.8711,262.2274 718.8599,262.2274 Q719.3237,262.2274 719.7601,262.029 Q720.1965,261.8306 720.6604,261.4034 Z " fill="#000000"/><text fill="#D8BC00" font-family="Open Sans,Avenir,Nunito,Arial,Helvetica,SansSerif" font-size="12.5" font-weight="bold" lengthAdjust="spacing" textLength="37.5" x="735.4167" y="263.7044">Home</text><line style="stroke:#5E5E5E;stroke-width:1.0416666666666667;" x1="705.2083" x2="778.125" y1="274.6745" y2="274.6745"/><line style="stroke:#5E5E5E;stroke-width:1.0416666666666667;" x1="705.2083" x2="778.125" y1="283.0078" y2="283.0078"/><!--MD5=[09ce52be0ee7de43c61b6e2d59bf108b]
class Person--><rect codeLine="32" fill="#282828" height="206.014" id="Person" rx="8.3333" ry="8.3333" style="stroke:#5E5E5E;stroke-width:1.0416666666666667;" width="231.25" x="195.8333" y="164.1195"/><rect fill="#1B1B1A" height="31.3883" rx="8.3333" ry="8.3333" style="stroke:#1B1B1A;stroke-width:1.0416666666666667;" width="231.25" x="195.8333" y="164.1195"/><rect fill="#1B1B1A" height="8.3333" style="stroke:#1B1B1A;stroke-width:1.0416666666666667;" width="231.25" x="195.8333" y="187.1745"/><rect codeLine="32" fill="none" height="206.014" id="Person" rx="8.3333" ry="8.3333" style="stroke:#5E5E5E;stroke-width:1.0416666666666667;" width="231.25" x="195.8333" y="164.1195"/><ellipse cx="282.2917" cy="179.8136" fill="#0066CF" rx="10.4167" ry="10.4167" style="stroke:#0086EF;stroke-width:1.0416666666666667;"/><path d="M284.2021,184.2387 Q283.7748,184.4584 283.3049,184.5683 Q282.8349,184.6781 282.3161,184.6781 Q280.4728,184.6781 279.5024,183.4635 Q278.5319,182.2489 278.5319,179.954 Q278.5319,177.653 279.5024,176.4384 Q280.4728,175.2238 282.3161,175.2238 Q282.8349,175.2238 283.311,175.3337 Q283.787,175.4435 284.2021,175.6632 L284.2021,177.6652 Q283.7382,177.238 283.3018,177.0396 Q282.8654,176.8412 282.4015,176.8412 Q281.4128,176.8412 280.9092,177.6255 Q280.4057,178.4098 280.4057,179.954 Q280.4057,181.4921 280.9092,182.2764 Q281.4128,183.0607 282.4015,183.0607 Q282.8654,183.0607 283.3018,182.8623 Q283.7382,182.664 284.2021,182.2367 Z " fill="#000000"/><text fill="#D8BC00" font-family="Open Sans,Avenir,Nunito,Arial,Helvetica,SansSerif" font-size="12.5" font-weight="bold" lengthAdjust="spacing" textLength="43.75" x="305.2083" y="184.5378">Person</text><line style="stroke:#5E5E5E;stroke-width:1.5625;" x1="196.875" x2="426.0417" y1="195.5078" y2="195.5078"/><ellipse cx="207.2917" cy="230.8777" fill="#84BE84" rx="3.125" ry="3.125" style="stroke:#038048;stroke-width:1.0416666666666667;"/><text fill="#D8BC00" font-family="Open Sans,Avenir,Nunito,Arial,Helvetica,SansSerif" font-size="11.4583" lengthAdjust="spacing" textLength="46.875" x="218.75" y="237.7889">Person()</text><ellipse cx="207.2917" cy="250.6226" fill="#84BE84" rx="3.125" ry="3.125" style="stroke:#038048;stroke-width:1.0416666666666667;"/><text fill="#D8BC00" font-family="Open Sans,Avenir,Nunito,Arial,Helvetica,SansSerif" font-size="11.4583" lengthAdjust="spacing" textLength="119.7917" x="218.75" y="257.5338">Person(String, String)</text><line style="stroke:#5E5E5E;stroke-width:1.0416666666666667;" x1="196.875" x2="267.7083" y1="213.7136" y2="213.7136"/><text fill="#D8BC00" font-family="Open Sans,Avenir,Nunito,Arial,Helvetica,SansSerif" font-size="11.4583" lengthAdjust="spacing" textLength="81.25" x="270.8333" y="217.5232">(constructors)</text><line style="stroke:#5E5E5E;stroke-width:1.0416666666666667;" x1="355.2083" x2="426.0417" y1="213.7136" y2="213.7136"/><ellipse cx="207.2917" cy="294.279" fill="#84BE84" rx="3.125" ry="3.125" style="stroke:#038048;stroke-width:1.0416666666666667;"/><text fill="#D8BC00" font-family="Open Sans,Avenir,Nunito,Arial,Helvetica,SansSerif" font-size="11.4583" lengthAdjust="spacing" textLength="118.75" x="218.75" y="301.1902">String getFirstName()</text><ellipse cx="207.2917" cy="314.0238" fill="#84BE84" rx="3.125" ry="3.125" style="stroke:#038048;stroke-width:1.0416666666666667;"/><text fill="#D8BC00" font-family="Open Sans,Avenir,Nunito,Arial,Helvetica,SansSerif" font-size="11.4583" lengthAdjust="spacing" textLength="116.6667" x="218.75" y="320.9351">String getLastName()</text><ellipse cx="207.2917" cy="333.7687" fill="#84BE84" rx="3.125" ry="3.125" style="stroke:#038048;stroke-width:1.0416666666666667;"/><text fill="#D8BC00" font-family="Open Sans,Avenir,Nunito,Arial,Helvetica,SansSerif" font-size="11.4583" lengthAdjust="spacing" textLength="198.9583" x="218.75" y="340.6799">void setFirstName(String firstName)</text><ellipse cx="207.2917" cy="353.5136" fill="#84BE84" rx="3.125" ry="3.125" style="stroke:#038048;stroke-width:1.0416666666666667;"/><text fill="#D8BC00" font-family="Open Sans,Avenir,Nunito,Arial,Helvetica,SansSerif" font-size="11.4583" lengthAdjust="spacing" textLength="193.75" x="218.75" y="360.4248">void setLastName(String lastName)</text><line style="stroke:#5E5E5E;stroke-width:1.0416666666666667;" x1="196.875" x2="277.0833" y1="277.1149" y2="277.1149"/><text fill="#D8BC00" font-family="Open Sans,Avenir,Nunito,Arial,Helvetica,SansSerif" font-size="11.4583" lengthAdjust="spacing" textLength="62.5" x="280.2083" y="280.9245">(collection)</text><line style="stroke:#5E5E5E;stroke-width:1.0416666666666667;" x1="345.8333" x2="426.0417" y1="277.1149" y2="277.1149"/><!--MD5=[6f29f313cd4199edbf91b9ce3a4faa98]
class Form--><rect fill="#282828" height="48.055" id="Form" rx="8.3333" ry="8.3333" style="stroke:#5E5E5E;stroke-width:1.0416666666666667;" width="70.8333" x="1151.0417" y="53.7028"/><rect fill="#1B1B1A" height="31.3883" rx="8.3333" ry="8.3333" style="stroke:#1B1B1A;stroke-width:1.0416666666666667;" width="70.8333" x="1151.0417" y="53.7028"/><rect fill="#1B1B1A" height="8.3333" style="stroke:#1B1B1A;stroke-width:1.0416666666666667;" width="70.8333" x="1151.0417" y="76.7578"/><rect fill="none" height="48.055" id="Form" rx="8.3333" ry="8.3333" style="stroke:#5E5E5E;stroke-width:1.0416666666666667;" width="70.8333" x="1151.0417" y="53.7028"/><ellipse cx="1165.625" cy="69.397" fill="#0066CF" rx="10.4167" ry="10.4167" style="stroke:#0086EF;stroke-width:1.0416666666666667;"/><path d="M1167.5354,73.822 Q1167.1082,74.0417 1166.6382,74.1516 Q1166.1682,74.2615 1165.6494,74.2615 Q1163.8062,74.2615 1162.8357,73.0469 Q1161.8652,71.8323 1161.8652,69.5374 Q1161.8652,67.2363 1162.8357,66.0217 Q1163.8062,64.8071 1165.6494,64.8071 Q1166.1682,64.8071 1166.6443,64.917 Q1167.1204,65.0269 1167.5354,65.2466 L1167.5354,67.2485 Q1167.0715,66.8213 1166.6351,66.6229 Q1166.1987,66.4246 1165.7349,66.4246 Q1164.7461,66.4246 1164.2426,67.2089 Q1163.739,67.9932 1163.739,69.5374 Q1163.739,71.0754 1164.2426,71.8597 Q1164.7461,72.644 1165.7349,72.644 Q1166.1987,72.644 1166.6351,72.4457 Q1167.0715,72.2473 1167.5354,71.8201 Z " fill="#000000"/><text fill="#D8BC00" font-family="Open Sans,Avenir,Nunito,Arial,Helvetica,SansSerif" font-size="12.5" font-weight="bold" lengthAdjust="spacing" textLength="33.3333" x="1182.2917" y="74.1211">Form</text><line style="stroke:#5E5E5E;stroke-width:1.0416666666666667;" x1="1152.0833" x2="1220.8333" y1="85.0911" y2="85.0911"/><line style="stroke:#5E5E5E;stroke-width:1.0416666666666667;" x1="1152.0833" x2="1220.8333" y1="93.4245" y2="93.4245"/><!--MD5=[d8121754e85cb79a2bca62b47d45134d]
class TemplatePage--><rect codeLine="52" fill="#282828" height="131.2012" id="TemplatePage" rx="8.3333" ry="8.3333" style="stroke:#5E5E5E;stroke-width:1.0416666666666667;" width="219.7917" x="816.1458" y="201.6195"/><rect fill="#1B1B1A" height="31.3883" rx="8.3333" ry="8.3333" style="stroke:#1B1B1A;stroke-width:1.0416666666666667;" width="219.7917" x="816.1458" y="201.6195"/><rect fill="#1B1B1A" height="8.3333" style="stroke:#1B1B1A;stroke-width:1.0416666666666667;" width="219.7917" x="816.1458" y="224.6745"/><rect codeLine="52" fill="none" height="131.2012" id="TemplatePage" rx="8.3333" ry="8.3333" style="stroke:#5E5E5E;stroke-width:1.0416666666666667;" width="219.7917" x="816.1458" y="201.6195"/><ellipse cx="873.4375" cy="217.3136" fill="#0066CF" rx="10.4167" ry="10.4167" style="stroke:#0086EF;stroke-width:1.0416666666666667;"/><path d="M875.3479,221.7387 Q874.9207,221.9584 874.4507,222.0683 Q873.9807,222.1781 873.4619,222.1781 Q871.6187,222.1781 870.6482,220.9635 Q869.6777,219.7489 869.6777,217.454 Q869.6777,215.153 870.6482,213.9384 Q871.6187,212.7238 873.4619,212.7238 Q873.9807,212.7238 874.4568,212.8337 Q874.9329,212.9435 875.3479,213.1632 L875.3479,215.1652 Q874.884,214.738 874.4476,214.5396 Q874.0112,214.3412 873.5474,214.3412 Q872.5586,214.3412 872.0551,215.1255 Q871.5515,215.9098 871.5515,217.454 Q871.5515,218.9921 872.0551,219.7764 Q872.5586,220.5607 873.5474,220.5607 Q874.0112,220.5607 874.4476,220.3623 Q874.884,220.164 875.3479,219.7367 Z " fill="#000000"/><text fill="#D8BC00" font-family="Open Sans,Avenir,Nunito,Arial,Helvetica,SansSerif" font-size="12.5" font-weight="bold" lengthAdjust="spacing" textLength="90.625" x="896.3542" y="222.0378">TemplatePage</text><line style="stroke:#5E5E5E;stroke-width:1.5625;" x1="817.1875" x2="1034.8958" y1="233.0078" y2="233.0078"/><ellipse cx="827.6042" cy="268.3777" fill="#84BE84" rx="3.125" ry="3.125" style="stroke:#038048;stroke-width:1.0416666666666667;"/><text fill="#D8BC00" font-family="Open Sans,Avenir,Nunito,Arial,Helvetica,SansSerif" font-size="11.4583" lengthAdjust="spacing" textLength="173.9583" x="839.0625" y="275.2889">TemplatePage(PageParameters)</text><line style="stroke:#5E5E5E;stroke-width:1.0416666666666667;" x1="817.1875" x2="882.2917" y1="251.2136" y2="251.2136"/><text fill="#D8BC00" font-family="Open Sans,Avenir,Nunito,Arial,Helvetica,SansSerif" font-size="11.4583" lengthAdjust="spacing" textLength="81.25" x="885.4167" y="255.0232">(constructors)</text><line style="stroke:#5E5E5E;stroke-width:1.0416666666666667;" x1="969.7917" x2="1034.8958" y1="251.2136" y2="251.2136"/><line style="stroke:#5E5E5E;stroke-width:1.0416666666666667;" x1="817.1875" x2="1034.8958" y1="284.9976" y2="284.9976"/><ellipse cx="827.6042" cy="296.4559" fill="#84BE84" rx="3.125" ry="3.125" style="stroke:#038048;stroke-width:1.0416666666666667;"/><text fill="#D8BC00" font-family="Open Sans,Avenir,Nunito,Arial,Helvetica,SansSerif" font-size="11.4583" lengthAdjust="spacing" textLength="113.5417" x="839.0625" y="303.3671">String getTemplate()</text><ellipse cx="827.6042" cy="316.2008" fill="#84BE84" rx="3.125" ry="3.125" style="stroke:#038048;stroke-width:1.0416666666666667;"/><text fill="#D8BC00" font-family="Open Sans,Avenir,Nunito,Arial,Helvetica,SansSerif" font-size="11.4583" lengthAdjust="spacing" textLength="187.5" x="839.0625" y="323.112">void setTemplate(String template)</text><!--MD5=[818b680dd029f5404dc253254408b9c3]
class WicketExampleApplication--><rect fill="#282828" height="48.055" id="WicketExampleApplication" rx="8.3333" ry="8.3333" style="stroke:#5E5E5E;stroke-width:1.0416666666666667;" width="208.3333" x="1320.8333" y="53.7028"/><rect fill="#1B1B1A" height="31.3883" rx="8.3333" ry="8.3333" style="stroke:#1B1B1A;stroke-width:1.0416666666666667;" width="208.3333" x="1320.8333" y="53.7028"/><rect fill="#1B1B1A" height="8.3333" style="stroke:#1B1B1A;stroke-width:1.0416666666666667;" width="208.3333" x="1320.8333" y="76.7578"/><rect fill="none" height="48.055" id="WicketExampleApplication" rx="8.3333" ry="8.3333" style="stroke:#5E5E5E;stroke-width:1.0416666666666667;" width="208.3333" x="1320.8333" y="53.7028"/><ellipse cx="1335.4167" cy="69.397" fill="#0066CF" rx="10.4167" ry="10.4167" style="stroke:#0086EF;stroke-width:1.0416666666666667;"/><path d="M1337.3271,73.822 Q1336.8998,74.0417 1336.4299,74.1516 Q1335.9599,74.2615 1335.4411,74.2615 Q1333.5978,74.2615 1332.6274,73.0469 Q1331.6569,71.8323 1331.6569,69.5374 Q1331.6569,67.2363 1332.6274,66.0217 Q1333.5978,64.8071 1335.4411,64.8071 Q1335.9599,64.8071 1336.436,64.917 Q1336.912,65.0269 1337.3271,65.2466 L1337.3271,67.2485 Q1336.8632,66.8213 1336.4268,66.6229 Q1335.9904,66.4246 1335.5265,66.4246 Q1334.5378,66.4246 1334.0342,67.2089 Q1333.5307,67.9932 1333.5307,69.5374 Q1333.5307,71.0754 1334.0342,71.8597 Q1334.5378,72.644 1335.5265,72.644 Q1335.9904,72.644 1336.4268,72.4457 Q1336.8632,72.2473 1337.3271,71.8201 Z " fill="#000000"/><text fill="#D8BC00" font-family="Open Sans,Avenir,Nunito,Arial,Helvetica,SansSerif" font-size="12.5" font-weight="bold" lengthAdjust="spacing" textLength="170.8333" x="1352.0833" y="74.1211">WicketExampleApplication</text><line style="stroke:#5E5E5E;stroke-width:1.0416666666666667;" x1="1321.875" x2="1528.125" y1="85.0911" y2="85.0911"/><line style="stroke:#5E5E5E;stroke-width:1.0416666666666667;" x1="1321.875" x2="1528.125" y1="93.4245" y2="93.4245"/><!--MD5=[37d58233b37df091458cdbd923a0d9bd]
class VelocityTemplateApplication--><rect codeLine="62" fill="#282828" height="146.7794" id="VelocityTemplateApplication" rx="8.3333" ry="8.3333" style="stroke:#5E5E5E;stroke-width:1.0416666666666667;" width="222.9167" x="1313.5417" y="193.807"/><rect fill="#1B1B1A" height="31.3883" rx="8.3333" ry="8.3333" style="stroke:#1B1B1A;stroke-width:1.0416666666666667;" width="222.9167" x="1313.5417" y="193.807"/><rect fill="#1B1B1A" height="8.3333" style="stroke:#1B1B1A;stroke-width:1.0416666666666667;" width="222.9167" x="1313.5417" y="216.862"/><rect codeLine="62" fill="none" height="146.7794" id="VelocityTemplateApplication" rx="8.3333" ry="8.3333" style="stroke:#5E5E5E;stroke-width:1.0416666666666667;" width="222.9167" x="1313.5417" y="193.807"/><ellipse cx="1328.125" cy="209.5011" fill="#0066CF" rx="10.4167" ry="10.4167" style="stroke:#0086EF;stroke-width:1.0416666666666667;"/><path d="M1330.0354,213.9262 Q1329.6082,214.1459 1329.1382,214.2558 Q1328.6682,214.3656 1328.1494,214.3656 Q1326.3062,214.3656 1325.3357,213.151 Q1324.3652,211.9364 1324.3652,209.6415 Q1324.3652,207.3405 1325.3357,206.1259 Q1326.3062,204.9113 1328.1494,204.9113 Q1328.6682,204.9113 1329.1443,205.0212 Q1329.6204,205.131 1330.0354,205.3507 L1330.0354,207.3527 Q1329.5715,206.9255 1329.1351,206.7271 Q1328.6987,206.5287 1328.2349,206.5287 Q1327.2461,206.5287 1326.7426,207.313 Q1326.239,208.0973 1326.239,209.6415 Q1326.239,211.1796 1326.7426,211.9639 Q1327.2461,212.7482 1328.2349,212.7482 Q1328.6987,212.7482 1329.1351,212.5498 Q1329.5715,212.3515 1330.0354,211.9242 Z " fill="#000000"/><text fill="#D8BC00" font-family="Open Sans,Avenir,Nunito,Arial,Helvetica,SansSerif" font-size="12.5" font-weight="bold" lengthAdjust="spacing" textLength="185.4167" x="1344.7917" y="214.2253">VelocityTemplateApplication</text><line style="stroke:#5E5E5E;stroke-width:1.5625;" x1="1314.5833" x2="1535.4167" y1="225.1953" y2="225.1953"/><ellipse cx="1325" cy="260.5652" fill="#84BE84" rx="3.125" ry="3.125" style="stroke:#038048;stroke-width:1.0416666666666667;"/><text fill="#D8BC00" font-family="Open Sans,Avenir,Nunito,Arial,Helvetica,SansSerif" font-size="11.4583" lengthAdjust="spacing" textLength="166.6667" x="1336.4583" y="267.4764">VelocityTemplateApplication()</text><line style="stroke:#5E5E5E;stroke-width:1.0416666666666667;" x1="1314.5833" x2="1381.25" y1="243.4011" y2="243.4011"/><text fill="#D8BC00" font-family="Open Sans,Avenir,Nunito,Arial,Helvetica,SansSerif" font-size="11.4583" lengthAdjust="spacing" textLength="81.25" x="1384.375" y="247.2107">(constructors)</text><line style="stroke:#5E5E5E;stroke-width:1.0416666666666667;" x1="1468.75" x2="1535.4167" y1="243.4011" y2="243.4011"/><ellipse cx="1325" cy="304.2216" fill="#84BE84" rx="3.125" ry="3.125" style="stroke:#038048;stroke-width:1.0416666666666667;"/><text fill="#D8BC00" font-family="Open Sans,Avenir,Nunito,Arial,Helvetica,SansSerif" font-size="11.4583" lengthAdjust="spacing" textLength="126.0417" x="1336.4583" y="311.1328">List&lt;Field&gt; getFields()</text><ellipse cx="1325" cy="323.9665" fill="#84BE84" rx="3.125" ry="3.125" style="stroke:#038048;stroke-width:1.0416666666666667;"/><text fill="#D8BC00" font-family="Open Sans,Avenir,Nunito,Arial,Helvetica,SansSerif" font-size="11.4583" lengthAdjust="spacing" textLength="151.0417" x="1336.4583" y="330.8777">List&lt;Person&gt; getPersons()</text><line style="stroke:#5E5E5E;stroke-width:1.0416666666666667;" x1="1314.5833" x2="1390.625" y1="287.0575" y2="287.0575"/><text fill="#D8BC00" font-family="Open Sans,Avenir,Nunito,Arial,Helvetica,SansSerif" font-size="11.4583" lengthAdjust="spacing" textLength="62.5" x="1393.75" y="290.8671">(collection)</text><line style="stroke:#5E5E5E;stroke-width:1.0416666666666667;" x1="1459.375" x2="1535.4167" y1="287.0575" y2="287.0575"/><!--MD5=[b8a438664cc1093a0047aace1b029b4d]
reverse link WicketExamplePage to DynamicPage--><path codeLine="8" d="M705.8125,116.8903 C676.1354,148.4945 634.0833,193.2965 603.7813,225.557 " fill="none" id="WicketExamplePage-backto-DynamicPage" style="stroke:#545454;stroke-width:1.5625;"/><polygon fill="none" points="700.5,111.8903,720.0833,101.6924,711.1354,121.8695,700.5,111.8903" style="stroke:#545454;stroke-width:1.5625;"/><!--MD5=[875f7a57a0148878dca9f2a0343584c6]
reverse link Serializable to Field--><path codeLine="15" d="M172.8438,119.734 C161.6875,137.9945 148.1146,160.1924 134.9479,181.7445 " fill="none" id="Serializable-backto-Field" style="stroke:#545454;stroke-width:1.5625;"/><polygon fill="none" points="166.7813,115.6715,183.8646,101.6924,179.2292,123.2757,166.7813,115.6715" style="stroke:#545454;stroke-width:1.5625;"/><!--MD5=[b3756feba97c3508453d5d50a0aaead8]
reverse link WicketExamplePage to Home--><path codeLine="26" d="M741.6667,122.5882 C741.6667,160.2549 741.6667,213.057 741.6667,243.0257 " fill="none" id="WicketExamplePage-backto-Home" style="stroke:#545454;stroke-width:1.5625;"/><polygon fill="none" points="734.375,122.5257,741.6667,101.6924,748.9583,122.5257,734.375,122.5257" style="stroke:#545454;stroke-width:1.5625;"/><!--MD5=[f175ebf5e950e9ccfed3b4b94bea335a]
reverse link Serializable to Person--><path codeLine="31" d="M222.8438,119.8695 C230.8125,133.0257 240.0208,148.2236 249.4167,163.7445 " fill="none" id="Serializable-backto-Person" style="stroke:#545454;stroke-width:1.5625;"/><polygon fill="none" points="216.3958,123.2965,211.8438,101.6924,228.8646,115.734,216.3958,123.2965" style="stroke:#545454;stroke-width:1.5625;"/><!--MD5=[b708a3efcfd2d0452cdb6fe7deb1f2f7]
reverse link Form to TemplatePage.TemplateForm--><path codeLine="44" d="M1186.4583,122.6715 C1186.4583,153.7965 1186.4583,195.2132 1186.4583,225.557 " fill="none" id="Form-backto-TemplatePage.TemplateForm" style="stroke:#545454;stroke-width:1.5625;"/><polygon fill="none" points="1179.1667,122.5257,1186.4583,101.6924,1193.75,122.5257,1179.1667,122.5257" style="stroke:#545454;stroke-width:1.5625;"/><!--MD5=[b7166bc194825e97cdc489d76f8d6caa]
reverse link WicketExamplePage to TemplatePage--><path codeLine="51" d="M779.1042,116.7757 C803.0208,141.0882 834.6354,173.2445 862.4167,201.4945 " fill="none" id="WicketExamplePage-backto-TemplatePage" style="stroke:#545454;stroke-width:1.5625;"/><polygon fill="none" points="773.6875,121.6611,764.2708,101.6924,784.0833,111.432,773.6875,121.6611" style="stroke:#545454;stroke-width:1.5625;"/><!--MD5=[8146446782486ca91d14064d2c41ae5f]
reverse link WicketExampleApplication to VelocityTemplateApplication--><path codeLine="61" d="M1425,122.7965 C1425,143.9007 1425,169.7236 1425,193.609 " fill="none" id="WicketExampleApplication-backto-VelocityTemplateApplication" style="stroke:#545454;stroke-width:1.5625;"/><polygon fill="none" points="1417.7083,122.5257,1425,101.6924,1432.2917,122.5257,1417.7083,122.5257" style="stroke:#545454;stroke-width:1.5625;"/><!--MD5=[d2e328b6fe0d770957049ab75ae49111]
@startuml

    !include lexakai.theme
    
    title "org.apache.wicket.examples.velocity"
    
    interface Serializable
    
    WicketExamplePage <|- - DynamicPage
    class DynamicPage
    {
        - -(constructors)- -
        +DynamicPage(PageParameters)
    }
    
    Serializable <|- - Field
    class Field
    {
        - -(constructors)- -
        +Field(String, int)
        - -(collection)- -
        +int getFieldSize()
        - -(naming)- -
        +String getFieldName()
    }
    
    WicketExamplePage <|- - Home
    class Home
    {
    }
    
    Serializable <|- - Person
    class Person
    {
        - -(constructors)- -
        +Person()
        +Person(String, String)
        - -(collection)- -
        +String getFirstName()
        +String getLastName()
        +void setFirstName(String firstName)
        +void setLastName(String lastName)
    }
    
    Form <|- - TemplatePage.TemplateForm
    class TemplatePage.TemplateForm
    {
        - -(constructors)- -
        +TemplateForm(String)
    }
    
    WicketExamplePage <|- - TemplatePage
    class TemplatePage
    {
        - -(constructors)- -
        +TemplatePage(PageParameters)
        - -
        +String getTemplate()
        +void setTemplate(String template)
    }
    
    WicketExampleApplication <|- - VelocityTemplateApplication
    class VelocityTemplateApplication
    {
        - -(constructors)- -
        +VelocityTemplateApplication()
        - -(collection)- -
        +List<Field> getFields()
        +List<Person> getPersons()
    }
    
@enduml

@startuml









skinparam backgroundColor #333333






skinparam  {
    defaultFontName   "Open Sans,Avenir,Nunito,Arial,Helvetica,SansSerif"
    defaultFontSize   12
    defaultTextAlignment left
    shadowing false
    RoundCorner 10
    TitleFontSize 18
}

skinparam defaultFontName       "Open Sans,Avenir,Nunito,Arial,Helvetica,SansSerif"
skinparam defaultFontSize       12
skinparam dpi                   100
skinparam shadowing             false
skinparam roundcorner           16
skinparam ParticipantPadding    40
skinparam BoxPadding            40
skinparam Padding               3
skinparam ArrowColor            #545454
skinparam stereotype {
    CBackgroundColor #0066cf
    CBorderColor #0086ef
    ABackgroundColor #C8Ac00
    ABorderColor #D8Bc00
    IBackgroundColor #008400
    IBorderColor #239c23
    EBackgroundColor #cf6300
    EBorderColor #ef8300
    NBackgroundColor #3380b9
    NBorderColor #004d86
}
skinparam title {
	FontColor	                 #c0c0c0
 	BorderColor                  #545454
	FontSize	    	         20
	BorderRoundCorner            16
	BorderThickness 	         1
	BackgroundColor              #48494b
}


skinparam legend {
	BackgroundColor #303030
	BorderColor #404040
	FontColor #a0a0a0
}

	skinparam swimlane {
	BorderColor #5e5e5e
	BorderThickness 2
	TitleBackgroundColor  #6d6d6d-#484848
	TitleFontColor #303030
}

skinparam activity {
		FontColor #C8Ac00
	BorderColor #333333
	BackgroundColor #333333-#333333
	BarColor #00FF00
	StartColor #0060a8
	EndColor #0060a8
	DiamondBackgroundColor #6d6d6d-#3a3a3a
  	DiamondBorderColor #3a3a3a
  	DiamondFontColor #fefefe
}


skinparam participant {
		FontColor #C8Ac00
	BorderColor #333333
	BackgroundColor #333333-#333333
	ParticipantBorderThickness 2
}


skinparam actor {
		FontColor #C8Ac00
	BorderColor #333333
	BackgroundColor #333333-#333333
}


skinparam arrow {
	Thickness 1.5
	Color #545454
	FontColor #a0a0a0
    FontStyle bold
    MessageAlignment center
}



skinparam sequence {
	BorderColor #303030
	TitleFontColor #303030
	BackgroundColor #333333
	StartColor #303030
	EndColor #303030
	BoxBackgroundColor #333333
	BoxBorderColor #484848
	BoxFontColor #484848
	LifeLineBorderColor #484848
	LifeLineBorderThickness 2
	LifeLineBackgroundColor #3a3a3a
	GroupBorderColor #484848
	GroupFontColor #484848
	GroupHeaderFontColor #0060a8
	GroupBackgroundColor #484848
	GroupHeaderBackgroundColor #333333
	DividerBackgroundColor #484848
    DividerBorderColor #484848
    DividerBorderThickness 2
    DividerFontColor #D8Bc00
	ReferenceBackgroundColor #333333
	ReferenceBorderColor #484848
	ReferenceFontColor #fefefe
	ReferenceHeaderBackgroundColor #484848
}


skinparam partition {
	BorderColor #303030
	FontColor #333333
	BackgroundColor #333333
}


skinparam collections {
		FontColor #C8Ac00
	BorderColor #333333
	BackgroundColor #333333-#333333
}


skinparam control {
		FontColor #C8Ac00
	BorderColor #333333
	BackgroundColor #333333-#333333
}


skinparam entity {
		FontColor #C8Ac00
	BorderColor #333333
	BackgroundColor #333333-#333333
}


skinparam boundary {
		FontColor #C8Ac00
	BorderColor #333333
	BackgroundColor #333333-#333333
}


skinparam agent {
	BackgroundColor #ff8000
	BorderColor #ff9933
	FontColor #484848
}


skinparam note {
	BorderThickness 1
	BackgroundColor #1b1b1a
	BorderColor #5e5e5e
	FontSize 11
	FontColor #a0a0a0
}


skinparam artifact {
	BorderThickness 10
	BorderColor #5e5e5e
	BackgroundColor #1b1b1a
	FontColor #D8Bc00
}


skinparam component {
		FontColor #C8Ac00
	BorderColor #333333
	BackgroundColor #333333-#333333
}


skinparam interface {
	BackgroundColor  #008400
	BorderColor  #007F00
	FontColor #484848
}


skinparam storage {
	BackgroundColor #ff8000
  	BorderColor #cc6600
	FontColor #222222
}


skinparam node {
	BackgroundColor #333333
	BorderColor #333333
	FontColor #C8Ac00
}


skinparam cloud {
	BackgroundColor #484848-black
	BorderColor #484848
	FontColor #D8Bc00
}


skinparam database {
		FontColor #C8Ac00
	BorderColor #333333
	BackgroundColor #333333-#333333
	BackgroundColor  #333333
}


skinparam class {
		FontColor #C8Ac00
	BorderColor #333333
	BackgroundColor #333333-#333333
	HeaderBackgroundColor #1b1b1a
    BackgroundColor #282828
    BorderColor #5e5e5e
 	StereotypeFontColor #a0a0a0
    StereotypeFontStyle bold
	BorderThickness 1
	AttributeFontColor #D8Bc00
	AttributeFontSize 11
    FontColor #D8Bc00
    FontStyle bold
}


skinparam object {
		FontColor #C8Ac00
	BorderColor #333333
	BackgroundColor #333333-#333333
	StereotypeFontColor #484848
	BorderThickness 1
	AttributeFontColor #fefefe
	AttributeFontSize 11
}


skinparam usecase {
		FontColor #C8Ac00
	BorderColor #333333
	BackgroundColor #333333-#333333
	BorderThickness 2
	StereotypeFontColor #303030
}


skinparam rectangle {
		FontColor #C8Ac00
	BorderColor #333333
	BackgroundColor #333333-#333333
	BackgroundColor #333333
	BorderThickness 2
	StereotypeFontColor #303030
}


skinparam package {
		FontColor #C8Ac00
	BorderColor #333333
	BackgroundColor #333333-#333333
	BackgroundColor #333333
	BorderThickness 2
}


skinparam folder {
	BackgroundColor #6d6d6d
  	BorderColor #ff8000
	FontColor #ff8000
	BorderThickness 2
}


skinparam frame {
	BackgroundColor #6d6d6d
  	BorderColor #0060a8
	FontColor #0060a8
	BorderThickness 2
}


skinparam state {
		FontColor #C8Ac00
	BorderColor #333333
	BackgroundColor #333333-#333333
	StartColor #0060a8
	EndColor #0060a8
	AttributeFontColor #fefefe
	AttributeFontSize 11
}


skinparam queue {
		FontColor #C8Ac00
	BorderColor #333333
	BackgroundColor #333333-#333333
}


skinparam card {
	BackgroundColor #0060a8
	BorderColor #004d86
	FontColor $INFO_TEXT
}


skinparam file {
	BackgroundColor #6d6d6d-#484848
	BorderColor #0060a8
	FontColor #fefefe
}


skinparam stack {
		FontColor #C8Ac00
	BorderColor #333333
	BackgroundColor #333333-#333333
}

    
    title "org.apache.wicket.examples.velocity"
    
    interface Serializable
    
    WicketExamplePage <|- - DynamicPage
    class DynamicPage
    {
        - -(constructors)- -
        +DynamicPage(PageParameters)
    }
    
    Serializable <|- - Field
    class Field
    {
        - -(constructors)- -
        +Field(String, int)
        - -(collection)- -
        +int getFieldSize()
        - -(naming)- -
        +String getFieldName()
    }
    
    WicketExamplePage <|- - Home
    class Home
    {
    }
    
    Serializable <|- - Person
    class Person
    {
        - -(constructors)- -
        +Person()
        +Person(String, String)
        - -(collection)- -
        +String getFirstName()
        +String getLastName()
        +void setFirstName(String firstName)
        +void setLastName(String lastName)
    }
    
    Form <|- - TemplatePage.TemplateForm
    class TemplatePage.TemplateForm
    {
        - -(constructors)- -
        +TemplateForm(String)
    }
    
    WicketExamplePage <|- - TemplatePage
    class TemplatePage
    {
        - -(constructors)- -
        +TemplatePage(PageParameters)
        - -
        +String getTemplate()
        +void setTemplate(String template)
    }
    
    WicketExampleApplication <|- - VelocityTemplateApplication
    class VelocityTemplateApplication
    {
        - -(constructors)- -
        +VelocityTemplateApplication()
        - -(collection)- -
        +List<Field> getFields()
        +List<Person> getPersons()
    }
    
@enduml

PlantUML version 1.2021.01(Tue Feb 02 00:55:08 MST 2021)
(GPL source distribution)
Java Runtime: Java(TM) SE Runtime Environment
JVM: Java HotSpot(TM) 64-Bit Server VM
Default Encoding: UTF-8
Language: en
Country: US
--></g></svg>