<?xml version="1.0" encoding="utf-8"?>
<svg width="134.68306mm" height="20.198822mm" viewBox="0 0 477.22344 71.570629" id="svg8666" version="1.1" xmlns="http://www.w3.org/2000/svg">
  <g id="g7470" transform="matrix(4.167643, 0, 0, 4.167643, -5394.745117, -2951.081055)">
    <g style="fill:#58585a;fill-opacity:1" id="g7472" transform="matrix(1.1033634,0,0,1.0324475,1189.2902,195.19112)">
      <path id="path7474" d="m 96.651335,496.78301 c -0.751534,0 -1.356158,0.65894 -1.356158,1.47801 l 0,13.6772 c 0,0.81907 0.604624,1.47801 1.356158,1.47801 l 101.067455,0 c 0.75154,0 1.35615,-0.65894 1.35615,-1.47801 l 0,-13.6772 c 0,-0.81907 -0.60461,-1.47801 -1.35615,-1.47801 l -101.067455,0 z m 7.295265,0.009 86.47692,0 0,16.6169 -86.47692,0 0,-16.6169 z m -4.220065,2.04066 1.995915,0 c 0.25543,0 0.46211,0.22519 0.46211,0.50356 l 0,0.73594 c 0,0.27839 -0.20668,0.50355 -0.46211,0.50355 l -1.995915,0 c -0.255335,0 -0.460106,-0.22519 -0.460106,-0.50355 l 0,-0.73594 c 0,-0.27837 0.204771,-0.50356 0.460106,-0.50356 z m 93.048225,0 1.99593,0 c 0.25542,0 0.4621,0.22519 0.4621,0.50356 l 0,0.73594 c 0,0.27839 -0.20668,0.50355 -0.4621,0.50355 l -1.99593,0 c -0.25534,0 -0.4601,-0.22519 -0.4601,-0.50355 l 0,-0.73594 c 0,-0.27837 0.20476,-0.50356 0.4601,-0.50356 z m -93.048225,5.62053 1.995915,0 c 0.25543,0 0.46211,0.22314 0.46211,0.5015 l 0,0.73798 c 0,0.27837 -0.20668,0.50151 -0.46211,0.50151 l -1.995915,0 c -0.255335,0 -0.460106,-0.22314 -0.460106,-0.50151 l 0,-0.73798 c 0,-0.27836 0.204771,-0.5015 0.460106,-0.5015 z m 93.048225,0 1.99593,0 c 0.25542,0 0.4621,0.22314 0.4621,0.5015 l 0,0.73798 c 0,0.27837 -0.20668,0.50151 -0.4621,0.50151 l -1.99593,0 c -0.25534,0 -0.4601,-0.22314 -0.4601,-0.50151 l 0,-0.73798 c 0,-0.27836 0.20476,-0.5015 0.4601,-0.5015 z m -93.048225,5.61847 1.995915,0 c 0.25543,0 0.46211,0.22314 0.46211,0.50149 l 0,0.73799 c 0,0.27837 -0.20668,0.50354 -0.46211,0.50354 l -1.995915,0 c -0.255335,0 -0.460106,-0.22517 -0.460106,-0.50354 l 0,-0.73799 c 0,-0.27835 0.204771,-0.50149 0.460106,-0.50149 z m 93.048225,0 1.99593,0 c 0.25542,0 0.4621,0.22314 0.4621,0.50149 l 0,0.73799 c 0,0.27837 -0.20668,0.50358 -0.4621,0.50354 l -1.99593,0 c -0.25534,0 -0.4601,-0.22517 -0.4601,-0.50354 l 0,-0.73799 c 0,-0.27835 0.20476,-0.50149 0.4601,-0.50149 z" style="opacity: 1; fill-opacity: 1; fill-rule: nonzero; stroke: none; stroke-width: 0.2; stroke-linecap: round; stroke-linejoin: round; stroke-miterlimit: 4; stroke-dasharray: none; stroke-dashoffset: 0; stroke-opacity: 1; fill: rgb(66, 148, 247);"/>
      <rect style="opacity: 1; fill-opacity: 1; fill-rule: nonzero; stroke: none; stroke-width: 0.199495; stroke-linecap: round; stroke-linejoin: round; stroke-miterlimit: 4; stroke-dasharray: none; stroke-dashoffset: 0; stroke-opacity: 1; fill: rgb(66, 148, 247);" id="rect7476" width="84.33799" height="16.622314" x="105.03625" y="496.78415" rx="0" ry="0"/>
      <g transform="matrix(0.95810533,0,0,0.95810533,-2366.6234,-86.018761)" style="fill:#58585a;fill-opacity:1" id="g7478"/>
    </g>
    <rect y="711.2915" x="1309.8944" height="2.3864853" width="27.046835" id="rect7480" style="opacity: 1; fill-opacity: 1; fill-rule: nonzero; stroke: none; stroke-width: 0.2; stroke-linecap: round; stroke-linejoin: round; stroke-miterlimit: 4; stroke-dasharray: none; stroke-dashoffset: 0; stroke-opacity: 1; fill: rgb(216, 188, 0);"/>
    <rect style="opacity: 1; fill-opacity: 1; fill-rule: nonzero; stroke: none; stroke-width: 0.2; stroke-linecap: round; stroke-linejoin: round; stroke-miterlimit: 4; stroke-dasharray: none; stroke-dashoffset: 0; stroke-opacity: 1; fill: rgb(216, 188, 0);" id="rect7482" width="27.046835" height="2.9168153" x="1309.8944" y="714.47345"/>
    <circle r="1.5909903" cy="720.9939" cx="1378.838" id="circle7484" style="opacity: 1; fill-opacity: 1; fill-rule: nonzero; stroke: none; stroke-width: 0.2; stroke-linecap: round; stroke-linejoin: round; stroke-miterlimit: 4; stroke-dasharray: none; stroke-dashoffset: 0; stroke-opacity: 1; fill: rgb(216, 188, 0);"/>
    <circle style="opacity: 1; fill-opacity: 1; fill-rule: nonzero; stroke: none; stroke-width: 0.2; stroke-linecap: round; stroke-linejoin: round; stroke-miterlimit: 4; stroke-dasharray: none; stroke-dashoffset: 0; stroke-opacity: 1; fill: rgb(216, 188, 0);" id="circle7486" cx="1383.6331" cy="720.9939" r="1.5909903"/>
    <circle r="1.5909903" cy="720.9939" cx="1388.4281" id="circle7488" style="opacity: 1; fill-opacity: 1; fill-rule: nonzero; stroke: none; stroke-width: 0.2; stroke-linecap: round; stroke-linejoin: round; stroke-miterlimit: 4; stroke-dasharray: none; stroke-dashoffset: 0; stroke-opacity: 1; fill: rgb(216, 188, 0);"/>
  </g>
</svg>