<?xml version="1.0" encoding="utf-8"?>
<svg viewBox="0 0 500 500" xmlns="http://www.w3.org/2000/svg">
  <g transform="matrix(1.762173, 0, 0, 1.762173, -303.795929, -41.787922)" style="">
    <g transform="matrix(1, 0, 0, 1, 83.995094, -66.5084)">
      <path style="stroke-width: 6px; stroke: rgb(8, 119, 255); fill: rgb(249, 216, 2);" d="M 105.291 249.42 C 110.675 271.58 191.288 296.83 191.288 296.83 C 203.271 298.316 273.464 300.627 286.871 297.762 C 317.561 296.447 353.612 268.616 356.259 243.799 C 357.498 225.49 320.351 194.459 289.348 205.136 L 172.845 206.877 C 160.186 194.394 85.531 226.531 105.291 249.42 Z"/>
      <path style="stroke-width: 6px; fill: rgb(57, 145, 252); stroke: rgb(8, 119, 255);" d="M 104.057 238.384 C 108.247 261.965 190.054 285.794 190.054 285.794 C 202.037 287.28 275.973 290.581 285.637 286.726 C 316.327 285.411 352.378 257.58 355.025 232.763 C 356.264 214.454 319.117 183.423 288.114 194.1 L 171.611 195.841 C 158.952 183.358 84.013 218.618 104.057 238.384 Z"/>
      <path style="stroke-width: 4px; stroke: rgb(244, 226, 226); fill: rgb(225, 195, 0);" d="M 154.207 205.879 C 152.254 207.171 178.292 222.137 198.244 223.557 C 217.893 229.146 273.39 232.7 277.595 223.088 C 277.747 226.036 300.119 216.364 299.708 208.417 C 297.199 188.107 297.952 167.051 275.99 158.95 C 265.236 147.334 198.792 144.534 187.452 158.337 C 167.633 161.905 149.196 205.269 154.207 205.879 Z"/>
      <circle style="stroke: rgb(3, 114, 250); stroke-width: 5px; fill: rgb(249, 216, 2);" cx="142.357" cy="232.141" r="13.176" transform="matrix(1, 0, -0.417366, 0.862991, 88.244255, 25.516834)"/>
      <circle style="stroke: rgb(3, 114, 250); stroke-width: 5px; fill: rgb(249, 216, 2);" cx="232.74" cy="256.462" r="15.386"/>
      <circle style="stroke: rgb(3, 114, 250); stroke-width: 5px; fill: rgb(249, 216, 2);" cx="313.58" cy="233.461" r="13.176" transform="matrix(1, 0, 0.423701, 0.867658, -88.742691, 22.963966)"/>
      <circle style="stroke: rgb(3, 114, 250); stroke-width: 5px; fill: rgb(249, 216, 2);" cx="172.33" cy="246.016" r="13.176" transform="matrix(1.131667, 0, -0.160258, 1.015825, 18.749565, -4.29822)"/>
      <circle style="stroke: rgb(3, 114, 250); stroke-width: 5px; fill: rgb(249, 216, 2);" cx="286.673" cy="250.495" r="15.386" transform="matrix(1, 0, 0.233357, 0.872288, -53.607761, 30.567785)"/>
    </g>
  </g>
  <path style="fill: rgb(216, 216, 216); stroke: rgb(0, 0, 0);"/>
  <path style="stroke: rgb(0, 0, 0); fill: rgb(216, 188, 0);" d="M 226.692 179.728"/>
</svg>