<?xml version="1.0" encoding="UTF-8" standalone="no"?><svg xmlns="http://www.w3.org/2000/svg" xmlns:xlink="http://www.w3.org/1999/xlink" contentScriptType="application/ecmascript" contentStyleType="text/css" height="454.1667px" preserveAspectRatio="none" style="width:1123px;height:454px;background:#333333;" version="1.1" viewBox="0 0 1123 454" width="1123.9583px" zoomAndPan="magnify"><defs/><g><rect fill="#48494B" height="41.2028" rx="8.3333" ry="8.3333" style="stroke:#545454;stroke-width:1.0416666666666667;" width="588.5417" x="260.6771" y="2.0833"/><text fill="#C0C0C0" font-family="Open Sans,Avenir,Nunito,Arial,Helvetica,SansSerif" font-size="20.8333" lengthAdjust="spacing" textLength="565.625" x="272.1354" y="30.5583">org.apache.wicket.authroles.authorization.strategies.role</text><!--MD5=[4a2e49c4b8217ffb25d0827d0f7f5038]
cluster IAuthorizationStrategy--><polygon fill="#333333" points="325.5208,52.6611,484.8958,52.6611,492.1875,79.8828,594.2708,79.8828,594.2708,157.8695,325.5208,157.8695,325.5208,52.6611" style="stroke:#333333;stroke-width:2.0833333333333335;"/><line style="stroke:#333333;stroke-width:2.0833333333333335;" x1="325.5208" x2="492.1875" y1="79.8828" y2="79.8828"/><text fill="#C8AC00" font-family="Open Sans,Avenir,Nunito,Arial,Helvetica,SansSerif" font-size="12.5" font-weight="bold" lengthAdjust="spacing" textLength="146.875" x="332.8125" y="69.9544">IAuthorizationStrategy</text><!--MD5=[91a24da200d9ed1ee77dc6553255e763]
class IAuthorizationStrategy.AllowAllAuthorizationStrategy--><rect fill="#282828" height="48.055" id="IAuthorizationStrategy.AllowAllAuthorizationStrategy" rx="8.3333" ry="8.3333" style="stroke:#5E5E5E;stroke-width:1.0416666666666667;" width="234.375" x="342.7083" y="93.2861"/><rect fill="#1B1B1A" height="31.3883" rx="8.3333" ry="8.3333" style="stroke:#1B1B1A;stroke-width:1.0416666666666667;" width="234.375" x="342.7083" y="93.2861"/><rect fill="#1B1B1A" height="8.3333" style="stroke:#1B1B1A;stroke-width:1.0416666666666667;" width="234.375" x="342.7083" y="116.3411"/><rect fill="none" height="48.055" id="IAuthorizationStrategy.AllowAllAuthorizationStrategy" rx="8.3333" ry="8.3333" style="stroke:#5E5E5E;stroke-width:1.0416666666666667;" width="234.375" x="342.7083" y="93.2861"/><ellipse cx="357.2917" cy="108.9803" fill="#0066CF" rx="10.4167" ry="10.4167" style="stroke:#0086EF;stroke-width:1.0416666666666667;"/><path d="M359.2021,113.4054 Q358.7748,113.6251 358.3049,113.7349 Q357.8349,113.8448 357.3161,113.8448 Q355.4728,113.8448 354.5024,112.6302 Q353.5319,111.4156 353.5319,109.1207 Q353.5319,106.8197 354.5024,105.6051 Q355.4728,104.3905 357.3161,104.3905 Q357.8349,104.3905 358.311,104.5003 Q358.787,104.6102 359.2021,104.8299 L359.2021,106.8319 Q358.7382,106.4046 358.3018,106.2063 Q357.8654,106.0079 357.4015,106.0079 Q356.4128,106.0079 355.9092,106.7922 Q355.4057,107.5765 355.4057,109.1207 Q355.4057,110.6588 355.9092,111.4431 Q356.4128,112.2274 357.4015,112.2274 Q357.8654,112.2274 358.3018,112.029 Q358.7382,111.8306 359.2021,111.4034 Z " fill="#000000"/><text fill="#D8BC00" font-family="Open Sans,Avenir,Nunito,Arial,Helvetica,SansSerif" font-size="12.5" font-weight="bold" lengthAdjust="spacing" textLength="196.875" x="373.9583" y="113.7044">AllowAllAuthorizationStrategy</text><line style="stroke:#5E5E5E;stroke-width:1.0416666666666667;" x1="343.75" x2="576.0417" y1="124.6745" y2="124.6745"/><line style="stroke:#5E5E5E;stroke-width:1.0416666666666667;" x1="343.75" x2="576.0417" y1="133.0078" y2="133.0078"/><!--MD5=[cd6fe5c68cc4750b98a6651e5a9afd2b]
class IClusterable--><rect codeLine="6" fill="#282828" height="48.055" id="IClusterable" rx="8.3333" ry="8.3333" style="stroke:#5E5E5E;stroke-width:1.0416666666666667;" width="115.625" x="7.2917" y="93.2861"/><rect fill="#1B1B1A" height="31.3883" rx="8.3333" ry="8.3333" style="stroke:#1B1B1A;stroke-width:1.0416666666666667;" width="115.625" x="7.2917" y="93.2861"/><rect fill="#1B1B1A" height="8.3333" style="stroke:#1B1B1A;stroke-width:1.0416666666666667;" width="115.625" x="7.2917" y="116.3411"/><rect codeLine="6" fill="none" height="48.055" id="IClusterable" rx="8.3333" ry="8.3333" style="stroke:#5E5E5E;stroke-width:1.0416666666666667;" width="115.625" x="7.2917" y="93.2861"/><ellipse cx="21.875" cy="108.9803" fill="#008400" rx="10.4167" ry="10.4167" style="stroke:#239C23;stroke-width:1.0416666666666667;"/><path d="M19.279,106.1422 L19.279,104.5553 L24.705,104.5553 L24.705,106.1422 L22.8923,106.1422 L22.8923,112.0809 L24.705,112.0809 L24.705,113.6678 L19.279,113.6678 L19.279,112.0809 L21.0917,112.0809 L21.0917,106.1422 Z " fill="#000000"/><text fill="#D8BC00" font-family="Open Sans,Avenir,Nunito,Arial,Helvetica,SansSerif" font-size="12.5" font-style="italic" font-weight="bold" lengthAdjust="spacing" textLength="78.125" x="38.5417" y="113.7044">IClusterable</text><line style="stroke:#5E5E5E;stroke-width:1.0416666666666667;" x1="8.3333" x2="121.875" y1="124.6745" y2="124.6745"/><line style="stroke:#5E5E5E;stroke-width:1.0416666666666667;" x1="8.3333" x2="121.875" y1="133.0078" y2="133.0078"/><!--MD5=[155a13c41f490f5600aaa06567af3011]
class AbstractRoleAuthorizationStrategy--><rect codeLine="9" fill="#282828" height="146.7794" id="AbstractRoleAuthorizationStrategy" rx="8.3333" ry="8.3333" style="stroke:#5E5E5E;stroke-width:1.0416666666666667;" width="360.4167" x="279.6875" y="260.9945"/><rect fill="#1B1B1A" height="31.3883" rx="8.3333" ry="8.3333" style="stroke:#1B1B1A;stroke-width:1.0416666666666667;" width="360.4167" x="279.6875" y="260.9945"/><rect fill="#1B1B1A" height="8.3333" style="stroke:#1B1B1A;stroke-width:1.0416666666666667;" width="360.4167" x="279.6875" y="284.0495"/><rect codeLine="9" fill="none" height="146.7794" id="AbstractRoleAuthorizationStrategy" rx="8.3333" ry="8.3333" style="stroke:#5E5E5E;stroke-width:1.0416666666666667;" width="360.4167" x="279.6875" y="260.9945"/><ellipse cx="340.1042" cy="276.6886" fill="#C8AC00" rx="10.4167" ry="10.4167" style="stroke:#D8BC00;stroke-width:1.0416666666666667;"/><path d="M339.6973,273.3907 L338.8489,277.12 L340.5518,277.12 Z M338.5986,271.7428 L340.802,271.7428 L343.2617,280.8553 L341.4612,280.8553 L340.8997,278.6031 L338.4888,278.6031 L337.9395,280.8553 L336.1389,280.8553 Z " fill="#000000"/><text fill="#D8BC00" font-family="Open Sans,Avenir,Nunito,Arial,Helvetica,SansSerif" font-size="12.5" font-style="italic" font-weight="bold" lengthAdjust="spacing" textLength="225" x="363.0208" y="281.4128">AbstractRoleAuthorizationStrategy</text><line style="stroke:#5E5E5E;stroke-width:1.5625;" x1="280.7292" x2="639.0625" y1="292.3828" y2="292.3828"/><ellipse cx="291.1458" cy="327.7527" fill="#84BE84" rx="3.125" ry="3.125" style="stroke:#038048;stroke-width:1.0416666666666667;"/><text fill="#D8BC00" font-family="Open Sans,Avenir,Nunito,Arial,Helvetica,SansSerif" font-size="11.4583" lengthAdjust="spacing" textLength="328.125" x="302.6042" y="334.6639">AbstractRoleAuthorizationStrategy(IRoleCheckingStrategy)</text><line style="stroke:#5E5E5E;stroke-width:1.0416666666666667;" x1="280.7292" x2="416.1458" y1="310.5886" y2="310.5886"/><text fill="#D8BC00" font-family="Open Sans,Avenir,Nunito,Arial,Helvetica,SansSerif" font-size="11.4583" lengthAdjust="spacing" textLength="81.25" x="419.2708" y="314.3982">(constructors)</text><line style="stroke:#5E5E5E;stroke-width:1.0416666666666667;" x1="503.6458" x2="639.0625" y1="310.5886" y2="310.5886"/><polygon fill="#FFFF44" points="291.1458,366.2008,295.3125,370.3674,291.1458,374.5341,286.9792,370.3674" style="stroke:#B38D22;stroke-width:1.0416666666666667;"/><text fill="#D8BC00" font-family="Open Sans,Avenir,Nunito,Arial,Helvetica,SansSerif" font-size="11.4583" lengthAdjust="spacing" textLength="128.125" x="302.6042" y="378.3203">boolean hasAny(Roles)</text><polygon fill="#FFFF44" points="291.1458,385.9456,295.3125,390.1123,291.1458,394.279,286.9792,390.1123" style="stroke:#B38D22;stroke-width:1.0416666666666667;"/><text fill="#D8BC00" font-family="Open Sans,Avenir,Nunito,Arial,Helvetica,SansSerif" font-size="11.4583" lengthAdjust="spacing" textLength="130.2083" x="302.6042" y="398.0652">boolean isEmpty(Roles)</text><line style="stroke:#5E5E5E;stroke-width:1.0416666666666667;" x1="280.7292" x2="433.3333" y1="354.245" y2="354.245"/><text fill="#D8BC00" font-family="Open Sans,Avenir,Nunito,Arial,Helvetica,SansSerif" font-size="11.4583" lengthAdjust="spacing" textLength="46.875" x="436.4583" y="358.0546">(checks)</text><line style="stroke:#5E5E5E;stroke-width:1.0416666666666667;" x1="486.4583" x2="639.0625" y1="354.245" y2="354.245"/><!--MD5=[b1a7f50c3b0a42525aff304f5a6aec03]
class IRoleCheckingStrategy--><rect codeLine="18" fill="#282828" height="83.3781" id="IRoleCheckingStrategy" rx="8.3333" ry="8.3333" style="stroke:#5E5E5E;stroke-width:1.0416666666666667;" width="184.375" x="613.5417" y="75.5778"/><rect fill="#1B1B1A" height="31.3883" rx="8.3333" ry="8.3333" style="stroke:#1B1B1A;stroke-width:1.0416666666666667;" width="184.375" x="613.5417" y="75.5778"/><rect fill="#1B1B1A" height="8.3333" style="stroke:#1B1B1A;stroke-width:1.0416666666666667;" width="184.375" x="613.5417" y="98.6328"/><rect codeLine="18" fill="none" height="83.3781" id="IRoleCheckingStrategy" rx="8.3333" ry="8.3333" style="stroke:#5E5E5E;stroke-width:1.0416666666666667;" width="184.375" x="613.5417" y="75.5778"/><ellipse cx="628.5938" cy="91.272" fill="#008400" rx="10.4167" ry="10.4167" style="stroke:#239C23;stroke-width:1.0416666666666667;"/><path d="M625.9977,88.4338 L625.9977,86.8469 L631.4237,86.8469 L631.4237,88.4338 L629.611,88.4338 L629.611,94.3726 L631.4237,94.3726 L631.4237,95.9595 L625.9977,95.9595 L625.9977,94.3726 L627.8105,94.3726 L627.8105,88.4338 Z " fill="#000000"/><text fill="#D8BC00" font-family="Open Sans,Avenir,Nunito,Arial,Helvetica,SansSerif" font-size="12.5" font-style="italic" font-weight="bold" lengthAdjust="spacing" textLength="145.8333" x="645.3646" y="95.9961">IRoleCheckingStrategy</text><line style="stroke:#5E5E5E;stroke-width:1.5625;" x1="614.5833" x2="796.875" y1="106.9661" y2="106.9661"/><ellipse cx="625" cy="142.336" fill="#84BE84" rx="3.125" ry="3.125" style="stroke:#038048;stroke-width:1.0416666666666667;"/><text fill="#D8BC00" font-family="Open Sans,Avenir,Nunito,Arial,Helvetica,SansSerif" font-size="11.4583" lengthAdjust="spacing" textLength="152.0833" x="636.4583" y="149.2472">boolean hasAnyRole(Roles)</text><line style="stroke:#5E5E5E;stroke-width:1.0416666666666667;" x1="614.5833" x2="679.1667" y1="125.1719" y2="125.1719"/><text fill="#D8BC00" font-family="Open Sans,Avenir,Nunito,Arial,Helvetica,SansSerif" font-size="11.4583" lengthAdjust="spacing" textLength="46.875" x="682.2917" y="128.9815">(checks)</text><line style="stroke:#5E5E5E;stroke-width:1.0416666666666667;" x1="732.2917" x2="796.875" y1="125.1719" y2="125.1719"/><!--MD5=[5591a27e802e197dd74c34151478a365]
class CompoundAuthorizationStrategy--><rect fill="#282828" height="48.055" id="CompoundAuthorizationStrategy" rx="8.3333" ry="8.3333" style="stroke:#5E5E5E;stroke-width:1.0416666666666667;" width="252.0833" x="834.8958" y="93.2861"/><rect fill="#1B1B1A" height="31.3883" rx="8.3333" ry="8.3333" style="stroke:#1B1B1A;stroke-width:1.0416666666666667;" width="252.0833" x="834.8958" y="93.2861"/><rect fill="#1B1B1A" height="8.3333" style="stroke:#1B1B1A;stroke-width:1.0416666666666667;" width="252.0833" x="834.8958" y="116.3411"/><rect fill="none" height="48.055" id="CompoundAuthorizationStrategy" rx="8.3333" ry="8.3333" style="stroke:#5E5E5E;stroke-width:1.0416666666666667;" width="252.0833" x="834.8958" y="93.2861"/><ellipse cx="849.4792" cy="108.9803" fill="#0066CF" rx="10.4167" ry="10.4167" style="stroke:#0086EF;stroke-width:1.0416666666666667;"/><path d="M851.3896,113.4054 Q850.9623,113.6251 850.4924,113.7349 Q850.0224,113.8448 849.5036,113.8448 Q847.6603,113.8448 846.6899,112.6302 Q845.7194,111.4156 845.7194,109.1207 Q845.7194,106.8197 846.6899,105.6051 Q847.6603,104.3905 849.5036,104.3905 Q850.0224,104.3905 850.4985,104.5003 Q850.9745,104.6102 851.3896,104.8299 L851.3896,106.8319 Q850.9257,106.4046 850.4893,106.2063 Q850.0529,106.0079 849.589,106.0079 Q848.6003,106.0079 848.0967,106.7922 Q847.5932,107.5765 847.5932,109.1207 Q847.5932,110.6588 848.0967,111.4431 Q848.6003,112.2274 849.589,112.2274 Q850.0529,112.2274 850.4893,112.029 Q850.9257,111.8306 851.3896,111.4034 Z " fill="#000000"/><text fill="#D8BC00" font-family="Open Sans,Avenir,Nunito,Arial,Helvetica,SansSerif" font-size="12.5" font-weight="bold" lengthAdjust="spacing" textLength="214.5833" x="866.1458" y="113.7044">CompoundAuthorizationStrategy</text><line style="stroke:#5E5E5E;stroke-width:1.0416666666666667;" x1="835.9375" x2="1085.9375" y1="124.6745" y2="124.6745"/><line style="stroke:#5E5E5E;stroke-width:1.0416666666666667;" x1="835.9375" x2="1085.9375" y1="133.0078" y2="133.0078"/><!--MD5=[044cbf1c032b6acdc8f971f8828069c6]
class RoleAuthorizationStrategy--><rect codeLine="25" fill="#282828" height="83.3781" id="RoleAuthorizationStrategy" rx="8.3333" ry="8.3333" style="stroke:#5E5E5E;stroke-width:1.0416666666666667;" width="312.5" x="804.6875" y="292.7653"/><rect fill="#1B1B1A" height="31.3883" rx="8.3333" ry="8.3333" style="stroke:#1B1B1A;stroke-width:1.0416666666666667;" width="312.5" x="804.6875" y="292.7653"/><rect fill="#1B1B1A" height="8.3333" style="stroke:#1B1B1A;stroke-width:1.0416666666666667;" width="312.5" x="804.6875" y="315.8203"/><rect codeLine="25" fill="none" height="83.3781" id="RoleAuthorizationStrategy" rx="8.3333" ry="8.3333" style="stroke:#5E5E5E;stroke-width:1.0416666666666667;" width="312.5" x="804.6875" y="292.7653"/><ellipse cx="868.2292" cy="308.4595" fill="#0066CF" rx="10.4167" ry="10.4167" style="stroke:#0086EF;stroke-width:1.0416666666666667;"/><path d="M870.1396,312.8845 Q869.7123,313.1042 869.2424,313.2141 Q868.7724,313.324 868.2536,313.324 Q866.4103,313.324 865.4399,312.1094 Q864.4694,310.8948 864.4694,308.5999 Q864.4694,306.2988 865.4399,305.0842 Q866.4103,303.8696 868.2536,303.8696 Q868.7724,303.8696 869.2485,303.9795 Q869.7245,304.0894 870.1396,304.3091 L870.1396,306.311 Q869.6757,305.8838 869.2393,305.6854 Q868.8029,305.4871 868.339,305.4871 Q867.3503,305.4871 866.8467,306.2714 Q866.3432,307.0557 866.3432,308.5999 Q866.3432,310.1379 866.8467,310.9222 Q867.3503,311.7065 868.339,311.7065 Q868.8029,311.7065 869.2393,311.5082 Q869.6757,311.3098 870.1396,310.8826 Z " fill="#000000"/><text fill="#D8BC00" font-family="Open Sans,Avenir,Nunito,Arial,Helvetica,SansSerif" font-size="12.5" font-weight="bold" lengthAdjust="spacing" textLength="170.8333" x="891.1458" y="313.1836">RoleAuthorizationStrategy</text><line style="stroke:#5E5E5E;stroke-width:1.5625;" x1="805.7292" x2="1116.1458" y1="324.1536" y2="324.1536"/><ellipse cx="816.1458" cy="359.5235" fill="#84BE84" rx="3.125" ry="3.125" style="stroke:#038048;stroke-width:1.0416666666666667;"/><text fill="#D8BC00" font-family="Open Sans,Avenir,Nunito,Arial,Helvetica,SansSerif" font-size="11.4583" lengthAdjust="spacing" textLength="280.2083" x="827.6042" y="366.4347">RoleAuthorizationStrategy(IRoleCheckingStrategy)</text><line style="stroke:#5E5E5E;stroke-width:1.0416666666666667;" x1="805.7292" x2="917.1875" y1="342.3594" y2="342.3594"/><text fill="#D8BC00" font-family="Open Sans,Avenir,Nunito,Arial,Helvetica,SansSerif" font-size="11.4583" lengthAdjust="spacing" textLength="81.25" x="920.3125" y="346.169">(constructors)</text><line style="stroke:#5E5E5E;stroke-width:1.0416666666666667;" x1="1004.6875" x2="1116.1458" y1="342.3594" y2="342.3594"/><!--MD5=[081e18de64b05ec8ae686bcc1669da5e]
class HashSet--><rect fill="#282828" height="48.055" id="HashSet" rx="8.3333" ry="8.3333" style="stroke:#5E5E5E;stroke-width:1.0416666666666667;" width="89.5833" x="159.8958" y="93.2861"/><rect fill="#1B1B1A" height="31.3883" rx="8.3333" ry="8.3333" style="stroke:#1B1B1A;stroke-width:1.0416666666666667;" width="89.5833" x="159.8958" y="93.2861"/><rect fill="#1B1B1A" height="8.3333" style="stroke:#1B1B1A;stroke-width:1.0416666666666667;" width="89.5833" x="159.8958" y="116.3411"/><rect fill="none" height="48.055" id="HashSet" rx="8.3333" ry="8.3333" style="stroke:#5E5E5E;stroke-width:1.0416666666666667;" width="89.5833" x="159.8958" y="93.2861"/><ellipse cx="174.4792" cy="108.9803" fill="#0066CF" rx="10.4167" ry="10.4167" style="stroke:#0086EF;stroke-width:1.0416666666666667;"/><path d="M176.3896,113.4054 Q175.9623,113.6251 175.4924,113.7349 Q175.0224,113.8448 174.5036,113.8448 Q172.6603,113.8448 171.6899,112.6302 Q170.7194,111.4156 170.7194,109.1207 Q170.7194,106.8197 171.6899,105.6051 Q172.6603,104.3905 174.5036,104.3905 Q175.0224,104.3905 175.4985,104.5003 Q175.9745,104.6102 176.3896,104.8299 L176.3896,106.8319 Q175.9257,106.4046 175.4893,106.2063 Q175.0529,106.0079 174.589,106.0079 Q173.6003,106.0079 173.0967,106.7922 Q172.5932,107.5765 172.5932,109.1207 Q172.5932,110.6588 173.0967,111.4431 Q173.6003,112.2274 174.589,112.2274 Q175.0529,112.2274 175.4893,112.029 Q175.9257,111.8306 176.3896,111.4034 Z " fill="#000000"/><text fill="#D8BC00" font-family="Open Sans,Avenir,Nunito,Arial,Helvetica,SansSerif" font-size="12.5" font-weight="bold" lengthAdjust="spacing" textLength="52.0833" x="191.1458" y="113.7044">HashSet</text><line style="stroke:#5E5E5E;stroke-width:1.0416666666666667;" x1="160.9375" x2="248.4375" y1="124.6745" y2="124.6745"/><line style="stroke:#5E5E5E;stroke-width:1.0416666666666667;" x1="160.9375" x2="248.4375" y1="133.0078" y2="133.0078"/><!--MD5=[d880429f06877f77d04df3530938df96]
class Roles--><rect codeLine="33" fill="#282828" height="225.7589" id="Roles" rx="8.3333" ry="8.3333" style="stroke:#5E5E5E;stroke-width:1.0416666666666667;" width="190.625" x="11.4583" y="221.4111"/><rect fill="#1B1B1A" height="31.3883" rx="8.3333" ry="8.3333" style="stroke:#1B1B1A;stroke-width:1.0416666666666667;" width="190.625" x="11.4583" y="221.4111"/><rect fill="#1B1B1A" height="8.3333" style="stroke:#1B1B1A;stroke-width:1.0416666666666667;" width="190.625" x="11.4583" y="244.4661"/><rect codeLine="33" fill="none" height="225.7589" id="Roles" rx="8.3333" ry="8.3333" style="stroke:#5E5E5E;stroke-width:1.0416666666666667;" width="190.625" x="11.4583" y="221.4111"/><ellipse cx="81.7708" cy="237.1053" fill="#0066CF" rx="10.4167" ry="10.4167" style="stroke:#0086EF;stroke-width:1.0416666666666667;"/><path d="M83.6812,241.5304 Q83.254,241.7501 82.784,241.8599 Q82.314,241.9698 81.7952,241.9698 Q79.952,241.9698 78.9815,240.7552 Q78.0111,239.5406 78.0111,237.2457 Q78.0111,234.9447 78.9815,233.7301 Q79.952,232.5155 81.7952,232.5155 Q82.314,232.5155 82.7901,232.6253 Q83.2662,232.7352 83.6812,232.9549 L83.6812,234.9569 Q83.2174,234.5296 82.781,234.3313 Q82.3446,234.1329 81.8807,234.1329 Q80.8919,234.1329 80.3884,234.9172 Q79.8848,235.7015 79.8848,237.2457 Q79.8848,238.7838 80.3884,239.5681 Q80.8919,240.3524 81.8807,240.3524 Q82.3446,240.3524 82.781,240.154 Q83.2174,239.9556 83.6812,239.5284 Z " fill="#000000"/><text fill="#D8BC00" font-family="Open Sans,Avenir,Nunito,Arial,Helvetica,SansSerif" font-size="12.5" font-weight="bold" lengthAdjust="spacing" textLength="35.4167" x="104.6875" y="241.8294">Roles</text><line style="stroke:#5E5E5E;stroke-width:1.5625;" x1="12.5" x2="201.0417" y1="252.7995" y2="252.7995"/><ellipse cx="22.9167" cy="288.1694" fill="#84BE84" rx="3.125" ry="3.125" style="stroke:#038048;stroke-width:1.0416666666666667;"/><text fill="#D8BC00" font-family="Open Sans,Avenir,Nunito,Arial,Helvetica,SansSerif" font-size="11.4583" lengthAdjust="spacing" textLength="38.5417" x="34.375" y="295.0806">Roles()</text><ellipse cx="22.9167" cy="307.9142" fill="#84BE84" rx="3.125" ry="3.125" style="stroke:#038048;stroke-width:1.0416666666666667;"/><text fill="#D8BC00" font-family="Open Sans,Avenir,Nunito,Arial,Helvetica,SansSerif" font-size="11.4583" lengthAdjust="spacing" textLength="146.875" x="34.375" y="314.8254">Roles(Collection&lt;String&gt;)</text><ellipse cx="22.9167" cy="327.6591" fill="#84BE84" rx="3.125" ry="3.125" style="stroke:#038048;stroke-width:1.0416666666666667;"/><text fill="#D8BC00" font-family="Open Sans,Avenir,Nunito,Arial,Helvetica,SansSerif" font-size="11.4583" lengthAdjust="spacing" textLength="71.875" x="34.375" y="334.5703">Roles(String)</text><ellipse cx="22.9167" cy="347.404" fill="#84BE84" rx="3.125" ry="3.125" style="stroke:#038048;stroke-width:1.0416666666666667;"/><text fill="#D8BC00" font-family="Open Sans,Avenir,Nunito,Arial,Helvetica,SansSerif" font-size="11.4583" lengthAdjust="spacing" textLength="80.2083" x="34.375" y="354.3152">Roles(String[])</text><line style="stroke:#5E5E5E;stroke-width:1.0416666666666667;" x1="12.5" x2="63.0208" y1="271.0052" y2="271.0052"/><text fill="#D8BC00" font-family="Open Sans,Avenir,Nunito,Arial,Helvetica,SansSerif" font-size="11.4583" lengthAdjust="spacing" textLength="81.25" x="66.1458" y="274.8149">(constructors)</text><line style="stroke:#5E5E5E;stroke-width:1.0416666666666667;" x1="150.5208" x2="201.0417" y1="271.0052" y2="271.0052"/><ellipse cx="22.9167" cy="391.0604" fill="#84BE84" rx="3.125" ry="3.125" style="stroke:#038048;stroke-width:1.0416666666666667;"/><text fill="#D8BC00" font-family="Open Sans,Avenir,Nunito,Arial,Helvetica,SansSerif" font-size="11.4583" lengthAdjust="spacing" textLength="151.0417" x="34.375" y="397.9716">boolean hasAllRoles(Roles)</text><ellipse cx="22.9167" cy="410.8053" fill="#84BE84" rx="3.125" ry="3.125" style="stroke:#038048;stroke-width:1.0416666666666667;"/><text fill="#D8BC00" font-family="Open Sans,Avenir,Nunito,Arial,Helvetica,SansSerif" font-size="11.4583" lengthAdjust="spacing" textLength="152.0833" x="34.375" y="417.7165">boolean hasAnyRole(Roles)</text><ellipse cx="22.9167" cy="430.5501" fill="#84BE84" rx="3.125" ry="3.125" style="stroke:#038048;stroke-width:1.0416666666666667;"/><text fill="#D8BC00" font-family="Open Sans,Avenir,Nunito,Arial,Helvetica,SansSerif" font-size="11.4583" lengthAdjust="spacing" textLength="158.3333" x="34.375" y="437.4613">boolean hasRole(String role)</text><line style="stroke:#5E5E5E;stroke-width:1.0416666666666667;" x1="12.5" x2="80.2083" y1="373.8963" y2="373.8963"/><text fill="#D8BC00" font-family="Open Sans,Avenir,Nunito,Arial,Helvetica,SansSerif" font-size="11.4583" lengthAdjust="spacing" textLength="46.875" x="83.3333" y="377.7059">(checks)</text><line style="stroke:#5E5E5E;stroke-width:1.0416666666666667;" x1="133.3333" x2="201.0417" y1="373.8963" y2="373.8963"/><!--MD5=[80b61ecdb3a7248587e327e2d248bc18]
reverse link IAuthorizationStrategy.AllowAllAuthorizationStrategy to AbstractRoleAuthorizationStrategy--><path codeLine="8" d="M459.8958,162.1715 C459.8958,190.4424 459.8958,227.8903 459.8958,260.557 " fill="none" id="IAuthorizationStrategy.AllowAllAuthorizationStrategy-backto-AbstractRoleAuthorizationStrategy" style="stroke:#545454;stroke-width:1.5625;"/><polygon fill="none" points="452.6042,162.1403,459.8958,141.307,467.1875,162.1403,452.6042,162.1403" style="stroke:#545454;stroke-width:1.5625;"/><!--MD5=[737c8b30fdef18ba46bcc3b5c4752576]
reverse link CompoundAuthorizationStrategy to RoleAuthorizationStrategy--><path codeLine="24" d="M960.9375,162.3799 C960.9375,200.5778 960.9375,255.4111 960.9375,292.609 " fill="none" id="CompoundAuthorizationStrategy-backto-RoleAuthorizationStrategy" style="stroke:#545454;stroke-width:1.5625;"/><polygon fill="none" points="953.6458,162.1403,960.9375,141.307,968.2292,162.1403,953.6458,162.1403" style="stroke:#545454;stroke-width:1.5625;"/><!--MD5=[4ecd6cbfe3f17999a6d095c123c14169]
reverse link HashSet to Roles--><path codeLine="31" d="M185.5417,160.3382 C177.5313,177.932 167.8021,199.307 157.9583,220.9424 " fill="none" id="HashSet-backto-Roles" style="stroke:#545454;stroke-width:1.5625;"/><polygon fill="none" points="178.9375,157.2445,194.2083,141.307,192.2188,163.2861,178.9375,157.2445" style="stroke:#545454;stroke-width:1.5625;"/><!--MD5=[c7e45fc3489ac992ea61af4920d41f6f]
reverse link IClusterable to Roles--><path codeLine="32" d="M73.5313,161.7861 C76.8854,179.0986 80.9167,199.9007 84.9896,220.9424 " fill="none" id="IClusterable-backto-Roles" style="stroke:#545454;stroke-width:1.5625;"/><polygon fill="none" points="66.3646,163.1507,69.5625,141.307,80.6875,160.3695,66.3646,163.1507" style="stroke:#545454;stroke-width:1.5625;"/><!--MD5=[ea029596e621fd25d6cb1f835985ef97]
@startuml

    !include lexakai.theme
    
    title "org.apache.wicket.authroles.authorization.strategies.role"
    
    interface IClusterable
    
    IAuthorizationStrategy.AllowAllAuthorizationStrategy <|- - AbstractRoleAuthorizationStrategy
    abstract class AbstractRoleAuthorizationStrategy
    {
        - -(constructors)- -
        +AbstractRoleAuthorizationStrategy(IRoleCheckingStrategy)
        - -(checks)- -
        #boolean hasAny(Roles)
        #boolean isEmpty(Roles)
    }
    
    interface IRoleCheckingStrategy
    {
        - -(checks)- -
        +boolean hasAnyRole(Roles)
    }
    
    CompoundAuthorizationStrategy <|- - RoleAuthorizationStrategy
    class RoleAuthorizationStrategy
    {
        - -(constructors)- -
        +RoleAuthorizationStrategy(IRoleCheckingStrategy)
    }
    
    HashSet <|- - Roles
    IClusterable <|- - Roles
    class Roles
    {
        - -(constructors)- -
        +Roles()
        +Roles(Collection<String>)
        +Roles(String)
        +Roles(String[])
        - -(checks)- -
        +boolean hasAllRoles(Roles)
        +boolean hasAnyRole(Roles)
        +boolean hasRole(String role)
    }
    
@enduml

@startuml









skinparam backgroundColor #333333






skinparam  {
    defaultFontName   "Open Sans,Avenir,Nunito,Arial,Helvetica,SansSerif"
    defaultFontSize   12
    defaultTextAlignment left
    shadowing false
    RoundCorner 10
    TitleFontSize 18
}

skinparam defaultFontName       "Open Sans,Avenir,Nunito,Arial,Helvetica,SansSerif"
skinparam defaultFontSize       12
skinparam dpi                   100
skinparam shadowing             false
skinparam roundcorner           16
skinparam ParticipantPadding    40
skinparam BoxPadding            40
skinparam Padding               3
skinparam ArrowColor            #545454
skinparam stereotype {
    CBackgroundColor #0066cf
    CBorderColor #0086ef
    ABackgroundColor #C8Ac00
    ABorderColor #D8Bc00
    IBackgroundColor #008400
    IBorderColor #239c23
    EBackgroundColor #cf6300
    EBorderColor #ef8300
    NBackgroundColor #3380b9
    NBorderColor #004d86
}
skinparam title {
	FontColor	                 #c0c0c0
 	BorderColor                  #545454
	FontSize	    	         20
	BorderRoundCorner            16
	BorderThickness 	         1
	BackgroundColor              #48494b
}


skinparam legend {
	BackgroundColor #303030
	BorderColor #404040
	FontColor #a0a0a0
}

	skinparam swimlane {
	BorderColor #5e5e5e
	BorderThickness 2
	TitleBackgroundColor  #6d6d6d-#484848
	TitleFontColor #303030
}

skinparam activity {
		FontColor #C8Ac00
	BorderColor #333333
	BackgroundColor #333333-#333333
	BarColor #00FF00
	StartColor #0060a8
	EndColor #0060a8
	DiamondBackgroundColor #6d6d6d-#3a3a3a
  	DiamondBorderColor #3a3a3a
  	DiamondFontColor #fefefe
}


skinparam participant {
		FontColor #C8Ac00
	BorderColor #333333
	BackgroundColor #333333-#333333
	ParticipantBorderThickness 2
}


skinparam actor {
		FontColor #C8Ac00
	BorderColor #333333
	BackgroundColor #333333-#333333
}


skinparam arrow {
	Thickness 1.5
	Color #545454
	FontColor #a0a0a0
    FontStyle bold
    MessageAlignment center
}



skinparam sequence {
	BorderColor #303030
	TitleFontColor #303030
	BackgroundColor #333333
	StartColor #303030
	EndColor #303030
	BoxBackgroundColor #333333
	BoxBorderColor #484848
	BoxFontColor #484848
	LifeLineBorderColor #484848
	LifeLineBorderThickness 2
	LifeLineBackgroundColor #3a3a3a
	GroupBorderColor #484848
	GroupFontColor #484848
	GroupHeaderFontColor #0060a8
	GroupBackgroundColor #484848
	GroupHeaderBackgroundColor #333333
	DividerBackgroundColor #484848
    DividerBorderColor #484848
    DividerBorderThickness 2
    DividerFontColor #D8Bc00
	ReferenceBackgroundColor #333333
	ReferenceBorderColor #484848
	ReferenceFontColor #fefefe
	ReferenceHeaderBackgroundColor #484848
}


skinparam partition {
	BorderColor #303030
	FontColor #333333
	BackgroundColor #333333
}


skinparam collections {
		FontColor #C8Ac00
	BorderColor #333333
	BackgroundColor #333333-#333333
}


skinparam control {
		FontColor #C8Ac00
	BorderColor #333333
	BackgroundColor #333333-#333333
}


skinparam entity {
		FontColor #C8Ac00
	BorderColor #333333
	BackgroundColor #333333-#333333
}


skinparam boundary {
		FontColor #C8Ac00
	BorderColor #333333
	BackgroundColor #333333-#333333
}


skinparam agent {
	BackgroundColor #ff8000
	BorderColor #ff9933
	FontColor #484848
}


skinparam note {
	BorderThickness 1
	BackgroundColor #1b1b1a
	BorderColor #5e5e5e
	FontSize 11
	FontColor #a0a0a0
}


skinparam artifact {
	BorderThickness 10
	BorderColor #5e5e5e
	BackgroundColor #1b1b1a
	FontColor #D8Bc00
}


skinparam component {
		FontColor #C8Ac00
	BorderColor #333333
	BackgroundColor #333333-#333333
}


skinparam interface {
	BackgroundColor  #008400
	BorderColor  #007F00
	FontColor #484848
}


skinparam storage {
	BackgroundColor #ff8000
  	BorderColor #cc6600
	FontColor #222222
}


skinparam node {
	BackgroundColor #333333
	BorderColor #333333
	FontColor #C8Ac00
}


skinparam cloud {
	BackgroundColor #484848-black
	BorderColor #484848
	FontColor #D8Bc00
}


skinparam database {
		FontColor #C8Ac00
	BorderColor #333333
	BackgroundColor #333333-#333333
	BackgroundColor  #333333
}


skinparam class {
		FontColor #C8Ac00
	BorderColor #333333
	BackgroundColor #333333-#333333
	HeaderBackgroundColor #1b1b1a
    BackgroundColor #282828
    BorderColor #5e5e5e
 	StereotypeFontColor #a0a0a0
    StereotypeFontStyle bold
	BorderThickness 1
	AttributeFontColor #D8Bc00
	AttributeFontSize 11
    FontColor #D8Bc00
    FontStyle bold
}


skinparam object {
		FontColor #C8Ac00
	BorderColor #333333
	BackgroundColor #333333-#333333
	StereotypeFontColor #484848
	BorderThickness 1
	AttributeFontColor #fefefe
	AttributeFontSize 11
}


skinparam usecase {
		FontColor #C8Ac00
	BorderColor #333333
	BackgroundColor #333333-#333333
	BorderThickness 2
	StereotypeFontColor #303030
}


skinparam rectangle {
		FontColor #C8Ac00
	BorderColor #333333
	BackgroundColor #333333-#333333
	BackgroundColor #333333
	BorderThickness 2
	StereotypeFontColor #303030
}


skinparam package {
		FontColor #C8Ac00
	BorderColor #333333
	BackgroundColor #333333-#333333
	BackgroundColor #333333
	BorderThickness 2
}


skinparam folder {
	BackgroundColor #6d6d6d
  	BorderColor #ff8000
	FontColor #ff8000
	BorderThickness 2
}


skinparam frame {
	BackgroundColor #6d6d6d
  	BorderColor #0060a8
	FontColor #0060a8
	BorderThickness 2
}


skinparam state {
		FontColor #C8Ac00
	BorderColor #333333
	BackgroundColor #333333-#333333
	StartColor #0060a8
	EndColor #0060a8
	AttributeFontColor #fefefe
	AttributeFontSize 11
}


skinparam queue {
		FontColor #C8Ac00
	BorderColor #333333
	BackgroundColor #333333-#333333
}


skinparam card {
	BackgroundColor #0060a8
	BorderColor #004d86
	FontColor $INFO_TEXT
}


skinparam file {
	BackgroundColor #6d6d6d-#484848
	BorderColor #0060a8
	FontColor #fefefe
}


skinparam stack {
		FontColor #C8Ac00
	BorderColor #333333
	BackgroundColor #333333-#333333
}

    
    title "org.apache.wicket.authroles.authorization.strategies.role"
    
    interface IClusterable
    
    IAuthorizationStrategy.AllowAllAuthorizationStrategy <|- - AbstractRoleAuthorizationStrategy
    abstract class AbstractRoleAuthorizationStrategy
    {
        - -(constructors)- -
        +AbstractRoleAuthorizationStrategy(IRoleCheckingStrategy)
        - -(checks)- -
        #boolean hasAny(Roles)
        #boolean isEmpty(Roles)
    }
    
    interface IRoleCheckingStrategy
    {
        - -(checks)- -
        +boolean hasAnyRole(Roles)
    }
    
    CompoundAuthorizationStrategy <|- - RoleAuthorizationStrategy
    class RoleAuthorizationStrategy
    {
        - -(constructors)- -
        +RoleAuthorizationStrategy(IRoleCheckingStrategy)
    }
    
    HashSet <|- - Roles
    IClusterable <|- - Roles
    class Roles
    {
        - -(constructors)- -
        +Roles()
        +Roles(Collection<String>)
        +Roles(String)
        +Roles(String[])
        - -(checks)- -
        +boolean hasAllRoles(Roles)
        +boolean hasAnyRole(Roles)
        +boolean hasRole(String role)
    }
    
@enduml

PlantUML version 1.2021.01(Tue Feb 02 00:55:08 MST 2021)
(GPL source distribution)
Java Runtime: Java(TM) SE Runtime Environment
JVM: Java HotSpot(TM) 64-Bit Server VM
Default Encoding: UTF-8
Language: en
Country: US
--></g></svg>