<?xml version="1.0" encoding="UTF-8" standalone="no"?><svg xmlns="http://www.w3.org/2000/svg" xmlns:xlink="http://www.w3.org/1999/xlink" contentScriptType="application/ecmascript" contentStyleType="text/css" height="426.0417px" preserveAspectRatio="none" style="width:1128px;height:426px;background:#333333;" version="1.1" viewBox="0 0 1128 426" width="1128.125px" zoomAndPan="magnify"><defs/><g><rect fill="#48494B" height="41.2028" rx="8.3333" ry="8.3333" style="stroke:#545454;stroke-width:1.0416666666666667;" width="210.4167" x="451.8229" y="2.0833"/><text fill="#C0C0C0" font-family="Open Sans,Avenir,Nunito,Arial,Helvetica,SansSerif" font-size="20.8333" lengthAdjust="spacing" textLength="187.5" x="463.2813" y="30.5583">wicket-user-guide</text><!--MD5=[88a18b84af72aac0baa747f98e10bd90]
entity jakarta_servlet_api--><rect fill="#1B1B1A" height="44.93" rx="8.3333" ry="8.3333" style="stroke:#5E5E5E;stroke-width:1.5625;" width="151.0417" x="167.7083" y="160.9945"/><polygon fill="#1B1B1A" points="301.0417,166.2028,301.0417,180.7861,313.5417,180.7861,313.5417,172.4528,307.2917,166.2028,301.0417,166.2028" style="stroke:#5E5E5E;stroke-width:1.5625;"/><line style="stroke:#5E5E5E;stroke-width:1.5625;" x1="307.2917" x2="307.2917" y1="166.2028" y2="172.4528"/><line style="stroke:#5E5E5E;stroke-width:1.5625;" x1="313.5417" x2="307.2917" y1="172.4528" y2="172.4528"/><text fill="#D8BC00" font-family="Open Sans,Avenir,Nunito,Arial,Helvetica,SansSerif" font-size="12.5" lengthAdjust="spacing" textLength="113.5417" x="181.25" y="189.7461">jakarta_servlet_api</text><!--MD5=[907dfa26722c2bcd0e79bfb32775d5c3]
entity log4j--><rect fill="#1B1B1A" height="44.93" rx="8.3333" ry="8.3333" style="stroke:#5E5E5E;stroke-width:1.5625;" width="67.7083" x="1023.9583" y="268.2861"/><polygon fill="#1B1B1A" points="1073.9583,273.4945,1073.9583,288.0778,1086.4583,288.0778,1086.4583,279.7445,1080.2083,273.4945,1073.9583,273.4945" style="stroke:#5E5E5E;stroke-width:1.5625;"/><line style="stroke:#5E5E5E;stroke-width:1.5625;" x1="1080.2083" x2="1080.2083" y1="273.4945" y2="279.7445"/><line style="stroke:#5E5E5E;stroke-width:1.5625;" x1="1086.4583" x2="1080.2083" y1="279.7445" y2="279.7445"/><text fill="#D8BC00" font-family="Open Sans,Avenir,Nunito,Arial,Helvetica,SansSerif" font-size="12.5" lengthAdjust="spacing" textLength="30.2083" x="1037.5" y="297.0378">log4j</text><!--MD5=[4ff87df6ca00ec4715fce5605f10cfb8]
entity byte_buddy_agent--><rect fill="#1B1B1A" height="44.93" rx="8.3333" ry="8.3333" style="stroke:#5E5E5E;stroke-width:1.5625;" width="147.9167" x="552.6042" y="268.2861"/><polygon fill="#1B1B1A" points="682.8125,273.4945,682.8125,288.0778,695.3125,288.0778,695.3125,279.7445,689.0625,273.4945,682.8125,273.4945" style="stroke:#5E5E5E;stroke-width:1.5625;"/><line style="stroke:#5E5E5E;stroke-width:1.5625;" x1="689.0625" x2="689.0625" y1="273.4945" y2="279.7445"/><line style="stroke:#5E5E5E;stroke-width:1.5625;" x1="695.3125" x2="689.0625" y1="279.7445" y2="279.7445"/><text fill="#D8BC00" font-family="Open Sans,Avenir,Nunito,Arial,Helvetica,SansSerif" font-size="12.5" lengthAdjust="spacing" textLength="110.4167" x="566.1458" y="297.0378">byte_buddy_agent</text><!--MD5=[4b7412f65198b4c52d4b80fff6e833ea]
entity byte_buddy--><rect fill="#1B1B1A" height="44.93" rx="8.3333" ry="8.3333" style="stroke:#5E5E5E;stroke-width:1.5625;" width="108.3333" x="736.9792" y="268.2861"/><polygon fill="#1B1B1A" points="827.6042,273.4945,827.6042,288.0778,840.1042,288.0778,840.1042,279.7445,833.8542,273.4945,827.6042,273.4945" style="stroke:#5E5E5E;stroke-width:1.5625;"/><line style="stroke:#5E5E5E;stroke-width:1.5625;" x1="833.8542" x2="833.8542" y1="273.4945" y2="279.7445"/><line style="stroke:#5E5E5E;stroke-width:1.5625;" x1="840.1042" x2="833.8542" y1="279.7445" y2="279.7445"/><text fill="#D8BC00" font-family="Open Sans,Avenir,Nunito,Arial,Helvetica,SansSerif" font-size="12.5" lengthAdjust="spacing" textLength="70.8333" x="750.5208" y="297.0378">byte_buddy</text><!--MD5=[deca42467ac94d8d79e595d7a375665e]
entity wicket_user_guide--><rect fill="#1B1B1A" height="44.93" rx="8.3333" ry="8.3333" style="stroke:#5E5E5E;stroke-width:1.5625;" width="146.875" x="629.1667" y="53.7028"/><polygon fill="#1B1B1A" points="758.3333,58.9111,758.3333,73.4945,770.8333,73.4945,770.8333,65.1611,764.5833,58.9111,758.3333,58.9111" style="stroke:#5E5E5E;stroke-width:1.5625;"/><line style="stroke:#5E5E5E;stroke-width:1.5625;" x1="764.5833" x2="764.5833" y1="58.9111" y2="65.1611"/><line style="stroke:#5E5E5E;stroke-width:1.5625;" x1="770.8333" x2="764.5833" y1="65.1611" y2="65.1611"/><text fill="#D8BC00" font-family="Open Sans,Avenir,Nunito,Arial,Helvetica,SansSerif" font-size="12.5" lengthAdjust="spacing" textLength="109.375" x="642.7083" y="82.4544">wicket_user_guide</text><!--MD5=[9ca5736865ad522015f112acaf757dc2]
entity apiguardian_api--><rect fill="#1B1B1A" height="44.93" rx="8.3333" ry="8.3333" style="stroke:#5E5E5E;stroke-width:1.5625;" width="134.375" x="7.2917" y="268.2861"/><polygon fill="#1B1B1A" points="123.9583,273.4945,123.9583,288.0778,136.4583,288.0778,136.4583,279.7445,130.2083,273.4945,123.9583,273.4945" style="stroke:#5E5E5E;stroke-width:1.5625;"/><line style="stroke:#5E5E5E;stroke-width:1.5625;" x1="130.2083" x2="130.2083" y1="273.4945" y2="279.7445"/><line style="stroke:#5E5E5E;stroke-width:1.5625;" x1="136.4583" x2="130.2083" y1="279.7445" y2="279.7445"/><text fill="#D8BC00" font-family="Open Sans,Avenir,Nunito,Arial,Helvetica,SansSerif" font-size="12.5" lengthAdjust="spacing" textLength="96.875" x="20.8333" y="297.0378">apiguardian_api</text><!--MD5=[67ea71966aa57e3ddf5b1acb79bd106c]
entity junit_jupiter_api--><rect fill="#1B1B1A" height="44.93" rx="8.3333" ry="8.3333" style="stroke:#5E5E5E;stroke-width:1.5625;" width="134.375" x="178.125" y="268.2861"/><polygon fill="#1B1B1A" points="294.7917,273.4945,294.7917,288.0778,307.2917,288.0778,307.2917,279.7445,301.0417,273.4945,294.7917,273.4945" style="stroke:#5E5E5E;stroke-width:1.5625;"/><line style="stroke:#5E5E5E;stroke-width:1.5625;" x1="301.0417" x2="301.0417" y1="273.4945" y2="279.7445"/><line style="stroke:#5E5E5E;stroke-width:1.5625;" x1="307.2917" x2="301.0417" y1="279.7445" y2="279.7445"/><text fill="#D8BC00" font-family="Open Sans,Avenir,Nunito,Arial,Helvetica,SansSerif" font-size="12.5" lengthAdjust="spacing" textLength="96.875" x="191.6667" y="297.0378">junit_jupiter_api</text><!--MD5=[def59a02e843c50310240afbb884053d]
entity junit_jupiter_engine--><rect fill="#1B1B1A" height="44.93" rx="8.3333" ry="8.3333" style="stroke:#5E5E5E;stroke-width:1.5625;" width="155.2083" x="355.2083" y="160.9945"/><polygon fill="#1B1B1A" points="492.7083,166.2028,492.7083,180.7861,505.2083,180.7861,505.2083,172.4528,498.9583,166.2028,492.7083,166.2028" style="stroke:#5E5E5E;stroke-width:1.5625;"/><line style="stroke:#5E5E5E;stroke-width:1.5625;" x1="498.9583" x2="498.9583" y1="166.2028" y2="172.4528"/><line style="stroke:#5E5E5E;stroke-width:1.5625;" x1="505.2083" x2="498.9583" y1="172.4528" y2="172.4528"/><text fill="#D8BC00" font-family="Open Sans,Avenir,Nunito,Arial,Helvetica,SansSerif" font-size="12.5" lengthAdjust="spacing" textLength="117.7083" x="368.75" y="189.7461">junit_jupiter_engine</text><!--MD5=[16ac86175dbfd8781882e642bc1db0bb]
entity junit_platform_commons--><rect fill="#1B1B1A" height="44.93" rx="8.3333" ry="8.3333" style="stroke:#5E5E5E;stroke-width:1.5625;" width="184.375" x="251.0417" y="375.5778"/><polygon fill="#1B1B1A" points="417.7083,380.7861,417.7083,395.3695,430.2083,395.3695,430.2083,387.0361,423.9583,380.7861,417.7083,380.7861" style="stroke:#5E5E5E;stroke-width:1.5625;"/><line style="stroke:#5E5E5E;stroke-width:1.5625;" x1="423.9583" x2="423.9583" y1="380.7861" y2="387.0361"/><line style="stroke:#5E5E5E;stroke-width:1.5625;" x1="430.2083" x2="423.9583" y1="387.0361" y2="387.0361"/><text fill="#D8BC00" font-family="Open Sans,Avenir,Nunito,Arial,Helvetica,SansSerif" font-size="12.5" lengthAdjust="spacing" textLength="146.875" x="264.5833" y="404.3294">junit_platform_commons</text><!--MD5=[c94fa6fb52256b56717125d5f4ed3cc6]
entity junit_platform_engine--><rect fill="#1B1B1A" height="44.93" rx="8.3333" ry="8.3333" style="stroke:#5E5E5E;stroke-width:1.5625;" width="166.6667" x="349.4792" y="268.2861"/><polygon fill="#1B1B1A" points="498.4375,273.4945,498.4375,288.0778,510.9375,288.0778,510.9375,279.7445,504.6875,273.4945,498.4375,273.4945" style="stroke:#5E5E5E;stroke-width:1.5625;"/><line style="stroke:#5E5E5E;stroke-width:1.5625;" x1="504.6875" x2="504.6875" y1="273.4945" y2="279.7445"/><line style="stroke:#5E5E5E;stroke-width:1.5625;" x1="510.9375" x2="504.6875" y1="279.7445" y2="279.7445"/><text fill="#D8BC00" font-family="Open Sans,Avenir,Nunito,Arial,Helvetica,SansSerif" font-size="12.5" lengthAdjust="spacing" textLength="129.1667" x="363.0208" y="297.0378">junit_platform_engine</text><!--MD5=[a68d3636c404b547973d4378239fa3aa]
entity mockito_core--><rect fill="#1B1B1A" height="44.93" rx="8.3333" ry="8.3333" style="stroke:#5E5E5E;stroke-width:1.5625;" width="116.6667" x="568.2292" y="160.9945"/><polygon fill="#1B1B1A" points="667.1875,166.2028,667.1875,180.7861,679.6875,180.7861,679.6875,172.4528,673.4375,166.2028,667.1875,166.2028" style="stroke:#5E5E5E;stroke-width:1.5625;"/><line style="stroke:#5E5E5E;stroke-width:1.5625;" x1="673.4375" x2="673.4375" y1="166.2028" y2="172.4528"/><line style="stroke:#5E5E5E;stroke-width:1.5625;" x1="679.6875" x2="673.4375" y1="172.4528" y2="172.4528"/><text fill="#D8BC00" font-family="Open Sans,Avenir,Nunito,Arial,Helvetica,SansSerif" font-size="12.5" lengthAdjust="spacing" textLength="79.1667" x="581.7708" y="189.7461">mockito_core</text><!--MD5=[b3c862d1486667ad9c7edef6529b2202]
entity objenesis--><rect fill="#1B1B1A" height="44.93" rx="8.3333" ry="8.3333" style="stroke:#5E5E5E;stroke-width:1.5625;" width="94.7917" x="882.2917" y="268.2861"/><polygon fill="#1B1B1A" points="959.375,273.4945,959.375,288.0778,971.875,288.0778,971.875,279.7445,965.625,273.4945,959.375,273.4945" style="stroke:#5E5E5E;stroke-width:1.5625;"/><line style="stroke:#5E5E5E;stroke-width:1.5625;" x1="965.625" x2="965.625" y1="273.4945" y2="279.7445"/><line style="stroke:#5E5E5E;stroke-width:1.5625;" x1="971.875" x2="965.625" y1="279.7445" y2="279.7445"/><text fill="#D8BC00" font-family="Open Sans,Avenir,Nunito,Arial,Helvetica,SansSerif" font-size="12.5" lengthAdjust="spacing" textLength="57.2917" x="895.8333" y="297.0378">objenesis</text><!--MD5=[ba030213f11f5a3d5b319bb69903d2f9]
entity opentest4j--><rect fill="#1B1B1A" height="44.93" rx="8.3333" ry="8.3333" style="stroke:#5E5E5E;stroke-width:1.5625;" width="102.0833" x="472.3958" y="375.5778"/><polygon fill="#1B1B1A" points="556.7708,380.7861,556.7708,395.3695,569.2708,395.3695,569.2708,387.0361,563.0208,380.7861,556.7708,380.7861" style="stroke:#5E5E5E;stroke-width:1.5625;"/><line style="stroke:#5E5E5E;stroke-width:1.5625;" x1="563.0208" x2="563.0208" y1="380.7861" y2="387.0361"/><line style="stroke:#5E5E5E;stroke-width:1.5625;" x1="569.2708" x2="563.0208" y1="387.0361" y2="387.0361"/><text fill="#D8BC00" font-family="Open Sans,Avenir,Nunito,Arial,Helvetica,SansSerif" font-size="12.5" lengthAdjust="spacing" textLength="64.5833" x="485.9375" y="404.3294">opentest4j</text><!--MD5=[2158cadba960fc97c965ca71cca36298]
entity jcl_over_slf4j--><rect fill="#1B1B1A" height="44.93" rx="8.3333" ry="8.3333" style="stroke:#5E5E5E;stroke-width:1.5625;" width="115.625" x="721.875" y="160.9945"/><polygon fill="#1B1B1A" points="819.7917,166.2028,819.7917,180.7861,832.2917,180.7861,832.2917,172.4528,826.0417,166.2028,819.7917,166.2028" style="stroke:#5E5E5E;stroke-width:1.5625;"/><line style="stroke:#5E5E5E;stroke-width:1.5625;" x1="826.0417" x2="826.0417" y1="166.2028" y2="172.4528"/><line style="stroke:#5E5E5E;stroke-width:1.5625;" x1="832.2917" x2="826.0417" y1="172.4528" y2="172.4528"/><text fill="#D8BC00" font-family="Open Sans,Avenir,Nunito,Arial,Helvetica,SansSerif" font-size="12.5" lengthAdjust="spacing" textLength="78.125" x="735.4167" y="189.7461">jcl_over_slf4j</text><!--MD5=[44b0a2e1eacfc27a1dd91401467b1b24]
entity slf4j_api--><rect fill="#1B1B1A" height="44.93" rx="8.3333" ry="8.3333" style="stroke:#5E5E5E;stroke-width:1.5625;" width="88.5417" x="873.9583" y="160.9945"/><polygon fill="#1B1B1A" points="944.7917,166.2028,944.7917,180.7861,957.2917,180.7861,957.2917,172.4528,951.0417,166.2028,944.7917,166.2028" style="stroke:#5E5E5E;stroke-width:1.5625;"/><line style="stroke:#5E5E5E;stroke-width:1.5625;" x1="951.0417" x2="951.0417" y1="166.2028" y2="172.4528"/><line style="stroke:#5E5E5E;stroke-width:1.5625;" x1="957.2917" x2="951.0417" y1="172.4528" y2="172.4528"/><text fill="#D8BC00" font-family="Open Sans,Avenir,Nunito,Arial,Helvetica,SansSerif" font-size="12.5" lengthAdjust="spacing" textLength="51.0417" x="887.5" y="189.7461">slf4j_api</text><!--MD5=[7fbee5ae74c8dd4ba8120faa50c8c743]
entity slf4j_log4j12--><rect fill="#1B1B1A" height="44.93" rx="8.3333" ry="8.3333" style="stroke:#5E5E5E;stroke-width:1.5625;" width="116.6667" x="999.4792" y="160.9945"/><polygon fill="#1B1B1A" points="1098.4375,166.2028,1098.4375,180.7861,1110.9375,180.7861,1110.9375,172.4528,1104.6875,166.2028,1098.4375,166.2028" style="stroke:#5E5E5E;stroke-width:1.5625;"/><line style="stroke:#5E5E5E;stroke-width:1.5625;" x1="1104.6875" x2="1104.6875" y1="166.2028" y2="172.4528"/><line style="stroke:#5E5E5E;stroke-width:1.5625;" x1="1110.9375" x2="1104.6875" y1="172.4528" y2="172.4528"/><text fill="#D8BC00" font-family="Open Sans,Avenir,Nunito,Arial,Helvetica,SansSerif" font-size="12.5" lengthAdjust="spacing" textLength="79.1667" x="1013.0208" y="189.7461">slf4j_log4j12</text><!--MD5=[387791ceefa6e7ac0048e0d5370dea72]
link junit_jupiter_engine to apiguardian_api--><path d="M359.8646,205.8486 C297.7708,224.0778 209.0208,250.1403 147.0313,268.3382 " fill="none" id="junit_jupiter_engine-to-apiguardian_api" style="stroke:#545454;stroke-width:1.5625;"/><polygon fill="#545454" points="141.875,269.8486,152.0454,271.1958,146.871,268.3766,149.6901,263.2022,141.875,269.8486" style="stroke:#545454;stroke-width:1.5625;"/><!--MD5=[f4b72d10a6cfe7a8a93ab847947f7423]
link junit_jupiter_engine to junit_jupiter_api--><path d="M394.4167,205.9736 C363.5729,223.2757 320.2917,247.5674 288.2917,265.5257 " fill="none" id="junit_jupiter_engine-to-junit_jupiter_api" style="stroke:#545454;stroke-width:1.5625;"/><polygon fill="#545454" points="283.6563,268.1299,293.869,267.1541,288.1929,265.5715,289.7756,259.8955,283.6563,268.1299" style="stroke:#545454;stroke-width:1.5625;"/><!--MD5=[06eb6ab5d989baa08de92dee96f24dd7]
link junit_jupiter_engine to junit_platform_engine--><path d="M432.8125,206.234 C432.8125,222.7028 432.8125,245.4007 432.8125,262.9528 " fill="none" id="junit_jupiter_engine-to-junit_platform_engine" style="stroke:#545454;stroke-width:1.5625;"/><polygon fill="#545454" points="432.8125,268.234,436.9792,258.859,432.8125,263.0257,428.6458,258.859,432.8125,268.234" style="stroke:#545454;stroke-width:1.5625;"/><!--MD5=[ae5ab7164155f4fc79ebb3185a9c5d1c]
link junit_platform_engine to junit_platform_commons--><path d="M414.25,313.5257 C399.9792,330.2757 380.2292,353.4736 365.1771,371.1507 " fill="none" id="junit_platform_engine-to-junit_platform_commons" style="stroke:#545454;stroke-width:1.5625;"/><polygon fill="#545454" points="361.4583,375.5257,370.7053,371.0821,364.8319,371.5576,364.3564,365.6843,361.4583,375.5257" style="stroke:#545454;stroke-width:1.5625;"/><!--MD5=[8a9b5fbf88ccec267ebeca0685c2396a]
link junit_platform_engine to opentest4j--><path d="M451.5938,313.5257 C466.0208,330.2757 486,353.4736 501.2292,371.1507 " fill="none" id="junit_platform_engine-to-opentest4j" style="stroke:#545454;stroke-width:1.5625;"/><polygon fill="#545454" points="504.9896,375.5257,502.0124,365.708,501.5842,371.5849,495.7072,371.1567,504.9896,375.5257" style="stroke:#545454;stroke-width:1.5625;"/><!--MD5=[ed4318ea9be3443a979b37d4f3399abc]
link mockito_core to byte_buddy--><path d="M660.2604,205.9736 C687.2292,223.2132 725.0208,247.3695 753.0729,265.307 " fill="none" id="mockito_core-to-byte_buddy" style="stroke:#545454;stroke-width:1.5625;"/><polygon fill="#545454" points="757.4896,268.1299,751.8435,259.5641,753.1041,265.3202,747.348,266.5808,757.4896,268.1299" style="stroke:#545454;stroke-width:1.5625;"/><!--MD5=[ca166302077c6e1468853e13a25b2a92]
link mockito_core to byte_buddy_agent--><path d="M626.5625,206.234 C626.5625,222.7028 626.5625,245.4007 626.5625,262.9528 " fill="none" id="mockito_core-to-byte_buddy_agent" style="stroke:#545454;stroke-width:1.5625;"/><polygon fill="#545454" points="626.5625,268.234,630.7292,258.859,626.5625,263.0257,622.3958,258.859,626.5625,268.234" style="stroke:#545454;stroke-width:1.5625;"/><!--MD5=[eff02feeff1f5c6fac4f7dcff0627abc]
link mockito_core to objenesis--><path d="M685.0104,204.7132 C740.5104,223.984 823.2083,252.682 876.7917,271.2861 " fill="none" id="mockito_core-to-objenesis" style="stroke:#545454;stroke-width:1.5625;"/><polygon fill="#545454" points="881.8854,273.0465,874.3971,266.0339,876.9656,271.3372,871.6622,273.9057,881.8854,273.0465" style="stroke:#545454;stroke-width:1.5625;"/><!--MD5=[546b0a91a22de90019b2ba1c617f48bd]
link slf4j_log4j12 to log4j--><path d="M1057.8125,206.234 C1057.8125,222.7028 1057.8125,245.4007 1057.8125,262.9528 " fill="none" id="slf4j_log4j12-to-log4j" style="stroke:#545454;stroke-width:1.5625;"/><polygon fill="#545454" points="1057.8125,268.234,1061.9792,258.859,1057.8125,263.0257,1053.6458,258.859,1057.8125,268.234" style="stroke:#545454;stroke-width:1.5625;"/><!--MD5=[a5d1c74834162fa2d69ea94e7d1375b2]
link wicket_user_guide to jakarta_servlet_api--><path d="M628.8021,94.0465 C545.3646,113.1507 409.9896,144.1611 323.8542,163.8799 " fill="none" id="wicket_user_guide-to-jakarta_servlet_api" style="stroke:#545454;stroke-width:1.5625;"/><polygon fill="#545454" points="318.7604,165.0465,328.8339,166.9898,323.8344,163.8711,326.9531,158.8715,318.7604,165.0465" style="stroke:#545454;stroke-width:1.5625;"/><!--MD5=[ee03cb1969b91fdac36c6fe56f5ae008]
link wicket_user_guide to jcl_over_slf4j--><path d="M718.5729,98.9424 C730.8542,115.6924 747.8438,138.8903 760.8021,156.5674 " fill="none" id="wicket_user_guide-to-jcl_over_slf4j" style="stroke:#545454;stroke-width:1.5625;"/><polygon fill="#545454" points="764,160.9424,761.8283,150.9156,760.9251,156.7386,755.1022,155.8354,764,160.9424" style="stroke:#545454;stroke-width:1.5625;"/><!--MD5=[fd5fb6fe3e4e513b3bbc46ed0e106573]
link wicket_user_guide to junit_jupiter_engine--><path d="M647.6875,98.557 C602.6458,116.1195 538.9792,140.9424 492.6458,159.0153 " fill="none" id="wicket_user_guide-to-junit_jupiter_engine" style="stroke:#545454;stroke-width:1.5625;"/><polygon fill="#545454" points="487.6563,160.9632,497.9055,161.4153,492.5043,159.0597,494.8599,153.6585,487.6563,160.9632" style="stroke:#545454;stroke-width:1.5625;"/><!--MD5=[b9604540717f400f519a47bb21358e83]
link wicket_user_guide to mockito_core--><path d="M686.8438,98.9424 C674.7396,115.6924 657.9688,138.8903 645.1979,156.5674 " fill="none" id="wicket_user_guide-to-mockito_core" style="stroke:#545454;stroke-width:1.5625;"/><polygon fill="#545454" points="642.0417,160.9424,650.9158,155.7944,645.0971,156.7244,644.167,150.9057,642.0417,160.9424" style="stroke:#545454;stroke-width:1.5625;"/><!--MD5=[834aa3e5e155c9af9a1ed3cec9770ddb]
link wicket_user_guide to slf4j_api--><path d="M746.5,98.557 C782.2083,115.984 832.5521,140.5465 869.5,158.5778 " fill="none" id="wicket_user_guide-to-slf4j_api" style="stroke:#545454;stroke-width:1.5625;"/><polygon fill="#545454" points="874.3958,160.9632,867.7834,153.1193,869.7109,158.6877,864.1425,160.6152,874.3958,160.9632" style="stroke:#545454;stroke-width:1.5625;"/><!--MD5=[3b03b14d0bed08f41ca883b811fbef95]
link wicket_user_guide to slf4j_log4j12--><path d="M774.9167,98.557 C839.3333,117.6403 932.6771,145.2861 994.2813,163.5257 " fill="none" id="wicket_user_guide-to-slf4j_log4j12" style="stroke:#545454;stroke-width:1.5625;"/><polygon fill="#545454" points="999.3958,165.0465,991.5807,158.4001,994.3998,163.5745,989.2254,166.3937,999.3958,165.0465" style="stroke:#545454;stroke-width:1.5625;"/><!--MD5=[df041fed0c4fb4d09272739b2acdd241]
@startuml

    !include lexakai.theme
    
    title "wicket-user-guide"
    
    artifact jakarta_servlet_api
    artifact log4j
    artifact byte_buddy_agent
    artifact byte_buddy
    artifact wicket_user_guide
    artifact apiguardian_api
    artifact junit_jupiter_api
    artifact junit_jupiter_engine
    artifact junit_platform_commons
    artifact junit_platform_engine
    artifact mockito_core
    artifact objenesis
    artifact opentest4j
    artifact jcl_over_slf4j
    artifact slf4j_api
    artifact slf4j_log4j12
    junit_jupiter_engine - -> apiguardian_api
    junit_jupiter_engine - -> junit_jupiter_api
    junit_jupiter_engine - -> junit_platform_engine
    junit_platform_engine - -> junit_platform_commons
    junit_platform_engine - -> opentest4j
    mockito_core - -> byte_buddy
    mockito_core - -> byte_buddy_agent
    mockito_core - -> objenesis
    slf4j_log4j12 - -> log4j
    wicket_user_guide - -> jakarta_servlet_api
    wicket_user_guide - -> jcl_over_slf4j
    wicket_user_guide - -> junit_jupiter_engine
    wicket_user_guide - -> mockito_core
    wicket_user_guide - -> slf4j_api
    wicket_user_guide - -> slf4j_log4j12
    
@enduml

@startuml









skinparam backgroundColor #333333






skinparam  {
    defaultFontName   "Open Sans,Avenir,Nunito,Arial,Helvetica,SansSerif"
    defaultFontSize   12
    defaultTextAlignment left
    shadowing false
    RoundCorner 10
    TitleFontSize 18
}

skinparam defaultFontName       "Open Sans,Avenir,Nunito,Arial,Helvetica,SansSerif"
skinparam defaultFontSize       12
skinparam dpi                   100
skinparam shadowing             false
skinparam roundcorner           16
skinparam ParticipantPadding    40
skinparam BoxPadding            40
skinparam Padding               3
skinparam ArrowColor            #545454
skinparam stereotype {
    CBackgroundColor #0066cf
    CBorderColor #0086ef
    ABackgroundColor #C8Ac00
    ABorderColor #D8Bc00
    IBackgroundColor #008400
    IBorderColor #239c23
    EBackgroundColor #cf6300
    EBorderColor #ef8300
    NBackgroundColor #3380b9
    NBorderColor #004d86
}
skinparam title {
	FontColor	                 #c0c0c0
 	BorderColor                  #545454
	FontSize	    	         20
	BorderRoundCorner            16
	BorderThickness 	         1
	BackgroundColor              #48494b
}


skinparam legend {
	BackgroundColor #303030
	BorderColor #404040
	FontColor #a0a0a0
}

	skinparam swimlane {
	BorderColor #5e5e5e
	BorderThickness 2
	TitleBackgroundColor  #6d6d6d-#484848
	TitleFontColor #303030
}

skinparam activity {
		FontColor #C8Ac00
	BorderColor #333333
	BackgroundColor #333333-#333333
	BarColor #00FF00
	StartColor #0060a8
	EndColor #0060a8
	DiamondBackgroundColor #6d6d6d-#3a3a3a
  	DiamondBorderColor #3a3a3a
  	DiamondFontColor #fefefe
}


skinparam participant {
		FontColor #C8Ac00
	BorderColor #333333
	BackgroundColor #333333-#333333
	ParticipantBorderThickness 2
}


skinparam actor {
		FontColor #C8Ac00
	BorderColor #333333
	BackgroundColor #333333-#333333
}


skinparam arrow {
	Thickness 1.5
	Color #545454
	FontColor #a0a0a0
    FontStyle bold
    MessageAlignment center
}



skinparam sequence {
	BorderColor #303030
	TitleFontColor #303030
	BackgroundColor #333333
	StartColor #303030
	EndColor #303030
	BoxBackgroundColor #333333
	BoxBorderColor #484848
	BoxFontColor #484848
	LifeLineBorderColor #484848
	LifeLineBorderThickness 2
	LifeLineBackgroundColor #3a3a3a
	GroupBorderColor #484848
	GroupFontColor #484848
	GroupHeaderFontColor #0060a8
	GroupBackgroundColor #484848
	GroupHeaderBackgroundColor #333333
	DividerBackgroundColor #484848
    DividerBorderColor #484848
    DividerBorderThickness 2
    DividerFontColor #D8Bc00
	ReferenceBackgroundColor #333333
	ReferenceBorderColor #484848
	ReferenceFontColor #fefefe
	ReferenceHeaderBackgroundColor #484848
}


skinparam partition {
	BorderColor #303030
	FontColor #333333
	BackgroundColor #333333
}


skinparam collections {
		FontColor #C8Ac00
	BorderColor #333333
	BackgroundColor #333333-#333333
}


skinparam control {
		FontColor #C8Ac00
	BorderColor #333333
	BackgroundColor #333333-#333333
}


skinparam entity {
		FontColor #C8Ac00
	BorderColor #333333
	BackgroundColor #333333-#333333
}


skinparam boundary {
		FontColor #C8Ac00
	BorderColor #333333
	BackgroundColor #333333-#333333
}


skinparam agent {
	BackgroundColor #ff8000
	BorderColor #ff9933
	FontColor #484848
}


skinparam note {
	BorderThickness 1
	BackgroundColor #1b1b1a
	BorderColor #5e5e5e
	FontSize 11
	FontColor #a0a0a0
}


skinparam artifact {
	BorderThickness 10
	BorderColor #5e5e5e
	BackgroundColor #1b1b1a
	FontColor #D8Bc00
}


skinparam component {
		FontColor #C8Ac00
	BorderColor #333333
	BackgroundColor #333333-#333333
}


skinparam interface {
	BackgroundColor  #008400
	BorderColor  #007F00
	FontColor #484848
}


skinparam storage {
	BackgroundColor #ff8000
  	BorderColor #cc6600
	FontColor #222222
}


skinparam node {
	BackgroundColor #333333
	BorderColor #333333
	FontColor #C8Ac00
}


skinparam cloud {
	BackgroundColor #484848-black
	BorderColor #484848
	FontColor #D8Bc00
}


skinparam database {
		FontColor #C8Ac00
	BorderColor #333333
	BackgroundColor #333333-#333333
	BackgroundColor  #333333
}


skinparam class {
		FontColor #C8Ac00
	BorderColor #333333
	BackgroundColor #333333-#333333
	HeaderBackgroundColor #1b1b1a
    BackgroundColor #282828
    BorderColor #5e5e5e
 	StereotypeFontColor #a0a0a0
    StereotypeFontStyle bold
	BorderThickness 1
	AttributeFontColor #D8Bc00
	AttributeFontSize 11
    FontColor #D8Bc00
    FontStyle bold
}


skinparam object {
		FontColor #C8Ac00
	BorderColor #333333
	BackgroundColor #333333-#333333
	StereotypeFontColor #484848
	BorderThickness 1
	AttributeFontColor #fefefe
	AttributeFontSize 11
}


skinparam usecase {
		FontColor #C8Ac00
	BorderColor #333333
	BackgroundColor #333333-#333333
	BorderThickness 2
	StereotypeFontColor #303030
}


skinparam rectangle {
		FontColor #C8Ac00
	BorderColor #333333
	BackgroundColor #333333-#333333
	BackgroundColor #333333
	BorderThickness 2
	StereotypeFontColor #303030
}


skinparam package {
		FontColor #C8Ac00
	BorderColor #333333
	BackgroundColor #333333-#333333
	BackgroundColor #333333
	BorderThickness 2
}


skinparam folder {
	BackgroundColor #6d6d6d
  	BorderColor #ff8000
	FontColor #ff8000
	BorderThickness 2
}


skinparam frame {
	BackgroundColor #6d6d6d
  	BorderColor #0060a8
	FontColor #0060a8
	BorderThickness 2
}


skinparam state {
		FontColor #C8Ac00
	BorderColor #333333
	BackgroundColor #333333-#333333
	StartColor #0060a8
	EndColor #0060a8
	AttributeFontColor #fefefe
	AttributeFontSize 11
}


skinparam queue {
		FontColor #C8Ac00
	BorderColor #333333
	BackgroundColor #333333-#333333
}


skinparam card {
	BackgroundColor #0060a8
	BorderColor #004d86
	FontColor $INFO_TEXT
}


skinparam file {
	BackgroundColor #6d6d6d-#484848
	BorderColor #0060a8
	FontColor #fefefe
}


skinparam stack {
		FontColor #C8Ac00
	BorderColor #333333
	BackgroundColor #333333-#333333
}

    
    title "wicket-user-guide"
    
    artifact jakarta_servlet_api
    artifact log4j
    artifact byte_buddy_agent
    artifact byte_buddy
    artifact wicket_user_guide
    artifact apiguardian_api
    artifact junit_jupiter_api
    artifact junit_jupiter_engine
    artifact junit_platform_commons
    artifact junit_platform_engine
    artifact mockito_core
    artifact objenesis
    artifact opentest4j
    artifact jcl_over_slf4j
    artifact slf4j_api
    artifact slf4j_log4j12
    junit_jupiter_engine - -> apiguardian_api
    junit_jupiter_engine - -> junit_jupiter_api
    junit_jupiter_engine - -> junit_platform_engine
    junit_platform_engine - -> junit_platform_commons
    junit_platform_engine - -> opentest4j
    mockito_core - -> byte_buddy
    mockito_core - -> byte_buddy_agent
    mockito_core - -> objenesis
    slf4j_log4j12 - -> log4j
    wicket_user_guide - -> jakarta_servlet_api
    wicket_user_guide - -> jcl_over_slf4j
    wicket_user_guide - -> junit_jupiter_engine
    wicket_user_guide - -> mockito_core
    wicket_user_guide - -> slf4j_api
    wicket_user_guide - -> slf4j_log4j12
    
@enduml

PlantUML version 1.2021.01(Tue Feb 02 00:55:08 MST 2021)
(GPL source distribution)
Java Runtime: Java(TM) SE Runtime Environment
JVM: Java HotSpot(TM) 64-Bit Server VM
Default Encoding: UTF-8
Language: en
Country: US
--></g></svg>