<?xml version="1.0" encoding="UTF-8" standalone="no"?><svg xmlns="http://www.w3.org/2000/svg" xmlns:xlink="http://www.w3.org/1999/xlink" contentScriptType="application/ecmascript" contentStyleType="text/css" height="318.75px" preserveAspectRatio="none" style="width:2140px;height:318px;background:#333333;" version="1.1" viewBox="0 0 2140 318" width="2140.625px" zoomAndPan="magnify"><defs/><g><rect fill="#48494B" height="41.2028" rx="8.3333" ry="8.3333" style="stroke:#545454;stroke-width:1.0416666666666667;" width="173.9583" x="976.3021" y="2.0833"/><text fill="#C0C0C0" font-family="Open Sans,Avenir,Nunito,Arial,Helvetica,SansSerif" font-size="20.8333" lengthAdjust="spacing" textLength="151.0417" x="987.7604" y="30.5583">wicket-velocity</text><!--MD5=[83364df2ff47e8d52fd75af27391e023]
entity openjson--><rect fill="#1B1B1A" height="44.93" rx="8.3333" ry="8.3333" style="stroke:#5E5E5E;stroke-width:1.5625;" width="92.7083" x="163.5417" y="160.9945"/><polygon fill="#1B1B1A" points="238.5417,166.2028,238.5417,180.7861,251.0417,180.7861,251.0417,172.4528,244.7917,166.2028,238.5417,166.2028" style="stroke:#5E5E5E;stroke-width:1.5625;"/><line style="stroke:#5E5E5E;stroke-width:1.5625;" x1="244.7917" x2="244.7917" y1="166.2028" y2="172.4528"/><line style="stroke:#5E5E5E;stroke-width:1.5625;" x1="251.0417" x2="244.7917" y1="172.4528" y2="172.4528"/><text fill="#D8BC00" font-family="Open Sans,Avenir,Nunito,Arial,Helvetica,SansSerif" font-size="12.5" lengthAdjust="spacing" textLength="55.2083" x="177.0833" y="189.7461">openjson</text><!--MD5=[b8642f4d11f39d368691e95658a70571]
entity commons_fileupload--><rect fill="#1B1B1A" height="44.93" rx="8.3333" ry="8.3333" style="stroke:#5E5E5E;stroke-width:1.5625;" width="160.4167" x="253.6458" y="268.2861"/><polygon fill="#1B1B1A" points="396.3542,273.4945,396.3542,288.0778,408.8542,288.0778,408.8542,279.7445,402.6042,273.4945,396.3542,273.4945" style="stroke:#5E5E5E;stroke-width:1.5625;"/><line style="stroke:#5E5E5E;stroke-width:1.5625;" x1="402.6042" x2="402.6042" y1="273.4945" y2="279.7445"/><line style="stroke:#5E5E5E;stroke-width:1.5625;" x1="408.8542" x2="402.6042" y1="279.7445" y2="279.7445"/><text fill="#D8BC00" font-family="Open Sans,Avenir,Nunito,Arial,Helvetica,SansSerif" font-size="12.5" lengthAdjust="spacing" textLength="122.9167" x="267.1875" y="297.0378">commons_fileupload</text><!--MD5=[26b411a1b4c483916c801c7aad1add62]
entity commons_io--><rect fill="#1B1B1A" height="44.93" rx="8.3333" ry="8.3333" style="stroke:#5E5E5E;stroke-width:1.5625;" width="111.4583" x="451.0417" y="268.2861"/><polygon fill="#1B1B1A" points="544.7917,273.4945,544.7917,288.0778,557.2917,288.0778,557.2917,279.7445,551.0417,273.4945,544.7917,273.4945" style="stroke:#5E5E5E;stroke-width:1.5625;"/><line style="stroke:#5E5E5E;stroke-width:1.5625;" x1="551.0417" x2="551.0417" y1="273.4945" y2="279.7445"/><line style="stroke:#5E5E5E;stroke-width:1.5625;" x1="557.2917" x2="551.0417" y1="279.7445" y2="279.7445"/><text fill="#D8BC00" font-family="Open Sans,Avenir,Nunito,Arial,Helvetica,SansSerif" font-size="12.5" lengthAdjust="spacing" textLength="73.9583" x="464.5833" y="297.0378">commons_io</text><!--MD5=[88a18b84af72aac0baa747f98e10bd90]
entity jakarta_servlet_api--><rect fill="#1B1B1A" height="44.93" rx="8.3333" ry="8.3333" style="stroke:#5E5E5E;stroke-width:1.5625;" width="151.0417" x="7.2917" y="53.7028"/><polygon fill="#1B1B1A" points="140.625,58.9111,140.625,73.4945,153.125,73.4945,153.125,65.1611,146.875,58.9111,140.625,58.9111" style="stroke:#5E5E5E;stroke-width:1.5625;"/><line style="stroke:#5E5E5E;stroke-width:1.5625;" x1="146.875" x2="146.875" y1="58.9111" y2="65.1611"/><line style="stroke:#5E5E5E;stroke-width:1.5625;" x1="153.125" x2="146.875" y1="65.1611" y2="65.1611"/><text fill="#D8BC00" font-family="Open Sans,Avenir,Nunito,Arial,Helvetica,SansSerif" font-size="12.5" lengthAdjust="spacing" textLength="113.5417" x="20.8333" y="82.4544">jakarta_servlet_api</text><!--MD5=[907dfa26722c2bcd0e79bfb32775d5c3]
entity log4j--><rect fill="#1B1B1A" height="44.93" rx="8.3333" ry="8.3333" style="stroke:#5E5E5E;stroke-width:1.5625;" width="67.7083" x="826.0417" y="160.9945"/><polygon fill="#1B1B1A" points="876.0417,166.2028,876.0417,180.7861,888.5417,180.7861,888.5417,172.4528,882.2917,166.2028,876.0417,166.2028" style="stroke:#5E5E5E;stroke-width:1.5625;"/><line style="stroke:#5E5E5E;stroke-width:1.5625;" x1="882.2917" x2="882.2917" y1="166.2028" y2="172.4528"/><line style="stroke:#5E5E5E;stroke-width:1.5625;" x1="888.5417" x2="882.2917" y1="172.4528" y2="172.4528"/><text fill="#D8BC00" font-family="Open Sans,Avenir,Nunito,Arial,Helvetica,SansSerif" font-size="12.5" lengthAdjust="spacing" textLength="30.2083" x="839.5833" y="189.7461">log4j</text><!--MD5=[4ff87df6ca00ec4715fce5605f10cfb8]
entity byte_buddy_agent--><rect fill="#1B1B1A" height="44.93" rx="8.3333" ry="8.3333" style="stroke:#5E5E5E;stroke-width:1.5625;" width="147.9167" x="930.7292" y="160.9945"/><polygon fill="#1B1B1A" points="1060.9375,166.2028,1060.9375,180.7861,1073.4375,180.7861,1073.4375,172.4528,1067.1875,166.2028,1060.9375,166.2028" style="stroke:#5E5E5E;stroke-width:1.5625;"/><line style="stroke:#5E5E5E;stroke-width:1.5625;" x1="1067.1875" x2="1067.1875" y1="166.2028" y2="172.4528"/><line style="stroke:#5E5E5E;stroke-width:1.5625;" x1="1073.4375" x2="1067.1875" y1="172.4528" y2="172.4528"/><text fill="#D8BC00" font-family="Open Sans,Avenir,Nunito,Arial,Helvetica,SansSerif" font-size="12.5" lengthAdjust="spacing" textLength="110.4167" x="944.2708" y="189.7461">byte_buddy_agent</text><!--MD5=[4b7412f65198b4c52d4b80fff6e833ea]
entity byte_buddy--><rect fill="#1B1B1A" height="44.93" rx="8.3333" ry="8.3333" style="stroke:#5E5E5E;stroke-width:1.5625;" width="108.3333" x="1115.1042" y="160.9945"/><polygon fill="#1B1B1A" points="1205.7292,166.2028,1205.7292,180.7861,1218.2292,180.7861,1218.2292,172.4528,1211.9792,166.2028,1205.7292,166.2028" style="stroke:#5E5E5E;stroke-width:1.5625;"/><line style="stroke:#5E5E5E;stroke-width:1.5625;" x1="1211.9792" x2="1211.9792" y1="166.2028" y2="172.4528"/><line style="stroke:#5E5E5E;stroke-width:1.5625;" x1="1218.2292" x2="1211.9792" y1="172.4528" y2="172.4528"/><text fill="#D8BC00" font-family="Open Sans,Avenir,Nunito,Arial,Helvetica,SansSerif" font-size="12.5" lengthAdjust="spacing" textLength="70.8333" x="1128.6458" y="189.7461">byte_buddy</text><!--MD5=[798a9de1932ba9fd78d52168f99e5e87]
entity commons_collections4--><rect fill="#1B1B1A" height="44.93" rx="8.3333" ry="8.3333" style="stroke:#5E5E5E;stroke-width:1.5625;" width="170.8333" x="599.4792" y="268.2861"/><polygon fill="#1B1B1A" points="752.6042,273.4945,752.6042,288.0778,765.1042,288.0778,765.1042,279.7445,758.8542,273.4945,752.6042,273.4945" style="stroke:#5E5E5E;stroke-width:1.5625;"/><line style="stroke:#5E5E5E;stroke-width:1.5625;" x1="758.8542" x2="758.8542" y1="273.4945" y2="279.7445"/><line style="stroke:#5E5E5E;stroke-width:1.5625;" x1="765.1042" x2="758.8542" y1="279.7445" y2="279.7445"/><text fill="#D8BC00" font-family="Open Sans,Avenir,Nunito,Arial,Helvetica,SansSerif" font-size="12.5" lengthAdjust="spacing" textLength="133.3333" x="613.0208" y="297.0378">commons_collections4</text><!--MD5=[713b5e657a34e8534dca456173c6b526]
entity commons_lang3--><rect fill="#1B1B1A" height="44.93" rx="8.3333" ry="8.3333" style="stroke:#5E5E5E;stroke-width:1.5625;" width="134.375" x="1391.6667" y="160.9945"/><polygon fill="#1B1B1A" points="1508.3333,166.2028,1508.3333,180.7861,1520.8333,180.7861,1520.8333,172.4528,1514.5833,166.2028,1508.3333,166.2028" style="stroke:#5E5E5E;stroke-width:1.5625;"/><line style="stroke:#5E5E5E;stroke-width:1.5625;" x1="1514.5833" x2="1514.5833" y1="166.2028" y2="172.4528"/><line style="stroke:#5E5E5E;stroke-width:1.5625;" x1="1520.8333" x2="1514.5833" y1="172.4528" y2="172.4528"/><text fill="#D8BC00" font-family="Open Sans,Avenir,Nunito,Arial,Helvetica,SansSerif" font-size="12.5" lengthAdjust="spacing" textLength="96.875" x="1405.2083" y="189.7461">commons_lang3</text><!--MD5=[b4343b79a10ff55b36674c8ad1259858]
entity velocity_engine_core--><rect fill="#1B1B1A" height="44.93" rx="8.3333" ry="8.3333" style="stroke:#5E5E5E;stroke-width:1.5625;" width="159.375" x="1379.1667" y="53.7028"/><polygon fill="#1B1B1A" points="1520.8333,58.9111,1520.8333,73.4945,1533.3333,73.4945,1533.3333,65.1611,1527.0833,58.9111,1520.8333,58.9111" style="stroke:#5E5E5E;stroke-width:1.5625;"/><line style="stroke:#5E5E5E;stroke-width:1.5625;" x1="1527.0833" x2="1527.0833" y1="58.9111" y2="65.1611"/><line style="stroke:#5E5E5E;stroke-width:1.5625;" x1="1533.3333" x2="1527.0833" y1="65.1611" y2="65.1611"/><text fill="#D8BC00" font-family="Open Sans,Avenir,Nunito,Arial,Helvetica,SansSerif" font-size="12.5" lengthAdjust="spacing" textLength="121.875" x="1392.7083" y="82.4544">velocity_engine_core</text><!--MD5=[1d1f5c096c11f31d2ecce961a8a5207b]
entity wicket_core--><rect fill="#1B1B1A" height="44.93" rx="8.3333" ry="8.3333" style="stroke:#5E5E5E;stroke-width:1.5625;" width="107.2917" x="400" y="53.7028"/><polygon fill="#1B1B1A" points="489.5833,58.9111,489.5833,73.4945,502.0833,73.4945,502.0833,65.1611,495.8333,58.9111,489.5833,58.9111" style="stroke:#5E5E5E;stroke-width:1.5625;"/><line style="stroke:#5E5E5E;stroke-width:1.5625;" x1="495.8333" x2="495.8333" y1="58.9111" y2="65.1611"/><line style="stroke:#5E5E5E;stroke-width:1.5625;" x1="502.0833" x2="495.8333" y1="65.1611" y2="65.1611"/><text fill="#D8BC00" font-family="Open Sans,Avenir,Nunito,Arial,Helvetica,SansSerif" font-size="12.5" lengthAdjust="spacing" textLength="69.7917" x="413.5417" y="82.4544">wicket_core</text><!--MD5=[2773ab4f61ea46894756c769c8075295]
entity wicket_request--><rect fill="#1B1B1A" height="44.93" rx="8.3333" ry="8.3333" style="stroke:#5E5E5E;stroke-width:1.5625;" width="127.0833" x="293.2292" y="160.9945"/><polygon fill="#1B1B1A" points="402.6042,166.2028,402.6042,180.7861,415.1042,180.7861,415.1042,172.4528,408.8542,166.2028,402.6042,166.2028" style="stroke:#5E5E5E;stroke-width:1.5625;"/><line style="stroke:#5E5E5E;stroke-width:1.5625;" x1="408.8542" x2="408.8542" y1="166.2028" y2="172.4528"/><line style="stroke:#5E5E5E;stroke-width:1.5625;" x1="415.1042" x2="408.8542" y1="172.4528" y2="172.4528"/><text fill="#D8BC00" font-family="Open Sans,Avenir,Nunito,Arial,Helvetica,SansSerif" font-size="12.5" lengthAdjust="spacing" textLength="89.5833" x="306.7708" y="189.7461">wicket_request</text><!--MD5=[3ac1d6494a45af2432a9a4f3438247e5]
entity wicket_util--><rect fill="#1B1B1A" height="44.93" rx="8.3333" ry="8.3333" style="stroke:#5E5E5E;stroke-width:1.5625;" width="98.9583" x="457.2917" y="160.9945"/><polygon fill="#1B1B1A" points="538.5417,166.2028,538.5417,180.7861,551.0417,180.7861,551.0417,172.4528,544.7917,166.2028,538.5417,166.2028" style="stroke:#5E5E5E;stroke-width:1.5625;"/><line style="stroke:#5E5E5E;stroke-width:1.5625;" x1="544.7917" x2="544.7917" y1="166.2028" y2="172.4528"/><line style="stroke:#5E5E5E;stroke-width:1.5625;" x1="551.0417" x2="544.7917" y1="172.4528" y2="172.4528"/><text fill="#D8BC00" font-family="Open Sans,Avenir,Nunito,Arial,Helvetica,SansSerif" font-size="12.5" lengthAdjust="spacing" textLength="61.4583" x="470.8333" y="189.7461">wicket_util</text><!--MD5=[9ca5736865ad522015f112acaf757dc2]
entity apiguardian_api--><rect fill="#1B1B1A" height="44.93" rx="8.3333" ry="8.3333" style="stroke:#5E5E5E;stroke-width:1.5625;" width="134.375" x="1562.5" y="160.9945"/><polygon fill="#1B1B1A" points="1679.1667,166.2028,1679.1667,180.7861,1691.6667,180.7861,1691.6667,172.4528,1685.4167,166.2028,1679.1667,166.2028" style="stroke:#5E5E5E;stroke-width:1.5625;"/><line style="stroke:#5E5E5E;stroke-width:1.5625;" x1="1685.4167" x2="1685.4167" y1="166.2028" y2="172.4528"/><line style="stroke:#5E5E5E;stroke-width:1.5625;" x1="1691.6667" x2="1685.4167" y1="172.4528" y2="172.4528"/><text fill="#D8BC00" font-family="Open Sans,Avenir,Nunito,Arial,Helvetica,SansSerif" font-size="12.5" lengthAdjust="spacing" textLength="96.875" x="1576.0417" y="189.7461">apiguardian_api</text><!--MD5=[36160172b96c05987554ef5157bd1d99]
entity jdk_serializable_functional--><rect fill="#1B1B1A" height="44.93" rx="8.3333" ry="8.3333" style="stroke:#5E5E5E;stroke-width:1.5625;" width="195.8333" x="593.2292" y="160.9945"/><polygon fill="#1B1B1A" points="771.3542,166.2028,771.3542,180.7861,783.8542,180.7861,783.8542,172.4528,777.6042,166.2028,771.3542,166.2028" style="stroke:#5E5E5E;stroke-width:1.5625;"/><line style="stroke:#5E5E5E;stroke-width:1.5625;" x1="777.6042" x2="777.6042" y1="166.2028" y2="172.4528"/><line style="stroke:#5E5E5E;stroke-width:1.5625;" x1="783.8542" x2="777.6042" y1="172.4528" y2="172.4528"/><text fill="#D8BC00" font-family="Open Sans,Avenir,Nunito,Arial,Helvetica,SansSerif" font-size="12.5" lengthAdjust="spacing" textLength="158.3333" x="606.7708" y="189.7461">jdk_serializable_functional</text><!--MD5=[67ea71966aa57e3ddf5b1acb79bd106c]
entity junit_jupiter_api--><rect fill="#1B1B1A" height="44.93" rx="8.3333" ry="8.3333" style="stroke:#5E5E5E;stroke-width:1.5625;" width="134.375" x="1733.3333" y="160.9945"/><polygon fill="#1B1B1A" points="1850,166.2028,1850,180.7861,1862.5,180.7861,1862.5,172.4528,1856.25,166.2028,1850,166.2028" style="stroke:#5E5E5E;stroke-width:1.5625;"/><line style="stroke:#5E5E5E;stroke-width:1.5625;" x1="1856.25" x2="1856.25" y1="166.2028" y2="172.4528"/><line style="stroke:#5E5E5E;stroke-width:1.5625;" x1="1862.5" x2="1856.25" y1="172.4528" y2="172.4528"/><text fill="#D8BC00" font-family="Open Sans,Avenir,Nunito,Arial,Helvetica,SansSerif" font-size="12.5" lengthAdjust="spacing" textLength="96.875" x="1746.875" y="189.7461">junit_jupiter_api</text><!--MD5=[def59a02e843c50310240afbb884053d]
entity junit_jupiter_engine--><rect fill="#1B1B1A" height="44.93" rx="8.3333" ry="8.3333" style="stroke:#5E5E5E;stroke-width:1.5625;" width="155.2083" x="1722.9167" y="53.7028"/><polygon fill="#1B1B1A" points="1860.4167,58.9111,1860.4167,73.4945,1872.9167,73.4945,1872.9167,65.1611,1866.6667,58.9111,1860.4167,58.9111" style="stroke:#5E5E5E;stroke-width:1.5625;"/><line style="stroke:#5E5E5E;stroke-width:1.5625;" x1="1866.6667" x2="1866.6667" y1="58.9111" y2="65.1611"/><line style="stroke:#5E5E5E;stroke-width:1.5625;" x1="1872.9167" x2="1866.6667" y1="65.1611" y2="65.1611"/><text fill="#D8BC00" font-family="Open Sans,Avenir,Nunito,Arial,Helvetica,SansSerif" font-size="12.5" lengthAdjust="spacing" textLength="117.7083" x="1736.4583" y="82.4544">junit_jupiter_engine</text><!--MD5=[16ac86175dbfd8781882e642bc1db0bb]
entity junit_platform_commons--><rect fill="#1B1B1A" height="44.93" rx="8.3333" ry="8.3333" style="stroke:#5E5E5E;stroke-width:1.5625;" width="184.375" x="1805.2083" y="268.2861"/><polygon fill="#1B1B1A" points="1971.875,273.4945,1971.875,288.0778,1984.375,288.0778,1984.375,279.7445,1978.125,273.4945,1971.875,273.4945" style="stroke:#5E5E5E;stroke-width:1.5625;"/><line style="stroke:#5E5E5E;stroke-width:1.5625;" x1="1978.125" x2="1978.125" y1="273.4945" y2="279.7445"/><line style="stroke:#5E5E5E;stroke-width:1.5625;" x1="1984.375" x2="1978.125" y1="279.7445" y2="279.7445"/><text fill="#D8BC00" font-family="Open Sans,Avenir,Nunito,Arial,Helvetica,SansSerif" font-size="12.5" lengthAdjust="spacing" textLength="146.875" x="1818.75" y="297.0378">junit_platform_commons</text><!--MD5=[c94fa6fb52256b56717125d5f4ed3cc6]
entity junit_platform_engine--><rect fill="#1B1B1A" height="44.93" rx="8.3333" ry="8.3333" style="stroke:#5E5E5E;stroke-width:1.5625;" width="166.6667" x="1904.6875" y="160.9945"/><polygon fill="#1B1B1A" points="2053.6458,166.2028,2053.6458,180.7861,2066.1458,180.7861,2066.1458,172.4528,2059.8958,166.2028,2053.6458,166.2028" style="stroke:#5E5E5E;stroke-width:1.5625;"/><line style="stroke:#5E5E5E;stroke-width:1.5625;" x1="2059.8958" x2="2059.8958" y1="166.2028" y2="172.4528"/><line style="stroke:#5E5E5E;stroke-width:1.5625;" x1="2066.1458" x2="2059.8958" y1="172.4528" y2="172.4528"/><text fill="#D8BC00" font-family="Open Sans,Avenir,Nunito,Arial,Helvetica,SansSerif" font-size="12.5" lengthAdjust="spacing" textLength="129.1667" x="1918.2292" y="189.7461">junit_platform_engine</text><!--MD5=[a68d3636c404b547973d4378239fa3aa]
entity mockito_core--><rect fill="#1B1B1A" height="44.93" rx="8.3333" ry="8.3333" style="stroke:#5E5E5E;stroke-width:1.5625;" width="116.6667" x="1110.9375" y="53.7028"/><polygon fill="#1B1B1A" points="1209.8958,58.9111,1209.8958,73.4945,1222.3958,73.4945,1222.3958,65.1611,1216.1458,58.9111,1209.8958,58.9111" style="stroke:#5E5E5E;stroke-width:1.5625;"/><line style="stroke:#5E5E5E;stroke-width:1.5625;" x1="1216.1458" x2="1216.1458" y1="58.9111" y2="65.1611"/><line style="stroke:#5E5E5E;stroke-width:1.5625;" x1="1222.3958" x2="1216.1458" y1="65.1611" y2="65.1611"/><text fill="#D8BC00" font-family="Open Sans,Avenir,Nunito,Arial,Helvetica,SansSerif" font-size="12.5" lengthAdjust="spacing" textLength="79.1667" x="1124.4792" y="82.4544">mockito_core</text><!--MD5=[b3c862d1486667ad9c7edef6529b2202]
entity objenesis--><rect fill="#1B1B1A" height="44.93" rx="8.3333" ry="8.3333" style="stroke:#5E5E5E;stroke-width:1.5625;" width="94.7917" x="1260.4167" y="160.9945"/><polygon fill="#1B1B1A" points="1337.5,166.2028,1337.5,180.7861,1350,180.7861,1350,172.4528,1343.75,166.2028,1337.5,166.2028" style="stroke:#5E5E5E;stroke-width:1.5625;"/><line style="stroke:#5E5E5E;stroke-width:1.5625;" x1="1343.75" x2="1343.75" y1="166.2028" y2="172.4528"/><line style="stroke:#5E5E5E;stroke-width:1.5625;" x1="1350" x2="1343.75" y1="172.4528" y2="172.4528"/><text fill="#D8BC00" font-family="Open Sans,Avenir,Nunito,Arial,Helvetica,SansSerif" font-size="12.5" lengthAdjust="spacing" textLength="57.2917" x="1273.9583" y="189.7461">objenesis</text><!--MD5=[ba030213f11f5a3d5b319bb69903d2f9]
entity opentest4j--><rect fill="#1B1B1A" height="44.93" rx="8.3333" ry="8.3333" style="stroke:#5E5E5E;stroke-width:1.5625;" width="102.0833" x="2026.5625" y="268.2861"/><polygon fill="#1B1B1A" points="2110.9375,273.4945,2110.9375,288.0778,2123.4375,288.0778,2123.4375,279.7445,2117.1875,273.4945,2110.9375,273.4945" style="stroke:#5E5E5E;stroke-width:1.5625;"/><line style="stroke:#5E5E5E;stroke-width:1.5625;" x1="2117.1875" x2="2117.1875" y1="273.4945" y2="279.7445"/><line style="stroke:#5E5E5E;stroke-width:1.5625;" x1="2123.4375" x2="2117.1875" y1="279.7445" y2="279.7445"/><text fill="#D8BC00" font-family="Open Sans,Avenir,Nunito,Arial,Helvetica,SansSerif" font-size="12.5" lengthAdjust="spacing" textLength="64.5833" x="2040.1042" y="297.0378">opentest4j</text><!--MD5=[2158cadba960fc97c965ca71cca36298]
entity jcl_over_slf4j--><rect fill="#1B1B1A" height="44.93" rx="8.3333" ry="8.3333" style="stroke:#5E5E5E;stroke-width:1.5625;" width="115.625" x="194.7917" y="53.7028"/><polygon fill="#1B1B1A" points="292.7083,58.9111,292.7083,73.4945,305.2083,73.4945,305.2083,65.1611,298.9583,58.9111,292.7083,58.9111" style="stroke:#5E5E5E;stroke-width:1.5625;"/><line style="stroke:#5E5E5E;stroke-width:1.5625;" x1="298.9583" x2="298.9583" y1="58.9111" y2="65.1611"/><line style="stroke:#5E5E5E;stroke-width:1.5625;" x1="305.2083" x2="298.9583" y1="65.1611" y2="65.1611"/><text fill="#D8BC00" font-family="Open Sans,Avenir,Nunito,Arial,Helvetica,SansSerif" font-size="12.5" lengthAdjust="spacing" textLength="78.125" x="208.3333" y="82.4544">jcl_over_slf4j</text><!--MD5=[44b0a2e1eacfc27a1dd91401467b1b24]
entity slf4j_api--><rect fill="#1B1B1A" height="44.93" rx="8.3333" ry="8.3333" style="stroke:#5E5E5E;stroke-width:1.5625;" width="88.5417" x="38.5417" y="160.9945"/><polygon fill="#1B1B1A" points="109.375,166.2028,109.375,180.7861,121.875,180.7861,121.875,172.4528,115.625,166.2028,109.375,166.2028" style="stroke:#5E5E5E;stroke-width:1.5625;"/><line style="stroke:#5E5E5E;stroke-width:1.5625;" x1="115.625" x2="115.625" y1="166.2028" y2="172.4528"/><line style="stroke:#5E5E5E;stroke-width:1.5625;" x1="121.875" x2="115.625" y1="172.4528" y2="172.4528"/><text fill="#D8BC00" font-family="Open Sans,Avenir,Nunito,Arial,Helvetica,SansSerif" font-size="12.5" lengthAdjust="spacing" textLength="51.0417" x="52.0833" y="189.7461">slf4j_api</text><!--MD5=[7fbee5ae74c8dd4ba8120faa50c8c743]
entity slf4j_log4j12--><rect fill="#1B1B1A" height="44.93" rx="8.3333" ry="8.3333" style="stroke:#5E5E5E;stroke-width:1.5625;" width="116.6667" x="801.5625" y="53.7028"/><polygon fill="#1B1B1A" points="900.5208,58.9111,900.5208,73.4945,913.0208,73.4945,913.0208,65.1611,906.7708,58.9111,900.5208,58.9111" style="stroke:#5E5E5E;stroke-width:1.5625;"/><line style="stroke:#5E5E5E;stroke-width:1.5625;" x1="906.7708" x2="906.7708" y1="58.9111" y2="65.1611"/><line style="stroke:#5E5E5E;stroke-width:1.5625;" x1="913.0208" x2="906.7708" y1="65.1611" y2="65.1611"/><text fill="#D8BC00" font-family="Open Sans,Avenir,Nunito,Arial,Helvetica,SansSerif" font-size="12.5" lengthAdjust="spacing" textLength="79.1667" x="815.1042" y="82.4544">slf4j_log4j12</text><!--MD5=[387791ceefa6e7ac0048e0d5370dea72]
link junit_jupiter_engine to apiguardian_api--><path d="M1765.5417,98.682 C1737.5521,115.9215 1698.3229,140.0778 1669.2083,158.0153 " fill="none" id="junit_jupiter_engine-to-apiguardian_api" style="stroke:#545454;stroke-width:1.5625;"/><polygon fill="#545454" points="1664.625,160.8382,1674.7943,159.4829,1669.0633,158.1127,1670.4335,152.3817,1664.625,160.8382" style="stroke:#545454;stroke-width:1.5625;"/><!--MD5=[f4b72d10a6cfe7a8a93ab847947f7423]
link junit_jupiter_engine to junit_jupiter_api--><path d="M1800.5208,98.9424 C1800.5208,115.4111 1800.5208,138.109 1800.5208,155.6611 " fill="none" id="junit_jupiter_engine-to-junit_jupiter_api" style="stroke:#545454;stroke-width:1.5625;"/><polygon fill="#545454" points="1800.5208,160.9424,1804.6875,151.5674,1800.5208,155.734,1796.3542,151.5674,1800.5208,160.9424" style="stroke:#545454;stroke-width:1.5625;"/><!--MD5=[06eb6ab5d989baa08de92dee96f24dd7]
link junit_jupiter_engine to junit_platform_engine--><path d="M1838.9167,98.682 C1869.7604,115.984 1913.0417,140.2757 1945.0417,158.234 " fill="none" id="junit_jupiter_engine-to-junit_platform_engine" style="stroke:#545454;stroke-width:1.5625;"/><polygon fill="#545454" points="1949.6771,160.8382,1943.5578,152.6038,1945.1404,158.2798,1939.4644,159.8625,1949.6771,160.8382" style="stroke:#545454;stroke-width:1.5625;"/><!--MD5=[ae5ab7164155f4fc79ebb3185a9c5d1c]
link junit_platform_engine to junit_platform_commons--><path d="M1969.2396,206.234 C1954.8125,222.984 1934.8333,246.182 1919.6042,263.859 " fill="none" id="junit_platform_engine-to-junit_platform_commons" style="stroke:#545454;stroke-width:1.5625;"/><polygon fill="#545454" points="1915.8438,268.234,1925.1262,263.865,1919.2492,264.2933,1918.8209,258.4163,1915.8438,268.234" style="stroke:#545454;stroke-width:1.5625;"/><!--MD5=[8a9b5fbf88ccec267ebeca0685c2396a]
link junit_platform_engine to opentest4j--><path d="M2006.5833,206.234 C2020.8542,222.984 2040.6042,246.182 2055.6563,263.859 " fill="none" id="junit_platform_engine-to-opentest4j" style="stroke:#545454;stroke-width:1.5625;"/><polygon fill="#545454" points="2059.375,268.234,2056.477,258.3926,2056.0014,264.266,2050.1281,263.7904,2059.375,268.234" style="stroke:#545454;stroke-width:1.5625;"/><!--MD5=[ed4318ea9be3443a979b37d4f3399abc]
link mockito_core to byte_buddy--><path d="M1169.2708,98.9424 C1169.2708,115.4111 1169.2708,138.109 1169.2708,155.6611 " fill="none" id="mockito_core-to-byte_buddy" style="stroke:#545454;stroke-width:1.5625;"/><polygon fill="#545454" points="1169.2708,160.9424,1173.4375,151.5674,1169.2708,155.734,1165.1042,151.5674,1169.2708,160.9424" style="stroke:#545454;stroke-width:1.5625;"/><!--MD5=[ca166302077c6e1468853e13a25b2a92]
link mockito_core to byte_buddy_agent--><path d="M1135.5729,98.682 C1108.6042,115.9215 1070.8125,140.0778 1042.7604,158.0153 " fill="none" id="mockito_core-to-byte_buddy_agent" style="stroke:#545454;stroke-width:1.5625;"/><polygon fill="#545454" points="1038.3438,160.8382,1048.4854,159.2892,1042.7292,158.0285,1043.9899,152.2724,1038.3438,160.8382" style="stroke:#545454;stroke-width:1.5625;"/><!--MD5=[eff02feeff1f5c6fac4f7dcff0627abc]
link mockito_core to objenesis--><path d="M1197.6458,98.682 C1220.1458,115.7757 1251.625,139.682 1275.1771,157.5674 " fill="none" id="mockito_core-to-objenesis" style="stroke:#545454;stroke-width:1.5625;"/><polygon fill="#545454" points="1279.4792,160.8382,1274.5511,151.8401,1275.3377,157.6799,1269.4978,158.4665,1279.4792,160.8382" style="stroke:#545454;stroke-width:1.5625;"/><!--MD5=[546b0a91a22de90019b2ba1c617f48bd]
link slf4j_log4j12 to log4j--><path d="M859.8958,98.9424 C859.8958,115.4111 859.8958,138.109 859.8958,155.6611 " fill="none" id="slf4j_log4j12-to-log4j" style="stroke:#545454;stroke-width:1.5625;"/><polygon fill="#545454" points="859.8958,160.9424,864.0625,151.5674,859.8958,155.734,855.7292,151.5674,859.8958,160.9424" style="stroke:#545454;stroke-width:1.5625;"/><!--MD5=[93ebf708306c8acbe823733975c69e1e]
link velocity_engine_core to commons_lang3--><path d="M1458.8542,98.9424 C1458.8542,115.4111 1458.8542,138.109 1458.8542,155.6611 " fill="none" id="velocity_engine_core-to-commons_lang3" style="stroke:#545454;stroke-width:1.5625;"/><polygon fill="#545454" points="1458.8542,160.9424,1463.0208,151.5674,1458.8542,155.734,1454.6875,151.5674,1458.8542,160.9424" style="stroke:#545454;stroke-width:1.5625;"/><!--MD5=[dc36b239700aa6686811ce309cbe934a]
link wicket_core to jdk_serializable_functional--><path d="M501.9896,98.557 C541.4792,116.0465 597.2292,140.7445 637.9688,158.7965 " fill="none" id="wicket_core-to-jdk_serializable_functional" style="stroke:#545454;stroke-width:1.5625;"/><polygon fill="#545454" points="642.8646,160.9632,635.9854,153.3521,638.1039,158.8507,632.6054,160.9692,642.8646,160.9632" style="stroke:#545454;stroke-width:1.5625;"/><!--MD5=[daa80ab011d61c32df9a875df4862374]
link wicket_core to openjson--><path d="M404.0208,98.557 C362.5625,116.4528 303.625,141.8903 261.5938,160.0361 " fill="none" id="wicket_core-to-openjson" style="stroke:#545454;stroke-width:1.5625;"/><polygon fill="#545454" points="256.5521,162.2132,266.8108,162.3115,261.3316,160.1436,263.4995,154.6643,256.5521,162.2132" style="stroke:#545454;stroke-width:1.5625;"/><!--MD5=[0e84bfe14f25425d2935f9d6ab96c635]
link wicket_core to wicket_request--><path d="M433.5729,98.9424 C418.0104,115.8382 396.4271,139.2861 380.0938,157.0153 " fill="none" id="wicket_core-to-wicket_request" style="stroke:#545454;stroke-width:1.5625;"/><polygon fill="#545454" points="376.4896,160.9424,385.9082,156.8752,380.0204,157.1136,379.7821,151.2258,376.4896,160.9424" style="stroke:#545454;stroke-width:1.5625;"/><!--MD5=[954cb058695ba1aa4b21e9f88b759e90]
link wicket_core to wicket_util--><path d="M464.6563,98.9424 C473.0417,115.557 484.625,138.4945 493.5208,156.1195 " fill="none" id="wicket_core-to-wicket_util" style="stroke:#545454;stroke-width:1.5625;"/><polygon fill="#545454" points="495.9583,160.9424,495.4533,150.6956,493.6113,156.2929,488.014,154.4509,495.9583,160.9424" style="stroke:#545454;stroke-width:1.5625;"/><!--MD5=[fd484b9bbd7d72f648347b8c2c1c0a52]
link wicket_util to commons_collections4--><path d="M543.25,205.9736 C572.4271,223.2132 613.3333,247.3695 643.6875,265.307 " fill="none" id="wicket_util-to-commons_collections4" style="stroke:#545454;stroke-width:1.5625;"/><polygon fill="#545454" points="648.4688,268.1299,642.5201,259.7714,643.9856,265.4787,638.2783,266.9443,648.4688,268.1299" style="stroke:#545454;stroke-width:1.5625;"/><!--MD5=[04bdba72622389e960a9e360895b6314]
link wicket_util to commons_fileupload--><path d="M471.3646,205.9736 C443.0417,223.2132 403.3229,247.3695 373.8542,265.307 " fill="none" id="wicket_util-to-commons_fileupload" style="stroke:#545454;stroke-width:1.5625;"/><polygon fill="#545454" points="369.2188,268.1299,379.3933,266.8145,373.6677,265.4218,375.0604,259.6962,369.2188,268.1299" style="stroke:#545454;stroke-width:1.5625;"/><!--MD5=[42393529676ae9aeba5f8fc3a130e5ac]
link wicket_util to commons_io--><path d="M506.7708,206.234 C506.7708,222.7028 506.7708,245.4007 506.7708,262.9528 " fill="none" id="wicket_util-to-commons_io" style="stroke:#545454;stroke-width:1.5625;"/><polygon fill="#545454" points="506.7708,268.234,510.9375,258.859,506.7708,263.0257,502.6042,258.859,506.7708,268.234" style="stroke:#545454;stroke-width:1.5625;"/><!--MD5=[d292238de1308fe6428315af99c02d68]
link jakarta_servlet_api to jcl_over_slf4j--><!--MD5=[a4019881cca8f362423847e2b3aacfb1]
link jakarta_servlet_api to slf4j_api--><!--MD5=[e0dbb09c83d21c51e2b10b459cd2087e]
@startuml

    !include lexakai.theme
    
    title "wicket-velocity"
    
    artifact openjson
    artifact commons_fileupload
    artifact commons_io
    artifact jakarta_servlet_api
    artifact log4j
    artifact byte_buddy_agent
    artifact byte_buddy
    artifact commons_collections4
    artifact commons_lang3
    artifact velocity_engine_core
    artifact wicket_core
    artifact wicket_request
    artifact wicket_util
    artifact apiguardian_api
    artifact jdk_serializable_functional
    artifact junit_jupiter_api
    artifact junit_jupiter_engine
    artifact junit_platform_commons
    artifact junit_platform_engine
    artifact mockito_core
    artifact objenesis
    artifact opentest4j
    artifact jcl_over_slf4j
    artifact slf4j_api
    artifact slf4j_log4j12
    junit_jupiter_engine - -> apiguardian_api
    junit_jupiter_engine - -> junit_jupiter_api
    junit_jupiter_engine - -> junit_platform_engine
    junit_platform_engine - -> junit_platform_commons
    junit_platform_engine - -> opentest4j
    mockito_core - -> byte_buddy
    mockito_core - -> byte_buddy_agent
    mockito_core - -> objenesis
    slf4j_log4j12 - -> log4j
    velocity_engine_core - -> commons_lang3
    wicket_core - -> jdk_serializable_functional
    wicket_core - -> openjson
    wicket_core - -> wicket_request
    wicket_core - -> wicket_util
    wicket_util - -> commons_collections4
    wicket_util - -> commons_fileupload
    wicket_util - -> commons_io
    
@enduml

@startuml









skinparam backgroundColor #333333






skinparam  {
    defaultFontName   "Open Sans,Avenir,Nunito,Arial,Helvetica,SansSerif"
    defaultFontSize   12
    defaultTextAlignment left
    shadowing false
    RoundCorner 10
    TitleFontSize 18
}

skinparam defaultFontName       "Open Sans,Avenir,Nunito,Arial,Helvetica,SansSerif"
skinparam defaultFontSize       12
skinparam dpi                   100
skinparam shadowing             false
skinparam roundcorner           16
skinparam ParticipantPadding    40
skinparam BoxPadding            40
skinparam Padding               3
skinparam ArrowColor            #545454
skinparam stereotype {
    CBackgroundColor #0066cf
    CBorderColor #0086ef
    ABackgroundColor #C8Ac00
    ABorderColor #D8Bc00
    IBackgroundColor #008400
    IBorderColor #239c23
    EBackgroundColor #cf6300
    EBorderColor #ef8300
    NBackgroundColor #3380b9
    NBorderColor #004d86
}
skinparam title {
	FontColor	                 #c0c0c0
 	BorderColor                  #545454
	FontSize	    	         20
	BorderRoundCorner            16
	BorderThickness 	         1
	BackgroundColor              #48494b
}


skinparam legend {
	BackgroundColor #303030
	BorderColor #404040
	FontColor #a0a0a0
}

	skinparam swimlane {
	BorderColor #5e5e5e
	BorderThickness 2
	TitleBackgroundColor  #6d6d6d-#484848
	TitleFontColor #303030
}

skinparam activity {
		FontColor #C8Ac00
	BorderColor #333333
	BackgroundColor #333333-#333333
	BarColor #00FF00
	StartColor #0060a8
	EndColor #0060a8
	DiamondBackgroundColor #6d6d6d-#3a3a3a
  	DiamondBorderColor #3a3a3a
  	DiamondFontColor #fefefe
}


skinparam participant {
		FontColor #C8Ac00
	BorderColor #333333
	BackgroundColor #333333-#333333
	ParticipantBorderThickness 2
}


skinparam actor {
		FontColor #C8Ac00
	BorderColor #333333
	BackgroundColor #333333-#333333
}


skinparam arrow {
	Thickness 1.5
	Color #545454
	FontColor #a0a0a0
    FontStyle bold
    MessageAlignment center
}



skinparam sequence {
	BorderColor #303030
	TitleFontColor #303030
	BackgroundColor #333333
	StartColor #303030
	EndColor #303030
	BoxBackgroundColor #333333
	BoxBorderColor #484848
	BoxFontColor #484848
	LifeLineBorderColor #484848
	LifeLineBorderThickness 2
	LifeLineBackgroundColor #3a3a3a
	GroupBorderColor #484848
	GroupFontColor #484848
	GroupHeaderFontColor #0060a8
	GroupBackgroundColor #484848
	GroupHeaderBackgroundColor #333333
	DividerBackgroundColor #484848
    DividerBorderColor #484848
    DividerBorderThickness 2
    DividerFontColor #D8Bc00
	ReferenceBackgroundColor #333333
	ReferenceBorderColor #484848
	ReferenceFontColor #fefefe
	ReferenceHeaderBackgroundColor #484848
}


skinparam partition {
	BorderColor #303030
	FontColor #333333
	BackgroundColor #333333
}


skinparam collections {
		FontColor #C8Ac00
	BorderColor #333333
	BackgroundColor #333333-#333333
}


skinparam control {
		FontColor #C8Ac00
	BorderColor #333333
	BackgroundColor #333333-#333333
}


skinparam entity {
		FontColor #C8Ac00
	BorderColor #333333
	BackgroundColor #333333-#333333
}


skinparam boundary {
		FontColor #C8Ac00
	BorderColor #333333
	BackgroundColor #333333-#333333
}


skinparam agent {
	BackgroundColor #ff8000
	BorderColor #ff9933
	FontColor #484848
}


skinparam note {
	BorderThickness 1
	BackgroundColor #1b1b1a
	BorderColor #5e5e5e
	FontSize 11
	FontColor #a0a0a0
}


skinparam artifact {
	BorderThickness 10
	BorderColor #5e5e5e
	BackgroundColor #1b1b1a
	FontColor #D8Bc00
}


skinparam component {
		FontColor #C8Ac00
	BorderColor #333333
	BackgroundColor #333333-#333333
}


skinparam interface {
	BackgroundColor  #008400
	BorderColor  #007F00
	FontColor #484848
}


skinparam storage {
	BackgroundColor #ff8000
  	BorderColor #cc6600
	FontColor #222222
}


skinparam node {
	BackgroundColor #333333
	BorderColor #333333
	FontColor #C8Ac00
}


skinparam cloud {
	BackgroundColor #484848-black
	BorderColor #484848
	FontColor #D8Bc00
}


skinparam database {
		FontColor #C8Ac00
	BorderColor #333333
	BackgroundColor #333333-#333333
	BackgroundColor  #333333
}


skinparam class {
		FontColor #C8Ac00
	BorderColor #333333
	BackgroundColor #333333-#333333
	HeaderBackgroundColor #1b1b1a
    BackgroundColor #282828
    BorderColor #5e5e5e
 	StereotypeFontColor #a0a0a0
    StereotypeFontStyle bold
	BorderThickness 1
	AttributeFontColor #D8Bc00
	AttributeFontSize 11
    FontColor #D8Bc00
    FontStyle bold
}


skinparam object {
		FontColor #C8Ac00
	BorderColor #333333
	BackgroundColor #333333-#333333
	StereotypeFontColor #484848
	BorderThickness 1
	AttributeFontColor #fefefe
	AttributeFontSize 11
}


skinparam usecase {
		FontColor #C8Ac00
	BorderColor #333333
	BackgroundColor #333333-#333333
	BorderThickness 2
	StereotypeFontColor #303030
}


skinparam rectangle {
		FontColor #C8Ac00
	BorderColor #333333
	BackgroundColor #333333-#333333
	BackgroundColor #333333
	BorderThickness 2
	StereotypeFontColor #303030
}


skinparam package {
		FontColor #C8Ac00
	BorderColor #333333
	BackgroundColor #333333-#333333
	BackgroundColor #333333
	BorderThickness 2
}


skinparam folder {
	BackgroundColor #6d6d6d
  	BorderColor #ff8000
	FontColor #ff8000
	BorderThickness 2
}


skinparam frame {
	BackgroundColor #6d6d6d
  	BorderColor #0060a8
	FontColor #0060a8
	BorderThickness 2
}


skinparam state {
		FontColor #C8Ac00
	BorderColor #333333
	BackgroundColor #333333-#333333
	StartColor #0060a8
	EndColor #0060a8
	AttributeFontColor #fefefe
	AttributeFontSize 11
}


skinparam queue {
		FontColor #C8Ac00
	BorderColor #333333
	BackgroundColor #333333-#333333
}


skinparam card {
	BackgroundColor #0060a8
	BorderColor #004d86
	FontColor $INFO_TEXT
}


skinparam file {
	BackgroundColor #6d6d6d-#484848
	BorderColor #0060a8
	FontColor #fefefe
}


skinparam stack {
		FontColor #C8Ac00
	BorderColor #333333
	BackgroundColor #333333-#333333
}

    
    title "wicket-velocity"
    
    artifact openjson
    artifact commons_fileupload
    artifact commons_io
    artifact jakarta_servlet_api
    artifact log4j
    artifact byte_buddy_agent
    artifact byte_buddy
    artifact commons_collections4
    artifact commons_lang3
    artifact velocity_engine_core
    artifact wicket_core
    artifact wicket_request
    artifact wicket_util
    artifact apiguardian_api
    artifact jdk_serializable_functional
    artifact junit_jupiter_api
    artifact junit_jupiter_engine
    artifact junit_platform_commons
    artifact junit_platform_engine
    artifact mockito_core
    artifact objenesis
    artifact opentest4j
    artifact jcl_over_slf4j
    artifact slf4j_api
    artifact slf4j_log4j12
    junit_jupiter_engine - -> apiguardian_api
    junit_jupiter_engine - -> junit_jupiter_api
    junit_jupiter_engine - -> junit_platform_engine
    junit_platform_engine - -> junit_platform_commons
    junit_platform_engine - -> opentest4j
    mockito_core - -> byte_buddy
    mockito_core - -> byte_buddy_agent
    mockito_core - -> objenesis
    slf4j_log4j12 - -> log4j
    velocity_engine_core - -> commons_lang3
    wicket_core - -> jdk_serializable_functional
    wicket_core - -> openjson
    wicket_core - -> wicket_request
    wicket_core - -> wicket_util
    wicket_util - -> commons_collections4
    wicket_util - -> commons_fileupload
    wicket_util - -> commons_io
    
@enduml

PlantUML version 1.2021.01(Tue Feb 02 00:55:08 MST 2021)
(GPL source distribution)
Java Runtime: Java(TM) SE Runtime Environment
JVM: Java HotSpot(TM) 64-Bit Server VM
Default Encoding: UTF-8
Language: en
Country: US
--></g></svg>