<?xml version="1.0" encoding="UTF-8" standalone="no"?><svg xmlns="http://www.w3.org/2000/svg" xmlns:xlink="http://www.w3.org/1999/xlink" contentScriptType="application/ecmascript" contentStyleType="text/css" height="504.1667px" preserveAspectRatio="none" style="width:536px;height:504px;background:#333333;" version="1.1" viewBox="0 0 536 504" width="536.4583px" zoomAndPan="magnify"><defs/><g><rect fill="#48494B" height="41.2028" rx="8.3333" ry="8.3333" style="stroke:#545454;stroke-width:1.0416666666666667;" width="511.4583" x="5.4688" y="2.0833"/><text fill="#C0C0C0" font-family="Open Sans,Avenir,Nunito,Arial,Helvetica,SansSerif" font-size="20.8333" lengthAdjust="spacing" textLength="488.5417" x="16.9271" y="30.5583">org.apache.wicket.authroles.authentication.panel</text><!--MD5=[82448486abcff3030a92d79498de1092]
cluster SignInPanel--><polygon fill="#333333" points="16.6667,240.1611,104.1667,240.1611,111.4583,267.3828,223.9583,267.3828,223.9583,397.4528,16.6667,397.4528,16.6667,240.1611" style="stroke:#333333;stroke-width:2.0833333333333335;"/><line style="stroke:#333333;stroke-width:2.0833333333333335;" x1="16.6667" x2="111.4583" y1="267.3828" y2="267.3828"/><text fill="#C8AC00" font-family="Open Sans,Avenir,Nunito,Arial,Helvetica,SansSerif" font-size="12.5" font-weight="bold" lengthAdjust="spacing" textLength="75" x="23.9583" y="257.4544">SignInPanel</text><!--MD5=[70d73600c3ab70b79bef8632514e1664]
class SignInPanel.SignInForm--><rect codeLine="7" fill="#282828" height="83.3781" id="SignInPanel.SignInForm" rx="8.3333" ry="8.3333" style="stroke:#5E5E5E;stroke-width:1.0416666666666667;" width="137.5" x="61.4583" y="289.1195"/><rect fill="#1B1B1A" height="31.3883" rx="8.3333" ry="8.3333" style="stroke:#1B1B1A;stroke-width:1.0416666666666667;" width="137.5" x="61.4583" y="289.1195"/><rect fill="#1B1B1A" height="8.3333" style="stroke:#1B1B1A;stroke-width:1.0416666666666667;" width="137.5" x="61.4583" y="312.1745"/><rect codeLine="7" fill="none" height="83.3781" id="SignInPanel.SignInForm" rx="8.3333" ry="8.3333" style="stroke:#5E5E5E;stroke-width:1.0416666666666667;" width="137.5" x="61.4583" y="289.1195"/><ellipse cx="87.7604" cy="304.8136" fill="#0066CF" rx="10.4167" ry="10.4167" style="stroke:#0086EF;stroke-width:1.0416666666666667;"/><path d="M89.6708,309.2387 Q89.2436,309.4584 88.7736,309.5683 Q88.3036,309.6781 87.7848,309.6781 Q85.9416,309.6781 84.9711,308.4635 Q84.0007,307.2489 84.0007,304.954 Q84.0007,302.653 84.9711,301.4384 Q85.9416,300.2238 87.7848,300.2238 Q88.3036,300.2238 88.7797,300.3337 Q89.2558,300.4435 89.6708,300.6632 L89.6708,302.6652 Q89.2069,302.238 88.7705,302.0396 Q88.3341,301.8412 87.8703,301.8412 Q86.8815,301.8412 86.378,302.6255 Q85.8744,303.4098 85.8744,304.954 Q85.8744,306.4921 86.378,307.2764 Q86.8815,308.0607 87.8703,308.0607 Q88.3341,308.0607 88.7705,307.8623 Q89.2069,307.664 89.6708,307.2367 Z " fill="#000000"/><text fill="#D8BC00" font-family="Open Sans,Avenir,Nunito,Arial,Helvetica,SansSerif" font-size="12.5" font-weight="bold" lengthAdjust="spacing" textLength="73.9583" x="107.0313" y="309.5378">SignInForm</text><line style="stroke:#5E5E5E;stroke-width:1.5625;" x1="62.5" x2="197.9167" y1="320.5078" y2="320.5078"/><ellipse cx="72.9167" cy="355.8777" fill="#84BE84" rx="3.125" ry="3.125" style="stroke:#038048;stroke-width:1.0416666666666667;"/><text fill="#D8BC00" font-family="Open Sans,Avenir,Nunito,Arial,Helvetica,SansSerif" font-size="11.4583" lengthAdjust="spacing" textLength="105.2083" x="84.375" y="362.7889">SignInForm(String)</text><line style="stroke:#5E5E5E;stroke-width:1.0416666666666667;" x1="62.5" x2="86.4583" y1="338.7136" y2="338.7136"/><text fill="#D8BC00" font-family="Open Sans,Avenir,Nunito,Arial,Helvetica,SansSerif" font-size="11.4583" lengthAdjust="spacing" textLength="81.25" x="89.5833" y="342.5232">(constructors)</text><line style="stroke:#5E5E5E;stroke-width:1.0416666666666667;" x1="173.9583" x2="197.9167" y1="338.7136" y2="338.7136"/><!--MD5=[b48c82be7dae47ebaa33adea62b1f6fb]
class StatelessForm--><rect fill="#282828" height="48.055" id="StatelessForm" rx="8.3333" ry="8.3333" style="stroke:#5E5E5E;stroke-width:1.0416666666666667;" width="129.1667" x="65.625" y="53.7028"/><rect fill="#1B1B1A" height="31.3883" rx="8.3333" ry="8.3333" style="stroke:#1B1B1A;stroke-width:1.0416666666666667;" width="129.1667" x="65.625" y="53.7028"/><rect fill="#1B1B1A" height="8.3333" style="stroke:#1B1B1A;stroke-width:1.0416666666666667;" width="129.1667" x="65.625" y="76.7578"/><rect fill="none" height="48.055" id="StatelessForm" rx="8.3333" ry="8.3333" style="stroke:#5E5E5E;stroke-width:1.0416666666666667;" width="129.1667" x="65.625" y="53.7028"/><ellipse cx="80.2083" cy="69.397" fill="#0066CF" rx="10.4167" ry="10.4167" style="stroke:#0086EF;stroke-width:1.0416666666666667;"/><path d="M82.1187,73.822 Q81.6915,74.0417 81.2215,74.1516 Q80.7515,74.2615 80.2327,74.2615 Q78.3895,74.2615 77.419,73.0469 Q76.4486,71.8323 76.4486,69.5374 Q76.4486,67.2363 77.419,66.0217 Q78.3895,64.8071 80.2327,64.8071 Q80.7515,64.8071 81.2276,64.917 Q81.7037,65.0269 82.1187,65.2466 L82.1187,67.2485 Q81.6549,66.8213 81.2185,66.6229 Q80.7821,66.4246 80.3182,66.4246 Q79.3294,66.4246 78.8259,67.2089 Q78.3223,67.9932 78.3223,69.5374 Q78.3223,71.0754 78.8259,71.8597 Q79.3294,72.644 80.3182,72.644 Q80.7821,72.644 81.2185,72.4457 Q81.6549,72.2473 82.1187,71.8201 Z " fill="#000000"/><text fill="#D8BC00" font-family="Open Sans,Avenir,Nunito,Arial,Helvetica,SansSerif" font-size="12.5" font-weight="bold" lengthAdjust="spacing" textLength="91.6667" x="96.875" y="74.1211">StatelessForm</text><line style="stroke:#5E5E5E;stroke-width:1.0416666666666667;" x1="66.6667" x2="193.75" y1="85.0911" y2="85.0911"/><line style="stroke:#5E5E5E;stroke-width:1.0416666666666667;" x1="66.6667" x2="193.75" y1="93.4245" y2="93.4245"/><!--MD5=[0174392a0c212c3b3e97bee69152624c]
class Panel--><rect fill="#282828" height="48.055" id="Panel" rx="8.3333" ry="8.3333" style="stroke:#5E5E5E;stroke-width:1.0416666666666667;" width="71.875" x="353.6458" y="53.7028"/><rect fill="#1B1B1A" height="31.3883" rx="8.3333" ry="8.3333" style="stroke:#1B1B1A;stroke-width:1.0416666666666667;" width="71.875" x="353.6458" y="53.7028"/><rect fill="#1B1B1A" height="8.3333" style="stroke:#1B1B1A;stroke-width:1.0416666666666667;" width="71.875" x="353.6458" y="76.7578"/><rect fill="none" height="48.055" id="Panel" rx="8.3333" ry="8.3333" style="stroke:#5E5E5E;stroke-width:1.0416666666666667;" width="71.875" x="353.6458" y="53.7028"/><ellipse cx="368.2292" cy="69.397" fill="#0066CF" rx="10.4167" ry="10.4167" style="stroke:#0086EF;stroke-width:1.0416666666666667;"/><path d="M370.1396,73.822 Q369.7123,74.0417 369.2424,74.1516 Q368.7724,74.2615 368.2536,74.2615 Q366.4103,74.2615 365.4399,73.0469 Q364.4694,71.8323 364.4694,69.5374 Q364.4694,67.2363 365.4399,66.0217 Q366.4103,64.8071 368.2536,64.8071 Q368.7724,64.8071 369.2485,64.917 Q369.7245,65.0269 370.1396,65.2466 L370.1396,67.2485 Q369.6757,66.8213 369.2393,66.6229 Q368.8029,66.4246 368.339,66.4246 Q367.3503,66.4246 366.8467,67.2089 Q366.3432,67.9932 366.3432,69.5374 Q366.3432,71.0754 366.8467,71.8597 Q367.3503,72.644 368.339,72.644 Q368.8029,72.644 369.2393,72.4457 Q369.6757,72.2473 370.1396,71.8201 Z " fill="#000000"/><text fill="#D8BC00" font-family="Open Sans,Avenir,Nunito,Arial,Helvetica,SansSerif" font-size="12.5" font-weight="bold" lengthAdjust="spacing" textLength="34.375" x="384.8958" y="74.1211">Panel</text><line style="stroke:#5E5E5E;stroke-width:1.0416666666666667;" x1="354.6875" x2="424.4792" y1="85.0911" y2="85.0911"/><line style="stroke:#5E5E5E;stroke-width:1.0416666666666667;" x1="354.6875" x2="424.4792" y1="93.4245" y2="93.4245"/><!--MD5=[abb79fa8d85c42ee57efe22697346f29]
class SignInPanel--><rect codeLine="14" fill="#282828" height="332.8166" id="SignInPanel" rx="8.3333" ry="8.3333" style="stroke:#5E5E5E;stroke-width:1.0416666666666667;" width="280.2083" x="249.4792" y="164.1195"/><rect fill="#1B1B1A" height="31.3883" rx="8.3333" ry="8.3333" style="stroke:#1B1B1A;stroke-width:1.0416666666666667;" width="280.2083" x="249.4792" y="164.1195"/><rect fill="#1B1B1A" height="8.3333" style="stroke:#1B1B1A;stroke-width:1.0416666666666667;" width="280.2083" x="249.4792" y="187.1745"/><rect codeLine="14" fill="none" height="332.8166" id="SignInPanel" rx="8.3333" ry="8.3333" style="stroke:#5E5E5E;stroke-width:1.0416666666666667;" width="280.2083" x="249.4792" y="164.1195"/><ellipse cx="344.7917" cy="179.8136" fill="#0066CF" rx="10.4167" ry="10.4167" style="stroke:#0086EF;stroke-width:1.0416666666666667;"/><path d="M346.7021,184.2387 Q346.2748,184.4584 345.8049,184.5683 Q345.3349,184.6781 344.8161,184.6781 Q342.9728,184.6781 342.0024,183.4635 Q341.0319,182.2489 341.0319,179.954 Q341.0319,177.653 342.0024,176.4384 Q342.9728,175.2238 344.8161,175.2238 Q345.3349,175.2238 345.811,175.3337 Q346.287,175.4435 346.7021,175.6632 L346.7021,177.6652 Q346.2382,177.238 345.8018,177.0396 Q345.3654,176.8412 344.9015,176.8412 Q343.9128,176.8412 343.4092,177.6255 Q342.9057,178.4098 342.9057,179.954 Q342.9057,181.4921 343.4092,182.2764 Q343.9128,183.0607 344.9015,183.0607 Q345.3654,183.0607 345.8018,182.8623 Q346.2382,182.664 346.7021,182.2367 Z " fill="#000000"/><text fill="#D8BC00" font-family="Open Sans,Avenir,Nunito,Arial,Helvetica,SansSerif" font-size="12.5" font-weight="bold" lengthAdjust="spacing" textLength="75" x="367.7083" y="184.5378">SignInPanel</text><line style="stroke:#5E5E5E;stroke-width:1.5625;" x1="250.5208" x2="528.6458" y1="195.5078" y2="195.5078"/><ellipse cx="260.9375" cy="230.8777" fill="#84BE84" rx="3.125" ry="3.125" style="stroke:#038048;stroke-width:1.0416666666666667;"/><text fill="#D8BC00" font-family="Open Sans,Avenir,Nunito,Arial,Helvetica,SansSerif" font-size="11.4583" lengthAdjust="spacing" textLength="105.2083" x="272.3958" y="237.7889">SignInPanel(String)</text><ellipse cx="260.9375" cy="250.6226" fill="#84BE84" rx="3.125" ry="3.125" style="stroke:#038048;stroke-width:1.0416666666666667;"/><text fill="#D8BC00" font-family="Open Sans,Avenir,Nunito,Arial,Helvetica,SansSerif" font-size="11.4583" lengthAdjust="spacing" textLength="156.25" x="272.3958" y="257.5338">SignInPanel(String, boolean)</text><line style="stroke:#5E5E5E;stroke-width:1.0416666666666667;" x1="250.5208" x2="345.8333" y1="213.7136" y2="213.7136"/><text fill="#D8BC00" font-family="Open Sans,Avenir,Nunito,Arial,Helvetica,SansSerif" font-size="11.4583" lengthAdjust="spacing" textLength="81.25" x="348.9583" y="217.5232">(constructors)</text><line style="stroke:#5E5E5E;stroke-width:1.0416666666666667;" x1="433.3333" x2="528.6458" y1="213.7136" y2="213.7136"/><line style="stroke:#5E5E5E;stroke-width:1.0416666666666667;" x1="250.5208" x2="528.6458" y1="267.2424" y2="267.2424"/><ellipse cx="260.9375" cy="278.7008" fill="#84BE84" rx="3.125" ry="3.125" style="stroke:#038048;stroke-width:1.0416666666666667;"/><text fill="#D8BC00" font-family="Open Sans,Avenir,Nunito,Arial,Helvetica,SansSerif" font-size="11.4583" lengthAdjust="spacing" textLength="115.625" x="272.3958" y="285.612">String getPassword()</text><ellipse cx="260.9375" cy="298.4456" fill="#84BE84" rx="3.125" ry="3.125" style="stroke:#038048;stroke-width:1.0416666666666667;"/><text fill="#D8BC00" font-family="Open Sans,Avenir,Nunito,Arial,Helvetica,SansSerif" font-size="11.4583" lengthAdjust="spacing" textLength="148.9583" x="272.3958" y="305.3569">boolean getRememberMe()</text><ellipse cx="260.9375" cy="318.1905" fill="#84BE84" rx="3.125" ry="3.125" style="stroke:#038048;stroke-width:1.0416666666666667;"/><text fill="#D8BC00" font-family="Open Sans,Avenir,Nunito,Arial,Helvetica,SansSerif" font-size="11.4583" lengthAdjust="spacing" textLength="118.75" x="272.3958" y="325.1017">String getUsername()</text><ellipse cx="260.9375" cy="337.9354" fill="#84BE84" rx="3.125" ry="3.125" style="stroke:#038048;stroke-width:1.0416666666666667;"/><text fill="#D8BC00" font-family="Open Sans,Avenir,Nunito,Arial,Helvetica,SansSerif" font-size="11.4583" lengthAdjust="spacing" textLength="195.8333" x="272.3958" y="344.8466">void setPassword(String password)</text><ellipse cx="260.9375" cy="357.6803" fill="#84BE84" rx="3.125" ry="3.125" style="stroke:#038048;stroke-width:1.0416666666666667;"/><text fill="#D8BC00" font-family="Open Sans,Avenir,Nunito,Arial,Helvetica,SansSerif" font-size="11.4583" lengthAdjust="spacing" textLength="247.9167" x="272.3958" y="364.5915">void setRememberMe(boolean rememberMe)</text><ellipse cx="260.9375" cy="377.4251" fill="#84BE84" rx="3.125" ry="3.125" style="stroke:#038048;stroke-width:1.0416666666666667;"/><text fill="#D8BC00" font-family="Open Sans,Avenir,Nunito,Arial,Helvetica,SansSerif" font-size="11.4583" lengthAdjust="spacing" textLength="200" x="272.3958" y="384.3363">void setUsername(String username)</text><polygon fill="#FFFF44" points="260.9375,391.9617,265.1042,396.1283,260.9375,400.295,256.7708,396.1283" style="stroke:#B38D22;stroke-width:1.0416666666666667;"/><text fill="#D8BC00" font-family="Open Sans,Avenir,Nunito,Arial,Helvetica,SansSerif" font-size="11.4583" lengthAdjust="spacing" textLength="121.875" x="272.3958" y="404.0812">SignInForm getForm()</text><polygon fill="#FFFF44" points="260.9375,411.7065,265.1042,415.8732,260.9375,420.0399,256.7708,415.8732" style="stroke:#B38D22;stroke-width:1.0416666666666667;"/><text fill="#D8BC00" font-family="Open Sans,Avenir,Nunito,Arial,Helvetica,SansSerif" font-size="11.4583" lengthAdjust="spacing" textLength="116.6667" x="272.3958" y="423.8261">void onSignInFailed()</text><polygon fill="#FFFF44" points="260.9375,431.4514,265.1042,435.6181,260.9375,439.7847,256.7708,435.6181" style="stroke:#B38D22;stroke-width:1.0416666666666667;"/><text fill="#D8BC00" font-family="Open Sans,Avenir,Nunito,Arial,Helvetica,SansSerif" font-size="11.4583" lengthAdjust="spacing" textLength="157.2917" x="272.3958" y="443.571">void onSignInRemembered()</text><polygon fill="#FFFF44" points="260.9375,475.1078,265.1042,479.2745,260.9375,483.4412,256.7708,479.2745" style="stroke:#B38D22;stroke-width:1.0416666666666667;"/><text fill="#D8BC00" font-family="Open Sans,Avenir,Nunito,Arial,Helvetica,SansSerif" font-size="11.4583" lengthAdjust="spacing" textLength="143.75" x="272.3958" y="487.2274">void onSignInSucceeded()</text><line style="stroke:#5E5E5E;stroke-width:1.0416666666666667;" x1="250.5208" x2="365.1042" y1="463.1521" y2="463.1521"/><text fill="#D8BC00" font-family="Open Sans,Avenir,Nunito,Arial,Helvetica,SansSerif" font-size="11.4583" lengthAdjust="spacing" textLength="42.7083" x="368.2292" y="466.9617">(status)</text><line style="stroke:#5E5E5E;stroke-width:1.0416666666666667;" x1="414.0625" x2="528.6458" y1="463.1521" y2="463.1521"/><!--MD5=[9c00e1760a9d187bb6e23529845e44a2]
reverse link StatelessForm to SignInPanel.SignInForm--><path codeLine="6" d="M130.2083,122.807 C130.2083,169.734 130.2083,243.3486 130.2083,288.9528 " fill="none" id="StatelessForm-backto-SignInPanel.SignInForm" style="stroke:#545454;stroke-width:1.5625;"/><polygon fill="none" points="122.9167,122.7028,130.2083,101.8695,137.5,122.7028,122.9167,122.7028" style="stroke:#545454;stroke-width:1.5625;"/><!--MD5=[3544862821755b24dda058d31d0ac8b2]
reverse link Panel to SignInPanel--><path codeLine="13" d="M389.5833,122.8799 C389.5833,135.0986 389.5833,149.1195 389.5833,163.9736 " fill="none" id="Panel-backto-SignInPanel" style="stroke:#545454;stroke-width:1.5625;"/><polygon fill="none" points="382.2917,122.7028,389.5833,101.8695,396.875,122.7028,382.2917,122.7028" style="stroke:#545454;stroke-width:1.5625;"/><!--MD5=[3f89230cc341fa6ce49a4cf8e007627e]
@startuml

    !include lexakai.theme
    
    title "org.apache.wicket.authroles.authentication.panel"
    
    StatelessForm <|- - SignInPanel.SignInForm
    class SignInPanel.SignInForm
    {
        - -(constructors)- -
        +SignInForm(String)
    }
    
    Panel <|- - SignInPanel
    class SignInPanel
    {
        - -(constructors)- -
        +SignInPanel(String)
        +SignInPanel(String, boolean)
        - -
        +String getPassword()
        +boolean getRememberMe()
        +String getUsername()
        +void setPassword(String password)
        +void setRememberMe(boolean rememberMe)
        +void setUsername(String username)
        #SignInForm getForm()
        #void onSignInFailed()
        #void onSignInRemembered()
        - -(status)- -
        #void onSignInSucceeded()
    }
    
@enduml

@startuml









skinparam backgroundColor #333333






skinparam  {
    defaultFontName   "Open Sans,Avenir,Nunito,Arial,Helvetica,SansSerif"
    defaultFontSize   12
    defaultTextAlignment left
    shadowing false
    RoundCorner 10
    TitleFontSize 18
}

skinparam defaultFontName       "Open Sans,Avenir,Nunito,Arial,Helvetica,SansSerif"
skinparam defaultFontSize       12
skinparam dpi                   100
skinparam shadowing             false
skinparam roundcorner           16
skinparam ParticipantPadding    40
skinparam BoxPadding            40
skinparam Padding               3
skinparam ArrowColor            #545454
skinparam stereotype {
    CBackgroundColor #0066cf
    CBorderColor #0086ef
    ABackgroundColor #C8Ac00
    ABorderColor #D8Bc00
    IBackgroundColor #008400
    IBorderColor #239c23
    EBackgroundColor #cf6300
    EBorderColor #ef8300
    NBackgroundColor #3380b9
    NBorderColor #004d86
}
skinparam title {
	FontColor	                 #c0c0c0
 	BorderColor                  #545454
	FontSize	    	         20
	BorderRoundCorner            16
	BorderThickness 	         1
	BackgroundColor              #48494b
}


skinparam legend {
	BackgroundColor #303030
	BorderColor #404040
	FontColor #a0a0a0
}

	skinparam swimlane {
	BorderColor #5e5e5e
	BorderThickness 2
	TitleBackgroundColor  #6d6d6d-#484848
	TitleFontColor #303030
}

skinparam activity {
		FontColor #C8Ac00
	BorderColor #333333
	BackgroundColor #333333-#333333
	BarColor #00FF00
	StartColor #0060a8
	EndColor #0060a8
	DiamondBackgroundColor #6d6d6d-#3a3a3a
  	DiamondBorderColor #3a3a3a
  	DiamondFontColor #fefefe
}


skinparam participant {
		FontColor #C8Ac00
	BorderColor #333333
	BackgroundColor #333333-#333333
	ParticipantBorderThickness 2
}


skinparam actor {
		FontColor #C8Ac00
	BorderColor #333333
	BackgroundColor #333333-#333333
}


skinparam arrow {
	Thickness 1.5
	Color #545454
	FontColor #a0a0a0
    FontStyle bold
    MessageAlignment center
}



skinparam sequence {
	BorderColor #303030
	TitleFontColor #303030
	BackgroundColor #333333
	StartColor #303030
	EndColor #303030
	BoxBackgroundColor #333333
	BoxBorderColor #484848
	BoxFontColor #484848
	LifeLineBorderColor #484848
	LifeLineBorderThickness 2
	LifeLineBackgroundColor #3a3a3a
	GroupBorderColor #484848
	GroupFontColor #484848
	GroupHeaderFontColor #0060a8
	GroupBackgroundColor #484848
	GroupHeaderBackgroundColor #333333
	DividerBackgroundColor #484848
    DividerBorderColor #484848
    DividerBorderThickness 2
    DividerFontColor #D8Bc00
	ReferenceBackgroundColor #333333
	ReferenceBorderColor #484848
	ReferenceFontColor #fefefe
	ReferenceHeaderBackgroundColor #484848
}


skinparam partition {
	BorderColor #303030
	FontColor #333333
	BackgroundColor #333333
}


skinparam collections {
		FontColor #C8Ac00
	BorderColor #333333
	BackgroundColor #333333-#333333
}


skinparam control {
		FontColor #C8Ac00
	BorderColor #333333
	BackgroundColor #333333-#333333
}


skinparam entity {
		FontColor #C8Ac00
	BorderColor #333333
	BackgroundColor #333333-#333333
}


skinparam boundary {
		FontColor #C8Ac00
	BorderColor #333333
	BackgroundColor #333333-#333333
}


skinparam agent {
	BackgroundColor #ff8000
	BorderColor #ff9933
	FontColor #484848
}


skinparam note {
	BorderThickness 1
	BackgroundColor #1b1b1a
	BorderColor #5e5e5e
	FontSize 11
	FontColor #a0a0a0
}


skinparam artifact {
	BorderThickness 10
	BorderColor #5e5e5e
	BackgroundColor #1b1b1a
	FontColor #D8Bc00
}


skinparam component {
		FontColor #C8Ac00
	BorderColor #333333
	BackgroundColor #333333-#333333
}


skinparam interface {
	BackgroundColor  #008400
	BorderColor  #007F00
	FontColor #484848
}


skinparam storage {
	BackgroundColor #ff8000
  	BorderColor #cc6600
	FontColor #222222
}


skinparam node {
	BackgroundColor #333333
	BorderColor #333333
	FontColor #C8Ac00
}


skinparam cloud {
	BackgroundColor #484848-black
	BorderColor #484848
	FontColor #D8Bc00
}


skinparam database {
		FontColor #C8Ac00
	BorderColor #333333
	BackgroundColor #333333-#333333
	BackgroundColor  #333333
}


skinparam class {
		FontColor #C8Ac00
	BorderColor #333333
	BackgroundColor #333333-#333333
	HeaderBackgroundColor #1b1b1a
    BackgroundColor #282828
    BorderColor #5e5e5e
 	StereotypeFontColor #a0a0a0
    StereotypeFontStyle bold
	BorderThickness 1
	AttributeFontColor #D8Bc00
	AttributeFontSize 11
    FontColor #D8Bc00
    FontStyle bold
}


skinparam object {
		FontColor #C8Ac00
	BorderColor #333333
	BackgroundColor #333333-#333333
	StereotypeFontColor #484848
	BorderThickness 1
	AttributeFontColor #fefefe
	AttributeFontSize 11
}


skinparam usecase {
		FontColor #C8Ac00
	BorderColor #333333
	BackgroundColor #333333-#333333
	BorderThickness 2
	StereotypeFontColor #303030
}


skinparam rectangle {
		FontColor #C8Ac00
	BorderColor #333333
	BackgroundColor #333333-#333333
	BackgroundColor #333333
	BorderThickness 2
	StereotypeFontColor #303030
}


skinparam package {
		FontColor #C8Ac00
	BorderColor #333333
	BackgroundColor #333333-#333333
	BackgroundColor #333333
	BorderThickness 2
}


skinparam folder {
	BackgroundColor #6d6d6d
  	BorderColor #ff8000
	FontColor #ff8000
	BorderThickness 2
}


skinparam frame {
	BackgroundColor #6d6d6d
  	BorderColor #0060a8
	FontColor #0060a8
	BorderThickness 2
}


skinparam state {
		FontColor #C8Ac00
	BorderColor #333333
	BackgroundColor #333333-#333333
	StartColor #0060a8
	EndColor #0060a8
	AttributeFontColor #fefefe
	AttributeFontSize 11
}


skinparam queue {
		FontColor #C8Ac00
	BorderColor #333333
	BackgroundColor #333333-#333333
}


skinparam card {
	BackgroundColor #0060a8
	BorderColor #004d86
	FontColor $INFO_TEXT
}


skinparam file {
	BackgroundColor #6d6d6d-#484848
	BorderColor #0060a8
	FontColor #fefefe
}


skinparam stack {
		FontColor #C8Ac00
	BorderColor #333333
	BackgroundColor #333333-#333333
}

    
    title "org.apache.wicket.authroles.authentication.panel"
    
    StatelessForm <|- - SignInPanel.SignInForm
    class SignInPanel.SignInForm
    {
        - -(constructors)- -
        +SignInForm(String)
    }
    
    Panel <|- - SignInPanel
    class SignInPanel
    {
        - -(constructors)- -
        +SignInPanel(String)
        +SignInPanel(String, boolean)
        - -
        +String getPassword()
        +boolean getRememberMe()
        +String getUsername()
        +void setPassword(String password)
        +void setRememberMe(boolean rememberMe)
        +void setUsername(String username)
        #SignInForm getForm()
        #void onSignInFailed()
        #void onSignInRemembered()
        - -(status)- -
        #void onSignInSucceeded()
    }
    
@enduml

PlantUML version 1.2021.01(Tue Feb 02 00:55:08 MST 2021)
(GPL source distribution)
Java Runtime: Java(TM) SE Runtime Environment
JVM: Java HotSpot(TM) 64-Bit Server VM
Default Encoding: UTF-8
Language: en
Country: US
--></g></svg>