<?xml version="1.0" encoding="UTF-8" standalone="no"?><svg xmlns="http://www.w3.org/2000/svg" xmlns:xlink="http://www.w3.org/1999/xlink" contentScriptType="application/ecmascript" contentStyleType="text/css" height="531.25px" preserveAspectRatio="none" style="width:648px;height:531px;background:#333333;" version="1.1" viewBox="0 0 648 531" width="648.9583px" zoomAndPan="magnify"><defs/><g><rect fill="#48494B" height="41.2028" rx="8.3333" ry="8.3333" style="stroke:#545454;stroke-width:1.0416666666666667;" width="284.375" x="175" y="2.0833"/><text fill="#C0C0C0" font-family="Open Sans,Avenir,Nunito,Arial,Helvetica,SansSerif" font-size="20.8333" lengthAdjust="spacing" textLength="261.4583" x="186.4583" y="30.5583">org.apache.wicket.velocity</text><!--MD5=[886a457a7c238977703b1435802930a6]
class IInitializer--><rect codeLine="6" fill="#282828" height="48.055" id="IInitializer" rx="8.3333" ry="8.3333" style="stroke:#5E5E5E;stroke-width:1.0416666666666667;" width="103.125" x="7.2917" y="53.7028"/><rect fill="#1B1B1A" height="31.3883" rx="8.3333" ry="8.3333" style="stroke:#1B1B1A;stroke-width:1.0416666666666667;" width="103.125" x="7.2917" y="53.7028"/><rect fill="#1B1B1A" height="8.3333" style="stroke:#1B1B1A;stroke-width:1.0416666666666667;" width="103.125" x="7.2917" y="76.7578"/><rect codeLine="6" fill="none" height="48.055" id="IInitializer" rx="8.3333" ry="8.3333" style="stroke:#5E5E5E;stroke-width:1.0416666666666667;" width="103.125" x="7.2917" y="53.7028"/><ellipse cx="21.875" cy="69.397" fill="#008400" rx="10.4167" ry="10.4167" style="stroke:#239C23;stroke-width:1.0416666666666667;"/><path d="M19.279,66.5588 L19.279,64.9719 L24.705,64.9719 L24.705,66.5588 L22.8923,66.5588 L22.8923,72.4976 L24.705,72.4976 L24.705,74.0845 L19.279,74.0845 L19.279,72.4976 L21.0917,72.4976 L21.0917,66.5588 Z " fill="#000000"/><text fill="#D8BC00" font-family="Open Sans,Avenir,Nunito,Arial,Helvetica,SansSerif" font-size="12.5" font-style="italic" font-weight="bold" lengthAdjust="spacing" textLength="65.625" x="38.5417" y="74.1211">IInitializer</text><line style="stroke:#5E5E5E;stroke-width:1.0416666666666667;" x1="8.3333" x2="109.375" y1="85.0911" y2="85.0911"/><line style="stroke:#5E5E5E;stroke-width:1.0416666666666667;" x1="8.3333" x2="109.375" y1="93.4245" y2="93.4245"/><!--MD5=[a627ff2d60614e354c321d2e6b7a2164]
class Initializer--><rect codeLine="9" fill="#282828" height="48.055" id="Initializer" rx="8.3333" ry="8.3333" style="stroke:#5E5E5E;stroke-width:1.0416666666666667;" width="98.9583" x="9.375" y="237.557"/><rect fill="#1B1B1A" height="31.3883" rx="8.3333" ry="8.3333" style="stroke:#1B1B1A;stroke-width:1.0416666666666667;" width="98.9583" x="9.375" y="237.557"/><rect fill="#1B1B1A" height="8.3333" style="stroke:#1B1B1A;stroke-width:1.0416666666666667;" width="98.9583" x="9.375" y="260.612"/><rect codeLine="9" fill="none" height="48.055" id="Initializer" rx="8.3333" ry="8.3333" style="stroke:#5E5E5E;stroke-width:1.0416666666666667;" width="98.9583" x="9.375" y="237.557"/><ellipse cx="23.9583" cy="253.2511" fill="#0066CF" rx="10.4167" ry="10.4167" style="stroke:#0086EF;stroke-width:1.0416666666666667;"/><path d="M25.8687,257.6762 Q25.4415,257.8959 24.9715,258.0058 Q24.5015,258.1156 23.9827,258.1156 Q22.1395,258.1156 21.169,256.901 Q20.1986,255.6864 20.1986,253.3915 Q20.1986,251.0905 21.169,249.8759 Q22.1395,248.6613 23.9827,248.6613 Q24.5015,248.6613 24.9776,248.7712 Q25.4537,248.881 25.8687,249.1007 L25.8687,251.1027 Q25.4049,250.6755 24.9685,250.4771 Q24.5321,250.2787 24.0682,250.2787 Q23.0794,250.2787 22.5759,251.063 Q22.0723,251.8473 22.0723,253.3915 Q22.0723,254.9296 22.5759,255.7139 Q23.0794,256.4982 24.0682,256.4982 Q24.5321,256.4982 24.9685,256.2998 Q25.4049,256.1015 25.8687,255.6742 Z " fill="#000000"/><text fill="#D8BC00" font-family="Open Sans,Avenir,Nunito,Arial,Helvetica,SansSerif" font-size="12.5" font-weight="bold" lengthAdjust="spacing" textLength="61.4583" x="40.625" y="257.9753">Initializer</text><line style="stroke:#5E5E5E;stroke-width:1.0416666666666667;" x1="10.4167" x2="107.2917" y1="268.9453" y2="268.9453"/><line style="stroke:#5E5E5E;stroke-width:1.0416666666666667;" x1="10.4167" x2="107.2917" y1="277.2786" y2="277.2786"/><!--MD5=[9ec104ddfc62073059e345d4e82bb5a8]
class Behavior--><rect fill="#282828" height="48.055" id="Behavior" rx="8.3333" ry="8.3333" style="stroke:#5E5E5E;stroke-width:1.0416666666666667;" width="93.75" x="307.8125" y="53.7028"/><rect fill="#1B1B1A" height="31.3883" rx="8.3333" ry="8.3333" style="stroke:#1B1B1A;stroke-width:1.0416666666666667;" width="93.75" x="307.8125" y="53.7028"/><rect fill="#1B1B1A" height="8.3333" style="stroke:#1B1B1A;stroke-width:1.0416666666666667;" width="93.75" x="307.8125" y="76.7578"/><rect fill="none" height="48.055" id="Behavior" rx="8.3333" ry="8.3333" style="stroke:#5E5E5E;stroke-width:1.0416666666666667;" width="93.75" x="307.8125" y="53.7028"/><ellipse cx="322.3958" cy="69.397" fill="#0066CF" rx="10.4167" ry="10.4167" style="stroke:#0086EF;stroke-width:1.0416666666666667;"/><path d="M324.3062,73.822 Q323.879,74.0417 323.409,74.1516 Q322.939,74.2615 322.4202,74.2615 Q320.577,74.2615 319.6065,73.0469 Q318.6361,71.8323 318.6361,69.5374 Q318.6361,67.2363 319.6065,66.0217 Q320.577,64.8071 322.4202,64.8071 Q322.939,64.8071 323.4151,64.917 Q323.8912,65.0269 324.3062,65.2466 L324.3062,67.2485 Q323.8424,66.8213 323.406,66.6229 Q322.9696,66.4246 322.5057,66.4246 Q321.5169,66.4246 321.0134,67.2089 Q320.5098,67.9932 320.5098,69.5374 Q320.5098,71.0754 321.0134,71.8597 Q321.5169,72.644 322.5057,72.644 Q322.9696,72.644 323.406,72.4457 Q323.8424,72.2473 324.3062,71.8201 Z " fill="#000000"/><text fill="#D8BC00" font-family="Open Sans,Avenir,Nunito,Arial,Helvetica,SansSerif" font-size="12.5" font-weight="bold" lengthAdjust="spacing" textLength="56.25" x="339.0625" y="74.1211">Behavior</text><line style="stroke:#5E5E5E;stroke-width:1.0416666666666667;" x1="308.8542" x2="400.5208" y1="85.0911" y2="85.0911"/><line style="stroke:#5E5E5E;stroke-width:1.0416666666666667;" x1="308.8542" x2="400.5208" y1="93.4245" y2="93.4245"/><!--MD5=[4bc4c0ab703dcb2876fbc6a338e2e770]
class VelocityContributor--><rect codeLine="14" fill="#282828" height="194.6025" id="VelocityContributor" rx="8.3333" ry="8.3333" style="stroke:#5E5E5E;stroke-width:1.0416666666666667;" width="419.7917" x="144.7917" y="164.1195"/><rect fill="#1B1B1A" height="31.3883" rx="8.3333" ry="8.3333" style="stroke:#1B1B1A;stroke-width:1.0416666666666667;" width="419.7917" x="144.7917" y="164.1195"/><rect fill="#1B1B1A" height="8.3333" style="stroke:#1B1B1A;stroke-width:1.0416666666666667;" width="419.7917" x="144.7917" y="187.1745"/><rect codeLine="14" fill="none" height="194.6025" id="VelocityContributor" rx="8.3333" ry="8.3333" style="stroke:#5E5E5E;stroke-width:1.0416666666666667;" width="419.7917" x="144.7917" y="164.1195"/><ellipse cx="283.8542" cy="179.8136" fill="#0066CF" rx="10.4167" ry="10.4167" style="stroke:#0086EF;stroke-width:1.0416666666666667;"/><path d="M285.7646,184.2387 Q285.3373,184.4584 284.8674,184.5683 Q284.3974,184.6781 283.8786,184.6781 Q282.0353,184.6781 281.0649,183.4635 Q280.0944,182.2489 280.0944,179.954 Q280.0944,177.653 281.0649,176.4384 Q282.0353,175.2238 283.8786,175.2238 Q284.3974,175.2238 284.8735,175.3337 Q285.3495,175.4435 285.7646,175.6632 L285.7646,177.6652 Q285.3007,177.238 284.8643,177.0396 Q284.4279,176.8412 283.964,176.8412 Q282.9753,176.8412 282.4717,177.6255 Q281.9682,178.4098 281.9682,179.954 Q281.9682,181.4921 282.4717,182.2764 Q282.9753,183.0607 283.964,183.0607 Q284.4279,183.0607 284.8643,182.8623 Q285.3007,182.664 285.7646,182.2367 Z " fill="#000000"/><text fill="#D8BC00" font-family="Open Sans,Avenir,Nunito,Arial,Helvetica,SansSerif" font-size="12.5" font-weight="bold" lengthAdjust="spacing" textLength="127.0833" x="306.7708" y="184.5378">VelocityContributor</text><line style="stroke:#5E5E5E;stroke-width:1.5625;" x1="145.8333" x2="563.5417" y1="195.5078" y2="195.5078"/><ellipse cx="156.25" cy="230.8777" fill="#84BE84" rx="3.125" ry="3.125" style="stroke:#038048;stroke-width:1.0416666666666667;"/><text fill="#D8BC00" font-family="Open Sans,Avenir,Nunito,Arial,Helvetica,SansSerif" font-size="11.4583" lengthAdjust="spacing" textLength="387.5" x="167.7083" y="237.7889">VelocityContributor(String, IModel&lt;? extends Map&lt;String, Object&gt;&gt;)</text><line style="stroke:#5E5E5E;stroke-width:1.0416666666666667;" x1="145.8333" x2="310.9375" y1="213.7136" y2="213.7136"/><text fill="#D8BC00" font-family="Open Sans,Avenir,Nunito,Arial,Helvetica,SansSerif" font-size="11.4583" lengthAdjust="spacing" textLength="81.25" x="314.0625" y="217.5232">(constructors)</text><line style="stroke:#5E5E5E;stroke-width:1.0416666666666667;" x1="398.4375" x2="563.5417" y1="213.7136" y2="213.7136"/><line style="stroke:#5E5E5E;stroke-width:1.0416666666666667;" x1="145.8333" x2="563.5417" y1="247.4976" y2="247.4976"/><ellipse cx="156.25" cy="258.9559" fill="#84BE84" rx="3.125" ry="3.125" style="stroke:#038048;stroke-width:1.0416666666666667;"/><text fill="#D8BC00" font-family="Open Sans,Avenir,Nunito,Arial,Helvetica,SansSerif" font-size="11.4583" lengthAdjust="spacing" textLength="114.5833" x="167.7083" y="265.8671">String getEncoding()</text><ellipse cx="156.25" cy="278.7008" fill="#84BE84" rx="3.125" ry="3.125" style="stroke:#038048;stroke-width:1.0416666666666667;"/><text fill="#D8BC00" font-family="Open Sans,Avenir,Nunito,Arial,Helvetica,SansSerif" font-size="11.4583" lengthAdjust="spacing" textLength="192.7083" x="167.7083" y="285.612">void setEncoding(String encoding)</text><polygon fill="#FFFF44" points="156.25,293.2373,160.4167,297.404,156.25,301.5706,152.0833,297.404" style="stroke:#B38D22;stroke-width:1.0416666666666667;"/><text fill="#D8BC00" font-family="Open Sans,Avenir,Nunito,Arial,Helvetica,SansSerif" font-size="11.4583" lengthAdjust="spacing" textLength="120.8333" x="167.7083" y="305.3569">boolean escapeHtml()</text><polygon fill="#FFFF44" points="156.25,336.8937,160.4167,341.0604,156.25,345.2271,152.0833,341.0604" style="stroke:#B38D22;stroke-width:1.0416666666666667;"/><text fill="#D8BC00" font-family="Open Sans,Avenir,Nunito,Arial,Helvetica,SansSerif" font-size="11.4583" lengthAdjust="spacing" textLength="137.5" x="167.7083" y="349.0133">CharSequence evaluate()</text><line style="stroke:#5E5E5E;stroke-width:1.0416666666666667;" x1="145.8333" x2="322.9167" y1="324.9379" y2="324.9379"/><text fill="#D8BC00" font-family="Open Sans,Avenir,Nunito,Arial,Helvetica,SansSerif" font-size="11.4583" lengthAdjust="spacing" textLength="57.2917" x="326.0417" y="328.7476">(primitive)</text><line style="stroke:#5E5E5E;stroke-width:1.0416666666666667;" x1="386.4583" x2="563.5417" y1="324.9379" y2="324.9379"/><!--MD5=[8619986b9ea4698ffca2ad88a30564eb]
class VelocityJavaScriptContributor--><rect codeLine="27" fill="#282828" height="103.123" id="VelocityJavaScriptContributor" rx="8.3333" ry="8.3333" style="stroke:#5E5E5E;stroke-width:1.0416666666666667;" width="573.9583" x="67.7083" y="421.4111"/><rect fill="#1B1B1A" height="31.3883" rx="8.3333" ry="8.3333" style="stroke:#1B1B1A;stroke-width:1.0416666666666667;" width="573.9583" x="67.7083" y="421.4111"/><rect fill="#1B1B1A" height="8.3333" style="stroke:#1B1B1A;stroke-width:1.0416666666666667;" width="573.9583" x="67.7083" y="444.4661"/><rect codeLine="27" fill="none" height="103.123" id="VelocityJavaScriptContributor" rx="8.3333" ry="8.3333" style="stroke:#5E5E5E;stroke-width:1.0416666666666667;" width="573.9583" x="67.7083" y="421.4111"/><ellipse cx="252.0833" cy="437.1053" fill="#0066CF" rx="10.4167" ry="10.4167" style="stroke:#0086EF;stroke-width:1.0416666666666667;"/><path d="M253.9937,441.5304 Q253.5665,441.7501 253.0965,441.8599 Q252.6265,441.9698 252.1077,441.9698 Q250.2645,441.9698 249.294,440.7552 Q248.3236,439.5406 248.3236,437.2457 Q248.3236,434.9447 249.294,433.7301 Q250.2645,432.5155 252.1077,432.5155 Q252.6265,432.5155 253.1026,432.6253 Q253.5787,432.7352 253.9937,432.9549 L253.9937,434.9569 Q253.5299,434.5296 253.0935,434.3313 Q252.6571,434.1329 252.1932,434.1329 Q251.2044,434.1329 250.7009,434.9172 Q250.1973,435.7015 250.1973,437.2457 Q250.1973,438.7838 250.7009,439.5681 Q251.2044,440.3524 252.1932,440.3524 Q252.6571,440.3524 253.0935,440.154 Q253.5299,439.9556 253.9937,439.5284 Z " fill="#000000"/><text fill="#D8BC00" font-family="Open Sans,Avenir,Nunito,Arial,Helvetica,SansSerif" font-size="12.5" font-weight="bold" lengthAdjust="spacing" textLength="190.625" x="275" y="441.8294">VelocityJavaScriptContributor</text><line style="stroke:#5E5E5E;stroke-width:1.5625;" x1="68.75" x2="640.625" y1="452.7995" y2="452.7995"/><ellipse cx="79.1667" cy="488.1694" fill="#84BE84" rx="3.125" ry="3.125" style="stroke:#038048;stroke-width:1.0416666666666667;"/><text fill="#D8BC00" font-family="Open Sans,Avenir,Nunito,Arial,Helvetica,SansSerif" font-size="11.4583" lengthAdjust="spacing" textLength="541.6667" x="90.625" y="495.0806">VelocityJavaScriptContributor(Class&lt;?&gt;, String, IModel&lt;? extends Map&lt;String, Object&gt;&gt;, String)</text><ellipse cx="79.1667" cy="507.9142" fill="#84BE84" rx="3.125" ry="3.125" style="stroke:#038048;stroke-width:1.0416666666666667;"/><text fill="#D8BC00" font-family="Open Sans,Avenir,Nunito,Arial,Helvetica,SansSerif" font-size="11.4583" lengthAdjust="spacing" textLength="481.25" x="90.625" y="514.8254">VelocityJavaScriptContributor(String, IModel&lt;? extends Map&lt;String, Object&gt;&gt;, String)</text><line style="stroke:#5E5E5E;stroke-width:1.0416666666666667;" x1="68.75" x2="310.9375" y1="471.0052" y2="471.0052"/><text fill="#D8BC00" font-family="Open Sans,Avenir,Nunito,Arial,Helvetica,SansSerif" font-size="11.4583" lengthAdjust="spacing" textLength="81.25" x="314.0625" y="474.8149">(constructors)</text><line style="stroke:#5E5E5E;stroke-width:1.0416666666666667;" x1="398.4375" x2="640.625" y1="471.0052" y2="471.0052"/><!--MD5=[709d60385a2687307cd9a1e7772e2640]
reverse link IInitializer to Initializer--><path codeLine="8" d="M58.8542,122.6507 C58.8542,158.7861 58.8542,208.5674 58.8542,237.3486 " fill="none" id="IInitializer-backto-Initializer" style="stroke:#545454;stroke-width:1.5625;"/><polygon fill="none" points="51.5625,122.557,58.8542,101.7236,66.1458,122.557,51.5625,122.557" style="stroke:#545454;stroke-width:1.5625;"/><!--MD5=[7c82522b3fc98fe5c64d397f602d0ffe]
reverse link Behavior to VelocityContributor--><path codeLine="13" d="M354.6875,122.8382 C354.6875,135.3799 354.6875,149.5674 354.6875,163.932 " fill="none" id="Behavior-backto-VelocityContributor" style="stroke:#545454;stroke-width:1.5625;"/><polygon fill="none" points="347.3958,122.557,354.6875,101.7236,361.9792,122.557,347.3958,122.557" style="stroke:#545454;stroke-width:1.5625;"/><!--MD5=[92b38f9b1d436de121b7f04d3f985507]
reverse link VelocityContributor to VelocityJavaScriptContributor--><path codeLine="26" d="M354.6875,380.2236 C354.6875,394.6611 354.6875,408.7653 354.6875,421.4111 " fill="none" id="VelocityContributor-backto-VelocityJavaScriptContributor" style="stroke:#545454;stroke-width:1.5625;"/><polygon fill="none" points="347.3958,379.807,354.6875,358.9736,361.9792,379.807,347.3958,379.807" style="stroke:#545454;stroke-width:1.5625;"/><!--MD5=[fc1b89e1458f58027c5d09b575a60fd2]
@startuml

    !include lexakai.theme
    
    title "org.apache.wicket.velocity"
    
    interface IInitializer
    
    IInitializer <|- - Initializer
    class Initializer
    {
    }
    
    Behavior <|- - VelocityContributor
    class VelocityContributor
    {
        - -(constructors)- -
        +VelocityContributor(String, IModel<? extends Map<String, Object>>)
        - -
        +String getEncoding()
        +void setEncoding(String encoding)
        #boolean escapeHtml()
        - -(primitive)- -
        #CharSequence evaluate()
    }
    
    VelocityContributor <|- - VelocityJavaScriptContributor
    class VelocityJavaScriptContributor
    {
        - -(constructors)- -
        +VelocityJavaScriptContributor(Class<?>, String, IModel<? extends Map<String, Object>>, String)
        +VelocityJavaScriptContributor(String, IModel<? extends Map<String, Object>>, String)
    }
    
@enduml

@startuml









skinparam backgroundColor #333333






skinparam  {
    defaultFontName   "Open Sans,Avenir,Nunito,Arial,Helvetica,SansSerif"
    defaultFontSize   12
    defaultTextAlignment left
    shadowing false
    RoundCorner 10
    TitleFontSize 18
}

skinparam defaultFontName       "Open Sans,Avenir,Nunito,Arial,Helvetica,SansSerif"
skinparam defaultFontSize       12
skinparam dpi                   100
skinparam shadowing             false
skinparam roundcorner           16
skinparam ParticipantPadding    40
skinparam BoxPadding            40
skinparam Padding               3
skinparam ArrowColor            #545454
skinparam stereotype {
    CBackgroundColor #0066cf
    CBorderColor #0086ef
    ABackgroundColor #C8Ac00
    ABorderColor #D8Bc00
    IBackgroundColor #008400
    IBorderColor #239c23
    EBackgroundColor #cf6300
    EBorderColor #ef8300
    NBackgroundColor #3380b9
    NBorderColor #004d86
}
skinparam title {
	FontColor	                 #c0c0c0
 	BorderColor                  #545454
	FontSize	    	         20
	BorderRoundCorner            16
	BorderThickness 	         1
	BackgroundColor              #48494b
}


skinparam legend {
	BackgroundColor #303030
	BorderColor #404040
	FontColor #a0a0a0
}

	skinparam swimlane {
	BorderColor #5e5e5e
	BorderThickness 2
	TitleBackgroundColor  #6d6d6d-#484848
	TitleFontColor #303030
}

skinparam activity {
		FontColor #C8Ac00
	BorderColor #333333
	BackgroundColor #333333-#333333
	BarColor #00FF00
	StartColor #0060a8
	EndColor #0060a8
	DiamondBackgroundColor #6d6d6d-#3a3a3a
  	DiamondBorderColor #3a3a3a
  	DiamondFontColor #fefefe
}


skinparam participant {
		FontColor #C8Ac00
	BorderColor #333333
	BackgroundColor #333333-#333333
	ParticipantBorderThickness 2
}


skinparam actor {
		FontColor #C8Ac00
	BorderColor #333333
	BackgroundColor #333333-#333333
}


skinparam arrow {
	Thickness 1.5
	Color #545454
	FontColor #a0a0a0
    FontStyle bold
    MessageAlignment center
}



skinparam sequence {
	BorderColor #303030
	TitleFontColor #303030
	BackgroundColor #333333
	StartColor #303030
	EndColor #303030
	BoxBackgroundColor #333333
	BoxBorderColor #484848
	BoxFontColor #484848
	LifeLineBorderColor #484848
	LifeLineBorderThickness 2
	LifeLineBackgroundColor #3a3a3a
	GroupBorderColor #484848
	GroupFontColor #484848
	GroupHeaderFontColor #0060a8
	GroupBackgroundColor #484848
	GroupHeaderBackgroundColor #333333
	DividerBackgroundColor #484848
    DividerBorderColor #484848
    DividerBorderThickness 2
    DividerFontColor #D8Bc00
	ReferenceBackgroundColor #333333
	ReferenceBorderColor #484848
	ReferenceFontColor #fefefe
	ReferenceHeaderBackgroundColor #484848
}


skinparam partition {
	BorderColor #303030
	FontColor #333333
	BackgroundColor #333333
}


skinparam collections {
		FontColor #C8Ac00
	BorderColor #333333
	BackgroundColor #333333-#333333
}


skinparam control {
		FontColor #C8Ac00
	BorderColor #333333
	BackgroundColor #333333-#333333
}


skinparam entity {
		FontColor #C8Ac00
	BorderColor #333333
	BackgroundColor #333333-#333333
}


skinparam boundary {
		FontColor #C8Ac00
	BorderColor #333333
	BackgroundColor #333333-#333333
}


skinparam agent {
	BackgroundColor #ff8000
	BorderColor #ff9933
	FontColor #484848
}


skinparam note {
	BorderThickness 1
	BackgroundColor #1b1b1a
	BorderColor #5e5e5e
	FontSize 11
	FontColor #a0a0a0
}


skinparam artifact {
	BorderThickness 10
	BorderColor #5e5e5e
	BackgroundColor #1b1b1a
	FontColor #D8Bc00
}


skinparam component {
		FontColor #C8Ac00
	BorderColor #333333
	BackgroundColor #333333-#333333
}


skinparam interface {
	BackgroundColor  #008400
	BorderColor  #007F00
	FontColor #484848
}


skinparam storage {
	BackgroundColor #ff8000
  	BorderColor #cc6600
	FontColor #222222
}


skinparam node {
	BackgroundColor #333333
	BorderColor #333333
	FontColor #C8Ac00
}


skinparam cloud {
	BackgroundColor #484848-black
	BorderColor #484848
	FontColor #D8Bc00
}


skinparam database {
		FontColor #C8Ac00
	BorderColor #333333
	BackgroundColor #333333-#333333
	BackgroundColor  #333333
}


skinparam class {
		FontColor #C8Ac00
	BorderColor #333333
	BackgroundColor #333333-#333333
	HeaderBackgroundColor #1b1b1a
    BackgroundColor #282828
    BorderColor #5e5e5e
 	StereotypeFontColor #a0a0a0
    StereotypeFontStyle bold
	BorderThickness 1
	AttributeFontColor #D8Bc00
	AttributeFontSize 11
    FontColor #D8Bc00
    FontStyle bold
}


skinparam object {
		FontColor #C8Ac00
	BorderColor #333333
	BackgroundColor #333333-#333333
	StereotypeFontColor #484848
	BorderThickness 1
	AttributeFontColor #fefefe
	AttributeFontSize 11
}


skinparam usecase {
		FontColor #C8Ac00
	BorderColor #333333
	BackgroundColor #333333-#333333
	BorderThickness 2
	StereotypeFontColor #303030
}


skinparam rectangle {
		FontColor #C8Ac00
	BorderColor #333333
	BackgroundColor #333333-#333333
	BackgroundColor #333333
	BorderThickness 2
	StereotypeFontColor #303030
}


skinparam package {
		FontColor #C8Ac00
	BorderColor #333333
	BackgroundColor #333333-#333333
	BackgroundColor #333333
	BorderThickness 2
}


skinparam folder {
	BackgroundColor #6d6d6d
  	BorderColor #ff8000
	FontColor #ff8000
	BorderThickness 2
}


skinparam frame {
	BackgroundColor #6d6d6d
  	BorderColor #0060a8
	FontColor #0060a8
	BorderThickness 2
}


skinparam state {
		FontColor #C8Ac00
	BorderColor #333333
	BackgroundColor #333333-#333333
	StartColor #0060a8
	EndColor #0060a8
	AttributeFontColor #fefefe
	AttributeFontSize 11
}


skinparam queue {
		FontColor #C8Ac00
	BorderColor #333333
	BackgroundColor #333333-#333333
}


skinparam card {
	BackgroundColor #0060a8
	BorderColor #004d86
	FontColor $INFO_TEXT
}


skinparam file {
	BackgroundColor #6d6d6d-#484848
	BorderColor #0060a8
	FontColor #fefefe
}


skinparam stack {
		FontColor #C8Ac00
	BorderColor #333333
	BackgroundColor #333333-#333333
}

    
    title "org.apache.wicket.velocity"
    
    interface IInitializer
    
    IInitializer <|- - Initializer
    class Initializer
    {
    }
    
    Behavior <|- - VelocityContributor
    class VelocityContributor
    {
        - -(constructors)- -
        +VelocityContributor(String, IModel<? extends Map<String, Object>>)
        - -
        +String getEncoding()
        +void setEncoding(String encoding)
        #boolean escapeHtml()
        - -(primitive)- -
        #CharSequence evaluate()
    }
    
    VelocityContributor <|- - VelocityJavaScriptContributor
    class VelocityJavaScriptContributor
    {
        - -(constructors)- -
        +VelocityJavaScriptContributor(Class<?>, String, IModel<? extends Map<String, Object>>, String)
        +VelocityJavaScriptContributor(String, IModel<? extends Map<String, Object>>, String)
    }
    
@enduml

PlantUML version 1.2021.01(Tue Feb 02 00:55:08 MST 2021)
(GPL source distribution)
Java Runtime: Java(TM) SE Runtime Environment
JVM: Java HotSpot(TM) 64-Bit Server VM
Default Encoding: UTF-8
Language: en
Country: US
--></g></svg>