<?xml version="1.0" encoding="utf-8"?>
<svg style="fill-rule:evenodd;text-rendering:geometricPrecision;image-rendering:optimizeQuality;clip-rule:evenodd;shape-rendering:geometricPrecision" viewBox="0 0 40 40" xmlns="http://www.w3.org/2000/svg">
  <defs>
    <style type="text/css">
    .str0 {stroke:#4D4948;stroke-width:0.221746}
    .str1 {stroke:#00923F;stroke-width:0.887173}
    .str2 {stroke:#E77817;stroke-width:0.887173;stroke-linecap:round}
    .fil2 {fill:none}
    .fil0 {fill:#4D4948}
    .fil1 {fill:#B6DDC7}
  </style>
  </defs>
  <g transform="matrix(0.953649, 0, 0, 0.953649, -0.14247, 2.342077)" style="">
    <path id="_89802448" d="M 5.712 22.099 L 14.6 22.099 C 16.233 22.099 17.564 23.43 17.564 25.062 L 17.564 33.951 C 17.564 35.584 16.233 36.914 14.6 36.914 L 5.712 36.914 C 4.08 36.914 2.749 35.583 2.749 33.951 L 2.749 25.062 C 2.749 23.43 4.08 22.099 5.712 22.099 Z" class="fil0 str0" style="fill: rgb(45, 100, 167);"/>
    <path id="_90022912" d="M 7.193 25.062 L 13.119 25.062 C 13.936 25.062 14.6 25.728 14.6 26.543 L 14.6 32.47 C 14.6 33.286 13.936 33.951 13.119 33.951 L 7.193 33.951 C 6.378 33.951 5.712 33.286 5.712 32.47 L 5.712 26.543 C 5.712 25.728 6.378 25.062 7.193 25.062 Z" class="fil1 str1" style="stroke: rgb(216, 188, 0); fill: rgb(66, 148, 247); stroke-width: 2px;"/>
    <line id="_88736048" y2="30.988" class="fil2 str2" x2="1.267" y1="30.988" x1="2.749" style="stroke: rgb(216, 188, 0); stroke-width: 2px;"/>
    <line id="_88143736" y2="28.026" class="fil2 str2" x2="1.267" y1="28.026" x1="2.749" style="stroke: rgb(216, 188, 0); stroke-width: 2px;"/>
    <line id="_48937520" y2="25.061" class="fil2 str2" x2="1.267" y1="25.061" x1="2.749" style="stroke: rgb(216, 188, 0); stroke-width: 2px;"/>
    <line id="_89602488" y2="33.951" class="fil2 str2" x2="1.267" y1="33.951" x1="2.749" style="stroke: rgb(216, 188, 0); stroke-width: 2px;"/>
    <line id="_89543800" y2="30.988" class="fil2 str2" x2="17.564" y1="30.988" x1="19.046" style="stroke: rgb(216, 188, 0); stroke-width: 2px;"/>
    <line id="_89561224" y2="28.026" class="fil2 str2" x2="17.564" y1="28.026" x1="19.046" style="stroke: rgb(216, 188, 0); stroke-width: 2px;"/>
    <line id="_89246736" y2="25.061" class="fil2 str2" x2="17.564" y1="25.061" x1="19.046" style="stroke: rgb(216, 188, 0); stroke-width: 2px;"/>
    <line id="_88756544" y2="33.951" class="fil2 str2" x2="17.564" y1="33.951" x1="19.046" style="stroke: rgb(216, 188, 0); stroke-width: 2px;"/>
    <line id="_48963016" y2="36.914" class="fil2 str2" x2="8.676" y1="38.396" x1="8.676" style="stroke: rgb(216, 188, 0); stroke-width: 2px;"/>
    <line id="_48844704" y2="36.914" class="fil2 str2" x2="11.638" y1="38.396" x1="11.638" style="stroke: rgb(216, 188, 0); stroke-width: 2px;"/>
    <line id="_90153440" y2="36.914" class="fil2 str2" x2="14.602" y1="38.396" x1="14.602" style="stroke: rgb(216, 188, 0); stroke-width: 2px;"/>
    <line id="_89263648" y2="36.914" class="fil2 str2" x2="5.712" y1="38.396" x1="5.712" style="stroke: rgb(216, 188, 0); stroke-width: 2px;"/>
    <line id="_89109736" y2="20.618" class="fil2 str2" x2="8.675" y1="22.099" x1="8.675" style="stroke: rgb(216, 188, 0); stroke-width: 2px;"/>
    <line id="_89134072" y2="20.618" class="fil2 str2" x2="11.637" y1="22.099" x1="11.637" style="stroke: rgb(216, 188, 0); stroke-width: 2px;"/>
    <line id="_49016112" y2="20.618" class="fil2 str2" x2="14.602" y1="22.099" x1="14.602" style="stroke: rgb(216, 188, 0); stroke-width: 2px;"/>
    <line id="_89046112" y2="20.618" class="fil2 str2" x2="5.712" y1="22.099" x1="5.712" style="stroke: rgb(216, 188, 0); stroke-width: 2px;"/>
  </g>
  <g transform="matrix(0.953649, 0, 0, 0.953649, 20.837177, 2.377784)" style="">
    <path id="path-1" d="M 5.712 22.099 L 14.6 22.099 C 16.233 22.099 17.564 23.43 17.564 25.062 L 17.564 33.951 C 17.564 35.584 16.233 36.914 14.6 36.914 L 5.712 36.914 C 4.08 36.914 2.749 35.583 2.749 33.951 L 2.749 25.062 C 2.749 23.43 4.08 22.099 5.712 22.099 Z" class="fil0 str0" style="fill: rgb(45, 100, 167);"/>
    <path id="path-2" d="M 7.193 25.062 L 13.119 25.062 C 13.936 25.062 14.6 25.728 14.6 26.543 L 14.6 32.47 C 14.6 33.286 13.936 33.951 13.119 33.951 L 7.193 33.951 C 6.378 33.951 5.712 33.286 5.712 32.47 L 5.712 26.543 C 5.712 25.728 6.378 25.062 7.193 25.062 Z" class="fil1 str1" style="stroke: rgb(216, 188, 0); fill: rgb(66, 148, 247); stroke-width: 2px;"/>
    <line id="line-1" y2="30.988" class="fil2 str2" x2="1.267" y1="30.988" x1="2.749" style="stroke: rgb(216, 188, 0); stroke-width: 2px;"/>
    <line id="line-2" y2="28.026" class="fil2 str2" x2="1.267" y1="28.026" x1="2.749" style="stroke: rgb(216, 188, 0); stroke-width: 2px;"/>
    <line id="line-3" y2="25.061" class="fil2 str2" x2="1.267" y1="25.061" x1="2.749" style="stroke: rgb(216, 188, 0); stroke-width: 2px;"/>
    <line id="line-4" y2="33.951" class="fil2 str2" x2="1.267" y1="33.951" x1="2.749" style="stroke: rgb(216, 188, 0); stroke-width: 2px;"/>
    <line id="line-5" y2="30.988" class="fil2 str2" x2="17.564" y1="30.988" x1="19.046" style="stroke: rgb(216, 188, 0); stroke-width: 2px;"/>
    <line id="line-6" y2="28.026" class="fil2 str2" x2="17.564" y1="28.026" x1="19.046" style="stroke: rgb(216, 188, 0); stroke-width: 2px;"/>
    <line id="line-7" y2="25.061" class="fil2 str2" x2="17.564" y1="25.061" x1="19.046" style="stroke: rgb(216, 188, 0); stroke-width: 2px;"/>
    <line id="line-8" y2="33.951" class="fil2 str2" x2="17.564" y1="33.951" x1="19.046" style="stroke: rgb(216, 188, 0); stroke-width: 2px;"/>
    <line id="line-9" y2="36.914" class="fil2 str2" x2="8.676" y1="38.396" x1="8.676" style="stroke: rgb(216, 188, 0); stroke-width: 2px;"/>
    <line id="line-10" y2="36.914" class="fil2 str2" x2="11.638" y1="38.396" x1="11.638" style="stroke: rgb(216, 188, 0); stroke-width: 2px;"/>
    <line id="line-11" y2="36.914" class="fil2 str2" x2="14.602" y1="38.396" x1="14.602" style="stroke: rgb(216, 188, 0); stroke-width: 2px;"/>
    <line id="line-12" y2="36.914" class="fil2 str2" x2="5.712" y1="38.396" x1="5.712" style="stroke: rgb(216, 188, 0); stroke-width: 2px;"/>
    <line id="line-13" y2="20.618" class="fil2 str2" x2="8.675" y1="22.099" x1="8.675" style="stroke: rgb(216, 188, 0); stroke-width: 2px;"/>
    <line id="line-14" y2="20.618" class="fil2 str2" x2="11.637" y1="22.099" x1="11.637" style="stroke: rgb(216, 188, 0); stroke-width: 2px;"/>
    <line id="line-15" y2="20.618" class="fil2 str2" x2="14.602" y1="22.099" x1="14.602" style="stroke: rgb(216, 188, 0); stroke-width: 2px;"/>
    <line id="line-16" y2="20.618" class="fil2 str2" x2="5.712" y1="22.099" x1="5.712" style="stroke: rgb(216, 188, 0); stroke-width: 2px;"/>
  </g>
  <g transform="matrix(0.953649, 0, 0, 0.953649, -0.171233, -18.665924)" style="">
    <path id="path-3" d="M 5.712 22.099 L 14.6 22.099 C 16.233 22.099 17.564 23.43 17.564 25.062 L 17.564 33.951 C 17.564 35.584 16.233 36.914 14.6 36.914 L 5.712 36.914 C 4.08 36.914 2.749 35.583 2.749 33.951 L 2.749 25.062 C 2.749 23.43 4.08 22.099 5.712 22.099 Z" class="fil0 str0" style="fill: rgb(45, 100, 167);"/>
    <path id="path-4" d="M 7.193 25.062 L 13.119 25.062 C 13.936 25.062 14.6 25.728 14.6 26.543 L 14.6 32.47 C 14.6 33.286 13.936 33.951 13.119 33.951 L 7.193 33.951 C 6.378 33.951 5.712 33.286 5.712 32.47 L 5.712 26.543 C 5.712 25.728 6.378 25.062 7.193 25.062 Z" class="fil1 str1" style="stroke: rgb(216, 188, 0); fill: rgb(66, 148, 247); stroke-width: 2px;"/>
    <line id="line-17" y2="30.988" class="fil2 str2" x2="1.267" y1="30.988" x1="2.749" style="stroke: rgb(216, 188, 0); stroke-width: 2px;"/>
    <line id="line-18" y2="28.026" class="fil2 str2" x2="1.267" y1="28.026" x1="2.749" style="stroke: rgb(216, 188, 0); stroke-width: 2px;"/>
    <line id="line-19" y2="25.061" class="fil2 str2" x2="1.267" y1="25.061" x1="2.749" style="stroke: rgb(216, 188, 0); stroke-width: 2px;"/>
    <line id="line-20" y2="33.951" class="fil2 str2" x2="1.267" y1="33.951" x1="2.749" style="stroke: rgb(216, 188, 0); stroke-width: 2px;"/>
    <line id="line-21" y2="30.988" class="fil2 str2" x2="17.564" y1="30.988" x1="19.046" style="stroke: rgb(216, 188, 0); stroke-width: 2px;"/>
    <line id="line-22" y2="28.026" class="fil2 str2" x2="17.564" y1="28.026" x1="19.046" style="stroke: rgb(216, 188, 0); stroke-width: 2px;"/>
    <line id="line-23" y2="25.061" class="fil2 str2" x2="17.564" y1="25.061" x1="19.046" style="stroke: rgb(216, 188, 0); stroke-width: 2px;"/>
    <line id="line-24" y2="33.951" class="fil2 str2" x2="17.564" y1="33.951" x1="19.046" style="stroke: rgb(216, 188, 0); stroke-width: 2px;"/>
    <line id="line-25" y2="36.914" class="fil2 str2" x2="8.676" y1="38.396" x1="8.676" style="stroke: rgb(216, 188, 0); stroke-width: 2px;"/>
    <line id="line-26" y2="36.914" class="fil2 str2" x2="11.638" y1="38.396" x1="11.638" style="stroke: rgb(216, 188, 0); stroke-width: 2px;"/>
    <line id="line-27" y2="36.914" class="fil2 str2" x2="14.602" y1="38.396" x1="14.602" style="stroke: rgb(216, 188, 0); stroke-width: 2px;"/>
    <line id="line-28" y2="36.914" class="fil2 str2" x2="5.712" y1="38.396" x1="5.712" style="stroke: rgb(216, 188, 0); stroke-width: 2px;"/>
    <line id="line-29" y2="20.618" class="fil2 str2" x2="8.675" y1="22.099" x1="8.675" style="stroke: rgb(216, 188, 0); stroke-width: 2px;"/>
    <line id="line-30" y2="20.618" class="fil2 str2" x2="11.637" y1="22.099" x1="11.637" style="stroke: rgb(216, 188, 0); stroke-width: 2px;"/>
    <line id="line-31" y2="20.618" class="fil2 str2" x2="14.602" y1="22.099" x1="14.602" style="stroke: rgb(216, 188, 0); stroke-width: 2px;"/>
    <line id="line-32" y2="20.618" class="fil2 str2" x2="5.712" y1="22.099" x1="5.712" style="stroke: rgb(216, 188, 0); stroke-width: 2px;"/>
  </g>
  <g transform="matrix(0.953649, 0, 0, 0.953649, 20.808414, -18.630217)" style="">
    <path id="path-5" d="M 5.712 22.099 L 14.6 22.099 C 16.233 22.099 17.564 23.43 17.564 25.062 L 17.564 33.951 C 17.564 35.584 16.233 36.914 14.6 36.914 L 5.712 36.914 C 4.08 36.914 2.749 35.583 2.749 33.951 L 2.749 25.062 C 2.749 23.43 4.08 22.099 5.712 22.099 Z" class="fil0 str0" style="fill: rgb(45, 100, 167);"/>
    <path id="path-6" d="M 7.193 25.062 L 13.119 25.062 C 13.936 25.062 14.6 25.728 14.6 26.543 L 14.6 32.47 C 14.6 33.286 13.936 33.951 13.119 33.951 L 7.193 33.951 C 6.378 33.951 5.712 33.286 5.712 32.47 L 5.712 26.543 C 5.712 25.728 6.378 25.062 7.193 25.062 Z" class="fil1 str1" style="stroke: rgb(216, 188, 0); fill: rgb(66, 148, 247); stroke-width: 2px;"/>
    <line id="line-33" y2="30.988" class="fil2 str2" x2="1.267" y1="30.988" x1="2.749" style="stroke: rgb(216, 188, 0); stroke-width: 2px;"/>
    <line id="line-34" y2="28.026" class="fil2 str2" x2="1.267" y1="28.026" x1="2.749" style="stroke: rgb(216, 188, 0); stroke-width: 2px;"/>
    <line id="line-35" y2="25.061" class="fil2 str2" x2="1.267" y1="25.061" x1="2.749" style="stroke: rgb(216, 188, 0); stroke-width: 2px;"/>
    <line id="line-36" y2="33.951" class="fil2 str2" x2="1.267" y1="33.951" x1="2.749" style="stroke: rgb(216, 188, 0); stroke-width: 2px;"/>
    <line id="line-37" y2="30.988" class="fil2 str2" x2="17.564" y1="30.988" x1="19.046" style="stroke: rgb(216, 188, 0); stroke-width: 2px;"/>
    <line id="line-38" y2="28.026" class="fil2 str2" x2="17.564" y1="28.026" x1="19.046" style="stroke: rgb(216, 188, 0); stroke-width: 2px;"/>
    <line id="line-39" y2="25.061" class="fil2 str2" x2="17.564" y1="25.061" x1="19.046" style="stroke: rgb(216, 188, 0); stroke-width: 2px;"/>
    <line id="line-40" y2="33.951" class="fil2 str2" x2="17.564" y1="33.951" x1="19.046" style="stroke: rgb(216, 188, 0); stroke-width: 2px;"/>
    <line id="line-41" y2="36.914" class="fil2 str2" x2="8.676" y1="38.396" x1="8.676" style="stroke: rgb(216, 188, 0); stroke-width: 2px;"/>
    <line id="line-42" y2="36.914" class="fil2 str2" x2="11.638" y1="38.396" x1="11.638" style="stroke: rgb(216, 188, 0); stroke-width: 2px;"/>
    <line id="line-43" y2="36.914" class="fil2 str2" x2="14.602" y1="38.396" x1="14.602" style="stroke: rgb(216, 188, 0); stroke-width: 2px;"/>
    <line id="line-44" y2="36.914" class="fil2 str2" x2="5.712" y1="38.396" x1="5.712" style="stroke: rgb(216, 188, 0); stroke-width: 2px;"/>
    <line id="line-45" y2="20.618" class="fil2 str2" x2="8.675" y1="22.099" x1="8.675" style="stroke: rgb(216, 188, 0); stroke-width: 2px;"/>
    <line id="line-46" y2="20.618" class="fil2 str2" x2="11.637" y1="22.099" x1="11.637" style="stroke: rgb(216, 188, 0); stroke-width: 2px;"/>
    <line id="line-47" y2="20.618" class="fil2 str2" x2="14.602" y1="22.099" x1="14.602" style="stroke: rgb(216, 188, 0); stroke-width: 2px;"/>
    <line id="line-48" y2="20.618" class="fil2 str2" x2="5.712" y1="22.099" x1="5.712" style="stroke: rgb(216, 188, 0); stroke-width: 2px;"/>
  </g>
</svg>