<?xml version="1.0" encoding="utf-8"?>
<svg viewBox="0 0 500 500" xmlns="http://www.w3.org/2000/svg">
  <rect x="40.623" y="250.9" width="265.492" height="17.566" style="fill: rgb(66, 148, 247); stroke: rgb(216, 188, 0); stroke-width: 8px;" transform="matrix(-0.492154, -0.870508, 0.870508, -0.492154, 195.947723, 465.726501)"/>
  <rect x="55.177" y="250.9" width="360.602" height="17.566" style="fill: rgb(66, 148, 247); stroke: rgb(216, 188, 0); stroke-width: 8px;" transform="matrix(0.560426, -0.828205, 0.828205, 0.560426, -187.972946, 287.068726)"/>
  <rect x="29.533" y="250.9" width="193.009" height="17.566" style="fill: rgb(66, 148, 247); stroke: rgb(216, 188, 0); stroke-width: 8px;" transform="matrix(0.546422, 0.83751, -0.83751, 0.546422, 431.199097, 123.924408)"/>
  <rect x="29.533" y="250.9" width="193.009" height="17.566" style="fill: rgb(66, 148, 247); stroke: rgb(216, 188, 0); stroke-width: 8px;" transform="matrix(-0.312862, 0.949799, -0.949799, -0.312862, 652.618347, 328.53186)"/>
  <rect x="52.649" y="250.9" width="344.084" height="17.566" style="fill: rgb(66, 148, 247); stroke: rgb(216, 188, 0); stroke-width: 8px;" transform="matrix(-0.893321, -0.449419, 0.449419, -0.893321, 324.7323, 539.015015)"/>
  <rect x="52.133" y="250.9" width="340.706" height="17.566" style="fill: rgb(66, 148, 247); stroke: rgb(216, 188, 0); stroke-width: 8px;" transform="matrix(0.955595, -0.294683, 0.294683, 0.955595, -60.855736, 160.436554)"/>
  <rect x="43.29" y="250.901" width="282.917" height="17.566" style="fill: rgb(66, 148, 247); stroke: rgb(216, 188, 0); stroke-width: 8px;" transform="matrix(0.081676, -0.996659, 0.996659, 0.081676, -207.774261, 415.666718)"/>
  <rect x="29.533" y="250.9" width="193.009" height="17.566" style="fill: rgb(66, 148, 247); stroke: rgb(216, 188, 0); stroke-width: 8px;" transform="matrix(0.727558, -0.686046, 0.686046, 0.727558, -127.002434, 216.013184)"/>
  <circle style="stroke: rgb(216, 188, 0); stroke-width: 16px; fill: rgb(66, 148, 247);" cx="54.45" cy="389.135" r="41.822"/>
  <circle style="stroke: rgb(216, 188, 0); stroke-width: 16px; fill: rgb(66, 148, 247);" cx="388.827" cy="286.829" r="41.822"/>
  <circle style="stroke: rgb(216, 188, 0); stroke-width: 16px; fill: rgb(66, 148, 247);" cx="340.348" cy="446.803" r="41.822"/>
  <circle style="stroke: rgb(216, 188, 0); stroke-width: 16px; fill: rgb(66, 148, 247);" cx="218.962" cy="271.435" r="41.822"/>
  <circle style="stroke: rgb(216, 188, 0); stroke-width: 16px; fill: rgb(66, 148, 247);" cx="75.566" cy="128" r="41.822"/>
  <circle style="stroke: rgb(216, 188, 0); stroke-width: 16px; fill: rgb(66, 148, 247);" cx="268.463" cy="72.796" r="41.822"/>
</svg>