<?xml version="1.0" encoding="utf-8"?>
<svg viewBox="0 0 500 500" xmlns="http://www.w3.org/2000/svg">
  <defs>
    <clipPath id="clippath0" transform="">
      <path d="M 0 551.986 L 530.973 551.986 L 530.973 0 L 0 0 Z" style="fill: none; clip-rule: nonzero;"/>
    </clipPath>
  </defs>
  <g style="clip-path: url(#clippath0);" transform="matrix(4.120269, 0, 0, -4.120269, -1194.602539, 2040.907593)">
    <g transform="translate(350.6088 493.5547)">
      <path d="M 0 0 C -33.347 0 -60.388 -27.035 -60.388 -60.388 C -60.388 -87.068 -43.085 -109.704 -19.091 -117.689 C -16.073 -118.248 -14.965 -116.379 -14.965 -114.784 C -14.965 -113.345 -15.021 -108.587 -15.047 -103.541 C -31.847 -107.194 -35.392 -96.416 -35.392 -96.416 C -38.139 -89.437 -42.097 -87.58 -42.097 -87.58 C -47.576 -83.832 -41.684 -83.909 -41.684 -83.909 C -35.62 -84.335 -32.427 -90.133 -32.427 -90.133 C -27.041 -99.364 -18.3 -96.695 -14.854 -95.152 C -14.311 -91.25 -12.747 -88.585 -11.02 -87.077 C -24.433 -85.551 -38.533 -80.372 -38.533 -57.233 C -38.533 -50.641 -36.174 -45.253 -32.311 -41.024 C -32.938 -39.503 -35.005 -33.361 -31.725 -25.043 C -31.725 -25.043 -26.654 -23.421 -15.115 -31.234 C -10.298 -29.896 -5.132 -29.225 0 -29.201 C 5.132 -29.225 10.302 -29.896 15.128 -31.234 C 26.654 -23.421 31.718 -25.043 31.718 -25.043 C 35.005 -33.361 32.938 -39.503 32.311 -41.024 C 36.183 -45.253 38.525 -50.641 38.525 -57.233 C 38.525 -80.428 24.398 -85.534 10.951 -87.029 C 13.117 -88.903 15.047 -92.578 15.047 -98.212 C 15.047 -106.292 14.978 -112.795 14.978 -114.784 C 14.978 -116.392 16.064 -118.274 19.125 -117.682 C 43.107 -109.688 60.388 -87.06 60.388 -60.388 C 60.388 -27.035 33.351 0 0 0" style="fill-rule: evenodd; fill-opacity: 1; fill: rgb(0, 150, 255);"/>
    </g>
  </g>
</svg>