<?xml version="1.0" encoding="utf-8"?>
<svg viewBox="0 0 500 500" xmlns="http://www.w3.org/2000/svg">
  <ellipse style="fill: rgb(216, 188, 0);" cx="45.034" cy="380.469" rx="16.535" ry="99.72" transform="matrix(0.961262, 0.275637, -0.612302, 0.864725, 356.466894, 49.560945)"/>
  <ellipse style="fill: rgb(216, 188, 0);" cx="45.034" cy="380.469" rx="14.715" ry="99.72" transform="matrix(0.891007, 0.45399, -0.766049, 0.732005, 387.395746, 60.759507)"/>
  <ellipse style="fill: rgb(216, 188, 0);" cx="45.034" cy="380.469" rx="15.009" ry="133.524" transform="matrix(0.933581, 0.358368, -0.685337, 0.808069, 356.833537, 63.688691)"/>
  <line style="fill: rgb(66, 148, 247); stroke-width: 16px; stroke: rgb(66, 148, 247);" x1="402.861" y1="65.323" x2="439.432" y2="20.684" transform="matrix(-0.999999, -0.001249, 0.001249, -0.999999, 842.238959, 86.532979)"/>
  <path style="fill: rgb(66, 148, 247); stroke: rgb(216, 188, 0); stroke-width: 10px;" d="M 420.571 119.65 C 409.311 207.857 351.406 283.436 268.785 317.132 L 266.99 320.821 C 281.737 327.278 289.537 355.137 256.812 402.301 L 233.878 424.134 C 242.537 411.125 256.662 356.726 246.405 334.854 L 168.603 274.059 C 143.346 278.646 108.15 300.239 99.692 310.193 L 114.358 282.129 C 157.395 229.444 190.059 238.94 193.59 257.859 C 193.68 257.114 193.773 256.37 193.869 255.627 C 193.869 255.627 193.817 255.547 193.786 255.562 C 191.763 256.527 194.522 255.96 194.522 255.96 C 205.159 166.046 265.338 81.896 349.835 57.621 L 348.996 58.13 C 353.563 56.326 375.465 47.736 395.137 58.788 L 407.591 58.866 L 410.38 69.753 C 417.452 78.448 426.48 92.178 421.5 113.162 L 420.571 119.65 Z M 97.815 313.786 C 97.759 312.914 98.426 311.684 99.692 310.193 L 97.815 313.786 Z M 233.878 424.134 C 232.794 425.762 231.796 426.742 230.942 426.929 L 233.878 424.134 Z"/>
  <rect style="fill: rgb(216, 188, 0); stroke: rgb(186, 218, 85);" transform="matrix(0.777146, 0.629321, -0.629321, 0.777146, 164.681107, -337.792999)" x="416.933" y="224.243" width="63.506" height="52.69" rx="10" ry="10"/>
</svg>