<?xml version="1.0" encoding="UTF-8" standalone="no"?><svg xmlns="http://www.w3.org/2000/svg" xmlns:xlink="http://www.w3.org/1999/xlink" contentScriptType="application/ecmascript" contentStyleType="text/css" height="365.625px" preserveAspectRatio="none" style="width:977px;height:365px;background:#333333;" version="1.1" viewBox="0 0 977 365" width="977.0833px" zoomAndPan="magnify"><defs/><g><rect fill="#48494B" height="41.2028" rx="8.3333" ry="8.3333" style="stroke:#545454;stroke-width:1.0416666666666667;" width="397.9167" x="282.5521" y="2.0833"/><text fill="#C0C0C0" font-family="Open Sans,Avenir,Nunito,Arial,Helvetica,SansSerif" font-size="20.8333" lengthAdjust="spacing" textLength="375" x="294.0104" y="30.5583">org.apache.wicket.markup.html.basic</text><!--MD5=[3b9d881657e384c41fb8d605844d3c8d]
class IGenericComponent--><rect codeLine="6" fill="#282828" height="48.055" id="IGenericComponent" rx="8.3333" ry="8.3333" style="stroke:#5E5E5E;stroke-width:1.0416666666666667;" width="165.625" x="28.125" y="53.7028"/><rect fill="#1B1B1A" height="31.3883" rx="8.3333" ry="8.3333" style="stroke:#1B1B1A;stroke-width:1.0416666666666667;" width="165.625" x="28.125" y="53.7028"/><rect fill="#1B1B1A" height="8.3333" style="stroke:#1B1B1A;stroke-width:1.0416666666666667;" width="165.625" x="28.125" y="76.7578"/><rect codeLine="6" fill="none" height="48.055" id="IGenericComponent" rx="8.3333" ry="8.3333" style="stroke:#5E5E5E;stroke-width:1.0416666666666667;" width="165.625" x="28.125" y="53.7028"/><ellipse cx="42.7083" cy="69.397" fill="#008400" rx="10.4167" ry="10.4167" style="stroke:#239C23;stroke-width:1.0416666666666667;"/><path d="M40.1123,66.5588 L40.1123,64.9719 L45.5383,64.9719 L45.5383,66.5588 L43.7256,66.5588 L43.7256,72.4976 L45.5383,72.4976 L45.5383,74.0845 L40.1123,74.0845 L40.1123,72.4976 L41.925,72.4976 L41.925,66.5588 Z " fill="#000000"/><text fill="#D8BC00" font-family="Open Sans,Avenir,Nunito,Arial,Helvetica,SansSerif" font-size="12.5" font-style="italic" font-weight="bold" lengthAdjust="spacing" textLength="128.125" x="59.375" y="74.1211">IGenericComponent</text><line style="stroke:#5E5E5E;stroke-width:1.0416666666666667;" x1="29.1667" x2="192.7083" y1="85.0911" y2="85.0911"/><line style="stroke:#5E5E5E;stroke-width:1.0416666666666667;" x1="29.1667" x2="192.7083" y1="93.4245" y2="93.4245"/><!--MD5=[48b1bd5d531db141ae627bfe1d3aa0cf]
class WebMarkupContainer--><rect fill="#282828" height="48.055" id="WebMarkupContainer" rx="8.3333" ry="8.3333" style="stroke:#5E5E5E;stroke-width:1.0416666666666667;" width="177.0833" x="753.6458" y="53.7028"/><rect fill="#1B1B1A" height="31.3883" rx="8.3333" ry="8.3333" style="stroke:#1B1B1A;stroke-width:1.0416666666666667;" width="177.0833" x="753.6458" y="53.7028"/><rect fill="#1B1B1A" height="8.3333" style="stroke:#1B1B1A;stroke-width:1.0416666666666667;" width="177.0833" x="753.6458" y="76.7578"/><rect fill="none" height="48.055" id="WebMarkupContainer" rx="8.3333" ry="8.3333" style="stroke:#5E5E5E;stroke-width:1.0416666666666667;" width="177.0833" x="753.6458" y="53.7028"/><ellipse cx="768.2292" cy="69.397" fill="#0066CF" rx="10.4167" ry="10.4167" style="stroke:#0086EF;stroke-width:1.0416666666666667;"/><path d="M770.1396,73.822 Q769.7123,74.0417 769.2424,74.1516 Q768.7724,74.2615 768.2536,74.2615 Q766.4103,74.2615 765.4399,73.0469 Q764.4694,71.8323 764.4694,69.5374 Q764.4694,67.2363 765.4399,66.0217 Q766.4103,64.8071 768.2536,64.8071 Q768.7724,64.8071 769.2485,64.917 Q769.7245,65.0269 770.1396,65.2466 L770.1396,67.2485 Q769.6757,66.8213 769.2393,66.6229 Q768.8029,66.4246 768.339,66.4246 Q767.3503,66.4246 766.8467,67.2089 Q766.3432,67.9932 766.3432,69.5374 Q766.3432,71.0754 766.8467,71.8597 Q767.3503,72.644 768.339,72.644 Q768.8029,72.644 769.2393,72.4457 Q769.6757,72.2473 770.1396,71.8201 Z " fill="#000000"/><text fill="#D8BC00" font-family="Open Sans,Avenir,Nunito,Arial,Helvetica,SansSerif" font-size="12.5" font-weight="bold" lengthAdjust="spacing" textLength="139.5833" x="784.8958" y="74.1211">WebMarkupContainer</text><line style="stroke:#5E5E5E;stroke-width:1.0416666666666667;" x1="754.6875" x2="929.6875" y1="85.0911" y2="85.0911"/><line style="stroke:#5E5E5E;stroke-width:1.0416666666666667;" x1="754.6875" x2="929.6875" y1="93.4245" y2="93.4245"/><!--MD5=[252344b5277d0d49ca78232c016834af]
class EnclosureContainer--><rect codeLine="9" fill="#282828" height="83.3781" id="EnclosureContainer" rx="8.3333" ry="8.3333" style="stroke:#5E5E5E;stroke-width:1.0416666666666667;" width="256.25" x="714.0625" y="219.8486"/><rect fill="#1B1B1A" height="31.3883" rx="8.3333" ry="8.3333" style="stroke:#1B1B1A;stroke-width:1.0416666666666667;" width="256.25" x="714.0625" y="219.8486"/><rect fill="#1B1B1A" height="8.3333" style="stroke:#1B1B1A;stroke-width:1.0416666666666667;" width="256.25" x="714.0625" y="242.9036"/><rect codeLine="9" fill="none" height="83.3781" id="EnclosureContainer" rx="8.3333" ry="8.3333" style="stroke:#5E5E5E;stroke-width:1.0416666666666667;" width="256.25" x="714.0625" y="219.8486"/><ellipse cx="771.875" cy="235.5428" fill="#0066CF" rx="10.4167" ry="10.4167" style="stroke:#0086EF;stroke-width:1.0416666666666667;"/><path d="M773.7854,239.9679 Q773.3582,240.1876 772.8882,240.2974 Q772.4182,240.4073 771.8994,240.4073 Q770.0562,240.4073 769.0857,239.1927 Q768.1152,237.9781 768.1152,235.6832 Q768.1152,233.3822 769.0857,232.1676 Q770.0562,230.953 771.8994,230.953 Q772.4182,230.953 772.8943,231.0628 Q773.3704,231.1727 773.7854,231.3924 L773.7854,233.3944 Q773.3215,232.9671 772.8851,232.7688 Q772.4487,232.5704 771.9849,232.5704 Q770.9961,232.5704 770.4926,233.3547 Q769.989,234.139 769.989,235.6832 Q769.989,237.2213 770.4926,238.0056 Q770.9961,238.7899 771.9849,238.7899 Q772.4487,238.7899 772.8851,238.5915 Q773.3215,238.3931 773.7854,237.9659 Z " fill="#000000"/><text fill="#D8BC00" font-family="Open Sans,Avenir,Nunito,Arial,Helvetica,SansSerif" font-size="12.5" font-weight="bold" lengthAdjust="spacing" textLength="126.0417" x="794.7917" y="240.2669">EnclosureContainer</text><line style="stroke:#5E5E5E;stroke-width:1.5625;" x1="715.1042" x2="969.2708" y1="251.237" y2="251.237"/><ellipse cx="725.5208" cy="286.6069" fill="#84BE84" rx="3.125" ry="3.125" style="stroke:#038048;stroke-width:1.0416666666666667;"/><text fill="#D8BC00" font-family="Open Sans,Avenir,Nunito,Arial,Helvetica,SansSerif" font-size="11.4583" lengthAdjust="spacing" textLength="223.9583" x="736.9792" y="293.5181">EnclosureContainer(String, Component)</text><line style="stroke:#5E5E5E;stroke-width:1.0416666666666667;" x1="715.1042" x2="798.4375" y1="269.4427" y2="269.4427"/><text fill="#D8BC00" font-family="Open Sans,Avenir,Nunito,Arial,Helvetica,SansSerif" font-size="11.4583" lengthAdjust="spacing" textLength="81.25" x="801.5625" y="273.2524">(constructors)</text><line style="stroke:#5E5E5E;stroke-width:1.0416666666666667;" x1="885.9375" x2="969.2708" y1="269.4427" y2="269.4427"/><!--MD5=[f204b6c3c6c900989fd7f26147324705]
class WebComponent--><rect fill="#282828" height="48.055" id="WebComponent" rx="8.3333" ry="8.3333" style="stroke:#5E5E5E;stroke-width:1.0416666666666667;" width="140.625" x="264.5833" y="53.7028"/><rect fill="#1B1B1A" height="31.3883" rx="8.3333" ry="8.3333" style="stroke:#1B1B1A;stroke-width:1.0416666666666667;" width="140.625" x="264.5833" y="53.7028"/><rect fill="#1B1B1A" height="8.3333" style="stroke:#1B1B1A;stroke-width:1.0416666666666667;" width="140.625" x="264.5833" y="76.7578"/><rect fill="none" height="48.055" id="WebComponent" rx="8.3333" ry="8.3333" style="stroke:#5E5E5E;stroke-width:1.0416666666666667;" width="140.625" x="264.5833" y="53.7028"/><ellipse cx="279.1667" cy="69.397" fill="#0066CF" rx="10.4167" ry="10.4167" style="stroke:#0086EF;stroke-width:1.0416666666666667;"/><path d="M281.0771,73.822 Q280.6498,74.0417 280.1799,74.1516 Q279.7099,74.2615 279.1911,74.2615 Q277.3478,74.2615 276.3774,73.0469 Q275.4069,71.8323 275.4069,69.5374 Q275.4069,67.2363 276.3774,66.0217 Q277.3478,64.8071 279.1911,64.8071 Q279.7099,64.8071 280.186,64.917 Q280.662,65.0269 281.0771,65.2466 L281.0771,67.2485 Q280.6132,66.8213 280.1768,66.6229 Q279.7404,66.4246 279.2765,66.4246 Q278.2878,66.4246 277.7842,67.2089 Q277.2807,67.9932 277.2807,69.5374 Q277.2807,71.0754 277.7842,71.8597 Q278.2878,72.644 279.2765,72.644 Q279.7404,72.644 280.1768,72.4457 Q280.6132,72.2473 281.0771,71.8201 Z " fill="#000000"/><text fill="#D8BC00" font-family="Open Sans,Avenir,Nunito,Arial,Helvetica,SansSerif" font-size="12.5" font-weight="bold" lengthAdjust="spacing" textLength="103.125" x="295.8333" y="74.1211">WebComponent</text><line style="stroke:#5E5E5E;stroke-width:1.0416666666666667;" x1="265.625" x2="404.1667" y1="85.0911" y2="85.0911"/><line style="stroke:#5E5E5E;stroke-width:1.0416666666666667;" x1="265.625" x2="404.1667" y1="93.4245" y2="93.4245"/><!--MD5=[5ab33e851a8e67d56eea7943fa7d0d9e]
class EnumLabel--><rect codeLine="17" fill="#282828" height="194.6025" id="EnumLabel" rx="8.3333" ry="8.3333" style="stroke:#5E5E5E;stroke-width:1.0416666666666667;" width="203.125" x="9.375" y="164.1195"/><rect fill="#1B1B1A" height="31.3883" rx="8.3333" ry="8.3333" style="stroke:#1B1B1A;stroke-width:1.0416666666666667;" width="203.125" x="9.375" y="164.1195"/><rect fill="#1B1B1A" height="8.3333" style="stroke:#1B1B1A;stroke-width:1.0416666666666667;" width="203.125" x="9.375" y="187.1745"/><rect codeLine="17" fill="none" height="194.6025" id="EnumLabel" rx="8.3333" ry="8.3333" style="stroke:#5E5E5E;stroke-width:1.0416666666666667;" width="203.125" x="9.375" y="164.1195"/><ellipse cx="58.8542" cy="179.8136" fill="#0066CF" rx="10.4167" ry="10.4167" style="stroke:#0086EF;stroke-width:1.0416666666666667;"/><path d="M60.7646,184.2387 Q60.3373,184.4584 59.8674,184.5683 Q59.3974,184.6781 58.8786,184.6781 Q57.0353,184.6781 56.0649,183.4635 Q55.0944,182.2489 55.0944,179.954 Q55.0944,177.653 56.0649,176.4384 Q57.0353,175.2238 58.8786,175.2238 Q59.3974,175.2238 59.8735,175.3337 Q60.3495,175.4435 60.7646,175.6632 L60.7646,177.6652 Q60.3007,177.238 59.8643,177.0396 Q59.4279,176.8412 58.964,176.8412 Q57.9753,176.8412 57.4717,177.6255 Q56.9682,178.4098 56.9682,179.954 Q56.9682,181.4921 57.4717,182.2764 Q57.9753,183.0607 58.964,183.0607 Q59.4279,183.0607 59.8643,182.8623 Q60.3007,182.664 60.7646,182.2367 Z " fill="#000000"/><text fill="#D8BC00" font-family="Open Sans,Avenir,Nunito,Arial,Helvetica,SansSerif" font-size="12.5" font-weight="bold" lengthAdjust="spacing" textLength="70.8333" x="81.7708" y="184.5378">EnumLabel</text><rect fill="#333333" height="23.055" style="stroke:#A0A0A0;stroke-width:1.0416666666666667;stroke-dasharray:2.0,2.0;" width="16.6667" x="198.9583" y="160.9945"/><text fill="#A0A0A0" font-family="Open Sans,Avenir,Nunito,Arial,Helvetica,SansSerif" font-size="12.5" font-weight="bold" lengthAdjust="spacing" textLength="8.3333" x="203.125" y="177.2461">T</text><line style="stroke:#5E5E5E;stroke-width:1.5625;" x1="10.4167" x2="211.4583" y1="195.5078" y2="195.5078"/><ellipse cx="20.8333" cy="230.8777" fill="#84BE84" rx="3.125" ry="3.125" style="stroke:#038048;stroke-width:1.0416666666666667;"/><text fill="#D8BC00" font-family="Open Sans,Avenir,Nunito,Arial,Helvetica,SansSerif" font-size="11.4583" lengthAdjust="spacing" textLength="102.0833" x="32.2917" y="237.7889">EnumLabel(String)</text><ellipse cx="20.8333" cy="250.6226" fill="#84BE84" rx="3.125" ry="3.125" style="stroke:#038048;stroke-width:1.0416666666666667;"/><text fill="#D8BC00" font-family="Open Sans,Avenir,Nunito,Arial,Helvetica,SansSerif" font-size="11.4583" lengthAdjust="spacing" textLength="170.8333" x="32.2917" y="257.5338">EnumLabel(String, IModel&lt;T&gt;)</text><ellipse cx="20.8333" cy="270.3674" fill="#84BE84" rx="3.125" ry="3.125" style="stroke:#038048;stroke-width:1.0416666666666667;"/><text fill="#D8BC00" font-family="Open Sans,Avenir,Nunito,Arial,Helvetica,SansSerif" font-size="11.4583" lengthAdjust="spacing" textLength="115.625" x="32.2917" y="277.2786">EnumLabel(String, T)</text><line style="stroke:#5E5E5E;stroke-width:1.0416666666666667;" x1="10.4167" x2="67.1875" y1="213.7136" y2="213.7136"/><text fill="#D8BC00" font-family="Open Sans,Avenir,Nunito,Arial,Helvetica,SansSerif" font-size="11.4583" lengthAdjust="spacing" textLength="81.25" x="70.3125" y="217.5232">(constructors)</text><line style="stroke:#5E5E5E;stroke-width:1.0416666666666667;" x1="154.6875" x2="211.4583" y1="213.7136" y2="213.7136"/><line style="stroke:#5E5E5E;stroke-width:1.0416666666666667;" x1="10.4167" x2="211.4583" y1="286.9873" y2="286.9873"/><polygon fill="#FFFF44" points="20.8333,293.2373,25,297.404,20.8333,301.5706,16.6667,297.404" style="stroke:#B38D22;stroke-width:1.0416666666666667;"/><text fill="#D8BC00" font-family="Open Sans,Avenir,Nunito,Arial,Helvetica,SansSerif" font-size="11.4583" lengthAdjust="spacing" textLength="95.8333" x="32.2917" y="305.3569">String nullValue()</text><polygon fill="#FFFF44" points="20.8333,336.8937,25,341.0604,20.8333,345.2271,16.6667,341.0604" style="stroke:#B38D22;stroke-width:1.0416666666666667;"/><text fill="#D8BC00" font-family="Open Sans,Avenir,Nunito,Arial,Helvetica,SansSerif" font-size="11.4583" lengthAdjust="spacing" textLength="154.1667" x="32.2917" y="349.0133">String resourceKey(T value)</text><line style="stroke:#5E5E5E;stroke-width:1.0416666666666667;" x1="10.4167" x2="76.5625" y1="324.9379" y2="324.9379"/><text fill="#D8BC00" font-family="Open Sans,Avenir,Nunito,Arial,Helvetica,SansSerif" font-size="11.4583" lengthAdjust="spacing" textLength="62.5" x="79.6875" y="328.7476">(collection)</text><line style="stroke:#5E5E5E;stroke-width:1.0416666666666667;" x1="145.3125" x2="211.4583" y1="324.9379" y2="324.9379"/><!--MD5=[e84c991d4d3bbf916ee1653c86a9249d]
class Label--><rect codeLine="30" fill="#282828" height="122.8678" id="Label" rx="8.3333" ry="8.3333" style="stroke:#5E5E5E;stroke-width:1.0416666666666667;" width="171.875" x="248.9583" y="200.057"/><rect fill="#1B1B1A" height="31.3883" rx="8.3333" ry="8.3333" style="stroke:#1B1B1A;stroke-width:1.0416666666666667;" width="171.875" x="248.9583" y="200.057"/><rect fill="#1B1B1A" height="8.3333" style="stroke:#1B1B1A;stroke-width:1.0416666666666667;" width="171.875" x="248.9583" y="223.112"/><rect codeLine="30" fill="none" height="122.8678" id="Label" rx="8.3333" ry="8.3333" style="stroke:#5E5E5E;stroke-width:1.0416666666666667;" width="171.875" x="248.9583" y="200.057"/><ellipse cx="310.4167" cy="215.7511" fill="#0066CF" rx="10.4167" ry="10.4167" style="stroke:#0086EF;stroke-width:1.0416666666666667;"/><path d="M312.3271,220.1762 Q311.8998,220.3959 311.4299,220.5058 Q310.9599,220.6156 310.4411,220.6156 Q308.5978,220.6156 307.6274,219.401 Q306.6569,218.1864 306.6569,215.8915 Q306.6569,213.5905 307.6274,212.3759 Q308.5978,211.1613 310.4411,211.1613 Q310.9599,211.1613 311.436,211.2712 Q311.912,211.381 312.3271,211.6007 L312.3271,213.6027 Q311.8632,213.1755 311.4268,212.9771 Q310.9904,212.7787 310.5265,212.7787 Q309.5378,212.7787 309.0342,213.563 Q308.5307,214.3473 308.5307,215.8915 Q308.5307,217.4296 309.0342,218.2139 Q309.5378,218.9982 310.5265,218.9982 Q310.9904,218.9982 311.4268,218.7998 Q311.8632,218.6015 312.3271,218.1742 Z " fill="#000000"/><text fill="#D8BC00" font-family="Open Sans,Avenir,Nunito,Arial,Helvetica,SansSerif" font-size="12.5" font-weight="bold" lengthAdjust="spacing" textLength="34.375" x="333.3333" y="220.4753">Label</text><line style="stroke:#5E5E5E;stroke-width:1.5625;" x1="250" x2="419.7917" y1="231.4453" y2="231.4453"/><ellipse cx="260.4167" cy="266.8152" fill="#84BE84" rx="3.125" ry="3.125" style="stroke:#038048;stroke-width:1.0416666666666667;"/><text fill="#D8BC00" font-family="Open Sans,Avenir,Nunito,Arial,Helvetica,SansSerif" font-size="11.4583" lengthAdjust="spacing" textLength="70.8333" x="271.875" y="273.7264">Label(String)</text><ellipse cx="260.4167" cy="286.5601" fill="#84BE84" rx="3.125" ry="3.125" style="stroke:#038048;stroke-width:1.0416666666666667;"/><text fill="#D8BC00" font-family="Open Sans,Avenir,Nunito,Arial,Helvetica,SansSerif" font-size="11.4583" lengthAdjust="spacing" textLength="137.5" x="271.875" y="293.4713">Label(String, IModel&lt;?&gt;)</text><ellipse cx="260.4167" cy="306.3049" fill="#84BE84" rx="3.125" ry="3.125" style="stroke:#038048;stroke-width:1.0416666666666667;"/><text fill="#D8BC00" font-family="Open Sans,Avenir,Nunito,Arial,Helvetica,SansSerif" font-size="11.4583" lengthAdjust="spacing" textLength="139.5833" x="271.875" y="313.2161">Label(String, Serializable)</text><line style="stroke:#5E5E5E;stroke-width:1.0416666666666667;" x1="250" x2="291.1458" y1="249.6511" y2="249.6511"/><text fill="#D8BC00" font-family="Open Sans,Avenir,Nunito,Arial,Helvetica,SansSerif" font-size="11.4583" lengthAdjust="spacing" textLength="81.25" x="294.2708" y="253.4607">(constructors)</text><line style="stroke:#5E5E5E;stroke-width:1.0416666666666667;" x1="378.6458" x2="419.7917" y1="249.6511" y2="249.6511"/><!--MD5=[d37b0cb51c9af70c5c0635911b6b55a5]
class MultiLineLabel--><rect codeLine="39" fill="#282828" height="122.8678" id="MultiLineLabel" rx="8.3333" ry="8.3333" style="stroke:#5E5E5E;stroke-width:1.0416666666666667;" width="219.7917" x="457.2917" y="200.057"/><rect fill="#1B1B1A" height="31.3883" rx="8.3333" ry="8.3333" style="stroke:#1B1B1A;stroke-width:1.0416666666666667;" width="219.7917" x="457.2917" y="200.057"/><rect fill="#1B1B1A" height="8.3333" style="stroke:#1B1B1A;stroke-width:1.0416666666666667;" width="219.7917" x="457.2917" y="223.112"/><rect codeLine="39" fill="none" height="122.8678" id="MultiLineLabel" rx="8.3333" ry="8.3333" style="stroke:#5E5E5E;stroke-width:1.0416666666666667;" width="219.7917" x="457.2917" y="200.057"/><ellipse cx="512.5" cy="215.7511" fill="#0066CF" rx="10.4167" ry="10.4167" style="stroke:#0086EF;stroke-width:1.0416666666666667;"/><path d="M514.4104,220.1762 Q513.9832,220.3959 513.5132,220.5058 Q513.0432,220.6156 512.5244,220.6156 Q510.6812,220.6156 509.7107,219.401 Q508.7402,218.1864 508.7402,215.8915 Q508.7402,213.5905 509.7107,212.3759 Q510.6812,211.1613 512.5244,211.1613 Q513.0432,211.1613 513.5193,211.2712 Q513.9954,211.381 514.4104,211.6007 L514.4104,213.6027 Q513.9465,213.1755 513.5101,212.9771 Q513.0737,212.7787 512.6099,212.7787 Q511.6211,212.7787 511.1176,213.563 Q510.614,214.3473 510.614,215.8915 Q510.614,217.4296 511.1176,218.2139 Q511.6211,218.9982 512.6099,218.9982 Q513.0737,218.9982 513.5101,218.7998 Q513.9465,218.6015 514.4104,218.1742 Z " fill="#000000"/><text fill="#D8BC00" font-family="Open Sans,Avenir,Nunito,Arial,Helvetica,SansSerif" font-size="12.5" font-weight="bold" lengthAdjust="spacing" textLength="94.7917" x="535.4167" y="220.4753">MultiLineLabel</text><line style="stroke:#5E5E5E;stroke-width:1.5625;" x1="458.3333" x2="676.0417" y1="231.4453" y2="231.4453"/><ellipse cx="468.75" cy="266.8152" fill="#84BE84" rx="3.125" ry="3.125" style="stroke:#038048;stroke-width:1.0416666666666667;"/><text fill="#D8BC00" font-family="Open Sans,Avenir,Nunito,Arial,Helvetica,SansSerif" font-size="11.4583" lengthAdjust="spacing" textLength="120.8333" x="480.2083" y="273.7264">MultiLineLabel(String)</text><ellipse cx="468.75" cy="286.5601" fill="#84BE84" rx="3.125" ry="3.125" style="stroke:#038048;stroke-width:1.0416666666666667;"/><text fill="#D8BC00" font-family="Open Sans,Avenir,Nunito,Arial,Helvetica,SansSerif" font-size="11.4583" lengthAdjust="spacing" textLength="187.5" x="480.2083" y="293.4713">MultiLineLabel(String, IModel&lt;?&gt;)</text><ellipse cx="468.75" cy="306.3049" fill="#84BE84" rx="3.125" ry="3.125" style="stroke:#038048;stroke-width:1.0416666666666667;"/><text fill="#D8BC00" font-family="Open Sans,Avenir,Nunito,Arial,Helvetica,SansSerif" font-size="11.4583" lengthAdjust="spacing" textLength="160.4167" x="480.2083" y="313.2161">MultiLineLabel(String, String)</text><line style="stroke:#5E5E5E;stroke-width:1.0416666666666667;" x1="458.3333" x2="523.4375" y1="249.6511" y2="249.6511"/><text fill="#D8BC00" font-family="Open Sans,Avenir,Nunito,Arial,Helvetica,SansSerif" font-size="11.4583" lengthAdjust="spacing" textLength="81.25" x="526.5625" y="253.4607">(constructors)</text><line style="stroke:#5E5E5E;stroke-width:1.0416666666666667;" x1="610.9375" x2="676.0417" y1="249.6511" y2="249.6511"/><!--MD5=[adf8fcf4338a9d438d0a842669f751ee]
reverse link WebMarkupContainer to EnclosureContainer--><path codeLine="8" d="M842.1875,122.6507 C842.1875,152.182 842.1875,190.8174 842.1875,219.6715 " fill="none" id="WebMarkupContainer-backto-EnclosureContainer" style="stroke:#545454;stroke-width:1.5625;"/><polygon fill="none" points="834.8958,122.557,842.1875,101.7236,849.4792,122.557,834.8958,122.557" style="stroke:#545454;stroke-width:1.5625;"/><!--MD5=[803aca5b32053ff1f57d67654901d19d]
reverse link WebComponent to EnumLabel--><path codeLine="15" d="M290.2917,114.9111 C267.9167,133.0674 239.8229,155.8695 212.5625,177.9945 " fill="none" id="WebComponent-backto-EnumLabel" style="stroke:#545454;stroke-width:1.5625;"/><polygon fill="none" points="285.7604,109.1924,306.5313,101.7236,294.9479,120.5153,285.7604,109.1924" style="stroke:#545454;stroke-width:1.5625;"/><!--MD5=[a6bef415a03acab56c863c189e907cf7]
reverse link IGenericComponent to EnumLabel--><path codeLine="16" d="M110.9375,122.8382 C110.9375,135.3799 110.9375,149.5674 110.9375,163.932 " fill="none" id="IGenericComponent-backto-EnumLabel" style="stroke:#545454;stroke-width:1.5625;"/><polygon fill="none" points="103.6458,122.557,110.9375,101.7236,118.2292,122.557,103.6458,122.557" style="stroke:#545454;stroke-width:1.5625;"/><!--MD5=[9632517684d91023f4fb204052441625]
reverse link WebComponent to Label--><path codeLine="29" d="M334.8958,122.682 C334.8958,145.8382 334.8958,174.5882 334.8958,199.8382 " fill="none" id="WebComponent-backto-Label" style="stroke:#545454;stroke-width:1.5625;"/><polygon fill="none" points="327.6042,122.557,334.8958,101.7236,342.1875,122.557,327.6042,122.557" style="stroke:#545454;stroke-width:1.5625;"/><!--MD5=[e50836dc3c33b1cc2087bb70e29c53a2]
reverse link WebComponent to MultiLineLabel--><path codeLine="38" d="M380.7917,114.609 C411.8229,138.9007 453.5729,171.5674 489.6979,199.8382 " fill="none" id="WebComponent-backto-MultiLineLabel" style="stroke:#545454;stroke-width:1.5625;"/><polygon fill="none" points="376.2292,120.307,364.3125,101.7236,385.2188,108.8174,376.2292,120.307" style="stroke:#545454;stroke-width:1.5625;"/><!--MD5=[16e3cc81b5a5b1e35dbe3c6eef54db73]
@startuml

    !include lexakai.theme
    
    title "org.apache.wicket.markup.html.basic"
    
    interface IGenericComponent
    
    WebMarkupContainer <|- - EnclosureContainer
    class EnclosureContainer
    {
        - -(constructors)- -
        +EnclosureContainer(String, Component)
    }
    
    WebComponent <|- - EnumLabel
    IGenericComponent <|- - EnumLabel
    class EnumLabel<T>
    {
        - -(constructors)- -
        +EnumLabel(String)
        +EnumLabel(String, IModel<T>)
        +EnumLabel(String, T)
        - -
        #String nullValue()
        - -(collection)- -
        #String resourceKey(T value)
    }
    
    WebComponent <|- - Label
    class Label
    {
        - -(constructors)- -
        +Label(String)
        +Label(String, IModel<?>)
        +Label(String, Serializable)
    }
    
    WebComponent <|- - MultiLineLabel
    class MultiLineLabel
    {
        - -(constructors)- -
        +MultiLineLabel(String)
        +MultiLineLabel(String, IModel<?>)
        +MultiLineLabel(String, String)
    }
    
@enduml

@startuml









skinparam backgroundColor #333333






skinparam  {
    defaultFontName   "Open Sans,Avenir,Nunito,Arial,Helvetica,SansSerif"
    defaultFontSize   12
    defaultTextAlignment left
    shadowing false
    RoundCorner 10
    TitleFontSize 18
}

skinparam defaultFontName       "Open Sans,Avenir,Nunito,Arial,Helvetica,SansSerif"
skinparam defaultFontSize       12
skinparam dpi                   100
skinparam shadowing             false
skinparam roundcorner           16
skinparam ParticipantPadding    40
skinparam BoxPadding            40
skinparam Padding               3
skinparam ArrowColor            #545454
skinparam stereotype {
    CBackgroundColor #0066cf
    CBorderColor #0086ef
    ABackgroundColor #C8Ac00
    ABorderColor #D8Bc00
    IBackgroundColor #008400
    IBorderColor #239c23
    EBackgroundColor #cf6300
    EBorderColor #ef8300
    NBackgroundColor #3380b9
    NBorderColor #004d86
}
skinparam title {
	FontColor	                 #c0c0c0
 	BorderColor                  #545454
	FontSize	    	         20
	BorderRoundCorner            16
	BorderThickness 	         1
	BackgroundColor              #48494b
}


skinparam legend {
	BackgroundColor #303030
	BorderColor #404040
	FontColor #a0a0a0
}

	skinparam swimlane {
	BorderColor #5e5e5e
	BorderThickness 2
	TitleBackgroundColor  #6d6d6d-#484848
	TitleFontColor #303030
}

skinparam activity {
		FontColor #C8Ac00
	BorderColor #333333
	BackgroundColor #333333-#333333
	BarColor #00FF00
	StartColor #0060a8
	EndColor #0060a8
	DiamondBackgroundColor #6d6d6d-#3a3a3a
  	DiamondBorderColor #3a3a3a
  	DiamondFontColor #fefefe
}


skinparam participant {
		FontColor #C8Ac00
	BorderColor #333333
	BackgroundColor #333333-#333333
	ParticipantBorderThickness 2
}


skinparam actor {
		FontColor #C8Ac00
	BorderColor #333333
	BackgroundColor #333333-#333333
}


skinparam arrow {
	Thickness 1.5
	Color #545454
	FontColor #a0a0a0
    FontStyle bold
    MessageAlignment center
}



skinparam sequence {
	BorderColor #303030
	TitleFontColor #303030
	BackgroundColor #333333
	StartColor #303030
	EndColor #303030
	BoxBackgroundColor #333333
	BoxBorderColor #484848
	BoxFontColor #484848
	LifeLineBorderColor #484848
	LifeLineBorderThickness 2
	LifeLineBackgroundColor #3a3a3a
	GroupBorderColor #484848
	GroupFontColor #484848
	GroupHeaderFontColor #0060a8
	GroupBackgroundColor #484848
	GroupHeaderBackgroundColor #333333
	DividerBackgroundColor #484848
    DividerBorderColor #484848
    DividerBorderThickness 2
    DividerFontColor #D8Bc00
	ReferenceBackgroundColor #333333
	ReferenceBorderColor #484848
	ReferenceFontColor #fefefe
	ReferenceHeaderBackgroundColor #484848
}


skinparam partition {
	BorderColor #303030
	FontColor #333333
	BackgroundColor #333333
}


skinparam collections {
		FontColor #C8Ac00
	BorderColor #333333
	BackgroundColor #333333-#333333
}


skinparam control {
		FontColor #C8Ac00
	BorderColor #333333
	BackgroundColor #333333-#333333
}


skinparam entity {
		FontColor #C8Ac00
	BorderColor #333333
	BackgroundColor #333333-#333333
}


skinparam boundary {
		FontColor #C8Ac00
	BorderColor #333333
	BackgroundColor #333333-#333333
}


skinparam agent {
	BackgroundColor #ff8000
	BorderColor #ff9933
	FontColor #484848
}


skinparam note {
	BorderThickness 1
	BackgroundColor #1b1b1a
	BorderColor #5e5e5e
	FontSize 11
	FontColor #a0a0a0
}


skinparam artifact {
	BorderThickness 10
	BorderColor #5e5e5e
	BackgroundColor #1b1b1a
	FontColor #D8Bc00
}


skinparam component {
		FontColor #C8Ac00
	BorderColor #333333
	BackgroundColor #333333-#333333
}


skinparam interface {
	BackgroundColor  #008400
	BorderColor  #007F00
	FontColor #484848
}


skinparam storage {
	BackgroundColor #ff8000
  	BorderColor #cc6600
	FontColor #222222
}


skinparam node {
	BackgroundColor #333333
	BorderColor #333333
	FontColor #C8Ac00
}


skinparam cloud {
	BackgroundColor #484848-black
	BorderColor #484848
	FontColor #D8Bc00
}


skinparam database {
		FontColor #C8Ac00
	BorderColor #333333
	BackgroundColor #333333-#333333
	BackgroundColor  #333333
}


skinparam class {
		FontColor #C8Ac00
	BorderColor #333333
	BackgroundColor #333333-#333333
	HeaderBackgroundColor #1b1b1a
    BackgroundColor #282828
    BorderColor #5e5e5e
 	StereotypeFontColor #a0a0a0
    StereotypeFontStyle bold
	BorderThickness 1
	AttributeFontColor #D8Bc00
	AttributeFontSize 11
    FontColor #D8Bc00
    FontStyle bold
}


skinparam object {
		FontColor #C8Ac00
	BorderColor #333333
	BackgroundColor #333333-#333333
	StereotypeFontColor #484848
	BorderThickness 1
	AttributeFontColor #fefefe
	AttributeFontSize 11
}


skinparam usecase {
		FontColor #C8Ac00
	BorderColor #333333
	BackgroundColor #333333-#333333
	BorderThickness 2
	StereotypeFontColor #303030
}


skinparam rectangle {
		FontColor #C8Ac00
	BorderColor #333333
	BackgroundColor #333333-#333333
	BackgroundColor #333333
	BorderThickness 2
	StereotypeFontColor #303030
}


skinparam package {
		FontColor #C8Ac00
	BorderColor #333333
	BackgroundColor #333333-#333333
	BackgroundColor #333333
	BorderThickness 2
}


skinparam folder {
	BackgroundColor #6d6d6d
  	BorderColor #ff8000
	FontColor #ff8000
	BorderThickness 2
}


skinparam frame {
	BackgroundColor #6d6d6d
  	BorderColor #0060a8
	FontColor #0060a8
	BorderThickness 2
}


skinparam state {
		FontColor #C8Ac00
	BorderColor #333333
	BackgroundColor #333333-#333333
	StartColor #0060a8
	EndColor #0060a8
	AttributeFontColor #fefefe
	AttributeFontSize 11
}


skinparam queue {
		FontColor #C8Ac00
	BorderColor #333333
	BackgroundColor #333333-#333333
}


skinparam card {
	BackgroundColor #0060a8
	BorderColor #004d86
	FontColor $INFO_TEXT
}


skinparam file {
	BackgroundColor #6d6d6d-#484848
	BorderColor #0060a8
	FontColor #fefefe
}


skinparam stack {
		FontColor #C8Ac00
	BorderColor #333333
	BackgroundColor #333333-#333333
}

    
    title "org.apache.wicket.markup.html.basic"
    
    interface IGenericComponent
    
    WebMarkupContainer <|- - EnclosureContainer
    class EnclosureContainer
    {
        - -(constructors)- -
        +EnclosureContainer(String, Component)
    }
    
    WebComponent <|- - EnumLabel
    IGenericComponent <|- - EnumLabel
    class EnumLabel<T>
    {
        - -(constructors)- -
        +EnumLabel(String)
        +EnumLabel(String, IModel<T>)
        +EnumLabel(String, T)
        - -
        #String nullValue()
        - -(collection)- -
        #String resourceKey(T value)
    }
    
    WebComponent <|- - Label
    class Label
    {
        - -(constructors)- -
        +Label(String)
        +Label(String, IModel<?>)
        +Label(String, Serializable)
    }
    
    WebComponent <|- - MultiLineLabel
    class MultiLineLabel
    {
        - -(constructors)- -
        +MultiLineLabel(String)
        +MultiLineLabel(String, IModel<?>)
        +MultiLineLabel(String, String)
    }
    
@enduml

PlantUML version 1.2021.01(Tue Feb 02 00:55:08 MST 2021)
(GPL source distribution)
Java Runtime: Java(TM) SE Runtime Environment
JVM: Java HotSpot(TM) 64-Bit Server VM
Default Encoding: UTF-8
Language: en
Country: US
--></g></svg>