<?xml version="1.0" encoding="UTF-8" standalone="no"?><svg xmlns="http://www.w3.org/2000/svg" xmlns:xlink="http://www.w3.org/1999/xlink" contentScriptType="application/ecmascript" contentStyleType="text/css" height="261.4583px" preserveAspectRatio="none" style="width:423px;height:261px;background:#333333;" version="1.1" viewBox="0 0 423 261" width="423.9583px" zoomAndPan="magnify"><defs/><g><rect fill="#48494B" height="41.2028" rx="8.3333" ry="8.3333" style="stroke:#545454;stroke-width:1.0416666666666667;" width="409.375" x="2.0833" y="2.0833"/><text fill="#C0C0C0" font-family="Open Sans,Avenir,Nunito,Arial,Helvetica,SansSerif" font-size="20.8333" lengthAdjust="spacing" textLength="386.4583" x="13.5417" y="30.5583">org.apache.wicket.markup.html.debug</text><!--MD5=[e8e394f615ffb2ef1dd67fdcca444807]
cluster PageView--><polygon fill="#333333" points="20.5729,132.8695,93.4896,132.8695,100.7813,160.0911,234.1146,160.0911,234.1146,254.7445,20.5729,254.7445,20.5729,132.8695" style="stroke:#333333;stroke-width:2.0833333333333335;"/><line style="stroke:#333333;stroke-width:2.0833333333333335;" x1="20.5729" x2="100.7813" y1="160.0911" y2="160.0911"/><text fill="#C8AC00" font-family="Open Sans,Avenir,Nunito,Arial,Helvetica,SansSerif" font-size="12.5" font-weight="bold" lengthAdjust="spacing" textLength="60.4167" x="27.8646" y="150.1628">PageView</text><!--MD5=[622473b96e67248bd6feae96df1d80d9]
class PageView.ComponentData--><rect codeLine="9" fill="#282828" height="48.055" id="PageView.ComponentData" rx="8.3333" ry="8.3333" style="stroke:#5E5E5E;stroke-width:1.0416666666666667;" width="143.75" x="65.3646" y="181.8278"/><rect fill="#1B1B1A" height="31.3883" rx="8.3333" ry="8.3333" style="stroke:#1B1B1A;stroke-width:1.0416666666666667;" width="143.75" x="65.3646" y="181.8278"/><rect fill="#1B1B1A" height="8.3333" style="stroke:#1B1B1A;stroke-width:1.0416666666666667;" width="143.75" x="65.3646" y="204.8828"/><rect codeLine="9" fill="none" height="48.055" id="PageView.ComponentData" rx="8.3333" ry="8.3333" style="stroke:#5E5E5E;stroke-width:1.0416666666666667;" width="143.75" x="65.3646" y="181.8278"/><ellipse cx="79.9479" cy="197.522" fill="#0066CF" rx="10.4167" ry="10.4167" style="stroke:#0086EF;stroke-width:1.0416666666666667;"/><path d="M81.8583,201.947 Q81.4311,202.1667 80.9611,202.2766 Q80.4911,202.3865 79.9723,202.3865 Q78.1291,202.3865 77.1586,201.1719 Q76.1882,199.9573 76.1882,197.6624 Q76.1882,195.3613 77.1586,194.1467 Q78.1291,192.9321 79.9723,192.9321 Q80.4911,192.9321 80.9672,193.042 Q81.4433,193.1519 81.8583,193.3716 L81.8583,195.3735 Q81.3944,194.9463 80.958,194.7479 Q80.5216,194.5496 80.0578,194.5496 Q79.069,194.5496 78.5655,195.3339 Q78.0619,196.1182 78.0619,197.6624 Q78.0619,199.2004 78.5655,199.9847 Q79.069,200.769 80.0578,200.769 Q80.5216,200.769 80.958,200.5707 Q81.3944,200.3723 81.8583,199.9451 Z " fill="#000000"/><text fill="#D8BC00" font-family="Open Sans,Avenir,Nunito,Arial,Helvetica,SansSerif" font-size="12.5" font-weight="bold" lengthAdjust="spacing" textLength="106.25" x="96.6146" y="202.2461">ComponentData</text><line style="stroke:#5E5E5E;stroke-width:1.0416666666666667;" x1="66.4063" x2="208.0729" y1="213.2161" y2="213.2161"/><line style="stroke:#5E5E5E;stroke-width:1.0416666666666667;" x1="66.4063" x2="208.0729" y1="221.5495" y2="221.5495"/><!--MD5=[cd6fe5c68cc4750b98a6651e5a9afd2b]
class IClusterable--><rect codeLine="6" fill="#282828" height="48.055" id="IClusterable" rx="8.3333" ry="8.3333" style="stroke:#5E5E5E;stroke-width:1.0416666666666667;" width="115.625" x="79.4271" y="53.7028"/><rect fill="#1B1B1A" height="31.3883" rx="8.3333" ry="8.3333" style="stroke:#1B1B1A;stroke-width:1.0416666666666667;" width="115.625" x="79.4271" y="53.7028"/><rect fill="#1B1B1A" height="8.3333" style="stroke:#1B1B1A;stroke-width:1.0416666666666667;" width="115.625" x="79.4271" y="76.7578"/><rect codeLine="6" fill="none" height="48.055" id="IClusterable" rx="8.3333" ry="8.3333" style="stroke:#5E5E5E;stroke-width:1.0416666666666667;" width="115.625" x="79.4271" y="53.7028"/><ellipse cx="94.0104" cy="69.397" fill="#008400" rx="10.4167" ry="10.4167" style="stroke:#239C23;stroke-width:1.0416666666666667;"/><path d="M91.4144,66.5588 L91.4144,64.9719 L96.8404,64.9719 L96.8404,66.5588 L95.0277,66.5588 L95.0277,72.4976 L96.8404,72.4976 L96.8404,74.0845 L91.4144,74.0845 L91.4144,72.4976 L93.2271,72.4976 L93.2271,66.5588 Z " fill="#000000"/><text fill="#D8BC00" font-family="Open Sans,Avenir,Nunito,Arial,Helvetica,SansSerif" font-size="12.5" font-style="italic" font-weight="bold" lengthAdjust="spacing" textLength="78.125" x="110.6771" y="74.1211">IClusterable</text><line style="stroke:#5E5E5E;stroke-width:1.0416666666666667;" x1="80.4688" x2="194.0104" y1="85.0911" y2="85.0911"/><line style="stroke:#5E5E5E;stroke-width:1.0416666666666667;" x1="80.4688" x2="194.0104" y1="93.4245" y2="93.4245"/><!--MD5=[0174392a0c212c3b3e97bee69152624c]
class Panel--><rect fill="#282828" height="48.055" id="Panel" rx="8.3333" ry="8.3333" style="stroke:#5E5E5E;stroke-width:1.0416666666666667;" width="71.875" x="302.3438" y="53.7028"/><rect fill="#1B1B1A" height="31.3883" rx="8.3333" ry="8.3333" style="stroke:#1B1B1A;stroke-width:1.0416666666666667;" width="71.875" x="302.3438" y="53.7028"/><rect fill="#1B1B1A" height="8.3333" style="stroke:#1B1B1A;stroke-width:1.0416666666666667;" width="71.875" x="302.3438" y="76.7578"/><rect fill="none" height="48.055" id="Panel" rx="8.3333" ry="8.3333" style="stroke:#5E5E5E;stroke-width:1.0416666666666667;" width="71.875" x="302.3438" y="53.7028"/><ellipse cx="316.9271" cy="69.397" fill="#0066CF" rx="10.4167" ry="10.4167" style="stroke:#0086EF;stroke-width:1.0416666666666667;"/><path d="M318.8375,73.822 Q318.4102,74.0417 317.9403,74.1516 Q317.4703,74.2615 316.9515,74.2615 Q315.1082,74.2615 314.1378,73.0469 Q313.1673,71.8323 313.1673,69.5374 Q313.1673,67.2363 314.1378,66.0217 Q315.1082,64.8071 316.9515,64.8071 Q317.4703,64.8071 317.9464,64.917 Q318.4224,65.0269 318.8375,65.2466 L318.8375,67.2485 Q318.3736,66.8213 317.9372,66.6229 Q317.5008,66.4246 317.0369,66.4246 Q316.0482,66.4246 315.5446,67.2089 Q315.0411,67.9932 315.0411,69.5374 Q315.0411,71.0754 315.5446,71.8597 Q316.0482,72.644 317.0369,72.644 Q317.5008,72.644 317.9372,72.4457 Q318.3736,72.2473 318.8375,71.8201 Z " fill="#000000"/><text fill="#D8BC00" font-family="Open Sans,Avenir,Nunito,Arial,Helvetica,SansSerif" font-size="12.5" font-weight="bold" lengthAdjust="spacing" textLength="34.375" x="333.5938" y="74.1211">Panel</text><line style="stroke:#5E5E5E;stroke-width:1.0416666666666667;" x1="303.3854" x2="373.1771" y1="85.0911" y2="85.0911"/><line style="stroke:#5E5E5E;stroke-width:1.0416666666666667;" x1="303.3854" x2="373.1771" y1="93.4245" y2="93.4245"/><!--MD5=[a95f06eed120d9a9f55bd77dd952c6f6]
class PageView--><rect codeLine="14" fill="#282828" height="83.3781" id="PageView" rx="8.3333" ry="8.3333" style="stroke:#5E5E5E;stroke-width:1.0416666666666667;" width="157.2917" x="259.6354" y="164.1195"/><rect fill="#1B1B1A" height="31.3883" rx="8.3333" ry="8.3333" style="stroke:#1B1B1A;stroke-width:1.0416666666666667;" width="157.2917" x="259.6354" y="164.1195"/><rect fill="#1B1B1A" height="8.3333" style="stroke:#1B1B1A;stroke-width:1.0416666666666667;" width="157.2917" x="259.6354" y="187.1745"/><rect codeLine="14" fill="none" height="83.3781" id="PageView" rx="8.3333" ry="8.3333" style="stroke:#5E5E5E;stroke-width:1.0416666666666667;" width="157.2917" x="259.6354" y="164.1195"/><ellipse cx="300.9375" cy="179.8136" fill="#0066CF" rx="10.4167" ry="10.4167" style="stroke:#0086EF;stroke-width:1.0416666666666667;"/><path d="M302.8479,184.2387 Q302.4207,184.4584 301.9507,184.5683 Q301.4807,184.6781 300.9619,184.6781 Q299.1187,184.6781 298.1482,183.4635 Q297.1777,182.2489 297.1777,179.954 Q297.1777,177.653 298.1482,176.4384 Q299.1187,175.2238 300.9619,175.2238 Q301.4807,175.2238 301.9568,175.3337 Q302.4329,175.4435 302.8479,175.6632 L302.8479,177.6652 Q302.384,177.238 301.9476,177.0396 Q301.5112,176.8412 301.0474,176.8412 Q300.0586,176.8412 299.5551,177.6255 Q299.0515,178.4098 299.0515,179.954 Q299.0515,181.4921 299.5551,182.2764 Q300.0586,183.0607 301.0474,183.0607 Q301.5112,183.0607 301.9476,182.8623 Q302.384,182.664 302.8479,182.2367 Z " fill="#000000"/><text fill="#D8BC00" font-family="Open Sans,Avenir,Nunito,Arial,Helvetica,SansSerif" font-size="12.5" font-weight="bold" lengthAdjust="spacing" textLength="60.4167" x="323.5417" y="184.5378">PageView</text><line style="stroke:#5E5E5E;stroke-width:1.5625;" x1="260.6771" x2="415.8854" y1="195.5078" y2="195.5078"/><ellipse cx="271.0938" cy="230.8777" fill="#84BE84" rx="3.125" ry="3.125" style="stroke:#038048;stroke-width:1.0416666666666667;"/><text fill="#D8BC00" font-family="Open Sans,Avenir,Nunito,Arial,Helvetica,SansSerif" font-size="11.4583" lengthAdjust="spacing" textLength="125" x="282.5521" y="237.7889">PageView(String, Page)</text><line style="stroke:#5E5E5E;stroke-width:1.0416666666666667;" x1="260.6771" x2="294.5313" y1="213.7136" y2="213.7136"/><text fill="#D8BC00" font-family="Open Sans,Avenir,Nunito,Arial,Helvetica,SansSerif" font-size="11.4583" lengthAdjust="spacing" textLength="81.25" x="297.6563" y="217.5232">(constructors)</text><line style="stroke:#5E5E5E;stroke-width:1.0416666666666667;" x1="382.0313" x2="415.8854" y1="213.7136" y2="213.7136"/><!--MD5=[6769a4ab346de8e76e40865599c8529a]
reverse link IClusterable to PageView.ComponentData--><path codeLine="8" d="M137.2396,122.9528 C137.2396,142.7965 137.2396,165.3799 137.2396,181.7757 " fill="none" id="IClusterable-backto-PageView.ComponentData" style="stroke:#545454;stroke-width:1.5625;"/><polygon fill="none" points="129.9479,122.6507,137.2396,101.8174,144.5313,122.6507,129.9479,122.6507" style="stroke:#545454;stroke-width:1.5625;"/><!--MD5=[893217a0e8ca724de99bc9fa1dd23e7a]
reverse link Panel to PageView--><path codeLine="13" d="M338.2813,122.682 C338.2813,136.0778 338.2813,150.7445 338.2813,163.9215 " fill="none" id="Panel-backto-PageView" style="stroke:#545454;stroke-width:1.5625;"/><polygon fill="none" points="330.9896,122.6507,338.2813,101.8174,345.5729,122.6507,330.9896,122.6507" style="stroke:#545454;stroke-width:1.5625;"/><!--MD5=[a5e650fa1fd52349d3ddf484b4c19bc6]
@startuml

    !include lexakai.theme
    
    title "org.apache.wicket.markup.html.debug"
    
    interface IClusterable
    
    IClusterable <|- - PageView.ComponentData
    class PageView.ComponentData
    {
    }
    
    Panel <|- - PageView
    class PageView
    {
        - -(constructors)- -
        +PageView(String, Page)
    }
    
@enduml

@startuml









skinparam backgroundColor #333333






skinparam  {
    defaultFontName   "Open Sans,Avenir,Nunito,Arial,Helvetica,SansSerif"
    defaultFontSize   12
    defaultTextAlignment left
    shadowing false
    RoundCorner 10
    TitleFontSize 18
}

skinparam defaultFontName       "Open Sans,Avenir,Nunito,Arial,Helvetica,SansSerif"
skinparam defaultFontSize       12
skinparam dpi                   100
skinparam shadowing             false
skinparam roundcorner           16
skinparam ParticipantPadding    40
skinparam BoxPadding            40
skinparam Padding               3
skinparam ArrowColor            #545454
skinparam stereotype {
    CBackgroundColor #0066cf
    CBorderColor #0086ef
    ABackgroundColor #C8Ac00
    ABorderColor #D8Bc00
    IBackgroundColor #008400
    IBorderColor #239c23
    EBackgroundColor #cf6300
    EBorderColor #ef8300
    NBackgroundColor #3380b9
    NBorderColor #004d86
}
skinparam title {
	FontColor	                 #c0c0c0
 	BorderColor                  #545454
	FontSize	    	         20
	BorderRoundCorner            16
	BorderThickness 	         1
	BackgroundColor              #48494b
}


skinparam legend {
	BackgroundColor #303030
	BorderColor #404040
	FontColor #a0a0a0
}

	skinparam swimlane {
	BorderColor #5e5e5e
	BorderThickness 2
	TitleBackgroundColor  #6d6d6d-#484848
	TitleFontColor #303030
}

skinparam activity {
		FontColor #C8Ac00
	BorderColor #333333
	BackgroundColor #333333-#333333
	BarColor #00FF00
	StartColor #0060a8
	EndColor #0060a8
	DiamondBackgroundColor #6d6d6d-#3a3a3a
  	DiamondBorderColor #3a3a3a
  	DiamondFontColor #fefefe
}


skinparam participant {
		FontColor #C8Ac00
	BorderColor #333333
	BackgroundColor #333333-#333333
	ParticipantBorderThickness 2
}


skinparam actor {
		FontColor #C8Ac00
	BorderColor #333333
	BackgroundColor #333333-#333333
}


skinparam arrow {
	Thickness 1.5
	Color #545454
	FontColor #a0a0a0
    FontStyle bold
    MessageAlignment center
}



skinparam sequence {
	BorderColor #303030
	TitleFontColor #303030
	BackgroundColor #333333
	StartColor #303030
	EndColor #303030
	BoxBackgroundColor #333333
	BoxBorderColor #484848
	BoxFontColor #484848
	LifeLineBorderColor #484848
	LifeLineBorderThickness 2
	LifeLineBackgroundColor #3a3a3a
	GroupBorderColor #484848
	GroupFontColor #484848
	GroupHeaderFontColor #0060a8
	GroupBackgroundColor #484848
	GroupHeaderBackgroundColor #333333
	DividerBackgroundColor #484848
    DividerBorderColor #484848
    DividerBorderThickness 2
    DividerFontColor #D8Bc00
	ReferenceBackgroundColor #333333
	ReferenceBorderColor #484848
	ReferenceFontColor #fefefe
	ReferenceHeaderBackgroundColor #484848
}


skinparam partition {
	BorderColor #303030
	FontColor #333333
	BackgroundColor #333333
}


skinparam collections {
		FontColor #C8Ac00
	BorderColor #333333
	BackgroundColor #333333-#333333
}


skinparam control {
		FontColor #C8Ac00
	BorderColor #333333
	BackgroundColor #333333-#333333
}


skinparam entity {
		FontColor #C8Ac00
	BorderColor #333333
	BackgroundColor #333333-#333333
}


skinparam boundary {
		FontColor #C8Ac00
	BorderColor #333333
	BackgroundColor #333333-#333333
}


skinparam agent {
	BackgroundColor #ff8000
	BorderColor #ff9933
	FontColor #484848
}


skinparam note {
	BorderThickness 1
	BackgroundColor #1b1b1a
	BorderColor #5e5e5e
	FontSize 11
	FontColor #a0a0a0
}


skinparam artifact {
	BorderThickness 10
	BorderColor #5e5e5e
	BackgroundColor #1b1b1a
	FontColor #D8Bc00
}


skinparam component {
		FontColor #C8Ac00
	BorderColor #333333
	BackgroundColor #333333-#333333
}


skinparam interface {
	BackgroundColor  #008400
	BorderColor  #007F00
	FontColor #484848
}


skinparam storage {
	BackgroundColor #ff8000
  	BorderColor #cc6600
	FontColor #222222
}


skinparam node {
	BackgroundColor #333333
	BorderColor #333333
	FontColor #C8Ac00
}


skinparam cloud {
	BackgroundColor #484848-black
	BorderColor #484848
	FontColor #D8Bc00
}


skinparam database {
		FontColor #C8Ac00
	BorderColor #333333
	BackgroundColor #333333-#333333
	BackgroundColor  #333333
}


skinparam class {
		FontColor #C8Ac00
	BorderColor #333333
	BackgroundColor #333333-#333333
	HeaderBackgroundColor #1b1b1a
    BackgroundColor #282828
    BorderColor #5e5e5e
 	StereotypeFontColor #a0a0a0
    StereotypeFontStyle bold
	BorderThickness 1
	AttributeFontColor #D8Bc00
	AttributeFontSize 11
    FontColor #D8Bc00
    FontStyle bold
}


skinparam object {
		FontColor #C8Ac00
	BorderColor #333333
	BackgroundColor #333333-#333333
	StereotypeFontColor #484848
	BorderThickness 1
	AttributeFontColor #fefefe
	AttributeFontSize 11
}


skinparam usecase {
		FontColor #C8Ac00
	BorderColor #333333
	BackgroundColor #333333-#333333
	BorderThickness 2
	StereotypeFontColor #303030
}


skinparam rectangle {
		FontColor #C8Ac00
	BorderColor #333333
	BackgroundColor #333333-#333333
	BackgroundColor #333333
	BorderThickness 2
	StereotypeFontColor #303030
}


skinparam package {
		FontColor #C8Ac00
	BorderColor #333333
	BackgroundColor #333333-#333333
	BackgroundColor #333333
	BorderThickness 2
}


skinparam folder {
	BackgroundColor #6d6d6d
  	BorderColor #ff8000
	FontColor #ff8000
	BorderThickness 2
}


skinparam frame {
	BackgroundColor #6d6d6d
  	BorderColor #0060a8
	FontColor #0060a8
	BorderThickness 2
}


skinparam state {
		FontColor #C8Ac00
	BorderColor #333333
	BackgroundColor #333333-#333333
	StartColor #0060a8
	EndColor #0060a8
	AttributeFontColor #fefefe
	AttributeFontSize 11
}


skinparam queue {
		FontColor #C8Ac00
	BorderColor #333333
	BackgroundColor #333333-#333333
}


skinparam card {
	BackgroundColor #0060a8
	BorderColor #004d86
	FontColor $INFO_TEXT
}


skinparam file {
	BackgroundColor #6d6d6d-#484848
	BorderColor #0060a8
	FontColor #fefefe
}


skinparam stack {
		FontColor #C8Ac00
	BorderColor #333333
	BackgroundColor #333333-#333333
}

    
    title "org.apache.wicket.markup.html.debug"
    
    interface IClusterable
    
    IClusterable <|- - PageView.ComponentData
    class PageView.ComponentData
    {
    }
    
    Panel <|- - PageView
    class PageView
    {
        - -(constructors)- -
        +PageView(String, Page)
    }
    
@enduml

PlantUML version 1.2021.01(Tue Feb 02 00:55:08 MST 2021)
(GPL source distribution)
Java Runtime: Java(TM) SE Runtime Environment
JVM: Java HotSpot(TM) 64-Bit Server VM
Default Encoding: UTF-8
Language: en
Country: US
--></g></svg>