<?xml version="1.0" encoding="UTF-8" standalone="no"?><svg xmlns="http://www.w3.org/2000/svg" xmlns:xlink="http://www.w3.org/1999/xlink" contentScriptType="application/ecmascript" contentStyleType="text/css" height="405.2083px" preserveAspectRatio="none" style="width:1275px;height:405px;background:#333333;" version="1.1" viewBox="0 0 1275 405" width="1275px" zoomAndPan="magnify"><defs/><g><rect fill="#48494B" height="41.2028" rx="8.3333" ry="8.3333" style="stroke:#545454;stroke-width:1.0416666666666667;" width="413.5417" x="423.6979" y="2.0833"/><text fill="#C0C0C0" font-family="Open Sans,Avenir,Nunito,Arial,Helvetica,SansSerif" font-size="20.8333" lengthAdjust="spacing" textLength="390.625" x="435.1563" y="30.5583">org.apache.wicket.markup.html.border</text><!--MD5=[10855512c6a227d231f945a3e64b5deb]
class IQueueRegion--><rect codeLine="6" fill="#282828" height="48.055" id="IQueueRegion" rx="8.3333" ry="8.3333" style="stroke:#5E5E5E;stroke-width:1.0416666666666667;" width="128.125" x="227.6042" y="53.7028"/><rect fill="#1B1B1A" height="31.3883" rx="8.3333" ry="8.3333" style="stroke:#1B1B1A;stroke-width:1.0416666666666667;" width="128.125" x="227.6042" y="53.7028"/><rect fill="#1B1B1A" height="8.3333" style="stroke:#1B1B1A;stroke-width:1.0416666666666667;" width="128.125" x="227.6042" y="76.7578"/><rect codeLine="6" fill="none" height="48.055" id="IQueueRegion" rx="8.3333" ry="8.3333" style="stroke:#5E5E5E;stroke-width:1.0416666666666667;" width="128.125" x="227.6042" y="53.7028"/><ellipse cx="242.1875" cy="69.397" fill="#008400" rx="10.4167" ry="10.4167" style="stroke:#239C23;stroke-width:1.0416666666666667;"/><path d="M239.5915,66.5588 L239.5915,64.9719 L245.0175,64.9719 L245.0175,66.5588 L243.2048,66.5588 L243.2048,72.4976 L245.0175,72.4976 L245.0175,74.0845 L239.5915,74.0845 L239.5915,72.4976 L241.4042,72.4976 L241.4042,66.5588 Z " fill="#000000"/><text fill="#D8BC00" font-family="Open Sans,Avenir,Nunito,Arial,Helvetica,SansSerif" font-size="12.5" font-style="italic" font-weight="bold" lengthAdjust="spacing" textLength="90.625" x="258.8542" y="74.1211">IQueueRegion</text><line style="stroke:#5E5E5E;stroke-width:1.0416666666666667;" x1="228.6458" x2="354.6875" y1="85.0911" y2="85.0911"/><line style="stroke:#5E5E5E;stroke-width:1.0416666666666667;" x1="228.6458" x2="354.6875" y1="93.4245" y2="93.4245"/><!--MD5=[faa5296fcc9258ba3a8620c5700269d5]
class IComponentResolver--><rect codeLine="7" fill="#282828" height="48.055" id="IComponentResolver" rx="8.3333" ry="8.3333" style="stroke:#5E5E5E;stroke-width:1.0416666666666667;" width="172.9167" x="17.7083" y="53.7028"/><rect fill="#1B1B1A" height="31.3883" rx="8.3333" ry="8.3333" style="stroke:#1B1B1A;stroke-width:1.0416666666666667;" width="172.9167" x="17.7083" y="53.7028"/><rect fill="#1B1B1A" height="8.3333" style="stroke:#1B1B1A;stroke-width:1.0416666666666667;" width="172.9167" x="17.7083" y="76.7578"/><rect codeLine="7" fill="none" height="48.055" id="IComponentResolver" rx="8.3333" ry="8.3333" style="stroke:#5E5E5E;stroke-width:1.0416666666666667;" width="172.9167" x="17.7083" y="53.7028"/><ellipse cx="32.2917" cy="69.397" fill="#008400" rx="10.4167" ry="10.4167" style="stroke:#239C23;stroke-width:1.0416666666666667;"/><path d="M29.6956,66.5588 L29.6956,64.9719 L35.1217,64.9719 L35.1217,66.5588 L33.3089,66.5588 L33.3089,72.4976 L35.1217,72.4976 L35.1217,74.0845 L29.6956,74.0845 L29.6956,72.4976 L31.5084,72.4976 L31.5084,66.5588 Z " fill="#000000"/><text fill="#D8BC00" font-family="Open Sans,Avenir,Nunito,Arial,Helvetica,SansSerif" font-size="12.5" font-style="italic" font-weight="bold" lengthAdjust="spacing" textLength="135.4167" x="48.9583" y="74.1211">IComponentResolver</text><line style="stroke:#5E5E5E;stroke-width:1.0416666666666667;" x1="18.75" x2="189.5833" y1="85.0911" y2="85.0911"/><line style="stroke:#5E5E5E;stroke-width:1.0416666666666667;" x1="18.75" x2="189.5833" y1="93.4245" y2="93.4245"/><!--MD5=[48b1bd5d531db141ae627bfe1d3aa0cf]
class WebMarkupContainer--><rect fill="#282828" height="48.055" id="WebMarkupContainer" rx="8.3333" ry="8.3333" style="stroke:#5E5E5E;stroke-width:1.0416666666666667;" width="177.0833" x="392.7083" y="53.7028"/><rect fill="#1B1B1A" height="31.3883" rx="8.3333" ry="8.3333" style="stroke:#1B1B1A;stroke-width:1.0416666666666667;" width="177.0833" x="392.7083" y="53.7028"/><rect fill="#1B1B1A" height="8.3333" style="stroke:#1B1B1A;stroke-width:1.0416666666666667;" width="177.0833" x="392.7083" y="76.7578"/><rect fill="none" height="48.055" id="WebMarkupContainer" rx="8.3333" ry="8.3333" style="stroke:#5E5E5E;stroke-width:1.0416666666666667;" width="177.0833" x="392.7083" y="53.7028"/><ellipse cx="407.2917" cy="69.397" fill="#0066CF" rx="10.4167" ry="10.4167" style="stroke:#0086EF;stroke-width:1.0416666666666667;"/><path d="M409.2021,73.822 Q408.7748,74.0417 408.3049,74.1516 Q407.8349,74.2615 407.3161,74.2615 Q405.4728,74.2615 404.5024,73.0469 Q403.5319,71.8323 403.5319,69.5374 Q403.5319,67.2363 404.5024,66.0217 Q405.4728,64.8071 407.3161,64.8071 Q407.8349,64.8071 408.311,64.917 Q408.787,65.0269 409.2021,65.2466 L409.2021,67.2485 Q408.7382,66.8213 408.3018,66.6229 Q407.8654,66.4246 407.4015,66.4246 Q406.4128,66.4246 405.9092,67.2089 Q405.4057,67.9932 405.4057,69.5374 Q405.4057,71.0754 405.9092,71.8597 Q406.4128,72.644 407.4015,72.644 Q407.8654,72.644 408.3018,72.4457 Q408.7382,72.2473 409.2021,71.8201 Z " fill="#000000"/><text fill="#D8BC00" font-family="Open Sans,Avenir,Nunito,Arial,Helvetica,SansSerif" font-size="12.5" font-weight="bold" lengthAdjust="spacing" textLength="139.5833" x="423.9583" y="74.1211">WebMarkupContainer</text><line style="stroke:#5E5E5E;stroke-width:1.0416666666666667;" x1="393.75" x2="568.75" y1="85.0911" y2="85.0911"/><line style="stroke:#5E5E5E;stroke-width:1.0416666666666667;" x1="393.75" x2="568.75" y1="93.4245" y2="93.4245"/><!--MD5=[aebfb5ed06bf0acd9902aeebb8224243]
class Body--><rect codeLine="10" fill="#282828" height="103.123" id="Body" rx="8.3333" ry="8.3333" style="stroke:#5E5E5E;stroke-width:1.0416666666666667;" width="270.8333" x="565.625" y="229.7445"/><rect fill="#1B1B1A" height="31.3883" rx="8.3333" ry="8.3333" style="stroke:#1B1B1A;stroke-width:1.0416666666666667;" width="270.8333" x="565.625" y="229.7445"/><rect fill="#1B1B1A" height="8.3333" style="stroke:#1B1B1A;stroke-width:1.0416666666666667;" width="270.8333" x="565.625" y="252.7995"/><rect codeLine="10" fill="none" height="103.123" id="Body" rx="8.3333" ry="8.3333" style="stroke:#5E5E5E;stroke-width:1.0416666666666667;" width="270.8333" x="565.625" y="229.7445"/><ellipse cx="677.6042" cy="245.4386" fill="#0066CF" rx="10.4167" ry="10.4167" style="stroke:#0086EF;stroke-width:1.0416666666666667;"/><path d="M679.5146,249.8637 Q679.0873,250.0834 678.6174,250.1933 Q678.1474,250.3031 677.6286,250.3031 Q675.7853,250.3031 674.8149,249.0885 Q673.8444,247.8739 673.8444,245.579 Q673.8444,243.278 674.8149,242.0634 Q675.7853,240.8488 677.6286,240.8488 Q678.1474,240.8488 678.6235,240.9587 Q679.0995,241.0685 679.5146,241.2882 L679.5146,243.2902 Q679.0507,242.863 678.6143,242.6646 Q678.1779,242.4662 677.714,242.4662 Q676.7253,242.4662 676.2217,243.2505 Q675.7182,244.0348 675.7182,245.579 Q675.7182,247.1171 676.2217,247.9014 Q676.7253,248.6857 677.714,248.6857 Q678.1779,248.6857 678.6143,248.4873 Q679.0507,248.289 679.5146,247.8617 Z " fill="#000000"/><text fill="#D8BC00" font-family="Open Sans,Avenir,Nunito,Arial,Helvetica,SansSerif" font-size="12.5" font-weight="bold" lengthAdjust="spacing" textLength="32.2917" x="700.5208" y="250.1628">Body</text><line style="stroke:#5E5E5E;stroke-width:1.5625;" x1="566.6667" x2="835.4167" y1="261.1328" y2="261.1328"/><ellipse cx="577.0833" cy="296.5027" fill="#84BE84" rx="3.125" ry="3.125" style="stroke:#038048;stroke-width:1.0416666666666667;"/><text fill="#D8BC00" font-family="Open Sans,Avenir,Nunito,Arial,Helvetica,SansSerif" font-size="11.4583" lengthAdjust="spacing" textLength="171.875" x="588.5417" y="303.4139">Body(String, MarkupContainer)</text><ellipse cx="577.0833" cy="316.2476" fill="#84BE84" rx="3.125" ry="3.125" style="stroke:#038048;stroke-width:1.0416666666666667;"/><text fill="#D8BC00" font-family="Open Sans,Avenir,Nunito,Arial,Helvetica,SansSerif" font-size="11.4583" lengthAdjust="spacing" textLength="238.5417" x="588.5417" y="323.1588">Body(String, IModel&lt;?&gt;, MarkupContainer)</text><line style="stroke:#5E5E5E;stroke-width:1.0416666666666667;" x1="566.6667" x2="657.2917" y1="279.3386" y2="279.3386"/><text fill="#D8BC00" font-family="Open Sans,Avenir,Nunito,Arial,Helvetica,SansSerif" font-size="11.4583" lengthAdjust="spacing" textLength="81.25" x="660.4167" y="283.1482">(constructors)</text><line style="stroke:#5E5E5E;stroke-width:1.0416666666666667;" x1="744.7917" x2="835.4167" y1="279.3386" y2="279.3386"/><!--MD5=[a0336aaa8110b78d9cacadb9d45e00a3]
class Border--><rect codeLine="20" fill="#282828" height="234.0922" id="Border" rx="8.3333" ry="8.3333" style="stroke:#5E5E5E;stroke-width:1.0416666666666667;" width="291.6667" x="7.2917" y="164.1195"/><rect fill="#1B1B1A" height="31.3883" rx="8.3333" ry="8.3333" style="stroke:#1B1B1A;stroke-width:1.0416666666666667;" width="291.6667" x="7.2917" y="164.1195"/><rect fill="#1B1B1A" height="8.3333" style="stroke:#1B1B1A;stroke-width:1.0416666666666667;" width="291.6667" x="7.2917" y="187.1745"/><rect codeLine="20" fill="none" height="234.0922" id="Border" rx="8.3333" ry="8.3333" style="stroke:#5E5E5E;stroke-width:1.0416666666666667;" width="291.6667" x="7.2917" y="164.1195"/><ellipse cx="124.4792" cy="179.8136" fill="#C8AC00" rx="10.4167" ry="10.4167" style="stroke:#D8BC00;stroke-width:1.0416666666666667;"/><path d="M124.0723,176.5157 L123.2239,180.245 L124.9268,180.245 Z M122.9736,174.8678 L125.177,174.8678 L127.6367,183.9803 L125.8362,183.9803 L125.2747,181.7281 L122.8638,181.7281 L122.3145,183.9803 L120.5139,183.9803 Z " fill="#000000"/><text fill="#D8BC00" font-family="Open Sans,Avenir,Nunito,Arial,Helvetica,SansSerif" font-size="12.5" font-style="italic" font-weight="bold" lengthAdjust="spacing" textLength="42.7083" x="147.3958" y="184.5378">Border</text><line style="stroke:#5E5E5E;stroke-width:1.5625;" x1="8.3333" x2="297.9167" y1="195.5078" y2="195.5078"/><ellipse cx="18.75" cy="230.8777" fill="#84BE84" rx="3.125" ry="3.125" style="stroke:#038048;stroke-width:1.0416666666666667;"/><text fill="#D8BC00" font-family="Open Sans,Avenir,Nunito,Arial,Helvetica,SansSerif" font-size="11.4583" lengthAdjust="spacing" textLength="79.1667" x="30.2083" y="237.7889">Border(String)</text><ellipse cx="18.75" cy="250.6226" fill="#84BE84" rx="3.125" ry="3.125" style="stroke:#038048;stroke-width:1.0416666666666667;"/><text fill="#D8BC00" font-family="Open Sans,Avenir,Nunito,Arial,Helvetica,SansSerif" font-size="11.4583" lengthAdjust="spacing" textLength="145.8333" x="30.2083" y="257.5338">Border(String, IModel&lt;?&gt;)</text><line style="stroke:#5E5E5E;stroke-width:1.0416666666666667;" x1="8.3333" x2="109.375" y1="213.7136" y2="213.7136"/><text fill="#D8BC00" font-family="Open Sans,Avenir,Nunito,Arial,Helvetica,SansSerif" font-size="11.4583" lengthAdjust="spacing" textLength="81.25" x="112.5" y="217.5232">(constructors)</text><line style="stroke:#5E5E5E;stroke-width:1.0416666666666667;" x1="196.875" x2="297.9167" y1="213.7136" y2="213.7136"/><line style="stroke:#5E5E5E;stroke-width:1.0416666666666667;" x1="8.3333" x2="297.9167" y1="267.2424" y2="267.2424"/><ellipse cx="18.75" cy="278.7008" fill="#84BE84" rx="3.125" ry="3.125" style="stroke:#038048;stroke-width:1.0416666666666667;"/><text fill="#D8BC00" font-family="Open Sans,Avenir,Nunito,Arial,Helvetica,SansSerif" font-size="11.4583" lengthAdjust="spacing" textLength="231.25" x="30.2083" y="285.612">BorderBodyContainer getBodyContainer()</text><ellipse cx="18.75" cy="298.4456" fill="#84BE84" rx="3.125" ry="3.125" style="stroke:#038048;stroke-width:1.0416666666666667;"/><text fill="#D8BC00" font-family="Open Sans,Avenir,Nunito,Arial,Helvetica,SansSerif" font-size="11.4583" lengthAdjust="spacing" textLength="259.375" x="30.2083" y="305.3569">Border queueToBorder(Component... children)</text><ellipse cx="18.75" cy="318.1905" fill="#84BE84" rx="3.125" ry="3.125" style="stroke:#038048;stroke-width:1.0416666666666667;"/><text fill="#D8BC00" font-family="Open Sans,Avenir,Nunito,Arial,Helvetica,SansSerif" font-size="11.4583" lengthAdjust="spacing" textLength="203.125" x="30.2083" y="325.1017">Border replaceInBorder(Component)</text><ellipse cx="18.75" cy="361.8469" fill="#84BE84" rx="3.125" ry="3.125" style="stroke:#038048;stroke-width:1.0416666666666667;"/><text fill="#D8BC00" font-family="Open Sans,Avenir,Nunito,Arial,Helvetica,SansSerif" font-size="11.4583" lengthAdjust="spacing" textLength="245.8333" x="30.2083" y="368.7581">Border addToBorder(Component... children)</text><ellipse cx="18.75" cy="381.5918" fill="#84BE84" rx="3.125" ry="3.125" style="stroke:#038048;stroke-width:1.0416666666666667;"/><text fill="#D8BC00" font-family="Open Sans,Avenir,Nunito,Arial,Helvetica,SansSerif" font-size="11.4583" lengthAdjust="spacing" textLength="253.125" x="30.2083" y="388.503">Border removeFromBorder(Component child)</text><line style="stroke:#5E5E5E;stroke-width:1.0416666666666667;" x1="8.3333" x2="118.75" y1="344.6828" y2="344.6828"/><text fill="#D8BC00" font-family="Open Sans,Avenir,Nunito,Arial,Helvetica,SansSerif" font-size="11.4583" lengthAdjust="spacing" textLength="62.5" x="121.875" y="348.4924">(collection)</text><line style="stroke:#5E5E5E;stroke-width:1.0416666666666667;" x1="187.5" x2="297.9167" y1="344.6828" y2="344.6828"/><!--MD5=[9ec104ddfc62073059e345d4e82bb5a8]
class Behavior--><rect fill="#282828" height="48.055" id="Behavior" rx="8.3333" ry="8.3333" style="stroke:#5E5E5E;stroke-width:1.0416666666666667;" width="93.75" x="894.7917" y="53.7028"/><rect fill="#1B1B1A" height="31.3883" rx="8.3333" ry="8.3333" style="stroke:#1B1B1A;stroke-width:1.0416666666666667;" width="93.75" x="894.7917" y="53.7028"/><rect fill="#1B1B1A" height="8.3333" style="stroke:#1B1B1A;stroke-width:1.0416666666666667;" width="93.75" x="894.7917" y="76.7578"/><rect fill="none" height="48.055" id="Behavior" rx="8.3333" ry="8.3333" style="stroke:#5E5E5E;stroke-width:1.0416666666666667;" width="93.75" x="894.7917" y="53.7028"/><ellipse cx="909.375" cy="69.397" fill="#0066CF" rx="10.4167" ry="10.4167" style="stroke:#0086EF;stroke-width:1.0416666666666667;"/><path d="M911.2854,73.822 Q910.8582,74.0417 910.3882,74.1516 Q909.9182,74.2615 909.3994,74.2615 Q907.5562,74.2615 906.5857,73.0469 Q905.6152,71.8323 905.6152,69.5374 Q905.6152,67.2363 906.5857,66.0217 Q907.5562,64.8071 909.3994,64.8071 Q909.9182,64.8071 910.3943,64.917 Q910.8704,65.0269 911.2854,65.2466 L911.2854,67.2485 Q910.8215,66.8213 910.3851,66.6229 Q909.9487,66.4246 909.4849,66.4246 Q908.4961,66.4246 907.9926,67.2089 Q907.489,67.9932 907.489,69.5374 Q907.489,71.0754 907.9926,71.8597 Q908.4961,72.644 909.4849,72.644 Q909.9487,72.644 910.3851,72.4457 Q910.8215,72.2473 911.2854,71.8201 Z " fill="#000000"/><text fill="#D8BC00" font-family="Open Sans,Avenir,Nunito,Arial,Helvetica,SansSerif" font-size="12.5" font-weight="bold" lengthAdjust="spacing" textLength="56.25" x="926.0417" y="74.1211">Behavior</text><line style="stroke:#5E5E5E;stroke-width:1.0416666666666667;" x1="895.8333" x2="987.5" y1="85.0911" y2="85.0911"/><line style="stroke:#5E5E5E;stroke-width:1.0416666666666667;" x1="895.8333" x2="987.5" y1="93.4245" y2="93.4245"/><!--MD5=[8ccb270778ab0b168cd56a97bfaa7338]
class BorderBehavior--><rect codeLine="35" fill="#282828" height="48.055" id="BorderBehavior" rx="8.3333" ry="8.3333" style="stroke:#5E5E5E;stroke-width:1.0416666666666667;" width="136.4583" x="873.4375" y="257.3486"/><rect fill="#1B1B1A" height="31.3883" rx="8.3333" ry="8.3333" style="stroke:#1B1B1A;stroke-width:1.0416666666666667;" width="136.4583" x="873.4375" y="257.3486"/><rect fill="#1B1B1A" height="8.3333" style="stroke:#1B1B1A;stroke-width:1.0416666666666667;" width="136.4583" x="873.4375" y="280.4036"/><rect codeLine="35" fill="none" height="48.055" id="BorderBehavior" rx="8.3333" ry="8.3333" style="stroke:#5E5E5E;stroke-width:1.0416666666666667;" width="136.4583" x="873.4375" y="257.3486"/><ellipse cx="888.0208" cy="273.0428" fill="#0066CF" rx="10.4167" ry="10.4167" style="stroke:#0086EF;stroke-width:1.0416666666666667;"/><path d="M889.9312,277.4679 Q889.504,277.6876 889.034,277.7974 Q888.564,277.9073 888.0452,277.9073 Q886.202,277.9073 885.2315,276.6927 Q884.2611,275.4781 884.2611,273.1832 Q884.2611,270.8822 885.2315,269.6676 Q886.202,268.453 888.0452,268.453 Q888.564,268.453 889.0401,268.5628 Q889.5162,268.6727 889.9312,268.8924 L889.9312,270.8944 Q889.4674,270.4671 889.031,270.2688 Q888.5946,270.0704 888.1307,270.0704 Q887.1419,270.0704 886.6384,270.8547 Q886.1348,271.639 886.1348,273.1832 Q886.1348,274.7213 886.6384,275.5056 Q887.1419,276.2899 888.1307,276.2899 Q888.5946,276.2899 889.031,276.0915 Q889.4674,275.8931 889.9312,275.4659 Z " fill="#000000"/><text fill="#D8BC00" font-family="Open Sans,Avenir,Nunito,Arial,Helvetica,SansSerif" font-size="12.5" font-weight="bold" lengthAdjust="spacing" textLength="98.9583" x="904.6875" y="277.7669">BorderBehavior</text><line style="stroke:#5E5E5E;stroke-width:1.0416666666666667;" x1="874.4792" x2="1008.8542" y1="288.737" y2="288.737"/><line style="stroke:#5E5E5E;stroke-width:1.0416666666666667;" x1="874.4792" x2="1008.8542" y1="297.0703" y2="297.0703"/><!--MD5=[f8dd98534b4616238dd2341aa5685e36]
class Border.BorderBodyContainer--><rect codeLine="41" fill="#282828" height="83.3781" id="Border.BorderBodyContainer" rx="8.3333" ry="8.3333" style="stroke:#5E5E5E;stroke-width:1.0416666666666667;" width="193.75" x="335.4167" y="239.6403"/><rect fill="#1B1B1A" height="31.3883" rx="8.3333" ry="8.3333" style="stroke:#1B1B1A;stroke-width:1.0416666666666667;" width="193.75" x="335.4167" y="239.6403"/><rect fill="#1B1B1A" height="8.3333" style="stroke:#1B1B1A;stroke-width:1.0416666666666667;" width="193.75" x="335.4167" y="262.6953"/><rect codeLine="41" fill="none" height="83.3781" id="Border.BorderBodyContainer" rx="8.3333" ry="8.3333" style="stroke:#5E5E5E;stroke-width:1.0416666666666667;" width="193.75" x="335.4167" y="239.6403"/><ellipse cx="357.9688" cy="255.3345" fill="#0066CF" rx="10.4167" ry="10.4167" style="stroke:#0086EF;stroke-width:1.0416666666666667;"/><path d="M359.8792,259.7595 Q359.4519,259.9792 358.9819,260.0891 Q358.512,260.199 357.9932,260.199 Q356.1499,260.199 355.1794,258.9844 Q354.209,257.7698 354.209,255.4749 Q354.209,253.1738 355.1794,251.9592 Q356.1499,250.7446 357.9932,250.7446 Q358.512,250.7446 358.988,250.8545 Q359.4641,250.9644 359.8792,251.1841 L359.8792,253.186 Q359.4153,252.7588 358.9789,252.5604 Q358.5425,252.3621 358.0786,252.3621 Q357.0898,252.3621 356.5863,253.1464 Q356.0828,253.9307 356.0828,255.4749 Q356.0828,257.0129 356.5863,257.7972 Q357.0898,258.5815 358.0786,258.5815 Q358.5425,258.5815 358.9789,258.3832 Q359.4153,258.1848 359.8792,257.7576 Z " fill="#000000"/><text fill="#D8BC00" font-family="Open Sans,Avenir,Nunito,Arial,Helvetica,SansSerif" font-size="12.5" font-weight="bold" lengthAdjust="spacing" textLength="138.5417" x="376.4063" y="260.0586">BorderBodyContainer</text><line style="stroke:#5E5E5E;stroke-width:1.5625;" x1="336.4583" x2="528.125" y1="271.0286" y2="271.0286"/><ellipse cx="346.875" cy="306.3985" fill="#84BE84" rx="3.125" ry="3.125" style="stroke:#038048;stroke-width:1.0416666666666667;"/><text fill="#D8BC00" font-family="Open Sans,Avenir,Nunito,Arial,Helvetica,SansSerif" font-size="11.4583" lengthAdjust="spacing" textLength="161.4583" x="358.3333" y="313.3097">BorderBodyContainer(String)</text><line style="stroke:#5E5E5E;stroke-width:1.0416666666666667;" x1="336.4583" x2="388.5417" y1="289.2344" y2="289.2344"/><text fill="#D8BC00" font-family="Open Sans,Avenir,Nunito,Arial,Helvetica,SansSerif" font-size="11.4583" lengthAdjust="spacing" textLength="81.25" x="391.6667" y="293.044">(constructors)</text><line style="stroke:#5E5E5E;stroke-width:1.0416666666666667;" x1="476.0417" x2="528.125" y1="289.2344" y2="289.2344"/><!--MD5=[0174392a0c212c3b3e97bee69152624c]
class Panel--><rect fill="#282828" height="48.055" id="Panel" rx="8.3333" ry="8.3333" style="stroke:#5E5E5E;stroke-width:1.0416666666666667;" width="71.875" x="1121.3542" y="53.7028"/><rect fill="#1B1B1A" height="31.3883" rx="8.3333" ry="8.3333" style="stroke:#1B1B1A;stroke-width:1.0416666666666667;" width="71.875" x="1121.3542" y="53.7028"/><rect fill="#1B1B1A" height="8.3333" style="stroke:#1B1B1A;stroke-width:1.0416666666666667;" width="71.875" x="1121.3542" y="76.7578"/><rect fill="none" height="48.055" id="Panel" rx="8.3333" ry="8.3333" style="stroke:#5E5E5E;stroke-width:1.0416666666666667;" width="71.875" x="1121.3542" y="53.7028"/><ellipse cx="1135.9375" cy="69.397" fill="#0066CF" rx="10.4167" ry="10.4167" style="stroke:#0086EF;stroke-width:1.0416666666666667;"/><path d="M1137.8479,73.822 Q1137.4207,74.0417 1136.9507,74.1516 Q1136.4807,74.2615 1135.9619,74.2615 Q1134.1187,74.2615 1133.1482,73.0469 Q1132.1777,71.8323 1132.1777,69.5374 Q1132.1777,67.2363 1133.1482,66.0217 Q1134.1187,64.8071 1135.9619,64.8071 Q1136.4807,64.8071 1136.9568,64.917 Q1137.4329,65.0269 1137.8479,65.2466 L1137.8479,67.2485 Q1137.384,66.8213 1136.9476,66.6229 Q1136.5112,66.4246 1136.0474,66.4246 Q1135.0586,66.4246 1134.5551,67.2089 Q1134.0515,67.9932 1134.0515,69.5374 Q1134.0515,71.0754 1134.5551,71.8597 Q1135.0586,72.644 1136.0474,72.644 Q1136.5112,72.644 1136.9476,72.4457 Q1137.384,72.2473 1137.8479,71.8201 Z " fill="#000000"/><text fill="#D8BC00" font-family="Open Sans,Avenir,Nunito,Arial,Helvetica,SansSerif" font-size="12.5" font-weight="bold" lengthAdjust="spacing" textLength="34.375" x="1152.6042" y="74.1211">Panel</text><line style="stroke:#5E5E5E;stroke-width:1.0416666666666667;" x1="1122.3958" x2="1192.1875" y1="85.0911" y2="85.0911"/><line style="stroke:#5E5E5E;stroke-width:1.0416666666666667;" x1="1122.3958" x2="1192.1875" y1="93.4245" y2="93.4245"/><!--MD5=[0de7b731e03d65e722e9c8bf322601ea]
class BorderPanel--><rect codeLine="48" fill="#282828" height="194.6025" id="BorderPanel" rx="8.3333" ry="8.3333" style="stroke:#5E5E5E;stroke-width:1.0416666666666667;" width="221.875" x="1046.3542" y="183.9111"/><rect fill="#1B1B1A" height="31.3883" rx="8.3333" ry="8.3333" style="stroke:#1B1B1A;stroke-width:1.0416666666666667;" width="221.875" x="1046.3542" y="183.9111"/><rect fill="#1B1B1A" height="8.3333" style="stroke:#1B1B1A;stroke-width:1.0416666666666667;" width="221.875" x="1046.3542" y="206.9661"/><rect codeLine="48" fill="none" height="194.6025" id="BorderPanel" rx="8.3333" ry="8.3333" style="stroke:#5E5E5E;stroke-width:1.0416666666666667;" width="221.875" x="1046.3542" y="183.9111"/><ellipse cx="1111.4583" cy="199.6053" fill="#C8AC00" rx="10.4167" ry="10.4167" style="stroke:#D8BC00;stroke-width:1.0416666666666667;"/><path d="M1111.0514,196.3074 L1110.203,200.0366 L1111.9059,200.0366 Z M1109.9528,194.6594 L1112.1562,194.6594 L1114.6159,203.772 L1112.8153,203.772 L1112.2538,201.5198 L1109.8429,201.5198 L1109.2936,203.772 L1107.4931,203.772 Z " fill="#000000"/><text fill="#D8BC00" font-family="Open Sans,Avenir,Nunito,Arial,Helvetica,SansSerif" font-size="12.5" font-style="italic" font-weight="bold" lengthAdjust="spacing" textLength="77.0833" x="1134.375" y="204.3294">BorderPanel</text><line style="stroke:#5E5E5E;stroke-width:1.5625;" x1="1047.3958" x2="1267.1875" y1="215.2995" y2="215.2995"/><ellipse cx="1057.8125" cy="250.6694" fill="#84BE84" rx="3.125" ry="3.125" style="stroke:#038048;stroke-width:1.0416666666666667;"/><text fill="#D8BC00" font-family="Open Sans,Avenir,Nunito,Arial,Helvetica,SansSerif" font-size="11.4583" lengthAdjust="spacing" textLength="108.3333" x="1069.2708" y="257.5806">BorderPanel(String)</text><ellipse cx="1057.8125" cy="270.4142" fill="#84BE84" rx="3.125" ry="3.125" style="stroke:#038048;stroke-width:1.0416666666666667;"/><text fill="#D8BC00" font-family="Open Sans,Avenir,Nunito,Arial,Helvetica,SansSerif" font-size="11.4583" lengthAdjust="spacing" textLength="175" x="1069.2708" y="277.3254">BorderPanel(String, IModel&lt;?&gt;)</text><line style="stroke:#5E5E5E;stroke-width:1.0416666666666667;" x1="1047.3958" x2="1113.5417" y1="233.5052" y2="233.5052"/><text fill="#D8BC00" font-family="Open Sans,Avenir,Nunito,Arial,Helvetica,SansSerif" font-size="11.4583" lengthAdjust="spacing" textLength="81.25" x="1116.6667" y="237.3149">(constructors)</text><line style="stroke:#5E5E5E;stroke-width:1.0416666666666667;" x1="1201.0417" x2="1267.1875" y1="233.5052" y2="233.5052"/><line style="stroke:#5E5E5E;stroke-width:1.0416666666666667;" x1="1047.3958" x2="1267.1875" y1="287.0341" y2="287.0341"/><ellipse cx="1057.8125" cy="298.4924" fill="#84BE84" rx="3.125" ry="3.125" style="stroke:#038048;stroke-width:1.0416666666666667;"/><text fill="#D8BC00" font-family="Open Sans,Avenir,Nunito,Arial,Helvetica,SansSerif" font-size="11.4583" lengthAdjust="spacing" textLength="138.5417" x="1069.2708" y="305.4036">Body getBodyContainer()</text><ellipse cx="1057.8125" cy="318.2373" fill="#84BE84" rx="3.125" ry="3.125" style="stroke:#038048;stroke-width:1.0416666666666667;"/><text fill="#D8BC00" font-family="Open Sans,Avenir,Nunito,Arial,Helvetica,SansSerif" font-size="11.4583" lengthAdjust="spacing" textLength="164.5833" x="1069.2708" y="325.1485">Body setBodyContainer(Body)</text><ellipse cx="1057.8125" cy="361.8937" fill="#84BE84" rx="3.125" ry="3.125" style="stroke:#038048;stroke-width:1.0416666666666667;"/><text fill="#D8BC00" font-family="Open Sans,Avenir,Nunito,Arial,Helvetica,SansSerif" font-size="11.4583" lengthAdjust="spacing" textLength="189.5833" x="1069.2708" y="368.8049">Body newBodyContainer(String id)</text><line style="stroke:#5E5E5E;stroke-width:1.0416666666666667;" x1="1047.3958" x2="1130.2083" y1="344.7296" y2="344.7296"/><text fill="#D8BC00" font-family="Open Sans,Avenir,Nunito,Arial,Helvetica,SansSerif" font-size="11.4583" lengthAdjust="spacing" textLength="47.9167" x="1133.3333" y="348.5392">(factory)</text><line style="stroke:#5E5E5E;stroke-width:1.0416666666666667;" x1="1184.375" x2="1267.1875" y1="344.7296" y2="344.7296"/><!--MD5=[9b6cff7b9f144375e8348b84f5fc1a5d]
reverse link WebMarkupContainer to Body--><path codeLine="9" d="M522.1667,116.2236 C556.9271,148.109 607.1563,194.1611 645.5417,229.3695 " fill="none" id="WebMarkupContainer-backto-Body" style="stroke:#545454;stroke-width:1.5625;"/><polygon fill="none" points="516.8854,121.2757,506.4583,101.8278,526.75,110.5361,516.8854,121.2757" style="stroke:#545454;stroke-width:1.5625;"/><!--MD5=[72d602d488ed6062b9180282fad36e68]
reverse link WebMarkupContainer to Border--><path codeLine="17" d="M413.7813,111.057 C383.5521,126.234 347.7708,145.1299 316.6667,164.1195 C310.875,167.6611 305.0104,171.3278 299.125,175.0986 " fill="none" id="WebMarkupContainer-backto-Border" style="stroke:#545454;stroke-width:1.5625;"/><polygon fill="none" points="410.8438,104.3799,432.75,101.6611,417.3229,117.4424,410.8438,104.3799" style="stroke:#545454;stroke-width:1.5625;"/><!--MD5=[12aed4b3c1c267f62def8459e0b39dac]
reverse link IComponentResolver to Border--><path codeLine="18" d="M114.7396,122.2236 C117.7917,134.7757 121.2708,149.109 124.8646,163.9007 " fill="none" id="IComponentResolver-backto-Border" style="stroke:#545454;stroke-width:1.5625;"/><polygon fill="none" points="107.6146,123.7861,109.7813,101.8278,121.7813,120.3486,107.6146,123.7861" style="stroke:#545454;stroke-width:1.5625;"/><!--MD5=[d719960a50becad2a899048e1afaa62e]
reverse link IQueueRegion to Border--><path codeLine="19" d="M263.6771,119.432 C254.5938,132.6299 244.0313,148.0049 233.1042,163.9007 " fill="none" id="IQueueRegion-backto-Border" style="stroke:#545454;stroke-width:1.5625;"/><polygon fill="none" points="257.9688,114.859,275.7708,101.8278,269.9792,123.1195,257.9688,114.859" style="stroke:#545454;stroke-width:1.5625;"/><!--MD5=[51b8554d6203e26b15d1f25868d2ba69]
reverse link Behavior to BorderBehavior--><path codeLine="34" d="M941.6667,122.8382 C941.6667,164.2132 941.6667,224.4424 941.6667,257.0986 " fill="none" id="Behavior-backto-BorderBehavior" style="stroke:#545454;stroke-width:1.5625;"/><polygon fill="none" points="934.375,122.6611,941.6667,101.8278,948.9583,122.6611,934.375,122.6611" style="stroke:#545454;stroke-width:1.5625;"/><!--MD5=[cca21170172f51532b9fd4f0caf67c89]
reverse link WebMarkupContainer to Border.BorderBodyContainer--><path codeLine="39" d="M470.6354,122.4111 C462.1979,157.1299 450.4896,205.3278 442.2396,239.307 " fill="none" id="WebMarkupContainer-backto-Border.BorderBodyContainer" style="stroke:#545454;stroke-width:1.5625;"/><polygon fill="none" points="463.6354,120.3486,475.6354,101.8278,477.8021,123.7861,463.6354,120.3486" style="stroke:#545454;stroke-width:1.5625;"/><!--MD5=[324bc2e395cce1161c8d279983e3b848]
reverse link IQueueRegion to Border.BorderBodyContainer--><path codeLine="40" d="M319.7708,118.984 C344.125,153.9007 379.2188,204.1924 403.7188,239.307 " fill="none" id="IQueueRegion-backto-Border.BorderBodyContainer" style="stroke:#545454;stroke-width:1.5625;"/><polygon fill="none" points="313.7396,123.0778,307.8021,101.8278,325.6979,114.734,313.7396,123.0778" style="stroke:#545454;stroke-width:1.5625;"/><!--MD5=[8808852ffeb7702f723405586d8725f4]
reverse link Panel to BorderPanel--><path codeLine="47" d="M1157.2917,122.8174 C1157.2917,140.859 1157.2917,162.5049 1157.2917,183.8799 " fill="none" id="Panel-backto-BorderPanel" style="stroke:#545454;stroke-width:1.5625;"/><polygon fill="none" points="1150,122.6611,1157.2917,101.8278,1164.5833,122.6611,1150,122.6611" style="stroke:#545454;stroke-width:1.5625;"/><!--MD5=[5a3fa82738d4eb244abb894b5ad7f4de]
@startuml

    !include lexakai.theme
    
    title "org.apache.wicket.markup.html.border"
    
    interface IQueueRegion
    interface IComponentResolver
    
    WebMarkupContainer <|- - Body
    class Body
    {
        - -(constructors)- -
        +Body(String, MarkupContainer)
        +Body(String, IModel<?>, MarkupContainer)
    }
    
    WebMarkupContainer <|- - Border
    IComponentResolver <|- - Border
    IQueueRegion <|- - Border
    abstract class Border
    {
        - -(constructors)- -
        +Border(String)
        +Border(String, IModel<?>)
        - -
        +BorderBodyContainer getBodyContainer()
        +Border queueToBorder(Component... children)
        +Border replaceInBorder(Component)
        - -(collection)- -
        +Border addToBorder(Component... children)
        +Border removeFromBorder(Component child)
    }
    
    Behavior <|- - BorderBehavior
    class BorderBehavior
    {
    }
    
    WebMarkupContainer <|- - Border.BorderBodyContainer
    IQueueRegion <|- - Border.BorderBodyContainer
    class Border.BorderBodyContainer
    {
        - -(constructors)- -
        +BorderBodyContainer(String)
    }
    
    Panel <|- - BorderPanel
    abstract class BorderPanel
    {
        - -(constructors)- -
        +BorderPanel(String)
        +BorderPanel(String, IModel<?>)
        - -
        +Body getBodyContainer()
        +Body setBodyContainer(Body)
        - -(factory)- -
        +Body newBodyContainer(String id)
    }
    
@enduml

@startuml









skinparam backgroundColor #333333






skinparam  {
    defaultFontName   "Open Sans,Avenir,Nunito,Arial,Helvetica,SansSerif"
    defaultFontSize   12
    defaultTextAlignment left
    shadowing false
    RoundCorner 10
    TitleFontSize 18
}

skinparam defaultFontName       "Open Sans,Avenir,Nunito,Arial,Helvetica,SansSerif"
skinparam defaultFontSize       12
skinparam dpi                   100
skinparam shadowing             false
skinparam roundcorner           16
skinparam ParticipantPadding    40
skinparam BoxPadding            40
skinparam Padding               3
skinparam ArrowColor            #545454
skinparam stereotype {
    CBackgroundColor #0066cf
    CBorderColor #0086ef
    ABackgroundColor #C8Ac00
    ABorderColor #D8Bc00
    IBackgroundColor #008400
    IBorderColor #239c23
    EBackgroundColor #cf6300
    EBorderColor #ef8300
    NBackgroundColor #3380b9
    NBorderColor #004d86
}
skinparam title {
	FontColor	                 #c0c0c0
 	BorderColor                  #545454
	FontSize	    	         20
	BorderRoundCorner            16
	BorderThickness 	         1
	BackgroundColor              #48494b
}


skinparam legend {
	BackgroundColor #303030
	BorderColor #404040
	FontColor #a0a0a0
}

	skinparam swimlane {
	BorderColor #5e5e5e
	BorderThickness 2
	TitleBackgroundColor  #6d6d6d-#484848
	TitleFontColor #303030
}

skinparam activity {
		FontColor #C8Ac00
	BorderColor #333333
	BackgroundColor #333333-#333333
	BarColor #00FF00
	StartColor #0060a8
	EndColor #0060a8
	DiamondBackgroundColor #6d6d6d-#3a3a3a
  	DiamondBorderColor #3a3a3a
  	DiamondFontColor #fefefe
}


skinparam participant {
		FontColor #C8Ac00
	BorderColor #333333
	BackgroundColor #333333-#333333
	ParticipantBorderThickness 2
}


skinparam actor {
		FontColor #C8Ac00
	BorderColor #333333
	BackgroundColor #333333-#333333
}


skinparam arrow {
	Thickness 1.5
	Color #545454
	FontColor #a0a0a0
    FontStyle bold
    MessageAlignment center
}



skinparam sequence {
	BorderColor #303030
	TitleFontColor #303030
	BackgroundColor #333333
	StartColor #303030
	EndColor #303030
	BoxBackgroundColor #333333
	BoxBorderColor #484848
	BoxFontColor #484848
	LifeLineBorderColor #484848
	LifeLineBorderThickness 2
	LifeLineBackgroundColor #3a3a3a
	GroupBorderColor #484848
	GroupFontColor #484848
	GroupHeaderFontColor #0060a8
	GroupBackgroundColor #484848
	GroupHeaderBackgroundColor #333333
	DividerBackgroundColor #484848
    DividerBorderColor #484848
    DividerBorderThickness 2
    DividerFontColor #D8Bc00
	ReferenceBackgroundColor #333333
	ReferenceBorderColor #484848
	ReferenceFontColor #fefefe
	ReferenceHeaderBackgroundColor #484848
}


skinparam partition {
	BorderColor #303030
	FontColor #333333
	BackgroundColor #333333
}


skinparam collections {
		FontColor #C8Ac00
	BorderColor #333333
	BackgroundColor #333333-#333333
}


skinparam control {
		FontColor #C8Ac00
	BorderColor #333333
	BackgroundColor #333333-#333333
}


skinparam entity {
		FontColor #C8Ac00
	BorderColor #333333
	BackgroundColor #333333-#333333
}


skinparam boundary {
		FontColor #C8Ac00
	BorderColor #333333
	BackgroundColor #333333-#333333
}


skinparam agent {
	BackgroundColor #ff8000
	BorderColor #ff9933
	FontColor #484848
}


skinparam note {
	BorderThickness 1
	BackgroundColor #1b1b1a
	BorderColor #5e5e5e
	FontSize 11
	FontColor #a0a0a0
}


skinparam artifact {
	BorderThickness 10
	BorderColor #5e5e5e
	BackgroundColor #1b1b1a
	FontColor #D8Bc00
}


skinparam component {
		FontColor #C8Ac00
	BorderColor #333333
	BackgroundColor #333333-#333333
}


skinparam interface {
	BackgroundColor  #008400
	BorderColor  #007F00
	FontColor #484848
}


skinparam storage {
	BackgroundColor #ff8000
  	BorderColor #cc6600
	FontColor #222222
}


skinparam node {
	BackgroundColor #333333
	BorderColor #333333
	FontColor #C8Ac00
}


skinparam cloud {
	BackgroundColor #484848-black
	BorderColor #484848
	FontColor #D8Bc00
}


skinparam database {
		FontColor #C8Ac00
	BorderColor #333333
	BackgroundColor #333333-#333333
	BackgroundColor  #333333
}


skinparam class {
		FontColor #C8Ac00
	BorderColor #333333
	BackgroundColor #333333-#333333
	HeaderBackgroundColor #1b1b1a
    BackgroundColor #282828
    BorderColor #5e5e5e
 	StereotypeFontColor #a0a0a0
    StereotypeFontStyle bold
	BorderThickness 1
	AttributeFontColor #D8Bc00
	AttributeFontSize 11
    FontColor #D8Bc00
    FontStyle bold
}


skinparam object {
		FontColor #C8Ac00
	BorderColor #333333
	BackgroundColor #333333-#333333
	StereotypeFontColor #484848
	BorderThickness 1
	AttributeFontColor #fefefe
	AttributeFontSize 11
}


skinparam usecase {
		FontColor #C8Ac00
	BorderColor #333333
	BackgroundColor #333333-#333333
	BorderThickness 2
	StereotypeFontColor #303030
}


skinparam rectangle {
		FontColor #C8Ac00
	BorderColor #333333
	BackgroundColor #333333-#333333
	BackgroundColor #333333
	BorderThickness 2
	StereotypeFontColor #303030
}


skinparam package {
		FontColor #C8Ac00
	BorderColor #333333
	BackgroundColor #333333-#333333
	BackgroundColor #333333
	BorderThickness 2
}


skinparam folder {
	BackgroundColor #6d6d6d
  	BorderColor #ff8000
	FontColor #ff8000
	BorderThickness 2
}


skinparam frame {
	BackgroundColor #6d6d6d
  	BorderColor #0060a8
	FontColor #0060a8
	BorderThickness 2
}


skinparam state {
		FontColor #C8Ac00
	BorderColor #333333
	BackgroundColor #333333-#333333
	StartColor #0060a8
	EndColor #0060a8
	AttributeFontColor #fefefe
	AttributeFontSize 11
}


skinparam queue {
		FontColor #C8Ac00
	BorderColor #333333
	BackgroundColor #333333-#333333
}


skinparam card {
	BackgroundColor #0060a8
	BorderColor #004d86
	FontColor $INFO_TEXT
}


skinparam file {
	BackgroundColor #6d6d6d-#484848
	BorderColor #0060a8
	FontColor #fefefe
}


skinparam stack {
		FontColor #C8Ac00
	BorderColor #333333
	BackgroundColor #333333-#333333
}

    
    title "org.apache.wicket.markup.html.border"
    
    interface IQueueRegion
    interface IComponentResolver
    
    WebMarkupContainer <|- - Body
    class Body
    {
        - -(constructors)- -
        +Body(String, MarkupContainer)
        +Body(String, IModel<?>, MarkupContainer)
    }
    
    WebMarkupContainer <|- - Border
    IComponentResolver <|- - Border
    IQueueRegion <|- - Border
    abstract class Border
    {
        - -(constructors)- -
        +Border(String)
        +Border(String, IModel<?>)
        - -
        +BorderBodyContainer getBodyContainer()
        +Border queueToBorder(Component... children)
        +Border replaceInBorder(Component)
        - -(collection)- -
        +Border addToBorder(Component... children)
        +Border removeFromBorder(Component child)
    }
    
    Behavior <|- - BorderBehavior
    class BorderBehavior
    {
    }
    
    WebMarkupContainer <|- - Border.BorderBodyContainer
    IQueueRegion <|- - Border.BorderBodyContainer
    class Border.BorderBodyContainer
    {
        - -(constructors)- -
        +BorderBodyContainer(String)
    }
    
    Panel <|- - BorderPanel
    abstract class BorderPanel
    {
        - -(constructors)- -
        +BorderPanel(String)
        +BorderPanel(String, IModel<?>)
        - -
        +Body getBodyContainer()
        +Body setBodyContainer(Body)
        - -(factory)- -
        +Body newBodyContainer(String id)
    }
    
@enduml

PlantUML version 1.2021.01(Tue Feb 02 00:55:08 MST 2021)
(GPL source distribution)
Java Runtime: Java(TM) SE Runtime Environment
JVM: Java HotSpot(TM) 64-Bit Server VM
Default Encoding: UTF-8
Language: en
Country: US
--></g></svg>