<?xml version="1.0" encoding="UTF-8" standalone="no"?><svg xmlns="http://www.w3.org/2000/svg" xmlns:xlink="http://www.w3.org/1999/xlink" contentScriptType="application/ecmascript" contentStyleType="text/css" height="353.125px" preserveAspectRatio="none" style="width:1287px;height:353px;background:#333333;" version="1.1" viewBox="0 0 1287 353" width="1287.5px" zoomAndPan="magnify"><defs/><g><rect fill="#48494B" height="41.2028" rx="8.3333" ry="8.3333" style="stroke:#545454;stroke-width:1.0416666666666667;" width="353.125" x="460.1563" y="2.0833"/><text fill="#C0C0C0" font-family="Open Sans,Avenir,Nunito,Arial,Helvetica,SansSerif" font-size="20.8333" lengthAdjust="spacing" textLength="330.2083" x="471.6146" y="30.5583">org.apache.wicket.response.filter</text><!--MD5=[60f2ca3fa2cada6a182430ed9d8bea06]
class IResponseFilter--><rect codeLine="18" fill="#282828" height="83.3781" id="IResponseFilter" rx="8.3333" ry="8.3333" style="stroke:#5E5E5E;stroke-width:1.0416666666666667;" width="414.5833" x="313.5417" y="53.7028"/><rect fill="#1B1B1A" height="31.3883" rx="8.3333" ry="8.3333" style="stroke:#1B1B1A;stroke-width:1.0416666666666667;" width="414.5833" x="313.5417" y="53.7028"/><rect fill="#1B1B1A" height="8.3333" style="stroke:#1B1B1A;stroke-width:1.0416666666666667;" width="414.5833" x="313.5417" y="76.7578"/><rect codeLine="18" fill="none" height="83.3781" id="IResponseFilter" rx="8.3333" ry="8.3333" style="stroke:#5E5E5E;stroke-width:1.0416666666666667;" width="414.5833" x="313.5417" y="53.7028"/><ellipse cx="463.5417" cy="69.397" fill="#008400" rx="10.4167" ry="10.4167" style="stroke:#239C23;stroke-width:1.0416666666666667;"/><path d="M460.9456,66.5588 L460.9456,64.9719 L466.3717,64.9719 L466.3717,66.5588 L464.5589,66.5588 L464.5589,72.4976 L466.3717,72.4976 L466.3717,74.0845 L460.9456,74.0845 L460.9456,72.4976 L462.7584,72.4976 L462.7584,66.5588 Z " fill="#000000"/><text fill="#D8BC00" font-family="Open Sans,Avenir,Nunito,Arial,Helvetica,SansSerif" font-size="12.5" font-style="italic" font-weight="bold" lengthAdjust="spacing" textLength="100" x="486.4583" y="74.1211">IResponseFilter</text><line style="stroke:#5E5E5E;stroke-width:1.5625;" x1="314.5833" x2="727.0833" y1="85.0911" y2="85.0911"/><ellipse cx="325" cy="120.461" fill="#84BE84" rx="3.125" ry="3.125" style="stroke:#038048;stroke-width:1.0416666666666667;"/><text fill="#D8BC00" font-family="Open Sans,Avenir,Nunito,Arial,Helvetica,SansSerif" font-size="11.4583" lengthAdjust="spacing" textLength="382.2917" x="336.4583" y="127.3722">AppendingStringBuffer filter(AppendingStringBuffer responseBuffer)</text><line style="stroke:#5E5E5E;stroke-width:1.0416666666666667;" x1="314.5833" x2="491.6667" y1="103.2969" y2="103.2969"/><text fill="#D8BC00" font-family="Open Sans,Avenir,Nunito,Arial,Helvetica,SansSerif" font-size="11.4583" lengthAdjust="spacing" textLength="52.0833" x="494.7917" y="107.1065">(filtering)</text><line style="stroke:#5E5E5E;stroke-width:1.0416666666666667;" x1="550" x2="727.0833" y1="103.2969" y2="103.2969"/><!--MD5=[1dd105e18996b5fc45cdffce6bf567eb]
class AjaxServerAndClientTimeFilter--><rect codeLine="9" fill="#282828" height="48.055" id="AjaxServerAndClientTimeFilter" rx="8.3333" ry="8.3333" style="stroke:#5E5E5E;stroke-width:1.0416666666666667;" width="235.4167" x="7.2917" y="249.0153"/><rect fill="#1B1B1A" height="31.3883" rx="8.3333" ry="8.3333" style="stroke:#1B1B1A;stroke-width:1.0416666666666667;" width="235.4167" x="7.2917" y="249.0153"/><rect fill="#1B1B1A" height="8.3333" style="stroke:#1B1B1A;stroke-width:1.0416666666666667;" width="235.4167" x="7.2917" y="272.0703"/><rect codeLine="9" fill="none" height="48.055" id="AjaxServerAndClientTimeFilter" rx="8.3333" ry="8.3333" style="stroke:#5E5E5E;stroke-width:1.0416666666666667;" width="235.4167" x="7.2917" y="249.0153"/><ellipse cx="21.875" cy="264.7095" fill="#0066CF" rx="10.4167" ry="10.4167" style="stroke:#0086EF;stroke-width:1.0416666666666667;"/><path d="M23.7854,269.1345 Q23.3582,269.3542 22.8882,269.4641 Q22.4182,269.574 21.8994,269.574 Q20.0562,269.574 19.0857,268.3594 Q18.1152,267.1448 18.1152,264.8499 Q18.1152,262.5488 19.0857,261.3342 Q20.0562,260.1196 21.8994,260.1196 Q22.4182,260.1196 22.8943,260.2295 Q23.3704,260.3394 23.7854,260.5591 L23.7854,262.561 Q23.3215,262.1338 22.8851,261.9354 Q22.4487,261.7371 21.9849,261.7371 Q20.9961,261.7371 20.4926,262.5214 Q19.989,263.3057 19.989,264.8499 Q19.989,266.3879 20.4926,267.1722 Q20.9961,267.9565 21.9849,267.9565 Q22.4487,267.9565 22.8851,267.7582 Q23.3215,267.5598 23.7854,267.1326 Z " fill="#000000"/><text fill="#D8BC00" font-family="Open Sans,Avenir,Nunito,Arial,Helvetica,SansSerif" font-size="12.5" font-weight="bold" lengthAdjust="spacing" textLength="197.9167" x="38.5417" y="269.4336">AjaxServerAndClientTimeFilter</text><line style="stroke:#5E5E5E;stroke-width:1.0416666666666667;" x1="8.3333" x2="241.6667" y1="280.4036" y2="280.4036"/><line style="stroke:#5E5E5E;stroke-width:1.0416666666666667;" x1="8.3333" x2="241.6667" y1="288.737" y2="288.737"/><!--MD5=[de318343042940c956db756d0916a7ff]
class EmptySrcAttributeCheckFilter--><rect codeLine="14" fill="#282828" height="48.055" id="EmptySrcAttributeCheckFilter" rx="8.3333" ry="8.3333" style="stroke:#5E5E5E;stroke-width:1.0416666666666667;" width="228.125" x="279.6875" y="249.0153"/><rect fill="#1B1B1A" height="31.3883" rx="8.3333" ry="8.3333" style="stroke:#1B1B1A;stroke-width:1.0416666666666667;" width="228.125" x="279.6875" y="249.0153"/><rect fill="#1B1B1A" height="8.3333" style="stroke:#1B1B1A;stroke-width:1.0416666666666667;" width="228.125" x="279.6875" y="272.0703"/><rect codeLine="14" fill="none" height="48.055" id="EmptySrcAttributeCheckFilter" rx="8.3333" ry="8.3333" style="stroke:#5E5E5E;stroke-width:1.0416666666666667;" width="228.125" x="279.6875" y="249.0153"/><ellipse cx="294.2708" cy="264.7095" fill="#0066CF" rx="10.4167" ry="10.4167" style="stroke:#0086EF;stroke-width:1.0416666666666667;"/><path d="M296.1812,269.1345 Q295.754,269.3542 295.284,269.4641 Q294.814,269.574 294.2952,269.574 Q292.452,269.574 291.4815,268.3594 Q290.5111,267.1448 290.5111,264.8499 Q290.5111,262.5488 291.4815,261.3342 Q292.452,260.1196 294.2952,260.1196 Q294.814,260.1196 295.2901,260.2295 Q295.7662,260.3394 296.1812,260.5591 L296.1812,262.561 Q295.7174,262.1338 295.281,261.9354 Q294.8446,261.7371 294.3807,261.7371 Q293.3919,261.7371 292.8884,262.5214 Q292.3848,263.3057 292.3848,264.8499 Q292.3848,266.3879 292.8884,267.1722 Q293.3919,267.9565 294.3807,267.9565 Q294.8446,267.9565 295.281,267.7582 Q295.7174,267.5598 296.1812,267.1326 Z " fill="#000000"/><text fill="#D8BC00" font-family="Open Sans,Avenir,Nunito,Arial,Helvetica,SansSerif" font-size="12.5" font-weight="bold" lengthAdjust="spacing" textLength="190.625" x="310.9375" y="269.4336">EmptySrcAttributeCheckFilter</text><line style="stroke:#5E5E5E;stroke-width:1.0416666666666667;" x1="280.7292" x2="506.7708" y1="280.4036" y2="280.4036"/><line style="stroke:#5E5E5E;stroke-width:1.0416666666666667;" x1="280.7292" x2="506.7708" y1="288.737" y2="288.737"/><!--MD5=[3ac830ce5539ff3ac242191c1b11dc62]
class ServerAndClientTimeFilter--><rect codeLine="25" fill="#282828" height="48.055" id="ServerAndClientTimeFilter" rx="8.3333" ry="8.3333" style="stroke:#5E5E5E;stroke-width:1.0416666666666667;" width="207.2917" x="544.2708" y="249.0153"/><rect fill="#1B1B1A" height="31.3883" rx="8.3333" ry="8.3333" style="stroke:#1B1B1A;stroke-width:1.0416666666666667;" width="207.2917" x="544.2708" y="249.0153"/><rect fill="#1B1B1A" height="8.3333" style="stroke:#1B1B1A;stroke-width:1.0416666666666667;" width="207.2917" x="544.2708" y="272.0703"/><rect codeLine="25" fill="none" height="48.055" id="ServerAndClientTimeFilter" rx="8.3333" ry="8.3333" style="stroke:#5E5E5E;stroke-width:1.0416666666666667;" width="207.2917" x="544.2708" y="249.0153"/><ellipse cx="558.8542" cy="264.7095" fill="#0066CF" rx="10.4167" ry="10.4167" style="stroke:#0086EF;stroke-width:1.0416666666666667;"/><path d="M560.7646,269.1345 Q560.3373,269.3542 559.8674,269.4641 Q559.3974,269.574 558.8786,269.574 Q557.0353,269.574 556.0649,268.3594 Q555.0944,267.1448 555.0944,264.8499 Q555.0944,262.5488 556.0649,261.3342 Q557.0353,260.1196 558.8786,260.1196 Q559.3974,260.1196 559.8735,260.2295 Q560.3495,260.3394 560.7646,260.5591 L560.7646,262.561 Q560.3007,262.1338 559.8643,261.9354 Q559.4279,261.7371 558.964,261.7371 Q557.9753,261.7371 557.4717,262.5214 Q556.9682,263.3057 556.9682,264.8499 Q556.9682,266.3879 557.4717,267.1722 Q557.9753,267.9565 558.964,267.9565 Q559.4279,267.9565 559.8643,267.7582 Q560.3007,267.5598 560.7646,267.1326 Z " fill="#000000"/><text fill="#D8BC00" font-family="Open Sans,Avenir,Nunito,Arial,Helvetica,SansSerif" font-size="12.5" font-weight="bold" lengthAdjust="spacing" textLength="169.7917" x="575.5208" y="269.4336">ServerAndClientTimeFilter</text><line style="stroke:#5E5E5E;stroke-width:1.0416666666666667;" x1="545.3125" x2="750.5208" y1="280.4036" y2="280.4036"/><line style="stroke:#5E5E5E;stroke-width:1.0416666666666667;" x1="545.3125" x2="750.5208" y1="288.737" y2="288.737"/><!--MD5=[6d28e54c4500140dc6f20f5fe7d2d269]
class XmlCleaningResponseFilter--><rect codeLine="30" fill="#282828" height="146.7794" id="XmlCleaningResponseFilter" rx="8.3333" ry="8.3333" style="stroke:#5E5E5E;stroke-width:1.0416666666666667;" width="492.7083" x="788.0208" y="199.5361"/><rect fill="#1B1B1A" height="31.3883" rx="8.3333" ry="8.3333" style="stroke:#1B1B1A;stroke-width:1.0416666666666667;" width="492.7083" x="788.0208" y="199.5361"/><rect fill="#1B1B1A" height="8.3333" style="stroke:#1B1B1A;stroke-width:1.0416666666666667;" width="492.7083" x="788.0208" y="222.5911"/><rect codeLine="30" fill="none" height="146.7794" id="XmlCleaningResponseFilter" rx="8.3333" ry="8.3333" style="stroke:#5E5E5E;stroke-width:1.0416666666666667;" width="492.7083" x="788.0208" y="199.5361"/><ellipse cx="938.0208" cy="215.2303" fill="#0066CF" rx="10.4167" ry="10.4167" style="stroke:#0086EF;stroke-width:1.0416666666666667;"/><path d="M939.9312,219.6554 Q939.504,219.8751 939.034,219.9849 Q938.564,220.0948 938.0452,220.0948 Q936.202,220.0948 935.2315,218.8802 Q934.2611,217.6656 934.2611,215.3707 Q934.2611,213.0697 935.2315,211.8551 Q936.202,210.6405 938.0452,210.6405 Q938.564,210.6405 939.0401,210.7503 Q939.5162,210.8602 939.9312,211.0799 L939.9312,213.0819 Q939.4674,212.6546 939.031,212.4563 Q938.5946,212.2579 938.1307,212.2579 Q937.1419,212.2579 936.6384,213.0422 Q936.1348,213.8265 936.1348,215.3707 Q936.1348,216.9088 936.6384,217.6931 Q937.1419,218.4774 938.1307,218.4774 Q938.5946,218.4774 939.031,218.279 Q939.4674,218.0806 939.9312,217.6534 Z " fill="#000000"/><text fill="#D8BC00" font-family="Open Sans,Avenir,Nunito,Arial,Helvetica,SansSerif" font-size="12.5" font-weight="bold" lengthAdjust="spacing" textLength="178.125" x="960.9375" y="219.9544">XmlCleaningResponseFilter</text><line style="stroke:#5E5E5E;stroke-width:1.5625;" x1="789.0625" x2="1279.6875" y1="230.9245" y2="230.9245"/><polygon fill="#FFFF44" points="799.4792,261.086,803.6458,265.2527,799.4792,269.4194,795.3125,265.2527" style="stroke:#B38D22;stroke-width:1.0416666666666667;"/><text fill="#D8BC00" font-family="Open Sans,Avenir,Nunito,Arial,Helvetica,SansSerif" font-size="11.4583" lengthAdjust="spacing" textLength="339.5833" x="810.9375" y="273.2056">boolean shouldFilter(AppendingStringBuffer responseBuffer)</text><line style="stroke:#5E5E5E;stroke-width:1.0416666666666667;" x1="789.0625" x2="1005.2083" y1="249.1302" y2="249.1302"/><text fill="#D8BC00" font-family="Open Sans,Avenir,Nunito,Arial,Helvetica,SansSerif" font-size="11.4583" lengthAdjust="spacing" textLength="52.0833" x="1008.3333" y="252.9399">(filtering)</text><line style="stroke:#5E5E5E;stroke-width:1.0416666666666667;" x1="1063.5417" x2="1279.6875" y1="249.1302" y2="249.1302"/><ellipse cx="799.4792" cy="309.9508" fill="#84BE84" rx="3.125" ry="3.125" style="stroke:#038048;stroke-width:1.0416666666666667;"/><text fill="#D8BC00" font-family="Open Sans,Avenir,Nunito,Arial,Helvetica,SansSerif" font-size="11.4583" lengthAdjust="spacing" textLength="460.4167" x="810.9375" y="316.862">AppendingStringBuffer stripNonValidXMLCharacters(AppendingStringBuffer input)</text><polygon fill="#FFFF44" points="799.4792,324.4873,803.6458,328.654,799.4792,332.8206,795.3125,328.654" style="stroke:#B38D22;stroke-width:1.0416666666666667;"/><text fill="#D8BC00" font-family="Open Sans,Avenir,Nunito,Arial,Helvetica,SansSerif" font-size="11.4583" lengthAdjust="spacing" textLength="213.5417" x="810.9375" y="336.6069">boolean isValidXmlChar(int codePoint)</text><line style="stroke:#5E5E5E;stroke-width:1.0416666666666667;" x1="789.0625" x2="1002.6042" y1="292.7867" y2="292.7867"/><text fill="#D8BC00" font-family="Open Sans,Avenir,Nunito,Arial,Helvetica,SansSerif" font-size="11.4583" lengthAdjust="spacing" textLength="57.2917" x="1005.7292" y="296.5963">(primitive)</text><line style="stroke:#5E5E5E;stroke-width:1.0416666666666667;" x1="1066.1458" x2="1279.6875" y1="292.7867" y2="292.7867"/><!--MD5=[17a27a05a7d1dabbc272284a8dd4d528]
reverse link IResponseFilter to AjaxServerAndClientTimeFilter--><path codeLine="8" d="M391.3438,144.682 C349.4896,161.1403 303.1354,180.2653 261.4583,199.5361 C228.5938,214.734 192.4479,234.0361 165.6146,248.8799 " fill="none" id="IResponseFilter-backto-AjaxServerAndClientTimeFilter" style="stroke:#545454;stroke-width:1.5625;"/><polygon fill="none" points="388.8021,137.8486,410.8646,137.0674,394.1042,151.432,388.8021,137.8486" style="stroke:#545454;stroke-width:1.5625;"/><!--MD5=[56a76ff551687ff7f12d2b306d4653a5]
reverse link IResponseFilter to EmptySrcAttributeCheckFilter--><path codeLine="13" d="M478.9583,154.2445 C455.6563,186.4215 427.9375,224.7028 410.5938,248.6715 " fill="none" id="IResponseFilter-backto-EmptySrcAttributeCheckFilter" style="stroke:#545454;stroke-width:1.5625;"/><polygon fill="none" points="473.2396,149.7236,491.3542,137.1195,485.0417,158.2757,473.2396,149.7236" style="stroke:#545454;stroke-width:1.5625;"/><!--MD5=[0e0e3ab0825817d864fae7af60a9b16a]
reverse link IResponseFilter to ServerAndClientTimeFilter--><path codeLine="24" d="M562.7083,154.2445 C586.0104,186.4215 613.7292,224.7028 631.0729,248.6715 " fill="none" id="IResponseFilter-backto-ServerAndClientTimeFilter" style="stroke:#545454;stroke-width:1.5625;"/><polygon fill="none" points="556.625,158.2757,550.3125,137.1195,568.4271,149.7236,556.625,158.2757" style="stroke:#545454;stroke-width:1.5625;"/><!--MD5=[da9282d20ac61546cd98d7ca292d2e67]
reverse link IResponseFilter to XmlCleaningResponseFilter--><path codeLine="29" d="M659.7917,143.9007 C709.8021,160.9945 767.4271,180.6924 822.25,199.432 " fill="none" id="IResponseFilter-backto-XmlCleaningResponseFilter" style="stroke:#545454;stroke-width:1.5625;"/><polygon fill="none" points="657.2917,150.7549,639.9375,137.1195,662.0104,136.9632,657.2917,150.7549" style="stroke:#545454;stroke-width:1.5625;"/><!--MD5=[1b983dd464ada84b0139f10b665031ae]
@startuml

    !include lexakai.theme
    
    title "org.apache.wicket.response.filter"
    
    interface IResponseFilter
    
    IResponseFilter <|- - AjaxServerAndClientTimeFilter
    class AjaxServerAndClientTimeFilter
    {
    }
    
    IResponseFilter <|- - EmptySrcAttributeCheckFilter
    class EmptySrcAttributeCheckFilter
    {
    }
    
    interface IResponseFilter
    {
        - -(filtering)- -
        +AppendingStringBuffer filter(AppendingStringBuffer responseBuffer)
    }
    
    IResponseFilter <|- - ServerAndClientTimeFilter
    class ServerAndClientTimeFilter
    {
    }
    
    IResponseFilter <|- - XmlCleaningResponseFilter
    class XmlCleaningResponseFilter
    {
        - -(filtering)- -
        #boolean shouldFilter(AppendingStringBuffer responseBuffer)
        - -(primitive)- -
        +AppendingStringBuffer stripNonValidXMLCharacters(AppendingStringBuffer input)
        #boolean isValidXmlChar(int codePoint)
    }
    
@enduml

@startuml









skinparam backgroundColor #333333






skinparam  {
    defaultFontName   "Open Sans,Avenir,Nunito,Arial,Helvetica,SansSerif"
    defaultFontSize   12
    defaultTextAlignment left
    shadowing false
    RoundCorner 10
    TitleFontSize 18
}

skinparam defaultFontName       "Open Sans,Avenir,Nunito,Arial,Helvetica,SansSerif"
skinparam defaultFontSize       12
skinparam dpi                   100
skinparam shadowing             false
skinparam roundcorner           16
skinparam ParticipantPadding    40
skinparam BoxPadding            40
skinparam Padding               3
skinparam ArrowColor            #545454
skinparam stereotype {
    CBackgroundColor #0066cf
    CBorderColor #0086ef
    ABackgroundColor #C8Ac00
    ABorderColor #D8Bc00
    IBackgroundColor #008400
    IBorderColor #239c23
    EBackgroundColor #cf6300
    EBorderColor #ef8300
    NBackgroundColor #3380b9
    NBorderColor #004d86
}
skinparam title {
	FontColor	                 #c0c0c0
 	BorderColor                  #545454
	FontSize	    	         20
	BorderRoundCorner            16
	BorderThickness 	         1
	BackgroundColor              #48494b
}


skinparam legend {
	BackgroundColor #303030
	BorderColor #404040
	FontColor #a0a0a0
}

	skinparam swimlane {
	BorderColor #5e5e5e
	BorderThickness 2
	TitleBackgroundColor  #6d6d6d-#484848
	TitleFontColor #303030
}

skinparam activity {
		FontColor #C8Ac00
	BorderColor #333333
	BackgroundColor #333333-#333333
	BarColor #00FF00
	StartColor #0060a8
	EndColor #0060a8
	DiamondBackgroundColor #6d6d6d-#3a3a3a
  	DiamondBorderColor #3a3a3a
  	DiamondFontColor #fefefe
}


skinparam participant {
		FontColor #C8Ac00
	BorderColor #333333
	BackgroundColor #333333-#333333
	ParticipantBorderThickness 2
}


skinparam actor {
		FontColor #C8Ac00
	BorderColor #333333
	BackgroundColor #333333-#333333
}


skinparam arrow {
	Thickness 1.5
	Color #545454
	FontColor #a0a0a0
    FontStyle bold
    MessageAlignment center
}



skinparam sequence {
	BorderColor #303030
	TitleFontColor #303030
	BackgroundColor #333333
	StartColor #303030
	EndColor #303030
	BoxBackgroundColor #333333
	BoxBorderColor #484848
	BoxFontColor #484848
	LifeLineBorderColor #484848
	LifeLineBorderThickness 2
	LifeLineBackgroundColor #3a3a3a
	GroupBorderColor #484848
	GroupFontColor #484848
	GroupHeaderFontColor #0060a8
	GroupBackgroundColor #484848
	GroupHeaderBackgroundColor #333333
	DividerBackgroundColor #484848
    DividerBorderColor #484848
    DividerBorderThickness 2
    DividerFontColor #D8Bc00
	ReferenceBackgroundColor #333333
	ReferenceBorderColor #484848
	ReferenceFontColor #fefefe
	ReferenceHeaderBackgroundColor #484848
}


skinparam partition {
	BorderColor #303030
	FontColor #333333
	BackgroundColor #333333
}


skinparam collections {
		FontColor #C8Ac00
	BorderColor #333333
	BackgroundColor #333333-#333333
}


skinparam control {
		FontColor #C8Ac00
	BorderColor #333333
	BackgroundColor #333333-#333333
}


skinparam entity {
		FontColor #C8Ac00
	BorderColor #333333
	BackgroundColor #333333-#333333
}


skinparam boundary {
		FontColor #C8Ac00
	BorderColor #333333
	BackgroundColor #333333-#333333
}


skinparam agent {
	BackgroundColor #ff8000
	BorderColor #ff9933
	FontColor #484848
}


skinparam note {
	BorderThickness 1
	BackgroundColor #1b1b1a
	BorderColor #5e5e5e
	FontSize 11
	FontColor #a0a0a0
}


skinparam artifact {
	BorderThickness 10
	BorderColor #5e5e5e
	BackgroundColor #1b1b1a
	FontColor #D8Bc00
}


skinparam component {
		FontColor #C8Ac00
	BorderColor #333333
	BackgroundColor #333333-#333333
}


skinparam interface {
	BackgroundColor  #008400
	BorderColor  #007F00
	FontColor #484848
}


skinparam storage {
	BackgroundColor #ff8000
  	BorderColor #cc6600
	FontColor #222222
}


skinparam node {
	BackgroundColor #333333
	BorderColor #333333
	FontColor #C8Ac00
}


skinparam cloud {
	BackgroundColor #484848-black
	BorderColor #484848
	FontColor #D8Bc00
}


skinparam database {
		FontColor #C8Ac00
	BorderColor #333333
	BackgroundColor #333333-#333333
	BackgroundColor  #333333
}


skinparam class {
		FontColor #C8Ac00
	BorderColor #333333
	BackgroundColor #333333-#333333
	HeaderBackgroundColor #1b1b1a
    BackgroundColor #282828
    BorderColor #5e5e5e
 	StereotypeFontColor #a0a0a0
    StereotypeFontStyle bold
	BorderThickness 1
	AttributeFontColor #D8Bc00
	AttributeFontSize 11
    FontColor #D8Bc00
    FontStyle bold
}


skinparam object {
		FontColor #C8Ac00
	BorderColor #333333
	BackgroundColor #333333-#333333
	StereotypeFontColor #484848
	BorderThickness 1
	AttributeFontColor #fefefe
	AttributeFontSize 11
}


skinparam usecase {
		FontColor #C8Ac00
	BorderColor #333333
	BackgroundColor #333333-#333333
	BorderThickness 2
	StereotypeFontColor #303030
}


skinparam rectangle {
		FontColor #C8Ac00
	BorderColor #333333
	BackgroundColor #333333-#333333
	BackgroundColor #333333
	BorderThickness 2
	StereotypeFontColor #303030
}


skinparam package {
		FontColor #C8Ac00
	BorderColor #333333
	BackgroundColor #333333-#333333
	BackgroundColor #333333
	BorderThickness 2
}


skinparam folder {
	BackgroundColor #6d6d6d
  	BorderColor #ff8000
	FontColor #ff8000
	BorderThickness 2
}


skinparam frame {
	BackgroundColor #6d6d6d
  	BorderColor #0060a8
	FontColor #0060a8
	BorderThickness 2
}


skinparam state {
		FontColor #C8Ac00
	BorderColor #333333
	BackgroundColor #333333-#333333
	StartColor #0060a8
	EndColor #0060a8
	AttributeFontColor #fefefe
	AttributeFontSize 11
}


skinparam queue {
		FontColor #C8Ac00
	BorderColor #333333
	BackgroundColor #333333-#333333
}


skinparam card {
	BackgroundColor #0060a8
	BorderColor #004d86
	FontColor $INFO_TEXT
}


skinparam file {
	BackgroundColor #6d6d6d-#484848
	BorderColor #0060a8
	FontColor #fefefe
}


skinparam stack {
		FontColor #C8Ac00
	BorderColor #333333
	BackgroundColor #333333-#333333
}

    
    title "org.apache.wicket.response.filter"
    
    interface IResponseFilter
    
    IResponseFilter <|- - AjaxServerAndClientTimeFilter
    class AjaxServerAndClientTimeFilter
    {
    }
    
    IResponseFilter <|- - EmptySrcAttributeCheckFilter
    class EmptySrcAttributeCheckFilter
    {
    }
    
    interface IResponseFilter
    {
        - -(filtering)- -
        +AppendingStringBuffer filter(AppendingStringBuffer responseBuffer)
    }
    
    IResponseFilter <|- - ServerAndClientTimeFilter
    class ServerAndClientTimeFilter
    {
    }
    
    IResponseFilter <|- - XmlCleaningResponseFilter
    class XmlCleaningResponseFilter
    {
        - -(filtering)- -
        #boolean shouldFilter(AppendingStringBuffer responseBuffer)
        - -(primitive)- -
        +AppendingStringBuffer stripNonValidXMLCharacters(AppendingStringBuffer input)
        #boolean isValidXmlChar(int codePoint)
    }
    
@enduml

PlantUML version 1.2021.01(Tue Feb 02 00:55:08 MST 2021)
(GPL source distribution)
Java Runtime: Java(TM) SE Runtime Environment
JVM: Java HotSpot(TM) 64-Bit Server VM
Default Encoding: UTF-8
Language: en
Country: US
--></g></svg>