<?xml version="1.0" encoding="UTF-8" standalone="no"?><svg xmlns="http://www.w3.org/2000/svg" xmlns:xlink="http://www.w3.org/1999/xlink" contentScriptType="application/ecmascript" contentStyleType="text/css" height="326.0417px" preserveAspectRatio="none" style="width:2332px;height:326px;background:#333333;" version="1.1" viewBox="0 0 2332 326" width="2332.2917px" zoomAndPan="magnify"><defs/><g><rect fill="#48494B" height="41.2028" rx="8.3333" ry="8.3333" style="stroke:#545454;stroke-width:1.0416666666666667;" width="571.875" x="872.9167" y="2.0833"/><text fill="#C0C0C0" font-family="Open Sans,Avenir,Nunito,Arial,Helvetica,SansSerif" font-size="20.8333" lengthAdjust="spacing" textLength="548.9583" x="884.375" y="30.5583">org.apache.wicket.ajax.markup.html.navigation.paging</text><!--MD5=[70215e796718469fad9b60548dc3bf41]
class IAjaxLink--><rect codeLine="6" fill="#282828" height="48.055" id="IAjaxLink" rx="8.3333" ry="8.3333" style="stroke:#5E5E5E;stroke-width:1.0416666666666667;" width="97.9167" x="525.5208" y="53.7028"/><rect fill="#1B1B1A" height="31.3883" rx="8.3333" ry="8.3333" style="stroke:#1B1B1A;stroke-width:1.0416666666666667;" width="97.9167" x="525.5208" y="53.7028"/><rect fill="#1B1B1A" height="8.3333" style="stroke:#1B1B1A;stroke-width:1.0416666666666667;" width="97.9167" x="525.5208" y="76.7578"/><rect codeLine="6" fill="none" height="48.055" id="IAjaxLink" rx="8.3333" ry="8.3333" style="stroke:#5E5E5E;stroke-width:1.0416666666666667;" width="97.9167" x="525.5208" y="53.7028"/><ellipse cx="540.1042" cy="69.397" fill="#008400" rx="10.4167" ry="10.4167" style="stroke:#239C23;stroke-width:1.0416666666666667;"/><path d="M537.5081,66.5588 L537.5081,64.9719 L542.9342,64.9719 L542.9342,66.5588 L541.1214,66.5588 L541.1214,72.4976 L542.9342,72.4976 L542.9342,74.0845 L537.5081,74.0845 L537.5081,72.4976 L539.3209,72.4976 L539.3209,66.5588 Z " fill="#000000"/><text fill="#D8BC00" font-family="Open Sans,Avenir,Nunito,Arial,Helvetica,SansSerif" font-size="12.5" font-style="italic" font-weight="bold" lengthAdjust="spacing" textLength="60.4167" x="556.7708" y="74.1211">IAjaxLink</text><line style="stroke:#5E5E5E;stroke-width:1.0416666666666667;" x1="526.5625" x2="622.3958" y1="85.0911" y2="85.0911"/><line style="stroke:#5E5E5E;stroke-width:1.0416666666666667;" x1="526.5625" x2="622.3958" y1="93.4245" y2="93.4245"/><!--MD5=[4f66d2cff5e04236d69cf1695a1a2824]
class PagingNavigation--><rect fill="#282828" height="48.055" id="PagingNavigation" rx="8.3333" ry="8.3333" style="stroke:#5E5E5E;stroke-width:1.0416666666666667;" width="151.0417" x="1256.25" y="53.7028"/><rect fill="#1B1B1A" height="31.3883" rx="8.3333" ry="8.3333" style="stroke:#1B1B1A;stroke-width:1.0416666666666667;" width="151.0417" x="1256.25" y="53.7028"/><rect fill="#1B1B1A" height="8.3333" style="stroke:#1B1B1A;stroke-width:1.0416666666666667;" width="151.0417" x="1256.25" y="76.7578"/><rect fill="none" height="48.055" id="PagingNavigation" rx="8.3333" ry="8.3333" style="stroke:#5E5E5E;stroke-width:1.0416666666666667;" width="151.0417" x="1256.25" y="53.7028"/><ellipse cx="1270.8333" cy="69.397" fill="#0066CF" rx="10.4167" ry="10.4167" style="stroke:#0086EF;stroke-width:1.0416666666666667;"/><path d="M1272.7437,73.822 Q1272.3165,74.0417 1271.8465,74.1516 Q1271.3765,74.2615 1270.8577,74.2615 Q1269.0145,74.2615 1268.044,73.0469 Q1267.0736,71.8323 1267.0736,69.5374 Q1267.0736,67.2363 1268.044,66.0217 Q1269.0145,64.8071 1270.8577,64.8071 Q1271.3765,64.8071 1271.8526,64.917 Q1272.3287,65.0269 1272.7437,65.2466 L1272.7437,67.2485 Q1272.2799,66.8213 1271.8435,66.6229 Q1271.4071,66.4246 1270.9432,66.4246 Q1269.9544,66.4246 1269.4509,67.2089 Q1268.9473,67.9932 1268.9473,69.5374 Q1268.9473,71.0754 1269.4509,71.8597 Q1269.9544,72.644 1270.9432,72.644 Q1271.4071,72.644 1271.8435,72.4457 Q1272.2799,72.2473 1272.7437,71.8201 Z " fill="#000000"/><text fill="#D8BC00" font-family="Open Sans,Avenir,Nunito,Arial,Helvetica,SansSerif" font-size="12.5" font-weight="bold" lengthAdjust="spacing" textLength="113.5417" x="1287.5" y="74.1211">PagingNavigation</text><line style="stroke:#5E5E5E;stroke-width:1.0416666666666667;" x1="1257.2917" x2="1406.25" y1="85.0911" y2="85.0911"/><line style="stroke:#5E5E5E;stroke-width:1.0416666666666667;" x1="1257.2917" x2="1406.25" y1="93.4245" y2="93.4245"/><!--MD5=[73afe9cd12ea9012e24e74b9a1cea739]
class AjaxPagingNavigation--><rect codeLine="9" fill="#282828" height="103.123" id="AjaxPagingNavigation" rx="8.3333" ry="8.3333" style="stroke:#5E5E5E;stroke-width:1.0416666666666667;" width="377.0833" x="1143.2292" y="190.1611"/><rect fill="#1B1B1A" height="31.3883" rx="8.3333" ry="8.3333" style="stroke:#1B1B1A;stroke-width:1.0416666666666667;" width="377.0833" x="1143.2292" y="190.1611"/><rect fill="#1B1B1A" height="8.3333" style="stroke:#1B1B1A;stroke-width:1.0416666666666667;" width="377.0833" x="1143.2292" y="213.2161"/><rect codeLine="9" fill="none" height="103.123" id="AjaxPagingNavigation" rx="8.3333" ry="8.3333" style="stroke:#5E5E5E;stroke-width:1.0416666666666667;" width="377.0833" x="1143.2292" y="190.1611"/><ellipse cx="1253.6458" cy="205.8553" fill="#0066CF" rx="10.4167" ry="10.4167" style="stroke:#0086EF;stroke-width:1.0416666666666667;"/><path d="M1255.5562,210.2804 Q1255.129,210.5001 1254.659,210.6099 Q1254.189,210.7198 1253.6702,210.7198 Q1251.827,210.7198 1250.8565,209.5052 Q1249.8861,208.2906 1249.8861,205.9957 Q1249.8861,203.6947 1250.8565,202.4801 Q1251.827,201.2655 1253.6702,201.2655 Q1254.189,201.2655 1254.6651,201.3753 Q1255.1412,201.4852 1255.5562,201.7049 L1255.5562,203.7069 Q1255.0924,203.2796 1254.656,203.0813 Q1254.2196,202.8829 1253.7557,202.8829 Q1252.7669,202.8829 1252.2634,203.6672 Q1251.7598,204.4515 1251.7598,205.9957 Q1251.7598,207.5338 1252.2634,208.3181 Q1252.7669,209.1024 1253.7557,209.1024 Q1254.2196,209.1024 1254.656,208.904 Q1255.0924,208.7056 1255.5562,208.2784 Z " fill="#000000"/><text fill="#D8BC00" font-family="Open Sans,Avenir,Nunito,Arial,Helvetica,SansSerif" font-size="12.5" font-weight="bold" lengthAdjust="spacing" textLength="141.6667" x="1276.5625" y="210.5794">AjaxPagingNavigation</text><line style="stroke:#5E5E5E;stroke-width:1.5625;" x1="1144.2708" x2="1519.2708" y1="221.5495" y2="221.5495"/><ellipse cx="1154.6875" cy="256.9194" fill="#84BE84" rx="3.125" ry="3.125" style="stroke:#038048;stroke-width:1.0416666666666667;"/><text fill="#D8BC00" font-family="Open Sans,Avenir,Nunito,Arial,Helvetica,SansSerif" font-size="11.4583" lengthAdjust="spacing" textLength="221.875" x="1166.1458" y="263.8306">AjaxPagingNavigation(String, IPageable)</text><ellipse cx="1154.6875" cy="276.6642" fill="#84BE84" rx="3.125" ry="3.125" style="stroke:#038048;stroke-width:1.0416666666666667;"/><text fill="#D8BC00" font-family="Open Sans,Avenir,Nunito,Arial,Helvetica,SansSerif" font-size="11.4583" lengthAdjust="spacing" textLength="344.7917" x="1166.1458" y="283.5754">AjaxPagingNavigation(String, IPageable, IPagingLabelProvider)</text><line style="stroke:#5E5E5E;stroke-width:1.0416666666666667;" x1="1144.2708" x2="1288.0208" y1="239.7552" y2="239.7552"/><text fill="#D8BC00" font-family="Open Sans,Avenir,Nunito,Arial,Helvetica,SansSerif" font-size="11.4583" lengthAdjust="spacing" textLength="81.25" x="1291.1458" y="243.5649">(constructors)</text><line style="stroke:#5E5E5E;stroke-width:1.0416666666666667;" x1="1375.5208" x2="1519.2708" y1="239.7552" y2="239.7552"/><!--MD5=[61e09d85732d081f20ec5ea1cc80f915]
class AjaxEventBehavior--><rect fill="#282828" height="48.055" id="AjaxEventBehavior" rx="8.3333" ry="8.3333" style="stroke:#5E5E5E;stroke-width:1.0416666666666667;" width="157.2917" x="1658.3333" y="53.7028"/><rect fill="#1B1B1A" height="31.3883" rx="8.3333" ry="8.3333" style="stroke:#1B1B1A;stroke-width:1.0416666666666667;" width="157.2917" x="1658.3333" y="53.7028"/><rect fill="#1B1B1A" height="8.3333" style="stroke:#1B1B1A;stroke-width:1.0416666666666667;" width="157.2917" x="1658.3333" y="76.7578"/><rect fill="none" height="48.055" id="AjaxEventBehavior" rx="8.3333" ry="8.3333" style="stroke:#5E5E5E;stroke-width:1.0416666666666667;" width="157.2917" x="1658.3333" y="53.7028"/><ellipse cx="1672.9167" cy="69.397" fill="#0066CF" rx="10.4167" ry="10.4167" style="stroke:#0086EF;stroke-width:1.0416666666666667;"/><path d="M1674.8271,73.822 Q1674.3998,74.0417 1673.9299,74.1516 Q1673.4599,74.2615 1672.9411,74.2615 Q1671.0978,74.2615 1670.1274,73.0469 Q1669.1569,71.8323 1669.1569,69.5374 Q1669.1569,67.2363 1670.1274,66.0217 Q1671.0978,64.8071 1672.9411,64.8071 Q1673.4599,64.8071 1673.936,64.917 Q1674.412,65.0269 1674.8271,65.2466 L1674.8271,67.2485 Q1674.3632,66.8213 1673.9268,66.6229 Q1673.4904,66.4246 1673.0265,66.4246 Q1672.0378,66.4246 1671.5342,67.2089 Q1671.0307,67.9932 1671.0307,69.5374 Q1671.0307,71.0754 1671.5342,71.8597 Q1672.0378,72.644 1673.0265,72.644 Q1673.4904,72.644 1673.9268,72.4457 Q1674.3632,72.2473 1674.8271,71.8201 Z " fill="#000000"/><text fill="#D8BC00" font-family="Open Sans,Avenir,Nunito,Arial,Helvetica,SansSerif" font-size="12.5" font-weight="bold" lengthAdjust="spacing" textLength="119.7917" x="1689.5833" y="74.1211">AjaxEventBehavior</text><line style="stroke:#5E5E5E;stroke-width:1.0416666666666667;" x1="1659.375" x2="1814.5833" y1="85.0911" y2="85.0911"/><line style="stroke:#5E5E5E;stroke-width:1.0416666666666667;" x1="1659.375" x2="1814.5833" y1="93.4245" y2="93.4245"/><!--MD5=[44eed48651c4a2437f4b5a839059a2b1]
class AjaxPagingNavigationBehavior--><rect codeLine="17" fill="#282828" height="83.3781" id="AjaxPagingNavigationBehavior" rx="8.3333" ry="8.3333" style="stroke:#5E5E5E;stroke-width:1.0416666666666667;" width="359.375" x="1557.2917" y="200.057"/><rect fill="#1B1B1A" height="31.3883" rx="8.3333" ry="8.3333" style="stroke:#1B1B1A;stroke-width:1.0416666666666667;" width="359.375" x="1557.2917" y="200.057"/><rect fill="#1B1B1A" height="8.3333" style="stroke:#1B1B1A;stroke-width:1.0416666666666667;" width="359.375" x="1557.2917" y="223.112"/><rect codeLine="17" fill="none" height="83.3781" id="AjaxPagingNavigationBehavior" rx="8.3333" ry="8.3333" style="stroke:#5E5E5E;stroke-width:1.0416666666666667;" width="359.375" x="1557.2917" y="200.057"/><ellipse cx="1630.7292" cy="215.7511" fill="#0066CF" rx="10.4167" ry="10.4167" style="stroke:#0086EF;stroke-width:1.0416666666666667;"/><path d="M1632.6396,220.1762 Q1632.2123,220.3959 1631.7424,220.5058 Q1631.2724,220.6156 1630.7536,220.6156 Q1628.9103,220.6156 1627.9399,219.401 Q1626.9694,218.1864 1626.9694,215.8915 Q1626.9694,213.5905 1627.9399,212.3759 Q1628.9103,211.1613 1630.7536,211.1613 Q1631.2724,211.1613 1631.7485,211.2712 Q1632.2245,211.381 1632.6396,211.6007 L1632.6396,213.6027 Q1632.1757,213.1755 1631.7393,212.9771 Q1631.3029,212.7787 1630.839,212.7787 Q1629.8503,212.7787 1629.3467,213.563 Q1628.8432,214.3473 1628.8432,215.8915 Q1628.8432,217.4296 1629.3467,218.2139 Q1629.8503,218.9982 1630.839,218.9982 Q1631.3029,218.9982 1631.7393,218.7998 Q1632.1757,218.6015 1632.6396,218.1742 Z " fill="#000000"/><text fill="#D8BC00" font-family="Open Sans,Avenir,Nunito,Arial,Helvetica,SansSerif" font-size="12.5" font-weight="bold" lengthAdjust="spacing" textLength="197.9167" x="1653.6458" y="220.4753">AjaxPagingNavigationBehavior</text><line style="stroke:#5E5E5E;stroke-width:1.5625;" x1="1558.3333" x2="1915.625" y1="231.4453" y2="231.4453"/><ellipse cx="1568.75" cy="266.8152" fill="#84BE84" rx="3.125" ry="3.125" style="stroke:#038048;stroke-width:1.0416666666666667;"/><text fill="#D8BC00" font-family="Open Sans,Avenir,Nunito,Arial,Helvetica,SansSerif" font-size="11.4583" lengthAdjust="spacing" textLength="327.0833" x="1580.2083" y="273.7264">AjaxPagingNavigationBehavior(IAjaxLink, IPageable, String)</text><line style="stroke:#5E5E5E;stroke-width:1.0416666666666667;" x1="1558.3333" x2="1693.2292" y1="249.6511" y2="249.6511"/><text fill="#D8BC00" font-family="Open Sans,Avenir,Nunito,Arial,Helvetica,SansSerif" font-size="11.4583" lengthAdjust="spacing" textLength="81.25" x="1696.3542" y="253.4607">(constructors)</text><line style="stroke:#5E5E5E;stroke-width:1.0416666666666667;" x1="1780.7292" x2="1915.625" y1="249.6511" y2="249.6511"/><!--MD5=[1b9a7cd8cb5883e1f25bf4c4d2aebe93]
class PagingNavigationIncrementLink--><rect fill="#282828" height="48.055" id="PagingNavigationIncrementLink" rx="8.3333" ry="8.3333" style="stroke:#5E5E5E;stroke-width:1.0416666666666667;" width="243.75" x="152.6042" y="53.7028"/><rect fill="#1B1B1A" height="31.3883" rx="8.3333" ry="8.3333" style="stroke:#1B1B1A;stroke-width:1.0416666666666667;" width="243.75" x="152.6042" y="53.7028"/><rect fill="#1B1B1A" height="8.3333" style="stroke:#1B1B1A;stroke-width:1.0416666666666667;" width="243.75" x="152.6042" y="76.7578"/><rect fill="none" height="48.055" id="PagingNavigationIncrementLink" rx="8.3333" ry="8.3333" style="stroke:#5E5E5E;stroke-width:1.0416666666666667;" width="243.75" x="152.6042" y="53.7028"/><ellipse cx="167.1875" cy="69.397" fill="#0066CF" rx="10.4167" ry="10.4167" style="stroke:#0086EF;stroke-width:1.0416666666666667;"/><path d="M169.0979,73.822 Q168.6707,74.0417 168.2007,74.1516 Q167.7307,74.2615 167.2119,74.2615 Q165.3687,74.2615 164.3982,73.0469 Q163.4277,71.8323 163.4277,69.5374 Q163.4277,67.2363 164.3982,66.0217 Q165.3687,64.8071 167.2119,64.8071 Q167.7307,64.8071 168.2068,64.917 Q168.6829,65.0269 169.0979,65.2466 L169.0979,67.2485 Q168.634,66.8213 168.1976,66.6229 Q167.7612,66.4246 167.2974,66.4246 Q166.3086,66.4246 165.8051,67.2089 Q165.3015,67.9932 165.3015,69.5374 Q165.3015,71.0754 165.8051,71.8597 Q166.3086,72.644 167.2974,72.644 Q167.7612,72.644 168.1976,72.4457 Q168.634,72.2473 169.0979,71.8201 Z " fill="#000000"/><text fill="#D8BC00" font-family="Open Sans,Avenir,Nunito,Arial,Helvetica,SansSerif" font-size="12.5" font-weight="bold" lengthAdjust="spacing" textLength="206.25" x="183.8542" y="74.1211">PagingNavigationIncrementLink</text><line style="stroke:#5E5E5E;stroke-width:1.0416666666666667;" x1="153.6458" x2="395.3125" y1="85.0911" y2="85.0911"/><line style="stroke:#5E5E5E;stroke-width:1.0416666666666667;" x1="153.6458" x2="395.3125" y1="93.4245" y2="93.4245"/><!--MD5=[3ad2700dace3e9755786feea61c75095]
class AjaxPagingNavigationIncrementLink--><rect codeLine="25" fill="#282828" height="155.1127" id="AjaxPagingNavigationIncrementLink" rx="8.3333" ry="8.3333" style="stroke:#5E5E5E;stroke-width:1.0416666666666667;" width="530.2083" x="9.375" y="164.1195"/><rect fill="#1B1B1A" height="31.3883" rx="8.3333" ry="8.3333" style="stroke:#1B1B1A;stroke-width:1.0416666666666667;" width="530.2083" x="9.375" y="164.1195"/><rect fill="#1B1B1A" height="8.3333" style="stroke:#1B1B1A;stroke-width:1.0416666666666667;" width="530.2083" x="9.375" y="187.1745"/><rect codeLine="25" fill="none" height="155.1127" id="AjaxPagingNavigationIncrementLink" rx="8.3333" ry="8.3333" style="stroke:#5E5E5E;stroke-width:1.0416666666666667;" width="530.2083" x="9.375" y="164.1195"/><ellipse cx="150" cy="179.8136" fill="#0066CF" rx="10.4167" ry="10.4167" style="stroke:#0086EF;stroke-width:1.0416666666666667;"/><path d="M151.9104,184.2387 Q151.4832,184.4584 151.0132,184.5683 Q150.5432,184.6781 150.0244,184.6781 Q148.1812,184.6781 147.2107,183.4635 Q146.2402,182.2489 146.2402,179.954 Q146.2402,177.653 147.2107,176.4384 Q148.1812,175.2238 150.0244,175.2238 Q150.5432,175.2238 151.0193,175.3337 Q151.4954,175.4435 151.9104,175.6632 L151.9104,177.6652 Q151.4465,177.238 151.0101,177.0396 Q150.5737,176.8412 150.1099,176.8412 Q149.1211,176.8412 148.6176,177.6255 Q148.114,178.4098 148.114,179.954 Q148.114,181.4921 148.6176,182.2764 Q149.1211,183.0607 150.1099,183.0607 Q150.5737,183.0607 151.0101,182.8623 Q151.4465,182.664 151.9104,182.2367 Z " fill="#000000"/><text fill="#D8BC00" font-family="Open Sans,Avenir,Nunito,Arial,Helvetica,SansSerif" font-size="12.5" font-weight="bold" lengthAdjust="spacing" textLength="234.375" x="172.9167" y="184.5378">AjaxPagingNavigationIncrementLink</text><line style="stroke:#5E5E5E;stroke-width:1.5625;" x1="10.4167" x2="538.5417" y1="195.5078" y2="195.5078"/><ellipse cx="20.8333" cy="230.8777" fill="#84BE84" rx="3.125" ry="3.125" style="stroke:#038048;stroke-width:1.0416666666666667;"/><text fill="#D8BC00" font-family="Open Sans,Avenir,Nunito,Arial,Helvetica,SansSerif" font-size="11.4583" lengthAdjust="spacing" textLength="321.875" x="32.2917" y="237.7889">AjaxPagingNavigationIncrementLink(String, IPageable, int)</text><line style="stroke:#5E5E5E;stroke-width:1.0416666666666667;" x1="10.4167" x2="230.7292" y1="213.7136" y2="213.7136"/><text fill="#D8BC00" font-family="Open Sans,Avenir,Nunito,Arial,Helvetica,SansSerif" font-size="11.4583" lengthAdjust="spacing" textLength="81.25" x="233.8542" y="217.5232">(constructors)</text><line style="stroke:#5E5E5E;stroke-width:1.0416666666666667;" x1="318.2292" x2="538.5417" y1="213.7136" y2="213.7136"/><line style="stroke:#5E5E5E;stroke-width:1.0416666666666667;" x1="10.4167" x2="538.5417" y1="247.4976" y2="247.4976"/><polygon fill="#FFFF44" points="20.8333,253.7476,25,257.9142,20.8333,262.0809,16.6667,257.9142" style="stroke:#B38D22;stroke-width:1.0416666666666667;"/><text fill="#D8BC00" font-family="Open Sans,Avenir,Nunito,Arial,Helvetica,SansSerif" font-size="11.4583" lengthAdjust="spacing" textLength="281.25" x="32.2917" y="265.8671">void updateAjaxAttributes(AjaxRequestAttributes)</text><polygon fill="#FFFF44" points="20.8333,297.404,25,301.5706,20.8333,305.7373,16.6667,301.5706" style="stroke:#B38D22;stroke-width:1.0416666666666667;"/><text fill="#D8BC00" font-family="Open Sans,Avenir,Nunito,Arial,Helvetica,SansSerif" font-size="11.4583" lengthAdjust="spacing" textLength="497.9167" x="32.2917" y="309.5235">AjaxPagingNavigationBehavior newAjaxPagingNavigationBehavior(IPageable, String event)</text><line style="stroke:#5E5E5E;stroke-width:1.0416666666666667;" x1="10.4167" x2="247.3958" y1="285.4482" y2="285.4482"/><text fill="#D8BC00" font-family="Open Sans,Avenir,Nunito,Arial,Helvetica,SansSerif" font-size="11.4583" lengthAdjust="spacing" textLength="47.9167" x="250.5208" y="289.2578">(factory)</text><line style="stroke:#5E5E5E;stroke-width:1.0416666666666667;" x1="301.5625" x2="538.5417" y1="285.4482" y2="285.4482"/><!--MD5=[b7cac04795825c21aedef2af4b42afb2]
class PagingNavigationLink--><rect fill="#282828" height="48.055" id="PagingNavigationLink" rx="8.3333" ry="8.3333" style="stroke:#5E5E5E;stroke-width:1.0416666666666667;" width="179.1667" x="751.5625" y="53.7028"/><rect fill="#1B1B1A" height="31.3883" rx="8.3333" ry="8.3333" style="stroke:#1B1B1A;stroke-width:1.0416666666666667;" width="179.1667" x="751.5625" y="53.7028"/><rect fill="#1B1B1A" height="8.3333" style="stroke:#1B1B1A;stroke-width:1.0416666666666667;" width="179.1667" x="751.5625" y="76.7578"/><rect fill="none" height="48.055" id="PagingNavigationLink" rx="8.3333" ry="8.3333" style="stroke:#5E5E5E;stroke-width:1.0416666666666667;" width="179.1667" x="751.5625" y="53.7028"/><ellipse cx="766.1458" cy="69.397" fill="#0066CF" rx="10.4167" ry="10.4167" style="stroke:#0086EF;stroke-width:1.0416666666666667;"/><path d="M768.0562,73.822 Q767.629,74.0417 767.159,74.1516 Q766.689,74.2615 766.1702,74.2615 Q764.327,74.2615 763.3565,73.0469 Q762.3861,71.8323 762.3861,69.5374 Q762.3861,67.2363 763.3565,66.0217 Q764.327,64.8071 766.1702,64.8071 Q766.689,64.8071 767.1651,64.917 Q767.6412,65.0269 768.0562,65.2466 L768.0562,67.2485 Q767.5924,66.8213 767.156,66.6229 Q766.7196,66.4246 766.2557,66.4246 Q765.2669,66.4246 764.7634,67.2089 Q764.2598,67.9932 764.2598,69.5374 Q764.2598,71.0754 764.7634,71.8597 Q765.2669,72.644 766.2557,72.644 Q766.7196,72.644 767.156,72.4457 Q767.5924,72.2473 768.0562,71.8201 Z " fill="#000000"/><text fill="#D8BC00" font-family="Open Sans,Avenir,Nunito,Arial,Helvetica,SansSerif" font-size="12.5" font-weight="bold" lengthAdjust="spacing" textLength="141.6667" x="782.8125" y="74.1211">PagingNavigationLink</text><line style="stroke:#5E5E5E;stroke-width:1.0416666666666667;" x1="752.6042" x2="929.6875" y1="85.0911" y2="85.0911"/><line style="stroke:#5E5E5E;stroke-width:1.0416666666666667;" x1="752.6042" x2="929.6875" y1="93.4245" y2="93.4245"/><!--MD5=[0eb23dab283a79a803fbee656bc63053]
class AjaxPagingNavigationLink--><rect codeLine="37" fill="#282828" height="155.1127" id="AjaxPagingNavigationLink" rx="8.3333" ry="8.3333" style="stroke:#5E5E5E;stroke-width:1.0416666666666667;" width="530.2083" x="576.0417" y="164.1195"/><rect fill="#1B1B1A" height="31.3883" rx="8.3333" ry="8.3333" style="stroke:#1B1B1A;stroke-width:1.0416666666666667;" width="530.2083" x="576.0417" y="164.1195"/><rect fill="#1B1B1A" height="8.3333" style="stroke:#1B1B1A;stroke-width:1.0416666666666667;" width="530.2083" x="576.0417" y="187.1745"/><rect codeLine="37" fill="none" height="155.1127" id="AjaxPagingNavigationLink" rx="8.3333" ry="8.3333" style="stroke:#5E5E5E;stroke-width:1.0416666666666667;" width="530.2083" x="576.0417" y="164.1195"/><ellipse cx="748.9583" cy="179.8136" fill="#0066CF" rx="10.4167" ry="10.4167" style="stroke:#0086EF;stroke-width:1.0416666666666667;"/><path d="M750.8687,184.2387 Q750.4415,184.4584 749.9715,184.5683 Q749.5015,184.6781 748.9827,184.6781 Q747.1395,184.6781 746.169,183.4635 Q745.1986,182.2489 745.1986,179.954 Q745.1986,177.653 746.169,176.4384 Q747.1395,175.2238 748.9827,175.2238 Q749.5015,175.2238 749.9776,175.3337 Q750.4537,175.4435 750.8687,175.6632 L750.8687,177.6652 Q750.4049,177.238 749.9685,177.0396 Q749.5321,176.8412 749.0682,176.8412 Q748.0794,176.8412 747.5759,177.6255 Q747.0723,178.4098 747.0723,179.954 Q747.0723,181.4921 747.5759,182.2764 Q748.0794,183.0607 749.0682,183.0607 Q749.5321,183.0607 749.9685,182.8623 Q750.4049,182.664 750.8687,182.2367 Z " fill="#000000"/><text fill="#D8BC00" font-family="Open Sans,Avenir,Nunito,Arial,Helvetica,SansSerif" font-size="12.5" font-weight="bold" lengthAdjust="spacing" textLength="169.7917" x="771.875" y="184.5378">AjaxPagingNavigationLink</text><line style="stroke:#5E5E5E;stroke-width:1.5625;" x1="577.0833" x2="1105.2083" y1="195.5078" y2="195.5078"/><ellipse cx="587.5" cy="230.8777" fill="#84BE84" rx="3.125" ry="3.125" style="stroke:#038048;stroke-width:1.0416666666666667;"/><text fill="#D8BC00" font-family="Open Sans,Avenir,Nunito,Arial,Helvetica,SansSerif" font-size="11.4583" lengthAdjust="spacing" textLength="276.0417" x="598.9583" y="237.7889">AjaxPagingNavigationLink(String, IPageable, long)</text><line style="stroke:#5E5E5E;stroke-width:1.0416666666666667;" x1="577.0833" x2="797.3958" y1="213.7136" y2="213.7136"/><text fill="#D8BC00" font-family="Open Sans,Avenir,Nunito,Arial,Helvetica,SansSerif" font-size="11.4583" lengthAdjust="spacing" textLength="81.25" x="800.5208" y="217.5232">(constructors)</text><line style="stroke:#5E5E5E;stroke-width:1.0416666666666667;" x1="884.8958" x2="1105.2083" y1="213.7136" y2="213.7136"/><line style="stroke:#5E5E5E;stroke-width:1.0416666666666667;" x1="577.0833" x2="1105.2083" y1="247.4976" y2="247.4976"/><polygon fill="#FFFF44" points="587.5,253.7476,591.6667,257.9142,587.5,262.0809,583.3333,257.9142" style="stroke:#B38D22;stroke-width:1.0416666666666667;"/><text fill="#D8BC00" font-family="Open Sans,Avenir,Nunito,Arial,Helvetica,SansSerif" font-size="11.4583" lengthAdjust="spacing" textLength="281.25" x="598.9583" y="265.8671">void updateAjaxAttributes(AjaxRequestAttributes)</text><polygon fill="#FFFF44" points="587.5,297.404,591.6667,301.5706,587.5,305.7373,583.3333,301.5706" style="stroke:#B38D22;stroke-width:1.0416666666666667;"/><text fill="#D8BC00" font-family="Open Sans,Avenir,Nunito,Arial,Helvetica,SansSerif" font-size="11.4583" lengthAdjust="spacing" textLength="497.9167" x="598.9583" y="309.5235">AjaxPagingNavigationBehavior newAjaxPagingNavigationBehavior(IPageable, String event)</text><line style="stroke:#5E5E5E;stroke-width:1.0416666666666667;" x1="577.0833" x2="814.0625" y1="285.4482" y2="285.4482"/><text fill="#D8BC00" font-family="Open Sans,Avenir,Nunito,Arial,Helvetica,SansSerif" font-size="11.4583" lengthAdjust="spacing" textLength="47.9167" x="817.1875" y="289.2578">(factory)</text><line style="stroke:#5E5E5E;stroke-width:1.0416666666666667;" x1="868.2292" x2="1105.2083" y1="285.4482" y2="285.4482"/><!--MD5=[67c7f9870ca2396d28d822208edfd665]
class PagingNavigator--><rect fill="#282828" height="48.055" id="PagingNavigator" rx="8.3333" ry="8.3333" style="stroke:#5E5E5E;stroke-width:1.0416666666666667;" width="143.75" x="2067.1875" y="53.7028"/><rect fill="#1B1B1A" height="31.3883" rx="8.3333" ry="8.3333" style="stroke:#1B1B1A;stroke-width:1.0416666666666667;" width="143.75" x="2067.1875" y="53.7028"/><rect fill="#1B1B1A" height="8.3333" style="stroke:#1B1B1A;stroke-width:1.0416666666666667;" width="143.75" x="2067.1875" y="76.7578"/><rect fill="none" height="48.055" id="PagingNavigator" rx="8.3333" ry="8.3333" style="stroke:#5E5E5E;stroke-width:1.0416666666666667;" width="143.75" x="2067.1875" y="53.7028"/><ellipse cx="2081.7708" cy="69.397" fill="#0066CF" rx="10.4167" ry="10.4167" style="stroke:#0086EF;stroke-width:1.0416666666666667;"/><path d="M2083.6812,73.822 Q2083.254,74.0417 2082.784,74.1516 Q2082.314,74.2615 2081.7952,74.2615 Q2079.952,74.2615 2078.9815,73.0469 Q2078.0111,71.8323 2078.0111,69.5374 Q2078.0111,67.2363 2078.9815,66.0217 Q2079.952,64.8071 2081.7952,64.8071 Q2082.314,64.8071 2082.7901,64.917 Q2083.2662,65.0269 2083.6812,65.2466 L2083.6812,67.2485 Q2083.2174,66.8213 2082.781,66.6229 Q2082.3446,66.4246 2081.8807,66.4246 Q2080.8919,66.4246 2080.3884,67.2089 Q2079.8848,67.9932 2079.8848,69.5374 Q2079.8848,71.0754 2080.3884,71.8597 Q2080.8919,72.644 2081.8807,72.644 Q2082.3446,72.644 2082.781,72.4457 Q2083.2174,72.2473 2083.6812,71.8201 Z " fill="#000000"/><text fill="#D8BC00" font-family="Open Sans,Avenir,Nunito,Arial,Helvetica,SansSerif" font-size="12.5" font-weight="bold" lengthAdjust="spacing" textLength="106.25" x="2098.4375" y="74.1211">PagingNavigator</text><line style="stroke:#5E5E5E;stroke-width:1.0416666666666667;" x1="2068.2292" x2="2209.8958" y1="85.0911" y2="85.0911"/><line style="stroke:#5E5E5E;stroke-width:1.0416666666666667;" x1="2068.2292" x2="2209.8958" y1="93.4245" y2="93.4245"/><!--MD5=[98b44b02595eef4a4c82ef40ca26a30a]
class AjaxPagingNavigator--><rect codeLine="48" fill="#282828" height="146.7794" id="AjaxPagingNavigator" rx="8.3333" ry="8.3333" style="stroke:#5E5E5E;stroke-width:1.0416666666666667;" width="371.875" x="1953.125" y="168.2861"/><rect fill="#1B1B1A" height="31.3883" rx="8.3333" ry="8.3333" style="stroke:#1B1B1A;stroke-width:1.0416666666666667;" width="371.875" x="1953.125" y="168.2861"/><rect fill="#1B1B1A" height="8.3333" style="stroke:#1B1B1A;stroke-width:1.0416666666666667;" width="371.875" x="1953.125" y="191.3411"/><rect codeLine="48" fill="none" height="146.7794" id="AjaxPagingNavigator" rx="8.3333" ry="8.3333" style="stroke:#5E5E5E;stroke-width:1.0416666666666667;" width="371.875" x="1953.125" y="168.2861"/><ellipse cx="2064.5833" cy="183.9803" fill="#0066CF" rx="10.4167" ry="10.4167" style="stroke:#0086EF;stroke-width:1.0416666666666667;"/><path d="M2066.4937,188.4054 Q2066.0665,188.6251 2065.5965,188.7349 Q2065.1265,188.8448 2064.6077,188.8448 Q2062.7645,188.8448 2061.794,187.6302 Q2060.8236,186.4156 2060.8236,184.1207 Q2060.8236,181.8197 2061.794,180.6051 Q2062.7645,179.3905 2064.6077,179.3905 Q2065.1265,179.3905 2065.6026,179.5003 Q2066.0787,179.6102 2066.4937,179.8299 L2066.4937,181.8319 Q2066.0299,181.4046 2065.5935,181.2063 Q2065.1571,181.0079 2064.6932,181.0079 Q2063.7044,181.0079 2063.2009,181.7922 Q2062.6973,182.5765 2062.6973,184.1207 Q2062.6973,185.6588 2063.2009,186.4431 Q2063.7044,187.2274 2064.6932,187.2274 Q2065.1571,187.2274 2065.5935,187.029 Q2066.0299,186.8306 2066.4937,186.4034 Z " fill="#000000"/><text fill="#D8BC00" font-family="Open Sans,Avenir,Nunito,Arial,Helvetica,SansSerif" font-size="12.5" font-weight="bold" lengthAdjust="spacing" textLength="134.375" x="2087.5" y="188.7044">AjaxPagingNavigator</text><line style="stroke:#5E5E5E;stroke-width:1.5625;" x1="1954.1667" x2="2323.9583" y1="199.6745" y2="199.6745"/><ellipse cx="1964.5833" cy="235.0444" fill="#84BE84" rx="3.125" ry="3.125" style="stroke:#038048;stroke-width:1.0416666666666667;"/><text fill="#D8BC00" font-family="Open Sans,Avenir,Nunito,Arial,Helvetica,SansSerif" font-size="11.4583" lengthAdjust="spacing" textLength="216.6667" x="1976.0417" y="241.9556">AjaxPagingNavigator(String, IPageable)</text><ellipse cx="1964.5833" cy="254.7892" fill="#84BE84" rx="3.125" ry="3.125" style="stroke:#038048;stroke-width:1.0416666666666667;"/><text fill="#D8BC00" font-family="Open Sans,Avenir,Nunito,Arial,Helvetica,SansSerif" font-size="11.4583" lengthAdjust="spacing" textLength="339.5833" x="1976.0417" y="261.7004">AjaxPagingNavigator(String, IPageable, IPagingLabelProvider)</text><line style="stroke:#5E5E5E;stroke-width:1.0416666666666667;" x1="1954.1667" x2="2095.3125" y1="217.8802" y2="217.8802"/><text fill="#D8BC00" font-family="Open Sans,Avenir,Nunito,Arial,Helvetica,SansSerif" font-size="11.4583" lengthAdjust="spacing" textLength="81.25" x="2098.4375" y="221.6899">(constructors)</text><line style="stroke:#5E5E5E;stroke-width:1.0416666666666667;" x1="2182.8125" x2="2323.9583" y1="217.8802" y2="217.8802"/><polygon fill="#FFFF44" points="1964.5833,293.2373,1968.75,297.404,1964.5833,301.5706,1960.4167,297.404" style="stroke:#B38D22;stroke-width:1.0416666666666667;"/><text fill="#D8BC00" font-family="Open Sans,Avenir,Nunito,Arial,Helvetica,SansSerif" font-size="11.4583" lengthAdjust="spacing" textLength="211.4583" x="1976.0417" y="305.3569">void onAjaxEvent(AjaxRequestTarget)</text><line style="stroke:#5E5E5E;stroke-width:1.0416666666666667;" x1="1954.1667" x2="2101.5625" y1="281.2815" y2="281.2815"/><text fill="#D8BC00" font-family="Open Sans,Avenir,Nunito,Arial,Helvetica,SansSerif" font-size="11.4583" lengthAdjust="spacing" textLength="68.75" x="2104.6875" y="285.0911">(messaging)</text><line style="stroke:#5E5E5E;stroke-width:1.0416666666666667;" x1="2176.5625" x2="2323.9583" y1="281.2815" y2="281.2815"/><!--MD5=[bd6d0130a06c7e6eff2561fdf828123e]
reverse link PagingNavigation to AjaxPagingNavigation--><path codeLine="8" d="M1331.7708,122.8695 C1331.7708,143.6715 1331.7708,168.5778 1331.7708,190.1299 " fill="none" id="PagingNavigation-backto-AjaxPagingNavigation" style="stroke:#545454;stroke-width:1.5625;"/><polygon fill="none" points="1324.4792,122.7445,1331.7708,101.9111,1339.0625,122.7445,1324.4792,122.7445" style="stroke:#545454;stroke-width:1.5625;"/><!--MD5=[e34987e0992de1d78f997159f540f4b8]
reverse link AjaxEventBehavior to AjaxPagingNavigationBehavior--><path codeLine="16" d="M1736.9792,122.9111 C1736.9792,146.9528 1736.9792,176.5049 1736.9792,199.984 " fill="none" id="AjaxEventBehavior-backto-AjaxPagingNavigationBehavior" style="stroke:#545454;stroke-width:1.5625;"/><polygon fill="none" points="1729.6875,122.7445,1736.9792,101.9111,1744.2708,122.7445,1729.6875,122.7445" style="stroke:#545454;stroke-width:1.5625;"/><!--MD5=[90b3046a63d668070c4c8c663af55b09]
reverse link PagingNavigationIncrementLink to AjaxPagingNavigationIncrementLink--><path codeLine="23" d="M274.4792,122.8382 C274.4792,135.5986 274.4792,149.9215 274.4792,164.057 " fill="none" id="PagingNavigationIncrementLink-backto-AjaxPagingNavigationIncrementLink" style="stroke:#545454;stroke-width:1.5625;"/><polygon fill="none" points="267.1875,122.7445,274.4792,101.9111,281.7708,122.7445,267.1875,122.7445" style="stroke:#545454;stroke-width:1.5625;"/><!--MD5=[12eadd8961095087b7fe280afe9ae3bf]
reverse link IAjaxLink to AjaxPagingNavigationIncrementLink--><path codeLine="24" d="M513.4375,111.6611 C485.2604,126.8799 450.5104,145.6403 416.3333,164.0882 " fill="none" id="IAjaxLink-backto-AjaxPagingNavigationIncrementLink" style="stroke:#545454;stroke-width:1.5625;"/><polygon fill="none" points="510.0208,105.2236,531.8125,101.734,516.9479,118.057,510.0208,105.2236" style="stroke:#545454;stroke-width:1.5625;"/><!--MD5=[2ae82b61654ba8f80b25f1f0e35845cb]
reverse link PagingNavigationLink to AjaxPagingNavigationLink--><path codeLine="35" d="M841.1458,122.8382 C841.1458,135.5986 841.1458,149.9215 841.1458,164.057 " fill="none" id="PagingNavigationLink-backto-AjaxPagingNavigationLink" style="stroke:#545454;stroke-width:1.5625;"/><polygon fill="none" points="833.8542,122.7445,841.1458,101.9111,848.4375,122.7445,833.8542,122.7445" style="stroke:#545454;stroke-width:1.5625;"/><!--MD5=[653b80f3afe3d119048d59e06e486973]
reverse link IAjaxLink to AjaxPagingNavigationLink--><path codeLine="36" d="M630.5521,112.7653 C655.2708,127.7757 685.3958,146.0778 715.0521,164.0882 " fill="none" id="IAjaxLink-backto-AjaxPagingNavigationLink" style="stroke:#545454;stroke-width:1.5625;"/><polygon fill="none" points="626.4271,118.7861,612.4063,101.734,633.9896,106.3174,626.4271,118.7861" style="stroke:#545454;stroke-width:1.5625;"/><!--MD5=[5301bb59db025aa74b403fb09919613b]
reverse link PagingNavigator to AjaxPagingNavigator--><path codeLine="47" d="M2139.0625,123.1715 C2139.0625,137.0465 2139.0625,152.734 2139.0625,168.0257 " fill="none" id="PagingNavigator-backto-AjaxPagingNavigator" style="stroke:#545454;stroke-width:1.5625;"/><polygon fill="none" points="2131.7708,122.7445,2139.0625,101.9111,2146.3542,122.7445,2131.7708,122.7445" style="stroke:#545454;stroke-width:1.5625;"/><!--MD5=[b6ad366de73960baa221f0ceeb43b727]
@startuml

    !include lexakai.theme
    
    title "org.apache.wicket.ajax.markup.html.navigation.paging"
    
    interface IAjaxLink
    
    PagingNavigation <|- - AjaxPagingNavigation
    class AjaxPagingNavigation
    {
        - -(constructors)- -
        +AjaxPagingNavigation(String, IPageable)
        +AjaxPagingNavigation(String, IPageable, IPagingLabelProvider)
    }
    
    AjaxEventBehavior <|- - AjaxPagingNavigationBehavior
    class AjaxPagingNavigationBehavior
    {
        - -(constructors)- -
        +AjaxPagingNavigationBehavior(IAjaxLink, IPageable, String)
    }
    
    PagingNavigationIncrementLink <|- - AjaxPagingNavigationIncrementLink
    IAjaxLink <|- - AjaxPagingNavigationIncrementLink
    class AjaxPagingNavigationIncrementLink
    {
        - -(constructors)- -
        +AjaxPagingNavigationIncrementLink(String, IPageable, int)
        - -
        #void updateAjaxAttributes(AjaxRequestAttributes)
        - -(factory)- -
        #AjaxPagingNavigationBehavior newAjaxPagingNavigationBehavior(IPageable, String event)
    }
    
    PagingNavigationLink <|- - AjaxPagingNavigationLink
    IAjaxLink <|- - AjaxPagingNavigationLink
    class AjaxPagingNavigationLink
    {
        - -(constructors)- -
        +AjaxPagingNavigationLink(String, IPageable, long)
        - -
        #void updateAjaxAttributes(AjaxRequestAttributes)
        - -(factory)- -
        #AjaxPagingNavigationBehavior newAjaxPagingNavigationBehavior(IPageable, String event)
    }
    
    PagingNavigator <|- - AjaxPagingNavigator
    class AjaxPagingNavigator
    {
        - -(constructors)- -
        +AjaxPagingNavigator(String, IPageable)
        +AjaxPagingNavigator(String, IPageable, IPagingLabelProvider)
        - -(messaging)- -
        #void onAjaxEvent(AjaxRequestTarget)
    }
    
@enduml

@startuml









skinparam backgroundColor #333333






skinparam  {
    defaultFontName   "Open Sans,Avenir,Nunito,Arial,Helvetica,SansSerif"
    defaultFontSize   12
    defaultTextAlignment left
    shadowing false
    RoundCorner 10
    TitleFontSize 18
}

skinparam defaultFontName       "Open Sans,Avenir,Nunito,Arial,Helvetica,SansSerif"
skinparam defaultFontSize       12
skinparam dpi                   100
skinparam shadowing             false
skinparam roundcorner           16
skinparam ParticipantPadding    40
skinparam BoxPadding            40
skinparam Padding               3
skinparam ArrowColor            #545454
skinparam stereotype {
    CBackgroundColor #0066cf
    CBorderColor #0086ef
    ABackgroundColor #C8Ac00
    ABorderColor #D8Bc00
    IBackgroundColor #008400
    IBorderColor #239c23
    EBackgroundColor #cf6300
    EBorderColor #ef8300
    NBackgroundColor #3380b9
    NBorderColor #004d86
}
skinparam title {
	FontColor	                 #c0c0c0
 	BorderColor                  #545454
	FontSize	    	         20
	BorderRoundCorner            16
	BorderThickness 	         1
	BackgroundColor              #48494b
}


skinparam legend {
	BackgroundColor #303030
	BorderColor #404040
	FontColor #a0a0a0
}

	skinparam swimlane {
	BorderColor #5e5e5e
	BorderThickness 2
	TitleBackgroundColor  #6d6d6d-#484848
	TitleFontColor #303030
}

skinparam activity {
		FontColor #C8Ac00
	BorderColor #333333
	BackgroundColor #333333-#333333
	BarColor #00FF00
	StartColor #0060a8
	EndColor #0060a8
	DiamondBackgroundColor #6d6d6d-#3a3a3a
  	DiamondBorderColor #3a3a3a
  	DiamondFontColor #fefefe
}


skinparam participant {
		FontColor #C8Ac00
	BorderColor #333333
	BackgroundColor #333333-#333333
	ParticipantBorderThickness 2
}


skinparam actor {
		FontColor #C8Ac00
	BorderColor #333333
	BackgroundColor #333333-#333333
}


skinparam arrow {
	Thickness 1.5
	Color #545454
	FontColor #a0a0a0
    FontStyle bold
    MessageAlignment center
}



skinparam sequence {
	BorderColor #303030
	TitleFontColor #303030
	BackgroundColor #333333
	StartColor #303030
	EndColor #303030
	BoxBackgroundColor #333333
	BoxBorderColor #484848
	BoxFontColor #484848
	LifeLineBorderColor #484848
	LifeLineBorderThickness 2
	LifeLineBackgroundColor #3a3a3a
	GroupBorderColor #484848
	GroupFontColor #484848
	GroupHeaderFontColor #0060a8
	GroupBackgroundColor #484848
	GroupHeaderBackgroundColor #333333
	DividerBackgroundColor #484848
    DividerBorderColor #484848
    DividerBorderThickness 2
    DividerFontColor #D8Bc00
	ReferenceBackgroundColor #333333
	ReferenceBorderColor #484848
	ReferenceFontColor #fefefe
	ReferenceHeaderBackgroundColor #484848
}


skinparam partition {
	BorderColor #303030
	FontColor #333333
	BackgroundColor #333333
}


skinparam collections {
		FontColor #C8Ac00
	BorderColor #333333
	BackgroundColor #333333-#333333
}


skinparam control {
		FontColor #C8Ac00
	BorderColor #333333
	BackgroundColor #333333-#333333
}


skinparam entity {
		FontColor #C8Ac00
	BorderColor #333333
	BackgroundColor #333333-#333333
}


skinparam boundary {
		FontColor #C8Ac00
	BorderColor #333333
	BackgroundColor #333333-#333333
}


skinparam agent {
	BackgroundColor #ff8000
	BorderColor #ff9933
	FontColor #484848
}


skinparam note {
	BorderThickness 1
	BackgroundColor #1b1b1a
	BorderColor #5e5e5e
	FontSize 11
	FontColor #a0a0a0
}


skinparam artifact {
	BorderThickness 10
	BorderColor #5e5e5e
	BackgroundColor #1b1b1a
	FontColor #D8Bc00
}


skinparam component {
		FontColor #C8Ac00
	BorderColor #333333
	BackgroundColor #333333-#333333
}


skinparam interface {
	BackgroundColor  #008400
	BorderColor  #007F00
	FontColor #484848
}


skinparam storage {
	BackgroundColor #ff8000
  	BorderColor #cc6600
	FontColor #222222
}


skinparam node {
	BackgroundColor #333333
	BorderColor #333333
	FontColor #C8Ac00
}


skinparam cloud {
	BackgroundColor #484848-black
	BorderColor #484848
	FontColor #D8Bc00
}


skinparam database {
		FontColor #C8Ac00
	BorderColor #333333
	BackgroundColor #333333-#333333
	BackgroundColor  #333333
}


skinparam class {
		FontColor #C8Ac00
	BorderColor #333333
	BackgroundColor #333333-#333333
	HeaderBackgroundColor #1b1b1a
    BackgroundColor #282828
    BorderColor #5e5e5e
 	StereotypeFontColor #a0a0a0
    StereotypeFontStyle bold
	BorderThickness 1
	AttributeFontColor #D8Bc00
	AttributeFontSize 11
    FontColor #D8Bc00
    FontStyle bold
}


skinparam object {
		FontColor #C8Ac00
	BorderColor #333333
	BackgroundColor #333333-#333333
	StereotypeFontColor #484848
	BorderThickness 1
	AttributeFontColor #fefefe
	AttributeFontSize 11
}


skinparam usecase {
		FontColor #C8Ac00
	BorderColor #333333
	BackgroundColor #333333-#333333
	BorderThickness 2
	StereotypeFontColor #303030
}


skinparam rectangle {
		FontColor #C8Ac00
	BorderColor #333333
	BackgroundColor #333333-#333333
	BackgroundColor #333333
	BorderThickness 2
	StereotypeFontColor #303030
}


skinparam package {
		FontColor #C8Ac00
	BorderColor #333333
	BackgroundColor #333333-#333333
	BackgroundColor #333333
	BorderThickness 2
}


skinparam folder {
	BackgroundColor #6d6d6d
  	BorderColor #ff8000
	FontColor #ff8000
	BorderThickness 2
}


skinparam frame {
	BackgroundColor #6d6d6d
  	BorderColor #0060a8
	FontColor #0060a8
	BorderThickness 2
}


skinparam state {
		FontColor #C8Ac00
	BorderColor #333333
	BackgroundColor #333333-#333333
	StartColor #0060a8
	EndColor #0060a8
	AttributeFontColor #fefefe
	AttributeFontSize 11
}


skinparam queue {
		FontColor #C8Ac00
	BorderColor #333333
	BackgroundColor #333333-#333333
}


skinparam card {
	BackgroundColor #0060a8
	BorderColor #004d86
	FontColor $INFO_TEXT
}


skinparam file {
	BackgroundColor #6d6d6d-#484848
	BorderColor #0060a8
	FontColor #fefefe
}


skinparam stack {
		FontColor #C8Ac00
	BorderColor #333333
	BackgroundColor #333333-#333333
}

    
    title "org.apache.wicket.ajax.markup.html.navigation.paging"
    
    interface IAjaxLink
    
    PagingNavigation <|- - AjaxPagingNavigation
    class AjaxPagingNavigation
    {
        - -(constructors)- -
        +AjaxPagingNavigation(String, IPageable)
        +AjaxPagingNavigation(String, IPageable, IPagingLabelProvider)
    }
    
    AjaxEventBehavior <|- - AjaxPagingNavigationBehavior
    class AjaxPagingNavigationBehavior
    {
        - -(constructors)- -
        +AjaxPagingNavigationBehavior(IAjaxLink, IPageable, String)
    }
    
    PagingNavigationIncrementLink <|- - AjaxPagingNavigationIncrementLink
    IAjaxLink <|- - AjaxPagingNavigationIncrementLink
    class AjaxPagingNavigationIncrementLink
    {
        - -(constructors)- -
        +AjaxPagingNavigationIncrementLink(String, IPageable, int)
        - -
        #void updateAjaxAttributes(AjaxRequestAttributes)
        - -(factory)- -
        #AjaxPagingNavigationBehavior newAjaxPagingNavigationBehavior(IPageable, String event)
    }
    
    PagingNavigationLink <|- - AjaxPagingNavigationLink
    IAjaxLink <|- - AjaxPagingNavigationLink
    class AjaxPagingNavigationLink
    {
        - -(constructors)- -
        +AjaxPagingNavigationLink(String, IPageable, long)
        - -
        #void updateAjaxAttributes(AjaxRequestAttributes)
        - -(factory)- -
        #AjaxPagingNavigationBehavior newAjaxPagingNavigationBehavior(IPageable, String event)
    }
    
    PagingNavigator <|- - AjaxPagingNavigator
    class AjaxPagingNavigator
    {
        - -(constructors)- -
        +AjaxPagingNavigator(String, IPageable)
        +AjaxPagingNavigator(String, IPageable, IPagingLabelProvider)
        - -(messaging)- -
        #void onAjaxEvent(AjaxRequestTarget)
    }
    
@enduml

PlantUML version 1.2021.01(Tue Feb 02 00:55:08 MST 2021)
(GPL source distribution)
Java Runtime: Java(TM) SE Runtime Environment
JVM: Java HotSpot(TM) 64-Bit Server VM
Default Encoding: UTF-8
Language: en
Country: US
--></g></svg>