<?xml version="1.0" encoding="UTF-8" standalone="no"?><svg xmlns="http://www.w3.org/2000/svg" xmlns:xlink="http://www.w3.org/1999/xlink" contentScriptType="application/ecmascript" contentStyleType="text/css" height="630.2083px" preserveAspectRatio="none" style="width:1342px;height:630px;background:#333333;" version="1.1" viewBox="0 0 1342 630" width="1342.7083px" zoomAndPan="magnify"><defs/><g><rect fill="#48494B" height="41.2028" rx="8.3333" ry="8.3333" style="stroke:#545454;stroke-width:1.0416666666666667;" width="381.25" x="473.4375" y="2.0833"/><text fill="#C0C0C0" font-family="Open Sans,Avenir,Nunito,Arial,Helvetica,SansSerif" font-size="20.8333" lengthAdjust="spacing" textLength="358.3333" x="484.8958" y="30.5583">org.apache.wicket.resource.bundles</text><!--MD5=[50a30282382586376108eb2dfb7a517e]
class AbstractResource--><rect codeLine="6" fill="#282828" height="48.055" id="AbstractResource" rx="8.3333" ry="8.3333" style="stroke:#5E5E5E;stroke-width:1.0416666666666667;" width="150" x="103.6458" y="71.4111"/><rect fill="#1B1B1A" height="31.3883" rx="8.3333" ry="8.3333" style="stroke:#1B1B1A;stroke-width:1.0416666666666667;" width="150" x="103.6458" y="71.4111"/><rect fill="#1B1B1A" height="8.3333" style="stroke:#1B1B1A;stroke-width:1.0416666666666667;" width="150" x="103.6458" y="94.4661"/><rect codeLine="6" fill="none" height="48.055" id="AbstractResource" rx="8.3333" ry="8.3333" style="stroke:#5E5E5E;stroke-width:1.0416666666666667;" width="150" x="103.6458" y="71.4111"/><ellipse cx="118.2292" cy="87.1053" fill="#C8AC00" rx="10.4167" ry="10.4167" style="stroke:#D8BC00;stroke-width:1.0416666666666667;"/><path d="M117.8223,83.8074 L116.9739,87.5366 L118.6768,87.5366 Z M116.7236,82.1594 L118.927,82.1594 L121.3867,91.272 L119.5862,91.272 L119.0247,89.0198 L116.6138,89.0198 L116.0645,91.272 L114.2639,91.272 Z " fill="#000000"/><text fill="#D8BC00" font-family="Open Sans,Avenir,Nunito,Arial,Helvetica,SansSerif" font-size="12.5" font-style="italic" font-weight="bold" lengthAdjust="spacing" textLength="112.5" x="134.8958" y="91.8294">AbstractResource</text><line style="stroke:#5E5E5E;stroke-width:1.0416666666666667;" x1="104.6875" x2="252.6042" y1="102.7995" y2="102.7995"/><line style="stroke:#5E5E5E;stroke-width:1.0416666666666667;" x1="104.6875" x2="252.6042" y1="111.1328" y2="111.1328"/><!--MD5=[b487df08344e2e8fcc1417c0fab3510c]
class IStaticCacheableResource--><rect codeLine="8" fill="#282828" height="48.055" id="IStaticCacheableResource" rx="8.3333" ry="8.3333" style="stroke:#5E5E5E;stroke-width:1.0416666666666667;" width="201.0417" x="290.625" y="71.4111"/><rect fill="#1B1B1A" height="31.3883" rx="8.3333" ry="8.3333" style="stroke:#1B1B1A;stroke-width:1.0416666666666667;" width="201.0417" x="290.625" y="71.4111"/><rect fill="#1B1B1A" height="8.3333" style="stroke:#1B1B1A;stroke-width:1.0416666666666667;" width="201.0417" x="290.625" y="94.4661"/><rect codeLine="8" fill="none" height="48.055" id="IStaticCacheableResource" rx="8.3333" ry="8.3333" style="stroke:#5E5E5E;stroke-width:1.0416666666666667;" width="201.0417" x="290.625" y="71.4111"/><ellipse cx="305.2083" cy="87.1053" fill="#008400" rx="10.4167" ry="10.4167" style="stroke:#239C23;stroke-width:1.0416666666666667;"/><path d="M302.6123,84.2672 L302.6123,82.6803 L308.0383,82.6803 L308.0383,84.2672 L306.2256,84.2672 L306.2256,90.2059 L308.0383,90.2059 L308.0383,91.7928 L302.6123,91.7928 L302.6123,90.2059 L304.425,90.2059 L304.425,84.2672 Z " fill="#000000"/><text fill="#D8BC00" font-family="Open Sans,Avenir,Nunito,Arial,Helvetica,SansSerif" font-size="12.5" font-style="italic" font-weight="bold" lengthAdjust="spacing" textLength="163.5417" x="321.875" y="91.8294">IStaticCacheableResource</text><line style="stroke:#5E5E5E;stroke-width:1.0416666666666667;" x1="291.6667" x2="490.625" y1="102.7995" y2="102.7995"/><line style="stroke:#5E5E5E;stroke-width:1.0416666666666667;" x1="291.6667" x2="490.625" y1="111.1328" y2="111.1328"/><!--MD5=[80c57876de23b657a4a5cd0025b72471]
class IResourceBundle--><rect codeLine="43" fill="#282828" height="83.3781" id="IResourceBundle" rx="8.3333" ry="8.3333" style="stroke:#5E5E5E;stroke-width:1.0416666666666667;" width="348.9583" x="587.5" y="53.7028"/><rect fill="#1B1B1A" height="31.3883" rx="8.3333" ry="8.3333" style="stroke:#1B1B1A;stroke-width:1.0416666666666667;" width="348.9583" x="587.5" y="53.7028"/><rect fill="#1B1B1A" height="8.3333" style="stroke:#1B1B1A;stroke-width:1.0416666666666667;" width="348.9583" x="587.5" y="76.7578"/><rect codeLine="43" fill="none" height="83.3781" id="IResourceBundle" rx="8.3333" ry="8.3333" style="stroke:#5E5E5E;stroke-width:1.0416666666666667;" width="348.9583" x="587.5" y="53.7028"/><ellipse cx="701.0417" cy="69.397" fill="#008400" rx="10.4167" ry="10.4167" style="stroke:#239C23;stroke-width:1.0416666666666667;"/><path d="M698.4456,66.5588 L698.4456,64.9719 L703.8717,64.9719 L703.8717,66.5588 L702.0589,66.5588 L702.0589,72.4976 L703.8717,72.4976 L703.8717,74.0845 L698.4456,74.0845 L698.4456,72.4976 L700.2584,72.4976 L700.2584,66.5588 Z " fill="#000000"/><text fill="#D8BC00" font-family="Open Sans,Avenir,Nunito,Arial,Helvetica,SansSerif" font-size="12.5" font-style="italic" font-weight="bold" lengthAdjust="spacing" textLength="107.2917" x="723.9583" y="74.1211">IResourceBundle</text><line style="stroke:#5E5E5E;stroke-width:1.5625;" x1="588.5417" x2="935.4167" y1="85.0911" y2="85.0911"/><ellipse cx="598.9583" cy="120.461" fill="#84BE84" rx="3.125" ry="3.125" style="stroke:#038048;stroke-width:1.0416666666666667;"/><text fill="#D8BC00" font-family="Open Sans,Avenir,Nunito,Arial,Helvetica,SansSerif" font-size="11.4583" lengthAdjust="spacing" textLength="316.6667" x="610.4167" y="127.3722">Iterable&lt;? extends HeaderItem&gt; getProvidedResources()</text><line style="stroke:#5E5E5E;stroke-width:1.0416666666666667;" x1="588.5417" x2="727.6042" y1="103.2969" y2="103.2969"/><text fill="#D8BC00" font-family="Open Sans,Avenir,Nunito,Arial,Helvetica,SansSerif" font-size="11.4583" lengthAdjust="spacing" textLength="62.5" x="730.7292" y="107.1065">(collection)</text><line style="stroke:#5E5E5E;stroke-width:1.0416666666666667;" x1="796.3542" x2="935.4167" y1="103.2969" y2="103.2969"/><!--MD5=[90b7addb4b0543ab1b72b2b133048a3a]
class ConcatBundleResource--><rect codeLine="13" fill="#282828" height="277.7486" id="ConcatBundleResource" rx="8.3333" ry="8.3333" style="stroke:#5E5E5E;stroke-width:1.0416666666666667;" width="386.4583" x="9.375" y="199.5361"/><rect fill="#1B1B1A" height="31.3883" rx="8.3333" ry="8.3333" style="stroke:#1B1B1A;stroke-width:1.0416666666666667;" width="386.4583" x="9.375" y="199.5361"/><rect fill="#1B1B1A" height="8.3333" style="stroke:#1B1B1A;stroke-width:1.0416666666666667;" width="386.4583" x="9.375" y="222.5911"/><rect codeLine="13" fill="none" height="277.7486" id="ConcatBundleResource" rx="8.3333" ry="8.3333" style="stroke:#5E5E5E;stroke-width:1.0416666666666667;" width="386.4583" x="9.375" y="199.5361"/><ellipse cx="121.3542" cy="215.2303" fill="#0066CF" rx="10.4167" ry="10.4167" style="stroke:#0086EF;stroke-width:1.0416666666666667;"/><path d="M123.2646,219.6554 Q122.8373,219.8751 122.3674,219.9849 Q121.8974,220.0948 121.3786,220.0948 Q119.5353,220.0948 118.5649,218.8802 Q117.5944,217.6656 117.5944,215.3707 Q117.5944,213.0697 118.5649,211.8551 Q119.5353,210.6405 121.3786,210.6405 Q121.8974,210.6405 122.3735,210.7503 Q122.8495,210.8602 123.2646,211.0799 L123.2646,213.0819 Q122.8007,212.6546 122.3643,212.4563 Q121.9279,212.2579 121.464,212.2579 Q120.4753,212.2579 119.9717,213.0422 Q119.4682,213.8265 119.4682,215.3707 Q119.4682,216.9088 119.9717,217.6931 Q120.4753,218.4774 121.464,218.4774 Q121.9279,218.4774 122.3643,218.279 Q122.8007,218.0806 123.2646,217.6534 Z " fill="#000000"/><text fill="#D8BC00" font-family="Open Sans,Avenir,Nunito,Arial,Helvetica,SansSerif" font-size="12.5" font-weight="bold" lengthAdjust="spacing" textLength="147.9167" x="144.2708" y="219.9544">ConcatBundleResource</text><line style="stroke:#5E5E5E;stroke-width:1.5625;" x1="10.4167" x2="394.7917" y1="230.9245" y2="230.9245"/><ellipse cx="20.8333" cy="266.2944" fill="#84BE84" rx="3.125" ry="3.125" style="stroke:#038048;stroke-width:1.0416666666666667;"/><text fill="#D8BC00" font-family="Open Sans,Avenir,Nunito,Arial,Helvetica,SansSerif" font-size="11.4583" lengthAdjust="spacing" textLength="354.1667" x="32.2917" y="273.2056">ConcatBundleResource(List&lt;? extends IReferenceHeaderItem&gt;)</text><line style="stroke:#5E5E5E;stroke-width:1.0416666666666667;" x1="10.4167" x2="158.8542" y1="249.1302" y2="249.1302"/><text fill="#D8BC00" font-family="Open Sans,Avenir,Nunito,Arial,Helvetica,SansSerif" font-size="11.4583" lengthAdjust="spacing" textLength="81.25" x="161.9792" y="252.9399">(constructors)</text><line style="stroke:#5E5E5E;stroke-width:1.0416666666666667;" x1="246.3542" x2="394.7917" y1="249.1302" y2="249.1302"/><line style="stroke:#5E5E5E;stroke-width:1.0416666666666667;" x1="10.4167" x2="394.7917" y1="282.9142" y2="282.9142"/><ellipse cx="20.8333" cy="294.3726" fill="#84BE84" rx="3.125" ry="3.125" style="stroke:#038048;stroke-width:1.0416666666666667;"/><text fill="#D8BC00" font-family="Open Sans,Avenir,Nunito,Arial,Helvetica,SansSerif" font-size="11.4583" lengthAdjust="spacing" textLength="248.9583" x="32.2917" y="301.2838">ITextResourceCompressor getCompressor()</text><ellipse cx="20.8333" cy="314.1174" fill="#84BE84" rx="3.125" ry="3.125" style="stroke:#038048;stroke-width:1.0416666666666667;"/><text fill="#D8BC00" font-family="Open Sans,Avenir,Nunito,Arial,Helvetica,SansSerif" font-size="11.4583" lengthAdjust="spacing" textLength="233.3333" x="32.2917" y="321.0286">void setCachingEnabled(boolean enabled)</text><ellipse cx="20.8333" cy="333.8623" fill="#84BE84" rx="3.125" ry="3.125" style="stroke:#038048;stroke-width:1.0416666666666667;"/><text fill="#D8BC00" font-family="Open Sans,Avenir,Nunito,Arial,Helvetica,SansSerif" font-size="11.4583" lengthAdjust="spacing" textLength="271.875" x="32.2917" y="340.7735">void setCompressor(ITextResourceCompressor)</text><polygon fill="#FFFF44" points="20.8333,348.3988,25,352.5655,20.8333,356.7322,16.6667,352.5655" style="stroke:#B38D22;stroke-width:1.0416666666666667;"/><text fill="#D8BC00" font-family="Open Sans,Avenir,Nunito,Arial,Helvetica,SansSerif" font-size="11.4583" lengthAdjust="spacing" textLength="276.0417" x="32.2917" y="360.5184">boolean getThrowExceptionOnMissingResource()</text><polygon fill="#FFFF44" points="20.8333,392.0553,25,396.2219,20.8333,400.3886,16.6667,396.2219" style="stroke:#B38D22;stroke-width:1.0416666666666667;"/><text fill="#D8BC00" font-family="Open Sans,Avenir,Nunito,Arial,Helvetica,SansSerif" font-size="11.4583" lengthAdjust="spacing" textLength="273.9583" x="32.2917" y="404.1748">byte[] readAllResources(List&lt;IResourceStream&gt;)</text><line style="stroke:#5E5E5E;stroke-width:1.0416666666666667;" x1="10.4167" x2="182.8125" y1="380.0995" y2="380.0995"/><text fill="#D8BC00" font-family="Open Sans,Avenir,Nunito,Arial,Helvetica,SansSerif" font-size="11.4583" lengthAdjust="spacing" textLength="33.3333" x="185.9375" y="383.9091">(read)</text><line style="stroke:#5E5E5E;stroke-width:1.0416666666666667;" x1="222.3958" x2="394.7917" y1="380.0995" y2="380.0995"/><polygon fill="#FFFF44" points="20.8333,435.7117,25,439.8783,20.8333,444.045,16.6667,439.8783" style="stroke:#B38D22;stroke-width:1.0416666666666667;"/><text fill="#D8BC00" font-family="Open Sans,Avenir,Nunito,Arial,Helvetica,SansSerif" font-size="11.4583" lengthAdjust="spacing" textLength="270.8333" x="32.2917" y="447.8312">String findContentType(List&lt;IResourceStream&gt;)</text><polygon fill="#FFFF44" points="20.8333,455.4565,25,459.6232,20.8333,463.7899,16.6667,459.6232" style="stroke:#B38D22;stroke-width:1.0416666666666667;"/><text fill="#D8BC00" font-family="Open Sans,Avenir,Nunito,Arial,Helvetica,SansSerif" font-size="11.4583" lengthAdjust="spacing" textLength="275" x="32.2917" y="467.5761">Instant findLastModified(List&lt;IResourceStream&gt;)</text><line style="stroke:#5E5E5E;stroke-width:1.0416666666666667;" x1="10.4167" x2="176.5625" y1="423.7559" y2="423.7559"/><text fill="#D8BC00" font-family="Open Sans,Avenir,Nunito,Arial,Helvetica,SansSerif" font-size="11.4583" lengthAdjust="spacing" textLength="45.8333" x="179.6875" y="427.5655">(search)</text><line style="stroke:#5E5E5E;stroke-width:1.0416666666666667;" x1="228.6458" x2="394.7917" y1="423.7559" y2="423.7559"/><!--MD5=[d215d62ff3788cee5bb3f5afbd917bb1]
class ResourceReference--><rect fill="#282828" height="48.055" id="ResourceReference" rx="8.3333" ry="8.3333" style="stroke:#5E5E5E;stroke-width:1.0416666666666667;" width="158.3333" x="1002.6042" y="71.4111"/><rect fill="#1B1B1A" height="31.3883" rx="8.3333" ry="8.3333" style="stroke:#1B1B1A;stroke-width:1.0416666666666667;" width="158.3333" x="1002.6042" y="71.4111"/><rect fill="#1B1B1A" height="8.3333" style="stroke:#1B1B1A;stroke-width:1.0416666666666667;" width="158.3333" x="1002.6042" y="94.4661"/><rect fill="none" height="48.055" id="ResourceReference" rx="8.3333" ry="8.3333" style="stroke:#5E5E5E;stroke-width:1.0416666666666667;" width="158.3333" x="1002.6042" y="71.4111"/><ellipse cx="1017.1875" cy="87.1053" fill="#0066CF" rx="10.4167" ry="10.4167" style="stroke:#0086EF;stroke-width:1.0416666666666667;"/><path d="M1019.0979,91.5304 Q1018.6707,91.7501 1018.2007,91.8599 Q1017.7307,91.9698 1017.2119,91.9698 Q1015.3687,91.9698 1014.3982,90.7552 Q1013.4277,89.5406 1013.4277,87.2457 Q1013.4277,84.9447 1014.3982,83.7301 Q1015.3687,82.5155 1017.2119,82.5155 Q1017.7307,82.5155 1018.2068,82.6253 Q1018.6829,82.7352 1019.0979,82.9549 L1019.0979,84.9569 Q1018.634,84.5296 1018.1976,84.3313 Q1017.7612,84.1329 1017.2974,84.1329 Q1016.3086,84.1329 1015.8051,84.9172 Q1015.3015,85.7015 1015.3015,87.2457 Q1015.3015,88.7838 1015.8051,89.5681 Q1016.3086,90.3524 1017.2974,90.3524 Q1017.7612,90.3524 1018.1976,90.154 Q1018.634,89.9556 1019.0979,89.5284 Z " fill="#000000"/><text fill="#D8BC00" font-family="Open Sans,Avenir,Nunito,Arial,Helvetica,SansSerif" font-size="12.5" font-weight="bold" lengthAdjust="spacing" textLength="120.8333" x="1033.8542" y="91.8294">ResourceReference</text><line style="stroke:#5E5E5E;stroke-width:1.0416666666666667;" x1="1003.6458" x2="1159.8958" y1="102.7995" y2="102.7995"/><line style="stroke:#5E5E5E;stroke-width:1.0416666666666667;" x1="1003.6458" x2="1159.8958" y1="111.1328" y2="111.1328"/><!--MD5=[9674f1a814374e9b6f0063348cc3c607]
class ConcatResourceBundleReference--><rect codeLine="31" fill="#282828" height="190.4358" id="ConcatResourceBundleReference" rx="8.3333" ry="8.3333" style="stroke:#5E5E5E;stroke-width:1.0416666666666667;" width="491.6667" x="474.4792" y="243.2861"/><rect fill="#1B1B1A" height="31.3883" rx="8.3333" ry="8.3333" style="stroke:#1B1B1A;stroke-width:1.0416666666666667;" width="491.6667" x="474.4792" y="243.2861"/><rect fill="#1B1B1A" height="8.3333" style="stroke:#1B1B1A;stroke-width:1.0416666666666667;" width="491.6667" x="474.4792" y="266.3411"/><rect codeLine="31" fill="none" height="190.4358" id="ConcatResourceBundleReference" rx="8.3333" ry="8.3333" style="stroke:#5E5E5E;stroke-width:1.0416666666666667;" width="491.6667" x="474.4792" y="243.2861"/><ellipse cx="598.4375" cy="258.9803" fill="#0066CF" rx="10.4167" ry="10.4167" style="stroke:#0086EF;stroke-width:1.0416666666666667;"/><path d="M600.3479,263.4054 Q599.9207,263.6251 599.4507,263.7349 Q598.9807,263.8448 598.4619,263.8448 Q596.6187,263.8448 595.6482,262.6302 Q594.6777,261.4156 594.6777,259.1207 Q594.6777,256.8197 595.6482,255.6051 Q596.6187,254.3905 598.4619,254.3905 Q598.9807,254.3905 599.4568,254.5003 Q599.9329,254.6102 600.3479,254.8299 L600.3479,256.8319 Q599.884,256.4046 599.4476,256.2063 Q599.0112,256.0079 598.5474,256.0079 Q597.5586,256.0079 597.0551,256.7922 Q596.5515,257.5765 596.5515,259.1207 Q596.5515,260.6588 597.0551,261.4431 Q597.5586,262.2274 598.5474,262.2274 Q599.0112,262.2274 599.4476,262.029 Q599.884,261.8306 600.3479,261.4034 Z " fill="#000000"/><text fill="#D8BC00" font-family="Open Sans,Avenir,Nunito,Arial,Helvetica,SansSerif" font-size="12.5" font-weight="bold" lengthAdjust="spacing" textLength="210.4167" x="621.3542" y="263.7044">ConcatResourceBundleReference</text><rect fill="#333333" height="23.055" style="stroke:#A0A0A0;stroke-width:1.0416666666666667;stroke-dasharray:2.0,2.0;" width="16.6667" x="952.6042" y="240.1611"/><text fill="#A0A0A0" font-family="Open Sans,Avenir,Nunito,Arial,Helvetica,SansSerif" font-size="12.5" font-weight="bold" lengthAdjust="spacing" textLength="8.3333" x="956.7708" y="256.4128">T</text><line style="stroke:#5E5E5E;stroke-width:1.5625;" x1="475.5208" x2="965.1042" y1="274.6745" y2="274.6745"/><ellipse cx="485.9375" cy="310.0444" fill="#84BE84" rx="3.125" ry="3.125" style="stroke:#038048;stroke-width:1.0416666666666667;"/><text fill="#D8BC00" font-family="Open Sans,Avenir,Nunito,Arial,Helvetica,SansSerif" font-size="11.4583" lengthAdjust="spacing" textLength="338.5417" x="497.3958" y="316.9556">ConcatResourceBundleReference(Class&lt;?&gt;, String, List&lt;T&gt;)</text><ellipse cx="485.9375" cy="329.7892" fill="#84BE84" rx="3.125" ry="3.125" style="stroke:#038048;stroke-width:1.0416666666666667;"/><text fill="#D8BC00" font-family="Open Sans,Avenir,Nunito,Arial,Helvetica,SansSerif" font-size="11.4583" lengthAdjust="spacing" textLength="459.375" x="497.3958" y="336.7004">ConcatResourceBundleReference(Class&lt;?&gt;, String, Locale, String, String, List&lt;T&gt;)</text><ellipse cx="485.9375" cy="349.5341" fill="#84BE84" rx="3.125" ry="3.125" style="stroke:#038048;stroke-width:1.0416666666666667;"/><text fill="#D8BC00" font-family="Open Sans,Avenir,Nunito,Arial,Helvetica,SansSerif" font-size="11.4583" lengthAdjust="spacing" textLength="300" x="497.3958" y="356.4453">ConcatResourceBundleReference(Class&lt;?&gt;, String, T)</text><ellipse cx="485.9375" cy="369.279" fill="#84BE84" rx="3.125" ry="3.125" style="stroke:#038048;stroke-width:1.0416666666666667;"/><text fill="#D8BC00" font-family="Open Sans,Avenir,Nunito,Arial,Helvetica,SansSerif" font-size="11.4583" lengthAdjust="spacing" textLength="239.5833" x="497.3958" y="376.1902">ConcatResourceBundleReference(String, T)</text><line style="stroke:#5E5E5E;stroke-width:1.0416666666666667;" x1="475.5208" x2="676.5625" y1="292.8802" y2="292.8802"/><text fill="#D8BC00" font-family="Open Sans,Avenir,Nunito,Arial,Helvetica,SansSerif" font-size="11.4583" lengthAdjust="spacing" textLength="81.25" x="679.6875" y="296.6899">(constructors)</text><line style="stroke:#5E5E5E;stroke-width:1.0416666666666667;" x1="764.0625" x2="965.1042" y1="292.8802" y2="292.8802"/><line style="stroke:#5E5E5E;stroke-width:1.0416666666666667;" x1="475.5208" x2="965.1042" y1="385.8988" y2="385.8988"/><ellipse cx="485.9375" cy="397.3572" fill="#84BE84" rx="3.125" ry="3.125" style="stroke:#038048;stroke-width:1.0416666666666667;"/><text fill="#D8BC00" font-family="Open Sans,Avenir,Nunito,Arial,Helvetica,SansSerif" font-size="11.4583" lengthAdjust="spacing" textLength="248.9583" x="497.3958" y="404.2684">ITextResourceCompressor getCompressor()</text><ellipse cx="485.9375" cy="417.1021" fill="#84BE84" rx="3.125" ry="3.125" style="stroke:#038048;stroke-width:1.0416666666666667;"/><text fill="#D8BC00" font-family="Open Sans,Avenir,Nunito,Arial,Helvetica,SansSerif" font-size="11.4583" lengthAdjust="spacing" textLength="271.875" x="497.3958" y="424.0133">void setCompressor(ITextResourceCompressor)</text><!--MD5=[79944094128229f16af3d6c18890da3a]
class ResourceBundleReference--><rect codeLine="58" fill="#282828" height="155.1127" id="ResourceBundleReference" rx="8.3333" ry="8.3333" style="stroke:#5E5E5E;stroke-width:1.0416666666666667;" width="302.0833" x="1002.6042" y="260.9945"/><rect fill="#1B1B1A" height="31.3883" rx="8.3333" ry="8.3333" style="stroke:#1B1B1A;stroke-width:1.0416666666666667;" width="302.0833" x="1002.6042" y="260.9945"/><rect fill="#1B1B1A" height="8.3333" style="stroke:#1B1B1A;stroke-width:1.0416666666666667;" width="302.0833" x="1002.6042" y="284.0495"/><rect codeLine="58" fill="none" height="155.1127" id="ResourceBundleReference" rx="8.3333" ry="8.3333" style="stroke:#5E5E5E;stroke-width:1.0416666666666667;" width="302.0833" x="1002.6042" y="260.9945"/><ellipse cx="1063.5417" cy="276.6886" fill="#0066CF" rx="10.4167" ry="10.4167" style="stroke:#0086EF;stroke-width:1.0416666666666667;"/><path d="M1065.4521,281.1137 Q1065.0248,281.3334 1064.5549,281.4433 Q1064.0849,281.5531 1063.5661,281.5531 Q1061.7228,281.5531 1060.7524,280.3385 Q1059.7819,279.1239 1059.7819,276.829 Q1059.7819,274.528 1060.7524,273.3134 Q1061.7228,272.0988 1063.5661,272.0988 Q1064.0849,272.0988 1064.561,272.2087 Q1065.037,272.3185 1065.4521,272.5382 L1065.4521,274.5402 Q1064.9882,274.113 1064.5518,273.9146 Q1064.1154,273.7162 1063.6515,273.7162 Q1062.6628,273.7162 1062.1592,274.5005 Q1061.6557,275.2848 1061.6557,276.829 Q1061.6557,278.3671 1062.1592,279.1514 Q1062.6628,279.9357 1063.6515,279.9357 Q1064.1154,279.9357 1064.5518,279.7373 Q1064.9882,279.539 1065.4521,279.1117 Z " fill="#000000"/><text fill="#D8BC00" font-family="Open Sans,Avenir,Nunito,Arial,Helvetica,SansSerif" font-size="12.5" font-weight="bold" lengthAdjust="spacing" textLength="165.625" x="1086.4583" y="281.4128">ResourceBundleReference</text><line style="stroke:#5E5E5E;stroke-width:1.5625;" x1="1003.6458" x2="1303.6458" y1="292.3828" y2="292.3828"/><ellipse cx="1014.0625" cy="327.7527" fill="#84BE84" rx="3.125" ry="3.125" style="stroke:#038048;stroke-width:1.0416666666666667;"/><text fill="#D8BC00" font-family="Open Sans,Avenir,Nunito,Arial,Helvetica,SansSerif" font-size="11.4583" lengthAdjust="spacing" textLength="260.4167" x="1025.5208" y="334.6639">ResourceBundleReference(ResourceReference)</text><line style="stroke:#5E5E5E;stroke-width:1.0416666666666667;" x1="1003.6458" x2="1109.8958" y1="310.5886" y2="310.5886"/><text fill="#D8BC00" font-family="Open Sans,Avenir,Nunito,Arial,Helvetica,SansSerif" font-size="11.4583" lengthAdjust="spacing" textLength="81.25" x="1113.0208" y="314.3982">(constructors)</text><line style="stroke:#5E5E5E;stroke-width:1.0416666666666667;" x1="1197.3958" x2="1303.6458" y1="310.5886" y2="310.5886"/><line style="stroke:#5E5E5E;stroke-width:1.0416666666666667;" x1="1003.6458" x2="1303.6458" y1="344.3726" y2="344.3726"/><ellipse cx="1014.0625" cy="355.8309" fill="#84BE84" rx="3.125" ry="3.125" style="stroke:#038048;stroke-width:1.0416666666666667;"/><text fill="#D8BC00" font-family="Open Sans,Avenir,Nunito,Arial,Helvetica,SansSerif" font-size="11.4583" lengthAdjust="spacing" textLength="229.1667" x="1025.5208" y="362.7421">ResourceReference getBundleReference()</text><ellipse cx="1014.0625" cy="399.4873" fill="#84BE84" rx="3.125" ry="3.125" style="stroke:#038048;stroke-width:1.0416666666666667;"/><text fill="#D8BC00" font-family="Open Sans,Avenir,Nunito,Arial,Helvetica,SansSerif" font-size="11.4583" lengthAdjust="spacing" textLength="269.7917" x="1025.5208" y="406.3985">void addProvidedResources(HeaderItem... items)</text><line style="stroke:#5E5E5E;stroke-width:1.0416666666666667;" x1="1003.6458" x2="1119.2708" y1="382.3232" y2="382.3232"/><text fill="#D8BC00" font-family="Open Sans,Avenir,Nunito,Arial,Helvetica,SansSerif" font-size="11.4583" lengthAdjust="spacing" textLength="62.5" x="1122.3958" y="386.1328">(collection)</text><line style="stroke:#5E5E5E;stroke-width:1.0416666666666667;" x1="1188.0208" x2="1303.6458" y1="382.3232" y2="382.3232"/><!--MD5=[509acb3135bc3bbc12217b99591af2c3]
class ReplacementResourceBundleReference--><rect codeLine="50" fill="#282828" height="83.3781" id="ReplacementResourceBundleReference" rx="8.3333" ry="8.3333" style="stroke:#5E5E5E;stroke-width:1.0416666666666667;" width="363.5417" x="971.875" y="540.1611"/><rect fill="#1B1B1A" height="31.3883" rx="8.3333" ry="8.3333" style="stroke:#1B1B1A;stroke-width:1.0416666666666667;" width="363.5417" x="971.875" y="540.1611"/><rect fill="#1B1B1A" height="8.3333" style="stroke:#1B1B1A;stroke-width:1.0416666666666667;" width="363.5417" x="971.875" y="563.2161"/><rect codeLine="50" fill="none" height="83.3781" id="ReplacementResourceBundleReference" rx="8.3333" ry="8.3333" style="stroke:#5E5E5E;stroke-width:1.0416666666666667;" width="363.5417" x="971.875" y="540.1611"/><ellipse cx="1022.3958" cy="555.8553" fill="#0066CF" rx="10.4167" ry="10.4167" style="stroke:#0086EF;stroke-width:1.0416666666666667;"/><path d="M1024.3062,560.2804 Q1023.879,560.5001 1023.409,560.6099 Q1022.939,560.7198 1022.4202,560.7198 Q1020.577,560.7198 1019.6065,559.5052 Q1018.6361,558.2906 1018.6361,555.9957 Q1018.6361,553.6947 1019.6065,552.4801 Q1020.577,551.2655 1022.4202,551.2655 Q1022.939,551.2655 1023.4151,551.3753 Q1023.8912,551.4852 1024.3062,551.7049 L1024.3062,553.7069 Q1023.8424,553.2796 1023.406,553.0813 Q1022.9696,552.8829 1022.5057,552.8829 Q1021.5169,552.8829 1021.0134,553.6672 Q1020.5098,554.4515 1020.5098,555.9957 Q1020.5098,557.5338 1021.0134,558.3181 Q1021.5169,559.1024 1022.5057,559.1024 Q1022.9696,559.1024 1023.406,558.904 Q1023.8424,558.7056 1024.3062,558.2784 Z " fill="#000000"/><text fill="#D8BC00" font-family="Open Sans,Avenir,Nunito,Arial,Helvetica,SansSerif" font-size="12.5" font-weight="bold" lengthAdjust="spacing" textLength="247.9167" x="1045.3125" y="560.5794">ReplacementResourceBundleReference</text><line style="stroke:#5E5E5E;stroke-width:1.5625;" x1="972.9167" x2="1334.375" y1="571.5495" y2="571.5495"/><ellipse cx="983.3333" cy="606.9194" fill="#84BE84" rx="3.125" ry="3.125" style="stroke:#038048;stroke-width:1.0416666666666667;"/><text fill="#D8BC00" font-family="Open Sans,Avenir,Nunito,Arial,Helvetica,SansSerif" font-size="11.4583" lengthAdjust="spacing" textLength="331.25" x="994.7917" y="613.8306">ReplacementResourceBundleReference(ResourceReference)</text><line style="stroke:#5E5E5E;stroke-width:1.0416666666666667;" x1="972.9167" x2="1109.8958" y1="589.7552" y2="589.7552"/><text fill="#D8BC00" font-family="Open Sans,Avenir,Nunito,Arial,Helvetica,SansSerif" font-size="11.4583" lengthAdjust="spacing" textLength="81.25" x="1113.0208" y="593.5649">(constructors)</text><line style="stroke:#5E5E5E;stroke-width:1.0416666666666667;" x1="1197.3958" x2="1334.375" y1="589.7552" y2="589.7552"/><!--MD5=[3123238ad683c1b175a896f9699953c1]
reverse link AbstractResource to ConcatBundleResource--><path codeLine="11" d="M183.0208,140.4007 C184.7083,157.4736 186.7604,178.057 188.875,199.3903 " fill="none" id="AbstractResource-backto-ConcatBundleResource" style="stroke:#545454;stroke-width:1.5625;"/><polygon fill="none" points="175.75,140.984,180.9479,119.5361,190.2604,139.5465,175.75,140.984" style="stroke:#545454;stroke-width:1.5625;"/><!--MD5=[6ed21a07a541bcc7c29620fe2dabd360]
reverse link IStaticCacheableResource to ConcatBundleResource--><path codeLine="12" d="M360.1042,136.109 C346.1354,153.9736 328.7292,176.2445 310.6354,199.3903 " fill="none" id="IStaticCacheableResource-backto-ConcatBundleResource" style="stroke:#545454;stroke-width:1.5625;"/><polygon fill="none" points="354.4896,131.4528,373.0625,119.5361,365.9792,140.432,354.4896,131.4528" style="stroke:#545454;stroke-width:1.5625;"/><!--MD5=[40bf50273d7de40317db2cc84b880b1f]
reverse link ResourceReference to ConcatResourceBundleReference--><path codeLine="29" d="M1029.6667,131.1715 C985.7813,160.4528 920.8854,203.7445 861.8438,243.1299 " fill="none" id="ResourceReference-backto-ConcatResourceBundleReference" style="stroke:#545454;stroke-width:1.5625;"/><polygon fill="none" points="1025.7396,125.0257,1047.1146,119.5361,1033.8333,137.1611,1025.7396,125.0257" style="stroke:#545454;stroke-width:1.5625;"/><!--MD5=[3acbef754c28603706d58af00926b837]
reverse link IResourceBundle to ConcatResourceBundleReference--><path codeLine="30" d="M751.3542,157.9215 C746.8854,183.7757 741.5833,214.4528 736.6354,243.0674 " fill="none" id="IResourceBundle-backto-ConcatResourceBundleReference" style="stroke:#545454;stroke-width:1.5625;"/><polygon fill="none" points="744.2292,156.3382,754.9583,137.0465,758.5938,158.8174,744.2292,156.3382" style="stroke:#545454;stroke-width:1.5625;"/><!--MD5=[f03cba5cca5a4d3b511af50e064bb794]
reverse link ResourceBundleReference to ReplacementResourceBundleReference--><path codeLine="49" d="M1153.6458,437.5361 C1153.6458,473.4007 1153.6458,512.0257 1153.6458,540.1299 " fill="none" id="ResourceBundleReference-backto-ReplacementResourceBundleReference" style="stroke:#545454;stroke-width:1.5625;"/><polygon fill="none" points="1146.3542,437.109,1153.6458,416.2757,1160.9375,437.109,1146.3542,437.109" style="stroke:#545454;stroke-width:1.5625;"/><!--MD5=[eb330251997984eb65c1188ef29ded2c]
reverse link ResourceReference to ResourceBundleReference--><path codeLine="56" d="M1094.7292,139.9007 C1104.7604,173.5465 1118.9063,220.9945 1130.8125,260.9632 " fill="none" id="ResourceReference-backto-ResourceBundleReference" style="stroke:#545454;stroke-width:1.5625;"/><polygon fill="none" points="1087.625,141.5778,1088.6667,119.5361,1101.6042,137.4111,1087.625,141.5778" style="stroke:#545454;stroke-width:1.5625;"/><!--MD5=[f9c4aa4d2508895412a77ec1a3805518]
reverse link IResourceBundle to ResourceBundleReference--><path codeLine="57" d="M882.0625,145.6507 C915.8854,161.2653 952.0938,179.6715 983.8542,199.5361 C1012.5208,217.4632 1041.7813,239.609 1067.75,260.8695 " fill="none" id="IResourceBundle-backto-ResourceBundleReference" style="stroke:#545454;stroke-width:1.5625;"/><polygon fill="none" points="879,152.2757,863.0208,137.0361,885.0104,138.984,879,152.2757" style="stroke:#545454;stroke-width:1.5625;"/><!--MD5=[258ebe4ae3076179d85bc23ee0c073d8]
@startuml

    !include lexakai.theme
    
    title "org.apache.wicket.resource.bundles"
    
    abstract AbstractResource
    
    interface IStaticCacheableResource
    interface IResourceBundle
    
    AbstractResource <|- - ConcatBundleResource
    IStaticCacheableResource <|- - ConcatBundleResource
    class ConcatBundleResource
    {
        - -(constructors)- -
        +ConcatBundleResource(List<? extends IReferenceHeaderItem>)
        - -
        +ITextResourceCompressor getCompressor()
        +void setCachingEnabled(boolean enabled)
        +void setCompressor(ITextResourceCompressor)
        #boolean getThrowExceptionOnMissingResource()
        - -(read)- -
        #byte[] readAllResources(List<IResourceStream>)
        - -(search)- -
        #String findContentType(List<IResourceStream>)
        #Instant findLastModified(List<IResourceStream>)
    }
    
    ResourceReference <|- - ConcatResourceBundleReference
    IResourceBundle <|- - ConcatResourceBundleReference
    class ConcatResourceBundleReference<T>
    {
        - -(constructors)- -
        +ConcatResourceBundleReference(Class<?>, String, List<T>)
        +ConcatResourceBundleReference(Class<?>, String, Locale, String, String, List<T>)
        +ConcatResourceBundleReference(Class<?>, String, T)
        +ConcatResourceBundleReference(String, T)
        - -
        +ITextResourceCompressor getCompressor()
        +void setCompressor(ITextResourceCompressor)
    }
    
    interface IResourceBundle
    {
        - -(collection)- -
        +Iterable<? extends HeaderItem> getProvidedResources()
    }
    
    ResourceBundleReference <|- - ReplacementResourceBundleReference
    class ReplacementResourceBundleReference
    {
        - -(constructors)- -
        +ReplacementResourceBundleReference(ResourceReference)
    }
    
    ResourceReference <|- - ResourceBundleReference
    IResourceBundle <|- - ResourceBundleReference
    class ResourceBundleReference
    {
        - -(constructors)- -
        +ResourceBundleReference(ResourceReference)
        - -
        +ResourceReference getBundleReference()
        - -(collection)- -
        +void addProvidedResources(HeaderItem... items)
    }
    
@enduml

@startuml









skinparam backgroundColor #333333






skinparam  {
    defaultFontName   "Open Sans,Avenir,Nunito,Arial,Helvetica,SansSerif"
    defaultFontSize   12
    defaultTextAlignment left
    shadowing false
    RoundCorner 10
    TitleFontSize 18
}

skinparam defaultFontName       "Open Sans,Avenir,Nunito,Arial,Helvetica,SansSerif"
skinparam defaultFontSize       12
skinparam dpi                   100
skinparam shadowing             false
skinparam roundcorner           16
skinparam ParticipantPadding    40
skinparam BoxPadding            40
skinparam Padding               3
skinparam ArrowColor            #545454
skinparam stereotype {
    CBackgroundColor #0066cf
    CBorderColor #0086ef
    ABackgroundColor #C8Ac00
    ABorderColor #D8Bc00
    IBackgroundColor #008400
    IBorderColor #239c23
    EBackgroundColor #cf6300
    EBorderColor #ef8300
    NBackgroundColor #3380b9
    NBorderColor #004d86
}
skinparam title {
	FontColor	                 #c0c0c0
 	BorderColor                  #545454
	FontSize	    	         20
	BorderRoundCorner            16
	BorderThickness 	         1
	BackgroundColor              #48494b
}


skinparam legend {
	BackgroundColor #303030
	BorderColor #404040
	FontColor #a0a0a0
}

	skinparam swimlane {
	BorderColor #5e5e5e
	BorderThickness 2
	TitleBackgroundColor  #6d6d6d-#484848
	TitleFontColor #303030
}

skinparam activity {
		FontColor #C8Ac00
	BorderColor #333333
	BackgroundColor #333333-#333333
	BarColor #00FF00
	StartColor #0060a8
	EndColor #0060a8
	DiamondBackgroundColor #6d6d6d-#3a3a3a
  	DiamondBorderColor #3a3a3a
  	DiamondFontColor #fefefe
}


skinparam participant {
		FontColor #C8Ac00
	BorderColor #333333
	BackgroundColor #333333-#333333
	ParticipantBorderThickness 2
}


skinparam actor {
		FontColor #C8Ac00
	BorderColor #333333
	BackgroundColor #333333-#333333
}


skinparam arrow {
	Thickness 1.5
	Color #545454
	FontColor #a0a0a0
    FontStyle bold
    MessageAlignment center
}



skinparam sequence {
	BorderColor #303030
	TitleFontColor #303030
	BackgroundColor #333333
	StartColor #303030
	EndColor #303030
	BoxBackgroundColor #333333
	BoxBorderColor #484848
	BoxFontColor #484848
	LifeLineBorderColor #484848
	LifeLineBorderThickness 2
	LifeLineBackgroundColor #3a3a3a
	GroupBorderColor #484848
	GroupFontColor #484848
	GroupHeaderFontColor #0060a8
	GroupBackgroundColor #484848
	GroupHeaderBackgroundColor #333333
	DividerBackgroundColor #484848
    DividerBorderColor #484848
    DividerBorderThickness 2
    DividerFontColor #D8Bc00
	ReferenceBackgroundColor #333333
	ReferenceBorderColor #484848
	ReferenceFontColor #fefefe
	ReferenceHeaderBackgroundColor #484848
}


skinparam partition {
	BorderColor #303030
	FontColor #333333
	BackgroundColor #333333
}


skinparam collections {
		FontColor #C8Ac00
	BorderColor #333333
	BackgroundColor #333333-#333333
}


skinparam control {
		FontColor #C8Ac00
	BorderColor #333333
	BackgroundColor #333333-#333333
}


skinparam entity {
		FontColor #C8Ac00
	BorderColor #333333
	BackgroundColor #333333-#333333
}


skinparam boundary {
		FontColor #C8Ac00
	BorderColor #333333
	BackgroundColor #333333-#333333
}


skinparam agent {
	BackgroundColor #ff8000
	BorderColor #ff9933
	FontColor #484848
}


skinparam note {
	BorderThickness 1
	BackgroundColor #1b1b1a
	BorderColor #5e5e5e
	FontSize 11
	FontColor #a0a0a0
}


skinparam artifact {
	BorderThickness 10
	BorderColor #5e5e5e
	BackgroundColor #1b1b1a
	FontColor #D8Bc00
}


skinparam component {
		FontColor #C8Ac00
	BorderColor #333333
	BackgroundColor #333333-#333333
}


skinparam interface {
	BackgroundColor  #008400
	BorderColor  #007F00
	FontColor #484848
}


skinparam storage {
	BackgroundColor #ff8000
  	BorderColor #cc6600
	FontColor #222222
}


skinparam node {
	BackgroundColor #333333
	BorderColor #333333
	FontColor #C8Ac00
}


skinparam cloud {
	BackgroundColor #484848-black
	BorderColor #484848
	FontColor #D8Bc00
}


skinparam database {
		FontColor #C8Ac00
	BorderColor #333333
	BackgroundColor #333333-#333333
	BackgroundColor  #333333
}


skinparam class {
		FontColor #C8Ac00
	BorderColor #333333
	BackgroundColor #333333-#333333
	HeaderBackgroundColor #1b1b1a
    BackgroundColor #282828
    BorderColor #5e5e5e
 	StereotypeFontColor #a0a0a0
    StereotypeFontStyle bold
	BorderThickness 1
	AttributeFontColor #D8Bc00
	AttributeFontSize 11
    FontColor #D8Bc00
    FontStyle bold
}


skinparam object {
		FontColor #C8Ac00
	BorderColor #333333
	BackgroundColor #333333-#333333
	StereotypeFontColor #484848
	BorderThickness 1
	AttributeFontColor #fefefe
	AttributeFontSize 11
}


skinparam usecase {
		FontColor #C8Ac00
	BorderColor #333333
	BackgroundColor #333333-#333333
	BorderThickness 2
	StereotypeFontColor #303030
}


skinparam rectangle {
		FontColor #C8Ac00
	BorderColor #333333
	BackgroundColor #333333-#333333
	BackgroundColor #333333
	BorderThickness 2
	StereotypeFontColor #303030
}


skinparam package {
		FontColor #C8Ac00
	BorderColor #333333
	BackgroundColor #333333-#333333
	BackgroundColor #333333
	BorderThickness 2
}


skinparam folder {
	BackgroundColor #6d6d6d
  	BorderColor #ff8000
	FontColor #ff8000
	BorderThickness 2
}


skinparam frame {
	BackgroundColor #6d6d6d
  	BorderColor #0060a8
	FontColor #0060a8
	BorderThickness 2
}


skinparam state {
		FontColor #C8Ac00
	BorderColor #333333
	BackgroundColor #333333-#333333
	StartColor #0060a8
	EndColor #0060a8
	AttributeFontColor #fefefe
	AttributeFontSize 11
}


skinparam queue {
		FontColor #C8Ac00
	BorderColor #333333
	BackgroundColor #333333-#333333
}


skinparam card {
	BackgroundColor #0060a8
	BorderColor #004d86
	FontColor $INFO_TEXT
}


skinparam file {
	BackgroundColor #6d6d6d-#484848
	BorderColor #0060a8
	FontColor #fefefe
}


skinparam stack {
		FontColor #C8Ac00
	BorderColor #333333
	BackgroundColor #333333-#333333
}

    
    title "org.apache.wicket.resource.bundles"
    
    abstract AbstractResource
    
    interface IStaticCacheableResource
    interface IResourceBundle
    
    AbstractResource <|- - ConcatBundleResource
    IStaticCacheableResource <|- - ConcatBundleResource
    class ConcatBundleResource
    {
        - -(constructors)- -
        +ConcatBundleResource(List<? extends IReferenceHeaderItem>)
        - -
        +ITextResourceCompressor getCompressor()
        +void setCachingEnabled(boolean enabled)
        +void setCompressor(ITextResourceCompressor)
        #boolean getThrowExceptionOnMissingResource()
        - -(read)- -
        #byte[] readAllResources(List<IResourceStream>)
        - -(search)- -
        #String findContentType(List<IResourceStream>)
        #Instant findLastModified(List<IResourceStream>)
    }
    
    ResourceReference <|- - ConcatResourceBundleReference
    IResourceBundle <|- - ConcatResourceBundleReference
    class ConcatResourceBundleReference<T>
    {
        - -(constructors)- -
        +ConcatResourceBundleReference(Class<?>, String, List<T>)
        +ConcatResourceBundleReference(Class<?>, String, Locale, String, String, List<T>)
        +ConcatResourceBundleReference(Class<?>, String, T)
        +ConcatResourceBundleReference(String, T)
        - -
        +ITextResourceCompressor getCompressor()
        +void setCompressor(ITextResourceCompressor)
    }
    
    interface IResourceBundle
    {
        - -(collection)- -
        +Iterable<? extends HeaderItem> getProvidedResources()
    }
    
    ResourceBundleReference <|- - ReplacementResourceBundleReference
    class ReplacementResourceBundleReference
    {
        - -(constructors)- -
        +ReplacementResourceBundleReference(ResourceReference)
    }
    
    ResourceReference <|- - ResourceBundleReference
    IResourceBundle <|- - ResourceBundleReference
    class ResourceBundleReference
    {
        - -(constructors)- -
        +ResourceBundleReference(ResourceReference)
        - -
        +ResourceReference getBundleReference()
        - -(collection)- -
        +void addProvidedResources(HeaderItem... items)
    }
    
@enduml

PlantUML version 1.2021.01(Tue Feb 02 00:55:08 MST 2021)
(GPL source distribution)
Java Runtime: Java(TM) SE Runtime Environment
JVM: Java HotSpot(TM) 64-Bit Server VM
Default Encoding: UTF-8
Language: en
Country: US
--></g></svg>