<?xml version="1.0" encoding="UTF-8" standalone="no"?><svg xmlns="http://www.w3.org/2000/svg" xmlns:xlink="http://www.w3.org/1999/xlink" contentScriptType="application/ecmascript" contentStyleType="text/css" height="318.75px" preserveAspectRatio="none" style="width:2414px;height:318px;background:#333333;" version="1.1" viewBox="0 0 2414 318" width="2414.5833px" zoomAndPan="magnify"><defs/><g><rect fill="#48494B" height="41.2028" rx="8.3333" ry="8.3333" style="stroke:#545454;stroke-width:1.0416666666666667;" width="141.6667" x="1129.4271" y="2.0833"/><text fill="#C0C0C0" font-family="Open Sans,Avenir,Nunito,Arial,Helvetica,SansSerif" font-size="20.8333" lengthAdjust="spacing" textLength="118.75" x="1140.8854" y="30.5583">wicket-core</text><!--MD5=[83364df2ff47e8d52fd75af27391e023]
entity openjson--><rect fill="#1B1B1A" height="44.93" rx="8.3333" ry="8.3333" style="stroke:#5E5E5E;stroke-width:1.5625;" width="92.7083" x="18.75" y="53.7028"/><polygon fill="#1B1B1A" points="93.75,58.9111,93.75,73.4945,106.25,73.4945,106.25,65.1611,100,58.9111,93.75,58.9111" style="stroke:#5E5E5E;stroke-width:1.5625;"/><line style="stroke:#5E5E5E;stroke-width:1.5625;" x1="100" x2="100" y1="58.9111" y2="65.1611"/><line style="stroke:#5E5E5E;stroke-width:1.5625;" x1="106.25" x2="100" y1="65.1611" y2="65.1611"/><text fill="#D8BC00" font-family="Open Sans,Avenir,Nunito,Arial,Helvetica,SansSerif" font-size="12.5" lengthAdjust="spacing" textLength="55.2083" x="32.2917" y="82.4544">openjson</text><!--MD5=[b8642f4d11f39d368691e95658a70571]
entity commons_fileupload--><rect fill="#1B1B1A" height="44.93" rx="8.3333" ry="8.3333" style="stroke:#5E5E5E;stroke-width:1.5625;" width="160.4167" x="717.1875" y="160.9945"/><polygon fill="#1B1B1A" points="859.8958,166.2028,859.8958,180.7861,872.3958,180.7861,872.3958,172.4528,866.1458,166.2028,859.8958,166.2028" style="stroke:#5E5E5E;stroke-width:1.5625;"/><line style="stroke:#5E5E5E;stroke-width:1.5625;" x1="866.1458" x2="866.1458" y1="166.2028" y2="172.4528"/><line style="stroke:#5E5E5E;stroke-width:1.5625;" x1="872.3958" x2="866.1458" y1="172.4528" y2="172.4528"/><text fill="#D8BC00" font-family="Open Sans,Avenir,Nunito,Arial,Helvetica,SansSerif" font-size="12.5" lengthAdjust="spacing" textLength="122.9167" x="730.7292" y="189.7461">commons_fileupload</text><!--MD5=[26b411a1b4c483916c801c7aad1add62]
entity commons_io--><rect fill="#1B1B1A" height="44.93" rx="8.3333" ry="8.3333" style="stroke:#5E5E5E;stroke-width:1.5625;" width="111.4583" x="914.5833" y="160.9945"/><polygon fill="#1B1B1A" points="1008.3333,166.2028,1008.3333,180.7861,1020.8333,180.7861,1020.8333,172.4528,1014.5833,166.2028,1008.3333,166.2028" style="stroke:#5E5E5E;stroke-width:1.5625;"/><line style="stroke:#5E5E5E;stroke-width:1.5625;" x1="1014.5833" x2="1014.5833" y1="166.2028" y2="172.4528"/><line style="stroke:#5E5E5E;stroke-width:1.5625;" x1="1020.8333" x2="1014.5833" y1="172.4528" y2="172.4528"/><text fill="#D8BC00" font-family="Open Sans,Avenir,Nunito,Arial,Helvetica,SansSerif" font-size="12.5" lengthAdjust="spacing" textLength="73.9583" x="928.125" y="189.7461">commons_io</text><!--MD5=[88a18b84af72aac0baa747f98e10bd90]
entity jakarta_servlet_api--><rect fill="#1B1B1A" height="44.93" rx="8.3333" ry="8.3333" style="stroke:#5E5E5E;stroke-width:1.5625;" width="151.0417" x="147.9167" y="53.7028"/><polygon fill="#1B1B1A" points="281.25,58.9111,281.25,73.4945,293.75,73.4945,293.75,65.1611,287.5,58.9111,281.25,58.9111" style="stroke:#5E5E5E;stroke-width:1.5625;"/><line style="stroke:#5E5E5E;stroke-width:1.5625;" x1="287.5" x2="287.5" y1="58.9111" y2="65.1611"/><line style="stroke:#5E5E5E;stroke-width:1.5625;" x1="293.75" x2="287.5" y1="65.1611" y2="65.1611"/><text fill="#D8BC00" font-family="Open Sans,Avenir,Nunito,Arial,Helvetica,SansSerif" font-size="12.5" lengthAdjust="spacing" textLength="113.5417" x="161.4583" y="82.4544">jakarta_servlet_api</text><!--MD5=[907dfa26722c2bcd0e79bfb32775d5c3]
entity log4j--><rect fill="#1B1B1A" height="44.93" rx="8.3333" ry="8.3333" style="stroke:#5E5E5E;stroke-width:1.5625;" width="67.7083" x="1270.8333" y="160.9945"/><polygon fill="#1B1B1A" points="1320.8333,166.2028,1320.8333,180.7861,1333.3333,180.7861,1333.3333,172.4528,1327.0833,166.2028,1320.8333,166.2028" style="stroke:#5E5E5E;stroke-width:1.5625;"/><line style="stroke:#5E5E5E;stroke-width:1.5625;" x1="1327.0833" x2="1327.0833" y1="166.2028" y2="172.4528"/><line style="stroke:#5E5E5E;stroke-width:1.5625;" x1="1333.3333" x2="1327.0833" y1="172.4528" y2="172.4528"/><text fill="#D8BC00" font-family="Open Sans,Avenir,Nunito,Arial,Helvetica,SansSerif" font-size="12.5" lengthAdjust="spacing" textLength="30.2083" x="1284.375" y="189.7461">log4j</text><!--MD5=[4ff87df6ca00ec4715fce5605f10cfb8]
entity byte_buddy_agent--><rect fill="#1B1B1A" height="44.93" rx="8.3333" ry="8.3333" style="stroke:#5E5E5E;stroke-width:1.5625;" width="147.9167" x="1375.5208" y="160.9945"/><polygon fill="#1B1B1A" points="1505.7292,166.2028,1505.7292,180.7861,1518.2292,180.7861,1518.2292,172.4528,1511.9792,166.2028,1505.7292,166.2028" style="stroke:#5E5E5E;stroke-width:1.5625;"/><line style="stroke:#5E5E5E;stroke-width:1.5625;" x1="1511.9792" x2="1511.9792" y1="166.2028" y2="172.4528"/><line style="stroke:#5E5E5E;stroke-width:1.5625;" x1="1518.2292" x2="1511.9792" y1="172.4528" y2="172.4528"/><text fill="#D8BC00" font-family="Open Sans,Avenir,Nunito,Arial,Helvetica,SansSerif" font-size="12.5" lengthAdjust="spacing" textLength="110.4167" x="1389.0625" y="189.7461">byte_buddy_agent</text><!--MD5=[4b7412f65198b4c52d4b80fff6e833ea]
entity byte_buddy--><rect fill="#1B1B1A" height="44.93" rx="8.3333" ry="8.3333" style="stroke:#5E5E5E;stroke-width:1.5625;" width="108.3333" x="1559.8958" y="160.9945"/><polygon fill="#1B1B1A" points="1650.5208,166.2028,1650.5208,180.7861,1663.0208,180.7861,1663.0208,172.4528,1656.7708,166.2028,1650.5208,166.2028" style="stroke:#5E5E5E;stroke-width:1.5625;"/><line style="stroke:#5E5E5E;stroke-width:1.5625;" x1="1656.7708" x2="1656.7708" y1="166.2028" y2="172.4528"/><line style="stroke:#5E5E5E;stroke-width:1.5625;" x1="1663.0208" x2="1656.7708" y1="172.4528" y2="172.4528"/><text fill="#D8BC00" font-family="Open Sans,Avenir,Nunito,Arial,Helvetica,SansSerif" font-size="12.5" lengthAdjust="spacing" textLength="70.8333" x="1573.4375" y="189.7461">byte_buddy</text><!--MD5=[798a9de1932ba9fd78d52168f99e5e87]
entity commons_collections4--><rect fill="#1B1B1A" height="44.93" rx="8.3333" ry="8.3333" style="stroke:#5E5E5E;stroke-width:1.5625;" width="170.8333" x="1063.0208" y="160.9945"/><polygon fill="#1B1B1A" points="1216.1458,166.2028,1216.1458,180.7861,1228.6458,180.7861,1228.6458,172.4528,1222.3958,166.2028,1216.1458,166.2028" style="stroke:#5E5E5E;stroke-width:1.5625;"/><line style="stroke:#5E5E5E;stroke-width:1.5625;" x1="1222.3958" x2="1222.3958" y1="166.2028" y2="172.4528"/><line style="stroke:#5E5E5E;stroke-width:1.5625;" x1="1228.6458" x2="1222.3958" y1="172.4528" y2="172.4528"/><text fill="#D8BC00" font-family="Open Sans,Avenir,Nunito,Arial,Helvetica,SansSerif" font-size="12.5" lengthAdjust="spacing" textLength="133.3333" x="1076.5625" y="189.7461">commons_collections4</text><!--MD5=[713b5e657a34e8534dca456173c6b526]
entity commons_lang3--><rect fill="#1B1B1A" height="44.93" rx="8.3333" ry="8.3333" style="stroke:#5E5E5E;stroke-width:1.5625;" width="134.375" x="335.4167" y="53.7028"/><polygon fill="#1B1B1A" points="452.0833,58.9111,452.0833,73.4945,464.5833,73.4945,464.5833,65.1611,458.3333,58.9111,452.0833,58.9111" style="stroke:#5E5E5E;stroke-width:1.5625;"/><line style="stroke:#5E5E5E;stroke-width:1.5625;" x1="458.3333" x2="458.3333" y1="58.9111" y2="65.1611"/><line style="stroke:#5E5E5E;stroke-width:1.5625;" x1="464.5833" x2="458.3333" y1="65.1611" y2="65.1611"/><text fill="#D8BC00" font-family="Open Sans,Avenir,Nunito,Arial,Helvetica,SansSerif" font-size="12.5" lengthAdjust="spacing" textLength="96.875" x="348.9583" y="82.4544">commons_lang3</text><!--MD5=[2773ab4f61ea46894756c769c8075295]
entity wicket_request--><rect fill="#1B1B1A" height="44.93" rx="8.3333" ry="8.3333" style="stroke:#5E5E5E;stroke-width:1.5625;" width="127.0833" x="506.7708" y="53.7028"/><polygon fill="#1B1B1A" points="616.1458,58.9111,616.1458,73.4945,628.6458,73.4945,628.6458,65.1611,622.3958,58.9111,616.1458,58.9111" style="stroke:#5E5E5E;stroke-width:1.5625;"/><line style="stroke:#5E5E5E;stroke-width:1.5625;" x1="622.3958" x2="622.3958" y1="58.9111" y2="65.1611"/><line style="stroke:#5E5E5E;stroke-width:1.5625;" x1="628.6458" x2="622.3958" y1="65.1611" y2="65.1611"/><text fill="#D8BC00" font-family="Open Sans,Avenir,Nunito,Arial,Helvetica,SansSerif" font-size="12.5" lengthAdjust="spacing" textLength="89.5833" x="520.3125" y="82.4544">wicket_request</text><!--MD5=[3ac1d6494a45af2432a9a4f3438247e5]
entity wicket_util--><rect fill="#1B1B1A" height="44.93" rx="8.3333" ry="8.3333" style="stroke:#5E5E5E;stroke-width:1.5625;" width="98.9583" x="920.8333" y="53.7028"/><polygon fill="#1B1B1A" points="1002.0833,58.9111,1002.0833,73.4945,1014.5833,73.4945,1014.5833,65.1611,1008.3333,58.9111,1002.0833,58.9111" style="stroke:#5E5E5E;stroke-width:1.5625;"/><line style="stroke:#5E5E5E;stroke-width:1.5625;" x1="1008.3333" x2="1008.3333" y1="58.9111" y2="65.1611"/><line style="stroke:#5E5E5E;stroke-width:1.5625;" x1="1014.5833" x2="1008.3333" y1="65.1611" y2="65.1611"/><text fill="#D8BC00" font-family="Open Sans,Avenir,Nunito,Arial,Helvetica,SansSerif" font-size="12.5" lengthAdjust="spacing" textLength="61.4583" x="934.375" y="82.4544">wicket_util</text><!--MD5=[9ca5736865ad522015f112acaf757dc2]
entity apiguardian_api--><rect fill="#1B1B1A" height="44.93" rx="8.3333" ry="8.3333" style="stroke:#5E5E5E;stroke-width:1.5625;" width="134.375" x="1836.4583" y="160.9945"/><polygon fill="#1B1B1A" points="1953.125,166.2028,1953.125,180.7861,1965.625,180.7861,1965.625,172.4528,1959.375,166.2028,1953.125,166.2028" style="stroke:#5E5E5E;stroke-width:1.5625;"/><line style="stroke:#5E5E5E;stroke-width:1.5625;" x1="1959.375" x2="1959.375" y1="166.2028" y2="172.4528"/><line style="stroke:#5E5E5E;stroke-width:1.5625;" x1="1965.625" x2="1959.375" y1="172.4528" y2="172.4528"/><text fill="#D8BC00" font-family="Open Sans,Avenir,Nunito,Arial,Helvetica,SansSerif" font-size="12.5" lengthAdjust="spacing" textLength="96.875" x="1850" y="189.7461">apiguardian_api</text><!--MD5=[ad8d54b5a83aae75c46ab325a4c0a0ec]
entity assertj_core--><rect fill="#1B1B1A" height="44.93" rx="8.3333" ry="8.3333" style="stroke:#5E5E5E;stroke-width:1.5625;" width="110.4167" x="9.8958" y="160.9945"/><polygon fill="#1B1B1A" points="102.6042,166.2028,102.6042,180.7861,115.1042,180.7861,115.1042,172.4528,108.8542,166.2028,102.6042,166.2028" style="stroke:#5E5E5E;stroke-width:1.5625;"/><line style="stroke:#5E5E5E;stroke-width:1.5625;" x1="108.8542" x2="108.8542" y1="166.2028" y2="172.4528"/><line style="stroke:#5E5E5E;stroke-width:1.5625;" x1="115.1042" x2="108.8542" y1="172.4528" y2="172.4528"/><text fill="#D8BC00" font-family="Open Sans,Avenir,Nunito,Arial,Helvetica,SansSerif" font-size="12.5" lengthAdjust="spacing" textLength="72.9167" x="23.4375" y="189.7461">assertj_core</text><!--MD5=[36160172b96c05987554ef5157bd1d99]
entity jdk_serializable_functional--><rect fill="#1B1B1A" height="44.93" rx="8.3333" ry="8.3333" style="stroke:#5E5E5E;stroke-width:1.5625;" width="195.8333" x="156.7708" y="160.9945"/><polygon fill="#1B1B1A" points="334.8958,166.2028,334.8958,180.7861,347.3958,180.7861,347.3958,172.4528,341.1458,166.2028,334.8958,166.2028" style="stroke:#5E5E5E;stroke-width:1.5625;"/><line style="stroke:#5E5E5E;stroke-width:1.5625;" x1="341.1458" x2="341.1458" y1="166.2028" y2="172.4528"/><line style="stroke:#5E5E5E;stroke-width:1.5625;" x1="347.3958" x2="341.1458" y1="172.4528" y2="172.4528"/><text fill="#D8BC00" font-family="Open Sans,Avenir,Nunito,Arial,Helvetica,SansSerif" font-size="12.5" lengthAdjust="spacing" textLength="158.3333" x="170.3125" y="189.7461">jdk_serializable_functional</text><!--MD5=[79bbe22064c35bdc5bfda371644b0d8a]
entity hamcrest--><rect fill="#1B1B1A" height="44.93" rx="8.3333" ry="8.3333" style="stroke:#5E5E5E;stroke-width:1.5625;" width="92.7083" x="389.5833" y="160.9945"/><polygon fill="#1B1B1A" points="464.5833,166.2028,464.5833,180.7861,477.0833,180.7861,477.0833,172.4528,470.8333,166.2028,464.5833,166.2028" style="stroke:#5E5E5E;stroke-width:1.5625;"/><line style="stroke:#5E5E5E;stroke-width:1.5625;" x1="470.8333" x2="470.8333" y1="166.2028" y2="172.4528"/><line style="stroke:#5E5E5E;stroke-width:1.5625;" x1="477.0833" x2="470.8333" y1="172.4528" y2="172.4528"/><text fill="#D8BC00" font-family="Open Sans,Avenir,Nunito,Arial,Helvetica,SansSerif" font-size="12.5" lengthAdjust="spacing" textLength="55.2083" x="403.125" y="189.7461">hamcrest</text><!--MD5=[67ea71966aa57e3ddf5b1acb79bd106c]
entity junit_jupiter_api--><rect fill="#1B1B1A" height="44.93" rx="8.3333" ry="8.3333" style="stroke:#5E5E5E;stroke-width:1.5625;" width="134.375" x="2007.2917" y="160.9945"/><polygon fill="#1B1B1A" points="2123.9583,166.2028,2123.9583,180.7861,2136.4583,180.7861,2136.4583,172.4528,2130.2083,166.2028,2123.9583,166.2028" style="stroke:#5E5E5E;stroke-width:1.5625;"/><line style="stroke:#5E5E5E;stroke-width:1.5625;" x1="2130.2083" x2="2130.2083" y1="166.2028" y2="172.4528"/><line style="stroke:#5E5E5E;stroke-width:1.5625;" x1="2136.4583" x2="2130.2083" y1="172.4528" y2="172.4528"/><text fill="#D8BC00" font-family="Open Sans,Avenir,Nunito,Arial,Helvetica,SansSerif" font-size="12.5" lengthAdjust="spacing" textLength="96.875" x="2020.8333" y="189.7461">junit_jupiter_api</text><!--MD5=[def59a02e843c50310240afbb884053d]
entity junit_jupiter_engine--><rect fill="#1B1B1A" height="44.93" rx="8.3333" ry="8.3333" style="stroke:#5E5E5E;stroke-width:1.5625;" width="155.2083" x="1996.875" y="53.7028"/><polygon fill="#1B1B1A" points="2134.375,58.9111,2134.375,73.4945,2146.875,73.4945,2146.875,65.1611,2140.625,58.9111,2134.375,58.9111" style="stroke:#5E5E5E;stroke-width:1.5625;"/><line style="stroke:#5E5E5E;stroke-width:1.5625;" x1="2140.625" x2="2140.625" y1="58.9111" y2="65.1611"/><line style="stroke:#5E5E5E;stroke-width:1.5625;" x1="2146.875" x2="2140.625" y1="65.1611" y2="65.1611"/><text fill="#D8BC00" font-family="Open Sans,Avenir,Nunito,Arial,Helvetica,SansSerif" font-size="12.5" lengthAdjust="spacing" textLength="117.7083" x="2010.4167" y="82.4544">junit_jupiter_engine</text><!--MD5=[c3f72612a96d4fc54c2d3c1ee5615055]
entity junit_jupiter_params--><rect fill="#1B1B1A" height="44.93" rx="8.3333" ry="8.3333" style="stroke:#5E5E5E;stroke-width:1.5625;" width="161.4583" x="518.75" y="160.9945"/><polygon fill="#1B1B1A" points="662.5,166.2028,662.5,180.7861,675,180.7861,675,172.4528,668.75,166.2028,662.5,166.2028" style="stroke:#5E5E5E;stroke-width:1.5625;"/><line style="stroke:#5E5E5E;stroke-width:1.5625;" x1="668.75" x2="668.75" y1="166.2028" y2="172.4528"/><line style="stroke:#5E5E5E;stroke-width:1.5625;" x1="675" x2="668.75" y1="172.4528" y2="172.4528"/><text fill="#D8BC00" font-family="Open Sans,Avenir,Nunito,Arial,Helvetica,SansSerif" font-size="12.5" lengthAdjust="spacing" textLength="123.9583" x="532.2917" y="189.7461">junit_jupiter_params</text><!--MD5=[16ac86175dbfd8781882e642bc1db0bb]
entity junit_platform_commons--><rect fill="#1B1B1A" height="44.93" rx="8.3333" ry="8.3333" style="stroke:#5E5E5E;stroke-width:1.5625;" width="184.375" x="2079.1667" y="268.2861"/><polygon fill="#1B1B1A" points="2245.8333,273.4945,2245.8333,288.0778,2258.3333,288.0778,2258.3333,279.7445,2252.0833,273.4945,2245.8333,273.4945" style="stroke:#5E5E5E;stroke-width:1.5625;"/><line style="stroke:#5E5E5E;stroke-width:1.5625;" x1="2252.0833" x2="2252.0833" y1="273.4945" y2="279.7445"/><line style="stroke:#5E5E5E;stroke-width:1.5625;" x1="2258.3333" x2="2252.0833" y1="279.7445" y2="279.7445"/><text fill="#D8BC00" font-family="Open Sans,Avenir,Nunito,Arial,Helvetica,SansSerif" font-size="12.5" lengthAdjust="spacing" textLength="146.875" x="2092.7083" y="297.0378">junit_platform_commons</text><!--MD5=[c94fa6fb52256b56717125d5f4ed3cc6]
entity junit_platform_engine--><rect fill="#1B1B1A" height="44.93" rx="8.3333" ry="8.3333" style="stroke:#5E5E5E;stroke-width:1.5625;" width="166.6667" x="2178.6458" y="160.9945"/><polygon fill="#1B1B1A" points="2327.6042,166.2028,2327.6042,180.7861,2340.1042,180.7861,2340.1042,172.4528,2333.8542,166.2028,2327.6042,166.2028" style="stroke:#5E5E5E;stroke-width:1.5625;"/><line style="stroke:#5E5E5E;stroke-width:1.5625;" x1="2333.8542" x2="2333.8542" y1="166.2028" y2="172.4528"/><line style="stroke:#5E5E5E;stroke-width:1.5625;" x1="2340.1042" x2="2333.8542" y1="172.4528" y2="172.4528"/><text fill="#D8BC00" font-family="Open Sans,Avenir,Nunito,Arial,Helvetica,SansSerif" font-size="12.5" lengthAdjust="spacing" textLength="129.1667" x="2192.1875" y="189.7461">junit_platform_engine</text><!--MD5=[a68d3636c404b547973d4378239fa3aa]
entity mockito_core--><rect fill="#1B1B1A" height="44.93" rx="8.3333" ry="8.3333" style="stroke:#5E5E5E;stroke-width:1.5625;" width="116.6667" x="1555.7292" y="53.7028"/><polygon fill="#1B1B1A" points="1654.6875,58.9111,1654.6875,73.4945,1667.1875,73.4945,1667.1875,65.1611,1660.9375,58.9111,1654.6875,58.9111" style="stroke:#5E5E5E;stroke-width:1.5625;"/><line style="stroke:#5E5E5E;stroke-width:1.5625;" x1="1660.9375" x2="1660.9375" y1="58.9111" y2="65.1611"/><line style="stroke:#5E5E5E;stroke-width:1.5625;" x1="1667.1875" x2="1660.9375" y1="65.1611" y2="65.1611"/><text fill="#D8BC00" font-family="Open Sans,Avenir,Nunito,Arial,Helvetica,SansSerif" font-size="12.5" lengthAdjust="spacing" textLength="79.1667" x="1569.2708" y="82.4544">mockito_core</text><!--MD5=[b3c862d1486667ad9c7edef6529b2202]
entity objenesis--><rect fill="#1B1B1A" height="44.93" rx="8.3333" ry="8.3333" style="stroke:#5E5E5E;stroke-width:1.5625;" width="94.7917" x="1705.2083" y="160.9945"/><polygon fill="#1B1B1A" points="1782.2917,166.2028,1782.2917,180.7861,1794.7917,180.7861,1794.7917,172.4528,1788.5417,166.2028,1782.2917,166.2028" style="stroke:#5E5E5E;stroke-width:1.5625;"/><line style="stroke:#5E5E5E;stroke-width:1.5625;" x1="1788.5417" x2="1788.5417" y1="166.2028" y2="172.4528"/><line style="stroke:#5E5E5E;stroke-width:1.5625;" x1="1794.7917" x2="1788.5417" y1="172.4528" y2="172.4528"/><text fill="#D8BC00" font-family="Open Sans,Avenir,Nunito,Arial,Helvetica,SansSerif" font-size="12.5" lengthAdjust="spacing" textLength="57.2917" x="1718.75" y="189.7461">objenesis</text><!--MD5=[ba030213f11f5a3d5b319bb69903d2f9]
entity opentest4j--><rect fill="#1B1B1A" height="44.93" rx="8.3333" ry="8.3333" style="stroke:#5E5E5E;stroke-width:1.5625;" width="102.0833" x="2300.5208" y="268.2861"/><polygon fill="#1B1B1A" points="2384.8958,273.4945,2384.8958,288.0778,2397.3958,288.0778,2397.3958,279.7445,2391.1458,273.4945,2384.8958,273.4945" style="stroke:#5E5E5E;stroke-width:1.5625;"/><line style="stroke:#5E5E5E;stroke-width:1.5625;" x1="2391.1458" x2="2391.1458" y1="273.4945" y2="279.7445"/><line style="stroke:#5E5E5E;stroke-width:1.5625;" x1="2397.3958" x2="2391.1458" y1="279.7445" y2="279.7445"/><text fill="#D8BC00" font-family="Open Sans,Avenir,Nunito,Arial,Helvetica,SansSerif" font-size="12.5" lengthAdjust="spacing" textLength="64.5833" x="2314.0625" y="297.0378">opentest4j</text><!--MD5=[2158cadba960fc97c965ca71cca36298]
entity jcl_over_slf4j--><rect fill="#1B1B1A" height="44.93" rx="8.3333" ry="8.3333" style="stroke:#5E5E5E;stroke-width:1.5625;" width="115.625" x="7.2917" y="268.2861"/><polygon fill="#1B1B1A" points="105.2083,273.4945,105.2083,288.0778,117.7083,288.0778,117.7083,279.7445,111.4583,273.4945,105.2083,273.4945" style="stroke:#5E5E5E;stroke-width:1.5625;"/><line style="stroke:#5E5E5E;stroke-width:1.5625;" x1="111.4583" x2="111.4583" y1="273.4945" y2="279.7445"/><line style="stroke:#5E5E5E;stroke-width:1.5625;" x1="117.7083" x2="111.4583" y1="279.7445" y2="279.7445"/><text fill="#D8BC00" font-family="Open Sans,Avenir,Nunito,Arial,Helvetica,SansSerif" font-size="12.5" lengthAdjust="spacing" textLength="78.125" x="20.8333" y="297.0378">jcl_over_slf4j</text><!--MD5=[44b0a2e1eacfc27a1dd91401467b1b24]
entity slf4j_api--><rect fill="#1B1B1A" height="44.93" rx="8.3333" ry="8.3333" style="stroke:#5E5E5E;stroke-width:1.5625;" width="88.5417" x="159.375" y="268.2861"/><polygon fill="#1B1B1A" points="230.2083,273.4945,230.2083,288.0778,242.7083,288.0778,242.7083,279.7445,236.4583,273.4945,230.2083,273.4945" style="stroke:#5E5E5E;stroke-width:1.5625;"/><line style="stroke:#5E5E5E;stroke-width:1.5625;" x1="236.4583" x2="236.4583" y1="273.4945" y2="279.7445"/><line style="stroke:#5E5E5E;stroke-width:1.5625;" x1="242.7083" x2="236.4583" y1="279.7445" y2="279.7445"/><text fill="#D8BC00" font-family="Open Sans,Avenir,Nunito,Arial,Helvetica,SansSerif" font-size="12.5" lengthAdjust="spacing" textLength="51.0417" x="172.9167" y="297.0378">slf4j_api</text><!--MD5=[7fbee5ae74c8dd4ba8120faa50c8c743]
entity slf4j_log4j12--><rect fill="#1B1B1A" height="44.93" rx="8.3333" ry="8.3333" style="stroke:#5E5E5E;stroke-width:1.5625;" width="116.6667" x="1246.3542" y="53.7028"/><polygon fill="#1B1B1A" points="1345.3125,58.9111,1345.3125,73.4945,1357.8125,73.4945,1357.8125,65.1611,1351.5625,58.9111,1345.3125,58.9111" style="stroke:#5E5E5E;stroke-width:1.5625;"/><line style="stroke:#5E5E5E;stroke-width:1.5625;" x1="1351.5625" x2="1351.5625" y1="58.9111" y2="65.1611"/><line style="stroke:#5E5E5E;stroke-width:1.5625;" x1="1357.8125" x2="1351.5625" y1="65.1611" y2="65.1611"/><text fill="#D8BC00" font-family="Open Sans,Avenir,Nunito,Arial,Helvetica,SansSerif" font-size="12.5" lengthAdjust="spacing" textLength="79.1667" x="1259.8958" y="82.4544">slf4j_log4j12</text><!--MD5=[387791ceefa6e7ac0048e0d5370dea72]
link junit_jupiter_engine to apiguardian_api--><path d="M2039.5,98.682 C2011.5104,115.9215 1972.2813,140.0778 1943.1667,158.0153 " fill="none" id="junit_jupiter_engine-to-apiguardian_api" style="stroke:#545454;stroke-width:1.5625;"/><polygon fill="#545454" points="1938.5833,160.8382,1948.7526,159.4829,1943.0216,158.1127,1944.3918,152.3817,1938.5833,160.8382" style="stroke:#545454;stroke-width:1.5625;"/><!--MD5=[f4b72d10a6cfe7a8a93ab847947f7423]
link junit_jupiter_engine to junit_jupiter_api--><path d="M2074.4792,98.9424 C2074.4792,115.4111 2074.4792,138.109 2074.4792,155.6611 " fill="none" id="junit_jupiter_engine-to-junit_jupiter_api" style="stroke:#545454;stroke-width:1.5625;"/><polygon fill="#545454" points="2074.4792,160.9424,2078.6458,151.5674,2074.4792,155.734,2070.3125,151.5674,2074.4792,160.9424" style="stroke:#545454;stroke-width:1.5625;"/><!--MD5=[06eb6ab5d989baa08de92dee96f24dd7]
link junit_jupiter_engine to junit_platform_engine--><path d="M2112.875,98.682 C2143.7188,115.984 2187,140.2757 2219,158.234 " fill="none" id="junit_jupiter_engine-to-junit_platform_engine" style="stroke:#545454;stroke-width:1.5625;"/><polygon fill="#545454" points="2223.6354,160.8382,2217.5161,152.6038,2219.0987,158.2798,2213.4227,159.8625,2223.6354,160.8382" style="stroke:#545454;stroke-width:1.5625;"/><!--MD5=[ae5ab7164155f4fc79ebb3185a9c5d1c]
link junit_platform_engine to junit_platform_commons--><path d="M2243.1979,206.234 C2228.7708,222.984 2208.7917,246.182 2193.5625,263.859 " fill="none" id="junit_platform_engine-to-junit_platform_commons" style="stroke:#545454;stroke-width:1.5625;"/><polygon fill="#545454" points="2189.8021,268.234,2199.0845,263.865,2193.2075,264.2933,2192.7792,258.4163,2189.8021,268.234" style="stroke:#545454;stroke-width:1.5625;"/><!--MD5=[8a9b5fbf88ccec267ebeca0685c2396a]
link junit_platform_engine to opentest4j--><path d="M2280.5417,206.234 C2294.8125,222.984 2314.5625,246.182 2329.6146,263.859 " fill="none" id="junit_platform_engine-to-opentest4j" style="stroke:#545454;stroke-width:1.5625;"/><polygon fill="#545454" points="2333.3333,268.234,2330.4353,258.3926,2329.9597,264.266,2324.0864,263.7904,2333.3333,268.234" style="stroke:#545454;stroke-width:1.5625;"/><!--MD5=[ed4318ea9be3443a979b37d4f3399abc]
link mockito_core to byte_buddy--><path d="M1614.0625,98.9424 C1614.0625,115.4111 1614.0625,138.109 1614.0625,155.6611 " fill="none" id="mockito_core-to-byte_buddy" style="stroke:#545454;stroke-width:1.5625;"/><polygon fill="#545454" points="1614.0625,160.9424,1618.2292,151.5674,1614.0625,155.734,1609.8958,151.5674,1614.0625,160.9424" style="stroke:#545454;stroke-width:1.5625;"/><!--MD5=[ca166302077c6e1468853e13a25b2a92]
link mockito_core to byte_buddy_agent--><path d="M1580.3646,98.682 C1553.3958,115.9215 1515.6042,140.0778 1487.5521,158.0153 " fill="none" id="mockito_core-to-byte_buddy_agent" style="stroke:#545454;stroke-width:1.5625;"/><polygon fill="#545454" points="1483.1354,160.8382,1493.277,159.2892,1487.5209,158.0285,1488.7815,152.2724,1483.1354,160.8382" style="stroke:#545454;stroke-width:1.5625;"/><!--MD5=[eff02feeff1f5c6fac4f7dcff0627abc]
link mockito_core to objenesis--><path d="M1642.4375,98.682 C1664.9375,115.7757 1696.4167,139.682 1719.9688,157.5674 " fill="none" id="mockito_core-to-objenesis" style="stroke:#545454;stroke-width:1.5625;"/><polygon fill="#545454" points="1724.2708,160.8382,1719.3427,151.8401,1720.1293,157.6799,1714.2895,158.4665,1724.2708,160.8382" style="stroke:#545454;stroke-width:1.5625;"/><!--MD5=[546b0a91a22de90019b2ba1c617f48bd]
link slf4j_log4j12 to log4j--><path d="M1304.6875,98.9424 C1304.6875,115.4111 1304.6875,138.109 1304.6875,155.6611 " fill="none" id="slf4j_log4j12-to-log4j" style="stroke:#545454;stroke-width:1.5625;"/><polygon fill="#545454" points="1304.6875,160.9424,1308.8542,151.5674,1304.6875,155.734,1300.5208,151.5674,1304.6875,160.9424" style="stroke:#545454;stroke-width:1.5625;"/><!--MD5=[fd484b9bbd7d72f648347b8c2c1c0a52]
link wicket_util to commons_collections4--><path d="M1006.7917,98.682 C1035.9688,115.9215 1076.875,140.0778 1107.2292,158.0153 " fill="none" id="wicket_util-to-commons_collections4" style="stroke:#545454;stroke-width:1.5625;"/><polygon fill="#545454" points="1112.0104,160.8382,1106.0617,152.4797,1107.5273,158.1871,1101.8199,159.6527,1112.0104,160.8382" style="stroke:#545454;stroke-width:1.5625;"/><!--MD5=[04bdba72622389e960a9e360895b6314]
link wicket_util to commons_fileupload--><path d="M934.9063,98.682 C906.5833,115.9215 866.8646,140.0778 837.3958,158.0153 " fill="none" id="wicket_util-to-commons_fileupload" style="stroke:#545454;stroke-width:1.5625;"/><polygon fill="#545454" points="832.7604,160.8382,842.935,159.5229,837.2094,158.1302,838.6021,152.4046,832.7604,160.8382" style="stroke:#545454;stroke-width:1.5625;"/><!--MD5=[42393529676ae9aeba5f8fc3a130e5ac]
link wicket_util to commons_io--><path d="M970.3125,98.9424 C970.3125,115.4111 970.3125,138.109 970.3125,155.6611 " fill="none" id="wicket_util-to-commons_io" style="stroke:#545454;stroke-width:1.5625;"/><polygon fill="#545454" points="970.3125,160.9424,974.4792,151.5674,970.3125,155.734,966.1458,151.5674,970.3125,160.9424" style="stroke:#545454;stroke-width:1.5625;"/><!--MD5=[364e816a302fe17de0345a44475c3d3f]
link openjson to jakarta_servlet_api--><!--MD5=[2d319a944bea46efe83a5bd4b41b72ca]
link jakarta_servlet_api to commons_lang3--><!--MD5=[e956df7554b48ed44c323abf28f88a45]
link commons_lang3 to wicket_request--><!--MD5=[4fc29d8cd8836772fa7c303b81dad7d7]
link openjson to assertj_core--><!--MD5=[dbbdaaea36dd0aec473cd31d617deb14]
link assertj_core to jdk_serializable_functional--><!--MD5=[87c6c7a482f47b0bc766230bf57dc006]
link jdk_serializable_functional to hamcrest--><!--MD5=[1b3b0ada1e20e7e5c7a1a81fd8ec9e6b]
link hamcrest to junit_jupiter_params--><!--MD5=[dd4566c97346db5e2d335e6a93aceb4d]
link assertj_core to jcl_over_slf4j--><!--MD5=[a12350f401ee911773c8d1ced77c1754]
link jcl_over_slf4j to slf4j_api--><!--MD5=[83c2d5f11ee484385fa066bfd0f0f221]
@startuml

    !include lexakai.theme
    
    title "wicket-core"
    
    artifact openjson
    artifact commons_fileupload
    artifact commons_io
    artifact jakarta_servlet_api
    artifact log4j
    artifact byte_buddy_agent
    artifact byte_buddy
    artifact commons_collections4
    artifact commons_lang3
    artifact wicket_request
    artifact wicket_util
    artifact apiguardian_api
    artifact assertj_core
    artifact jdk_serializable_functional
    artifact hamcrest
    artifact junit_jupiter_api
    artifact junit_jupiter_engine
    artifact junit_jupiter_params
    artifact junit_platform_commons
    artifact junit_platform_engine
    artifact mockito_core
    artifact objenesis
    artifact opentest4j
    artifact jcl_over_slf4j
    artifact slf4j_api
    artifact slf4j_log4j12
    junit_jupiter_engine - -> apiguardian_api
    junit_jupiter_engine - -> junit_jupiter_api
    junit_jupiter_engine - -> junit_platform_engine
    junit_platform_engine - -> junit_platform_commons
    junit_platform_engine - -> opentest4j
    mockito_core - -> byte_buddy
    mockito_core - -> byte_buddy_agent
    mockito_core - -> objenesis
    slf4j_log4j12 - -> log4j
    wicket_util - -> commons_collections4
    wicket_util - -> commons_fileupload
    wicket_util - -> commons_io
    
@enduml

@startuml









skinparam backgroundColor #333333






skinparam  {
    defaultFontName   "Open Sans,Avenir,Nunito,Arial,Helvetica,SansSerif"
    defaultFontSize   12
    defaultTextAlignment left
    shadowing false
    RoundCorner 10
    TitleFontSize 18
}

skinparam defaultFontName       "Open Sans,Avenir,Nunito,Arial,Helvetica,SansSerif"
skinparam defaultFontSize       12
skinparam dpi                   100
skinparam shadowing             false
skinparam roundcorner           16
skinparam ParticipantPadding    40
skinparam BoxPadding            40
skinparam Padding               3
skinparam ArrowColor            #545454
skinparam stereotype {
    CBackgroundColor #0066cf
    CBorderColor #0086ef
    ABackgroundColor #C8Ac00
    ABorderColor #D8Bc00
    IBackgroundColor #008400
    IBorderColor #239c23
    EBackgroundColor #cf6300
    EBorderColor #ef8300
    NBackgroundColor #3380b9
    NBorderColor #004d86
}
skinparam title {
	FontColor	                 #c0c0c0
 	BorderColor                  #545454
	FontSize	    	         20
	BorderRoundCorner            16
	BorderThickness 	         1
	BackgroundColor              #48494b
}


skinparam legend {
	BackgroundColor #303030
	BorderColor #404040
	FontColor #a0a0a0
}

	skinparam swimlane {
	BorderColor #5e5e5e
	BorderThickness 2
	TitleBackgroundColor  #6d6d6d-#484848
	TitleFontColor #303030
}

skinparam activity {
		FontColor #C8Ac00
	BorderColor #333333
	BackgroundColor #333333-#333333
	BarColor #00FF00
	StartColor #0060a8
	EndColor #0060a8
	DiamondBackgroundColor #6d6d6d-#3a3a3a
  	DiamondBorderColor #3a3a3a
  	DiamondFontColor #fefefe
}


skinparam participant {
		FontColor #C8Ac00
	BorderColor #333333
	BackgroundColor #333333-#333333
	ParticipantBorderThickness 2
}


skinparam actor {
		FontColor #C8Ac00
	BorderColor #333333
	BackgroundColor #333333-#333333
}


skinparam arrow {
	Thickness 1.5
	Color #545454
	FontColor #a0a0a0
    FontStyle bold
    MessageAlignment center
}



skinparam sequence {
	BorderColor #303030
	TitleFontColor #303030
	BackgroundColor #333333
	StartColor #303030
	EndColor #303030
	BoxBackgroundColor #333333
	BoxBorderColor #484848
	BoxFontColor #484848
	LifeLineBorderColor #484848
	LifeLineBorderThickness 2
	LifeLineBackgroundColor #3a3a3a
	GroupBorderColor #484848
	GroupFontColor #484848
	GroupHeaderFontColor #0060a8
	GroupBackgroundColor #484848
	GroupHeaderBackgroundColor #333333
	DividerBackgroundColor #484848
    DividerBorderColor #484848
    DividerBorderThickness 2
    DividerFontColor #D8Bc00
	ReferenceBackgroundColor #333333
	ReferenceBorderColor #484848
	ReferenceFontColor #fefefe
	ReferenceHeaderBackgroundColor #484848
}


skinparam partition {
	BorderColor #303030
	FontColor #333333
	BackgroundColor #333333
}


skinparam collections {
		FontColor #C8Ac00
	BorderColor #333333
	BackgroundColor #333333-#333333
}


skinparam control {
		FontColor #C8Ac00
	BorderColor #333333
	BackgroundColor #333333-#333333
}


skinparam entity {
		FontColor #C8Ac00
	BorderColor #333333
	BackgroundColor #333333-#333333
}


skinparam boundary {
		FontColor #C8Ac00
	BorderColor #333333
	BackgroundColor #333333-#333333
}


skinparam agent {
	BackgroundColor #ff8000
	BorderColor #ff9933
	FontColor #484848
}


skinparam note {
	BorderThickness 1
	BackgroundColor #1b1b1a
	BorderColor #5e5e5e
	FontSize 11
	FontColor #a0a0a0
}


skinparam artifact {
	BorderThickness 10
	BorderColor #5e5e5e
	BackgroundColor #1b1b1a
	FontColor #D8Bc00
}


skinparam component {
		FontColor #C8Ac00
	BorderColor #333333
	BackgroundColor #333333-#333333
}


skinparam interface {
	BackgroundColor  #008400
	BorderColor  #007F00
	FontColor #484848
}


skinparam storage {
	BackgroundColor #ff8000
  	BorderColor #cc6600
	FontColor #222222
}


skinparam node {
	BackgroundColor #333333
	BorderColor #333333
	FontColor #C8Ac00
}


skinparam cloud {
	BackgroundColor #484848-black
	BorderColor #484848
	FontColor #D8Bc00
}


skinparam database {
		FontColor #C8Ac00
	BorderColor #333333
	BackgroundColor #333333-#333333
	BackgroundColor  #333333
}


skinparam class {
		FontColor #C8Ac00
	BorderColor #333333
	BackgroundColor #333333-#333333
	HeaderBackgroundColor #1b1b1a
    BackgroundColor #282828
    BorderColor #5e5e5e
 	StereotypeFontColor #a0a0a0
    StereotypeFontStyle bold
	BorderThickness 1
	AttributeFontColor #D8Bc00
	AttributeFontSize 11
    FontColor #D8Bc00
    FontStyle bold
}


skinparam object {
		FontColor #C8Ac00
	BorderColor #333333
	BackgroundColor #333333-#333333
	StereotypeFontColor #484848
	BorderThickness 1
	AttributeFontColor #fefefe
	AttributeFontSize 11
}


skinparam usecase {
		FontColor #C8Ac00
	BorderColor #333333
	BackgroundColor #333333-#333333
	BorderThickness 2
	StereotypeFontColor #303030
}


skinparam rectangle {
		FontColor #C8Ac00
	BorderColor #333333
	BackgroundColor #333333-#333333
	BackgroundColor #333333
	BorderThickness 2
	StereotypeFontColor #303030
}


skinparam package {
		FontColor #C8Ac00
	BorderColor #333333
	BackgroundColor #333333-#333333
	BackgroundColor #333333
	BorderThickness 2
}


skinparam folder {
	BackgroundColor #6d6d6d
  	BorderColor #ff8000
	FontColor #ff8000
	BorderThickness 2
}


skinparam frame {
	BackgroundColor #6d6d6d
  	BorderColor #0060a8
	FontColor #0060a8
	BorderThickness 2
}


skinparam state {
		FontColor #C8Ac00
	BorderColor #333333
	BackgroundColor #333333-#333333
	StartColor #0060a8
	EndColor #0060a8
	AttributeFontColor #fefefe
	AttributeFontSize 11
}


skinparam queue {
		FontColor #C8Ac00
	BorderColor #333333
	BackgroundColor #333333-#333333
}


skinparam card {
	BackgroundColor #0060a8
	BorderColor #004d86
	FontColor $INFO_TEXT
}


skinparam file {
	BackgroundColor #6d6d6d-#484848
	BorderColor #0060a8
	FontColor #fefefe
}


skinparam stack {
		FontColor #C8Ac00
	BorderColor #333333
	BackgroundColor #333333-#333333
}

    
    title "wicket-core"
    
    artifact openjson
    artifact commons_fileupload
    artifact commons_io
    artifact jakarta_servlet_api
    artifact log4j
    artifact byte_buddy_agent
    artifact byte_buddy
    artifact commons_collections4
    artifact commons_lang3
    artifact wicket_request
    artifact wicket_util
    artifact apiguardian_api
    artifact assertj_core
    artifact jdk_serializable_functional
    artifact hamcrest
    artifact junit_jupiter_api
    artifact junit_jupiter_engine
    artifact junit_jupiter_params
    artifact junit_platform_commons
    artifact junit_platform_engine
    artifact mockito_core
    artifact objenesis
    artifact opentest4j
    artifact jcl_over_slf4j
    artifact slf4j_api
    artifact slf4j_log4j12
    junit_jupiter_engine - -> apiguardian_api
    junit_jupiter_engine - -> junit_jupiter_api
    junit_jupiter_engine - -> junit_platform_engine
    junit_platform_engine - -> junit_platform_commons
    junit_platform_engine - -> opentest4j
    mockito_core - -> byte_buddy
    mockito_core - -> byte_buddy_agent
    mockito_core - -> objenesis
    slf4j_log4j12 - -> log4j
    wicket_util - -> commons_collections4
    wicket_util - -> commons_fileupload
    wicket_util - -> commons_io
    
@enduml

PlantUML version 1.2021.01(Tue Feb 02 00:55:08 MST 2021)
(GPL source distribution)
Java Runtime: Java(TM) SE Runtime Environment
JVM: Java HotSpot(TM) 64-Bit Server VM
Default Encoding: UTF-8
Language: en
Country: US
--></g></svg>