<?xml version="1.0" encoding="UTF-8" standalone="no"?><svg xmlns="http://www.w3.org/2000/svg" xmlns:xlink="http://www.w3.org/1999/xlink" contentScriptType="application/ecmascript" contentStyleType="text/css" height="491.6667px" preserveAspectRatio="none" style="width:1106px;height:491px;background:#333333;" version="1.1" viewBox="0 0 1106 491" width="1106.25px" zoomAndPan="magnify"><defs/><g><rect fill="#48494B" height="41.2028" rx="8.3333" ry="8.3333" style="stroke:#545454;stroke-width:1.0416666666666667;" width="338.5417" x="376.5625" y="2.0833"/><text fill="#C0C0C0" font-family="Open Sans,Avenir,Nunito,Arial,Helvetica,SansSerif" font-size="20.8333" lengthAdjust="spacing" textLength="315.625" x="388.0208" y="30.5583">org.apache.wicket.serialize.java</text><!--MD5=[50891b74f641d959fc680b3a427abc2f]
cluster JavaSerializer--><polygon fill="#333333" points="410.4167,146.932,509.375,146.932,516.6667,174.1536,771.875,174.1536,771.875,304.2236,410.4167,304.2236,410.4167,146.932" style="stroke:#333333;stroke-width:2.0833333333333335;"/><line style="stroke:#333333;stroke-width:2.0833333333333335;" x1="410.4167" x2="516.6667" y1="174.1536" y2="174.1536"/><text fill="#C8AC00" font-family="Open Sans,Avenir,Nunito,Arial,Helvetica,SansSerif" font-size="12.5" font-weight="bold" lengthAdjust="spacing" textLength="86.4583" x="417.7083" y="164.2253">JavaSerializer</text><!--MD5=[8990510d27e6b7cea7e1a3a4a8336f13]
class JavaSerializer.ClassResolverObjectInputStream--><rect codeLine="9" fill="#282828" height="83.3781" id="JavaSerializer.ClassResolverObjectInputStream" rx="8.3333" ry="8.3333" style="stroke:#5E5E5E;stroke-width:1.0416666666666667;" width="290.625" x="455.7292" y="195.8903"/><rect fill="#1B1B1A" height="31.3883" rx="8.3333" ry="8.3333" style="stroke:#1B1B1A;stroke-width:1.0416666666666667;" width="290.625" x="455.7292" y="195.8903"/><rect fill="#1B1B1A" height="8.3333" style="stroke:#1B1B1A;stroke-width:1.0416666666666667;" width="290.625" x="455.7292" y="218.9453"/><rect codeLine="9" fill="none" height="83.3781" id="JavaSerializer.ClassResolverObjectInputStream" rx="8.3333" ry="8.3333" style="stroke:#5E5E5E;stroke-width:1.0416666666666667;" width="290.625" x="455.7292" y="195.8903"/><ellipse cx="489.0625" cy="211.5845" fill="#0066CF" rx="10.4167" ry="10.4167" style="stroke:#0086EF;stroke-width:1.0416666666666667;"/><path d="M490.9729,216.0095 Q490.5457,216.2292 490.0757,216.3391 Q489.6057,216.449 489.0869,216.449 Q487.2437,216.449 486.2732,215.2344 Q485.3027,214.0198 485.3027,211.7249 Q485.3027,209.4238 486.2732,208.2092 Q487.2437,206.9946 489.0869,206.9946 Q489.6057,206.9946 490.0818,207.1045 Q490.5579,207.2144 490.9729,207.4341 L490.9729,209.436 Q490.509,209.0088 490.0726,208.8104 Q489.6362,208.6121 489.1724,208.6121 Q488.1836,208.6121 487.6801,209.3964 Q487.1765,210.1807 487.1765,211.7249 Q487.1765,213.2629 487.6801,214.0472 Q488.1836,214.8315 489.1724,214.8315 Q489.6362,214.8315 490.0726,214.6332 Q490.509,214.4348 490.9729,214.0076 Z " fill="#000000"/><text fill="#D8BC00" font-family="Open Sans,Avenir,Nunito,Arial,Helvetica,SansSerif" font-size="12.5" font-weight="bold" lengthAdjust="spacing" textLength="211.4583" x="509.8958" y="216.3086">ClassResolverObjectInputStream</text><line style="stroke:#5E5E5E;stroke-width:1.5625;" x1="456.7708" x2="745.3125" y1="227.2786" y2="227.2786"/><ellipse cx="467.1875" cy="262.6485" fill="#84BE84" rx="3.125" ry="3.125" style="stroke:#038048;stroke-width:1.0416666666666667;"/><text fill="#D8BC00" font-family="Open Sans,Avenir,Nunito,Arial,Helvetica,SansSerif" font-size="11.4583" lengthAdjust="spacing" textLength="258.3333" x="478.6458" y="269.5597">ClassResolverObjectInputStream(InputStream)</text><line style="stroke:#5E5E5E;stroke-width:1.0416666666666667;" x1="456.7708" x2="557.2917" y1="245.4844" y2="245.4844"/><text fill="#D8BC00" font-family="Open Sans,Avenir,Nunito,Arial,Helvetica,SansSerif" font-size="11.4583" lengthAdjust="spacing" textLength="81.25" x="560.4167" y="249.294">(constructors)</text><line style="stroke:#5E5E5E;stroke-width:1.0416666666666667;" x1="644.7917" x2="745.3125" y1="245.4844" y2="245.4844"/><!--MD5=[c9658bc980af8333969987db4f184755]
class ISerializer--><rect codeLine="6" fill="#282828" height="48.055" id="ISerializer" rx="8.3333" ry="8.3333" style="stroke:#5E5E5E;stroke-width:1.0416666666666667;" width="101.0417" x="145.3125" y="53.7028"/><rect fill="#1B1B1A" height="31.3883" rx="8.3333" ry="8.3333" style="stroke:#1B1B1A;stroke-width:1.0416666666666667;" width="101.0417" x="145.3125" y="53.7028"/><rect fill="#1B1B1A" height="8.3333" style="stroke:#1B1B1A;stroke-width:1.0416666666666667;" width="101.0417" x="145.3125" y="76.7578"/><rect codeLine="6" fill="none" height="48.055" id="ISerializer" rx="8.3333" ry="8.3333" style="stroke:#5E5E5E;stroke-width:1.0416666666666667;" width="101.0417" x="145.3125" y="53.7028"/><ellipse cx="159.8958" cy="69.397" fill="#008400" rx="10.4167" ry="10.4167" style="stroke:#239C23;stroke-width:1.0416666666666667;"/><path d="M157.2998,66.5588 L157.2998,64.9719 L162.7258,64.9719 L162.7258,66.5588 L160.9131,66.5588 L160.9131,72.4976 L162.7258,72.4976 L162.7258,74.0845 L157.2998,74.0845 L157.2998,72.4976 L159.1125,72.4976 L159.1125,66.5588 Z " fill="#000000"/><text fill="#D8BC00" font-family="Open Sans,Avenir,Nunito,Arial,Helvetica,SansSerif" font-size="12.5" font-style="italic" font-weight="bold" lengthAdjust="spacing" textLength="63.5417" x="176.5625" y="74.1211">ISerializer</text><line style="stroke:#5E5E5E;stroke-width:1.0416666666666667;" x1="146.3542" x2="245.3125" y1="85.0911" y2="85.0911"/><line style="stroke:#5E5E5E;stroke-width:1.0416666666666667;" x1="146.3542" x2="245.3125" y1="93.4245" y2="93.4245"/><!--MD5=[6950cbc97456a510bb00a48d1301c391]
class ObjectInputStream--><rect fill="#282828" height="48.055" id="ObjectInputStream" rx="8.3333" ry="8.3333" style="stroke:#5E5E5E;stroke-width:1.0416666666666667;" width="158.3333" x="521.875" y="53.7028"/><rect fill="#1B1B1A" height="31.3883" rx="8.3333" ry="8.3333" style="stroke:#1B1B1A;stroke-width:1.0416666666666667;" width="158.3333" x="521.875" y="53.7028"/><rect fill="#1B1B1A" height="8.3333" style="stroke:#1B1B1A;stroke-width:1.0416666666666667;" width="158.3333" x="521.875" y="76.7578"/><rect fill="none" height="48.055" id="ObjectInputStream" rx="8.3333" ry="8.3333" style="stroke:#5E5E5E;stroke-width:1.0416666666666667;" width="158.3333" x="521.875" y="53.7028"/><ellipse cx="536.4583" cy="69.397" fill="#0066CF" rx="10.4167" ry="10.4167" style="stroke:#0086EF;stroke-width:1.0416666666666667;"/><path d="M538.3687,73.822 Q537.9415,74.0417 537.4715,74.1516 Q537.0015,74.2615 536.4827,74.2615 Q534.6395,74.2615 533.669,73.0469 Q532.6986,71.8323 532.6986,69.5374 Q532.6986,67.2363 533.669,66.0217 Q534.6395,64.8071 536.4827,64.8071 Q537.0015,64.8071 537.4776,64.917 Q537.9537,65.0269 538.3687,65.2466 L538.3687,67.2485 Q537.9049,66.8213 537.4685,66.6229 Q537.0321,66.4246 536.5682,66.4246 Q535.5794,66.4246 535.0759,67.2089 Q534.5723,67.9932 534.5723,69.5374 Q534.5723,71.0754 535.0759,71.8597 Q535.5794,72.644 536.5682,72.644 Q537.0321,72.644 537.4685,72.4457 Q537.9049,72.2473 538.3687,71.8201 Z " fill="#000000"/><text fill="#D8BC00" font-family="Open Sans,Avenir,Nunito,Arial,Helvetica,SansSerif" font-size="12.5" font-weight="bold" lengthAdjust="spacing" textLength="120.8333" x="553.125" y="74.1211">ObjectInputStream</text><line style="stroke:#5E5E5E;stroke-width:1.0416666666666667;" x1="522.9167" x2="679.1667" y1="85.0911" y2="85.0911"/><line style="stroke:#5E5E5E;stroke-width:1.0416666666666667;" x1="522.9167" x2="679.1667" y1="93.4245" y2="93.4245"/><!--MD5=[d4596364df67f20ff8c4d0040d8d338c]
class DeflatedJavaSerializer--><rect codeLine="16" fill="#282828" height="111.4563" id="DeflatedJavaSerializer" rx="8.3333" ry="8.3333" style="stroke:#5E5E5E;stroke-width:1.0416666666666667;" width="192.7083" x="99.4792" y="373.4945"/><rect fill="#1B1B1A" height="31.3883" rx="8.3333" ry="8.3333" style="stroke:#1B1B1A;stroke-width:1.0416666666666667;" width="192.7083" x="99.4792" y="373.4945"/><rect fill="#1B1B1A" height="8.3333" style="stroke:#1B1B1A;stroke-width:1.0416666666666667;" width="192.7083" x="99.4792" y="396.5495"/><rect codeLine="16" fill="none" height="111.4563" id="DeflatedJavaSerializer" rx="8.3333" ry="8.3333" style="stroke:#5E5E5E;stroke-width:1.0416666666666667;" width="192.7083" x="99.4792" y="373.4945"/><ellipse cx="120.1563" cy="389.1886" fill="#0066CF" rx="10.4167" ry="10.4167" style="stroke:#0086EF;stroke-width:1.0416666666666667;"/><path d="M122.0667,393.6137 Q121.6394,393.8334 121.1694,393.9433 Q120.6995,394.0531 120.1807,394.0531 Q118.3374,394.0531 117.3669,392.8385 Q116.3965,391.6239 116.3965,389.329 Q116.3965,387.028 117.3669,385.8134 Q118.3374,384.5988 120.1807,384.5988 Q120.6995,384.5988 121.1755,384.7087 Q121.6516,384.8185 122.0667,385.0382 L122.0667,387.0402 Q121.6028,386.613 121.1664,386.4146 Q120.73,386.2162 120.2661,386.2162 Q119.2773,386.2162 118.7738,387.0005 Q118.2703,387.7848 118.2703,389.329 Q118.2703,390.8671 118.7738,391.6514 Q119.2773,392.4357 120.2661,392.4357 Q120.73,392.4357 121.1664,392.2373 Q121.6028,392.039 122.0667,391.6117 Z " fill="#000000"/><text fill="#D8BC00" font-family="Open Sans,Avenir,Nunito,Arial,Helvetica,SansSerif" font-size="12.5" font-weight="bold" lengthAdjust="spacing" textLength="141.6667" x="138.1771" y="393.9128">DeflatedJavaSerializer</text><line style="stroke:#5E5E5E;stroke-width:1.5625;" x1="100.5208" x2="291.1458" y1="404.8828" y2="404.8828"/><ellipse cx="110.9375" cy="440.2527" fill="#84BE84" rx="3.125" ry="3.125" style="stroke:#038048;stroke-width:1.0416666666666667;"/><text fill="#D8BC00" font-family="Open Sans,Avenir,Nunito,Arial,Helvetica,SansSerif" font-size="11.4583" lengthAdjust="spacing" textLength="160.4167" x="122.3958" y="447.1639">DeflatedJavaSerializer(String)</text><line style="stroke:#5E5E5E;stroke-width:1.0416666666666667;" x1="100.5208" x2="152.0833" y1="423.0886" y2="423.0886"/><text fill="#D8BC00" font-family="Open Sans,Avenir,Nunito,Arial,Helvetica,SansSerif" font-size="11.4583" lengthAdjust="spacing" textLength="81.25" x="155.2083" y="426.8982">(constructors)</text><line style="stroke:#5E5E5E;stroke-width:1.0416666666666667;" x1="239.5833" x2="291.1458" y1="423.0886" y2="423.0886"/><line style="stroke:#5E5E5E;stroke-width:1.0416666666666667;" x1="100.5208" x2="291.1458" y1="456.8726" y2="456.8726"/><polygon fill="#FFFF44" points="110.9375,463.1226,115.1042,467.2892,110.9375,471.4559,106.7708,467.2892" style="stroke:#B38D22;stroke-width:1.0416666666666667;"/><text fill="#D8BC00" font-family="Open Sans,Avenir,Nunito,Arial,Helvetica,SansSerif" font-size="11.4583" lengthAdjust="spacing" textLength="133.3333" x="122.3958" y="475.2421">Deflater createDeflater()</text><!--MD5=[68583a43b244d1f50a5815c4ffd14464]
class JavaSerializer--><rect codeLine="25" fill="#282828" height="146.7794" id="JavaSerializer" rx="8.3333" ry="8.3333" style="stroke:#5E5E5E;stroke-width:1.0416666666666667;" width="372.9167" x="9.375" y="164.1195"/><rect fill="#1B1B1A" height="31.3883" rx="8.3333" ry="8.3333" style="stroke:#1B1B1A;stroke-width:1.0416666666666667;" width="372.9167" x="9.375" y="164.1195"/><rect fill="#1B1B1A" height="8.3333" style="stroke:#1B1B1A;stroke-width:1.0416666666666667;" width="372.9167" x="9.375" y="187.1745"/><rect codeLine="25" fill="none" height="146.7794" id="JavaSerializer" rx="8.3333" ry="8.3333" style="stroke:#5E5E5E;stroke-width:1.0416666666666667;" width="372.9167" x="9.375" y="164.1195"/><ellipse cx="145.3125" cy="179.8136" fill="#0066CF" rx="10.4167" ry="10.4167" style="stroke:#0086EF;stroke-width:1.0416666666666667;"/><path d="M147.2229,184.2387 Q146.7957,184.4584 146.3257,184.5683 Q145.8557,184.6781 145.3369,184.6781 Q143.4937,184.6781 142.5232,183.4635 Q141.5527,182.2489 141.5527,179.954 Q141.5527,177.653 142.5232,176.4384 Q143.4937,175.2238 145.3369,175.2238 Q145.8557,175.2238 146.3318,175.3337 Q146.8079,175.4435 147.2229,175.6632 L147.2229,177.6652 Q146.759,177.238 146.3226,177.0396 Q145.8862,176.8412 145.4224,176.8412 Q144.4336,176.8412 143.9301,177.6255 Q143.4265,178.4098 143.4265,179.954 Q143.4265,181.4921 143.9301,182.2764 Q144.4336,183.0607 145.4224,183.0607 Q145.8862,183.0607 146.3226,182.8623 Q146.759,182.664 147.2229,182.2367 Z " fill="#000000"/><text fill="#D8BC00" font-family="Open Sans,Avenir,Nunito,Arial,Helvetica,SansSerif" font-size="12.5" font-weight="bold" lengthAdjust="spacing" textLength="86.4583" x="168.2292" y="184.5378">JavaSerializer</text><line style="stroke:#5E5E5E;stroke-width:1.5625;" x1="10.4167" x2="381.25" y1="195.5078" y2="195.5078"/><ellipse cx="20.8333" cy="230.8777" fill="#84BE84" rx="3.125" ry="3.125" style="stroke:#038048;stroke-width:1.0416666666666667;"/><text fill="#D8BC00" font-family="Open Sans,Avenir,Nunito,Arial,Helvetica,SansSerif" font-size="11.4583" lengthAdjust="spacing" textLength="114.5833" x="32.2917" y="237.7889">JavaSerializer(String)</text><line style="stroke:#5E5E5E;stroke-width:1.0416666666666667;" x1="10.4167" x2="152.0833" y1="213.7136" y2="213.7136"/><text fill="#D8BC00" font-family="Open Sans,Avenir,Nunito,Arial,Helvetica,SansSerif" font-size="11.4583" lengthAdjust="spacing" textLength="81.25" x="155.2083" y="217.5232">(constructors)</text><line style="stroke:#5E5E5E;stroke-width:1.0416666666666667;" x1="239.5833" x2="381.25" y1="213.7136" y2="213.7136"/><polygon fill="#FFFF44" points="20.8333,269.3258,25,273.4924,20.8333,277.6591,16.6667,273.4924" style="stroke:#B38D22;stroke-width:1.0416666666666667;"/><text fill="#D8BC00" font-family="Open Sans,Avenir,Nunito,Arial,Helvetica,SansSerif" font-size="11.4583" lengthAdjust="spacing" textLength="309.375" x="32.2917" y="281.4453">ObjectInputStream newObjectInputStream(InputStream)</text><polygon fill="#FFFF44" points="20.8333,289.0706,25,293.2373,20.8333,297.404,16.6667,293.2373" style="stroke:#B38D22;stroke-width:1.0416666666666667;"/><text fill="#D8BC00" font-family="Open Sans,Avenir,Nunito,Arial,Helvetica,SansSerif" font-size="11.4583" lengthAdjust="spacing" textLength="340.625" x="32.2917" y="301.1902">ObjectOutputStream newObjectOutputStream(OutputStream)</text><line style="stroke:#5E5E5E;stroke-width:1.0416666666666667;" x1="10.4167" x2="168.75" y1="257.37" y2="257.37"/><text fill="#D8BC00" font-family="Open Sans,Avenir,Nunito,Arial,Helvetica,SansSerif" font-size="11.4583" lengthAdjust="spacing" textLength="47.9167" x="171.875" y="261.1796">(factory)</text><line style="stroke:#5E5E5E;stroke-width:1.0416666666666667;" x1="222.9167" x2="381.25" y1="257.37" y2="257.37"/><!--MD5=[5a458cc0f73ceefa453f183bd3033347]
class ObjectOutputStream--><rect fill="#282828" height="48.055" id="ObjectOutputStream" rx="8.3333" ry="8.3333" style="stroke:#5E5E5E;stroke-width:1.0416666666666667;" width="169.7917" x="863.0208" y="53.7028"/><rect fill="#1B1B1A" height="31.3883" rx="8.3333" ry="8.3333" style="stroke:#1B1B1A;stroke-width:1.0416666666666667;" width="169.7917" x="863.0208" y="53.7028"/><rect fill="#1B1B1A" height="8.3333" style="stroke:#1B1B1A;stroke-width:1.0416666666666667;" width="169.7917" x="863.0208" y="76.7578"/><rect fill="none" height="48.055" id="ObjectOutputStream" rx="8.3333" ry="8.3333" style="stroke:#5E5E5E;stroke-width:1.0416666666666667;" width="169.7917" x="863.0208" y="53.7028"/><ellipse cx="877.6042" cy="69.397" fill="#0066CF" rx="10.4167" ry="10.4167" style="stroke:#0086EF;stroke-width:1.0416666666666667;"/><path d="M879.5146,73.822 Q879.0873,74.0417 878.6174,74.1516 Q878.1474,74.2615 877.6286,74.2615 Q875.7853,74.2615 874.8149,73.0469 Q873.8444,71.8323 873.8444,69.5374 Q873.8444,67.2363 874.8149,66.0217 Q875.7853,64.8071 877.6286,64.8071 Q878.1474,64.8071 878.6235,64.917 Q879.0995,65.0269 879.5146,65.2466 L879.5146,67.2485 Q879.0507,66.8213 878.6143,66.6229 Q878.1779,66.4246 877.714,66.4246 Q876.7253,66.4246 876.2217,67.2089 Q875.7182,67.9932 875.7182,69.5374 Q875.7182,71.0754 876.2217,71.8597 Q876.7253,72.644 877.714,72.644 Q878.1779,72.644 878.6143,72.4457 Q879.0507,72.2473 879.5146,71.8201 Z " fill="#000000"/><text fill="#D8BC00" font-family="Open Sans,Avenir,Nunito,Arial,Helvetica,SansSerif" font-size="12.5" font-weight="bold" lengthAdjust="spacing" textLength="132.2917" x="894.2708" y="74.1211">ObjectOutputStream</text><line style="stroke:#5E5E5E;stroke-width:1.0416666666666667;" x1="864.0625" x2="1031.7708" y1="85.0911" y2="85.0911"/><line style="stroke:#5E5E5E;stroke-width:1.0416666666666667;" x1="864.0625" x2="1031.7708" y1="93.4245" y2="93.4245"/><!--MD5=[504d408e1357d43271ae557ec28dc9aa]
class JavaSerializer.SerializationCheckerObjectOutputStream--><rect codeLine="35" fill="#282828" height="48.055" id="JavaSerializer.SerializationCheckerObjectOutputStream" rx="8.3333" ry="8.3333" style="stroke:#5E5E5E;stroke-width:1.0416666666666667;" width="302.0833" x="796.875" y="213.5986"/><rect fill="#1B1B1A" height="31.3883" rx="8.3333" ry="8.3333" style="stroke:#1B1B1A;stroke-width:1.0416666666666667;" width="302.0833" x="796.875" y="213.5986"/><rect fill="#1B1B1A" height="8.3333" style="stroke:#1B1B1A;stroke-width:1.0416666666666667;" width="302.0833" x="796.875" y="236.6536"/><rect codeLine="35" fill="none" height="48.055" id="JavaSerializer.SerializationCheckerObjectOutputStream" rx="8.3333" ry="8.3333" style="stroke:#5E5E5E;stroke-width:1.0416666666666667;" width="302.0833" x="796.875" y="213.5986"/><ellipse cx="811.4583" cy="229.2928" fill="#0066CF" rx="10.4167" ry="10.4167" style="stroke:#0086EF;stroke-width:1.0416666666666667;"/><path d="M813.3687,233.7179 Q812.9415,233.9376 812.4715,234.0474 Q812.0015,234.1573 811.4827,234.1573 Q809.6395,234.1573 808.669,232.9427 Q807.6986,231.7281 807.6986,229.4332 Q807.6986,227.1322 808.669,225.9176 Q809.6395,224.703 811.4827,224.703 Q812.0015,224.703 812.4776,224.8128 Q812.9537,224.9227 813.3687,225.1424 L813.3687,227.1444 Q812.9049,226.7171 812.4685,226.5188 Q812.0321,226.3204 811.5682,226.3204 Q810.5794,226.3204 810.0759,227.1047 Q809.5723,227.889 809.5723,229.4332 Q809.5723,230.9713 810.0759,231.7556 Q810.5794,232.5399 811.5682,232.5399 Q812.0321,232.5399 812.4685,232.3415 Q812.9049,232.1431 813.3687,231.7159 Z " fill="#000000"/><text fill="#D8BC00" font-family="Open Sans,Avenir,Nunito,Arial,Helvetica,SansSerif" font-size="12.5" font-weight="bold" lengthAdjust="spacing" textLength="264.5833" x="828.125" y="234.0169">SerializationCheckerObjectOutputStream</text><line style="stroke:#5E5E5E;stroke-width:1.0416666666666667;" x1="797.9167" x2="1097.9167" y1="244.987" y2="244.987"/><line style="stroke:#5E5E5E;stroke-width:1.0416666666666667;" x1="797.9167" x2="1097.9167" y1="253.3203" y2="253.3203"/><!--MD5=[c27afbb09659553ed8083fa8b8e34633]
reverse link ObjectInputStream to JavaSerializer.ClassResolverObjectInputStream--><path codeLine="8" d="M601.0417,122.5361 C601.0417,145.4632 601.0417,173.3486 601.0417,195.7965 " fill="none" id="ObjectInputStream-backto-JavaSerializer.ClassResolverObjectInputStream" style="stroke:#545454;stroke-width:1.5625;"/><polygon fill="none" points="593.75,122.484,601.0417,101.6507,608.3333,122.484,593.75,122.484" style="stroke:#545454;stroke-width:1.5625;"/><!--MD5=[71bdf6d3b30efe119d5855f7c5be5e6d]
reverse link JavaSerializer to DeflatedJavaSerializer--><path codeLine="15" d="M195.8333,311.0882 C195.8333,331.7757 195.8333,353.984 195.8333,373.432 " fill="none" id="JavaSerializer-backto-DeflatedJavaSerializer" style="stroke:#545454;stroke-width:1.5625;"/><polygon fill="none" points="" style="stroke:#545454;stroke-width:1.5625;"/><!--MD5=[f93d29e8eaf277e3936e2caeea897e43]
reverse link ISerializer to JavaSerializer--><path codeLine="24" d="M195.8333,122.6611 C195.8333,135.4736 195.8333,149.8278 195.8333,163.9111 " fill="none" id="ISerializer-backto-JavaSerializer" style="stroke:#545454;stroke-width:1.5625;"/><polygon fill="none" points="188.5417,122.484,195.8333,101.6507,203.125,122.484,188.5417,122.484" style="stroke:#545454;stroke-width:1.5625;"/><!--MD5=[aa593f8ac85f8476d07f2c58c8e180d0]
reverse link ObjectOutputStream to JavaSerializer.SerializationCheckerObjectOutputStream--><path codeLine="34" d="M947.9167,122.682 C947.9167,152.1715 947.9167,189.807 947.9167,213.5361 " fill="none" id="ObjectOutputStream-backto-JavaSerializer.SerializationCheckerObjectOutputStream" style="stroke:#545454;stroke-width:1.5625;"/><polygon fill="none" points="940.625,122.484,947.9167,101.6507,955.2083,122.484,940.625,122.484" style="stroke:#545454;stroke-width:1.5625;"/><!--MD5=[925eeeaaad746ed02f3cd7712df25aad]
@startuml

    !include lexakai.theme
    
    title "org.apache.wicket.serialize.java"
    
    interface ISerializer
    
    ObjectInputStream <|- - JavaSerializer.ClassResolverObjectInputStream
    class JavaSerializer.ClassResolverObjectInputStream
    {
        - -(constructors)- -
        +ClassResolverObjectInputStream(InputStream)
    }
    
    JavaSerializer <|- - DeflatedJavaSerializer
    class DeflatedJavaSerializer
    {
        - -(constructors)- -
        +DeflatedJavaSerializer(String)
        - -
        #Deflater createDeflater()
    }
    
    ISerializer <|- - JavaSerializer
    class JavaSerializer
    {
        - -(constructors)- -
        +JavaSerializer(String)
        - -(factory)- -
        #ObjectInputStream newObjectInputStream(InputStream)
        #ObjectOutputStream newObjectOutputStream(OutputStream)
    }
    
    ObjectOutputStream <|- - JavaSerializer.SerializationCheckerObjectOutputStream
    class JavaSerializer.SerializationCheckerObjectOutputStream
    {
    }
    
@enduml

@startuml









skinparam backgroundColor #333333






skinparam  {
    defaultFontName   "Open Sans,Avenir,Nunito,Arial,Helvetica,SansSerif"
    defaultFontSize   12
    defaultTextAlignment left
    shadowing false
    RoundCorner 10
    TitleFontSize 18
}

skinparam defaultFontName       "Open Sans,Avenir,Nunito,Arial,Helvetica,SansSerif"
skinparam defaultFontSize       12
skinparam dpi                   100
skinparam shadowing             false
skinparam roundcorner           16
skinparam ParticipantPadding    40
skinparam BoxPadding            40
skinparam Padding               3
skinparam ArrowColor            #545454
skinparam stereotype {
    CBackgroundColor #0066cf
    CBorderColor #0086ef
    ABackgroundColor #C8Ac00
    ABorderColor #D8Bc00
    IBackgroundColor #008400
    IBorderColor #239c23
    EBackgroundColor #cf6300
    EBorderColor #ef8300
    NBackgroundColor #3380b9
    NBorderColor #004d86
}
skinparam title {
	FontColor	                 #c0c0c0
 	BorderColor                  #545454
	FontSize	    	         20
	BorderRoundCorner            16
	BorderThickness 	         1
	BackgroundColor              #48494b
}


skinparam legend {
	BackgroundColor #303030
	BorderColor #404040
	FontColor #a0a0a0
}

	skinparam swimlane {
	BorderColor #5e5e5e
	BorderThickness 2
	TitleBackgroundColor  #6d6d6d-#484848
	TitleFontColor #303030
}

skinparam activity {
		FontColor #C8Ac00
	BorderColor #333333
	BackgroundColor #333333-#333333
	BarColor #00FF00
	StartColor #0060a8
	EndColor #0060a8
	DiamondBackgroundColor #6d6d6d-#3a3a3a
  	DiamondBorderColor #3a3a3a
  	DiamondFontColor #fefefe
}


skinparam participant {
		FontColor #C8Ac00
	BorderColor #333333
	BackgroundColor #333333-#333333
	ParticipantBorderThickness 2
}


skinparam actor {
		FontColor #C8Ac00
	BorderColor #333333
	BackgroundColor #333333-#333333
}


skinparam arrow {
	Thickness 1.5
	Color #545454
	FontColor #a0a0a0
    FontStyle bold
    MessageAlignment center
}



skinparam sequence {
	BorderColor #303030
	TitleFontColor #303030
	BackgroundColor #333333
	StartColor #303030
	EndColor #303030
	BoxBackgroundColor #333333
	BoxBorderColor #484848
	BoxFontColor #484848
	LifeLineBorderColor #484848
	LifeLineBorderThickness 2
	LifeLineBackgroundColor #3a3a3a
	GroupBorderColor #484848
	GroupFontColor #484848
	GroupHeaderFontColor #0060a8
	GroupBackgroundColor #484848
	GroupHeaderBackgroundColor #333333
	DividerBackgroundColor #484848
    DividerBorderColor #484848
    DividerBorderThickness 2
    DividerFontColor #D8Bc00
	ReferenceBackgroundColor #333333
	ReferenceBorderColor #484848
	ReferenceFontColor #fefefe
	ReferenceHeaderBackgroundColor #484848
}


skinparam partition {
	BorderColor #303030
	FontColor #333333
	BackgroundColor #333333
}


skinparam collections {
		FontColor #C8Ac00
	BorderColor #333333
	BackgroundColor #333333-#333333
}


skinparam control {
		FontColor #C8Ac00
	BorderColor #333333
	BackgroundColor #333333-#333333
}


skinparam entity {
		FontColor #C8Ac00
	BorderColor #333333
	BackgroundColor #333333-#333333
}


skinparam boundary {
		FontColor #C8Ac00
	BorderColor #333333
	BackgroundColor #333333-#333333
}


skinparam agent {
	BackgroundColor #ff8000
	BorderColor #ff9933
	FontColor #484848
}


skinparam note {
	BorderThickness 1
	BackgroundColor #1b1b1a
	BorderColor #5e5e5e
	FontSize 11
	FontColor #a0a0a0
}


skinparam artifact {
	BorderThickness 10
	BorderColor #5e5e5e
	BackgroundColor #1b1b1a
	FontColor #D8Bc00
}


skinparam component {
		FontColor #C8Ac00
	BorderColor #333333
	BackgroundColor #333333-#333333
}


skinparam interface {
	BackgroundColor  #008400
	BorderColor  #007F00
	FontColor #484848
}


skinparam storage {
	BackgroundColor #ff8000
  	BorderColor #cc6600
	FontColor #222222
}


skinparam node {
	BackgroundColor #333333
	BorderColor #333333
	FontColor #C8Ac00
}


skinparam cloud {
	BackgroundColor #484848-black
	BorderColor #484848
	FontColor #D8Bc00
}


skinparam database {
		FontColor #C8Ac00
	BorderColor #333333
	BackgroundColor #333333-#333333
	BackgroundColor  #333333
}


skinparam class {
		FontColor #C8Ac00
	BorderColor #333333
	BackgroundColor #333333-#333333
	HeaderBackgroundColor #1b1b1a
    BackgroundColor #282828
    BorderColor #5e5e5e
 	StereotypeFontColor #a0a0a0
    StereotypeFontStyle bold
	BorderThickness 1
	AttributeFontColor #D8Bc00
	AttributeFontSize 11
    FontColor #D8Bc00
    FontStyle bold
}


skinparam object {
		FontColor #C8Ac00
	BorderColor #333333
	BackgroundColor #333333-#333333
	StereotypeFontColor #484848
	BorderThickness 1
	AttributeFontColor #fefefe
	AttributeFontSize 11
}


skinparam usecase {
		FontColor #C8Ac00
	BorderColor #333333
	BackgroundColor #333333-#333333
	BorderThickness 2
	StereotypeFontColor #303030
}


skinparam rectangle {
		FontColor #C8Ac00
	BorderColor #333333
	BackgroundColor #333333-#333333
	BackgroundColor #333333
	BorderThickness 2
	StereotypeFontColor #303030
}


skinparam package {
		FontColor #C8Ac00
	BorderColor #333333
	BackgroundColor #333333-#333333
	BackgroundColor #333333
	BorderThickness 2
}


skinparam folder {
	BackgroundColor #6d6d6d
  	BorderColor #ff8000
	FontColor #ff8000
	BorderThickness 2
}


skinparam frame {
	BackgroundColor #6d6d6d
  	BorderColor #0060a8
	FontColor #0060a8
	BorderThickness 2
}


skinparam state {
		FontColor #C8Ac00
	BorderColor #333333
	BackgroundColor #333333-#333333
	StartColor #0060a8
	EndColor #0060a8
	AttributeFontColor #fefefe
	AttributeFontSize 11
}


skinparam queue {
		FontColor #C8Ac00
	BorderColor #333333
	BackgroundColor #333333-#333333
}


skinparam card {
	BackgroundColor #0060a8
	BorderColor #004d86
	FontColor $INFO_TEXT
}


skinparam file {
	BackgroundColor #6d6d6d-#484848
	BorderColor #0060a8
	FontColor #fefefe
}


skinparam stack {
		FontColor #C8Ac00
	BorderColor #333333
	BackgroundColor #333333-#333333
}

    
    title "org.apache.wicket.serialize.java"
    
    interface ISerializer
    
    ObjectInputStream <|- - JavaSerializer.ClassResolverObjectInputStream
    class JavaSerializer.ClassResolverObjectInputStream
    {
        - -(constructors)- -
        +ClassResolverObjectInputStream(InputStream)
    }
    
    JavaSerializer <|- - DeflatedJavaSerializer
    class DeflatedJavaSerializer
    {
        - -(constructors)- -
        +DeflatedJavaSerializer(String)
        - -
        #Deflater createDeflater()
    }
    
    ISerializer <|- - JavaSerializer
    class JavaSerializer
    {
        - -(constructors)- -
        +JavaSerializer(String)
        - -(factory)- -
        #ObjectInputStream newObjectInputStream(InputStream)
        #ObjectOutputStream newObjectOutputStream(OutputStream)
    }
    
    ObjectOutputStream <|- - JavaSerializer.SerializationCheckerObjectOutputStream
    class JavaSerializer.SerializationCheckerObjectOutputStream
    {
    }
    
@enduml

PlantUML version 1.2021.01(Tue Feb 02 00:55:08 MST 2021)
(GPL source distribution)
Java Runtime: Java(TM) SE Runtime Environment
JVM: Java HotSpot(TM) 64-Bit Server VM
Default Encoding: UTF-8
Language: en
Country: US
--></g></svg>