<?xml version="1.0" encoding="UTF-8" standalone="no"?><svg xmlns="http://www.w3.org/2000/svg" xmlns:xlink="http://www.w3.org/1999/xlink" contentScriptType="application/ecmascript" contentStyleType="text/css" height="317.7083px" preserveAspectRatio="none" style="width:650px;height:317px;background:#333333;" version="1.1" viewBox="0 0 650 317" width="650px" zoomAndPan="magnify"><defs/><g><rect fill="#48494B" height="41.2028" rx="8.3333" ry="8.3333" style="stroke:#545454;stroke-width:1.0416666666666667;" width="300" x="167.9688" y="2.0833"/><text fill="#C0C0C0" font-family="Open Sans,Avenir,Nunito,Arial,Helvetica,SansSerif" font-size="20.8333" lengthAdjust="spacing" textLength="277.0833" x="179.4271" y="30.5583">org.apache.wicket.response</text><!--MD5=[62ba8ad8b61caf20139235a169a8c31d]
class Response--><rect fill="#282828" height="48.055" id="Response" rx="8.3333" ry="8.3333" style="stroke:#5E5E5E;stroke-width:1.0416666666666667;" width="100" x="289.0625" y="53.7028"/><rect fill="#1B1B1A" height="31.3883" rx="8.3333" ry="8.3333" style="stroke:#1B1B1A;stroke-width:1.0416666666666667;" width="100" x="289.0625" y="53.7028"/><rect fill="#1B1B1A" height="8.3333" style="stroke:#1B1B1A;stroke-width:1.0416666666666667;" width="100" x="289.0625" y="76.7578"/><rect fill="none" height="48.055" id="Response" rx="8.3333" ry="8.3333" style="stroke:#5E5E5E;stroke-width:1.0416666666666667;" width="100" x="289.0625" y="53.7028"/><ellipse cx="303.6458" cy="69.397" fill="#0066CF" rx="10.4167" ry="10.4167" style="stroke:#0086EF;stroke-width:1.0416666666666667;"/><path d="M305.5562,73.822 Q305.129,74.0417 304.659,74.1516 Q304.189,74.2615 303.6702,74.2615 Q301.827,74.2615 300.8565,73.0469 Q299.8861,71.8323 299.8861,69.5374 Q299.8861,67.2363 300.8565,66.0217 Q301.827,64.8071 303.6702,64.8071 Q304.189,64.8071 304.6651,64.917 Q305.1412,65.0269 305.5562,65.2466 L305.5562,67.2485 Q305.0924,66.8213 304.656,66.6229 Q304.2196,66.4246 303.7557,66.4246 Q302.7669,66.4246 302.2634,67.2089 Q301.7598,67.9932 301.7598,69.5374 Q301.7598,71.0754 302.2634,71.8597 Q302.7669,72.644 303.7557,72.644 Q304.2196,72.644 304.656,72.4457 Q305.0924,72.2473 305.5562,71.8201 Z " fill="#000000"/><text fill="#D8BC00" font-family="Open Sans,Avenir,Nunito,Arial,Helvetica,SansSerif" font-size="12.5" font-weight="bold" lengthAdjust="spacing" textLength="62.5" x="320.3125" y="74.1211">Response</text><line style="stroke:#5E5E5E;stroke-width:1.0416666666666667;" x1="290.1042" x2="388.0208" y1="85.0911" y2="85.0911"/><line style="stroke:#5E5E5E;stroke-width:1.0416666666666667;" x1="290.1042" x2="388.0208" y1="93.4245" y2="93.4245"/><!--MD5=[081e9a58824b246335836cc9d04a6e5d]
class ByteArrayResponse--><rect codeLine="7" fill="#282828" height="146.7794" id="ByteArrayResponse" rx="8.3333" ry="8.3333" style="stroke:#5E5E5E;stroke-width:1.0416666666666667;" width="203.125" x="7.2917" y="164.1195"/><rect fill="#1B1B1A" height="31.3883" rx="8.3333" ry="8.3333" style="stroke:#1B1B1A;stroke-width:1.0416666666666667;" width="203.125" x="7.2917" y="164.1195"/><rect fill="#1B1B1A" height="8.3333" style="stroke:#1B1B1A;stroke-width:1.0416666666666667;" width="203.125" x="7.2917" y="187.1745"/><rect codeLine="7" fill="none" height="146.7794" id="ByteArrayResponse" rx="8.3333" ry="8.3333" style="stroke:#5E5E5E;stroke-width:1.0416666666666667;" width="203.125" x="7.2917" y="164.1195"/><ellipse cx="40.1563" cy="179.8136" fill="#0066CF" rx="10.4167" ry="10.4167" style="stroke:#0086EF;stroke-width:1.0416666666666667;"/><path d="M42.0667,184.2387 Q41.6394,184.4584 41.1694,184.5683 Q40.6995,184.6781 40.1807,184.6781 Q38.3374,184.6781 37.3669,183.4635 Q36.3965,182.2489 36.3965,179.954 Q36.3965,177.653 37.3669,176.4384 Q38.3374,175.2238 40.1807,175.2238 Q40.6995,175.2238 41.1755,175.3337 Q41.6516,175.4435 42.0667,175.6632 L42.0667,177.6652 Q41.6028,177.238 41.1664,177.0396 Q40.73,176.8412 40.2661,176.8412 Q39.2773,176.8412 38.7738,177.6255 Q38.2703,178.4098 38.2703,179.954 Q38.2703,181.4921 38.7738,182.2764 Q39.2773,183.0607 40.2661,183.0607 Q40.73,183.0607 41.1664,182.8623 Q41.6028,182.664 42.0667,182.2367 Z " fill="#000000"/><text fill="#D8BC00" font-family="Open Sans,Avenir,Nunito,Arial,Helvetica,SansSerif" font-size="12.5" font-weight="bold" lengthAdjust="spacing" textLength="125" x="60.8854" y="184.5378">ByteArrayResponse</text><line style="stroke:#5E5E5E;stroke-width:1.5625;" x1="8.3333" x2="209.375" y1="195.5078" y2="195.5078"/><ellipse cx="18.75" cy="230.8777" fill="#84BE84" rx="3.125" ry="3.125" style="stroke:#038048;stroke-width:1.0416666666666667;"/><text fill="#D8BC00" font-family="Open Sans,Avenir,Nunito,Arial,Helvetica,SansSerif" font-size="11.4583" lengthAdjust="spacing" textLength="116.6667" x="30.2083" y="237.7889">ByteArrayResponse()</text><ellipse cx="18.75" cy="250.6226" fill="#84BE84" rx="3.125" ry="3.125" style="stroke:#038048;stroke-width:1.0416666666666667;"/><text fill="#D8BC00" font-family="Open Sans,Avenir,Nunito,Arial,Helvetica,SansSerif" font-size="11.4583" lengthAdjust="spacing" textLength="170.8333" x="30.2083" y="257.5338">ByteArrayResponse(Response)</text><line style="stroke:#5E5E5E;stroke-width:1.0416666666666667;" x1="8.3333" x2="65.1042" y1="213.7136" y2="213.7136"/><text fill="#D8BC00" font-family="Open Sans,Avenir,Nunito,Arial,Helvetica,SansSerif" font-size="11.4583" lengthAdjust="spacing" textLength="81.25" x="68.2292" y="217.5232">(constructors)</text><line style="stroke:#5E5E5E;stroke-width:1.0416666666666667;" x1="152.6042" x2="209.375" y1="213.7136" y2="213.7136"/><ellipse cx="18.75" cy="294.279" fill="#84BE84" rx="3.125" ry="3.125" style="stroke:#038048;stroke-width:1.0416666666666667;"/><text fill="#D8BC00" font-family="Open Sans,Avenir,Nunito,Arial,Helvetica,SansSerif" font-size="11.4583" lengthAdjust="spacing" textLength="90.625" x="30.2083" y="301.1902">byte[] getBytes()</text><line style="stroke:#5E5E5E;stroke-width:1.0416666666666667;" x1="8.3333" x2="77.0833" y1="277.1149" y2="277.1149"/><text fill="#D8BC00" font-family="Open Sans,Avenir,Nunito,Arial,Helvetica,SansSerif" font-size="11.4583" lengthAdjust="spacing" textLength="57.2917" x="80.2083" y="280.9245">(primitive)</text><line style="stroke:#5E5E5E;stroke-width:1.0416666666666667;" x1="140.625" x2="209.375" y1="277.1149" y2="277.1149"/><!--MD5=[8dce999144de45709ef1e1b75e5f1afe]
class NullResponse--><rect codeLine="17" fill="#282828" height="67.7999" id="NullResponse" rx="8.3333" ry="8.3333" style="stroke:#5E5E5E;stroke-width:1.0416666666666667;" width="184.375" x="246.875" y="203.7028"/><rect fill="#1B1B1A" height="31.3883" rx="8.3333" ry="8.3333" style="stroke:#1B1B1A;stroke-width:1.0416666666666667;" width="184.375" x="246.875" y="203.7028"/><rect fill="#1B1B1A" height="8.3333" style="stroke:#1B1B1A;stroke-width:1.0416666666666667;" width="184.375" x="246.875" y="226.7578"/><rect codeLine="17" fill="none" height="67.7999" id="NullResponse" rx="8.3333" ry="8.3333" style="stroke:#5E5E5E;stroke-width:1.0416666666666667;" width="184.375" x="246.875" y="203.7028"/><ellipse cx="287.7083" cy="219.397" fill="#0066CF" rx="10.4167" ry="10.4167" style="stroke:#0086EF;stroke-width:1.0416666666666667;"/><path d="M289.6187,223.822 Q289.1915,224.0417 288.7215,224.1516 Q288.2515,224.2615 287.7327,224.2615 Q285.8895,224.2615 284.919,223.0469 Q283.9486,221.8323 283.9486,219.5374 Q283.9486,217.2363 284.919,216.0217 Q285.8895,214.8071 287.7327,214.8071 Q288.2515,214.8071 288.7276,214.917 Q289.2037,215.0269 289.6187,215.2466 L289.6187,217.2485 Q289.1549,216.8213 288.7185,216.6229 Q288.2821,216.4246 287.8182,216.4246 Q286.8294,216.4246 286.3259,217.2089 Q285.8223,217.9932 285.8223,219.5374 Q285.8223,221.0754 286.3259,221.8597 Q286.8294,222.644 287.8182,222.644 Q288.2821,222.644 288.7185,222.4457 Q289.1549,222.2473 289.6187,221.8201 Z " fill="#000000"/><text fill="#D8BC00" font-family="Open Sans,Avenir,Nunito,Arial,Helvetica,SansSerif" font-size="12.5" font-weight="bold" lengthAdjust="spacing" textLength="88.5417" x="310.2083" y="224.1211">NullResponse</text><line style="stroke:#5E5E5E;stroke-width:1.5625;" x1="247.9167" x2="430.2083" y1="235.0911" y2="235.0911"/><line style="stroke:#5E5E5E;stroke-width:1.0416666666666667;" x1="247.9167" x2="430.2083" y1="243.4245" y2="243.4245"/><ellipse cx="258.3333" cy="254.8828" fill="#84BE84" rx="3.125" ry="3.125" style="stroke:#038048;stroke-width:1.0416666666666667;"/><text fill="#D8BC00" font-family="Open Sans,Avenir,Nunito,Arial,Helvetica,SansSerif" font-size="11.4583" lengthAdjust="spacing" textLength="152.0833" x="269.7917" y="261.794">NullResponse getInstance()</text><!--MD5=[22b55812f31aff39ea1dfd8ef072ef3b]
class StringResponse--><rect codeLine="24" fill="#282828" height="127.0345" id="StringResponse" rx="8.3333" ry="8.3333" style="stroke:#5E5E5E;stroke-width:1.0416666666666667;" width="175" x="468.2292" y="174.0153"/><rect fill="#1B1B1A" height="31.3883" rx="8.3333" ry="8.3333" style="stroke:#1B1B1A;stroke-width:1.0416666666666667;" width="175" x="468.2292" y="174.0153"/><rect fill="#1B1B1A" height="8.3333" style="stroke:#1B1B1A;stroke-width:1.0416666666666667;" width="175" x="468.2292" y="197.0703"/><rect codeLine="24" fill="none" height="127.0345" id="StringResponse" rx="8.3333" ry="8.3333" style="stroke:#5E5E5E;stroke-width:1.0416666666666667;" width="175" x="468.2292" y="174.0153"/><ellipse cx="499.2188" cy="189.7095" fill="#0066CF" rx="10.4167" ry="10.4167" style="stroke:#0086EF;stroke-width:1.0416666666666667;"/><path d="M501.1292,194.1345 Q500.7019,194.3542 500.2319,194.4641 Q499.762,194.574 499.2432,194.574 Q497.3999,194.574 496.4294,193.3594 Q495.459,192.1448 495.459,189.8499 Q495.459,187.5488 496.4294,186.3342 Q497.3999,185.1196 499.2432,185.1196 Q499.762,185.1196 500.238,185.2295 Q500.7141,185.3394 501.1292,185.5591 L501.1292,187.561 Q500.6653,187.1338 500.2289,186.9354 Q499.7925,186.7371 499.3286,186.7371 Q498.3398,186.7371 497.8363,187.5214 Q497.3328,188.3057 497.3328,189.8499 Q497.3328,191.3879 497.8363,192.1722 Q498.3398,192.9565 499.3286,192.9565 Q499.7925,192.9565 500.2289,192.7582 Q500.6653,192.5598 501.1292,192.1326 Z " fill="#000000"/><text fill="#D8BC00" font-family="Open Sans,Avenir,Nunito,Arial,Helvetica,SansSerif" font-size="12.5" font-weight="bold" lengthAdjust="spacing" textLength="101.0417" x="519.5313" y="194.4336">StringResponse</text><line style="stroke:#5E5E5E;stroke-width:1.5625;" x1="469.2708" x2="642.1875" y1="205.4036" y2="205.4036"/><ellipse cx="479.6875" cy="240.7735" fill="#84BE84" rx="3.125" ry="3.125" style="stroke:#038048;stroke-width:1.0416666666666667;"/><text fill="#D8BC00" font-family="Open Sans,Avenir,Nunito,Arial,Helvetica,SansSerif" font-size="11.4583" lengthAdjust="spacing" textLength="95.8333" x="491.1458" y="247.6847">StringResponse()</text><line style="stroke:#5E5E5E;stroke-width:1.0416666666666667;" x1="469.2708" x2="511.9792" y1="223.6094" y2="223.6094"/><text fill="#D8BC00" font-family="Open Sans,Avenir,Nunito,Arial,Helvetica,SansSerif" font-size="11.4583" lengthAdjust="spacing" textLength="81.25" x="515.1042" y="227.419">(constructors)</text><line style="stroke:#5E5E5E;stroke-width:1.0416666666666667;" x1="599.4792" x2="642.1875" y1="223.6094" y2="223.6094"/><ellipse cx="479.6875" cy="284.4299" fill="#84BE84" rx="3.125" ry="3.125" style="stroke:#038048;stroke-width:1.0416666666666667;"/><text fill="#D8BC00" font-family="Open Sans,Avenir,Nunito,Arial,Helvetica,SansSerif" font-size="11.4583" lengthAdjust="spacing" textLength="142.7083" x="491.1458" y="291.3411">CharSequence getBuffer()</text><line style="stroke:#5E5E5E;stroke-width:1.0416666666666667;" x1="469.2708" x2="523.9583" y1="267.2658" y2="267.2658"/><text fill="#D8BC00" font-family="Open Sans,Avenir,Nunito,Arial,Helvetica,SansSerif" font-size="11.4583" lengthAdjust="spacing" textLength="57.2917" x="527.0833" y="271.0754">(primitive)</text><line style="stroke:#5E5E5E;stroke-width:1.0416666666666667;" x1="587.5" x2="642.1875" y1="267.2658" y2="267.2658"/><!--MD5=[a883f56606aeb446563e26e8f745a64e]
reverse link Response to ByteArrayResponse--><path codeLine="6" d="M288.0833,113.6507 C265.25,129.2965 237.4896,148.3382 210.6875,166.7028 " fill="none" id="Response-backto-ByteArrayResponse" style="stroke:#545454;stroke-width:1.5625;"/><polygon fill="none" points="284.2813,107.4111,305.5833,101.6507,292.5313,119.4424,284.2813,107.4111" style="stroke:#545454;stroke-width:1.5625;"/><!--MD5=[cfe407a56aa2c58dc0a5c6878e85862c]
reverse link Response to NullResponse--><path codeLine="16" d="M339.0625,122.6507 C339.0625,148.3174 339.0625,180.1715 339.0625,203.6507 " fill="none" id="Response-backto-NullResponse" style="stroke:#545454;stroke-width:1.5625;"/><polygon fill="none" points="331.7708,122.484,339.0625,101.6507,346.3542,122.484,331.7708,122.484" style="stroke:#545454;stroke-width:1.5625;"/><!--MD5=[f5a7b2c67a781f0757c0dac61a286c28]
reverse link Response to StringResponse--><path codeLine="23" d="M387.4688,113.9632 C411.7396,131.6403 441.8646,153.5778 469.8854,173.9945 " fill="none" id="Response-backto-StringResponse" style="stroke:#545454;stroke-width:1.5625;"/><polygon fill="none" points="383.1146,119.807,370.5625,101.6507,391.6979,108.0257,383.1146,119.807" style="stroke:#545454;stroke-width:1.5625;"/><!--MD5=[c5d25168e45e20f51b9db01cef0eaef9]
@startuml

    !include lexakai.theme
    
    title "org.apache.wicket.response"
    
    Response <|- - ByteArrayResponse
    class ByteArrayResponse
    {
        - -(constructors)- -
        +ByteArrayResponse()
        +ByteArrayResponse(Response)
        - -(primitive)- -
        +byte[] getBytes()
    }
    
    Response <|- - NullResponse
    class NullResponse
    {
        - -
        +NullResponse getInstance()
    }
    
    Response <|- - StringResponse
    class StringResponse
    {
        - -(constructors)- -
        +StringResponse()
        - -(primitive)- -
        +CharSequence getBuffer()
    }
    
@enduml

@startuml









skinparam backgroundColor #333333






skinparam  {
    defaultFontName   "Open Sans,Avenir,Nunito,Arial,Helvetica,SansSerif"
    defaultFontSize   12
    defaultTextAlignment left
    shadowing false
    RoundCorner 10
    TitleFontSize 18
}

skinparam defaultFontName       "Open Sans,Avenir,Nunito,Arial,Helvetica,SansSerif"
skinparam defaultFontSize       12
skinparam dpi                   100
skinparam shadowing             false
skinparam roundcorner           16
skinparam ParticipantPadding    40
skinparam BoxPadding            40
skinparam Padding               3
skinparam ArrowColor            #545454
skinparam stereotype {
    CBackgroundColor #0066cf
    CBorderColor #0086ef
    ABackgroundColor #C8Ac00
    ABorderColor #D8Bc00
    IBackgroundColor #008400
    IBorderColor #239c23
    EBackgroundColor #cf6300
    EBorderColor #ef8300
    NBackgroundColor #3380b9
    NBorderColor #004d86
}
skinparam title {
	FontColor	                 #c0c0c0
 	BorderColor                  #545454
	FontSize	    	         20
	BorderRoundCorner            16
	BorderThickness 	         1
	BackgroundColor              #48494b
}


skinparam legend {
	BackgroundColor #303030
	BorderColor #404040
	FontColor #a0a0a0
}

	skinparam swimlane {
	BorderColor #5e5e5e
	BorderThickness 2
	TitleBackgroundColor  #6d6d6d-#484848
	TitleFontColor #303030
}

skinparam activity {
		FontColor #C8Ac00
	BorderColor #333333
	BackgroundColor #333333-#333333
	BarColor #00FF00
	StartColor #0060a8
	EndColor #0060a8
	DiamondBackgroundColor #6d6d6d-#3a3a3a
  	DiamondBorderColor #3a3a3a
  	DiamondFontColor #fefefe
}


skinparam participant {
		FontColor #C8Ac00
	BorderColor #333333
	BackgroundColor #333333-#333333
	ParticipantBorderThickness 2
}


skinparam actor {
		FontColor #C8Ac00
	BorderColor #333333
	BackgroundColor #333333-#333333
}


skinparam arrow {
	Thickness 1.5
	Color #545454
	FontColor #a0a0a0
    FontStyle bold
    MessageAlignment center
}



skinparam sequence {
	BorderColor #303030
	TitleFontColor #303030
	BackgroundColor #333333
	StartColor #303030
	EndColor #303030
	BoxBackgroundColor #333333
	BoxBorderColor #484848
	BoxFontColor #484848
	LifeLineBorderColor #484848
	LifeLineBorderThickness 2
	LifeLineBackgroundColor #3a3a3a
	GroupBorderColor #484848
	GroupFontColor #484848
	GroupHeaderFontColor #0060a8
	GroupBackgroundColor #484848
	GroupHeaderBackgroundColor #333333
	DividerBackgroundColor #484848
    DividerBorderColor #484848
    DividerBorderThickness 2
    DividerFontColor #D8Bc00
	ReferenceBackgroundColor #333333
	ReferenceBorderColor #484848
	ReferenceFontColor #fefefe
	ReferenceHeaderBackgroundColor #484848
}


skinparam partition {
	BorderColor #303030
	FontColor #333333
	BackgroundColor #333333
}


skinparam collections {
		FontColor #C8Ac00
	BorderColor #333333
	BackgroundColor #333333-#333333
}


skinparam control {
		FontColor #C8Ac00
	BorderColor #333333
	BackgroundColor #333333-#333333
}


skinparam entity {
		FontColor #C8Ac00
	BorderColor #333333
	BackgroundColor #333333-#333333
}


skinparam boundary {
		FontColor #C8Ac00
	BorderColor #333333
	BackgroundColor #333333-#333333
}


skinparam agent {
	BackgroundColor #ff8000
	BorderColor #ff9933
	FontColor #484848
}


skinparam note {
	BorderThickness 1
	BackgroundColor #1b1b1a
	BorderColor #5e5e5e
	FontSize 11
	FontColor #a0a0a0
}


skinparam artifact {
	BorderThickness 10
	BorderColor #5e5e5e
	BackgroundColor #1b1b1a
	FontColor #D8Bc00
}


skinparam component {
		FontColor #C8Ac00
	BorderColor #333333
	BackgroundColor #333333-#333333
}


skinparam interface {
	BackgroundColor  #008400
	BorderColor  #007F00
	FontColor #484848
}


skinparam storage {
	BackgroundColor #ff8000
  	BorderColor #cc6600
	FontColor #222222
}


skinparam node {
	BackgroundColor #333333
	BorderColor #333333
	FontColor #C8Ac00
}


skinparam cloud {
	BackgroundColor #484848-black
	BorderColor #484848
	FontColor #D8Bc00
}


skinparam database {
		FontColor #C8Ac00
	BorderColor #333333
	BackgroundColor #333333-#333333
	BackgroundColor  #333333
}


skinparam class {
		FontColor #C8Ac00
	BorderColor #333333
	BackgroundColor #333333-#333333
	HeaderBackgroundColor #1b1b1a
    BackgroundColor #282828
    BorderColor #5e5e5e
 	StereotypeFontColor #a0a0a0
    StereotypeFontStyle bold
	BorderThickness 1
	AttributeFontColor #D8Bc00
	AttributeFontSize 11
    FontColor #D8Bc00
    FontStyle bold
}


skinparam object {
		FontColor #C8Ac00
	BorderColor #333333
	BackgroundColor #333333-#333333
	StereotypeFontColor #484848
	BorderThickness 1
	AttributeFontColor #fefefe
	AttributeFontSize 11
}


skinparam usecase {
		FontColor #C8Ac00
	BorderColor #333333
	BackgroundColor #333333-#333333
	BorderThickness 2
	StereotypeFontColor #303030
}


skinparam rectangle {
		FontColor #C8Ac00
	BorderColor #333333
	BackgroundColor #333333-#333333
	BackgroundColor #333333
	BorderThickness 2
	StereotypeFontColor #303030
}


skinparam package {
		FontColor #C8Ac00
	BorderColor #333333
	BackgroundColor #333333-#333333
	BackgroundColor #333333
	BorderThickness 2
}


skinparam folder {
	BackgroundColor #6d6d6d
  	BorderColor #ff8000
	FontColor #ff8000
	BorderThickness 2
}


skinparam frame {
	BackgroundColor #6d6d6d
  	BorderColor #0060a8
	FontColor #0060a8
	BorderThickness 2
}


skinparam state {
		FontColor #C8Ac00
	BorderColor #333333
	BackgroundColor #333333-#333333
	StartColor #0060a8
	EndColor #0060a8
	AttributeFontColor #fefefe
	AttributeFontSize 11
}


skinparam queue {
		FontColor #C8Ac00
	BorderColor #333333
	BackgroundColor #333333-#333333
}


skinparam card {
	BackgroundColor #0060a8
	BorderColor #004d86
	FontColor $INFO_TEXT
}


skinparam file {
	BackgroundColor #6d6d6d-#484848
	BorderColor #0060a8
	FontColor #fefefe
}


skinparam stack {
		FontColor #C8Ac00
	BorderColor #333333
	BackgroundColor #333333-#333333
}

    
    title "org.apache.wicket.response"
    
    Response <|- - ByteArrayResponse
    class ByteArrayResponse
    {
        - -(constructors)- -
        +ByteArrayResponse()
        +ByteArrayResponse(Response)
        - -(primitive)- -
        +byte[] getBytes()
    }
    
    Response <|- - NullResponse
    class NullResponse
    {
        - -
        +NullResponse getInstance()
    }
    
    Response <|- - StringResponse
    class StringResponse
    {
        - -(constructors)- -
        +StringResponse()
        - -(primitive)- -
        +CharSequence getBuffer()
    }
    
@enduml

PlantUML version 1.2021.01(Tue Feb 02 00:55:08 MST 2021)
(GPL source distribution)
Java Runtime: Java(TM) SE Runtime Environment
JVM: Java HotSpot(TM) 64-Bit Server VM
Default Encoding: UTF-8
Language: en
Country: US
--></g></svg>