<?xml version="1.0" encoding="UTF-8" standalone="no"?><svg xmlns="http://www.w3.org/2000/svg" xmlns:xlink="http://www.w3.org/1999/xlink" contentScriptType="application/ecmascript" contentStyleType="text/css" height="419.7917px" preserveAspectRatio="none" style="width:773px;height:419px;background:#333333;" version="1.1" viewBox="0 0 773 419" width="773.9583px" zoomAndPan="magnify"><defs/><g><rect fill="#48494B" height="41.2028" rx="8.3333" ry="8.3333" style="stroke:#545454;stroke-width:1.0416666666666667;" width="311.4583" x="223.9583" y="2.0833"/><text fill="#C0C0C0" font-family="Open Sans,Avenir,Nunito,Arial,Helvetica,SansSerif" font-size="20.8333" lengthAdjust="spacing" textLength="288.5417" x="235.4167" y="30.5583">org.apache.wicket.model.util</text><!--MD5=[37aca779a76f8195ec13226aa005912e]
class IObjectClassAwareModel--><rect codeLine="6" fill="#282828" height="48.055" id="IObjectClassAwareModel" rx="8.3333" ry="8.3333" style="stroke:#5E5E5E;stroke-width:1.0416666666666667;" width="197.9167" x="319.7917" y="53.7028"/><rect fill="#1B1B1A" height="31.3883" rx="8.3333" ry="8.3333" style="stroke:#1B1B1A;stroke-width:1.0416666666666667;" width="197.9167" x="319.7917" y="53.7028"/><rect fill="#1B1B1A" height="8.3333" style="stroke:#1B1B1A;stroke-width:1.0416666666666667;" width="197.9167" x="319.7917" y="76.7578"/><rect codeLine="6" fill="none" height="48.055" id="IObjectClassAwareModel" rx="8.3333" ry="8.3333" style="stroke:#5E5E5E;stroke-width:1.0416666666666667;" width="197.9167" x="319.7917" y="53.7028"/><ellipse cx="334.375" cy="69.397" fill="#008400" rx="10.4167" ry="10.4167" style="stroke:#239C23;stroke-width:1.0416666666666667;"/><path d="M331.779,66.5588 L331.779,64.9719 L337.205,64.9719 L337.205,66.5588 L335.3923,66.5588 L335.3923,72.4976 L337.205,72.4976 L337.205,74.0845 L331.779,74.0845 L331.779,72.4976 L333.5917,72.4976 L333.5917,66.5588 Z " fill="#000000"/><text fill="#D8BC00" font-family="Open Sans,Avenir,Nunito,Arial,Helvetica,SansSerif" font-size="12.5" font-style="italic" font-weight="bold" lengthAdjust="spacing" textLength="160.4167" x="351.0417" y="74.1211">IObjectClassAwareModel</text><line style="stroke:#5E5E5E;stroke-width:1.0416666666666667;" x1="320.8333" x2="516.6667" y1="85.0911" y2="85.0911"/><line style="stroke:#5E5E5E;stroke-width:1.0416666666666667;" x1="320.8333" x2="516.6667" y1="93.4245" y2="93.4245"/><!--MD5=[3184c853ee75871fbc8acfbc305db36b]
class GenericBaseModel--><rect codeLine="17" fill="#282828" height="83.3781" id="GenericBaseModel" rx="8.3333" ry="8.3333" style="stroke:#5E5E5E;stroke-width:1.0416666666666667;" width="248.9583" x="294.2708" y="164.1195"/><rect fill="#1B1B1A" height="31.3883" rx="8.3333" ry="8.3333" style="stroke:#1B1B1A;stroke-width:1.0416666666666667;" width="248.9583" x="294.2708" y="164.1195"/><rect fill="#1B1B1A" height="8.3333" style="stroke:#1B1B1A;stroke-width:1.0416666666666667;" width="248.9583" x="294.2708" y="187.1745"/><rect codeLine="17" fill="none" height="83.3781" id="GenericBaseModel" rx="8.3333" ry="8.3333" style="stroke:#5E5E5E;stroke-width:1.0416666666666667;" width="248.9583" x="294.2708" y="164.1195"/><ellipse cx="343.2292" cy="179.8136" fill="#C8AC00" rx="10.4167" ry="10.4167" style="stroke:#D8BC00;stroke-width:1.0416666666666667;"/><path d="M342.8223,176.5157 L341.9739,180.245 L343.6768,180.245 Z M341.7236,174.8678 L343.927,174.8678 L346.3867,183.9803 L344.5862,183.9803 L344.0247,181.7281 L341.6138,181.7281 L341.0645,183.9803 L339.2639,183.9803 Z " fill="#000000"/><text fill="#D8BC00" font-family="Open Sans,Avenir,Nunito,Arial,Helvetica,SansSerif" font-size="12.5" font-style="italic" font-weight="bold" lengthAdjust="spacing" textLength="117.7083" x="366.1458" y="184.5378">GenericBaseModel</text><rect fill="#333333" height="23.055" style="stroke:#A0A0A0;stroke-width:1.0416666666666667;stroke-dasharray:2.0,2.0;" width="16.6667" x="529.6875" y="160.9945"/><text fill="#A0A0A0" font-family="Open Sans,Avenir,Nunito,Arial,Helvetica,SansSerif" font-size="12.5" font-weight="bold" lengthAdjust="spacing" textLength="8.3333" x="533.8542" y="177.2461">T</text><line style="stroke:#5E5E5E;stroke-width:1.5625;" x1="295.3125" x2="542.1875" y1="195.5078" y2="195.5078"/><polygon fill="#FFFF44" points="305.7292,225.6694,309.8958,229.836,305.7292,234.0027,301.5625,229.836" style="stroke:#B38D22;stroke-width:1.0416666666666667;"/><text fill="#D8BC00" font-family="Open Sans,Avenir,Nunito,Arial,Helvetica,SansSerif" font-size="11.4583" lengthAdjust="spacing" textLength="216.6667" x="317.1875" y="237.7889">T createSerializableVersionOf(T object)</text><line style="stroke:#5E5E5E;stroke-width:1.0416666666666667;" x1="295.3125" x2="390.625" y1="213.7136" y2="213.7136"/><text fill="#D8BC00" font-family="Open Sans,Avenir,Nunito,Arial,Helvetica,SansSerif" font-size="11.4583" lengthAdjust="spacing" textLength="50" x="393.75" y="217.5232">(identity)</text><line style="stroke:#5E5E5E;stroke-width:1.0416666666666667;" x1="446.875" x2="542.1875" y1="213.7136" y2="213.7136"/><!--MD5=[4f42c0d4fd583403f2cc0b43e1f9df5f]
class CollectionModel--><rect codeLine="9" fill="#282828" height="103.123" id="CollectionModel" rx="8.3333" ry="8.3333" style="stroke:#5E5E5E;stroke-width:1.0416666666666667;" width="212.5" x="7.2917" y="309.9528"/><rect fill="#1B1B1A" height="31.3883" rx="8.3333" ry="8.3333" style="stroke:#1B1B1A;stroke-width:1.0416666666666667;" width="212.5" x="7.2917" y="309.9528"/><rect fill="#1B1B1A" height="8.3333" style="stroke:#1B1B1A;stroke-width:1.0416666666666667;" width="212.5" x="7.2917" y="333.0078"/><rect codeLine="9" fill="none" height="103.123" id="CollectionModel" rx="8.3333" ry="8.3333" style="stroke:#5E5E5E;stroke-width:1.0416666666666667;" width="212.5" x="7.2917" y="309.9528"/><ellipse cx="44.8438" cy="325.647" fill="#0066CF" rx="10.4167" ry="10.4167" style="stroke:#0086EF;stroke-width:1.0416666666666667;"/><path d="M46.7542,330.072 Q46.3269,330.2917 45.8569,330.4016 Q45.387,330.5115 44.8682,330.5115 Q43.0249,330.5115 42.0544,329.2969 Q41.084,328.0823 41.084,325.7874 Q41.084,323.4863 42.0544,322.2717 Q43.0249,321.0571 44.8682,321.0571 Q45.387,321.0571 45.863,321.167 Q46.3391,321.2769 46.7542,321.4966 L46.7542,323.4985 Q46.2903,323.0713 45.8539,322.8729 Q45.4175,322.6746 44.9536,322.6746 Q43.9648,322.6746 43.4613,323.4589 Q42.9578,324.2432 42.9578,325.7874 Q42.9578,327.3254 43.4613,328.1097 Q43.9648,328.894 44.9536,328.894 Q45.4175,328.894 45.8539,328.6957 Q46.2903,328.4973 46.7542,328.0701 Z " fill="#000000"/><text fill="#D8BC00" font-family="Open Sans,Avenir,Nunito,Arial,Helvetica,SansSerif" font-size="12.5" font-weight="bold" lengthAdjust="spacing" textLength="105.2083" x="66.6146" y="330.3711">CollectionModel</text><rect fill="#333333" height="23.055" style="stroke:#A0A0A0;stroke-width:1.0416666666666667;stroke-dasharray:2.0,2.0;" width="16.6667" x="206.25" y="306.8278"/><text fill="#A0A0A0" font-family="Open Sans,Avenir,Nunito,Arial,Helvetica,SansSerif" font-size="12.5" font-weight="bold" lengthAdjust="spacing" textLength="8.3333" x="210.4167" y="323.0794">T</text><line style="stroke:#5E5E5E;stroke-width:1.5625;" x1="8.3333" x2="218.75" y1="341.3411" y2="341.3411"/><ellipse cx="18.75" cy="376.711" fill="#84BE84" rx="3.125" ry="3.125" style="stroke:#038048;stroke-width:1.0416666666666667;"/><text fill="#D8BC00" font-family="Open Sans,Avenir,Nunito,Arial,Helvetica,SansSerif" font-size="11.4583" lengthAdjust="spacing" textLength="97.9167" x="30.2083" y="383.6222">CollectionModel()</text><ellipse cx="18.75" cy="396.4559" fill="#84BE84" rx="3.125" ry="3.125" style="stroke:#038048;stroke-width:1.0416666666666667;"/><text fill="#D8BC00" font-family="Open Sans,Avenir,Nunito,Arial,Helvetica,SansSerif" font-size="11.4583" lengthAdjust="spacing" textLength="180.2083" x="30.2083" y="403.3671">CollectionModel(Collection&lt;T&gt;)</text><line style="stroke:#5E5E5E;stroke-width:1.0416666666666667;" x1="8.3333" x2="69.7917" y1="359.5469" y2="359.5469"/><text fill="#D8BC00" font-family="Open Sans,Avenir,Nunito,Arial,Helvetica,SansSerif" font-size="11.4583" lengthAdjust="spacing" textLength="81.25" x="72.9167" y="363.3565">(constructors)</text><line style="stroke:#5E5E5E;stroke-width:1.0416666666666667;" x1="157.2917" x2="218.75" y1="359.5469" y2="359.5469"/><!--MD5=[51fb8b246ca106bb9260fa0a179a9135]
class ListModel--><rect codeLine="24" fill="#282828" height="103.123" id="ListModel" rx="8.3333" ry="8.3333" style="stroke:#5E5E5E;stroke-width:1.0416666666666667;" width="139.5833" x="256.25" y="309.9528"/><rect fill="#1B1B1A" height="31.3883" rx="8.3333" ry="8.3333" style="stroke:#1B1B1A;stroke-width:1.0416666666666667;" width="139.5833" x="256.25" y="309.9528"/><rect fill="#1B1B1A" height="8.3333" style="stroke:#1B1B1A;stroke-width:1.0416666666666667;" width="139.5833" x="256.25" y="333.0078"/><rect codeLine="24" fill="none" height="103.123" id="ListModel" rx="8.3333" ry="8.3333" style="stroke:#5E5E5E;stroke-width:1.0416666666666667;" width="139.5833" x="256.25" y="309.9528"/><ellipse cx="279.7396" cy="325.647" fill="#0066CF" rx="10.4167" ry="10.4167" style="stroke:#0086EF;stroke-width:1.0416666666666667;"/><path d="M281.65,330.072 Q281.2227,330.2917 280.7528,330.4016 Q280.2828,330.5115 279.764,330.5115 Q277.9207,330.5115 276.9503,329.2969 Q275.9798,328.0823 275.9798,325.7874 Q275.9798,323.4863 276.9503,322.2717 Q277.9207,321.0571 279.764,321.0571 Q280.2828,321.0571 280.7589,321.167 Q281.2349,321.2769 281.65,321.4966 L281.65,323.4985 Q281.1861,323.0713 280.7497,322.8729 Q280.3133,322.6746 279.8494,322.6746 Q278.8607,322.6746 278.3571,323.4589 Q277.8536,324.2432 277.8536,325.7874 Q277.8536,327.3254 278.3571,328.1097 Q278.8607,328.894 279.8494,328.894 Q280.3133,328.894 280.7497,328.6957 Q281.1861,328.4973 281.65,328.0701 Z " fill="#000000"/><text fill="#D8BC00" font-family="Open Sans,Avenir,Nunito,Arial,Helvetica,SansSerif" font-size="12.5" font-weight="bold" lengthAdjust="spacing" textLength="63.5417" x="298.3854" y="330.3711">ListModel</text><rect fill="#333333" height="23.055" style="stroke:#A0A0A0;stroke-width:1.0416666666666667;stroke-dasharray:2.0,2.0;" width="16.6667" x="382.2917" y="306.8278"/><text fill="#A0A0A0" font-family="Open Sans,Avenir,Nunito,Arial,Helvetica,SansSerif" font-size="12.5" font-weight="bold" lengthAdjust="spacing" textLength="8.3333" x="386.4583" y="323.0794">T</text><line style="stroke:#5E5E5E;stroke-width:1.5625;" x1="257.2917" x2="394.7917" y1="341.3411" y2="341.3411"/><ellipse cx="267.7083" cy="376.711" fill="#84BE84" rx="3.125" ry="3.125" style="stroke:#038048;stroke-width:1.0416666666666667;"/><text fill="#D8BC00" font-family="Open Sans,Avenir,Nunito,Arial,Helvetica,SansSerif" font-size="11.4583" lengthAdjust="spacing" textLength="61.4583" x="279.1667" y="383.6222">ListModel()</text><ellipse cx="267.7083" cy="396.4559" fill="#84BE84" rx="3.125" ry="3.125" style="stroke:#038048;stroke-width:1.0416666666666667;"/><text fill="#D8BC00" font-family="Open Sans,Avenir,Nunito,Arial,Helvetica,SansSerif" font-size="11.4583" lengthAdjust="spacing" textLength="107.2917" x="279.1667" y="403.3671">ListModel(List&lt;T&gt;)</text><line style="stroke:#5E5E5E;stroke-width:1.0416666666666667;" x1="257.2917" x2="282.2917" y1="359.5469" y2="359.5469"/><text fill="#D8BC00" font-family="Open Sans,Avenir,Nunito,Arial,Helvetica,SansSerif" font-size="11.4583" lengthAdjust="spacing" textLength="81.25" x="285.4167" y="363.3565">(constructors)</text><line style="stroke:#5E5E5E;stroke-width:1.0416666666666667;" x1="369.7917" x2="394.7917" y1="359.5469" y2="359.5469"/><!--MD5=[8b1b8fba941c8cb0bc2496e3f57775cc]
class MapModel--><rect codeLine="32" fill="#282828" height="103.123" id="MapModel" rx="8.3333" ry="8.3333" style="stroke:#5E5E5E;stroke-width:1.0416666666666667;" width="159.375" x="432.8125" y="309.9528"/><rect fill="#1B1B1A" height="31.3883" rx="8.3333" ry="8.3333" style="stroke:#1B1B1A;stroke-width:1.0416666666666667;" width="159.375" x="432.8125" y="309.9528"/><rect fill="#1B1B1A" height="8.3333" style="stroke:#1B1B1A;stroke-width:1.0416666666666667;" width="159.375" x="432.8125" y="333.0078"/><rect codeLine="32" fill="none" height="103.123" id="MapModel" rx="8.3333" ry="8.3333" style="stroke:#5E5E5E;stroke-width:1.0416666666666667;" width="159.375" x="432.8125" y="309.9528"/><ellipse cx="456.3021" cy="325.647" fill="#0066CF" rx="10.4167" ry="10.4167" style="stroke:#0086EF;stroke-width:1.0416666666666667;"/><path d="M458.2125,330.072 Q457.7852,330.2917 457.3153,330.4016 Q456.8453,330.5115 456.3265,330.5115 Q454.4832,330.5115 453.5128,329.2969 Q452.5423,328.0823 452.5423,325.7874 Q452.5423,323.4863 453.5128,322.2717 Q454.4832,321.0571 456.3265,321.0571 Q456.8453,321.0571 457.3214,321.167 Q457.7974,321.2769 458.2125,321.4966 L458.2125,323.4985 Q457.7486,323.0713 457.3122,322.8729 Q456.8758,322.6746 456.4119,322.6746 Q455.4232,322.6746 454.9196,323.4589 Q454.4161,324.2432 454.4161,325.7874 Q454.4161,327.3254 454.9196,328.1097 Q455.4232,328.894 456.4119,328.894 Q456.8758,328.894 457.3122,328.6957 Q457.7486,328.4973 458.2125,328.0701 Z " fill="#000000"/><text fill="#D8BC00" font-family="Open Sans,Avenir,Nunito,Arial,Helvetica,SansSerif" font-size="12.5" font-weight="bold" lengthAdjust="spacing" textLength="66.6667" x="474.9479" y="330.3711">MapModel</text><rect fill="#333333" height="23.055" style="stroke:#A0A0A0;stroke-width:1.0416666666666667;stroke-dasharray:2.0,2.0;" width="33.3333" x="561.9792" y="306.8278"/><text fill="#A0A0A0" font-family="Open Sans,Avenir,Nunito,Arial,Helvetica,SansSerif" font-size="12.5" font-weight="bold" lengthAdjust="spacing" textLength="25" x="566.1458" y="323.0794">K, V</text><line style="stroke:#5E5E5E;stroke-width:1.5625;" x1="433.8542" x2="591.1458" y1="341.3411" y2="341.3411"/><ellipse cx="444.2708" cy="376.711" fill="#84BE84" rx="3.125" ry="3.125" style="stroke:#038048;stroke-width:1.0416666666666667;"/><text fill="#D8BC00" font-family="Open Sans,Avenir,Nunito,Arial,Helvetica,SansSerif" font-size="11.4583" lengthAdjust="spacing" textLength="64.5833" x="455.7292" y="383.6222">MapModel()</text><ellipse cx="444.2708" cy="396.4559" fill="#84BE84" rx="3.125" ry="3.125" style="stroke:#038048;stroke-width:1.0416666666666667;"/><text fill="#D8BC00" font-family="Open Sans,Avenir,Nunito,Arial,Helvetica,SansSerif" font-size="11.4583" lengthAdjust="spacing" textLength="127.0833" x="455.7292" y="403.3671">MapModel(Map&lt;K, V&gt;)</text><line style="stroke:#5E5E5E;stroke-width:1.0416666666666667;" x1="433.8542" x2="468.75" y1="359.5469" y2="359.5469"/><text fill="#D8BC00" font-family="Open Sans,Avenir,Nunito,Arial,Helvetica,SansSerif" font-size="11.4583" lengthAdjust="spacing" textLength="81.25" x="471.875" y="363.3565">(constructors)</text><line style="stroke:#5E5E5E;stroke-width:1.0416666666666667;" x1="556.25" x2="591.1458" y1="359.5469" y2="359.5469"/><!--MD5=[a92f76b259307dd28830f0e58ca42e1a]
class SetModel--><rect codeLine="40" fill="#282828" height="103.123" id="SetModel" rx="8.3333" ry="8.3333" style="stroke:#5E5E5E;stroke-width:1.0416666666666667;" width="133.3333" x="629.1667" y="309.9528"/><rect fill="#1B1B1A" height="31.3883" rx="8.3333" ry="8.3333" style="stroke:#1B1B1A;stroke-width:1.0416666666666667;" width="133.3333" x="629.1667" y="309.9528"/><rect fill="#1B1B1A" height="8.3333" style="stroke:#1B1B1A;stroke-width:1.0416666666666667;" width="133.3333" x="629.1667" y="333.0078"/><rect codeLine="40" fill="none" height="103.123" id="SetModel" rx="8.3333" ry="8.3333" style="stroke:#5E5E5E;stroke-width:1.0416666666666667;" width="133.3333" x="629.1667" y="309.9528"/><ellipse cx="651.7188" cy="325.647" fill="#0066CF" rx="10.4167" ry="10.4167" style="stroke:#0086EF;stroke-width:1.0416666666666667;"/><path d="M653.6292,330.072 Q653.2019,330.2917 652.7319,330.4016 Q652.262,330.5115 651.7432,330.5115 Q649.8999,330.5115 648.9294,329.2969 Q647.959,328.0823 647.959,325.7874 Q647.959,323.4863 648.9294,322.2717 Q649.8999,321.0571 651.7432,321.0571 Q652.262,321.0571 652.738,321.167 Q653.2141,321.2769 653.6292,321.4966 L653.6292,323.4985 Q653.1653,323.0713 652.7289,322.8729 Q652.2925,322.6746 651.8286,322.6746 Q650.8398,322.6746 650.3363,323.4589 Q649.8328,324.2432 649.8328,325.7874 Q649.8328,327.3254 650.3363,328.1097 Q650.8398,328.894 651.8286,328.894 Q652.2925,328.894 652.7289,328.6957 Q653.1653,328.4973 653.6292,328.0701 Z " fill="#000000"/><text fill="#D8BC00" font-family="Open Sans,Avenir,Nunito,Arial,Helvetica,SansSerif" font-size="12.5" font-weight="bold" lengthAdjust="spacing" textLength="59.375" x="670.1563" y="330.3711">SetModel</text><rect fill="#333333" height="23.055" style="stroke:#A0A0A0;stroke-width:1.0416666666666667;stroke-dasharray:2.0,2.0;" width="16.6667" x="748.9583" y="306.8278"/><text fill="#A0A0A0" font-family="Open Sans,Avenir,Nunito,Arial,Helvetica,SansSerif" font-size="12.5" font-weight="bold" lengthAdjust="spacing" textLength="8.3333" x="753.125" y="323.0794">T</text><line style="stroke:#5E5E5E;stroke-width:1.5625;" x1="630.2083" x2="761.4583" y1="341.3411" y2="341.3411"/><ellipse cx="640.625" cy="376.711" fill="#84BE84" rx="3.125" ry="3.125" style="stroke:#038048;stroke-width:1.0416666666666667;"/><text fill="#D8BC00" font-family="Open Sans,Avenir,Nunito,Arial,Helvetica,SansSerif" font-size="11.4583" lengthAdjust="spacing" textLength="58.3333" x="652.0833" y="383.6222">SetModel()</text><ellipse cx="640.625" cy="396.4559" fill="#84BE84" rx="3.125" ry="3.125" style="stroke:#038048;stroke-width:1.0416666666666667;"/><text fill="#D8BC00" font-family="Open Sans,Avenir,Nunito,Arial,Helvetica,SansSerif" font-size="11.4583" lengthAdjust="spacing" textLength="101.0417" x="652.0833" y="403.3671">SetModel(Set&lt;T&gt;)</text><line style="stroke:#5E5E5E;stroke-width:1.0416666666666667;" x1="630.2083" x2="652.0833" y1="359.5469" y2="359.5469"/><text fill="#D8BC00" font-family="Open Sans,Avenir,Nunito,Arial,Helvetica,SansSerif" font-size="11.4583" lengthAdjust="spacing" textLength="81.25" x="655.2083" y="363.3565">(constructors)</text><line style="stroke:#5E5E5E;stroke-width:1.0416666666666667;" x1="739.5833" x2="761.4583" y1="359.5469" y2="359.5469"/><!--MD5=[c3d5d5341ca35a686ee31cf4abae5a81]
reverse link GenericBaseModel to CollectionModel--><path codeLine="8" d="M318.9792,257.0465 C285.3229,273.9945 247.7396,292.9111 214.0208,309.8903 " fill="none" id="GenericBaseModel-backto-CollectionModel" style="stroke:#545454;stroke-width:1.5625;"/><polygon fill="none" points="315.875,250.4528,337.7604,247.5986,322.4271,263.484,315.875,250.4528" style="stroke:#545454;stroke-width:1.5625;"/><!--MD5=[7a8c84efee2366dab6db9ddd47c7e27b]
reverse link IObjectClassAwareModel to GenericBaseModel--><path codeLine="16" d="M418.75,122.682 C418.75,136.0778 418.75,150.7445 418.75,163.9215 " fill="none" id="IObjectClassAwareModel-backto-GenericBaseModel" style="stroke:#545454;stroke-width:1.5625;"/><polygon fill="none" points="411.4583,122.6507,418.75,101.8174,426.0417,122.6507,411.4583,122.6507" style="stroke:#545454;stroke-width:1.5625;"/><!--MD5=[8b55caa08fde78b86cc0b043efba3467]
reverse link GenericBaseModel to ListModel--><path codeLine="23" d="M383.3646,265.4632 C374.5313,280.109 365.1354,295.682 356.5625,309.8903 " fill="none" id="GenericBaseModel-backto-ListModel" style="stroke:#545454;stroke-width:1.5625;"/><polygon fill="none" points="377.1458,261.6715,394.1458,247.5986,389.625,269.2028,377.1458,261.6715" style="stroke:#545454;stroke-width:1.5625;"/><!--MD5=[10819d985c839920d314fd12b834784b]
reverse link GenericBaseModel to MapModel--><path codeLine="31" d="M454.5313,265.4632 C463.4583,280.109 472.9688,295.682 481.6354,309.8903 " fill="none" id="GenericBaseModel-backto-MapModel" style="stroke:#545454;stroke-width:1.5625;"/><polygon fill="none" points="448.25,269.182,443.625,247.5986,460.6979,261.5882,448.25,269.182" style="stroke:#545454;stroke-width:1.5625;"/><!--MD5=[dc2d1add93ffa19406a34f8bc00490bc]
reverse link GenericBaseModel to SetModel--><path codeLine="39" d="M514.7188,257.484 C545.4375,273.9528 579.4896,292.4945 610.4167,309.9528 C616.4167,313.3382 622.625,316.9007 628.8438,320.5049 " fill="none" id="GenericBaseModel-backto-SetModel" style="stroke:#545454;stroke-width:1.5625;"/><polygon fill="none" points="511.0208,263.7757,496.0833,247.5153,517.8958,250.9111,511.0208,263.7757" style="stroke:#545454;stroke-width:1.5625;"/><!--MD5=[d374de6812103eb0cb0aaa7743307980]
@startuml

    !include lexakai.theme
    
    title "org.apache.wicket.model.util"
    
    interface IObjectClassAwareModel
    
    GenericBaseModel <|- - CollectionModel
    class CollectionModel<T>
    {
        - -(constructors)- -
        +CollectionModel()
        +CollectionModel(Collection<T>)
    }
    
    IObjectClassAwareModel <|- - GenericBaseModel
    abstract class GenericBaseModel<T>
    {
        - -(identity)- -
        #T createSerializableVersionOf(T object)
    }
    
    GenericBaseModel <|- - ListModel
    class ListModel<T>
    {
        - -(constructors)- -
        +ListModel()
        +ListModel(List<T>)
    }
    
    GenericBaseModel <|- - MapModel
    class MapModel<K, V>
    {
        - -(constructors)- -
        +MapModel()
        +MapModel(Map<K, V>)
    }
    
    GenericBaseModel <|- - SetModel
    class SetModel<T>
    {
        - -(constructors)- -
        +SetModel()
        +SetModel(Set<T>)
    }
    
@enduml

@startuml









skinparam backgroundColor #333333






skinparam  {
    defaultFontName   "Open Sans,Avenir,Nunito,Arial,Helvetica,SansSerif"
    defaultFontSize   12
    defaultTextAlignment left
    shadowing false
    RoundCorner 10
    TitleFontSize 18
}

skinparam defaultFontName       "Open Sans,Avenir,Nunito,Arial,Helvetica,SansSerif"
skinparam defaultFontSize       12
skinparam dpi                   100
skinparam shadowing             false
skinparam roundcorner           16
skinparam ParticipantPadding    40
skinparam BoxPadding            40
skinparam Padding               3
skinparam ArrowColor            #545454
skinparam stereotype {
    CBackgroundColor #0066cf
    CBorderColor #0086ef
    ABackgroundColor #C8Ac00
    ABorderColor #D8Bc00
    IBackgroundColor #008400
    IBorderColor #239c23
    EBackgroundColor #cf6300
    EBorderColor #ef8300
    NBackgroundColor #3380b9
    NBorderColor #004d86
}
skinparam title {
	FontColor	                 #c0c0c0
 	BorderColor                  #545454
	FontSize	    	         20
	BorderRoundCorner            16
	BorderThickness 	         1
	BackgroundColor              #48494b
}


skinparam legend {
	BackgroundColor #303030
	BorderColor #404040
	FontColor #a0a0a0
}

	skinparam swimlane {
	BorderColor #5e5e5e
	BorderThickness 2
	TitleBackgroundColor  #6d6d6d-#484848
	TitleFontColor #303030
}

skinparam activity {
		FontColor #C8Ac00
	BorderColor #333333
	BackgroundColor #333333-#333333
	BarColor #00FF00
	StartColor #0060a8
	EndColor #0060a8
	DiamondBackgroundColor #6d6d6d-#3a3a3a
  	DiamondBorderColor #3a3a3a
  	DiamondFontColor #fefefe
}


skinparam participant {
		FontColor #C8Ac00
	BorderColor #333333
	BackgroundColor #333333-#333333
	ParticipantBorderThickness 2
}


skinparam actor {
		FontColor #C8Ac00
	BorderColor #333333
	BackgroundColor #333333-#333333
}


skinparam arrow {
	Thickness 1.5
	Color #545454
	FontColor #a0a0a0
    FontStyle bold
    MessageAlignment center
}



skinparam sequence {
	BorderColor #303030
	TitleFontColor #303030
	BackgroundColor #333333
	StartColor #303030
	EndColor #303030
	BoxBackgroundColor #333333
	BoxBorderColor #484848
	BoxFontColor #484848
	LifeLineBorderColor #484848
	LifeLineBorderThickness 2
	LifeLineBackgroundColor #3a3a3a
	GroupBorderColor #484848
	GroupFontColor #484848
	GroupHeaderFontColor #0060a8
	GroupBackgroundColor #484848
	GroupHeaderBackgroundColor #333333
	DividerBackgroundColor #484848
    DividerBorderColor #484848
    DividerBorderThickness 2
    DividerFontColor #D8Bc00
	ReferenceBackgroundColor #333333
	ReferenceBorderColor #484848
	ReferenceFontColor #fefefe
	ReferenceHeaderBackgroundColor #484848
}


skinparam partition {
	BorderColor #303030
	FontColor #333333
	BackgroundColor #333333
}


skinparam collections {
		FontColor #C8Ac00
	BorderColor #333333
	BackgroundColor #333333-#333333
}


skinparam control {
		FontColor #C8Ac00
	BorderColor #333333
	BackgroundColor #333333-#333333
}


skinparam entity {
		FontColor #C8Ac00
	BorderColor #333333
	BackgroundColor #333333-#333333
}


skinparam boundary {
		FontColor #C8Ac00
	BorderColor #333333
	BackgroundColor #333333-#333333
}


skinparam agent {
	BackgroundColor #ff8000
	BorderColor #ff9933
	FontColor #484848
}


skinparam note {
	BorderThickness 1
	BackgroundColor #1b1b1a
	BorderColor #5e5e5e
	FontSize 11
	FontColor #a0a0a0
}


skinparam artifact {
	BorderThickness 10
	BorderColor #5e5e5e
	BackgroundColor #1b1b1a
	FontColor #D8Bc00
}


skinparam component {
		FontColor #C8Ac00
	BorderColor #333333
	BackgroundColor #333333-#333333
}


skinparam interface {
	BackgroundColor  #008400
	BorderColor  #007F00
	FontColor #484848
}


skinparam storage {
	BackgroundColor #ff8000
  	BorderColor #cc6600
	FontColor #222222
}


skinparam node {
	BackgroundColor #333333
	BorderColor #333333
	FontColor #C8Ac00
}


skinparam cloud {
	BackgroundColor #484848-black
	BorderColor #484848
	FontColor #D8Bc00
}


skinparam database {
		FontColor #C8Ac00
	BorderColor #333333
	BackgroundColor #333333-#333333
	BackgroundColor  #333333
}


skinparam class {
		FontColor #C8Ac00
	BorderColor #333333
	BackgroundColor #333333-#333333
	HeaderBackgroundColor #1b1b1a
    BackgroundColor #282828
    BorderColor #5e5e5e
 	StereotypeFontColor #a0a0a0
    StereotypeFontStyle bold
	BorderThickness 1
	AttributeFontColor #D8Bc00
	AttributeFontSize 11
    FontColor #D8Bc00
    FontStyle bold
}


skinparam object {
		FontColor #C8Ac00
	BorderColor #333333
	BackgroundColor #333333-#333333
	StereotypeFontColor #484848
	BorderThickness 1
	AttributeFontColor #fefefe
	AttributeFontSize 11
}


skinparam usecase {
		FontColor #C8Ac00
	BorderColor #333333
	BackgroundColor #333333-#333333
	BorderThickness 2
	StereotypeFontColor #303030
}


skinparam rectangle {
		FontColor #C8Ac00
	BorderColor #333333
	BackgroundColor #333333-#333333
	BackgroundColor #333333
	BorderThickness 2
	StereotypeFontColor #303030
}


skinparam package {
		FontColor #C8Ac00
	BorderColor #333333
	BackgroundColor #333333-#333333
	BackgroundColor #333333
	BorderThickness 2
}


skinparam folder {
	BackgroundColor #6d6d6d
  	BorderColor #ff8000
	FontColor #ff8000
	BorderThickness 2
}


skinparam frame {
	BackgroundColor #6d6d6d
  	BorderColor #0060a8
	FontColor #0060a8
	BorderThickness 2
}


skinparam state {
		FontColor #C8Ac00
	BorderColor #333333
	BackgroundColor #333333-#333333
	StartColor #0060a8
	EndColor #0060a8
	AttributeFontColor #fefefe
	AttributeFontSize 11
}


skinparam queue {
		FontColor #C8Ac00
	BorderColor #333333
	BackgroundColor #333333-#333333
}


skinparam card {
	BackgroundColor #0060a8
	BorderColor #004d86
	FontColor $INFO_TEXT
}


skinparam file {
	BackgroundColor #6d6d6d-#484848
	BorderColor #0060a8
	FontColor #fefefe
}


skinparam stack {
		FontColor #C8Ac00
	BorderColor #333333
	BackgroundColor #333333-#333333
}

    
    title "org.apache.wicket.model.util"
    
    interface IObjectClassAwareModel
    
    GenericBaseModel <|- - CollectionModel
    class CollectionModel<T>
    {
        - -(constructors)- -
        +CollectionModel()
        +CollectionModel(Collection<T>)
    }
    
    IObjectClassAwareModel <|- - GenericBaseModel
    abstract class GenericBaseModel<T>
    {
        - -(identity)- -
        #T createSerializableVersionOf(T object)
    }
    
    GenericBaseModel <|- - ListModel
    class ListModel<T>
    {
        - -(constructors)- -
        +ListModel()
        +ListModel(List<T>)
    }
    
    GenericBaseModel <|- - MapModel
    class MapModel<K, V>
    {
        - -(constructors)- -
        +MapModel()
        +MapModel(Map<K, V>)
    }
    
    GenericBaseModel <|- - SetModel
    class SetModel<T>
    {
        - -(constructors)- -
        +SetModel()
        +SetModel(Set<T>)
    }
    
@enduml

PlantUML version 1.2021.01(Tue Feb 02 00:55:08 MST 2021)
(GPL source distribution)
Java Runtime: Java(TM) SE Runtime Environment
JVM: Java HotSpot(TM) 64-Bit Server VM
Default Encoding: UTF-8
Language: en
Country: US
--></g></svg>