<?xml version="1.0" encoding="UTF-8" standalone="no"?><svg xmlns="http://www.w3.org/2000/svg" xmlns:xlink="http://www.w3.org/1999/xlink" contentScriptType="application/ecmascript" contentStyleType="text/css" height="566.6667px" preserveAspectRatio="none" style="width:1267px;height:566px;background:#333333;" version="1.1" viewBox="0 0 1267 566" width="1267.7083px" zoomAndPan="magnify"><defs/><g><rect fill="#48494B" height="41.2028" rx="8.3333" ry="8.3333" style="stroke:#545454;stroke-width:1.0416666666666667;" width="411.4583" x="420.8333" y="2.0833"/><text fill="#C0C0C0" font-family="Open Sans,Avenir,Nunito,Arial,Helvetica,SansSerif" font-size="20.8333" lengthAdjust="spacing" textLength="388.5417" x="432.2917" y="30.5583">org.apache.wicket.markup.transformer</text><!--MD5=[3e0a36a062632b6be0bbf9562b1ccc82]
class AbstractTransformerBehavior--><rect codeLine="26" fill="#282828" height="83.3781" id="AbstractTransformerBehavior" rx="8.3333" ry="8.3333" style="stroke:#5E5E5E;stroke-width:1.0416666666666667;" width="420.8333" x="9.375" y="245.3695"/><rect fill="#1B1B1A" height="31.3883" rx="8.3333" ry="8.3333" style="stroke:#1B1B1A;stroke-width:1.0416666666666667;" width="420.8333" x="9.375" y="245.3695"/><rect fill="#1B1B1A" height="8.3333" style="stroke:#1B1B1A;stroke-width:1.0416666666666667;" width="420.8333" x="9.375" y="268.4245"/><rect codeLine="26" fill="none" height="83.3781" id="AbstractTransformerBehavior" rx="8.3333" ry="8.3333" style="stroke:#5E5E5E;stroke-width:1.0416666666666667;" width="420.8333" x="9.375" y="245.3695"/><ellipse cx="117.1875" cy="261.0636" fill="#C8AC00" rx="10.4167" ry="10.4167" style="stroke:#D8BC00;stroke-width:1.0416666666666667;"/><path d="M116.7806,257.7657 L115.9322,261.495 L117.6351,261.495 Z M115.682,256.1178 L117.8853,256.1178 L120.3451,265.2303 L118.5445,265.2303 L117.983,262.9781 L115.5721,262.9781 L115.0228,265.2303 L113.2222,265.2303 Z " fill="#000000"/><text fill="#D8BC00" font-family="Open Sans,Avenir,Nunito,Arial,Helvetica,SansSerif" font-size="12.5" font-style="italic" font-weight="bold" lengthAdjust="spacing" textLength="190.625" x="140.1042" y="265.7878">AbstractTransformerBehavior</text><line style="stroke:#5E5E5E;stroke-width:1.5625;" x1="10.4167" x2="429.1667" y1="276.7578" y2="276.7578"/><polygon fill="#FFFF44" points="20.8333,306.9194,25,311.086,20.8333,315.2527,16.6667,311.086" style="stroke:#B38D22;stroke-width:1.0416666666666667;"/><text fill="#D8BC00" font-family="Open Sans,Avenir,Nunito,Arial,Helvetica,SansSerif" font-size="11.4583" lengthAdjust="spacing" textLength="388.5417" x="32.2917" y="319.0389">BufferedWebResponse newResponse(WebResponse originalResponse)</text><line style="stroke:#5E5E5E;stroke-width:1.0416666666666667;" x1="10.4167" x2="192.7083" y1="294.9636" y2="294.9636"/><text fill="#D8BC00" font-family="Open Sans,Avenir,Nunito,Arial,Helvetica,SansSerif" font-size="11.4583" lengthAdjust="spacing" textLength="47.9167" x="195.8333" y="298.7732">(factory)</text><line style="stroke:#5E5E5E;stroke-width:1.0416666666666667;" x1="246.875" x2="429.1667" y1="294.9636" y2="294.9636"/><!--MD5=[f72d9e3c1471fa3d2d2b7b4ac2a413fa]
class AbstractOutputTransformerContainer--><rect codeLine="13" fill="#282828" height="174.8576" id="AbstractOutputTransformerContainer" rx="8.3333" ry="8.3333" style="stroke:#5E5E5E;stroke-width:1.0416666666666667;" width="354.1667" x="669.7917" y="199.5361"/><rect fill="#1B1B1A" height="31.3883" rx="8.3333" ry="8.3333" style="stroke:#1B1B1A;stroke-width:1.0416666666666667;" width="354.1667" x="669.7917" y="199.5361"/><rect fill="#1B1B1A" height="8.3333" style="stroke:#1B1B1A;stroke-width:1.0416666666666667;" width="354.1667" x="669.7917" y="222.5911"/><rect codeLine="13" fill="none" height="174.8576" id="AbstractOutputTransformerContainer" rx="8.3333" ry="8.3333" style="stroke:#5E5E5E;stroke-width:1.0416666666666667;" width="354.1667" x="669.7917" y="199.5361"/><ellipse cx="717.7083" cy="215.2303" fill="#C8AC00" rx="10.4167" ry="10.4167" style="stroke:#D8BC00;stroke-width:1.0416666666666667;"/><path d="M717.3014,211.9324 L716.453,215.6616 L718.1559,215.6616 Z M716.2028,210.2844 L718.4062,210.2844 L720.8659,219.397 L719.0653,219.397 L718.5038,217.1448 L716.0929,217.1448 L715.5436,219.397 L713.7431,219.397 Z " fill="#000000"/><text fill="#D8BC00" font-family="Open Sans,Avenir,Nunito,Arial,Helvetica,SansSerif" font-size="12.5" font-style="italic" font-weight="bold" lengthAdjust="spacing" textLength="243.75" x="740.625" y="219.9544">AbstractOutputTransformerContainer</text><line style="stroke:#5E5E5E;stroke-width:1.5625;" x1="670.8333" x2="1022.9167" y1="230.9245" y2="230.9245"/><ellipse cx="681.25" cy="266.2944" fill="#84BE84" rx="3.125" ry="3.125" style="stroke:#038048;stroke-width:1.0416666666666667;"/><text fill="#D8BC00" font-family="Open Sans,Avenir,Nunito,Arial,Helvetica,SansSerif" font-size="11.4583" lengthAdjust="spacing" textLength="255.2083" x="692.7083" y="273.2056">AbstractOutputTransformerContainer(String)</text><ellipse cx="681.25" cy="286.0392" fill="#84BE84" rx="3.125" ry="3.125" style="stroke:#038048;stroke-width:1.0416666666666667;"/><text fill="#D8BC00" font-family="Open Sans,Avenir,Nunito,Arial,Helvetica,SansSerif" font-size="11.4583" lengthAdjust="spacing" textLength="321.875" x="692.7083" y="292.9504">AbstractOutputTransformerContainer(String, IModel&lt;?&gt;)</text><line style="stroke:#5E5E5E;stroke-width:1.0416666666666667;" x1="670.8333" x2="803.125" y1="249.1302" y2="249.1302"/><text fill="#D8BC00" font-family="Open Sans,Avenir,Nunito,Arial,Helvetica,SansSerif" font-size="11.4583" lengthAdjust="spacing" textLength="81.25" x="806.25" y="252.9399">(constructors)</text><line style="stroke:#5E5E5E;stroke-width:1.0416666666666667;" x1="890.625" x2="1022.9167" y1="249.1302" y2="249.1302"/><line style="stroke:#5E5E5E;stroke-width:1.0416666666666667;" x1="670.8333" x2="1022.9167" y1="302.6591" y2="302.6591"/><ellipse cx="681.25" cy="314.1174" fill="#84BE84" rx="3.125" ry="3.125" style="stroke:#038048;stroke-width:1.0416666666666667;"/><text fill="#D8BC00" font-family="Open Sans,Avenir,Nunito,Arial,Helvetica,SansSerif" font-size="11.4583" lengthAdjust="spacing" textLength="314.5833" x="692.7083" y="321.0286">MarkupContainer setTransformBodyOnly(boolean value)</text><polygon fill="#FFFF44" points="681.25,352.5655,685.4167,356.7322,681.25,360.8988,677.0833,356.7322" style="stroke:#B38D22;stroke-width:1.0416666666666667;"/><text fill="#D8BC00" font-family="Open Sans,Avenir,Nunito,Arial,Helvetica,SansSerif" font-size="11.4583" lengthAdjust="spacing" textLength="141.6667" x="692.7083" y="364.6851">Response newResponse()</text><line style="stroke:#5E5E5E;stroke-width:1.0416666666666667;" x1="670.8333" x2="819.7917" y1="340.6097" y2="340.6097"/><text fill="#D8BC00" font-family="Open Sans,Avenir,Nunito,Arial,Helvetica,SansSerif" font-size="11.4583" lengthAdjust="spacing" textLength="47.9167" x="822.9167" y="344.4194">(factory)</text><line style="stroke:#5E5E5E;stroke-width:1.0416666666666667;" x1="873.9583" x2="1022.9167" y1="340.6097" y2="340.6097"/><!--MD5=[e6a0c606d170f6faba36b45e2c22b71e]
class ITransformer--><rect codeLine="32" fill="#282828" height="83.3781" id="ITransformer" rx="8.3333" ry="8.3333" style="stroke:#5E5E5E;stroke-width:1.0416666666666667;" width="372.9167" x="362.5" y="53.7028"/><rect fill="#1B1B1A" height="31.3883" rx="8.3333" ry="8.3333" style="stroke:#1B1B1A;stroke-width:1.0416666666666667;" width="372.9167" x="362.5" y="53.7028"/><rect fill="#1B1B1A" height="8.3333" style="stroke:#1B1B1A;stroke-width:1.0416666666666667;" width="372.9167" x="362.5" y="76.7578"/><rect codeLine="32" fill="none" height="83.3781" id="ITransformer" rx="8.3333" ry="8.3333" style="stroke:#5E5E5E;stroke-width:1.0416666666666667;" width="372.9167" x="362.5" y="53.7028"/><ellipse cx="499.4792" cy="69.397" fill="#008400" rx="10.4167" ry="10.4167" style="stroke:#239C23;stroke-width:1.0416666666666667;"/><path d="M496.8831,66.5588 L496.8831,64.9719 L502.3092,64.9719 L502.3092,66.5588 L500.4964,66.5588 L500.4964,72.4976 L502.3092,72.4976 L502.3092,74.0845 L496.8831,74.0845 L496.8831,72.4976 L498.6959,72.4976 L498.6959,66.5588 Z " fill="#000000"/><text fill="#D8BC00" font-family="Open Sans,Avenir,Nunito,Arial,Helvetica,SansSerif" font-size="12.5" font-style="italic" font-weight="bold" lengthAdjust="spacing" textLength="84.375" x="522.3958" y="74.1211">ITransformer</text><line style="stroke:#5E5E5E;stroke-width:1.5625;" x1="363.5417" x2="734.375" y1="85.0911" y2="85.0911"/><ellipse cx="373.9583" cy="120.461" fill="#84BE84" rx="3.125" ry="3.125" style="stroke:#038048;stroke-width:1.0416666666666667;"/><text fill="#D8BC00" font-family="Open Sans,Avenir,Nunito,Arial,Helvetica,SansSerif" font-size="11.4583" lengthAdjust="spacing" textLength="340.625" x="385.4167" y="127.3722">CharSequence transform(Component, CharSequence output)</text><line style="stroke:#5E5E5E;stroke-width:1.0416666666666667;" x1="363.5417" x2="517.1875" y1="103.2969" y2="103.2969"/><text fill="#D8BC00" font-family="Open Sans,Avenir,Nunito,Arial,Helvetica,SansSerif" font-size="11.4583" lengthAdjust="spacing" textLength="57.2917" x="520.3125" y="107.1065">(primitive)</text><line style="stroke:#5E5E5E;stroke-width:1.0416666666666667;" x1="580.7292" x2="734.375" y1="103.2969" y2="103.2969"/><!--MD5=[d3ce0dc45ff6395ece509a997987a221]
class MarkupContainer--><rect fill="#282828" height="48.055" id="MarkupContainer" rx="8.3333" ry="8.3333" style="stroke:#5E5E5E;stroke-width:1.0416666666666667;" width="150" x="771.875" y="71.4111"/><rect fill="#1B1B1A" height="31.3883" rx="8.3333" ry="8.3333" style="stroke:#1B1B1A;stroke-width:1.0416666666666667;" width="150" x="771.875" y="71.4111"/><rect fill="#1B1B1A" height="8.3333" style="stroke:#1B1B1A;stroke-width:1.0416666666666667;" width="150" x="771.875" y="94.4661"/><rect fill="none" height="48.055" id="MarkupContainer" rx="8.3333" ry="8.3333" style="stroke:#5E5E5E;stroke-width:1.0416666666666667;" width="150" x="771.875" y="71.4111"/><ellipse cx="786.4583" cy="87.1053" fill="#0066CF" rx="10.4167" ry="10.4167" style="stroke:#0086EF;stroke-width:1.0416666666666667;"/><path d="M788.3687,91.5304 Q787.9415,91.7501 787.4715,91.8599 Q787.0015,91.9698 786.4827,91.9698 Q784.6395,91.9698 783.669,90.7552 Q782.6986,89.5406 782.6986,87.2457 Q782.6986,84.9447 783.669,83.7301 Q784.6395,82.5155 786.4827,82.5155 Q787.0015,82.5155 787.4776,82.6253 Q787.9537,82.7352 788.3687,82.9549 L788.3687,84.9569 Q787.9049,84.5296 787.4685,84.3313 Q787.0321,84.1329 786.5682,84.1329 Q785.5794,84.1329 785.0759,84.9172 Q784.5723,85.7015 784.5723,87.2457 Q784.5723,88.7838 785.0759,89.5681 Q785.5794,90.3524 786.5682,90.3524 Q787.0321,90.3524 787.4685,90.154 Q787.9049,89.9556 788.3687,89.5284 Z " fill="#000000"/><text fill="#D8BC00" font-family="Open Sans,Avenir,Nunito,Arial,Helvetica,SansSerif" font-size="12.5" font-weight="bold" lengthAdjust="spacing" textLength="112.5" x="803.125" y="91.8294">MarkupContainer</text><line style="stroke:#5E5E5E;stroke-width:1.0416666666666667;" x1="772.9167" x2="920.8333" y1="102.7995" y2="102.7995"/><line style="stroke:#5E5E5E;stroke-width:1.0416666666666667;" x1="772.9167" x2="920.8333" y1="111.1328" y2="111.1328"/><!--MD5=[9ec104ddfc62073059e345d4e82bb5a8]
class Behavior--><rect fill="#282828" height="48.055" id="Behavior" rx="8.3333" ry="8.3333" style="stroke:#5E5E5E;stroke-width:1.0416666666666667;" width="93.75" x="172.9167" y="71.4111"/><rect fill="#1B1B1A" height="31.3883" rx="8.3333" ry="8.3333" style="stroke:#1B1B1A;stroke-width:1.0416666666666667;" width="93.75" x="172.9167" y="71.4111"/><rect fill="#1B1B1A" height="8.3333" style="stroke:#1B1B1A;stroke-width:1.0416666666666667;" width="93.75" x="172.9167" y="94.4661"/><rect fill="none" height="48.055" id="Behavior" rx="8.3333" ry="8.3333" style="stroke:#5E5E5E;stroke-width:1.0416666666666667;" width="93.75" x="172.9167" y="71.4111"/><ellipse cx="187.5" cy="87.1053" fill="#0066CF" rx="10.4167" ry="10.4167" style="stroke:#0086EF;stroke-width:1.0416666666666667;"/><path d="M189.4104,91.5304 Q188.9832,91.7501 188.5132,91.8599 Q188.0432,91.9698 187.5244,91.9698 Q185.6812,91.9698 184.7107,90.7552 Q183.7402,89.5406 183.7402,87.2457 Q183.7402,84.9447 184.7107,83.7301 Q185.6812,82.5155 187.5244,82.5155 Q188.0432,82.5155 188.5193,82.6253 Q188.9954,82.7352 189.4104,82.9549 L189.4104,84.9569 Q188.9465,84.5296 188.5101,84.3313 Q188.0737,84.1329 187.6099,84.1329 Q186.6211,84.1329 186.1176,84.9172 Q185.614,85.7015 185.614,87.2457 Q185.614,88.7838 186.1176,89.5681 Q186.6211,90.3524 187.6099,90.3524 Q188.0737,90.3524 188.5101,90.154 Q188.9465,89.9556 189.4104,89.5284 Z " fill="#000000"/><text fill="#D8BC00" font-family="Open Sans,Avenir,Nunito,Arial,Helvetica,SansSerif" font-size="12.5" font-weight="bold" lengthAdjust="spacing" textLength="56.25" x="204.1667" y="91.8294">Behavior</text><line style="stroke:#5E5E5E;stroke-width:1.0416666666666667;" x1="173.9583" x2="265.625" y1="102.7995" y2="102.7995"/><line style="stroke:#5E5E5E;stroke-width:1.0416666666666667;" x1="173.9583" x2="265.625" y1="111.1328" y2="111.1328"/><!--MD5=[a5c6536b7cee23884ecabfdb19cfe9be]
class NoopOutputTransformerContainer--><rect codeLine="39" fill="#282828" height="103.123" id="NoopOutputTransformerContainer" rx="8.3333" ry="8.3333" style="stroke:#5E5E5E;stroke-width:1.0416666666666667;" width="336.4583" x="520.3125" y="446.932"/><rect fill="#1B1B1A" height="31.3883" rx="8.3333" ry="8.3333" style="stroke:#1B1B1A;stroke-width:1.0416666666666667;" width="336.4583" x="520.3125" y="446.932"/><rect fill="#1B1B1A" height="8.3333" style="stroke:#1B1B1A;stroke-width:1.0416666666666667;" width="336.4583" x="520.3125" y="469.987"/><rect codeLine="39" fill="none" height="103.123" id="NoopOutputTransformerContainer" rx="8.3333" ry="8.3333" style="stroke:#5E5E5E;stroke-width:1.0416666666666667;" width="336.4583" x="520.3125" y="446.932"/><ellipse cx="569.2708" cy="462.6261" fill="#0066CF" rx="10.4167" ry="10.4167" style="stroke:#0086EF;stroke-width:1.0416666666666667;"/><path d="M571.1812,467.0512 Q570.754,467.2709 570.284,467.3808 Q569.814,467.4906 569.2952,467.4906 Q567.452,467.4906 566.4815,466.276 Q565.5111,465.0614 565.5111,462.7665 Q565.5111,460.4655 566.4815,459.2509 Q567.452,458.0363 569.2952,458.0363 Q569.814,458.0363 570.2901,458.1462 Q570.7662,458.256 571.1812,458.4757 L571.1812,460.4777 Q570.7174,460.0505 570.281,459.8521 Q569.8446,459.6537 569.3807,459.6537 Q568.3919,459.6537 567.8884,460.438 Q567.3848,461.2223 567.3848,462.7665 Q567.3848,464.3046 567.8884,465.0889 Q568.3919,465.8732 569.3807,465.8732 Q569.8446,465.8732 570.281,465.6748 Q570.7174,465.4765 571.1812,465.0492 Z " fill="#000000"/><text fill="#D8BC00" font-family="Open Sans,Avenir,Nunito,Arial,Helvetica,SansSerif" font-size="12.5" font-weight="bold" lengthAdjust="spacing" textLength="223.9583" x="592.1875" y="467.3503">NoopOutputTransformerContainer</text><line style="stroke:#5E5E5E;stroke-width:1.5625;" x1="521.3542" x2="855.7292" y1="478.3203" y2="478.3203"/><ellipse cx="531.7708" cy="513.6902" fill="#84BE84" rx="3.125" ry="3.125" style="stroke:#038048;stroke-width:1.0416666666666667;"/><text fill="#D8BC00" font-family="Open Sans,Avenir,Nunito,Arial,Helvetica,SansSerif" font-size="11.4583" lengthAdjust="spacing" textLength="237.5" x="543.2292" y="520.6014">NoopOutputTransformerContainer(String)</text><ellipse cx="531.7708" cy="533.4351" fill="#84BE84" rx="3.125" ry="3.125" style="stroke:#038048;stroke-width:1.0416666666666667;"/><text fill="#D8BC00" font-family="Open Sans,Avenir,Nunito,Arial,Helvetica,SansSerif" font-size="11.4583" lengthAdjust="spacing" textLength="304.1667" x="543.2292" y="540.3463">NoopOutputTransformerContainer(String, IModel&lt;?&gt;)</text><line style="stroke:#5E5E5E;stroke-width:1.0416666666666667;" x1="521.3542" x2="644.7917" y1="496.5261" y2="496.5261"/><text fill="#D8BC00" font-family="Open Sans,Avenir,Nunito,Arial,Helvetica,SansSerif" font-size="11.4583" lengthAdjust="spacing" textLength="81.25" x="647.9167" y="500.3357">(constructors)</text><line style="stroke:#5E5E5E;stroke-width:1.0416666666666667;" x1="732.2917" x2="855.7292" y1="496.5261" y2="496.5261"/><!--MD5=[3543e6f1a1451a977e64ff0153da401e]
class XsltOutputTransformerContainer--><rect codeLine="47" fill="#282828" height="122.8678" id="XsltOutputTransformerContainer" rx="8.3333" ry="8.3333" style="stroke:#5E5E5E;stroke-width:1.0416666666666667;" width="366.6667" x="893.75" y="437.0361"/><rect fill="#1B1B1A" height="31.3883" rx="8.3333" ry="8.3333" style="stroke:#1B1B1A;stroke-width:1.0416666666666667;" width="366.6667" x="893.75" y="437.0361"/><rect fill="#1B1B1A" height="8.3333" style="stroke:#1B1B1A;stroke-width:1.0416666666666667;" width="366.6667" x="893.75" y="460.0911"/><rect codeLine="47" fill="none" height="122.8678" id="XsltOutputTransformerContainer" rx="8.3333" ry="8.3333" style="stroke:#5E5E5E;stroke-width:1.0416666666666667;" width="366.6667" x="893.75" y="437.0361"/><ellipse cx="962.5" cy="452.7303" fill="#0066CF" rx="10.4167" ry="10.4167" style="stroke:#0086EF;stroke-width:1.0416666666666667;"/><path d="M964.4104,457.1554 Q963.9832,457.3751 963.5132,457.4849 Q963.0432,457.5948 962.5244,457.5948 Q960.6812,457.5948 959.7107,456.3802 Q958.7402,455.1656 958.7402,452.8707 Q958.7402,450.5697 959.7107,449.3551 Q960.6812,448.1405 962.5244,448.1405 Q963.0432,448.1405 963.5193,448.2503 Q963.9954,448.3602 964.4104,448.5799 L964.4104,450.5819 Q963.9465,450.1546 963.5101,449.9563 Q963.0737,449.7579 962.6099,449.7579 Q961.6211,449.7579 961.1176,450.5422 Q960.614,451.3265 960.614,452.8707 Q960.614,454.4088 961.1176,455.1931 Q961.6211,455.9774 962.6099,455.9774 Q963.0737,455.9774 963.5101,455.779 Q963.9465,455.5806 964.4104,455.1534 Z " fill="#000000"/><text fill="#D8BC00" font-family="Open Sans,Avenir,Nunito,Arial,Helvetica,SansSerif" font-size="12.5" font-weight="bold" lengthAdjust="spacing" textLength="214.5833" x="985.4167" y="457.4544">XsltOutputTransformerContainer</text><line style="stroke:#5E5E5E;stroke-width:1.5625;" x1="894.7917" x2="1259.375" y1="468.4245" y2="468.4245"/><ellipse cx="905.2083" cy="503.7944" fill="#84BE84" rx="3.125" ry="3.125" style="stroke:#038048;stroke-width:1.0416666666666667;"/><text fill="#D8BC00" font-family="Open Sans,Avenir,Nunito,Arial,Helvetica,SansSerif" font-size="11.4583" lengthAdjust="spacing" textLength="228.125" x="916.6667" y="510.7056">XsltOutputTransformerContainer(String)</text><ellipse cx="905.2083" cy="523.5392" fill="#84BE84" rx="3.125" ry="3.125" style="stroke:#038048;stroke-width:1.0416666666666667;"/><text fill="#D8BC00" font-family="Open Sans,Avenir,Nunito,Arial,Helvetica,SansSerif" font-size="11.4583" lengthAdjust="spacing" textLength="294.7917" x="916.6667" y="530.4504">XsltOutputTransformerContainer(String, IModel&lt;?&gt;)</text><ellipse cx="905.2083" cy="543.2841" fill="#84BE84" rx="3.125" ry="3.125" style="stroke:#038048;stroke-width:1.0416666666666667;"/><text fill="#D8BC00" font-family="Open Sans,Avenir,Nunito,Arial,Helvetica,SansSerif" font-size="11.4583" lengthAdjust="spacing" textLength="334.375" x="916.6667" y="550.1953">XsltOutputTransformerContainer(String, IModel&lt;?&gt;, String)</text><line style="stroke:#5E5E5E;stroke-width:1.0416666666666667;" x1="894.7917" x2="1033.3333" y1="486.6302" y2="486.6302"/><text fill="#D8BC00" font-family="Open Sans,Avenir,Nunito,Arial,Helvetica,SansSerif" font-size="11.4583" lengthAdjust="spacing" textLength="81.25" x="1036.4583" y="490.4399">(constructors)</text><line style="stroke:#5E5E5E;stroke-width:1.0416666666666667;" x1="1120.8333" x2="1259.375" y1="486.6302" y2="486.6302"/><!--MD5=[4e9a35b8c4bf33239482ed7f8de9ae22]
class XsltTransformer--><rect codeLine="56" fill="#282828" height="103.123" id="XsltTransformer" rx="8.3333" ry="8.3333" style="stroke:#5E5E5E;stroke-width:1.0416666666666667;" width="165.625" x="467.1875" y="235.4736"/><rect fill="#1B1B1A" height="31.3883" rx="8.3333" ry="8.3333" style="stroke:#1B1B1A;stroke-width:1.0416666666666667;" width="165.625" x="467.1875" y="235.4736"/><rect fill="#1B1B1A" height="8.3333" style="stroke:#1B1B1A;stroke-width:1.0416666666666667;" width="165.625" x="467.1875" y="258.5286"/><rect codeLine="56" fill="none" height="103.123" id="XsltTransformer" rx="8.3333" ry="8.3333" style="stroke:#5E5E5E;stroke-width:1.0416666666666667;" width="165.625" x="467.1875" y="235.4736"/><ellipse cx="492.0833" cy="251.1678" fill="#0066CF" rx="10.4167" ry="10.4167" style="stroke:#0086EF;stroke-width:1.0416666666666667;"/><path d="M493.9937,255.5929 Q493.5665,255.8126 493.0965,255.9224 Q492.6265,256.0323 492.1077,256.0323 Q490.2645,256.0323 489.294,254.8177 Q488.3236,253.6031 488.3236,251.3082 Q488.3236,249.0072 489.294,247.7926 Q490.2645,246.578 492.1077,246.578 Q492.6265,246.578 493.1026,246.6878 Q493.5787,246.7977 493.9937,247.0174 L493.9937,249.0194 Q493.5299,248.5921 493.0935,248.3938 Q492.6571,248.1954 492.1932,248.1954 Q491.2044,248.1954 490.7009,248.9797 Q490.1973,249.764 490.1973,251.3082 Q490.1973,252.8463 490.7009,253.6306 Q491.2044,254.4149 492.1932,254.4149 Q492.6571,254.4149 493.0935,254.2165 Q493.5299,254.0181 493.9937,253.5909 Z " fill="#000000"/><text fill="#D8BC00" font-family="Open Sans,Avenir,Nunito,Arial,Helvetica,SansSerif" font-size="12.5" font-weight="bold" lengthAdjust="spacing" textLength="105.2083" x="511.0417" y="255.8919">XsltTransformer</text><line style="stroke:#5E5E5E;stroke-width:1.5625;" x1="468.2292" x2="631.7708" y1="266.862" y2="266.862"/><ellipse cx="478.6458" cy="302.2319" fill="#84BE84" rx="3.125" ry="3.125" style="stroke:#038048;stroke-width:1.0416666666666667;"/><text fill="#D8BC00" font-family="Open Sans,Avenir,Nunito,Arial,Helvetica,SansSerif" font-size="11.4583" lengthAdjust="spacing" textLength="100" x="490.1042" y="309.1431">XsltTransformer()</text><ellipse cx="478.6458" cy="321.9767" fill="#84BE84" rx="3.125" ry="3.125" style="stroke:#038048;stroke-width:1.0416666666666667;"/><text fill="#D8BC00" font-family="Open Sans,Avenir,Nunito,Arial,Helvetica,SansSerif" font-size="11.4583" lengthAdjust="spacing" textLength="133.3333" x="490.1042" y="328.8879">XsltTransformer(String)</text><line style="stroke:#5E5E5E;stroke-width:1.0416666666666667;" x1="468.2292" x2="506.25" y1="285.0677" y2="285.0677"/><text fill="#D8BC00" font-family="Open Sans,Avenir,Nunito,Arial,Helvetica,SansSerif" font-size="11.4583" lengthAdjust="spacing" textLength="81.25" x="509.375" y="288.8774">(constructors)</text><line style="stroke:#5E5E5E;stroke-width:1.0416666666666667;" x1="593.75" x2="631.7708" y1="285.0677" y2="285.0677"/><!--MD5=[92d0518afe397aaba33723bd82e42fb7]
class XsltTransformerBehavior--><rect codeLine="64" fill="#282828" height="103.123" id="XsltTransformerBehavior" rx="8.3333" ry="8.3333" style="stroke:#5E5E5E;stroke-width:1.0416666666666667;" width="213.5417" x="113.0208" y="446.932"/><rect fill="#1B1B1A" height="31.3883" rx="8.3333" ry="8.3333" style="stroke:#1B1B1A;stroke-width:1.0416666666666667;" width="213.5417" x="113.0208" y="446.932"/><rect fill="#1B1B1A" height="8.3333" style="stroke:#1B1B1A;stroke-width:1.0416666666666667;" width="213.5417" x="113.0208" y="469.987"/><rect codeLine="64" fill="none" height="103.123" id="XsltTransformerBehavior" rx="8.3333" ry="8.3333" style="stroke:#5E5E5E;stroke-width:1.0416666666666667;" width="213.5417" x="113.0208" y="446.932"/><ellipse cx="134.1667" cy="462.6261" fill="#0066CF" rx="10.4167" ry="10.4167" style="stroke:#0086EF;stroke-width:1.0416666666666667;"/><path d="M136.0771,467.0512 Q135.6498,467.2709 135.1799,467.3808 Q134.7099,467.4906 134.1911,467.4906 Q132.3478,467.4906 131.3774,466.276 Q130.4069,465.0614 130.4069,462.7665 Q130.4069,460.4655 131.3774,459.2509 Q132.3478,458.0363 134.1911,458.0363 Q134.7099,458.0363 135.186,458.1462 Q135.662,458.256 136.0771,458.4757 L136.0771,460.4777 Q135.6132,460.0505 135.1768,459.8521 Q134.7404,459.6537 134.2765,459.6537 Q133.2878,459.6537 132.7842,460.438 Q132.2807,461.2223 132.2807,462.7665 Q132.2807,464.3046 132.7842,465.0889 Q133.2878,465.8732 134.2765,465.8732 Q134.7404,465.8732 135.1768,465.6748 Q135.6132,465.4765 136.0771,465.0492 Z " fill="#000000"/><text fill="#D8BC00" font-family="Open Sans,Avenir,Nunito,Arial,Helvetica,SansSerif" font-size="12.5" font-weight="bold" lengthAdjust="spacing" textLength="161.4583" x="152.2917" y="467.3503">XsltTransformerBehavior</text><line style="stroke:#5E5E5E;stroke-width:1.5625;" x1="114.0625" x2="325.5208" y1="478.3203" y2="478.3203"/><ellipse cx="124.4792" cy="513.6902" fill="#84BE84" rx="3.125" ry="3.125" style="stroke:#038048;stroke-width:1.0416666666666667;"/><text fill="#D8BC00" font-family="Open Sans,Avenir,Nunito,Arial,Helvetica,SansSerif" font-size="11.4583" lengthAdjust="spacing" textLength="147.9167" x="135.9375" y="520.6014">XsltTransformerBehavior()</text><ellipse cx="124.4792" cy="533.4351" fill="#84BE84" rx="3.125" ry="3.125" style="stroke:#038048;stroke-width:1.0416666666666667;"/><text fill="#D8BC00" font-family="Open Sans,Avenir,Nunito,Arial,Helvetica,SansSerif" font-size="11.4583" lengthAdjust="spacing" textLength="181.25" x="135.9375" y="540.3463">XsltTransformerBehavior(String)</text><line style="stroke:#5E5E5E;stroke-width:1.0416666666666667;" x1="114.0625" x2="176.0417" y1="496.5261" y2="496.5261"/><text fill="#D8BC00" font-family="Open Sans,Avenir,Nunito,Arial,Helvetica,SansSerif" font-size="11.4583" lengthAdjust="spacing" textLength="81.25" x="179.1667" y="500.3357">(constructors)</text><line style="stroke:#5E5E5E;stroke-width:1.0416666666666667;" x1="263.5417" x2="325.5208" y1="496.5261" y2="496.5261"/><!--MD5=[e8c0d5866cced2cc789737a8e8b02d14]
reverse link MarkupContainer to AbstractOutputTransformerContainer--><path codeLine="11" d="M846.875,140.5361 C846.875,158.0986 846.875,178.9528 846.875,199.2965 " fill="none" id="MarkupContainer-backto-AbstractOutputTransformerContainer" style="stroke:#545454;stroke-width:1.5625;"/><polygon fill="none" points="839.5833,140.4945,846.875,119.6611,854.1667,140.4945,839.5833,140.4945" style="stroke:#545454;stroke-width:1.5625;"/><!--MD5=[ff9e02ddc0a62dff1d56b9e0c816e28a]
reverse link ITransformer to AbstractOutputTransformerContainer--><path codeLine="12" d="M630.7292,148.4528 C655.5313,164.2236 683.4688,182.0049 710.8125,199.4111 " fill="none" id="ITransformer-backto-AbstractOutputTransformerContainer" style="stroke:#545454;stroke-width:1.5625;"/><polygon fill="none" points="626.5313,154.4215,612.8646,137.0778,634.3646,142.1195,626.5313,154.4215" style="stroke:#545454;stroke-width:1.5625;"/><!--MD5=[f0314b5573e186ffb6f8dd44d9931aba]
reverse link Behavior to AbstractTransformerBehavior--><path codeLine="24" d="M219.7917,140.9424 C219.7917,172.5257 219.7917,214.5778 219.7917,245.2653 " fill="none" id="Behavior-backto-AbstractTransformerBehavior" style="stroke:#545454;stroke-width:1.5625;"/><polygon fill="none" points="212.5,140.4945,219.7917,119.6611,227.0833,140.4945,212.5,140.4945" style="stroke:#545454;stroke-width:1.5625;"/><!--MD5=[08666b841160887e050aad19e4902089]
reverse link ITransformer to AbstractTransformerBehavior--><path codeLine="25" d="M460.1354,147.5674 C406.9271,178.2132 340.2083,216.6403 290.5729,245.2236 " fill="none" id="ITransformer-backto-AbstractTransformerBehavior" style="stroke:#545454;stroke-width:1.5625;"/><polygon fill="none" points="456.6563,141.1611,478.3438,137.0778,463.9271,153.7965,456.6563,141.1611" style="stroke:#545454;stroke-width:1.5625;"/><!--MD5=[bf224c5f666817fbeeb9bf6487424e62]
reverse link AbstractOutputTransformerContainer to NoopOutputTransformerContainer--><path codeLine="38" d="M768.6146,391.5674 C754.0833,410.7861 739.5,430.0674 726.8438,446.7965 " fill="none" id="AbstractOutputTransformerContainer-backto-NoopOutputTransformerContainer" style="stroke:#545454;stroke-width:1.5625;"/><polygon fill="none" points="762.9479,386.9736,781.3333,374.7549,774.5833,395.7653,762.9479,386.9736" style="stroke:#545454;stroke-width:1.5625;"/><!--MD5=[a826403a23bf896e1378173b99b8a4ee]
reverse link AbstractOutputTransformerContainer to XsltOutputTransformerContainer--><path codeLine="46" d="M957.6563,388.8382 C975.7708,405.307 994.0313,421.9111 1010.6354,437.0153 " fill="none" id="AbstractOutputTransformerContainer-backto-XsltOutputTransformerContainer" style="stroke:#545454;stroke-width:1.5625;"/><polygon fill="none" points="952.6771,394.1611,942.1667,374.7549,962.4896,383.3695,952.6771,394.1611" style="stroke:#545454;stroke-width:1.5625;"/><!--MD5=[9c92ca3a9cf940f2ac36771256d881f9]
reverse link ITransformer to XsltTransformer--><path codeLine="55" d="M549.2917,157.932 C549.4375,182.932 549.5938,211.4632 549.7188,235.2445 " fill="none" id="ITransformer-backto-XsltTransformer" style="stroke:#545454;stroke-width:1.5625;"/><polygon fill="none" points="542,157.9528,549.1771,137.0778,556.5833,157.8695,542,157.9528" style="stroke:#545454;stroke-width:1.5625;"/><!--MD5=[931075ce46593da22bab4ec2afc03758]
reverse link AbstractTransformerBehavior to XsltTransformerBehavior--><path codeLine="63" d="M219.7917,350.1195 C219.7917,380.9007 219.7917,417.609 219.7917,446.6924 " fill="none" id="AbstractTransformerBehavior-backto-XsltTransformerBehavior" style="stroke:#545454;stroke-width:1.5625;"/><polygon fill="none" points="212.5,349.7757,219.7917,328.9424,227.0833,349.7757,212.5,349.7757" style="stroke:#545454;stroke-width:1.5625;"/><!--MD5=[ee17e784ac0a67bf7e5971fb595bac2d]
@startuml

    !include lexakai.theme
    
    title "org.apache.wicket.markup.transformer"
    
    abstract AbstractTransformerBehavior
    abstract AbstractOutputTransformerContainer
    
    interface ITransformer
    
    MarkupContainer <|- - AbstractOutputTransformerContainer
    ITransformer <|- - AbstractOutputTransformerContainer
    abstract class AbstractOutputTransformerContainer
    {
        - -(constructors)- -
        +AbstractOutputTransformerContainer(String)
        +AbstractOutputTransformerContainer(String, IModel<?>)
        - -
        +MarkupContainer setTransformBodyOnly(boolean value)
        - -(factory)- -
        #Response newResponse()
    }
    
    Behavior <|- - AbstractTransformerBehavior
    ITransformer <|- - AbstractTransformerBehavior
    abstract class AbstractTransformerBehavior
    {
        - -(factory)- -
        #BufferedWebResponse newResponse(WebResponse originalResponse)
    }
    
    interface ITransformer
    {
        - -(primitive)- -
        +CharSequence transform(Component, CharSequence output)
    }
    
    AbstractOutputTransformerContainer <|- - NoopOutputTransformerContainer
    class NoopOutputTransformerContainer
    {
        - -(constructors)- -
        +NoopOutputTransformerContainer(String)
        +NoopOutputTransformerContainer(String, IModel<?>)
    }
    
    AbstractOutputTransformerContainer <|- - XsltOutputTransformerContainer
    class XsltOutputTransformerContainer
    {
        - -(constructors)- -
        +XsltOutputTransformerContainer(String)
        +XsltOutputTransformerContainer(String, IModel<?>)
        +XsltOutputTransformerContainer(String, IModel<?>, String)
    }
    
    ITransformer <|- - XsltTransformer
    class XsltTransformer
    {
        - -(constructors)- -
        +XsltTransformer()
        +XsltTransformer(String)
    }
    
    AbstractTransformerBehavior <|- - XsltTransformerBehavior
    class XsltTransformerBehavior
    {
        - -(constructors)- -
        +XsltTransformerBehavior()
        +XsltTransformerBehavior(String)
    }
    
@enduml

@startuml









skinparam backgroundColor #333333






skinparam  {
    defaultFontName   "Open Sans,Avenir,Nunito,Arial,Helvetica,SansSerif"
    defaultFontSize   12
    defaultTextAlignment left
    shadowing false
    RoundCorner 10
    TitleFontSize 18
}

skinparam defaultFontName       "Open Sans,Avenir,Nunito,Arial,Helvetica,SansSerif"
skinparam defaultFontSize       12
skinparam dpi                   100
skinparam shadowing             false
skinparam roundcorner           16
skinparam ParticipantPadding    40
skinparam BoxPadding            40
skinparam Padding               3
skinparam ArrowColor            #545454
skinparam stereotype {
    CBackgroundColor #0066cf
    CBorderColor #0086ef
    ABackgroundColor #C8Ac00
    ABorderColor #D8Bc00
    IBackgroundColor #008400
    IBorderColor #239c23
    EBackgroundColor #cf6300
    EBorderColor #ef8300
    NBackgroundColor #3380b9
    NBorderColor #004d86
}
skinparam title {
	FontColor	                 #c0c0c0
 	BorderColor                  #545454
	FontSize	    	         20
	BorderRoundCorner            16
	BorderThickness 	         1
	BackgroundColor              #48494b
}


skinparam legend {
	BackgroundColor #303030
	BorderColor #404040
	FontColor #a0a0a0
}

	skinparam swimlane {
	BorderColor #5e5e5e
	BorderThickness 2
	TitleBackgroundColor  #6d6d6d-#484848
	TitleFontColor #303030
}

skinparam activity {
		FontColor #C8Ac00
	BorderColor #333333
	BackgroundColor #333333-#333333
	BarColor #00FF00
	StartColor #0060a8
	EndColor #0060a8
	DiamondBackgroundColor #6d6d6d-#3a3a3a
  	DiamondBorderColor #3a3a3a
  	DiamondFontColor #fefefe
}


skinparam participant {
		FontColor #C8Ac00
	BorderColor #333333
	BackgroundColor #333333-#333333
	ParticipantBorderThickness 2
}


skinparam actor {
		FontColor #C8Ac00
	BorderColor #333333
	BackgroundColor #333333-#333333
}


skinparam arrow {
	Thickness 1.5
	Color #545454
	FontColor #a0a0a0
    FontStyle bold
    MessageAlignment center
}



skinparam sequence {
	BorderColor #303030
	TitleFontColor #303030
	BackgroundColor #333333
	StartColor #303030
	EndColor #303030
	BoxBackgroundColor #333333
	BoxBorderColor #484848
	BoxFontColor #484848
	LifeLineBorderColor #484848
	LifeLineBorderThickness 2
	LifeLineBackgroundColor #3a3a3a
	GroupBorderColor #484848
	GroupFontColor #484848
	GroupHeaderFontColor #0060a8
	GroupBackgroundColor #484848
	GroupHeaderBackgroundColor #333333
	DividerBackgroundColor #484848
    DividerBorderColor #484848
    DividerBorderThickness 2
    DividerFontColor #D8Bc00
	ReferenceBackgroundColor #333333
	ReferenceBorderColor #484848
	ReferenceFontColor #fefefe
	ReferenceHeaderBackgroundColor #484848
}


skinparam partition {
	BorderColor #303030
	FontColor #333333
	BackgroundColor #333333
}


skinparam collections {
		FontColor #C8Ac00
	BorderColor #333333
	BackgroundColor #333333-#333333
}


skinparam control {
		FontColor #C8Ac00
	BorderColor #333333
	BackgroundColor #333333-#333333
}


skinparam entity {
		FontColor #C8Ac00
	BorderColor #333333
	BackgroundColor #333333-#333333
}


skinparam boundary {
		FontColor #C8Ac00
	BorderColor #333333
	BackgroundColor #333333-#333333
}


skinparam agent {
	BackgroundColor #ff8000
	BorderColor #ff9933
	FontColor #484848
}


skinparam note {
	BorderThickness 1
	BackgroundColor #1b1b1a
	BorderColor #5e5e5e
	FontSize 11
	FontColor #a0a0a0
}


skinparam artifact {
	BorderThickness 10
	BorderColor #5e5e5e
	BackgroundColor #1b1b1a
	FontColor #D8Bc00
}


skinparam component {
		FontColor #C8Ac00
	BorderColor #333333
	BackgroundColor #333333-#333333
}


skinparam interface {
	BackgroundColor  #008400
	BorderColor  #007F00
	FontColor #484848
}


skinparam storage {
	BackgroundColor #ff8000
  	BorderColor #cc6600
	FontColor #222222
}


skinparam node {
	BackgroundColor #333333
	BorderColor #333333
	FontColor #C8Ac00
}


skinparam cloud {
	BackgroundColor #484848-black
	BorderColor #484848
	FontColor #D8Bc00
}


skinparam database {
		FontColor #C8Ac00
	BorderColor #333333
	BackgroundColor #333333-#333333
	BackgroundColor  #333333
}


skinparam class {
		FontColor #C8Ac00
	BorderColor #333333
	BackgroundColor #333333-#333333
	HeaderBackgroundColor #1b1b1a
    BackgroundColor #282828
    BorderColor #5e5e5e
 	StereotypeFontColor #a0a0a0
    StereotypeFontStyle bold
	BorderThickness 1
	AttributeFontColor #D8Bc00
	AttributeFontSize 11
    FontColor #D8Bc00
    FontStyle bold
}


skinparam object {
		FontColor #C8Ac00
	BorderColor #333333
	BackgroundColor #333333-#333333
	StereotypeFontColor #484848
	BorderThickness 1
	AttributeFontColor #fefefe
	AttributeFontSize 11
}


skinparam usecase {
		FontColor #C8Ac00
	BorderColor #333333
	BackgroundColor #333333-#333333
	BorderThickness 2
	StereotypeFontColor #303030
}


skinparam rectangle {
		FontColor #C8Ac00
	BorderColor #333333
	BackgroundColor #333333-#333333
	BackgroundColor #333333
	BorderThickness 2
	StereotypeFontColor #303030
}


skinparam package {
		FontColor #C8Ac00
	BorderColor #333333
	BackgroundColor #333333-#333333
	BackgroundColor #333333
	BorderThickness 2
}


skinparam folder {
	BackgroundColor #6d6d6d
  	BorderColor #ff8000
	FontColor #ff8000
	BorderThickness 2
}


skinparam frame {
	BackgroundColor #6d6d6d
  	BorderColor #0060a8
	FontColor #0060a8
	BorderThickness 2
}


skinparam state {
		FontColor #C8Ac00
	BorderColor #333333
	BackgroundColor #333333-#333333
	StartColor #0060a8
	EndColor #0060a8
	AttributeFontColor #fefefe
	AttributeFontSize 11
}


skinparam queue {
		FontColor #C8Ac00
	BorderColor #333333
	BackgroundColor #333333-#333333
}


skinparam card {
	BackgroundColor #0060a8
	BorderColor #004d86
	FontColor $INFO_TEXT
}


skinparam file {
	BackgroundColor #6d6d6d-#484848
	BorderColor #0060a8
	FontColor #fefefe
}


skinparam stack {
		FontColor #C8Ac00
	BorderColor #333333
	BackgroundColor #333333-#333333
}

    
    title "org.apache.wicket.markup.transformer"
    
    abstract AbstractTransformerBehavior
    abstract AbstractOutputTransformerContainer
    
    interface ITransformer
    
    MarkupContainer <|- - AbstractOutputTransformerContainer
    ITransformer <|- - AbstractOutputTransformerContainer
    abstract class AbstractOutputTransformerContainer
    {
        - -(constructors)- -
        +AbstractOutputTransformerContainer(String)
        +AbstractOutputTransformerContainer(String, IModel<?>)
        - -
        +MarkupContainer setTransformBodyOnly(boolean value)
        - -(factory)- -
        #Response newResponse()
    }
    
    Behavior <|- - AbstractTransformerBehavior
    ITransformer <|- - AbstractTransformerBehavior
    abstract class AbstractTransformerBehavior
    {
        - -(factory)- -
        #BufferedWebResponse newResponse(WebResponse originalResponse)
    }
    
    interface ITransformer
    {
        - -(primitive)- -
        +CharSequence transform(Component, CharSequence output)
    }
    
    AbstractOutputTransformerContainer <|- - NoopOutputTransformerContainer
    class NoopOutputTransformerContainer
    {
        - -(constructors)- -
        +NoopOutputTransformerContainer(String)
        +NoopOutputTransformerContainer(String, IModel<?>)
    }
    
    AbstractOutputTransformerContainer <|- - XsltOutputTransformerContainer
    class XsltOutputTransformerContainer
    {
        - -(constructors)- -
        +XsltOutputTransformerContainer(String)
        +XsltOutputTransformerContainer(String, IModel<?>)
        +XsltOutputTransformerContainer(String, IModel<?>, String)
    }
    
    ITransformer <|- - XsltTransformer
    class XsltTransformer
    {
        - -(constructors)- -
        +XsltTransformer()
        +XsltTransformer(String)
    }
    
    AbstractTransformerBehavior <|- - XsltTransformerBehavior
    class XsltTransformerBehavior
    {
        - -(constructors)- -
        +XsltTransformerBehavior()
        +XsltTransformerBehavior(String)
    }
    
@enduml

PlantUML version 1.2021.01(Tue Feb 02 00:55:08 MST 2021)
(GPL source distribution)
Java Runtime: Java(TM) SE Runtime Environment
JVM: Java HotSpot(TM) 64-Bit Server VM
Default Encoding: UTF-8
Language: en
Country: US
--></g></svg>