<?xml version="1.0" encoding="UTF-8" standalone="no"?><svg xmlns="http://www.w3.org/2000/svg" xmlns:xlink="http://www.w3.org/1999/xlink" contentScriptType="application/ecmascript" contentStyleType="text/css" height="693.75px" preserveAspectRatio="none" style="width:1431px;height:693px;background:#333333;" version="1.1" viewBox="0 0 1431 693" width="1431.25px" zoomAndPan="magnify"><defs/><g><rect fill="#48494B" height="41.2028" rx="8.3333" ry="8.3333" style="stroke:#545454;stroke-width:1.0416666666666667;" width="403.125" x="507.0313" y="2.0833"/><text fill="#C0C0C0" font-family="Open Sans,Avenir,Nunito,Arial,Helvetica,SansSerif" font-size="20.8333" lengthAdjust="spacing" textLength="380.2083" x="518.4896" y="30.5583">org.apache.wicket.markup.head.http2</text><!--MD5=[1cb8c061371b9b62c052618a661a306c]
cluster PushItemHeaderValue--><polygon fill="#333333" points="1232.8125,66.7236,1385.9375,66.7236,1393.2292,93.9453,1414.0625,93.9453,1414.0625,211.5153,1232.8125,211.5153,1232.8125,66.7236" style="stroke:#333333;stroke-width:2.0833333333333335;"/><line style="stroke:#333333;stroke-width:2.0833333333333335;" x1="1232.8125" x2="1393.2292" y1="93.9453" y2="93.9453"/><text fill="#C8AC00" font-family="Open Sans,Avenir,Nunito,Arial,Helvetica,SansSerif" font-size="12.5" font-weight="bold" lengthAdjust="spacing" textLength="140.625" x="1240.1042" y="84.0169">PushItemHeaderValue</text><!--MD5=[dda2cbcb0b7cd81506afbc88280b5724]
class PushItemHeaderValue.HeaderOperation--><rect codeLine="9" fill="#282828" height="87.5448" id="PushItemHeaderValue.HeaderOperation" rx="8.3333" ry="8.3333" style="stroke:#5E5E5E;stroke-width:1.0416666666666667;" width="146.875" x="1250" y="107.3486"/><rect fill="#1B1B1A" height="31.3883" rx="8.3333" ry="8.3333" style="stroke:#1B1B1A;stroke-width:1.0416666666666667;" width="146.875" x="1250" y="107.3486"/><rect fill="#1B1B1A" height="8.3333" style="stroke:#1B1B1A;stroke-width:1.0416666666666667;" width="146.875" x="1250" y="130.4036"/><rect codeLine="9" fill="none" height="87.5448" id="PushItemHeaderValue.HeaderOperation" rx="8.3333" ry="8.3333" style="stroke:#5E5E5E;stroke-width:1.0416666666666667;" width="146.875" x="1250" y="107.3486"/><ellipse cx="1264.5833" cy="123.0428" fill="#CF6300" rx="10.4167" ry="10.4167" style="stroke:#EF8300;stroke-width:1.0416666666666667;"/><path d="M1267.6392,127.7303 L1261.9629,127.7303 L1261.9629,118.6178 L1267.6392,118.6178 L1267.6392,120.2047 L1263.7634,120.2047 L1263.7634,122.17 L1267.2729,122.17 L1267.2729,123.7569 L1263.7634,123.7569 L1263.7634,126.1434 L1267.6392,126.1434 Z " fill="#000000"/><text fill="#D8BC00" font-family="Open Sans,Avenir,Nunito,Arial,Helvetica,SansSerif" font-size="12.5" font-weight="bold" lengthAdjust="spacing" textLength="109.375" x="1281.25" y="127.7669">HeaderOperation</text><line style="stroke:#5E5E5E;stroke-width:1.0416666666666667;" x1="1251.0417" x2="1395.8333" y1="138.737" y2="138.737"/><text fill="#D8BC00" font-family="Open Sans,Avenir,Nunito,Arial,Helvetica,SansSerif" font-size="11.4583" lengthAdjust="spacing" textLength="25" x="1259.375" y="157.1065">ADD</text><text fill="#D8BC00" font-family="Open Sans,Avenir,Nunito,Arial,Helvetica,SansSerif" font-size="11.4583" lengthAdjust="spacing" textLength="19.7917" x="1259.375" y="176.8514">SET</text><line style="stroke:#5E5E5E;stroke-width:1.0416666666666667;" x1="1251.0417" x2="1395.8333" y1="186.5601" y2="186.5601"/><!--MD5=[cc3de0a176daa3c4ec875deafdf5ddd1]
class Serializable--><rect codeLine="6" fill="#282828" height="48.055" id="Serializable" rx="8.3333" ry="8.3333" style="stroke:#5E5E5E;stroke-width:1.0416666666666667;" width="111.4583" x="180.2083" y="127.1403"/><rect fill="#1B1B1A" height="31.3883" rx="8.3333" ry="8.3333" style="stroke:#1B1B1A;stroke-width:1.0416666666666667;" width="111.4583" x="180.2083" y="127.1403"/><rect fill="#1B1B1A" height="8.3333" style="stroke:#1B1B1A;stroke-width:1.0416666666666667;" width="111.4583" x="180.2083" y="150.1953"/><rect codeLine="6" fill="none" height="48.055" id="Serializable" rx="8.3333" ry="8.3333" style="stroke:#5E5E5E;stroke-width:1.0416666666666667;" width="111.4583" x="180.2083" y="127.1403"/><ellipse cx="194.7917" cy="142.8345" fill="#008400" rx="10.4167" ry="10.4167" style="stroke:#239C23;stroke-width:1.0416666666666667;"/><path d="M192.1956,139.9963 L192.1956,138.4094 L197.6217,138.4094 L197.6217,139.9963 L195.8089,139.9963 L195.8089,145.9351 L197.6217,145.9351 L197.6217,147.522 L192.1956,147.522 L192.1956,145.9351 L194.0084,145.9351 L194.0084,139.9963 Z " fill="#000000"/><text fill="#D8BC00" font-family="Open Sans,Avenir,Nunito,Arial,Helvetica,SansSerif" font-size="12.5" font-style="italic" font-weight="bold" lengthAdjust="spacing" textLength="73.9583" x="211.4583" y="147.5586">Serializable</text><line style="stroke:#5E5E5E;stroke-width:1.0416666666666667;" x1="181.25" x2="290.625" y1="158.5286" y2="158.5286"/><line style="stroke:#5E5E5E;stroke-width:1.0416666666666667;" x1="181.25" x2="290.625" y1="166.862" y2="166.862"/><!--MD5=[1c6baddffd6a5ab105c2f4f8ac5410b8]
class IPushBuilder--><rect codeLine="15" fill="#282828" height="83.3781" id="IPushBuilder" rx="8.3333" ry="8.3333" style="stroke:#5E5E5E;stroke-width:1.0416666666666667;" width="330.2083" x="393.75" y="109.432"/><rect fill="#1B1B1A" height="31.3883" rx="8.3333" ry="8.3333" style="stroke:#1B1B1A;stroke-width:1.0416666666666667;" width="330.2083" x="393.75" y="109.432"/><rect fill="#1B1B1A" height="8.3333" style="stroke:#1B1B1A;stroke-width:1.0416666666666667;" width="330.2083" x="393.75" y="132.487"/><rect codeLine="15" fill="none" height="83.3781" id="IPushBuilder" rx="8.3333" ry="8.3333" style="stroke:#5E5E5E;stroke-width:1.0416666666666667;" width="330.2083" x="393.75" y="109.432"/><ellipse cx="510.9375" cy="125.1261" fill="#008400" rx="10.4167" ry="10.4167" style="stroke:#239C23;stroke-width:1.0416666666666667;"/><path d="M508.3415,122.288 L508.3415,120.7011 L513.7675,120.7011 L513.7675,122.288 L511.9548,122.288 L511.9548,128.2267 L513.7675,128.2267 L513.7675,129.8136 L508.3415,129.8136 L508.3415,128.2267 L510.1542,128.2267 L510.1542,122.288 Z " fill="#000000"/><text fill="#D8BC00" font-family="Open Sans,Avenir,Nunito,Arial,Helvetica,SansSerif" font-size="12.5" font-style="italic" font-weight="bold" lengthAdjust="spacing" textLength="81.25" x="533.8542" y="129.8503">IPushBuilder</text><line style="stroke:#5E5E5E;stroke-width:1.5625;" x1="394.7917" x2="722.9167" y1="140.8203" y2="140.8203"/><ellipse cx="405.2083" cy="176.1902" fill="#84BE84" rx="3.125" ry="3.125" style="stroke:#038048;stroke-width:1.0416666666666667;"/><text fill="#D8BC00" font-family="Open Sans,Avenir,Nunito,Arial,Helvetica,SansSerif" font-size="11.4583" lengthAdjust="spacing" textLength="297.9167" x="416.6667" y="183.1014">void push(HttpServletRequest, PushItem... pushItems)</text><line style="stroke:#5E5E5E;stroke-width:1.0416666666666667;" x1="394.7917" x2="524.4792" y1="159.0261" y2="159.0261"/><text fill="#D8BC00" font-family="Open Sans,Avenir,Nunito,Arial,Helvetica,SansSerif" font-size="11.4583" lengthAdjust="spacing" textLength="62.5" x="527.6042" y="162.8357">(collection)</text><line style="stroke:#5E5E5E;stroke-width:1.0416666666666667;" x1="593.2292" x2="722.9167" y1="159.0261" y2="159.0261"/><!--MD5=[10fde510e9d9ebba3bb51132fb6d1b03]
class PushBuilder--><rect codeLine="22" fill="#282828" height="48.055" id="PushBuilder" rx="8.3333" ry="8.3333" style="stroke:#5E5E5E;stroke-width:1.0416666666666667;" width="114.5833" x="501.5625" y="475.057"/><rect fill="#1B1B1A" height="31.3883" rx="8.3333" ry="8.3333" style="stroke:#1B1B1A;stroke-width:1.0416666666666667;" width="114.5833" x="501.5625" y="475.057"/><rect fill="#1B1B1A" height="8.3333" style="stroke:#1B1B1A;stroke-width:1.0416666666666667;" width="114.5833" x="501.5625" y="498.112"/><rect codeLine="22" fill="none" height="48.055" id="PushBuilder" rx="8.3333" ry="8.3333" style="stroke:#5E5E5E;stroke-width:1.0416666666666667;" width="114.5833" x="501.5625" y="475.057"/><ellipse cx="516.1458" cy="490.7511" fill="#0066CF" rx="10.4167" ry="10.4167" style="stroke:#0086EF;stroke-width:1.0416666666666667;"/><path d="M518.0562,495.1762 Q517.629,495.3959 517.159,495.5058 Q516.689,495.6156 516.1702,495.6156 Q514.327,495.6156 513.3565,494.401 Q512.3861,493.1864 512.3861,490.8915 Q512.3861,488.5905 513.3565,487.3759 Q514.327,486.1613 516.1702,486.1613 Q516.689,486.1613 517.1651,486.2712 Q517.6412,486.381 518.0562,486.6007 L518.0562,488.6027 Q517.5924,488.1755 517.156,487.9771 Q516.7196,487.7787 516.2557,487.7787 Q515.2669,487.7787 514.7634,488.563 Q514.2598,489.3473 514.2598,490.8915 Q514.2598,492.4296 514.7634,493.2139 Q515.2669,493.9982 516.2557,493.9982 Q516.7196,493.9982 517.156,493.7998 Q517.5924,493.6015 518.0562,493.1742 Z " fill="#000000"/><text fill="#D8BC00" font-family="Open Sans,Avenir,Nunito,Arial,Helvetica,SansSerif" font-size="12.5" font-weight="bold" lengthAdjust="spacing" textLength="77.0833" x="532.8125" y="495.4753">PushBuilder</text><line style="stroke:#5E5E5E;stroke-width:1.0416666666666667;" x1="502.6042" x2="615.1042" y1="506.4453" y2="506.4453"/><line style="stroke:#5E5E5E;stroke-width:1.0416666666666667;" x1="502.6042" x2="615.1042" y1="514.7786" y2="514.7786"/><!--MD5=[2abb06888b19d0079adcba0c6ba7bf19]
class HeaderItem--><rect fill="#282828" height="48.055" id="HeaderItem" rx="8.3333" ry="8.3333" style="stroke:#5E5E5E;stroke-width:1.0416666666666667;" width="111.4583" x="768.75" y="127.1403"/><rect fill="#1B1B1A" height="31.3883" rx="8.3333" ry="8.3333" style="stroke:#1B1B1A;stroke-width:1.0416666666666667;" width="111.4583" x="768.75" y="127.1403"/><rect fill="#1B1B1A" height="8.3333" style="stroke:#1B1B1A;stroke-width:1.0416666666666667;" width="111.4583" x="768.75" y="150.1953"/><rect fill="none" height="48.055" id="HeaderItem" rx="8.3333" ry="8.3333" style="stroke:#5E5E5E;stroke-width:1.0416666666666667;" width="111.4583" x="768.75" y="127.1403"/><ellipse cx="783.3333" cy="142.8345" fill="#0066CF" rx="10.4167" ry="10.4167" style="stroke:#0086EF;stroke-width:1.0416666666666667;"/><path d="M785.2437,147.2595 Q784.8165,147.4792 784.3465,147.5891 Q783.8765,147.699 783.3577,147.699 Q781.5145,147.699 780.544,146.4844 Q779.5736,145.2698 779.5736,142.9749 Q779.5736,140.6738 780.544,139.4592 Q781.5145,138.2446 783.3577,138.2446 Q783.8765,138.2446 784.3526,138.3545 Q784.8287,138.4644 785.2437,138.6841 L785.2437,140.686 Q784.7799,140.2588 784.3435,140.0604 Q783.9071,139.8621 783.4432,139.8621 Q782.4544,139.8621 781.9509,140.6464 Q781.4473,141.4307 781.4473,142.9749 Q781.4473,144.5129 781.9509,145.2972 Q782.4544,146.0815 783.4432,146.0815 Q783.9071,146.0815 784.3435,145.8832 Q784.7799,145.6848 785.2437,145.2576 Z " fill="#000000"/><text fill="#D8BC00" font-family="Open Sans,Avenir,Nunito,Arial,Helvetica,SansSerif" font-size="12.5" font-weight="bold" lengthAdjust="spacing" textLength="73.9583" x="800" y="147.5586">HeaderItem</text><line style="stroke:#5E5E5E;stroke-width:1.0416666666666667;" x1="769.7917" x2="879.1667" y1="158.5286" y2="158.5286"/><line style="stroke:#5E5E5E;stroke-width:1.0416666666666667;" x1="769.7917" x2="879.1667" y1="166.862" y2="166.862"/><!--MD5=[1d17f77470e2fa3497a9fd84a980dca4]
class PushHeaderItem--><rect codeLine="27" fill="#282828" height="345.3166" id="PushHeaderItem" rx="8.3333" ry="8.3333" style="stroke:#5E5E5E;stroke-width:1.0416666666666667;" width="343.75" x="652.6042" y="326.0986"/><rect fill="#1B1B1A" height="31.3883" rx="8.3333" ry="8.3333" style="stroke:#1B1B1A;stroke-width:1.0416666666666667;" width="343.75" x="652.6042" y="326.0986"/><rect fill="#1B1B1A" height="8.3333" style="stroke:#1B1B1A;stroke-width:1.0416666666666667;" width="343.75" x="652.6042" y="349.1536"/><rect codeLine="27" fill="none" height="345.3166" id="PushHeaderItem" rx="8.3333" ry="8.3333" style="stroke:#5E5E5E;stroke-width:1.0416666666666667;" width="343.75" x="652.6042" y="326.0986"/><ellipse cx="764.5833" cy="341.7928" fill="#0066CF" rx="10.4167" ry="10.4167" style="stroke:#0086EF;stroke-width:1.0416666666666667;"/><path d="M766.4937,346.2179 Q766.0665,346.4376 765.5965,346.5474 Q765.1265,346.6573 764.6077,346.6573 Q762.7645,346.6573 761.794,345.4427 Q760.8236,344.2281 760.8236,341.9332 Q760.8236,339.6322 761.794,338.4176 Q762.7645,337.203 764.6077,337.203 Q765.1265,337.203 765.6026,337.3128 Q766.0787,337.4227 766.4937,337.6424 L766.4937,339.6444 Q766.0299,339.2171 765.5935,339.0188 Q765.1571,338.8204 764.6932,338.8204 Q763.7044,338.8204 763.2009,339.6047 Q762.6973,340.389 762.6973,341.9332 Q762.6973,343.4713 763.2009,344.2556 Q763.7044,345.0399 764.6932,345.0399 Q765.1571,345.0399 765.5935,344.8415 Q766.0299,344.6431 766.4937,344.2159 Z " fill="#000000"/><text fill="#D8BC00" font-family="Open Sans,Avenir,Nunito,Arial,Helvetica,SansSerif" font-size="12.5" font-weight="bold" lengthAdjust="spacing" textLength="105.2083" x="787.5" y="346.5169">PushHeaderItem</text><line style="stroke:#5E5E5E;stroke-width:1.5625;" x1="653.6458" x2="995.3125" y1="357.487" y2="357.487"/><ellipse cx="664.0625" cy="392.8569" fill="#84BE84" rx="3.125" ry="3.125" style="stroke:#038048;stroke-width:1.0416666666666667;"/><text fill="#D8BC00" font-family="Open Sans,Avenir,Nunito,Arial,Helvetica,SansSerif" font-size="11.4583" lengthAdjust="spacing" textLength="236.4583" x="675.5208" y="399.7681">PushHeaderItem(Page, Request, Response)</text><ellipse cx="664.0625" cy="412.6017" fill="#84BE84" rx="3.125" ry="3.125" style="stroke:#038048;stroke-width:1.0416666666666667;"/><text fill="#D8BC00" font-family="Open Sans,Avenir,Nunito,Arial,Helvetica,SansSerif" font-size="11.4583" lengthAdjust="spacing" textLength="311.4583" x="675.5208" y="419.5129">PushHeaderItem(Page, Request, Response, IPushBuilder)</text><line style="stroke:#5E5E5E;stroke-width:1.0416666666666667;" x1="653.6458" x2="780.7292" y1="375.6927" y2="375.6927"/><text fill="#D8BC00" font-family="Open Sans,Avenir,Nunito,Arial,Helvetica,SansSerif" font-size="11.4583" lengthAdjust="spacing" textLength="81.25" x="783.8542" y="379.5024">(constructors)</text><line style="stroke:#5E5E5E;stroke-width:1.0416666666666667;" x1="868.2292" x2="995.3125" y1="375.6927" y2="375.6927"/><line style="stroke:#5E5E5E;stroke-width:1.0416666666666667;" x1="653.6458" x2="995.3125" y1="429.2216" y2="429.2216"/><polygon fill="#FFFF44" points="664.0625,435.4716,668.2292,439.6383,664.0625,443.8049,659.8958,439.6383" style="stroke:#B38D22;stroke-width:1.0416666666666667;"/><text fill="#D8BC00" font-family="Open Sans,Avenir,Nunito,Arial,Helvetica,SansSerif" font-size="11.4583" lengthAdjust="spacing" textLength="165.625" x="675.5208" y="447.5911">void applyPageCacheHeader()</text><ellipse cx="664.0625" cy="484.3363" fill="#84BE84" rx="3.125" ry="3.125" style="stroke:#038048;stroke-width:1.0416666666666667;"/><text fill="#D8BC00" font-family="Open Sans,Avenir,Nunito,Arial,Helvetica,SansSerif" font-size="11.4583" lengthAdjust="spacing" textLength="203.125" x="675.5208" y="491.2476">boolean isHttp2(HttpServletRequest)</text><line style="stroke:#5E5E5E;stroke-width:1.0416666666666667;" x1="653.6458" x2="797.9167" y1="467.1722" y2="467.1722"/><text fill="#D8BC00" font-family="Open Sans,Avenir,Nunito,Arial,Helvetica,SansSerif" font-size="11.4583" lengthAdjust="spacing" textLength="46.875" x="801.0417" y="470.9819">(checks)</text><line style="stroke:#5E5E5E;stroke-width:1.0416666666666667;" x1="851.0417" x2="995.3125" y1="467.1722" y2="467.1722"/><ellipse cx="664.0625" cy="527.9928" fill="#84BE84" rx="3.125" ry="3.125" style="stroke:#038048;stroke-width:1.0416666666666667;"/><text fill="#D8BC00" font-family="Open Sans,Avenir,Nunito,Arial,Helvetica,SansSerif" font-size="11.4583" lengthAdjust="spacing" textLength="281.25" x="675.5208" y="534.904">PushHeaderItem push(List&lt;PushItem&gt; pushItems)</text><polygon fill="#FFFF44" points="664.0625,542.5293,668.2292,546.696,664.0625,550.8626,659.8958,546.696" style="stroke:#B38D22;stroke-width:1.0416666666666667;"/><text fill="#D8BC00" font-family="Open Sans,Avenir,Nunito,Arial,Helvetica,SansSerif" font-size="11.4583" lengthAdjust="spacing" textLength="169.7917" x="675.5208" y="554.6488">void push(HttpServletRequest)</text><line style="stroke:#5E5E5E;stroke-width:1.0416666666666667;" x1="653.6458" x2="790.1042" y1="510.8287" y2="510.8287"/><text fill="#D8BC00" font-family="Open Sans,Avenir,Nunito,Arial,Helvetica,SansSerif" font-size="11.4583" lengthAdjust="spacing" textLength="62.5" x="793.2292" y="514.6383">(collection)</text><line style="stroke:#5E5E5E;stroke-width:1.0416666666666667;" x1="858.8542" x2="995.3125" y1="510.8287" y2="510.8287"/><ellipse cx="664.0625" cy="591.394" fill="#84BE84" rx="3.125" ry="3.125" style="stroke:#038048;stroke-width:1.0416666666666667;"/><text fill="#D8BC00" font-family="Open Sans,Avenir,Nunito,Arial,Helvetica,SansSerif" font-size="11.4583" lengthAdjust="spacing" textLength="301.0417" x="675.5208" y="598.3053">HttpServletRequest checkHttpServletRequest(Request)</text><ellipse cx="664.0625" cy="611.1389" fill="#84BE84" rx="3.125" ry="3.125" style="stroke:#038048;stroke-width:1.0416666666666667;"/><text fill="#D8BC00" font-family="Open Sans,Avenir,Nunito,Arial,Helvetica,SansSerif" font-size="11.4583" lengthAdjust="spacing" textLength="280.2083" x="675.5208" y="618.0501">HttpServletRequest getContainerRequest(Request)</text><line style="stroke:#5E5E5E;stroke-width:1.0416666666666667;" x1="653.6458" x2="794.7917" y1="574.2299" y2="574.2299"/><text fill="#D8BC00" font-family="Open Sans,Avenir,Nunito,Arial,Helvetica,SansSerif" font-size="11.4583" lengthAdjust="spacing" textLength="53.125" x="797.9167" y="578.0396">(network)</text><line style="stroke:#5E5E5E;stroke-width:1.0416666666666667;" x1="854.1667" x2="995.3125" y1="574.2299" y2="574.2299"/><polygon fill="#FFFF44" points="664.0625,649.587,668.2292,653.7537,664.0625,657.9203,659.8958,653.7537" style="stroke:#B38D22;stroke-width:1.0416666666666667;"/><text fill="#D8BC00" font-family="Open Sans,Avenir,Nunito,Arial,Helvetica,SansSerif" font-size="11.4583" lengthAdjust="spacing" textLength="189.5833" x="675.5208" y="661.7065">Instant getPageModificationTime()</text><line style="stroke:#5E5E5E;stroke-width:1.0416666666666667;" x1="653.6458" x2="805.2083" y1="637.6312" y2="637.6312"/><text fill="#D8BC00" font-family="Open Sans,Avenir,Nunito,Arial,Helvetica,SansSerif" font-size="11.4583" lengthAdjust="spacing" textLength="32.2917" x="808.3333" y="641.4408">(time)</text><line style="stroke:#5E5E5E;stroke-width:1.0416666666666667;" x1="843.75" x2="995.3125" y1="637.6312" y2="637.6312"/><!--MD5=[b3f85b2603a28cd3cee20afb23410eef]
class PushItem--><rect codeLine="47" fill="#282828" height="376.473" id="PushItem" rx="8.3333" ry="8.3333" style="stroke:#5E5E5E;stroke-width:1.0416666666666667;" width="457.2917" x="7.2917" y="310.9945"/><rect fill="#1B1B1A" height="31.3883" rx="8.3333" ry="8.3333" style="stroke:#1B1B1A;stroke-width:1.0416666666666667;" width="457.2917" x="7.2917" y="310.9945"/><rect fill="#1B1B1A" height="8.3333" style="stroke:#1B1B1A;stroke-width:1.0416666666666667;" width="457.2917" x="7.2917" y="334.0495"/><rect codeLine="47" fill="none" height="376.473" id="PushItem" rx="8.3333" ry="8.3333" style="stroke:#5E5E5E;stroke-width:1.0416666666666667;" width="457.2917" x="7.2917" y="310.9945"/><ellipse cx="198.4375" cy="326.6886" fill="#0066CF" rx="10.4167" ry="10.4167" style="stroke:#0086EF;stroke-width:1.0416666666666667;"/><path d="M200.3479,331.1137 Q199.9207,331.3334 199.4507,331.4433 Q198.9807,331.5531 198.4619,331.5531 Q196.6187,331.5531 195.6482,330.3385 Q194.6777,329.1239 194.6777,326.829 Q194.6777,324.528 195.6482,323.3134 Q196.6187,322.0988 198.4619,322.0988 Q198.9807,322.0988 199.4568,322.2087 Q199.9329,322.3185 200.3479,322.5382 L200.3479,324.5402 Q199.884,324.113 199.4476,323.9146 Q199.0112,323.7162 198.5474,323.7162 Q197.5586,323.7162 197.0551,324.5005 Q196.5515,325.2848 196.5515,326.829 Q196.5515,328.3671 197.0551,329.1514 Q197.5586,329.9357 198.5474,329.9357 Q199.0112,329.9357 199.4476,329.7373 Q199.884,329.539 200.3479,329.1117 Z " fill="#000000"/><text fill="#D8BC00" font-family="Open Sans,Avenir,Nunito,Arial,Helvetica,SansSerif" font-size="12.5" font-weight="bold" lengthAdjust="spacing" textLength="60.4167" x="221.3542" y="331.4128">PushItem</text><line style="stroke:#5E5E5E;stroke-width:1.5625;" x1="8.3333" x2="463.5417" y1="342.3828" y2="342.3828"/><ellipse cx="18.75" cy="377.7527" fill="#84BE84" rx="3.125" ry="3.125" style="stroke:#038048;stroke-width:1.0416666666666667;"/><text fill="#D8BC00" font-family="Open Sans,Avenir,Nunito,Arial,Helvetica,SansSerif" font-size="11.4583" lengthAdjust="spacing" textLength="59.375" x="30.2083" y="384.6639">PushItem()</text><ellipse cx="18.75" cy="397.4976" fill="#84BE84" rx="3.125" ry="3.125" style="stroke:#038048;stroke-width:1.0416666666666667;"/><text fill="#D8BC00" font-family="Open Sans,Avenir,Nunito,Arial,Helvetica,SansSerif" font-size="11.4583" lengthAdjust="spacing" textLength="121.875" x="30.2083" y="404.4088">PushItem(Serializable)</text><ellipse cx="18.75" cy="417.2424" fill="#84BE84" rx="3.125" ry="3.125" style="stroke:#038048;stroke-width:1.0416666666666667;"/><text fill="#D8BC00" font-family="Open Sans,Avenir,Nunito,Arial,Helvetica,SansSerif" font-size="11.4583" lengthAdjust="spacing" textLength="330.2083" x="30.2083" y="424.1536">PushItem(Serializable, Map&lt;String, PushItemHeaderValue&gt;)</text><ellipse cx="18.75" cy="436.9873" fill="#84BE84" rx="3.125" ry="3.125" style="stroke:#038048;stroke-width:1.0416666666666667;"/><text fill="#D8BC00" font-family="Open Sans,Avenir,Nunito,Arial,Helvetica,SansSerif" font-size="11.4583" lengthAdjust="spacing" textLength="216.6667" x="30.2083" y="443.8985">PushItem(Serializable, PageParameters)</text><ellipse cx="18.75" cy="456.7322" fill="#84BE84" rx="3.125" ry="3.125" style="stroke:#038048;stroke-width:1.0416666666666667;"/><text fill="#D8BC00" font-family="Open Sans,Avenir,Nunito,Arial,Helvetica,SansSerif" font-size="11.4583" lengthAdjust="spacing" textLength="425" x="30.2083" y="463.6434">PushItem(Serializable, PageParameters, Map&lt;String, PushItemHeaderValue&gt;)</text><line style="stroke:#5E5E5E;stroke-width:1.0416666666666667;" x1="8.3333" x2="192.1875" y1="360.5886" y2="360.5886"/><text fill="#D8BC00" font-family="Open Sans,Avenir,Nunito,Arial,Helvetica,SansSerif" font-size="11.4583" lengthAdjust="spacing" textLength="81.25" x="195.3125" y="364.3982">(constructors)</text><line style="stroke:#5E5E5E;stroke-width:1.0416666666666667;" x1="279.6875" x2="463.5417" y1="360.5886" y2="360.5886"/><line style="stroke:#5E5E5E;stroke-width:1.0416666666666667;" x1="8.3333" x2="463.5417" y1="473.3521" y2="473.3521"/><ellipse cx="18.75" cy="484.8104" fill="#84BE84" rx="3.125" ry="3.125" style="stroke:#038048;stroke-width:1.0416666666666667;"/><text fill="#D8BC00" font-family="Open Sans,Avenir,Nunito,Arial,Helvetica,SansSerif" font-size="11.4583" lengthAdjust="spacing" textLength="102.0833" x="30.2083" y="491.7216">Object getObject()</text><ellipse cx="18.75" cy="504.5553" fill="#84BE84" rx="3.125" ry="3.125" style="stroke:#038048;stroke-width:1.0416666666666667;"/><text fill="#D8BC00" font-family="Open Sans,Avenir,Nunito,Arial,Helvetica,SansSerif" font-size="11.4583" lengthAdjust="spacing" textLength="206.25" x="30.2083" y="511.4665">PageParameters getPageParameters()</text><ellipse cx="18.75" cy="548.2117" fill="#84BE84" rx="3.125" ry="3.125" style="stroke:#038048;stroke-width:1.0416666666666667;"/><text fill="#D8BC00" font-family="Open Sans,Avenir,Nunito,Arial,Helvetica,SansSerif" font-size="11.4583" lengthAdjust="spacing" textLength="273.9583" x="30.2083" y="555.1229">Map&lt;String,PushItemHeaderValue&gt; getHeaders()</text><ellipse cx="18.75" cy="567.9565" fill="#84BE84" rx="3.125" ry="3.125" style="stroke:#038048;stroke-width:1.0416666666666667;"/><text fill="#D8BC00" font-family="Open Sans,Avenir,Nunito,Arial,Helvetica,SansSerif" font-size="11.4583" lengthAdjust="spacing" textLength="371.875" x="30.2083" y="574.8678">PushItem setHeaders(Map&lt;String,PushItemHeaderValue&gt; headers)</text><ellipse cx="18.75" cy="587.7014" fill="#84BE84" rx="3.125" ry="3.125" style="stroke:#038048;stroke-width:1.0416666666666667;"/><text fill="#D8BC00" font-family="Open Sans,Avenir,Nunito,Arial,Helvetica,SansSerif" font-size="11.4583" lengthAdjust="spacing" textLength="215.625" x="30.2083" y="594.6126">PushItem setObject(Serializable object)</text><ellipse cx="18.75" cy="607.4463" fill="#84BE84" rx="3.125" ry="3.125" style="stroke:#038048;stroke-width:1.0416666666666667;"/><text fill="#D8BC00" font-family="Open Sans,Avenir,Nunito,Arial,Helvetica,SansSerif" font-size="11.4583" lengthAdjust="spacing" textLength="256.25" x="30.2083" y="614.3575">PushItem setPageParameters(PageParameters)</text><ellipse cx="18.75" cy="627.1912" fill="#84BE84" rx="3.125" ry="3.125" style="stroke:#038048;stroke-width:1.0416666666666667;"/><text fill="#D8BC00" font-family="Open Sans,Avenir,Nunito,Arial,Helvetica,SansSerif" font-size="11.4583" lengthAdjust="spacing" textLength="147.9167" x="30.2083" y="634.1024">PushItem setUrl(String url)</text><line style="stroke:#5E5E5E;stroke-width:1.0416666666666667;" x1="8.3333" x2="201.5625" y1="531.0476" y2="531.0476"/><text fill="#D8BC00" font-family="Open Sans,Avenir,Nunito,Arial,Helvetica,SansSerif" font-size="11.4583" lengthAdjust="spacing" textLength="62.5" x="204.6875" y="534.8572">(collection)</text><line style="stroke:#5E5E5E;stroke-width:1.0416666666666667;" x1="270.3125" x2="463.5417" y1="531.0476" y2="531.0476"/><ellipse cx="18.75" cy="670.8476" fill="#84BE84" rx="3.125" ry="3.125" style="stroke:#038048;stroke-width:1.0416666666666667;"/><text fill="#D8BC00" font-family="Open Sans,Avenir,Nunito,Arial,Helvetica,SansSerif" font-size="11.4583" lengthAdjust="spacing" textLength="79.1667" x="30.2083" y="677.7588">String getUrl()</text><line style="stroke:#5E5E5E;stroke-width:1.0416666666666667;" x1="8.3333" x2="206.25" y1="653.6835" y2="653.6835"/><text fill="#D8BC00" font-family="Open Sans,Avenir,Nunito,Arial,Helvetica,SansSerif" font-size="11.4583" lengthAdjust="spacing" textLength="53.125" x="209.375" y="657.4931">(network)</text><line style="stroke:#5E5E5E;stroke-width:1.0416666666666667;" x1="265.625" x2="463.5417" y1="653.6835" y2="653.6835"/><!--MD5=[3e45ed83331af68868747463061dd92f]
class PushItemHeaderValue--><rect codeLine="68" fill="#282828" height="194.6025" id="PushItemHeaderValue" rx="8.3333" ry="8.3333" style="stroke:#5E5E5E;stroke-width:1.0416666666666667;" width="296.875" x="916.6667" y="53.7028"/><rect fill="#1B1B1A" height="31.3883" rx="8.3333" ry="8.3333" style="stroke:#1B1B1A;stroke-width:1.0416666666666667;" width="296.875" x="916.6667" y="53.7028"/><rect fill="#1B1B1A" height="8.3333" style="stroke:#1B1B1A;stroke-width:1.0416666666666667;" width="296.875" x="916.6667" y="76.7578"/><rect codeLine="68" fill="none" height="194.6025" id="PushItemHeaderValue" rx="8.3333" ry="8.3333" style="stroke:#5E5E5E;stroke-width:1.0416666666666667;" width="296.875" x="916.6667" y="53.7028"/><ellipse cx="987.5" cy="69.397" fill="#0066CF" rx="10.4167" ry="10.4167" style="stroke:#0086EF;stroke-width:1.0416666666666667;"/><path d="M989.4104,73.822 Q988.9832,74.0417 988.5132,74.1516 Q988.0432,74.2615 987.5244,74.2615 Q985.6812,74.2615 984.7107,73.0469 Q983.7402,71.8323 983.7402,69.5374 Q983.7402,67.2363 984.7107,66.0217 Q985.6812,64.8071 987.5244,64.8071 Q988.0432,64.8071 988.5193,64.917 Q988.9954,65.0269 989.4104,65.2466 L989.4104,67.2485 Q988.9465,66.8213 988.5101,66.6229 Q988.0737,66.4246 987.6099,66.4246 Q986.6211,66.4246 986.1176,67.2089 Q985.614,67.9932 985.614,69.5374 Q985.614,71.0754 986.1176,71.8597 Q986.6211,72.644 987.6099,72.644 Q988.0737,72.644 988.5101,72.4457 Q988.9465,72.2473 989.4104,71.8201 Z " fill="#000000"/><text fill="#D8BC00" font-family="Open Sans,Avenir,Nunito,Arial,Helvetica,SansSerif" font-size="12.5" font-weight="bold" lengthAdjust="spacing" textLength="140.625" x="1010.4167" y="74.1211">PushItemHeaderValue</text><line style="stroke:#5E5E5E;stroke-width:1.5625;" x1="917.7083" x2="1212.5" y1="85.0911" y2="85.0911"/><ellipse cx="928.125" cy="120.461" fill="#84BE84" rx="3.125" ry="3.125" style="stroke:#038048;stroke-width:1.0416666666666667;"/><text fill="#D8BC00" font-family="Open Sans,Avenir,Nunito,Arial,Helvetica,SansSerif" font-size="11.4583" lengthAdjust="spacing" textLength="264.5833" x="939.5833" y="127.3722">PushItemHeaderValue(String, HeaderOperation)</text><line style="stroke:#5E5E5E;stroke-width:1.0416666666666667;" x1="917.7083" x2="1021.3542" y1="103.2969" y2="103.2969"/><text fill="#D8BC00" font-family="Open Sans,Avenir,Nunito,Arial,Helvetica,SansSerif" font-size="11.4583" lengthAdjust="spacing" textLength="81.25" x="1024.4792" y="107.1065">(constructors)</text><line style="stroke:#5E5E5E;stroke-width:1.0416666666666667;" x1="1108.8542" x2="1212.5" y1="103.2969" y2="103.2969"/><line style="stroke:#5E5E5E;stroke-width:1.0416666666666667;" x1="917.7083" x2="1212.5" y1="137.0809" y2="137.0809"/><ellipse cx="928.125" cy="148.5392" fill="#84BE84" rx="3.125" ry="3.125" style="stroke:#038048;stroke-width:1.0416666666666667;"/><text fill="#D8BC00" font-family="Open Sans,Avenir,Nunito,Arial,Helvetica,SansSerif" font-size="11.4583" lengthAdjust="spacing" textLength="92.7083" x="939.5833" y="155.4504">String getValue()</text><ellipse cx="928.125" cy="168.2841" fill="#84BE84" rx="3.125" ry="3.125" style="stroke:#038048;stroke-width:1.0416666666666667;"/><text fill="#D8BC00" font-family="Open Sans,Avenir,Nunito,Arial,Helvetica,SansSerif" font-size="11.4583" lengthAdjust="spacing" textLength="204.1667" x="939.5833" y="175.1953">void setOperation(HeaderOperation)</text><ellipse cx="928.125" cy="188.029" fill="#84BE84" rx="3.125" ry="3.125" style="stroke:#038048;stroke-width:1.0416666666666667;"/><text fill="#D8BC00" font-family="Open Sans,Avenir,Nunito,Arial,Helvetica,SansSerif" font-size="11.4583" lengthAdjust="spacing" textLength="147.9167" x="939.5833" y="194.9402">void setValue(String value)</text><ellipse cx="928.125" cy="231.6854" fill="#84BE84" rx="3.125" ry="3.125" style="stroke:#038048;stroke-width:1.0416666666666667;"/><text fill="#D8BC00" font-family="Open Sans,Avenir,Nunito,Arial,Helvetica,SansSerif" font-size="11.4583" lengthAdjust="spacing" textLength="181.25" x="939.5833" y="238.5966">HeaderOperation getOperation()</text><line style="stroke:#5E5E5E;stroke-width:1.0416666666666667;" x1="917.7083" x2="1030.7292" y1="214.5213" y2="214.5213"/><text fill="#D8BC00" font-family="Open Sans,Avenir,Nunito,Arial,Helvetica,SansSerif" font-size="11.4583" lengthAdjust="spacing" textLength="62.5" x="1033.8542" y="218.3309">(collection)</text><line style="stroke:#5E5E5E;stroke-width:1.0416666666666667;" x1="1099.4792" x2="1212.5" y1="214.5213" y2="214.5213"/><!--MD5=[b3128620e52f0c96cc07751d953b485a]
reverse link IPushBuilder to PushBuilder--><path codeLine="21" d="M558.8542,213.7757 C558.8542,291.6924 558.8542,422.0153 558.8542,474.7653 " fill="none" id="IPushBuilder-backto-PushBuilder" style="stroke:#545454;stroke-width:1.5625;"/><polygon fill="none" points="551.5625,213.6611,558.8542,192.8278,566.1458,213.6611,551.5625,213.6611" style="stroke:#545454;stroke-width:1.5625;"/><!--MD5=[5ad0caf020405503138368549e8ab099]
reverse link HeaderItem to PushHeaderItem--><path codeLine="26" d="M824.4792,196.0882 C824.4792,229.432 824.4792,277.609 824.4792,325.7028 " fill="none" id="HeaderItem-backto-PushHeaderItem" style="stroke:#545454;stroke-width:1.5625;"/><polygon fill="none" points="817.1875,195.932,824.4792,175.0986,831.7708,195.932,817.1875,195.932" style="stroke:#545454;stroke-width:1.5625;"/><!--MD5=[0c98edd99cd24cc4532dada202d6926c]
reverse link Serializable to PushItem--><path codeLine="46" d="M235.9375,196.3174 C235.9375,226.2028 235.9375,267.9007 235.9375,310.7757 " fill="none" id="Serializable-backto-PushItem" style="stroke:#545454;stroke-width:1.5625;"/><polygon fill="none" points="228.6458,195.932,235.9375,175.0986,243.2292,195.932,228.6458,195.932" style="stroke:#545454;stroke-width:1.5625;"/><!--MD5=[ac621fe65aec417dddce24c950939318]
@startuml

    !include lexakai.theme
    
    title "org.apache.wicket.markup.head.http2"
    
    interface Serializable
    interface IPushBuilder
    
    enum PushItemHeaderValue.HeaderOperation
    {
        ADD
        SET
    }
    
    interface IPushBuilder
    {
        - -(collection)- -
        +void push(HttpServletRequest, PushItem... pushItems)
    }
    
    IPushBuilder <|- - PushBuilder
    class PushBuilder
    {
    }
    
    HeaderItem <|- - PushHeaderItem
    class PushHeaderItem
    {
        - -(constructors)- -
        +PushHeaderItem(Page, Request, Response)
        +PushHeaderItem(Page, Request, Response, IPushBuilder)
        - -
        #void applyPageCacheHeader()
        - -(checks)- -
        +boolean isHttp2(HttpServletRequest)
        - -(collection)- -
        +PushHeaderItem push(List<PushItem> pushItems)
        #void push(HttpServletRequest)
        - -(network)- -
        +HttpServletRequest checkHttpServletRequest(Request)
        +HttpServletRequest getContainerRequest(Request)
        - -(time)- -
        #Instant getPageModificationTime()
    }
    
    Serializable <|- - PushItem
    class PushItem
    {
        - -(constructors)- -
        +PushItem()
        +PushItem(Serializable)
        +PushItem(Serializable, Map<String, PushItemHeaderValue>)
        +PushItem(Serializable, PageParameters)
        +PushItem(Serializable, PageParameters, Map<String, PushItemHeaderValue>)
        - -
        +Object getObject()
        +PageParameters getPageParameters()
        - -(collection)- -
        +Map<String,PushItemHeaderValue> getHeaders()
        +PushItem setHeaders(Map<String,PushItemHeaderValue> headers)
        +PushItem setObject(Serializable object)
        +PushItem setPageParameters(PageParameters)
        +PushItem setUrl(String url)
        - -(network)- -
        +String getUrl()
    }
    
    class PushItemHeaderValue
    {
        - -(constructors)- -
        +PushItemHeaderValue(String, HeaderOperation)
        - -
        +String getValue()
        +void setOperation(HeaderOperation)
        +void setValue(String value)
        - -(collection)- -
        +HeaderOperation getOperation()
    }
    
@enduml

@startuml









skinparam backgroundColor #333333






skinparam  {
    defaultFontName   "Open Sans,Avenir,Nunito,Arial,Helvetica,SansSerif"
    defaultFontSize   12
    defaultTextAlignment left
    shadowing false
    RoundCorner 10
    TitleFontSize 18
}

skinparam defaultFontName       "Open Sans,Avenir,Nunito,Arial,Helvetica,SansSerif"
skinparam defaultFontSize       12
skinparam dpi                   100
skinparam shadowing             false
skinparam roundcorner           16
skinparam ParticipantPadding    40
skinparam BoxPadding            40
skinparam Padding               3
skinparam ArrowColor            #545454
skinparam stereotype {
    CBackgroundColor #0066cf
    CBorderColor #0086ef
    ABackgroundColor #C8Ac00
    ABorderColor #D8Bc00
    IBackgroundColor #008400
    IBorderColor #239c23
    EBackgroundColor #cf6300
    EBorderColor #ef8300
    NBackgroundColor #3380b9
    NBorderColor #004d86
}
skinparam title {
	FontColor	                 #c0c0c0
 	BorderColor                  #545454
	FontSize	    	         20
	BorderRoundCorner            16
	BorderThickness 	         1
	BackgroundColor              #48494b
}


skinparam legend {
	BackgroundColor #303030
	BorderColor #404040
	FontColor #a0a0a0
}

	skinparam swimlane {
	BorderColor #5e5e5e
	BorderThickness 2
	TitleBackgroundColor  #6d6d6d-#484848
	TitleFontColor #303030
}

skinparam activity {
		FontColor #C8Ac00
	BorderColor #333333
	BackgroundColor #333333-#333333
	BarColor #00FF00
	StartColor #0060a8
	EndColor #0060a8
	DiamondBackgroundColor #6d6d6d-#3a3a3a
  	DiamondBorderColor #3a3a3a
  	DiamondFontColor #fefefe
}


skinparam participant {
		FontColor #C8Ac00
	BorderColor #333333
	BackgroundColor #333333-#333333
	ParticipantBorderThickness 2
}


skinparam actor {
		FontColor #C8Ac00
	BorderColor #333333
	BackgroundColor #333333-#333333
}


skinparam arrow {
	Thickness 1.5
	Color #545454
	FontColor #a0a0a0
    FontStyle bold
    MessageAlignment center
}



skinparam sequence {
	BorderColor #303030
	TitleFontColor #303030
	BackgroundColor #333333
	StartColor #303030
	EndColor #303030
	BoxBackgroundColor #333333
	BoxBorderColor #484848
	BoxFontColor #484848
	LifeLineBorderColor #484848
	LifeLineBorderThickness 2
	LifeLineBackgroundColor #3a3a3a
	GroupBorderColor #484848
	GroupFontColor #484848
	GroupHeaderFontColor #0060a8
	GroupBackgroundColor #484848
	GroupHeaderBackgroundColor #333333
	DividerBackgroundColor #484848
    DividerBorderColor #484848
    DividerBorderThickness 2
    DividerFontColor #D8Bc00
	ReferenceBackgroundColor #333333
	ReferenceBorderColor #484848
	ReferenceFontColor #fefefe
	ReferenceHeaderBackgroundColor #484848
}


skinparam partition {
	BorderColor #303030
	FontColor #333333
	BackgroundColor #333333
}


skinparam collections {
		FontColor #C8Ac00
	BorderColor #333333
	BackgroundColor #333333-#333333
}


skinparam control {
		FontColor #C8Ac00
	BorderColor #333333
	BackgroundColor #333333-#333333
}


skinparam entity {
		FontColor #C8Ac00
	BorderColor #333333
	BackgroundColor #333333-#333333
}


skinparam boundary {
		FontColor #C8Ac00
	BorderColor #333333
	BackgroundColor #333333-#333333
}


skinparam agent {
	BackgroundColor #ff8000
	BorderColor #ff9933
	FontColor #484848
}


skinparam note {
	BorderThickness 1
	BackgroundColor #1b1b1a
	BorderColor #5e5e5e
	FontSize 11
	FontColor #a0a0a0
}


skinparam artifact {
	BorderThickness 10
	BorderColor #5e5e5e
	BackgroundColor #1b1b1a
	FontColor #D8Bc00
}


skinparam component {
		FontColor #C8Ac00
	BorderColor #333333
	BackgroundColor #333333-#333333
}


skinparam interface {
	BackgroundColor  #008400
	BorderColor  #007F00
	FontColor #484848
}


skinparam storage {
	BackgroundColor #ff8000
  	BorderColor #cc6600
	FontColor #222222
}


skinparam node {
	BackgroundColor #333333
	BorderColor #333333
	FontColor #C8Ac00
}


skinparam cloud {
	BackgroundColor #484848-black
	BorderColor #484848
	FontColor #D8Bc00
}


skinparam database {
		FontColor #C8Ac00
	BorderColor #333333
	BackgroundColor #333333-#333333
	BackgroundColor  #333333
}


skinparam class {
		FontColor #C8Ac00
	BorderColor #333333
	BackgroundColor #333333-#333333
	HeaderBackgroundColor #1b1b1a
    BackgroundColor #282828
    BorderColor #5e5e5e
 	StereotypeFontColor #a0a0a0
    StereotypeFontStyle bold
	BorderThickness 1
	AttributeFontColor #D8Bc00
	AttributeFontSize 11
    FontColor #D8Bc00
    FontStyle bold
}


skinparam object {
		FontColor #C8Ac00
	BorderColor #333333
	BackgroundColor #333333-#333333
	StereotypeFontColor #484848
	BorderThickness 1
	AttributeFontColor #fefefe
	AttributeFontSize 11
}


skinparam usecase {
		FontColor #C8Ac00
	BorderColor #333333
	BackgroundColor #333333-#333333
	BorderThickness 2
	StereotypeFontColor #303030
}


skinparam rectangle {
		FontColor #C8Ac00
	BorderColor #333333
	BackgroundColor #333333-#333333
	BackgroundColor #333333
	BorderThickness 2
	StereotypeFontColor #303030
}


skinparam package {
		FontColor #C8Ac00
	BorderColor #333333
	BackgroundColor #333333-#333333
	BackgroundColor #333333
	BorderThickness 2
}


skinparam folder {
	BackgroundColor #6d6d6d
  	BorderColor #ff8000
	FontColor #ff8000
	BorderThickness 2
}


skinparam frame {
	BackgroundColor #6d6d6d
  	BorderColor #0060a8
	FontColor #0060a8
	BorderThickness 2
}


skinparam state {
		FontColor #C8Ac00
	BorderColor #333333
	BackgroundColor #333333-#333333
	StartColor #0060a8
	EndColor #0060a8
	AttributeFontColor #fefefe
	AttributeFontSize 11
}


skinparam queue {
		FontColor #C8Ac00
	BorderColor #333333
	BackgroundColor #333333-#333333
}


skinparam card {
	BackgroundColor #0060a8
	BorderColor #004d86
	FontColor $INFO_TEXT
}


skinparam file {
	BackgroundColor #6d6d6d-#484848
	BorderColor #0060a8
	FontColor #fefefe
}


skinparam stack {
		FontColor #C8Ac00
	BorderColor #333333
	BackgroundColor #333333-#333333
}

    
    title "org.apache.wicket.markup.head.http2"
    
    interface Serializable
    interface IPushBuilder
    
    enum PushItemHeaderValue.HeaderOperation
    {
        ADD
        SET
    }
    
    interface IPushBuilder
    {
        - -(collection)- -
        +void push(HttpServletRequest, PushItem... pushItems)
    }
    
    IPushBuilder <|- - PushBuilder
    class PushBuilder
    {
    }
    
    HeaderItem <|- - PushHeaderItem
    class PushHeaderItem
    {
        - -(constructors)- -
        +PushHeaderItem(Page, Request, Response)
        +PushHeaderItem(Page, Request, Response, IPushBuilder)
        - -
        #void applyPageCacheHeader()
        - -(checks)- -
        +boolean isHttp2(HttpServletRequest)
        - -(collection)- -
        +PushHeaderItem push(List<PushItem> pushItems)
        #void push(HttpServletRequest)
        - -(network)- -
        +HttpServletRequest checkHttpServletRequest(Request)
        +HttpServletRequest getContainerRequest(Request)
        - -(time)- -
        #Instant getPageModificationTime()
    }
    
    Serializable <|- - PushItem
    class PushItem
    {
        - -(constructors)- -
        +PushItem()
        +PushItem(Serializable)
        +PushItem(Serializable, Map<String, PushItemHeaderValue>)
        +PushItem(Serializable, PageParameters)
        +PushItem(Serializable, PageParameters, Map<String, PushItemHeaderValue>)
        - -
        +Object getObject()
        +PageParameters getPageParameters()
        - -(collection)- -
        +Map<String,PushItemHeaderValue> getHeaders()
        +PushItem setHeaders(Map<String,PushItemHeaderValue> headers)
        +PushItem setObject(Serializable object)
        +PushItem setPageParameters(PageParameters)
        +PushItem setUrl(String url)
        - -(network)- -
        +String getUrl()
    }
    
    class PushItemHeaderValue
    {
        - -(constructors)- -
        +PushItemHeaderValue(String, HeaderOperation)
        - -
        +String getValue()
        +void setOperation(HeaderOperation)
        +void setValue(String value)
        - -(collection)- -
        +HeaderOperation getOperation()
    }
    
@enduml

PlantUML version 1.2021.01(Tue Feb 02 00:55:08 MST 2021)
(GPL source distribution)
Java Runtime: Java(TM) SE Runtime Environment
JVM: Java HotSpot(TM) 64-Bit Server VM
Default Encoding: UTF-8
Language: en
Country: US
--></g></svg>