<?xml version="1.0" encoding="UTF-8" standalone="no"?><svg xmlns="http://www.w3.org/2000/svg" xmlns:xlink="http://www.w3.org/1999/xlink" contentScriptType="application/ecmascript" contentStyleType="text/css" height="401.0417px" preserveAspectRatio="none" style="width:1339px;height:401px;background:#333333;" version="1.1" viewBox="0 0 1339 401" width="1339.5833px" zoomAndPan="magnify"><defs/><g><rect fill="#48494B" height="41.2028" rx="8.3333" ry="8.3333" style="stroke:#545454;stroke-width:1.0416666666666667;" width="637.5" x="344.0104" y="2.0833"/><text fill="#C0C0C0" font-family="Open Sans,Avenir,Nunito,Arial,Helvetica,SansSerif" font-size="20.8333" lengthAdjust="spacing" textLength="614.5833" x="355.4688" y="30.5583">org.apache.wicket.extensions.markup.html.repeater.data.sort</text><!--MD5=[cd6fe5c68cc4750b98a6651e5a9afd2b]
class IClusterable--><rect codeLine="15" fill="#282828" height="48.055" id="IClusterable" rx="8.3333" ry="8.3333" style="stroke:#5E5E5E;stroke-width:1.0416666666666667;" width="115.625" x="247.9167" y="83.3903"/><rect fill="#1B1B1A" height="31.3883" rx="8.3333" ry="8.3333" style="stroke:#1B1B1A;stroke-width:1.0416666666666667;" width="115.625" x="247.9167" y="83.3903"/><rect fill="#1B1B1A" height="8.3333" style="stroke:#1B1B1A;stroke-width:1.0416666666666667;" width="115.625" x="247.9167" y="106.4453"/><rect codeLine="15" fill="none" height="48.055" id="IClusterable" rx="8.3333" ry="8.3333" style="stroke:#5E5E5E;stroke-width:1.0416666666666667;" width="115.625" x="247.9167" y="83.3903"/><ellipse cx="262.5" cy="99.0845" fill="#008400" rx="10.4167" ry="10.4167" style="stroke:#239C23;stroke-width:1.0416666666666667;"/><path d="M259.904,96.2463 L259.904,94.6594 L265.33,94.6594 L265.33,96.2463 L263.5173,96.2463 L263.5173,102.1851 L265.33,102.1851 L265.33,103.772 L259.904,103.772 L259.904,102.1851 L261.7167,102.1851 L261.7167,96.2463 Z " fill="#000000"/><text fill="#D8BC00" font-family="Open Sans,Avenir,Nunito,Arial,Helvetica,SansSerif" font-size="12.5" font-style="italic" font-weight="bold" lengthAdjust="spacing" textLength="78.125" x="279.1667" y="103.8086">IClusterable</text><line style="stroke:#5E5E5E;stroke-width:1.0416666666666667;" x1="248.9583" x2="362.5" y1="114.7786" y2="114.7786"/><line style="stroke:#5E5E5E;stroke-width:1.0416666666666667;" x1="248.9583" x2="362.5" y1="123.112" y2="123.112"/><!--MD5=[38dd32ac1b4eee822902e06711cd5b2a]
class ISortState--><rect codeLine="8" fill="#282828" height="103.123" id="ISortState" rx="8.3333" ry="8.3333" style="stroke:#5E5E5E;stroke-width:1.0416666666666667;" width="309.375" x="7.2917" y="257.3486"/><rect fill="#1B1B1A" height="31.3883" rx="8.3333" ry="8.3333" style="stroke:#1B1B1A;stroke-width:1.0416666666666667;" width="309.375" x="7.2917" y="257.3486"/><rect fill="#1B1B1A" height="8.3333" style="stroke:#1B1B1A;stroke-width:1.0416666666666667;" width="309.375" x="7.2917" y="280.4036"/><rect codeLine="8" fill="none" height="103.123" id="ISortState" rx="8.3333" ry="8.3333" style="stroke:#5E5E5E;stroke-width:1.0416666666666667;" width="309.375" x="7.2917" y="257.3486"/><ellipse cx="114.5833" cy="273.0428" fill="#008400" rx="10.4167" ry="10.4167" style="stroke:#239C23;stroke-width:1.0416666666666667;"/><path d="M111.9873,270.2047 L111.9873,268.6178 L117.4133,268.6178 L117.4133,270.2047 L115.6006,270.2047 L115.6006,276.1434 L117.4133,276.1434 L117.4133,277.7303 L111.9873,277.7303 L111.9873,276.1434 L113.8,276.1434 L113.8,270.2047 Z " fill="#000000"/><text fill="#D8BC00" font-family="Open Sans,Avenir,Nunito,Arial,Helvetica,SansSerif" font-size="12.5" font-style="italic" font-weight="bold" lengthAdjust="spacing" textLength="62.5" x="137.5" y="277.7669">ISortState</text><rect fill="#333333" height="23.055" style="stroke:#A0A0A0;stroke-width:1.0416666666666667;stroke-dasharray:2.0,2.0;" width="15.625" x="304.1667" y="254.2236"/><text fill="#A0A0A0" font-family="Open Sans,Avenir,Nunito,Arial,Helvetica,SansSerif" font-size="12.5" font-weight="bold" lengthAdjust="spacing" textLength="7.2917" x="308.3333" y="270.4753">S</text><line style="stroke:#5E5E5E;stroke-width:1.5625;" x1="8.3333" x2="315.625" y1="288.737" y2="288.737"/><ellipse cx="18.75" cy="324.1069" fill="#84BE84" rx="3.125" ry="3.125" style="stroke:#038048;stroke-width:1.0416666666666667;"/><text fill="#D8BC00" font-family="Open Sans,Avenir,Nunito,Arial,Helvetica,SansSerif" font-size="11.4583" lengthAdjust="spacing" textLength="247.9167" x="30.2083" y="331.0181">SortOrder getPropertySortOrder(S property)</text><ellipse cx="18.75" cy="343.8517" fill="#84BE84" rx="3.125" ry="3.125" style="stroke:#038048;stroke-width:1.0416666666666667;"/><text fill="#D8BC00" font-family="Open Sans,Avenir,Nunito,Arial,Helvetica,SansSerif" font-size="11.4583" lengthAdjust="spacing" textLength="277.0833" x="30.2083" y="350.7629">void setPropertySortOrder(S property, SortOrder)</text><line style="stroke:#5E5E5E;stroke-width:1.0416666666666667;" x1="8.3333" x2="127.6042" y1="306.9427" y2="306.9427"/><text fill="#D8BC00" font-family="Open Sans,Avenir,Nunito,Arial,Helvetica,SansSerif" font-size="11.4583" lengthAdjust="spacing" textLength="62.5" x="130.7292" y="310.7524">(collection)</text><line style="stroke:#5E5E5E;stroke-width:1.0416666666666667;" x1="196.3542" x2="315.625" y1="306.9427" y2="306.9427"/><!--MD5=[b41eb5fdc87ede81d162078d03b82506]
class ISortStateLocator--><rect codeLine="17" fill="#282828" height="83.3781" id="ISortStateLocator" rx="8.3333" ry="8.3333" style="stroke:#5E5E5E;stroke-width:1.0416666666666667;" width="190.625" x="353.125" y="267.2445"/><rect fill="#1B1B1A" height="31.3883" rx="8.3333" ry="8.3333" style="stroke:#1B1B1A;stroke-width:1.0416666666666667;" width="190.625" x="353.125" y="267.2445"/><rect fill="#1B1B1A" height="8.3333" style="stroke:#1B1B1A;stroke-width:1.0416666666666667;" width="190.625" x="353.125" y="290.2995"/><rect codeLine="17" fill="none" height="83.3781" id="ISortStateLocator" rx="8.3333" ry="8.3333" style="stroke:#5E5E5E;stroke-width:1.0416666666666667;" width="190.625" x="353.125" y="267.2445"/><ellipse cx="378.4896" cy="282.9386" fill="#008400" rx="10.4167" ry="10.4167" style="stroke:#239C23;stroke-width:1.0416666666666667;"/><path d="M375.8936,280.1005 L375.8936,278.5136 L381.3196,278.5136 L381.3196,280.1005 L379.5068,280.1005 L379.5068,286.0392 L381.3196,286.0392 L381.3196,287.6261 L375.8936,287.6261 L375.8936,286.0392 L377.7063,286.0392 L377.7063,280.1005 Z " fill="#000000"/><text fill="#D8BC00" font-family="Open Sans,Avenir,Nunito,Arial,Helvetica,SansSerif" font-size="12.5" font-style="italic" font-weight="bold" lengthAdjust="spacing" textLength="110.4167" x="397.5521" y="287.6628">ISortStateLocator</text><rect fill="#333333" height="23.055" style="stroke:#A0A0A0;stroke-width:1.0416666666666667;stroke-dasharray:2.0,2.0;" width="16.6667" x="530.2083" y="264.1195"/><text fill="#A0A0A0" font-family="Open Sans,Avenir,Nunito,Arial,Helvetica,SansSerif" font-size="12.5" font-weight="bold" lengthAdjust="spacing" textLength="8.3333" x="534.375" y="280.3711">T</text><line style="stroke:#5E5E5E;stroke-width:1.5625;" x1="354.1667" x2="542.7083" y1="298.6328" y2="298.6328"/><ellipse cx="364.5833" cy="334.0027" fill="#84BE84" rx="3.125" ry="3.125" style="stroke:#038048;stroke-width:1.0416666666666667;"/><text fill="#D8BC00" font-family="Open Sans,Avenir,Nunito,Arial,Helvetica,SansSerif" font-size="11.4583" lengthAdjust="spacing" textLength="158.3333" x="376.0417" y="340.9139">ISortState&lt;T&gt; getSortState()</text><line style="stroke:#5E5E5E;stroke-width:1.0416666666666667;" x1="354.1667" x2="414.0625" y1="316.8386" y2="316.8386"/><text fill="#D8BC00" font-family="Open Sans,Avenir,Nunito,Arial,Helvetica,SansSerif" font-size="11.4583" lengthAdjust="spacing" textLength="62.5" x="417.1875" y="320.6482">(collection)</text><line style="stroke:#5E5E5E;stroke-width:1.0416666666666667;" x1="482.8125" x2="542.7083" y1="316.8386" y2="316.8386"/><!--MD5=[a0336aaa8110b78d9cacadb9d45e00a3]
class Border--><rect fill="#282828" height="48.055" id="Border" rx="8.3333" ry="8.3333" style="stroke:#5E5E5E;stroke-width:1.0416666666666667;" width="80.2083" x="748.9583" y="83.3903"/><rect fill="#1B1B1A" height="31.3883" rx="8.3333" ry="8.3333" style="stroke:#1B1B1A;stroke-width:1.0416666666666667;" width="80.2083" x="748.9583" y="83.3903"/><rect fill="#1B1B1A" height="8.3333" style="stroke:#1B1B1A;stroke-width:1.0416666666666667;" width="80.2083" x="748.9583" y="106.4453"/><rect fill="none" height="48.055" id="Border" rx="8.3333" ry="8.3333" style="stroke:#5E5E5E;stroke-width:1.0416666666666667;" width="80.2083" x="748.9583" y="83.3903"/><ellipse cx="763.5417" cy="99.0845" fill="#0066CF" rx="10.4167" ry="10.4167" style="stroke:#0086EF;stroke-width:1.0416666666666667;"/><path d="M765.4521,103.5095 Q765.0248,103.7292 764.5549,103.8391 Q764.0849,103.949 763.5661,103.949 Q761.7228,103.949 760.7524,102.7344 Q759.7819,101.5198 759.7819,99.2249 Q759.7819,96.9238 760.7524,95.7092 Q761.7228,94.4946 763.5661,94.4946 Q764.0849,94.4946 764.561,94.6045 Q765.037,94.7144 765.4521,94.9341 L765.4521,96.936 Q764.9882,96.5088 764.5518,96.3104 Q764.1154,96.1121 763.6515,96.1121 Q762.6628,96.1121 762.1592,96.8964 Q761.6557,97.6807 761.6557,99.2249 Q761.6557,100.7629 762.1592,101.5472 Q762.6628,102.3315 763.6515,102.3315 Q764.1154,102.3315 764.5518,102.1332 Q764.9882,101.9348 765.4521,101.5076 Z " fill="#000000"/><text fill="#D8BC00" font-family="Open Sans,Avenir,Nunito,Arial,Helvetica,SansSerif" font-size="12.5" font-weight="bold" lengthAdjust="spacing" textLength="42.7083" x="780.2083" y="103.8086">Border</text><line style="stroke:#5E5E5E;stroke-width:1.0416666666666667;" x1="750" x2="828.125" y1="114.7786" y2="114.7786"/><line style="stroke:#5E5E5E;stroke-width:1.0416666666666667;" x1="750" x2="828.125" y1="123.112" y2="123.112"/><!--MD5=[c9ace3f058d8a404b4ad1473427de085]
class OrderByBorder--><rect codeLine="24" fill="#282828" height="170.6909" id="OrderByBorder" rx="8.3333" ry="8.3333" style="stroke:#5E5E5E;stroke-width:1.0416666666666667;" width="416.6667" x="580.7292" y="223.4945"/><rect fill="#1B1B1A" height="31.3883" rx="8.3333" ry="8.3333" style="stroke:#1B1B1A;stroke-width:1.0416666666666667;" width="416.6667" x="580.7292" y="223.4945"/><rect fill="#1B1B1A" height="8.3333" style="stroke:#1B1B1A;stroke-width:1.0416666666666667;" width="416.6667" x="580.7292" y="246.5495"/><rect codeLine="24" fill="none" height="170.6909" id="OrderByBorder" rx="8.3333" ry="8.3333" style="stroke:#5E5E5E;stroke-width:1.0416666666666667;" width="416.6667" x="580.7292" y="223.4945"/><ellipse cx="725.5208" cy="239.1886" fill="#0066CF" rx="10.4167" ry="10.4167" style="stroke:#0086EF;stroke-width:1.0416666666666667;"/><path d="M727.4312,243.6137 Q727.004,243.8334 726.534,243.9433 Q726.064,244.0531 725.5452,244.0531 Q723.702,244.0531 722.7315,242.8385 Q721.7611,241.6239 721.7611,239.329 Q721.7611,237.028 722.7315,235.8134 Q723.702,234.5988 725.5452,234.5988 Q726.064,234.5988 726.5401,234.7087 Q727.0162,234.8185 727.4312,235.0382 L727.4312,237.0402 Q726.9674,236.613 726.531,236.4146 Q726.0946,236.2162 725.6307,236.2162 Q724.6419,236.2162 724.1384,237.0005 Q723.6348,237.7848 723.6348,239.329 Q723.6348,240.8671 724.1384,241.6514 Q724.6419,242.4357 725.6307,242.4357 Q726.0946,242.4357 726.531,242.2373 Q726.9674,242.039 727.4312,241.6117 Z " fill="#000000"/><text fill="#D8BC00" font-family="Open Sans,Avenir,Nunito,Arial,Helvetica,SansSerif" font-size="12.5" font-weight="bold" lengthAdjust="spacing" textLength="94.7917" x="748.4375" y="243.9128">OrderByBorder</text><rect fill="#333333" height="23.055" style="stroke:#A0A0A0;stroke-width:1.0416666666666667;stroke-dasharray:2.0,2.0;" width="15.625" x="984.8958" y="220.3695"/><text fill="#A0A0A0" font-family="Open Sans,Avenir,Nunito,Arial,Helvetica,SansSerif" font-size="12.5" font-weight="bold" lengthAdjust="spacing" textLength="7.2917" x="989.0625" y="236.6211">S</text><line style="stroke:#5E5E5E;stroke-width:1.5625;" x1="581.7708" x2="996.3542" y1="254.8828" y2="254.8828"/><ellipse cx="592.1875" cy="290.2527" fill="#84BE84" rx="3.125" ry="3.125" style="stroke:#038048;stroke-width:1.0416666666666667;"/><text fill="#D8BC00" font-family="Open Sans,Avenir,Nunito,Arial,Helvetica,SansSerif" font-size="11.4583" lengthAdjust="spacing" textLength="235.4167" x="603.6458" y="297.1639">OrderByBorder(String, S, ISortStateLocator</text><text fill="#D8BC00" font-family="Open Sans,Avenir,Nunito,Arial,Helvetica,SansSerif" font-size="11.4583" lengthAdjust="spacing" text-decoration="line-through" textLength="4.1667" x="839.0625" y="297.1639">)</text><line style="stroke:#5E5E5E;stroke-width:1.0416666666666667;" x1="581.7708" x2="745.3125" y1="273.0886" y2="273.0886"/><text fill="#D8BC00" font-family="Open Sans,Avenir,Nunito,Arial,Helvetica,SansSerif" font-size="11.4583" lengthAdjust="spacing" textLength="81.25" x="748.4375" y="276.8982">(constructors)</text><line style="stroke:#5E5E5E;stroke-width:1.0416666666666667;" x1="832.8125" x2="996.3542" y1="273.0886" y2="273.0886"/><polygon fill="#FFFF44" points="592.1875,328.7008,596.3542,332.8674,592.1875,337.0341,588.0208,332.8674" style="stroke:#B38D22;stroke-width:1.0416666666666667;"/><text fill="#D8BC00" font-family="Open Sans,Avenir,Nunito,Arial,Helvetica,SansSerif" font-size="11.4583" lengthAdjust="spacing" textLength="122.9167" x="603.6458" y="340.8203">void onSortChanged()</text><line style="stroke:#5E5E5E;stroke-width:1.0416666666666667;" x1="581.7708" x2="754.6875" y1="316.745" y2="316.745"/><text fill="#D8BC00" font-family="Open Sans,Avenir,Nunito,Arial,Helvetica,SansSerif" font-size="11.4583" lengthAdjust="spacing" textLength="62.5" x="757.8125" y="320.5546">(collection)</text><line style="stroke:#5E5E5E;stroke-width:1.0416666666666667;" x1="823.4375" x2="996.3542" y1="316.745" y2="316.745"/><polygon fill="#FFFF44" points="592.1875,372.3572,596.3542,376.5238,592.1875,380.6905,588.0208,376.5238" style="stroke:#B38D22;stroke-width:1.0416666666666667;"/><text fill="#D8BC00" font-family="Open Sans,Avenir,Nunito,Arial,Helvetica,SansSerif" font-size="11.4583" lengthAdjust="spacing" textLength="68.75" x="603.6458" y="384.4767">OrderByLink</text><text fill="#D8BC00" font-family="Open Sans,Avenir,Nunito,Arial,Helvetica,SansSerif" font-size="11.4583" lengthAdjust="spacing" text-decoration="line-through" textLength="308.3333" x="675.5208" y="384.4767">newOrderByLink(String id, S property, ISortStateLocator</text><text fill="#D8BC00" font-family="Open Sans,Avenir,Nunito,Arial,Helvetica,SansSerif" font-size="11.4583" lengthAdjust="spacing" text-decoration="line-through" textLength="4.1667" x="983.8542" y="384.4767">)</text><line style="stroke:#5E5E5E;stroke-width:1.0416666666666667;" x1="581.7708" x2="761.9792" y1="360.4014" y2="360.4014"/><text fill="#D8BC00" font-family="Open Sans,Avenir,Nunito,Arial,Helvetica,SansSerif" font-size="11.4583" lengthAdjust="spacing" textLength="47.9167" x="765.1042" y="364.211">(factory)</text><line style="stroke:#5E5E5E;stroke-width:1.0416666666666667;" x1="816.1458" x2="996.3542" y1="360.4014" y2="360.4014"/><!--MD5=[d189332174d53557e6def82bbd003869]
class Link--><rect fill="#282828" height="48.055" id="Link" rx="8.3333" ry="8.3333" style="stroke:#5E5E5E;stroke-width:1.0416666666666667;" width="65.625" x="1130.2083" y="83.3903"/><rect fill="#1B1B1A" height="31.3883" rx="8.3333" ry="8.3333" style="stroke:#1B1B1A;stroke-width:1.0416666666666667;" width="65.625" x="1130.2083" y="83.3903"/><rect fill="#1B1B1A" height="8.3333" style="stroke:#1B1B1A;stroke-width:1.0416666666666667;" width="65.625" x="1130.2083" y="106.4453"/><rect fill="none" height="48.055" id="Link" rx="8.3333" ry="8.3333" style="stroke:#5E5E5E;stroke-width:1.0416666666666667;" width="65.625" x="1130.2083" y="83.3903"/><ellipse cx="1144.7917" cy="99.0845" fill="#0066CF" rx="10.4167" ry="10.4167" style="stroke:#0086EF;stroke-width:1.0416666666666667;"/><path d="M1146.7021,103.5095 Q1146.2748,103.7292 1145.8049,103.8391 Q1145.3349,103.949 1144.8161,103.949 Q1142.9728,103.949 1142.0024,102.7344 Q1141.0319,101.5198 1141.0319,99.2249 Q1141.0319,96.9238 1142.0024,95.7092 Q1142.9728,94.4946 1144.8161,94.4946 Q1145.3349,94.4946 1145.811,94.6045 Q1146.287,94.7144 1146.7021,94.9341 L1146.7021,96.936 Q1146.2382,96.5088 1145.8018,96.3104 Q1145.3654,96.1121 1144.9015,96.1121 Q1143.9128,96.1121 1143.4092,96.8964 Q1142.9057,97.6807 1142.9057,99.2249 Q1142.9057,100.7629 1143.4092,101.5472 Q1143.9128,102.3315 1144.9015,102.3315 Q1145.3654,102.3315 1145.8018,102.1332 Q1146.2382,101.9348 1146.7021,101.5076 Z " fill="#000000"/><text fill="#D8BC00" font-family="Open Sans,Avenir,Nunito,Arial,Helvetica,SansSerif" font-size="12.5" font-weight="bold" lengthAdjust="spacing" textLength="28.125" x="1161.4583" y="103.8086">Link</text><line style="stroke:#5E5E5E;stroke-width:1.0416666666666667;" x1="1131.25" x2="1194.7917" y1="114.7786" y2="114.7786"/><line style="stroke:#5E5E5E;stroke-width:1.0416666666666667;" x1="1131.25" x2="1194.7917" y1="123.112" y2="123.112"/><!--MD5=[8dcb4039d3684d9ab2d87b3bc567f4b3]
class OrderByLink--><rect codeLine="35" fill="#282828" height="166.5243" id="OrderByLink" rx="8.3333" ry="8.3333" style="stroke:#5E5E5E;stroke-width:1.0416666666666667;" width="257.2917" x="1034.375" y="225.5778"/><rect fill="#1B1B1A" height="31.3883" rx="8.3333" ry="8.3333" style="stroke:#1B1B1A;stroke-width:1.0416666666666667;" width="257.2917" x="1034.375" y="225.5778"/><rect fill="#1B1B1A" height="8.3333" style="stroke:#1B1B1A;stroke-width:1.0416666666666667;" width="257.2917" x="1034.375" y="248.6328"/><rect codeLine="35" fill="none" height="166.5243" id="OrderByLink" rx="8.3333" ry="8.3333" style="stroke:#5E5E5E;stroke-width:1.0416666666666667;" width="257.2917" x="1034.375" y="225.5778"/><ellipse cx="1106.7708" cy="241.272" fill="#0066CF" rx="10.4167" ry="10.4167" style="stroke:#0086EF;stroke-width:1.0416666666666667;"/><path d="M1108.6812,245.697 Q1108.254,245.9167 1107.784,246.0266 Q1107.314,246.1365 1106.7952,246.1365 Q1104.952,246.1365 1103.9815,244.9219 Q1103.0111,243.7073 1103.0111,241.4124 Q1103.0111,239.1113 1103.9815,237.8967 Q1104.952,236.6821 1106.7952,236.6821 Q1107.314,236.6821 1107.7901,236.792 Q1108.2662,236.9019 1108.6812,237.1216 L1108.6812,239.1235 Q1108.2174,238.6963 1107.781,238.4979 Q1107.3446,238.2996 1106.8807,238.2996 Q1105.8919,238.2996 1105.3884,239.0839 Q1104.8848,239.8682 1104.8848,241.4124 Q1104.8848,242.9504 1105.3884,243.7347 Q1105.8919,244.519 1106.8807,244.519 Q1107.3446,244.519 1107.781,244.3207 Q1108.2174,244.1223 1108.6812,243.6951 Z " fill="#000000"/><text fill="#D8BC00" font-family="Open Sans,Avenir,Nunito,Arial,Helvetica,SansSerif" font-size="12.5" font-weight="bold" lengthAdjust="spacing" textLength="80.2083" x="1129.6875" y="245.9961">OrderByLink</text><rect fill="#333333" height="23.055" style="stroke:#A0A0A0;stroke-width:1.0416666666666667;stroke-dasharray:2.0,2.0;" width="15.625" x="1279.1667" y="222.4528"/><text fill="#A0A0A0" font-family="Open Sans,Avenir,Nunito,Arial,Helvetica,SansSerif" font-size="12.5" font-weight="bold" lengthAdjust="spacing" textLength="7.2917" x="1283.3333" y="238.7044">S</text><line style="stroke:#5E5E5E;stroke-width:1.5625;" x1="1035.4167" x2="1290.625" y1="256.9661" y2="256.9661"/><ellipse cx="1045.8333" cy="292.336" fill="#84BE84" rx="3.125" ry="3.125" style="stroke:#038048;stroke-width:1.0416666666666667;"/><text fill="#D8BC00" font-family="Open Sans,Avenir,Nunito,Arial,Helvetica,SansSerif" font-size="11.4583" lengthAdjust="spacing" textLength="220.8333" x="1057.2917" y="299.2472">OrderByLink(String, S, ISortStateLocator</text><text fill="#D8BC00" font-family="Open Sans,Avenir,Nunito,Arial,Helvetica,SansSerif" font-size="11.4583" lengthAdjust="spacing" text-decoration="line-through" textLength="4.1667" x="1278.125" y="299.2472">)</text><line style="stroke:#5E5E5E;stroke-width:1.0416666666666667;" x1="1035.4167" x2="1119.2708" y1="275.1719" y2="275.1719"/><text fill="#D8BC00" font-family="Open Sans,Avenir,Nunito,Arial,Helvetica,SansSerif" font-size="11.4583" lengthAdjust="spacing" textLength="81.25" x="1122.3958" y="278.9815">(constructors)</text><line style="stroke:#5E5E5E;stroke-width:1.0416666666666667;" x1="1206.7708" x2="1290.625" y1="275.1719" y2="275.1719"/><ellipse cx="1045.8333" cy="335.9924" fill="#84BE84" rx="3.125" ry="3.125" style="stroke:#038048;stroke-width:1.0416666666666667;"/><text fill="#D8BC00" font-family="Open Sans,Avenir,Nunito,Arial,Helvetica,SansSerif" font-size="11.4583" lengthAdjust="spacing" textLength="68.75" x="1057.2917" y="342.9036">OrderByLink</text><text fill="#D8BC00" font-family="Open Sans,Avenir,Nunito,Arial,Helvetica,SansSerif" font-size="11.4583" lengthAdjust="spacing" text-decoration="line-through" textLength="31.25" x="1129.1667" y="342.9036">sort()</text><polygon fill="#FFFF44" points="1045.8333,350.529,1050,354.6956,1045.8333,358.8623,1041.6667,354.6956" style="stroke:#B38D22;stroke-width:1.0416666666666667;"/><text fill="#D8BC00" font-family="Open Sans,Avenir,Nunito,Arial,Helvetica,SansSerif" font-size="11.4583" lengthAdjust="spacing" textLength="205.2083" x="1057.2917" y="362.6485">SortOrder nextSortOrder(SortOrder)</text><polygon fill="#FFFF44" points="1045.8333,370.2738,1050,374.4405,1045.8333,378.6072,1041.6667,374.4405" style="stroke:#B38D22;stroke-width:1.0416666666666667;"/><text fill="#D8BC00" font-family="Open Sans,Avenir,Nunito,Arial,Helvetica,SansSerif" font-size="11.4583" lengthAdjust="spacing" textLength="122.9167" x="1057.2917" y="382.3934">void onSortChanged()</text><line style="stroke:#5E5E5E;stroke-width:1.0416666666666667;" x1="1035.4167" x2="1128.6458" y1="318.8283" y2="318.8283"/><text fill="#D8BC00" font-family="Open Sans,Avenir,Nunito,Arial,Helvetica,SansSerif" font-size="11.4583" lengthAdjust="spacing" textLength="62.5" x="1131.7708" y="322.6379">(collection)</text><line style="stroke:#5E5E5E;stroke-width:1.0416666666666667;" x1="1197.3958" x2="1290.625" y1="318.8283" y2="318.8283"/><!--MD5=[df35e898d944cd800e2dc798571b3fc5]
class SortOrder--><rect codeLine="45" fill="#282828" height="107.2896" id="SortOrder" rx="8.3333" ry="8.3333" style="stroke:#5E5E5E;stroke-width:1.0416666666666667;" width="100" x="1232.8125" y="53.7028"/><rect fill="#1B1B1A" height="31.3883" rx="8.3333" ry="8.3333" style="stroke:#1B1B1A;stroke-width:1.0416666666666667;" width="100" x="1232.8125" y="53.7028"/><rect fill="#1B1B1A" height="8.3333" style="stroke:#1B1B1A;stroke-width:1.0416666666666667;" width="100" x="1232.8125" y="76.7578"/><rect codeLine="45" fill="none" height="107.2896" id="SortOrder" rx="8.3333" ry="8.3333" style="stroke:#5E5E5E;stroke-width:1.0416666666666667;" width="100" x="1232.8125" y="53.7028"/><ellipse cx="1247.3958" cy="69.397" fill="#CF6300" rx="10.4167" ry="10.4167" style="stroke:#EF8300;stroke-width:1.0416666666666667;"/><path d="M1250.4517,74.0845 L1244.7754,74.0845 L1244.7754,64.9719 L1250.4517,64.9719 L1250.4517,66.5588 L1246.5759,66.5588 L1246.5759,68.5242 L1250.0854,68.5242 L1250.0854,70.1111 L1246.5759,70.1111 L1246.5759,72.4976 L1250.4517,72.4976 Z " fill="#000000"/><text fill="#D8BC00" font-family="Open Sans,Avenir,Nunito,Arial,Helvetica,SansSerif" font-size="12.5" font-weight="bold" lengthAdjust="spacing" textLength="62.5" x="1264.0625" y="74.1211">SortOrder</text><line style="stroke:#5E5E5E;stroke-width:1.0416666666666667;" x1="1233.8542" x2="1331.7708" y1="85.0911" y2="85.0911"/><text fill="#D8BC00" font-family="Open Sans,Avenir,Nunito,Arial,Helvetica,SansSerif" font-size="11.4583" lengthAdjust="spacing" textLength="65.625" x="1242.1875" y="103.4607">ASCENDING</text><text fill="#D8BC00" font-family="Open Sans,Avenir,Nunito,Arial,Helvetica,SansSerif" font-size="11.4583" lengthAdjust="spacing" textLength="71.875" x="1242.1875" y="123.2056">DESCENDING</text><text fill="#D8BC00" font-family="Open Sans,Avenir,Nunito,Arial,Helvetica,SansSerif" font-size="11.4583" lengthAdjust="spacing" textLength="32.2917" x="1242.1875" y="142.9504">NONE</text><line style="stroke:#5E5E5E;stroke-width:1.0416666666666667;" x1="1233.8542" x2="1331.7708" y1="152.6591" y2="152.6591"/><!--MD5=[8dc38ea31ecc49d3cbde99d1cad35e23]
reverse link IClusterable to ISortState--><path codeLine="7" d="M276.5,148.9528 C253.9479,180.2549 222.6042,223.734 198.4167,257.307 " fill="none" id="IClusterable-backto-ISortState" style="stroke:#545454;stroke-width:1.5625;"/><polygon fill="none" points="270.8646,144.307,288.9583,131.6611,282.6979,152.8278,270.8646,144.307" style="stroke:#545454;stroke-width:1.5625;"/><!--MD5=[130956e19d38e892d9550986e9767df0]
reverse link IClusterable to ISortStateLocator--><path codeLine="16" d="M334.5208,148.6299 C359.1771,183.0986 394.5313,232.5153 419.2917,267.1299 " fill="none" id="IClusterable-backto-ISortStateLocator" style="stroke:#545454;stroke-width:1.5625;"/><polygon fill="none" points="328.5729,152.8486,322.375,131.6611,340.4271,144.3695,328.5729,152.8486" style="stroke:#545454;stroke-width:1.5625;"/><!--MD5=[5799d842cc830af012660ade58e20c25]
reverse link Border to OrderByBorder--><path codeLine="23" d="M789.0625,152.4945 C789.0625,173.359 789.0625,198.984 789.0625,223.3695 " fill="none" id="Border-backto-OrderByBorder" style="stroke:#545454;stroke-width:1.5625;"/><polygon fill="none" points="781.7708,152.4945,789.0625,131.6611,796.3542,152.4945,781.7708,152.4945" style="stroke:#545454;stroke-width:1.5625;"/><!--MD5=[de5c9effb7b51933ccf815411a4b76dd]
reverse link Link to OrderByLink--><path codeLine="34" d="M1163.0208,152.5778 C1163.0208,173.9424 1163.0208,200.2965 1163.0208,225.182 " fill="none" id="Link-backto-OrderByLink" style="stroke:#545454;stroke-width:1.5625;"/><polygon fill="none" points="1155.7292,152.4945,1163.0208,131.6611,1170.3125,152.4945,1155.7292,152.4945" style="stroke:#545454;stroke-width:1.5625;"/><!--MD5=[97ebccc5f2fcc53f1852e86a88051c38]
@startuml

    !include lexakai.theme
    
    title "org.apache.wicket.extensions.markup.html.repeater.data.sort"
    
    interface IClusterable
    IClusterable <|- - ISortState
    interface ISortState<S>
    {
        - -(collection)- -
        +SortOrder getPropertySortOrder(S property)
        +void setPropertySortOrder(S property, SortOrder)
    }
    
    interface IClusterable
    IClusterable <|- - ISortStateLocator
    interface ISortStateLocator<T>
    {
        - -(collection)- -
        +ISortState<T> getSortState()
    }
    
    Border <|- - OrderByBorder
    class OrderByBorder<S>
    {
        - -(constructors)- -
        +OrderByBorder(String, S, ISortStateLocator<S>)
        - -(collection)- -
        #void onSortChanged()
        - -(factory)- -
        #OrderByLink<S> newOrderByLink(String id, S property, ISortStateLocator<S>)
    }
    
    Link <|- - OrderByLink
    class OrderByLink<S>
    {
        - -(constructors)- -
        +OrderByLink(String, S, ISortStateLocator<S>)
        - -(collection)- -
        +OrderByLink<S> sort()
        #SortOrder nextSortOrder(SortOrder)
        #void onSortChanged()
    }
    
    enum SortOrder
    {
        ASCENDING
        DESCENDING
        NONE
    }
    
@enduml

@startuml









skinparam backgroundColor #333333






skinparam  {
    defaultFontName   "Open Sans,Avenir,Nunito,Arial,Helvetica,SansSerif"
    defaultFontSize   12
    defaultTextAlignment left
    shadowing false
    RoundCorner 10
    TitleFontSize 18
}

skinparam defaultFontName       "Open Sans,Avenir,Nunito,Arial,Helvetica,SansSerif"
skinparam defaultFontSize       12
skinparam dpi                   100
skinparam shadowing             false
skinparam roundcorner           16
skinparam ParticipantPadding    40
skinparam BoxPadding            40
skinparam Padding               3
skinparam ArrowColor            #545454
skinparam stereotype {
    CBackgroundColor #0066cf
    CBorderColor #0086ef
    ABackgroundColor #C8Ac00
    ABorderColor #D8Bc00
    IBackgroundColor #008400
    IBorderColor #239c23
    EBackgroundColor #cf6300
    EBorderColor #ef8300
    NBackgroundColor #3380b9
    NBorderColor #004d86
}
skinparam title {
	FontColor	                 #c0c0c0
 	BorderColor                  #545454
	FontSize	    	         20
	BorderRoundCorner            16
	BorderThickness 	         1
	BackgroundColor              #48494b
}


skinparam legend {
	BackgroundColor #303030
	BorderColor #404040
	FontColor #a0a0a0
}

	skinparam swimlane {
	BorderColor #5e5e5e
	BorderThickness 2
	TitleBackgroundColor  #6d6d6d-#484848
	TitleFontColor #303030
}

skinparam activity {
		FontColor #C8Ac00
	BorderColor #333333
	BackgroundColor #333333-#333333
	BarColor #00FF00
	StartColor #0060a8
	EndColor #0060a8
	DiamondBackgroundColor #6d6d6d-#3a3a3a
  	DiamondBorderColor #3a3a3a
  	DiamondFontColor #fefefe
}


skinparam participant {
		FontColor #C8Ac00
	BorderColor #333333
	BackgroundColor #333333-#333333
	ParticipantBorderThickness 2
}


skinparam actor {
		FontColor #C8Ac00
	BorderColor #333333
	BackgroundColor #333333-#333333
}


skinparam arrow {
	Thickness 1.5
	Color #545454
	FontColor #a0a0a0
    FontStyle bold
    MessageAlignment center
}



skinparam sequence {
	BorderColor #303030
	TitleFontColor #303030
	BackgroundColor #333333
	StartColor #303030
	EndColor #303030
	BoxBackgroundColor #333333
	BoxBorderColor #484848
	BoxFontColor #484848
	LifeLineBorderColor #484848
	LifeLineBorderThickness 2
	LifeLineBackgroundColor #3a3a3a
	GroupBorderColor #484848
	GroupFontColor #484848
	GroupHeaderFontColor #0060a8
	GroupBackgroundColor #484848
	GroupHeaderBackgroundColor #333333
	DividerBackgroundColor #484848
    DividerBorderColor #484848
    DividerBorderThickness 2
    DividerFontColor #D8Bc00
	ReferenceBackgroundColor #333333
	ReferenceBorderColor #484848
	ReferenceFontColor #fefefe
	ReferenceHeaderBackgroundColor #484848
}


skinparam partition {
	BorderColor #303030
	FontColor #333333
	BackgroundColor #333333
}


skinparam collections {
		FontColor #C8Ac00
	BorderColor #333333
	BackgroundColor #333333-#333333
}


skinparam control {
		FontColor #C8Ac00
	BorderColor #333333
	BackgroundColor #333333-#333333
}


skinparam entity {
		FontColor #C8Ac00
	BorderColor #333333
	BackgroundColor #333333-#333333
}


skinparam boundary {
		FontColor #C8Ac00
	BorderColor #333333
	BackgroundColor #333333-#333333
}


skinparam agent {
	BackgroundColor #ff8000
	BorderColor #ff9933
	FontColor #484848
}


skinparam note {
	BorderThickness 1
	BackgroundColor #1b1b1a
	BorderColor #5e5e5e
	FontSize 11
	FontColor #a0a0a0
}


skinparam artifact {
	BorderThickness 10
	BorderColor #5e5e5e
	BackgroundColor #1b1b1a
	FontColor #D8Bc00
}


skinparam component {
		FontColor #C8Ac00
	BorderColor #333333
	BackgroundColor #333333-#333333
}


skinparam interface {
	BackgroundColor  #008400
	BorderColor  #007F00
	FontColor #484848
}


skinparam storage {
	BackgroundColor #ff8000
  	BorderColor #cc6600
	FontColor #222222
}


skinparam node {
	BackgroundColor #333333
	BorderColor #333333
	FontColor #C8Ac00
}


skinparam cloud {
	BackgroundColor #484848-black
	BorderColor #484848
	FontColor #D8Bc00
}


skinparam database {
		FontColor #C8Ac00
	BorderColor #333333
	BackgroundColor #333333-#333333
	BackgroundColor  #333333
}


skinparam class {
		FontColor #C8Ac00
	BorderColor #333333
	BackgroundColor #333333-#333333
	HeaderBackgroundColor #1b1b1a
    BackgroundColor #282828
    BorderColor #5e5e5e
 	StereotypeFontColor #a0a0a0
    StereotypeFontStyle bold
	BorderThickness 1
	AttributeFontColor #D8Bc00
	AttributeFontSize 11
    FontColor #D8Bc00
    FontStyle bold
}


skinparam object {
		FontColor #C8Ac00
	BorderColor #333333
	BackgroundColor #333333-#333333
	StereotypeFontColor #484848
	BorderThickness 1
	AttributeFontColor #fefefe
	AttributeFontSize 11
}


skinparam usecase {
		FontColor #C8Ac00
	BorderColor #333333
	BackgroundColor #333333-#333333
	BorderThickness 2
	StereotypeFontColor #303030
}


skinparam rectangle {
		FontColor #C8Ac00
	BorderColor #333333
	BackgroundColor #333333-#333333
	BackgroundColor #333333
	BorderThickness 2
	StereotypeFontColor #303030
}


skinparam package {
		FontColor #C8Ac00
	BorderColor #333333
	BackgroundColor #333333-#333333
	BackgroundColor #333333
	BorderThickness 2
}


skinparam folder {
	BackgroundColor #6d6d6d
  	BorderColor #ff8000
	FontColor #ff8000
	BorderThickness 2
}


skinparam frame {
	BackgroundColor #6d6d6d
  	BorderColor #0060a8
	FontColor #0060a8
	BorderThickness 2
}


skinparam state {
		FontColor #C8Ac00
	BorderColor #333333
	BackgroundColor #333333-#333333
	StartColor #0060a8
	EndColor #0060a8
	AttributeFontColor #fefefe
	AttributeFontSize 11
}


skinparam queue {
		FontColor #C8Ac00
	BorderColor #333333
	BackgroundColor #333333-#333333
}


skinparam card {
	BackgroundColor #0060a8
	BorderColor #004d86
	FontColor $INFO_TEXT
}


skinparam file {
	BackgroundColor #6d6d6d-#484848
	BorderColor #0060a8
	FontColor #fefefe
}


skinparam stack {
		FontColor #C8Ac00
	BorderColor #333333
	BackgroundColor #333333-#333333
}

    
    title "org.apache.wicket.extensions.markup.html.repeater.data.sort"
    
    interface IClusterable
    IClusterable <|- - ISortState
    interface ISortState<S>
    {
        - -(collection)- -
        +SortOrder getPropertySortOrder(S property)
        +void setPropertySortOrder(S property, SortOrder)
    }
    
    interface IClusterable
    IClusterable <|- - ISortStateLocator
    interface ISortStateLocator<T>
    {
        - -(collection)- -
        +ISortState<T> getSortState()
    }
    
    Border <|- - OrderByBorder
    class OrderByBorder<S>
    {
        - -(constructors)- -
        +OrderByBorder(String, S, ISortStateLocator<S>)
        - -(collection)- -
        #void onSortChanged()
        - -(factory)- -
        #OrderByLink<S> newOrderByLink(String id, S property, ISortStateLocator<S>)
    }
    
    Link <|- - OrderByLink
    class OrderByLink<S>
    {
        - -(constructors)- -
        +OrderByLink(String, S, ISortStateLocator<S>)
        - -(collection)- -
        +OrderByLink<S> sort()
        #SortOrder nextSortOrder(SortOrder)
        #void onSortChanged()
    }
    
    enum SortOrder
    {
        ASCENDING
        DESCENDING
        NONE
    }
    
@enduml

PlantUML version 1.2021.01(Tue Feb 02 00:55:08 MST 2021)
(GPL source distribution)
Java Runtime: Java(TM) SE Runtime Environment
JVM: Java HotSpot(TM) 64-Bit Server VM
Default Encoding: UTF-8
Language: en
Country: US
--></g></svg>