<?xml version="1.0" encoding="UTF-8" standalone="no"?><svg xmlns="http://www.w3.org/2000/svg" xmlns:xlink="http://www.w3.org/1999/xlink" contentScriptType="application/ecmascript" contentStyleType="text/css" height="218.75px" preserveAspectRatio="none" style="width:668px;height:218px;background:#333333;" version="1.1" viewBox="0 0 668 218" width="668.75px" zoomAndPan="magnify"><defs/><g><rect fill="#48494B" height="41.2028" rx="8.3333" ry="8.3333" style="stroke:#545454;stroke-width:1.0416666666666667;" width="656.25" x="2.0833" y="2.0833"/><text fill="#C0C0C0" font-family="Open Sans,Avenir,Nunito,Arial,Helvetica,SansSerif" font-size="20.8333" lengthAdjust="spacing" textLength="633.3333" x="13.5417" y="30.5583">org.apache.wicket.extensions.markup.html.repeater.tree.theme</text><!--MD5=[9ec104ddfc62073059e345d4e82bb5a8]
class Behavior--><rect fill="#282828" height="48.055" id="Behavior" rx="8.3333" ry="8.3333" style="stroke:#5E5E5E;stroke-width:1.0416666666666667;" width="93.75" x="286.9792" y="53.7028"/><rect fill="#1B1B1A" height="31.3883" rx="8.3333" ry="8.3333" style="stroke:#1B1B1A;stroke-width:1.0416666666666667;" width="93.75" x="286.9792" y="53.7028"/><rect fill="#1B1B1A" height="8.3333" style="stroke:#1B1B1A;stroke-width:1.0416666666666667;" width="93.75" x="286.9792" y="76.7578"/><rect fill="none" height="48.055" id="Behavior" rx="8.3333" ry="8.3333" style="stroke:#5E5E5E;stroke-width:1.0416666666666667;" width="93.75" x="286.9792" y="53.7028"/><ellipse cx="301.5625" cy="69.397" fill="#0066CF" rx="10.4167" ry="10.4167" style="stroke:#0086EF;stroke-width:1.0416666666666667;"/><path d="M303.4729,73.822 Q303.0457,74.0417 302.5757,74.1516 Q302.1057,74.2615 301.5869,74.2615 Q299.7437,74.2615 298.7732,73.0469 Q297.8027,71.8323 297.8027,69.5374 Q297.8027,67.2363 298.7732,66.0217 Q299.7437,64.8071 301.5869,64.8071 Q302.1057,64.8071 302.5818,64.917 Q303.0579,65.0269 303.4729,65.2466 L303.4729,67.2485 Q303.009,66.8213 302.5726,66.6229 Q302.1362,66.4246 301.6724,66.4246 Q300.6836,66.4246 300.1801,67.2089 Q299.6765,67.9932 299.6765,69.5374 Q299.6765,71.0754 300.1801,71.8597 Q300.6836,72.644 301.6724,72.644 Q302.1362,72.644 302.5726,72.4457 Q303.009,72.2473 303.4729,71.8201 Z " fill="#000000"/><text fill="#D8BC00" font-family="Open Sans,Avenir,Nunito,Arial,Helvetica,SansSerif" font-size="12.5" font-weight="bold" lengthAdjust="spacing" textLength="56.25" x="318.2292" y="74.1211">Behavior</text><line style="stroke:#5E5E5E;stroke-width:1.0416666666666667;" x1="288.0208" x2="379.6875" y1="85.0911" y2="85.0911"/><line style="stroke:#5E5E5E;stroke-width:1.0416666666666667;" x1="288.0208" x2="379.6875" y1="93.4245" y2="93.4245"/><!--MD5=[2d55628d15bfe888f1d094dc06760a3d]
class HumanTheme--><rect codeLine="7" fill="#282828" height="48.055" id="HumanTheme" rx="8.3333" ry="8.3333" style="stroke:#5E5E5E;stroke-width:1.0416666666666667;" width="127.0833" x="185.9375" y="164.1195"/><rect fill="#1B1B1A" height="31.3883" rx="8.3333" ry="8.3333" style="stroke:#1B1B1A;stroke-width:1.0416666666666667;" width="127.0833" x="185.9375" y="164.1195"/><rect fill="#1B1B1A" height="8.3333" style="stroke:#1B1B1A;stroke-width:1.0416666666666667;" width="127.0833" x="185.9375" y="187.1745"/><rect codeLine="7" fill="none" height="48.055" id="HumanTheme" rx="8.3333" ry="8.3333" style="stroke:#5E5E5E;stroke-width:1.0416666666666667;" width="127.0833" x="185.9375" y="164.1195"/><ellipse cx="200.5208" cy="179.8136" fill="#0066CF" rx="10.4167" ry="10.4167" style="stroke:#0086EF;stroke-width:1.0416666666666667;"/><path d="M202.4312,184.2387 Q202.004,184.4584 201.534,184.5683 Q201.064,184.6781 200.5452,184.6781 Q198.702,184.6781 197.7315,183.4635 Q196.7611,182.2489 196.7611,179.954 Q196.7611,177.653 197.7315,176.4384 Q198.702,175.2238 200.5452,175.2238 Q201.064,175.2238 201.5401,175.3337 Q202.0162,175.4435 202.4312,175.6632 L202.4312,177.6652 Q201.9674,177.238 201.531,177.0396 Q201.0946,176.8412 200.6307,176.8412 Q199.6419,176.8412 199.1384,177.6255 Q198.6348,178.4098 198.6348,179.954 Q198.6348,181.4921 199.1384,182.2764 Q199.6419,183.0607 200.6307,183.0607 Q201.0946,183.0607 201.531,182.8623 Q201.9674,182.664 202.4312,182.2367 Z " fill="#000000"/><text fill="#D8BC00" font-family="Open Sans,Avenir,Nunito,Arial,Helvetica,SansSerif" font-size="12.5" font-weight="bold" lengthAdjust="spacing" textLength="89.5833" x="217.1875" y="184.5378">HumanTheme</text><line style="stroke:#5E5E5E;stroke-width:1.0416666666666667;" x1="186.9792" x2="311.9792" y1="195.5078" y2="195.5078"/><line style="stroke:#5E5E5E;stroke-width:1.0416666666666667;" x1="186.9792" x2="311.9792" y1="203.8411" y2="203.8411"/><!--MD5=[87631d2f645bb92a23372c45f7f6ac86]
class WindowsTheme--><rect codeLine="12" fill="#282828" height="48.055" id="WindowsTheme" rx="8.3333" ry="8.3333" style="stroke:#5E5E5E;stroke-width:1.0416666666666667;" width="139.5833" x="349.4792" y="164.1195"/><rect fill="#1B1B1A" height="31.3883" rx="8.3333" ry="8.3333" style="stroke:#1B1B1A;stroke-width:1.0416666666666667;" width="139.5833" x="349.4792" y="164.1195"/><rect fill="#1B1B1A" height="8.3333" style="stroke:#1B1B1A;stroke-width:1.0416666666666667;" width="139.5833" x="349.4792" y="187.1745"/><rect codeLine="12" fill="none" height="48.055" id="WindowsTheme" rx="8.3333" ry="8.3333" style="stroke:#5E5E5E;stroke-width:1.0416666666666667;" width="139.5833" x="349.4792" y="164.1195"/><ellipse cx="364.0625" cy="179.8136" fill="#0066CF" rx="10.4167" ry="10.4167" style="stroke:#0086EF;stroke-width:1.0416666666666667;"/><path d="M365.9729,184.2387 Q365.5457,184.4584 365.0757,184.5683 Q364.6057,184.6781 364.0869,184.6781 Q362.2437,184.6781 361.2732,183.4635 Q360.3027,182.2489 360.3027,179.954 Q360.3027,177.653 361.2732,176.4384 Q362.2437,175.2238 364.0869,175.2238 Q364.6057,175.2238 365.0818,175.3337 Q365.5579,175.4435 365.9729,175.6632 L365.9729,177.6652 Q365.509,177.238 365.0726,177.0396 Q364.6362,176.8412 364.1724,176.8412 Q363.1836,176.8412 362.6801,177.6255 Q362.1765,178.4098 362.1765,179.954 Q362.1765,181.4921 362.6801,182.2764 Q363.1836,183.0607 364.1724,183.0607 Q364.6362,183.0607 365.0726,182.8623 Q365.509,182.664 365.9729,182.2367 Z " fill="#000000"/><text fill="#D8BC00" font-family="Open Sans,Avenir,Nunito,Arial,Helvetica,SansSerif" font-size="12.5" font-weight="bold" lengthAdjust="spacing" textLength="102.0833" x="380.7292" y="184.5378">WindowsTheme</text><line style="stroke:#5E5E5E;stroke-width:1.0416666666666667;" x1="350.5208" x2="488.0208" y1="195.5078" y2="195.5078"/><line style="stroke:#5E5E5E;stroke-width:1.0416666666666667;" x1="350.5208" x2="488.0208" y1="203.8411" y2="203.8411"/><!--MD5=[42d241e52887c2734e41aac1fb85ae6b]
reverse link Behavior to HumanTheme--><path codeLine="6" d="M302.7917,118.5882 C290.8542,133.9215 277.6354,150.8903 267.3438,164.0986 " fill="none" id="Behavior-backto-HumanTheme" style="stroke:#545454;stroke-width:1.5625;"/><polygon fill="none" points="297.4063,113.6299,315.9583,101.682,308.9167,122.5986,297.4063,113.6299" style="stroke:#545454;stroke-width:1.5625;"/><!--MD5=[8bfe9ce9eb2a491770c60b7ebbf0786c]
reverse link Behavior to WindowsTheme--><path codeLine="11" d="M364.9063,118.0882 C377.0938,133.5465 390.6563,150.7445 401.1771,164.0986 " fill="none" id="Behavior-backto-WindowsTheme" style="stroke:#545454;stroke-width:1.5625;"/><polygon fill="none" points="359.1458,122.557,351.9688,101.682,370.5938,113.5257,359.1458,122.557" style="stroke:#545454;stroke-width:1.5625;"/><!--MD5=[0528466a2fe35bf2310ac3f4bf0ab5d9]
@startuml

    !include lexakai.theme
    
    title "org.apache.wicket.extensions.markup.html.repeater.tree.theme"
    
    Behavior <|- - HumanTheme
    class HumanTheme
    {
    }
    
    Behavior <|- - WindowsTheme
    class WindowsTheme
    {
    }
    
@enduml

@startuml









skinparam backgroundColor #333333






skinparam  {
    defaultFontName   "Open Sans,Avenir,Nunito,Arial,Helvetica,SansSerif"
    defaultFontSize   12
    defaultTextAlignment left
    shadowing false
    RoundCorner 10
    TitleFontSize 18
}

skinparam defaultFontName       "Open Sans,Avenir,Nunito,Arial,Helvetica,SansSerif"
skinparam defaultFontSize       12
skinparam dpi                   100
skinparam shadowing             false
skinparam roundcorner           16
skinparam ParticipantPadding    40
skinparam BoxPadding            40
skinparam Padding               3
skinparam ArrowColor            #545454
skinparam stereotype {
    CBackgroundColor #0066cf
    CBorderColor #0086ef
    ABackgroundColor #C8Ac00
    ABorderColor #D8Bc00
    IBackgroundColor #008400
    IBorderColor #239c23
    EBackgroundColor #cf6300
    EBorderColor #ef8300
    NBackgroundColor #3380b9
    NBorderColor #004d86
}
skinparam title {
	FontColor	                 #c0c0c0
 	BorderColor                  #545454
	FontSize	    	         20
	BorderRoundCorner            16
	BorderThickness 	         1
	BackgroundColor              #48494b
}


skinparam legend {
	BackgroundColor #303030
	BorderColor #404040
	FontColor #a0a0a0
}

	skinparam swimlane {
	BorderColor #5e5e5e
	BorderThickness 2
	TitleBackgroundColor  #6d6d6d-#484848
	TitleFontColor #303030
}

skinparam activity {
		FontColor #C8Ac00
	BorderColor #333333
	BackgroundColor #333333-#333333
	BarColor #00FF00
	StartColor #0060a8
	EndColor #0060a8
	DiamondBackgroundColor #6d6d6d-#3a3a3a
  	DiamondBorderColor #3a3a3a
  	DiamondFontColor #fefefe
}


skinparam participant {
		FontColor #C8Ac00
	BorderColor #333333
	BackgroundColor #333333-#333333
	ParticipantBorderThickness 2
}


skinparam actor {
		FontColor #C8Ac00
	BorderColor #333333
	BackgroundColor #333333-#333333
}


skinparam arrow {
	Thickness 1.5
	Color #545454
	FontColor #a0a0a0
    FontStyle bold
    MessageAlignment center
}



skinparam sequence {
	BorderColor #303030
	TitleFontColor #303030
	BackgroundColor #333333
	StartColor #303030
	EndColor #303030
	BoxBackgroundColor #333333
	BoxBorderColor #484848
	BoxFontColor #484848
	LifeLineBorderColor #484848
	LifeLineBorderThickness 2
	LifeLineBackgroundColor #3a3a3a
	GroupBorderColor #484848
	GroupFontColor #484848
	GroupHeaderFontColor #0060a8
	GroupBackgroundColor #484848
	GroupHeaderBackgroundColor #333333
	DividerBackgroundColor #484848
    DividerBorderColor #484848
    DividerBorderThickness 2
    DividerFontColor #D8Bc00
	ReferenceBackgroundColor #333333
	ReferenceBorderColor #484848
	ReferenceFontColor #fefefe
	ReferenceHeaderBackgroundColor #484848
}


skinparam partition {
	BorderColor #303030
	FontColor #333333
	BackgroundColor #333333
}


skinparam collections {
		FontColor #C8Ac00
	BorderColor #333333
	BackgroundColor #333333-#333333
}


skinparam control {
		FontColor #C8Ac00
	BorderColor #333333
	BackgroundColor #333333-#333333
}


skinparam entity {
		FontColor #C8Ac00
	BorderColor #333333
	BackgroundColor #333333-#333333
}


skinparam boundary {
		FontColor #C8Ac00
	BorderColor #333333
	BackgroundColor #333333-#333333
}


skinparam agent {
	BackgroundColor #ff8000
	BorderColor #ff9933
	FontColor #484848
}


skinparam note {
	BorderThickness 1
	BackgroundColor #1b1b1a
	BorderColor #5e5e5e
	FontSize 11
	FontColor #a0a0a0
}


skinparam artifact {
	BorderThickness 10
	BorderColor #5e5e5e
	BackgroundColor #1b1b1a
	FontColor #D8Bc00
}


skinparam component {
		FontColor #C8Ac00
	BorderColor #333333
	BackgroundColor #333333-#333333
}


skinparam interface {
	BackgroundColor  #008400
	BorderColor  #007F00
	FontColor #484848
}


skinparam storage {
	BackgroundColor #ff8000
  	BorderColor #cc6600
	FontColor #222222
}


skinparam node {
	BackgroundColor #333333
	BorderColor #333333
	FontColor #C8Ac00
}


skinparam cloud {
	BackgroundColor #484848-black
	BorderColor #484848
	FontColor #D8Bc00
}


skinparam database {
		FontColor #C8Ac00
	BorderColor #333333
	BackgroundColor #333333-#333333
	BackgroundColor  #333333
}


skinparam class {
		FontColor #C8Ac00
	BorderColor #333333
	BackgroundColor #333333-#333333
	HeaderBackgroundColor #1b1b1a
    BackgroundColor #282828
    BorderColor #5e5e5e
 	StereotypeFontColor #a0a0a0
    StereotypeFontStyle bold
	BorderThickness 1
	AttributeFontColor #D8Bc00
	AttributeFontSize 11
    FontColor #D8Bc00
    FontStyle bold
}


skinparam object {
		FontColor #C8Ac00
	BorderColor #333333
	BackgroundColor #333333-#333333
	StereotypeFontColor #484848
	BorderThickness 1
	AttributeFontColor #fefefe
	AttributeFontSize 11
}


skinparam usecase {
		FontColor #C8Ac00
	BorderColor #333333
	BackgroundColor #333333-#333333
	BorderThickness 2
	StereotypeFontColor #303030
}


skinparam rectangle {
		FontColor #C8Ac00
	BorderColor #333333
	BackgroundColor #333333-#333333
	BackgroundColor #333333
	BorderThickness 2
	StereotypeFontColor #303030
}


skinparam package {
		FontColor #C8Ac00
	BorderColor #333333
	BackgroundColor #333333-#333333
	BackgroundColor #333333
	BorderThickness 2
}


skinparam folder {
	BackgroundColor #6d6d6d
  	BorderColor #ff8000
	FontColor #ff8000
	BorderThickness 2
}


skinparam frame {
	BackgroundColor #6d6d6d
  	BorderColor #0060a8
	FontColor #0060a8
	BorderThickness 2
}


skinparam state {
		FontColor #C8Ac00
	BorderColor #333333
	BackgroundColor #333333-#333333
	StartColor #0060a8
	EndColor #0060a8
	AttributeFontColor #fefefe
	AttributeFontSize 11
}


skinparam queue {
		FontColor #C8Ac00
	BorderColor #333333
	BackgroundColor #333333-#333333
}


skinparam card {
	BackgroundColor #0060a8
	BorderColor #004d86
	FontColor $INFO_TEXT
}


skinparam file {
	BackgroundColor #6d6d6d-#484848
	BorderColor #0060a8
	FontColor #fefefe
}


skinparam stack {
		FontColor #C8Ac00
	BorderColor #333333
	BackgroundColor #333333-#333333
}

    
    title "org.apache.wicket.extensions.markup.html.repeater.tree.theme"
    
    Behavior <|- - HumanTheme
    class HumanTheme
    {
    }
    
    Behavior <|- - WindowsTheme
    class WindowsTheme
    {
    }
    
@enduml

PlantUML version 1.2021.01(Tue Feb 02 00:55:08 MST 2021)
(GPL source distribution)
Java Runtime: Java(TM) SE Runtime Environment
JVM: Java HotSpot(TM) 64-Bit Server VM
Default Encoding: UTF-8
Language: en
Country: US
--></g></svg>