<?xml version="1.0" encoding="UTF-8" standalone="no"?><svg xmlns="http://www.w3.org/2000/svg" xmlns:xlink="http://www.w3.org/1999/xlink" contentScriptType="application/ecmascript" contentStyleType="text/css" height="511.4583px" preserveAspectRatio="none" style="width:1440px;height:511px;background:#333333;" version="1.1" viewBox="0 0 1440 511" width="1440.625px" zoomAndPan="magnify"><defs/><g><rect fill="#48494B" height="41.2028" rx="8.3333" ry="8.3333" style="stroke:#545454;stroke-width:1.0416666666666667;" width="570.8333" x="427.6042" y="2.0833"/><text fill="#C0C0C0" font-family="Open Sans,Avenir,Nunito,Arial,Helvetica,SansSerif" font-size="20.8333" lengthAdjust="spacing" textLength="547.9167" x="439.0625" y="30.5583">org.apache.wicket.extensions.markup.html.form.select</text><!--MD5=[3b9d881657e384c41fb8d605844d3c8d]
class IGenericComponent--><rect codeLine="6" fill="#282828" height="48.055" id="IGenericComponent" rx="8.3333" ry="8.3333" style="stroke:#5E5E5E;stroke-width:1.0416666666666667;" width="165.625" x="7.2917" y="53.7028"/><rect fill="#1B1B1A" height="31.3883" rx="8.3333" ry="8.3333" style="stroke:#1B1B1A;stroke-width:1.0416666666666667;" width="165.625" x="7.2917" y="53.7028"/><rect fill="#1B1B1A" height="8.3333" style="stroke:#1B1B1A;stroke-width:1.0416666666666667;" width="165.625" x="7.2917" y="76.7578"/><rect codeLine="6" fill="none" height="48.055" id="IGenericComponent" rx="8.3333" ry="8.3333" style="stroke:#5E5E5E;stroke-width:1.0416666666666667;" width="165.625" x="7.2917" y="53.7028"/><ellipse cx="21.875" cy="69.397" fill="#008400" rx="10.4167" ry="10.4167" style="stroke:#239C23;stroke-width:1.0416666666666667;"/><path d="M19.279,66.5588 L19.279,64.9719 L24.705,64.9719 L24.705,66.5588 L22.8923,66.5588 L22.8923,72.4976 L24.705,72.4976 L24.705,74.0845 L19.279,74.0845 L19.279,72.4976 L21.0917,72.4976 L21.0917,66.5588 Z " fill="#000000"/><text fill="#D8BC00" font-family="Open Sans,Avenir,Nunito,Arial,Helvetica,SansSerif" font-size="12.5" font-style="italic" font-weight="bold" lengthAdjust="spacing" textLength="128.125" x="38.5417" y="74.1211">IGenericComponent</text><line style="stroke:#5E5E5E;stroke-width:1.0416666666666667;" x1="8.3333" x2="171.875" y1="85.0911" y2="85.0911"/><line style="stroke:#5E5E5E;stroke-width:1.0416666666666667;" x1="8.3333" x2="171.875" y1="93.4245" y2="93.4245"/><!--MD5=[6c5faf02b7d93ed54cf7f7e04f65e50c]
class IDetachable--><rect codeLine="8" fill="#282828" height="48.055" id="IDetachable" rx="8.3333" ry="8.3333" style="stroke:#5E5E5E;stroke-width:1.0416666666666667;" width="113.5417" x="457.2917" y="53.7028"/><rect fill="#1B1B1A" height="31.3883" rx="8.3333" ry="8.3333" style="stroke:#1B1B1A;stroke-width:1.0416666666666667;" width="113.5417" x="457.2917" y="53.7028"/><rect fill="#1B1B1A" height="8.3333" style="stroke:#1B1B1A;stroke-width:1.0416666666666667;" width="113.5417" x="457.2917" y="76.7578"/><rect codeLine="8" fill="none" height="48.055" id="IDetachable" rx="8.3333" ry="8.3333" style="stroke:#5E5E5E;stroke-width:1.0416666666666667;" width="113.5417" x="457.2917" y="53.7028"/><ellipse cx="471.875" cy="69.397" fill="#008400" rx="10.4167" ry="10.4167" style="stroke:#239C23;stroke-width:1.0416666666666667;"/><path d="M469.279,66.5588 L469.279,64.9719 L474.705,64.9719 L474.705,66.5588 L472.8923,66.5588 L472.8923,72.4976 L474.705,72.4976 L474.705,74.0845 L469.279,74.0845 L469.279,72.4976 L471.0917,72.4976 L471.0917,66.5588 Z " fill="#000000"/><text fill="#D8BC00" font-family="Open Sans,Avenir,Nunito,Arial,Helvetica,SansSerif" font-size="12.5" font-style="italic" font-weight="bold" lengthAdjust="spacing" textLength="76.0417" x="488.5417" y="74.1211">IDetachable</text><line style="stroke:#5E5E5E;stroke-width:1.0416666666666667;" x1="458.3333" x2="569.7917" y1="85.0911" y2="85.0911"/><line style="stroke:#5E5E5E;stroke-width:1.0416666666666667;" x1="458.3333" x2="569.7917" y1="93.4245" y2="93.4245"/><!--MD5=[7fe4586aa8274bbe152e8eb1a6f71451]
class IOptionRenderer--><rect codeLine="10" fill="#282828" height="87.5448" id="IOptionRenderer" rx="8.3333" ry="8.3333" style="stroke:#5E5E5E;stroke-width:1.0416666666666667;" width="210.4167" x="408.8542" y="217.7653"/><rect fill="#1B1B1A" height="31.3883" rx="8.3333" ry="8.3333" style="stroke:#1B1B1A;stroke-width:1.0416666666666667;" width="210.4167" x="408.8542" y="217.7653"/><rect fill="#1B1B1A" height="8.3333" style="stroke:#1B1B1A;stroke-width:1.0416666666666667;" width="210.4167" x="408.8542" y="240.8203"/><rect codeLine="10" fill="none" height="87.5448" id="IOptionRenderer" rx="8.3333" ry="8.3333" style="stroke:#5E5E5E;stroke-width:1.0416666666666667;" width="210.4167" x="408.8542" y="217.7653"/><ellipse cx="445" cy="233.4595" fill="#008400" rx="10.4167" ry="10.4167" style="stroke:#239C23;stroke-width:1.0416666666666667;"/><path d="M442.404,230.6213 L442.404,229.0344 L447.83,229.0344 L447.83,230.6213 L446.0173,230.6213 L446.0173,236.5601 L447.83,236.5601 L447.83,238.147 L442.404,238.147 L442.404,236.5601 L444.2167,236.5601 L444.2167,230.6213 Z " fill="#000000"/><text fill="#D8BC00" font-family="Open Sans,Avenir,Nunito,Arial,Helvetica,SansSerif" font-size="12.5" font-style="italic" font-weight="bold" lengthAdjust="spacing" textLength="106.25" x="466.4583" y="238.1836">IOptionRenderer</text><rect fill="#333333" height="23.055" style="stroke:#A0A0A0;stroke-width:1.0416666666666667;stroke-dasharray:2.0,2.0;" width="16.6667" x="605.7292" y="214.6403"/><text fill="#A0A0A0" font-family="Open Sans,Avenir,Nunito,Arial,Helvetica,SansSerif" font-size="12.5" font-weight="bold" lengthAdjust="spacing" textLength="8.3333" x="609.8958" y="230.8919">T</text><line style="stroke:#5E5E5E;stroke-width:1.5625;" x1="409.8958" x2="618.2292" y1="249.1536" y2="249.1536"/><line style="stroke:#5E5E5E;stroke-width:1.0416666666666667;" x1="409.8958" x2="618.2292" y1="257.487" y2="257.487"/><ellipse cx="420.3125" cy="268.9453" fill="#84BE84" rx="3.125" ry="3.125" style="stroke:#038048;stroke-width:1.0416666666666667;"/><text fill="#D8BC00" font-family="Open Sans,Avenir,Nunito,Arial,Helvetica,SansSerif" font-size="11.4583" lengthAdjust="spacing" textLength="178.125" x="431.7708" y="275.8565">String getDisplayValue(T object)</text><ellipse cx="420.3125" cy="288.6902" fill="#84BE84" rx="3.125" ry="3.125" style="stroke:#038048;stroke-width:1.0416666666666667;"/><text fill="#D8BC00" font-family="Open Sans,Avenir,Nunito,Arial,Helvetica,SansSerif" font-size="11.4583" lengthAdjust="spacing" textLength="164.5833" x="431.7708" y="295.6014">IModel&lt;T&gt; getModel(T value)</text><!--MD5=[f8e3f430aba53488064f8336fa209af9]
class FormComponent--><rect fill="#282828" height="48.055" id="FormComponent" rx="8.3333" ry="8.3333" style="stroke:#5E5E5E;stroke-width:1.0416666666666667;" width="146.875" x="684.375" y="53.7028"/><rect fill="#1B1B1A" height="31.3883" rx="8.3333" ry="8.3333" style="stroke:#1B1B1A;stroke-width:1.0416666666666667;" width="146.875" x="684.375" y="53.7028"/><rect fill="#1B1B1A" height="8.3333" style="stroke:#1B1B1A;stroke-width:1.0416666666666667;" width="146.875" x="684.375" y="76.7578"/><rect fill="none" height="48.055" id="FormComponent" rx="8.3333" ry="8.3333" style="stroke:#5E5E5E;stroke-width:1.0416666666666667;" width="146.875" x="684.375" y="53.7028"/><ellipse cx="698.9583" cy="69.397" fill="#0066CF" rx="10.4167" ry="10.4167" style="stroke:#0086EF;stroke-width:1.0416666666666667;"/><path d="M700.8687,73.822 Q700.4415,74.0417 699.9715,74.1516 Q699.5015,74.2615 698.9827,74.2615 Q697.1395,74.2615 696.169,73.0469 Q695.1986,71.8323 695.1986,69.5374 Q695.1986,67.2363 696.169,66.0217 Q697.1395,64.8071 698.9827,64.8071 Q699.5015,64.8071 699.9776,64.917 Q700.4537,65.0269 700.8687,65.2466 L700.8687,67.2485 Q700.4049,66.8213 699.9685,66.6229 Q699.5321,66.4246 699.0682,66.4246 Q698.0794,66.4246 697.5759,67.2089 Q697.0723,67.9932 697.0723,69.5374 Q697.0723,71.0754 697.5759,71.8597 Q698.0794,72.644 699.0682,72.644 Q699.5321,72.644 699.9685,72.4457 Q700.4049,72.2473 700.8687,71.8201 Z " fill="#000000"/><text fill="#D8BC00" font-family="Open Sans,Avenir,Nunito,Arial,Helvetica,SansSerif" font-size="12.5" font-weight="bold" lengthAdjust="spacing" textLength="109.375" x="715.625" y="74.1211">FormComponent</text><line style="stroke:#5E5E5E;stroke-width:1.0416666666666667;" x1="685.4167" x2="830.2083" y1="85.0911" y2="85.0911"/><line style="stroke:#5E5E5E;stroke-width:1.0416666666666667;" x1="685.4167" x2="830.2083" y1="93.4245" y2="93.4245"/><!--MD5=[25fb7419bbbcbf228ba4866db67def41]
class Select--><rect codeLine="18" fill="#282828" height="146.7794" id="Select" rx="8.3333" ry="8.3333" style="stroke:#5E5E5E;stroke-width:1.0416666666666667;" width="204.1667" x="655.7292" y="188.0778"/><rect fill="#1B1B1A" height="31.3883" rx="8.3333" ry="8.3333" style="stroke:#1B1B1A;stroke-width:1.0416666666666667;" width="204.1667" x="655.7292" y="188.0778"/><rect fill="#1B1B1A" height="8.3333" style="stroke:#1B1B1A;stroke-width:1.0416666666666667;" width="204.1667" x="655.7292" y="211.1328"/><rect codeLine="18" fill="none" height="146.7794" id="Select" rx="8.3333" ry="8.3333" style="stroke:#5E5E5E;stroke-width:1.0416666666666667;" width="204.1667" x="655.7292" y="188.0778"/><ellipse cx="722.3958" cy="203.772" fill="#0066CF" rx="10.4167" ry="10.4167" style="stroke:#0086EF;stroke-width:1.0416666666666667;"/><path d="M724.3062,208.197 Q723.879,208.4167 723.409,208.5266 Q722.939,208.6365 722.4202,208.6365 Q720.577,208.6365 719.6065,207.4219 Q718.6361,206.2073 718.6361,203.9124 Q718.6361,201.6113 719.6065,200.3967 Q720.577,199.1821 722.4202,199.1821 Q722.939,199.1821 723.4151,199.292 Q723.8912,199.4019 724.3062,199.6216 L724.3062,201.6235 Q723.8424,201.1963 723.406,200.9979 Q722.9696,200.7996 722.5057,200.7996 Q721.5169,200.7996 721.0134,201.5839 Q720.5098,202.3682 720.5098,203.9124 Q720.5098,205.4504 721.0134,206.2347 Q721.5169,207.019 722.5057,207.019 Q722.9696,207.019 723.406,206.8207 Q723.8424,206.6223 724.3062,206.1951 Z " fill="#000000"/><text fill="#D8BC00" font-family="Open Sans,Avenir,Nunito,Arial,Helvetica,SansSerif" font-size="12.5" font-weight="bold" lengthAdjust="spacing" textLength="37.5" x="745.3125" y="208.4961">Select</text><rect fill="#333333" height="23.055" style="stroke:#A0A0A0;stroke-width:1.0416666666666667;stroke-dasharray:2.0,2.0;" width="16.6667" x="846.3542" y="184.9528"/><text fill="#A0A0A0" font-family="Open Sans,Avenir,Nunito,Arial,Helvetica,SansSerif" font-size="12.5" font-weight="bold" lengthAdjust="spacing" textLength="8.3333" x="850.5208" y="201.2044">T</text><line style="stroke:#5E5E5E;stroke-width:1.5625;" x1="656.7708" x2="858.8542" y1="219.4661" y2="219.4661"/><ellipse cx="667.1875" cy="254.836" fill="#84BE84" rx="3.125" ry="3.125" style="stroke:#038048;stroke-width:1.0416666666666667;"/><text fill="#D8BC00" font-family="Open Sans,Avenir,Nunito,Arial,Helvetica,SansSerif" font-size="11.4583" lengthAdjust="spacing" textLength="73.9583" x="678.6458" y="261.7472">Select(String)</text><ellipse cx="667.1875" cy="274.5809" fill="#84BE84" rx="3.125" ry="3.125" style="stroke:#038048;stroke-width:1.0416666666666667;"/><text fill="#D8BC00" font-family="Open Sans,Avenir,Nunito,Arial,Helvetica,SansSerif" font-size="11.4583" lengthAdjust="spacing" textLength="142.7083" x="678.6458" y="281.4921">Select(String, IModel&lt;T&gt;)</text><line style="stroke:#5E5E5E;stroke-width:1.0416666666666667;" x1="656.7708" x2="714.0625" y1="237.6719" y2="237.6719"/><text fill="#D8BC00" font-family="Open Sans,Avenir,Nunito,Arial,Helvetica,SansSerif" font-size="11.4583" lengthAdjust="spacing" textLength="81.25" x="717.1875" y="241.4815">(constructors)</text><line style="stroke:#5E5E5E;stroke-width:1.0416666666666667;" x1="801.5625" x2="858.8542" y1="237.6719" y2="237.6719"/><polygon fill="#FFFF44" points="667.1875,313.029,671.3542,317.1956,667.1875,321.3623,663.0208,317.1956" style="stroke:#B38D22;stroke-width:1.0416666666666667;"/><text fill="#D8BC00" font-family="Open Sans,Avenir,Nunito,Arial,Helvetica,SansSerif" font-size="11.4583" lengthAdjust="spacing" textLength="171.875" x="678.6458" y="325.1485">boolean isSelected(IModel&lt;?&gt;)</text><line style="stroke:#5E5E5E;stroke-width:1.0416666666666667;" x1="656.7708" x2="731.25" y1="301.0732" y2="301.0732"/><text fill="#D8BC00" font-family="Open Sans,Avenir,Nunito,Arial,Helvetica,SansSerif" font-size="11.4583" lengthAdjust="spacing" textLength="46.875" x="734.375" y="304.8828">(checks)</text><line style="stroke:#5E5E5E;stroke-width:1.0416666666666667;" x1="784.375" x2="858.8542" y1="301.0732" y2="301.0732"/><!--MD5=[48b1bd5d531db141ae627bfe1d3aa0cf]
class WebMarkupContainer--><rect fill="#282828" height="48.055" id="WebMarkupContainer" rx="8.3333" ry="8.3333" style="stroke:#5E5E5E;stroke-width:1.0416666666666667;" width="177.0833" x="209.8958" y="53.7028"/><rect fill="#1B1B1A" height="31.3883" rx="8.3333" ry="8.3333" style="stroke:#1B1B1A;stroke-width:1.0416666666666667;" width="177.0833" x="209.8958" y="53.7028"/><rect fill="#1B1B1A" height="8.3333" style="stroke:#1B1B1A;stroke-width:1.0416666666666667;" width="177.0833" x="209.8958" y="76.7578"/><rect fill="none" height="48.055" id="WebMarkupContainer" rx="8.3333" ry="8.3333" style="stroke:#5E5E5E;stroke-width:1.0416666666666667;" width="177.0833" x="209.8958" y="53.7028"/><ellipse cx="224.4792" cy="69.397" fill="#0066CF" rx="10.4167" ry="10.4167" style="stroke:#0086EF;stroke-width:1.0416666666666667;"/><path d="M226.3896,73.822 Q225.9623,74.0417 225.4924,74.1516 Q225.0224,74.2615 224.5036,74.2615 Q222.6603,74.2615 221.6899,73.0469 Q220.7194,71.8323 220.7194,69.5374 Q220.7194,67.2363 221.6899,66.0217 Q222.6603,64.8071 224.5036,64.8071 Q225.0224,64.8071 225.4985,64.917 Q225.9745,65.0269 226.3896,65.2466 L226.3896,67.2485 Q225.9257,66.8213 225.4893,66.6229 Q225.0529,66.4246 224.589,66.4246 Q223.6003,66.4246 223.0967,67.2089 Q222.5932,67.9932 222.5932,69.5374 Q222.5932,71.0754 223.0967,71.8597 Q223.6003,72.644 224.589,72.644 Q225.0529,72.644 225.4893,72.4457 Q225.9257,72.2473 226.3896,71.8201 Z " fill="#000000"/><text fill="#D8BC00" font-family="Open Sans,Avenir,Nunito,Arial,Helvetica,SansSerif" font-size="12.5" font-weight="bold" lengthAdjust="spacing" textLength="139.5833" x="241.1458" y="74.1211">WebMarkupContainer</text><line style="stroke:#5E5E5E;stroke-width:1.0416666666666667;" x1="210.9375" x2="385.9375" y1="85.0911" y2="85.0911"/><line style="stroke:#5E5E5E;stroke-width:1.0416666666666667;" x1="210.9375" x2="385.9375" y1="93.4245" y2="93.4245"/><!--MD5=[8a808263d029096de4f543e65e9babb5]
class SelectOption--><rect codeLine="29" fill="#282828" height="131.2012" id="SelectOption" rx="8.3333" ry="8.3333" style="stroke:#5E5E5E;stroke-width:1.0416666666666667;" width="213.5417" x="70.8333" y="195.8903"/><rect fill="#1B1B1A" height="31.3883" rx="8.3333" ry="8.3333" style="stroke:#1B1B1A;stroke-width:1.0416666666666667;" width="213.5417" x="70.8333" y="195.8903"/><rect fill="#1B1B1A" height="8.3333" style="stroke:#1B1B1A;stroke-width:1.0416666666666667;" width="213.5417" x="70.8333" y="218.9453"/><rect codeLine="29" fill="none" height="131.2012" id="SelectOption" rx="8.3333" ry="8.3333" style="stroke:#5E5E5E;stroke-width:1.0416666666666667;" width="213.5417" x="70.8333" y="195.8903"/><ellipse cx="119.7917" cy="211.5845" fill="#0066CF" rx="10.4167" ry="10.4167" style="stroke:#0086EF;stroke-width:1.0416666666666667;"/><path d="M121.7021,216.0095 Q121.2748,216.2292 120.8049,216.3391 Q120.3349,216.449 119.8161,216.449 Q117.9728,216.449 117.0024,215.2344 Q116.0319,214.0198 116.0319,211.7249 Q116.0319,209.4238 117.0024,208.2092 Q117.9728,206.9946 119.8161,206.9946 Q120.3349,206.9946 120.811,207.1045 Q121.287,207.2144 121.7021,207.4341 L121.7021,209.436 Q121.2382,209.0088 120.8018,208.8104 Q120.3654,208.6121 119.9015,208.6121 Q118.9128,208.6121 118.4092,209.3964 Q117.9057,210.1807 117.9057,211.7249 Q117.9057,213.2629 118.4092,214.0472 Q118.9128,214.8315 119.9015,214.8315 Q120.3654,214.8315 120.8018,214.6332 Q121.2382,214.4348 121.7021,214.0076 Z " fill="#000000"/><text fill="#D8BC00" font-family="Open Sans,Avenir,Nunito,Arial,Helvetica,SansSerif" font-size="12.5" font-weight="bold" lengthAdjust="spacing" textLength="82.2917" x="142.7083" y="216.3086">SelectOption</text><rect fill="#333333" height="23.055" style="stroke:#A0A0A0;stroke-width:1.0416666666666667;stroke-dasharray:2.0,2.0;" width="16.6667" x="270.8333" y="192.7653"/><text fill="#A0A0A0" font-family="Open Sans,Avenir,Nunito,Arial,Helvetica,SansSerif" font-size="12.5" font-weight="bold" lengthAdjust="spacing" textLength="8.3333" x="275" y="209.0169">T</text><line style="stroke:#5E5E5E;stroke-width:1.5625;" x1="71.875" x2="283.3333" y1="227.2786" y2="227.2786"/><ellipse cx="82.2917" cy="262.6485" fill="#84BE84" rx="3.125" ry="3.125" style="stroke:#038048;stroke-width:1.0416666666666667;"/><text fill="#D8BC00" font-family="Open Sans,Avenir,Nunito,Arial,Helvetica,SansSerif" font-size="11.4583" lengthAdjust="spacing" textLength="112.5" x="93.75" y="269.5597">SelectOption(String)</text><ellipse cx="82.2917" cy="282.3934" fill="#84BE84" rx="3.125" ry="3.125" style="stroke:#038048;stroke-width:1.0416666666666667;"/><text fill="#D8BC00" font-family="Open Sans,Avenir,Nunito,Arial,Helvetica,SansSerif" font-size="11.4583" lengthAdjust="spacing" textLength="181.25" x="93.75" y="289.3046">SelectOption(String, IModel&lt;T&gt;)</text><line style="stroke:#5E5E5E;stroke-width:1.0416666666666667;" x1="71.875" x2="133.8542" y1="245.4844" y2="245.4844"/><text fill="#D8BC00" font-family="Open Sans,Avenir,Nunito,Arial,Helvetica,SansSerif" font-size="11.4583" lengthAdjust="spacing" textLength="81.25" x="136.9792" y="249.294">(constructors)</text><line style="stroke:#5E5E5E;stroke-width:1.0416666666666667;" x1="221.3542" x2="283.3333" y1="245.4844" y2="245.4844"/><line style="stroke:#5E5E5E;stroke-width:1.0416666666666667;" x1="71.875" x2="283.3333" y1="299.0133" y2="299.0133"/><ellipse cx="82.2917" cy="310.4716" fill="#84BE84" rx="3.125" ry="3.125" style="stroke:#038048;stroke-width:1.0416666666666667;"/><text fill="#D8BC00" font-family="Open Sans,Avenir,Nunito,Arial,Helvetica,SansSerif" font-size="11.4583" lengthAdjust="spacing" textLength="92.7083" x="93.75" y="317.3828">String getValue()</text><!--MD5=[6cea385785bd6fb824a3ad8196b7fa6f]
class RepeatingView--><rect fill="#282828" height="48.055" id="RepeatingView" rx="8.3333" ry="8.3333" style="stroke:#5E5E5E;stroke-width:1.0416666666666667;" width="132.2917" x="1096.875" y="53.7028"/><rect fill="#1B1B1A" height="31.3883" rx="8.3333" ry="8.3333" style="stroke:#1B1B1A;stroke-width:1.0416666666666667;" width="132.2917" x="1096.875" y="53.7028"/><rect fill="#1B1B1A" height="8.3333" style="stroke:#1B1B1A;stroke-width:1.0416666666666667;" width="132.2917" x="1096.875" y="76.7578"/><rect fill="none" height="48.055" id="RepeatingView" rx="8.3333" ry="8.3333" style="stroke:#5E5E5E;stroke-width:1.0416666666666667;" width="132.2917" x="1096.875" y="53.7028"/><ellipse cx="1111.4583" cy="69.397" fill="#0066CF" rx="10.4167" ry="10.4167" style="stroke:#0086EF;stroke-width:1.0416666666666667;"/><path d="M1113.3687,73.822 Q1112.9415,74.0417 1112.4715,74.1516 Q1112.0015,74.2615 1111.4827,74.2615 Q1109.6395,74.2615 1108.669,73.0469 Q1107.6986,71.8323 1107.6986,69.5374 Q1107.6986,67.2363 1108.669,66.0217 Q1109.6395,64.8071 1111.4827,64.8071 Q1112.0015,64.8071 1112.4776,64.917 Q1112.9537,65.0269 1113.3687,65.2466 L1113.3687,67.2485 Q1112.9049,66.8213 1112.4685,66.6229 Q1112.0321,66.4246 1111.5682,66.4246 Q1110.5794,66.4246 1110.0759,67.2089 Q1109.5723,67.9932 1109.5723,69.5374 Q1109.5723,71.0754 1110.0759,71.8597 Q1110.5794,72.644 1111.5682,72.644 Q1112.0321,72.644 1112.4685,72.4457 Q1112.9049,72.2473 1113.3687,71.8201 Z " fill="#000000"/><text fill="#D8BC00" font-family="Open Sans,Avenir,Nunito,Arial,Helvetica,SansSerif" font-size="12.5" font-weight="bold" lengthAdjust="spacing" textLength="94.7917" x="1128.125" y="74.1211">RepeatingView</text><line style="stroke:#5E5E5E;stroke-width:1.0416666666666667;" x1="1097.9167" x2="1228.125" y1="85.0911" y2="85.0911"/><line style="stroke:#5E5E5E;stroke-width:1.0416666666666667;" x1="1097.9167" x2="1228.125" y1="93.4245" y2="93.4245"/><!--MD5=[a681d6f7f313f739a8d60090ee9ab26d]
class SelectOptions--><rect codeLine="39" fill="#282828" height="194.6025" id="SelectOptions" rx="8.3333" ry="8.3333" style="stroke:#5E5E5E;stroke-width:1.0416666666666667;" width="532.2917" x="896.875" y="164.1195"/><rect fill="#1B1B1A" height="31.3883" rx="8.3333" ry="8.3333" style="stroke:#1B1B1A;stroke-width:1.0416666666666667;" width="532.2917" x="896.875" y="164.1195"/><rect fill="#1B1B1A" height="8.3333" style="stroke:#1B1B1A;stroke-width:1.0416666666666667;" width="532.2917" x="896.875" y="187.1745"/><rect codeLine="39" fill="none" height="194.6025" id="SelectOptions" rx="8.3333" ry="8.3333" style="stroke:#5E5E5E;stroke-width:1.0416666666666667;" width="532.2917" x="896.875" y="164.1195"/><ellipse cx="1101.5625" cy="179.8136" fill="#0066CF" rx="10.4167" ry="10.4167" style="stroke:#0086EF;stroke-width:1.0416666666666667;"/><path d="M1103.4729,184.2387 Q1103.0457,184.4584 1102.5757,184.5683 Q1102.1057,184.6781 1101.5869,184.6781 Q1099.7437,184.6781 1098.7732,183.4635 Q1097.8027,182.2489 1097.8027,179.954 Q1097.8027,177.653 1098.7732,176.4384 Q1099.7437,175.2238 1101.5869,175.2238 Q1102.1057,175.2238 1102.5818,175.3337 Q1103.0579,175.4435 1103.4729,175.6632 L1103.4729,177.6652 Q1103.009,177.238 1102.5726,177.0396 Q1102.1362,176.8412 1101.6724,176.8412 Q1100.6836,176.8412 1100.1801,177.6255 Q1099.6765,178.4098 1099.6765,179.954 Q1099.6765,181.4921 1100.1801,182.2764 Q1100.6836,183.0607 1101.6724,183.0607 Q1102.1362,183.0607 1102.5726,182.8623 Q1103.009,182.664 1103.4729,182.2367 Z " fill="#000000"/><text fill="#D8BC00" font-family="Open Sans,Avenir,Nunito,Arial,Helvetica,SansSerif" font-size="12.5" font-weight="bold" lengthAdjust="spacing" textLength="89.5833" x="1124.4792" y="184.5378">SelectOptions</text><rect fill="#333333" height="23.055" style="stroke:#A0A0A0;stroke-width:1.0416666666666667;stroke-dasharray:2.0,2.0;" width="16.6667" x="1415.625" y="160.9945"/><text fill="#A0A0A0" font-family="Open Sans,Avenir,Nunito,Arial,Helvetica,SansSerif" font-size="12.5" font-weight="bold" lengthAdjust="spacing" textLength="8.3333" x="1419.7917" y="177.2461">T</text><line style="stroke:#5E5E5E;stroke-width:1.5625;" x1="897.9167" x2="1428.125" y1="195.5078" y2="195.5078"/><ellipse cx="908.3333" cy="230.8777" fill="#84BE84" rx="3.125" ry="3.125" style="stroke:#038048;stroke-width:1.0416666666666667;"/><text fill="#D8BC00" font-family="Open Sans,Avenir,Nunito,Arial,Helvetica,SansSerif" font-size="11.4583" lengthAdjust="spacing" textLength="388.5417" x="919.7917" y="237.7889">SelectOptions(String, Collection&lt;? extends T&gt;, IOptionRenderer&lt;T&gt;)</text><ellipse cx="908.3333" cy="250.6226" fill="#84BE84" rx="3.125" ry="3.125" style="stroke:#038048;stroke-width:1.0416666666666667;"/><text fill="#D8BC00" font-family="Open Sans,Avenir,Nunito,Arial,Helvetica,SansSerif" font-size="11.4583" lengthAdjust="spacing" textLength="500" x="919.7917" y="257.5338">SelectOptions(String, IModel&lt;? extends Collection&lt;? extends T&gt;&gt;, IOptionRenderer&lt;T&gt;)</text><line style="stroke:#5E5E5E;stroke-width:1.0416666666666667;" x1="897.9167" x2="1119.2708" y1="213.7136" y2="213.7136"/><text fill="#D8BC00" font-family="Open Sans,Avenir,Nunito,Arial,Helvetica,SansSerif" font-size="11.4583" lengthAdjust="spacing" textLength="81.25" x="1122.3958" y="217.5232">(constructors)</text><line style="stroke:#5E5E5E;stroke-width:1.0416666666666667;" x1="1206.7708" x2="1428.125" y1="213.7136" y2="213.7136"/><line style="stroke:#5E5E5E;stroke-width:1.0416666666666667;" x1="897.9167" x2="1428.125" y1="267.2424" y2="267.2424"/><ellipse cx="908.3333" cy="278.7008" fill="#84BE84" rx="3.125" ry="3.125" style="stroke:#038048;stroke-width:1.0416666666666667;"/><text fill="#D8BC00" font-family="Open Sans,Avenir,Nunito,Arial,Helvetica,SansSerif" font-size="11.4583" lengthAdjust="spacing" textLength="312.5" x="919.7917" y="285.612">SelectOptions&lt;T&gt; setRecreateChoices(boolean refresh)</text><polygon fill="#FFFF44" points="908.3333,317.1488,912.5,321.3155,908.3333,325.4822,904.1667,321.3155" style="stroke:#B38D22;stroke-width:1.0416666666666667;"/><text fill="#D8BC00" font-family="Open Sans,Avenir,Nunito,Arial,Helvetica,SansSerif" font-size="11.4583" lengthAdjust="spacing" textLength="295.8333" x="919.7917" y="329.2684">SelectOption&lt;T&gt; newOption(String text, IModel&lt;T&gt;)</text><polygon fill="#FFFF44" points="908.3333,336.8937,912.5,341.0604,908.3333,345.2271,904.1667,341.0604" style="stroke:#B38D22;stroke-width:1.0416666666666667;"/><text fill="#D8BC00" font-family="Open Sans,Avenir,Nunito,Arial,Helvetica,SansSerif" font-size="11.4583" lengthAdjust="spacing" textLength="348.9583" x="919.7917" y="349.0133">SelectOption&lt;T&gt; newOption(String id, String text, IModel&lt;T&gt;)</text><line style="stroke:#5E5E5E;stroke-width:1.0416666666666667;" x1="897.9167" x2="1135.9375" y1="305.1931" y2="305.1931"/><text fill="#D8BC00" font-family="Open Sans,Avenir,Nunito,Arial,Helvetica,SansSerif" font-size="11.4583" lengthAdjust="spacing" textLength="47.9167" x="1139.0625" y="309.0027">(factory)</text><line style="stroke:#5E5E5E;stroke-width:1.0416666666666667;" x1="1190.1042" x2="1428.125" y1="305.1931" y2="305.1931"/><!--MD5=[bcc06376d8912753a1e55c209a37cb52]
class SelectOptions.SimpleSelectOption--><rect codeLine="52" fill="#282828" height="83.3781" id="SelectOptions.SimpleSelectOption" rx="8.3333" ry="8.3333" style="stroke:#5E5E5E;stroke-width:1.0416666666666667;" width="289.5833" x="32.8125" y="421.4111"/><rect fill="#1B1B1A" height="31.3883" rx="8.3333" ry="8.3333" style="stroke:#1B1B1A;stroke-width:1.0416666666666667;" width="289.5833" x="32.8125" y="421.4111"/><rect fill="#1B1B1A" height="8.3333" style="stroke:#1B1B1A;stroke-width:1.0416666666666667;" width="289.5833" x="32.8125" y="444.4661"/><rect codeLine="52" fill="none" height="83.3781" id="SelectOptions.SimpleSelectOption" rx="8.3333" ry="8.3333" style="stroke:#5E5E5E;stroke-width:1.0416666666666667;" width="289.5833" x="32.8125" y="421.4111"/><ellipse cx="97.9167" cy="437.1053" fill="#0066CF" rx="10.4167" ry="10.4167" style="stroke:#0086EF;stroke-width:1.0416666666666667;"/><path d="M99.8271,441.5304 Q99.3998,441.7501 98.9299,441.8599 Q98.4599,441.9698 97.9411,441.9698 Q96.0978,441.9698 95.1274,440.7552 Q94.1569,439.5406 94.1569,437.2457 Q94.1569,434.9447 95.1274,433.7301 Q96.0978,432.5155 97.9411,432.5155 Q98.4599,432.5155 98.936,432.6253 Q99.412,432.7352 99.8271,432.9549 L99.8271,434.9569 Q99.3632,434.5296 98.9268,434.3313 Q98.4904,434.1329 98.0265,434.1329 Q97.0378,434.1329 96.5342,434.9172 Q96.0307,435.7015 96.0307,437.2457 Q96.0307,438.7838 96.5342,439.5681 Q97.0378,440.3524 98.0265,440.3524 Q98.4904,440.3524 98.9268,440.154 Q99.3632,439.9556 99.8271,439.5284 Z " fill="#000000"/><text fill="#D8BC00" font-family="Open Sans,Avenir,Nunito,Arial,Helvetica,SansSerif" font-size="12.5" font-weight="bold" lengthAdjust="spacing" textLength="126.0417" x="120.8333" y="441.8294">SimpleSelectOption</text><rect fill="#333333" height="23.055" style="stroke:#A0A0A0;stroke-width:1.0416666666666667;stroke-dasharray:2.0,2.0;" width="16.6667" x="308.8542" y="418.2861"/><text fill="#A0A0A0" font-family="Open Sans,Avenir,Nunito,Arial,Helvetica,SansSerif" font-size="12.5" font-weight="bold" lengthAdjust="spacing" textLength="8.3333" x="313.0208" y="434.5378">V</text><line style="stroke:#5E5E5E;stroke-width:1.5625;" x1="33.8542" x2="321.3542" y1="452.7995" y2="452.7995"/><ellipse cx="44.2708" cy="488.1694" fill="#84BE84" rx="3.125" ry="3.125" style="stroke:#038048;stroke-width:1.0416666666666667;"/><text fill="#D8BC00" font-family="Open Sans,Avenir,Nunito,Arial,Helvetica,SansSerif" font-size="11.4583" lengthAdjust="spacing" textLength="257.2917" x="55.7292" y="495.0806">SimpleSelectOption(String, IModel&lt;V&gt;, String)</text><line style="stroke:#5E5E5E;stroke-width:1.0416666666666667;" x1="33.8542" x2="133.8542" y1="471.0052" y2="471.0052"/><text fill="#D8BC00" font-family="Open Sans,Avenir,Nunito,Arial,Helvetica,SansSerif" font-size="11.4583" lengthAdjust="spacing" textLength="81.25" x="136.9792" y="474.8149">(constructors)</text><line style="stroke:#5E5E5E;stroke-width:1.0416666666666667;" x1="221.3542" x2="321.3542" y1="471.0052" y2="471.0052"/><!--MD5=[13b2814e66f4ab484b88e206f2ac56d9]
reverse link IDetachable to IOptionRenderer--><path codeLine="9" d="M514.0625,122.6299 C514.0625,151.4424 514.0625,188.932 514.0625,217.5361 " fill="none" id="IDetachable-backto-IOptionRenderer" style="stroke:#545454;stroke-width:1.5625;"/><polygon fill="none" points="506.7708,122.557,514.0625,101.7236,521.3542,122.557,506.7708,122.557" style="stroke:#545454;stroke-width:1.5625;"/><!--MD5=[9f150610ac8c98fa100de1a3edbb9675]
reverse link FormComponent to Select--><path codeLine="17" d="M757.8125,122.8486 C757.8125,142.3695 757.8125,165.8382 757.8125,187.8278 " fill="none" id="FormComponent-backto-Select" style="stroke:#545454;stroke-width:1.5625;"/><polygon fill="none" points="750.5208,122.557,757.8125,101.7236,765.1042,122.557,750.5208,122.557" style="stroke:#545454;stroke-width:1.5625;"/><!--MD5=[e31080f7a194626f5ab3fb01b9bbc31e]
reverse link WebMarkupContainer to SelectOption--><path codeLine="27" d="M271.3958,119.3799 C256.4271,141.8903 237.4896,170.3903 220.5417,195.8799 " fill="none" id="WebMarkupContainer-backto-SelectOption" style="stroke:#545454;stroke-width:1.5625;"/><polygon fill="none" points="265.5313,115.0361,283.1354,101.7236,277.6771,123.109,265.5313,115.0361" style="stroke:#545454;stroke-width:1.5625;"/><!--MD5=[cdc8cb282f7d0f56655419c6c355d434]
reverse link IGenericComponent to SelectOption--><path codeLine="28" d="M110.3438,120.7445 C121.0729,143.0361 134.4896,170.9111 146.5104,195.8799 " fill="none" id="IGenericComponent-backto-SelectOption" style="stroke:#545454;stroke-width:1.5625;"/><polygon fill="none" points="103.6563,123.6611,101.1875,101.7236,116.7917,117.3382,103.6563,123.6611" style="stroke:#545454;stroke-width:1.5625;"/><!--MD5=[3ad3c33e79191dbf717be1338d1a239f]
reverse link RepeatingView to SelectOptions--><path codeLine="38" d="M1163.0208,122.8382 C1163.0208,135.3799 1163.0208,149.5674 1163.0208,163.932 " fill="none" id="RepeatingView-backto-SelectOptions" style="stroke:#545454;stroke-width:1.5625;"/><polygon fill="none" points="1155.7292,122.557,1163.0208,101.7236,1170.3125,122.557,1155.7292,122.557" style="stroke:#545454;stroke-width:1.5625;"/><!--MD5=[2e09904fb4911b45353b5453c5bb4a8e]
reverse link SelectOption to SelectOptions.SimpleSelectOption--><path codeLine="51" d="M177.6042,348.2236 C177.6042,373.6195 177.6042,400.2653 177.6042,421.3799 " fill="none" id="SelectOption-backto-SelectOptions.SimpleSelectOption" style="stroke:#545454;stroke-width:1.5625;"/><polygon fill="none" points="170.3125,348.1507,177.6042,327.3174,184.8958,348.1507,170.3125,348.1507" style="stroke:#545454;stroke-width:1.5625;"/><!--MD5=[d2b28a2413b78f2f83772ccf3fa083d6]
@startuml

    !include lexakai.theme
    
    title "org.apache.wicket.extensions.markup.html.form.select"
    
    interface IGenericComponent
    
    interface IDetachable
    IDetachable <|- - IOptionRenderer
    interface IOptionRenderer<T>
    {
        - -
        +String getDisplayValue(T object)
        +IModel<T> getModel(T value)
    }
    
    FormComponent <|- - Select
    class Select<T>
    {
        - -(constructors)- -
        +Select(String)
        +Select(String, IModel<T>)
        - -(checks)- -
        #boolean isSelected(IModel<?>)
    }
    
    WebMarkupContainer <|- - SelectOption
    IGenericComponent <|- - SelectOption
    class SelectOption<T>
    {
        - -(constructors)- -
        +SelectOption(String)
        +SelectOption(String, IModel<T>)
        - -
        +String getValue()
    }
    
    RepeatingView <|- - SelectOptions
    class SelectOptions<T>
    {
        - -(constructors)- -
        +SelectOptions(String, Collection<? extends T>, IOptionRenderer<T>)
        +SelectOptions(String, IModel<? extends Collection<? extends T>>, IOptionRenderer<T>)
        - -
        +SelectOptions<T> setRecreateChoices(boolean refresh)
        - -(factory)- -
        #SelectOption<T> newOption(String text, IModel<T>)
        #SelectOption<T> newOption(String id, String text, IModel<T>)
    }
    
    SelectOption <|- - SelectOptions.SimpleSelectOption
    class SelectOptions.SimpleSelectOption<V>
    {
        - -(constructors)- -
        +SimpleSelectOption(String, IModel<V>, String)
    }
    
@enduml

@startuml









skinparam backgroundColor #333333






skinparam  {
    defaultFontName   "Open Sans,Avenir,Nunito,Arial,Helvetica,SansSerif"
    defaultFontSize   12
    defaultTextAlignment left
    shadowing false
    RoundCorner 10
    TitleFontSize 18
}

skinparam defaultFontName       "Open Sans,Avenir,Nunito,Arial,Helvetica,SansSerif"
skinparam defaultFontSize       12
skinparam dpi                   100
skinparam shadowing             false
skinparam roundcorner           16
skinparam ParticipantPadding    40
skinparam BoxPadding            40
skinparam Padding               3
skinparam ArrowColor            #545454
skinparam stereotype {
    CBackgroundColor #0066cf
    CBorderColor #0086ef
    ABackgroundColor #C8Ac00
    ABorderColor #D8Bc00
    IBackgroundColor #008400
    IBorderColor #239c23
    EBackgroundColor #cf6300
    EBorderColor #ef8300
    NBackgroundColor #3380b9
    NBorderColor #004d86
}
skinparam title {
	FontColor	                 #c0c0c0
 	BorderColor                  #545454
	FontSize	    	         20
	BorderRoundCorner            16
	BorderThickness 	         1
	BackgroundColor              #48494b
}


skinparam legend {
	BackgroundColor #303030
	BorderColor #404040
	FontColor #a0a0a0
}

	skinparam swimlane {
	BorderColor #5e5e5e
	BorderThickness 2
	TitleBackgroundColor  #6d6d6d-#484848
	TitleFontColor #303030
}

skinparam activity {
		FontColor #C8Ac00
	BorderColor #333333
	BackgroundColor #333333-#333333
	BarColor #00FF00
	StartColor #0060a8
	EndColor #0060a8
	DiamondBackgroundColor #6d6d6d-#3a3a3a
  	DiamondBorderColor #3a3a3a
  	DiamondFontColor #fefefe
}


skinparam participant {
		FontColor #C8Ac00
	BorderColor #333333
	BackgroundColor #333333-#333333
	ParticipantBorderThickness 2
}


skinparam actor {
		FontColor #C8Ac00
	BorderColor #333333
	BackgroundColor #333333-#333333
}


skinparam arrow {
	Thickness 1.5
	Color #545454
	FontColor #a0a0a0
    FontStyle bold
    MessageAlignment center
}



skinparam sequence {
	BorderColor #303030
	TitleFontColor #303030
	BackgroundColor #333333
	StartColor #303030
	EndColor #303030
	BoxBackgroundColor #333333
	BoxBorderColor #484848
	BoxFontColor #484848
	LifeLineBorderColor #484848
	LifeLineBorderThickness 2
	LifeLineBackgroundColor #3a3a3a
	GroupBorderColor #484848
	GroupFontColor #484848
	GroupHeaderFontColor #0060a8
	GroupBackgroundColor #484848
	GroupHeaderBackgroundColor #333333
	DividerBackgroundColor #484848
    DividerBorderColor #484848
    DividerBorderThickness 2
    DividerFontColor #D8Bc00
	ReferenceBackgroundColor #333333
	ReferenceBorderColor #484848
	ReferenceFontColor #fefefe
	ReferenceHeaderBackgroundColor #484848
}


skinparam partition {
	BorderColor #303030
	FontColor #333333
	BackgroundColor #333333
}


skinparam collections {
		FontColor #C8Ac00
	BorderColor #333333
	BackgroundColor #333333-#333333
}


skinparam control {
		FontColor #C8Ac00
	BorderColor #333333
	BackgroundColor #333333-#333333
}


skinparam entity {
		FontColor #C8Ac00
	BorderColor #333333
	BackgroundColor #333333-#333333
}


skinparam boundary {
		FontColor #C8Ac00
	BorderColor #333333
	BackgroundColor #333333-#333333
}


skinparam agent {
	BackgroundColor #ff8000
	BorderColor #ff9933
	FontColor #484848
}


skinparam note {
	BorderThickness 1
	BackgroundColor #1b1b1a
	BorderColor #5e5e5e
	FontSize 11
	FontColor #a0a0a0
}


skinparam artifact {
	BorderThickness 10
	BorderColor #5e5e5e
	BackgroundColor #1b1b1a
	FontColor #D8Bc00
}


skinparam component {
		FontColor #C8Ac00
	BorderColor #333333
	BackgroundColor #333333-#333333
}


skinparam interface {
	BackgroundColor  #008400
	BorderColor  #007F00
	FontColor #484848
}


skinparam storage {
	BackgroundColor #ff8000
  	BorderColor #cc6600
	FontColor #222222
}


skinparam node {
	BackgroundColor #333333
	BorderColor #333333
	FontColor #C8Ac00
}


skinparam cloud {
	BackgroundColor #484848-black
	BorderColor #484848
	FontColor #D8Bc00
}


skinparam database {
		FontColor #C8Ac00
	BorderColor #333333
	BackgroundColor #333333-#333333
	BackgroundColor  #333333
}


skinparam class {
		FontColor #C8Ac00
	BorderColor #333333
	BackgroundColor #333333-#333333
	HeaderBackgroundColor #1b1b1a
    BackgroundColor #282828
    BorderColor #5e5e5e
 	StereotypeFontColor #a0a0a0
    StereotypeFontStyle bold
	BorderThickness 1
	AttributeFontColor #D8Bc00
	AttributeFontSize 11
    FontColor #D8Bc00
    FontStyle bold
}


skinparam object {
		FontColor #C8Ac00
	BorderColor #333333
	BackgroundColor #333333-#333333
	StereotypeFontColor #484848
	BorderThickness 1
	AttributeFontColor #fefefe
	AttributeFontSize 11
}


skinparam usecase {
		FontColor #C8Ac00
	BorderColor #333333
	BackgroundColor #333333-#333333
	BorderThickness 2
	StereotypeFontColor #303030
}


skinparam rectangle {
		FontColor #C8Ac00
	BorderColor #333333
	BackgroundColor #333333-#333333
	BackgroundColor #333333
	BorderThickness 2
	StereotypeFontColor #303030
}


skinparam package {
		FontColor #C8Ac00
	BorderColor #333333
	BackgroundColor #333333-#333333
	BackgroundColor #333333
	BorderThickness 2
}


skinparam folder {
	BackgroundColor #6d6d6d
  	BorderColor #ff8000
	FontColor #ff8000
	BorderThickness 2
}


skinparam frame {
	BackgroundColor #6d6d6d
  	BorderColor #0060a8
	FontColor #0060a8
	BorderThickness 2
}


skinparam state {
		FontColor #C8Ac00
	BorderColor #333333
	BackgroundColor #333333-#333333
	StartColor #0060a8
	EndColor #0060a8
	AttributeFontColor #fefefe
	AttributeFontSize 11
}


skinparam queue {
		FontColor #C8Ac00
	BorderColor #333333
	BackgroundColor #333333-#333333
}


skinparam card {
	BackgroundColor #0060a8
	BorderColor #004d86
	FontColor $INFO_TEXT
}


skinparam file {
	BackgroundColor #6d6d6d-#484848
	BorderColor #0060a8
	FontColor #fefefe
}


skinparam stack {
		FontColor #C8Ac00
	BorderColor #333333
	BackgroundColor #333333-#333333
}

    
    title "org.apache.wicket.extensions.markup.html.form.select"
    
    interface IGenericComponent
    
    interface IDetachable
    IDetachable <|- - IOptionRenderer
    interface IOptionRenderer<T>
    {
        - -
        +String getDisplayValue(T object)
        +IModel<T> getModel(T value)
    }
    
    FormComponent <|- - Select
    class Select<T>
    {
        - -(constructors)- -
        +Select(String)
        +Select(String, IModel<T>)
        - -(checks)- -
        #boolean isSelected(IModel<?>)
    }
    
    WebMarkupContainer <|- - SelectOption
    IGenericComponent <|- - SelectOption
    class SelectOption<T>
    {
        - -(constructors)- -
        +SelectOption(String)
        +SelectOption(String, IModel<T>)
        - -
        +String getValue()
    }
    
    RepeatingView <|- - SelectOptions
    class SelectOptions<T>
    {
        - -(constructors)- -
        +SelectOptions(String, Collection<? extends T>, IOptionRenderer<T>)
        +SelectOptions(String, IModel<? extends Collection<? extends T>>, IOptionRenderer<T>)
        - -
        +SelectOptions<T> setRecreateChoices(boolean refresh)
        - -(factory)- -
        #SelectOption<T> newOption(String text, IModel<T>)
        #SelectOption<T> newOption(String id, String text, IModel<T>)
    }
    
    SelectOption <|- - SelectOptions.SimpleSelectOption
    class SelectOptions.SimpleSelectOption<V>
    {
        - -(constructors)- -
        +SimpleSelectOption(String, IModel<V>, String)
    }
    
@enduml

PlantUML version 1.2021.01(Tue Feb 02 00:55:08 MST 2021)
(GPL source distribution)
Java Runtime: Java(TM) SE Runtime Environment
JVM: Java HotSpot(TM) 64-Bit Server VM
Default Encoding: UTF-8
Language: en
Country: US
--></g></svg>