<?xml version="1.0" encoding="UTF-8" standalone="no"?><svg xmlns="http://www.w3.org/2000/svg" xmlns:xlink="http://www.w3.org/1999/xlink" contentScriptType="application/ecmascript" contentStyleType="text/css" height="1007.2917px" preserveAspectRatio="none" style="width:704px;height:1007px;background:#333333;" version="1.1" viewBox="0 0 704 1007" width="704.1667px" zoomAndPan="magnify"><defs/><g><rect fill="#48494B" height="41.2028" rx="8.3333" ry="8.3333" style="stroke:#545454;stroke-width:1.0416666666666667;" width="667.7083" x="11.1979" y="2.0833"/><text fill="#C0C0C0" font-family="Open Sans,Avenir,Nunito,Arial,Helvetica,SansSerif" font-size="20.8333" lengthAdjust="spacing" textLength="644.7917" x="22.6563" y="30.5583">org.apache.wicket.extensions.markup.html.repeater.tree.content</text><!--MD5=[d1dcc9c41ef051a777528f9336a950e3]
class Folder--><rect codeLine="26" fill="#282828" height="238.2589" id="Folder" rx="8.3333" ry="8.3333" style="stroke:#5E5E5E;stroke-width:1.0416666666666667;" width="283.3333" x="204.6875" y="524.5361"/><rect fill="#1B1B1A" height="31.3883" rx="8.3333" ry="8.3333" style="stroke:#1B1B1A;stroke-width:1.0416666666666667;" width="283.3333" x="204.6875" y="524.5361"/><rect fill="#1B1B1A" height="8.3333" style="stroke:#1B1B1A;stroke-width:1.0416666666666667;" width="283.3333" x="204.6875" y="547.5911"/><rect codeLine="26" fill="none" height="238.2589" id="Folder" rx="8.3333" ry="8.3333" style="stroke:#5E5E5E;stroke-width:1.0416666666666667;" width="283.3333" x="204.6875" y="524.5361"/><ellipse cx="309.375" cy="540.2303" fill="#0066CF" rx="10.4167" ry="10.4167" style="stroke:#0086EF;stroke-width:1.0416666666666667;"/><path d="M311.2854,544.6554 Q310.8582,544.8751 310.3882,544.9849 Q309.9182,545.0948 309.3994,545.0948 Q307.5562,545.0948 306.5857,543.8802 Q305.6152,542.6656 305.6152,540.3707 Q305.6152,538.0697 306.5857,536.8551 Q307.5562,535.6405 309.3994,535.6405 Q309.9182,535.6405 310.3943,535.7503 Q310.8704,535.8602 311.2854,536.0799 L311.2854,538.0819 Q310.8215,537.6546 310.3851,537.4563 Q309.9487,537.2579 309.4849,537.2579 Q308.4961,537.2579 307.9926,538.0422 Q307.489,538.8265 307.489,540.3707 Q307.489,541.9088 307.9926,542.6931 Q308.4961,543.4774 309.4849,543.4774 Q309.9487,543.4774 310.3851,543.279 Q310.8215,543.0806 311.2854,542.6534 Z " fill="#000000"/><text fill="#D8BC00" font-family="Open Sans,Avenir,Nunito,Arial,Helvetica,SansSerif" font-size="12.5" font-weight="bold" lengthAdjust="spacing" textLength="40.625" x="332.2917" y="544.9544">Folder</text><rect fill="#333333" height="23.055" style="stroke:#A0A0A0;stroke-width:1.0416666666666667;stroke-dasharray:2.0,2.0;" width="16.6667" x="474.4792" y="521.4111"/><text fill="#A0A0A0" font-family="Open Sans,Avenir,Nunito,Arial,Helvetica,SansSerif" font-size="12.5" font-weight="bold" lengthAdjust="spacing" textLength="8.3333" x="478.6458" y="537.6628">T</text><line style="stroke:#5E5E5E;stroke-width:1.5625;" x1="205.7292" x2="486.9792" y1="555.9245" y2="555.9245"/><ellipse cx="216.1458" cy="591.2944" fill="#84BE84" rx="3.125" ry="3.125" style="stroke:#038048;stroke-width:1.0416666666666667;"/><text fill="#D8BC00" font-family="Open Sans,Avenir,Nunito,Arial,Helvetica,SansSerif" font-size="11.4583" lengthAdjust="spacing" textLength="251.0417" x="227.6042" y="598.2056">Folder(String, AbstractTree&lt;T&gt;, IModel&lt;T&gt;)</text><line style="stroke:#5E5E5E;stroke-width:1.0416666666666667;" x1="205.7292" x2="302.6042" y1="574.1302" y2="574.1302"/><text fill="#D8BC00" font-family="Open Sans,Avenir,Nunito,Arial,Helvetica,SansSerif" font-size="11.4583" lengthAdjust="spacing" textLength="81.25" x="305.7292" y="577.9399">(constructors)</text><line style="stroke:#5E5E5E;stroke-width:1.0416666666666667;" x1="390.1042" x2="486.9792" y1="574.1302" y2="574.1302"/><line style="stroke:#5E5E5E;stroke-width:1.0416666666666667;" x1="205.7292" x2="486.9792" y1="607.9142" y2="607.9142"/><polygon fill="#FFFF44" points="216.1458,614.1642,220.3125,618.3309,216.1458,622.4976,211.9792,618.3309" style="stroke:#B38D22;stroke-width:1.0416666666666667;"/><text fill="#D8BC00" font-family="Open Sans,Avenir,Nunito,Arial,Helvetica,SansSerif" font-size="11.4583" lengthAdjust="spacing" textLength="148.9583" x="227.6042" y="626.2838">String getOpenStyleClass()</text><polygon fill="#FFFF44" points="216.1458,633.9091,220.3125,638.0758,216.1458,642.2424,211.9792,638.0758" style="stroke:#B38D22;stroke-width:1.0416666666666667;"/><text fill="#D8BC00" font-family="Open Sans,Avenir,Nunito,Arial,Helvetica,SansSerif" font-size="11.4583" lengthAdjust="spacing" textLength="158.3333" x="227.6042" y="646.0286">String getOtherStyleClass(T)</text><polygon fill="#FFFF44" points="216.1458,653.654,220.3125,657.8206,216.1458,661.9873,211.9792,657.8206" style="stroke:#B38D22;stroke-width:1.0416666666666667;"/><text fill="#D8BC00" font-family="Open Sans,Avenir,Nunito,Arial,Helvetica,SansSerif" font-size="11.4583" lengthAdjust="spacing" textLength="164.5833" x="227.6042" y="665.7735">String getSelectedStyleClass()</text><polygon fill="#FFFF44" points="216.1458,697.3104,220.3125,701.4771,216.1458,705.6437,211.9792,701.4771" style="stroke:#B38D22;stroke-width:1.0416666666666667;"/><text fill="#D8BC00" font-family="Open Sans,Avenir,Nunito,Arial,Helvetica,SansSerif" font-size="11.4583" lengthAdjust="spacing" textLength="111.4583" x="227.6042" y="709.4299">boolean isSelected()</text><line style="stroke:#5E5E5E;stroke-width:1.0416666666666667;" x1="205.7292" x2="319.7917" y1="685.3546" y2="685.3546"/><text fill="#D8BC00" font-family="Open Sans,Avenir,Nunito,Arial,Helvetica,SansSerif" font-size="11.4583" lengthAdjust="spacing" textLength="46.875" x="322.9167" y="689.1642">(checks)</text><line style="stroke:#5E5E5E;stroke-width:1.0416666666666667;" x1="372.9167" x2="486.9792" y1="685.3546" y2="685.3546"/><polygon fill="#FFFF44" points="216.1458,740.9668,220.3125,745.1335,216.1458,749.3001,211.9792,745.1335" style="stroke:#B38D22;stroke-width:1.0416666666666667;"/><text fill="#D8BC00" font-family="Open Sans,Avenir,Nunito,Arial,Helvetica,SansSerif" font-size="11.4583" lengthAdjust="spacing" textLength="157.2917" x="227.6042" y="753.0863">String getClosedStyleClass()</text><line style="stroke:#5E5E5E;stroke-width:1.0416666666666667;" x1="205.7292" x2="333.8542" y1="729.011" y2="729.011"/><text fill="#D8BC00" font-family="Open Sans,Avenir,Nunito,Arial,Helvetica,SansSerif" font-size="11.4583" lengthAdjust="spacing" textLength="18.75" x="336.9792" y="732.8206">(io)</text><line style="stroke:#5E5E5E;stroke-width:1.0416666666666667;" x1="358.8542" x2="486.9792" y1="729.011" y2="729.011"/><!--MD5=[60dad9fe05c7a7ac4dd7c4ace00879ad]
class CheckFolder--><rect codeLine="7" fill="#282828" height="83.3781" id="CheckFolder" rx="8.3333" ry="8.3333" style="stroke:#5E5E5E;stroke-width:1.0416666666666667;" width="317.7083" x="7.2917" y="871.4111"/><rect fill="#1B1B1A" height="31.3883" rx="8.3333" ry="8.3333" style="stroke:#1B1B1A;stroke-width:1.0416666666666667;" width="317.7083" x="7.2917" y="871.4111"/><rect fill="#1B1B1A" height="8.3333" style="stroke:#1B1B1A;stroke-width:1.0416666666666667;" width="317.7083" x="7.2917" y="894.4661"/><rect codeLine="7" fill="none" height="83.3781" id="CheckFolder" rx="8.3333" ry="8.3333" style="stroke:#5E5E5E;stroke-width:1.0416666666666667;" width="317.7083" x="7.2917" y="871.4111"/><ellipse cx="109.375" cy="887.1053" fill="#0066CF" rx="10.4167" ry="10.4167" style="stroke:#0086EF;stroke-width:1.0416666666666667;"/><path d="M111.2854,891.5304 Q110.8582,891.7501 110.3882,891.8599 Q109.9182,891.9698 109.3994,891.9698 Q107.5562,891.9698 106.5857,890.7552 Q105.6152,889.5406 105.6152,887.2457 Q105.6152,884.9447 106.5857,883.7301 Q107.5562,882.5155 109.3994,882.5155 Q109.9182,882.5155 110.3943,882.6253 Q110.8704,882.7352 111.2854,882.9549 L111.2854,884.9569 Q110.8215,884.5296 110.3851,884.3313 Q109.9487,884.1329 109.4849,884.1329 Q108.4961,884.1329 107.9926,884.9172 Q107.489,885.7015 107.489,887.2457 Q107.489,888.7838 107.9926,889.5681 Q108.4961,890.3524 109.4849,890.3524 Q109.9487,890.3524 110.3851,890.154 Q110.8215,889.9556 111.2854,889.5284 Z " fill="#000000"/><text fill="#D8BC00" font-family="Open Sans,Avenir,Nunito,Arial,Helvetica,SansSerif" font-size="12.5" font-weight="bold" lengthAdjust="spacing" textLength="80.2083" x="132.2917" y="891.8294">CheckFolder</text><rect fill="#333333" height="23.055" style="stroke:#A0A0A0;stroke-width:1.0416666666666667;stroke-dasharray:2.0,2.0;" width="16.6667" x="311.4583" y="868.2861"/><text fill="#A0A0A0" font-family="Open Sans,Avenir,Nunito,Arial,Helvetica,SansSerif" font-size="12.5" font-weight="bold" lengthAdjust="spacing" textLength="8.3333" x="315.625" y="884.5378">T</text><line style="stroke:#5E5E5E;stroke-width:1.5625;" x1="8.3333" x2="323.9583" y1="902.7995" y2="902.7995"/><ellipse cx="18.75" cy="938.1694" fill="#84BE84" rx="3.125" ry="3.125" style="stroke:#038048;stroke-width:1.0416666666666667;"/><text fill="#D8BC00" font-family="Open Sans,Avenir,Nunito,Arial,Helvetica,SansSerif" font-size="11.4583" lengthAdjust="spacing" textLength="285.4167" x="30.2083" y="945.0806">CheckFolder(String, AbstractTree&lt;T&gt;, IModel&lt;T&gt;)</text><line style="stroke:#5E5E5E;stroke-width:1.0416666666666667;" x1="8.3333" x2="122.3958" y1="921.0052" y2="921.0052"/><text fill="#D8BC00" font-family="Open Sans,Avenir,Nunito,Arial,Helvetica,SansSerif" font-size="11.4583" lengthAdjust="spacing" textLength="81.25" x="125.5208" y="924.8149">(constructors)</text><line style="stroke:#5E5E5E;stroke-width:1.0416666666666667;" x1="209.8958" x2="323.9583" y1="921.0052" y2="921.0052"/><!--MD5=[6c605de88f460febf8edd3754790ef67]
class CheckedFolder--><rect codeLine="14" fill="#282828" height="174.8576" id="CheckedFolder" rx="8.3333" ry="8.3333" style="stroke:#5E5E5E;stroke-width:1.0416666666666667;" width="331.25" x="361.9792" y="825.5778"/><rect fill="#1B1B1A" height="31.3883" rx="8.3333" ry="8.3333" style="stroke:#1B1B1A;stroke-width:1.0416666666666667;" width="331.25" x="361.9792" y="825.5778"/><rect fill="#1B1B1A" height="8.3333" style="stroke:#1B1B1A;stroke-width:1.0416666666666667;" width="331.25" x="361.9792" y="848.6328"/><rect codeLine="14" fill="none" height="174.8576" id="CheckedFolder" rx="8.3333" ry="8.3333" style="stroke:#5E5E5E;stroke-width:1.0416666666666667;" width="331.25" x="361.9792" y="825.5778"/><ellipse cx="463.0208" cy="841.272" fill="#0066CF" rx="10.4167" ry="10.4167" style="stroke:#0086EF;stroke-width:1.0416666666666667;"/><path d="M464.9312,845.697 Q464.504,845.9167 464.034,846.0266 Q463.564,846.1365 463.0452,846.1365 Q461.202,846.1365 460.2315,844.9219 Q459.2611,843.7073 459.2611,841.4124 Q459.2611,839.1113 460.2315,837.8967 Q461.202,836.6821 463.0452,836.6821 Q463.564,836.6821 464.0401,836.792 Q464.5162,836.9019 464.9312,837.1216 L464.9312,839.1235 Q464.4674,838.6963 464.031,838.4979 Q463.5946,838.2996 463.1307,838.2996 Q462.1419,838.2996 461.6384,839.0839 Q461.1348,839.8682 461.1348,841.4124 Q461.1348,842.9504 461.6384,843.7347 Q462.1419,844.519 463.1307,844.519 Q463.5946,844.519 464.031,844.3207 Q464.4674,844.1223 464.9312,843.6951 Z " fill="#000000"/><text fill="#D8BC00" font-family="Open Sans,Avenir,Nunito,Arial,Helvetica,SansSerif" font-size="12.5" font-weight="bold" lengthAdjust="spacing" textLength="95.8333" x="485.9375" y="845.9961">CheckedFolder</text><rect fill="#333333" height="23.055" style="stroke:#A0A0A0;stroke-width:1.0416666666666667;stroke-dasharray:2.0,2.0;" width="16.6667" x="679.6875" y="822.4528"/><text fill="#A0A0A0" font-family="Open Sans,Avenir,Nunito,Arial,Helvetica,SansSerif" font-size="12.5" font-weight="bold" lengthAdjust="spacing" textLength="8.3333" x="683.8542" y="838.7044">T</text><line style="stroke:#5E5E5E;stroke-width:1.5625;" x1="363.0208" x2="692.1875" y1="856.9661" y2="856.9661"/><ellipse cx="373.4375" cy="892.336" fill="#84BE84" rx="3.125" ry="3.125" style="stroke:#038048;stroke-width:1.0416666666666667;"/><text fill="#D8BC00" font-family="Open Sans,Avenir,Nunito,Arial,Helvetica,SansSerif" font-size="11.4583" lengthAdjust="spacing" textLength="298.9583" x="384.8958" y="899.2472">CheckedFolder(String, AbstractTree&lt;T&gt;, IModel&lt;T&gt;)</text><line style="stroke:#5E5E5E;stroke-width:1.0416666666666667;" x1="363.0208" x2="483.8542" y1="875.1719" y2="875.1719"/><text fill="#D8BC00" font-family="Open Sans,Avenir,Nunito,Arial,Helvetica,SansSerif" font-size="11.4583" lengthAdjust="spacing" textLength="81.25" x="486.9792" y="878.9815">(constructors)</text><line style="stroke:#5E5E5E;stroke-width:1.0416666666666667;" x1="571.3542" x2="692.1875" y1="875.1719" y2="875.1719"/><line style="stroke:#5E5E5E;stroke-width:1.0416666666666667;" x1="363.0208" x2="692.1875" y1="908.9559" y2="908.9559"/><polygon fill="#FFFF44" points="373.4375,915.2059,377.6042,919.3726,373.4375,923.5392,369.2708,919.3726" style="stroke:#B38D22;stroke-width:1.0416666666666667;"/><text fill="#D8BC00" font-family="Open Sans,Avenir,Nunito,Arial,Helvetica,SansSerif" font-size="11.4583" lengthAdjust="spacing" textLength="195.8333" x="384.8958" y="927.3254">void onUpdate(AjaxRequestTarget)</text><polygon fill="#FFFF44" points="373.4375,958.8623,377.6042,963.029,373.4375,967.1956,369.2708,963.029" style="stroke:#B38D22;stroke-width:1.0416666666666667;"/><text fill="#D8BC00" font-family="Open Sans,Avenir,Nunito,Arial,Helvetica,SansSerif" font-size="11.4583" lengthAdjust="spacing" textLength="269.7917" x="384.8958" y="970.9819">Component newCheckBox(String id, IModel&lt;T&gt;)</text><polygon fill="#FFFF44" points="373.4375,978.6072,377.6042,982.7738,373.4375,986.9405,369.2708,982.7738" style="stroke:#B38D22;stroke-width:1.0416666666666667;"/><text fill="#D8BC00" font-family="Open Sans,Avenir,Nunito,Arial,Helvetica,SansSerif" font-size="11.4583" lengthAdjust="spacing" textLength="283.3333" x="384.8958" y="990.7267">IModel&lt;Boolean&gt; newCheckBoxModel(IModel&lt;T&gt;)</text><line style="stroke:#5E5E5E;stroke-width:1.0416666666666667;" x1="363.0208" x2="500.5208" y1="946.9065" y2="946.9065"/><text fill="#D8BC00" font-family="Open Sans,Avenir,Nunito,Arial,Helvetica,SansSerif" font-size="11.4583" lengthAdjust="spacing" textLength="47.9167" x="503.6458" y="950.7161">(factory)</text><line style="stroke:#5E5E5E;stroke-width:1.0416666666666667;" x1="554.6875" x2="692.1875" y1="946.9065" y2="946.9065"/><!--MD5=[8004799d21e18b5ce01df7ceefd89912]
class StyledLinkLabel--><rect codeLine="46" fill="#282828" height="297.4935" id="StyledLinkLabel" rx="8.3333" ry="8.3333" style="stroke:#5E5E5E;stroke-width:1.0416666666666667;" width="366.6667" x="163.0208" y="164.1195"/><rect fill="#1B1B1A" height="31.3883" rx="8.3333" ry="8.3333" style="stroke:#1B1B1A;stroke-width:1.0416666666666667;" width="366.6667" x="163.0208" y="164.1195"/><rect fill="#1B1B1A" height="8.3333" style="stroke:#1B1B1A;stroke-width:1.0416666666666667;" width="366.6667" x="163.0208" y="187.1745"/><rect codeLine="46" fill="none" height="297.4935" id="StyledLinkLabel" rx="8.3333" ry="8.3333" style="stroke:#5E5E5E;stroke-width:1.0416666666666667;" width="366.6667" x="163.0208" y="164.1195"/><ellipse cx="278.6458" cy="179.8136" fill="#C8AC00" rx="10.4167" ry="10.4167" style="stroke:#D8BC00;stroke-width:1.0416666666666667;"/><path d="M278.2389,176.5157 L277.3905,180.245 L279.0934,180.245 Z M277.1403,174.8678 L279.3437,174.8678 L281.8034,183.9803 L280.0028,183.9803 L279.4413,181.7281 L277.0304,181.7281 L276.4811,183.9803 L274.6806,183.9803 Z " fill="#000000"/><text fill="#D8BC00" font-family="Open Sans,Avenir,Nunito,Arial,Helvetica,SansSerif" font-size="12.5" font-style="italic" font-weight="bold" lengthAdjust="spacing" textLength="102.0833" x="301.5625" y="184.5378">StyledLinkLabel</text><rect fill="#333333" height="23.055" style="stroke:#A0A0A0;stroke-width:1.0416666666666667;stroke-dasharray:2.0,2.0;" width="16.6667" x="516.1458" y="160.9945"/><text fill="#A0A0A0" font-family="Open Sans,Avenir,Nunito,Arial,Helvetica,SansSerif" font-size="12.5" font-weight="bold" lengthAdjust="spacing" textLength="8.3333" x="520.3125" y="177.2461">T</text><line style="stroke:#5E5E5E;stroke-width:1.5625;" x1="164.0625" x2="528.6458" y1="195.5078" y2="195.5078"/><ellipse cx="174.4792" cy="230.8777" fill="#84BE84" rx="3.125" ry="3.125" style="stroke:#038048;stroke-width:1.0416666666666667;"/><text fill="#D8BC00" font-family="Open Sans,Avenir,Nunito,Arial,Helvetica,SansSerif" font-size="11.4583" lengthAdjust="spacing" textLength="195.8333" x="185.9375" y="237.7889">StyledLinkLabel(String, IModel&lt;T&gt;)</text><line style="stroke:#5E5E5E;stroke-width:1.0416666666666667;" x1="164.0625" x2="302.6042" y1="213.7136" y2="213.7136"/><text fill="#D8BC00" font-family="Open Sans,Avenir,Nunito,Arial,Helvetica,SansSerif" font-size="11.4583" lengthAdjust="spacing" textLength="81.25" x="305.7292" y="217.5232">(constructors)</text><line style="stroke:#5E5E5E;stroke-width:1.0416666666666667;" x1="390.1042" x2="528.6458" y1="213.7136" y2="213.7136"/><line style="stroke:#5E5E5E;stroke-width:1.0416666666666667;" x1="164.0625" x2="528.6458" y1="247.4976" y2="247.4976"/><ellipse cx="174.4792" cy="258.9559" fill="#84BE84" rx="3.125" ry="3.125" style="stroke:#038048;stroke-width:1.0416666666666667;"/><text fill="#D8BC00" font-family="Open Sans,Avenir,Nunito,Arial,Helvetica,SansSerif" font-size="11.4583" lengthAdjust="spacing" textLength="125" x="185.9375" y="265.8671">IModel&lt;T&gt; getModel()</text><ellipse cx="174.4792" cy="278.7008" fill="#84BE84" rx="3.125" ry="3.125" style="stroke:#038048;stroke-width:1.0416666666666667;"/><text fill="#D8BC00" font-family="Open Sans,Avenir,Nunito,Arial,Helvetica,SansSerif" font-size="11.4583" lengthAdjust="spacing" textLength="106.25" x="185.9375" y="285.612">T getModelObject()</text><polygon fill="#FFFF44" points="174.4792,293.2373,178.6458,297.404,174.4792,301.5706,170.3125,297.404" style="stroke:#B38D22;stroke-width:1.0416666666666667;"/><text fill="#D8BC00" font-family="Open Sans,Avenir,Nunito,Arial,Helvetica,SansSerif" font-size="11.4583" lengthAdjust="spacing" textLength="118.75" x="185.9375" y="305.3569">String getStyleClass()</text><polygon fill="#FFFF44" points="174.4792,312.9822,178.6458,317.1488,174.4792,321.3155,170.3125,317.1488" style="stroke:#B38D22;stroke-width:1.0416666666666667;"/><text fill="#D8BC00" font-family="Open Sans,Avenir,Nunito,Arial,Helvetica,SansSerif" font-size="11.4583" lengthAdjust="spacing" textLength="250" x="185.9375" y="325.1017">void onClick(Optional&lt;AjaxRequestTarget&gt;)</text><polygon fill="#FFFF44" points="174.4792,356.6386,178.6458,360.8053,174.4792,364.9719,170.3125,360.8053" style="stroke:#B38D22;stroke-width:1.0416666666666667;"/><text fill="#D8BC00" font-family="Open Sans,Avenir,Nunito,Arial,Helvetica,SansSerif" font-size="11.4583" lengthAdjust="spacing" textLength="115.625" x="185.9375" y="368.7581">boolean isClickable()</text><line style="stroke:#5E5E5E;stroke-width:1.0416666666666667;" x1="164.0625" x2="319.7917" y1="344.6828" y2="344.6828"/><text fill="#D8BC00" font-family="Open Sans,Avenir,Nunito,Arial,Helvetica,SansSerif" font-size="11.4583" lengthAdjust="spacing" textLength="46.875" x="322.9167" y="348.4924">(checks)</text><line style="stroke:#5E5E5E;stroke-width:1.0416666666666667;" x1="372.9167" x2="528.6458" y1="344.6828" y2="344.6828"/><polygon fill="#FFFF44" points="174.4792,400.295,178.6458,404.4617,174.4792,408.6283,170.3125,404.4617" style="stroke:#B38D22;stroke-width:1.0416666666666667;"/><text fill="#D8BC00" font-family="Open Sans,Avenir,Nunito,Arial,Helvetica,SansSerif" font-size="11.4583" lengthAdjust="spacing" textLength="309.375" x="185.9375" y="412.4146">Component newLabelComponent(String id, IModel&lt;T&gt;)</text><polygon fill="#FFFF44" points="174.4792,420.0399,178.6458,424.2065,174.4792,428.3732,170.3125,424.2065" style="stroke:#B38D22;stroke-width:1.0416666666666667;"/><text fill="#D8BC00" font-family="Open Sans,Avenir,Nunito,Arial,Helvetica,SansSerif" font-size="11.4583" lengthAdjust="spacing" textLength="218.75" x="185.9375" y="432.1594">IModel&lt;?&gt; newLabelModel(IModel&lt;T&gt;)</text><polygon fill="#FFFF44" points="174.4792,439.7847,178.6458,443.9514,174.4792,448.1181,170.3125,443.9514" style="stroke:#B38D22;stroke-width:1.0416666666666667;"/><text fill="#D8BC00" font-family="Open Sans,Avenir,Nunito,Arial,Helvetica,SansSerif" font-size="11.4583" lengthAdjust="spacing" textLength="334.375" x="185.9375" y="451.9043">MarkupContainer newLinkComponent(String id, IModel&lt;T&gt;)</text><line style="stroke:#5E5E5E;stroke-width:1.0416666666666667;" x1="164.0625" x2="319.2708" y1="388.3392" y2="388.3392"/><text fill="#D8BC00" font-family="Open Sans,Avenir,Nunito,Arial,Helvetica,SansSerif" font-size="11.4583" lengthAdjust="spacing" textLength="47.9167" x="322.3958" y="392.1488">(factory)</text><line style="stroke:#5E5E5E;stroke-width:1.0416666666666667;" x1="373.4375" x2="528.6458" y1="388.3392" y2="388.3392"/><!--MD5=[9ec104ddfc62073059e345d4e82bb5a8]
class Behavior--><rect fill="#282828" height="48.055" id="Behavior" rx="8.3333" ry="8.3333" style="stroke:#5E5E5E;stroke-width:1.0416666666666667;" width="93.75" x="581.7708" y="53.7028"/><rect fill="#1B1B1A" height="31.3883" rx="8.3333" ry="8.3333" style="stroke:#1B1B1A;stroke-width:1.0416666666666667;" width="93.75" x="581.7708" y="53.7028"/><rect fill="#1B1B1A" height="8.3333" style="stroke:#1B1B1A;stroke-width:1.0416666666666667;" width="93.75" x="581.7708" y="76.7578"/><rect fill="none" height="48.055" id="Behavior" rx="8.3333" ry="8.3333" style="stroke:#5E5E5E;stroke-width:1.0416666666666667;" width="93.75" x="581.7708" y="53.7028"/><ellipse cx="596.3542" cy="69.397" fill="#0066CF" rx="10.4167" ry="10.4167" style="stroke:#0086EF;stroke-width:1.0416666666666667;"/><path d="M598.2646,73.822 Q597.8373,74.0417 597.3674,74.1516 Q596.8974,74.2615 596.3786,74.2615 Q594.5353,74.2615 593.5649,73.0469 Q592.5944,71.8323 592.5944,69.5374 Q592.5944,67.2363 593.5649,66.0217 Q594.5353,64.8071 596.3786,64.8071 Q596.8974,64.8071 597.3735,64.917 Q597.8495,65.0269 598.2646,65.2466 L598.2646,67.2485 Q597.8007,66.8213 597.3643,66.6229 Q596.9279,66.4246 596.464,66.4246 Q595.4753,66.4246 594.9717,67.2089 Q594.4682,67.9932 594.4682,69.5374 Q594.4682,71.0754 594.9717,71.8597 Q595.4753,72.644 596.464,72.644 Q596.9279,72.644 597.3643,72.4457 Q597.8007,72.2473 598.2646,71.8201 Z " fill="#000000"/><text fill="#D8BC00" font-family="Open Sans,Avenir,Nunito,Arial,Helvetica,SansSerif" font-size="12.5" font-weight="bold" lengthAdjust="spacing" textLength="56.25" x="613.0208" y="74.1211">Behavior</text><line style="stroke:#5E5E5E;stroke-width:1.0416666666666667;" x1="582.8125" x2="674.4792" y1="85.0911" y2="85.0911"/><line style="stroke:#5E5E5E;stroke-width:1.0416666666666667;" x1="582.8125" x2="674.4792" y1="93.4245" y2="93.4245"/><!--MD5=[78dd538e8f733f40c0664ffd1b268547]
class StyledLinkLabel.StyleBehavior--><rect codeLine="41" fill="#282828" height="48.055" id="StyledLinkLabel.StyleBehavior" rx="8.3333" ry="8.3333" style="stroke:#5E5E5E;stroke-width:1.0416666666666667;" width="125" x="566.1458" y="289.1195"/><rect fill="#1B1B1A" height="31.3883" rx="8.3333" ry="8.3333" style="stroke:#1B1B1A;stroke-width:1.0416666666666667;" width="125" x="566.1458" y="289.1195"/><rect fill="#1B1B1A" height="8.3333" style="stroke:#1B1B1A;stroke-width:1.0416666666666667;" width="125" x="566.1458" y="312.1745"/><rect codeLine="41" fill="none" height="48.055" id="StyledLinkLabel.StyleBehavior" rx="8.3333" ry="8.3333" style="stroke:#5E5E5E;stroke-width:1.0416666666666667;" width="125" x="566.1458" y="289.1195"/><ellipse cx="580.7292" cy="304.8136" fill="#0066CF" rx="10.4167" ry="10.4167" style="stroke:#0086EF;stroke-width:1.0416666666666667;"/><path d="M582.6396,309.2387 Q582.2123,309.4584 581.7424,309.5683 Q581.2724,309.6781 580.7536,309.6781 Q578.9103,309.6781 577.9399,308.4635 Q576.9694,307.2489 576.9694,304.954 Q576.9694,302.653 577.9399,301.4384 Q578.9103,300.2238 580.7536,300.2238 Q581.2724,300.2238 581.7485,300.3337 Q582.2245,300.4435 582.6396,300.6632 L582.6396,302.6652 Q582.1757,302.238 581.7393,302.0396 Q581.3029,301.8412 580.839,301.8412 Q579.8503,301.8412 579.3467,302.6255 Q578.8432,303.4098 578.8432,304.954 Q578.8432,306.4921 579.3467,307.2764 Q579.8503,308.0607 580.839,308.0607 Q581.3029,308.0607 581.7393,307.8623 Q582.1757,307.664 582.6396,307.2367 Z " fill="#000000"/><text fill="#D8BC00" font-family="Open Sans,Avenir,Nunito,Arial,Helvetica,SansSerif" font-size="12.5" font-weight="bold" lengthAdjust="spacing" textLength="87.5" x="597.3958" y="309.5378">StyleBehavior</text><line style="stroke:#5E5E5E;stroke-width:1.0416666666666667;" x1="567.1875" x2="690.1042" y1="320.5078" y2="320.5078"/><line style="stroke:#5E5E5E;stroke-width:1.0416666666666667;" x1="567.1875" x2="690.1042" y1="328.8411" y2="328.8411"/><!--MD5=[0174392a0c212c3b3e97bee69152624c]
class Panel--><rect fill="#282828" height="48.055" id="Panel" rx="8.3333" ry="8.3333" style="stroke:#5E5E5E;stroke-width:1.0416666666666667;" width="71.875" x="310.4167" y="53.7028"/><rect fill="#1B1B1A" height="31.3883" rx="8.3333" ry="8.3333" style="stroke:#1B1B1A;stroke-width:1.0416666666666667;" width="71.875" x="310.4167" y="53.7028"/><rect fill="#1B1B1A" height="8.3333" style="stroke:#1B1B1A;stroke-width:1.0416666666666667;" width="71.875" x="310.4167" y="76.7578"/><rect fill="none" height="48.055" id="Panel" rx="8.3333" ry="8.3333" style="stroke:#5E5E5E;stroke-width:1.0416666666666667;" width="71.875" x="310.4167" y="53.7028"/><ellipse cx="325" cy="69.397" fill="#0066CF" rx="10.4167" ry="10.4167" style="stroke:#0086EF;stroke-width:1.0416666666666667;"/><path d="M326.9104,73.822 Q326.4832,74.0417 326.0132,74.1516 Q325.5432,74.2615 325.0244,74.2615 Q323.1812,74.2615 322.2107,73.0469 Q321.2402,71.8323 321.2402,69.5374 Q321.2402,67.2363 322.2107,66.0217 Q323.1812,64.8071 325.0244,64.8071 Q325.5432,64.8071 326.0193,64.917 Q326.4954,65.0269 326.9104,65.2466 L326.9104,67.2485 Q326.4465,66.8213 326.0101,66.6229 Q325.5737,66.4246 325.1099,66.4246 Q324.1211,66.4246 323.6176,67.2089 Q323.114,67.9932 323.114,69.5374 Q323.114,71.0754 323.6176,71.8597 Q324.1211,72.644 325.1099,72.644 Q325.5737,72.644 326.0101,72.4457 Q326.4465,72.2473 326.9104,71.8201 Z " fill="#000000"/><text fill="#D8BC00" font-family="Open Sans,Avenir,Nunito,Arial,Helvetica,SansSerif" font-size="12.5" font-weight="bold" lengthAdjust="spacing" textLength="34.375" x="341.6667" y="74.1211">Panel</text><line style="stroke:#5E5E5E;stroke-width:1.0416666666666667;" x1="311.4583" x2="381.25" y1="85.0911" y2="85.0911"/><line style="stroke:#5E5E5E;stroke-width:1.0416666666666667;" x1="311.4583" x2="381.25" y1="93.4245" y2="93.4245"/><!--MD5=[17b316027fcd7d8782d14ccb51c726a7]
reverse link Folder to CheckFolder--><path codeLine="6" d="M254.8646,780.4945 C232.5313,813.609 210.3125,846.557 193.6875,871.1924 " fill="none" id="Folder-backto-CheckFolder" style="stroke:#545454;stroke-width:1.5625;"/><polygon fill="none" points="248.8333,776.4007,266.5208,763.2028,260.9167,784.557,248.8333,776.4007" style="stroke:#545454;stroke-width:1.5625;"/><!--MD5=[3eadaf12ff87f75e5074e8e75468750d]
reverse link Folder to CheckedFolder--><path codeLine="13" d="M438.3438,780.4528 C448.7188,795.7549 459.0729,811.0153 468.8646,825.4424 " fill="none" id="Folder-backto-CheckedFolder" style="stroke:#545454;stroke-width:1.5625;"/><polygon fill="none" points="432.3021,784.5465,426.6458,763.2028,444.375,776.359,432.3021,784.5465" style="stroke:#545454;stroke-width:1.5625;"/><!--MD5=[47f88e993b0b5dd8a4f075a56ce624cb]
reverse link StyledLinkLabel to Folder--><path codeLine="25" d="M346.3542,483.1195 C346.3542,496.9736 346.3542,510.7861 346.3542,524.1611 " fill="none" id="StyledLinkLabel-backto-Folder" style="stroke:#545454;stroke-width:1.5625;"/><polygon fill="none" points="339.0625,482.932,346.3542,462.0986,353.6458,482.932,339.0625,482.932" style="stroke:#545454;stroke-width:1.5625;"/><!--MD5=[8c8e3b3e3e67011cbc9bd727b55c4a2a]
reverse link Behavior to StyledLinkLabel.StyleBehavior--><path codeLine="40" d="M628.6458,122.9632 C628.6458,172.3486 628.6458,250.359 628.6458,288.9007 " fill="none" id="Behavior-backto-StyledLinkLabel.StyleBehavior" style="stroke:#545454;stroke-width:1.5625;"/><polygon fill="none" points="621.3542,122.7653,628.6458,101.932,635.9375,122.7653,621.3542,122.7653" style="stroke:#545454;stroke-width:1.5625;"/><!--MD5=[c6b80490134ee1001ff7db520171efb3]
reverse link Panel to StyledLinkLabel--><path codeLine="45" d="M346.3542,123.0049 C346.3542,135.2236 346.3542,149.1924 346.3542,163.8903 " fill="none" id="Panel-backto-StyledLinkLabel" style="stroke:#545454;stroke-width:1.5625;"/><polygon fill="none" points="339.0625,122.7653,346.3542,101.932,353.6458,122.7653,339.0625,122.7653" style="stroke:#545454;stroke-width:1.5625;"/><!--MD5=[d0f74042a2aba074b89328f702ce9c5c]
@startuml

    !include lexakai.theme
    
    title "org.apache.wicket.extensions.markup.html.repeater.tree.content"
    
    Folder <|- - CheckFolder
    class CheckFolder<T>
    {
        - -(constructors)- -
        +CheckFolder(String, AbstractTree<T>, IModel<T>)
    }
    
    Folder <|- - CheckedFolder
    class CheckedFolder<T>
    {
        - -(constructors)- -
        +CheckedFolder(String, AbstractTree<T>, IModel<T>)
        - -
        #void onUpdate(AjaxRequestTarget)
        - -(factory)- -
        #Component newCheckBox(String id, IModel<T>)
        #IModel<Boolean> newCheckBoxModel(IModel<T>)
    }
    
    StyledLinkLabel <|- - Folder
    class Folder<T>
    {
        - -(constructors)- -
        +Folder(String, AbstractTree<T>, IModel<T>)
        - -
        #String getOpenStyleClass()
        #String getOtherStyleClass(T)
        #String getSelectedStyleClass()
        - -(checks)- -
        #boolean isSelected()
        - -(io)- -
        #String getClosedStyleClass()
    }
    
    Behavior <|- - StyledLinkLabel.StyleBehavior
    class StyledLinkLabel.StyleBehavior
    {
    }
    
    Panel <|- - StyledLinkLabel
    abstract class StyledLinkLabel<T>
    {
        - -(constructors)- -
        +StyledLinkLabel(String, IModel<T>)
        - -
        +IModel<T> getModel()
        +T getModelObject()
        #String getStyleClass()
        #void onClick(Optional<AjaxRequestTarget>)
        - -(checks)- -
        #boolean isClickable()
        - -(factory)- -
        #Component newLabelComponent(String id, IModel<T>)
        #IModel<?> newLabelModel(IModel<T>)
        #MarkupContainer newLinkComponent(String id, IModel<T>)
    }
    
@enduml

@startuml









skinparam backgroundColor #333333






skinparam  {
    defaultFontName   "Open Sans,Avenir,Nunito,Arial,Helvetica,SansSerif"
    defaultFontSize   12
    defaultTextAlignment left
    shadowing false
    RoundCorner 10
    TitleFontSize 18
}

skinparam defaultFontName       "Open Sans,Avenir,Nunito,Arial,Helvetica,SansSerif"
skinparam defaultFontSize       12
skinparam dpi                   100
skinparam shadowing             false
skinparam roundcorner           16
skinparam ParticipantPadding    40
skinparam BoxPadding            40
skinparam Padding               3
skinparam ArrowColor            #545454
skinparam stereotype {
    CBackgroundColor #0066cf
    CBorderColor #0086ef
    ABackgroundColor #C8Ac00
    ABorderColor #D8Bc00
    IBackgroundColor #008400
    IBorderColor #239c23
    EBackgroundColor #cf6300
    EBorderColor #ef8300
    NBackgroundColor #3380b9
    NBorderColor #004d86
}
skinparam title {
	FontColor	                 #c0c0c0
 	BorderColor                  #545454
	FontSize	    	         20
	BorderRoundCorner            16
	BorderThickness 	         1
	BackgroundColor              #48494b
}


skinparam legend {
	BackgroundColor #303030
	BorderColor #404040
	FontColor #a0a0a0
}

	skinparam swimlane {
	BorderColor #5e5e5e
	BorderThickness 2
	TitleBackgroundColor  #6d6d6d-#484848
	TitleFontColor #303030
}

skinparam activity {
		FontColor #C8Ac00
	BorderColor #333333
	BackgroundColor #333333-#333333
	BarColor #00FF00
	StartColor #0060a8
	EndColor #0060a8
	DiamondBackgroundColor #6d6d6d-#3a3a3a
  	DiamondBorderColor #3a3a3a
  	DiamondFontColor #fefefe
}


skinparam participant {
		FontColor #C8Ac00
	BorderColor #333333
	BackgroundColor #333333-#333333
	ParticipantBorderThickness 2
}


skinparam actor {
		FontColor #C8Ac00
	BorderColor #333333
	BackgroundColor #333333-#333333
}


skinparam arrow {
	Thickness 1.5
	Color #545454
	FontColor #a0a0a0
    FontStyle bold
    MessageAlignment center
}



skinparam sequence {
	BorderColor #303030
	TitleFontColor #303030
	BackgroundColor #333333
	StartColor #303030
	EndColor #303030
	BoxBackgroundColor #333333
	BoxBorderColor #484848
	BoxFontColor #484848
	LifeLineBorderColor #484848
	LifeLineBorderThickness 2
	LifeLineBackgroundColor #3a3a3a
	GroupBorderColor #484848
	GroupFontColor #484848
	GroupHeaderFontColor #0060a8
	GroupBackgroundColor #484848
	GroupHeaderBackgroundColor #333333
	DividerBackgroundColor #484848
    DividerBorderColor #484848
    DividerBorderThickness 2
    DividerFontColor #D8Bc00
	ReferenceBackgroundColor #333333
	ReferenceBorderColor #484848
	ReferenceFontColor #fefefe
	ReferenceHeaderBackgroundColor #484848
}


skinparam partition {
	BorderColor #303030
	FontColor #333333
	BackgroundColor #333333
}


skinparam collections {
		FontColor #C8Ac00
	BorderColor #333333
	BackgroundColor #333333-#333333
}


skinparam control {
		FontColor #C8Ac00
	BorderColor #333333
	BackgroundColor #333333-#333333
}


skinparam entity {
		FontColor #C8Ac00
	BorderColor #333333
	BackgroundColor #333333-#333333
}


skinparam boundary {
		FontColor #C8Ac00
	BorderColor #333333
	BackgroundColor #333333-#333333
}


skinparam agent {
	BackgroundColor #ff8000
	BorderColor #ff9933
	FontColor #484848
}


skinparam note {
	BorderThickness 1
	BackgroundColor #1b1b1a
	BorderColor #5e5e5e
	FontSize 11
	FontColor #a0a0a0
}


skinparam artifact {
	BorderThickness 10
	BorderColor #5e5e5e
	BackgroundColor #1b1b1a
	FontColor #D8Bc00
}


skinparam component {
		FontColor #C8Ac00
	BorderColor #333333
	BackgroundColor #333333-#333333
}


skinparam interface {
	BackgroundColor  #008400
	BorderColor  #007F00
	FontColor #484848
}


skinparam storage {
	BackgroundColor #ff8000
  	BorderColor #cc6600
	FontColor #222222
}


skinparam node {
	BackgroundColor #333333
	BorderColor #333333
	FontColor #C8Ac00
}


skinparam cloud {
	BackgroundColor #484848-black
	BorderColor #484848
	FontColor #D8Bc00
}


skinparam database {
		FontColor #C8Ac00
	BorderColor #333333
	BackgroundColor #333333-#333333
	BackgroundColor  #333333
}


skinparam class {
		FontColor #C8Ac00
	BorderColor #333333
	BackgroundColor #333333-#333333
	HeaderBackgroundColor #1b1b1a
    BackgroundColor #282828
    BorderColor #5e5e5e
 	StereotypeFontColor #a0a0a0
    StereotypeFontStyle bold
	BorderThickness 1
	AttributeFontColor #D8Bc00
	AttributeFontSize 11
    FontColor #D8Bc00
    FontStyle bold
}


skinparam object {
		FontColor #C8Ac00
	BorderColor #333333
	BackgroundColor #333333-#333333
	StereotypeFontColor #484848
	BorderThickness 1
	AttributeFontColor #fefefe
	AttributeFontSize 11
}


skinparam usecase {
		FontColor #C8Ac00
	BorderColor #333333
	BackgroundColor #333333-#333333
	BorderThickness 2
	StereotypeFontColor #303030
}


skinparam rectangle {
		FontColor #C8Ac00
	BorderColor #333333
	BackgroundColor #333333-#333333
	BackgroundColor #333333
	BorderThickness 2
	StereotypeFontColor #303030
}


skinparam package {
		FontColor #C8Ac00
	BorderColor #333333
	BackgroundColor #333333-#333333
	BackgroundColor #333333
	BorderThickness 2
}


skinparam folder {
	BackgroundColor #6d6d6d
  	BorderColor #ff8000
	FontColor #ff8000
	BorderThickness 2
}


skinparam frame {
	BackgroundColor #6d6d6d
  	BorderColor #0060a8
	FontColor #0060a8
	BorderThickness 2
}


skinparam state {
		FontColor #C8Ac00
	BorderColor #333333
	BackgroundColor #333333-#333333
	StartColor #0060a8
	EndColor #0060a8
	AttributeFontColor #fefefe
	AttributeFontSize 11
}


skinparam queue {
		FontColor #C8Ac00
	BorderColor #333333
	BackgroundColor #333333-#333333
}


skinparam card {
	BackgroundColor #0060a8
	BorderColor #004d86
	FontColor $INFO_TEXT
}


skinparam file {
	BackgroundColor #6d6d6d-#484848
	BorderColor #0060a8
	FontColor #fefefe
}


skinparam stack {
		FontColor #C8Ac00
	BorderColor #333333
	BackgroundColor #333333-#333333
}

    
    title "org.apache.wicket.extensions.markup.html.repeater.tree.content"
    
    Folder <|- - CheckFolder
    class CheckFolder<T>
    {
        - -(constructors)- -
        +CheckFolder(String, AbstractTree<T>, IModel<T>)
    }
    
    Folder <|- - CheckedFolder
    class CheckedFolder<T>
    {
        - -(constructors)- -
        +CheckedFolder(String, AbstractTree<T>, IModel<T>)
        - -
        #void onUpdate(AjaxRequestTarget)
        - -(factory)- -
        #Component newCheckBox(String id, IModel<T>)
        #IModel<Boolean> newCheckBoxModel(IModel<T>)
    }
    
    StyledLinkLabel <|- - Folder
    class Folder<T>
    {
        - -(constructors)- -
        +Folder(String, AbstractTree<T>, IModel<T>)
        - -
        #String getOpenStyleClass()
        #String getOtherStyleClass(T)
        #String getSelectedStyleClass()
        - -(checks)- -
        #boolean isSelected()
        - -(io)- -
        #String getClosedStyleClass()
    }
    
    Behavior <|- - StyledLinkLabel.StyleBehavior
    class StyledLinkLabel.StyleBehavior
    {
    }
    
    Panel <|- - StyledLinkLabel
    abstract class StyledLinkLabel<T>
    {
        - -(constructors)- -
        +StyledLinkLabel(String, IModel<T>)
        - -
        +IModel<T> getModel()
        +T getModelObject()
        #String getStyleClass()
        #void onClick(Optional<AjaxRequestTarget>)
        - -(checks)- -
        #boolean isClickable()
        - -(factory)- -
        #Component newLabelComponent(String id, IModel<T>)
        #IModel<?> newLabelModel(IModel<T>)
        #MarkupContainer newLinkComponent(String id, IModel<T>)
    }
    
@enduml

PlantUML version 1.2021.01(Tue Feb 02 00:55:08 MST 2021)
(GPL source distribution)
Java Runtime: Java(TM) SE Runtime Environment
JVM: Java HotSpot(TM) 64-Bit Server VM
Default Encoding: UTF-8
Language: en
Country: US
--></g></svg>