<?xml version="1.0" encoding="UTF-8" standalone="no"?><svg xmlns="http://www.w3.org/2000/svg" xmlns:xlink="http://www.w3.org/1999/xlink" contentScriptType="application/ecmascript" contentStyleType="text/css" height="488.5417px" preserveAspectRatio="none" style="width:872px;height:488px;background:#333333;" version="1.1" viewBox="0 0 872 488" width="872.9167px" zoomAndPan="magnify"><defs/><g><rect fill="#48494B" height="41.2028" rx="8.3333" ry="8.3333" style="stroke:#545454;stroke-width:1.0416666666666667;" width="536.4583" x="161.1979" y="2.0833"/><text fill="#C0C0C0" font-family="Open Sans,Avenir,Nunito,Arial,Helvetica,SansSerif" font-size="20.8333" lengthAdjust="spacing" textLength="513.5417" x="172.6563" y="30.5583">org.apache.wicket.extensions.markup.html.captcha</text><!--MD5=[cd6fe5c68cc4750b98a6651e5a9afd2b]
class IClusterable--><rect codeLine="6" fill="#282828" height="48.055" id="IClusterable" rx="8.3333" ry="8.3333" style="stroke:#5E5E5E;stroke-width:1.0416666666666667;" width="115.625" x="16.1458" y="53.7028"/><rect fill="#1B1B1A" height="31.3883" rx="8.3333" ry="8.3333" style="stroke:#1B1B1A;stroke-width:1.0416666666666667;" width="115.625" x="16.1458" y="53.7028"/><rect fill="#1B1B1A" height="8.3333" style="stroke:#1B1B1A;stroke-width:1.0416666666666667;" width="115.625" x="16.1458" y="76.7578"/><rect codeLine="6" fill="none" height="48.055" id="IClusterable" rx="8.3333" ry="8.3333" style="stroke:#5E5E5E;stroke-width:1.0416666666666667;" width="115.625" x="16.1458" y="53.7028"/><ellipse cx="30.7292" cy="69.397" fill="#008400" rx="10.4167" ry="10.4167" style="stroke:#239C23;stroke-width:1.0416666666666667;"/><path d="M28.1331,66.5588 L28.1331,64.9719 L33.5592,64.9719 L33.5592,66.5588 L31.7464,66.5588 L31.7464,72.4976 L33.5592,72.4976 L33.5592,74.0845 L28.1331,74.0845 L28.1331,72.4976 L29.9459,72.4976 L29.9459,66.5588 Z " fill="#000000"/><text fill="#D8BC00" font-family="Open Sans,Avenir,Nunito,Arial,Helvetica,SansSerif" font-size="12.5" font-style="italic" font-weight="bold" lengthAdjust="spacing" textLength="78.125" x="47.3958" y="74.1211">IClusterable</text><line style="stroke:#5E5E5E;stroke-width:1.0416666666666667;" x1="17.1875" x2="130.7292" y1="85.0911" y2="85.0911"/><line style="stroke:#5E5E5E;stroke-width:1.0416666666666667;" x1="17.1875" x2="130.7292" y1="93.4245" y2="93.4245"/><!--MD5=[751dec9595dbaddc10fbc8eef99dad13]
class DynamicImageResource--><rect fill="#282828" height="48.055" id="DynamicImageResource" rx="8.3333" ry="8.3333" style="stroke:#5E5E5E;stroke-width:1.0416666666666667;" width="191.6667" x="232.2917" y="53.7028"/><rect fill="#1B1B1A" height="31.3883" rx="8.3333" ry="8.3333" style="stroke:#1B1B1A;stroke-width:1.0416666666666667;" width="191.6667" x="232.2917" y="53.7028"/><rect fill="#1B1B1A" height="8.3333" style="stroke:#1B1B1A;stroke-width:1.0416666666666667;" width="191.6667" x="232.2917" y="76.7578"/><rect fill="none" height="48.055" id="DynamicImageResource" rx="8.3333" ry="8.3333" style="stroke:#5E5E5E;stroke-width:1.0416666666666667;" width="191.6667" x="232.2917" y="53.7028"/><ellipse cx="246.875" cy="69.397" fill="#0066CF" rx="10.4167" ry="10.4167" style="stroke:#0086EF;stroke-width:1.0416666666666667;"/><path d="M248.7854,73.822 Q248.3582,74.0417 247.8882,74.1516 Q247.4182,74.2615 246.8994,74.2615 Q245.0562,74.2615 244.0857,73.0469 Q243.1152,71.8323 243.1152,69.5374 Q243.1152,67.2363 244.0857,66.0217 Q245.0562,64.8071 246.8994,64.8071 Q247.4182,64.8071 247.8943,64.917 Q248.3704,65.0269 248.7854,65.2466 L248.7854,67.2485 Q248.3215,66.8213 247.8851,66.6229 Q247.4487,66.4246 246.9849,66.4246 Q245.9961,66.4246 245.4926,67.2089 Q244.989,67.9932 244.989,69.5374 Q244.989,71.0754 245.4926,71.8597 Q245.9961,72.644 246.9849,72.644 Q247.4487,72.644 247.8851,72.4457 Q248.3215,72.2473 248.7854,71.8201 Z " fill="#000000"/><text fill="#D8BC00" font-family="Open Sans,Avenir,Nunito,Arial,Helvetica,SansSerif" font-size="12.5" font-weight="bold" lengthAdjust="spacing" textLength="154.1667" x="263.5417" y="74.1211">DynamicImageResource</text><line style="stroke:#5E5E5E;stroke-width:1.0416666666666667;" x1="233.3333" x2="422.9167" y1="85.0911" y2="85.0911"/><line style="stroke:#5E5E5E;stroke-width:1.0416666666666667;" x1="233.3333" x2="422.9167" y1="93.4245" y2="93.4245"/><!--MD5=[c20b86cc10858fa0528f5e20176662bf]
class CaptchaImageResource--><rect codeLine="9" fill="#282828" height="317.2384" id="CaptchaImageResource" rx="8.3333" ry="8.3333" style="stroke:#5E5E5E;stroke-width:1.0416666666666667;" width="302.0833" x="177.0833" y="164.1195"/><rect fill="#1B1B1A" height="31.3883" rx="8.3333" ry="8.3333" style="stroke:#1B1B1A;stroke-width:1.0416666666666667;" width="302.0833" x="177.0833" y="164.1195"/><rect fill="#1B1B1A" height="8.3333" style="stroke:#1B1B1A;stroke-width:1.0416666666666667;" width="302.0833" x="177.0833" y="187.1745"/><rect codeLine="9" fill="none" height="317.2384" id="CaptchaImageResource" rx="8.3333" ry="8.3333" style="stroke:#5E5E5E;stroke-width:1.0416666666666667;" width="302.0833" x="177.0833" y="164.1195"/><ellipse cx="245.8333" cy="179.8136" fill="#0066CF" rx="10.4167" ry="10.4167" style="stroke:#0086EF;stroke-width:1.0416666666666667;"/><path d="M247.7437,184.2387 Q247.3165,184.4584 246.8465,184.5683 Q246.3765,184.6781 245.8577,184.6781 Q244.0145,184.6781 243.044,183.4635 Q242.0736,182.2489 242.0736,179.954 Q242.0736,177.653 243.044,176.4384 Q244.0145,175.2238 245.8577,175.2238 Q246.3765,175.2238 246.8526,175.3337 Q247.3287,175.4435 247.7437,175.6632 L247.7437,177.6652 Q247.2799,177.238 246.8435,177.0396 Q246.4071,176.8412 245.9432,176.8412 Q244.9544,176.8412 244.4509,177.6255 Q243.9473,178.4098 243.9473,179.954 Q243.9473,181.4921 244.4509,182.2764 Q244.9544,183.0607 245.9432,183.0607 Q246.4071,183.0607 246.8435,182.8623 Q247.2799,182.664 247.7437,182.2367 Z " fill="#000000"/><text fill="#D8BC00" font-family="Open Sans,Avenir,Nunito,Arial,Helvetica,SansSerif" font-size="12.5" font-weight="bold" lengthAdjust="spacing" textLength="150" x="268.75" y="184.5378">CaptchaImageResource</text><line style="stroke:#5E5E5E;stroke-width:1.5625;" x1="178.125" x2="478.125" y1="195.5078" y2="195.5078"/><ellipse cx="188.5417" cy="230.8777" fill="#84BE84" rx="3.125" ry="3.125" style="stroke:#038048;stroke-width:1.0416666666666667;"/><text fill="#D8BC00" font-family="Open Sans,Avenir,Nunito,Arial,Helvetica,SansSerif" font-size="11.4583" lengthAdjust="spacing" textLength="139.5833" x="200" y="237.7889">CaptchaImageResource()</text><ellipse cx="188.5417" cy="250.6226" fill="#84BE84" rx="3.125" ry="3.125" style="stroke:#038048;stroke-width:1.0416666666666667;"/><text fill="#D8BC00" font-family="Open Sans,Avenir,Nunito,Arial,Helvetica,SansSerif" font-size="11.4583" lengthAdjust="spacing" textLength="228.125" x="200" y="257.5338">CaptchaImageResource(IModel&lt;String&gt;)</text><ellipse cx="188.5417" cy="270.3674" fill="#84BE84" rx="3.125" ry="3.125" style="stroke:#038048;stroke-width:1.0416666666666667;"/><text fill="#D8BC00" font-family="Open Sans,Avenir,Nunito,Arial,Helvetica,SansSerif" font-size="11.4583" lengthAdjust="spacing" textLength="269.7917" x="200" y="277.2786">CaptchaImageResource(IModel&lt;String&gt;, int, int)</text><ellipse cx="188.5417" cy="290.1123" fill="#84BE84" rx="3.125" ry="3.125" style="stroke:#038048;stroke-width:1.0416666666666667;"/><text fill="#D8BC00" font-family="Open Sans,Avenir,Nunito,Arial,Helvetica,SansSerif" font-size="11.4583" lengthAdjust="spacing" textLength="172.9167" x="200" y="297.0235">CaptchaImageResource(String)</text><ellipse cx="188.5417" cy="309.8572" fill="#84BE84" rx="3.125" ry="3.125" style="stroke:#038048;stroke-width:1.0416666666666667;"/><text fill="#D8BC00" font-family="Open Sans,Avenir,Nunito,Arial,Helvetica,SansSerif" font-size="11.4583" lengthAdjust="spacing" textLength="214.5833" x="200" y="316.7684">CaptchaImageResource(String, int, int)</text><line style="stroke:#5E5E5E;stroke-width:1.0416666666666667;" x1="178.125" x2="284.375" y1="213.7136" y2="213.7136"/><text fill="#D8BC00" font-family="Open Sans,Avenir,Nunito,Arial,Helvetica,SansSerif" font-size="11.4583" lengthAdjust="spacing" textLength="81.25" x="287.5" y="217.5232">(constructors)</text><line style="stroke:#5E5E5E;stroke-width:1.0416666666666667;" x1="371.875" x2="478.125" y1="213.7136" y2="213.7136"/><line style="stroke:#5E5E5E;stroke-width:1.0416666666666667;" x1="178.125" x2="478.125" y1="326.4771" y2="326.4771"/><ellipse cx="188.5417" cy="337.9354" fill="#84BE84" rx="3.125" ry="3.125" style="stroke:#038048;stroke-width:1.0416666666666667;"/><text fill="#D8BC00" font-family="Open Sans,Avenir,Nunito,Arial,Helvetica,SansSerif" font-size="11.4583" lengthAdjust="spacing" textLength="88.5417" x="200" y="344.8466">void invalidate()</text><polygon fill="#FFFF44" points="188.5417,352.4719,192.7083,356.6386,188.5417,360.8053,184.375,356.6386" style="stroke:#B38D22;stroke-width:1.0416666666666667;"/><text fill="#D8BC00" font-family="Open Sans,Avenir,Nunito,Arial,Helvetica,SansSerif" font-size="11.4583" lengthAdjust="spacing" textLength="81.25" x="200" y="364.5915">byte[] render()</text><polygon fill="#FFFF44" points="188.5417,396.1283,192.7083,400.295,188.5417,404.4617,184.375,400.295" style="stroke:#B38D22;stroke-width:1.0416666666666667;"/><text fill="#D8BC00" font-family="Open Sans,Avenir,Nunito,Arial,Helvetica,SansSerif" font-size="11.4583" lengthAdjust="spacing" textLength="226.0417" x="200" y="408.2479">Random newRandomNumberGenerator()</text><line style="stroke:#5E5E5E;stroke-width:1.0416666666666667;" x1="178.125" x2="301.0417" y1="384.1726" y2="384.1726"/><text fill="#D8BC00" font-family="Open Sans,Avenir,Nunito,Arial,Helvetica,SansSerif" font-size="11.4583" lengthAdjust="spacing" textLength="47.9167" x="304.1667" y="387.9822">(factory)</text><line style="stroke:#5E5E5E;stroke-width:1.0416666666666667;" x1="355.2083" x2="478.125" y1="384.1726" y2="384.1726"/><ellipse cx="188.5417" cy="444.9931" fill="#84BE84" rx="3.125" ry="3.125" style="stroke:#038048;stroke-width:1.0416666666666667;"/><text fill="#D8BC00" font-family="Open Sans,Avenir,Nunito,Arial,Helvetica,SansSerif" font-size="11.4583" lengthAdjust="spacing" textLength="128.125" x="200" y="451.9043">String getChallengeId()</text><ellipse cx="188.5417" cy="464.738" fill="#84BE84" rx="3.125" ry="3.125" style="stroke:#038048;stroke-width:1.0416666666666667;"/><text fill="#D8BC00" font-family="Open Sans,Avenir,Nunito,Arial,Helvetica,SansSerif" font-size="11.4583" lengthAdjust="spacing" textLength="216.6667" x="200" y="471.6492">IModel&lt;String&gt; getChallengeIdModel()</text><line style="stroke:#5E5E5E;stroke-width:1.0416666666666667;" x1="178.125" x2="300" y1="427.829" y2="427.829"/><text fill="#D8BC00" font-family="Open Sans,Avenir,Nunito,Arial,Helvetica,SansSerif" font-size="11.4583" lengthAdjust="spacing" textLength="50" x="303.125" y="431.6386">(identity)</text><line style="stroke:#5E5E5E;stroke-width:1.0416666666666667;" x1="356.25" x2="478.125" y1="427.829" y2="427.829"/><!--MD5=[69a877cceeaaa1316031220aa38bd92e]
class CaptchaImageResource.CharAttributes--><rect codeLine="28" fill="#282828" height="48.055" id="CaptchaImageResource.CharAttributes" rx="8.3333" ry="8.3333" style="stroke:#5E5E5E;stroke-width:1.0416666666666667;" width="133.3333" x="7.2917" y="299.0153"/><rect fill="#1B1B1A" height="31.3883" rx="8.3333" ry="8.3333" style="stroke:#1B1B1A;stroke-width:1.0416666666666667;" width="133.3333" x="7.2917" y="299.0153"/><rect fill="#1B1B1A" height="8.3333" style="stroke:#1B1B1A;stroke-width:1.0416666666666667;" width="133.3333" x="7.2917" y="322.0703"/><rect codeLine="28" fill="none" height="48.055" id="CaptchaImageResource.CharAttributes" rx="8.3333" ry="8.3333" style="stroke:#5E5E5E;stroke-width:1.0416666666666667;" width="133.3333" x="7.2917" y="299.0153"/><ellipse cx="21.875" cy="314.7095" fill="#0066CF" rx="10.4167" ry="10.4167" style="stroke:#0086EF;stroke-width:1.0416666666666667;"/><path d="M23.7854,319.1345 Q23.3582,319.3542 22.8882,319.4641 Q22.4182,319.574 21.8994,319.574 Q20.0562,319.574 19.0857,318.3594 Q18.1152,317.1448 18.1152,314.8499 Q18.1152,312.5488 19.0857,311.3342 Q20.0562,310.1196 21.8994,310.1196 Q22.4182,310.1196 22.8943,310.2295 Q23.3704,310.3394 23.7854,310.5591 L23.7854,312.561 Q23.3215,312.1338 22.8851,311.9354 Q22.4487,311.7371 21.9849,311.7371 Q20.9961,311.7371 20.4926,312.5214 Q19.989,313.3057 19.989,314.8499 Q19.989,316.3879 20.4926,317.1722 Q20.9961,317.9565 21.9849,317.9565 Q22.4487,317.9565 22.8851,317.7582 Q23.3215,317.5598 23.7854,317.1326 Z " fill="#000000"/><text fill="#D8BC00" font-family="Open Sans,Avenir,Nunito,Arial,Helvetica,SansSerif" font-size="12.5" font-weight="bold" lengthAdjust="spacing" textLength="95.8333" x="38.5417" y="319.4336">CharAttributes</text><line style="stroke:#5E5E5E;stroke-width:1.0416666666666667;" x1="8.3333" x2="139.5833" y1="330.4036" y2="330.4036"/><line style="stroke:#5E5E5E;stroke-width:1.0416666666666667;" x1="8.3333" x2="139.5833" y1="338.737" y2="338.737"/><!--MD5=[b9cf903ae6e9d118240a5c5215ece571]
class CaptchaImageResource.RandomNumberGeneratorFactory--><rect codeLine="32" fill="#282828" height="48.055" id="CaptchaImageResource.RandomNumberGeneratorFactory" rx="8.3333" ry="8.3333" style="stroke:#5E5E5E;stroke-width:1.0416666666666667;" width="405.2083" x="460.9375" y="53.7028"/><rect fill="#1B1B1A" height="31.3883" rx="8.3333" ry="8.3333" style="stroke:#1B1B1A;stroke-width:1.0416666666666667;" width="405.2083" x="460.9375" y="53.7028"/><rect fill="#1B1B1A" height="8.3333" style="stroke:#1B1B1A;stroke-width:1.0416666666666667;" width="405.2083" x="460.9375" y="76.7578"/><rect codeLine="32" fill="none" height="48.055" id="CaptchaImageResource.RandomNumberGeneratorFactory" rx="8.3333" ry="8.3333" style="stroke:#5E5E5E;stroke-width:1.0416666666666667;" width="405.2083" x="460.9375" y="53.7028"/><ellipse cx="475.5208" cy="69.397" fill="#0066CF" rx="10.4167" ry="10.4167" style="stroke:#0086EF;stroke-width:1.0416666666666667;"/><path d="M477.4312,73.822 Q477.004,74.0417 476.534,74.1516 Q476.064,74.2615 475.5452,74.2615 Q473.702,74.2615 472.7315,73.0469 Q471.7611,71.8323 471.7611,69.5374 Q471.7611,67.2363 472.7315,66.0217 Q473.702,64.8071 475.5452,64.8071 Q476.064,64.8071 476.5401,64.917 Q477.0162,65.0269 477.4312,65.2466 L477.4312,67.2485 Q476.9674,66.8213 476.531,66.6229 Q476.0946,66.4246 475.6307,66.4246 Q474.6419,66.4246 474.1384,67.2089 Q473.6348,67.9932 473.6348,69.5374 Q473.6348,71.0754 474.1384,71.8597 Q474.6419,72.644 475.6307,72.644 Q476.0946,72.644 476.531,72.4457 Q476.9674,72.2473 477.4312,71.8201 Z " fill="#000000"/><text fill="#D8BC00" font-family="Open Sans,Avenir,Nunito,Arial,Helvetica,SansSerif" font-size="12.5" font-weight="bold" lengthAdjust="spacing" textLength="367.7083" x="492.1875" y="74.1211">CaptchaImageResource.RandomNumberGeneratorFactory</text><line style="stroke:#5E5E5E;stroke-width:1.0416666666666667;" x1="461.9792" x2="865.1042" y1="85.0911" y2="85.0911"/><line style="stroke:#5E5E5E;stroke-width:1.0416666666666667;" x1="461.9792" x2="865.1042" y1="93.4245" y2="93.4245"/><!--MD5=[cf6542654729ed8a354e1e759f318d4f]
reverse link DynamicImageResource to CaptchaImageResource--><path codeLine="8" d="M328.125,123.057 C328.125,135.2549 328.125,149.234 328.125,163.9945 " fill="none" id="DynamicImageResource-backto-CaptchaImageResource" style="stroke:#545454;stroke-width:1.5625;"/><polygon fill="none" points="320.8333,122.859,328.125,102.0257,335.4167,122.859,320.8333,122.859" style="stroke:#545454;stroke-width:1.5625;"/><!--MD5=[2db3336d0e042e6e089ccd47dbfd2ea5]
reverse link IClusterable to CaptchaImageResource.CharAttributes--><path codeLine="27" d="M73.9583,122.9632 C73.9583,174.682 73.9583,258.3278 73.9583,298.682 " fill="none" id="IClusterable-backto-CaptchaImageResource.CharAttributes" style="stroke:#545454;stroke-width:1.5625;"/><polygon fill="none" points="66.6667,122.859,73.9583,102.0257,81.25,122.859,66.6667,122.859" style="stroke:#545454;stroke-width:1.5625;"/><!--MD5=[2533ee35efe11b8f3f92fffa069c2313]
@startuml

    !include lexakai.theme
    
    title "org.apache.wicket.extensions.markup.html.captcha"
    
    interface IClusterable
    
    DynamicImageResource <|- - CaptchaImageResource
    class CaptchaImageResource
    {
        - -(constructors)- -
        +CaptchaImageResource()
        +CaptchaImageResource(IModel<String>)
        +CaptchaImageResource(IModel<String>, int, int)
        +CaptchaImageResource(String)
        +CaptchaImageResource(String, int, int)
        - -
        +void invalidate()
        #byte[] render()
        - -(factory)- -
        #Random newRandomNumberGenerator()
        - -(identity)- -
        +String getChallengeId()
        +IModel<String> getChallengeIdModel()
    }
    
    IClusterable <|- - CaptchaImageResource.CharAttributes
    class CaptchaImageResource.CharAttributes
    {
    }
    
    class CaptchaImageResource.RandomNumberGeneratorFactory
    {
    }
    
@enduml

@startuml









skinparam backgroundColor #333333






skinparam  {
    defaultFontName   "Open Sans,Avenir,Nunito,Arial,Helvetica,SansSerif"
    defaultFontSize   12
    defaultTextAlignment left
    shadowing false
    RoundCorner 10
    TitleFontSize 18
}

skinparam defaultFontName       "Open Sans,Avenir,Nunito,Arial,Helvetica,SansSerif"
skinparam defaultFontSize       12
skinparam dpi                   100
skinparam shadowing             false
skinparam roundcorner           16
skinparam ParticipantPadding    40
skinparam BoxPadding            40
skinparam Padding               3
skinparam ArrowColor            #545454
skinparam stereotype {
    CBackgroundColor #0066cf
    CBorderColor #0086ef
    ABackgroundColor #C8Ac00
    ABorderColor #D8Bc00
    IBackgroundColor #008400
    IBorderColor #239c23
    EBackgroundColor #cf6300
    EBorderColor #ef8300
    NBackgroundColor #3380b9
    NBorderColor #004d86
}
skinparam title {
	FontColor	                 #c0c0c0
 	BorderColor                  #545454
	FontSize	    	         20
	BorderRoundCorner            16
	BorderThickness 	         1
	BackgroundColor              #48494b
}


skinparam legend {
	BackgroundColor #303030
	BorderColor #404040
	FontColor #a0a0a0
}

	skinparam swimlane {
	BorderColor #5e5e5e
	BorderThickness 2
	TitleBackgroundColor  #6d6d6d-#484848
	TitleFontColor #303030
}

skinparam activity {
		FontColor #C8Ac00
	BorderColor #333333
	BackgroundColor #333333-#333333
	BarColor #00FF00
	StartColor #0060a8
	EndColor #0060a8
	DiamondBackgroundColor #6d6d6d-#3a3a3a
  	DiamondBorderColor #3a3a3a
  	DiamondFontColor #fefefe
}


skinparam participant {
		FontColor #C8Ac00
	BorderColor #333333
	BackgroundColor #333333-#333333
	ParticipantBorderThickness 2
}


skinparam actor {
		FontColor #C8Ac00
	BorderColor #333333
	BackgroundColor #333333-#333333
}


skinparam arrow {
	Thickness 1.5
	Color #545454
	FontColor #a0a0a0
    FontStyle bold
    MessageAlignment center
}



skinparam sequence {
	BorderColor #303030
	TitleFontColor #303030
	BackgroundColor #333333
	StartColor #303030
	EndColor #303030
	BoxBackgroundColor #333333
	BoxBorderColor #484848
	BoxFontColor #484848
	LifeLineBorderColor #484848
	LifeLineBorderThickness 2
	LifeLineBackgroundColor #3a3a3a
	GroupBorderColor #484848
	GroupFontColor #484848
	GroupHeaderFontColor #0060a8
	GroupBackgroundColor #484848
	GroupHeaderBackgroundColor #333333
	DividerBackgroundColor #484848
    DividerBorderColor #484848
    DividerBorderThickness 2
    DividerFontColor #D8Bc00
	ReferenceBackgroundColor #333333
	ReferenceBorderColor #484848
	ReferenceFontColor #fefefe
	ReferenceHeaderBackgroundColor #484848
}


skinparam partition {
	BorderColor #303030
	FontColor #333333
	BackgroundColor #333333
}


skinparam collections {
		FontColor #C8Ac00
	BorderColor #333333
	BackgroundColor #333333-#333333
}


skinparam control {
		FontColor #C8Ac00
	BorderColor #333333
	BackgroundColor #333333-#333333
}


skinparam entity {
		FontColor #C8Ac00
	BorderColor #333333
	BackgroundColor #333333-#333333
}


skinparam boundary {
		FontColor #C8Ac00
	BorderColor #333333
	BackgroundColor #333333-#333333
}


skinparam agent {
	BackgroundColor #ff8000
	BorderColor #ff9933
	FontColor #484848
}


skinparam note {
	BorderThickness 1
	BackgroundColor #1b1b1a
	BorderColor #5e5e5e
	FontSize 11
	FontColor #a0a0a0
}


skinparam artifact {
	BorderThickness 10
	BorderColor #5e5e5e
	BackgroundColor #1b1b1a
	FontColor #D8Bc00
}


skinparam component {
		FontColor #C8Ac00
	BorderColor #333333
	BackgroundColor #333333-#333333
}


skinparam interface {
	BackgroundColor  #008400
	BorderColor  #007F00
	FontColor #484848
}


skinparam storage {
	BackgroundColor #ff8000
  	BorderColor #cc6600
	FontColor #222222
}


skinparam node {
	BackgroundColor #333333
	BorderColor #333333
	FontColor #C8Ac00
}


skinparam cloud {
	BackgroundColor #484848-black
	BorderColor #484848
	FontColor #D8Bc00
}


skinparam database {
		FontColor #C8Ac00
	BorderColor #333333
	BackgroundColor #333333-#333333
	BackgroundColor  #333333
}


skinparam class {
		FontColor #C8Ac00
	BorderColor #333333
	BackgroundColor #333333-#333333
	HeaderBackgroundColor #1b1b1a
    BackgroundColor #282828
    BorderColor #5e5e5e
 	StereotypeFontColor #a0a0a0
    StereotypeFontStyle bold
	BorderThickness 1
	AttributeFontColor #D8Bc00
	AttributeFontSize 11
    FontColor #D8Bc00
    FontStyle bold
}


skinparam object {
		FontColor #C8Ac00
	BorderColor #333333
	BackgroundColor #333333-#333333
	StereotypeFontColor #484848
	BorderThickness 1
	AttributeFontColor #fefefe
	AttributeFontSize 11
}


skinparam usecase {
		FontColor #C8Ac00
	BorderColor #333333
	BackgroundColor #333333-#333333
	BorderThickness 2
	StereotypeFontColor #303030
}


skinparam rectangle {
		FontColor #C8Ac00
	BorderColor #333333
	BackgroundColor #333333-#333333
	BackgroundColor #333333
	BorderThickness 2
	StereotypeFontColor #303030
}


skinparam package {
		FontColor #C8Ac00
	BorderColor #333333
	BackgroundColor #333333-#333333
	BackgroundColor #333333
	BorderThickness 2
}


skinparam folder {
	BackgroundColor #6d6d6d
  	BorderColor #ff8000
	FontColor #ff8000
	BorderThickness 2
}


skinparam frame {
	BackgroundColor #6d6d6d
  	BorderColor #0060a8
	FontColor #0060a8
	BorderThickness 2
}


skinparam state {
		FontColor #C8Ac00
	BorderColor #333333
	BackgroundColor #333333-#333333
	StartColor #0060a8
	EndColor #0060a8
	AttributeFontColor #fefefe
	AttributeFontSize 11
}


skinparam queue {
		FontColor #C8Ac00
	BorderColor #333333
	BackgroundColor #333333-#333333
}


skinparam card {
	BackgroundColor #0060a8
	BorderColor #004d86
	FontColor $INFO_TEXT
}


skinparam file {
	BackgroundColor #6d6d6d-#484848
	BorderColor #0060a8
	FontColor #fefefe
}


skinparam stack {
		FontColor #C8Ac00
	BorderColor #333333
	BackgroundColor #333333-#333333
}

    
    title "org.apache.wicket.extensions.markup.html.captcha"
    
    interface IClusterable
    
    DynamicImageResource <|- - CaptchaImageResource
    class CaptchaImageResource
    {
        - -(constructors)- -
        +CaptchaImageResource()
        +CaptchaImageResource(IModel<String>)
        +CaptchaImageResource(IModel<String>, int, int)
        +CaptchaImageResource(String)
        +CaptchaImageResource(String, int, int)
        - -
        +void invalidate()
        #byte[] render()
        - -(factory)- -
        #Random newRandomNumberGenerator()
        - -(identity)- -
        +String getChallengeId()
        +IModel<String> getChallengeIdModel()
    }
    
    IClusterable <|- - CaptchaImageResource.CharAttributes
    class CaptchaImageResource.CharAttributes
    {
    }
    
    class CaptchaImageResource.RandomNumberGeneratorFactory
    {
    }
    
@enduml

PlantUML version 1.2021.01(Tue Feb 02 00:55:08 MST 2021)
(GPL source distribution)
Java Runtime: Java(TM) SE Runtime Environment
JVM: Java HotSpot(TM) 64-Bit Server VM
Default Encoding: UTF-8
Language: en
Country: US
--></g></svg>