<?xml version="1.0" encoding="UTF-8" standalone="no"?><svg xmlns="http://www.w3.org/2000/svg" xmlns:xlink="http://www.w3.org/1999/xlink" contentScriptType="application/ecmascript" contentStyleType="text/css" height="293.75px" preserveAspectRatio="none" style="width:815px;height:293px;background:#333333;" version="1.1" viewBox="0 0 815 293" width="815.625px" zoomAndPan="magnify"><defs/><g><rect fill="#48494B" height="41.2028" rx="8.3333" ry="8.3333" style="stroke:#545454;stroke-width:1.0416666666666667;" width="287.5" x="256.7708" y="2.0833"/><text fill="#C0C0C0" font-family="Open Sans,Avenir,Nunito,Arial,Helvetica,SansSerif" font-size="20.8333" lengthAdjust="spacing" textLength="264.5833" x="268.2292" y="30.5583">org.apache.wicket.devutils</text><!--MD5=[2348928a02e2f2aa159b7171a1143fdb]
class WebPage--><rect fill="#282828" height="48.055" id="WebPage" rx="8.3333" ry="8.3333" style="stroke:#5E5E5E;stroke-width:1.0416666666666667;" width="94.7917" x="60.4167" y="53.7028"/><rect fill="#1B1B1A" height="31.3883" rx="8.3333" ry="8.3333" style="stroke:#1B1B1A;stroke-width:1.0416666666666667;" width="94.7917" x="60.4167" y="53.7028"/><rect fill="#1B1B1A" height="8.3333" style="stroke:#1B1B1A;stroke-width:1.0416666666666667;" width="94.7917" x="60.4167" y="76.7578"/><rect fill="none" height="48.055" id="WebPage" rx="8.3333" ry="8.3333" style="stroke:#5E5E5E;stroke-width:1.0416666666666667;" width="94.7917" x="60.4167" y="53.7028"/><ellipse cx="75" cy="69.397" fill="#0066CF" rx="10.4167" ry="10.4167" style="stroke:#0086EF;stroke-width:1.0416666666666667;"/><path d="M76.9104,73.822 Q76.4832,74.0417 76.0132,74.1516 Q75.5432,74.2615 75.0244,74.2615 Q73.1812,74.2615 72.2107,73.0469 Q71.2402,71.8323 71.2402,69.5374 Q71.2402,67.2363 72.2107,66.0217 Q73.1812,64.8071 75.0244,64.8071 Q75.5432,64.8071 76.0193,64.917 Q76.4954,65.0269 76.9104,65.2466 L76.9104,67.2485 Q76.4465,66.8213 76.0101,66.6229 Q75.5737,66.4246 75.1099,66.4246 Q74.1211,66.4246 73.6176,67.2089 Q73.114,67.9932 73.114,69.5374 Q73.114,71.0754 73.6176,71.8597 Q74.1211,72.644 75.1099,72.644 Q75.5737,72.644 76.0101,72.4457 Q76.4465,72.2473 76.9104,71.8201 Z " fill="#000000"/><text fill="#D8BC00" font-family="Open Sans,Avenir,Nunito,Arial,Helvetica,SansSerif" font-size="12.5" font-weight="bold" lengthAdjust="spacing" textLength="57.2917" x="91.6667" y="74.1211">WebPage</text><line style="stroke:#5E5E5E;stroke-width:1.0416666666666667;" x1="61.4583" x2="154.1667" y1="85.0911" y2="85.0911"/><line style="stroke:#5E5E5E;stroke-width:1.0416666666666667;" x1="61.4583" x2="154.1667" y1="93.4245" y2="93.4245"/><!--MD5=[b92792136ab0274420b0b2e84b59d517]
class DevUtilsPage--><rect codeLine="7" fill="#282828" height="122.8678" id="DevUtilsPage" rx="8.3333" ry="8.3333" style="stroke:#5E5E5E;stroke-width:1.0416666666666667;" width="201.0417" x="7.2917" y="164.1195"/><rect fill="#1B1B1A" height="31.3883" rx="8.3333" ry="8.3333" style="stroke:#1B1B1A;stroke-width:1.0416666666666667;" width="201.0417" x="7.2917" y="164.1195"/><rect fill="#1B1B1A" height="8.3333" style="stroke:#1B1B1A;stroke-width:1.0416666666666667;" width="201.0417" x="7.2917" y="187.1745"/><rect codeLine="7" fill="none" height="122.8678" id="DevUtilsPage" rx="8.3333" ry="8.3333" style="stroke:#5E5E5E;stroke-width:1.0416666666666667;" width="201.0417" x="7.2917" y="164.1195"/><ellipse cx="57.8125" cy="179.8136" fill="#0066CF" rx="10.4167" ry="10.4167" style="stroke:#0086EF;stroke-width:1.0416666666666667;"/><path d="M59.7229,184.2387 Q59.2957,184.4584 58.8257,184.5683 Q58.3557,184.6781 57.8369,184.6781 Q55.9937,184.6781 55.0232,183.4635 Q54.0527,182.2489 54.0527,179.954 Q54.0527,177.653 55.0232,176.4384 Q55.9937,175.2238 57.8369,175.2238 Q58.3557,175.2238 58.8318,175.3337 Q59.3079,175.4435 59.7229,175.6632 L59.7229,177.6652 Q59.259,177.238 58.8226,177.0396 Q58.3862,176.8412 57.9224,176.8412 Q56.9336,176.8412 56.4301,177.6255 Q55.9265,178.4098 55.9265,179.954 Q55.9265,181.4921 56.4301,182.2764 Q56.9336,183.0607 57.9224,183.0607 Q58.3862,183.0607 58.8226,182.8623 Q59.259,182.664 59.7229,182.2367 Z " fill="#000000"/><text fill="#D8BC00" font-family="Open Sans,Avenir,Nunito,Arial,Helvetica,SansSerif" font-size="12.5" font-weight="bold" lengthAdjust="spacing" textLength="85.4167" x="80.7292" y="184.5378">DevUtilsPage</text><line style="stroke:#5E5E5E;stroke-width:1.5625;" x1="8.3333" x2="207.2917" y1="195.5078" y2="195.5078"/><ellipse cx="18.75" cy="230.8777" fill="#84BE84" rx="3.125" ry="3.125" style="stroke:#038048;stroke-width:1.0416666666666667;"/><text fill="#D8BC00" font-family="Open Sans,Avenir,Nunito,Arial,Helvetica,SansSerif" font-size="11.4583" lengthAdjust="spacing" textLength="80.2083" x="30.2083" y="237.7889">DevUtilsPage()</text><ellipse cx="18.75" cy="250.6226" fill="#84BE84" rx="3.125" ry="3.125" style="stroke:#038048;stroke-width:1.0416666666666667;"/><text fill="#D8BC00" font-family="Open Sans,Avenir,Nunito,Arial,Helvetica,SansSerif" font-size="11.4583" lengthAdjust="spacing" textLength="140.625" x="30.2083" y="257.5338">DevUtilsPage(IModel&lt;?&gt;)</text><ellipse cx="18.75" cy="270.3674" fill="#84BE84" rx="3.125" ry="3.125" style="stroke:#038048;stroke-width:1.0416666666666667;"/><text fill="#D8BC00" font-family="Open Sans,Avenir,Nunito,Arial,Helvetica,SansSerif" font-size="11.4583" lengthAdjust="spacing" textLength="168.75" x="30.2083" y="277.2786">DevUtilsPage(PageParameters)</text><line style="stroke:#5E5E5E;stroke-width:1.0416666666666667;" x1="8.3333" x2="64.0625" y1="213.7136" y2="213.7136"/><text fill="#D8BC00" font-family="Open Sans,Avenir,Nunito,Arial,Helvetica,SansSerif" font-size="11.4583" lengthAdjust="spacing" textLength="81.25" x="67.1875" y="217.5232">(constructors)</text><line style="stroke:#5E5E5E;stroke-width:1.0416666666666667;" x1="151.5625" x2="207.2917" y1="213.7136" y2="213.7136"/><!--MD5=[0174392a0c212c3b3e97bee69152624c]
class Panel--><rect fill="#282828" height="48.055" id="Panel" rx="8.3333" ry="8.3333" style="stroke:#5E5E5E;stroke-width:1.0416666666666667;" width="71.875" x="316.6667" y="53.7028"/><rect fill="#1B1B1A" height="31.3883" rx="8.3333" ry="8.3333" style="stroke:#1B1B1A;stroke-width:1.0416666666666667;" width="71.875" x="316.6667" y="53.7028"/><rect fill="#1B1B1A" height="8.3333" style="stroke:#1B1B1A;stroke-width:1.0416666666666667;" width="71.875" x="316.6667" y="76.7578"/><rect fill="none" height="48.055" id="Panel" rx="8.3333" ry="8.3333" style="stroke:#5E5E5E;stroke-width:1.0416666666666667;" width="71.875" x="316.6667" y="53.7028"/><ellipse cx="331.25" cy="69.397" fill="#0066CF" rx="10.4167" ry="10.4167" style="stroke:#0086EF;stroke-width:1.0416666666666667;"/><path d="M333.1604,73.822 Q332.7332,74.0417 332.2632,74.1516 Q331.7932,74.2615 331.2744,74.2615 Q329.4312,74.2615 328.4607,73.0469 Q327.4902,71.8323 327.4902,69.5374 Q327.4902,67.2363 328.4607,66.0217 Q329.4312,64.8071 331.2744,64.8071 Q331.7932,64.8071 332.2693,64.917 Q332.7454,65.0269 333.1604,65.2466 L333.1604,67.2485 Q332.6965,66.8213 332.2601,66.6229 Q331.8237,66.4246 331.3599,66.4246 Q330.3711,66.4246 329.8676,67.2089 Q329.364,67.9932 329.364,69.5374 Q329.364,71.0754 329.8676,71.8597 Q330.3711,72.644 331.3599,72.644 Q331.8237,72.644 332.2601,72.4457 Q332.6965,72.2473 333.1604,71.8201 Z " fill="#000000"/><text fill="#D8BC00" font-family="Open Sans,Avenir,Nunito,Arial,Helvetica,SansSerif" font-size="12.5" font-weight="bold" lengthAdjust="spacing" textLength="34.375" x="347.9167" y="74.1211">Panel</text><line style="stroke:#5E5E5E;stroke-width:1.0416666666666667;" x1="317.7083" x2="387.5" y1="85.0911" y2="85.0911"/><line style="stroke:#5E5E5E;stroke-width:1.0416666666666667;" x1="317.7083" x2="387.5" y1="93.4245" y2="93.4245"/><!--MD5=[406b4321ef11fa8775fbbf8092807a9f]
class DevUtilsPanel--><rect codeLine="16" fill="#282828" height="103.123" id="DevUtilsPanel" rx="8.3333" ry="8.3333" style="stroke:#5E5E5E;stroke-width:1.0416666666666667;" width="215.625" x="244.7917" y="174.0153"/><rect fill="#1B1B1A" height="31.3883" rx="8.3333" ry="8.3333" style="stroke:#1B1B1A;stroke-width:1.0416666666666667;" width="215.625" x="244.7917" y="174.0153"/><rect fill="#1B1B1A" height="8.3333" style="stroke:#1B1B1A;stroke-width:1.0416666666666667;" width="215.625" x="244.7917" y="197.0703"/><rect codeLine="16" fill="none" height="103.123" id="DevUtilsPanel" rx="8.3333" ry="8.3333" style="stroke:#5E5E5E;stroke-width:1.0416666666666667;" width="215.625" x="244.7917" y="174.0153"/><ellipse cx="300.5208" cy="189.7095" fill="#0066CF" rx="10.4167" ry="10.4167" style="stroke:#0086EF;stroke-width:1.0416666666666667;"/><path d="M302.4312,194.1345 Q302.004,194.3542 301.534,194.4641 Q301.064,194.574 300.5452,194.574 Q298.702,194.574 297.7315,193.3594 Q296.7611,192.1448 296.7611,189.8499 Q296.7611,187.5488 297.7315,186.3342 Q298.702,185.1196 300.5452,185.1196 Q301.064,185.1196 301.5401,185.2295 Q302.0162,185.3394 302.4312,185.5591 L302.4312,187.561 Q301.9674,187.1338 301.531,186.9354 Q301.0946,186.7371 300.6307,186.7371 Q299.6419,186.7371 299.1384,187.5214 Q298.6348,188.3057 298.6348,189.8499 Q298.6348,191.3879 299.1384,192.1722 Q299.6419,192.9565 300.6307,192.9565 Q301.0946,192.9565 301.531,192.7582 Q301.9674,192.5598 302.4312,192.1326 Z " fill="#000000"/><text fill="#D8BC00" font-family="Open Sans,Avenir,Nunito,Arial,Helvetica,SansSerif" font-size="12.5" font-weight="bold" lengthAdjust="spacing" textLength="89.5833" x="323.4375" y="194.4336">DevUtilsPanel</text><line style="stroke:#5E5E5E;stroke-width:1.5625;" x1="245.8333" x2="459.375" y1="205.4036" y2="205.4036"/><ellipse cx="256.25" cy="240.7735" fill="#84BE84" rx="3.125" ry="3.125" style="stroke:#038048;stroke-width:1.0416666666666667;"/><text fill="#D8BC00" font-family="Open Sans,Avenir,Nunito,Arial,Helvetica,SansSerif" font-size="11.4583" lengthAdjust="spacing" textLength="116.6667" x="267.7083" y="247.6847">DevUtilsPanel(String)</text><ellipse cx="256.25" cy="260.5184" fill="#84BE84" rx="3.125" ry="3.125" style="stroke:#038048;stroke-width:1.0416666666666667;"/><text fill="#D8BC00" font-family="Open Sans,Avenir,Nunito,Arial,Helvetica,SansSerif" font-size="11.4583" lengthAdjust="spacing" textLength="183.3333" x="267.7083" y="267.4296">DevUtilsPanel(String, IModel&lt;?&gt;)</text><line style="stroke:#5E5E5E;stroke-width:1.0416666666666667;" x1="245.8333" x2="308.8542" y1="223.6094" y2="223.6094"/><text fill="#D8BC00" font-family="Open Sans,Avenir,Nunito,Arial,Helvetica,SansSerif" font-size="11.4583" lengthAdjust="spacing" textLength="81.25" x="311.9792" y="227.419">(constructors)</text><line style="stroke:#5E5E5E;stroke-width:1.0416666666666667;" x1="396.3542" x2="459.375" y1="223.6094" y2="223.6094"/><!--MD5=[45b2bb481767de2342fc072aa9ebeed7]
class WicketRuntimeException--><rect fill="#282828" height="48.055" id="WicketRuntimeException" rx="8.3333" ry="8.3333" style="stroke:#5E5E5E;stroke-width:1.0416666666666667;" width="196.875" x="554.1667" y="53.7028"/><rect fill="#1B1B1A" height="31.3883" rx="8.3333" ry="8.3333" style="stroke:#1B1B1A;stroke-width:1.0416666666666667;" width="196.875" x="554.1667" y="53.7028"/><rect fill="#1B1B1A" height="8.3333" style="stroke:#1B1B1A;stroke-width:1.0416666666666667;" width="196.875" x="554.1667" y="76.7578"/><rect fill="none" height="48.055" id="WicketRuntimeException" rx="8.3333" ry="8.3333" style="stroke:#5E5E5E;stroke-width:1.0416666666666667;" width="196.875" x="554.1667" y="53.7028"/><ellipse cx="568.75" cy="69.397" fill="#0066CF" rx="10.4167" ry="10.4167" style="stroke:#0086EF;stroke-width:1.0416666666666667;"/><path d="M570.6604,73.822 Q570.2332,74.0417 569.7632,74.1516 Q569.2932,74.2615 568.7744,74.2615 Q566.9312,74.2615 565.9607,73.0469 Q564.9902,71.8323 564.9902,69.5374 Q564.9902,67.2363 565.9607,66.0217 Q566.9312,64.8071 568.7744,64.8071 Q569.2932,64.8071 569.7693,64.917 Q570.2454,65.0269 570.6604,65.2466 L570.6604,67.2485 Q570.1965,66.8213 569.7601,66.6229 Q569.3237,66.4246 568.8599,66.4246 Q567.8711,66.4246 567.3676,67.2089 Q566.864,67.9932 566.864,69.5374 Q566.864,71.0754 567.3676,71.8597 Q567.8711,72.644 568.8599,72.644 Q569.3237,72.644 569.7601,72.4457 Q570.1965,72.2473 570.6604,71.8201 Z " fill="#000000"/><text fill="#D8BC00" font-family="Open Sans,Avenir,Nunito,Arial,Helvetica,SansSerif" font-size="12.5" font-weight="bold" lengthAdjust="spacing" textLength="159.375" x="585.4167" y="74.1211">WicketRuntimeException</text><line style="stroke:#5E5E5E;stroke-width:1.0416666666666667;" x1="555.2083" x2="750" y1="85.0911" y2="85.0911"/><line style="stroke:#5E5E5E;stroke-width:1.0416666666666667;" x1="555.2083" x2="750" y1="93.4245" y2="93.4245"/><!--MD5=[51dd661f4762a2171839546ae94b183e]
class DevelopmentUtilitiesNotEnabledException--><rect codeLine="24" fill="#282828" height="111.4563" id="DevelopmentUtilitiesNotEnabledException" rx="8.3333" ry="8.3333" style="stroke:#5E5E5E;stroke-width:1.0416666666666667;" width="311.4583" x="496.875" y="169.8486"/><rect fill="#1B1B1A" height="31.3883" rx="8.3333" ry="8.3333" style="stroke:#1B1B1A;stroke-width:1.0416666666666667;" width="311.4583" x="496.875" y="169.8486"/><rect fill="#1B1B1A" height="8.3333" style="stroke:#1B1B1A;stroke-width:1.0416666666666667;" width="311.4583" x="496.875" y="192.9036"/><rect codeLine="24" fill="none" height="111.4563" id="DevelopmentUtilitiesNotEnabledException" rx="8.3333" ry="8.3333" style="stroke:#5E5E5E;stroke-width:1.0416666666666667;" width="311.4583" x="496.875" y="169.8486"/><ellipse cx="511.4583" cy="185.5428" fill="#0066CF" rx="10.4167" ry="10.4167" style="stroke:#0086EF;stroke-width:1.0416666666666667;"/><path d="M513.3687,189.9679 Q512.9415,190.1876 512.4715,190.2974 Q512.0015,190.4073 511.4827,190.4073 Q509.6395,190.4073 508.669,189.1927 Q507.6986,187.9781 507.6986,185.6832 Q507.6986,183.3822 508.669,182.1676 Q509.6395,180.953 511.4827,180.953 Q512.0015,180.953 512.4776,181.0628 Q512.9537,181.1727 513.3687,181.3924 L513.3687,183.3944 Q512.9049,182.9671 512.4685,182.7688 Q512.0321,182.5704 511.5682,182.5704 Q510.5794,182.5704 510.0759,183.3547 Q509.5723,184.139 509.5723,185.6832 Q509.5723,187.2213 510.0759,188.0056 Q510.5794,188.7899 511.5682,188.7899 Q512.0321,188.7899 512.4685,188.5915 Q512.9049,188.3931 513.3687,187.9659 Z " fill="#000000"/><text fill="#D8BC00" font-family="Open Sans,Avenir,Nunito,Arial,Helvetica,SansSerif" font-size="12.5" font-weight="bold" lengthAdjust="spacing" textLength="273.9583" x="528.125" y="190.2669">DevelopmentUtilitiesNotEnabledException</text><line style="stroke:#5E5E5E;stroke-width:1.5625;" x1="497.9167" x2="807.2917" y1="201.237" y2="201.237"/><ellipse cx="508.3333" cy="236.6069" fill="#84BE84" rx="3.125" ry="3.125" style="stroke:#038048;stroke-width:1.0416666666666667;"/><text fill="#D8BC00" font-family="Open Sans,Avenir,Nunito,Arial,Helvetica,SansSerif" font-size="11.4583" lengthAdjust="spacing" textLength="241.6667" x="519.7917" y="243.5181">DevelopmentUtilitiesNotEnabledException()</text><line style="stroke:#5E5E5E;stroke-width:1.0416666666666667;" x1="497.9167" x2="608.8542" y1="219.4427" y2="219.4427"/><text fill="#D8BC00" font-family="Open Sans,Avenir,Nunito,Arial,Helvetica,SansSerif" font-size="11.4583" lengthAdjust="spacing" textLength="81.25" x="611.9792" y="223.2524">(constructors)</text><line style="stroke:#5E5E5E;stroke-width:1.0416666666666667;" x1="696.3542" x2="807.2917" y1="219.4427" y2="219.4427"/><line style="stroke:#5E5E5E;stroke-width:1.0416666666666667;" x1="497.9167" x2="807.2917" y1="253.2267" y2="253.2267"/><ellipse cx="508.3333" cy="264.6851" fill="#84BE84" rx="3.125" ry="3.125" style="stroke:#038048;stroke-width:1.0416666666666667;"/><text fill="#D8BC00" font-family="Open Sans,Avenir,Nunito,Arial,Helvetica,SansSerif" font-size="11.4583" lengthAdjust="spacing" textLength="67.7083" x="519.7917" y="271.5963">void check()</text><!--MD5=[ba8292532521dae6a2f9a48b1073ca69]
reverse link WebPage to DevUtilsPage--><path codeLine="6" d="M107.8125,123.0986 C107.8125,136.0257 107.8125,150.3695 107.8125,164.0986 " fill="none" id="WebPage-backto-DevUtilsPage" style="stroke:#545454;stroke-width:1.5625;"/><polygon fill="none" points="100.5208,122.6403,107.8125,101.807,115.1042,122.6403,100.5208,122.6403" style="stroke:#545454;stroke-width:1.5625;"/><!--MD5=[982d81f54dbe94b0cc9c59d53329082d]
reverse link Panel to DevUtilsPanel--><path codeLine="15" d="M352.6042,122.6611 C352.6042,138.7549 352.6042,157.0986 352.6042,173.7445 " fill="none" id="Panel-backto-DevUtilsPanel" style="stroke:#545454;stroke-width:1.5625;"/><polygon fill="none" points="345.3125,122.6403,352.6042,101.807,359.8958,122.6403,345.3125,122.6403" style="stroke:#545454;stroke-width:1.5625;"/><!--MD5=[ed4b50230ec4c557ca7227dddd1055ee]
reverse link WicketRuntimeException to DevelopmentUtilitiesNotEnabledException--><path codeLine="23" d="M652.6042,122.734 C652.6042,137.5361 652.6042,154.2236 652.6042,169.734 " fill="none" id="WicketRuntimeException-backto-DevelopmentUtilitiesNotEnabledException" style="stroke:#545454;stroke-width:1.5625;"/><polygon fill="none" points="645.3125,122.6403,652.6042,101.807,659.8958,122.6403,645.3125,122.6403" style="stroke:#545454;stroke-width:1.5625;"/><!--MD5=[0a91c1595a7470b4e7b5915992bd9d8f]
@startuml

    !include lexakai.theme
    
    title "org.apache.wicket.devutils"
    
    WebPage <|- - DevUtilsPage
    class DevUtilsPage
    {
        - -(constructors)- -
        +DevUtilsPage()
        +DevUtilsPage(IModel<?>)
        +DevUtilsPage(PageParameters)
    }
    
    Panel <|- - DevUtilsPanel
    class DevUtilsPanel
    {
        - -(constructors)- -
        +DevUtilsPanel(String)
        +DevUtilsPanel(String, IModel<?>)
    }
    
    WicketRuntimeException <|- - DevelopmentUtilitiesNotEnabledException
    class DevelopmentUtilitiesNotEnabledException
    {
        - -(constructors)- -
        +DevelopmentUtilitiesNotEnabledException()
        - -
        +void check()
    }
    
@enduml

@startuml









skinparam backgroundColor #333333






skinparam  {
    defaultFontName   "Open Sans,Avenir,Nunito,Arial,Helvetica,SansSerif"
    defaultFontSize   12
    defaultTextAlignment left
    shadowing false
    RoundCorner 10
    TitleFontSize 18
}

skinparam defaultFontName       "Open Sans,Avenir,Nunito,Arial,Helvetica,SansSerif"
skinparam defaultFontSize       12
skinparam dpi                   100
skinparam shadowing             false
skinparam roundcorner           16
skinparam ParticipantPadding    40
skinparam BoxPadding            40
skinparam Padding               3
skinparam ArrowColor            #545454
skinparam stereotype {
    CBackgroundColor #0066cf
    CBorderColor #0086ef
    ABackgroundColor #C8Ac00
    ABorderColor #D8Bc00
    IBackgroundColor #008400
    IBorderColor #239c23
    EBackgroundColor #cf6300
    EBorderColor #ef8300
    NBackgroundColor #3380b9
    NBorderColor #004d86
}
skinparam title {
	FontColor	                 #c0c0c0
 	BorderColor                  #545454
	FontSize	    	         20
	BorderRoundCorner            16
	BorderThickness 	         1
	BackgroundColor              #48494b
}


skinparam legend {
	BackgroundColor #303030
	BorderColor #404040
	FontColor #a0a0a0
}

	skinparam swimlane {
	BorderColor #5e5e5e
	BorderThickness 2
	TitleBackgroundColor  #6d6d6d-#484848
	TitleFontColor #303030
}

skinparam activity {
		FontColor #C8Ac00
	BorderColor #333333
	BackgroundColor #333333-#333333
	BarColor #00FF00
	StartColor #0060a8
	EndColor #0060a8
	DiamondBackgroundColor #6d6d6d-#3a3a3a
  	DiamondBorderColor #3a3a3a
  	DiamondFontColor #fefefe
}


skinparam participant {
		FontColor #C8Ac00
	BorderColor #333333
	BackgroundColor #333333-#333333
	ParticipantBorderThickness 2
}


skinparam actor {
		FontColor #C8Ac00
	BorderColor #333333
	BackgroundColor #333333-#333333
}


skinparam arrow {
	Thickness 1.5
	Color #545454
	FontColor #a0a0a0
    FontStyle bold
    MessageAlignment center
}



skinparam sequence {
	BorderColor #303030
	TitleFontColor #303030
	BackgroundColor #333333
	StartColor #303030
	EndColor #303030
	BoxBackgroundColor #333333
	BoxBorderColor #484848
	BoxFontColor #484848
	LifeLineBorderColor #484848
	LifeLineBorderThickness 2
	LifeLineBackgroundColor #3a3a3a
	GroupBorderColor #484848
	GroupFontColor #484848
	GroupHeaderFontColor #0060a8
	GroupBackgroundColor #484848
	GroupHeaderBackgroundColor #333333
	DividerBackgroundColor #484848
    DividerBorderColor #484848
    DividerBorderThickness 2
    DividerFontColor #D8Bc00
	ReferenceBackgroundColor #333333
	ReferenceBorderColor #484848
	ReferenceFontColor #fefefe
	ReferenceHeaderBackgroundColor #484848
}


skinparam partition {
	BorderColor #303030
	FontColor #333333
	BackgroundColor #333333
}


skinparam collections {
		FontColor #C8Ac00
	BorderColor #333333
	BackgroundColor #333333-#333333
}


skinparam control {
		FontColor #C8Ac00
	BorderColor #333333
	BackgroundColor #333333-#333333
}


skinparam entity {
		FontColor #C8Ac00
	BorderColor #333333
	BackgroundColor #333333-#333333
}


skinparam boundary {
		FontColor #C8Ac00
	BorderColor #333333
	BackgroundColor #333333-#333333
}


skinparam agent {
	BackgroundColor #ff8000
	BorderColor #ff9933
	FontColor #484848
}


skinparam note {
	BorderThickness 1
	BackgroundColor #1b1b1a
	BorderColor #5e5e5e
	FontSize 11
	FontColor #a0a0a0
}


skinparam artifact {
	BorderThickness 10
	BorderColor #5e5e5e
	BackgroundColor #1b1b1a
	FontColor #D8Bc00
}


skinparam component {
		FontColor #C8Ac00
	BorderColor #333333
	BackgroundColor #333333-#333333
}


skinparam interface {
	BackgroundColor  #008400
	BorderColor  #007F00
	FontColor #484848
}


skinparam storage {
	BackgroundColor #ff8000
  	BorderColor #cc6600
	FontColor #222222
}


skinparam node {
	BackgroundColor #333333
	BorderColor #333333
	FontColor #C8Ac00
}


skinparam cloud {
	BackgroundColor #484848-black
	BorderColor #484848
	FontColor #D8Bc00
}


skinparam database {
		FontColor #C8Ac00
	BorderColor #333333
	BackgroundColor #333333-#333333
	BackgroundColor  #333333
}


skinparam class {
		FontColor #C8Ac00
	BorderColor #333333
	BackgroundColor #333333-#333333
	HeaderBackgroundColor #1b1b1a
    BackgroundColor #282828
    BorderColor #5e5e5e
 	StereotypeFontColor #a0a0a0
    StereotypeFontStyle bold
	BorderThickness 1
	AttributeFontColor #D8Bc00
	AttributeFontSize 11
    FontColor #D8Bc00
    FontStyle bold
}


skinparam object {
		FontColor #C8Ac00
	BorderColor #333333
	BackgroundColor #333333-#333333
	StereotypeFontColor #484848
	BorderThickness 1
	AttributeFontColor #fefefe
	AttributeFontSize 11
}


skinparam usecase {
		FontColor #C8Ac00
	BorderColor #333333
	BackgroundColor #333333-#333333
	BorderThickness 2
	StereotypeFontColor #303030
}


skinparam rectangle {
		FontColor #C8Ac00
	BorderColor #333333
	BackgroundColor #333333-#333333
	BackgroundColor #333333
	BorderThickness 2
	StereotypeFontColor #303030
}


skinparam package {
		FontColor #C8Ac00
	BorderColor #333333
	BackgroundColor #333333-#333333
	BackgroundColor #333333
	BorderThickness 2
}


skinparam folder {
	BackgroundColor #6d6d6d
  	BorderColor #ff8000
	FontColor #ff8000
	BorderThickness 2
}


skinparam frame {
	BackgroundColor #6d6d6d
  	BorderColor #0060a8
	FontColor #0060a8
	BorderThickness 2
}


skinparam state {
		FontColor #C8Ac00
	BorderColor #333333
	BackgroundColor #333333-#333333
	StartColor #0060a8
	EndColor #0060a8
	AttributeFontColor #fefefe
	AttributeFontSize 11
}


skinparam queue {
		FontColor #C8Ac00
	BorderColor #333333
	BackgroundColor #333333-#333333
}


skinparam card {
	BackgroundColor #0060a8
	BorderColor #004d86
	FontColor $INFO_TEXT
}


skinparam file {
	BackgroundColor #6d6d6d-#484848
	BorderColor #0060a8
	FontColor #fefefe
}


skinparam stack {
		FontColor #C8Ac00
	BorderColor #333333
	BackgroundColor #333333-#333333
}

    
    title "org.apache.wicket.devutils"
    
    WebPage <|- - DevUtilsPage
    class DevUtilsPage
    {
        - -(constructors)- -
        +DevUtilsPage()
        +DevUtilsPage(IModel<?>)
        +DevUtilsPage(PageParameters)
    }
    
    Panel <|- - DevUtilsPanel
    class DevUtilsPanel
    {
        - -(constructors)- -
        +DevUtilsPanel(String)
        +DevUtilsPanel(String, IModel<?>)
    }
    
    WicketRuntimeException <|- - DevelopmentUtilitiesNotEnabledException
    class DevelopmentUtilitiesNotEnabledException
    {
        - -(constructors)- -
        +DevelopmentUtilitiesNotEnabledException()
        - -
        +void check()
    }
    
@enduml

PlantUML version 1.2021.01(Tue Feb 02 00:55:08 MST 2021)
(GPL source distribution)
Java Runtime: Java(TM) SE Runtime Environment
JVM: Java HotSpot(TM) 64-Bit Server VM
Default Encoding: UTF-8
Language: en
Country: US
--></g></svg>