<?xml version="1.0" encoding="UTF-8" standalone="no"?><svg xmlns="http://www.w3.org/2000/svg" xmlns:xlink="http://www.w3.org/1999/xlink" contentScriptType="application/ecmascript" contentStyleType="text/css" height="254.1667px" preserveAspectRatio="none" style="width:1122px;height:254px;background:#333333;" version="1.1" viewBox="0 0 1122 254" width="1122.9167px" zoomAndPan="magnify"><defs/><g><rect fill="#48494B" height="41.2028" rx="8.3333" ry="8.3333" style="stroke:#545454;stroke-width:1.0416666666666667;" width="479.1667" x="314.8438" y="2.0833"/><text fill="#C0C0C0" font-family="Open Sans,Avenir,Nunito,Arial,Helvetica,SansSerif" font-size="20.8333" lengthAdjust="spacing" textLength="456.25" x="326.3021" y="30.5583">org.apache.wicket.devutils.pagestore.browser</text><!--MD5=[bfbc09f118ac649fa938666fcb82962a]
class Comparator--><rect codeLine="6" fill="#282828" height="48.055" id="Comparator" rx="8.3333" ry="8.3333" style="stroke:#5E5E5E;stroke-width:1.0416666666666667;" width="114.5833" x="20.3125" y="53.7028"/><rect fill="#1B1B1A" height="31.3883" rx="8.3333" ry="8.3333" style="stroke:#1B1B1A;stroke-width:1.0416666666666667;" width="114.5833" x="20.3125" y="53.7028"/><rect fill="#1B1B1A" height="8.3333" style="stroke:#1B1B1A;stroke-width:1.0416666666666667;" width="114.5833" x="20.3125" y="76.7578"/><rect codeLine="6" fill="none" height="48.055" id="Comparator" rx="8.3333" ry="8.3333" style="stroke:#5E5E5E;stroke-width:1.0416666666666667;" width="114.5833" x="20.3125" y="53.7028"/><ellipse cx="34.8958" cy="69.397" fill="#008400" rx="10.4167" ry="10.4167" style="stroke:#239C23;stroke-width:1.0416666666666667;"/><path d="M32.2998,66.5588 L32.2998,64.9719 L37.7258,64.9719 L37.7258,66.5588 L35.9131,66.5588 L35.9131,72.4976 L37.7258,72.4976 L37.7258,74.0845 L32.2998,74.0845 L32.2998,72.4976 L34.1125,72.4976 L34.1125,66.5588 Z " fill="#000000"/><text fill="#D8BC00" font-family="Open Sans,Avenir,Nunito,Arial,Helvetica,SansSerif" font-size="12.5" font-style="italic" font-weight="bold" lengthAdjust="spacing" textLength="77.0833" x="51.5625" y="74.1211">Comparator</text><line style="stroke:#5E5E5E;stroke-width:1.0416666666666667;" x1="21.3542" x2="133.8542" y1="85.0911" y2="85.0911"/><line style="stroke:#5E5E5E;stroke-width:1.0416666666666667;" x1="21.3542" x2="133.8542" y1="93.4245" y2="93.4245"/><!--MD5=[99d4dce5ceb66cd06eaae208e7a97d5b]
class SortableDataProvider--><rect fill="#282828" height="48.055" id="SortableDataProvider" rx="8.3333" ry="8.3333" style="stroke:#5E5E5E;stroke-width:1.0416666666666667;" width="173.9583" x="191.6667" y="53.7028"/><rect fill="#1B1B1A" height="31.3883" rx="8.3333" ry="8.3333" style="stroke:#1B1B1A;stroke-width:1.0416666666666667;" width="173.9583" x="191.6667" y="53.7028"/><rect fill="#1B1B1A" height="8.3333" style="stroke:#1B1B1A;stroke-width:1.0416666666666667;" width="173.9583" x="191.6667" y="76.7578"/><rect fill="none" height="48.055" id="SortableDataProvider" rx="8.3333" ry="8.3333" style="stroke:#5E5E5E;stroke-width:1.0416666666666667;" width="173.9583" x="191.6667" y="53.7028"/><ellipse cx="206.25" cy="69.397" fill="#0066CF" rx="10.4167" ry="10.4167" style="stroke:#0086EF;stroke-width:1.0416666666666667;"/><path d="M208.1604,73.822 Q207.7332,74.0417 207.2632,74.1516 Q206.7932,74.2615 206.2744,74.2615 Q204.4312,74.2615 203.4607,73.0469 Q202.4902,71.8323 202.4902,69.5374 Q202.4902,67.2363 203.4607,66.0217 Q204.4312,64.8071 206.2744,64.8071 Q206.7932,64.8071 207.2693,64.917 Q207.7454,65.0269 208.1604,65.2466 L208.1604,67.2485 Q207.6965,66.8213 207.2601,66.6229 Q206.8237,66.4246 206.3599,66.4246 Q205.3711,66.4246 204.8676,67.2089 Q204.364,67.9932 204.364,69.5374 Q204.364,71.0754 204.8676,71.8597 Q205.3711,72.644 206.3599,72.644 Q206.8237,72.644 207.2601,72.4457 Q207.6965,72.2473 208.1604,71.8201 Z " fill="#000000"/><text fill="#D8BC00" font-family="Open Sans,Avenir,Nunito,Arial,Helvetica,SansSerif" font-size="12.5" font-weight="bold" lengthAdjust="spacing" textLength="136.4583" x="222.9167" y="74.1211">SortableDataProvider</text><line style="stroke:#5E5E5E;stroke-width:1.0416666666666667;" x1="192.7083" x2="364.5833" y1="85.0911" y2="85.0911"/><line style="stroke:#5E5E5E;stroke-width:1.0416666666666667;" x1="192.7083" x2="364.5833" y1="93.4245" y2="93.4245"/><!--MD5=[c867683eab673200ea1ca1626f73798d]
class PersistedPagesProvider--><rect codeLine="9" fill="#282828" height="48.055" id="PersistedPagesProvider" rx="8.3333" ry="8.3333" style="stroke:#5E5E5E;stroke-width:1.0416666666666667;" width="187.5" x="184.8958" y="181.8278"/><rect fill="#1B1B1A" height="31.3883" rx="8.3333" ry="8.3333" style="stroke:#1B1B1A;stroke-width:1.0416666666666667;" width="187.5" x="184.8958" y="181.8278"/><rect fill="#1B1B1A" height="8.3333" style="stroke:#1B1B1A;stroke-width:1.0416666666666667;" width="187.5" x="184.8958" y="204.8828"/><rect codeLine="9" fill="none" height="48.055" id="PersistedPagesProvider" rx="8.3333" ry="8.3333" style="stroke:#5E5E5E;stroke-width:1.0416666666666667;" width="187.5" x="184.8958" y="181.8278"/><ellipse cx="199.4792" cy="197.522" fill="#0066CF" rx="10.4167" ry="10.4167" style="stroke:#0086EF;stroke-width:1.0416666666666667;"/><path d="M201.3896,201.947 Q200.9623,202.1667 200.4924,202.2766 Q200.0224,202.3865 199.5036,202.3865 Q197.6603,202.3865 196.6899,201.1719 Q195.7194,199.9573 195.7194,197.6624 Q195.7194,195.3613 196.6899,194.1467 Q197.6603,192.9321 199.5036,192.9321 Q200.0224,192.9321 200.4985,193.042 Q200.9745,193.1519 201.3896,193.3716 L201.3896,195.3735 Q200.9257,194.9463 200.4893,194.7479 Q200.0529,194.5496 199.589,194.5496 Q198.6003,194.5496 198.0967,195.3339 Q197.5932,196.1182 197.5932,197.6624 Q197.5932,199.2004 198.0967,199.9847 Q198.6003,200.769 199.589,200.769 Q200.0529,200.769 200.4893,200.5707 Q200.9257,200.3723 201.3896,199.9451 Z " fill="#000000"/><text fill="#D8BC00" font-family="Open Sans,Avenir,Nunito,Arial,Helvetica,SansSerif" font-size="12.5" font-weight="bold" lengthAdjust="spacing" textLength="150" x="216.1458" y="202.2461">PersistedPagesProvider</text><line style="stroke:#5E5E5E;stroke-width:1.0416666666666667;" x1="185.9375" x2="371.3542" y1="213.2161" y2="213.2161"/><line style="stroke:#5E5E5E;stroke-width:1.0416666666666667;" x1="185.9375" x2="371.3542" y1="221.5495" y2="221.5495"/><!--MD5=[22a97772e34d25211b0c5684f54f6964]
class GenericPanel--><rect fill="#282828" height="48.055" id="GenericPanel" rx="8.3333" ry="8.3333" style="stroke:#5E5E5E;stroke-width:1.0416666666666667;" width="119.7917" x="513.5417" y="53.7028"/><rect fill="#1B1B1A" height="31.3883" rx="8.3333" ry="8.3333" style="stroke:#1B1B1A;stroke-width:1.0416666666666667;" width="119.7917" x="513.5417" y="53.7028"/><rect fill="#1B1B1A" height="8.3333" style="stroke:#1B1B1A;stroke-width:1.0416666666666667;" width="119.7917" x="513.5417" y="76.7578"/><rect fill="none" height="48.055" id="GenericPanel" rx="8.3333" ry="8.3333" style="stroke:#5E5E5E;stroke-width:1.0416666666666667;" width="119.7917" x="513.5417" y="53.7028"/><ellipse cx="528.125" cy="69.397" fill="#0066CF" rx="10.4167" ry="10.4167" style="stroke:#0086EF;stroke-width:1.0416666666666667;"/><path d="M530.0354,73.822 Q529.6082,74.0417 529.1382,74.1516 Q528.6682,74.2615 528.1494,74.2615 Q526.3062,74.2615 525.3357,73.0469 Q524.3652,71.8323 524.3652,69.5374 Q524.3652,67.2363 525.3357,66.0217 Q526.3062,64.8071 528.1494,64.8071 Q528.6682,64.8071 529.1443,64.917 Q529.6204,65.0269 530.0354,65.2466 L530.0354,67.2485 Q529.5715,66.8213 529.1351,66.6229 Q528.6987,66.4246 528.2349,66.4246 Q527.2461,66.4246 526.7426,67.2089 Q526.239,67.9932 526.239,69.5374 Q526.239,71.0754 526.7426,71.8597 Q527.2461,72.644 528.2349,72.644 Q528.6987,72.644 529.1351,72.4457 Q529.5715,72.2473 530.0354,71.8201 Z " fill="#000000"/><text fill="#D8BC00" font-family="Open Sans,Avenir,Nunito,Arial,Helvetica,SansSerif" font-size="12.5" font-weight="bold" lengthAdjust="spacing" textLength="82.2917" x="544.7917" y="74.1211">GenericPanel</text><line style="stroke:#5E5E5E;stroke-width:1.0416666666666667;" x1="514.5833" x2="632.2917" y1="85.0911" y2="85.0911"/><line style="stroke:#5E5E5E;stroke-width:1.0416666666666667;" x1="514.5833" x2="632.2917" y1="93.4245" y2="93.4245"/><!--MD5=[213eb135c960da8e3d7492cc08db58a7]
class PersistedPanel--><rect codeLine="14" fill="#282828" height="83.3781" id="PersistedPanel" rx="8.3333" ry="8.3333" style="stroke:#5E5E5E;stroke-width:1.0416666666666667;" width="329.1667" x="408.8542" y="164.1195"/><rect fill="#1B1B1A" height="31.3883" rx="8.3333" ry="8.3333" style="stroke:#1B1B1A;stroke-width:1.0416666666666667;" width="329.1667" x="408.8542" y="164.1195"/><rect fill="#1B1B1A" height="8.3333" style="stroke:#1B1B1A;stroke-width:1.0416666666666667;" width="329.1667" x="408.8542" y="187.1745"/><rect codeLine="14" fill="none" height="83.3781" id="PersistedPanel" rx="8.3333" ry="8.3333" style="stroke:#5E5E5E;stroke-width:1.0416666666666667;" width="329.1667" x="408.8542" y="164.1195"/><ellipse cx="519.2708" cy="179.8136" fill="#0066CF" rx="10.4167" ry="10.4167" style="stroke:#0086EF;stroke-width:1.0416666666666667;"/><path d="M521.1812,184.2387 Q520.754,184.4584 520.284,184.5683 Q519.814,184.6781 519.2952,184.6781 Q517.452,184.6781 516.4815,183.4635 Q515.5111,182.2489 515.5111,179.954 Q515.5111,177.653 516.4815,176.4384 Q517.452,175.2238 519.2952,175.2238 Q519.814,175.2238 520.2901,175.3337 Q520.7662,175.4435 521.1812,175.6632 L521.1812,177.6652 Q520.7174,177.238 520.281,177.0396 Q519.8446,176.8412 519.3807,176.8412 Q518.3919,176.8412 517.8884,177.6255 Q517.3848,178.4098 517.3848,179.954 Q517.3848,181.4921 517.8884,182.2764 Q518.3919,183.0607 519.3807,183.0607 Q519.8446,183.0607 520.281,182.8623 Q520.7174,182.664 521.1812,182.2367 Z " fill="#000000"/><text fill="#D8BC00" font-family="Open Sans,Avenir,Nunito,Arial,Helvetica,SansSerif" font-size="12.5" font-weight="bold" lengthAdjust="spacing" textLength="93.75" x="542.1875" y="184.5378">PersistedPanel</text><line style="stroke:#5E5E5E;stroke-width:1.5625;" x1="409.8958" x2="736.9792" y1="195.5078" y2="195.5078"/><ellipse cx="420.3125" cy="230.8777" fill="#84BE84" rx="3.125" ry="3.125" style="stroke:#038048;stroke-width:1.0416666666666667;"/><text fill="#D8BC00" font-family="Open Sans,Avenir,Nunito,Arial,Helvetica,SansSerif" font-size="11.4583" lengthAdjust="spacing" textLength="296.875" x="431.7708" y="237.7889">PersistedPanel(String, IModel&lt;IPersistentPageStore&gt;)</text><line style="stroke:#5E5E5E;stroke-width:1.0416666666666667;" x1="409.8958" x2="529.6875" y1="213.7136" y2="213.7136"/><text fill="#D8BC00" font-family="Open Sans,Avenir,Nunito,Arial,Helvetica,SansSerif" font-size="11.4583" lengthAdjust="spacing" textLength="81.25" x="532.8125" y="217.5232">(constructors)</text><line style="stroke:#5E5E5E;stroke-width:1.0416666666666667;" x1="617.1875" x2="736.9792" y1="213.7136" y2="213.7136"/><!--MD5=[af80e25d1d74a9b89426ee81519c936e]
class LoadableDetachableModel--><rect fill="#282828" height="48.055" id="LoadableDetachableModel" rx="8.3333" ry="8.3333" style="stroke:#5E5E5E;stroke-width:1.0416666666666667;" width="207.2917" x="841.6667" y="53.7028"/><rect fill="#1B1B1A" height="31.3883" rx="8.3333" ry="8.3333" style="stroke:#1B1B1A;stroke-width:1.0416666666666667;" width="207.2917" x="841.6667" y="53.7028"/><rect fill="#1B1B1A" height="8.3333" style="stroke:#1B1B1A;stroke-width:1.0416666666666667;" width="207.2917" x="841.6667" y="76.7578"/><rect fill="none" height="48.055" id="LoadableDetachableModel" rx="8.3333" ry="8.3333" style="stroke:#5E5E5E;stroke-width:1.0416666666666667;" width="207.2917" x="841.6667" y="53.7028"/><ellipse cx="856.25" cy="69.397" fill="#0066CF" rx="10.4167" ry="10.4167" style="stroke:#0086EF;stroke-width:1.0416666666666667;"/><path d="M858.1604,73.822 Q857.7332,74.0417 857.2632,74.1516 Q856.7932,74.2615 856.2744,74.2615 Q854.4312,74.2615 853.4607,73.0469 Q852.4902,71.8323 852.4902,69.5374 Q852.4902,67.2363 853.4607,66.0217 Q854.4312,64.8071 856.2744,64.8071 Q856.7932,64.8071 857.2693,64.917 Q857.7454,65.0269 858.1604,65.2466 L858.1604,67.2485 Q857.6965,66.8213 857.2601,66.6229 Q856.8237,66.4246 856.3599,66.4246 Q855.3711,66.4246 854.8676,67.2089 Q854.364,67.9932 854.364,69.5374 Q854.364,71.0754 854.8676,71.8597 Q855.3711,72.644 856.3599,72.644 Q856.8237,72.644 857.2601,72.4457 Q857.6965,72.2473 858.1604,71.8201 Z " fill="#000000"/><text fill="#D8BC00" font-family="Open Sans,Avenir,Nunito,Arial,Helvetica,SansSerif" font-size="12.5" font-weight="bold" lengthAdjust="spacing" textLength="169.7917" x="872.9167" y="74.1211">LoadableDetachableModel</text><line style="stroke:#5E5E5E;stroke-width:1.0416666666666667;" x1="842.7083" x2="1047.9167" y1="85.0911" y2="85.0911"/><line style="stroke:#5E5E5E;stroke-width:1.0416666666666667;" x1="842.7083" x2="1047.9167" y1="93.4245" y2="93.4245"/><!--MD5=[059d4a5aae19d82a6a96a3ccf5fc8991]
class SessionIdentifiersModel--><rect codeLine="21" fill="#282828" height="83.3781" id="SessionIdentifiersModel" rx="8.3333" ry="8.3333" style="stroke:#5E5E5E;stroke-width:1.0416666666666667;" width="341.6667" x="774.4792" y="164.1195"/><rect fill="#1B1B1A" height="31.3883" rx="8.3333" ry="8.3333" style="stroke:#1B1B1A;stroke-width:1.0416666666666667;" width="341.6667" x="774.4792" y="164.1195"/><rect fill="#1B1B1A" height="8.3333" style="stroke:#1B1B1A;stroke-width:1.0416666666666667;" width="341.6667" x="774.4792" y="187.1745"/><rect codeLine="21" fill="none" height="83.3781" id="SessionIdentifiersModel" rx="8.3333" ry="8.3333" style="stroke:#5E5E5E;stroke-width:1.0416666666666667;" width="341.6667" x="774.4792" y="164.1195"/><ellipse cx="859.8958" cy="179.8136" fill="#0066CF" rx="10.4167" ry="10.4167" style="stroke:#0086EF;stroke-width:1.0416666666666667;"/><path d="M861.8062,184.2387 Q861.379,184.4584 860.909,184.5683 Q860.439,184.6781 859.9202,184.6781 Q858.077,184.6781 857.1065,183.4635 Q856.1361,182.2489 856.1361,179.954 Q856.1361,177.653 857.1065,176.4384 Q858.077,175.2238 859.9202,175.2238 Q860.439,175.2238 860.9151,175.3337 Q861.3912,175.4435 861.8062,175.6632 L861.8062,177.6652 Q861.3424,177.238 860.906,177.0396 Q860.4696,176.8412 860.0057,176.8412 Q859.0169,176.8412 858.5134,177.6255 Q858.0098,178.4098 858.0098,179.954 Q858.0098,181.4921 858.5134,182.2764 Q859.0169,183.0607 860.0057,183.0607 Q860.4696,183.0607 860.906,182.8623 Q861.3424,182.664 861.8062,182.2367 Z " fill="#000000"/><text fill="#D8BC00" font-family="Open Sans,Avenir,Nunito,Arial,Helvetica,SansSerif" font-size="12.5" font-weight="bold" lengthAdjust="spacing" textLength="156.25" x="882.8125" y="184.5378">SessionIdentifiersModel</text><line style="stroke:#5E5E5E;stroke-width:1.5625;" x1="775.5208" x2="1115.1042" y1="195.5078" y2="195.5078"/><ellipse cx="785.9375" cy="230.8777" fill="#84BE84" rx="3.125" ry="3.125" style="stroke:#038048;stroke-width:1.0416666666666667;"/><text fill="#D8BC00" font-family="Open Sans,Avenir,Nunito,Arial,Helvetica,SansSerif" font-size="11.4583" lengthAdjust="spacing" textLength="309.375" x="797.3958" y="237.7889">SessionIdentifiersModel(IModel&lt;IPersistentPageStore&gt;)</text><line style="stroke:#5E5E5E;stroke-width:1.0416666666666667;" x1="775.5208" x2="901.5625" y1="213.7136" y2="213.7136"/><text fill="#D8BC00" font-family="Open Sans,Avenir,Nunito,Arial,Helvetica,SansSerif" font-size="11.4583" lengthAdjust="spacing" textLength="81.25" x="904.6875" y="217.5232">(constructors)</text><line style="stroke:#5E5E5E;stroke-width:1.0416666666666667;" x1="989.0625" x2="1115.1042" y1="213.7136" y2="213.7136"/><!--MD5=[ceeed1e056ccb2987aa9b8bd795d24e3]
class PersistedPagesProvider.SortComparator--><rect codeLine="28" fill="#282828" height="48.055" id="PersistedPagesProvider.SortComparator" rx="8.3333" ry="8.3333" style="stroke:#5E5E5E;stroke-width:1.0416666666666667;" width="140.625" x="7.2917" y="181.8278"/><rect fill="#1B1B1A" height="31.3883" rx="8.3333" ry="8.3333" style="stroke:#1B1B1A;stroke-width:1.0416666666666667;" width="140.625" x="7.2917" y="181.8278"/><rect fill="#1B1B1A" height="8.3333" style="stroke:#1B1B1A;stroke-width:1.0416666666666667;" width="140.625" x="7.2917" y="204.8828"/><rect codeLine="28" fill="none" height="48.055" id="PersistedPagesProvider.SortComparator" rx="8.3333" ry="8.3333" style="stroke:#5E5E5E;stroke-width:1.0416666666666667;" width="140.625" x="7.2917" y="181.8278"/><ellipse cx="21.875" cy="197.522" fill="#0066CF" rx="10.4167" ry="10.4167" style="stroke:#0086EF;stroke-width:1.0416666666666667;"/><path d="M23.7854,201.947 Q23.3582,202.1667 22.8882,202.2766 Q22.4182,202.3865 21.8994,202.3865 Q20.0562,202.3865 19.0857,201.1719 Q18.1152,199.9573 18.1152,197.6624 Q18.1152,195.3613 19.0857,194.1467 Q20.0562,192.9321 21.8994,192.9321 Q22.4182,192.9321 22.8943,193.042 Q23.3704,193.1519 23.7854,193.3716 L23.7854,195.3735 Q23.3215,194.9463 22.8851,194.7479 Q22.4487,194.5496 21.9849,194.5496 Q20.9961,194.5496 20.4926,195.3339 Q19.989,196.1182 19.989,197.6624 Q19.989,199.2004 20.4926,199.9847 Q20.9961,200.769 21.9849,200.769 Q22.4487,200.769 22.8851,200.5707 Q23.3215,200.3723 23.7854,199.9451 Z " fill="#000000"/><text fill="#D8BC00" font-family="Open Sans,Avenir,Nunito,Arial,Helvetica,SansSerif" font-size="12.5" font-weight="bold" lengthAdjust="spacing" textLength="103.125" x="38.5417" y="202.2461">SortComparator</text><line style="stroke:#5E5E5E;stroke-width:1.0416666666666667;" x1="8.3333" x2="146.875" y1="213.2161" y2="213.2161"/><line style="stroke:#5E5E5E;stroke-width:1.0416666666666667;" x1="8.3333" x2="146.875" y1="221.5495" y2="221.5495"/><!--MD5=[25de15b012b230102865385a3a4b3b10]
reverse link SortableDataProvider to PersistedPagesProvider--><path codeLine="8" d="M278.6458,122.9528 C278.6458,142.7965 278.6458,165.3799 278.6458,181.7757 " fill="none" id="SortableDataProvider-backto-PersistedPagesProvider" style="stroke:#545454;stroke-width:1.5625;"/><polygon fill="none" points="271.3542,122.6507,278.6458,101.8174,285.9375,122.6507,271.3542,122.6507" style="stroke:#545454;stroke-width:1.5625;"/><!--MD5=[447563e914f60851a1410892b2a274a3]
reverse link GenericPanel to PersistedPanel--><path codeLine="13" d="M573.4375,122.682 C573.4375,136.0778 573.4375,150.7445 573.4375,163.9215 " fill="none" id="GenericPanel-backto-PersistedPanel" style="stroke:#545454;stroke-width:1.5625;"/><polygon fill="none" points="566.1458,122.6507,573.4375,101.8174,580.7292,122.6507,566.1458,122.6507" style="stroke:#545454;stroke-width:1.5625;"/><!--MD5=[ea0e5352efb4ffd9fc26f06cb6cb8777]
reverse link LoadableDetachableModel to SessionIdentifiersModel--><path codeLine="20" d="M945.3125,122.682 C945.3125,136.0778 945.3125,150.7445 945.3125,163.9215 " fill="none" id="LoadableDetachableModel-backto-SessionIdentifiersModel" style="stroke:#545454;stroke-width:1.5625;"/><polygon fill="none" points="938.0208,122.6507,945.3125,101.8174,952.6042,122.6507,938.0208,122.6507" style="stroke:#545454;stroke-width:1.5625;"/><!--MD5=[2e63bc1ee73bdc714e67ab3a23b4a945]
reverse link Comparator to PersistedPagesProvider.SortComparator--><path codeLine="27" d="M77.6042,122.9528 C77.6042,142.7965 77.6042,165.3799 77.6042,181.7757 " fill="none" id="Comparator-backto-PersistedPagesProvider.SortComparator" style="stroke:#545454;stroke-width:1.5625;"/><polygon fill="none" points="70.3125,122.6507,77.6042,101.8174,84.8958,122.6507,70.3125,122.6507" style="stroke:#545454;stroke-width:1.5625;"/><!--MD5=[07045dbc3a100f06808b32caa87a40f2]
@startuml

    !include lexakai.theme
    
    title "org.apache.wicket.devutils.pagestore.browser"
    
    interface Comparator
    
    SortableDataProvider <|- - PersistedPagesProvider
    class PersistedPagesProvider
    {
    }
    
    GenericPanel <|- - PersistedPanel
    class PersistedPanel
    {
        - -(constructors)- -
        +PersistedPanel(String, IModel<IPersistentPageStore>)
    }
    
    LoadableDetachableModel <|- - SessionIdentifiersModel
    class SessionIdentifiersModel
    {
        - -(constructors)- -
        +SessionIdentifiersModel(IModel<IPersistentPageStore>)
    }
    
    Comparator <|- - PersistedPagesProvider.SortComparator
    class PersistedPagesProvider.SortComparator
    {
    }
    
@enduml

@startuml









skinparam backgroundColor #333333






skinparam  {
    defaultFontName   "Open Sans,Avenir,Nunito,Arial,Helvetica,SansSerif"
    defaultFontSize   12
    defaultTextAlignment left
    shadowing false
    RoundCorner 10
    TitleFontSize 18
}

skinparam defaultFontName       "Open Sans,Avenir,Nunito,Arial,Helvetica,SansSerif"
skinparam defaultFontSize       12
skinparam dpi                   100
skinparam shadowing             false
skinparam roundcorner           16
skinparam ParticipantPadding    40
skinparam BoxPadding            40
skinparam Padding               3
skinparam ArrowColor            #545454
skinparam stereotype {
    CBackgroundColor #0066cf
    CBorderColor #0086ef
    ABackgroundColor #C8Ac00
    ABorderColor #D8Bc00
    IBackgroundColor #008400
    IBorderColor #239c23
    EBackgroundColor #cf6300
    EBorderColor #ef8300
    NBackgroundColor #3380b9
    NBorderColor #004d86
}
skinparam title {
	FontColor	                 #c0c0c0
 	BorderColor                  #545454
	FontSize	    	         20
	BorderRoundCorner            16
	BorderThickness 	         1
	BackgroundColor              #48494b
}


skinparam legend {
	BackgroundColor #303030
	BorderColor #404040
	FontColor #a0a0a0
}

	skinparam swimlane {
	BorderColor #5e5e5e
	BorderThickness 2
	TitleBackgroundColor  #6d6d6d-#484848
	TitleFontColor #303030
}

skinparam activity {
		FontColor #C8Ac00
	BorderColor #333333
	BackgroundColor #333333-#333333
	BarColor #00FF00
	StartColor #0060a8
	EndColor #0060a8
	DiamondBackgroundColor #6d6d6d-#3a3a3a
  	DiamondBorderColor #3a3a3a
  	DiamondFontColor #fefefe
}


skinparam participant {
		FontColor #C8Ac00
	BorderColor #333333
	BackgroundColor #333333-#333333
	ParticipantBorderThickness 2
}


skinparam actor {
		FontColor #C8Ac00
	BorderColor #333333
	BackgroundColor #333333-#333333
}


skinparam arrow {
	Thickness 1.5
	Color #545454
	FontColor #a0a0a0
    FontStyle bold
    MessageAlignment center
}



skinparam sequence {
	BorderColor #303030
	TitleFontColor #303030
	BackgroundColor #333333
	StartColor #303030
	EndColor #303030
	BoxBackgroundColor #333333
	BoxBorderColor #484848
	BoxFontColor #484848
	LifeLineBorderColor #484848
	LifeLineBorderThickness 2
	LifeLineBackgroundColor #3a3a3a
	GroupBorderColor #484848
	GroupFontColor #484848
	GroupHeaderFontColor #0060a8
	GroupBackgroundColor #484848
	GroupHeaderBackgroundColor #333333
	DividerBackgroundColor #484848
    DividerBorderColor #484848
    DividerBorderThickness 2
    DividerFontColor #D8Bc00
	ReferenceBackgroundColor #333333
	ReferenceBorderColor #484848
	ReferenceFontColor #fefefe
	ReferenceHeaderBackgroundColor #484848
}


skinparam partition {
	BorderColor #303030
	FontColor #333333
	BackgroundColor #333333
}


skinparam collections {
		FontColor #C8Ac00
	BorderColor #333333
	BackgroundColor #333333-#333333
}


skinparam control {
		FontColor #C8Ac00
	BorderColor #333333
	BackgroundColor #333333-#333333
}


skinparam entity {
		FontColor #C8Ac00
	BorderColor #333333
	BackgroundColor #333333-#333333
}


skinparam boundary {
		FontColor #C8Ac00
	BorderColor #333333
	BackgroundColor #333333-#333333
}


skinparam agent {
	BackgroundColor #ff8000
	BorderColor #ff9933
	FontColor #484848
}


skinparam note {
	BorderThickness 1
	BackgroundColor #1b1b1a
	BorderColor #5e5e5e
	FontSize 11
	FontColor #a0a0a0
}


skinparam artifact {
	BorderThickness 10
	BorderColor #5e5e5e
	BackgroundColor #1b1b1a
	FontColor #D8Bc00
}


skinparam component {
		FontColor #C8Ac00
	BorderColor #333333
	BackgroundColor #333333-#333333
}


skinparam interface {
	BackgroundColor  #008400
	BorderColor  #007F00
	FontColor #484848
}


skinparam storage {
	BackgroundColor #ff8000
  	BorderColor #cc6600
	FontColor #222222
}


skinparam node {
	BackgroundColor #333333
	BorderColor #333333
	FontColor #C8Ac00
}


skinparam cloud {
	BackgroundColor #484848-black
	BorderColor #484848
	FontColor #D8Bc00
}


skinparam database {
		FontColor #C8Ac00
	BorderColor #333333
	BackgroundColor #333333-#333333
	BackgroundColor  #333333
}


skinparam class {
		FontColor #C8Ac00
	BorderColor #333333
	BackgroundColor #333333-#333333
	HeaderBackgroundColor #1b1b1a
    BackgroundColor #282828
    BorderColor #5e5e5e
 	StereotypeFontColor #a0a0a0
    StereotypeFontStyle bold
	BorderThickness 1
	AttributeFontColor #D8Bc00
	AttributeFontSize 11
    FontColor #D8Bc00
    FontStyle bold
}


skinparam object {
		FontColor #C8Ac00
	BorderColor #333333
	BackgroundColor #333333-#333333
	StereotypeFontColor #484848
	BorderThickness 1
	AttributeFontColor #fefefe
	AttributeFontSize 11
}


skinparam usecase {
		FontColor #C8Ac00
	BorderColor #333333
	BackgroundColor #333333-#333333
	BorderThickness 2
	StereotypeFontColor #303030
}


skinparam rectangle {
		FontColor #C8Ac00
	BorderColor #333333
	BackgroundColor #333333-#333333
	BackgroundColor #333333
	BorderThickness 2
	StereotypeFontColor #303030
}


skinparam package {
		FontColor #C8Ac00
	BorderColor #333333
	BackgroundColor #333333-#333333
	BackgroundColor #333333
	BorderThickness 2
}


skinparam folder {
	BackgroundColor #6d6d6d
  	BorderColor #ff8000
	FontColor #ff8000
	BorderThickness 2
}


skinparam frame {
	BackgroundColor #6d6d6d
  	BorderColor #0060a8
	FontColor #0060a8
	BorderThickness 2
}


skinparam state {
		FontColor #C8Ac00
	BorderColor #333333
	BackgroundColor #333333-#333333
	StartColor #0060a8
	EndColor #0060a8
	AttributeFontColor #fefefe
	AttributeFontSize 11
}


skinparam queue {
		FontColor #C8Ac00
	BorderColor #333333
	BackgroundColor #333333-#333333
}


skinparam card {
	BackgroundColor #0060a8
	BorderColor #004d86
	FontColor $INFO_TEXT
}


skinparam file {
	BackgroundColor #6d6d6d-#484848
	BorderColor #0060a8
	FontColor #fefefe
}


skinparam stack {
		FontColor #C8Ac00
	BorderColor #333333
	BackgroundColor #333333-#333333
}

    
    title "org.apache.wicket.devutils.pagestore.browser"
    
    interface Comparator
    
    SortableDataProvider <|- - PersistedPagesProvider
    class PersistedPagesProvider
    {
    }
    
    GenericPanel <|- - PersistedPanel
    class PersistedPanel
    {
        - -(constructors)- -
        +PersistedPanel(String, IModel<IPersistentPageStore>)
    }
    
    LoadableDetachableModel <|- - SessionIdentifiersModel
    class SessionIdentifiersModel
    {
        - -(constructors)- -
        +SessionIdentifiersModel(IModel<IPersistentPageStore>)
    }
    
    Comparator <|- - PersistedPagesProvider.SortComparator
    class PersistedPagesProvider.SortComparator
    {
    }
    
@enduml

PlantUML version 1.2021.01(Tue Feb 02 00:55:08 MST 2021)
(GPL source distribution)
Java Runtime: Java(TM) SE Runtime Environment
JVM: Java HotSpot(TM) 64-Bit Server VM
Default Encoding: UTF-8
Language: en
Country: US
--></g></svg>