<?xml version="1.0" encoding="UTF-8" standalone="no"?><svg xmlns="http://www.w3.org/2000/svg" xmlns:xlink="http://www.w3.org/1999/xlink" contentScriptType="application/ecmascript" contentStyleType="text/css" height="282.2917px" preserveAspectRatio="none" style="width:786px;height:282px;background:#333333;" version="1.1" viewBox="0 0 786 282" width="786.4583px" zoomAndPan="magnify"><defs/><g><rect fill="#48494B" height="41.2028" rx="8.3333" ry="8.3333" style="stroke:#545454;stroke-width:1.0416666666666667;" width="380.2083" x="196.0938" y="2.0833"/><text fill="#C0C0C0" font-family="Open Sans,Avenir,Nunito,Arial,Helvetica,SansSerif" font-size="20.8333" lengthAdjust="spacing" textLength="357.2917" x="207.5521" y="30.5583">org.apache.wicket.devutils.stateless</text><!--MD5=[f9621b31bf3df9a36df7c5ac46209413]
class IComponentOnBeforeRenderListener--><rect codeLine="6" fill="#282828" height="48.055" id="IComponentOnBeforeRenderListener" rx="8.3333" ry="8.3333" style="stroke:#5E5E5E;stroke-width:1.0416666666666667;" width="275" x="7.2917" y="53.7028"/><rect fill="#1B1B1A" height="31.3883" rx="8.3333" ry="8.3333" style="stroke:#1B1B1A;stroke-width:1.0416666666666667;" width="275" x="7.2917" y="53.7028"/><rect fill="#1B1B1A" height="8.3333" style="stroke:#1B1B1A;stroke-width:1.0416666666666667;" width="275" x="7.2917" y="76.7578"/><rect codeLine="6" fill="none" height="48.055" id="IComponentOnBeforeRenderListener" rx="8.3333" ry="8.3333" style="stroke:#5E5E5E;stroke-width:1.0416666666666667;" width="275" x="7.2917" y="53.7028"/><ellipse cx="21.875" cy="69.397" fill="#008400" rx="10.4167" ry="10.4167" style="stroke:#239C23;stroke-width:1.0416666666666667;"/><path d="M19.279,66.5588 L19.279,64.9719 L24.705,64.9719 L24.705,66.5588 L22.8923,66.5588 L22.8923,72.4976 L24.705,72.4976 L24.705,74.0845 L19.279,74.0845 L19.279,72.4976 L21.0917,72.4976 L21.0917,66.5588 Z " fill="#000000"/><text fill="#D8BC00" font-family="Open Sans,Avenir,Nunito,Arial,Helvetica,SansSerif" font-size="12.5" font-style="italic" font-weight="bold" lengthAdjust="spacing" textLength="237.5" x="38.5417" y="74.1211">IComponentOnBeforeRenderListener</text><line style="stroke:#5E5E5E;stroke-width:1.0416666666666667;" x1="8.3333" x2="281.25" y1="85.0911" y2="85.0911"/><line style="stroke:#5E5E5E;stroke-width:1.0416666666666667;" x1="8.3333" x2="281.25" y1="93.4245" y2="93.4245"/><!--MD5=[45b2bb481767de2342fc072aa9ebeed7]
class WicketRuntimeException--><rect fill="#282828" height="48.055" id="WicketRuntimeException" rx="8.3333" ry="8.3333" style="stroke:#5E5E5E;stroke-width:1.0416666666666667;" width="196.875" x="374.4792" y="53.7028"/><rect fill="#1B1B1A" height="31.3883" rx="8.3333" ry="8.3333" style="stroke:#1B1B1A;stroke-width:1.0416666666666667;" width="196.875" x="374.4792" y="53.7028"/><rect fill="#1B1B1A" height="8.3333" style="stroke:#1B1B1A;stroke-width:1.0416666666666667;" width="196.875" x="374.4792" y="76.7578"/><rect fill="none" height="48.055" id="WicketRuntimeException" rx="8.3333" ry="8.3333" style="stroke:#5E5E5E;stroke-width:1.0416666666666667;" width="196.875" x="374.4792" y="53.7028"/><ellipse cx="389.0625" cy="69.397" fill="#0066CF" rx="10.4167" ry="10.4167" style="stroke:#0086EF;stroke-width:1.0416666666666667;"/><path d="M390.9729,73.822 Q390.5457,74.0417 390.0757,74.1516 Q389.6057,74.2615 389.0869,74.2615 Q387.2437,74.2615 386.2732,73.0469 Q385.3027,71.8323 385.3027,69.5374 Q385.3027,67.2363 386.2732,66.0217 Q387.2437,64.8071 389.0869,64.8071 Q389.6057,64.8071 390.0818,64.917 Q390.5579,65.0269 390.9729,65.2466 L390.9729,67.2485 Q390.509,66.8213 390.0726,66.6229 Q389.6362,66.4246 389.1724,66.4246 Q388.1836,66.4246 387.6801,67.2089 Q387.1765,67.9932 387.1765,69.5374 Q387.1765,71.0754 387.6801,71.8597 Q388.1836,72.644 389.1724,72.644 Q389.6362,72.644 390.0726,72.4457 Q390.509,72.2473 390.9729,71.8201 Z " fill="#000000"/><text fill="#D8BC00" font-family="Open Sans,Avenir,Nunito,Arial,Helvetica,SansSerif" font-size="12.5" font-weight="bold" lengthAdjust="spacing" textLength="159.375" x="405.7292" y="74.1211">WicketRuntimeException</text><line style="stroke:#5E5E5E;stroke-width:1.0416666666666667;" x1="375.5208" x2="570.3125" y1="85.0911" y2="85.0911"/><line style="stroke:#5E5E5E;stroke-width:1.0416666666666667;" x1="375.5208" x2="570.3125" y1="93.4245" y2="93.4245"/><!--MD5=[6a4b954d383bfa182b0a67258c382b6c]
class StatelessCheckFailureException--><rect codeLine="9" fill="#282828" height="111.4563" id="StatelessCheckFailureException" rx="8.3333" ry="8.3333" style="stroke:#5E5E5E;stroke-width:1.0416666666666667;" width="321.875" x="311.9792" y="164.1195"/><rect fill="#1B1B1A" height="31.3883" rx="8.3333" ry="8.3333" style="stroke:#1B1B1A;stroke-width:1.0416666666666667;" width="321.875" x="311.9792" y="164.1195"/><rect fill="#1B1B1A" height="8.3333" style="stroke:#1B1B1A;stroke-width:1.0416666666666667;" width="321.875" x="311.9792" y="187.1745"/><rect codeLine="9" fill="none" height="111.4563" id="StatelessCheckFailureException" rx="8.3333" ry="8.3333" style="stroke:#5E5E5E;stroke-width:1.0416666666666667;" width="321.875" x="311.9792" y="164.1195"/><ellipse cx="363.5417" cy="179.8136" fill="#0066CF" rx="10.4167" ry="10.4167" style="stroke:#0086EF;stroke-width:1.0416666666666667;"/><path d="M365.4521,184.2387 Q365.0248,184.4584 364.5549,184.5683 Q364.0849,184.6781 363.5661,184.6781 Q361.7228,184.6781 360.7524,183.4635 Q359.7819,182.2489 359.7819,179.954 Q359.7819,177.653 360.7524,176.4384 Q361.7228,175.2238 363.5661,175.2238 Q364.0849,175.2238 364.561,175.3337 Q365.037,175.4435 365.4521,175.6632 L365.4521,177.6652 Q364.9882,177.238 364.5518,177.0396 Q364.1154,176.8412 363.6515,176.8412 Q362.6628,176.8412 362.1592,177.6255 Q361.6557,178.4098 361.6557,179.954 Q361.6557,181.4921 362.1592,182.2764 Q362.6628,183.0607 363.6515,183.0607 Q364.1154,183.0607 364.5518,182.8623 Q364.9882,182.664 365.4521,182.2367 Z " fill="#000000"/><text fill="#D8BC00" font-family="Open Sans,Avenir,Nunito,Arial,Helvetica,SansSerif" font-size="12.5" font-weight="bold" lengthAdjust="spacing" textLength="204.1667" x="386.4583" y="184.5378">StatelessCheckFailureException</text><line style="stroke:#5E5E5E;stroke-width:1.5625;" x1="313.0208" x2="632.8125" y1="195.5078" y2="195.5078"/><ellipse cx="323.4375" cy="230.8777" fill="#84BE84" rx="3.125" ry="3.125" style="stroke:#038048;stroke-width:1.0416666666666667;"/><text fill="#D8BC00" font-family="Open Sans,Avenir,Nunito,Arial,Helvetica,SansSerif" font-size="11.4583" lengthAdjust="spacing" textLength="289.5833" x="334.8958" y="237.7889">StatelessCheckFailureException(Component, String)</text><line style="stroke:#5E5E5E;stroke-width:1.0416666666666667;" x1="313.0208" x2="429.1667" y1="213.7136" y2="213.7136"/><text fill="#D8BC00" font-family="Open Sans,Avenir,Nunito,Arial,Helvetica,SansSerif" font-size="11.4583" lengthAdjust="spacing" textLength="81.25" x="432.2917" y="217.5232">(constructors)</text><line style="stroke:#5E5E5E;stroke-width:1.0416666666666667;" x1="516.6667" x2="632.8125" y1="213.7136" y2="213.7136"/><line style="stroke:#5E5E5E;stroke-width:1.0416666666666667;" x1="313.0208" x2="632.8125" y1="247.4976" y2="247.4976"/><ellipse cx="323.4375" cy="258.9559" fill="#84BE84" rx="3.125" ry="3.125" style="stroke:#038048;stroke-width:1.0416666666666667;"/><text fill="#D8BC00" font-family="Open Sans,Avenir,Nunito,Arial,Helvetica,SansSerif" font-size="11.4583" lengthAdjust="spacing" textLength="160.4167" x="334.8958" y="265.8671">Component getComponent()</text><!--MD5=[4cf13c60924fbce8f3725685a79e6c45]
class StatelessChecker--><rect codeLine="18" fill="#282828" height="111.4563" id="StatelessChecker" rx="8.3333" ry="8.3333" style="stroke:#5E5E5E;stroke-width:1.0416666666666667;" width="260.4167" x="14.5833" y="164.1195"/><rect fill="#1B1B1A" height="31.3883" rx="8.3333" ry="8.3333" style="stroke:#1B1B1A;stroke-width:1.0416666666666667;" width="260.4167" x="14.5833" y="164.1195"/><rect fill="#1B1B1A" height="8.3333" style="stroke:#1B1B1A;stroke-width:1.0416666666666667;" width="260.4167" x="14.5833" y="187.1745"/><rect codeLine="18" fill="none" height="111.4563" id="StatelessChecker" rx="8.3333" ry="8.3333" style="stroke:#5E5E5E;stroke-width:1.0416666666666667;" width="260.4167" x="14.5833" y="164.1195"/><ellipse cx="82.2917" cy="179.8136" fill="#0066CF" rx="10.4167" ry="10.4167" style="stroke:#0086EF;stroke-width:1.0416666666666667;"/><path d="M84.2021,184.2387 Q83.7748,184.4584 83.3049,184.5683 Q82.8349,184.6781 82.3161,184.6781 Q80.4728,184.6781 79.5024,183.4635 Q78.5319,182.2489 78.5319,179.954 Q78.5319,177.653 79.5024,176.4384 Q80.4728,175.2238 82.3161,175.2238 Q82.8349,175.2238 83.311,175.3337 Q83.787,175.4435 84.2021,175.6632 L84.2021,177.6652 Q83.7382,177.238 83.3018,177.0396 Q82.8654,176.8412 82.4015,176.8412 Q81.4128,176.8412 80.9092,177.6255 Q80.4057,178.4098 80.4057,179.954 Q80.4057,181.4921 80.9092,182.2764 Q81.4128,183.0607 82.4015,183.0607 Q82.8654,183.0607 83.3018,182.8623 Q83.7382,182.664 84.2021,182.2367 Z " fill="#000000"/><text fill="#D8BC00" font-family="Open Sans,Avenir,Nunito,Arial,Helvetica,SansSerif" font-size="12.5" font-weight="bold" lengthAdjust="spacing" textLength="110.4167" x="105.2083" y="184.5378">StatelessChecker</text><line style="stroke:#5E5E5E;stroke-width:1.5625;" x1="15.625" x2="273.9583" y1="195.5078" y2="195.5078"/><line style="stroke:#5E5E5E;stroke-width:1.0416666666666667;" x1="15.625" x2="273.9583" y1="203.8411" y2="203.8411"/><polygon fill="#FFFF44" points="26.0417,210.0911,30.2083,214.2578,26.0417,218.4245,21.875,214.2578" style="stroke:#B38D22;stroke-width:1.0416666666666667;"/><text fill="#D8BC00" font-family="Open Sans,Avenir,Nunito,Arial,Helvetica,SansSerif" font-size="11.4583" lengthAdjust="spacing" textLength="184.375" x="37.5" y="222.2107">boolean mustCheck(Component)</text><polygon fill="#FFFF44" points="26.0417,253.7476,30.2083,257.9142,26.0417,262.0809,21.875,257.9142" style="stroke:#B38D22;stroke-width:1.0416666666666667;"/><text fill="#D8BC00" font-family="Open Sans,Avenir,Nunito,Arial,Helvetica,SansSerif" font-size="11.4583" lengthAdjust="spacing" textLength="228.125" x="37.5" y="265.8671">void fail(StatelessCheckFailureException)</text><line style="stroke:#5E5E5E;stroke-width:1.0416666666666667;" x1="15.625" x2="120.3125" y1="241.7918" y2="241.7918"/><text fill="#D8BC00" font-family="Open Sans,Avenir,Nunito,Arial,Helvetica,SansSerif" font-size="11.4583" lengthAdjust="spacing" textLength="42.7083" x="123.4375" y="245.6014">(status)</text><line style="stroke:#5E5E5E;stroke-width:1.0416666666666667;" x1="169.2708" x2="273.9583" y1="241.7918" y2="241.7918"/><!--MD5=[27d590db55dda59f10ee04fb4d3ebc20]
class StatelessComponent--><rect codeLine="26" fill="#282828" height="48.055" id="StatelessComponent" rx="8.3333" ry="8.3333" style="stroke:#5E5E5E;stroke-width:1.0416666666666667;" width="171.875" x="607.8125" y="53.7028"/><rect fill="#1B1B1A" height="31.3883" rx="8.3333" ry="8.3333" style="stroke:#1B1B1A;stroke-width:1.0416666666666667;" width="171.875" x="607.8125" y="53.7028"/><rect fill="#1B1B1A" height="8.3333" style="stroke:#1B1B1A;stroke-width:1.0416666666666667;" width="171.875" x="607.8125" y="76.7578"/><rect codeLine="26" fill="none" height="48.055" id="StatelessComponent" rx="8.3333" ry="8.3333" style="stroke:#5E5E5E;stroke-width:1.0416666666666667;" width="171.875" x="607.8125" y="53.7028"/><ellipse cx="622.3958" cy="69.397" fill="#3380B9" rx="10.4167" ry="10.4167" style="stroke:#004D86;stroke-width:1.0416666666666667;"/><path d="M624.1679,69.456 Q624.1679,68.7663 623.8566,68.3757 Q623.5453,67.985 623.0021,67.985 Q622.4589,67.985 622.1507,68.3757 Q621.8424,68.7663 621.8424,69.456 Q621.8424,70.1518 622.1507,70.5424 Q622.4589,70.933 623.0021,70.933 Q623.5453,70.933 623.8566,70.5424 Q624.1679,70.1518 624.1679,69.456 Z M625.3031,71.9584 L624.1069,71.9584 L624.1069,71.4579 Q623.8749,71.7814 623.5606,71.9309 Q623.2463,72.0805 622.8068,72.0805 Q621.8058,72.0805 621.1924,71.3603 Q620.579,70.6401 620.579,69.456 Q620.579,68.278 621.1894,67.5608 Q621.7997,66.8437 622.8068,66.8437 Q623.2402,66.8437 623.5697,66.9932 Q623.8993,67.1427 624.1069,67.4296 L624.1069,67.1794 Q624.1069,66.3493 623.6521,65.8976 Q623.1974,65.446 622.3551,65.446 Q621.0856,65.446 620.283,66.5629 Q619.4804,67.6799 619.4804,69.4682 Q619.4804,71.342 620.4081,72.4497 Q621.3359,73.5575 622.88,73.5575 Q623.3683,73.5575 623.8261,73.4141 Q624.2839,73.2707 624.705,72.9838 L625.2665,74.058 Q624.7721,74.3937 624.1892,74.5616 Q623.6064,74.7294 622.9411,74.7294 Q620.8049,74.7294 619.5353,73.3073 Q618.2658,71.8852 618.2658,69.4682 Q618.2658,67.1061 619.4071,65.6871 Q620.5485,64.268 622.4284,64.268 Q623.759,64.268 624.531,65.0706 Q625.3031,65.8732 625.3031,67.2587 Z " fill="#000000"/><text fill="#D8BC00" font-family="Open Sans,Avenir,Nunito,Arial,Helvetica,SansSerif" font-size="12.5" font-weight="bold" lengthAdjust="spacing" textLength="134.375" x="639.0625" y="74.1211">StatelessComponent</text><line style="stroke:#5E5E5E;stroke-width:1.0416666666666667;" x1="608.8542" x2="778.6458" y1="85.0911" y2="85.0911"/><line style="stroke:#5E5E5E;stroke-width:1.0416666666666667;" x1="608.8542" x2="778.6458" y1="93.4245" y2="93.4245"/><!--MD5=[253eea16e5510eee278f66bfa321a847]
reverse link WicketRuntimeException to StatelessCheckFailureException--><path codeLine="8" d="M472.9167,122.7028 C472.9167,135.7549 472.9167,150.2028 472.9167,163.859 " fill="none" id="WicketRuntimeException-backto-StatelessCheckFailureException" style="stroke:#545454;stroke-width:1.5625;"/><polygon fill="none" points="465.625,122.6715,472.9167,101.8382,480.2083,122.6715,465.625,122.6715" style="stroke:#545454;stroke-width:1.5625;"/><!--MD5=[748b289599f4fa5bcb94cd0e8b4ae403]
reverse link IComponentOnBeforeRenderListener to StatelessChecker--><path codeLine="17" d="M144.7917,122.7028 C144.7917,135.7549 144.7917,150.2028 144.7917,163.859 " fill="none" id="IComponentOnBeforeRenderListener-backto-StatelessChecker" style="stroke:#545454;stroke-width:1.5625;"/><polygon fill="none" points="137.5,122.6715,144.7917,101.8382,152.0833,122.6715,137.5,122.6715" style="stroke:#545454;stroke-width:1.5625;"/><!--MD5=[96f031e6242f8e08fa1371ed49c51b9b]
@startuml

    !include lexakai.theme
    
    title "org.apache.wicket.devutils.stateless"
    
    interface IComponentOnBeforeRenderListener
    
    WicketRuntimeException <|- - StatelessCheckFailureException
    class StatelessCheckFailureException
    {
        - -(constructors)- -
        +StatelessCheckFailureException(Component, String)
        - -
        +Component getComponent()
    }
    
    IComponentOnBeforeRenderListener <|- - StatelessChecker
    class StatelessChecker
    {
        - -
        #boolean mustCheck(Component)
        - -(status)- -
        #void fail(StatelessCheckFailureException)
    }
    
    annotation StatelessComponent
    
@enduml

@startuml









skinparam backgroundColor #333333






skinparam  {
    defaultFontName   "Open Sans,Avenir,Nunito,Arial,Helvetica,SansSerif"
    defaultFontSize   12
    defaultTextAlignment left
    shadowing false
    RoundCorner 10
    TitleFontSize 18
}

skinparam defaultFontName       "Open Sans,Avenir,Nunito,Arial,Helvetica,SansSerif"
skinparam defaultFontSize       12
skinparam dpi                   100
skinparam shadowing             false
skinparam roundcorner           16
skinparam ParticipantPadding    40
skinparam BoxPadding            40
skinparam Padding               3
skinparam ArrowColor            #545454
skinparam stereotype {
    CBackgroundColor #0066cf
    CBorderColor #0086ef
    ABackgroundColor #C8Ac00
    ABorderColor #D8Bc00
    IBackgroundColor #008400
    IBorderColor #239c23
    EBackgroundColor #cf6300
    EBorderColor #ef8300
    NBackgroundColor #3380b9
    NBorderColor #004d86
}
skinparam title {
	FontColor	                 #c0c0c0
 	BorderColor                  #545454
	FontSize	    	         20
	BorderRoundCorner            16
	BorderThickness 	         1
	BackgroundColor              #48494b
}


skinparam legend {
	BackgroundColor #303030
	BorderColor #404040
	FontColor #a0a0a0
}

	skinparam swimlane {
	BorderColor #5e5e5e
	BorderThickness 2
	TitleBackgroundColor  #6d6d6d-#484848
	TitleFontColor #303030
}

skinparam activity {
		FontColor #C8Ac00
	BorderColor #333333
	BackgroundColor #333333-#333333
	BarColor #00FF00
	StartColor #0060a8
	EndColor #0060a8
	DiamondBackgroundColor #6d6d6d-#3a3a3a
  	DiamondBorderColor #3a3a3a
  	DiamondFontColor #fefefe
}


skinparam participant {
		FontColor #C8Ac00
	BorderColor #333333
	BackgroundColor #333333-#333333
	ParticipantBorderThickness 2
}


skinparam actor {
		FontColor #C8Ac00
	BorderColor #333333
	BackgroundColor #333333-#333333
}


skinparam arrow {
	Thickness 1.5
	Color #545454
	FontColor #a0a0a0
    FontStyle bold
    MessageAlignment center
}



skinparam sequence {
	BorderColor #303030
	TitleFontColor #303030
	BackgroundColor #333333
	StartColor #303030
	EndColor #303030
	BoxBackgroundColor #333333
	BoxBorderColor #484848
	BoxFontColor #484848
	LifeLineBorderColor #484848
	LifeLineBorderThickness 2
	LifeLineBackgroundColor #3a3a3a
	GroupBorderColor #484848
	GroupFontColor #484848
	GroupHeaderFontColor #0060a8
	GroupBackgroundColor #484848
	GroupHeaderBackgroundColor #333333
	DividerBackgroundColor #484848
    DividerBorderColor #484848
    DividerBorderThickness 2
    DividerFontColor #D8Bc00
	ReferenceBackgroundColor #333333
	ReferenceBorderColor #484848
	ReferenceFontColor #fefefe
	ReferenceHeaderBackgroundColor #484848
}


skinparam partition {
	BorderColor #303030
	FontColor #333333
	BackgroundColor #333333
}


skinparam collections {
		FontColor #C8Ac00
	BorderColor #333333
	BackgroundColor #333333-#333333
}


skinparam control {
		FontColor #C8Ac00
	BorderColor #333333
	BackgroundColor #333333-#333333
}


skinparam entity {
		FontColor #C8Ac00
	BorderColor #333333
	BackgroundColor #333333-#333333
}


skinparam boundary {
		FontColor #C8Ac00
	BorderColor #333333
	BackgroundColor #333333-#333333
}


skinparam agent {
	BackgroundColor #ff8000
	BorderColor #ff9933
	FontColor #484848
}


skinparam note {
	BorderThickness 1
	BackgroundColor #1b1b1a
	BorderColor #5e5e5e
	FontSize 11
	FontColor #a0a0a0
}


skinparam artifact {
	BorderThickness 10
	BorderColor #5e5e5e
	BackgroundColor #1b1b1a
	FontColor #D8Bc00
}


skinparam component {
		FontColor #C8Ac00
	BorderColor #333333
	BackgroundColor #333333-#333333
}


skinparam interface {
	BackgroundColor  #008400
	BorderColor  #007F00
	FontColor #484848
}


skinparam storage {
	BackgroundColor #ff8000
  	BorderColor #cc6600
	FontColor #222222
}


skinparam node {
	BackgroundColor #333333
	BorderColor #333333
	FontColor #C8Ac00
}


skinparam cloud {
	BackgroundColor #484848-black
	BorderColor #484848
	FontColor #D8Bc00
}


skinparam database {
		FontColor #C8Ac00
	BorderColor #333333
	BackgroundColor #333333-#333333
	BackgroundColor  #333333
}


skinparam class {
		FontColor #C8Ac00
	BorderColor #333333
	BackgroundColor #333333-#333333
	HeaderBackgroundColor #1b1b1a
    BackgroundColor #282828
    BorderColor #5e5e5e
 	StereotypeFontColor #a0a0a0
    StereotypeFontStyle bold
	BorderThickness 1
	AttributeFontColor #D8Bc00
	AttributeFontSize 11
    FontColor #D8Bc00
    FontStyle bold
}


skinparam object {
		FontColor #C8Ac00
	BorderColor #333333
	BackgroundColor #333333-#333333
	StereotypeFontColor #484848
	BorderThickness 1
	AttributeFontColor #fefefe
	AttributeFontSize 11
}


skinparam usecase {
		FontColor #C8Ac00
	BorderColor #333333
	BackgroundColor #333333-#333333
	BorderThickness 2
	StereotypeFontColor #303030
}


skinparam rectangle {
		FontColor #C8Ac00
	BorderColor #333333
	BackgroundColor #333333-#333333
	BackgroundColor #333333
	BorderThickness 2
	StereotypeFontColor #303030
}


skinparam package {
		FontColor #C8Ac00
	BorderColor #333333
	BackgroundColor #333333-#333333
	BackgroundColor #333333
	BorderThickness 2
}


skinparam folder {
	BackgroundColor #6d6d6d
  	BorderColor #ff8000
	FontColor #ff8000
	BorderThickness 2
}


skinparam frame {
	BackgroundColor #6d6d6d
  	BorderColor #0060a8
	FontColor #0060a8
	BorderThickness 2
}


skinparam state {
		FontColor #C8Ac00
	BorderColor #333333
	BackgroundColor #333333-#333333
	StartColor #0060a8
	EndColor #0060a8
	AttributeFontColor #fefefe
	AttributeFontSize 11
}


skinparam queue {
		FontColor #C8Ac00
	BorderColor #333333
	BackgroundColor #333333-#333333
}


skinparam card {
	BackgroundColor #0060a8
	BorderColor #004d86
	FontColor $INFO_TEXT
}


skinparam file {
	BackgroundColor #6d6d6d-#484848
	BorderColor #0060a8
	FontColor #fefefe
}


skinparam stack {
		FontColor #C8Ac00
	BorderColor #333333
	BackgroundColor #333333-#333333
}

    
    title "org.apache.wicket.devutils.stateless"
    
    interface IComponentOnBeforeRenderListener
    
    WicketRuntimeException <|- - StatelessCheckFailureException
    class StatelessCheckFailureException
    {
        - -(constructors)- -
        +StatelessCheckFailureException(Component, String)
        - -
        +Component getComponent()
    }
    
    IComponentOnBeforeRenderListener <|- - StatelessChecker
    class StatelessChecker
    {
        - -
        #boolean mustCheck(Component)
        - -(status)- -
        #void fail(StatelessCheckFailureException)
    }
    
    annotation StatelessComponent
    
@enduml

PlantUML version 1.2021.01(Tue Feb 02 00:55:08 MST 2021)
(GPL source distribution)
Java Runtime: Java(TM) SE Runtime Environment
JVM: Java HotSpot(TM) 64-Bit Server VM
Default Encoding: UTF-8
Language: en
Country: US
--></g></svg>