<?xml version="1.0" encoding="utf-8"?>
<svg viewBox="0 0 500 500" xmlns="http://www.w3.org/2000/svg" xmlns:bx="https://boxy-svg.com">
  <g transform="matrix(0.74369, 0, 0, 0.74369, 64.423843, -7.88617)" style="">
    <rect x="151.331" y="24.382" width="197.968" height="154.624" style="fill: rgb(66, 148, 247); stroke: rgb(216, 188, 0); stroke-width: 16px;" rx="11.534" ry="11.534"/>
    <rect x="159.436" y="28.586" width="182.299" height="36.631" style="fill: rgb(42, 93, 156);" rx="4.149" ry="4.149"/>
    <line style="fill: rgb(66, 148, 247); stroke: rgb(216, 188, 0); stroke-width: 16px;" x1="171.257" y1="46.475" x2="297.719" y2="46.475"/>
    <line style="fill: rgb(66, 148, 247); stroke: rgb(216, 188, 0); stroke-width: 16px;" x1="171.088" y1="86.985" x2="279.686" y2="86.985"/>
    <line style="fill: rgb(66, 148, 247); stroke: rgb(216, 188, 0); stroke-width: 16px;" x1="171.088" y1="115.302" x2="297.55" y2="115.302"/>
    <line style="fill: rgb(66, 148, 247); stroke: rgb(216, 188, 0); stroke-width: 16px;" x1="171.345" y1="144.765" x2="269.872" y2="144.765"/>
  </g>
  <path d="M 125.728 98.169 H 164.267 L 164.267 85.99 L 180.615 102.23 L 164.267 118.469 L 164.267 106.29 H 125.728 V 98.169 Z" style="fill: rgb(128, 128, 128); stroke: rgb(160, 160, 160);" transform="matrix(-0.007235, 0.999974, -0.999974, -0.007235, 352.199951, 6.004496)" bx:shape="arrow 125.728 85.99 54.887 32.479 8.121 16.348 0 1@304d4197"/>
  <g transform="matrix(0.74369, 0, 0, 0.74369, 64.423843, 173.757141)" style="">
    <rect x="151.331" y="24.382" width="197.968" height="154.624" style="fill: rgb(66, 148, 247); stroke: rgb(216, 188, 0); stroke-width: 16px;" rx="11.534" ry="11.534"/>
    <rect x="159.436" y="28.586" width="182.299" height="36.631" style="fill: rgb(42, 93, 156);" rx="4.149" ry="4.149"/>
    <line style="fill: rgb(66, 148, 247); stroke: rgb(216, 188, 0); stroke-width: 16px;" x1="171.257" y1="46.475" x2="297.719" y2="46.475"/>
    <line style="fill: rgb(66, 148, 247); stroke: rgb(216, 188, 0); stroke-width: 16px;" x1="171.088" y1="86.985" x2="279.686" y2="86.985"/>
    <line style="fill: rgb(66, 148, 247); stroke: rgb(216, 188, 0); stroke-width: 16px;" x1="171.088" y1="115.302" x2="297.55" y2="115.302"/>
    <line style="fill: rgb(66, 148, 247); stroke: rgb(216, 188, 0); stroke-width: 16px;" x1="171.345" y1="144.765" x2="269.872" y2="144.765"/>
  </g>
  <g transform="matrix(0.74369, 0, 0, 0.74369, 64.423843, 356.62854)" style="">
    <rect x="151.331" y="24.382" width="197.968" height="154.624" style="fill: rgb(66, 148, 247); stroke: rgb(216, 188, 0); stroke-width: 16px;" rx="11.534" ry="11.534"/>
    <rect x="159.436" y="28.586" width="182.299" height="36.631" style="fill: rgb(42, 93, 156);" rx="4.149" ry="4.149"/>
    <line style="fill: rgb(66, 148, 247); stroke: rgb(216, 188, 0); stroke-width: 16px;" x1="171.257" y1="46.475" x2="297.719" y2="46.475"/>
    <line style="fill: rgb(66, 148, 247); stroke: rgb(216, 188, 0); stroke-width: 16px;" x1="171.088" y1="86.985" x2="279.686" y2="86.985"/>
    <line style="fill: rgb(66, 148, 247); stroke: rgb(216, 188, 0); stroke-width: 16px;" x1="171.088" y1="115.302" x2="297.55" y2="115.302"/>
    <line style="fill: rgb(66, 148, 247); stroke: rgb(216, 188, 0); stroke-width: 16px;" x1="171.345" y1="144.765" x2="269.872" y2="144.765"/>
  </g>
  <path d="M 125.728 98.169 H 164.267 L 164.267 85.99 L 180.615 102.23 L 164.267 118.469 L 164.267 106.29 H 125.728 V 98.169 Z" style="fill: rgb(128, 128, 128); stroke: rgb(160, 160, 160);" transform="matrix(-0.007235, 0.999974, -0.999974, -0.007235, 349.170074, 188.459747)" bx:shape="arrow 125.728 85.99 54.887 32.479 8.121 16.348 0 1@304d4197"/>
</svg>