<?xml version="1.0" encoding="UTF-8" standalone="no"?><svg xmlns="http://www.w3.org/2000/svg" xmlns:xlink="http://www.w3.org/1999/xlink" contentScriptType="application/ecmascript" contentStyleType="text/css" height="741.6667px" preserveAspectRatio="none" style="width:526px;height:741px;background:#333333;" version="1.1" viewBox="0 0 526 741" width="526.0417px" zoomAndPan="magnify"><defs/><g><rect fill="#48494B" height="41.2028" rx="8.3333" ry="8.3333" style="stroke:#545454;stroke-width:1.0416666666666667;" width="348.9583" x="81.25" y="2.0833"/><text fill="#C0C0C0" font-family="Open Sans,Avenir,Nunito,Arial,Helvetica,SansSerif" font-size="20.8333" lengthAdjust="spacing" textLength="326.0417" x="92.7083" y="30.5583">org.apache.wicket.util.diff.myers</text><!--MD5=[9929af184822a5b62e43db6f3b471917]
class DiffAlgorithm--><rect codeLine="6" fill="#282828" height="48.055" id="DiffAlgorithm" rx="8.3333" ry="8.3333" style="stroke:#5E5E5E;stroke-width:1.0416666666666667;" width="128.125" x="270.8333" y="53.7028"/><rect fill="#1B1B1A" height="31.3883" rx="8.3333" ry="8.3333" style="stroke:#1B1B1A;stroke-width:1.0416666666666667;" width="128.125" x="270.8333" y="53.7028"/><rect fill="#1B1B1A" height="8.3333" style="stroke:#1B1B1A;stroke-width:1.0416666666666667;" width="128.125" x="270.8333" y="76.7578"/><rect codeLine="6" fill="none" height="48.055" id="DiffAlgorithm" rx="8.3333" ry="8.3333" style="stroke:#5E5E5E;stroke-width:1.0416666666666667;" width="128.125" x="270.8333" y="53.7028"/><ellipse cx="285.4167" cy="69.397" fill="#008400" rx="10.4167" ry="10.4167" style="stroke:#239C23;stroke-width:1.0416666666666667;"/><path d="M282.8206,66.5588 L282.8206,64.9719 L288.2467,64.9719 L288.2467,66.5588 L286.4339,66.5588 L286.4339,72.4976 L288.2467,72.4976 L288.2467,74.0845 L282.8206,74.0845 L282.8206,72.4976 L284.6334,72.4976 L284.6334,66.5588 Z " fill="#000000"/><text fill="#D8BC00" font-family="Open Sans,Avenir,Nunito,Arial,Helvetica,SansSerif" font-size="12.5" font-style="italic" font-weight="bold" lengthAdjust="spacing" textLength="90.625" x="302.0833" y="74.1211">DiffAlgorithm</text><line style="stroke:#5E5E5E;stroke-width:1.0416666666666667;" x1="271.875" x2="397.9167" y1="85.0911" y2="85.0911"/><line style="stroke:#5E5E5E;stroke-width:1.0416666666666667;" x1="271.875" x2="397.9167" y1="93.4245" y2="93.4245"/><!--MD5=[bb5ee5dac819e446cf5fc98e8ed96952]
class PathNode--><rect codeLine="27" fill="#282828" height="190.4358" id="PathNode" rx="8.3333" ry="8.3333" style="stroke:#5E5E5E;stroke-width:1.0416666666666667;" width="188.5417" x="111.4583" y="397.4528"/><rect fill="#1B1B1A" height="31.3883" rx="8.3333" ry="8.3333" style="stroke:#1B1B1A;stroke-width:1.0416666666666667;" width="188.5417" x="111.4583" y="397.4528"/><rect fill="#1B1B1A" height="8.3333" style="stroke:#1B1B1A;stroke-width:1.0416666666666667;" width="188.5417" x="111.4583" y="420.5078"/><rect codeLine="27" fill="none" height="190.4358" id="PathNode" rx="8.3333" ry="8.3333" style="stroke:#5E5E5E;stroke-width:1.0416666666666667;" width="188.5417" x="111.4583" y="397.4528"/><ellipse cx="167.7083" cy="413.147" fill="#C8AC00" rx="10.4167" ry="10.4167" style="stroke:#D8BC00;stroke-width:1.0416666666666667;"/><path d="M167.3014,409.849 L166.453,413.5783 L168.1559,413.5783 Z M166.2028,408.2011 L168.4062,408.2011 L170.8659,417.3136 L169.0653,417.3136 L168.5038,415.0614 L166.0929,415.0614 L165.5436,417.3136 L163.7431,417.3136 Z " fill="#000000"/><text fill="#D8BC00" font-family="Open Sans,Avenir,Nunito,Arial,Helvetica,SansSerif" font-size="12.5" font-style="italic" font-weight="bold" lengthAdjust="spacing" textLength="61.4583" x="190.625" y="417.8711">PathNode</text><line style="stroke:#5E5E5E;stroke-width:1.5625;" x1="112.5" x2="298.9583" y1="428.8411" y2="428.8411"/><ellipse cx="122.9167" cy="464.211" fill="#84BE84" rx="3.125" ry="3.125" style="stroke:#038048;stroke-width:1.0416666666666667;"/><text fill="#D8BC00" font-family="Open Sans,Avenir,Nunito,Arial,Helvetica,SansSerif" font-size="11.4583" lengthAdjust="spacing" textLength="156.25" x="134.375" y="471.1222">PathNode(int, int, PathNode)</text><line style="stroke:#5E5E5E;stroke-width:1.0416666666666667;" x1="112.5" x2="161.9792" y1="447.0469" y2="447.0469"/><text fill="#D8BC00" font-family="Open Sans,Avenir,Nunito,Arial,Helvetica,SansSerif" font-size="11.4583" lengthAdjust="spacing" textLength="81.25" x="165.1042" y="450.8565">(constructors)</text><line style="stroke:#5E5E5E;stroke-width:1.0416666666666667;" x1="249.4792" x2="298.9583" y1="447.0469" y2="447.0469"/><ellipse cx="122.9167" cy="507.8674" fill="#84BE84" rx="3.125" ry="3.125" style="stroke:#038048;stroke-width:1.0416666666666667;"/><text fill="#D8BC00" font-family="Open Sans,Avenir,Nunito,Arial,Helvetica,SansSerif" font-size="11.4583" lengthAdjust="spacing" textLength="119.7917" x="134.375" y="514.7786">boolean isBootstrap()</text><ellipse cx="122.9167" cy="527.6123" fill="#84BE84" rx="3.125" ry="3.125" style="stroke:#038048;stroke-width:1.0416666666666667;"/><text fill="#D8BC00" font-family="Open Sans,Avenir,Nunito,Arial,Helvetica,SansSerif" font-size="11.4583" lengthAdjust="spacing" textLength="97.9167" x="134.375" y="534.5235">boolean isSnake()</text><line style="stroke:#5E5E5E;stroke-width:1.0416666666666667;" x1="112.5" x2="179.1667" y1="490.7033" y2="490.7033"/><text fill="#D8BC00" font-family="Open Sans,Avenir,Nunito,Arial,Helvetica,SansSerif" font-size="11.4583" lengthAdjust="spacing" textLength="46.875" x="182.2917" y="494.5129">(checks)</text><line style="stroke:#5E5E5E;stroke-width:1.0416666666666667;" x1="232.2917" x2="298.9583" y1="490.7033" y2="490.7033"/><ellipse cx="122.9167" cy="571.2687" fill="#84BE84" rx="3.125" ry="3.125" style="stroke:#038048;stroke-width:1.0416666666666667;"/><text fill="#D8BC00" font-family="Open Sans,Avenir,Nunito,Arial,Helvetica,SansSerif" font-size="11.4583" lengthAdjust="spacing" textLength="145.8333" x="134.375" y="578.1799">PathNode previousSnake()</text><line style="stroke:#5E5E5E;stroke-width:1.0416666666666667;" x1="112.5" x2="185.9375" y1="554.1046" y2="554.1046"/><text fill="#D8BC00" font-family="Open Sans,Avenir,Nunito,Arial,Helvetica,SansSerif" font-size="11.4583" lengthAdjust="spacing" textLength="33.3333" x="189.0625" y="557.9142">(path)</text><line style="stroke:#5E5E5E;stroke-width:1.0416666666666667;" x1="225.5208" x2="298.9583" y1="554.1046" y2="554.1046"/><!--MD5=[207cf463ffdbe2a264361ea30b40a07b]
class DiffNode--><rect codeLine="9" fill="#282828" height="83.3781" id="DiffNode" rx="8.3333" ry="8.3333" style="stroke:#5E5E5E;stroke-width:1.0416666666666667;" width="184.375" x="7.2917" y="651.6195"/><rect fill="#1B1B1A" height="31.3883" rx="8.3333" ry="8.3333" style="stroke:#1B1B1A;stroke-width:1.0416666666666667;" width="184.375" x="7.2917" y="651.6195"/><rect fill="#1B1B1A" height="8.3333" style="stroke:#1B1B1A;stroke-width:1.0416666666666667;" width="184.375" x="7.2917" y="674.6745"/><rect codeLine="9" fill="none" height="83.3781" id="DiffNode" rx="8.3333" ry="8.3333" style="stroke:#5E5E5E;stroke-width:1.0416666666666667;" width="184.375" x="7.2917" y="651.6195"/><ellipse cx="63.0208" cy="667.3136" fill="#0066CF" rx="10.4167" ry="10.4167" style="stroke:#0086EF;stroke-width:1.0416666666666667;"/><path d="M64.9312,671.7387 Q64.504,671.9584 64.034,672.0683 Q63.564,672.1781 63.0452,672.1781 Q61.202,672.1781 60.2315,670.9635 Q59.2611,669.7489 59.2611,667.454 Q59.2611,665.153 60.2315,663.9384 Q61.202,662.7238 63.0452,662.7238 Q63.564,662.7238 64.0401,662.8337 Q64.5162,662.9435 64.9312,663.1632 L64.9312,665.1652 Q64.4674,664.738 64.031,664.5396 Q63.5946,664.3412 63.1307,664.3412 Q62.1419,664.3412 61.6384,665.1255 Q61.1348,665.9098 61.1348,667.454 Q61.1348,668.9921 61.6384,669.7764 Q62.1419,670.5607 63.1307,670.5607 Q63.5946,670.5607 64.031,670.3623 Q64.4674,670.164 64.9312,669.7367 Z " fill="#000000"/><text fill="#D8BC00" font-family="Open Sans,Avenir,Nunito,Arial,Helvetica,SansSerif" font-size="12.5" font-weight="bold" lengthAdjust="spacing" textLength="58.3333" x="85.9375" y="672.0378">DiffNode</text><line style="stroke:#5E5E5E;stroke-width:1.5625;" x1="8.3333" x2="190.625" y1="683.0078" y2="683.0078"/><ellipse cx="18.75" cy="718.3777" fill="#84BE84" rx="3.125" ry="3.125" style="stroke:#038048;stroke-width:1.0416666666666667;"/><text fill="#D8BC00" font-family="Open Sans,Avenir,Nunito,Arial,Helvetica,SansSerif" font-size="11.4583" lengthAdjust="spacing" textLength="152.0833" x="30.2083" y="725.2889">DiffNode(int, int, PathNode)</text><line style="stroke:#5E5E5E;stroke-width:1.0416666666666667;" x1="8.3333" x2="55.7292" y1="701.2136" y2="701.2136"/><text fill="#D8BC00" font-family="Open Sans,Avenir,Nunito,Arial,Helvetica,SansSerif" font-size="11.4583" lengthAdjust="spacing" textLength="81.25" x="58.8542" y="705.0232">(constructors)</text><line style="stroke:#5E5E5E;stroke-width:1.0416666666666667;" x1="143.2292" x2="190.625" y1="701.2136" y2="701.2136"/><!--MD5=[e4a6bba6ab3d11074f76bc8fc2b6dd0f]
class MyersDiff--><rect codeLine="18" fill="#282828" height="146.7794" id="MyersDiff" rx="8.3333" ry="8.3333" style="stroke:#5E5E5E;stroke-width:1.0416666666666667;" width="367.7083" x="151.0417" y="165.1611"/><rect fill="#1B1B1A" height="31.3883" rx="8.3333" ry="8.3333" style="stroke:#1B1B1A;stroke-width:1.0416666666666667;" width="367.7083" x="151.0417" y="165.1611"/><rect fill="#1B1B1A" height="8.3333" style="stroke:#1B1B1A;stroke-width:1.0416666666666667;" width="367.7083" x="151.0417" y="188.2161"/><rect codeLine="18" fill="none" height="146.7794" id="MyersDiff" rx="8.3333" ry="8.3333" style="stroke:#5E5E5E;stroke-width:1.0416666666666667;" width="367.7083" x="151.0417" y="165.1611"/><ellipse cx="295.8333" cy="180.8553" fill="#0066CF" rx="10.4167" ry="10.4167" style="stroke:#0086EF;stroke-width:1.0416666666666667;"/><path d="M297.7437,185.2804 Q297.3165,185.5001 296.8465,185.6099 Q296.3765,185.7198 295.8577,185.7198 Q294.0145,185.7198 293.044,184.5052 Q292.0736,183.2906 292.0736,180.9957 Q292.0736,178.6947 293.044,177.4801 Q294.0145,176.2655 295.8577,176.2655 Q296.3765,176.2655 296.8526,176.3753 Q297.3287,176.4852 297.7437,176.7049 L297.7437,178.7069 Q297.2799,178.2796 296.8435,178.0813 Q296.4071,177.8829 295.9432,177.8829 Q294.9544,177.8829 294.4509,178.6672 Q293.9473,179.4515 293.9473,180.9957 Q293.9473,182.5338 294.4509,183.3181 Q294.9544,184.1024 295.9432,184.1024 Q296.4071,184.1024 296.8435,183.904 Q297.2799,183.7056 297.7437,183.2784 Z " fill="#000000"/><text fill="#D8BC00" font-family="Open Sans,Avenir,Nunito,Arial,Helvetica,SansSerif" font-size="12.5" font-weight="bold" lengthAdjust="spacing" textLength="63.5417" x="318.75" y="185.5794">MyersDiff</text><line style="stroke:#5E5E5E;stroke-width:1.5625;" x1="152.0833" x2="517.7083" y1="196.5495" y2="196.5495"/><ellipse cx="162.5" cy="231.9194" fill="#84BE84" rx="3.125" ry="3.125" style="stroke:#038048;stroke-width:1.0416666666666667;"/><text fill="#D8BC00" font-family="Open Sans,Avenir,Nunito,Arial,Helvetica,SansSerif" font-size="11.4583" lengthAdjust="spacing" textLength="61.4583" x="173.9583" y="238.8306">MyersDiff()</text><line style="stroke:#5E5E5E;stroke-width:1.0416666666666667;" x1="152.0833" x2="291.1458" y1="214.7552" y2="214.7552"/><text fill="#D8BC00" font-family="Open Sans,Avenir,Nunito,Arial,Helvetica,SansSerif" font-size="11.4583" lengthAdjust="spacing" textLength="81.25" x="294.2708" y="218.5649">(constructors)</text><line style="stroke:#5E5E5E;stroke-width:1.0416666666666667;" x1="378.6458" x2="517.7083" y1="214.7552" y2="214.7552"/><ellipse cx="162.5" cy="275.5758" fill="#84BE84" rx="3.125" ry="3.125" style="stroke:#038048;stroke-width:1.0416666666666667;"/><text fill="#D8BC00" font-family="Open Sans,Avenir,Nunito,Arial,Helvetica,SansSerif" font-size="11.4583" lengthAdjust="spacing" textLength="259.375" x="173.9583" y="282.487">PathNode buildPath(Object[] orig, Object[] rev)</text><ellipse cx="162.5" cy="295.3206" fill="#84BE84" rx="3.125" ry="3.125" style="stroke:#038048;stroke-width:1.0416666666666667;"/><text fill="#D8BC00" font-family="Open Sans,Avenir,Nunito,Arial,Helvetica,SansSerif" font-size="11.4583" lengthAdjust="spacing" textLength="335.4167" x="173.9583" y="302.2319">Revision buildRevision(PathNode, Object[] orig, Object[] rev)</text><line style="stroke:#5E5E5E;stroke-width:1.0416666666666667;" x1="152.0833" x2="304.6875" y1="258.4117" y2="258.4117"/><text fill="#D8BC00" font-family="Open Sans,Avenir,Nunito,Arial,Helvetica,SansSerif" font-size="11.4583" lengthAdjust="spacing" textLength="54.1667" x="307.8125" y="262.2213">(building)</text><line style="stroke:#5E5E5E;stroke-width:1.0416666666666667;" x1="365.1042" x2="517.7083" y1="258.4117" y2="258.4117"/><!--MD5=[d35b0e7bbfe5e793efa0f7f8ce0c9266]
class Revision--><rect fill="#282828" height="48.055" id="Revision" rx="8.3333" ry="8.3333" style="stroke:#5E5E5E;stroke-width:1.0416666666666667;" width="92.7083" x="336.4583" y="468.807"/><rect fill="#1B1B1A" height="31.3883" rx="8.3333" ry="8.3333" style="stroke:#1B1B1A;stroke-width:1.0416666666666667;" width="92.7083" x="336.4583" y="468.807"/><rect fill="#1B1B1A" height="8.3333" style="stroke:#1B1B1A;stroke-width:1.0416666666666667;" width="92.7083" x="336.4583" y="491.862"/><rect fill="none" height="48.055" id="Revision" rx="8.3333" ry="8.3333" style="stroke:#5E5E5E;stroke-width:1.0416666666666667;" width="92.7083" x="336.4583" y="468.807"/><ellipse cx="351.0417" cy="484.5011" fill="#0066CF" rx="10.4167" ry="10.4167" style="stroke:#0086EF;stroke-width:1.0416666666666667;"/><path d="M352.9521,488.9262 Q352.5248,489.1459 352.0549,489.2558 Q351.5849,489.3656 351.0661,489.3656 Q349.2228,489.3656 348.2524,488.151 Q347.2819,486.9364 347.2819,484.6415 Q347.2819,482.3405 348.2524,481.1259 Q349.2228,479.9113 351.0661,479.9113 Q351.5849,479.9113 352.061,480.0212 Q352.537,480.131 352.9521,480.3507 L352.9521,482.3527 Q352.4882,481.9255 352.0518,481.7271 Q351.6154,481.5287 351.1515,481.5287 Q350.1628,481.5287 349.6592,482.313 Q349.1557,483.0973 349.1557,484.6415 Q349.1557,486.1796 349.6592,486.9639 Q350.1628,487.7482 351.1515,487.7482 Q351.6154,487.7482 352.0518,487.5498 Q352.4882,487.3515 352.9521,486.9242 Z " fill="#000000"/><text fill="#D8BC00" font-family="Open Sans,Avenir,Nunito,Arial,Helvetica,SansSerif" font-size="12.5" font-weight="bold" lengthAdjust="spacing" textLength="55.2083" x="367.7083" y="489.2253">Revision</text><line style="stroke:#5E5E5E;stroke-width:1.0416666666666667;" x1="337.5" x2="428.125" y1="500.1953" y2="500.1953"/><line style="stroke:#5E5E5E;stroke-width:1.0416666666666667;" x1="337.5" x2="428.125" y1="508.5286" y2="508.5286"/><!--MD5=[a93eece2759162ba693d9a7677009c27]
class Snake--><rect codeLine="39" fill="#282828" height="83.3781" id="Snake" rx="8.3333" ry="8.3333" style="stroke:#5E5E5E;stroke-width:1.0416666666666667;" width="167.7083" x="228.125" y="651.6195"/><rect fill="#1B1B1A" height="31.3883" rx="8.3333" ry="8.3333" style="stroke:#1B1B1A;stroke-width:1.0416666666666667;" width="167.7083" x="228.125" y="651.6195"/><rect fill="#1B1B1A" height="8.3333" style="stroke:#1B1B1A;stroke-width:1.0416666666666667;" width="167.7083" x="228.125" y="674.6745"/><rect codeLine="39" fill="none" height="83.3781" id="Snake" rx="8.3333" ry="8.3333" style="stroke:#5E5E5E;stroke-width:1.0416666666666667;" width="167.7083" x="228.125" y="651.6195"/><ellipse cx="285.4167" cy="667.3136" fill="#0066CF" rx="10.4167" ry="10.4167" style="stroke:#0086EF;stroke-width:1.0416666666666667;"/><path d="M287.3271,671.7387 Q286.8998,671.9584 286.4299,672.0683 Q285.9599,672.1781 285.4411,672.1781 Q283.5978,672.1781 282.6274,670.9635 Q281.6569,669.7489 281.6569,667.454 Q281.6569,665.153 282.6274,663.9384 Q283.5978,662.7238 285.4411,662.7238 Q285.9599,662.7238 286.436,662.8337 Q286.912,662.9435 287.3271,663.1632 L287.3271,665.1652 Q286.8632,664.738 286.4268,664.5396 Q285.9904,664.3412 285.5265,664.3412 Q284.5378,664.3412 284.0342,665.1255 Q283.5307,665.9098 283.5307,667.454 Q283.5307,668.9921 284.0342,669.7764 Q284.5378,670.5607 285.5265,670.5607 Q285.9904,670.5607 286.4268,670.3623 Q286.8632,670.164 287.3271,669.7367 Z " fill="#000000"/><text fill="#D8BC00" font-family="Open Sans,Avenir,Nunito,Arial,Helvetica,SansSerif" font-size="12.5" font-weight="bold" lengthAdjust="spacing" textLength="38.5417" x="308.3333" y="672.0378">Snake</text><line style="stroke:#5E5E5E;stroke-width:1.5625;" x1="229.1667" x2="394.7917" y1="683.0078" y2="683.0078"/><ellipse cx="239.5833" cy="718.3777" fill="#84BE84" rx="3.125" ry="3.125" style="stroke:#038048;stroke-width:1.0416666666666667;"/><text fill="#D8BC00" font-family="Open Sans,Avenir,Nunito,Arial,Helvetica,SansSerif" font-size="11.4583" lengthAdjust="spacing" textLength="135.4167" x="251.0417" y="725.2889">Snake(int, int, PathNode)</text><line style="stroke:#5E5E5E;stroke-width:1.0416666666666667;" x1="229.1667" x2="268.2292" y1="701.2136" y2="701.2136"/><text fill="#D8BC00" font-family="Open Sans,Avenir,Nunito,Arial,Helvetica,SansSerif" font-size="11.4583" lengthAdjust="spacing" textLength="81.25" x="271.3542" y="705.0232">(constructors)</text><line style="stroke:#5E5E5E;stroke-width:1.0416666666666667;" x1="355.7292" x2="394.7917" y1="701.2136" y2="701.2136"/><!--MD5=[92cda67adb62e0d7d0a04421740b2e99]
reverse link PathNode to DiffNode--><path codeLine="8" d="M145.2292,606.7965 C136.75,622.6299 128.5313,637.9945 121.4479,651.2132 " fill="none" id="PathNode-backto-DiffNode" style="stroke:#545454;stroke-width:1.5625;"/><polygon fill="none" points="138.9896,603.0153,155.25,588.0882,151.8438,609.8903,138.9896,603.0153" style="stroke:#545454;stroke-width:1.5625;"/><!--MD5=[ef8f753fec75d4a2735d1fa7ef3e0faf]
reverse link DiffAlgorithm to MyersDiff--><path codeLine="15" d="M334.8958,123.0674 C334.8958,136.0361 334.8958,150.5778 334.8958,164.8174 " fill="none" id="DiffAlgorithm-backto-MyersDiff" style="stroke:#545454;stroke-width:1.5625;"/><polygon fill="none" points="327.6042,122.6299,334.8958,101.7965,342.1875,122.6299,327.6042,122.6299" style="stroke:#545454;stroke-width:1.5625;"/><!--MD5=[1aded105569f4c5a5a39828aadf10f22]
link MyersDiff to PathNode--><path codeLine="16" d="M297.7083,312.2132 C284.9375,337.1403 270.4167,365.484 256.7396,392.1611 " fill="none" id="MyersDiff-to-PathNode" style="stroke:#545454;stroke-width:1.5625;"/><polygon fill="#545454" points="254.1979,397.1299,262.1835,390.6892,256.5746,392.4954,254.7683,386.8865,254.1979,397.1299" style="stroke:#545454;stroke-width:1.5625;"/><text fill="#A0A0A0" font-family="Open Sans,Avenir,Nunito,Arial,Helvetica,SansSerif" font-size="12.5" font-weight="bold" lengthAdjust="spacing" textLength="45.8333" x="282.8125" y="359.5378">creates</text><!--MD5=[d45cb5c57f7db6f7aa665f9336493c3d]
link MyersDiff to Revision--><path codeLine="17" d="M348.6875,312.2132 C358.2813,362.682 370.5417,427.1715 377.4479,463.5153 " fill="none" id="MyersDiff-to-Revision" style="stroke:#545454;stroke-width:1.5625;"/><polygon fill="#545454" points="378.4271,468.6715,380.7807,458.6859,377.4601,463.5538,372.5922,460.2332,378.4271,468.6715" style="stroke:#545454;stroke-width:1.5625;"/><text fill="#A0A0A0" font-family="Open Sans,Avenir,Nunito,Arial,Helvetica,SansSerif" font-size="12.5" font-weight="bold" lengthAdjust="spacing" textLength="45.8333" x="363.0208" y="359.5378">creates</text><!--MD5=[60912f44c16efd64730d5732f38a3e8d]
reverse link PathNode to Snake--><path codeLine="38" d="M266.2292,606.7965 C274.7083,622.6299 282.9271,637.9945 290.0104,651.2132 " fill="none" id="PathNode-backto-Snake" style="stroke:#545454;stroke-width:1.5625;"/><polygon fill="none" points="259.6146,609.8903,256.2083,588.0882,272.4688,603.0153,259.6146,609.8903" style="stroke:#545454;stroke-width:1.5625;"/><!--MD5=[1d12b56dae6ffb5b516d5afa03027392]
@startuml

    !include lexakai.theme
    
    title "org.apache.wicket.util.diff.myers"
    
    interface DiffAlgorithm
    
    PathNode <|- - DiffNode
    class DiffNode
    {
        - -(constructors)- -
        +DiffNode(int, int, PathNode)
    }
    
    DiffAlgorithm <|- - MyersDiff
    MyersDiff - -> PathNode : "creates"
    MyersDiff - -> Revision : "creates"
    class MyersDiff
    {
        - -(constructors)- -
        +MyersDiff()
        - -(building)- -
        +PathNode buildPath(Object[] orig, Object[] rev)
        +Revision buildRevision(PathNode, Object[] orig, Object[] rev)
    }
    
    abstract class PathNode
    {
        - -(constructors)- -
        +PathNode(int, int, PathNode)
        - -(checks)- -
        +boolean isBootstrap()
        +boolean isSnake()
        - -(path)- -
        +PathNode previousSnake()
    }
    
    PathNode <|- - Snake
    class Snake
    {
        - -(constructors)- -
        +Snake(int, int, PathNode)
    }
    
@enduml

@startuml









skinparam backgroundColor #333333






skinparam  {
    defaultFontName   "Open Sans,Avenir,Nunito,Arial,Helvetica,SansSerif"
    defaultFontSize   12
    defaultTextAlignment left
    shadowing false
    RoundCorner 10
    TitleFontSize 18
}

skinparam defaultFontName       "Open Sans,Avenir,Nunito,Arial,Helvetica,SansSerif"
skinparam defaultFontSize       12
skinparam dpi                   100
skinparam shadowing             false
skinparam roundcorner           16
skinparam ParticipantPadding    40
skinparam BoxPadding            40
skinparam Padding               3
skinparam ArrowColor            #545454
skinparam stereotype {
    CBackgroundColor #0066cf
    CBorderColor #0086ef
    ABackgroundColor #C8Ac00
    ABorderColor #D8Bc00
    IBackgroundColor #008400
    IBorderColor #239c23
    EBackgroundColor #cf6300
    EBorderColor #ef8300
    NBackgroundColor #3380b9
    NBorderColor #004d86
}
skinparam title {
	FontColor	                 #c0c0c0
 	BorderColor                  #545454
	FontSize	    	         20
	BorderRoundCorner            16
	BorderThickness 	         1
	BackgroundColor              #48494b
}


skinparam legend {
	BackgroundColor #303030
	BorderColor #404040
	FontColor #a0a0a0
}

	skinparam swimlane {
	BorderColor #5e5e5e
	BorderThickness 2
	TitleBackgroundColor  #6d6d6d-#484848
	TitleFontColor #303030
}

skinparam activity {
		FontColor #C8Ac00
	BorderColor #333333
	BackgroundColor #333333-#333333
	BarColor #00FF00
	StartColor #0060a8
	EndColor #0060a8
	DiamondBackgroundColor #6d6d6d-#3a3a3a
  	DiamondBorderColor #3a3a3a
  	DiamondFontColor #fefefe
}


skinparam participant {
		FontColor #C8Ac00
	BorderColor #333333
	BackgroundColor #333333-#333333
	ParticipantBorderThickness 2
}


skinparam actor {
		FontColor #C8Ac00
	BorderColor #333333
	BackgroundColor #333333-#333333
}


skinparam arrow {
	Thickness 1.5
	Color #545454
	FontColor #a0a0a0
    FontStyle bold
    MessageAlignment center
}



skinparam sequence {
	BorderColor #303030
	TitleFontColor #303030
	BackgroundColor #333333
	StartColor #303030
	EndColor #303030
	BoxBackgroundColor #333333
	BoxBorderColor #484848
	BoxFontColor #484848
	LifeLineBorderColor #484848
	LifeLineBorderThickness 2
	LifeLineBackgroundColor #3a3a3a
	GroupBorderColor #484848
	GroupFontColor #484848
	GroupHeaderFontColor #0060a8
	GroupBackgroundColor #484848
	GroupHeaderBackgroundColor #333333
	DividerBackgroundColor #484848
    DividerBorderColor #484848
    DividerBorderThickness 2
    DividerFontColor #D8Bc00
	ReferenceBackgroundColor #333333
	ReferenceBorderColor #484848
	ReferenceFontColor #fefefe
	ReferenceHeaderBackgroundColor #484848
}


skinparam partition {
	BorderColor #303030
	FontColor #333333
	BackgroundColor #333333
}


skinparam collections {
		FontColor #C8Ac00
	BorderColor #333333
	BackgroundColor #333333-#333333
}


skinparam control {
		FontColor #C8Ac00
	BorderColor #333333
	BackgroundColor #333333-#333333
}


skinparam entity {
		FontColor #C8Ac00
	BorderColor #333333
	BackgroundColor #333333-#333333
}


skinparam boundary {
		FontColor #C8Ac00
	BorderColor #333333
	BackgroundColor #333333-#333333
}


skinparam agent {
	BackgroundColor #ff8000
	BorderColor #ff9933
	FontColor #484848
}


skinparam note {
	BorderThickness 1
	BackgroundColor #1b1b1a
	BorderColor #5e5e5e
	FontSize 11
	FontColor #a0a0a0
}


skinparam artifact {
	BorderThickness 10
	BorderColor #5e5e5e
	BackgroundColor #1b1b1a
	FontColor #D8Bc00
}


skinparam component {
		FontColor #C8Ac00
	BorderColor #333333
	BackgroundColor #333333-#333333
}


skinparam interface {
	BackgroundColor  #008400
	BorderColor  #007F00
	FontColor #484848
}


skinparam storage {
	BackgroundColor #ff8000
  	BorderColor #cc6600
	FontColor #222222
}


skinparam node {
	BackgroundColor #333333
	BorderColor #333333
	FontColor #C8Ac00
}


skinparam cloud {
	BackgroundColor #484848-black
	BorderColor #484848
	FontColor #D8Bc00
}


skinparam database {
		FontColor #C8Ac00
	BorderColor #333333
	BackgroundColor #333333-#333333
	BackgroundColor  #333333
}


skinparam class {
		FontColor #C8Ac00
	BorderColor #333333
	BackgroundColor #333333-#333333
	HeaderBackgroundColor #1b1b1a
    BackgroundColor #282828
    BorderColor #5e5e5e
 	StereotypeFontColor #a0a0a0
    StereotypeFontStyle bold
	BorderThickness 1
	AttributeFontColor #D8Bc00
	AttributeFontSize 11
    FontColor #D8Bc00
    FontStyle bold
}


skinparam object {
		FontColor #C8Ac00
	BorderColor #333333
	BackgroundColor #333333-#333333
	StereotypeFontColor #484848
	BorderThickness 1
	AttributeFontColor #fefefe
	AttributeFontSize 11
}


skinparam usecase {
		FontColor #C8Ac00
	BorderColor #333333
	BackgroundColor #333333-#333333
	BorderThickness 2
	StereotypeFontColor #303030
}


skinparam rectangle {
		FontColor #C8Ac00
	BorderColor #333333
	BackgroundColor #333333-#333333
	BackgroundColor #333333
	BorderThickness 2
	StereotypeFontColor #303030
}


skinparam package {
		FontColor #C8Ac00
	BorderColor #333333
	BackgroundColor #333333-#333333
	BackgroundColor #333333
	BorderThickness 2
}


skinparam folder {
	BackgroundColor #6d6d6d
  	BorderColor #ff8000
	FontColor #ff8000
	BorderThickness 2
}


skinparam frame {
	BackgroundColor #6d6d6d
  	BorderColor #0060a8
	FontColor #0060a8
	BorderThickness 2
}


skinparam state {
		FontColor #C8Ac00
	BorderColor #333333
	BackgroundColor #333333-#333333
	StartColor #0060a8
	EndColor #0060a8
	AttributeFontColor #fefefe
	AttributeFontSize 11
}


skinparam queue {
		FontColor #C8Ac00
	BorderColor #333333
	BackgroundColor #333333-#333333
}


skinparam card {
	BackgroundColor #0060a8
	BorderColor #004d86
	FontColor $INFO_TEXT
}


skinparam file {
	BackgroundColor #6d6d6d-#484848
	BorderColor #0060a8
	FontColor #fefefe
}


skinparam stack {
		FontColor #C8Ac00
	BorderColor #333333
	BackgroundColor #333333-#333333
}

    
    title "org.apache.wicket.util.diff.myers"
    
    interface DiffAlgorithm
    
    PathNode <|- - DiffNode
    class DiffNode
    {
        - -(constructors)- -
        +DiffNode(int, int, PathNode)
    }
    
    DiffAlgorithm <|- - MyersDiff
    MyersDiff - -> PathNode : "creates"
    MyersDiff - -> Revision : "creates"
    class MyersDiff
    {
        - -(constructors)- -
        +MyersDiff()
        - -(building)- -
        +PathNode buildPath(Object[] orig, Object[] rev)
        +Revision buildRevision(PathNode, Object[] orig, Object[] rev)
    }
    
    abstract class PathNode
    {
        - -(constructors)- -
        +PathNode(int, int, PathNode)
        - -(checks)- -
        +boolean isBootstrap()
        +boolean isSnake()
        - -(path)- -
        +PathNode previousSnake()
    }
    
    PathNode <|- - Snake
    class Snake
    {
        - -(constructors)- -
        +Snake(int, int, PathNode)
    }
    
@enduml

PlantUML version 1.2021.01(Tue Feb 02 00:55:08 MST 2021)
(GPL source distribution)
Java Runtime: Java(TM) SE Runtime Environment
JVM: Java HotSpot(TM) 64-Bit Server VM
Default Encoding: UTF-8
Language: en
Country: US
--></g></svg>