<?xml version="1.0" encoding="UTF-8" standalone="no"?><svg xmlns="http://www.w3.org/2000/svg" xmlns:xlink="http://www.w3.org/1999/xlink" contentScriptType="application/ecmascript" contentStyleType="text/css" height="333.3333px" preserveAspectRatio="none" style="width:893px;height:333px;background:#333333;" version="1.1" viewBox="0 0 893 333" width="893.75px" zoomAndPan="magnify"><defs/><g><rect fill="#48494B" height="41.2028" rx="8.3333" ry="8.3333" style="stroke:#545454;stroke-width:1.0416666666666667;" width="286.4583" x="296.6146" y="2.0833"/><text fill="#C0C0C0" font-family="Open Sans,Avenir,Nunito,Arial,Helvetica,SansSerif" font-size="20.8333" lengthAdjust="spacing" textLength="263.5417" x="308.0729" y="30.5583">org.apache.wicket.util.xml</text><!--MD5=[4ac1c784f6afd0d39c95228f9b6e17d5]
class EntityLocator--><rect codeLine="6" fill="#282828" height="48.055" id="EntityLocator" rx="8.3333" ry="8.3333" style="stroke:#5E5E5E;stroke-width:1.0416666666666667;" width="122.9167" x="7.2917" y="71.4111"/><rect fill="#1B1B1A" height="31.3883" rx="8.3333" ry="8.3333" style="stroke:#1B1B1A;stroke-width:1.0416666666666667;" width="122.9167" x="7.2917" y="71.4111"/><rect fill="#1B1B1A" height="8.3333" style="stroke:#1B1B1A;stroke-width:1.0416666666666667;" width="122.9167" x="7.2917" y="94.4661"/><rect codeLine="6" fill="none" height="48.055" id="EntityLocator" rx="8.3333" ry="8.3333" style="stroke:#5E5E5E;stroke-width:1.0416666666666667;" width="122.9167" x="7.2917" y="71.4111"/><ellipse cx="21.875" cy="87.1053" fill="#008400" rx="10.4167" ry="10.4167" style="stroke:#239C23;stroke-width:1.0416666666666667;"/><path d="M19.279,84.2672 L19.279,82.6803 L24.705,82.6803 L24.705,84.2672 L22.8923,84.2672 L22.8923,90.2059 L24.705,90.2059 L24.705,91.7928 L19.279,91.7928 L19.279,90.2059 L21.0917,90.2059 L21.0917,84.2672 Z " fill="#000000"/><text fill="#D8BC00" font-family="Open Sans,Avenir,Nunito,Arial,Helvetica,SansSerif" font-size="12.5" font-style="italic" font-weight="bold" lengthAdjust="spacing" textLength="85.4167" x="38.5417" y="91.8294">EntityLocator</text><line style="stroke:#5E5E5E;stroke-width:1.0416666666666667;" x1="8.3333" x2="129.1667" y1="102.7995" y2="102.7995"/><line style="stroke:#5E5E5E;stroke-width:1.0416666666666667;" x1="8.3333" x2="129.1667" y1="111.1328" y2="111.1328"/><!--MD5=[c6b4c54a4d9082c4f255caf9ed03f2b8]
class EntityResolver--><rect codeLine="7" fill="#282828" height="48.055" id="EntityResolver" rx="8.3333" ry="8.3333" style="stroke:#5E5E5E;stroke-width:1.0416666666666667;" width="130.2083" x="167.1875" y="71.4111"/><rect fill="#1B1B1A" height="31.3883" rx="8.3333" ry="8.3333" style="stroke:#1B1B1A;stroke-width:1.0416666666666667;" width="130.2083" x="167.1875" y="71.4111"/><rect fill="#1B1B1A" height="8.3333" style="stroke:#1B1B1A;stroke-width:1.0416666666666667;" width="130.2083" x="167.1875" y="94.4661"/><rect codeLine="7" fill="none" height="48.055" id="EntityResolver" rx="8.3333" ry="8.3333" style="stroke:#5E5E5E;stroke-width:1.0416666666666667;" width="130.2083" x="167.1875" y="71.4111"/><ellipse cx="181.7708" cy="87.1053" fill="#008400" rx="10.4167" ry="10.4167" style="stroke:#239C23;stroke-width:1.0416666666666667;"/><path d="M179.1748,84.2672 L179.1748,82.6803 L184.6008,82.6803 L184.6008,84.2672 L182.7881,84.2672 L182.7881,90.2059 L184.6008,90.2059 L184.6008,91.7928 L179.1748,91.7928 L179.1748,90.2059 L180.9875,90.2059 L180.9875,84.2672 Z " fill="#000000"/><text fill="#D8BC00" font-family="Open Sans,Avenir,Nunito,Arial,Helvetica,SansSerif" font-size="12.5" font-style="italic" font-weight="bold" lengthAdjust="spacing" textLength="92.7083" x="198.4375" y="91.8294">EntityResolver</text><line style="stroke:#5E5E5E;stroke-width:1.0416666666666667;" x1="168.2292" x2="296.3542" y1="102.7995" y2="102.7995"/><line style="stroke:#5E5E5E;stroke-width:1.0416666666666667;" x1="168.2292" x2="296.3542" y1="111.1328" y2="111.1328"/><!--MD5=[3f034f7010b0d4a21696a4022cf62162]
class CustomEntityResolver--><rect codeLine="10" fill="#282828" height="127.0345" id="CustomEntityResolver" rx="8.3333" ry="8.3333" style="stroke:#5E5E5E;stroke-width:1.0416666666666667;" width="239.5833" x="112.5" y="199.5361"/><rect fill="#1B1B1A" height="31.3883" rx="8.3333" ry="8.3333" style="stroke:#1B1B1A;stroke-width:1.0416666666666667;" width="239.5833" x="112.5" y="199.5361"/><rect fill="#1B1B1A" height="8.3333" style="stroke:#1B1B1A;stroke-width:1.0416666666666667;" width="239.5833" x="112.5" y="222.5911"/><rect codeLine="10" fill="none" height="127.0345" id="CustomEntityResolver" rx="8.3333" ry="8.3333" style="stroke:#5E5E5E;stroke-width:1.0416666666666667;" width="239.5833" x="112.5" y="199.5361"/><ellipse cx="153.3333" cy="215.2303" fill="#0066CF" rx="10.4167" ry="10.4167" style="stroke:#0086EF;stroke-width:1.0416666666666667;"/><path d="M155.2437,219.6554 Q154.8165,219.8751 154.3465,219.9849 Q153.8765,220.0948 153.3577,220.0948 Q151.5145,220.0948 150.544,218.8802 Q149.5736,217.6656 149.5736,215.3707 Q149.5736,213.0697 150.544,211.8551 Q151.5145,210.6405 153.3577,210.6405 Q153.8765,210.6405 154.3526,210.7503 Q154.8287,210.8602 155.2437,211.0799 L155.2437,213.0819 Q154.7799,212.6546 154.3435,212.4563 Q153.9071,212.2579 153.4432,212.2579 Q152.4544,212.2579 151.9509,213.0422 Q151.4473,213.8265 151.4473,215.3707 Q151.4473,216.9088 151.9509,217.6931 Q152.4544,218.4774 153.4432,218.4774 Q153.9071,218.4774 154.3435,218.279 Q154.7799,218.0806 155.2437,217.6534 Z " fill="#000000"/><text fill="#D8BC00" font-family="Open Sans,Avenir,Nunito,Arial,Helvetica,SansSerif" font-size="12.5" font-weight="bold" lengthAdjust="spacing" textLength="143.75" x="175.8333" y="219.9544">CustomEntityResolver</text><line style="stroke:#5E5E5E;stroke-width:1.5625;" x1="113.5417" x2="351.0417" y1="230.9245" y2="230.9245"/><ellipse cx="123.9583" cy="266.2944" fill="#84BE84" rx="3.125" ry="3.125" style="stroke:#038048;stroke-width:1.0416666666666667;"/><text fill="#D8BC00" font-family="Open Sans,Avenir,Nunito,Arial,Helvetica,SansSerif" font-size="11.4583" lengthAdjust="spacing" textLength="185.4167" x="135.4167" y="273.2056">void put(EntityKey, EntityLocator)</text><line style="stroke:#5E5E5E;stroke-width:1.0416666666666667;" x1="113.5417" x2="197.9167" y1="249.1302" y2="249.1302"/><text fill="#D8BC00" font-family="Open Sans,Avenir,Nunito,Arial,Helvetica,SansSerif" font-size="11.4583" lengthAdjust="spacing" textLength="62.5" x="201.0417" y="252.9399">(collection)</text><line style="stroke:#5E5E5E;stroke-width:1.0416666666666667;" x1="266.6667" x2="351.0417" y1="249.1302" y2="249.1302"/><ellipse cx="123.9583" cy="309.9508" fill="#84BE84" rx="3.125" ry="3.125" style="stroke:#038048;stroke-width:1.0416666666666667;"/><text fill="#D8BC00" font-family="Open Sans,Avenir,Nunito,Arial,Helvetica,SansSerif" font-size="11.4583" lengthAdjust="spacing" textLength="207.2917" x="135.4167" y="316.862">CustomEntityResolver getPreloaded()</text><line style="stroke:#5E5E5E;stroke-width:1.0416666666666667;" x1="113.5417" x2="196.875" y1="292.7867" y2="292.7867"/><text fill="#D8BC00" font-family="Open Sans,Avenir,Nunito,Arial,Helvetica,SansSerif" font-size="11.4583" lengthAdjust="spacing" textLength="64.5833" x="200" y="296.5963">(functional)</text><line style="stroke:#5E5E5E;stroke-width:1.0416666666666667;" x1="267.7083" x2="351.0417" y1="292.7867" y2="292.7867"/><!--MD5=[4555f61b29f60073525a6ab2398c23c3]
class CustomEntityResolver.EntityKey--><rect codeLine="18" fill="#282828" height="48.055" id="CustomEntityResolver.EntityKey" rx="8.3333" ry="8.3333" style="stroke:#5E5E5E;stroke-width:1.0416666666666667;" width="245.8333" x="334.375" y="71.4111"/><rect fill="#1B1B1A" height="31.3883" rx="8.3333" ry="8.3333" style="stroke:#1B1B1A;stroke-width:1.0416666666666667;" width="245.8333" x="334.375" y="71.4111"/><rect fill="#1B1B1A" height="8.3333" style="stroke:#1B1B1A;stroke-width:1.0416666666666667;" width="245.8333" x="334.375" y="94.4661"/><rect codeLine="18" fill="none" height="48.055" id="CustomEntityResolver.EntityKey" rx="8.3333" ry="8.3333" style="stroke:#5E5E5E;stroke-width:1.0416666666666667;" width="245.8333" x="334.375" y="71.4111"/><ellipse cx="348.9583" cy="87.1053" fill="#0066CF" rx="10.4167" ry="10.4167" style="stroke:#0086EF;stroke-width:1.0416666666666667;"/><path d="M350.8687,91.5304 Q350.4415,91.7501 349.9715,91.8599 Q349.5015,91.9698 348.9827,91.9698 Q347.1395,91.9698 346.169,90.7552 Q345.1986,89.5406 345.1986,87.2457 Q345.1986,84.9447 346.169,83.7301 Q347.1395,82.5155 348.9827,82.5155 Q349.5015,82.5155 349.9776,82.6253 Q350.4537,82.7352 350.8687,82.9549 L350.8687,84.9569 Q350.4049,84.5296 349.9685,84.3313 Q349.5321,84.1329 349.0682,84.1329 Q348.0794,84.1329 347.5759,84.9172 Q347.0723,85.7015 347.0723,87.2457 Q347.0723,88.7838 347.5759,89.5681 Q348.0794,90.3524 349.0682,90.3524 Q349.5321,90.3524 349.9685,90.154 Q350.4049,89.9556 350.8687,89.5284 Z " fill="#000000"/><text fill="#D8BC00" font-family="Open Sans,Avenir,Nunito,Arial,Helvetica,SansSerif" font-size="12.5" font-weight="bold" lengthAdjust="spacing" textLength="208.3333" x="365.625" y="91.8294">CustomEntityResolver.EntityKey</text><line style="stroke:#5E5E5E;stroke-width:1.0416666666666667;" x1="335.4167" x2="579.1667" y1="102.7995" y2="102.7995"/><line style="stroke:#5E5E5E;stroke-width:1.0416666666666667;" x1="335.4167" x2="579.1667" y1="111.1328" y2="111.1328"/><!--MD5=[c53c4450a90f0ddbb5a7fe719eebccf9]
class CustomEntityResolver.EntityLocator--><rect codeLine="22" fill="#282828" height="83.3781" id="CustomEntityResolver.EntityLocator" rx="8.3333" ry="8.3333" style="stroke:#5E5E5E;stroke-width:1.0416666666666667;" width="269.7917" x="617.1875" y="53.7028"/><rect fill="#1B1B1A" height="31.3883" rx="8.3333" ry="8.3333" style="stroke:#1B1B1A;stroke-width:1.0416666666666667;" width="269.7917" x="617.1875" y="53.7028"/><rect fill="#1B1B1A" height="8.3333" style="stroke:#1B1B1A;stroke-width:1.0416666666666667;" width="269.7917" x="617.1875" y="76.7578"/><rect codeLine="22" fill="none" height="83.3781" id="CustomEntityResolver.EntityLocator" rx="8.3333" ry="8.3333" style="stroke:#5E5E5E;stroke-width:1.0416666666666667;" width="269.7917" x="617.1875" y="53.7028"/><ellipse cx="631.7708" cy="69.397" fill="#008400" rx="10.4167" ry="10.4167" style="stroke:#239C23;stroke-width:1.0416666666666667;"/><path d="M629.1748,66.5588 L629.1748,64.9719 L634.6008,64.9719 L634.6008,66.5588 L632.7881,66.5588 L632.7881,72.4976 L634.6008,72.4976 L634.6008,74.0845 L629.1748,74.0845 L629.1748,72.4976 L630.9875,72.4976 L630.9875,66.5588 Z " fill="#000000"/><text fill="#D8BC00" font-family="Open Sans,Avenir,Nunito,Arial,Helvetica,SansSerif" font-size="12.5" font-style="italic" font-weight="bold" lengthAdjust="spacing" textLength="232.2917" x="648.4375" y="74.1211">CustomEntityResolver.EntityLocator</text><line style="stroke:#5E5E5E;stroke-width:1.5625;" x1="618.2292" x2="885.9375" y1="85.0911" y2="85.0911"/><ellipse cx="628.6458" cy="120.461" fill="#84BE84" rx="3.125" ry="3.125" style="stroke:#038048;stroke-width:1.0416666666666667;"/><text fill="#D8BC00" font-family="Open Sans,Avenir,Nunito,Arial,Helvetica,SansSerif" font-size="11.4583" lengthAdjust="spacing" textLength="180.2083" x="640.1042" y="127.3722">InputSource locateInputSource()</text><line style="stroke:#5E5E5E;stroke-width:1.0416666666666667;" x1="618.2292" x2="726.0417" y1="103.2969" y2="103.2969"/><text fill="#D8BC00" font-family="Open Sans,Avenir,Nunito,Arial,Helvetica,SansSerif" font-size="11.4583" lengthAdjust="spacing" textLength="45.8333" x="729.1667" y="107.1065">(search)</text><line style="stroke:#5E5E5E;stroke-width:1.0416666666666667;" x1="778.125" x2="885.9375" y1="103.2969" y2="103.2969"/><!--MD5=[c6babce3f6d41c88f75b6fb34a17313f]
class CustomEntityResolver.ServletApiEntityLocator--><rect codeLine="29" fill="#282828" height="48.055" id="CustomEntityResolver.ServletApiEntityLocator" rx="8.3333" ry="8.3333" style="stroke:#5E5E5E;stroke-width:1.0416666666666667;" width="188.5417" x="657.8125" y="239.1195"/><rect fill="#1B1B1A" height="31.3883" rx="8.3333" ry="8.3333" style="stroke:#1B1B1A;stroke-width:1.0416666666666667;" width="188.5417" x="657.8125" y="239.1195"/><rect fill="#1B1B1A" height="8.3333" style="stroke:#1B1B1A;stroke-width:1.0416666666666667;" width="188.5417" x="657.8125" y="262.1745"/><rect codeLine="29" fill="none" height="48.055" id="CustomEntityResolver.ServletApiEntityLocator" rx="8.3333" ry="8.3333" style="stroke:#5E5E5E;stroke-width:1.0416666666666667;" width="188.5417" x="657.8125" y="239.1195"/><ellipse cx="672.3958" cy="254.8136" fill="#0066CF" rx="10.4167" ry="10.4167" style="stroke:#0086EF;stroke-width:1.0416666666666667;"/><path d="M674.3062,259.2387 Q673.879,259.4584 673.409,259.5683 Q672.939,259.6781 672.4202,259.6781 Q670.577,259.6781 669.6065,258.4635 Q668.6361,257.2489 668.6361,254.954 Q668.6361,252.653 669.6065,251.4384 Q670.577,250.2238 672.4202,250.2238 Q672.939,250.2238 673.4151,250.3337 Q673.8912,250.4435 674.3062,250.6632 L674.3062,252.6652 Q673.8424,252.238 673.406,252.0396 Q672.9696,251.8412 672.5057,251.8412 Q671.5169,251.8412 671.0134,252.6255 Q670.5098,253.4098 670.5098,254.954 Q670.5098,256.4921 671.0134,257.2764 Q671.5169,258.0607 672.5057,258.0607 Q672.9696,258.0607 673.406,257.8623 Q673.8424,257.664 674.3062,257.2367 Z " fill="#000000"/><text fill="#D8BC00" font-family="Open Sans,Avenir,Nunito,Arial,Helvetica,SansSerif" font-size="12.5" font-weight="bold" lengthAdjust="spacing" textLength="151.0417" x="689.0625" y="259.5378">ServletApiEntityLocator</text><line style="stroke:#5E5E5E;stroke-width:1.0416666666666667;" x1="658.8542" x2="845.3125" y1="270.5078" y2="270.5078"/><line style="stroke:#5E5E5E;stroke-width:1.0416666666666667;" x1="658.8542" x2="845.3125" y1="278.8411" y2="278.8411"/><!--MD5=[4347740aef9dc74e74c343cdaca52c9d]
reverse link EntityResolver to CustomEntityResolver--><path codeLine="9" d="M232.2917,140.5465 C232.2917,158.5465 232.2917,179.682 232.2917,199.2445 " fill="none" id="EntityResolver-backto-CustomEntityResolver" style="stroke:#545454;stroke-width:1.5625;"/><polygon fill="none" points="225,140.2757,232.2917,119.4424,239.5833,140.2757,225,140.2757" style="stroke:#545454;stroke-width:1.5625;"/><!--MD5=[8ce526500ff0c46e05aa10454ea09b15]
reverse link CustomEntityResolver.EntityLocator to CustomEntityResolver.ServletApiEntityLocator--><path codeLine="28" d="M752.0833,158.432 C752.0833,186.5465 752.0833,218.0882 752.0833,238.9111 " fill="none" id="CustomEntityResolver.EntityLocator-backto-CustomEntityResolver.ServletApiEntityLocator" style="stroke:#545454;stroke-width:1.5625;"/><polygon fill="none" points="744.7917,158.182,752.0833,137.3486,759.375,158.182,744.7917,158.182" style="stroke:#545454;stroke-width:1.5625;"/><!--MD5=[3dca5567e96a0608a60f56f75d8b046c]
@startuml

    !include lexakai.theme
    
    title "org.apache.wicket.util.xml"
    
    interface EntityLocator
    interface EntityResolver
    
    EntityResolver <|- - CustomEntityResolver
    class CustomEntityResolver
    {
        - -(collection)- -
        +void put(EntityKey, EntityLocator)
        - -(functional)- -
        +CustomEntityResolver getPreloaded()
    }
    
    class CustomEntityResolver.EntityKey
    {
    }
    
    interface CustomEntityResolver.EntityLocator
    {
        - -(search)- -
        +InputSource locateInputSource()
    }
    
    CustomEntityResolver.EntityLocator <|- - CustomEntityResolver.ServletApiEntityLocator
    class CustomEntityResolver.ServletApiEntityLocator
    {
    }
    
@enduml

@startuml









skinparam backgroundColor #333333






skinparam  {
    defaultFontName   "Open Sans,Avenir,Nunito,Arial,Helvetica,SansSerif"
    defaultFontSize   12
    defaultTextAlignment left
    shadowing false
    RoundCorner 10
    TitleFontSize 18
}

skinparam defaultFontName       "Open Sans,Avenir,Nunito,Arial,Helvetica,SansSerif"
skinparam defaultFontSize       12
skinparam dpi                   100
skinparam shadowing             false
skinparam roundcorner           16
skinparam ParticipantPadding    40
skinparam BoxPadding            40
skinparam Padding               3
skinparam ArrowColor            #545454
skinparam stereotype {
    CBackgroundColor #0066cf
    CBorderColor #0086ef
    ABackgroundColor #C8Ac00
    ABorderColor #D8Bc00
    IBackgroundColor #008400
    IBorderColor #239c23
    EBackgroundColor #cf6300
    EBorderColor #ef8300
    NBackgroundColor #3380b9
    NBorderColor #004d86
}
skinparam title {
	FontColor	                 #c0c0c0
 	BorderColor                  #545454
	FontSize	    	         20
	BorderRoundCorner            16
	BorderThickness 	         1
	BackgroundColor              #48494b
}


skinparam legend {
	BackgroundColor #303030
	BorderColor #404040
	FontColor #a0a0a0
}

	skinparam swimlane {
	BorderColor #5e5e5e
	BorderThickness 2
	TitleBackgroundColor  #6d6d6d-#484848
	TitleFontColor #303030
}

skinparam activity {
		FontColor #C8Ac00
	BorderColor #333333
	BackgroundColor #333333-#333333
	BarColor #00FF00
	StartColor #0060a8
	EndColor #0060a8
	DiamondBackgroundColor #6d6d6d-#3a3a3a
  	DiamondBorderColor #3a3a3a
  	DiamondFontColor #fefefe
}


skinparam participant {
		FontColor #C8Ac00
	BorderColor #333333
	BackgroundColor #333333-#333333
	ParticipantBorderThickness 2
}


skinparam actor {
		FontColor #C8Ac00
	BorderColor #333333
	BackgroundColor #333333-#333333
}


skinparam arrow {
	Thickness 1.5
	Color #545454
	FontColor #a0a0a0
    FontStyle bold
    MessageAlignment center
}



skinparam sequence {
	BorderColor #303030
	TitleFontColor #303030
	BackgroundColor #333333
	StartColor #303030
	EndColor #303030
	BoxBackgroundColor #333333
	BoxBorderColor #484848
	BoxFontColor #484848
	LifeLineBorderColor #484848
	LifeLineBorderThickness 2
	LifeLineBackgroundColor #3a3a3a
	GroupBorderColor #484848
	GroupFontColor #484848
	GroupHeaderFontColor #0060a8
	GroupBackgroundColor #484848
	GroupHeaderBackgroundColor #333333
	DividerBackgroundColor #484848
    DividerBorderColor #484848
    DividerBorderThickness 2
    DividerFontColor #D8Bc00
	ReferenceBackgroundColor #333333
	ReferenceBorderColor #484848
	ReferenceFontColor #fefefe
	ReferenceHeaderBackgroundColor #484848
}


skinparam partition {
	BorderColor #303030
	FontColor #333333
	BackgroundColor #333333
}


skinparam collections {
		FontColor #C8Ac00
	BorderColor #333333
	BackgroundColor #333333-#333333
}


skinparam control {
		FontColor #C8Ac00
	BorderColor #333333
	BackgroundColor #333333-#333333
}


skinparam entity {
		FontColor #C8Ac00
	BorderColor #333333
	BackgroundColor #333333-#333333
}


skinparam boundary {
		FontColor #C8Ac00
	BorderColor #333333
	BackgroundColor #333333-#333333
}


skinparam agent {
	BackgroundColor #ff8000
	BorderColor #ff9933
	FontColor #484848
}


skinparam note {
	BorderThickness 1
	BackgroundColor #1b1b1a
	BorderColor #5e5e5e
	FontSize 11
	FontColor #a0a0a0
}


skinparam artifact {
	BorderThickness 10
	BorderColor #5e5e5e
	BackgroundColor #1b1b1a
	FontColor #D8Bc00
}


skinparam component {
		FontColor #C8Ac00
	BorderColor #333333
	BackgroundColor #333333-#333333
}


skinparam interface {
	BackgroundColor  #008400
	BorderColor  #007F00
	FontColor #484848
}


skinparam storage {
	BackgroundColor #ff8000
  	BorderColor #cc6600
	FontColor #222222
}


skinparam node {
	BackgroundColor #333333
	BorderColor #333333
	FontColor #C8Ac00
}


skinparam cloud {
	BackgroundColor #484848-black
	BorderColor #484848
	FontColor #D8Bc00
}


skinparam database {
		FontColor #C8Ac00
	BorderColor #333333
	BackgroundColor #333333-#333333
	BackgroundColor  #333333
}


skinparam class {
		FontColor #C8Ac00
	BorderColor #333333
	BackgroundColor #333333-#333333
	HeaderBackgroundColor #1b1b1a
    BackgroundColor #282828
    BorderColor #5e5e5e
 	StereotypeFontColor #a0a0a0
    StereotypeFontStyle bold
	BorderThickness 1
	AttributeFontColor #D8Bc00
	AttributeFontSize 11
    FontColor #D8Bc00
    FontStyle bold
}


skinparam object {
		FontColor #C8Ac00
	BorderColor #333333
	BackgroundColor #333333-#333333
	StereotypeFontColor #484848
	BorderThickness 1
	AttributeFontColor #fefefe
	AttributeFontSize 11
}


skinparam usecase {
		FontColor #C8Ac00
	BorderColor #333333
	BackgroundColor #333333-#333333
	BorderThickness 2
	StereotypeFontColor #303030
}


skinparam rectangle {
		FontColor #C8Ac00
	BorderColor #333333
	BackgroundColor #333333-#333333
	BackgroundColor #333333
	BorderThickness 2
	StereotypeFontColor #303030
}


skinparam package {
		FontColor #C8Ac00
	BorderColor #333333
	BackgroundColor #333333-#333333
	BackgroundColor #333333
	BorderThickness 2
}


skinparam folder {
	BackgroundColor #6d6d6d
  	BorderColor #ff8000
	FontColor #ff8000
	BorderThickness 2
}


skinparam frame {
	BackgroundColor #6d6d6d
  	BorderColor #0060a8
	FontColor #0060a8
	BorderThickness 2
}


skinparam state {
		FontColor #C8Ac00
	BorderColor #333333
	BackgroundColor #333333-#333333
	StartColor #0060a8
	EndColor #0060a8
	AttributeFontColor #fefefe
	AttributeFontSize 11
}


skinparam queue {
		FontColor #C8Ac00
	BorderColor #333333
	BackgroundColor #333333-#333333
}


skinparam card {
	BackgroundColor #0060a8
	BorderColor #004d86
	FontColor $INFO_TEXT
}


skinparam file {
	BackgroundColor #6d6d6d-#484848
	BorderColor #0060a8
	FontColor #fefefe
}


skinparam stack {
		FontColor #C8Ac00
	BorderColor #333333
	BackgroundColor #333333-#333333
}

    
    title "org.apache.wicket.util.xml"
    
    interface EntityLocator
    interface EntityResolver
    
    EntityResolver <|- - CustomEntityResolver
    class CustomEntityResolver
    {
        - -(collection)- -
        +void put(EntityKey, EntityLocator)
        - -(functional)- -
        +CustomEntityResolver getPreloaded()
    }
    
    class CustomEntityResolver.EntityKey
    {
    }
    
    interface CustomEntityResolver.EntityLocator
    {
        - -(search)- -
        +InputSource locateInputSource()
    }
    
    CustomEntityResolver.EntityLocator <|- - CustomEntityResolver.ServletApiEntityLocator
    class CustomEntityResolver.ServletApiEntityLocator
    {
    }
    
@enduml

PlantUML version 1.2021.01(Tue Feb 02 00:55:08 MST 2021)
(GPL source distribution)
Java Runtime: Java(TM) SE Runtime Environment
JVM: Java HotSpot(TM) 64-Bit Server VM
Default Encoding: UTF-8
Language: en
Country: US
--></g></svg>